%TF.GenerationSoftware,KiCad,Pcbnew,6.0.11+dfsg-1~bpo11+1*%
%TF.CreationDate,2023-04-13T08:43:22+00:00*%
%TF.ProjectId,PCRD01,50435244-3031-42e6-9b69-6361645f7063,01A*%
%TF.SameCoordinates,Original*%
%TF.FileFunction,Paste,Bot*%
%TF.FilePolarity,Positive*%
%FSLAX46Y46*%
G04 Gerber Fmt 4.6, Leading zero omitted, Abs format (unit mm)*
G04 Created by KiCad (PCBNEW 6.0.11+dfsg-1~bpo11+1) date 2023-04-13 08:43:22*
%MOMM*%
%LPD*%
G01*
G04 APERTURE LIST*
G04 Aperture macros list*
%AMRoundRect*
0 Rectangle with rounded corners*
0 $1 Rounding radius*
0 $2 $3 $4 $5 $6 $7 $8 $9 X,Y pos of 4 corners*
0 Add a 4 corners polygon primitive as box body*
4,1,4,$2,$3,$4,$5,$6,$7,$8,$9,$2,$3,0*
0 Add four circle primitives for the rounded corners*
1,1,$1+$1,$2,$3*
1,1,$1+$1,$4,$5*
1,1,$1+$1,$6,$7*
1,1,$1+$1,$8,$9*
0 Add four rect primitives between the rounded corners*
20,1,$1+$1,$2,$3,$4,$5,0*
20,1,$1+$1,$4,$5,$6,$7,0*
20,1,$1+$1,$6,$7,$8,$9,0*
20,1,$1+$1,$8,$9,$2,$3,0*%
G04 Aperture macros list end*
%ADD10RoundRect,0.250000X-0.475000X0.250000X-0.475000X-0.250000X0.475000X-0.250000X0.475000X0.250000X0*%
%ADD11RoundRect,0.250000X0.475000X-0.250000X0.475000X0.250000X-0.475000X0.250000X-0.475000X-0.250000X0*%
%ADD12RoundRect,0.250000X-0.250000X-0.475000X0.250000X-0.475000X0.250000X0.475000X-0.250000X0.475000X0*%
%ADD13RoundRect,0.250000X0.450000X-0.262500X0.450000X0.262500X-0.450000X0.262500X-0.450000X-0.262500X0*%
%ADD14RoundRect,0.250000X0.262500X0.450000X-0.262500X0.450000X-0.262500X-0.450000X0.262500X-0.450000X0*%
%ADD15RoundRect,0.250000X-0.450000X0.262500X-0.450000X-0.262500X0.450000X-0.262500X0.450000X0.262500X0*%
%ADD16RoundRect,0.250000X0.250000X0.475000X-0.250000X0.475000X-0.250000X-0.475000X0.250000X-0.475000X0*%
%ADD17R,0.508000X1.143000*%
%ADD18R,0.500000X1.000760*%
%ADD19R,0.501040X1.000760*%
%ADD20RoundRect,0.150000X-0.150000X0.587500X-0.150000X-0.587500X0.150000X-0.587500X0.150000X0.587500X0*%
G04 APERTURE END LIST*
D10*
%TO.C,C1*%
X147570000Y-85187000D03*
X147570000Y-87087000D03*
%TD*%
%TO.C,C2*%
X156968000Y-95474000D03*
X156968000Y-97374000D03*
%TD*%
D11*
%TO.C,C3*%
X158873000Y-89754000D03*
X158873000Y-87854000D03*
%TD*%
%TO.C,C5*%
X172843000Y-82134000D03*
X172843000Y-80234000D03*
%TD*%
%TO.C,C6*%
X170303000Y-82134000D03*
X170303000Y-80234000D03*
%TD*%
D12*
%TO.C,C10*%
X159802600Y-97008200D03*
X161702600Y-97008200D03*
%TD*%
D11*
%TO.C,C12*%
X175510000Y-91913000D03*
X175510000Y-90013000D03*
%TD*%
D12*
%TO.C,C14*%
X171766000Y-84308200D03*
X173666000Y-84308200D03*
%TD*%
D13*
%TO.C,R1*%
X147570000Y-83366500D03*
X147570000Y-81541500D03*
%TD*%
D14*
%TO.C,R2*%
X144024800Y-88169000D03*
X142199800Y-88169000D03*
%TD*%
D13*
%TO.C,R5*%
X163826000Y-94161500D03*
X163826000Y-92336500D03*
%TD*%
%TO.C,R6*%
X171192000Y-94034500D03*
X171192000Y-92209500D03*
%TD*%
%TO.C,R7*%
X166239000Y-94161500D03*
X166239000Y-92336500D03*
%TD*%
%TO.C,R8*%
X173224000Y-91875500D03*
X173224000Y-90050500D03*
%TD*%
%TO.C,R9*%
X169972800Y-89564100D03*
X169972800Y-87739100D03*
%TD*%
D15*
%TO.C,R11*%
X175357600Y-86240500D03*
X175357600Y-88065500D03*
%TD*%
D11*
%TO.C,C11*%
X168779000Y-94072000D03*
X168779000Y-92172000D03*
%TD*%
%TO.C,C4*%
X150287569Y-94385069D03*
X150287569Y-92485069D03*
%TD*%
%TO.C,C9*%
X161413000Y-89754000D03*
X161413000Y-87854000D03*
%TD*%
D16*
%TO.C,C8*%
X161093000Y-92106000D03*
X159193000Y-92106000D03*
%TD*%
D11*
%TO.C,C13*%
X169972800Y-86248800D03*
X169972800Y-84348800D03*
%TD*%
D13*
%TO.C,R10*%
X172004800Y-87963900D03*
X172004800Y-86138900D03*
%TD*%
D12*
%TO.C,C7*%
X159828000Y-95154000D03*
X161728000Y-95154000D03*
%TD*%
D17*
%TO.C,U2*%
X167763000Y-89439000D03*
X166493000Y-89439000D03*
X165223000Y-89439000D03*
X163953000Y-89439000D03*
X163953000Y-83089000D03*
X165223000Y-83089000D03*
X166493000Y-83089000D03*
X167763000Y-83089000D03*
%TD*%
D18*
%TO.C,U1*%
X157158500Y-93376000D03*
X156206000Y-93376000D03*
X155253500Y-93376000D03*
D19*
X155253500Y-90836000D03*
D18*
X156206000Y-90836000D03*
X157158500Y-90836000D03*
%TD*%
D13*
%TO.C,R3*%
X155063000Y-97336500D03*
X155063000Y-95511500D03*
%TD*%
D20*
%TO.C,Q1*%
X153450000Y-85062500D03*
X155350000Y-85062500D03*
X154400000Y-86937500D03*
%TD*%
D13*
%TO.C,R4*%
X152510569Y-94292569D03*
X152510569Y-92467569D03*
%TD*%
D14*
%TO.C,R12*%
X144735500Y-90386500D03*
X142910500Y-90386500D03*
%TD*%
D11*
%TO.C,C15*%
X144115600Y-86413900D03*
X144115600Y-84513900D03*
%TD*%
M02*
