%TF.GenerationSoftware,KiCad,Pcbnew,6.0.11+dfsg-1~bpo11+1*%
%TF.CreationDate,2023-04-13T08:43:22+00:00*%
%TF.ProjectId,PCRD01,50435244-3031-42e6-9b69-6361645f7063,01A*%
%TF.SameCoordinates,Original*%
%TF.FileFunction,Copper,L1,Top*%
%TF.FilePolarity,Positive*%
%FSLAX46Y46*%
G04 Gerber Fmt 4.6, Leading zero omitted, Abs format (unit mm)*
G04 Created by KiCad (PCBNEW 6.0.11+dfsg-1~bpo11+1) date 2023-04-13 08:43:22*
%MOMM*%
%LPD*%
G01*
G04 APERTURE LIST*
%TA.AperFunction,ComponentPad*%
%ADD10R,1.524000X1.524000*%
%TD*%
%TA.AperFunction,ComponentPad*%
%ADD11C,6.000000*%
%TD*%
%TA.AperFunction,ViaPad*%
%ADD12C,0.889000*%
%TD*%
%TA.AperFunction,Conductor*%
%ADD13C,0.400000*%
%TD*%
%TA.AperFunction,Conductor*%
%ADD14C,0.500000*%
%TD*%
G04 APERTURE END LIST*
D10*
%TO.P,J1,1*%
%TO.N,GND*%
X140458000Y-90709000D03*
%TO.P,J1,2*%
X137918000Y-90709000D03*
%TO.P,J1,3*%
%TO.N,/+Ubias*%
X140458000Y-88169000D03*
%TO.P,J1,4*%
X137918000Y-88169000D03*
%TO.P,J1,5*%
%TO.N,GND*%
X140458000Y-85629000D03*
%TO.P,J1,6*%
X137918000Y-85629000D03*
%TD*%
%TO.P,J2,1*%
%TO.N,GND*%
X168194800Y-99599000D03*
%TO.P,J2,2*%
X168194800Y-102139000D03*
%TO.P,J2,3*%
%TO.N,V-*%
X165654800Y-99599000D03*
%TO.P,J2,4*%
X165654800Y-102139000D03*
%TO.P,J2,5*%
%TO.N,V+*%
X163114800Y-99599000D03*
%TO.P,J2,6*%
X163114800Y-102139000D03*
%TO.P,J2,7*%
%TO.N,V-*%
X160574800Y-99599000D03*
%TO.P,J2,8*%
X160574800Y-102139000D03*
%TO.P,J2,9*%
%TO.N,GND*%
X158034800Y-99599000D03*
%TO.P,J2,10*%
X158034800Y-102139000D03*
%TD*%
%TO.P,J5,1*%
%TO.N,GND*%
X180564600Y-90353400D03*
%TO.P,J5,2*%
X178024600Y-90353400D03*
%TO.P,J5,3*%
%TO.N,Net-(C14-Pad2)*%
X180564600Y-87813400D03*
%TO.P,J5,4*%
X178024600Y-87813400D03*
%TO.P,J5,5*%
%TO.N,GND*%
X180564600Y-85273400D03*
%TO.P,J5,6*%
X178024600Y-85273400D03*
%TD*%
D11*
%TO.P,P4,1,P1*%
%TO.N,GND*%
X137918000Y-99599000D03*
%TD*%
%TO.P,P3,1,P1*%
%TO.N,GND*%
X137918000Y-79279000D03*
%TD*%
%TO.P,P1,1,P1*%
%TO.N,GND*%
X178558000Y-99599000D03*
%TD*%
%TO.P,P2,1,P1*%
%TO.N,GND*%
X178558000Y-79279000D03*
%TD*%
D10*
%TO.P,J4,1,P1*%
%TO.N,/#SHDN*%
X158492000Y-83089000D03*
%TO.P,J4,2,PM*%
%TO.N,V+*%
X158492000Y-80549000D03*
%TD*%
%TO.P,J3,1*%
%TO.N,/K*%
X147443000Y-90074000D03*
%TO.P,J3,2*%
%TO.N,GND*%
X149983000Y-90074000D03*
%TO.P,J3,3*%
%TO.N,/A*%
X152523000Y-90074000D03*
%TD*%
D12*
%TO.N,GND*%
X162657600Y-83089000D03*
X154961400Y-77196200D03*
X170684000Y-77780400D03*
X165680200Y-77297800D03*
X162683000Y-85629000D03*
X159914400Y-86391000D03*
X161184400Y-96144600D03*
X135733600Y-83698600D03*
X135733600Y-94773000D03*
X166518400Y-87356200D03*
X171293600Y-95865200D03*
X139200000Y-94600000D03*
X174951200Y-94493600D03*
X165413500Y-96360500D03*
X160955800Y-77399400D03*
X150135400Y-76764400D03*
X142210600Y-81082400D03*
%TO.N,V+*%
X157608447Y-90079311D03*
X155367800Y-86060800D03*
X166650000Y-81250000D03*
%TO.N,Net-(C4-Pad1)*%
X157857000Y-93363300D03*
X153564931Y-94014931D03*
%TO.N,V-*%
X159838200Y-95166700D03*
X160216002Y-89693000D03*
X156439400Y-84160600D03*
%TD*%
D13*
%TO.N,GND*%
X160752600Y-77196200D02*
X160955800Y-77399400D01*
X158034800Y-99599000D02*
X157298200Y-99599000D01*
X165197600Y-96144600D02*
X165413500Y-96360500D01*
%TO.N,V+*%
X159844500Y-80549000D02*
X160689748Y-80549000D01*
D14*
X166650000Y-81250000D02*
X165949000Y-80549000D01*
X155367800Y-86060800D02*
X155367800Y-82758800D01*
D13*
X158619000Y-80549000D02*
X159844500Y-80549000D01*
D14*
X155367800Y-87838664D02*
X155668517Y-88139381D01*
X155367800Y-86060800D02*
X155367800Y-87838664D01*
X157608447Y-90079311D02*
X155668517Y-88139381D01*
X158619000Y-80549000D02*
X165949000Y-80549000D01*
X155367800Y-82758800D02*
X155692499Y-82434101D01*
X155692499Y-82434101D02*
X157577600Y-80549000D01*
X160689748Y-80549000D02*
X157577600Y-80549000D01*
X165949000Y-80549000D02*
X160689748Y-80549000D01*
%TO.N,Net-(C4-Pad1)*%
X153564931Y-94014931D02*
X154216562Y-93363300D01*
X154216562Y-93363300D02*
X157857000Y-93363300D01*
%TO.N,V-*%
X156439400Y-84160600D02*
X156439400Y-85916398D01*
X160216002Y-89693000D02*
X160216002Y-94788898D01*
X156439400Y-85916398D02*
X160216002Y-89693000D01*
X160216002Y-94788898D02*
X159838200Y-95166700D01*
%TD*%
%TA.AperFunction,Conductor*%
%TO.N,GND*%
G36*
X182833191Y-74981907D02*
G01*
X182869155Y-75031407D01*
X182874000Y-75062000D01*
X182874000Y-103816000D01*
X182855093Y-103874191D01*
X182805593Y-103910155D01*
X182775000Y-103915000D01*
X133701000Y-103915000D01*
X133642809Y-103896093D01*
X133606845Y-103846593D01*
X133602000Y-103816000D01*
X133602000Y-102949134D01*
X159304300Y-102949134D01*
X159311055Y-103011316D01*
X159362185Y-103147705D01*
X159449539Y-103264261D01*
X159566095Y-103351615D01*
X159702484Y-103402745D01*
X159708656Y-103403415D01*
X159708658Y-103403416D01*
X159744637Y-103407324D01*
X159764666Y-103409500D01*
X161384934Y-103409500D01*
X161404963Y-103407324D01*
X161440942Y-103403416D01*
X161440944Y-103403415D01*
X161447116Y-103402745D01*
X161583505Y-103351615D01*
X161700061Y-103264261D01*
X161704291Y-103258617D01*
X161704295Y-103258613D01*
X161765580Y-103176841D01*
X161815608Y-103141616D01*
X161876786Y-103142524D01*
X161924020Y-103176841D01*
X161985305Y-103258613D01*
X161985309Y-103258617D01*
X161989539Y-103264261D01*
X162106095Y-103351615D01*
X162242484Y-103402745D01*
X162248656Y-103403415D01*
X162248658Y-103403416D01*
X162284637Y-103407324D01*
X162304666Y-103409500D01*
X163924934Y-103409500D01*
X163944963Y-103407324D01*
X163980942Y-103403416D01*
X163980944Y-103403415D01*
X163987116Y-103402745D01*
X164123505Y-103351615D01*
X164240061Y-103264261D01*
X164244291Y-103258617D01*
X164244295Y-103258613D01*
X164305580Y-103176841D01*
X164355608Y-103141616D01*
X164416786Y-103142524D01*
X164464020Y-103176841D01*
X164525305Y-103258613D01*
X164525309Y-103258617D01*
X164529539Y-103264261D01*
X164646095Y-103351615D01*
X164782484Y-103402745D01*
X164788656Y-103403415D01*
X164788658Y-103403416D01*
X164824637Y-103407324D01*
X164844666Y-103409500D01*
X166464934Y-103409500D01*
X166484963Y-103407324D01*
X166520942Y-103403416D01*
X166520944Y-103403415D01*
X166527116Y-103402745D01*
X166663505Y-103351615D01*
X166780061Y-103264261D01*
X166867415Y-103147705D01*
X166918545Y-103011316D01*
X166925300Y-102949134D01*
X166925300Y-101328866D01*
X166918545Y-101266684D01*
X166867415Y-101130295D01*
X166780061Y-101013739D01*
X166774417Y-101009509D01*
X166774413Y-101009505D01*
X166692641Y-100948220D01*
X166657416Y-100898192D01*
X166658324Y-100837014D01*
X166692641Y-100789780D01*
X166774413Y-100728495D01*
X166774417Y-100728491D01*
X166780061Y-100724261D01*
X166867415Y-100607705D01*
X166918545Y-100471316D01*
X166925300Y-100409134D01*
X166925300Y-98788866D01*
X166918545Y-98726684D01*
X166867415Y-98590295D01*
X166780061Y-98473739D01*
X166663505Y-98386385D01*
X166527116Y-98335255D01*
X166520944Y-98334585D01*
X166520942Y-98334584D01*
X166484963Y-98330676D01*
X166464934Y-98328500D01*
X164844666Y-98328500D01*
X164824637Y-98330676D01*
X164788658Y-98334584D01*
X164788656Y-98334585D01*
X164782484Y-98335255D01*
X164646095Y-98386385D01*
X164529539Y-98473739D01*
X164525309Y-98479383D01*
X164525305Y-98479387D01*
X164464020Y-98561159D01*
X164413992Y-98596384D01*
X164352814Y-98595476D01*
X164305580Y-98561159D01*
X164244295Y-98479387D01*
X164244291Y-98479383D01*
X164240061Y-98473739D01*
X164123505Y-98386385D01*
X163987116Y-98335255D01*
X163980944Y-98334585D01*
X163980942Y-98334584D01*
X163944963Y-98330676D01*
X163924934Y-98328500D01*
X162304666Y-98328500D01*
X162284637Y-98330676D01*
X162248658Y-98334584D01*
X162248656Y-98334585D01*
X162242484Y-98335255D01*
X162106095Y-98386385D01*
X161989539Y-98473739D01*
X161985309Y-98479383D01*
X161985305Y-98479387D01*
X161924020Y-98561159D01*
X161873992Y-98596384D01*
X161812814Y-98595476D01*
X161765580Y-98561159D01*
X161704295Y-98479387D01*
X161704291Y-98479383D01*
X161700061Y-98473739D01*
X161583505Y-98386385D01*
X161447116Y-98335255D01*
X161440944Y-98334585D01*
X161440942Y-98334584D01*
X161404963Y-98330676D01*
X161384934Y-98328500D01*
X159764666Y-98328500D01*
X159744637Y-98330676D01*
X159708658Y-98334584D01*
X159708656Y-98334585D01*
X159702484Y-98335255D01*
X159566095Y-98386385D01*
X159449539Y-98473739D01*
X159362185Y-98590295D01*
X159311055Y-98726684D01*
X159304300Y-98788866D01*
X159304300Y-100409134D01*
X159311055Y-100471316D01*
X159362185Y-100607705D01*
X159449539Y-100724261D01*
X159455183Y-100728491D01*
X159455187Y-100728495D01*
X159536959Y-100789780D01*
X159572184Y-100839808D01*
X159571276Y-100900986D01*
X159536959Y-100948220D01*
X159455187Y-101009505D01*
X159455183Y-101009509D01*
X159449539Y-101013739D01*
X159362185Y-101130295D01*
X159311055Y-101266684D01*
X159304300Y-101328866D01*
X159304300Y-102949134D01*
X133602000Y-102949134D01*
X133602000Y-94001561D01*
X152607413Y-94001561D01*
X152607818Y-94006381D01*
X152621712Y-94171838D01*
X152623052Y-94187798D01*
X152674567Y-94367451D01*
X152759995Y-94533677D01*
X152876083Y-94680143D01*
X152879763Y-94683275D01*
X152879765Y-94683277D01*
X152912795Y-94711388D01*
X153018409Y-94801273D01*
X153022631Y-94803633D01*
X153022636Y-94803636D01*
X153058124Y-94823469D01*
X153181552Y-94892450D01*
X153186150Y-94893944D01*
X153354693Y-94948707D01*
X153354695Y-94948708D01*
X153359298Y-94950203D01*
X153544876Y-94972332D01*
X153549698Y-94971961D01*
X153549701Y-94971961D01*
X153610697Y-94967267D01*
X153731218Y-94957994D01*
X153911227Y-94907735D01*
X153915545Y-94905554D01*
X154073724Y-94825652D01*
X154073726Y-94825651D01*
X154078045Y-94823469D01*
X154225318Y-94708406D01*
X154228480Y-94704743D01*
X154228485Y-94704738D01*
X154344274Y-94570594D01*
X154347438Y-94566929D01*
X154364173Y-94537471D01*
X154437363Y-94408632D01*
X154437364Y-94408629D01*
X154439752Y-94404426D01*
X154498745Y-94227088D01*
X154501107Y-94208392D01*
X154527158Y-94153030D01*
X154580775Y-94123554D01*
X154599326Y-94121800D01*
X157241339Y-94121800D01*
X157299530Y-94140707D01*
X157305501Y-94145406D01*
X157310478Y-94149642D01*
X157314700Y-94152002D01*
X157314705Y-94152005D01*
X157387069Y-94192447D01*
X157473621Y-94240819D01*
X157478219Y-94242313D01*
X157646762Y-94297076D01*
X157646764Y-94297077D01*
X157651367Y-94298572D01*
X157836945Y-94320701D01*
X157841767Y-94320330D01*
X157841770Y-94320330D01*
X157902766Y-94315636D01*
X158023287Y-94306363D01*
X158203296Y-94256104D01*
X158207614Y-94253923D01*
X158365793Y-94174021D01*
X158365795Y-94174020D01*
X158370114Y-94171838D01*
X158517387Y-94056775D01*
X158520549Y-94053112D01*
X158520554Y-94053107D01*
X158636343Y-93918963D01*
X158639507Y-93915298D01*
X158693277Y-93820646D01*
X158729432Y-93757001D01*
X158729433Y-93756998D01*
X158731821Y-93752795D01*
X158768577Y-93642305D01*
X158789287Y-93580048D01*
X158789288Y-93580046D01*
X158790814Y-93575457D01*
X158814238Y-93390038D01*
X158814611Y-93363300D01*
X158796373Y-93177299D01*
X158742355Y-92998383D01*
X158654615Y-92833366D01*
X158536493Y-92688535D01*
X158530558Y-92683625D01*
X158396216Y-92572488D01*
X158396214Y-92572487D01*
X158392489Y-92569405D01*
X158228089Y-92480514D01*
X158049554Y-92425248D01*
X158044744Y-92424742D01*
X158044742Y-92424742D01*
X157868501Y-92406218D01*
X157868499Y-92406218D01*
X157863685Y-92405712D01*
X157803781Y-92411164D01*
X157682382Y-92422212D01*
X157682379Y-92422213D01*
X157677562Y-92422651D01*
X157672920Y-92424017D01*
X157672916Y-92424018D01*
X157502920Y-92474051D01*
X157502917Y-92474052D01*
X157498273Y-92475419D01*
X157332647Y-92562005D01*
X157328871Y-92565041D01*
X157328868Y-92565043D01*
X157306592Y-92582954D01*
X157244558Y-92604800D01*
X154281583Y-92604800D01*
X154266694Y-92603674D01*
X154248902Y-92600967D01*
X154248898Y-92600967D01*
X154243213Y-92600102D01*
X154191386Y-92604317D01*
X154189458Y-92604474D01*
X154181433Y-92604800D01*
X154172269Y-92604800D01*
X154169425Y-92605132D01*
X154169417Y-92605132D01*
X154143572Y-92608145D01*
X154140136Y-92608485D01*
X154072661Y-92613973D01*
X154072657Y-92613974D01*
X154066925Y-92614440D01*
X154061452Y-92616213D01*
X154055813Y-92617340D01*
X154055791Y-92617230D01*
X154052166Y-92618020D01*
X154052192Y-92618129D01*
X154046596Y-92619452D01*
X154040881Y-92620118D01*
X154035473Y-92622081D01*
X153971822Y-92645185D01*
X153968554Y-92646307D01*
X153915708Y-92663427D01*
X153898663Y-92668949D01*
X153893748Y-92671932D01*
X153888516Y-92674327D01*
X153888470Y-92674226D01*
X153885124Y-92675828D01*
X153885175Y-92675930D01*
X153880039Y-92678502D01*
X153874625Y-92680467D01*
X153869809Y-92683624D01*
X153869808Y-92683625D01*
X153813209Y-92720733D01*
X153810287Y-92722577D01*
X153751227Y-92758415D01*
X153751223Y-92758418D01*
X153747454Y-92760705D01*
X153739078Y-92768103D01*
X153738958Y-92767967D01*
X153735800Y-92770446D01*
X153735931Y-92770602D01*
X153731518Y-92774292D01*
X153726710Y-92777444D01*
X153722757Y-92781617D01*
X153673218Y-92833911D01*
X153671351Y-92835830D01*
X153462986Y-93044195D01*
X153408469Y-93071972D01*
X153401954Y-93072784D01*
X153390312Y-93073843D01*
X153390307Y-93073844D01*
X153385493Y-93074282D01*
X153316136Y-93094695D01*
X153210851Y-93125682D01*
X153210848Y-93125683D01*
X153206204Y-93127050D01*
X153040578Y-93213636D01*
X153036802Y-93216672D01*
X153036799Y-93216674D01*
X152898698Y-93327711D01*
X152894926Y-93330744D01*
X152891817Y-93334449D01*
X152891814Y-93334452D01*
X152869923Y-93360541D01*
X152774793Y-93473912D01*
X152772461Y-93478155D01*
X152772459Y-93478157D01*
X152716445Y-93580048D01*
X152684757Y-93637688D01*
X152683294Y-93642301D01*
X152683292Y-93642305D01*
X152629710Y-93811215D01*
X152629709Y-93811221D01*
X152628246Y-93815832D01*
X152607413Y-94001561D01*
X133602000Y-94001561D01*
X133602000Y-90884134D01*
X146172500Y-90884134D01*
X146179255Y-90946316D01*
X146230385Y-91082705D01*
X146317739Y-91199261D01*
X146434295Y-91286615D01*
X146570684Y-91337745D01*
X146576856Y-91338415D01*
X146576858Y-91338416D01*
X146612837Y-91342324D01*
X146632866Y-91344500D01*
X148253134Y-91344500D01*
X148273163Y-91342324D01*
X148309142Y-91338416D01*
X148309144Y-91338415D01*
X148315316Y-91337745D01*
X148451705Y-91286615D01*
X148568261Y-91199261D01*
X148655615Y-91082705D01*
X148706745Y-90946316D01*
X148713500Y-90884134D01*
X151252500Y-90884134D01*
X151259255Y-90946316D01*
X151310385Y-91082705D01*
X151397739Y-91199261D01*
X151514295Y-91286615D01*
X151650684Y-91337745D01*
X151656856Y-91338415D01*
X151656858Y-91338416D01*
X151692837Y-91342324D01*
X151712866Y-91344500D01*
X153333134Y-91344500D01*
X153353163Y-91342324D01*
X153389142Y-91338416D01*
X153389144Y-91338415D01*
X153395316Y-91337745D01*
X153531705Y-91286615D01*
X153648261Y-91199261D01*
X153735615Y-91082705D01*
X153786745Y-90946316D01*
X153793500Y-90884134D01*
X153793500Y-89263866D01*
X153786745Y-89201684D01*
X153740309Y-89077816D01*
X153738089Y-89071894D01*
X153738089Y-89071893D01*
X153735615Y-89065295D01*
X153648261Y-88948739D01*
X153531705Y-88861385D01*
X153395316Y-88810255D01*
X153389144Y-88809585D01*
X153389142Y-88809584D01*
X153353163Y-88805676D01*
X153333134Y-88803500D01*
X151712866Y-88803500D01*
X151692837Y-88805676D01*
X151656858Y-88809584D01*
X151656856Y-88809585D01*
X151650684Y-88810255D01*
X151514295Y-88861385D01*
X151397739Y-88948739D01*
X151310385Y-89065295D01*
X151307911Y-89071893D01*
X151307911Y-89071894D01*
X151305691Y-89077816D01*
X151259255Y-89201684D01*
X151252500Y-89263866D01*
X151252500Y-90884134D01*
X148713500Y-90884134D01*
X148713500Y-89263866D01*
X148706745Y-89201684D01*
X148660309Y-89077816D01*
X148658089Y-89071894D01*
X148658089Y-89071893D01*
X148655615Y-89065295D01*
X148568261Y-88948739D01*
X148451705Y-88861385D01*
X148315316Y-88810255D01*
X148309144Y-88809585D01*
X148309142Y-88809584D01*
X148273163Y-88805676D01*
X148253134Y-88803500D01*
X146632866Y-88803500D01*
X146612837Y-88805676D01*
X146576858Y-88809584D01*
X146576856Y-88809585D01*
X146570684Y-88810255D01*
X146434295Y-88861385D01*
X146317739Y-88948739D01*
X146230385Y-89065295D01*
X146227911Y-89071893D01*
X146227911Y-89071894D01*
X146225691Y-89077816D01*
X146179255Y-89201684D01*
X146172500Y-89263866D01*
X146172500Y-90884134D01*
X133602000Y-90884134D01*
X133602000Y-88979134D01*
X136647500Y-88979134D01*
X136647789Y-88981793D01*
X136652862Y-89028489D01*
X136654255Y-89041316D01*
X136705385Y-89177705D01*
X136792739Y-89294261D01*
X136909295Y-89381615D01*
X137045684Y-89432745D01*
X137051856Y-89433415D01*
X137051858Y-89433416D01*
X137087837Y-89437324D01*
X137107866Y-89439500D01*
X138728134Y-89439500D01*
X138748163Y-89437324D01*
X138784142Y-89433416D01*
X138784144Y-89433415D01*
X138790316Y-89432745D01*
X138926705Y-89381615D01*
X139043261Y-89294261D01*
X139047491Y-89288617D01*
X139047495Y-89288613D01*
X139108780Y-89206841D01*
X139158808Y-89171616D01*
X139219986Y-89172524D01*
X139267220Y-89206841D01*
X139328505Y-89288613D01*
X139328509Y-89288617D01*
X139332739Y-89294261D01*
X139449295Y-89381615D01*
X139585684Y-89432745D01*
X139591856Y-89433415D01*
X139591858Y-89433416D01*
X139627837Y-89437324D01*
X139647866Y-89439500D01*
X141268134Y-89439500D01*
X141288163Y-89437324D01*
X141324142Y-89433416D01*
X141324144Y-89433415D01*
X141330316Y-89432745D01*
X141466705Y-89381615D01*
X141583261Y-89294261D01*
X141670615Y-89177705D01*
X141721745Y-89041316D01*
X141723139Y-89028489D01*
X141728211Y-88981793D01*
X141728500Y-88979134D01*
X141728500Y-87358866D01*
X141721745Y-87296684D01*
X141670615Y-87160295D01*
X141583261Y-87043739D01*
X141466705Y-86956385D01*
X141330316Y-86905255D01*
X141324144Y-86904585D01*
X141324142Y-86904584D01*
X141288163Y-86900676D01*
X141268134Y-86898500D01*
X139647866Y-86898500D01*
X139627837Y-86900676D01*
X139591858Y-86904584D01*
X139591856Y-86904585D01*
X139585684Y-86905255D01*
X139449295Y-86956385D01*
X139332739Y-87043739D01*
X139328509Y-87049383D01*
X139328505Y-87049387D01*
X139267220Y-87131159D01*
X139217192Y-87166384D01*
X139156014Y-87165476D01*
X139108780Y-87131159D01*
X139047495Y-87049387D01*
X139047491Y-87049383D01*
X139043261Y-87043739D01*
X138926705Y-86956385D01*
X138790316Y-86905255D01*
X138784144Y-86904585D01*
X138784142Y-86904584D01*
X138748163Y-86900676D01*
X138728134Y-86898500D01*
X137107866Y-86898500D01*
X137087837Y-86900676D01*
X137051858Y-86904584D01*
X137051856Y-86904585D01*
X137045684Y-86905255D01*
X136909295Y-86956385D01*
X136792739Y-87043739D01*
X136705385Y-87160295D01*
X136654255Y-87296684D01*
X136647500Y-87358866D01*
X136647500Y-88979134D01*
X133602000Y-88979134D01*
X133602000Y-86047430D01*
X154410282Y-86047430D01*
X154425921Y-86233667D01*
X154477436Y-86413320D01*
X154562864Y-86579546D01*
X154565875Y-86583344D01*
X154565875Y-86583345D01*
X154587885Y-86611114D01*
X154609300Y-86672608D01*
X154609300Y-87773637D01*
X154608174Y-87788526D01*
X154604601Y-87812013D01*
X154605068Y-87817749D01*
X154608974Y-87865776D01*
X154609300Y-87873802D01*
X154609300Y-87882957D01*
X154609632Y-87885802D01*
X154609632Y-87885808D01*
X154612644Y-87911644D01*
X154612984Y-87915080D01*
X154618940Y-87988301D01*
X154620714Y-87993776D01*
X154621840Y-87999413D01*
X154621730Y-87999435D01*
X154622520Y-88003060D01*
X154622629Y-88003034D01*
X154623952Y-88008630D01*
X154624618Y-88014345D01*
X154626581Y-88019753D01*
X154649685Y-88083404D01*
X154650807Y-88086672D01*
X154673449Y-88156563D01*
X154676432Y-88161478D01*
X154678827Y-88166710D01*
X154678726Y-88166756D01*
X154680328Y-88170102D01*
X154680430Y-88170051D01*
X154683002Y-88175186D01*
X154684967Y-88180601D01*
X154688125Y-88185417D01*
X154725246Y-88242036D01*
X154727087Y-88244955D01*
X154765205Y-88307771D01*
X154768125Y-88311077D01*
X154772603Y-88316148D01*
X154772455Y-88316279D01*
X154774936Y-88319434D01*
X154775102Y-88319295D01*
X154778792Y-88323708D01*
X154781944Y-88328516D01*
X154786117Y-88332469D01*
X154838411Y-88382008D01*
X154840330Y-88383875D01*
X156637095Y-90180640D01*
X156664872Y-90235157D01*
X156665744Y-90242362D01*
X156666568Y-90252178D01*
X156718083Y-90431831D01*
X156803511Y-90598057D01*
X156919599Y-90744523D01*
X156923279Y-90747655D01*
X156923281Y-90747657D01*
X156956311Y-90775768D01*
X157061925Y-90865653D01*
X157066147Y-90868013D01*
X157066152Y-90868016D01*
X157101640Y-90887849D01*
X157225068Y-90956830D01*
X157229666Y-90958324D01*
X157398209Y-91013087D01*
X157398211Y-91013088D01*
X157402814Y-91014583D01*
X157588392Y-91036712D01*
X157593214Y-91036341D01*
X157593217Y-91036341D01*
X157654213Y-91031647D01*
X157774734Y-91022374D01*
X157954743Y-90972115D01*
X157959061Y-90969934D01*
X158117240Y-90890032D01*
X158117242Y-90890031D01*
X158121561Y-90887849D01*
X158268834Y-90772786D01*
X158271996Y-90769123D01*
X158272001Y-90769118D01*
X158387790Y-90634974D01*
X158390954Y-90631309D01*
X158407689Y-90601851D01*
X158480879Y-90473012D01*
X158480880Y-90473009D01*
X158483268Y-90468806D01*
X158497118Y-90427174D01*
X158540734Y-90296059D01*
X158540735Y-90296057D01*
X158542261Y-90291468D01*
X158547834Y-90247358D01*
X158565337Y-90108801D01*
X158565685Y-90106049D01*
X158566058Y-90079311D01*
X158547820Y-89893310D01*
X158493802Y-89714394D01*
X158406062Y-89549377D01*
X158287940Y-89404546D01*
X158154628Y-89294261D01*
X158147663Y-89288499D01*
X158147661Y-89288498D01*
X158143936Y-89285416D01*
X157998615Y-89206841D01*
X157983790Y-89198825D01*
X157983789Y-89198825D01*
X157979536Y-89196525D01*
X157902002Y-89172524D01*
X157805622Y-89142689D01*
X157805618Y-89142688D01*
X157801001Y-89141259D01*
X157796192Y-89140754D01*
X157796189Y-89140753D01*
X157785265Y-89139605D01*
X157771140Y-89138121D01*
X157711484Y-89109667D01*
X156155296Y-87553479D01*
X156127519Y-87498962D01*
X156126300Y-87483475D01*
X156126300Y-86914987D01*
X156145207Y-86856796D01*
X156194707Y-86820832D01*
X156255893Y-86820832D01*
X156295304Y-86844983D01*
X159244650Y-89794329D01*
X159272427Y-89848846D01*
X159273299Y-89856051D01*
X159274123Y-89865867D01*
X159325638Y-90045520D01*
X159411066Y-90211746D01*
X159414077Y-90215544D01*
X159414077Y-90215545D01*
X159436087Y-90243314D01*
X159457502Y-90304808D01*
X159457502Y-94230348D01*
X159438595Y-94288539D01*
X159404368Y-94318082D01*
X159318144Y-94363158D01*
X159318139Y-94363161D01*
X159313847Y-94365405D01*
X159310071Y-94368441D01*
X159310068Y-94368443D01*
X159171967Y-94479480D01*
X159168195Y-94482513D01*
X159165086Y-94486218D01*
X159165083Y-94486221D01*
X159128880Y-94529366D01*
X159048062Y-94625681D01*
X159045730Y-94629924D01*
X159045728Y-94629926D01*
X158964514Y-94777656D01*
X158958026Y-94789457D01*
X158956563Y-94794070D01*
X158956561Y-94794074D01*
X158902979Y-94962984D01*
X158902978Y-94962990D01*
X158901515Y-94967601D01*
X158900975Y-94972415D01*
X158892929Y-95044150D01*
X158880682Y-95153330D01*
X158881087Y-95158150D01*
X158894903Y-95322675D01*
X158896321Y-95339567D01*
X158947836Y-95519220D01*
X159033264Y-95685446D01*
X159149352Y-95831912D01*
X159153032Y-95835044D01*
X159153034Y-95835046D01*
X159186064Y-95863157D01*
X159291678Y-95953042D01*
X159295900Y-95955402D01*
X159295905Y-95955405D01*
X159331393Y-95975238D01*
X159454821Y-96044219D01*
X159459419Y-96045713D01*
X159627962Y-96100476D01*
X159627964Y-96100477D01*
X159632567Y-96101972D01*
X159818145Y-96124101D01*
X159822967Y-96123730D01*
X159822970Y-96123730D01*
X159883966Y-96119036D01*
X160004487Y-96109763D01*
X160184496Y-96059504D01*
X160188814Y-96057323D01*
X160346993Y-95977421D01*
X160346995Y-95977420D01*
X160351314Y-95975238D01*
X160498587Y-95860175D01*
X160501749Y-95856512D01*
X160501754Y-95856507D01*
X160617543Y-95722363D01*
X160620707Y-95718698D01*
X160637442Y-95689240D01*
X160710632Y-95560401D01*
X160710633Y-95560398D01*
X160713021Y-95556195D01*
X160772014Y-95378857D01*
X160772621Y-95374053D01*
X160779112Y-95322675D01*
X160799684Y-95273668D01*
X160801594Y-95271254D01*
X160803736Y-95268641D01*
X160851335Y-95212613D01*
X160853949Y-95207494D01*
X160857144Y-95202704D01*
X160857236Y-95202765D01*
X160859239Y-95199645D01*
X160859145Y-95199587D01*
X160862170Y-95194690D01*
X160865736Y-95190182D01*
X160882960Y-95153330D01*
X160896843Y-95123624D01*
X160898361Y-95120519D01*
X160902204Y-95112993D01*
X160931771Y-95055090D01*
X160933139Y-95049500D01*
X160935143Y-95044111D01*
X160935247Y-95044150D01*
X160936479Y-95040652D01*
X160936372Y-95040617D01*
X160938186Y-95035164D01*
X160940624Y-95029948D01*
X160955591Y-94957994D01*
X160956336Y-94954699D01*
X160973810Y-94883288D01*
X160974502Y-94872134D01*
X160974729Y-94872148D01*
X160975197Y-94868162D01*
X160974960Y-94868141D01*
X160975471Y-94862419D01*
X160976643Y-94856783D01*
X160974538Y-94778986D01*
X160974502Y-94776308D01*
X160974502Y-90309615D01*
X160992604Y-90252549D01*
X160995345Y-90248664D01*
X160998509Y-90244998D01*
X161000902Y-90240786D01*
X161088434Y-90086701D01*
X161088435Y-90086698D01*
X161090823Y-90082495D01*
X161104673Y-90040863D01*
X161148289Y-89909748D01*
X161148290Y-89909746D01*
X161149816Y-89905157D01*
X161155389Y-89861047D01*
X161172892Y-89722490D01*
X161173240Y-89719738D01*
X161173613Y-89693000D01*
X161155375Y-89506999D01*
X161101357Y-89328083D01*
X161013617Y-89163066D01*
X160895495Y-89018235D01*
X160818311Y-88954383D01*
X160755218Y-88902188D01*
X160755216Y-88902187D01*
X160751491Y-88899105D01*
X160597822Y-88816016D01*
X160591345Y-88812514D01*
X160591344Y-88812514D01*
X160587091Y-88810214D01*
X160528929Y-88792210D01*
X160413177Y-88756378D01*
X160413173Y-88756377D01*
X160408556Y-88754948D01*
X160403747Y-88754443D01*
X160403744Y-88754442D01*
X160392820Y-88753294D01*
X160378695Y-88751810D01*
X160319039Y-88723356D01*
X160219217Y-88623534D01*
X176754100Y-88623534D01*
X176760855Y-88685716D01*
X176763035Y-88691531D01*
X176807543Y-88810255D01*
X176811985Y-88822105D01*
X176899339Y-88938661D01*
X177015895Y-89026015D01*
X177152284Y-89077145D01*
X177158456Y-89077815D01*
X177158458Y-89077816D01*
X177194437Y-89081724D01*
X177214466Y-89083900D01*
X178834734Y-89083900D01*
X178854763Y-89081724D01*
X178890742Y-89077816D01*
X178890744Y-89077815D01*
X178896916Y-89077145D01*
X179033305Y-89026015D01*
X179149861Y-88938661D01*
X179154091Y-88933017D01*
X179154095Y-88933013D01*
X179215380Y-88851241D01*
X179265408Y-88816016D01*
X179326586Y-88816924D01*
X179373820Y-88851241D01*
X179435105Y-88933013D01*
X179435109Y-88933017D01*
X179439339Y-88938661D01*
X179555895Y-89026015D01*
X179692284Y-89077145D01*
X179698456Y-89077815D01*
X179698458Y-89077816D01*
X179734437Y-89081724D01*
X179754466Y-89083900D01*
X181374734Y-89083900D01*
X181394763Y-89081724D01*
X181430742Y-89077816D01*
X181430744Y-89077815D01*
X181436916Y-89077145D01*
X181573305Y-89026015D01*
X181689861Y-88938661D01*
X181777215Y-88822105D01*
X181781658Y-88810255D01*
X181826165Y-88691531D01*
X181828345Y-88685716D01*
X181835100Y-88623534D01*
X181835100Y-87003266D01*
X181830007Y-86956385D01*
X181829016Y-86947258D01*
X181829015Y-86947256D01*
X181828345Y-86941084D01*
X181792318Y-86844983D01*
X181779689Y-86811294D01*
X181779689Y-86811293D01*
X181777215Y-86804695D01*
X181689861Y-86688139D01*
X181573305Y-86600785D01*
X181436916Y-86549655D01*
X181430744Y-86548985D01*
X181430742Y-86548984D01*
X181394763Y-86545076D01*
X181374734Y-86542900D01*
X179754466Y-86542900D01*
X179734437Y-86545076D01*
X179698458Y-86548984D01*
X179698456Y-86548985D01*
X179692284Y-86549655D01*
X179555895Y-86600785D01*
X179439339Y-86688139D01*
X179435109Y-86693783D01*
X179435105Y-86693787D01*
X179373820Y-86775559D01*
X179323792Y-86810784D01*
X179262614Y-86809876D01*
X179215380Y-86775559D01*
X179154095Y-86693787D01*
X179154091Y-86693783D01*
X179149861Y-86688139D01*
X179033305Y-86600785D01*
X178896916Y-86549655D01*
X178890744Y-86548985D01*
X178890742Y-86548984D01*
X178854763Y-86545076D01*
X178834734Y-86542900D01*
X177214466Y-86542900D01*
X177194437Y-86545076D01*
X177158458Y-86548984D01*
X177158456Y-86548985D01*
X177152284Y-86549655D01*
X177015895Y-86600785D01*
X176899339Y-86688139D01*
X176811985Y-86804695D01*
X176809511Y-86811293D01*
X176809511Y-86811294D01*
X176796882Y-86844983D01*
X176760855Y-86941084D01*
X176760185Y-86947256D01*
X176760184Y-86947258D01*
X176759193Y-86956385D01*
X176754100Y-87003266D01*
X176754100Y-88623534D01*
X160219217Y-88623534D01*
X157226896Y-85631213D01*
X157199119Y-85576696D01*
X157197900Y-85561209D01*
X157197900Y-84777215D01*
X157216002Y-84720149D01*
X157218743Y-84716264D01*
X157221907Y-84712598D01*
X157314221Y-84550095D01*
X157373214Y-84372757D01*
X157374909Y-84373321D01*
X157402505Y-84327021D01*
X157458740Y-84302913D01*
X157502472Y-84308805D01*
X157613866Y-84350564D01*
X157619684Y-84352745D01*
X157625856Y-84353415D01*
X157625858Y-84353416D01*
X157661837Y-84357324D01*
X157681866Y-84359500D01*
X159302134Y-84359500D01*
X159322163Y-84357324D01*
X159358142Y-84353416D01*
X159358144Y-84353415D01*
X159364316Y-84352745D01*
X159500705Y-84301615D01*
X159617261Y-84214261D01*
X159704615Y-84097705D01*
X159755745Y-83961316D01*
X159762500Y-83899134D01*
X159762500Y-82278866D01*
X159755745Y-82216684D01*
X159704615Y-82080295D01*
X159617261Y-81963739D01*
X159611617Y-81959509D01*
X159611613Y-81959505D01*
X159529841Y-81898220D01*
X159494616Y-81848192D01*
X159495524Y-81787014D01*
X159529841Y-81739780D01*
X159611613Y-81678495D01*
X159611617Y-81678491D01*
X159617261Y-81674261D01*
X159704615Y-81557705D01*
X159755745Y-81421316D01*
X159758516Y-81395808D01*
X159783597Y-81340000D01*
X159836692Y-81309592D01*
X159856937Y-81307500D01*
X165593811Y-81307500D01*
X165652002Y-81326407D01*
X165663815Y-81336496D01*
X165678648Y-81351329D01*
X165706425Y-81405846D01*
X165707297Y-81413051D01*
X165708121Y-81422867D01*
X165759636Y-81602520D01*
X165780800Y-81643701D01*
X165830178Y-81739780D01*
X165845064Y-81768746D01*
X165961152Y-81915212D01*
X165964832Y-81918344D01*
X165964834Y-81918346D01*
X166024802Y-81969383D01*
X166103478Y-82036342D01*
X166107700Y-82038702D01*
X166107705Y-82038705D01*
X166212126Y-82097063D01*
X166266621Y-82127519D01*
X166271219Y-82129013D01*
X166439762Y-82183776D01*
X166439764Y-82183777D01*
X166444367Y-82185272D01*
X166629945Y-82207401D01*
X166634767Y-82207030D01*
X166634770Y-82207030D01*
X166695766Y-82202336D01*
X166816287Y-82193063D01*
X166996296Y-82142804D01*
X167000614Y-82140623D01*
X167158793Y-82060721D01*
X167158795Y-82060720D01*
X167163114Y-82058538D01*
X167310387Y-81943475D01*
X167313549Y-81939812D01*
X167313554Y-81939807D01*
X167429343Y-81805663D01*
X167432507Y-81801998D01*
X167449242Y-81772540D01*
X167522432Y-81643701D01*
X167522433Y-81643698D01*
X167524821Y-81639495D01*
X167538671Y-81597863D01*
X167582287Y-81466748D01*
X167582288Y-81466746D01*
X167583814Y-81462157D01*
X167588974Y-81421316D01*
X167600963Y-81326407D01*
X167607238Y-81276738D01*
X167607611Y-81250000D01*
X167589373Y-81063999D01*
X167535355Y-80885083D01*
X167447615Y-80720066D01*
X167329493Y-80575235D01*
X167185489Y-80456105D01*
X167021089Y-80367214D01*
X166962927Y-80349210D01*
X166847175Y-80313378D01*
X166847171Y-80313377D01*
X166842554Y-80311948D01*
X166837745Y-80311443D01*
X166837742Y-80311442D01*
X166826818Y-80310294D01*
X166812693Y-80308810D01*
X166753037Y-80280356D01*
X166531319Y-80058638D01*
X166521588Y-80047313D01*
X166510922Y-80032819D01*
X166510915Y-80032811D01*
X166507508Y-80028182D01*
X166503126Y-80024460D01*
X166503124Y-80024457D01*
X166466408Y-79993265D01*
X166460502Y-79987821D01*
X166454021Y-79981340D01*
X166431364Y-79963415D01*
X166428728Y-79961254D01*
X166372715Y-79913667D01*
X166367596Y-79911053D01*
X166362806Y-79907858D01*
X166362867Y-79907766D01*
X166359747Y-79905763D01*
X166359689Y-79905857D01*
X166354792Y-79902832D01*
X166350284Y-79899266D01*
X166345078Y-79896833D01*
X166345075Y-79896831D01*
X166283726Y-79868159D01*
X166280621Y-79866641D01*
X166273095Y-79862798D01*
X166215192Y-79833231D01*
X166209602Y-79831863D01*
X166204213Y-79829859D01*
X166204252Y-79829755D01*
X166200752Y-79828523D01*
X166200717Y-79828629D01*
X166195262Y-79826814D01*
X166190050Y-79824378D01*
X166184422Y-79823207D01*
X166184412Y-79823204D01*
X166118127Y-79809417D01*
X166114758Y-79808655D01*
X166047673Y-79792240D01*
X166043390Y-79791192D01*
X166032236Y-79790500D01*
X166032250Y-79790269D01*
X166028265Y-79789802D01*
X166028244Y-79790042D01*
X166022511Y-79789530D01*
X166016885Y-79788360D01*
X166011143Y-79788515D01*
X166011139Y-79788515D01*
X165939110Y-79790464D01*
X165936433Y-79790500D01*
X159856937Y-79790500D01*
X159798746Y-79771593D01*
X159762782Y-79722093D01*
X159758516Y-79702192D01*
X159756416Y-79682858D01*
X159756415Y-79682856D01*
X159755745Y-79676684D01*
X159704615Y-79540295D01*
X159617261Y-79423739D01*
X159500705Y-79336385D01*
X159364316Y-79285255D01*
X159358144Y-79284585D01*
X159358142Y-79284584D01*
X159322163Y-79280676D01*
X159302134Y-79278500D01*
X157681866Y-79278500D01*
X157661837Y-79280676D01*
X157625858Y-79284584D01*
X157625856Y-79284585D01*
X157619684Y-79285255D01*
X157483295Y-79336385D01*
X157366739Y-79423739D01*
X157279385Y-79540295D01*
X157228255Y-79676684D01*
X157221500Y-79738866D01*
X157221500Y-79821979D01*
X157202593Y-79880170D01*
X157176770Y-79904778D01*
X157174216Y-79906452D01*
X157171305Y-79908289D01*
X157112265Y-79944115D01*
X157112261Y-79944118D01*
X157108492Y-79946405D01*
X157100116Y-79953803D01*
X157099996Y-79953667D01*
X157096838Y-79956146D01*
X157096969Y-79956302D01*
X157092556Y-79959992D01*
X157087748Y-79963144D01*
X157059214Y-79993265D01*
X157034256Y-80019611D01*
X157032389Y-80021530D01*
X154877438Y-82176481D01*
X154866113Y-82186212D01*
X154851619Y-82196878D01*
X154851611Y-82196885D01*
X154846982Y-82200292D01*
X154843260Y-82204674D01*
X154843257Y-82204676D01*
X154812065Y-82241392D01*
X154806621Y-82247298D01*
X154800140Y-82253779D01*
X154798361Y-82256028D01*
X154798358Y-82256031D01*
X154782219Y-82276431D01*
X154780054Y-82279072D01*
X154732467Y-82335085D01*
X154729853Y-82340204D01*
X154726658Y-82344994D01*
X154726566Y-82344933D01*
X154724563Y-82348053D01*
X154724657Y-82348111D01*
X154721632Y-82353008D01*
X154718066Y-82357516D01*
X154715633Y-82362722D01*
X154715631Y-82362725D01*
X154686959Y-82424074D01*
X154685441Y-82427179D01*
X154652031Y-82492608D01*
X154650663Y-82498198D01*
X154648659Y-82503587D01*
X154648555Y-82503548D01*
X154647323Y-82507048D01*
X154647429Y-82507083D01*
X154645614Y-82512538D01*
X154643178Y-82517750D01*
X154642007Y-82523378D01*
X154642004Y-82523388D01*
X154628217Y-82589673D01*
X154627455Y-82593042D01*
X154609992Y-82664410D01*
X154609300Y-82675564D01*
X154609069Y-82675550D01*
X154608602Y-82679535D01*
X154608842Y-82679556D01*
X154608330Y-82685289D01*
X154607160Y-82690915D01*
X154607315Y-82696657D01*
X154607315Y-82696661D01*
X154609264Y-82768690D01*
X154609300Y-82771367D01*
X154609300Y-85446043D01*
X154590393Y-85504234D01*
X154586137Y-85509680D01*
X154580779Y-85516065D01*
X154580774Y-85516072D01*
X154577662Y-85519781D01*
X154487626Y-85683557D01*
X154486163Y-85688170D01*
X154486161Y-85688174D01*
X154432579Y-85857084D01*
X154432578Y-85857090D01*
X154431115Y-85861701D01*
X154410282Y-86047430D01*
X133602000Y-86047430D01*
X133602000Y-75062000D01*
X133620907Y-75003809D01*
X133670407Y-74967845D01*
X133701000Y-74963000D01*
X182775000Y-74963000D01*
X182833191Y-74981907D01*
G37*
%TD.AperFunction*%
%TD*%
M02*
