%TF.GenerationSoftware,KiCad,Pcbnew,6.0.11+dfsg-1~bpo11+1*%
%TF.CreationDate,2023-04-12T13:16:58+00:00*%
%TF.ProjectId,PCRD01,50435244-3031-42e6-9b69-6361645f7063,01A*%
%TF.SameCoordinates,Original*%
%TF.FileFunction,Soldermask,Bot*%
%TF.FilePolarity,Negative*%
%FSLAX46Y46*%
G04 Gerber Fmt 4.6, Leading zero omitted, Abs format (unit mm)*
G04 Created by KiCad (PCBNEW 6.0.11+dfsg-1~bpo11+1) date 2023-04-12 13:16:58*
%MOMM*%
%LPD*%
G01*
G04 APERTURE LIST*
%ADD10R,1.651000X1.651000*%
%ADD11C,6.000000*%
%ADD12R,1.397000X0.889000*%
%ADD13R,0.889000X1.397000*%
%ADD14R,0.508000X1.143000*%
%ADD15R,0.500000X1.000760*%
%ADD16R,0.501040X1.000760*%
%ADD17R,0.800100X1.000760*%
G04 APERTURE END LIST*
D10*
%TO.C,J1*%
X140458000Y-90709000D03*
X140458000Y-88169000D03*
X140458000Y-85629000D03*
X137918000Y-85629000D03*
X137918000Y-88169000D03*
X137918000Y-90709000D03*
%TD*%
%TO.C,J2*%
X158034800Y-102139000D03*
X160574800Y-102139000D03*
X163114800Y-102139000D03*
X165654800Y-102139000D03*
X168194800Y-102139000D03*
X168194800Y-99599000D03*
X165654800Y-99599000D03*
X163114800Y-99599000D03*
X160574800Y-99599000D03*
X158034800Y-99599000D03*
%TD*%
%TO.C,J5*%
X180564600Y-90353400D03*
X180564600Y-87813400D03*
X180564600Y-85273400D03*
X178024600Y-85273400D03*
X178024600Y-87813400D03*
X178024600Y-90353400D03*
%TD*%
D11*
%TO.C,P4*%
X137918000Y-99599000D03*
%TD*%
D10*
%TO.C,J3*%
X147443000Y-90074000D03*
X152523000Y-90074000D03*
%TD*%
D11*
%TO.C,P3*%
X137918000Y-79279000D03*
%TD*%
%TO.C,P1*%
X178558000Y-99599000D03*
%TD*%
%TO.C,P2*%
X178558000Y-79279000D03*
%TD*%
D10*
%TO.C,J4*%
X158619000Y-83089000D03*
X158619000Y-80549000D03*
%TD*%
D12*
%TO.C,C1*%
X147570000Y-85184500D03*
X147570000Y-87089500D03*
%TD*%
%TO.C,C2*%
X156968000Y-95471500D03*
X156968000Y-97376500D03*
%TD*%
%TO.C,C3*%
X158873000Y-89756500D03*
X158873000Y-87851500D03*
%TD*%
%TO.C,C5*%
X172843000Y-82136500D03*
X172843000Y-80231500D03*
%TD*%
%TO.C,C6*%
X170303000Y-82136500D03*
X170303000Y-80231500D03*
%TD*%
D13*
%TO.C,C10*%
X159800100Y-97008200D03*
X161705100Y-97008200D03*
%TD*%
D12*
%TO.C,C12*%
X175510000Y-91915500D03*
X175510000Y-90010500D03*
%TD*%
D13*
%TO.C,C14*%
X171763500Y-84308200D03*
X173668500Y-84308200D03*
%TD*%
D12*
%TO.C,R1*%
X147570000Y-83406500D03*
X147570000Y-81501500D03*
%TD*%
D13*
%TO.C,R2*%
X144064800Y-88169000D03*
X142159800Y-88169000D03*
%TD*%
D12*
%TO.C,R5*%
X163826000Y-94201500D03*
X163826000Y-92296500D03*
%TD*%
%TO.C,R6*%
X171192000Y-94074500D03*
X171192000Y-92169500D03*
%TD*%
%TO.C,R7*%
X166239000Y-94201500D03*
X166239000Y-92296500D03*
%TD*%
%TO.C,R8*%
X173224000Y-91915500D03*
X173224000Y-90010500D03*
%TD*%
%TO.C,R9*%
X169972800Y-89604100D03*
X169972800Y-87699100D03*
%TD*%
%TO.C,R11*%
X175357600Y-86200500D03*
X175357600Y-88105500D03*
%TD*%
%TO.C,C11*%
X168779000Y-94074500D03*
X168779000Y-92169500D03*
%TD*%
%TO.C,C9*%
X161413000Y-89756500D03*
X161413000Y-87851500D03*
%TD*%
D13*
%TO.C,C8*%
X161095500Y-92106000D03*
X159190500Y-92106000D03*
%TD*%
D12*
%TO.C,C13*%
X169972800Y-86251300D03*
X169972800Y-84346300D03*
%TD*%
%TO.C,R10*%
X172004800Y-88003900D03*
X172004800Y-86098900D03*
%TD*%
D13*
%TO.C,C7*%
X159825500Y-95154000D03*
X161730500Y-95154000D03*
%TD*%
D14*
%TO.C,U2*%
X167763000Y-89439000D03*
X166493000Y-89439000D03*
X165223000Y-89439000D03*
X163953000Y-89439000D03*
X163953000Y-83089000D03*
X165223000Y-83089000D03*
X166493000Y-83089000D03*
X167763000Y-83089000D03*
%TD*%
D15*
%TO.C,U1*%
X157158500Y-93376000D03*
X156206000Y-93376000D03*
X155253500Y-93376000D03*
D16*
X155253500Y-90836000D03*
D15*
X156206000Y-90836000D03*
X157158500Y-90836000D03*
%TD*%
D12*
%TO.C,R3*%
X155063000Y-97376500D03*
X155063000Y-95471500D03*
%TD*%
D17*
%TO.C,Q1*%
X153475500Y-87069180D03*
X155380500Y-87069180D03*
X154428000Y-89268820D03*
%TD*%
D12*
%TO.C,R4*%
X152523000Y-93947500D03*
X152523000Y-92042500D03*
%TD*%
D13*
%TO.C,R12*%
X145093500Y-90074000D03*
X143188500Y-90074000D03*
%TD*%
D12*
%TO.C,C15*%
X144115600Y-86416400D03*
X144115600Y-84511400D03*
%TD*%
M02*
