%TF.GenerationSoftware,KiCad,Pcbnew,6.0.11+dfsg-1~bpo11+1*%
%TF.CreationDate,2023-04-12T15:22:37+00:00*%
%TF.ProjectId,PCRD01,50435244-3031-42e6-9b69-6361645f7063,01A*%
%TF.SameCoordinates,Original*%
%TF.FileFunction,Copper,L1,Top*%
%TF.FilePolarity,Positive*%
%FSLAX46Y46*%
G04 Gerber Fmt 4.6, Leading zero omitted, Abs format (unit mm)*
G04 Created by KiCad (PCBNEW 6.0.11+dfsg-1~bpo11+1) date 2023-04-12 15:22:37*
%MOMM*%
%LPD*%
G01*
G04 APERTURE LIST*
%TA.AperFunction,ComponentPad*%
%ADD10R,1.651000X1.651000*%
%TD*%
%TA.AperFunction,ComponentPad*%
%ADD11C,6.000000*%
%TD*%
%TA.AperFunction,ComponentPad*%
%ADD12R,1.524000X1.524000*%
%TD*%
%TA.AperFunction,ViaPad*%
%ADD13C,0.889000*%
%TD*%
%TA.AperFunction,Conductor*%
%ADD14C,0.400000*%
%TD*%
%TA.AperFunction,Conductor*%
%ADD15C,0.500000*%
%TD*%
G04 APERTURE END LIST*
D10*
%TO.P,J1,1,1*%
%TO.N,GND*%
X140458000Y-90709000D03*
%TO.P,J1,2,1*%
%TO.N,/+Ubias*%
X140458000Y-88169000D03*
%TO.P,J1,3,3*%
%TO.N,GND*%
X140458000Y-85629000D03*
%TO.P,J1,4*%
X137918000Y-85629000D03*
%TO.P,J1,5*%
%TO.N,/+Ubias*%
X137918000Y-88169000D03*
%TO.P,J1,6*%
%TO.N,GND*%
X137918000Y-90709000D03*
%TD*%
%TO.P,J2,1*%
%TO.N,GND*%
X158034800Y-102139000D03*
%TO.P,J2,2*%
%TO.N,V-*%
X160574800Y-102139000D03*
%TO.P,J2,3*%
%TO.N,V+*%
X163114800Y-102139000D03*
%TO.P,J2,4*%
%TO.N,V-*%
X165654800Y-102139000D03*
%TO.P,J2,5*%
%TO.N,GND*%
X168194800Y-102139000D03*
%TO.P,J2,6*%
X168194800Y-99599000D03*
%TO.P,J2,7*%
%TO.N,V-*%
X165654800Y-99599000D03*
%TO.P,J2,8*%
%TO.N,V+*%
X163114800Y-99599000D03*
%TO.P,J2,9*%
%TO.N,V-*%
X160574800Y-99599000D03*
%TO.P,J2,10*%
%TO.N,GND*%
X158034800Y-99599000D03*
%TD*%
%TO.P,J5,1,1*%
%TO.N,GND*%
X180564600Y-90353400D03*
%TO.P,J5,2,1*%
%TO.N,Net-(C14-Pad2)*%
X180564600Y-87813400D03*
%TO.P,J5,3,3*%
%TO.N,GND*%
X180564600Y-85273400D03*
%TO.P,J5,4*%
X178024600Y-85273400D03*
%TO.P,J5,5*%
%TO.N,Net-(C14-Pad2)*%
X178024600Y-87813400D03*
%TO.P,J5,6*%
%TO.N,GND*%
X178024600Y-90353400D03*
%TD*%
D11*
%TO.P,P4,1,P1*%
%TO.N,GND*%
X137918000Y-99599000D03*
%TD*%
%TO.P,P3,1,P1*%
%TO.N,GND*%
X137918000Y-79279000D03*
%TD*%
%TO.P,P1,1,P1*%
%TO.N,GND*%
X178558000Y-99599000D03*
%TD*%
%TO.P,P2,1,P1*%
%TO.N,GND*%
X178558000Y-79279000D03*
%TD*%
D10*
%TO.P,J4,1,P1*%
%TO.N,/#SHDN*%
X158619000Y-83089000D03*
%TO.P,J4,2,PM*%
%TO.N,V+*%
X158619000Y-80549000D03*
%TD*%
D12*
%TO.P,J3,1*%
%TO.N,/K*%
X147443000Y-90074000D03*
%TO.P,J3,2*%
%TO.N,GND*%
X149983000Y-90074000D03*
%TO.P,J3,3*%
%TO.N,/A*%
X152523000Y-90074000D03*
%TD*%
D13*
%TO.N,GND*%
X162657600Y-83089000D03*
X154961400Y-77196200D03*
X170684000Y-77780400D03*
X165680200Y-77297800D03*
X162683000Y-85629000D03*
X159914400Y-86391000D03*
X161184400Y-96144600D03*
X135733600Y-83698600D03*
X135733600Y-94773000D03*
X166518400Y-87356200D03*
X171293600Y-95865200D03*
X139200000Y-94600000D03*
X174951200Y-94493600D03*
X165413500Y-96360500D03*
X160955800Y-77399400D03*
X150135400Y-76764400D03*
X142210600Y-81082400D03*
%TO.N,V+*%
X157608447Y-90079311D03*
X155367800Y-86060800D03*
X166650000Y-81250000D03*
%TO.N,Net-(C4-Pad1)*%
X157857000Y-93363300D03*
X153564931Y-94014931D03*
%TO.N,V-*%
X159838200Y-95166700D03*
X160216002Y-89693000D03*
X156439400Y-84160600D03*
%TD*%
D14*
%TO.N,GND*%
X160752600Y-77196200D02*
X160955800Y-77399400D01*
X158034800Y-99599000D02*
X157298200Y-99599000D01*
X165197600Y-96144600D02*
X165413500Y-96360500D01*
%TO.N,V+*%
X159844500Y-80549000D02*
X160689748Y-80549000D01*
D15*
X166650000Y-81250000D02*
X165949000Y-80549000D01*
X155367800Y-86060800D02*
X155367800Y-82758800D01*
D14*
X158619000Y-80549000D02*
X159844500Y-80549000D01*
D15*
X155367800Y-87838664D02*
X155668517Y-88139381D01*
X155367800Y-86060800D02*
X155367800Y-87838664D01*
X157608447Y-90079311D02*
X155668517Y-88139381D01*
X158619000Y-80549000D02*
X165949000Y-80549000D01*
X155367800Y-82758800D02*
X155692499Y-82434101D01*
X155692499Y-82434101D02*
X157577600Y-80549000D01*
X160689748Y-80549000D02*
X157577600Y-80549000D01*
X165949000Y-80549000D02*
X160689748Y-80549000D01*
%TO.N,Net-(C4-Pad1)*%
X153564931Y-94014931D02*
X154216562Y-93363300D01*
X154216562Y-93363300D02*
X157857000Y-93363300D01*
%TO.N,V-*%
X156439400Y-84160600D02*
X156439400Y-85916398D01*
X160216002Y-89693000D02*
X160216002Y-94788898D01*
X156439400Y-85916398D02*
X160216002Y-89693000D01*
X160216002Y-94788898D02*
X159838200Y-95166700D01*
%TD*%
%TA.AperFunction,Conductor*%
%TO.N,GND*%
G36*
X182832691Y-74982407D02*
G01*
X182868655Y-75031907D01*
X182873500Y-75062500D01*
X182873500Y-103815500D01*
X182854593Y-103873691D01*
X182805093Y-103909655D01*
X182774500Y-103914500D01*
X133701500Y-103914500D01*
X133643309Y-103895593D01*
X133607345Y-103846093D01*
X133602500Y-103815500D01*
X133602500Y-103012634D01*
X159240800Y-103012634D01*
X159247555Y-103074816D01*
X159298685Y-103211205D01*
X159386039Y-103327761D01*
X159502595Y-103415115D01*
X159638984Y-103466245D01*
X159645156Y-103466915D01*
X159645158Y-103466916D01*
X159681137Y-103470824D01*
X159701166Y-103473000D01*
X161448434Y-103473000D01*
X161468463Y-103470824D01*
X161504442Y-103466916D01*
X161504444Y-103466915D01*
X161510616Y-103466245D01*
X161647005Y-103415115D01*
X161763561Y-103327761D01*
X161767791Y-103322117D01*
X161772778Y-103317130D01*
X161774463Y-103318815D01*
X161815601Y-103289845D01*
X161876780Y-103290748D01*
X161915252Y-103318700D01*
X161916822Y-103317130D01*
X161921809Y-103322117D01*
X161926039Y-103327761D01*
X162042595Y-103415115D01*
X162178984Y-103466245D01*
X162185156Y-103466915D01*
X162185158Y-103466916D01*
X162221137Y-103470824D01*
X162241166Y-103473000D01*
X163988434Y-103473000D01*
X164008463Y-103470824D01*
X164044442Y-103466916D01*
X164044444Y-103466915D01*
X164050616Y-103466245D01*
X164187005Y-103415115D01*
X164303561Y-103327761D01*
X164307791Y-103322117D01*
X164312778Y-103317130D01*
X164314463Y-103318815D01*
X164355601Y-103289845D01*
X164416780Y-103290748D01*
X164455252Y-103318700D01*
X164456822Y-103317130D01*
X164461809Y-103322117D01*
X164466039Y-103327761D01*
X164582595Y-103415115D01*
X164718984Y-103466245D01*
X164725156Y-103466915D01*
X164725158Y-103466916D01*
X164761137Y-103470824D01*
X164781166Y-103473000D01*
X166528434Y-103473000D01*
X166548463Y-103470824D01*
X166584442Y-103466916D01*
X166584444Y-103466915D01*
X166590616Y-103466245D01*
X166727005Y-103415115D01*
X166843561Y-103327761D01*
X166930915Y-103211205D01*
X166982045Y-103074816D01*
X166988800Y-103012634D01*
X166988800Y-101265366D01*
X166982045Y-101203184D01*
X166930915Y-101066795D01*
X166843561Y-100950239D01*
X166837917Y-100946009D01*
X166832930Y-100941022D01*
X166834615Y-100939337D01*
X166805645Y-100898199D01*
X166806548Y-100837020D01*
X166834500Y-100798548D01*
X166832930Y-100796978D01*
X166837917Y-100791991D01*
X166843561Y-100787761D01*
X166930915Y-100671205D01*
X166982045Y-100534816D01*
X166988800Y-100472634D01*
X166988800Y-98725366D01*
X166982045Y-98663184D01*
X166930915Y-98526795D01*
X166843561Y-98410239D01*
X166727005Y-98322885D01*
X166590616Y-98271755D01*
X166584444Y-98271085D01*
X166584442Y-98271084D01*
X166548463Y-98267176D01*
X166528434Y-98265000D01*
X164781166Y-98265000D01*
X164761137Y-98267176D01*
X164725158Y-98271084D01*
X164725156Y-98271085D01*
X164718984Y-98271755D01*
X164582595Y-98322885D01*
X164466039Y-98410239D01*
X164461809Y-98415883D01*
X164456822Y-98420870D01*
X164455137Y-98419185D01*
X164413999Y-98448155D01*
X164352820Y-98447252D01*
X164314348Y-98419300D01*
X164312778Y-98420870D01*
X164307791Y-98415883D01*
X164303561Y-98410239D01*
X164187005Y-98322885D01*
X164050616Y-98271755D01*
X164044444Y-98271085D01*
X164044442Y-98271084D01*
X164008463Y-98267176D01*
X163988434Y-98265000D01*
X162241166Y-98265000D01*
X162221137Y-98267176D01*
X162185158Y-98271084D01*
X162185156Y-98271085D01*
X162178984Y-98271755D01*
X162042595Y-98322885D01*
X161926039Y-98410239D01*
X161921809Y-98415883D01*
X161916822Y-98420870D01*
X161915137Y-98419185D01*
X161873999Y-98448155D01*
X161812820Y-98447252D01*
X161774348Y-98419300D01*
X161772778Y-98420870D01*
X161767791Y-98415883D01*
X161763561Y-98410239D01*
X161647005Y-98322885D01*
X161510616Y-98271755D01*
X161504444Y-98271085D01*
X161504442Y-98271084D01*
X161468463Y-98267176D01*
X161448434Y-98265000D01*
X159701166Y-98265000D01*
X159681137Y-98267176D01*
X159645158Y-98271084D01*
X159645156Y-98271085D01*
X159638984Y-98271755D01*
X159502595Y-98322885D01*
X159386039Y-98410239D01*
X159298685Y-98526795D01*
X159247555Y-98663184D01*
X159240800Y-98725366D01*
X159240800Y-100472634D01*
X159247555Y-100534816D01*
X159298685Y-100671205D01*
X159386039Y-100787761D01*
X159391683Y-100791991D01*
X159396670Y-100796978D01*
X159394985Y-100798663D01*
X159423955Y-100839801D01*
X159423052Y-100900980D01*
X159395100Y-100939452D01*
X159396670Y-100941022D01*
X159391683Y-100946009D01*
X159386039Y-100950239D01*
X159298685Y-101066795D01*
X159247555Y-101203184D01*
X159240800Y-101265366D01*
X159240800Y-103012634D01*
X133602500Y-103012634D01*
X133602500Y-94001561D01*
X152607413Y-94001561D01*
X152607818Y-94006381D01*
X152621712Y-94171838D01*
X152623052Y-94187798D01*
X152674567Y-94367451D01*
X152759995Y-94533677D01*
X152876083Y-94680143D01*
X152879763Y-94683275D01*
X152879765Y-94683277D01*
X152912795Y-94711388D01*
X153018409Y-94801273D01*
X153022631Y-94803633D01*
X153022636Y-94803636D01*
X153058124Y-94823469D01*
X153181552Y-94892450D01*
X153186150Y-94893944D01*
X153354693Y-94948707D01*
X153354695Y-94948708D01*
X153359298Y-94950203D01*
X153544876Y-94972332D01*
X153549698Y-94971961D01*
X153549701Y-94971961D01*
X153610697Y-94967267D01*
X153731218Y-94957994D01*
X153911227Y-94907735D01*
X153915545Y-94905554D01*
X154073724Y-94825652D01*
X154073726Y-94825651D01*
X154078045Y-94823469D01*
X154225318Y-94708406D01*
X154228480Y-94704743D01*
X154228485Y-94704738D01*
X154344274Y-94570594D01*
X154347438Y-94566929D01*
X154364173Y-94537471D01*
X154437363Y-94408632D01*
X154437364Y-94408629D01*
X154439752Y-94404426D01*
X154498745Y-94227088D01*
X154501107Y-94208392D01*
X154527158Y-94153030D01*
X154580775Y-94123554D01*
X154599326Y-94121800D01*
X157241339Y-94121800D01*
X157299530Y-94140707D01*
X157305501Y-94145406D01*
X157310478Y-94149642D01*
X157314700Y-94152002D01*
X157314705Y-94152005D01*
X157387069Y-94192447D01*
X157473621Y-94240819D01*
X157478219Y-94242313D01*
X157646762Y-94297076D01*
X157646764Y-94297077D01*
X157651367Y-94298572D01*
X157836945Y-94320701D01*
X157841767Y-94320330D01*
X157841770Y-94320330D01*
X157902766Y-94315636D01*
X158023287Y-94306363D01*
X158203296Y-94256104D01*
X158207614Y-94253923D01*
X158365793Y-94174021D01*
X158365795Y-94174020D01*
X158370114Y-94171838D01*
X158517387Y-94056775D01*
X158520549Y-94053112D01*
X158520554Y-94053107D01*
X158636343Y-93918963D01*
X158639507Y-93915298D01*
X158693277Y-93820646D01*
X158729432Y-93757001D01*
X158729433Y-93756998D01*
X158731821Y-93752795D01*
X158768577Y-93642305D01*
X158789287Y-93580048D01*
X158789288Y-93580046D01*
X158790814Y-93575457D01*
X158814238Y-93390038D01*
X158814611Y-93363300D01*
X158796373Y-93177299D01*
X158742355Y-92998383D01*
X158654615Y-92833366D01*
X158536493Y-92688535D01*
X158530558Y-92683625D01*
X158396216Y-92572488D01*
X158396214Y-92572487D01*
X158392489Y-92569405D01*
X158228089Y-92480514D01*
X158049554Y-92425248D01*
X158044744Y-92424742D01*
X158044742Y-92424742D01*
X157868501Y-92406218D01*
X157868499Y-92406218D01*
X157863685Y-92405712D01*
X157803781Y-92411164D01*
X157682382Y-92422212D01*
X157682379Y-92422213D01*
X157677562Y-92422651D01*
X157672920Y-92424017D01*
X157672916Y-92424018D01*
X157502920Y-92474051D01*
X157502917Y-92474052D01*
X157498273Y-92475419D01*
X157332647Y-92562005D01*
X157328871Y-92565041D01*
X157328868Y-92565043D01*
X157306592Y-92582954D01*
X157244558Y-92604800D01*
X154281583Y-92604800D01*
X154266694Y-92603674D01*
X154248902Y-92600967D01*
X154248898Y-92600967D01*
X154243213Y-92600102D01*
X154191386Y-92604317D01*
X154189458Y-92604474D01*
X154181433Y-92604800D01*
X154172269Y-92604800D01*
X154169425Y-92605132D01*
X154169417Y-92605132D01*
X154143572Y-92608145D01*
X154140136Y-92608485D01*
X154072661Y-92613973D01*
X154072657Y-92613974D01*
X154066925Y-92614440D01*
X154061452Y-92616213D01*
X154055813Y-92617340D01*
X154055791Y-92617230D01*
X154052166Y-92618020D01*
X154052192Y-92618129D01*
X154046596Y-92619452D01*
X154040881Y-92620118D01*
X154035473Y-92622081D01*
X153971822Y-92645185D01*
X153968554Y-92646307D01*
X153915708Y-92663427D01*
X153898663Y-92668949D01*
X153893748Y-92671932D01*
X153888516Y-92674327D01*
X153888470Y-92674226D01*
X153885124Y-92675828D01*
X153885175Y-92675930D01*
X153880039Y-92678502D01*
X153874625Y-92680467D01*
X153869809Y-92683624D01*
X153869808Y-92683625D01*
X153813209Y-92720733D01*
X153810287Y-92722577D01*
X153751227Y-92758415D01*
X153751223Y-92758418D01*
X153747454Y-92760705D01*
X153739078Y-92768103D01*
X153738958Y-92767967D01*
X153735800Y-92770446D01*
X153735931Y-92770602D01*
X153731518Y-92774292D01*
X153726710Y-92777444D01*
X153722757Y-92781617D01*
X153673218Y-92833911D01*
X153671351Y-92835830D01*
X153462986Y-93044195D01*
X153408469Y-93071972D01*
X153401954Y-93072784D01*
X153390312Y-93073843D01*
X153390307Y-93073844D01*
X153385493Y-93074282D01*
X153316136Y-93094695D01*
X153210851Y-93125682D01*
X153210848Y-93125683D01*
X153206204Y-93127050D01*
X153040578Y-93213636D01*
X153036802Y-93216672D01*
X153036799Y-93216674D01*
X152898698Y-93327711D01*
X152894926Y-93330744D01*
X152891817Y-93334449D01*
X152891814Y-93334452D01*
X152869923Y-93360541D01*
X152774793Y-93473912D01*
X152772461Y-93478155D01*
X152772459Y-93478157D01*
X152716445Y-93580048D01*
X152684757Y-93637688D01*
X152683294Y-93642301D01*
X152683292Y-93642305D01*
X152629710Y-93811215D01*
X152629709Y-93811221D01*
X152628246Y-93815832D01*
X152607413Y-94001561D01*
X133602500Y-94001561D01*
X133602500Y-90884134D01*
X146172500Y-90884134D01*
X146179255Y-90946316D01*
X146230385Y-91082705D01*
X146317739Y-91199261D01*
X146434295Y-91286615D01*
X146570684Y-91337745D01*
X146576856Y-91338415D01*
X146576858Y-91338416D01*
X146612837Y-91342324D01*
X146632866Y-91344500D01*
X148253134Y-91344500D01*
X148273163Y-91342324D01*
X148309142Y-91338416D01*
X148309144Y-91338415D01*
X148315316Y-91337745D01*
X148451705Y-91286615D01*
X148568261Y-91199261D01*
X148655615Y-91082705D01*
X148706745Y-90946316D01*
X148713500Y-90884134D01*
X151252500Y-90884134D01*
X151259255Y-90946316D01*
X151310385Y-91082705D01*
X151397739Y-91199261D01*
X151514295Y-91286615D01*
X151650684Y-91337745D01*
X151656856Y-91338415D01*
X151656858Y-91338416D01*
X151692837Y-91342324D01*
X151712866Y-91344500D01*
X153333134Y-91344500D01*
X153353163Y-91342324D01*
X153389142Y-91338416D01*
X153389144Y-91338415D01*
X153395316Y-91337745D01*
X153531705Y-91286615D01*
X153648261Y-91199261D01*
X153735615Y-91082705D01*
X153786745Y-90946316D01*
X153793500Y-90884134D01*
X153793500Y-89263866D01*
X153786745Y-89201684D01*
X153766395Y-89147400D01*
X153738089Y-89071894D01*
X153738089Y-89071893D01*
X153735615Y-89065295D01*
X153648261Y-88948739D01*
X153531705Y-88861385D01*
X153395316Y-88810255D01*
X153389144Y-88809585D01*
X153389142Y-88809584D01*
X153353163Y-88805676D01*
X153333134Y-88803500D01*
X151712866Y-88803500D01*
X151692837Y-88805676D01*
X151656858Y-88809584D01*
X151656856Y-88809585D01*
X151650684Y-88810255D01*
X151514295Y-88861385D01*
X151397739Y-88948739D01*
X151310385Y-89065295D01*
X151307911Y-89071893D01*
X151307911Y-89071894D01*
X151279605Y-89147400D01*
X151259255Y-89201684D01*
X151252500Y-89263866D01*
X151252500Y-90884134D01*
X148713500Y-90884134D01*
X148713500Y-89263866D01*
X148706745Y-89201684D01*
X148686395Y-89147400D01*
X148658089Y-89071894D01*
X148658089Y-89071893D01*
X148655615Y-89065295D01*
X148568261Y-88948739D01*
X148451705Y-88861385D01*
X148315316Y-88810255D01*
X148309144Y-88809585D01*
X148309142Y-88809584D01*
X148273163Y-88805676D01*
X148253134Y-88803500D01*
X146632866Y-88803500D01*
X146612837Y-88805676D01*
X146576858Y-88809584D01*
X146576856Y-88809585D01*
X146570684Y-88810255D01*
X146434295Y-88861385D01*
X146317739Y-88948739D01*
X146230385Y-89065295D01*
X146227911Y-89071893D01*
X146227911Y-89071894D01*
X146199605Y-89147400D01*
X146179255Y-89201684D01*
X146172500Y-89263866D01*
X146172500Y-90884134D01*
X133602500Y-90884134D01*
X133602500Y-89042634D01*
X136584000Y-89042634D01*
X136584289Y-89045293D01*
X136589362Y-89091989D01*
X136590755Y-89104816D01*
X136641885Y-89241205D01*
X136729239Y-89357761D01*
X136845795Y-89445115D01*
X136982184Y-89496245D01*
X136988356Y-89496915D01*
X136988358Y-89496916D01*
X137024337Y-89500824D01*
X137044366Y-89503000D01*
X138791634Y-89503000D01*
X138811663Y-89500824D01*
X138847642Y-89496916D01*
X138847644Y-89496915D01*
X138853816Y-89496245D01*
X138990205Y-89445115D01*
X139106761Y-89357761D01*
X139110991Y-89352117D01*
X139115978Y-89347130D01*
X139117663Y-89348815D01*
X139158801Y-89319845D01*
X139219980Y-89320748D01*
X139258452Y-89348700D01*
X139260022Y-89347130D01*
X139265009Y-89352117D01*
X139269239Y-89357761D01*
X139385795Y-89445115D01*
X139522184Y-89496245D01*
X139528356Y-89496915D01*
X139528358Y-89496916D01*
X139564337Y-89500824D01*
X139584366Y-89503000D01*
X141331634Y-89503000D01*
X141351663Y-89500824D01*
X141387642Y-89496916D01*
X141387644Y-89496915D01*
X141393816Y-89496245D01*
X141530205Y-89445115D01*
X141646761Y-89357761D01*
X141734115Y-89241205D01*
X141785245Y-89104816D01*
X141786639Y-89091989D01*
X141791711Y-89045293D01*
X141792000Y-89042634D01*
X141792000Y-87295366D01*
X141785245Y-87233184D01*
X141734115Y-87096795D01*
X141646761Y-86980239D01*
X141530205Y-86892885D01*
X141393816Y-86841755D01*
X141387644Y-86841085D01*
X141387642Y-86841084D01*
X141351663Y-86837176D01*
X141331634Y-86835000D01*
X139584366Y-86835000D01*
X139564337Y-86837176D01*
X139528358Y-86841084D01*
X139528356Y-86841085D01*
X139522184Y-86841755D01*
X139385795Y-86892885D01*
X139269239Y-86980239D01*
X139265009Y-86985883D01*
X139260022Y-86990870D01*
X139258337Y-86989185D01*
X139217199Y-87018155D01*
X139156020Y-87017252D01*
X139117548Y-86989300D01*
X139115978Y-86990870D01*
X139110991Y-86985883D01*
X139106761Y-86980239D01*
X138990205Y-86892885D01*
X138853816Y-86841755D01*
X138847644Y-86841085D01*
X138847642Y-86841084D01*
X138811663Y-86837176D01*
X138791634Y-86835000D01*
X137044366Y-86835000D01*
X137024337Y-86837176D01*
X136988358Y-86841084D01*
X136988356Y-86841085D01*
X136982184Y-86841755D01*
X136845795Y-86892885D01*
X136729239Y-86980239D01*
X136641885Y-87096795D01*
X136590755Y-87233184D01*
X136584000Y-87295366D01*
X136584000Y-89042634D01*
X133602500Y-89042634D01*
X133602500Y-86047430D01*
X154410282Y-86047430D01*
X154425921Y-86233667D01*
X154477436Y-86413320D01*
X154562864Y-86579546D01*
X154565875Y-86583344D01*
X154565875Y-86583345D01*
X154587885Y-86611114D01*
X154609300Y-86672608D01*
X154609300Y-87773637D01*
X154608174Y-87788526D01*
X154604601Y-87812013D01*
X154605068Y-87817749D01*
X154608974Y-87865776D01*
X154609300Y-87873802D01*
X154609300Y-87882957D01*
X154609632Y-87885802D01*
X154609632Y-87885808D01*
X154612644Y-87911644D01*
X154612984Y-87915080D01*
X154618940Y-87988301D01*
X154620714Y-87993776D01*
X154621840Y-87999413D01*
X154621730Y-87999435D01*
X154622520Y-88003060D01*
X154622629Y-88003034D01*
X154623952Y-88008630D01*
X154624618Y-88014345D01*
X154626581Y-88019753D01*
X154649685Y-88083404D01*
X154650807Y-88086672D01*
X154673449Y-88156563D01*
X154676432Y-88161478D01*
X154678827Y-88166710D01*
X154678726Y-88166756D01*
X154680328Y-88170102D01*
X154680430Y-88170051D01*
X154683002Y-88175186D01*
X154684967Y-88180601D01*
X154688125Y-88185417D01*
X154725246Y-88242036D01*
X154727087Y-88244955D01*
X154765205Y-88307771D01*
X154768125Y-88311077D01*
X154772603Y-88316148D01*
X154772455Y-88316279D01*
X154774936Y-88319434D01*
X154775102Y-88319295D01*
X154778792Y-88323708D01*
X154781944Y-88328516D01*
X154786117Y-88332469D01*
X154838411Y-88382008D01*
X154840330Y-88383875D01*
X156637095Y-90180640D01*
X156664872Y-90235157D01*
X156665744Y-90242362D01*
X156666568Y-90252178D01*
X156718083Y-90431831D01*
X156803511Y-90598057D01*
X156919599Y-90744523D01*
X156923279Y-90747655D01*
X156923281Y-90747657D01*
X156956311Y-90775768D01*
X157061925Y-90865653D01*
X157066147Y-90868013D01*
X157066152Y-90868016D01*
X157101640Y-90887849D01*
X157225068Y-90956830D01*
X157229666Y-90958324D01*
X157398209Y-91013087D01*
X157398211Y-91013088D01*
X157402814Y-91014583D01*
X157588392Y-91036712D01*
X157593214Y-91036341D01*
X157593217Y-91036341D01*
X157654213Y-91031647D01*
X157774734Y-91022374D01*
X157954743Y-90972115D01*
X157959061Y-90969934D01*
X158117240Y-90890032D01*
X158117242Y-90890031D01*
X158121561Y-90887849D01*
X158268834Y-90772786D01*
X158271996Y-90769123D01*
X158272001Y-90769118D01*
X158387790Y-90634974D01*
X158390954Y-90631309D01*
X158407689Y-90601851D01*
X158480879Y-90473012D01*
X158480880Y-90473009D01*
X158483268Y-90468806D01*
X158497118Y-90427174D01*
X158540734Y-90296059D01*
X158540735Y-90296057D01*
X158542261Y-90291468D01*
X158547834Y-90247358D01*
X158565337Y-90108801D01*
X158565685Y-90106049D01*
X158566058Y-90079311D01*
X158547820Y-89893310D01*
X158493802Y-89714394D01*
X158406062Y-89549377D01*
X158287940Y-89404546D01*
X158236500Y-89361991D01*
X158147663Y-89288499D01*
X158147661Y-89288498D01*
X158143936Y-89285416D01*
X158000496Y-89207858D01*
X157983790Y-89198825D01*
X157983789Y-89198825D01*
X157979536Y-89196525D01*
X157859321Y-89159312D01*
X157805622Y-89142689D01*
X157805618Y-89142688D01*
X157801001Y-89141259D01*
X157796192Y-89140754D01*
X157796189Y-89140753D01*
X157785265Y-89139605D01*
X157771140Y-89138121D01*
X157711484Y-89109667D01*
X156155296Y-87553479D01*
X156127519Y-87498962D01*
X156126300Y-87483475D01*
X156126300Y-86914987D01*
X156145207Y-86856796D01*
X156194707Y-86820832D01*
X156255893Y-86820832D01*
X156295304Y-86844983D01*
X159244650Y-89794329D01*
X159272427Y-89848846D01*
X159273299Y-89856051D01*
X159274123Y-89865867D01*
X159325638Y-90045520D01*
X159411066Y-90211746D01*
X159414077Y-90215544D01*
X159414077Y-90215545D01*
X159436087Y-90243314D01*
X159457502Y-90304808D01*
X159457502Y-94230348D01*
X159438595Y-94288539D01*
X159404368Y-94318082D01*
X159318144Y-94363158D01*
X159318139Y-94363161D01*
X159313847Y-94365405D01*
X159310071Y-94368441D01*
X159310068Y-94368443D01*
X159171967Y-94479480D01*
X159168195Y-94482513D01*
X159165086Y-94486218D01*
X159165083Y-94486221D01*
X159128880Y-94529366D01*
X159048062Y-94625681D01*
X159045730Y-94629924D01*
X159045728Y-94629926D01*
X158964514Y-94777656D01*
X158958026Y-94789457D01*
X158956563Y-94794070D01*
X158956561Y-94794074D01*
X158902979Y-94962984D01*
X158902978Y-94962990D01*
X158901515Y-94967601D01*
X158900975Y-94972415D01*
X158892929Y-95044150D01*
X158880682Y-95153330D01*
X158881087Y-95158150D01*
X158894903Y-95322675D01*
X158896321Y-95339567D01*
X158947836Y-95519220D01*
X159033264Y-95685446D01*
X159149352Y-95831912D01*
X159153032Y-95835044D01*
X159153034Y-95835046D01*
X159186064Y-95863157D01*
X159291678Y-95953042D01*
X159295900Y-95955402D01*
X159295905Y-95955405D01*
X159331393Y-95975238D01*
X159454821Y-96044219D01*
X159459419Y-96045713D01*
X159627962Y-96100476D01*
X159627964Y-96100477D01*
X159632567Y-96101972D01*
X159818145Y-96124101D01*
X159822967Y-96123730D01*
X159822970Y-96123730D01*
X159883966Y-96119036D01*
X160004487Y-96109763D01*
X160184496Y-96059504D01*
X160188814Y-96057323D01*
X160346993Y-95977421D01*
X160346995Y-95977420D01*
X160351314Y-95975238D01*
X160498587Y-95860175D01*
X160501749Y-95856512D01*
X160501754Y-95856507D01*
X160617543Y-95722363D01*
X160620707Y-95718698D01*
X160637442Y-95689240D01*
X160710632Y-95560401D01*
X160710633Y-95560398D01*
X160713021Y-95556195D01*
X160772014Y-95378857D01*
X160772621Y-95374053D01*
X160779112Y-95322675D01*
X160799684Y-95273668D01*
X160801594Y-95271254D01*
X160803736Y-95268641D01*
X160851335Y-95212613D01*
X160853949Y-95207494D01*
X160857144Y-95202704D01*
X160857236Y-95202765D01*
X160859239Y-95199645D01*
X160859145Y-95199587D01*
X160862170Y-95194690D01*
X160865736Y-95190182D01*
X160882960Y-95153330D01*
X160896843Y-95123624D01*
X160898361Y-95120519D01*
X160902204Y-95112993D01*
X160931771Y-95055090D01*
X160933139Y-95049500D01*
X160935143Y-95044111D01*
X160935247Y-95044150D01*
X160936479Y-95040652D01*
X160936372Y-95040617D01*
X160938186Y-95035164D01*
X160940624Y-95029948D01*
X160955591Y-94957994D01*
X160956336Y-94954699D01*
X160973810Y-94883288D01*
X160974502Y-94872134D01*
X160974729Y-94872148D01*
X160975197Y-94868162D01*
X160974960Y-94868141D01*
X160975471Y-94862419D01*
X160976643Y-94856783D01*
X160974538Y-94778986D01*
X160974502Y-94776308D01*
X160974502Y-90309615D01*
X160992604Y-90252549D01*
X160995345Y-90248664D01*
X160998509Y-90244998D01*
X161000902Y-90240786D01*
X161088434Y-90086701D01*
X161088435Y-90086698D01*
X161090823Y-90082495D01*
X161104673Y-90040863D01*
X161148289Y-89909748D01*
X161148290Y-89909746D01*
X161149816Y-89905157D01*
X161155389Y-89861047D01*
X161172892Y-89722490D01*
X161173240Y-89719738D01*
X161173613Y-89693000D01*
X161155375Y-89506999D01*
X161101357Y-89328083D01*
X161013617Y-89163066D01*
X160895495Y-89018235D01*
X160876065Y-89002161D01*
X160755218Y-88902188D01*
X160755216Y-88902187D01*
X160751491Y-88899105D01*
X160587091Y-88810214D01*
X160528929Y-88792210D01*
X160413177Y-88756378D01*
X160413173Y-88756377D01*
X160408556Y-88754948D01*
X160403747Y-88754443D01*
X160403744Y-88754442D01*
X160392820Y-88753294D01*
X160378695Y-88751810D01*
X160319039Y-88723356D01*
X160282717Y-88687034D01*
X176690600Y-88687034D01*
X176697355Y-88749216D01*
X176699535Y-88755031D01*
X176740990Y-88865611D01*
X176748485Y-88885605D01*
X176835839Y-89002161D01*
X176952395Y-89089515D01*
X177088784Y-89140645D01*
X177094956Y-89141315D01*
X177094958Y-89141316D01*
X177130937Y-89145224D01*
X177150966Y-89147400D01*
X178898234Y-89147400D01*
X178918263Y-89145224D01*
X178954242Y-89141316D01*
X178954244Y-89141315D01*
X178960416Y-89140645D01*
X179096805Y-89089515D01*
X179213361Y-89002161D01*
X179217591Y-88996517D01*
X179222578Y-88991530D01*
X179224263Y-88993215D01*
X179265401Y-88964245D01*
X179326580Y-88965148D01*
X179365052Y-88993100D01*
X179366622Y-88991530D01*
X179371609Y-88996517D01*
X179375839Y-89002161D01*
X179492395Y-89089515D01*
X179628784Y-89140645D01*
X179634956Y-89141315D01*
X179634958Y-89141316D01*
X179670937Y-89145224D01*
X179690966Y-89147400D01*
X181438234Y-89147400D01*
X181458263Y-89145224D01*
X181494242Y-89141316D01*
X181494244Y-89141315D01*
X181500416Y-89140645D01*
X181636805Y-89089515D01*
X181753361Y-89002161D01*
X181840715Y-88885605D01*
X181848211Y-88865611D01*
X181889665Y-88755031D01*
X181891845Y-88749216D01*
X181898600Y-88687034D01*
X181898600Y-86939766D01*
X181893507Y-86892885D01*
X181892516Y-86883758D01*
X181892515Y-86883756D01*
X181891845Y-86877584D01*
X181840715Y-86741195D01*
X181753361Y-86624639D01*
X181636805Y-86537285D01*
X181500416Y-86486155D01*
X181494244Y-86485485D01*
X181494242Y-86485484D01*
X181458263Y-86481576D01*
X181438234Y-86479400D01*
X179690966Y-86479400D01*
X179670937Y-86481576D01*
X179634958Y-86485484D01*
X179634956Y-86485485D01*
X179628784Y-86486155D01*
X179492395Y-86537285D01*
X179375839Y-86624639D01*
X179371609Y-86630283D01*
X179366622Y-86635270D01*
X179364937Y-86633585D01*
X179323799Y-86662555D01*
X179262620Y-86661652D01*
X179224148Y-86633700D01*
X179222578Y-86635270D01*
X179217591Y-86630283D01*
X179213361Y-86624639D01*
X179096805Y-86537285D01*
X178960416Y-86486155D01*
X178954244Y-86485485D01*
X178954242Y-86485484D01*
X178918263Y-86481576D01*
X178898234Y-86479400D01*
X177150966Y-86479400D01*
X177130937Y-86481576D01*
X177094958Y-86485484D01*
X177094956Y-86485485D01*
X177088784Y-86486155D01*
X176952395Y-86537285D01*
X176835839Y-86624639D01*
X176748485Y-86741195D01*
X176697355Y-86877584D01*
X176696685Y-86883756D01*
X176696684Y-86883758D01*
X176695693Y-86892885D01*
X176690600Y-86939766D01*
X176690600Y-88687034D01*
X160282717Y-88687034D01*
X157226896Y-85631213D01*
X157199119Y-85576696D01*
X157197900Y-85561209D01*
X157197900Y-84777215D01*
X157216002Y-84720149D01*
X157218743Y-84716264D01*
X157221907Y-84712598D01*
X157314221Y-84550095D01*
X157366520Y-84392878D01*
X157402829Y-84343631D01*
X157461150Y-84325130D01*
X157519832Y-84344908D01*
X157541152Y-84360887D01*
X157541156Y-84360889D01*
X157546795Y-84365115D01*
X157683184Y-84416245D01*
X157689356Y-84416915D01*
X157689358Y-84416916D01*
X157725337Y-84420824D01*
X157745366Y-84423000D01*
X159492634Y-84423000D01*
X159512663Y-84420824D01*
X159548642Y-84416916D01*
X159548644Y-84416915D01*
X159554816Y-84416245D01*
X159691205Y-84365115D01*
X159807761Y-84277761D01*
X159895115Y-84161205D01*
X159946245Y-84024816D01*
X159953000Y-83962634D01*
X159953000Y-82215366D01*
X159946245Y-82153184D01*
X159902443Y-82036342D01*
X159897589Y-82023394D01*
X159897589Y-82023393D01*
X159895115Y-82016795D01*
X159807761Y-81900239D01*
X159802117Y-81896009D01*
X159797130Y-81891022D01*
X159798815Y-81889337D01*
X159769845Y-81848199D01*
X159770748Y-81787020D01*
X159798700Y-81748548D01*
X159797130Y-81746978D01*
X159802117Y-81741991D01*
X159807761Y-81737761D01*
X159895115Y-81621205D01*
X159946245Y-81484816D01*
X159953000Y-81422634D01*
X159953000Y-81406500D01*
X159971907Y-81348309D01*
X160021407Y-81312345D01*
X160052000Y-81307500D01*
X165593811Y-81307500D01*
X165652002Y-81326407D01*
X165663815Y-81336496D01*
X165678648Y-81351329D01*
X165706425Y-81405846D01*
X165707297Y-81413051D01*
X165708121Y-81422867D01*
X165759636Y-81602520D01*
X165780800Y-81643701D01*
X165834684Y-81748548D01*
X165845064Y-81768746D01*
X165961152Y-81915212D01*
X165964832Y-81918344D01*
X165964834Y-81918346D01*
X165997864Y-81946457D01*
X166103478Y-82036342D01*
X166107700Y-82038702D01*
X166107705Y-82038705D01*
X166142529Y-82058167D01*
X166266621Y-82127519D01*
X166271219Y-82129013D01*
X166439762Y-82183776D01*
X166439764Y-82183777D01*
X166444367Y-82185272D01*
X166629945Y-82207401D01*
X166634767Y-82207030D01*
X166634770Y-82207030D01*
X166695766Y-82202336D01*
X166816287Y-82193063D01*
X166996296Y-82142804D01*
X167000614Y-82140623D01*
X167158793Y-82060721D01*
X167158795Y-82060720D01*
X167163114Y-82058538D01*
X167310387Y-81943475D01*
X167313549Y-81939812D01*
X167313554Y-81939807D01*
X167429343Y-81805663D01*
X167432507Y-81801998D01*
X167449242Y-81772540D01*
X167522432Y-81643701D01*
X167522433Y-81643698D01*
X167524821Y-81639495D01*
X167530906Y-81621205D01*
X167582287Y-81466748D01*
X167582288Y-81466746D01*
X167583814Y-81462157D01*
X167589387Y-81418047D01*
X167606890Y-81279490D01*
X167607238Y-81276738D01*
X167607611Y-81250000D01*
X167589373Y-81063999D01*
X167535355Y-80885083D01*
X167447615Y-80720066D01*
X167329493Y-80575235D01*
X167185489Y-80456105D01*
X167021089Y-80367214D01*
X166962927Y-80349210D01*
X166847175Y-80313378D01*
X166847171Y-80313377D01*
X166842554Y-80311948D01*
X166837745Y-80311443D01*
X166837742Y-80311442D01*
X166826818Y-80310294D01*
X166812693Y-80308810D01*
X166753037Y-80280356D01*
X166531319Y-80058638D01*
X166521588Y-80047313D01*
X166510922Y-80032819D01*
X166510915Y-80032811D01*
X166507508Y-80028182D01*
X166503126Y-80024460D01*
X166503124Y-80024457D01*
X166466408Y-79993265D01*
X166460502Y-79987821D01*
X166454021Y-79981340D01*
X166431364Y-79963415D01*
X166428728Y-79961254D01*
X166372715Y-79913667D01*
X166367596Y-79911053D01*
X166362806Y-79907858D01*
X166362867Y-79907766D01*
X166359747Y-79905763D01*
X166359689Y-79905857D01*
X166354792Y-79902832D01*
X166350284Y-79899266D01*
X166345078Y-79896833D01*
X166345075Y-79896831D01*
X166283726Y-79868159D01*
X166280621Y-79866641D01*
X166241085Y-79846453D01*
X166215192Y-79833231D01*
X166209602Y-79831863D01*
X166204213Y-79829859D01*
X166204252Y-79829755D01*
X166200752Y-79828523D01*
X166200717Y-79828629D01*
X166195262Y-79826814D01*
X166190050Y-79824378D01*
X166184422Y-79823207D01*
X166184412Y-79823204D01*
X166118127Y-79809417D01*
X166114758Y-79808655D01*
X166047673Y-79792240D01*
X166043390Y-79791192D01*
X166032236Y-79790500D01*
X166032250Y-79790269D01*
X166028265Y-79789802D01*
X166028244Y-79790042D01*
X166022511Y-79789530D01*
X166016885Y-79788360D01*
X166011143Y-79788515D01*
X166011139Y-79788515D01*
X165939110Y-79790464D01*
X165936433Y-79790500D01*
X160052000Y-79790500D01*
X159993809Y-79771593D01*
X159957845Y-79722093D01*
X159953000Y-79691500D01*
X159953000Y-79675366D01*
X159946245Y-79613184D01*
X159895115Y-79476795D01*
X159807761Y-79360239D01*
X159691205Y-79272885D01*
X159554816Y-79221755D01*
X159548644Y-79221085D01*
X159548642Y-79221084D01*
X159512663Y-79217176D01*
X159492634Y-79215000D01*
X157745366Y-79215000D01*
X157725337Y-79217176D01*
X157689358Y-79221084D01*
X157689356Y-79221085D01*
X157683184Y-79221755D01*
X157546795Y-79272885D01*
X157430239Y-79360239D01*
X157342885Y-79476795D01*
X157291755Y-79613184D01*
X157285000Y-79675366D01*
X157285000Y-79781063D01*
X157266093Y-79839254D01*
X157235195Y-79865454D01*
X157235663Y-79866167D01*
X157174247Y-79906433D01*
X157171325Y-79908277D01*
X157112265Y-79944115D01*
X157112261Y-79944118D01*
X157108492Y-79946405D01*
X157100116Y-79953803D01*
X157099996Y-79953667D01*
X157096838Y-79956146D01*
X157096969Y-79956302D01*
X157092556Y-79959992D01*
X157087748Y-79963144D01*
X157059214Y-79993265D01*
X157034256Y-80019611D01*
X157032389Y-80021530D01*
X154877438Y-82176481D01*
X154866113Y-82186212D01*
X154851619Y-82196878D01*
X154851611Y-82196885D01*
X154846982Y-82200292D01*
X154843260Y-82204674D01*
X154843257Y-82204676D01*
X154812065Y-82241392D01*
X154806621Y-82247298D01*
X154800140Y-82253779D01*
X154798361Y-82256028D01*
X154798358Y-82256031D01*
X154782219Y-82276431D01*
X154780054Y-82279072D01*
X154732467Y-82335085D01*
X154729853Y-82340204D01*
X154726658Y-82344994D01*
X154726566Y-82344933D01*
X154724563Y-82348053D01*
X154724657Y-82348111D01*
X154721632Y-82353008D01*
X154718066Y-82357516D01*
X154715633Y-82362722D01*
X154715631Y-82362725D01*
X154686959Y-82424074D01*
X154685441Y-82427179D01*
X154652031Y-82492608D01*
X154650663Y-82498198D01*
X154648659Y-82503587D01*
X154648555Y-82503548D01*
X154647323Y-82507048D01*
X154647429Y-82507083D01*
X154645614Y-82512538D01*
X154643178Y-82517750D01*
X154642007Y-82523378D01*
X154642004Y-82523388D01*
X154628217Y-82589673D01*
X154627455Y-82593042D01*
X154609992Y-82664410D01*
X154609300Y-82675564D01*
X154609069Y-82675550D01*
X154608602Y-82679535D01*
X154608842Y-82679556D01*
X154608330Y-82685289D01*
X154607160Y-82690915D01*
X154607315Y-82696657D01*
X154607315Y-82696661D01*
X154609264Y-82768690D01*
X154609300Y-82771367D01*
X154609300Y-85446043D01*
X154590393Y-85504234D01*
X154586137Y-85509680D01*
X154580779Y-85516065D01*
X154580774Y-85516072D01*
X154577662Y-85519781D01*
X154487626Y-85683557D01*
X154486163Y-85688170D01*
X154486161Y-85688174D01*
X154432579Y-85857084D01*
X154432578Y-85857090D01*
X154431115Y-85861701D01*
X154410282Y-86047430D01*
X133602500Y-86047430D01*
X133602500Y-75062500D01*
X133621407Y-75004309D01*
X133670907Y-74968345D01*
X133701500Y-74963500D01*
X182774500Y-74963500D01*
X182832691Y-74982407D01*
G37*
%TD.AperFunction*%
%TD*%
M02*
