%TF.GenerationSoftware,KiCad,Pcbnew,6.0.11+dfsg-1~bpo11+1*%
%TF.CreationDate,2023-04-13T08:43:22+00:00*%
%TF.ProjectId,PCRD01,50435244-3031-42e6-9b69-6361645f7063,01A*%
%TF.SameCoordinates,Original*%
%TF.FileFunction,Legend,Bot*%
%TF.FilePolarity,Positive*%
%FSLAX46Y46*%
G04 Gerber Fmt 4.6, Leading zero omitted, Abs format (unit mm)*
G04 Created by KiCad (PCBNEW 6.0.11+dfsg-1~bpo11+1) date 2023-04-13 08:43:22*
%MOMM*%
%LPD*%
G01*
G04 APERTURE LIST*
%ADD10C,0.150000*%
%ADD11C,0.050000*%
%ADD12C,0.076200*%
%ADD13C,0.120000*%
G04 APERTURE END LIST*
D10*
%TO.C,C1*%
X146247142Y-85970333D02*
X146294761Y-85922714D01*
X146342380Y-85779857D01*
X146342380Y-85684619D01*
X146294761Y-85541761D01*
X146199523Y-85446523D01*
X146104285Y-85398904D01*
X145913809Y-85351285D01*
X145770952Y-85351285D01*
X145580476Y-85398904D01*
X145485238Y-85446523D01*
X145390000Y-85541761D01*
X145342380Y-85684619D01*
X145342380Y-85779857D01*
X145390000Y-85922714D01*
X145437619Y-85970333D01*
X146342380Y-86922714D02*
X146342380Y-86351285D01*
X146342380Y-86637000D02*
X145342380Y-86637000D01*
X145485238Y-86541761D01*
X145580476Y-86446523D01*
X145628095Y-86351285D01*
%TO.C,C2*%
X155645142Y-96257333D02*
X155692761Y-96209714D01*
X155740380Y-96066857D01*
X155740380Y-95971619D01*
X155692761Y-95828761D01*
X155597523Y-95733523D01*
X155502285Y-95685904D01*
X155311809Y-95638285D01*
X155168952Y-95638285D01*
X154978476Y-95685904D01*
X154883238Y-95733523D01*
X154788000Y-95828761D01*
X154740380Y-95971619D01*
X154740380Y-96066857D01*
X154788000Y-96209714D01*
X154835619Y-96257333D01*
X154835619Y-96638285D02*
X154788000Y-96685904D01*
X154740380Y-96781142D01*
X154740380Y-97019238D01*
X154788000Y-97114476D01*
X154835619Y-97162095D01*
X154930857Y-97209714D01*
X155026095Y-97209714D01*
X155168952Y-97162095D01*
X155740380Y-96590666D01*
X155740380Y-97209714D01*
%TO.C,C3*%
X160910142Y-88637333D02*
X160957761Y-88589714D01*
X161005380Y-88446857D01*
X161005380Y-88351619D01*
X160957761Y-88208761D01*
X160862523Y-88113523D01*
X160767285Y-88065904D01*
X160576809Y-88018285D01*
X160433952Y-88018285D01*
X160243476Y-88065904D01*
X160148238Y-88113523D01*
X160053000Y-88208761D01*
X160005380Y-88351619D01*
X160005380Y-88446857D01*
X160053000Y-88589714D01*
X160100619Y-88637333D01*
X160005380Y-88970666D02*
X160005380Y-89589714D01*
X160386333Y-89256380D01*
X160386333Y-89399238D01*
X160433952Y-89494476D01*
X160481571Y-89542095D01*
X160576809Y-89589714D01*
X160814904Y-89589714D01*
X160910142Y-89542095D01*
X160957761Y-89494476D01*
X161005380Y-89399238D01*
X161005380Y-89113523D01*
X160957761Y-89018285D01*
X160910142Y-88970666D01*
%TO.C,C5*%
X174880142Y-81017333D02*
X174927761Y-80969714D01*
X174975380Y-80826857D01*
X174975380Y-80731619D01*
X174927761Y-80588761D01*
X174832523Y-80493523D01*
X174737285Y-80445904D01*
X174546809Y-80398285D01*
X174403952Y-80398285D01*
X174213476Y-80445904D01*
X174118238Y-80493523D01*
X174023000Y-80588761D01*
X173975380Y-80731619D01*
X173975380Y-80826857D01*
X174023000Y-80969714D01*
X174070619Y-81017333D01*
X173975380Y-81922095D02*
X173975380Y-81445904D01*
X174451571Y-81398285D01*
X174403952Y-81445904D01*
X174356333Y-81541142D01*
X174356333Y-81779238D01*
X174403952Y-81874476D01*
X174451571Y-81922095D01*
X174546809Y-81969714D01*
X174784904Y-81969714D01*
X174880142Y-81922095D01*
X174927761Y-81874476D01*
X174975380Y-81779238D01*
X174975380Y-81541142D01*
X174927761Y-81445904D01*
X174880142Y-81398285D01*
%TO.C,C6*%
X172340142Y-81017333D02*
X172387761Y-80969714D01*
X172435380Y-80826857D01*
X172435380Y-80731619D01*
X172387761Y-80588761D01*
X172292523Y-80493523D01*
X172197285Y-80445904D01*
X172006809Y-80398285D01*
X171863952Y-80398285D01*
X171673476Y-80445904D01*
X171578238Y-80493523D01*
X171483000Y-80588761D01*
X171435380Y-80731619D01*
X171435380Y-80826857D01*
X171483000Y-80969714D01*
X171530619Y-81017333D01*
X171435380Y-81874476D02*
X171435380Y-81684000D01*
X171483000Y-81588761D01*
X171530619Y-81541142D01*
X171673476Y-81445904D01*
X171863952Y-81398285D01*
X172244904Y-81398285D01*
X172340142Y-81445904D01*
X172387761Y-81493523D01*
X172435380Y-81588761D01*
X172435380Y-81779238D01*
X172387761Y-81874476D01*
X172340142Y-81922095D01*
X172244904Y-81969714D01*
X172006809Y-81969714D01*
X171911571Y-81922095D01*
X171863952Y-81874476D01*
X171816333Y-81779238D01*
X171816333Y-81588761D01*
X171863952Y-81493523D01*
X171911571Y-81445904D01*
X172006809Y-81398285D01*
%TO.C,C10*%
X161395457Y-99045342D02*
X161443076Y-99092961D01*
X161585933Y-99140580D01*
X161681171Y-99140580D01*
X161824028Y-99092961D01*
X161919266Y-98997723D01*
X161966885Y-98902485D01*
X162014504Y-98712009D01*
X162014504Y-98569152D01*
X161966885Y-98378676D01*
X161919266Y-98283438D01*
X161824028Y-98188200D01*
X161681171Y-98140580D01*
X161585933Y-98140580D01*
X161443076Y-98188200D01*
X161395457Y-98235819D01*
X160443076Y-99140580D02*
X161014504Y-99140580D01*
X160728790Y-99140580D02*
X160728790Y-98140580D01*
X160824028Y-98283438D01*
X160919266Y-98378676D01*
X161014504Y-98426295D01*
X159824028Y-98140580D02*
X159728790Y-98140580D01*
X159633552Y-98188200D01*
X159585933Y-98235819D01*
X159538314Y-98331057D01*
X159490695Y-98521533D01*
X159490695Y-98759628D01*
X159538314Y-98950104D01*
X159585933Y-99045342D01*
X159633552Y-99092961D01*
X159728790Y-99140580D01*
X159824028Y-99140580D01*
X159919266Y-99092961D01*
X159966885Y-99045342D01*
X160014504Y-98950104D01*
X160062123Y-98759628D01*
X160062123Y-98521533D01*
X160014504Y-98331057D01*
X159966885Y-98235819D01*
X159919266Y-98188200D01*
X159824028Y-98140580D01*
%TO.C,C12*%
X177547142Y-90320142D02*
X177594761Y-90272523D01*
X177642380Y-90129666D01*
X177642380Y-90034428D01*
X177594761Y-89891571D01*
X177499523Y-89796333D01*
X177404285Y-89748714D01*
X177213809Y-89701095D01*
X177070952Y-89701095D01*
X176880476Y-89748714D01*
X176785238Y-89796333D01*
X176690000Y-89891571D01*
X176642380Y-90034428D01*
X176642380Y-90129666D01*
X176690000Y-90272523D01*
X176737619Y-90320142D01*
X177642380Y-91272523D02*
X177642380Y-90701095D01*
X177642380Y-90986809D02*
X176642380Y-90986809D01*
X176785238Y-90891571D01*
X176880476Y-90796333D01*
X176928095Y-90701095D01*
X176737619Y-91653476D02*
X176690000Y-91701095D01*
X176642380Y-91796333D01*
X176642380Y-92034428D01*
X176690000Y-92129666D01*
X176737619Y-92177285D01*
X176832857Y-92224904D01*
X176928095Y-92224904D01*
X177070952Y-92177285D01*
X177642380Y-91605857D01*
X177642380Y-92224904D01*
%TO.C,C14*%
X173358857Y-86345342D02*
X173406476Y-86392961D01*
X173549333Y-86440580D01*
X173644571Y-86440580D01*
X173787428Y-86392961D01*
X173882666Y-86297723D01*
X173930285Y-86202485D01*
X173977904Y-86012009D01*
X173977904Y-85869152D01*
X173930285Y-85678676D01*
X173882666Y-85583438D01*
X173787428Y-85488200D01*
X173644571Y-85440580D01*
X173549333Y-85440580D01*
X173406476Y-85488200D01*
X173358857Y-85535819D01*
X172406476Y-86440580D02*
X172977904Y-86440580D01*
X172692190Y-86440580D02*
X172692190Y-85440580D01*
X172787428Y-85583438D01*
X172882666Y-85678676D01*
X172977904Y-85726295D01*
X171549333Y-85773914D02*
X171549333Y-86440580D01*
X171787428Y-85392961D02*
X172025523Y-86107247D01*
X171406476Y-86107247D01*
%TO.C,R1*%
X149672380Y-82287333D02*
X149196190Y-81954000D01*
X149672380Y-81715904D02*
X148672380Y-81715904D01*
X148672380Y-82096857D01*
X148720000Y-82192095D01*
X148767619Y-82239714D01*
X148862857Y-82287333D01*
X149005714Y-82287333D01*
X149100952Y-82239714D01*
X149148571Y-82192095D01*
X149196190Y-82096857D01*
X149196190Y-81715904D01*
X149672380Y-83239714D02*
X149672380Y-82668285D01*
X149672380Y-82954000D02*
X148672380Y-82954000D01*
X148815238Y-82858761D01*
X148910476Y-82763523D01*
X148958095Y-82668285D01*
%TO.C,R2*%
X143278966Y-86971380D02*
X143612300Y-86495190D01*
X143850395Y-86971380D02*
X143850395Y-85971380D01*
X143469442Y-85971380D01*
X143374204Y-86019000D01*
X143326585Y-86066619D01*
X143278966Y-86161857D01*
X143278966Y-86304714D01*
X143326585Y-86399952D01*
X143374204Y-86447571D01*
X143469442Y-86495190D01*
X143850395Y-86495190D01*
X142898014Y-86066619D02*
X142850395Y-86019000D01*
X142755157Y-85971380D01*
X142517061Y-85971380D01*
X142421823Y-86019000D01*
X142374204Y-86066619D01*
X142326585Y-86161857D01*
X142326585Y-86257095D01*
X142374204Y-86399952D01*
X142945633Y-86971380D01*
X142326585Y-86971380D01*
%TO.C,R5*%
X165928380Y-93082333D02*
X165452190Y-92749000D01*
X165928380Y-92510904D02*
X164928380Y-92510904D01*
X164928380Y-92891857D01*
X164976000Y-92987095D01*
X165023619Y-93034714D01*
X165118857Y-93082333D01*
X165261714Y-93082333D01*
X165356952Y-93034714D01*
X165404571Y-92987095D01*
X165452190Y-92891857D01*
X165452190Y-92510904D01*
X164928380Y-93987095D02*
X164928380Y-93510904D01*
X165404571Y-93463285D01*
X165356952Y-93510904D01*
X165309333Y-93606142D01*
X165309333Y-93844238D01*
X165356952Y-93939476D01*
X165404571Y-93987095D01*
X165499809Y-94034714D01*
X165737904Y-94034714D01*
X165833142Y-93987095D01*
X165880761Y-93939476D01*
X165928380Y-93844238D01*
X165928380Y-93606142D01*
X165880761Y-93510904D01*
X165833142Y-93463285D01*
%TO.C,R6*%
X173294380Y-92955333D02*
X172818190Y-92622000D01*
X173294380Y-92383904D02*
X172294380Y-92383904D01*
X172294380Y-92764857D01*
X172342000Y-92860095D01*
X172389619Y-92907714D01*
X172484857Y-92955333D01*
X172627714Y-92955333D01*
X172722952Y-92907714D01*
X172770571Y-92860095D01*
X172818190Y-92764857D01*
X172818190Y-92383904D01*
X172294380Y-93812476D02*
X172294380Y-93622000D01*
X172342000Y-93526761D01*
X172389619Y-93479142D01*
X172532476Y-93383904D01*
X172722952Y-93336285D01*
X173103904Y-93336285D01*
X173199142Y-93383904D01*
X173246761Y-93431523D01*
X173294380Y-93526761D01*
X173294380Y-93717238D01*
X173246761Y-93812476D01*
X173199142Y-93860095D01*
X173103904Y-93907714D01*
X172865809Y-93907714D01*
X172770571Y-93860095D01*
X172722952Y-93812476D01*
X172675333Y-93717238D01*
X172675333Y-93526761D01*
X172722952Y-93431523D01*
X172770571Y-93383904D01*
X172865809Y-93336285D01*
%TO.C,R7*%
X168341380Y-93082333D02*
X167865190Y-92749000D01*
X168341380Y-92510904D02*
X167341380Y-92510904D01*
X167341380Y-92891857D01*
X167389000Y-92987095D01*
X167436619Y-93034714D01*
X167531857Y-93082333D01*
X167674714Y-93082333D01*
X167769952Y-93034714D01*
X167817571Y-92987095D01*
X167865190Y-92891857D01*
X167865190Y-92510904D01*
X167341380Y-93415666D02*
X167341380Y-94082333D01*
X168341380Y-93653761D01*
%TO.C,R8*%
X175326380Y-90796333D02*
X174850190Y-90463000D01*
X175326380Y-90224904D02*
X174326380Y-90224904D01*
X174326380Y-90605857D01*
X174374000Y-90701095D01*
X174421619Y-90748714D01*
X174516857Y-90796333D01*
X174659714Y-90796333D01*
X174754952Y-90748714D01*
X174802571Y-90701095D01*
X174850190Y-90605857D01*
X174850190Y-90224904D01*
X174754952Y-91367761D02*
X174707333Y-91272523D01*
X174659714Y-91224904D01*
X174564476Y-91177285D01*
X174516857Y-91177285D01*
X174421619Y-91224904D01*
X174374000Y-91272523D01*
X174326380Y-91367761D01*
X174326380Y-91558238D01*
X174374000Y-91653476D01*
X174421619Y-91701095D01*
X174516857Y-91748714D01*
X174564476Y-91748714D01*
X174659714Y-91701095D01*
X174707333Y-91653476D01*
X174754952Y-91558238D01*
X174754952Y-91367761D01*
X174802571Y-91272523D01*
X174850190Y-91224904D01*
X174945428Y-91177285D01*
X175135904Y-91177285D01*
X175231142Y-91224904D01*
X175278761Y-91272523D01*
X175326380Y-91367761D01*
X175326380Y-91558238D01*
X175278761Y-91653476D01*
X175231142Y-91701095D01*
X175135904Y-91748714D01*
X174945428Y-91748714D01*
X174850190Y-91701095D01*
X174802571Y-91653476D01*
X174754952Y-91558238D01*
%TO.C,R9*%
X172075180Y-88484933D02*
X171598990Y-88151600D01*
X172075180Y-87913504D02*
X171075180Y-87913504D01*
X171075180Y-88294457D01*
X171122800Y-88389695D01*
X171170419Y-88437314D01*
X171265657Y-88484933D01*
X171408514Y-88484933D01*
X171503752Y-88437314D01*
X171551371Y-88389695D01*
X171598990Y-88294457D01*
X171598990Y-87913504D01*
X172075180Y-88961123D02*
X172075180Y-89151600D01*
X172027561Y-89246838D01*
X171979942Y-89294457D01*
X171837085Y-89389695D01*
X171646609Y-89437314D01*
X171265657Y-89437314D01*
X171170419Y-89389695D01*
X171122800Y-89342076D01*
X171075180Y-89246838D01*
X171075180Y-89056361D01*
X171122800Y-88961123D01*
X171170419Y-88913504D01*
X171265657Y-88865885D01*
X171503752Y-88865885D01*
X171598990Y-88913504D01*
X171646609Y-88961123D01*
X171694228Y-89056361D01*
X171694228Y-89246838D01*
X171646609Y-89342076D01*
X171598990Y-89389695D01*
X171503752Y-89437314D01*
%TO.C,R11*%
X174159980Y-86510142D02*
X173683790Y-86176809D01*
X174159980Y-85938714D02*
X173159980Y-85938714D01*
X173159980Y-86319666D01*
X173207600Y-86414904D01*
X173255219Y-86462523D01*
X173350457Y-86510142D01*
X173493314Y-86510142D01*
X173588552Y-86462523D01*
X173636171Y-86414904D01*
X173683790Y-86319666D01*
X173683790Y-85938714D01*
X174159980Y-87462523D02*
X174159980Y-86891095D01*
X174159980Y-87176809D02*
X173159980Y-87176809D01*
X173302838Y-87081571D01*
X173398076Y-86986333D01*
X173445695Y-86891095D01*
X174159980Y-88414904D02*
X174159980Y-87843476D01*
X174159980Y-88129190D02*
X173159980Y-88129190D01*
X173302838Y-88033952D01*
X173398076Y-87938714D01*
X173445695Y-87843476D01*
%TO.C,C11*%
X170816142Y-92479142D02*
X170863761Y-92431523D01*
X170911380Y-92288666D01*
X170911380Y-92193428D01*
X170863761Y-92050571D01*
X170768523Y-91955333D01*
X170673285Y-91907714D01*
X170482809Y-91860095D01*
X170339952Y-91860095D01*
X170149476Y-91907714D01*
X170054238Y-91955333D01*
X169959000Y-92050571D01*
X169911380Y-92193428D01*
X169911380Y-92288666D01*
X169959000Y-92431523D01*
X170006619Y-92479142D01*
X170911380Y-93431523D02*
X170911380Y-92860095D01*
X170911380Y-93145809D02*
X169911380Y-93145809D01*
X170054238Y-93050571D01*
X170149476Y-92955333D01*
X170197095Y-92860095D01*
X170911380Y-94383904D02*
X170911380Y-93812476D01*
X170911380Y-94098190D02*
X169911380Y-94098190D01*
X170054238Y-94002952D01*
X170149476Y-93907714D01*
X170197095Y-93812476D01*
%TO.C,C4*%
X152324711Y-93268402D02*
X152372330Y-93220783D01*
X152419949Y-93077926D01*
X152419949Y-92982688D01*
X152372330Y-92839830D01*
X152277092Y-92744592D01*
X152181854Y-92696973D01*
X151991378Y-92649354D01*
X151848521Y-92649354D01*
X151658045Y-92696973D01*
X151562807Y-92744592D01*
X151467569Y-92839830D01*
X151419949Y-92982688D01*
X151419949Y-93077926D01*
X151467569Y-93220783D01*
X151515188Y-93268402D01*
X151753283Y-94125545D02*
X152419949Y-94125545D01*
X151372330Y-93887449D02*
X152086616Y-93649354D01*
X152086616Y-94268402D01*
D11*
%TO.C,J3*%
X147669190Y-88292047D02*
X147169190Y-88292047D01*
X147669190Y-88577761D02*
X147383476Y-88363476D01*
X147169190Y-88577761D02*
X147454904Y-88292047D01*
D10*
%TO.C,C9*%
X163450142Y-88637333D02*
X163497761Y-88589714D01*
X163545380Y-88446857D01*
X163545380Y-88351619D01*
X163497761Y-88208761D01*
X163402523Y-88113523D01*
X163307285Y-88065904D01*
X163116809Y-88018285D01*
X162973952Y-88018285D01*
X162783476Y-88065904D01*
X162688238Y-88113523D01*
X162593000Y-88208761D01*
X162545380Y-88351619D01*
X162545380Y-88446857D01*
X162593000Y-88589714D01*
X162640619Y-88637333D01*
X163545380Y-89113523D02*
X163545380Y-89304000D01*
X163497761Y-89399238D01*
X163450142Y-89446857D01*
X163307285Y-89542095D01*
X163116809Y-89589714D01*
X162735857Y-89589714D01*
X162640619Y-89542095D01*
X162593000Y-89494476D01*
X162545380Y-89399238D01*
X162545380Y-89208761D01*
X162593000Y-89113523D01*
X162640619Y-89065904D01*
X162735857Y-89018285D01*
X162973952Y-89018285D01*
X163069190Y-89065904D01*
X163116809Y-89113523D01*
X163164428Y-89208761D01*
X163164428Y-89399238D01*
X163116809Y-89494476D01*
X163069190Y-89542095D01*
X162973952Y-89589714D01*
%TO.C,C8*%
X160309666Y-90783142D02*
X160357285Y-90830761D01*
X160500142Y-90878380D01*
X160595380Y-90878380D01*
X160738238Y-90830761D01*
X160833476Y-90735523D01*
X160881095Y-90640285D01*
X160928714Y-90449809D01*
X160928714Y-90306952D01*
X160881095Y-90116476D01*
X160833476Y-90021238D01*
X160738238Y-89926000D01*
X160595380Y-89878380D01*
X160500142Y-89878380D01*
X160357285Y-89926000D01*
X160309666Y-89973619D01*
X159738238Y-90306952D02*
X159833476Y-90259333D01*
X159881095Y-90211714D01*
X159928714Y-90116476D01*
X159928714Y-90068857D01*
X159881095Y-89973619D01*
X159833476Y-89926000D01*
X159738238Y-89878380D01*
X159547761Y-89878380D01*
X159452523Y-89926000D01*
X159404904Y-89973619D01*
X159357285Y-90068857D01*
X159357285Y-90116476D01*
X159404904Y-90211714D01*
X159452523Y-90259333D01*
X159547761Y-90306952D01*
X159738238Y-90306952D01*
X159833476Y-90354571D01*
X159881095Y-90402190D01*
X159928714Y-90497428D01*
X159928714Y-90687904D01*
X159881095Y-90783142D01*
X159833476Y-90830761D01*
X159738238Y-90878380D01*
X159547761Y-90878380D01*
X159452523Y-90830761D01*
X159404904Y-90783142D01*
X159357285Y-90687904D01*
X159357285Y-90497428D01*
X159404904Y-90402190D01*
X159452523Y-90354571D01*
X159547761Y-90306952D01*
%TO.C,C13*%
X172009942Y-84655942D02*
X172057561Y-84608323D01*
X172105180Y-84465466D01*
X172105180Y-84370228D01*
X172057561Y-84227371D01*
X171962323Y-84132133D01*
X171867085Y-84084514D01*
X171676609Y-84036895D01*
X171533752Y-84036895D01*
X171343276Y-84084514D01*
X171248038Y-84132133D01*
X171152800Y-84227371D01*
X171105180Y-84370228D01*
X171105180Y-84465466D01*
X171152800Y-84608323D01*
X171200419Y-84655942D01*
X172105180Y-85608323D02*
X172105180Y-85036895D01*
X172105180Y-85322609D02*
X171105180Y-85322609D01*
X171248038Y-85227371D01*
X171343276Y-85132133D01*
X171390895Y-85036895D01*
X171105180Y-85941657D02*
X171105180Y-86560704D01*
X171486133Y-86227371D01*
X171486133Y-86370228D01*
X171533752Y-86465466D01*
X171581371Y-86513085D01*
X171676609Y-86560704D01*
X171914704Y-86560704D01*
X172009942Y-86513085D01*
X172057561Y-86465466D01*
X172105180Y-86370228D01*
X172105180Y-86084514D01*
X172057561Y-85989276D01*
X172009942Y-85941657D01*
%TO.C,R10*%
X174107180Y-86408542D02*
X173630990Y-86075209D01*
X174107180Y-85837114D02*
X173107180Y-85837114D01*
X173107180Y-86218066D01*
X173154800Y-86313304D01*
X173202419Y-86360923D01*
X173297657Y-86408542D01*
X173440514Y-86408542D01*
X173535752Y-86360923D01*
X173583371Y-86313304D01*
X173630990Y-86218066D01*
X173630990Y-85837114D01*
X174107180Y-87360923D02*
X174107180Y-86789495D01*
X174107180Y-87075209D02*
X173107180Y-87075209D01*
X173250038Y-86979971D01*
X173345276Y-86884733D01*
X173392895Y-86789495D01*
X173107180Y-87979971D02*
X173107180Y-88075209D01*
X173154800Y-88170447D01*
X173202419Y-88218066D01*
X173297657Y-88265685D01*
X173488133Y-88313304D01*
X173726228Y-88313304D01*
X173916704Y-88265685D01*
X174011942Y-88218066D01*
X174059561Y-88170447D01*
X174107180Y-88075209D01*
X174107180Y-87979971D01*
X174059561Y-87884733D01*
X174011942Y-87837114D01*
X173916704Y-87789495D01*
X173726228Y-87741876D01*
X173488133Y-87741876D01*
X173297657Y-87789495D01*
X173202419Y-87837114D01*
X173154800Y-87884733D01*
X173107180Y-87979971D01*
%TO.C,C7*%
X160944666Y-97191142D02*
X160992285Y-97238761D01*
X161135142Y-97286380D01*
X161230380Y-97286380D01*
X161373238Y-97238761D01*
X161468476Y-97143523D01*
X161516095Y-97048285D01*
X161563714Y-96857809D01*
X161563714Y-96714952D01*
X161516095Y-96524476D01*
X161468476Y-96429238D01*
X161373238Y-96334000D01*
X161230380Y-96286380D01*
X161135142Y-96286380D01*
X160992285Y-96334000D01*
X160944666Y-96381619D01*
X160611333Y-96286380D02*
X159944666Y-96286380D01*
X160373238Y-97286380D01*
%TO.C,U2*%
X166619904Y-84446380D02*
X166619904Y-85255904D01*
X166572285Y-85351142D01*
X166524666Y-85398761D01*
X166429428Y-85446380D01*
X166238952Y-85446380D01*
X166143714Y-85398761D01*
X166096095Y-85351142D01*
X166048476Y-85255904D01*
X166048476Y-84446380D01*
X165619904Y-84541619D02*
X165572285Y-84494000D01*
X165477047Y-84446380D01*
X165238952Y-84446380D01*
X165143714Y-84494000D01*
X165096095Y-84541619D01*
X165048476Y-84636857D01*
X165048476Y-84732095D01*
X165096095Y-84874952D01*
X165667523Y-85446380D01*
X165048476Y-85446380D01*
X168500857Y-87700666D02*
X168024666Y-87700666D01*
X168596095Y-87986380D02*
X168262761Y-86986380D01*
X167929428Y-87986380D01*
X167596095Y-87986380D02*
X167596095Y-86986380D01*
X167358000Y-86986380D01*
X167215142Y-87034000D01*
X167119904Y-87129238D01*
X167072285Y-87224476D01*
X167024666Y-87414952D01*
X167024666Y-87557809D01*
X167072285Y-87748285D01*
X167119904Y-87843523D01*
X167215142Y-87938761D01*
X167358000Y-87986380D01*
X167596095Y-87986380D01*
X166453238Y-87414952D02*
X166548476Y-87367333D01*
X166596095Y-87319714D01*
X166643714Y-87224476D01*
X166643714Y-87176857D01*
X166596095Y-87081619D01*
X166548476Y-87034000D01*
X166453238Y-86986380D01*
X166262761Y-86986380D01*
X166167523Y-87034000D01*
X166119904Y-87081619D01*
X166072285Y-87176857D01*
X166072285Y-87224476D01*
X166119904Y-87319714D01*
X166167523Y-87367333D01*
X166262761Y-87414952D01*
X166453238Y-87414952D01*
X166548476Y-87462571D01*
X166596095Y-87510190D01*
X166643714Y-87605428D01*
X166643714Y-87795904D01*
X166596095Y-87891142D01*
X166548476Y-87938761D01*
X166453238Y-87986380D01*
X166262761Y-87986380D01*
X166167523Y-87938761D01*
X166119904Y-87891142D01*
X166072285Y-87795904D01*
X166072285Y-87605428D01*
X166119904Y-87510190D01*
X166167523Y-87462571D01*
X166262761Y-87414952D01*
X165215142Y-86986380D02*
X165405619Y-86986380D01*
X165500857Y-87034000D01*
X165548476Y-87081619D01*
X165643714Y-87224476D01*
X165691333Y-87414952D01*
X165691333Y-87795904D01*
X165643714Y-87891142D01*
X165596095Y-87938761D01*
X165500857Y-87986380D01*
X165310380Y-87986380D01*
X165215142Y-87938761D01*
X165167523Y-87891142D01*
X165119904Y-87795904D01*
X165119904Y-87557809D01*
X165167523Y-87462571D01*
X165215142Y-87414952D01*
X165310380Y-87367333D01*
X165500857Y-87367333D01*
X165596095Y-87414952D01*
X165643714Y-87462571D01*
X165691333Y-87557809D01*
X164643714Y-87986380D02*
X164453238Y-87986380D01*
X164358000Y-87938761D01*
X164310380Y-87891142D01*
X164215142Y-87748285D01*
X164167523Y-87557809D01*
X164167523Y-87176857D01*
X164215142Y-87081619D01*
X164262761Y-87034000D01*
X164358000Y-86986380D01*
X164548476Y-86986380D01*
X164643714Y-87034000D01*
X164691333Y-87081619D01*
X164738952Y-87176857D01*
X164738952Y-87414952D01*
X164691333Y-87510190D01*
X164643714Y-87557809D01*
X164548476Y-87605428D01*
X164358000Y-87605428D01*
X164262761Y-87557809D01*
X164215142Y-87510190D01*
X164167523Y-87414952D01*
X163786571Y-87081619D02*
X163738952Y-87034000D01*
X163643714Y-86986380D01*
X163405619Y-86986380D01*
X163310380Y-87034000D01*
X163262761Y-87081619D01*
X163215142Y-87176857D01*
X163215142Y-87272095D01*
X163262761Y-87414952D01*
X163834190Y-87986380D01*
X163215142Y-87986380D01*
D12*
%TO.C,U1*%
X153932714Y-91769428D02*
X154549571Y-91769428D01*
X154622142Y-91805714D01*
X154658428Y-91842000D01*
X154694714Y-91914571D01*
X154694714Y-92059714D01*
X154658428Y-92132285D01*
X154622142Y-92168571D01*
X154549571Y-92204857D01*
X153932714Y-92204857D01*
X154694714Y-92966857D02*
X154694714Y-92531428D01*
X154694714Y-92749142D02*
X153932714Y-92749142D01*
X154041571Y-92676571D01*
X154114142Y-92604000D01*
X154150428Y-92531428D01*
X157822622Y-91176362D02*
X157822622Y-90675982D01*
X157655829Y-91033396D01*
X157489036Y-90675982D01*
X157489036Y-91176362D01*
X157274587Y-91033396D02*
X157036311Y-91033396D01*
X157322242Y-91176362D02*
X157155449Y-90675982D01*
X156988656Y-91176362D01*
X156869518Y-90675982D02*
X156535931Y-91176362D01*
X156535931Y-90675982D02*
X156869518Y-91176362D01*
X156130861Y-90842775D02*
X156130861Y-91176362D01*
X156250000Y-90652154D02*
X156369138Y-91009569D01*
X156059379Y-91009569D01*
X155654309Y-90842775D02*
X155654309Y-91176362D01*
X155773447Y-90652154D02*
X155892585Y-91009569D01*
X155582826Y-91009569D01*
X155439860Y-90675982D02*
X155106274Y-90675982D01*
X155320722Y-91176362D01*
X154677377Y-90675982D02*
X154915653Y-90675982D01*
X154939480Y-90914258D01*
X154915653Y-90890430D01*
X154867998Y-90866603D01*
X154748860Y-90866603D01*
X154701204Y-90890430D01*
X154677377Y-90914258D01*
X154653549Y-90961913D01*
X154653549Y-91081051D01*
X154677377Y-91128707D01*
X154701204Y-91152534D01*
X154748860Y-91176362D01*
X154867998Y-91176362D01*
X154915653Y-91152534D01*
X154939480Y-91128707D01*
D10*
%TO.C,R3*%
X157165380Y-96257333D02*
X156689190Y-95924000D01*
X157165380Y-95685904D02*
X156165380Y-95685904D01*
X156165380Y-96066857D01*
X156213000Y-96162095D01*
X156260619Y-96209714D01*
X156355857Y-96257333D01*
X156498714Y-96257333D01*
X156593952Y-96209714D01*
X156641571Y-96162095D01*
X156689190Y-96066857D01*
X156689190Y-95685904D01*
X156165380Y-96590666D02*
X156165380Y-97209714D01*
X156546333Y-96876380D01*
X156546333Y-97019238D01*
X156593952Y-97114476D01*
X156641571Y-97162095D01*
X156736809Y-97209714D01*
X156974904Y-97209714D01*
X157070142Y-97162095D01*
X157117761Y-97114476D01*
X157165380Y-97019238D01*
X157165380Y-96733523D01*
X157117761Y-96638285D01*
X157070142Y-96590666D01*
%TO.C,Q1*%
X152547619Y-85904761D02*
X152500000Y-85809523D01*
X152404761Y-85714285D01*
X152261904Y-85571428D01*
X152214285Y-85476190D01*
X152214285Y-85380952D01*
X152452380Y-85428571D02*
X152404761Y-85333333D01*
X152309523Y-85238095D01*
X152119047Y-85190476D01*
X151785714Y-85190476D01*
X151595238Y-85238095D01*
X151500000Y-85333333D01*
X151452380Y-85428571D01*
X151452380Y-85619047D01*
X151500000Y-85714285D01*
X151595238Y-85809523D01*
X151785714Y-85857142D01*
X152119047Y-85857142D01*
X152309523Y-85809523D01*
X152404761Y-85714285D01*
X152452380Y-85619047D01*
X152452380Y-85428571D01*
X152452380Y-86809523D02*
X152452380Y-86238095D01*
X152452380Y-86523809D02*
X151452380Y-86523809D01*
X151595238Y-86428571D01*
X151690476Y-86333333D01*
X151738095Y-86238095D01*
%TO.C,R4*%
X154612949Y-93213402D02*
X154136759Y-92880069D01*
X154612949Y-92641973D02*
X153612949Y-92641973D01*
X153612949Y-93022926D01*
X153660569Y-93118164D01*
X153708188Y-93165783D01*
X153803426Y-93213402D01*
X153946283Y-93213402D01*
X154041521Y-93165783D01*
X154089140Y-93118164D01*
X154136759Y-93022926D01*
X154136759Y-92641973D01*
X153946283Y-94070545D02*
X154612949Y-94070545D01*
X153565330Y-93832449D02*
X154279616Y-93594354D01*
X154279616Y-94213402D01*
%TO.C,R12*%
X144465857Y-89188880D02*
X144799190Y-88712690D01*
X145037285Y-89188880D02*
X145037285Y-88188880D01*
X144656333Y-88188880D01*
X144561095Y-88236500D01*
X144513476Y-88284119D01*
X144465857Y-88379357D01*
X144465857Y-88522214D01*
X144513476Y-88617452D01*
X144561095Y-88665071D01*
X144656333Y-88712690D01*
X145037285Y-88712690D01*
X143513476Y-89188880D02*
X144084904Y-89188880D01*
X143799190Y-89188880D02*
X143799190Y-88188880D01*
X143894428Y-88331738D01*
X143989666Y-88426976D01*
X144084904Y-88474595D01*
X143132523Y-88284119D02*
X143084904Y-88236500D01*
X142989666Y-88188880D01*
X142751571Y-88188880D01*
X142656333Y-88236500D01*
X142608714Y-88284119D01*
X142561095Y-88379357D01*
X142561095Y-88474595D01*
X142608714Y-88617452D01*
X143180142Y-89188880D01*
X142561095Y-89188880D01*
%TO.C,C15*%
X146152742Y-84821042D02*
X146200361Y-84773423D01*
X146247980Y-84630566D01*
X146247980Y-84535328D01*
X146200361Y-84392471D01*
X146105123Y-84297233D01*
X146009885Y-84249614D01*
X145819409Y-84201995D01*
X145676552Y-84201995D01*
X145486076Y-84249614D01*
X145390838Y-84297233D01*
X145295600Y-84392471D01*
X145247980Y-84535328D01*
X145247980Y-84630566D01*
X145295600Y-84773423D01*
X145343219Y-84821042D01*
X146247980Y-85773423D02*
X146247980Y-85201995D01*
X146247980Y-85487709D02*
X145247980Y-85487709D01*
X145390838Y-85392471D01*
X145486076Y-85297233D01*
X145533695Y-85201995D01*
X145247980Y-86678185D02*
X145247980Y-86201995D01*
X145724171Y-86154376D01*
X145676552Y-86201995D01*
X145628933Y-86297233D01*
X145628933Y-86535328D01*
X145676552Y-86630566D01*
X145724171Y-86678185D01*
X145819409Y-86725804D01*
X146057504Y-86725804D01*
X146152742Y-86678185D01*
X146200361Y-86630566D01*
X146247980Y-86535328D01*
X146247980Y-86297233D01*
X146200361Y-86201995D01*
X146152742Y-86154376D01*
D13*
%TO.C,C1*%
X146835000Y-85875748D02*
X146835000Y-86398252D01*
X148305000Y-85875748D02*
X148305000Y-86398252D01*
%TO.C,C2*%
X157703000Y-96162748D02*
X157703000Y-96685252D01*
X156233000Y-96162748D02*
X156233000Y-96685252D01*
%TO.C,C3*%
X159608000Y-89065252D02*
X159608000Y-88542748D01*
X158138000Y-89065252D02*
X158138000Y-88542748D01*
%TO.C,C5*%
X172108000Y-81445252D02*
X172108000Y-80922748D01*
X173578000Y-81445252D02*
X173578000Y-80922748D01*
%TO.C,C6*%
X171038000Y-81445252D02*
X171038000Y-80922748D01*
X169568000Y-81445252D02*
X169568000Y-80922748D01*
%TO.C,C10*%
X160491348Y-97743200D02*
X161013852Y-97743200D01*
X160491348Y-96273200D02*
X161013852Y-96273200D01*
%TO.C,C12*%
X176245000Y-91224252D02*
X176245000Y-90701748D01*
X174775000Y-91224252D02*
X174775000Y-90701748D01*
%TO.C,C14*%
X172454748Y-85043200D02*
X172977252Y-85043200D01*
X172454748Y-83573200D02*
X172977252Y-83573200D01*
%TO.C,R1*%
X146835000Y-82681064D02*
X146835000Y-82226936D01*
X148305000Y-82681064D02*
X148305000Y-82226936D01*
%TO.C,R2*%
X143339364Y-88904000D02*
X142885236Y-88904000D01*
X143339364Y-87434000D02*
X142885236Y-87434000D01*
%TO.C,R5*%
X164561000Y-93476064D02*
X164561000Y-93021936D01*
X163091000Y-93476064D02*
X163091000Y-93021936D01*
%TO.C,R6*%
X170457000Y-93349064D02*
X170457000Y-92894936D01*
X171927000Y-93349064D02*
X171927000Y-92894936D01*
%TO.C,R7*%
X166974000Y-93476064D02*
X166974000Y-93021936D01*
X165504000Y-93476064D02*
X165504000Y-93021936D01*
%TO.C,R8*%
X172489000Y-91190064D02*
X172489000Y-90735936D01*
X173959000Y-91190064D02*
X173959000Y-90735936D01*
%TO.C,R9*%
X170707800Y-88878664D02*
X170707800Y-88424536D01*
X169237800Y-88878664D02*
X169237800Y-88424536D01*
%TO.C,R11*%
X176092600Y-86925936D02*
X176092600Y-87380064D01*
X174622600Y-86925936D02*
X174622600Y-87380064D01*
%TO.C,C11*%
X169514000Y-93383252D02*
X169514000Y-92860748D01*
X168044000Y-93383252D02*
X168044000Y-92860748D01*
%TO.C,C4*%
X149552569Y-93696321D02*
X149552569Y-93173817D01*
X151022569Y-93696321D02*
X151022569Y-93173817D01*
D10*
%TO.C,J3*%
X153793000Y-91344000D02*
X153793000Y-88804000D01*
X146173000Y-91344000D02*
X153793000Y-91344000D01*
X153793000Y-88804000D02*
X146173000Y-88804000D01*
X146173000Y-88804000D02*
X146173000Y-91344000D01*
D13*
%TO.C,C9*%
X162148000Y-89065252D02*
X162148000Y-88542748D01*
X160678000Y-89065252D02*
X160678000Y-88542748D01*
%TO.C,C8*%
X160404252Y-92841000D02*
X159881748Y-92841000D01*
X160404252Y-91371000D02*
X159881748Y-91371000D01*
%TO.C,C13*%
X169237800Y-85560052D02*
X169237800Y-85037548D01*
X170707800Y-85560052D02*
X170707800Y-85037548D01*
%TO.C,R10*%
X171269800Y-87278464D02*
X171269800Y-86824336D01*
X172739800Y-87278464D02*
X172739800Y-86824336D01*
%TO.C,C7*%
X160516748Y-94419000D02*
X161039252Y-94419000D01*
X160516748Y-95889000D02*
X161039252Y-95889000D01*
D10*
%TO.C,U2*%
X168398000Y-88550000D02*
X168398000Y-83978000D01*
X168398000Y-83978000D02*
X163318000Y-83978000D01*
X163318000Y-83978000D02*
X163318000Y-88550000D01*
X167890000Y-85502000D02*
X167890000Y-86772000D01*
X168398000Y-85502000D02*
X167890000Y-85502000D01*
X167890000Y-86772000D02*
X168398000Y-86772000D01*
X163318000Y-88550000D02*
X168398000Y-88550000D01*
%TO.C,U1*%
X156714000Y-92868000D02*
X157476000Y-92360000D01*
X154936000Y-92868000D02*
X157539500Y-92868000D01*
X157539500Y-92868000D02*
X157539500Y-91344000D01*
X157539500Y-91344000D02*
X154936000Y-91344000D01*
X154936000Y-91344000D02*
X154936000Y-92868000D01*
D13*
%TO.C,R3*%
X155798000Y-96651064D02*
X155798000Y-96196936D01*
X154328000Y-96651064D02*
X154328000Y-96196936D01*
%TO.C,Q1*%
X155960000Y-86000000D02*
X155960000Y-85350000D01*
X152840000Y-86000000D02*
X152840000Y-84325000D01*
X152840000Y-86000000D02*
X152840000Y-86650000D01*
X155960000Y-86000000D02*
X155960000Y-86650000D01*
%TO.C,R4*%
X151775569Y-93607133D02*
X151775569Y-93153005D01*
X153245569Y-93607133D02*
X153245569Y-93153005D01*
%TO.C,R12*%
X144050064Y-89651500D02*
X143595936Y-89651500D01*
X144050064Y-91121500D02*
X143595936Y-91121500D01*
%TO.C,C15*%
X143380600Y-85725152D02*
X143380600Y-85202648D01*
X144850600Y-85725152D02*
X144850600Y-85202648D01*
%TD*%
M02*
