M48
; DRILL file {KiCad 6.0.11+dfsg-1~bpo11+1} date Thu Apr 13 10:25:05 2023
; FORMAT={-:-/ absolute / metric / decimal}
; #@! TF.CreationDate,2023-04-13T10:25:05+00:00
; #@! TF.GenerationSoftware,Kicad,Pcbnew,6.0.11+dfsg-1~bpo11+1
; #@! TF.FileFunction,Plated,1,2,PTH
FMAT,2
METRIC
; #@! TA.AperFunction,Plated,PTH,ViaDrill
T1C0.635
; #@! TA.AperFunction,Plated,PTH,ComponentDrill
T2C0.889
; #@! TA.AperFunction,Plated,PTH,ComponentDrill
T3C3.000
%
G90
G05
T1
X-2.184Y15.9
X-2.184Y4.826
X1.282Y4.999
X4.293Y18.517
X12.217Y22.835
X15.647Y5.584
X17.043Y22.403
X17.45Y13.538
X18.521Y15.438
X19.69Y9.52
X19.939Y6.236
X21.92Y4.432
X21.996Y13.208
X22.298Y9.906
X23.038Y22.2
X23.266Y3.454
X24.74Y16.51
X24.765Y13.97
X27.495Y3.238
X27.762Y22.301
X28.6Y12.243
X28.732Y18.349
X32.766Y21.819
X33.376Y3.734
X37.033Y5.105
T2
X0.0Y13.97
X0.0Y11.43
X0.0Y8.89
X2.54Y13.97
X2.54Y11.43
X2.54Y8.89
X9.525Y9.525
X12.065Y9.525
X14.605Y9.525
X20.117Y0.0
X20.117Y-2.54
X20.574Y19.05
X20.574Y16.51
X22.657Y0.0
X22.657Y-2.54
X25.197Y0.0
X25.197Y-2.54
X27.737Y0.0
X27.737Y-2.54
X30.277Y0.0
X30.277Y-2.54
X40.107Y14.326
X40.107Y11.786
X40.107Y9.246
X42.647Y14.326
X42.647Y11.786
X42.647Y9.246
T3
X0.0Y20.32
X0.0Y0.0
X40.64Y20.32
X40.64Y0.0
T0
M30
