M48
; DRILL file {KiCad 6.0.11+dfsg-1~bpo11+1} date Wed Apr 12 12:13:45 2023
; FORMAT={-:-/ absolute / metric / decimal}
; #@! TF.CreationDate,2023-04-12T12:13:45+00:00
; #@! TF.GenerationSoftware,Kicad,Pcbnew,6.0.11+dfsg-1~bpo11+1
; #@! TF.FileFunction,Plated,1,2,PTH
FMAT,2
METRIC
; #@! TA.AperFunction,Plated,PTH,ViaDrill
T1C0.635
; #@! TA.AperFunction,Plated,PTH,ComponentDrill
T2C0.900
; #@! TA.AperFunction,Plated,PTH,ComponentDrill
T3C3.000
%
G90
G05
T1
X135.734Y-83.699
X135.734Y-94.773
X139.2Y-94.6
X142.211Y-81.082
X150.135Y-76.764
X152.743Y-94.837
X154.961Y-77.196
X155.368Y-86.061
X155.977Y-98.278
X157.029Y-84.75
X157.608Y-90.079
X157.857Y-93.363
X159.838Y-95.167
X159.914Y-86.391
X160.216Y-89.693
X160.956Y-77.399
X161.184Y-96.145
X162.658Y-83.089
X162.683Y-85.629
X165.413Y-96.361
X165.68Y-77.298
X166.518Y-87.356
X167.763Y-80.549
X170.684Y-77.78
X171.294Y-95.865
X174.951Y-94.494
T2
X137.918Y-85.629
X137.918Y-88.169
X137.918Y-90.709
X140.458Y-85.629
X140.458Y-88.169
X140.458Y-90.709
X147.443Y-90.074
X152.523Y-90.074
X158.035Y-99.599
X158.035Y-102.139
X158.619Y-80.549
X158.619Y-83.089
X160.575Y-99.599
X160.575Y-102.139
X163.115Y-99.599
X163.115Y-102.139
X165.655Y-99.599
X165.655Y-102.139
X168.195Y-99.599
X168.195Y-102.139
X178.025Y-85.273
X178.025Y-87.813
X178.025Y-90.353
X180.565Y-85.273
X180.565Y-87.813
X180.565Y-90.353
T3
X137.918Y-79.279
X137.918Y-99.599
X178.558Y-79.279
X178.558Y-99.599
T0
M30
