M48
; DRILL file {KiCad 6.0.11+dfsg-1~bpo11+1} date Thu May 25 08:23:26 2023
; FORMAT={3:3/ absolute / metric / suppress leading zeros}
; #@! TF.CreationDate,2023-05-25T08:23:26+00:00
; #@! TF.GenerationSoftware,Kicad,Pcbnew,6.0.11+dfsg-1~bpo11+1
; #@! TF.FileFunction,Plated,1,2,PTH
FMAT,2
METRIC,TZ
; #@! TA.AperFunction,Plated,PTH,ViaDrill
T1C0.635
; #@! TA.AperFunction,Plated,PTH,ComponentDrill
T2C0.900
; #@! TA.AperFunction,Plated,PTH,ComponentDrill
T3C3.000
%
G90
G05
T1
X135734Y-83699
X135734Y-94773
X139200Y-94600
X142211Y-81082
X150135Y-76764
X152743Y-94837
X154961Y-77196
X155368Y-86061
X157029Y-84750
X157608Y-90079
X157857Y-93363
X159838Y-95167
X159914Y-86391
X160216Y-89693
X160956Y-77399
X161184Y-96145
X162658Y-83089
X162683Y-85629
X165414Y-96361
X165680Y-77298
X166518Y-87356
X167763Y-80549
X170684Y-77780
X171294Y-95865
X174951Y-94494
T2
X137918Y-85629
X137918Y-88169
X137918Y-90709
X140458Y-85629
X140458Y-88169
X140458Y-90709
X147443Y-90074
X152523Y-90074
X158035Y-99599
X158035Y-102139
X158619Y-80549
X158619Y-83089
X160575Y-99599
X160575Y-102139
X163115Y-99599
X163115Y-102139
X165655Y-99599
X165655Y-102139
X168195Y-99599
X168195Y-102139
X178025Y-85273
X178025Y-87813
X178025Y-90353
X180565Y-85273
X180565Y-87813
X180565Y-90353
T3
X137918Y-79279
X137918Y-99599
X178558Y-79279
X178558Y-99599
T0
M30
