%TF.GenerationSoftware,KiCad,Pcbnew,6.0.11+dfsg-1~bpo11+1*%
%TF.CreationDate,2023-04-13T08:43:22+00:00*%
%TF.ProjectId,PCRD01,50435244-3031-42e6-9b69-6361645f7063,01A*%
%TF.SameCoordinates,Original*%
%TF.FileFunction,Legend,Top*%
%TF.FilePolarity,Positive*%
%FSLAX46Y46*%
G04 Gerber Fmt 4.6, Leading zero omitted, Abs format (unit mm)*
G04 Created by KiCad (PCBNEW 6.0.11+dfsg-1~bpo11+1) date 2023-04-13 08:43:22*
%MOMM*%
%LPD*%
G01*
G04 APERTURE LIST*
%ADD10C,0.300000*%
%ADD11C,0.050000*%
%ADD12C,0.150000*%
%ADD13R,1.524000X1.524000*%
G04 APERTURE END LIST*
D10*
X160290214Y-95642071D02*
X160290214Y-94142071D01*
X160861642Y-94142071D01*
X161004500Y-94213500D01*
X161075928Y-94284928D01*
X161147357Y-94427785D01*
X161147357Y-94642071D01*
X161075928Y-94784928D01*
X161004500Y-94856357D01*
X160861642Y-94927785D01*
X160290214Y-94927785D01*
X162004500Y-95642071D02*
X161861642Y-95570642D01*
X161790214Y-95499214D01*
X161718785Y-95356357D01*
X161718785Y-94927785D01*
X161790214Y-94784928D01*
X161861642Y-94713500D01*
X162004500Y-94642071D01*
X162218785Y-94642071D01*
X162361642Y-94713500D01*
X162433071Y-94784928D01*
X162504500Y-94927785D01*
X162504500Y-95356357D01*
X162433071Y-95499214D01*
X162361642Y-95570642D01*
X162218785Y-95642071D01*
X162004500Y-95642071D01*
X163004500Y-94642071D02*
X163290214Y-95642071D01*
X163575928Y-94927785D01*
X163861642Y-95642071D01*
X164147357Y-94642071D01*
X165290214Y-95570642D02*
X165147357Y-95642071D01*
X164861642Y-95642071D01*
X164718785Y-95570642D01*
X164647357Y-95427785D01*
X164647357Y-94856357D01*
X164718785Y-94713500D01*
X164861642Y-94642071D01*
X165147357Y-94642071D01*
X165290214Y-94713500D01*
X165361642Y-94856357D01*
X165361642Y-94999214D01*
X164647357Y-95142071D01*
X166004500Y-95642071D02*
X166004500Y-94642071D01*
X166004500Y-94927785D02*
X166075928Y-94784928D01*
X166147357Y-94713500D01*
X166290214Y-94642071D01*
X166433071Y-94642071D01*
X174244071Y-91014214D02*
X174244071Y-90728500D01*
X174315500Y-90585642D01*
X174458357Y-90442785D01*
X174744071Y-90371357D01*
X175244071Y-90371357D01*
X175529785Y-90442785D01*
X175672642Y-90585642D01*
X175744071Y-90728500D01*
X175744071Y-91014214D01*
X175672642Y-91157071D01*
X175529785Y-91299928D01*
X175244071Y-91371357D01*
X174744071Y-91371357D01*
X174458357Y-91299928D01*
X174315500Y-91157071D01*
X174244071Y-91014214D01*
X174744071Y-89085642D02*
X175744071Y-89085642D01*
X174744071Y-89728500D02*
X175529785Y-89728500D01*
X175672642Y-89657071D01*
X175744071Y-89514214D01*
X175744071Y-89299928D01*
X175672642Y-89157071D01*
X175601214Y-89085642D01*
X174744071Y-88585642D02*
X174744071Y-88014214D01*
X174244071Y-88371357D02*
X175529785Y-88371357D01*
X175672642Y-88299928D01*
X175744071Y-88157071D01*
X175744071Y-88014214D01*
X174744071Y-87514214D02*
X176244071Y-87514214D01*
X174815500Y-87514214D02*
X174744071Y-87371357D01*
X174744071Y-87085642D01*
X174815500Y-86942785D01*
X174886928Y-86871357D01*
X175029785Y-86799928D01*
X175458357Y-86799928D01*
X175601214Y-86871357D01*
X175672642Y-86942785D01*
X175744071Y-87085642D01*
X175744071Y-87371357D01*
X175672642Y-87514214D01*
X174744071Y-85514214D02*
X175744071Y-85514214D01*
X174744071Y-86157071D02*
X175529785Y-86157071D01*
X175672642Y-86085642D01*
X175744071Y-85942785D01*
X175744071Y-85728500D01*
X175672642Y-85585642D01*
X175601214Y-85514214D01*
X174744071Y-85014214D02*
X174744071Y-84442785D01*
X174244071Y-84799928D02*
X175529785Y-84799928D01*
X175672642Y-84728500D01*
X175744071Y-84585642D01*
X175744071Y-84442785D01*
X170251500Y-102075357D02*
X170180071Y-102218214D01*
X170180071Y-102432500D01*
X170251500Y-102646785D01*
X170394357Y-102789642D01*
X170537214Y-102861071D01*
X170822928Y-102932500D01*
X171037214Y-102932500D01*
X171322928Y-102861071D01*
X171465785Y-102789642D01*
X171608642Y-102646785D01*
X171680071Y-102432500D01*
X171680071Y-102289642D01*
X171608642Y-102075357D01*
X171537214Y-102003928D01*
X171037214Y-102003928D01*
X171037214Y-102289642D01*
X171680071Y-101361071D02*
X170180071Y-101361071D01*
X171680071Y-100503928D01*
X170180071Y-100503928D01*
X171680071Y-99789642D02*
X170180071Y-99789642D01*
X170180071Y-99432500D01*
X170251500Y-99218214D01*
X170394357Y-99075357D01*
X170537214Y-99003928D01*
X170822928Y-98932500D01*
X171037214Y-98932500D01*
X171322928Y-99003928D01*
X171465785Y-99075357D01*
X171608642Y-99218214D01*
X171680071Y-99432500D01*
X171680071Y-99789642D01*
X165159571Y-97420142D02*
X166302428Y-97420142D01*
X154630500Y-102011857D02*
X154559071Y-102154714D01*
X154559071Y-102369000D01*
X154630500Y-102583285D01*
X154773357Y-102726142D01*
X154916214Y-102797571D01*
X155201928Y-102869000D01*
X155416214Y-102869000D01*
X155701928Y-102797571D01*
X155844785Y-102726142D01*
X155987642Y-102583285D01*
X156059071Y-102369000D01*
X156059071Y-102226142D01*
X155987642Y-102011857D01*
X155916214Y-101940428D01*
X155416214Y-101940428D01*
X155416214Y-102226142D01*
X156059071Y-101297571D02*
X154559071Y-101297571D01*
X156059071Y-100440428D01*
X154559071Y-100440428D01*
X156059071Y-99726142D02*
X154559071Y-99726142D01*
X154559071Y-99369000D01*
X154630500Y-99154714D01*
X154773357Y-99011857D01*
X154916214Y-98940428D01*
X155201928Y-98869000D01*
X155416214Y-98869000D01*
X155701928Y-98940428D01*
X155844785Y-99011857D01*
X155987642Y-99154714D01*
X156059071Y-99369000D01*
X156059071Y-99726142D01*
X161036571Y-90562071D02*
X161036571Y-89062071D01*
X161608000Y-89062071D01*
X161750857Y-89133500D01*
X161822285Y-89204928D01*
X161893714Y-89347785D01*
X161893714Y-89562071D01*
X161822285Y-89704928D01*
X161750857Y-89776357D01*
X161608000Y-89847785D01*
X161036571Y-89847785D01*
X163393714Y-90419214D02*
X163322285Y-90490642D01*
X163108000Y-90562071D01*
X162965142Y-90562071D01*
X162750857Y-90490642D01*
X162608000Y-90347785D01*
X162536571Y-90204928D01*
X162465142Y-89919214D01*
X162465142Y-89704928D01*
X162536571Y-89419214D01*
X162608000Y-89276357D01*
X162750857Y-89133500D01*
X162965142Y-89062071D01*
X163108000Y-89062071D01*
X163322285Y-89133500D01*
X163393714Y-89204928D01*
X164893714Y-90562071D02*
X164393714Y-89847785D01*
X164036571Y-90562071D02*
X164036571Y-89062071D01*
X164608000Y-89062071D01*
X164750857Y-89133500D01*
X164822285Y-89204928D01*
X164893714Y-89347785D01*
X164893714Y-89562071D01*
X164822285Y-89704928D01*
X164750857Y-89776357D01*
X164608000Y-89847785D01*
X164036571Y-89847785D01*
X165536571Y-90562071D02*
X165536571Y-89062071D01*
X165893714Y-89062071D01*
X166108000Y-89133500D01*
X166250857Y-89276357D01*
X166322285Y-89419214D01*
X166393714Y-89704928D01*
X166393714Y-89919214D01*
X166322285Y-90204928D01*
X166250857Y-90347785D01*
X166108000Y-90490642D01*
X165893714Y-90562071D01*
X165536571Y-90562071D01*
X167322285Y-89062071D02*
X167465142Y-89062071D01*
X167608000Y-89133500D01*
X167679428Y-89204928D01*
X167750857Y-89347785D01*
X167822285Y-89633500D01*
X167822285Y-89990642D01*
X167750857Y-90276357D01*
X167679428Y-90419214D01*
X167608000Y-90490642D01*
X167465142Y-90562071D01*
X167322285Y-90562071D01*
X167179428Y-90490642D01*
X167108000Y-90419214D01*
X167036571Y-90276357D01*
X166965142Y-89990642D01*
X166965142Y-89633500D01*
X167036571Y-89347785D01*
X167108000Y-89204928D01*
X167179428Y-89133500D01*
X167322285Y-89062071D01*
X169250857Y-90562071D02*
X168393714Y-90562071D01*
X168822285Y-90562071D02*
X168822285Y-89062071D01*
X168679428Y-89276357D01*
X168536571Y-89419214D01*
X168393714Y-89490642D01*
X170393714Y-89776357D02*
X170608000Y-89847785D01*
X170679428Y-89919214D01*
X170750857Y-90062071D01*
X170750857Y-90276357D01*
X170679428Y-90419214D01*
X170608000Y-90490642D01*
X170465142Y-90562071D01*
X169893714Y-90562071D01*
X169893714Y-89062071D01*
X170393714Y-89062071D01*
X170536571Y-89133500D01*
X170608000Y-89204928D01*
X170679428Y-89347785D01*
X170679428Y-89490642D01*
X170608000Y-89633500D01*
X170536571Y-89704928D01*
X170393714Y-89776357D01*
X169893714Y-89776357D01*
X145697071Y-79552928D02*
X145768500Y-79481500D01*
X145911357Y-79410071D01*
X146268500Y-79410071D01*
X146411357Y-79481500D01*
X146482785Y-79552928D01*
X146554214Y-79695785D01*
X146554214Y-79838642D01*
X146482785Y-80052928D01*
X145625642Y-80910071D01*
X146554214Y-80910071D01*
X147482785Y-79410071D02*
X147625642Y-79410071D01*
X147768500Y-79481500D01*
X147839928Y-79552928D01*
X147911357Y-79695785D01*
X147982785Y-79981500D01*
X147982785Y-80338642D01*
X147911357Y-80624357D01*
X147839928Y-80767214D01*
X147768500Y-80838642D01*
X147625642Y-80910071D01*
X147482785Y-80910071D01*
X147339928Y-80838642D01*
X147268500Y-80767214D01*
X147197071Y-80624357D01*
X147125642Y-80338642D01*
X147125642Y-79981500D01*
X147197071Y-79695785D01*
X147268500Y-79552928D01*
X147339928Y-79481500D01*
X147482785Y-79410071D01*
X148554214Y-79552928D02*
X148625642Y-79481500D01*
X148768500Y-79410071D01*
X149125642Y-79410071D01*
X149268500Y-79481500D01*
X149339928Y-79552928D01*
X149411357Y-79695785D01*
X149411357Y-79838642D01*
X149339928Y-80052928D01*
X148482785Y-80910071D01*
X149411357Y-80910071D01*
X149911357Y-79410071D02*
X150839928Y-79410071D01*
X150339928Y-79981500D01*
X150554214Y-79981500D01*
X150697071Y-80052928D01*
X150768500Y-80124357D01*
X150839928Y-80267214D01*
X150839928Y-80624357D01*
X150768500Y-80767214D01*
X150697071Y-80838642D01*
X150554214Y-80910071D01*
X150125642Y-80910071D01*
X149982785Y-80838642D01*
X149911357Y-80767214D01*
X162492571Y-97102642D02*
X163635428Y-97102642D01*
X163064000Y-97674071D02*
X163064000Y-96531214D01*
X160964571Y-85827000D02*
X160964571Y-84755571D01*
X160321714Y-85398428D02*
X162250285Y-85827000D01*
X161607428Y-84898428D02*
X161607428Y-85969857D01*
X162250285Y-85327000D02*
X160321714Y-84898428D01*
X161893142Y-84327000D02*
X161964571Y-84112714D01*
X161964571Y-83755571D01*
X161893142Y-83612714D01*
X161821714Y-83541285D01*
X161678857Y-83469857D01*
X161536000Y-83469857D01*
X161393142Y-83541285D01*
X161321714Y-83612714D01*
X161250285Y-83755571D01*
X161178857Y-84041285D01*
X161107428Y-84184142D01*
X161036000Y-84255571D01*
X160893142Y-84327000D01*
X160750285Y-84327000D01*
X160607428Y-84255571D01*
X160536000Y-84184142D01*
X160464571Y-84041285D01*
X160464571Y-83684142D01*
X160536000Y-83469857D01*
X161964571Y-82827000D02*
X160464571Y-82827000D01*
X161178857Y-82827000D02*
X161178857Y-81969857D01*
X161964571Y-81969857D02*
X160464571Y-81969857D01*
X161964571Y-81255571D02*
X160464571Y-81255571D01*
X160464571Y-80898428D01*
X160536000Y-80684142D01*
X160678857Y-80541285D01*
X160821714Y-80469857D01*
X161107428Y-80398428D01*
X161321714Y-80398428D01*
X161607428Y-80469857D01*
X161750285Y-80541285D01*
X161893142Y-80684142D01*
X161964571Y-80898428D01*
X161964571Y-81255571D01*
X161964571Y-79755571D02*
X160464571Y-79755571D01*
X161964571Y-78898428D01*
X160464571Y-78898428D01*
X134366071Y-91046000D02*
X135580357Y-91046000D01*
X135723214Y-90974571D01*
X135794642Y-90903142D01*
X135866071Y-90760285D01*
X135866071Y-90474571D01*
X135794642Y-90331714D01*
X135723214Y-90260285D01*
X135580357Y-90188857D01*
X134366071Y-90188857D01*
X135866071Y-89474571D02*
X134366071Y-89474571D01*
X134937500Y-89474571D02*
X134866071Y-89331714D01*
X134866071Y-89046000D01*
X134937500Y-88903142D01*
X135008928Y-88831714D01*
X135151785Y-88760285D01*
X135580357Y-88760285D01*
X135723214Y-88831714D01*
X135794642Y-88903142D01*
X135866071Y-89046000D01*
X135866071Y-89331714D01*
X135794642Y-89474571D01*
X135866071Y-88117428D02*
X134866071Y-88117428D01*
X134366071Y-88117428D02*
X134437500Y-88188857D01*
X134508928Y-88117428D01*
X134437500Y-88046000D01*
X134366071Y-88117428D01*
X134508928Y-88117428D01*
X135866071Y-86760285D02*
X135080357Y-86760285D01*
X134937500Y-86831714D01*
X134866071Y-86974571D01*
X134866071Y-87260285D01*
X134937500Y-87403142D01*
X135794642Y-86760285D02*
X135866071Y-86903142D01*
X135866071Y-87260285D01*
X135794642Y-87403142D01*
X135651785Y-87474571D01*
X135508928Y-87474571D01*
X135366071Y-87403142D01*
X135294642Y-87260285D01*
X135294642Y-86903142D01*
X135223214Y-86760285D01*
X135794642Y-86117428D02*
X135866071Y-85974571D01*
X135866071Y-85688857D01*
X135794642Y-85546000D01*
X135651785Y-85474571D01*
X135580357Y-85474571D01*
X135437500Y-85546000D01*
X135366071Y-85688857D01*
X135366071Y-85903142D01*
X135294642Y-86046000D01*
X135151785Y-86117428D01*
X135080357Y-86117428D01*
X134937500Y-86046000D01*
X134866071Y-85903142D01*
X134866071Y-85688857D01*
X134937500Y-85546000D01*
X144224857Y-78370071D02*
X144224857Y-76870071D01*
X144724857Y-77941500D01*
X145224857Y-76870071D01*
X145224857Y-78370071D01*
X146653428Y-78370071D02*
X145939142Y-78370071D01*
X145939142Y-76870071D01*
X147082000Y-77941500D02*
X147796285Y-77941500D01*
X146939142Y-78370071D02*
X147439142Y-76870071D01*
X147939142Y-78370071D01*
X148939142Y-77584357D02*
X149153428Y-77655785D01*
X149224857Y-77727214D01*
X149296285Y-77870071D01*
X149296285Y-78084357D01*
X149224857Y-78227214D01*
X149153428Y-78298642D01*
X149010571Y-78370071D01*
X148439142Y-78370071D01*
X148439142Y-76870071D01*
X148939142Y-76870071D01*
X149082000Y-76941500D01*
X149153428Y-77012928D01*
X149224857Y-77155785D01*
X149224857Y-77298642D01*
X149153428Y-77441500D01*
X149082000Y-77512928D01*
X148939142Y-77584357D01*
X148439142Y-77584357D01*
X149939142Y-78227214D02*
X150010571Y-78298642D01*
X149939142Y-78370071D01*
X149867714Y-78298642D01*
X149939142Y-78227214D01*
X149939142Y-78370071D01*
X151296285Y-78298642D02*
X151153428Y-78370071D01*
X150867714Y-78370071D01*
X150724857Y-78298642D01*
X150653428Y-78227214D01*
X150582000Y-78084357D01*
X150582000Y-77655785D01*
X150653428Y-77512928D01*
X150724857Y-77441500D01*
X150867714Y-77370071D01*
X151153428Y-77370071D01*
X151296285Y-77441500D01*
X151796285Y-77370071D02*
X152582000Y-77370071D01*
X151796285Y-78370071D01*
X152582000Y-78370071D01*
X146610000Y-87823642D02*
X146824285Y-87895071D01*
X147181428Y-87895071D01*
X147324285Y-87823642D01*
X147395714Y-87752214D01*
X147467142Y-87609357D01*
X147467142Y-87466500D01*
X147395714Y-87323642D01*
X147324285Y-87252214D01*
X147181428Y-87180785D01*
X146895714Y-87109357D01*
X146752857Y-87037928D01*
X146681428Y-86966500D01*
X146610000Y-86823642D01*
X146610000Y-86680785D01*
X146681428Y-86537928D01*
X146752857Y-86466500D01*
X146895714Y-86395071D01*
X147252857Y-86395071D01*
X147467142Y-86466500D01*
X148681428Y-87823642D02*
X148538571Y-87895071D01*
X148252857Y-87895071D01*
X148110000Y-87823642D01*
X148038571Y-87680785D01*
X148038571Y-87109357D01*
X148110000Y-86966500D01*
X148252857Y-86895071D01*
X148538571Y-86895071D01*
X148681428Y-86966500D01*
X148752857Y-87109357D01*
X148752857Y-87252214D01*
X148038571Y-87395071D01*
X149395714Y-86895071D02*
X149395714Y-87895071D01*
X149395714Y-87037928D02*
X149467142Y-86966500D01*
X149610000Y-86895071D01*
X149824285Y-86895071D01*
X149967142Y-86966500D01*
X150038571Y-87109357D01*
X150038571Y-87895071D01*
X150681428Y-87823642D02*
X150824285Y-87895071D01*
X151110000Y-87895071D01*
X151252857Y-87823642D01*
X151324285Y-87680785D01*
X151324285Y-87609357D01*
X151252857Y-87466500D01*
X151110000Y-87395071D01*
X150895714Y-87395071D01*
X150752857Y-87323642D01*
X150681428Y-87180785D01*
X150681428Y-87109357D01*
X150752857Y-86966500D01*
X150895714Y-86895071D01*
X151110000Y-86895071D01*
X151252857Y-86966500D01*
X152181428Y-87895071D02*
X152038571Y-87823642D01*
X151967142Y-87752214D01*
X151895714Y-87609357D01*
X151895714Y-87180785D01*
X151967142Y-87037928D01*
X152038571Y-86966500D01*
X152181428Y-86895071D01*
X152395714Y-86895071D01*
X152538571Y-86966500D01*
X152610000Y-87037928D01*
X152681428Y-87180785D01*
X152681428Y-87609357D01*
X152610000Y-87752214D01*
X152538571Y-87823642D01*
X152395714Y-87895071D01*
X152181428Y-87895071D01*
X153324285Y-87895071D02*
X153324285Y-86895071D01*
X153324285Y-87180785D02*
X153395714Y-87037928D01*
X153467142Y-86966500D01*
X153610000Y-86895071D01*
X153752857Y-86895071D01*
X160016071Y-97420142D02*
X161158928Y-97420142D01*
D11*
%TO.C,J1*%
X142251857Y-90935190D02*
X141966142Y-90935190D01*
X142109000Y-90935190D02*
X142109000Y-90435190D01*
X142061380Y-90506619D01*
X142013761Y-90554238D01*
X141966142Y-90578047D01*
D12*
%TO.C,J2*%
X154673371Y-105761857D02*
X155744800Y-105761857D01*
X155959085Y-105833285D01*
X156101942Y-105976142D01*
X156173371Y-106190428D01*
X156173371Y-106333285D01*
X154673371Y-105047571D02*
X155887657Y-105047571D01*
X156030514Y-104976142D01*
X156101942Y-104904714D01*
X156173371Y-104761857D01*
X156173371Y-104476142D01*
X156101942Y-104333285D01*
X156030514Y-104261857D01*
X155887657Y-104190428D01*
X154673371Y-104190428D01*
X156173371Y-103476142D02*
X154673371Y-103476142D01*
X155744800Y-102976142D01*
X154673371Y-102476142D01*
X156173371Y-102476142D01*
X156173371Y-101761857D02*
X154673371Y-101761857D01*
X154673371Y-101190428D01*
X154744800Y-101047571D01*
X154816228Y-100976142D01*
X154959085Y-100904714D01*
X155173371Y-100904714D01*
X155316228Y-100976142D01*
X155387657Y-101047571D01*
X155459085Y-101190428D01*
X155459085Y-101761857D01*
X156316228Y-100619000D02*
X156316228Y-99476142D01*
X154673371Y-98404714D02*
X154673371Y-99119000D01*
X155387657Y-99190428D01*
X155316228Y-99119000D01*
X155244800Y-98976142D01*
X155244800Y-98619000D01*
X155316228Y-98476142D01*
X155387657Y-98404714D01*
X155530514Y-98333285D01*
X155887657Y-98333285D01*
X156030514Y-98404714D01*
X156101942Y-98476142D01*
X156173371Y-98619000D01*
X156173371Y-98976142D01*
X156101942Y-99119000D01*
X156030514Y-99190428D01*
X154673371Y-97833285D02*
X156173371Y-96833285D01*
X154673371Y-96833285D02*
X156173371Y-97833285D01*
X154816228Y-96333285D02*
X154744800Y-96261857D01*
X154673371Y-96119000D01*
X154673371Y-95761857D01*
X154744800Y-95619000D01*
X154816228Y-95547571D01*
X154959085Y-95476142D01*
X155101942Y-95476142D01*
X155316228Y-95547571D01*
X156173371Y-96404714D01*
X156173371Y-95476142D01*
D11*
X168420990Y-97805142D02*
X168420990Y-98090857D01*
X168420990Y-97948000D02*
X167920990Y-97948000D01*
X167992419Y-97995619D01*
X168040038Y-98043238D01*
X168063847Y-98090857D01*
%TO.C,J5*%
X182358457Y-90579590D02*
X182072742Y-90579590D01*
X182215600Y-90579590D02*
X182215600Y-90079590D01*
X182167980Y-90151019D01*
X182120361Y-90198638D01*
X182072742Y-90222447D01*
D12*
%TO.C,J1*%
X141728000Y-91979000D02*
X136648000Y-91979000D01*
X136648000Y-84359000D02*
X141728000Y-84359000D01*
X141728000Y-84359000D02*
X141728000Y-91979000D01*
X136648000Y-91979000D02*
X136648000Y-84359000D01*
%TO.C,J2*%
X156764800Y-98329000D02*
X169464800Y-98329000D01*
X169464800Y-98329000D02*
X169464800Y-103409000D01*
X156764800Y-103409000D02*
X156764800Y-98329000D01*
X169464800Y-103409000D02*
X156764800Y-103409000D01*
%TO.C,J5*%
X176754600Y-91623400D02*
X176754600Y-84003400D01*
X181834600Y-84003400D02*
X181834600Y-91623400D01*
X176754600Y-84003400D02*
X181834600Y-84003400D01*
X181834600Y-91623400D02*
X176754600Y-91623400D01*
%TO.C,J4*%
X159762000Y-84359000D02*
X157222000Y-84359000D01*
X157222000Y-84359000D02*
X157222000Y-79279000D01*
X157222000Y-79279000D02*
X159762000Y-79279000D01*
X159762000Y-79279000D02*
X159762000Y-84359000D01*
%TD*%
D13*
%TO.C,J2*%
X168194800Y-99599000D03*
X168194800Y-102139000D03*
X165654800Y-99599000D03*
X165654800Y-102139000D03*
X163114800Y-99599000D03*
X163114800Y-102139000D03*
X160574800Y-99599000D03*
X160574800Y-102139000D03*
X158034800Y-99599000D03*
X158034800Y-102139000D03*
%TD*%
%TO.C,J4*%
X158492000Y-83089000D03*
X158492000Y-80549000D03*
%TD*%
M02*
