  0
SECTION
  2
HEADER
  9
$ANGBASE
  50
0.0
  9
$ANGDIR
  70
1
  9
$MEASUREMENT
  70
0
  0
ENDSEC
  0
SECTION
  2
TABLES
  0
TABLE
  2
LTYPE
  70
4
  0
LTYPE
  5
40F
  2
CONTINUOUS
  70
0
  3
Solid line
  72
65
  73
0
  40
0.0
  0
LTYPE
  5
410
  2
DASHDOT
 70
0
  3
Dash Dot ____ _ ____ _
 72
65
 73
4
 40
2.0
 49
1.25
 49
-0.25
 49
0.25
 49
-0.25
  0
LTYPE
  5
411
  2
DASHED
 70
0
  3
Dashed __ __ __ __ __
 72
65
 73
2
 40
0.75
 49
0.5
 49
-0.25
  0
LTYPE
  5
43B
  2
DOTTED
 70
0
  3
Dotted .  .  .  .
 72
65
 73
2
 40
0.2
 49
0.0
 49
-0.2
  0
ENDTAB
  0
TABLE
  2
STYLE
  70
4
  0
STYLE
  2
KICAD
  70
0
  40
0
  41
1
  42
1
  50
0
  71
0
  3
isocp.shx
  0
STYLE
  2
KICADB
  70
0
  40
0
  41
1
  42
1
  50
0
  71
0
  3
isocp.shx
  0
STYLE
  2
KICADI
  70
0
  40
0
  41
1
  42
1
  50
15
  71
0
  3
isocp.shx
  0
STYLE
  2
KICADBI
  70
0
  40
0
  41
1
  42
1
  50
15
  71
0
  3
isocp.shx
  0
ENDTAB
  0
TABLE
  2
LAYER
  70
1
  0
LAYER
  2
BLACK
  70
0
  62
7
  6
CONTINUOUS
  0
ENDTAB
  0
ENDSEC
  0
SECTION
  2
ENTITIES
0
LINE
8
BLACK
6
CONTINUOUS
10
0.0205096
20
0.116316
11
0.0338744
21
0.113148
0
LINE
8
BLACK
6
CONTINUOUS
10
0.0338744
20
0.113148
11
0.0467811
21
0.108451
0
LINE
8
BLACK
6
CONTINUOUS
10
0.0467811
20
0.108451
11
0.0590551
21
0.102286
0
LINE
8
BLACK
6
CONTINUOUS
10
0.0590551
20
0.102286
11
0.0705306
21
0.094739
0
LINE
8
BLACK
6
CONTINUOUS
10
0.0705306
20
0.094739
11
0.0810522
21
0.0859103
0
LINE
8
BLACK
6
CONTINUOUS
10
0.0810522
20
0.0859103
11
0.0904777
21
0.0759198
0
LINE
8
BLACK
6
CONTINUOUS
10
0.0904777
20
0.0759198
11
0.0986796
21
0.0649026
0
LINE
8
BLACK
6
CONTINUOUS
10
0.0986796
20
0.0649026
11
0.105547
21
0.0530078
0
LINE
8
BLACK
6
CONTINUOUS
10
0.105547
20
0.0530078
11
0.110987
21
0.0403961
0
LINE
8
BLACK
6
CONTINUOUS
10
0.110987
20
0.0403961
11
0.114927
21
0.0272381
0
LINE
8
BLACK
6
CONTINUOUS
10
0.114927
20
0.0272381
11
0.117312
21
0.0137118
0
LINE
8
BLACK
6
CONTINUOUS
10
0.117312
20
0.0137118
11
0.11811
21
0
0
LINE
8
BLACK
6
CONTINUOUS
10
0.11811
20
0
11
0.117312
21
-0.0137118
0
LINE
8
BLACK
6
CONTINUOUS
10
0.117312
20
-0.0137118
11
0.114927
21
-0.0272381
0
LINE
8
BLACK
6
CONTINUOUS
10
0.114927
20
-0.0272381
11
0.110987
21
-0.0403961
0
LINE
8
BLACK
6
CONTINUOUS
10
0.110987
20
-0.0403961
11
0.105547
21
-0.0530078
0
LINE
8
BLACK
6
CONTINUOUS
10
0.105547
20
-0.0530078
11
0.0986796
21
-0.0649026
0
LINE
8
BLACK
6
CONTINUOUS
10
0.0986796
20
-0.0649026
11
0.0904777
21
-0.0759198
0
LINE
8
BLACK
6
CONTINUOUS
10
0.0904777
20
-0.0759198
11
0.0810522
21
-0.0859103
0
LINE
8
BLACK
6
CONTINUOUS
10
0.0810522
20
-0.0859103
11
0.0705306
21
-0.094739
0
LINE
8
BLACK
6
CONTINUOUS
10
0.0705306
20
-0.094739
11
0.0590551
21
-0.102286
0
LINE
8
BLACK
6
CONTINUOUS
10
0.0590551
20
-0.102286
11
0.0467811
21
-0.108451
0
LINE
8
BLACK
6
CONTINUOUS
10
0.0467811
20
-0.108451
11
0.0338744
21
-0.113148
0
LINE
8
BLACK
6
CONTINUOUS
10
0.0338744
20
-0.113148
11
0.0205096
21
-0.116316
0
LINE
8
BLACK
6
CONTINUOUS
10
0.0205096
20
-0.116316
11
0.00686748
21
-0.11791
0
LINE
8
BLACK
6
CONTINUOUS
10
0.00686748
20
-0.11791
11
-0.00686748
21
-0.11791
0
LINE
8
BLACK
6
CONTINUOUS
10
-0.00686748
20
-0.11791
11
-0.0205096
21
-0.116316
0
LINE
8
BLACK
6
CONTINUOUS
10
-0.0205096
20
-0.116316
11
-0.0338744
21
-0.113148
0
LINE
8
BLACK
6
CONTINUOUS
10
-0.0338744
20
-0.113148
11
-0.0467811
21
-0.108451
0
LINE
8
BLACK
6
CONTINUOUS
10
-0.0467811
20
-0.108451
11
-0.0590551
21
-0.102286
0
LINE
8
BLACK
6
CONTINUOUS
10
-0.0590551
20
-0.102286
11
-0.0705306
21
-0.094739
0
LINE
8
BLACK
6
CONTINUOUS
10
-0.0705306
20
-0.094739
11
-0.0810522
21
-0.0859103
0
LINE
8
BLACK
6
CONTINUOUS
10
-0.0810522
20
-0.0859103
11
-0.0904777
21
-0.0759198
0
LINE
8
BLACK
6
CONTINUOUS
10
-0.0904777
20
-0.0759198
11
-0.0986796
21
-0.0649026
0
LINE
8
BLACK
6
CONTINUOUS
10
-0.0986796
20
-0.0649026
11
-0.105547
21
-0.0530078
0
LINE
8
BLACK
6
CONTINUOUS
10
-0.105547
20
-0.0530078
11
-0.110987
21
-0.0403961
0
LINE
8
BLACK
6
CONTINUOUS
10
-0.110987
20
-0.0403961
11
-0.114927
21
-0.0272381
0
LINE
8
BLACK
6
CONTINUOUS
10
-0.114927
20
-0.0272381
11
-0.117312
21
-0.0137118
0
LINE
8
BLACK
6
CONTINUOUS
10
-0.117312
20
-0.0137118
11
-0.11811
21
0
0
LINE
8
BLACK
6
CONTINUOUS
10
-0.11811
20
0
11
-0.117312
21
0.0137118
0
LINE
8
BLACK
6
CONTINUOUS
10
-0.117312
20
0.0137118
11
-0.114927
21
0.0272381
0
LINE
8
BLACK
6
CONTINUOUS
10
-0.114927
20
0.0272381
11
-0.110987
21
0.0403961
0
LINE
8
BLACK
6
CONTINUOUS
10
-0.110987
20
0.0403961
11
-0.105547
21
0.0530078
0
LINE
8
BLACK
6
CONTINUOUS
10
-0.105547
20
0.0530078
11
-0.0986796
21
0.0649026
0
LINE
8
BLACK
6
CONTINUOUS
10
-0.0986796
20
0.0649026
11
-0.0904777
21
0.0759198
0
LINE
8
BLACK
6
CONTINUOUS
10
-0.0904777
20
0.0759198
11
-0.0810522
21
0.0859103
0
LINE
8
BLACK
6
CONTINUOUS
10
-0.0810522
20
0.0859103
11
-0.0705306
21
0.094739
0
LINE
8
BLACK
6
CONTINUOUS
10
-0.0705306
20
0.094739
11
-0.0590551
21
0.102286
0
LINE
8
BLACK
6
CONTINUOUS
10
-0.0590551
20
0.102286
11
-0.0467811
21
0.108451
0
LINE
8
BLACK
6
CONTINUOUS
10
-0.0467811
20
0.108451
11
-0.0338744
21
0.113148
0
LINE
8
BLACK
6
CONTINUOUS
10
-0.0338744
20
0.113148
11
-0.0205096
21
0.116316
0
LINE
8
BLACK
6
CONTINUOUS
10
-0.0205096
20
0.116316
11
-0.00686748
21
0.11791
0
LINE
8
BLACK
6
CONTINUOUS
10
-0.00686748
20
0.11791
11
0.00686748
21
0.11791
0
LINE
8
BLACK
6
CONTINUOUS
10
0.00686748
20
0.11791
11
0.0205096
21
0.116316
0
LINE
8
BLACK
6
CONTINUOUS
10
1.62051
20
0.116316
11
1.63387
21
0.113148
0
LINE
8
BLACK
6
CONTINUOUS
10
1.63387
20
0.113148
11
1.64678
21
0.108451
0
LINE
8
BLACK
6
CONTINUOUS
10
1.64678
20
0.108451
11
1.65906
21
0.102286
0
LINE
8
BLACK
6
CONTINUOUS
10
1.65906
20
0.102286
11
1.67053
21
0.094739
0
LINE
8
BLACK
6
CONTINUOUS
10
1.67053
20
0.094739
11
1.68105
21
0.0859103
0
LINE
8
BLACK
6
CONTINUOUS
10
1.68105
20
0.0859103
11
1.69048
21
0.0759198
0
LINE
8
BLACK
6
CONTINUOUS
10
1.69048
20
0.0759198
11
1.69868
21
0.0649026
0
LINE
8
BLACK
6
CONTINUOUS
10
1.69868
20
0.0649026
11
1.70555
21
0.0530078
0
LINE
8
BLACK
6
CONTINUOUS
10
1.70555
20
0.0530078
11
1.71099
21
0.0403961
0
LINE
8
BLACK
6
CONTINUOUS
10
1.71099
20
0.0403961
11
1.71493
21
0.0272381
0
LINE
8
BLACK
6
CONTINUOUS
10
1.71493
20
0.0272381
11
1.71731
21
0.0137118
0
LINE
8
BLACK
6
CONTINUOUS
10
1.71731
20
0.0137118
11
1.71811
21
0
0
LINE
8
BLACK
6
CONTINUOUS
10
1.71811
20
0
11
1.71731
21
-0.0137118
0
LINE
8
BLACK
6
CONTINUOUS
10
1.71731
20
-0.0137118
11
1.71493
21
-0.0272381
0
LINE
8
BLACK
6
CONTINUOUS
10
1.71493
20
-0.0272381
11
1.71099
21
-0.0403961
0
LINE
8
BLACK
6
CONTINUOUS
10
1.71099
20
-0.0403961
11
1.70555
21
-0.0530078
0
LINE
8
BLACK
6
CONTINUOUS
10
1.70555
20
-0.0530078
11
1.69868
21
-0.0649026
0
LINE
8
BLACK
6
CONTINUOUS
10
1.69868
20
-0.0649026
11
1.69048
21
-0.0759198
0
LINE
8
BLACK
6
CONTINUOUS
10
1.69048
20
-0.0759198
11
1.68105
21
-0.0859103
0
LINE
8
BLACK
6
CONTINUOUS
10
1.68105
20
-0.0859103
11
1.67053
21
-0.094739
0
LINE
8
BLACK
6
CONTINUOUS
10
1.67053
20
-0.094739
11
1.65906
21
-0.102286
0
LINE
8
BLACK
6
CONTINUOUS
10
1.65906
20
-0.102286
11
1.64678
21
-0.108451
0
LINE
8
BLACK
6
CONTINUOUS
10
1.64678
20
-0.108451
11
1.63387
21
-0.113148
0
LINE
8
BLACK
6
CONTINUOUS
10
1.63387
20
-0.113148
11
1.62051
21
-0.116316
0
LINE
8
BLACK
6
CONTINUOUS
10
1.62051
20
-0.116316
11
1.60687
21
-0.11791
0
LINE
8
BLACK
6
CONTINUOUS
10
1.60687
20
-0.11791
11
1.59313
21
-0.11791
0
LINE
8
BLACK
6
CONTINUOUS
10
1.59313
20
-0.11791
11
1.57949
21
-0.116316
0
LINE
8
BLACK
6
CONTINUOUS
10
1.57949
20
-0.116316
11
1.56613
21
-0.113148
0
LINE
8
BLACK
6
CONTINUOUS
10
1.56613
20
-0.113148
11
1.55322
21
-0.108451
0
LINE
8
BLACK
6
CONTINUOUS
10
1.55322
20
-0.108451
11
1.54094
21
-0.102286
0
LINE
8
BLACK
6
CONTINUOUS
10
1.54094
20
-0.102286
11
1.52947
21
-0.094739
0
LINE
8
BLACK
6
CONTINUOUS
10
1.52947
20
-0.094739
11
1.51895
21
-0.0859103
0
LINE
8
BLACK
6
CONTINUOUS
10
1.51895
20
-0.0859103
11
1.50952
21
-0.0759198
0
LINE
8
BLACK
6
CONTINUOUS
10
1.50952
20
-0.0759198
11
1.50132
21
-0.0649026
0
LINE
8
BLACK
6
CONTINUOUS
10
1.50132
20
-0.0649026
11
1.49445
21
-0.0530078
0
LINE
8
BLACK
6
CONTINUOUS
10
1.49445
20
-0.0530078
11
1.48901
21
-0.0403961
0
LINE
8
BLACK
6
CONTINUOUS
10
1.48901
20
-0.0403961
11
1.48507
21
-0.0272381
0
LINE
8
BLACK
6
CONTINUOUS
10
1.48507
20
-0.0272381
11
1.48269
21
-0.0137118
0
LINE
8
BLACK
6
CONTINUOUS
10
1.48269
20
-0.0137118
11
1.48189
21
0
0
LINE
8
BLACK
6
CONTINUOUS
10
1.48189
20
0
11
1.48269
21
0.0137118
0
LINE
8
BLACK
6
CONTINUOUS
10
1.48269
20
0.0137118
11
1.48507
21
0.0272381
0
LINE
8
BLACK
6
CONTINUOUS
10
1.48507
20
0.0272381
11
1.48901
21
0.0403961
0
LINE
8
BLACK
6
CONTINUOUS
10
1.48901
20
0.0403961
11
1.49445
21
0.0530078
0
LINE
8
BLACK
6
CONTINUOUS
10
1.49445
20
0.0530078
11
1.50132
21
0.0649026
0
LINE
8
BLACK
6
CONTINUOUS
10
1.50132
20
0.0649026
11
1.50952
21
0.0759198
0
LINE
8
BLACK
6
CONTINUOUS
10
1.50952
20
0.0759198
11
1.51895
21
0.0859103
0
LINE
8
BLACK
6
CONTINUOUS
10
1.51895
20
0.0859103
11
1.52947
21
0.094739
0
LINE
8
BLACK
6
CONTINUOUS
10
1.52947
20
0.094739
11
1.54094
21
0.102286
0
LINE
8
BLACK
6
CONTINUOUS
10
1.54094
20
0.102286
11
1.55322
21
0.108451
0
LINE
8
BLACK
6
CONTINUOUS
10
1.55322
20
0.108451
11
1.56613
21
0.113148
0
LINE
8
BLACK
6
CONTINUOUS
10
1.56613
20
0.113148
11
1.57949
21
0.116316
0
LINE
8
BLACK
6
CONTINUOUS
10
1.57949
20
0.116316
11
1.59313
21
0.11791
0
LINE
8
BLACK
6
CONTINUOUS
10
1.59313
20
0.11791
11
1.60687
21
0.11791
0
LINE
8
BLACK
6
CONTINUOUS
10
1.60687
20
0.11791
11
1.62051
21
0.116316
0
LINE
8
BLACK
6
CONTINUOUS
10
0.0205096
20
0.916316
11
0.0338744
21
0.913148
0
LINE
8
BLACK
6
CONTINUOUS
10
0.0338744
20
0.913148
11
0.0467811
21
0.908451
0
LINE
8
BLACK
6
CONTINUOUS
10
0.0467811
20
0.908451
11
0.0590551
21
0.902286
0
LINE
8
BLACK
6
CONTINUOUS
10
0.0590551
20
0.902286
11
0.0705306
21
0.894739
0
LINE
8
BLACK
6
CONTINUOUS
10
0.0705306
20
0.894739
11
0.0810522
21
0.88591
0
LINE
8
BLACK
6
CONTINUOUS
10
0.0810522
20
0.88591
11
0.0904777
21
0.87592
0
LINE
8
BLACK
6
CONTINUOUS
10
0.0904777
20
0.87592
11
0.0986796
21
0.864903
0
LINE
8
BLACK
6
CONTINUOUS
10
0.0986796
20
0.864903
11
0.105547
21
0.853008
0
LINE
8
BLACK
6
CONTINUOUS
10
0.105547
20
0.853008
11
0.110987
21
0.840396
0
LINE
8
BLACK
6
CONTINUOUS
10
0.110987
20
0.840396
11
0.114927
21
0.827238
0
LINE
8
BLACK
6
CONTINUOUS
10
0.114927
20
0.827238
11
0.117312
21
0.813712
0
LINE
8
BLACK
6
CONTINUOUS
10
0.117312
20
0.813712
11
0.11811
21
0.8
0
LINE
8
BLACK
6
CONTINUOUS
10
0.11811
20
0.8
11
0.117312
21
0.786288
0
LINE
8
BLACK
6
CONTINUOUS
10
0.117312
20
0.786288
11
0.114927
21
0.772762
0
LINE
8
BLACK
6
CONTINUOUS
10
0.114927
20
0.772762
11
0.110987
21
0.759604
0
LINE
8
BLACK
6
CONTINUOUS
10
0.110987
20
0.759604
11
0.105547
21
0.746992
0
LINE
8
BLACK
6
CONTINUOUS
10
0.105547
20
0.746992
11
0.0986796
21
0.735097
0
LINE
8
BLACK
6
CONTINUOUS
10
0.0986796
20
0.735097
11
0.0904777
21
0.72408
0
LINE
8
BLACK
6
CONTINUOUS
10
0.0904777
20
0.72408
11
0.0810522
21
0.71409
0
LINE
8
BLACK
6
CONTINUOUS
10
0.0810522
20
0.71409
11
0.0705306
21
0.705261
0
LINE
8
BLACK
6
CONTINUOUS
10
0.0705306
20
0.705261
11
0.0590551
21
0.697714
0
LINE
8
BLACK
6
CONTINUOUS
10
0.0590551
20
0.697714
11
0.0467811
21
0.691549
0
LINE
8
BLACK
6
CONTINUOUS
10
0.0467811
20
0.691549
11
0.0338744
21
0.686852
0
LINE
8
BLACK
6
CONTINUOUS
10
0.0338744
20
0.686852
11
0.0205096
21
0.683684
0
LINE
8
BLACK
6
CONTINUOUS
10
0.0205096
20
0.683684
11
0.00686748
21
0.68209
0
LINE
8
BLACK
6
CONTINUOUS
10
0.00686748
20
0.68209
11
-0.00686748
21
0.68209
0
LINE
8
BLACK
6
CONTINUOUS
10
-0.00686748
20
0.68209
11
-0.0205096
21
0.683684
0
LINE
8
BLACK
6
CONTINUOUS
10
-0.0205096
20
0.683684
11
-0.0338744
21
0.686852
0
LINE
8
BLACK
6
CONTINUOUS
10
-0.0338744
20
0.686852
11
-0.0467811
21
0.691549
0
LINE
8
BLACK
6
CONTINUOUS
10
-0.0467811
20
0.691549
11
-0.0590551
21
0.697714
0
LINE
8
BLACK
6
CONTINUOUS
10
-0.0590551
20
0.697714
11
-0.0705306
21
0.705261
0
LINE
8
BLACK
6
CONTINUOUS
10
-0.0705306
20
0.705261
11
-0.0810522
21
0.71409
0
LINE
8
BLACK
6
CONTINUOUS
10
-0.0810522
20
0.71409
11
-0.0904777
21
0.72408
0
LINE
8
BLACK
6
CONTINUOUS
10
-0.0904777
20
0.72408
11
-0.0986796
21
0.735097
0
LINE
8
BLACK
6
CONTINUOUS
10
-0.0986796
20
0.735097
11
-0.105547
21
0.746992
0
LINE
8
BLACK
6
CONTINUOUS
10
-0.105547
20
0.746992
11
-0.110987
21
0.759604
0
LINE
8
BLACK
6
CONTINUOUS
10
-0.110987
20
0.759604
11
-0.114927
21
0.772762
0
LINE
8
BLACK
6
CONTINUOUS
10
-0.114927
20
0.772762
11
-0.117312
21
0.786288
0
LINE
8
BLACK
6
CONTINUOUS
10
-0.117312
20
0.786288
11
-0.11811
21
0.8
0
LINE
8
BLACK
6
CONTINUOUS
10
-0.11811
20
0.8
11
-0.117312
21
0.813712
0
LINE
8
BLACK
6
CONTINUOUS
10
-0.117312
20
0.813712
11
-0.114927
21
0.827238
0
LINE
8
BLACK
6
CONTINUOUS
10
-0.114927
20
0.827238
11
-0.110987
21
0.840396
0
LINE
8
BLACK
6
CONTINUOUS
10
-0.110987
20
0.840396
11
-0.105547
21
0.853008
0
LINE
8
BLACK
6
CONTINUOUS
10
-0.105547
20
0.853008
11
-0.0986796
21
0.864903
0
LINE
8
BLACK
6
CONTINUOUS
10
-0.0986796
20
0.864903
11
-0.0904777
21
0.87592
0
LINE
8
BLACK
6
CONTINUOUS
10
-0.0904777
20
0.87592
11
-0.0810522
21
0.88591
0
LINE
8
BLACK
6
CONTINUOUS
10
-0.0810522
20
0.88591
11
-0.0705306
21
0.894739
0
LINE
8
BLACK
6
CONTINUOUS
10
-0.0705306
20
0.894739
11
-0.0590551
21
0.902286
0
LINE
8
BLACK
6
CONTINUOUS
10
-0.0590551
20
0.902286
11
-0.0467811
21
0.908451
0
LINE
8
BLACK
6
CONTINUOUS
10
-0.0467811
20
0.908451
11
-0.0338744
21
0.913148
0
LINE
8
BLACK
6
CONTINUOUS
10
-0.0338744
20
0.913148
11
-0.0205096
21
0.916316
0
LINE
8
BLACK
6
CONTINUOUS
10
-0.0205096
20
0.916316
11
-0.00686748
21
0.91791
0
LINE
8
BLACK
6
CONTINUOUS
10
-0.00686748
20
0.91791
11
0.00686748
21
0.91791
0
LINE
8
BLACK
6
CONTINUOUS
10
0.00686748
20
0.91791
11
0.0205096
21
0.916316
0
LINE
8
BLACK
6
CONTINUOUS
10
1.62051
20
0.916316
11
1.63387
21
0.913148
0
LINE
8
BLACK
6
CONTINUOUS
10
1.63387
20
0.913148
11
1.64678
21
0.908451
0
LINE
8
BLACK
6
CONTINUOUS
10
1.64678
20
0.908451
11
1.65906
21
0.902286
0
LINE
8
BLACK
6
CONTINUOUS
10
1.65906
20
0.902286
11
1.67053
21
0.894739
0
LINE
8
BLACK
6
CONTINUOUS
10
1.67053
20
0.894739
11
1.68105
21
0.88591
0
LINE
8
BLACK
6
CONTINUOUS
10
1.68105
20
0.88591
11
1.69048
21
0.87592
0
LINE
8
BLACK
6
CONTINUOUS
10
1.69048
20
0.87592
11
1.69868
21
0.864903
0
LINE
8
BLACK
6
CONTINUOUS
10
1.69868
20
0.864903
11
1.70555
21
0.853008
0
LINE
8
BLACK
6
CONTINUOUS
10
1.70555
20
0.853008
11
1.71099
21
0.840396
0
LINE
8
BLACK
6
CONTINUOUS
10
1.71099
20
0.840396
11
1.71493
21
0.827238
0
LINE
8
BLACK
6
CONTINUOUS
10
1.71493
20
0.827238
11
1.71731
21
0.813712
0
LINE
8
BLACK
6
CONTINUOUS
10
1.71731
20
0.813712
11
1.71811
21
0.8
0
LINE
8
BLACK
6
CONTINUOUS
10
1.71811
20
0.8
11
1.71731
21
0.786288
0
LINE
8
BLACK
6
CONTINUOUS
10
1.71731
20
0.786288
11
1.71493
21
0.772762
0
LINE
8
BLACK
6
CONTINUOUS
10
1.71493
20
0.772762
11
1.71099
21
0.759604
0
LINE
8
BLACK
6
CONTINUOUS
10
1.71099
20
0.759604
11
1.70555
21
0.746992
0
LINE
8
BLACK
6
CONTINUOUS
10
1.70555
20
0.746992
11
1.69868
21
0.735097
0
LINE
8
BLACK
6
CONTINUOUS
10
1.69868
20
0.735097
11
1.69048
21
0.72408
0
LINE
8
BLACK
6
CONTINUOUS
10
1.69048
20
0.72408
11
1.68105
21
0.71409
0
LINE
8
BLACK
6
CONTINUOUS
10
1.68105
20
0.71409
11
1.67053
21
0.705261
0
LINE
8
BLACK
6
CONTINUOUS
10
1.67053
20
0.705261
11
1.65906
21
0.697714
0
LINE
8
BLACK
6
CONTINUOUS
10
1.65906
20
0.697714
11
1.64678
21
0.691549
0
LINE
8
BLACK
6
CONTINUOUS
10
1.64678
20
0.691549
11
1.63387
21
0.686852
0
LINE
8
BLACK
6
CONTINUOUS
10
1.63387
20
0.686852
11
1.62051
21
0.683684
0
LINE
8
BLACK
6
CONTINUOUS
10
1.62051
20
0.683684
11
1.60687
21
0.68209
0
LINE
8
BLACK
6
CONTINUOUS
10
1.60687
20
0.68209
11
1.59313
21
0.68209
0
LINE
8
BLACK
6
CONTINUOUS
10
1.59313
20
0.68209
11
1.57949
21
0.683684
0
LINE
8
BLACK
6
CONTINUOUS
10
1.57949
20
0.683684
11
1.56613
21
0.686852
0
LINE
8
BLACK
6
CONTINUOUS
10
1.56613
20
0.686852
11
1.55322
21
0.691549
0
LINE
8
BLACK
6
CONTINUOUS
10
1.55322
20
0.691549
11
1.54094
21
0.697714
0
LINE
8
BLACK
6
CONTINUOUS
10
1.54094
20
0.697714
11
1.52947
21
0.705261
0
LINE
8
BLACK
6
CONTINUOUS
10
1.52947
20
0.705261
11
1.51895
21
0.71409
0
LINE
8
BLACK
6
CONTINUOUS
10
1.51895
20
0.71409
11
1.50952
21
0.72408
0
LINE
8
BLACK
6
CONTINUOUS
10
1.50952
20
0.72408
11
1.50132
21
0.735097
0
LINE
8
BLACK
6
CONTINUOUS
10
1.50132
20
0.735097
11
1.49445
21
0.746992
0
LINE
8
BLACK
6
CONTINUOUS
10
1.49445
20
0.746992
11
1.48901
21
0.759604
0
LINE
8
BLACK
6
CONTINUOUS
10
1.48901
20
0.759604
11
1.48507
21
0.772762
0
LINE
8
BLACK
6
CONTINUOUS
10
1.48507
20
0.772762
11
1.48269
21
0.786288
0
LINE
8
BLACK
6
CONTINUOUS
10
1.48269
20
0.786288
11
1.48189
21
0.8
0
LINE
8
BLACK
6
CONTINUOUS
10
1.48189
20
0.8
11
1.48269
21
0.813712
0
LINE
8
BLACK
6
CONTINUOUS
10
1.48269
20
0.813712
11
1.48507
21
0.827238
0
LINE
8
BLACK
6
CONTINUOUS
10
1.48507
20
0.827238
11
1.48901
21
0.840396
0
LINE
8
BLACK
6
CONTINUOUS
10
1.48901
20
0.840396
11
1.49445
21
0.853008
0
LINE
8
BLACK
6
CONTINUOUS
10
1.49445
20
0.853008
11
1.50132
21
0.864903
0
LINE
8
BLACK
6
CONTINUOUS
10
1.50132
20
0.864903
11
1.50952
21
0.87592
0
LINE
8
BLACK
6
CONTINUOUS
10
1.50952
20
0.87592
11
1.51895
21
0.88591
0
LINE
8
BLACK
6
CONTINUOUS
10
1.51895
20
0.88591
11
1.52947
21
0.894739
0
LINE
8
BLACK
6
CONTINUOUS
10
1.52947
20
0.894739
11
1.54094
21
0.902286
0
LINE
8
BLACK
6
CONTINUOUS
10
1.54094
20
0.902286
11
1.55322
21
0.908451
0
LINE
8
BLACK
6
CONTINUOUS
10
1.55322
20
0.908451
11
1.56613
21
0.913148
0
LINE
8
BLACK
6
CONTINUOUS
10
1.56613
20
0.913148
11
1.57949
21
0.916316
0
LINE
8
BLACK
6
CONTINUOUS
10
1.57949
20
0.916316
11
1.59313
21
0.91791
0
LINE
8
BLACK
6
CONTINUOUS
10
1.59313
20
0.91791
11
1.60687
21
0.91791
0
LINE
8
BLACK
6
CONTINUOUS
10
1.60687
20
0.91791
11
1.62051
21
0.916316
  0
ENDSEC
  0
EOF
