  0
SECTION
  2
HEADER
  9
$ANGBASE
  50
0.0
  9
$ANGDIR
  70
1
  9
$MEASUREMENT
  70
0
  0
ENDSEC
  0
SECTION
  2
TABLES
  0
TABLE
  2
LTYPE
  70
4
  0
LTYPE
  5
40F
  2
CONTINUOUS
  70
0
  3
Solid line
  72
65
  73
0
  40
0.0
  0
LTYPE
  5
410
  2
DASHDOT
 70
0
  3
Dash Dot ____ _ ____ _
 72
65
 73
4
 40
2.0
 49
1.25
 49
-0.25
 49
0.25
 49
-0.25
  0
LTYPE
  5
411
  2
DASHED
 70
0
  3
Dashed __ __ __ __ __
 72
65
 73
2
 40
0.75
 49
0.5
 49
-0.25
  0
LTYPE
  5
43B
  2
DOTTED
 70
0
  3
Dotted .  .  .  .
 72
65
 73
2
 40
0.2
 49
0.0
 49
-0.2
  0
ENDTAB
  0
TABLE
  2
STYLE
  70
4
  0
STYLE
  2
KICAD
  70
0
  40
0
  41
1
  42
1
  50
0
  71
0
  3
isocp.shx
  0
STYLE
  2
KICADB
  70
0
  40
0
  41
1
  42
1
  50
0
  71
0
  3
isocp.shx
  0
STYLE
  2
KICADI
  70
0
  40
0
  41
1
  42
1
  50
15
  71
0
  3
isocp.shx
  0
STYLE
  2
KICADBI
  70
0
  40
0
  41
1
  42
1
  50
15
  71
0
  3
isocp.shx
  0
ENDTAB
  0
TABLE
  2
LAYER
  70
1
  0
LAYER
  2
BLACK
  70
0
  62
7
  6
CONTINUOUS
  0
ENDTAB
  0
ENDSEC
  0
SECTION
  2
ENTITIES
0
LINE
8
BLACK
6
CONTINUOUS
10
1.22501
20
-0.0627254
11
1.22757
21
-0.0644322
0
LINE
8
BLACK
6
CONTINUOUS
10
1.22757
20
-0.0644322
11
1.22927
21
-0.0669867
0
LINE
8
BLACK
6
CONTINUOUS
10
1.22927
20
-0.0669867
11
1.22987
21
-0.07
0
LINE
8
BLACK
6
CONTINUOUS
10
1.22987
20
-0.07
11
1.22987
21
-0.13
0
LINE
8
BLACK
6
CONTINUOUS
10
1.22987
20
-0.13
11
1.22927
21
-0.133013
0
LINE
8
BLACK
6
CONTINUOUS
10
1.22927
20
-0.133013
11
1.22757
21
-0.135568
0
LINE
8
BLACK
6
CONTINUOUS
10
1.22757
20
-0.135568
11
1.22501
21
-0.137275
0
LINE
8
BLACK
6
CONTINUOUS
10
1.22501
20
-0.137275
11
1.222
21
-0.137874
0
LINE
8
BLACK
6
CONTINUOUS
10
1.222
20
-0.137874
11
1.162
21
-0.137874
0
LINE
8
BLACK
6
CONTINUOUS
10
1.162
20
-0.137874
11
1.15899
21
-0.137275
0
LINE
8
BLACK
6
CONTINUOUS
10
1.15899
20
-0.137275
11
1.15643
21
-0.135568
0
LINE
8
BLACK
6
CONTINUOUS
10
1.15643
20
-0.135568
11
1.15473
21
-0.133013
0
LINE
8
BLACK
6
CONTINUOUS
10
1.15473
20
-0.133013
11
1.15413
21
-0.13
0
LINE
8
BLACK
6
CONTINUOUS
10
1.15413
20
-0.13
11
1.15413
21
-0.07
0
LINE
8
BLACK
6
CONTINUOUS
10
1.15413
20
-0.07
11
1.15473
21
-0.0669867
0
LINE
8
BLACK
6
CONTINUOUS
10
1.15473
20
-0.0669867
11
1.15643
21
-0.0644322
0
LINE
8
BLACK
6
CONTINUOUS
10
1.15643
20
-0.0644322
11
1.15899
21
-0.0627254
0
LINE
8
BLACK
6
CONTINUOUS
10
1.15899
20
-0.0627254
11
1.162
21
-0.062126
0
LINE
8
BLACK
6
CONTINUOUS
10
1.162
20
-0.062126
11
1.222
21
-0.062126
0
LINE
8
BLACK
6
CONTINUOUS
10
1.222
20
-0.062126
11
1.22501
21
-0.0627254
0
LINE
8
BLACK
6
CONTINUOUS
10
1.12501
20
-0.0627254
11
1.12757
21
-0.0644322
0
LINE
8
BLACK
6
CONTINUOUS
10
1.12757
20
-0.0644322
11
1.12927
21
-0.0669867
0
LINE
8
BLACK
6
CONTINUOUS
10
1.12927
20
-0.0669867
11
1.12987
21
-0.07
0
LINE
8
BLACK
6
CONTINUOUS
10
1.12987
20
-0.07
11
1.12987
21
-0.13
0
LINE
8
BLACK
6
CONTINUOUS
10
1.12987
20
-0.13
11
1.12927
21
-0.133013
0
LINE
8
BLACK
6
CONTINUOUS
10
1.12927
20
-0.133013
11
1.12757
21
-0.135568
0
LINE
8
BLACK
6
CONTINUOUS
10
1.12757
20
-0.135568
11
1.12501
21
-0.137275
0
LINE
8
BLACK
6
CONTINUOUS
10
1.12501
20
-0.137275
11
1.122
21
-0.137874
0
LINE
8
BLACK
6
CONTINUOUS
10
1.122
20
-0.137874
11
1.062
21
-0.137874
0
LINE
8
BLACK
6
CONTINUOUS
10
1.062
20
-0.137874
11
1.05899
21
-0.137275
0
LINE
8
BLACK
6
CONTINUOUS
10
1.05899
20
-0.137275
11
1.05643
21
-0.135568
0
LINE
8
BLACK
6
CONTINUOUS
10
1.05643
20
-0.135568
11
1.05473
21
-0.133013
0
LINE
8
BLACK
6
CONTINUOUS
10
1.05473
20
-0.133013
11
1.05413
21
-0.13
0
LINE
8
BLACK
6
CONTINUOUS
10
1.05413
20
-0.13
11
1.05413
21
-0.07
0
LINE
8
BLACK
6
CONTINUOUS
10
1.05413
20
-0.07
11
1.05473
21
-0.0669867
0
LINE
8
BLACK
6
CONTINUOUS
10
1.05473
20
-0.0669867
11
1.05643
21
-0.0644322
0
LINE
8
BLACK
6
CONTINUOUS
10
1.05643
20
-0.0644322
11
1.05899
21
-0.0627254
0
LINE
8
BLACK
6
CONTINUOUS
10
1.05899
20
-0.0627254
11
1.062
21
-0.062126
0
LINE
8
BLACK
6
CONTINUOUS
10
1.062
20
-0.062126
11
1.122
21
-0.062126
0
LINE
8
BLACK
6
CONTINUOUS
10
1.122
20
-0.062126
11
1.12501
21
-0.0627254
0
LINE
8
BLACK
6
CONTINUOUS
10
1.02501
20
-0.0627254
11
1.02757
21
-0.0644322
0
LINE
8
BLACK
6
CONTINUOUS
10
1.02757
20
-0.0644322
11
1.02927
21
-0.0669867
0
LINE
8
BLACK
6
CONTINUOUS
10
1.02927
20
-0.0669867
11
1.02987
21
-0.07
0
LINE
8
BLACK
6
CONTINUOUS
10
1.02987
20
-0.07
11
1.02987
21
-0.13
0
LINE
8
BLACK
6
CONTINUOUS
10
1.02987
20
-0.13
11
1.02927
21
-0.133013
0
LINE
8
BLACK
6
CONTINUOUS
10
1.02927
20
-0.133013
11
1.02757
21
-0.135568
0
LINE
8
BLACK
6
CONTINUOUS
10
1.02757
20
-0.135568
11
1.02501
21
-0.137275
0
LINE
8
BLACK
6
CONTINUOUS
10
1.02501
20
-0.137275
11
1.022
21
-0.137874
0
LINE
8
BLACK
6
CONTINUOUS
10
1.022
20
-0.137874
11
0.962
21
-0.137874
0
LINE
8
BLACK
6
CONTINUOUS
10
0.962
20
-0.137874
11
0.958987
21
-0.137275
0
LINE
8
BLACK
6
CONTINUOUS
10
0.958987
20
-0.137275
11
0.956432
21
-0.135568
0
LINE
8
BLACK
6
CONTINUOUS
10
0.956432
20
-0.135568
11
0.954725
21
-0.133013
0
LINE
8
BLACK
6
CONTINUOUS
10
0.954725
20
-0.133013
11
0.954126
21
-0.13
0
LINE
8
BLACK
6
CONTINUOUS
10
0.954126
20
-0.13
11
0.954126
21
-0.07
0
LINE
8
BLACK
6
CONTINUOUS
10
0.954126
20
-0.07
11
0.954725
21
-0.0669867
0
LINE
8
BLACK
6
CONTINUOUS
10
0.954725
20
-0.0669867
11
0.956432
21
-0.0644322
0
LINE
8
BLACK
6
CONTINUOUS
10
0.956432
20
-0.0644322
11
0.958987
21
-0.0627254
0
LINE
8
BLACK
6
CONTINUOUS
10
0.958987
20
-0.0627254
11
0.962
21
-0.062126
0
LINE
8
BLACK
6
CONTINUOUS
10
0.962
20
-0.062126
11
1.022
21
-0.062126
0
LINE
8
BLACK
6
CONTINUOUS
10
1.022
20
-0.062126
11
1.02501
21
-0.0627254
0
LINE
8
BLACK
6
CONTINUOUS
10
0.925013
20
-0.0627254
11
0.927568
21
-0.0644322
0
LINE
8
BLACK
6
CONTINUOUS
10
0.927568
20
-0.0644322
11
0.929275
21
-0.0669867
0
LINE
8
BLACK
6
CONTINUOUS
10
0.929275
20
-0.0669867
11
0.929874
21
-0.07
0
LINE
8
BLACK
6
CONTINUOUS
10
0.929874
20
-0.07
11
0.929874
21
-0.13
0
LINE
8
BLACK
6
CONTINUOUS
10
0.929874
20
-0.13
11
0.929275
21
-0.133013
0
LINE
8
BLACK
6
CONTINUOUS
10
0.929275
20
-0.133013
11
0.927568
21
-0.135568
0
LINE
8
BLACK
6
CONTINUOUS
10
0.927568
20
-0.135568
11
0.925013
21
-0.137275
0
LINE
8
BLACK
6
CONTINUOUS
10
0.925013
20
-0.137275
11
0.922
21
-0.137874
0
LINE
8
BLACK
6
CONTINUOUS
10
0.922
20
-0.137874
11
0.862
21
-0.137874
0
LINE
8
BLACK
6
CONTINUOUS
10
0.862
20
-0.137874
11
0.858987
21
-0.137275
0
LINE
8
BLACK
6
CONTINUOUS
10
0.858987
20
-0.137275
11
0.856432
21
-0.135568
0
LINE
8
BLACK
6
CONTINUOUS
10
0.856432
20
-0.135568
11
0.854725
21
-0.133013
0
LINE
8
BLACK
6
CONTINUOUS
10
0.854725
20
-0.133013
11
0.854126
21
-0.13
0
LINE
8
BLACK
6
CONTINUOUS
10
0.854126
20
-0.13
11
0.854126
21
-0.07
0
LINE
8
BLACK
6
CONTINUOUS
10
0.854126
20
-0.07
11
0.854725
21
-0.0669867
0
LINE
8
BLACK
6
CONTINUOUS
10
0.854725
20
-0.0669867
11
0.856432
21
-0.0644322
0
LINE
8
BLACK
6
CONTINUOUS
10
0.856432
20
-0.0644322
11
0.858987
21
-0.0627254
0
LINE
8
BLACK
6
CONTINUOUS
10
0.858987
20
-0.0627254
11
0.862
21
-0.062126
0
LINE
8
BLACK
6
CONTINUOUS
10
0.862
20
-0.062126
11
0.922
21
-0.062126
0
LINE
8
BLACK
6
CONTINUOUS
10
0.922
20
-0.062126
11
0.925013
21
-0.0627254
0
LINE
8
BLACK
6
CONTINUOUS
10
0.825013
20
-0.0627254
11
0.827568
21
-0.0644322
0
LINE
8
BLACK
6
CONTINUOUS
10
0.827568
20
-0.0644322
11
0.829275
21
-0.0669867
0
LINE
8
BLACK
6
CONTINUOUS
10
0.829275
20
-0.0669867
11
0.829874
21
-0.07
0
LINE
8
BLACK
6
CONTINUOUS
10
0.829874
20
-0.07
11
0.829874
21
-0.13
0
LINE
8
BLACK
6
CONTINUOUS
10
0.829874
20
-0.13
11
0.829275
21
-0.133013
0
LINE
8
BLACK
6
CONTINUOUS
10
0.829275
20
-0.133013
11
0.827568
21
-0.135568
0
LINE
8
BLACK
6
CONTINUOUS
10
0.827568
20
-0.135568
11
0.825013
21
-0.137275
0
LINE
8
BLACK
6
CONTINUOUS
10
0.825013
20
-0.137275
11
0.822
21
-0.137874
0
LINE
8
BLACK
6
CONTINUOUS
10
0.822
20
-0.137874
11
0.762
21
-0.137874
0
LINE
8
BLACK
6
CONTINUOUS
10
0.762
20
-0.137874
11
0.758987
21
-0.137275
0
LINE
8
BLACK
6
CONTINUOUS
10
0.758987
20
-0.137275
11
0.756432
21
-0.135568
0
LINE
8
BLACK
6
CONTINUOUS
10
0.756432
20
-0.135568
11
0.754725
21
-0.133013
0
LINE
8
BLACK
6
CONTINUOUS
10
0.754725
20
-0.133013
11
0.754126
21
-0.13
0
LINE
8
BLACK
6
CONTINUOUS
10
0.754126
20
-0.13
11
0.754126
21
-0.07
0
LINE
8
BLACK
6
CONTINUOUS
10
0.754126
20
-0.07
11
0.754725
21
-0.0669867
0
LINE
8
BLACK
6
CONTINUOUS
10
0.754725
20
-0.0669867
11
0.756432
21
-0.0644322
0
LINE
8
BLACK
6
CONTINUOUS
10
0.756432
20
-0.0644322
11
0.758987
21
-0.0627254
0
LINE
8
BLACK
6
CONTINUOUS
10
0.758987
20
-0.0627254
11
0.762
21
-0.062126
0
LINE
8
BLACK
6
CONTINUOUS
10
0.762
20
-0.062126
11
0.822
21
-0.062126
0
LINE
8
BLACK
6
CONTINUOUS
10
0.822
20
-0.062126
11
0.825013
21
-0.0627254
0
LINE
8
BLACK
6
CONTINUOUS
10
1.61492
20
0.125098
11
1.62877
21
0.122656
0
LINE
8
BLACK
6
CONTINUOUS
10
1.62877
20
0.122656
11
1.64226
21
0.118684
0
LINE
8
BLACK
6
CONTINUOUS
10
1.64226
20
0.118684
11
1.65523
21
0.113234
0
LINE
8
BLACK
6
CONTINUOUS
10
1.65523
20
0.113234
11
1.66751
21
0.106372
0
LINE
8
BLACK
6
CONTINUOUS
10
1.66751
20
0.106372
11
1.67894
21
0.0981843
0
LINE
8
BLACK
6
CONTINUOUS
10
1.67894
20
0.0981843
11
1.68939
21
0.0887728
0
LINE
8
BLACK
6
CONTINUOUS
10
1.68939
20
0.0887728
11
1.69873
21
0.0782548
0
LINE
8
BLACK
6
CONTINUOUS
10
1.69873
20
0.0782548
11
1.70684
21
0.0667615
0
LINE
8
BLACK
6
CONTINUOUS
10
1.70684
20
0.0667615
11
1.71362
21
0.054436
0
LINE
8
BLACK
6
CONTINUOUS
10
1.71362
20
0.054436
11
1.71898
21
0.041432
0
LINE
8
BLACK
6
CONTINUOUS
10
1.71898
20
0.041432
11
1.72285
21
0.0279116
0
LINE
8
BLACK
6
CONTINUOUS
10
1.72285
20
0.0279116
11
1.7252
21
0.0140433
0
LINE
8
BLACK
6
CONTINUOUS
10
1.7252
20
0.0140433
11
1.72598
21
0
0
LINE
8
BLACK
6
CONTINUOUS
10
1.72598
20
0
11
1.72594
21
-0.00351768
0
LINE
8
BLACK
6
CONTINUOUS
10
1.72594
20
-0.00351768
11
1.72476
21
-0.0175336
0
LINE
8
BLACK
6
CONTINUOUS
10
1.72476
20
-0.0175336
11
1.72203
21
-0.031331
0
LINE
8
BLACK
6
CONTINUOUS
10
1.72203
20
-0.031331
11
1.71777
21
-0.0447379
0
LINE
8
BLACK
6
CONTINUOUS
10
1.71777
20
-0.0447379
11
1.71205
21
-0.0575871
0
LINE
8
BLACK
6
CONTINUOUS
10
1.71205
20
-0.0575871
11
1.70493
21
-0.0697186
0
LINE
8
BLACK
6
CONTINUOUS
10
1.70493
20
-0.0697186
11
1.69651
21
-0.0809811
0
LINE
8
BLACK
6
CONTINUOUS
10
1.69651
20
-0.0809811
11
1.68688
21
-0.0912343
0
LINE
8
BLACK
6
CONTINUOUS
10
1.68688
20
-0.0912343
11
1.67617
21
-0.10035
0
LINE
8
BLACK
6
CONTINUOUS
10
1.67617
20
-0.10035
11
1.66451
21
-0.108215
0
LINE
8
BLACK
6
CONTINUOUS
10
1.66451
20
-0.108215
11
1.65204
21
-0.114732
0
LINE
8
BLACK
6
CONTINUOUS
10
1.65204
20
-0.114732
11
1.63893
21
-0.119818
0
LINE
8
BLACK
6
CONTINUOUS
10
1.63893
20
-0.119818
11
1.62533
21
-0.123411
0
LINE
8
BLACK
6
CONTINUOUS
10
1.62533
20
-0.123411
11
1.61142
21
-0.125466
0
LINE
8
BLACK
6
CONTINUOUS
10
1.61142
20
-0.125466
11
1.59736
21
-0.125957
0
LINE
8
BLACK
6
CONTINUOUS
10
1.59736
20
-0.125957
11
1.58334
21
-0.124878
0
LINE
8
BLACK
6
CONTINUOUS
10
1.58334
20
-0.124878
11
1.56952
21
-0.122242
0
LINE
8
BLACK
6
CONTINUOUS
10
1.56952
20
-0.122242
11
1.55609
21
-0.118083
0
LINE
8
BLACK
6
CONTINUOUS
10
1.55609
20
-0.118083
11
1.5432
21
-0.112452
0
LINE
8
BLACK
6
CONTINUOUS
10
1.5432
20
-0.112452
11
1.53102
21
-0.105419
0
LINE
8
BLACK
6
CONTINUOUS
10
1.53102
20
-0.105419
11
1.51969
21
-0.0970725
0
LINE
8
BLACK
6
CONTINUOUS
10
1.51969
20
-0.0970725
11
1.50937
21
-0.087516
0
LINE
8
BLACK
6
CONTINUOUS
10
1.50937
20
-0.087516
11
1.50018
21
-0.0768687
0
LINE
8
BLACK
6
CONTINUOUS
10
1.50018
20
-0.0768687
11
1.49224
21
-0.0652632
0
LINE
8
BLACK
6
CONTINUOUS
10
1.49224
20
-0.0652632
11
1.48563
21
-0.0528444
0
LINE
8
BLACK
6
CONTINUOUS
10
1.48563
20
-0.0528444
11
1.48046
21
-0.0397668
0
LINE
8
BLACK
6
CONTINUOUS
10
1.48046
20
-0.0397668
11
1.47677
21
-0.0261936
0
LINE
8
BLACK
6
CONTINUOUS
10
1.47677
20
-0.0261936
11
1.47462
21
-0.0122939
0
LINE
8
BLACK
6
CONTINUOUS
10
1.47462
20
-0.0122939
11
1.47403
21
0.00175902
0
LINE
8
BLACK
6
CONTINUOUS
10
1.47403
20
0.00175902
11
1.47501
21
0.01579
0
LINE
8
BLACK
6
CONTINUOUS
10
1.47501
20
0.01579
11
1.47755
21
0.0296242
0
LINE
8
BLACK
6
CONTINUOUS
10
1.47755
20
0.0296242
11
1.48161
21
0.0430891
0
LINE
8
BLACK
6
CONTINUOUS
10
1.48161
20
0.0430891
11
1.48715
21
0.056017
0
LINE
8
BLACK
6
CONTINUOUS
10
1.48715
20
0.056017
11
1.4941
21
0.0682467
0
LINE
8
BLACK
6
CONTINUOUS
10
1.4941
20
0.0682467
11
1.50237
21
0.0796257
0
LINE
8
BLACK
6
CONTINUOUS
10
1.50237
20
0.0796257
11
1.51185
21
0.0900123
0
LINE
8
BLACK
6
CONTINUOUS
10
1.51185
20
0.0900123
11
1.52244
21
0.0992769
0
LINE
8
BLACK
6
CONTINUOUS
10
1.52244
20
0.0992769
11
1.53399
21
0.107304
0
LINE
8
BLACK
6
CONTINUOUS
10
1.53399
20
0.107304
11
1.54636
21
0.113994
0
LINE
8
BLACK
6
CONTINUOUS
10
1.54636
20
0.113994
11
1.5594
21
0.119263
0
LINE
8
BLACK
6
CONTINUOUS
10
1.5594
20
0.119263
11
1.57295
21
0.123045
0
LINE
8
BLACK
6
CONTINUOUS
10
1.57295
20
0.123045
11
1.58683
21
0.125294
0
LINE
8
BLACK
6
CONTINUOUS
10
1.58683
20
0.125294
11
1.60088
21
0.125981
0
LINE
8
BLACK
6
CONTINUOUS
10
1.60088
20
0.125981
11
1.61492
21
0.125098
0
LINE
8
BLACK
6
CONTINUOUS
10
0.014917
20
0.125098
11
0.0287686
21
0.122656
0
LINE
8
BLACK
6
CONTINUOUS
10
0.0287686
20
0.122656
11
0.0422616
21
0.118684
0
LINE
8
BLACK
6
CONTINUOUS
10
0.0422616
20
0.118684
11
0.0552279
21
0.113234
0
LINE
8
BLACK
6
CONTINUOUS
10
0.0552279
20
0.113234
11
0.0675057
21
0.106372
0
LINE
8
BLACK
6
CONTINUOUS
10
0.0675057
20
0.106372
11
0.0789422
21
0.0981843
0
LINE
8
BLACK
6
CONTINUOUS
10
0.0789422
20
0.0981843
11
0.0893947
21
0.0887728
0
LINE
8
BLACK
6
CONTINUOUS
10
0.0893947
20
0.0887728
11
0.098733
21
0.0782548
0
LINE
8
BLACK
6
CONTINUOUS
10
0.098733
20
0.0782548
11
0.106841
21
0.0667615
0
LINE
8
BLACK
6
CONTINUOUS
10
0.106841
20
0.0667615
11
0.113617
21
0.054436
0
LINE
8
BLACK
6
CONTINUOUS
10
0.113617
20
0.054436
11
0.118977
21
0.041432
0
LINE
8
BLACK
6
CONTINUOUS
10
0.118977
20
0.041432
11
0.122853
21
0.0279116
0
LINE
8
BLACK
6
CONTINUOUS
10
0.122853
20
0.0279116
11
0.125199
21
0.0140433
0
LINE
8
BLACK
6
CONTINUOUS
10
0.125199
20
0.0140433
11
0.125984
21
0
0
LINE
8
BLACK
6
CONTINUOUS
10
0.125984
20
0
11
0.125935
21
-0.00351768
0
LINE
8
BLACK
6
CONTINUOUS
10
0.125935
20
-0.00351768
11
0.124758
21
-0.0175336
0
LINE
8
BLACK
6
CONTINUOUS
10
0.124758
20
-0.0175336
11
0.122026
21
-0.031331
0
LINE
8
BLACK
6
CONTINUOUS
10
0.122026
20
-0.031331
11
0.117773
21
-0.0447379
0
LINE
8
BLACK
6
CONTINUOUS
10
0.117773
20
-0.0447379
11
0.112052
21
-0.0575871
0
LINE
8
BLACK
6
CONTINUOUS
10
0.112052
20
-0.0575871
11
0.104935
21
-0.0697186
0
LINE
8
BLACK
6
CONTINUOUS
10
0.104935
20
-0.0697186
11
0.0965095
21
-0.0809811
0
LINE
8
BLACK
6
CONTINUOUS
10
0.0965095
20
-0.0809811
11
0.0868812
21
-0.0912343
0
LINE
8
BLACK
6
CONTINUOUS
10
0.0868812
20
-0.0912343
11
0.07617
21
-0.10035
0
LINE
8
BLACK
6
CONTINUOUS
10
0.07617
20
-0.10035
11
0.0645093
21
-0.108215
0
LINE
8
BLACK
6
CONTINUOUS
10
0.0645093
20
-0.108215
11
0.0520446
21
-0.114732
0
LINE
8
BLACK
6
CONTINUOUS
10
0.0520446
20
-0.114732
11
0.0389313
21
-0.119818
0
LINE
8
BLACK
6
CONTINUOUS
10
0.0389313
20
-0.119818
11
0.0253326
21
-0.123411
0
LINE
8
BLACK
6
CONTINUOUS
10
0.0253326
20
-0.123411
11
0.0114183
21
-0.125466
0
LINE
8
BLACK
6
CONTINUOUS
10
0.0114183
20
-0.125466
11
-0.00263843
21
-0.125957
0
LINE
8
BLACK
6
CONTINUOUS
10
-0.00263843
20
-0.125957
11
-0.0166622
21
-0.124878
0
LINE
8
BLACK
6
CONTINUOUS
10
-0.0166622
20
-0.124878
11
-0.0304783
21
-0.122242
0
LINE
8
BLACK
6
CONTINUOUS
10
-0.0304783
20
-0.122242
11
-0.0439146
21
-0.118083
0
LINE
8
BLACK
6
CONTINUOUS
10
-0.0439146
20
-0.118083
11
-0.0568035
21
-0.112452
0
LINE
8
BLACK
6
CONTINUOUS
10
-0.0568035
20
-0.112452
11
-0.0689843
21
-0.105419
0
LINE
8
BLACK
6
CONTINUOUS
10
-0.0689843
20
-0.105419
11
-0.0803054
21
-0.0970725
0
LINE
8
BLACK
6
CONTINUOUS
10
-0.0803054
20
-0.0970725
11
-0.0906255
21
-0.087516
0
LINE
8
BLACK
6
CONTINUOUS
10
-0.0906255
20
-0.087516
11
-0.099816
21
-0.0768687
0
LINE
8
BLACK
6
CONTINUOUS
10
-0.099816
20
-0.0768687
11
-0.107762
21
-0.0652632
0
LINE
8
BLACK
6
CONTINUOUS
10
-0.107762
20
-0.0652632
11
-0.114366
21
-0.0528444
0
LINE
8
BLACK
6
CONTINUOUS
10
-0.114366
20
-0.0528444
11
-0.119543
21
-0.0397668
0
LINE
8
BLACK
6
CONTINUOUS
10
-0.119543
20
-0.0397668
11
-0.123231
21
-0.0261936
0
LINE
8
BLACK
6
CONTINUOUS
10
-0.123231
20
-0.0261936
11
-0.125383
21
-0.0122939
0
LINE
8
BLACK
6
CONTINUOUS
10
-0.125383
20
-0.0122939
11
-0.125972
21
0.00175902
0
LINE
8
BLACK
6
CONTINUOUS
10
-0.125972
20
0.00175902
11
-0.124991
21
0.01579
0
LINE
8
BLACK
6
CONTINUOUS
10
-0.124991
20
0.01579
11
-0.122452
21
0.0296242
0
LINE
8
BLACK
6
CONTINUOUS
10
-0.122452
20
0.0296242
11
-0.118386
21
0.0430891
0
LINE
8
BLACK
6
CONTINUOUS
10
-0.118386
20
0.0430891
11
-0.112846
21
0.056017
0
LINE
8
BLACK
6
CONTINUOUS
10
-0.112846
20
0.056017
11
-0.105898
21
0.0682467
0
LINE
8
BLACK
6
CONTINUOUS
10
-0.105898
20
0.0682467
11
-0.0976308
21
0.0796257
0
LINE
8
BLACK
6
CONTINUOUS
10
-0.0976308
20
0.0796257
11
-0.0881466
21
0.0900123
0
LINE
8
BLACK
6
CONTINUOUS
10
-0.0881466
20
0.0900123
11
-0.0775637
21
0.0992769
0
LINE
8
BLACK
6
CONTINUOUS
10
-0.0775637
20
0.0992769
11
-0.066014
21
0.107304
0
LINE
8
BLACK
6
CONTINUOUS
10
-0.066014
20
0.107304
11
-0.0536415
21
0.113994
0
LINE
8
BLACK
6
CONTINUOUS
10
-0.0536415
20
0.113994
11
-0.0406004
21
0.119263
0
LINE
8
BLACK
6
CONTINUOUS
10
-0.0406004
20
0.119263
11
-0.0270533
21
0.123045
0
LINE
8
BLACK
6
CONTINUOUS
10
-0.0270533
20
0.123045
11
-0.0131689
21
0.125294
0
LINE
8
BLACK
6
CONTINUOUS
10
-0.0131689
20
0.125294
11
0.000879528
21
0.125981
0
LINE
8
BLACK
6
CONTINUOUS
10
0.000879528
20
0.125981
11
0.014917
21
0.125098
0
LINE
8
BLACK
6
CONTINUOUS
10
1.22501
20
0.0372746
11
1.22757
21
0.0355678
0
LINE
8
BLACK
6
CONTINUOUS
10
1.22757
20
0.0355678
11
1.22927
21
0.0330133
0
LINE
8
BLACK
6
CONTINUOUS
10
1.22927
20
0.0330133
11
1.22987
21
0.03
0
LINE
8
BLACK
6
CONTINUOUS
10
1.22987
20
0.03
11
1.22987
21
-0.03
0
LINE
8
BLACK
6
CONTINUOUS
10
1.22987
20
-0.03
11
1.22927
21
-0.0330133
0
LINE
8
BLACK
6
CONTINUOUS
10
1.22927
20
-0.0330133
11
1.22757
21
-0.0355678
0
LINE
8
BLACK
6
CONTINUOUS
10
1.22757
20
-0.0355678
11
1.22501
21
-0.0372746
0
LINE
8
BLACK
6
CONTINUOUS
10
1.22501
20
-0.0372746
11
1.222
21
-0.037874
0
LINE
8
BLACK
6
CONTINUOUS
10
1.222
20
-0.037874
11
1.162
21
-0.037874
0
LINE
8
BLACK
6
CONTINUOUS
10
1.162
20
-0.037874
11
1.15899
21
-0.0372746
0
LINE
8
BLACK
6
CONTINUOUS
10
1.15899
20
-0.0372746
11
1.15643
21
-0.0355678
0
LINE
8
BLACK
6
CONTINUOUS
10
1.15643
20
-0.0355678
11
1.15473
21
-0.0330133
0
LINE
8
BLACK
6
CONTINUOUS
10
1.15473
20
-0.0330133
11
1.15413
21
-0.03
0
LINE
8
BLACK
6
CONTINUOUS
10
1.15413
20
-0.03
11
1.15413
21
0.03
0
LINE
8
BLACK
6
CONTINUOUS
10
1.15413
20
0.03
11
1.15473
21
0.0330133
0
LINE
8
BLACK
6
CONTINUOUS
10
1.15473
20
0.0330133
11
1.15643
21
0.0355678
0
LINE
8
BLACK
6
CONTINUOUS
10
1.15643
20
0.0355678
11
1.15899
21
0.0372746
0
LINE
8
BLACK
6
CONTINUOUS
10
1.15899
20
0.0372746
11
1.162
21
0.037874
0
LINE
8
BLACK
6
CONTINUOUS
10
1.162
20
0.037874
11
1.222
21
0.037874
0
LINE
8
BLACK
6
CONTINUOUS
10
1.222
20
0.037874
11
1.22501
21
0.0372746
0
LINE
8
BLACK
6
CONTINUOUS
10
1.12501
20
0.0372746
11
1.12757
21
0.0355678
0
LINE
8
BLACK
6
CONTINUOUS
10
1.12757
20
0.0355678
11
1.12927
21
0.0330133
0
LINE
8
BLACK
6
CONTINUOUS
10
1.12927
20
0.0330133
11
1.12987
21
0.03
0
LINE
8
BLACK
6
CONTINUOUS
10
1.12987
20
0.03
11
1.12987
21
-0.03
0
LINE
8
BLACK
6
CONTINUOUS
10
1.12987
20
-0.03
11
1.12927
21
-0.0330133
0
LINE
8
BLACK
6
CONTINUOUS
10
1.12927
20
-0.0330133
11
1.12757
21
-0.0355678
0
LINE
8
BLACK
6
CONTINUOUS
10
1.12757
20
-0.0355678
11
1.12501
21
-0.0372746
0
LINE
8
BLACK
6
CONTINUOUS
10
1.12501
20
-0.0372746
11
1.122
21
-0.037874
0
LINE
8
BLACK
6
CONTINUOUS
10
1.122
20
-0.037874
11
1.062
21
-0.037874
0
LINE
8
BLACK
6
CONTINUOUS
10
1.062
20
-0.037874
11
1.05899
21
-0.0372746
0
LINE
8
BLACK
6
CONTINUOUS
10
1.05899
20
-0.0372746
11
1.05643
21
-0.0355678
0
LINE
8
BLACK
6
CONTINUOUS
10
1.05643
20
-0.0355678
11
1.05473
21
-0.0330133
0
LINE
8
BLACK
6
CONTINUOUS
10
1.05473
20
-0.0330133
11
1.05413
21
-0.03
0
LINE
8
BLACK
6
CONTINUOUS
10
1.05413
20
-0.03
11
1.05413
21
0.03
0
LINE
8
BLACK
6
CONTINUOUS
10
1.05413
20
0.03
11
1.05473
21
0.0330133
0
LINE
8
BLACK
6
CONTINUOUS
10
1.05473
20
0.0330133
11
1.05643
21
0.0355678
0
LINE
8
BLACK
6
CONTINUOUS
10
1.05643
20
0.0355678
11
1.05899
21
0.0372746
0
LINE
8
BLACK
6
CONTINUOUS
10
1.05899
20
0.0372746
11
1.062
21
0.037874
0
LINE
8
BLACK
6
CONTINUOUS
10
1.062
20
0.037874
11
1.122
21
0.037874
0
LINE
8
BLACK
6
CONTINUOUS
10
1.122
20
0.037874
11
1.12501
21
0.0372746
0
LINE
8
BLACK
6
CONTINUOUS
10
1.02501
20
0.0372746
11
1.02757
21
0.0355678
0
LINE
8
BLACK
6
CONTINUOUS
10
1.02757
20
0.0355678
11
1.02927
21
0.0330133
0
LINE
8
BLACK
6
CONTINUOUS
10
1.02927
20
0.0330133
11
1.02987
21
0.03
0
LINE
8
BLACK
6
CONTINUOUS
10
1.02987
20
0.03
11
1.02987
21
-0.03
0
LINE
8
BLACK
6
CONTINUOUS
10
1.02987
20
-0.03
11
1.02927
21
-0.0330133
0
LINE
8
BLACK
6
CONTINUOUS
10
1.02927
20
-0.0330133
11
1.02757
21
-0.0355678
0
LINE
8
BLACK
6
CONTINUOUS
10
1.02757
20
-0.0355678
11
1.02501
21
-0.0372746
0
LINE
8
BLACK
6
CONTINUOUS
10
1.02501
20
-0.0372746
11
1.022
21
-0.037874
0
LINE
8
BLACK
6
CONTINUOUS
10
1.022
20
-0.037874
11
0.962
21
-0.037874
0
LINE
8
BLACK
6
CONTINUOUS
10
0.962
20
-0.037874
11
0.958987
21
-0.0372746
0
LINE
8
BLACK
6
CONTINUOUS
10
0.958987
20
-0.0372746
11
0.956432
21
-0.0355678
0
LINE
8
BLACK
6
CONTINUOUS
10
0.956432
20
-0.0355678
11
0.954725
21
-0.0330133
0
LINE
8
BLACK
6
CONTINUOUS
10
0.954725
20
-0.0330133
11
0.954126
21
-0.03
0
LINE
8
BLACK
6
CONTINUOUS
10
0.954126
20
-0.03
11
0.954126
21
0.03
0
LINE
8
BLACK
6
CONTINUOUS
10
0.954126
20
0.03
11
0.954725
21
0.0330133
0
LINE
8
BLACK
6
CONTINUOUS
10
0.954725
20
0.0330133
11
0.956432
21
0.0355678
0
LINE
8
BLACK
6
CONTINUOUS
10
0.956432
20
0.0355678
11
0.958987
21
0.0372746
0
LINE
8
BLACK
6
CONTINUOUS
10
0.958987
20
0.0372746
11
0.962
21
0.037874
0
LINE
8
BLACK
6
CONTINUOUS
10
0.962
20
0.037874
11
1.022
21
0.037874
0
LINE
8
BLACK
6
CONTINUOUS
10
1.022
20
0.037874
11
1.02501
21
0.0372746
0
LINE
8
BLACK
6
CONTINUOUS
10
0.925013
20
0.0372746
11
0.927568
21
0.0355678
0
LINE
8
BLACK
6
CONTINUOUS
10
0.927568
20
0.0355678
11
0.929275
21
0.0330133
0
LINE
8
BLACK
6
CONTINUOUS
10
0.929275
20
0.0330133
11
0.929874
21
0.03
0
LINE
8
BLACK
6
CONTINUOUS
10
0.929874
20
0.03
11
0.929874
21
-0.03
0
LINE
8
BLACK
6
CONTINUOUS
10
0.929874
20
-0.03
11
0.929275
21
-0.0330133
0
LINE
8
BLACK
6
CONTINUOUS
10
0.929275
20
-0.0330133
11
0.927568
21
-0.0355678
0
LINE
8
BLACK
6
CONTINUOUS
10
0.927568
20
-0.0355678
11
0.925013
21
-0.0372746
0
LINE
8
BLACK
6
CONTINUOUS
10
0.925013
20
-0.0372746
11
0.922
21
-0.037874
0
LINE
8
BLACK
6
CONTINUOUS
10
0.922
20
-0.037874
11
0.862
21
-0.037874
0
LINE
8
BLACK
6
CONTINUOUS
10
0.862
20
-0.037874
11
0.858987
21
-0.0372746
0
LINE
8
BLACK
6
CONTINUOUS
10
0.858987
20
-0.0372746
11
0.856432
21
-0.0355678
0
LINE
8
BLACK
6
CONTINUOUS
10
0.856432
20
-0.0355678
11
0.854725
21
-0.0330133
0
LINE
8
BLACK
6
CONTINUOUS
10
0.854725
20
-0.0330133
11
0.854126
21
-0.03
0
LINE
8
BLACK
6
CONTINUOUS
10
0.854126
20
-0.03
11
0.854126
21
0.03
0
LINE
8
BLACK
6
CONTINUOUS
10
0.854126
20
0.03
11
0.854725
21
0.0330133
0
LINE
8
BLACK
6
CONTINUOUS
10
0.854725
20
0.0330133
11
0.856432
21
0.0355678
0
LINE
8
BLACK
6
CONTINUOUS
10
0.856432
20
0.0355678
11
0.858987
21
0.0372746
0
LINE
8
BLACK
6
CONTINUOUS
10
0.858987
20
0.0372746
11
0.862
21
0.037874
0
LINE
8
BLACK
6
CONTINUOUS
10
0.862
20
0.037874
11
0.922
21
0.037874
0
LINE
8
BLACK
6
CONTINUOUS
10
0.922
20
0.037874
11
0.925013
21
0.0372746
0
LINE
8
BLACK
6
CONTINUOUS
10
0.825013
20
0.0372746
11
0.827568
21
0.0355678
0
LINE
8
BLACK
6
CONTINUOUS
10
0.827568
20
0.0355678
11
0.829275
21
0.0330133
0
LINE
8
BLACK
6
CONTINUOUS
10
0.829275
20
0.0330133
11
0.829874
21
0.03
0
LINE
8
BLACK
6
CONTINUOUS
10
0.829874
20
0.03
11
0.829874
21
-0.03
0
LINE
8
BLACK
6
CONTINUOUS
10
0.829874
20
-0.03
11
0.829275
21
-0.0330133
0
LINE
8
BLACK
6
CONTINUOUS
10
0.829275
20
-0.0330133
11
0.827568
21
-0.0355678
0
LINE
8
BLACK
6
CONTINUOUS
10
0.827568
20
-0.0355678
11
0.825013
21
-0.0372746
0
LINE
8
BLACK
6
CONTINUOUS
10
0.825013
20
-0.0372746
11
0.822
21
-0.037874
0
LINE
8
BLACK
6
CONTINUOUS
10
0.822
20
-0.037874
11
0.762
21
-0.037874
0
LINE
8
BLACK
6
CONTINUOUS
10
0.762
20
-0.037874
11
0.758987
21
-0.0372746
0
LINE
8
BLACK
6
CONTINUOUS
10
0.758987
20
-0.0372746
11
0.756432
21
-0.0355678
0
LINE
8
BLACK
6
CONTINUOUS
10
0.756432
20
-0.0355678
11
0.754725
21
-0.0330133
0
LINE
8
BLACK
6
CONTINUOUS
10
0.754725
20
-0.0330133
11
0.754126
21
-0.03
0
LINE
8
BLACK
6
CONTINUOUS
10
0.754126
20
-0.03
11
0.754126
21
0.03
0
LINE
8
BLACK
6
CONTINUOUS
10
0.754126
20
0.03
11
0.754725
21
0.0330133
0
LINE
8
BLACK
6
CONTINUOUS
10
0.754725
20
0.0330133
11
0.756432
21
0.0355678
0
LINE
8
BLACK
6
CONTINUOUS
10
0.756432
20
0.0355678
11
0.758987
21
0.0372746
0
LINE
8
BLACK
6
CONTINUOUS
10
0.758987
20
0.0372746
11
0.762
21
0.037874
0
LINE
8
BLACK
6
CONTINUOUS
10
0.762
20
0.037874
11
0.822
21
0.037874
0
LINE
8
BLACK
6
CONTINUOUS
10
0.822
20
0.037874
11
0.825013
21
0.0372746
0
LINE
8
BLACK
6
CONTINUOUS
10
0.772021
20
0.114844
11
0.776991
21
0.113098
0
LINE
8
BLACK
6
CONTINUOUS
10
0.776991
20
0.113098
11
0.781228
21
0.109968
0
LINE
8
BLACK
6
CONTINUOUS
10
0.781228
20
0.109968
11
0.784358
21
0.105731
0
LINE
8
BLACK
6
CONTINUOUS
10
0.784358
20
0.105731
11
0.786104
21
0.100761
0
LINE
8
BLACK
6
CONTINUOUS
10
0.786104
20
0.100761
11
0.786417
21
0.0974409
0
LINE
8
BLACK
6
CONTINUOUS
10
0.786417
20
0.0974409
11
0.786417
21
0.0777559
0
LINE
8
BLACK
6
CONTINUOUS
10
0.786417
20
0.0777559
11
0.786104
21
0.0744361
0
LINE
8
BLACK
6
CONTINUOUS
10
0.786104
20
0.0744361
11
0.784358
21
0.0694658
0
LINE
8
BLACK
6
CONTINUOUS
10
0.784358
20
0.0694658
11
0.781228
21
0.0652284
0
LINE
8
BLACK
6
CONTINUOUS
10
0.781228
20
0.0652284
11
0.776991
21
0.0620986
0
LINE
8
BLACK
6
CONTINUOUS
10
0.776991
20
0.0620986
11
0.772021
21
0.0603532
0
LINE
8
BLACK
6
CONTINUOUS
10
0.772021
20
0.0603532
11
0.768701
21
0.0600394
0
LINE
8
BLACK
6
CONTINUOUS
10
0.768701
20
0.0600394
11
0.731299
21
0.0600394
0
LINE
8
BLACK
6
CONTINUOUS
10
0.731299
20
0.0600394
11
0.727979
21
0.0603532
0
LINE
8
BLACK
6
CONTINUOUS
10
0.727979
20
0.0603532
11
0.723009
21
0.0620986
0
LINE
8
BLACK
6
CONTINUOUS
10
0.723009
20
0.0620986
11
0.718772
21
0.0652284
0
LINE
8
BLACK
6
CONTINUOUS
10
0.718772
20
0.0652284
11
0.715642
21
0.0694658
0
LINE
8
BLACK
6
CONTINUOUS
10
0.715642
20
0.0694658
11
0.713896
21
0.0744361
0
LINE
8
BLACK
6
CONTINUOUS
10
0.713896
20
0.0744361
11
0.713583
21
0.0777559
0
LINE
8
BLACK
6
CONTINUOUS
10
0.713583
20
0.0777559
11
0.713583
21
0.0974409
0
LINE
8
BLACK
6
CONTINUOUS
10
0.713583
20
0.0974409
11
0.713896
21
0.100761
0
LINE
8
BLACK
6
CONTINUOUS
10
0.713896
20
0.100761
11
0.715642
21
0.105731
0
LINE
8
BLACK
6
CONTINUOUS
10
0.715642
20
0.105731
11
0.718772
21
0.109968
0
LINE
8
BLACK
6
CONTINUOUS
10
0.718772
20
0.109968
11
0.723009
21
0.113098
0
LINE
8
BLACK
6
CONTINUOUS
10
0.723009
20
0.113098
11
0.727979
21
0.114844
0
LINE
8
BLACK
6
CONTINUOUS
10
0.727979
20
0.114844
11
0.731299
21
0.115157
0
LINE
8
BLACK
6
CONTINUOUS
10
0.731299
20
0.115157
11
0.768701
21
0.115157
0
LINE
8
BLACK
6
CONTINUOUS
10
0.768701
20
0.115157
11
0.772021
21
0.114844
0
LINE
8
BLACK
6
CONTINUOUS
10
0.696036
20
0.116812
11
0.701007
21
0.115067
0
LINE
8
BLACK
6
CONTINUOUS
10
0.701007
20
0.115067
11
0.705244
21
0.111937
0
LINE
8
BLACK
6
CONTINUOUS
10
0.705244
20
0.111937
11
0.708374
21
0.1077
0
LINE
8
BLACK
6
CONTINUOUS
10
0.708374
20
0.1077
11
0.710119
21
0.102729
0
LINE
8
BLACK
6
CONTINUOUS
10
0.710119
20
0.102729
11
0.710433
21
0.0994094
0
LINE
8
BLACK
6
CONTINUOUS
10
0.710433
20
0.0994094
11
0.710433
21
0.0787402
0
LINE
8
BLACK
6
CONTINUOUS
10
0.710433
20
0.0787402
11
0.710119
21
0.0754204
0
LINE
8
BLACK
6
CONTINUOUS
10
0.710119
20
0.0754204
11
0.708374
21
0.0704501
0
LINE
8
BLACK
6
CONTINUOUS
10
0.708374
20
0.0704501
11
0.705244
21
0.0662127
0
LINE
8
BLACK
6
CONTINUOUS
10
0.705244
20
0.0662127
11
0.701007
21
0.0630829
0
LINE
8
BLACK
6
CONTINUOUS
10
0.701007
20
0.0630829
11
0.696036
21
0.0613374
0
LINE
8
BLACK
6
CONTINUOUS
10
0.696036
20
0.0613374
11
0.692717
21
0.0610236
0
LINE
8
BLACK
6
CONTINUOUS
10
0.692717
20
0.0610236
11
0.657283
21
0.0610236
0
LINE
8
BLACK
6
CONTINUOUS
10
0.657283
20
0.0610236
11
0.653964
21
0.0613374
0
LINE
8
BLACK
6
CONTINUOUS
10
0.653964
20
0.0613374
11
0.648993
21
0.0630829
0
LINE
8
BLACK
6
CONTINUOUS
10
0.648993
20
0.0630829
11
0.644756
21
0.0662127
0
LINE
8
BLACK
6
CONTINUOUS
10
0.644756
20
0.0662127
11
0.641626
21
0.0704501
0
LINE
8
BLACK
6
CONTINUOUS
10
0.641626
20
0.0704501
11
0.639881
21
0.0754204
0
LINE
8
BLACK
6
CONTINUOUS
10
0.639881
20
0.0754204
11
0.639567
21
0.0787402
0
LINE
8
BLACK
6
CONTINUOUS
10
0.639567
20
0.0787402
11
0.639567
21
0.0994094
0
LINE
8
BLACK
6
CONTINUOUS
10
0.639567
20
0.0994094
11
0.639881
21
0.102729
0
LINE
8
BLACK
6
CONTINUOUS
10
0.639881
20
0.102729
11
0.641626
21
0.1077
0
LINE
8
BLACK
6
CONTINUOUS
10
0.641626
20
0.1077
11
0.644756
21
0.111937
0
LINE
8
BLACK
6
CONTINUOUS
10
0.644756
20
0.111937
11
0.648993
21
0.115067
0
LINE
8
BLACK
6
CONTINUOUS
10
0.648993
20
0.115067
11
0.653964
21
0.116812
0
LINE
8
BLACK
6
CONTINUOUS
10
0.653964
20
0.116812
11
0.657283
21
0.117126
0
LINE
8
BLACK
6
CONTINUOUS
10
0.657283
20
0.117126
11
0.692717
21
0.117126
0
LINE
8
BLACK
6
CONTINUOUS
10
0.692717
20
0.117126
11
0.696036
21
0.116812
0
LINE
8
BLACK
6
CONTINUOUS
10
0.949564
20
0.138104
11
0.954534
21
0.136358
0
LINE
8
BLACK
6
CONTINUOUS
10
0.954534
20
0.136358
11
0.958772
21
0.133228
0
LINE
8
BLACK
6
CONTINUOUS
10
0.958772
20
0.133228
11
0.961901
21
0.128991
0
LINE
8
BLACK
6
CONTINUOUS
10
0.961901
20
0.128991
11
0.963647
21
0.124021
0
LINE
8
BLACK
6
CONTINUOUS
10
0.963647
20
0.124021
11
0.963961
21
0.120701
0
LINE
8
BLACK
6
CONTINUOUS
10
0.963961
20
0.120701
11
0.963961
21
0.0832992
0
LINE
8
BLACK
6
CONTINUOUS
10
0.963961
20
0.0832992
11
0.963647
21
0.0799794
0
LINE
8
BLACK
6
CONTINUOUS
10
0.963647
20
0.0799794
11
0.961901
21
0.0750091
0
LINE
8
BLACK
6
CONTINUOUS
10
0.961901
20
0.0750091
11
0.958772
21
0.0707717
0
LINE
8
BLACK
6
CONTINUOUS
10
0.958772
20
0.0707717
11
0.954534
21
0.0676419
0
LINE
8
BLACK
6
CONTINUOUS
10
0.954534
20
0.0676419
11
0.949564
21
0.0658965
0
LINE
8
BLACK
6
CONTINUOUS
10
0.949564
20
0.0658965
11
0.946244
21
0.0655827
0
LINE
8
BLACK
6
CONTINUOUS
10
0.946244
20
0.0655827
11
0.926559
21
0.0655827
0
LINE
8
BLACK
6
CONTINUOUS
10
0.926559
20
0.0655827
11
0.923239
21
0.0658965
0
LINE
8
BLACK
6
CONTINUOUS
10
0.923239
20
0.0658965
11
0.918269
21
0.0676419
0
LINE
8
BLACK
6
CONTINUOUS
10
0.918269
20
0.0676419
11
0.914032
21
0.0707717
0
LINE
8
BLACK
6
CONTINUOUS
10
0.914032
20
0.0707717
11
0.910902
21
0.0750091
0
LINE
8
BLACK
6
CONTINUOUS
10
0.910902
20
0.0750091
11
0.909156
21
0.0799794
0
LINE
8
BLACK
6
CONTINUOUS
10
0.909156
20
0.0799794
11
0.908843
21
0.0832992
0
LINE
8
BLACK
6
CONTINUOUS
10
0.908843
20
0.0832992
11
0.908843
21
0.120701
0
LINE
8
BLACK
6
CONTINUOUS
10
0.908843
20
0.120701
11
0.909156
21
0.124021
0
LINE
8
BLACK
6
CONTINUOUS
10
0.909156
20
0.124021
11
0.910902
21
0.128991
0
LINE
8
BLACK
6
CONTINUOUS
10
0.910902
20
0.128991
11
0.914032
21
0.133228
0
LINE
8
BLACK
6
CONTINUOUS
10
0.914032
20
0.133228
11
0.918269
21
0.136358
0
LINE
8
BLACK
6
CONTINUOUS
10
0.918269
20
0.136358
11
0.923239
21
0.138104
0
LINE
8
BLACK
6
CONTINUOUS
10
0.923239
20
0.138104
11
0.926559
21
0.138417
0
LINE
8
BLACK
6
CONTINUOUS
10
0.926559
20
0.138417
11
0.946244
21
0.138417
0
LINE
8
BLACK
6
CONTINUOUS
10
0.946244
20
0.138417
11
0.949564
21
0.138104
0
LINE
8
BLACK
6
CONTINUOUS
10
0.874761
20
0.138104
11
0.879731
21
0.136358
0
LINE
8
BLACK
6
CONTINUOUS
10
0.879731
20
0.136358
11
0.883968
21
0.133228
0
LINE
8
BLACK
6
CONTINUOUS
10
0.883968
20
0.133228
11
0.887098
21
0.128991
0
LINE
8
BLACK
6
CONTINUOUS
10
0.887098
20
0.128991
11
0.888844
21
0.124021
0
LINE
8
BLACK
6
CONTINUOUS
10
0.888844
20
0.124021
11
0.889157
21
0.120701
0
LINE
8
BLACK
6
CONTINUOUS
10
0.889157
20
0.120701
11
0.889157
21
0.0832992
0
LINE
8
BLACK
6
CONTINUOUS
10
0.889157
20
0.0832992
11
0.888844
21
0.0799794
0
LINE
8
BLACK
6
CONTINUOUS
10
0.888844
20
0.0799794
11
0.887098
21
0.0750091
0
LINE
8
BLACK
6
CONTINUOUS
10
0.887098
20
0.0750091
11
0.883968
21
0.0707717
0
LINE
8
BLACK
6
CONTINUOUS
10
0.883968
20
0.0707717
11
0.879731
21
0.0676419
0
LINE
8
BLACK
6
CONTINUOUS
10
0.879731
20
0.0676419
11
0.874761
21
0.0658965
0
LINE
8
BLACK
6
CONTINUOUS
10
0.874761
20
0.0658965
11
0.871441
21
0.0655827
0
LINE
8
BLACK
6
CONTINUOUS
10
0.871441
20
0.0655827
11
0.851756
21
0.0655827
0
LINE
8
BLACK
6
CONTINUOUS
10
0.851756
20
0.0655827
11
0.848436
21
0.0658965
0
LINE
8
BLACK
6
CONTINUOUS
10
0.848436
20
0.0658965
11
0.843466
21
0.0676419
0
LINE
8
BLACK
6
CONTINUOUS
10
0.843466
20
0.0676419
11
0.839228
21
0.0707717
0
LINE
8
BLACK
6
CONTINUOUS
10
0.839228
20
0.0707717
11
0.836099
21
0.0750091
0
LINE
8
BLACK
6
CONTINUOUS
10
0.836099
20
0.0750091
11
0.834353
21
0.0799794
0
LINE
8
BLACK
6
CONTINUOUS
10
0.834353
20
0.0799794
11
0.834039
21
0.0832992
0
LINE
8
BLACK
6
CONTINUOUS
10
0.834039
20
0.0832992
11
0.834039
21
0.120701
0
LINE
8
BLACK
6
CONTINUOUS
10
0.834039
20
0.120701
11
0.834353
21
0.124021
0
LINE
8
BLACK
6
CONTINUOUS
10
0.834353
20
0.124021
11
0.836099
21
0.128991
0
LINE
8
BLACK
6
CONTINUOUS
10
0.836099
20
0.128991
11
0.839228
21
0.133228
0
LINE
8
BLACK
6
CONTINUOUS
10
0.839228
20
0.133228
11
0.843466
21
0.136358
0
LINE
8
BLACK
6
CONTINUOUS
10
0.843466
20
0.136358
11
0.848436
21
0.138104
0
LINE
8
BLACK
6
CONTINUOUS
10
0.848436
20
0.138104
11
0.851756
21
0.138417
0
LINE
8
BLACK
6
CONTINUOUS
10
0.851756
20
0.138417
11
0.871441
21
0.138417
0
LINE
8
BLACK
6
CONTINUOUS
10
0.871441
20
0.138417
11
0.874761
21
0.138104
0
LINE
8
BLACK
6
CONTINUOUS
10
0.696036
20
0.188663
11
0.701007
21
0.186917
0
LINE
8
BLACK
6
CONTINUOUS
10
0.701007
20
0.186917
11
0.705244
21
0.183787
0
LINE
8
BLACK
6
CONTINUOUS
10
0.705244
20
0.183787
11
0.708374
21
0.17955
0
LINE
8
BLACK
6
CONTINUOUS
10
0.708374
20
0.17955
11
0.710119
21
0.17458
0
LINE
8
BLACK
6
CONTINUOUS
10
0.710119
20
0.17458
11
0.710433
21
0.17126
0
LINE
8
BLACK
6
CONTINUOUS
10
0.710433
20
0.17126
11
0.710433
21
0.150591
0
LINE
8
BLACK
6
CONTINUOUS
10
0.710433
20
0.150591
11
0.710119
21
0.147271
0
LINE
8
BLACK
6
CONTINUOUS
10
0.710119
20
0.147271
11
0.708374
21
0.1423
0
LINE
8
BLACK
6
CONTINUOUS
10
0.708374
20
0.1423
11
0.705244
21
0.138063
0
LINE
8
BLACK
6
CONTINUOUS
10
0.705244
20
0.138063
11
0.701007
21
0.134933
0
LINE
8
BLACK
6
CONTINUOUS
10
0.701007
20
0.134933
11
0.696036
21
0.133188
0
LINE
8
BLACK
6
CONTINUOUS
10
0.696036
20
0.133188
11
0.692717
21
0.132874
0
LINE
8
BLACK
6
CONTINUOUS
10
0.692717
20
0.132874
11
0.657283
21
0.132874
0
LINE
8
BLACK
6
CONTINUOUS
10
0.657283
20
0.132874
11
0.653964
21
0.133188
0
LINE
8
BLACK
6
CONTINUOUS
10
0.653964
20
0.133188
11
0.648993
21
0.134933
0
LINE
8
BLACK
6
CONTINUOUS
10
0.648993
20
0.134933
11
0.644756
21
0.138063
0
LINE
8
BLACK
6
CONTINUOUS
10
0.644756
20
0.138063
11
0.641626
21
0.1423
0
LINE
8
BLACK
6
CONTINUOUS
10
0.641626
20
0.1423
11
0.639881
21
0.147271
0
LINE
8
BLACK
6
CONTINUOUS
10
0.639881
20
0.147271
11
0.639567
21
0.150591
0
LINE
8
BLACK
6
CONTINUOUS
10
0.639567
20
0.150591
11
0.639567
21
0.17126
0
LINE
8
BLACK
6
CONTINUOUS
10
0.639567
20
0.17126
11
0.639881
21
0.17458
0
LINE
8
BLACK
6
CONTINUOUS
10
0.639881
20
0.17458
11
0.641626
21
0.17955
0
LINE
8
BLACK
6
CONTINUOUS
10
0.641626
20
0.17955
11
0.644756
21
0.183787
0
LINE
8
BLACK
6
CONTINUOUS
10
0.644756
20
0.183787
11
0.648993
21
0.186917
0
LINE
8
BLACK
6
CONTINUOUS
10
0.648993
20
0.186917
11
0.653964
21
0.188663
0
LINE
8
BLACK
6
CONTINUOUS
10
0.653964
20
0.188663
11
0.657283
21
0.188976
0
LINE
8
BLACK
6
CONTINUOUS
10
0.657283
20
0.188976
11
0.692717
21
0.188976
0
LINE
8
BLACK
6
CONTINUOUS
10
0.692717
20
0.188976
11
0.696036
21
0.188663
0
LINE
8
BLACK
6
CONTINUOUS
10
0.772021
20
0.189647
11
0.776991
21
0.187901
0
LINE
8
BLACK
6
CONTINUOUS
10
0.776991
20
0.187901
11
0.781228
21
0.184772
0
LINE
8
BLACK
6
CONTINUOUS
10
0.781228
20
0.184772
11
0.784358
21
0.180534
0
LINE
8
BLACK
6
CONTINUOUS
10
0.784358
20
0.180534
11
0.786104
21
0.175564
0
LINE
8
BLACK
6
CONTINUOUS
10
0.786104
20
0.175564
11
0.786417
21
0.172244
0
LINE
8
BLACK
6
CONTINUOUS
10
0.786417
20
0.172244
11
0.786417
21
0.152559
0
LINE
8
BLACK
6
CONTINUOUS
10
0.786417
20
0.152559
11
0.786104
21
0.149239
0
LINE
8
BLACK
6
CONTINUOUS
10
0.786104
20
0.149239
11
0.784358
21
0.144269
0
LINE
8
BLACK
6
CONTINUOUS
10
0.784358
20
0.144269
11
0.781228
21
0.140032
0
LINE
8
BLACK
6
CONTINUOUS
10
0.781228
20
0.140032
11
0.776991
21
0.136902
0
LINE
8
BLACK
6
CONTINUOUS
10
0.776991
20
0.136902
11
0.772021
21
0.135156
0
LINE
8
BLACK
6
CONTINUOUS
10
0.772021
20
0.135156
11
0.768701
21
0.134843
0
LINE
8
BLACK
6
CONTINUOUS
10
0.768701
20
0.134843
11
0.731299
21
0.134843
0
LINE
8
BLACK
6
CONTINUOUS
10
0.731299
20
0.134843
11
0.727979
21
0.135156
0
LINE
8
BLACK
6
CONTINUOUS
10
0.727979
20
0.135156
11
0.723009
21
0.136902
0
LINE
8
BLACK
6
CONTINUOUS
10
0.723009
20
0.136902
11
0.718772
21
0.140032
0
LINE
8
BLACK
6
CONTINUOUS
10
0.718772
20
0.140032
11
0.715642
21
0.144269
0
LINE
8
BLACK
6
CONTINUOUS
10
0.715642
20
0.144269
11
0.713896
21
0.149239
0
LINE
8
BLACK
6
CONTINUOUS
10
0.713896
20
0.149239
11
0.713583
21
0.152559
0
LINE
8
BLACK
6
CONTINUOUS
10
0.713583
20
0.152559
11
0.713583
21
0.172244
0
LINE
8
BLACK
6
CONTINUOUS
10
0.713583
20
0.172244
11
0.713896
21
0.175564
0
LINE
8
BLACK
6
CONTINUOUS
10
0.713896
20
0.175564
11
0.715642
21
0.180534
0
LINE
8
BLACK
6
CONTINUOUS
10
0.715642
20
0.180534
11
0.718772
21
0.184772
0
LINE
8
BLACK
6
CONTINUOUS
10
0.718772
20
0.184772
11
0.723009
21
0.187901
0
LINE
8
BLACK
6
CONTINUOUS
10
0.723009
20
0.187901
11
0.727979
21
0.189647
0
LINE
8
BLACK
6
CONTINUOUS
10
0.727979
20
0.189647
11
0.731299
21
0.189961
0
LINE
8
BLACK
6
CONTINUOUS
10
0.731299
20
0.189961
11
0.768701
21
0.189961
0
LINE
8
BLACK
6
CONTINUOUS
10
0.768701
20
0.189961
11
0.772021
21
0.189647
0
LINE
8
BLACK
6
CONTINUOUS
10
0.950564
20
0.211104
11
0.955534
21
0.209358
0
LINE
8
BLACK
6
CONTINUOUS
10
0.955534
20
0.209358
11
0.959772
21
0.206228
0
LINE
8
BLACK
6
CONTINUOUS
10
0.959772
20
0.206228
11
0.962901
21
0.201991
0
LINE
8
BLACK
6
CONTINUOUS
10
0.962901
20
0.201991
11
0.964647
21
0.197021
0
LINE
8
BLACK
6
CONTINUOUS
10
0.964647
20
0.197021
11
0.964961
21
0.193701
0
LINE
8
BLACK
6
CONTINUOUS
10
0.964961
20
0.193701
11
0.964961
21
0.156299
0
LINE
8
BLACK
6
CONTINUOUS
10
0.964961
20
0.156299
11
0.964647
21
0.152979
0
LINE
8
BLACK
6
CONTINUOUS
10
0.964647
20
0.152979
11
0.962901
21
0.148009
0
LINE
8
BLACK
6
CONTINUOUS
10
0.962901
20
0.148009
11
0.959772
21
0.143772
0
LINE
8
BLACK
6
CONTINUOUS
10
0.959772
20
0.143772
11
0.955534
21
0.140642
0
LINE
8
BLACK
6
CONTINUOUS
10
0.955534
20
0.140642
11
0.950564
21
0.138896
0
LINE
8
BLACK
6
CONTINUOUS
10
0.950564
20
0.138896
11
0.947244
21
0.138583
0
LINE
8
BLACK
6
CONTINUOUS
10
0.947244
20
0.138583
11
0.927559
21
0.138583
0
LINE
8
BLACK
6
CONTINUOUS
10
0.927559
20
0.138583
11
0.924239
21
0.138896
0
LINE
8
BLACK
6
CONTINUOUS
10
0.924239
20
0.138896
11
0.919269
21
0.140642
0
LINE
8
BLACK
6
CONTINUOUS
10
0.919269
20
0.140642
11
0.915032
21
0.143772
0
LINE
8
BLACK
6
CONTINUOUS
10
0.915032
20
0.143772
11
0.911902
21
0.148009
0
LINE
8
BLACK
6
CONTINUOUS
10
0.911902
20
0.148009
11
0.910156
21
0.152979
0
LINE
8
BLACK
6
CONTINUOUS
10
0.910156
20
0.152979
11
0.909843
21
0.156299
0
LINE
8
BLACK
6
CONTINUOUS
10
0.909843
20
0.156299
11
0.909843
21
0.193701
0
LINE
8
BLACK
6
CONTINUOUS
10
0.909843
20
0.193701
11
0.910156
21
0.197021
0
LINE
8
BLACK
6
CONTINUOUS
10
0.910156
20
0.197021
11
0.911902
21
0.201991
0
LINE
8
BLACK
6
CONTINUOUS
10
0.911902
20
0.201991
11
0.915032
21
0.206228
0
LINE
8
BLACK
6
CONTINUOUS
10
0.915032
20
0.206228
11
0.919269
21
0.209358
0
LINE
8
BLACK
6
CONTINUOUS
10
0.919269
20
0.209358
11
0.924239
21
0.211104
0
LINE
8
BLACK
6
CONTINUOUS
10
0.924239
20
0.211104
11
0.927559
21
0.211417
0
LINE
8
BLACK
6
CONTINUOUS
10
0.927559
20
0.211417
11
0.947244
21
0.211417
0
LINE
8
BLACK
6
CONTINUOUS
10
0.947244
20
0.211417
11
0.950564
21
0.211104
0
LINE
8
BLACK
6
CONTINUOUS
10
0.875761
20
0.211104
11
0.880731
21
0.209358
0
LINE
8
BLACK
6
CONTINUOUS
10
0.880731
20
0.209358
11
0.884968
21
0.206228
0
LINE
8
BLACK
6
CONTINUOUS
10
0.884968
20
0.206228
11
0.888098
21
0.201991
0
LINE
8
BLACK
6
CONTINUOUS
10
0.888098
20
0.201991
11
0.889844
21
0.197021
0
LINE
8
BLACK
6
CONTINUOUS
10
0.889844
20
0.197021
11
0.890157
21
0.193701
0
LINE
8
BLACK
6
CONTINUOUS
10
0.890157
20
0.193701
11
0.890157
21
0.156299
0
LINE
8
BLACK
6
CONTINUOUS
10
0.890157
20
0.156299
11
0.889844
21
0.152979
0
LINE
8
BLACK
6
CONTINUOUS
10
0.889844
20
0.152979
11
0.888098
21
0.148009
0
LINE
8
BLACK
6
CONTINUOUS
10
0.888098
20
0.148009
11
0.884968
21
0.143772
0
LINE
8
BLACK
6
CONTINUOUS
10
0.884968
20
0.143772
11
0.880731
21
0.140642
0
LINE
8
BLACK
6
CONTINUOUS
10
0.880731
20
0.140642
11
0.875761
21
0.138896
0
LINE
8
BLACK
6
CONTINUOUS
10
0.875761
20
0.138896
11
0.872441
21
0.138583
0
LINE
8
BLACK
6
CONTINUOUS
10
0.872441
20
0.138583
11
0.852756
21
0.138583
0
LINE
8
BLACK
6
CONTINUOUS
10
0.852756
20
0.138583
11
0.849436
21
0.138896
0
LINE
8
BLACK
6
CONTINUOUS
10
0.849436
20
0.138896
11
0.844466
21
0.140642
0
LINE
8
BLACK
6
CONTINUOUS
10
0.844466
20
0.140642
11
0.840228
21
0.143772
0
LINE
8
BLACK
6
CONTINUOUS
10
0.840228
20
0.143772
11
0.837099
21
0.148009
0
LINE
8
BLACK
6
CONTINUOUS
10
0.837099
20
0.148009
11
0.835353
21
0.152979
0
LINE
8
BLACK
6
CONTINUOUS
10
0.835353
20
0.152979
11
0.835039
21
0.156299
0
LINE
8
BLACK
6
CONTINUOUS
10
0.835039
20
0.156299
11
0.835039
21
0.193701
0
LINE
8
BLACK
6
CONTINUOUS
10
0.835039
20
0.193701
11
0.835353
21
0.197021
0
LINE
8
BLACK
6
CONTINUOUS
10
0.835353
20
0.197021
11
0.837099
21
0.201991
0
LINE
8
BLACK
6
CONTINUOUS
10
0.837099
20
0.201991
11
0.840228
21
0.206228
0
LINE
8
BLACK
6
CONTINUOUS
10
0.840228
20
0.206228
11
0.844466
21
0.209358
0
LINE
8
BLACK
6
CONTINUOUS
10
0.844466
20
0.209358
11
0.849436
21
0.211104
0
LINE
8
BLACK
6
CONTINUOUS
10
0.849436
20
0.211104
11
0.852756
21
0.211417
0
LINE
8
BLACK
6
CONTINUOUS
10
0.852756
20
0.211417
11
0.872441
21
0.211417
0
LINE
8
BLACK
6
CONTINUOUS
10
0.872441
20
0.211417
11
0.875761
21
0.211104
0
LINE
8
BLACK
6
CONTINUOUS
10
0.509011
20
0.232518
11
0.513982
21
0.230773
0
LINE
8
BLACK
6
CONTINUOUS
10
0.513982
20
0.230773
11
0.518219
21
0.227643
0
LINE
8
BLACK
6
CONTINUOUS
10
0.518219
20
0.227643
11
0.521349
21
0.223405
0
LINE
8
BLACK
6
CONTINUOUS
10
0.521349
20
0.223405
11
0.523094
21
0.218435
0
LINE
8
BLACK
6
CONTINUOUS
10
0.523094
20
0.218435
11
0.523408
21
0.215115
0
LINE
8
BLACK
6
CONTINUOUS
10
0.523408
20
0.215115
11
0.523408
21
0.19543
0
LINE
8
BLACK
6
CONTINUOUS
10
0.523408
20
0.19543
11
0.523094
21
0.192111
0
LINE
8
BLACK
6
CONTINUOUS
10
0.523094
20
0.192111
11
0.521349
21
0.18714
0
LINE
8
BLACK
6
CONTINUOUS
10
0.521349
20
0.18714
11
0.518219
21
0.182903
0
LINE
8
BLACK
6
CONTINUOUS
10
0.518219
20
0.182903
11
0.513982
21
0.179773
0
LINE
8
BLACK
6
CONTINUOUS
10
0.513982
20
0.179773
11
0.509011
21
0.178028
0
LINE
8
BLACK
6
CONTINUOUS
10
0.509011
20
0.178028
11
0.505692
21
0.177714
0
LINE
8
BLACK
6
CONTINUOUS
10
0.505692
20
0.177714
11
0.46829
21
0.177714
0
LINE
8
BLACK
6
CONTINUOUS
10
0.46829
20
0.177714
11
0.46497
21
0.178028
0
LINE
8
BLACK
6
CONTINUOUS
10
0.46497
20
0.178028
11
0.46
21
0.179773
0
LINE
8
BLACK
6
CONTINUOUS
10
0.46
20
0.179773
11
0.455763
21
0.182903
0
LINE
8
BLACK
6
CONTINUOUS
10
0.455763
20
0.182903
11
0.452633
21
0.18714
0
LINE
8
BLACK
6
CONTINUOUS
10
0.452633
20
0.18714
11
0.450887
21
0.192111
0
LINE
8
BLACK
6
CONTINUOUS
10
0.450887
20
0.192111
11
0.450574
21
0.19543
0
LINE
8
BLACK
6
CONTINUOUS
10
0.450574
20
0.19543
11
0.450574
21
0.215115
0
LINE
8
BLACK
6
CONTINUOUS
10
0.450574
20
0.215115
11
0.450887
21
0.218435
0
LINE
8
BLACK
6
CONTINUOUS
10
0.450887
20
0.218435
11
0.452633
21
0.223405
0
LINE
8
BLACK
6
CONTINUOUS
10
0.452633
20
0.223405
11
0.455763
21
0.227643
0
LINE
8
BLACK
6
CONTINUOUS
10
0.455763
20
0.227643
11
0.46
21
0.230773
0
LINE
8
BLACK
6
CONTINUOUS
10
0.46
20
0.230773
11
0.46497
21
0.232518
0
LINE
8
BLACK
6
CONTINUOUS
10
0.46497
20
0.232518
11
0.46829
21
0.232832
0
LINE
8
BLACK
6
CONTINUOUS
10
0.46829
20
0.232832
11
0.505692
21
0.232832
0
LINE
8
BLACK
6
CONTINUOUS
10
0.505692
20
0.232832
11
0.509011
21
0.232518
0
LINE
8
BLACK
6
CONTINUOUS
10
0.595547
20
0.236652
11
0.600517
21
0.234907
0
LINE
8
BLACK
6
CONTINUOUS
10
0.600517
20
0.234907
11
0.604755
21
0.231777
0
LINE
8
BLACK
6
CONTINUOUS
10
0.604755
20
0.231777
11
0.607884
21
0.227539
0
LINE
8
BLACK
6
CONTINUOUS
10
0.607884
20
0.227539
11
0.60963
21
0.222569
0
LINE
8
BLACK
6
CONTINUOUS
10
0.60963
20
0.222569
11
0.609944
21
0.219249
0
LINE
8
BLACK
6
CONTINUOUS
10
0.609944
20
0.219249
11
0.609944
21
0.19858
0
LINE
8
BLACK
6
CONTINUOUS
10
0.609944
20
0.19858
11
0.60963
21
0.19526
0
LINE
8
BLACK
6
CONTINUOUS
10
0.60963
20
0.19526
11
0.607884
21
0.19029
0
LINE
8
BLACK
6
CONTINUOUS
10
0.607884
20
0.19029
11
0.604755
21
0.186052
0
LINE
8
BLACK
6
CONTINUOUS
10
0.604755
20
0.186052
11
0.600517
21
0.182923
0
LINE
8
BLACK
6
CONTINUOUS
10
0.600517
20
0.182923
11
0.595547
21
0.181177
0
LINE
8
BLACK
6
CONTINUOUS
10
0.595547
20
0.181177
11
0.592227
21
0.180863
0
LINE
8
BLACK
6
CONTINUOUS
10
0.592227
20
0.180863
11
0.556794
21
0.180863
0
LINE
8
BLACK
6
CONTINUOUS
10
0.556794
20
0.180863
11
0.553474
21
0.181177
0
LINE
8
BLACK
6
CONTINUOUS
10
0.553474
20
0.181177
11
0.548504
21
0.182923
0
LINE
8
BLACK
6
CONTINUOUS
10
0.548504
20
0.182923
11
0.544267
21
0.186052
0
LINE
8
BLACK
6
CONTINUOUS
10
0.544267
20
0.186052
11
0.541137
21
0.19029
0
LINE
8
BLACK
6
CONTINUOUS
10
0.541137
20
0.19029
11
0.539391
21
0.19526
0
LINE
8
BLACK
6
CONTINUOUS
10
0.539391
20
0.19526
11
0.539078
21
0.19858
0
LINE
8
BLACK
6
CONTINUOUS
10
0.539078
20
0.19858
11
0.539078
21
0.219249
0
LINE
8
BLACK
6
CONTINUOUS
10
0.539078
20
0.219249
11
0.539391
21
0.222569
0
LINE
8
BLACK
6
CONTINUOUS
10
0.539391
20
0.222569
11
0.541137
21
0.227539
0
LINE
8
BLACK
6
CONTINUOUS
10
0.541137
20
0.227539
11
0.544267
21
0.231777
0
LINE
8
BLACK
6
CONTINUOUS
10
0.544267
20
0.231777
11
0.548504
21
0.234907
0
LINE
8
BLACK
6
CONTINUOUS
10
0.548504
20
0.234907
11
0.553474
21
0.236652
0
LINE
8
BLACK
6
CONTINUOUS
10
0.553474
20
0.236652
11
0.556794
21
0.236966
0
LINE
8
BLACK
6
CONTINUOUS
10
0.556794
20
0.236966
11
0.592227
21
0.236966
0
LINE
8
BLACK
6
CONTINUOUS
10
0.592227
20
0.236966
11
0.595547
21
0.236652
0
LINE
8
BLACK
6
CONTINUOUS
10
1.04104
20
0.241812
11
1.04601
21
0.240067
0
LINE
8
BLACK
6
CONTINUOUS
10
1.04601
20
0.240067
11
1.05024
21
0.236937
0
LINE
8
BLACK
6
CONTINUOUS
10
1.05024
20
0.236937
11
1.05337
21
0.2327
0
LINE
8
BLACK
6
CONTINUOUS
10
1.05337
20
0.2327
11
1.05512
21
0.227729
0
LINE
8
BLACK
6
CONTINUOUS
10
1.05512
20
0.227729
11
1.05543
21
0.224409
0
LINE
8
BLACK
6
CONTINUOUS
10
1.05543
20
0.224409
11
1.05543
21
0.20374
0
LINE
8
BLACK
6
CONTINUOUS
10
1.05543
20
0.20374
11
1.05512
21
0.20042
0
LINE
8
BLACK
6
CONTINUOUS
10
1.05512
20
0.20042
11
1.05337
21
0.19545
0
LINE
8
BLACK
6
CONTINUOUS
10
1.05337
20
0.19545
11
1.05024
21
0.191213
0
LINE
8
BLACK
6
CONTINUOUS
10
1.05024
20
0.191213
11
1.04601
21
0.188083
0
LINE
8
BLACK
6
CONTINUOUS
10
1.04601
20
0.188083
11
1.04104
21
0.186337
0
LINE
8
BLACK
6
CONTINUOUS
10
1.04104
20
0.186337
11
1.03772
21
0.186024
0
LINE
8
BLACK
6
CONTINUOUS
10
1.03772
20
0.186024
11
1.00228
21
0.186024
0
LINE
8
BLACK
6
CONTINUOUS
10
1.00228
20
0.186024
11
0.998964
21
0.186337
0
LINE
8
BLACK
6
CONTINUOUS
10
0.998964
20
0.186337
11
0.993993
21
0.188083
0
LINE
8
BLACK
6
CONTINUOUS
10
0.993993
20
0.188083
11
0.989756
21
0.191213
0
LINE
8
BLACK
6
CONTINUOUS
10
0.989756
20
0.191213
11
0.986626
21
0.19545
0
LINE
8
BLACK
6
CONTINUOUS
10
0.986626
20
0.19545
11
0.984881
21
0.20042
0
LINE
8
BLACK
6
CONTINUOUS
10
0.984881
20
0.20042
11
0.984567
21
0.20374
0
LINE
8
BLACK
6
CONTINUOUS
10
0.984567
20
0.20374
11
0.984567
21
0.224409
0
LINE
8
BLACK
6
CONTINUOUS
10
0.984567
20
0.224409
11
0.984881
21
0.227729
0
LINE
8
BLACK
6
CONTINUOUS
10
0.984881
20
0.227729
11
0.986626
21
0.2327
0
LINE
8
BLACK
6
CONTINUOUS
10
0.986626
20
0.2327
11
0.989756
21
0.236937
0
LINE
8
BLACK
6
CONTINUOUS
10
0.989756
20
0.236937
11
0.993993
21
0.240067
0
LINE
8
BLACK
6
CONTINUOUS
10
0.993993
20
0.240067
11
0.998964
21
0.241812
0
LINE
8
BLACK
6
CONTINUOUS
10
0.998964
20
0.241812
11
1.00228
21
0.242126
0
LINE
8
BLACK
6
CONTINUOUS
10
1.00228
20
0.242126
11
1.03772
21
0.242126
0
LINE
8
BLACK
6
CONTINUOUS
10
1.03772
20
0.242126
11
1.04104
21
0.241812
0
LINE
8
BLACK
6
CONTINUOUS
10
1.13604
20
0.241812
11
1.14101
21
0.240067
0
LINE
8
BLACK
6
CONTINUOUS
10
1.14101
20
0.240067
11
1.14524
21
0.236937
0
LINE
8
BLACK
6
CONTINUOUS
10
1.14524
20
0.236937
11
1.14837
21
0.2327
0
LINE
8
BLACK
6
CONTINUOUS
10
1.14837
20
0.2327
11
1.15012
21
0.227729
0
LINE
8
BLACK
6
CONTINUOUS
10
1.15012
20
0.227729
11
1.15043
21
0.224409
0
LINE
8
BLACK
6
CONTINUOUS
10
1.15043
20
0.224409
11
1.15043
21
0.20374
0
LINE
8
BLACK
6
CONTINUOUS
10
1.15043
20
0.20374
11
1.15012
21
0.20042
0
LINE
8
BLACK
6
CONTINUOUS
10
1.15012
20
0.20042
11
1.14837
21
0.19545
0
LINE
8
BLACK
6
CONTINUOUS
10
1.14837
20
0.19545
11
1.14524
21
0.191213
0
LINE
8
BLACK
6
CONTINUOUS
10
1.14524
20
0.191213
11
1.14101
21
0.188083
0
LINE
8
BLACK
6
CONTINUOUS
10
1.14101
20
0.188083
11
1.13604
21
0.186337
0
LINE
8
BLACK
6
CONTINUOUS
10
1.13604
20
0.186337
11
1.13272
21
0.186024
0
LINE
8
BLACK
6
CONTINUOUS
10
1.13272
20
0.186024
11
1.09728
21
0.186024
0
LINE
8
BLACK
6
CONTINUOUS
10
1.09728
20
0.186024
11
1.09396
21
0.186337
0
LINE
8
BLACK
6
CONTINUOUS
10
1.09396
20
0.186337
11
1.08899
21
0.188083
0
LINE
8
BLACK
6
CONTINUOUS
10
1.08899
20
0.188083
11
1.08476
21
0.191213
0
LINE
8
BLACK
6
CONTINUOUS
10
1.08476
20
0.191213
11
1.08163
21
0.19545
0
LINE
8
BLACK
6
CONTINUOUS
10
1.08163
20
0.19545
11
1.07988
21
0.20042
0
LINE
8
BLACK
6
CONTINUOUS
10
1.07988
20
0.20042
11
1.07957
21
0.20374
0
LINE
8
BLACK
6
CONTINUOUS
10
1.07957
20
0.20374
11
1.07957
21
0.224409
0
LINE
8
BLACK
6
CONTINUOUS
10
1.07957
20
0.224409
11
1.07988
21
0.227729
0
LINE
8
BLACK
6
CONTINUOUS
10
1.07988
20
0.227729
11
1.08163
21
0.2327
0
LINE
8
BLACK
6
CONTINUOUS
10
1.08163
20
0.2327
11
1.08476
21
0.236937
0
LINE
8
BLACK
6
CONTINUOUS
10
1.08476
20
0.236937
11
1.08899
21
0.240067
0
LINE
8
BLACK
6
CONTINUOUS
10
1.08899
20
0.240067
11
1.09396
21
0.241812
0
LINE
8
BLACK
6
CONTINUOUS
10
1.09396
20
0.241812
11
1.09728
21
0.242126
0
LINE
8
BLACK
6
CONTINUOUS
10
1.09728
20
0.242126
11
1.13272
21
0.242126
0
LINE
8
BLACK
6
CONTINUOUS
10
1.13272
20
0.242126
11
1.13604
21
0.241812
0
LINE
8
BLACK
6
CONTINUOUS
10
1.23702
20
0.244844
11
1.24199
21
0.243098
0
LINE
8
BLACK
6
CONTINUOUS
10
1.24199
20
0.243098
11
1.24623
21
0.239968
0
LINE
8
BLACK
6
CONTINUOUS
10
1.24623
20
0.239968
11
1.24936
21
0.235731
0
LINE
8
BLACK
6
CONTINUOUS
10
1.24936
20
0.235731
11
1.2511
21
0.230761
0
LINE
8
BLACK
6
CONTINUOUS
10
1.2511
20
0.230761
11
1.25142
21
0.227441
0
LINE
8
BLACK
6
CONTINUOUS
10
1.25142
20
0.227441
11
1.25142
21
0.207756
0
LINE
8
BLACK
6
CONTINUOUS
10
1.25142
20
0.207756
11
1.2511
21
0.204436
0
LINE
8
BLACK
6
CONTINUOUS
10
1.2511
20
0.204436
11
1.24936
21
0.199466
0
LINE
8
BLACK
6
CONTINUOUS
10
1.24936
20
0.199466
11
1.24623
21
0.195228
0
LINE
8
BLACK
6
CONTINUOUS
10
1.24623
20
0.195228
11
1.24199
21
0.192099
0
LINE
8
BLACK
6
CONTINUOUS
10
1.24199
20
0.192099
11
1.23702
21
0.190353
0
LINE
8
BLACK
6
CONTINUOUS
10
1.23702
20
0.190353
11
1.2337
21
0.190039
0
LINE
8
BLACK
6
CONTINUOUS
10
1.2337
20
0.190039
11
1.1963
21
0.190039
0
LINE
8
BLACK
6
CONTINUOUS
10
1.1963
20
0.190039
11
1.19298
21
0.190353
0
LINE
8
BLACK
6
CONTINUOUS
10
1.19298
20
0.190353
11
1.18801
21
0.192099
0
LINE
8
BLACK
6
CONTINUOUS
10
1.18801
20
0.192099
11
1.18377
21
0.195228
0
LINE
8
BLACK
6
CONTINUOUS
10
1.18377
20
0.195228
11
1.18064
21
0.199466
0
LINE
8
BLACK
6
CONTINUOUS
10
1.18064
20
0.199466
11
1.1789
21
0.204436
0
LINE
8
BLACK
6
CONTINUOUS
10
1.1789
20
0.204436
11
1.17858
21
0.207756
0
LINE
8
BLACK
6
CONTINUOUS
10
1.17858
20
0.207756
11
1.17858
21
0.227441
0
LINE
8
BLACK
6
CONTINUOUS
10
1.17858
20
0.227441
11
1.1789
21
0.230761
0
LINE
8
BLACK
6
CONTINUOUS
10
1.1789
20
0.230761
11
1.18064
21
0.235731
0
LINE
8
BLACK
6
CONTINUOUS
10
1.18064
20
0.235731
11
1.18377
21
0.239968
0
LINE
8
BLACK
6
CONTINUOUS
10
1.18377
20
0.239968
11
1.18801
21
0.243098
0
LINE
8
BLACK
6
CONTINUOUS
10
1.18801
20
0.243098
11
1.19298
21
0.244844
0
LINE
8
BLACK
6
CONTINUOUS
10
1.19298
20
0.244844
11
1.1963
21
0.245157
0
LINE
8
BLACK
6
CONTINUOUS
10
1.1963
20
0.245157
11
1.2337
21
0.245157
0
LINE
8
BLACK
6
CONTINUOUS
10
1.2337
20
0.245157
11
1.23702
21
0.244844
0
LINE
8
BLACK
6
CONTINUOUS
10
1.33104
20
0.246812
11
1.33601
21
0.245067
0
LINE
8
BLACK
6
CONTINUOUS
10
1.33601
20
0.245067
11
1.34024
21
0.241937
0
LINE
8
BLACK
6
CONTINUOUS
10
1.34024
20
0.241937
11
1.34337
21
0.2377
0
LINE
8
BLACK
6
CONTINUOUS
10
1.34337
20
0.2377
11
1.34512
21
0.232729
0
LINE
8
BLACK
6
CONTINUOUS
10
1.34512
20
0.232729
11
1.34543
21
0.229409
0
LINE
8
BLACK
6
CONTINUOUS
10
1.34543
20
0.229409
11
1.34543
21
0.20874
0
LINE
8
BLACK
6
CONTINUOUS
10
1.34543
20
0.20874
11
1.34512
21
0.20542
0
LINE
8
BLACK
6
CONTINUOUS
10
1.34512
20
0.20542
11
1.34337
21
0.20045
0
LINE
8
BLACK
6
CONTINUOUS
10
1.34337
20
0.20045
11
1.34024
21
0.196213
0
LINE
8
BLACK
6
CONTINUOUS
10
1.34024
20
0.196213
11
1.33601
21
0.193083
0
LINE
8
BLACK
6
CONTINUOUS
10
1.33601
20
0.193083
11
1.33104
21
0.191337
0
LINE
8
BLACK
6
CONTINUOUS
10
1.33104
20
0.191337
11
1.32772
21
0.191024
0
LINE
8
BLACK
6
CONTINUOUS
10
1.32772
20
0.191024
11
1.29228
21
0.191024
0
LINE
8
BLACK
6
CONTINUOUS
10
1.29228
20
0.191024
11
1.28896
21
0.191337
0
LINE
8
BLACK
6
CONTINUOUS
10
1.28896
20
0.191337
11
1.28399
21
0.193083
0
LINE
8
BLACK
6
CONTINUOUS
10
1.28399
20
0.193083
11
1.27976
21
0.196213
0
LINE
8
BLACK
6
CONTINUOUS
10
1.27976
20
0.196213
11
1.27663
21
0.20045
0
LINE
8
BLACK
6
CONTINUOUS
10
1.27663
20
0.20045
11
1.27488
21
0.20542
0
LINE
8
BLACK
6
CONTINUOUS
10
1.27488
20
0.20542
11
1.27457
21
0.20874
0
LINE
8
BLACK
6
CONTINUOUS
10
1.27457
20
0.20874
11
1.27457
21
0.229409
0
LINE
8
BLACK
6
CONTINUOUS
10
1.27457
20
0.229409
11
1.27488
21
0.232729
0
LINE
8
BLACK
6
CONTINUOUS
10
1.27488
20
0.232729
11
1.27663
21
0.2377
0
LINE
8
BLACK
6
CONTINUOUS
10
1.27663
20
0.2377
11
1.27976
21
0.241937
0
LINE
8
BLACK
6
CONTINUOUS
10
1.27976
20
0.241937
11
1.28399
21
0.245067
0
LINE
8
BLACK
6
CONTINUOUS
10
1.28399
20
0.245067
11
1.28896
21
0.246812
0
LINE
8
BLACK
6
CONTINUOUS
10
1.28896
20
0.246812
11
1.29228
21
0.247126
0
LINE
8
BLACK
6
CONTINUOUS
10
1.29228
20
0.247126
11
1.32772
21
0.247126
0
LINE
8
BLACK
6
CONTINUOUS
10
1.32772
20
0.247126
11
1.33104
21
0.246812
0
LINE
8
BLACK
6
CONTINUOUS
10
0.732856
20
0.271975
11
0.73541
21
0.270268
0
LINE
8
BLACK
6
CONTINUOUS
10
0.73541
20
0.270268
11
0.737117
21
0.267713
0
LINE
8
BLACK
6
CONTINUOUS
10
0.737117
20
0.267713
11
0.737717
21
0.2647
0
LINE
8
BLACK
6
CONTINUOUS
10
0.737717
20
0.2647
11
0.737717
21
0.2253
0
LINE
8
BLACK
6
CONTINUOUS
10
0.737717
20
0.2253
11
0.737117
21
0.222287
0
LINE
8
BLACK
6
CONTINUOUS
10
0.737117
20
0.222287
11
0.73541
21
0.219732
0
LINE
8
BLACK
6
CONTINUOUS
10
0.73541
20
0.219732
11
0.732856
21
0.218025
0
LINE
8
BLACK
6
CONTINUOUS
10
0.732856
20
0.218025
11
0.729843
21
0.217426
0
LINE
8
BLACK
6
CONTINUOUS
10
0.729843
20
0.217426
11
0.710157
21
0.217426
0
LINE
8
BLACK
6
CONTINUOUS
10
0.710157
20
0.217426
11
0.707144
21
0.218025
0
LINE
8
BLACK
6
CONTINUOUS
10
0.707144
20
0.218025
11
0.70459
21
0.219732
0
LINE
8
BLACK
6
CONTINUOUS
10
0.70459
20
0.219732
11
0.702883
21
0.222287
0
LINE
8
BLACK
6
CONTINUOUS
10
0.702883
20
0.222287
11
0.702283
21
0.2253
0
LINE
8
BLACK
6
CONTINUOUS
10
0.702283
20
0.2253
11
0.702283
21
0.2647
0
LINE
8
BLACK
6
CONTINUOUS
10
0.702283
20
0.2647
11
0.702883
21
0.267713
0
LINE
8
BLACK
6
CONTINUOUS
10
0.702883
20
0.267713
11
0.70459
21
0.270268
0
LINE
8
BLACK
6
CONTINUOUS
10
0.70459
20
0.270268
11
0.707144
21
0.271975
0
LINE
8
BLACK
6
CONTINUOUS
10
0.707144
20
0.271975
11
0.710157
21
0.272574
0
LINE
8
BLACK
6
CONTINUOUS
10
0.710157
20
0.272574
11
0.729843
21
0.272574
0
LINE
8
BLACK
6
CONTINUOUS
10
0.729843
20
0.272574
11
0.732856
21
0.271975
0
LINE
8
BLACK
6
CONTINUOUS
10
0.770356
20
0.271975
11
0.77291
21
0.270268
0
LINE
8
BLACK
6
CONTINUOUS
10
0.77291
20
0.270268
11
0.774617
21
0.267713
0
LINE
8
BLACK
6
CONTINUOUS
10
0.774617
20
0.267713
11
0.775217
21
0.2647
0
LINE
8
BLACK
6
CONTINUOUS
10
0.775217
20
0.2647
11
0.775217
21
0.2253
0
LINE
8
BLACK
6
CONTINUOUS
10
0.775217
20
0.2253
11
0.774617
21
0.222287
0
LINE
8
BLACK
6
CONTINUOUS
10
0.774617
20
0.222287
11
0.77291
21
0.219732
0
LINE
8
BLACK
6
CONTINUOUS
10
0.77291
20
0.219732
11
0.770356
21
0.218025
0
LINE
8
BLACK
6
CONTINUOUS
10
0.770356
20
0.218025
11
0.767343
21
0.217426
0
LINE
8
BLACK
6
CONTINUOUS
10
0.767343
20
0.217426
11
0.747657
21
0.217426
0
LINE
8
BLACK
6
CONTINUOUS
10
0.747657
20
0.217426
11
0.744644
21
0.218025
0
LINE
8
BLACK
6
CONTINUOUS
10
0.744644
20
0.218025
11
0.74209
21
0.219732
0
LINE
8
BLACK
6
CONTINUOUS
10
0.74209
20
0.219732
11
0.740383
21
0.222287
0
LINE
8
BLACK
6
CONTINUOUS
10
0.740383
20
0.222287
11
0.739783
21
0.2253
0
LINE
8
BLACK
6
CONTINUOUS
10
0.739783
20
0.2253
11
0.739783
21
0.2647
0
LINE
8
BLACK
6
CONTINUOUS
10
0.739783
20
0.2647
11
0.740383
21
0.267713
0
LINE
8
BLACK
6
CONTINUOUS
10
0.740383
20
0.267713
11
0.74209
21
0.270268
0
LINE
8
BLACK
6
CONTINUOUS
10
0.74209
20
0.270268
11
0.744644
21
0.271975
0
LINE
8
BLACK
6
CONTINUOUS
10
0.744644
20
0.271975
11
0.747657
21
0.272574
0
LINE
8
BLACK
6
CONTINUOUS
10
0.747657
20
0.272574
11
0.767343
21
0.272574
0
LINE
8
BLACK
6
CONTINUOUS
10
0.767343
20
0.272574
11
0.770356
21
0.271975
0
LINE
8
BLACK
6
CONTINUOUS
10
0.695356
20
0.271975
11
0.69791
21
0.270268
0
LINE
8
BLACK
6
CONTINUOUS
10
0.69791
20
0.270268
11
0.699617
21
0.267713
0
LINE
8
BLACK
6
CONTINUOUS
10
0.699617
20
0.267713
11
0.700217
21
0.2647
0
LINE
8
BLACK
6
CONTINUOUS
10
0.700217
20
0.2647
11
0.700217
21
0.2253
0
LINE
8
BLACK
6
CONTINUOUS
10
0.700217
20
0.2253
11
0.699617
21
0.222287
0
LINE
8
BLACK
6
CONTINUOUS
10
0.699617
20
0.222287
11
0.69791
21
0.219732
0
LINE
8
BLACK
6
CONTINUOUS
10
0.69791
20
0.219732
11
0.695356
21
0.218025
0
LINE
8
BLACK
6
CONTINUOUS
10
0.695356
20
0.218025
11
0.692343
21
0.217426
0
LINE
8
BLACK
6
CONTINUOUS
10
0.692343
20
0.217426
11
0.672657
21
0.217426
0
LINE
8
BLACK
6
CONTINUOUS
10
0.672657
20
0.217426
11
0.669644
21
0.218025
0
LINE
8
BLACK
6
CONTINUOUS
10
0.669644
20
0.218025
11
0.66709
21
0.219732
0
LINE
8
BLACK
6
CONTINUOUS
10
0.66709
20
0.219732
11
0.665383
21
0.222287
0
LINE
8
BLACK
6
CONTINUOUS
10
0.665383
20
0.222287
11
0.664783
21
0.2253
0
LINE
8
BLACK
6
CONTINUOUS
10
0.664783
20
0.2253
11
0.664783
21
0.2647
0
LINE
8
BLACK
6
CONTINUOUS
10
0.664783
20
0.2647
11
0.665383
21
0.267713
0
LINE
8
BLACK
6
CONTINUOUS
10
0.665383
20
0.267713
11
0.66709
21
0.270268
0
LINE
8
BLACK
6
CONTINUOUS
10
0.66709
20
0.270268
11
0.669644
21
0.271975
0
LINE
8
BLACK
6
CONTINUOUS
10
0.669644
20
0.271975
11
0.672657
21
0.272574
0
LINE
8
BLACK
6
CONTINUOUS
10
0.672657
20
0.272574
11
0.692343
21
0.272574
0
LINE
8
BLACK
6
CONTINUOUS
10
0.692343
20
0.272574
11
0.695356
21
0.271975
0
LINE
8
BLACK
6
CONTINUOUS
10
0.509011
20
0.307321
11
0.513982
21
0.305576
0
LINE
8
BLACK
6
CONTINUOUS
10
0.513982
20
0.305576
11
0.518219
21
0.302446
0
LINE
8
BLACK
6
CONTINUOUS
10
0.518219
20
0.302446
11
0.521349
21
0.298209
0
LINE
8
BLACK
6
CONTINUOUS
10
0.521349
20
0.298209
11
0.523094
21
0.293238
0
LINE
8
BLACK
6
CONTINUOUS
10
0.523094
20
0.293238
11
0.523408
21
0.289919
0
LINE
8
BLACK
6
CONTINUOUS
10
0.523408
20
0.289919
11
0.523408
21
0.270234
0
LINE
8
BLACK
6
CONTINUOUS
10
0.523408
20
0.270234
11
0.523094
21
0.266914
0
LINE
8
BLACK
6
CONTINUOUS
10
0.523094
20
0.266914
11
0.521349
21
0.261943
0
LINE
8
BLACK
6
CONTINUOUS
10
0.521349
20
0.261943
11
0.518219
21
0.257706
0
LINE
8
BLACK
6
CONTINUOUS
10
0.518219
20
0.257706
11
0.513982
21
0.254576
0
LINE
8
BLACK
6
CONTINUOUS
10
0.513982
20
0.254576
11
0.509011
21
0.252831
0
LINE
8
BLACK
6
CONTINUOUS
10
0.509011
20
0.252831
11
0.505692
21
0.252517
0
LINE
8
BLACK
6
CONTINUOUS
10
0.505692
20
0.252517
11
0.46829
21
0.252517
0
LINE
8
BLACK
6
CONTINUOUS
10
0.46829
20
0.252517
11
0.46497
21
0.252831
0
LINE
8
BLACK
6
CONTINUOUS
10
0.46497
20
0.252831
11
0.46
21
0.254576
0
LINE
8
BLACK
6
CONTINUOUS
10
0.46
20
0.254576
11
0.455763
21
0.257706
0
LINE
8
BLACK
6
CONTINUOUS
10
0.455763
20
0.257706
11
0.452633
21
0.261943
0
LINE
8
BLACK
6
CONTINUOUS
10
0.452633
20
0.261943
11
0.450887
21
0.266914
0
LINE
8
BLACK
6
CONTINUOUS
10
0.450887
20
0.266914
11
0.450574
21
0.270234
0
LINE
8
BLACK
6
CONTINUOUS
10
0.450574
20
0.270234
11
0.450574
21
0.289919
0
LINE
8
BLACK
6
CONTINUOUS
10
0.450574
20
0.289919
11
0.450887
21
0.293238
0
LINE
8
BLACK
6
CONTINUOUS
10
0.450887
20
0.293238
11
0.452633
21
0.298209
0
LINE
8
BLACK
6
CONTINUOUS
10
0.452633
20
0.298209
11
0.455763
21
0.302446
0
LINE
8
BLACK
6
CONTINUOUS
10
0.455763
20
0.302446
11
0.46
21
0.305576
0
LINE
8
BLACK
6
CONTINUOUS
10
0.46
20
0.305576
11
0.46497
21
0.307321
0
LINE
8
BLACK
6
CONTINUOUS
10
0.46497
20
0.307321
11
0.46829
21
0.307635
0
LINE
8
BLACK
6
CONTINUOUS
10
0.46829
20
0.307635
11
0.505692
21
0.307635
0
LINE
8
BLACK
6
CONTINUOUS
10
0.505692
20
0.307635
11
0.509011
21
0.307321
0
LINE
8
BLACK
6
CONTINUOUS
10
0.595547
20
0.308502
11
0.600517
21
0.306757
0
LINE
8
BLACK
6
CONTINUOUS
10
0.600517
20
0.306757
11
0.604755
21
0.303627
0
LINE
8
BLACK
6
CONTINUOUS
10
0.604755
20
0.303627
11
0.607884
21
0.29939
0
LINE
8
BLACK
6
CONTINUOUS
10
0.607884
20
0.29939
11
0.60963
21
0.294419
0
LINE
8
BLACK
6
CONTINUOUS
10
0.60963
20
0.294419
11
0.609944
21
0.2911
0
LINE
8
BLACK
6
CONTINUOUS
10
0.609944
20
0.2911
11
0.609944
21
0.27043
0
LINE
8
BLACK
6
CONTINUOUS
10
0.609944
20
0.27043
11
0.60963
21
0.267111
0
LINE
8
BLACK
6
CONTINUOUS
10
0.60963
20
0.267111
11
0.607884
21
0.26214
0
LINE
8
BLACK
6
CONTINUOUS
10
0.607884
20
0.26214
11
0.604755
21
0.257903
0
LINE
8
BLACK
6
CONTINUOUS
10
0.604755
20
0.257903
11
0.600517
21
0.254773
0
LINE
8
BLACK
6
CONTINUOUS
10
0.600517
20
0.254773
11
0.595547
21
0.253028
0
LINE
8
BLACK
6
CONTINUOUS
10
0.595547
20
0.253028
11
0.592227
21
0.252714
0
LINE
8
BLACK
6
CONTINUOUS
10
0.592227
20
0.252714
11
0.556794
21
0.252714
0
LINE
8
BLACK
6
CONTINUOUS
10
0.556794
20
0.252714
11
0.553474
21
0.253028
0
LINE
8
BLACK
6
CONTINUOUS
10
0.553474
20
0.253028
11
0.548504
21
0.254773
0
LINE
8
BLACK
6
CONTINUOUS
10
0.548504
20
0.254773
11
0.544267
21
0.257903
0
LINE
8
BLACK
6
CONTINUOUS
10
0.544267
20
0.257903
11
0.541137
21
0.26214
0
LINE
8
BLACK
6
CONTINUOUS
10
0.541137
20
0.26214
11
0.539391
21
0.267111
0
LINE
8
BLACK
6
CONTINUOUS
10
0.539391
20
0.267111
11
0.539078
21
0.27043
0
LINE
8
BLACK
6
CONTINUOUS
10
0.539078
20
0.27043
11
0.539078
21
0.2911
0
LINE
8
BLACK
6
CONTINUOUS
10
0.539078
20
0.2911
11
0.539391
21
0.294419
0
LINE
8
BLACK
6
CONTINUOUS
10
0.539391
20
0.294419
11
0.541137
21
0.29939
0
LINE
8
BLACK
6
CONTINUOUS
10
0.541137
20
0.29939
11
0.544267
21
0.303627
0
LINE
8
BLACK
6
CONTINUOUS
10
0.544267
20
0.303627
11
0.548504
21
0.306757
0
LINE
8
BLACK
6
CONTINUOUS
10
0.548504
20
0.306757
11
0.553474
21
0.308502
0
LINE
8
BLACK
6
CONTINUOUS
10
0.553474
20
0.308502
11
0.556794
21
0.308816
0
LINE
8
BLACK
6
CONTINUOUS
10
0.556794
20
0.308816
11
0.592227
21
0.308816
0
LINE
8
BLACK
6
CONTINUOUS
10
0.592227
20
0.308816
11
0.595547
21
0.308502
0
LINE
8
BLACK
6
CONTINUOUS
10
1.13604
20
0.313663
11
1.14101
21
0.311917
0
LINE
8
BLACK
6
CONTINUOUS
10
1.14101
20
0.311917
11
1.14524
21
0.308787
0
LINE
8
BLACK
6
CONTINUOUS
10
1.14524
20
0.308787
11
1.14837
21
0.30455
0
LINE
8
BLACK
6
CONTINUOUS
10
1.14837
20
0.30455
11
1.15012
21
0.29958
0
LINE
8
BLACK
6
CONTINUOUS
10
1.15012
20
0.29958
11
1.15043
21
0.29626
0
LINE
8
BLACK
6
CONTINUOUS
10
1.15043
20
0.29626
11
1.15043
21
0.275591
0
LINE
8
BLACK
6
CONTINUOUS
10
1.15043
20
0.275591
11
1.15012
21
0.272271
0
LINE
8
BLACK
6
CONTINUOUS
10
1.15012
20
0.272271
11
1.14837
21
0.2673
0
LINE
8
BLACK
6
CONTINUOUS
10
1.14837
20
0.2673
11
1.14524
21
0.263063
0
LINE
8
BLACK
6
CONTINUOUS
10
1.14524
20
0.263063
11
1.14101
21
0.259933
0
LINE
8
BLACK
6
CONTINUOUS
10
1.14101
20
0.259933
11
1.13604
21
0.258188
0
LINE
8
BLACK
6
CONTINUOUS
10
1.13604
20
0.258188
11
1.13272
21
0.257874
0
LINE
8
BLACK
6
CONTINUOUS
10
1.13272
20
0.257874
11
1.09728
21
0.257874
0
LINE
8
BLACK
6
CONTINUOUS
10
1.09728
20
0.257874
11
1.09396
21
0.258188
0
LINE
8
BLACK
6
CONTINUOUS
10
1.09396
20
0.258188
11
1.08899
21
0.259933
0
LINE
8
BLACK
6
CONTINUOUS
10
1.08899
20
0.259933
11
1.08476
21
0.263063
0
LINE
8
BLACK
6
CONTINUOUS
10
1.08476
20
0.263063
11
1.08163
21
0.2673
0
LINE
8
BLACK
6
CONTINUOUS
10
1.08163
20
0.2673
11
1.07988
21
0.272271
0
LINE
8
BLACK
6
CONTINUOUS
10
1.07988
20
0.272271
11
1.07957
21
0.275591
0
LINE
8
BLACK
6
CONTINUOUS
10
1.07957
20
0.275591
11
1.07957
21
0.29626
0
LINE
8
BLACK
6
CONTINUOUS
10
1.07957
20
0.29626
11
1.07988
21
0.29958
0
LINE
8
BLACK
6
CONTINUOUS
10
1.07988
20
0.29958
11
1.08163
21
0.30455
0
LINE
8
BLACK
6
CONTINUOUS
10
1.08163
20
0.30455
11
1.08476
21
0.308787
0
LINE
8
BLACK
6
CONTINUOUS
10
1.08476
20
0.308787
11
1.08899
21
0.311917
0
LINE
8
BLACK
6
CONTINUOUS
10
1.08899
20
0.311917
11
1.09396
21
0.313663
0
LINE
8
BLACK
6
CONTINUOUS
10
1.09396
20
0.313663
11
1.09728
21
0.313976
0
LINE
8
BLACK
6
CONTINUOUS
10
1.09728
20
0.313976
11
1.13272
21
0.313976
0
LINE
8
BLACK
6
CONTINUOUS
10
1.13272
20
0.313976
11
1.13604
21
0.313663
0
LINE
8
BLACK
6
CONTINUOUS
10
1.04104
20
0.313663
11
1.04601
21
0.311917
0
LINE
8
BLACK
6
CONTINUOUS
10
1.04601
20
0.311917
11
1.05024
21
0.308787
0
LINE
8
BLACK
6
CONTINUOUS
10
1.05024
20
0.308787
11
1.05337
21
0.30455
0
LINE
8
BLACK
6
CONTINUOUS
10
1.05337
20
0.30455
11
1.05512
21
0.29958
0
LINE
8
BLACK
6
CONTINUOUS
10
1.05512
20
0.29958
11
1.05543
21
0.29626
0
LINE
8
BLACK
6
CONTINUOUS
10
1.05543
20
0.29626
11
1.05543
21
0.275591
0
LINE
8
BLACK
6
CONTINUOUS
10
1.05543
20
0.275591
11
1.05512
21
0.272271
0
LINE
8
BLACK
6
CONTINUOUS
10
1.05512
20
0.272271
11
1.05337
21
0.2673
0
LINE
8
BLACK
6
CONTINUOUS
10
1.05337
20
0.2673
11
1.05024
21
0.263063
0
LINE
8
BLACK
6
CONTINUOUS
10
1.05024
20
0.263063
11
1.04601
21
0.259933
0
LINE
8
BLACK
6
CONTINUOUS
10
1.04601
20
0.259933
11
1.04104
21
0.258188
0
LINE
8
BLACK
6
CONTINUOUS
10
1.04104
20
0.258188
11
1.03772
21
0.257874
0
LINE
8
BLACK
6
CONTINUOUS
10
1.03772
20
0.257874
11
1.00228
21
0.257874
0
LINE
8
BLACK
6
CONTINUOUS
10
1.00228
20
0.257874
11
0.998964
21
0.258188
0
LINE
8
BLACK
6
CONTINUOUS
10
0.998964
20
0.258188
11
0.993993
21
0.259933
0
LINE
8
BLACK
6
CONTINUOUS
10
0.993993
20
0.259933
11
0.989756
21
0.263063
0
LINE
8
BLACK
6
CONTINUOUS
10
0.989756
20
0.263063
11
0.986626
21
0.2673
0
LINE
8
BLACK
6
CONTINUOUS
10
0.986626
20
0.2673
11
0.984881
21
0.272271
0
LINE
8
BLACK
6
CONTINUOUS
10
0.984881
20
0.272271
11
0.984567
21
0.275591
0
LINE
8
BLACK
6
CONTINUOUS
10
0.984567
20
0.275591
11
0.984567
21
0.29626
0
LINE
8
BLACK
6
CONTINUOUS
10
0.984567
20
0.29626
11
0.984881
21
0.29958
0
LINE
8
BLACK
6
CONTINUOUS
10
0.984881
20
0.29958
11
0.986626
21
0.30455
0
LINE
8
BLACK
6
CONTINUOUS
10
0.986626
20
0.30455
11
0.989756
21
0.308787
0
LINE
8
BLACK
6
CONTINUOUS
10
0.989756
20
0.308787
11
0.993993
21
0.311917
0
LINE
8
BLACK
6
CONTINUOUS
10
0.993993
20
0.311917
11
0.998964
21
0.313663
0
LINE
8
BLACK
6
CONTINUOUS
10
0.998964
20
0.313663
11
1.00228
21
0.313976
0
LINE
8
BLACK
6
CONTINUOUS
10
1.00228
20
0.313976
11
1.03772
21
0.313976
0
LINE
8
BLACK
6
CONTINUOUS
10
1.03772
20
0.313976
11
1.04104
21
0.313663
0
LINE
8
BLACK
6
CONTINUOUS
10
0.925564
20
0.331104
11
0.930534
21
0.329358
0
LINE
8
BLACK
6
CONTINUOUS
10
0.930534
20
0.329358
11
0.934772
21
0.326228
0
LINE
8
BLACK
6
CONTINUOUS
10
0.934772
20
0.326228
11
0.937901
21
0.321991
0
LINE
8
BLACK
6
CONTINUOUS
10
0.937901
20
0.321991
11
0.939647
21
0.317021
0
LINE
8
BLACK
6
CONTINUOUS
10
0.939647
20
0.317021
11
0.939961
21
0.313701
0
LINE
8
BLACK
6
CONTINUOUS
10
0.939961
20
0.313701
11
0.939961
21
0.276299
0
LINE
8
BLACK
6
CONTINUOUS
10
0.939961
20
0.276299
11
0.939647
21
0.272979
0
LINE
8
BLACK
6
CONTINUOUS
10
0.939647
20
0.272979
11
0.937901
21
0.268009
0
LINE
8
BLACK
6
CONTINUOUS
10
0.937901
20
0.268009
11
0.934772
21
0.263772
0
LINE
8
BLACK
6
CONTINUOUS
10
0.934772
20
0.263772
11
0.930534
21
0.260642
0
LINE
8
BLACK
6
CONTINUOUS
10
0.930534
20
0.260642
11
0.925564
21
0.258896
0
LINE
8
BLACK
6
CONTINUOUS
10
0.925564
20
0.258896
11
0.922244
21
0.258583
0
LINE
8
BLACK
6
CONTINUOUS
10
0.922244
20
0.258583
11
0.902559
21
0.258583
0
LINE
8
BLACK
6
CONTINUOUS
10
0.902559
20
0.258583
11
0.899239
21
0.258896
0
LINE
8
BLACK
6
CONTINUOUS
10
0.899239
20
0.258896
11
0.894269
21
0.260642
0
LINE
8
BLACK
6
CONTINUOUS
10
0.894269
20
0.260642
11
0.890032
21
0.263772
0
LINE
8
BLACK
6
CONTINUOUS
10
0.890032
20
0.263772
11
0.886902
21
0.268009
0
LINE
8
BLACK
6
CONTINUOUS
10
0.886902
20
0.268009
11
0.885156
21
0.272979
0
LINE
8
BLACK
6
CONTINUOUS
10
0.885156
20
0.272979
11
0.884843
21
0.276299
0
LINE
8
BLACK
6
CONTINUOUS
10
0.884843
20
0.276299
11
0.884843
21
0.313701
0
LINE
8
BLACK
6
CONTINUOUS
10
0.884843
20
0.313701
11
0.885156
21
0.317021
0
LINE
8
BLACK
6
CONTINUOUS
10
0.885156
20
0.317021
11
0.886902
21
0.321991
0
LINE
8
BLACK
6
CONTINUOUS
10
0.886902
20
0.321991
11
0.890032
21
0.326228
0
LINE
8
BLACK
6
CONTINUOUS
10
0.890032
20
0.326228
11
0.894269
21
0.329358
0
LINE
8
BLACK
6
CONTINUOUS
10
0.894269
20
0.329358
11
0.899239
21
0.331104
0
LINE
8
BLACK
6
CONTINUOUS
10
0.899239
20
0.331104
11
0.902559
21
0.331417
0
LINE
8
BLACK
6
CONTINUOUS
10
0.902559
20
0.331417
11
0.922244
21
0.331417
0
LINE
8
BLACK
6
CONTINUOUS
10
0.922244
20
0.331417
11
0.925564
21
0.331104
0
LINE
8
BLACK
6
CONTINUOUS
10
0.850761
20
0.331104
11
0.855731
21
0.329358
0
LINE
8
BLACK
6
CONTINUOUS
10
0.855731
20
0.329358
11
0.859968
21
0.326228
0
LINE
8
BLACK
6
CONTINUOUS
10
0.859968
20
0.326228
11
0.863098
21
0.321991
0
LINE
8
BLACK
6
CONTINUOUS
10
0.863098
20
0.321991
11
0.864844
21
0.317021
0
LINE
8
BLACK
6
CONTINUOUS
10
0.864844
20
0.317021
11
0.865157
21
0.313701
0
LINE
8
BLACK
6
CONTINUOUS
10
0.865157
20
0.313701
11
0.865157
21
0.276299
0
LINE
8
BLACK
6
CONTINUOUS
10
0.865157
20
0.276299
11
0.864844
21
0.272979
0
LINE
8
BLACK
6
CONTINUOUS
10
0.864844
20
0.272979
11
0.863098
21
0.268009
0
LINE
8
BLACK
6
CONTINUOUS
10
0.863098
20
0.268009
11
0.859968
21
0.263772
0
LINE
8
BLACK
6
CONTINUOUS
10
0.859968
20
0.263772
11
0.855731
21
0.260642
0
LINE
8
BLACK
6
CONTINUOUS
10
0.855731
20
0.260642
11
0.850761
21
0.258896
0
LINE
8
BLACK
6
CONTINUOUS
10
0.850761
20
0.258896
11
0.847441
21
0.258583
0
LINE
8
BLACK
6
CONTINUOUS
10
0.847441
20
0.258583
11
0.827756
21
0.258583
0
LINE
8
BLACK
6
CONTINUOUS
10
0.827756
20
0.258583
11
0.824436
21
0.258896
0
LINE
8
BLACK
6
CONTINUOUS
10
0.824436
20
0.258896
11
0.819466
21
0.260642
0
LINE
8
BLACK
6
CONTINUOUS
10
0.819466
20
0.260642
11
0.815228
21
0.263772
0
LINE
8
BLACK
6
CONTINUOUS
10
0.815228
20
0.263772
11
0.812099
21
0.268009
0
LINE
8
BLACK
6
CONTINUOUS
10
0.812099
20
0.268009
11
0.810353
21
0.272979
0
LINE
8
BLACK
6
CONTINUOUS
10
0.810353
20
0.272979
11
0.810039
21
0.276299
0
LINE
8
BLACK
6
CONTINUOUS
10
0.810039
20
0.276299
11
0.810039
21
0.313701
0
LINE
8
BLACK
6
CONTINUOUS
10
0.810039
20
0.313701
11
0.810353
21
0.317021
0
LINE
8
BLACK
6
CONTINUOUS
10
0.810353
20
0.317021
11
0.812099
21
0.321991
0
LINE
8
BLACK
6
CONTINUOUS
10
0.812099
20
0.321991
11
0.815228
21
0.326228
0
LINE
8
BLACK
6
CONTINUOUS
10
0.815228
20
0.326228
11
0.819466
21
0.329358
0
LINE
8
BLACK
6
CONTINUOUS
10
0.819466
20
0.329358
11
0.824436
21
0.331104
0
LINE
8
BLACK
6
CONTINUOUS
10
0.824436
20
0.331104
11
0.827756
21
0.331417
0
LINE
8
BLACK
6
CONTINUOUS
10
0.827756
20
0.331417
11
0.847441
21
0.331417
0
LINE
8
BLACK
6
CONTINUOUS
10
0.847441
20
0.331417
11
0.850761
21
0.331104
0
LINE
8
BLACK
6
CONTINUOUS
10
1.33104
20
0.318663
11
1.33601
21
0.316917
0
LINE
8
BLACK
6
CONTINUOUS
10
1.33601
20
0.316917
11
1.34024
21
0.313787
0
LINE
8
BLACK
6
CONTINUOUS
10
1.34024
20
0.313787
11
1.34337
21
0.30955
0
LINE
8
BLACK
6
CONTINUOUS
10
1.34337
20
0.30955
11
1.34512
21
0.30458
0
LINE
8
BLACK
6
CONTINUOUS
10
1.34512
20
0.30458
11
1.34543
21
0.30126
0
LINE
8
BLACK
6
CONTINUOUS
10
1.34543
20
0.30126
11
1.34543
21
0.280591
0
LINE
8
BLACK
6
CONTINUOUS
10
1.34543
20
0.280591
11
1.34512
21
0.277271
0
LINE
8
BLACK
6
CONTINUOUS
10
1.34512
20
0.277271
11
1.34337
21
0.2723
0
LINE
8
BLACK
6
CONTINUOUS
10
1.34337
20
0.2723
11
1.34024
21
0.268063
0
LINE
8
BLACK
6
CONTINUOUS
10
1.34024
20
0.268063
11
1.33601
21
0.264933
0
LINE
8
BLACK
6
CONTINUOUS
10
1.33601
20
0.264933
11
1.33104
21
0.263188
0
LINE
8
BLACK
6
CONTINUOUS
10
1.33104
20
0.263188
11
1.32772
21
0.262874
0
LINE
8
BLACK
6
CONTINUOUS
10
1.32772
20
0.262874
11
1.29228
21
0.262874
0
LINE
8
BLACK
6
CONTINUOUS
10
1.29228
20
0.262874
11
1.28896
21
0.263188
0
LINE
8
BLACK
6
CONTINUOUS
10
1.28896
20
0.263188
11
1.28399
21
0.264933
0
LINE
8
BLACK
6
CONTINUOUS
10
1.28399
20
0.264933
11
1.27976
21
0.268063
0
LINE
8
BLACK
6
CONTINUOUS
10
1.27976
20
0.268063
11
1.27663
21
0.2723
0
LINE
8
BLACK
6
CONTINUOUS
10
1.27663
20
0.2723
11
1.27488
21
0.277271
0
LINE
8
BLACK
6
CONTINUOUS
10
1.27488
20
0.277271
11
1.27457
21
0.280591
0
LINE
8
BLACK
6
CONTINUOUS
10
1.27457
20
0.280591
11
1.27457
21
0.30126
0
LINE
8
BLACK
6
CONTINUOUS
10
1.27457
20
0.30126
11
1.27488
21
0.30458
0
LINE
8
BLACK
6
CONTINUOUS
10
1.27488
20
0.30458
11
1.27663
21
0.30955
0
LINE
8
BLACK
6
CONTINUOUS
10
1.27663
20
0.30955
11
1.27976
21
0.313787
0
LINE
8
BLACK
6
CONTINUOUS
10
1.27976
20
0.313787
11
1.28399
21
0.316917
0
LINE
8
BLACK
6
CONTINUOUS
10
1.28399
20
0.316917
11
1.28896
21
0.318663
0
LINE
8
BLACK
6
CONTINUOUS
10
1.28896
20
0.318663
11
1.29228
21
0.318976
0
LINE
8
BLACK
6
CONTINUOUS
10
1.29228
20
0.318976
11
1.32772
21
0.318976
0
LINE
8
BLACK
6
CONTINUOUS
10
1.32772
20
0.318976
11
1.33104
21
0.318663
0
LINE
8
BLACK
6
CONTINUOUS
10
1.23702
20
0.319647
11
1.24199
21
0.317901
0
LINE
8
BLACK
6
CONTINUOUS
10
1.24199
20
0.317901
11
1.24623
21
0.314772
0
LINE
8
BLACK
6
CONTINUOUS
10
1.24623
20
0.314772
11
1.24936
21
0.310534
0
LINE
8
BLACK
6
CONTINUOUS
10
1.24936
20
0.310534
11
1.2511
21
0.305564
0
LINE
8
BLACK
6
CONTINUOUS
10
1.2511
20
0.305564
11
1.25142
21
0.302244
0
LINE
8
BLACK
6
CONTINUOUS
10
1.25142
20
0.302244
11
1.25142
21
0.282559
0
LINE
8
BLACK
6
CONTINUOUS
10
1.25142
20
0.282559
11
1.2511
21
0.279239
0
LINE
8
BLACK
6
CONTINUOUS
10
1.2511
20
0.279239
11
1.24936
21
0.274269
0
LINE
8
BLACK
6
CONTINUOUS
10
1.24936
20
0.274269
11
1.24623
21
0.270032
0
LINE
8
BLACK
6
CONTINUOUS
10
1.24623
20
0.270032
11
1.24199
21
0.266902
0
LINE
8
BLACK
6
CONTINUOUS
10
1.24199
20
0.266902
11
1.23702
21
0.265156
0
LINE
8
BLACK
6
CONTINUOUS
10
1.23702
20
0.265156
11
1.2337
21
0.264843
0
LINE
8
BLACK
6
CONTINUOUS
10
1.2337
20
0.264843
11
1.1963
21
0.264843
0
LINE
8
BLACK
6
CONTINUOUS
10
1.1963
20
0.264843
11
1.19298
21
0.265156
0
LINE
8
BLACK
6
CONTINUOUS
10
1.19298
20
0.265156
11
1.18801
21
0.266902
0
LINE
8
BLACK
6
CONTINUOUS
10
1.18801
20
0.266902
11
1.18377
21
0.270032
0
LINE
8
BLACK
6
CONTINUOUS
10
1.18377
20
0.270032
11
1.18064
21
0.274269
0
LINE
8
BLACK
6
CONTINUOUS
10
1.18064
20
0.274269
11
1.1789
21
0.279239
0
LINE
8
BLACK
6
CONTINUOUS
10
1.1789
20
0.279239
11
1.17858
21
0.282559
0
LINE
8
BLACK
6
CONTINUOUS
10
1.17858
20
0.282559
11
1.17858
21
0.302244
0
LINE
8
BLACK
6
CONTINUOUS
10
1.17858
20
0.302244
11
1.1789
21
0.305564
0
LINE
8
BLACK
6
CONTINUOUS
10
1.1789
20
0.305564
11
1.18064
21
0.310534
0
LINE
8
BLACK
6
CONTINUOUS
10
1.18064
20
0.310534
11
1.18377
21
0.314772
0
LINE
8
BLACK
6
CONTINUOUS
10
1.18377
20
0.314772
11
1.18801
21
0.317901
0
LINE
8
BLACK
6
CONTINUOUS
10
1.18801
20
0.317901
11
1.19298
21
0.319647
0
LINE
8
BLACK
6
CONTINUOUS
10
1.19298
20
0.319647
11
1.1963
21
0.319961
0
LINE
8
BLACK
6
CONTINUOUS
10
1.1963
20
0.319961
11
1.2337
21
0.319961
0
LINE
8
BLACK
6
CONTINUOUS
10
1.2337
20
0.319961
11
1.23702
21
0.319647
0
LINE
8
BLACK
6
CONTINUOUS
10
1.50202
20
0.329844
11
1.50699
21
0.328098
0
LINE
8
BLACK
6
CONTINUOUS
10
1.50699
20
0.328098
11
1.51123
21
0.324968
0
LINE
8
BLACK
6
CONTINUOUS
10
1.51123
20
0.324968
11
1.51436
21
0.320731
0
LINE
8
BLACK
6
CONTINUOUS
10
1.51436
20
0.320731
11
1.5161
21
0.315761
0
LINE
8
BLACK
6
CONTINUOUS
10
1.5161
20
0.315761
11
1.51642
21
0.312441
0
LINE
8
BLACK
6
CONTINUOUS
10
1.51642
20
0.312441
11
1.51642
21
0.292756
0
LINE
8
BLACK
6
CONTINUOUS
10
1.51642
20
0.292756
11
1.5161
21
0.289436
0
LINE
8
BLACK
6
CONTINUOUS
10
1.5161
20
0.289436
11
1.51436
21
0.284466
0
LINE
8
BLACK
6
CONTINUOUS
10
1.51436
20
0.284466
11
1.51123
21
0.280228
0
LINE
8
BLACK
6
CONTINUOUS
10
1.51123
20
0.280228
11
1.50699
21
0.277099
0
LINE
8
BLACK
6
CONTINUOUS
10
1.50699
20
0.277099
11
1.50202
21
0.275353
0
LINE
8
BLACK
6
CONTINUOUS
10
1.50202
20
0.275353
11
1.4987
21
0.275039
0
LINE
8
BLACK
6
CONTINUOUS
10
1.4987
20
0.275039
11
1.4613
21
0.275039
0
LINE
8
BLACK
6
CONTINUOUS
10
1.4613
20
0.275039
11
1.45798
21
0.275353
0
LINE
8
BLACK
6
CONTINUOUS
10
1.45798
20
0.275353
11
1.45301
21
0.277099
0
LINE
8
BLACK
6
CONTINUOUS
10
1.45301
20
0.277099
11
1.44877
21
0.280228
0
LINE
8
BLACK
6
CONTINUOUS
10
1.44877
20
0.280228
11
1.44564
21
0.284466
0
LINE
8
BLACK
6
CONTINUOUS
10
1.44564
20
0.284466
11
1.4439
21
0.289436
0
LINE
8
BLACK
6
CONTINUOUS
10
1.4439
20
0.289436
11
1.44358
21
0.292756
0
LINE
8
BLACK
6
CONTINUOUS
10
1.44358
20
0.292756
11
1.44358
21
0.312441
0
LINE
8
BLACK
6
CONTINUOUS
10
1.44358
20
0.312441
11
1.4439
21
0.315761
0
LINE
8
BLACK
6
CONTINUOUS
10
1.4439
20
0.315761
11
1.44564
21
0.320731
0
LINE
8
BLACK
6
CONTINUOUS
10
1.44564
20
0.320731
11
1.44877
21
0.324968
0
LINE
8
BLACK
6
CONTINUOUS
10
1.44877
20
0.324968
11
1.45301
21
0.328098
0
LINE
8
BLACK
6
CONTINUOUS
10
1.45301
20
0.328098
11
1.45798
21
0.329844
0
LINE
8
BLACK
6
CONTINUOUS
10
1.45798
20
0.329844
11
1.4613
21
0.330157
0
LINE
8
BLACK
6
CONTINUOUS
10
1.4613
20
0.330157
11
1.4987
21
0.330157
0
LINE
8
BLACK
6
CONTINUOUS
10
1.4987
20
0.330157
11
1.50202
21
0.329844
0
LINE
8
BLACK
6
CONTINUOUS
10
1.41104
20
0.331812
11
1.41601
21
0.330067
0
LINE
8
BLACK
6
CONTINUOUS
10
1.41601
20
0.330067
11
1.42024
21
0.326937
0
LINE
8
BLACK
6
CONTINUOUS
10
1.42024
20
0.326937
11
1.42337
21
0.3227
0
LINE
8
BLACK
6
CONTINUOUS
10
1.42337
20
0.3227
11
1.42512
21
0.317729
0
LINE
8
BLACK
6
CONTINUOUS
10
1.42512
20
0.317729
11
1.42543
21
0.314409
0
LINE
8
BLACK
6
CONTINUOUS
10
1.42543
20
0.314409
11
1.42543
21
0.29374
0
LINE
8
BLACK
6
CONTINUOUS
10
1.42543
20
0.29374
11
1.42512
21
0.29042
0
LINE
8
BLACK
6
CONTINUOUS
10
1.42512
20
0.29042
11
1.42337
21
0.28545
0
LINE
8
BLACK
6
CONTINUOUS
10
1.42337
20
0.28545
11
1.42024
21
0.281213
0
LINE
8
BLACK
6
CONTINUOUS
10
1.42024
20
0.281213
11
1.41601
21
0.278083
0
LINE
8
BLACK
6
CONTINUOUS
10
1.41601
20
0.278083
11
1.41104
21
0.276337
0
LINE
8
BLACK
6
CONTINUOUS
10
1.41104
20
0.276337
11
1.40772
21
0.276024
0
LINE
8
BLACK
6
CONTINUOUS
10
1.40772
20
0.276024
11
1.37228
21
0.276024
0
LINE
8
BLACK
6
CONTINUOUS
10
1.37228
20
0.276024
11
1.36896
21
0.276337
0
LINE
8
BLACK
6
CONTINUOUS
10
1.36896
20
0.276337
11
1.36399
21
0.278083
0
LINE
8
BLACK
6
CONTINUOUS
10
1.36399
20
0.278083
11
1.35976
21
0.281213
0
LINE
8
BLACK
6
CONTINUOUS
10
1.35976
20
0.281213
11
1.35663
21
0.28545
0
LINE
8
BLACK
6
CONTINUOUS
10
1.35663
20
0.28545
11
1.35488
21
0.29042
0
LINE
8
BLACK
6
CONTINUOUS
10
1.35488
20
0.29042
11
1.35457
21
0.29374
0
LINE
8
BLACK
6
CONTINUOUS
10
1.35457
20
0.29374
11
1.35457
21
0.314409
0
LINE
8
BLACK
6
CONTINUOUS
10
1.35457
20
0.314409
11
1.35488
21
0.317729
0
LINE
8
BLACK
6
CONTINUOUS
10
1.35488
20
0.317729
11
1.35663
21
0.3227
0
LINE
8
BLACK
6
CONTINUOUS
10
1.35663
20
0.3227
11
1.35976
21
0.326937
0
LINE
8
BLACK
6
CONTINUOUS
10
1.35976
20
0.326937
11
1.36399
21
0.330067
0
LINE
8
BLACK
6
CONTINUOUS
10
1.36399
20
0.330067
11
1.36896
21
0.331812
0
LINE
8
BLACK
6
CONTINUOUS
10
1.36896
20
0.331812
11
1.37228
21
0.332126
0
LINE
8
BLACK
6
CONTINUOUS
10
1.37228
20
0.332126
11
1.40772
21
0.332126
0
LINE
8
BLACK
6
CONTINUOUS
10
1.40772
20
0.332126
11
1.41104
21
0.331812
0
LINE
8
BLACK
6
CONTINUOUS
10
0.0330133
20
0.387275
11
0.0355678
21
0.385568
0
LINE
8
BLACK
6
CONTINUOUS
10
0.0355678
20
0.385568
11
0.0372746
21
0.383013
0
LINE
8
BLACK
6
CONTINUOUS
10
0.0372746
20
0.383013
11
0.037874
21
0.38
0
LINE
8
BLACK
6
CONTINUOUS
10
0.037874
20
0.38
11
0.037874
21
0.32
0
LINE
8
BLACK
6
CONTINUOUS
10
0.037874
20
0.32
11
0.0372746
21
0.316987
0
LINE
8
BLACK
6
CONTINUOUS
10
0.0372746
20
0.316987
11
0.0355678
21
0.314432
0
LINE
8
BLACK
6
CONTINUOUS
10
0.0355678
20
0.314432
11
0.0330133
21
0.312725
0
LINE
8
BLACK
6
CONTINUOUS
10
0.0330133
20
0.312725
11
0.03
21
0.312126
0
LINE
8
BLACK
6
CONTINUOUS
10
0.03
20
0.312126
11
-0.03
21
0.312126
0
LINE
8
BLACK
6
CONTINUOUS
10
-0.03
20
0.312126
11
-0.0330133
21
0.312725
0
LINE
8
BLACK
6
CONTINUOUS
10
-0.0330133
20
0.312725
11
-0.0355678
21
0.314432
0
LINE
8
BLACK
6
CONTINUOUS
10
-0.0355678
20
0.314432
11
-0.0372746
21
0.316987
0
LINE
8
BLACK
6
CONTINUOUS
10
-0.0372746
20
0.316987
11
-0.037874
21
0.32
0
LINE
8
BLACK
6
CONTINUOUS
10
-0.037874
20
0.32
11
-0.037874
21
0.38
0
LINE
8
BLACK
6
CONTINUOUS
10
-0.037874
20
0.38
11
-0.0372746
21
0.383013
0
LINE
8
BLACK
6
CONTINUOUS
10
-0.0372746
20
0.383013
11
-0.0355678
21
0.385568
0
LINE
8
BLACK
6
CONTINUOUS
10
-0.0355678
20
0.385568
11
-0.0330133
21
0.387275
0
LINE
8
BLACK
6
CONTINUOUS
10
-0.0330133
20
0.387275
11
-0.03
21
0.387874
0
LINE
8
BLACK
6
CONTINUOUS
10
-0.03
20
0.387874
11
0.03
21
0.387874
0
LINE
8
BLACK
6
CONTINUOUS
10
0.03
20
0.387874
11
0.0330133
21
0.387275
0
LINE
8
BLACK
6
CONTINUOUS
10
0.133013
20
0.387275
11
0.135568
21
0.385568
0
LINE
8
BLACK
6
CONTINUOUS
10
0.135568
20
0.385568
11
0.137275
21
0.383013
0
LINE
8
BLACK
6
CONTINUOUS
10
0.137275
20
0.383013
11
0.137874
21
0.38
0
LINE
8
BLACK
6
CONTINUOUS
10
0.137874
20
0.38
11
0.137874
21
0.32
0
LINE
8
BLACK
6
CONTINUOUS
10
0.137874
20
0.32
11
0.137275
21
0.316987
0
LINE
8
BLACK
6
CONTINUOUS
10
0.137275
20
0.316987
11
0.135568
21
0.314432
0
LINE
8
BLACK
6
CONTINUOUS
10
0.135568
20
0.314432
11
0.133013
21
0.312725
0
LINE
8
BLACK
6
CONTINUOUS
10
0.133013
20
0.312725
11
0.13
21
0.312126
0
LINE
8
BLACK
6
CONTINUOUS
10
0.13
20
0.312126
11
0.07
21
0.312126
0
LINE
8
BLACK
6
CONTINUOUS
10
0.07
20
0.312126
11
0.0669867
21
0.312725
0
LINE
8
BLACK
6
CONTINUOUS
10
0.0669867
20
0.312725
11
0.0644322
21
0.314432
0
LINE
8
BLACK
6
CONTINUOUS
10
0.0644322
20
0.314432
11
0.0627254
21
0.316987
0
LINE
8
BLACK
6
CONTINUOUS
10
0.0627254
20
0.316987
11
0.062126
21
0.32
0
LINE
8
BLACK
6
CONTINUOUS
10
0.062126
20
0.32
11
0.062126
21
0.38
0
LINE
8
BLACK
6
CONTINUOUS
10
0.062126
20
0.38
11
0.0627254
21
0.383013
0
LINE
8
BLACK
6
CONTINUOUS
10
0.0627254
20
0.383013
11
0.0644322
21
0.385568
0
LINE
8
BLACK
6
CONTINUOUS
10
0.0644322
20
0.385568
11
0.0669867
21
0.387275
0
LINE
8
BLACK
6
CONTINUOUS
10
0.0669867
20
0.387275
11
0.07
21
0.387874
0
LINE
8
BLACK
6
CONTINUOUS
10
0.07
20
0.387874
11
0.13
21
0.387874
0
LINE
8
BLACK
6
CONTINUOUS
10
0.13
20
0.387874
11
0.133013
21
0.387275
0
LINE
8
BLACK
6
CONTINUOUS
10
0.695376
20
0.371975
11
0.697931
21
0.370268
0
LINE
8
BLACK
6
CONTINUOUS
10
0.697931
20
0.370268
11
0.699638
21
0.367713
0
LINE
8
BLACK
6
CONTINUOUS
10
0.699638
20
0.367713
11
0.700237
21
0.3647
0
LINE
8
BLACK
6
CONTINUOUS
10
0.700237
20
0.3647
11
0.700237
21
0.3253
0
LINE
8
BLACK
6
CONTINUOUS
10
0.700237
20
0.3253
11
0.699638
21
0.322287
0
LINE
8
BLACK
6
CONTINUOUS
10
0.699638
20
0.322287
11
0.697931
21
0.319732
0
LINE
8
BLACK
6
CONTINUOUS
10
0.697931
20
0.319732
11
0.695376
21
0.318025
0
LINE
8
BLACK
6
CONTINUOUS
10
0.695376
20
0.318025
11
0.692363
21
0.317426
0
LINE
8
BLACK
6
CONTINUOUS
10
0.692363
20
0.317426
11
0.672637
21
0.317426
0
LINE
8
BLACK
6
CONTINUOUS
10
0.672637
20
0.317426
11
0.669624
21
0.318025
0
LINE
8
BLACK
6
CONTINUOUS
10
0.669624
20
0.318025
11
0.667069
21
0.319732
0
LINE
8
BLACK
6
CONTINUOUS
10
0.667069
20
0.319732
11
0.665362
21
0.322287
0
LINE
8
BLACK
6
CONTINUOUS
10
0.665362
20
0.322287
11
0.664763
21
0.3253
0
LINE
8
BLACK
6
CONTINUOUS
10
0.664763
20
0.3253
11
0.664763
21
0.3647
0
LINE
8
BLACK
6
CONTINUOUS
10
0.664763
20
0.3647
11
0.665362
21
0.367713
0
LINE
8
BLACK
6
CONTINUOUS
10
0.665362
20
0.367713
11
0.667069
21
0.370268
0
LINE
8
BLACK
6
CONTINUOUS
10
0.667069
20
0.370268
11
0.669624
21
0.371975
0
LINE
8
BLACK
6
CONTINUOUS
10
0.669624
20
0.371975
11
0.672637
21
0.372574
0
LINE
8
BLACK
6
CONTINUOUS
10
0.672637
20
0.372574
11
0.692363
21
0.372574
0
LINE
8
BLACK
6
CONTINUOUS
10
0.692363
20
0.372574
11
0.695376
21
0.371975
0
LINE
8
BLACK
6
CONTINUOUS
10
0.732856
20
0.371975
11
0.73541
21
0.370268
0
LINE
8
BLACK
6
CONTINUOUS
10
0.73541
20
0.370268
11
0.737117
21
0.367713
0
LINE
8
BLACK
6
CONTINUOUS
10
0.737117
20
0.367713
11
0.737717
21
0.3647
0
LINE
8
BLACK
6
CONTINUOUS
10
0.737717
20
0.3647
11
0.737717
21
0.3253
0
LINE
8
BLACK
6
CONTINUOUS
10
0.737717
20
0.3253
11
0.737117
21
0.322287
0
LINE
8
BLACK
6
CONTINUOUS
10
0.737117
20
0.322287
11
0.73541
21
0.319732
0
LINE
8
BLACK
6
CONTINUOUS
10
0.73541
20
0.319732
11
0.732856
21
0.318025
0
LINE
8
BLACK
6
CONTINUOUS
10
0.732856
20
0.318025
11
0.729843
21
0.317426
0
LINE
8
BLACK
6
CONTINUOUS
10
0.729843
20
0.317426
11
0.710157
21
0.317426
0
LINE
8
BLACK
6
CONTINUOUS
10
0.710157
20
0.317426
11
0.707144
21
0.318025
0
LINE
8
BLACK
6
CONTINUOUS
10
0.707144
20
0.318025
11
0.70459
21
0.319732
0
LINE
8
BLACK
6
CONTINUOUS
10
0.70459
20
0.319732
11
0.702883
21
0.322287
0
LINE
8
BLACK
6
CONTINUOUS
10
0.702883
20
0.322287
11
0.702283
21
0.3253
0
LINE
8
BLACK
6
CONTINUOUS
10
0.702283
20
0.3253
11
0.702283
21
0.3647
0
LINE
8
BLACK
6
CONTINUOUS
10
0.702283
20
0.3647
11
0.702883
21
0.367713
0
LINE
8
BLACK
6
CONTINUOUS
10
0.702883
20
0.367713
11
0.70459
21
0.370268
0
LINE
8
BLACK
6
CONTINUOUS
10
0.70459
20
0.370268
11
0.707144
21
0.371975
0
LINE
8
BLACK
6
CONTINUOUS
10
0.707144
20
0.371975
11
0.710157
21
0.372574
0
LINE
8
BLACK
6
CONTINUOUS
10
0.710157
20
0.372574
11
0.729843
21
0.372574
0
LINE
8
BLACK
6
CONTINUOUS
10
0.729843
20
0.372574
11
0.732856
21
0.371975
0
LINE
8
BLACK
6
CONTINUOUS
10
0.770356
20
0.371975
11
0.77291
21
0.370268
0
LINE
8
BLACK
6
CONTINUOUS
10
0.77291
20
0.370268
11
0.774617
21
0.367713
0
LINE
8
BLACK
6
CONTINUOUS
10
0.774617
20
0.367713
11
0.775217
21
0.3647
0
LINE
8
BLACK
6
CONTINUOUS
10
0.775217
20
0.3647
11
0.775217
21
0.3253
0
LINE
8
BLACK
6
CONTINUOUS
10
0.775217
20
0.3253
11
0.774617
21
0.322287
0
LINE
8
BLACK
6
CONTINUOUS
10
0.774617
20
0.322287
11
0.77291
21
0.319732
0
LINE
8
BLACK
6
CONTINUOUS
10
0.77291
20
0.319732
11
0.770356
21
0.318025
0
LINE
8
BLACK
6
CONTINUOUS
10
0.770356
20
0.318025
11
0.767343
21
0.317426
0
LINE
8
BLACK
6
CONTINUOUS
10
0.767343
20
0.317426
11
0.747657
21
0.317426
0
LINE
8
BLACK
6
CONTINUOUS
10
0.747657
20
0.317426
11
0.744644
21
0.318025
0
LINE
8
BLACK
6
CONTINUOUS
10
0.744644
20
0.318025
11
0.74209
21
0.319732
0
LINE
8
BLACK
6
CONTINUOUS
10
0.74209
20
0.319732
11
0.740383
21
0.322287
0
LINE
8
BLACK
6
CONTINUOUS
10
0.740383
20
0.322287
11
0.739783
21
0.3253
0
LINE
8
BLACK
6
CONTINUOUS
10
0.739783
20
0.3253
11
0.739783
21
0.3647
0
LINE
8
BLACK
6
CONTINUOUS
10
0.739783
20
0.3647
11
0.740383
21
0.367713
0
LINE
8
BLACK
6
CONTINUOUS
10
0.740383
20
0.367713
11
0.74209
21
0.370268
0
LINE
8
BLACK
6
CONTINUOUS
10
0.74209
20
0.370268
11
0.744644
21
0.371975
0
LINE
8
BLACK
6
CONTINUOUS
10
0.744644
20
0.371975
11
0.747657
21
0.372574
0
LINE
8
BLACK
6
CONTINUOUS
10
0.747657
20
0.372574
11
0.767343
21
0.372574
0
LINE
8
BLACK
6
CONTINUOUS
10
0.767343
20
0.372574
11
0.770356
21
0.371975
0
LINE
8
BLACK
6
CONTINUOUS
10
1.61201
20
0.401275
11
1.61457
21
0.399568
0
LINE
8
BLACK
6
CONTINUOUS
10
1.61457
20
0.399568
11
1.61627
21
0.397013
0
LINE
8
BLACK
6
CONTINUOUS
10
1.61627
20
0.397013
11
1.61687
21
0.394
0
LINE
8
BLACK
6
CONTINUOUS
10
1.61687
20
0.394
11
1.61687
21
0.334
0
LINE
8
BLACK
6
CONTINUOUS
10
1.61687
20
0.334
11
1.61627
21
0.330987
0
LINE
8
BLACK
6
CONTINUOUS
10
1.61627
20
0.330987
11
1.61457
21
0.328432
0
LINE
8
BLACK
6
CONTINUOUS
10
1.61457
20
0.328432
11
1.61201
21
0.326725
0
LINE
8
BLACK
6
CONTINUOUS
10
1.61201
20
0.326725
11
1.609
21
0.326126
0
LINE
8
BLACK
6
CONTINUOUS
10
1.609
20
0.326126
11
1.549
21
0.326126
0
LINE
8
BLACK
6
CONTINUOUS
10
1.549
20
0.326126
11
1.54599
21
0.326725
0
LINE
8
BLACK
6
CONTINUOUS
10
1.54599
20
0.326725
11
1.54343
21
0.328432
0
LINE
8
BLACK
6
CONTINUOUS
10
1.54343
20
0.328432
11
1.54173
21
0.330987
0
LINE
8
BLACK
6
CONTINUOUS
10
1.54173
20
0.330987
11
1.54113
21
0.334
0
LINE
8
BLACK
6
CONTINUOUS
10
1.54113
20
0.334
11
1.54113
21
0.394
0
LINE
8
BLACK
6
CONTINUOUS
10
1.54113
20
0.394
11
1.54173
21
0.397013
0
LINE
8
BLACK
6
CONTINUOUS
10
1.54173
20
0.397013
11
1.54343
21
0.399568
0
LINE
8
BLACK
6
CONTINUOUS
10
1.54343
20
0.399568
11
1.54599
21
0.401275
0
LINE
8
BLACK
6
CONTINUOUS
10
1.54599
20
0.401275
11
1.549
21
0.401874
0
LINE
8
BLACK
6
CONTINUOUS
10
1.549
20
0.401874
11
1.609
21
0.401874
0
LINE
8
BLACK
6
CONTINUOUS
10
1.609
20
0.401874
11
1.61201
21
0.401275
0
LINE
8
BLACK
6
CONTINUOUS
10
1.71201
20
0.401275
11
1.71457
21
0.399568
0
LINE
8
BLACK
6
CONTINUOUS
10
1.71457
20
0.399568
11
1.71627
21
0.397013
0
LINE
8
BLACK
6
CONTINUOUS
10
1.71627
20
0.397013
11
1.71687
21
0.394
0
LINE
8
BLACK
6
CONTINUOUS
10
1.71687
20
0.394
11
1.71687
21
0.334
0
LINE
8
BLACK
6
CONTINUOUS
10
1.71687
20
0.334
11
1.71627
21
0.330987
0
LINE
8
BLACK
6
CONTINUOUS
10
1.71627
20
0.330987
11
1.71457
21
0.328432
0
LINE
8
BLACK
6
CONTINUOUS
10
1.71457
20
0.328432
11
1.71201
21
0.326725
0
LINE
8
BLACK
6
CONTINUOUS
10
1.71201
20
0.326725
11
1.709
21
0.326126
0
LINE
8
BLACK
6
CONTINUOUS
10
1.709
20
0.326126
11
1.649
21
0.326126
0
LINE
8
BLACK
6
CONTINUOUS
10
1.649
20
0.326126
11
1.64599
21
0.326725
0
LINE
8
BLACK
6
CONTINUOUS
10
1.64599
20
0.326725
11
1.64343
21
0.328432
0
LINE
8
BLACK
6
CONTINUOUS
10
1.64343
20
0.328432
11
1.64173
21
0.330987
0
LINE
8
BLACK
6
CONTINUOUS
10
1.64173
20
0.330987
11
1.64113
21
0.334
0
LINE
8
BLACK
6
CONTINUOUS
10
1.64113
20
0.334
11
1.64113
21
0.394
0
LINE
8
BLACK
6
CONTINUOUS
10
1.64113
20
0.394
11
1.64173
21
0.397013
0
LINE
8
BLACK
6
CONTINUOUS
10
1.64173
20
0.397013
11
1.64343
21
0.399568
0
LINE
8
BLACK
6
CONTINUOUS
10
1.64343
20
0.399568
11
1.64599
21
0.401275
0
LINE
8
BLACK
6
CONTINUOUS
10
1.64599
20
0.401275
11
1.649
21
0.401874
0
LINE
8
BLACK
6
CONTINUOUS
10
1.649
20
0.401874
11
1.709
21
0.401874
0
LINE
8
BLACK
6
CONTINUOUS
10
1.709
20
0.401874
11
1.71201
21
0.401275
0
LINE
8
BLACK
6
CONTINUOUS
10
0.21021
20
0.397816
11
0.21518
21
0.396071
0
LINE
8
BLACK
6
CONTINUOUS
10
0.21518
20
0.396071
11
0.219417
21
0.392941
0
LINE
8
BLACK
6
CONTINUOUS
10
0.219417
20
0.392941
11
0.222547
21
0.388703
0
LINE
8
BLACK
6
CONTINUOUS
10
0.222547
20
0.388703
11
0.224292
21
0.383733
0
LINE
8
BLACK
6
CONTINUOUS
10
0.224292
20
0.383733
11
0.224606
21
0.380413
0
LINE
8
BLACK
6
CONTINUOUS
10
0.224606
20
0.380413
11
0.224606
21
0.34498
0
LINE
8
BLACK
6
CONTINUOUS
10
0.224606
20
0.34498
11
0.224292
21
0.341661
0
LINE
8
BLACK
6
CONTINUOUS
10
0.224292
20
0.341661
11
0.222547
21
0.33669
0
LINE
8
BLACK
6
CONTINUOUS
10
0.222547
20
0.33669
11
0.219417
21
0.332453
0
LINE
8
BLACK
6
CONTINUOUS
10
0.219417
20
0.332453
11
0.21518
21
0.329323
0
LINE
8
BLACK
6
CONTINUOUS
10
0.21518
20
0.329323
11
0.21021
21
0.327578
0
LINE
8
BLACK
6
CONTINUOUS
10
0.21021
20
0.327578
11
0.20689
21
0.327264
0
LINE
8
BLACK
6
CONTINUOUS
10
0.20689
20
0.327264
11
0.18622
21
0.327264
0
LINE
8
BLACK
6
CONTINUOUS
10
0.18622
20
0.327264
11
0.182901
21
0.327578
0
LINE
8
BLACK
6
CONTINUOUS
10
0.182901
20
0.327578
11
0.17793
21
0.329323
0
LINE
8
BLACK
6
CONTINUOUS
10
0.17793
20
0.329323
11
0.173693
21
0.332453
0
LINE
8
BLACK
6
CONTINUOUS
10
0.173693
20
0.332453
11
0.170563
21
0.33669
0
LINE
8
BLACK
6
CONTINUOUS
10
0.170563
20
0.33669
11
0.168818
21
0.341661
0
LINE
8
BLACK
6
CONTINUOUS
10
0.168818
20
0.341661
11
0.168504
21
0.34498
0
LINE
8
BLACK
6
CONTINUOUS
10
0.168504
20
0.34498
11
0.168504
21
0.380413
0
LINE
8
BLACK
6
CONTINUOUS
10
0.168504
20
0.380413
11
0.168818
21
0.383733
0
LINE
8
BLACK
6
CONTINUOUS
10
0.168818
20
0.383733
11
0.170563
21
0.388703
0
LINE
8
BLACK
6
CONTINUOUS
10
0.170563
20
0.388703
11
0.173693
21
0.392941
0
LINE
8
BLACK
6
CONTINUOUS
10
0.173693
20
0.392941
11
0.17793
21
0.396071
0
LINE
8
BLACK
6
CONTINUOUS
10
0.17793
20
0.396071
11
0.182901
21
0.397816
0
LINE
8
BLACK
6
CONTINUOUS
10
0.182901
20
0.397816
11
0.18622
21
0.39813
0
LINE
8
BLACK
6
CONTINUOUS
10
0.18622
20
0.39813
11
0.20689
21
0.39813
0
LINE
8
BLACK
6
CONTINUOUS
10
0.20689
20
0.39813
11
0.21021
21
0.397816
0
LINE
8
BLACK
6
CONTINUOUS
10
0.28206
20
0.397816
11
0.28703
21
0.396071
0
LINE
8
BLACK
6
CONTINUOUS
10
0.28703
20
0.396071
11
0.291268
21
0.392941
0
LINE
8
BLACK
6
CONTINUOUS
10
0.291268
20
0.392941
11
0.294397
21
0.388703
0
LINE
8
BLACK
6
CONTINUOUS
10
0.294397
20
0.388703
11
0.296143
21
0.383733
0
LINE
8
BLACK
6
CONTINUOUS
10
0.296143
20
0.383733
11
0.296457
21
0.380413
0
LINE
8
BLACK
6
CONTINUOUS
10
0.296457
20
0.380413
11
0.296457
21
0.34498
0
LINE
8
BLACK
6
CONTINUOUS
10
0.296457
20
0.34498
11
0.296143
21
0.341661
0
LINE
8
BLACK
6
CONTINUOUS
10
0.296143
20
0.341661
11
0.294397
21
0.33669
0
LINE
8
BLACK
6
CONTINUOUS
10
0.294397
20
0.33669
11
0.291268
21
0.332453
0
LINE
8
BLACK
6
CONTINUOUS
10
0.291268
20
0.332453
11
0.28703
21
0.329323
0
LINE
8
BLACK
6
CONTINUOUS
10
0.28703
20
0.329323
11
0.28206
21
0.327578
0
LINE
8
BLACK
6
CONTINUOUS
10
0.28206
20
0.327578
11
0.27874
21
0.327264
0
LINE
8
BLACK
6
CONTINUOUS
10
0.27874
20
0.327264
11
0.258071
21
0.327264
0
LINE
8
BLACK
6
CONTINUOUS
10
0.258071
20
0.327264
11
0.254751
21
0.327578
0
LINE
8
BLACK
6
CONTINUOUS
10
0.254751
20
0.327578
11
0.249781
21
0.329323
0
LINE
8
BLACK
6
CONTINUOUS
10
0.249781
20
0.329323
11
0.245543
21
0.332453
0
LINE
8
BLACK
6
CONTINUOUS
10
0.245543
20
0.332453
11
0.242414
21
0.33669
0
LINE
8
BLACK
6
CONTINUOUS
10
0.242414
20
0.33669
11
0.240668
21
0.341661
0
LINE
8
BLACK
6
CONTINUOUS
10
0.240668
20
0.341661
11
0.240354
21
0.34498
0
LINE
8
BLACK
6
CONTINUOUS
10
0.240354
20
0.34498
11
0.240354
21
0.380413
0
LINE
8
BLACK
6
CONTINUOUS
10
0.240354
20
0.380413
11
0.240668
21
0.383733
0
LINE
8
BLACK
6
CONTINUOUS
10
0.240668
20
0.383733
11
0.242414
21
0.388703
0
LINE
8
BLACK
6
CONTINUOUS
10
0.242414
20
0.388703
11
0.245543
21
0.392941
0
LINE
8
BLACK
6
CONTINUOUS
10
0.245543
20
0.392941
11
0.249781
21
0.396071
0
LINE
8
BLACK
6
CONTINUOUS
10
0.249781
20
0.396071
11
0.254751
21
0.397816
0
LINE
8
BLACK
6
CONTINUOUS
10
0.254751
20
0.397816
11
0.258071
21
0.39813
0
LINE
8
BLACK
6
CONTINUOUS
10
0.258071
20
0.39813
11
0.27874
21
0.39813
0
LINE
8
BLACK
6
CONTINUOUS
10
0.27874
20
0.39813
11
0.28206
21
0.397816
0
LINE
8
BLACK
6
CONTINUOUS
10
0.608013
20
0.412275
11
0.610568
21
0.410568
0
LINE
8
BLACK
6
CONTINUOUS
10
0.610568
20
0.410568
11
0.612275
21
0.408013
0
LINE
8
BLACK
6
CONTINUOUS
10
0.612275
20
0.408013
11
0.612874
21
0.405
0
LINE
8
BLACK
6
CONTINUOUS
10
0.612874
20
0.405
11
0.612874
21
0.345
0
LINE
8
BLACK
6
CONTINUOUS
10
0.612874
20
0.345
11
0.612275
21
0.341987
0
LINE
8
BLACK
6
CONTINUOUS
10
0.612275
20
0.341987
11
0.610568
21
0.339432
0
LINE
8
BLACK
6
CONTINUOUS
10
0.610568
20
0.339432
11
0.608013
21
0.337725
0
LINE
8
BLACK
6
CONTINUOUS
10
0.608013
20
0.337725
11
0.605
21
0.337126
0
LINE
8
BLACK
6
CONTINUOUS
10
0.605
20
0.337126
11
0.545
21
0.337126
0
LINE
8
BLACK
6
CONTINUOUS
10
0.545
20
0.337126
11
0.541987
21
0.337725
0
LINE
8
BLACK
6
CONTINUOUS
10
0.541987
20
0.337725
11
0.539432
21
0.339432
0
LINE
8
BLACK
6
CONTINUOUS
10
0.539432
20
0.339432
11
0.537725
21
0.341987
0
LINE
8
BLACK
6
CONTINUOUS
10
0.537725
20
0.341987
11
0.537126
21
0.345
0
LINE
8
BLACK
6
CONTINUOUS
10
0.537126
20
0.345
11
0.537126
21
0.405
0
LINE
8
BLACK
6
CONTINUOUS
10
0.537126
20
0.405
11
0.537725
21
0.408013
0
LINE
8
BLACK
6
CONTINUOUS
10
0.537725
20
0.408013
11
0.539432
21
0.410568
0
LINE
8
BLACK
6
CONTINUOUS
10
0.539432
20
0.410568
11
0.541987
21
0.412275
0
LINE
8
BLACK
6
CONTINUOUS
10
0.541987
20
0.412275
11
0.545
21
0.412874
0
LINE
8
BLACK
6
CONTINUOUS
10
0.545
20
0.412874
11
0.605
21
0.412874
0
LINE
8
BLACK
6
CONTINUOUS
10
0.605
20
0.412874
11
0.608013
21
0.412275
0
LINE
8
BLACK
6
CONTINUOUS
10
0.508013
20
0.412275
11
0.510568
21
0.410568
0
LINE
8
BLACK
6
CONTINUOUS
10
0.510568
20
0.410568
11
0.512275
21
0.408013
0
LINE
8
BLACK
6
CONTINUOUS
10
0.512275
20
0.408013
11
0.512874
21
0.405
0
LINE
8
BLACK
6
CONTINUOUS
10
0.512874
20
0.405
11
0.512874
21
0.345
0
LINE
8
BLACK
6
CONTINUOUS
10
0.512874
20
0.345
11
0.512275
21
0.341987
0
LINE
8
BLACK
6
CONTINUOUS
10
0.512275
20
0.341987
11
0.510568
21
0.339432
0
LINE
8
BLACK
6
CONTINUOUS
10
0.510568
20
0.339432
11
0.508013
21
0.337725
0
LINE
8
BLACK
6
CONTINUOUS
10
0.508013
20
0.337725
11
0.505
21
0.337126
0
LINE
8
BLACK
6
CONTINUOUS
10
0.505
20
0.337126
11
0.445
21
0.337126
0
LINE
8
BLACK
6
CONTINUOUS
10
0.445
20
0.337126
11
0.441987
21
0.337725
0
LINE
8
BLACK
6
CONTINUOUS
10
0.441987
20
0.337725
11
0.439432
21
0.339432
0
LINE
8
BLACK
6
CONTINUOUS
10
0.439432
20
0.339432
11
0.437725
21
0.341987
0
LINE
8
BLACK
6
CONTINUOUS
10
0.437725
20
0.341987
11
0.437126
21
0.345
0
LINE
8
BLACK
6
CONTINUOUS
10
0.437126
20
0.345
11
0.437126
21
0.405
0
LINE
8
BLACK
6
CONTINUOUS
10
0.437126
20
0.405
11
0.437725
21
0.408013
0
LINE
8
BLACK
6
CONTINUOUS
10
0.437725
20
0.408013
11
0.439432
21
0.410568
0
LINE
8
BLACK
6
CONTINUOUS
10
0.439432
20
0.410568
11
0.441987
21
0.412275
0
LINE
8
BLACK
6
CONTINUOUS
10
0.441987
20
0.412275
11
0.445
21
0.412874
0
LINE
8
BLACK
6
CONTINUOUS
10
0.445
20
0.412874
11
0.505
21
0.412874
0
LINE
8
BLACK
6
CONTINUOUS
10
0.505
20
0.412874
11
0.508013
21
0.412275
0
LINE
8
BLACK
6
CONTINUOUS
10
0.408013
20
0.412275
11
0.410568
21
0.410568
0
LINE
8
BLACK
6
CONTINUOUS
10
0.410568
20
0.410568
11
0.412275
21
0.408013
0
LINE
8
BLACK
6
CONTINUOUS
10
0.412275
20
0.408013
11
0.412874
21
0.405
0
LINE
8
BLACK
6
CONTINUOUS
10
0.412874
20
0.405
11
0.412874
21
0.345
0
LINE
8
BLACK
6
CONTINUOUS
10
0.412874
20
0.345
11
0.412275
21
0.341987
0
LINE
8
BLACK
6
CONTINUOUS
10
0.412275
20
0.341987
11
0.410568
21
0.339432
0
LINE
8
BLACK
6
CONTINUOUS
10
0.410568
20
0.339432
11
0.408013
21
0.337725
0
LINE
8
BLACK
6
CONTINUOUS
10
0.408013
20
0.337725
11
0.405
21
0.337126
0
LINE
8
BLACK
6
CONTINUOUS
10
0.405
20
0.337126
11
0.345
21
0.337126
0
LINE
8
BLACK
6
CONTINUOUS
10
0.345
20
0.337126
11
0.341987
21
0.337725
0
LINE
8
BLACK
6
CONTINUOUS
10
0.341987
20
0.337725
11
0.339432
21
0.339432
0
LINE
8
BLACK
6
CONTINUOUS
10
0.339432
20
0.339432
11
0.337725
21
0.341987
0
LINE
8
BLACK
6
CONTINUOUS
10
0.337725
20
0.341987
11
0.337126
21
0.345
0
LINE
8
BLACK
6
CONTINUOUS
10
0.337126
20
0.345
11
0.337126
21
0.405
0
LINE
8
BLACK
6
CONTINUOUS
10
0.337126
20
0.405
11
0.337725
21
0.408013
0
LINE
8
BLACK
6
CONTINUOUS
10
0.337725
20
0.408013
11
0.339432
21
0.410568
0
LINE
8
BLACK
6
CONTINUOUS
10
0.339432
20
0.410568
11
0.341987
21
0.412275
0
LINE
8
BLACK
6
CONTINUOUS
10
0.341987
20
0.412275
11
0.345
21
0.412874
0
LINE
8
BLACK
6
CONTINUOUS
10
0.345
20
0.412874
11
0.405
21
0.412874
0
LINE
8
BLACK
6
CONTINUOUS
10
0.405
20
0.412874
11
0.408013
21
0.412275
0
LINE
8
BLACK
6
CONTINUOUS
10
1.41104
20
0.403663
11
1.41601
21
0.401917
0
LINE
8
BLACK
6
CONTINUOUS
10
1.41601
20
0.401917
11
1.42024
21
0.398787
0
LINE
8
BLACK
6
CONTINUOUS
10
1.42024
20
0.398787
11
1.42337
21
0.39455
0
LINE
8
BLACK
6
CONTINUOUS
10
1.42337
20
0.39455
11
1.42512
21
0.38958
0
LINE
8
BLACK
6
CONTINUOUS
10
1.42512
20
0.38958
11
1.42543
21
0.38626
0
LINE
8
BLACK
6
CONTINUOUS
10
1.42543
20
0.38626
11
1.42543
21
0.365591
0
LINE
8
BLACK
6
CONTINUOUS
10
1.42543
20
0.365591
11
1.42512
21
0.362271
0
LINE
8
BLACK
6
CONTINUOUS
10
1.42512
20
0.362271
11
1.42337
21
0.3573
0
LINE
8
BLACK
6
CONTINUOUS
10
1.42337
20
0.3573
11
1.42024
21
0.353063
0
LINE
8
BLACK
6
CONTINUOUS
10
1.42024
20
0.353063
11
1.41601
21
0.349933
0
LINE
8
BLACK
6
CONTINUOUS
10
1.41601
20
0.349933
11
1.41104
21
0.348188
0
LINE
8
BLACK
6
CONTINUOUS
10
1.41104
20
0.348188
11
1.40772
21
0.347874
0
LINE
8
BLACK
6
CONTINUOUS
10
1.40772
20
0.347874
11
1.37228
21
0.347874
0
LINE
8
BLACK
6
CONTINUOUS
10
1.37228
20
0.347874
11
1.36896
21
0.348188
0
LINE
8
BLACK
6
CONTINUOUS
10
1.36896
20
0.348188
11
1.36399
21
0.349933
0
LINE
8
BLACK
6
CONTINUOUS
10
1.36399
20
0.349933
11
1.35976
21
0.353063
0
LINE
8
BLACK
6
CONTINUOUS
10
1.35976
20
0.353063
11
1.35663
21
0.3573
0
LINE
8
BLACK
6
CONTINUOUS
10
1.35663
20
0.3573
11
1.35488
21
0.362271
0
LINE
8
BLACK
6
CONTINUOUS
10
1.35488
20
0.362271
11
1.35457
21
0.365591
0
LINE
8
BLACK
6
CONTINUOUS
10
1.35457
20
0.365591
11
1.35457
21
0.38626
0
LINE
8
BLACK
6
CONTINUOUS
10
1.35457
20
0.38626
11
1.35488
21
0.38958
0
LINE
8
BLACK
6
CONTINUOUS
10
1.35488
20
0.38958
11
1.35663
21
0.39455
0
LINE
8
BLACK
6
CONTINUOUS
10
1.35663
20
0.39455
11
1.35976
21
0.398787
0
LINE
8
BLACK
6
CONTINUOUS
10
1.35976
20
0.398787
11
1.36399
21
0.401917
0
LINE
8
BLACK
6
CONTINUOUS
10
1.36399
20
0.401917
11
1.36896
21
0.403663
0
LINE
8
BLACK
6
CONTINUOUS
10
1.36896
20
0.403663
11
1.37228
21
0.403976
0
LINE
8
BLACK
6
CONTINUOUS
10
1.37228
20
0.403976
11
1.40772
21
0.403976
0
LINE
8
BLACK
6
CONTINUOUS
10
1.40772
20
0.403976
11
1.41104
21
0.403663
0
LINE
8
BLACK
6
CONTINUOUS
10
1.50202
20
0.404647
11
1.50699
21
0.402901
0
LINE
8
BLACK
6
CONTINUOUS
10
1.50699
20
0.402901
11
1.51123
21
0.399772
0
LINE
8
BLACK
6
CONTINUOUS
10
1.51123
20
0.399772
11
1.51436
21
0.395534
0
LINE
8
BLACK
6
CONTINUOUS
10
1.51436
20
0.395534
11
1.5161
21
0.390564
0
LINE
8
BLACK
6
CONTINUOUS
10
1.5161
20
0.390564
11
1.51642
21
0.387244
0
LINE
8
BLACK
6
CONTINUOUS
10
1.51642
20
0.387244
11
1.51642
21
0.367559
0
LINE
8
BLACK
6
CONTINUOUS
10
1.51642
20
0.367559
11
1.5161
21
0.364239
0
LINE
8
BLACK
6
CONTINUOUS
10
1.5161
20
0.364239
11
1.51436
21
0.359269
0
LINE
8
BLACK
6
CONTINUOUS
10
1.51436
20
0.359269
11
1.51123
21
0.355032
0
LINE
8
BLACK
6
CONTINUOUS
10
1.51123
20
0.355032
11
1.50699
21
0.351902
0
LINE
8
BLACK
6
CONTINUOUS
10
1.50699
20
0.351902
11
1.50202
21
0.350156
0
LINE
8
BLACK
6
CONTINUOUS
10
1.50202
20
0.350156
11
1.4987
21
0.349843
0
LINE
8
BLACK
6
CONTINUOUS
10
1.4987
20
0.349843
11
1.4613
21
0.349843
0
LINE
8
BLACK
6
CONTINUOUS
10
1.4613
20
0.349843
11
1.45798
21
0.350156
0
LINE
8
BLACK
6
CONTINUOUS
10
1.45798
20
0.350156
11
1.45301
21
0.351902
0
LINE
8
BLACK
6
CONTINUOUS
10
1.45301
20
0.351902
11
1.44877
21
0.355032
0
LINE
8
BLACK
6
CONTINUOUS
10
1.44877
20
0.355032
11
1.44564
21
0.359269
0
LINE
8
BLACK
6
CONTINUOUS
10
1.44564
20
0.359269
11
1.4439
21
0.364239
0
LINE
8
BLACK
6
CONTINUOUS
10
1.4439
20
0.364239
11
1.44358
21
0.367559
0
LINE
8
BLACK
6
CONTINUOUS
10
1.44358
20
0.367559
11
1.44358
21
0.387244
0
LINE
8
BLACK
6
CONTINUOUS
10
1.44358
20
0.387244
11
1.4439
21
0.390564
0
LINE
8
BLACK
6
CONTINUOUS
10
1.4439
20
0.390564
11
1.44564
21
0.395534
0
LINE
8
BLACK
6
CONTINUOUS
10
1.44564
20
0.395534
11
1.44877
21
0.399772
0
LINE
8
BLACK
6
CONTINUOUS
10
1.44877
20
0.399772
11
1.45301
21
0.402901
0
LINE
8
BLACK
6
CONTINUOUS
10
1.45301
20
0.402901
11
1.45798
21
0.404647
0
LINE
8
BLACK
6
CONTINUOUS
10
1.45798
20
0.404647
11
1.4613
21
0.404961
0
LINE
8
BLACK
6
CONTINUOUS
10
1.4613
20
0.404961
11
1.4987
21
0.404961
0
LINE
8
BLACK
6
CONTINUOUS
10
1.4987
20
0.404961
11
1.50202
21
0.404647
0
LINE
8
BLACK
6
CONTINUOUS
10
0.847021
20
0.414844
11
0.851991
21
0.413098
0
LINE
8
BLACK
6
CONTINUOUS
10
0.851991
20
0.413098
11
0.856228
21
0.409968
0
LINE
8
BLACK
6
CONTINUOUS
10
0.856228
20
0.409968
11
0.859358
21
0.405731
0
LINE
8
BLACK
6
CONTINUOUS
10
0.859358
20
0.405731
11
0.861104
21
0.400761
0
LINE
8
BLACK
6
CONTINUOUS
10
0.861104
20
0.400761
11
0.861417
21
0.397441
0
LINE
8
BLACK
6
CONTINUOUS
10
0.861417
20
0.397441
11
0.861417
21
0.377756
0
LINE
8
BLACK
6
CONTINUOUS
10
0.861417
20
0.377756
11
0.861104
21
0.374436
0
LINE
8
BLACK
6
CONTINUOUS
10
0.861104
20
0.374436
11
0.859358
21
0.369466
0
LINE
8
BLACK
6
CONTINUOUS
10
0.859358
20
0.369466
11
0.856228
21
0.365228
0
LINE
8
BLACK
6
CONTINUOUS
10
0.856228
20
0.365228
11
0.851991
21
0.362099
0
LINE
8
BLACK
6
CONTINUOUS
10
0.851991
20
0.362099
11
0.847021
21
0.360353
0
LINE
8
BLACK
6
CONTINUOUS
10
0.847021
20
0.360353
11
0.843701
21
0.360039
0
LINE
8
BLACK
6
CONTINUOUS
10
0.843701
20
0.360039
11
0.806299
21
0.360039
0
LINE
8
BLACK
6
CONTINUOUS
10
0.806299
20
0.360039
11
0.802979
21
0.360353
0
LINE
8
BLACK
6
CONTINUOUS
10
0.802979
20
0.360353
11
0.798009
21
0.362099
0
LINE
8
BLACK
6
CONTINUOUS
10
0.798009
20
0.362099
11
0.793772
21
0.365228
0
LINE
8
BLACK
6
CONTINUOUS
10
0.793772
20
0.365228
11
0.790642
21
0.369466
0
LINE
8
BLACK
6
CONTINUOUS
10
0.790642
20
0.369466
11
0.788896
21
0.374436
0
LINE
8
BLACK
6
CONTINUOUS
10
0.788896
20
0.374436
11
0.788583
21
0.377756
0
LINE
8
BLACK
6
CONTINUOUS
10
0.788583
20
0.377756
11
0.788583
21
0.397441
0
LINE
8
BLACK
6
CONTINUOUS
10
0.788583
20
0.397441
11
0.788896
21
0.400761
0
LINE
8
BLACK
6
CONTINUOUS
10
0.788896
20
0.400761
11
0.790642
21
0.405731
0
LINE
8
BLACK
6
CONTINUOUS
10
0.790642
20
0.405731
11
0.793772
21
0.409968
0
LINE
8
BLACK
6
CONTINUOUS
10
0.793772
20
0.409968
11
0.798009
21
0.413098
0
LINE
8
BLACK
6
CONTINUOUS
10
0.798009
20
0.413098
11
0.802979
21
0.414844
0
LINE
8
BLACK
6
CONTINUOUS
10
0.802979
20
0.414844
11
0.806299
21
0.415157
0
LINE
8
BLACK
6
CONTINUOUS
10
0.806299
20
0.415157
11
0.843701
21
0.415157
0
LINE
8
BLACK
6
CONTINUOUS
10
0.843701
20
0.415157
11
0.847021
21
0.414844
0
LINE
8
BLACK
6
CONTINUOUS
10
0.947021
20
0.414844
11
0.951991
21
0.413098
0
LINE
8
BLACK
6
CONTINUOUS
10
0.951991
20
0.413098
11
0.956228
21
0.409968
0
LINE
8
BLACK
6
CONTINUOUS
10
0.956228
20
0.409968
11
0.959358
21
0.405731
0
LINE
8
BLACK
6
CONTINUOUS
10
0.959358
20
0.405731
11
0.961104
21
0.400761
0
LINE
8
BLACK
6
CONTINUOUS
10
0.961104
20
0.400761
11
0.961417
21
0.397441
0
LINE
8
BLACK
6
CONTINUOUS
10
0.961417
20
0.397441
11
0.961417
21
0.377756
0
LINE
8
BLACK
6
CONTINUOUS
10
0.961417
20
0.377756
11
0.961104
21
0.374436
0
LINE
8
BLACK
6
CONTINUOUS
10
0.961104
20
0.374436
11
0.959358
21
0.369466
0
LINE
8
BLACK
6
CONTINUOUS
10
0.959358
20
0.369466
11
0.956228
21
0.365228
0
LINE
8
BLACK
6
CONTINUOUS
10
0.956228
20
0.365228
11
0.951991
21
0.362099
0
LINE
8
BLACK
6
CONTINUOUS
10
0.951991
20
0.362099
11
0.947021
21
0.360353
0
LINE
8
BLACK
6
CONTINUOUS
10
0.947021
20
0.360353
11
0.943701
21
0.360039
0
LINE
8
BLACK
6
CONTINUOUS
10
0.943701
20
0.360039
11
0.906299
21
0.360039
0
LINE
8
BLACK
6
CONTINUOUS
10
0.906299
20
0.360039
11
0.902979
21
0.360353
0
LINE
8
BLACK
6
CONTINUOUS
10
0.902979
20
0.360353
11
0.898009
21
0.362099
0
LINE
8
BLACK
6
CONTINUOUS
10
0.898009
20
0.362099
11
0.893772
21
0.365228
0
LINE
8
BLACK
6
CONTINUOUS
10
0.893772
20
0.365228
11
0.890642
21
0.369466
0
LINE
8
BLACK
6
CONTINUOUS
10
0.890642
20
0.369466
11
0.888896
21
0.374436
0
LINE
8
BLACK
6
CONTINUOUS
10
0.888896
20
0.374436
11
0.888583
21
0.377756
0
LINE
8
BLACK
6
CONTINUOUS
10
0.888583
20
0.377756
11
0.888583
21
0.397441
0
LINE
8
BLACK
6
CONTINUOUS
10
0.888583
20
0.397441
11
0.888896
21
0.400761
0
LINE
8
BLACK
6
CONTINUOUS
10
0.888896
20
0.400761
11
0.890642
21
0.405731
0
LINE
8
BLACK
6
CONTINUOUS
10
0.890642
20
0.405731
11
0.893772
21
0.409968
0
LINE
8
BLACK
6
CONTINUOUS
10
0.893772
20
0.409968
11
0.898009
21
0.413098
0
LINE
8
BLACK
6
CONTINUOUS
10
0.898009
20
0.413098
11
0.902979
21
0.414844
0
LINE
8
BLACK
6
CONTINUOUS
10
0.902979
20
0.414844
11
0.906299
21
0.415157
0
LINE
8
BLACK
6
CONTINUOUS
10
0.906299
20
0.415157
11
0.943701
21
0.415157
0
LINE
8
BLACK
6
CONTINUOUS
10
0.943701
20
0.415157
11
0.947021
21
0.414844
0
LINE
8
BLACK
6
CONTINUOUS
10
1.28304
20
0.422812
11
1.28801
21
0.421067
0
LINE
8
BLACK
6
CONTINUOUS
10
1.28801
20
0.421067
11
1.29224
21
0.417937
0
LINE
8
BLACK
6
CONTINUOUS
10
1.29224
20
0.417937
11
1.29537
21
0.4137
0
LINE
8
BLACK
6
CONTINUOUS
10
1.29537
20
0.4137
11
1.29712
21
0.408729
0
LINE
8
BLACK
6
CONTINUOUS
10
1.29712
20
0.408729
11
1.29743
21
0.405409
0
LINE
8
BLACK
6
CONTINUOUS
10
1.29743
20
0.405409
11
1.29743
21
0.38474
0
LINE
8
BLACK
6
CONTINUOUS
10
1.29743
20
0.38474
11
1.29712
21
0.38142
0
LINE
8
BLACK
6
CONTINUOUS
10
1.29712
20
0.38142
11
1.29537
21
0.37645
0
LINE
8
BLACK
6
CONTINUOUS
10
1.29537
20
0.37645
11
1.29224
21
0.372213
0
LINE
8
BLACK
6
CONTINUOUS
10
1.29224
20
0.372213
11
1.28801
21
0.369083
0
LINE
8
BLACK
6
CONTINUOUS
10
1.28801
20
0.369083
11
1.28304
21
0.367337
0
LINE
8
BLACK
6
CONTINUOUS
10
1.28304
20
0.367337
11
1.27972
21
0.367024
0
LINE
8
BLACK
6
CONTINUOUS
10
1.27972
20
0.367024
11
1.24428
21
0.367024
0
LINE
8
BLACK
6
CONTINUOUS
10
1.24428
20
0.367024
11
1.24096
21
0.367337
0
LINE
8
BLACK
6
CONTINUOUS
10
1.24096
20
0.367337
11
1.23599
21
0.369083
0
LINE
8
BLACK
6
CONTINUOUS
10
1.23599
20
0.369083
11
1.23176
21
0.372213
0
LINE
8
BLACK
6
CONTINUOUS
10
1.23176
20
0.372213
11
1.22863
21
0.37645
0
LINE
8
BLACK
6
CONTINUOUS
10
1.22863
20
0.37645
11
1.22688
21
0.38142
0
LINE
8
BLACK
6
CONTINUOUS
10
1.22688
20
0.38142
11
1.22657
21
0.38474
0
LINE
8
BLACK
6
CONTINUOUS
10
1.22657
20
0.38474
11
1.22657
21
0.405409
0
LINE
8
BLACK
6
CONTINUOUS
10
1.22657
20
0.405409
11
1.22688
21
0.408729
0
LINE
8
BLACK
6
CONTINUOUS
10
1.22688
20
0.408729
11
1.22863
21
0.4137
0
LINE
8
BLACK
6
CONTINUOUS
10
1.22863
20
0.4137
11
1.23176
21
0.417937
0
LINE
8
BLACK
6
CONTINUOUS
10
1.23176
20
0.417937
11
1.23599
21
0.421067
0
LINE
8
BLACK
6
CONTINUOUS
10
1.23599
20
0.421067
11
1.24096
21
0.422812
0
LINE
8
BLACK
6
CONTINUOUS
10
1.24096
20
0.422812
11
1.24428
21
0.423126
0
LINE
8
BLACK
6
CONTINUOUS
10
1.24428
20
0.423126
11
1.27972
21
0.423126
0
LINE
8
BLACK
6
CONTINUOUS
10
1.27972
20
0.423126
11
1.28304
21
0.422812
0
LINE
8
BLACK
6
CONTINUOUS
10
1.08801
20
0.429775
11
1.09057
21
0.428068
0
LINE
8
BLACK
6
CONTINUOUS
10
1.09057
20
0.428068
11
1.09227
21
0.425513
0
LINE
8
BLACK
6
CONTINUOUS
10
1.09227
20
0.425513
11
1.09287
21
0.4225
0
LINE
8
BLACK
6
CONTINUOUS
10
1.09287
20
0.4225
11
1.09287
21
0.3775
0
LINE
8
BLACK
6
CONTINUOUS
10
1.09287
20
0.3775
11
1.09227
21
0.374487
0
LINE
8
BLACK
6
CONTINUOUS
10
1.09227
20
0.374487
11
1.09057
21
0.371932
0
LINE
8
BLACK
6
CONTINUOUS
10
1.09057
20
0.371932
11
1.08801
21
0.370225
0
LINE
8
BLACK
6
CONTINUOUS
10
1.08801
20
0.370225
11
1.085
21
0.369626
0
LINE
8
BLACK
6
CONTINUOUS
10
1.085
20
0.369626
11
1.065
21
0.369626
0
LINE
8
BLACK
6
CONTINUOUS
10
1.065
20
0.369626
11
1.06199
21
0.370225
0
LINE
8
BLACK
6
CONTINUOUS
10
1.06199
20
0.370225
11
1.05943
21
0.371932
0
LINE
8
BLACK
6
CONTINUOUS
10
1.05943
20
0.371932
11
1.05773
21
0.374487
0
LINE
8
BLACK
6
CONTINUOUS
10
1.05773
20
0.374487
11
1.05713
21
0.3775
0
LINE
8
BLACK
6
CONTINUOUS
10
1.05713
20
0.3775
11
1.05713
21
0.4225
0
LINE
8
BLACK
6
CONTINUOUS
10
1.05713
20
0.4225
11
1.05773
21
0.425513
0
LINE
8
BLACK
6
CONTINUOUS
10
1.05773
20
0.425513
11
1.05943
21
0.428068
0
LINE
8
BLACK
6
CONTINUOUS
10
1.05943
20
0.428068
11
1.06199
21
0.429775
0
LINE
8
BLACK
6
CONTINUOUS
10
1.06199
20
0.429775
11
1.065
21
0.430374
0
LINE
8
BLACK
6
CONTINUOUS
10
1.065
20
0.430374
11
1.085
21
0.430374
0
LINE
8
BLACK
6
CONTINUOUS
10
1.085
20
0.430374
11
1.08801
21
0.429775
0
LINE
8
BLACK
6
CONTINUOUS
10
1.13801
20
0.429775
11
1.14057
21
0.428068
0
LINE
8
BLACK
6
CONTINUOUS
10
1.14057
20
0.428068
11
1.14227
21
0.425513
0
LINE
8
BLACK
6
CONTINUOUS
10
1.14227
20
0.425513
11
1.14287
21
0.4225
0
LINE
8
BLACK
6
CONTINUOUS
10
1.14287
20
0.4225
11
1.14287
21
0.3775
0
LINE
8
BLACK
6
CONTINUOUS
10
1.14287
20
0.3775
11
1.14227
21
0.374487
0
LINE
8
BLACK
6
CONTINUOUS
10
1.14227
20
0.374487
11
1.14057
21
0.371932
0
LINE
8
BLACK
6
CONTINUOUS
10
1.14057
20
0.371932
11
1.13801
21
0.370225
0
LINE
8
BLACK
6
CONTINUOUS
10
1.13801
20
0.370225
11
1.135
21
0.369626
0
LINE
8
BLACK
6
CONTINUOUS
10
1.135
20
0.369626
11
1.115
21
0.369626
0
LINE
8
BLACK
6
CONTINUOUS
10
1.115
20
0.369626
11
1.11199
21
0.370225
0
LINE
8
BLACK
6
CONTINUOUS
10
1.11199
20
0.370225
11
1.10943
21
0.371932
0
LINE
8
BLACK
6
CONTINUOUS
10
1.10943
20
0.371932
11
1.10773
21
0.374487
0
LINE
8
BLACK
6
CONTINUOUS
10
1.10773
20
0.374487
11
1.10713
21
0.3775
0
LINE
8
BLACK
6
CONTINUOUS
10
1.10713
20
0.3775
11
1.10713
21
0.4225
0
LINE
8
BLACK
6
CONTINUOUS
10
1.10713
20
0.4225
11
1.10773
21
0.425513
0
LINE
8
BLACK
6
CONTINUOUS
10
1.10773
20
0.425513
11
1.10943
21
0.428068
0
LINE
8
BLACK
6
CONTINUOUS
10
1.10943
20
0.428068
11
1.11199
21
0.429775
0
LINE
8
BLACK
6
CONTINUOUS
10
1.11199
20
0.429775
11
1.115
21
0.430374
0
LINE
8
BLACK
6
CONTINUOUS
10
1.115
20
0.430374
11
1.135
21
0.430374
0
LINE
8
BLACK
6
CONTINUOUS
10
1.135
20
0.430374
11
1.13801
21
0.429775
0
LINE
8
BLACK
6
CONTINUOUS
10
1.03801
20
0.429775
11
1.04057
21
0.428068
0
LINE
8
BLACK
6
CONTINUOUS
10
1.04057
20
0.428068
11
1.04227
21
0.425513
0
LINE
8
BLACK
6
CONTINUOUS
10
1.04227
20
0.425513
11
1.04287
21
0.4225
0
LINE
8
BLACK
6
CONTINUOUS
10
1.04287
20
0.4225
11
1.04287
21
0.3775
0
LINE
8
BLACK
6
CONTINUOUS
10
1.04287
20
0.3775
11
1.04227
21
0.374487
0
LINE
8
BLACK
6
CONTINUOUS
10
1.04227
20
0.374487
11
1.04057
21
0.371932
0
LINE
8
BLACK
6
CONTINUOUS
10
1.04057
20
0.371932
11
1.03801
21
0.370225
0
LINE
8
BLACK
6
CONTINUOUS
10
1.03801
20
0.370225
11
1.035
21
0.369626
0
LINE
8
BLACK
6
CONTINUOUS
10
1.035
20
0.369626
11
1.015
21
0.369626
0
LINE
8
BLACK
6
CONTINUOUS
10
1.015
20
0.369626
11
1.01199
21
0.370225
0
LINE
8
BLACK
6
CONTINUOUS
10
1.01199
20
0.370225
11
1.00943
21
0.371932
0
LINE
8
BLACK
6
CONTINUOUS
10
1.00943
20
0.371932
11
1.00773
21
0.374487
0
LINE
8
BLACK
6
CONTINUOUS
10
1.00773
20
0.374487
11
1.00713
21
0.3775
0
LINE
8
BLACK
6
CONTINUOUS
10
1.00713
20
0.3775
11
1.00713
21
0.4225
0
LINE
8
BLACK
6
CONTINUOUS
10
1.00713
20
0.4225
11
1.00773
21
0.425513
0
LINE
8
BLACK
6
CONTINUOUS
10
1.00773
20
0.425513
11
1.00943
21
0.428068
0
LINE
8
BLACK
6
CONTINUOUS
10
1.00943
20
0.428068
11
1.01199
21
0.429775
0
LINE
8
BLACK
6
CONTINUOUS
10
1.01199
20
0.429775
11
1.015
21
0.430374
0
LINE
8
BLACK
6
CONTINUOUS
10
1.015
20
0.430374
11
1.035
21
0.430374
0
LINE
8
BLACK
6
CONTINUOUS
10
1.035
20
0.430374
11
1.03801
21
0.429775
0
LINE
8
BLACK
6
CONTINUOUS
10
1.18801
20
0.429775
11
1.19057
21
0.428068
0
LINE
8
BLACK
6
CONTINUOUS
10
1.19057
20
0.428068
11
1.19227
21
0.425513
0
LINE
8
BLACK
6
CONTINUOUS
10
1.19227
20
0.425513
11
1.19287
21
0.4225
0
LINE
8
BLACK
6
CONTINUOUS
10
1.19287
20
0.4225
11
1.19287
21
0.3775
0
LINE
8
BLACK
6
CONTINUOUS
10
1.19287
20
0.3775
11
1.19227
21
0.374487
0
LINE
8
BLACK
6
CONTINUOUS
10
1.19227
20
0.374487
11
1.19057
21
0.371932
0
LINE
8
BLACK
6
CONTINUOUS
10
1.19057
20
0.371932
11
1.18801
21
0.370225
0
LINE
8
BLACK
6
CONTINUOUS
10
1.18801
20
0.370225
11
1.185
21
0.369626
0
LINE
8
BLACK
6
CONTINUOUS
10
1.185
20
0.369626
11
1.165
21
0.369626
0
LINE
8
BLACK
6
CONTINUOUS
10
1.165
20
0.369626
11
1.16199
21
0.370225
0
LINE
8
BLACK
6
CONTINUOUS
10
1.16199
20
0.370225
11
1.15943
21
0.371932
0
LINE
8
BLACK
6
CONTINUOUS
10
1.15943
20
0.371932
11
1.15773
21
0.374487
0
LINE
8
BLACK
6
CONTINUOUS
10
1.15773
20
0.374487
11
1.15713
21
0.3775
0
LINE
8
BLACK
6
CONTINUOUS
10
1.15713
20
0.3775
11
1.15713
21
0.4225
0
LINE
8
BLACK
6
CONTINUOUS
10
1.15713
20
0.4225
11
1.15773
21
0.425513
0
LINE
8
BLACK
6
CONTINUOUS
10
1.15773
20
0.425513
11
1.15943
21
0.428068
0
LINE
8
BLACK
6
CONTINUOUS
10
1.15943
20
0.428068
11
1.16199
21
0.429775
0
LINE
8
BLACK
6
CONTINUOUS
10
1.16199
20
0.429775
11
1.165
21
0.430374
0
LINE
8
BLACK
6
CONTINUOUS
10
1.165
20
0.430374
11
1.185
21
0.430374
0
LINE
8
BLACK
6
CONTINUOUS
10
1.185
20
0.430374
11
1.18801
21
0.429775
0
LINE
8
BLACK
6
CONTINUOUS
10
0.0330133
20
0.487275
11
0.0355678
21
0.485568
0
LINE
8
BLACK
6
CONTINUOUS
10
0.0355678
20
0.485568
11
0.0372746
21
0.483013
0
LINE
8
BLACK
6
CONTINUOUS
10
0.0372746
20
0.483013
11
0.037874
21
0.48
0
LINE
8
BLACK
6
CONTINUOUS
10
0.037874
20
0.48
11
0.037874
21
0.42
0
LINE
8
BLACK
6
CONTINUOUS
10
0.037874
20
0.42
11
0.0372746
21
0.416987
0
LINE
8
BLACK
6
CONTINUOUS
10
0.0372746
20
0.416987
11
0.0355678
21
0.414432
0
LINE
8
BLACK
6
CONTINUOUS
10
0.0355678
20
0.414432
11
0.0330133
21
0.412725
0
LINE
8
BLACK
6
CONTINUOUS
10
0.0330133
20
0.412725
11
0.03
21
0.412126
0
LINE
8
BLACK
6
CONTINUOUS
10
0.03
20
0.412126
11
-0.03
21
0.412126
0
LINE
8
BLACK
6
CONTINUOUS
10
-0.03
20
0.412126
11
-0.0330133
21
0.412725
0
LINE
8
BLACK
6
CONTINUOUS
10
-0.0330133
20
0.412725
11
-0.0355678
21
0.414432
0
LINE
8
BLACK
6
CONTINUOUS
10
-0.0355678
20
0.414432
11
-0.0372746
21
0.416987
0
LINE
8
BLACK
6
CONTINUOUS
10
-0.0372746
20
0.416987
11
-0.037874
21
0.42
0
LINE
8
BLACK
6
CONTINUOUS
10
-0.037874
20
0.42
11
-0.037874
21
0.48
0
LINE
8
BLACK
6
CONTINUOUS
10
-0.037874
20
0.48
11
-0.0372746
21
0.483013
0
LINE
8
BLACK
6
CONTINUOUS
10
-0.0372746
20
0.483013
11
-0.0355678
21
0.485568
0
LINE
8
BLACK
6
CONTINUOUS
10
-0.0355678
20
0.485568
11
-0.0330133
21
0.487275
0
LINE
8
BLACK
6
CONTINUOUS
10
-0.0330133
20
0.487275
11
-0.03
21
0.487874
0
LINE
8
BLACK
6
CONTINUOUS
10
-0.03
20
0.487874
11
0.03
21
0.487874
0
LINE
8
BLACK
6
CONTINUOUS
10
0.03
20
0.487874
11
0.0330133
21
0.487275
0
LINE
8
BLACK
6
CONTINUOUS
10
0.133013
20
0.487275
11
0.135568
21
0.485568
0
LINE
8
BLACK
6
CONTINUOUS
10
0.135568
20
0.485568
11
0.137275
21
0.483013
0
LINE
8
BLACK
6
CONTINUOUS
10
0.137275
20
0.483013
11
0.137874
21
0.48
0
LINE
8
BLACK
6
CONTINUOUS
10
0.137874
20
0.48
11
0.137874
21
0.42
0
LINE
8
BLACK
6
CONTINUOUS
10
0.137874
20
0.42
11
0.137275
21
0.416987
0
LINE
8
BLACK
6
CONTINUOUS
10
0.137275
20
0.416987
11
0.135568
21
0.414432
0
LINE
8
BLACK
6
CONTINUOUS
10
0.135568
20
0.414432
11
0.133013
21
0.412725
0
LINE
8
BLACK
6
CONTINUOUS
10
0.133013
20
0.412725
11
0.13
21
0.412126
0
LINE
8
BLACK
6
CONTINUOUS
10
0.13
20
0.412126
11
0.07
21
0.412126
0
LINE
8
BLACK
6
CONTINUOUS
10
0.07
20
0.412126
11
0.0669867
21
0.412725
0
LINE
8
BLACK
6
CONTINUOUS
10
0.0669867
20
0.412725
11
0.0644322
21
0.414432
0
LINE
8
BLACK
6
CONTINUOUS
10
0.0644322
20
0.414432
11
0.0627254
21
0.416987
0
LINE
8
BLACK
6
CONTINUOUS
10
0.0627254
20
0.416987
11
0.062126
21
0.42
0
LINE
8
BLACK
6
CONTINUOUS
10
0.062126
20
0.42
11
0.062126
21
0.48
0
LINE
8
BLACK
6
CONTINUOUS
10
0.062126
20
0.48
11
0.0627254
21
0.483013
0
LINE
8
BLACK
6
CONTINUOUS
10
0.0627254
20
0.483013
11
0.0644322
21
0.485568
0
LINE
8
BLACK
6
CONTINUOUS
10
0.0644322
20
0.485568
11
0.0669867
21
0.487275
0
LINE
8
BLACK
6
CONTINUOUS
10
0.0669867
20
0.487275
11
0.07
21
0.487874
0
LINE
8
BLACK
6
CONTINUOUS
10
0.07
20
0.487874
11
0.13
21
0.487874
0
LINE
8
BLACK
6
CONTINUOUS
10
0.13
20
0.487874
11
0.133013
21
0.487275
0
LINE
8
BLACK
6
CONTINUOUS
10
0.182229
20
0.485119
11
0.1872
21
0.483374
0
LINE
8
BLACK
6
CONTINUOUS
10
0.1872
20
0.483374
11
0.191437
21
0.480244
0
LINE
8
BLACK
6
CONTINUOUS
10
0.191437
20
0.480244
11
0.194567
21
0.476007
0
LINE
8
BLACK
6
CONTINUOUS
10
0.194567
20
0.476007
11
0.196312
21
0.471036
0
LINE
8
BLACK
6
CONTINUOUS
10
0.196312
20
0.471036
11
0.196626
21
0.467717
0
LINE
8
BLACK
6
CONTINUOUS
10
0.196626
20
0.467717
11
0.196626
21
0.432283
0
LINE
8
BLACK
6
CONTINUOUS
10
0.196626
20
0.432283
11
0.196312
21
0.428964
0
LINE
8
BLACK
6
CONTINUOUS
10
0.196312
20
0.428964
11
0.194567
21
0.423993
0
LINE
8
BLACK
6
CONTINUOUS
10
0.194567
20
0.423993
11
0.191437
21
0.419756
0
LINE
8
BLACK
6
CONTINUOUS
10
0.191437
20
0.419756
11
0.1872
21
0.416626
0
LINE
8
BLACK
6
CONTINUOUS
10
0.1872
20
0.416626
11
0.182229
21
0.414881
0
LINE
8
BLACK
6
CONTINUOUS
10
0.182229
20
0.414881
11
0.178909
21
0.414567
0
LINE
8
BLACK
6
CONTINUOUS
10
0.178909
20
0.414567
11
0.15824
21
0.414567
0
LINE
8
BLACK
6
CONTINUOUS
10
0.15824
20
0.414567
11
0.15492
21
0.414881
0
LINE
8
BLACK
6
CONTINUOUS
10
0.15492
20
0.414881
11
0.14995
21
0.416626
0
LINE
8
BLACK
6
CONTINUOUS
10
0.14995
20
0.416626
11
0.145713
21
0.419756
0
LINE
8
BLACK
6
CONTINUOUS
10
0.145713
20
0.419756
11
0.142583
21
0.423993
0
LINE
8
BLACK
6
CONTINUOUS
10
0.142583
20
0.423993
11
0.140837
21
0.428964
0
LINE
8
BLACK
6
CONTINUOUS
10
0.140837
20
0.428964
11
0.140524
21
0.432283
0
LINE
8
BLACK
6
CONTINUOUS
10
0.140524
20
0.432283
11
0.140524
21
0.467717
0
LINE
8
BLACK
6
CONTINUOUS
10
0.140524
20
0.467717
11
0.140837
21
0.471036
0
LINE
8
BLACK
6
CONTINUOUS
10
0.140837
20
0.471036
11
0.142583
21
0.476007
0
LINE
8
BLACK
6
CONTINUOUS
10
0.142583
20
0.476007
11
0.145713
21
0.480244
0
LINE
8
BLACK
6
CONTINUOUS
10
0.145713
20
0.480244
11
0.14995
21
0.483374
0
LINE
8
BLACK
6
CONTINUOUS
10
0.14995
20
0.483374
11
0.15492
21
0.485119
0
LINE
8
BLACK
6
CONTINUOUS
10
0.15492
20
0.485119
11
0.15824
21
0.485433
0
LINE
8
BLACK
6
CONTINUOUS
10
0.15824
20
0.485433
11
0.178909
21
0.485433
0
LINE
8
BLACK
6
CONTINUOUS
10
0.178909
20
0.485433
11
0.182229
21
0.485119
0
LINE
8
BLACK
6
CONTINUOUS
10
0.25408
20
0.485119
11
0.25905
21
0.483374
0
LINE
8
BLACK
6
CONTINUOUS
10
0.25905
20
0.483374
11
0.263287
21
0.480244
0
LINE
8
BLACK
6
CONTINUOUS
10
0.263287
20
0.480244
11
0.266417
21
0.476007
0
LINE
8
BLACK
6
CONTINUOUS
10
0.266417
20
0.476007
11
0.268163
21
0.471036
0
LINE
8
BLACK
6
CONTINUOUS
10
0.268163
20
0.471036
11
0.268476
21
0.467717
0
LINE
8
BLACK
6
CONTINUOUS
10
0.268476
20
0.467717
11
0.268476
21
0.432283
0
LINE
8
BLACK
6
CONTINUOUS
10
0.268476
20
0.432283
11
0.268163
21
0.428964
0
LINE
8
BLACK
6
CONTINUOUS
10
0.268163
20
0.428964
11
0.266417
21
0.423993
0
LINE
8
BLACK
6
CONTINUOUS
10
0.266417
20
0.423993
11
0.263287
21
0.419756
0
LINE
8
BLACK
6
CONTINUOUS
10
0.263287
20
0.419756
11
0.25905
21
0.416626
0
LINE
8
BLACK
6
CONTINUOUS
10
0.25905
20
0.416626
11
0.25408
21
0.414881
0
LINE
8
BLACK
6
CONTINUOUS
10
0.25408
20
0.414881
11
0.25076
21
0.414567
0
LINE
8
BLACK
6
CONTINUOUS
10
0.25076
20
0.414567
11
0.230091
21
0.414567
0
LINE
8
BLACK
6
CONTINUOUS
10
0.230091
20
0.414567
11
0.226771
21
0.414881
0
LINE
8
BLACK
6
CONTINUOUS
10
0.226771
20
0.414881
11
0.2218
21
0.416626
0
LINE
8
BLACK
6
CONTINUOUS
10
0.2218
20
0.416626
11
0.217563
21
0.419756
0
LINE
8
BLACK
6
CONTINUOUS
10
0.217563
20
0.419756
11
0.214433
21
0.423993
0
LINE
8
BLACK
6
CONTINUOUS
10
0.214433
20
0.423993
11
0.212688
21
0.428964
0
LINE
8
BLACK
6
CONTINUOUS
10
0.212688
20
0.428964
11
0.212374
21
0.432283
0
LINE
8
BLACK
6
CONTINUOUS
10
0.212374
20
0.432283
11
0.212374
21
0.467717
0
LINE
8
BLACK
6
CONTINUOUS
10
0.212374
20
0.467717
11
0.212688
21
0.471036
0
LINE
8
BLACK
6
CONTINUOUS
10
0.212688
20
0.471036
11
0.214433
21
0.476007
0
LINE
8
BLACK
6
CONTINUOUS
10
0.214433
20
0.476007
11
0.217563
21
0.480244
0
LINE
8
BLACK
6
CONTINUOUS
10
0.217563
20
0.480244
11
0.2218
21
0.483374
0
LINE
8
BLACK
6
CONTINUOUS
10
0.2218
20
0.483374
11
0.226771
21
0.485119
0
LINE
8
BLACK
6
CONTINUOUS
10
0.226771
20
0.485119
11
0.230091
21
0.485433
0
LINE
8
BLACK
6
CONTINUOUS
10
0.230091
20
0.485433
11
0.25076
21
0.485433
0
LINE
8
BLACK
6
CONTINUOUS
10
0.25076
20
0.485433
11
0.25408
21
0.485119
0
LINE
8
BLACK
6
CONTINUOUS
10
1.49504
20
0.481812
11
1.50001
21
0.480067
0
LINE
8
BLACK
6
CONTINUOUS
10
1.50001
20
0.480067
11
1.50424
21
0.476937
0
LINE
8
BLACK
6
CONTINUOUS
10
1.50424
20
0.476937
11
1.50737
21
0.4727
0
LINE
8
BLACK
6
CONTINUOUS
10
1.50737
20
0.4727
11
1.50912
21
0.467729
0
LINE
8
BLACK
6
CONTINUOUS
10
1.50912
20
0.467729
11
1.50943
21
0.464409
0
LINE
8
BLACK
6
CONTINUOUS
10
1.50943
20
0.464409
11
1.50943
21
0.44374
0
LINE
8
BLACK
6
CONTINUOUS
10
1.50943
20
0.44374
11
1.50912
21
0.44042
0
LINE
8
BLACK
6
CONTINUOUS
10
1.50912
20
0.44042
11
1.50737
21
0.43545
0
LINE
8
BLACK
6
CONTINUOUS
10
1.50737
20
0.43545
11
1.50424
21
0.431213
0
LINE
8
BLACK
6
CONTINUOUS
10
1.50424
20
0.431213
11
1.50001
21
0.428083
0
LINE
8
BLACK
6
CONTINUOUS
10
1.50001
20
0.428083
11
1.49504
21
0.426337
0
LINE
8
BLACK
6
CONTINUOUS
10
1.49504
20
0.426337
11
1.49172
21
0.426024
0
LINE
8
BLACK
6
CONTINUOUS
10
1.49172
20
0.426024
11
1.45628
21
0.426024
0
LINE
8
BLACK
6
CONTINUOUS
10
1.45628
20
0.426024
11
1.45296
21
0.426337
0
LINE
8
BLACK
6
CONTINUOUS
10
1.45296
20
0.426337
11
1.44799
21
0.428083
0
LINE
8
BLACK
6
CONTINUOUS
10
1.44799
20
0.428083
11
1.44376
21
0.431213
0
LINE
8
BLACK
6
CONTINUOUS
10
1.44376
20
0.431213
11
1.44063
21
0.43545
0
LINE
8
BLACK
6
CONTINUOUS
10
1.44063
20
0.43545
11
1.43888
21
0.44042
0
LINE
8
BLACK
6
CONTINUOUS
10
1.43888
20
0.44042
11
1.43857
21
0.44374
0
LINE
8
BLACK
6
CONTINUOUS
10
1.43857
20
0.44374
11
1.43857
21
0.464409
0
LINE
8
BLACK
6
CONTINUOUS
10
1.43857
20
0.464409
11
1.43888
21
0.467729
0
LINE
8
BLACK
6
CONTINUOUS
10
1.43888
20
0.467729
11
1.44063
21
0.4727
0
LINE
8
BLACK
6
CONTINUOUS
10
1.44063
20
0.4727
11
1.44376
21
0.476937
0
LINE
8
BLACK
6
CONTINUOUS
10
1.44376
20
0.476937
11
1.44799
21
0.480067
0
LINE
8
BLACK
6
CONTINUOUS
10
1.44799
20
0.480067
11
1.45296
21
0.481812
0
LINE
8
BLACK
6
CONTINUOUS
10
1.45296
20
0.481812
11
1.45628
21
0.482126
0
LINE
8
BLACK
6
CONTINUOUS
10
1.45628
20
0.482126
11
1.49172
21
0.482126
0
LINE
8
BLACK
6
CONTINUOUS
10
1.49172
20
0.482126
11
1.49504
21
0.481812
0
LINE
8
BLACK
6
CONTINUOUS
10
1.71201
20
0.501275
11
1.71457
21
0.499568
0
LINE
8
BLACK
6
CONTINUOUS
10
1.71457
20
0.499568
11
1.71627
21
0.497013
0
LINE
8
BLACK
6
CONTINUOUS
10
1.71627
20
0.497013
11
1.71687
21
0.494
0
LINE
8
BLACK
6
CONTINUOUS
10
1.71687
20
0.494
11
1.71687
21
0.434
0
LINE
8
BLACK
6
CONTINUOUS
10
1.71687
20
0.434
11
1.71627
21
0.430987
0
LINE
8
BLACK
6
CONTINUOUS
10
1.71627
20
0.430987
11
1.71457
21
0.428432
0
LINE
8
BLACK
6
CONTINUOUS
10
1.71457
20
0.428432
11
1.71201
21
0.426725
0
LINE
8
BLACK
6
CONTINUOUS
10
1.71201
20
0.426725
11
1.709
21
0.426126
0
LINE
8
BLACK
6
CONTINUOUS
10
1.709
20
0.426126
11
1.649
21
0.426126
0
LINE
8
BLACK
6
CONTINUOUS
10
1.649
20
0.426126
11
1.64599
21
0.426725
0
LINE
8
BLACK
6
CONTINUOUS
10
1.64599
20
0.426725
11
1.64343
21
0.428432
0
LINE
8
BLACK
6
CONTINUOUS
10
1.64343
20
0.428432
11
1.64173
21
0.430987
0
LINE
8
BLACK
6
CONTINUOUS
10
1.64173
20
0.430987
11
1.64113
21
0.434
0
LINE
8
BLACK
6
CONTINUOUS
10
1.64113
20
0.434
11
1.64113
21
0.494
0
LINE
8
BLACK
6
CONTINUOUS
10
1.64113
20
0.494
11
1.64173
21
0.497013
0
LINE
8
BLACK
6
CONTINUOUS
10
1.64173
20
0.497013
11
1.64343
21
0.499568
0
LINE
8
BLACK
6
CONTINUOUS
10
1.64343
20
0.499568
11
1.64599
21
0.501275
0
LINE
8
BLACK
6
CONTINUOUS
10
1.64599
20
0.501275
11
1.649
21
0.501874
0
LINE
8
BLACK
6
CONTINUOUS
10
1.649
20
0.501874
11
1.709
21
0.501874
0
LINE
8
BLACK
6
CONTINUOUS
10
1.709
20
0.501874
11
1.71201
21
0.501275
0
LINE
8
BLACK
6
CONTINUOUS
10
1.61201
20
0.501275
11
1.61457
21
0.499568
0
LINE
8
BLACK
6
CONTINUOUS
10
1.61457
20
0.499568
11
1.61627
21
0.497013
0
LINE
8
BLACK
6
CONTINUOUS
10
1.61627
20
0.497013
11
1.61687
21
0.494
0
LINE
8
BLACK
6
CONTINUOUS
10
1.61687
20
0.494
11
1.61687
21
0.434
0
LINE
8
BLACK
6
CONTINUOUS
10
1.61687
20
0.434
11
1.61627
21
0.430987
0
LINE
8
BLACK
6
CONTINUOUS
10
1.61627
20
0.430987
11
1.61457
21
0.428432
0
LINE
8
BLACK
6
CONTINUOUS
10
1.61457
20
0.428432
11
1.61201
21
0.426725
0
LINE
8
BLACK
6
CONTINUOUS
10
1.61201
20
0.426725
11
1.609
21
0.426126
0
LINE
8
BLACK
6
CONTINUOUS
10
1.609
20
0.426126
11
1.549
21
0.426126
0
LINE
8
BLACK
6
CONTINUOUS
10
1.549
20
0.426126
11
1.54599
21
0.426725
0
LINE
8
BLACK
6
CONTINUOUS
10
1.54599
20
0.426725
11
1.54343
21
0.428432
0
LINE
8
BLACK
6
CONTINUOUS
10
1.54343
20
0.428432
11
1.54173
21
0.430987
0
LINE
8
BLACK
6
CONTINUOUS
10
1.54173
20
0.430987
11
1.54113
21
0.434
0
LINE
8
BLACK
6
CONTINUOUS
10
1.54113
20
0.434
11
1.54113
21
0.494
0
LINE
8
BLACK
6
CONTINUOUS
10
1.54113
20
0.494
11
1.54173
21
0.497013
0
LINE
8
BLACK
6
CONTINUOUS
10
1.54173
20
0.497013
11
1.54343
21
0.499568
0
LINE
8
BLACK
6
CONTINUOUS
10
1.54343
20
0.499568
11
1.54599
21
0.501275
0
LINE
8
BLACK
6
CONTINUOUS
10
1.54599
20
0.501275
11
1.549
21
0.501874
0
LINE
8
BLACK
6
CONTINUOUS
10
1.549
20
0.501874
11
1.609
21
0.501874
0
LINE
8
BLACK
6
CONTINUOUS
10
1.609
20
0.501874
11
1.61201
21
0.501275
0
LINE
8
BLACK
6
CONTINUOUS
10
1.36304
20
0.485812
11
1.36801
21
0.484067
0
LINE
8
BLACK
6
CONTINUOUS
10
1.36801
20
0.484067
11
1.37224
21
0.480937
0
LINE
8
BLACK
6
CONTINUOUS
10
1.37224
20
0.480937
11
1.37537
21
0.4767
0
LINE
8
BLACK
6
CONTINUOUS
10
1.37537
20
0.4767
11
1.37712
21
0.471729
0
LINE
8
BLACK
6
CONTINUOUS
10
1.37712
20
0.471729
11
1.37743
21
0.468409
0
LINE
8
BLACK
6
CONTINUOUS
10
1.37743
20
0.468409
11
1.37743
21
0.44774
0
LINE
8
BLACK
6
CONTINUOUS
10
1.37743
20
0.44774
11
1.37712
21
0.44442
0
LINE
8
BLACK
6
CONTINUOUS
10
1.37712
20
0.44442
11
1.37537
21
0.43945
0
LINE
8
BLACK
6
CONTINUOUS
10
1.37537
20
0.43945
11
1.37224
21
0.435213
0
LINE
8
BLACK
6
CONTINUOUS
10
1.37224
20
0.435213
11
1.36801
21
0.432083
0
LINE
8
BLACK
6
CONTINUOUS
10
1.36801
20
0.432083
11
1.36304
21
0.430337
0
LINE
8
BLACK
6
CONTINUOUS
10
1.36304
20
0.430337
11
1.35972
21
0.430024
0
LINE
8
BLACK
6
CONTINUOUS
10
1.35972
20
0.430024
11
1.32428
21
0.430024
0
LINE
8
BLACK
6
CONTINUOUS
10
1.32428
20
0.430024
11
1.32096
21
0.430337
0
LINE
8
BLACK
6
CONTINUOUS
10
1.32096
20
0.430337
11
1.31599
21
0.432083
0
LINE
8
BLACK
6
CONTINUOUS
10
1.31599
20
0.432083
11
1.31176
21
0.435213
0
LINE
8
BLACK
6
CONTINUOUS
10
1.31176
20
0.435213
11
1.30863
21
0.43945
0
LINE
8
BLACK
6
CONTINUOUS
10
1.30863
20
0.43945
11
1.30688
21
0.44442
0
LINE
8
BLACK
6
CONTINUOUS
10
1.30688
20
0.44442
11
1.30657
21
0.44774
0
LINE
8
BLACK
6
CONTINUOUS
10
1.30657
20
0.44774
11
1.30657
21
0.468409
0
LINE
8
BLACK
6
CONTINUOUS
10
1.30657
20
0.468409
11
1.30688
21
0.471729
0
LINE
8
BLACK
6
CONTINUOUS
10
1.30688
20
0.471729
11
1.30863
21
0.4767
0
LINE
8
BLACK
6
CONTINUOUS
10
1.30863
20
0.4767
11
1.31176
21
0.480937
0
LINE
8
BLACK
6
CONTINUOUS
10
1.31176
20
0.480937
11
1.31599
21
0.484067
0
LINE
8
BLACK
6
CONTINUOUS
10
1.31599
20
0.484067
11
1.32096
21
0.485812
0
LINE
8
BLACK
6
CONTINUOUS
10
1.32096
20
0.485812
11
1.32428
21
0.486126
0
LINE
8
BLACK
6
CONTINUOUS
10
1.32428
20
0.486126
11
1.35972
21
0.486126
0
LINE
8
BLACK
6
CONTINUOUS
10
1.35972
20
0.486126
11
1.36304
21
0.485812
0
LINE
8
BLACK
6
CONTINUOUS
10
0.947021
20
0.489647
11
0.951991
21
0.487901
0
LINE
8
BLACK
6
CONTINUOUS
10
0.951991
20
0.487901
11
0.956228
21
0.484772
0
LINE
8
BLACK
6
CONTINUOUS
10
0.956228
20
0.484772
11
0.959358
21
0.480534
0
LINE
8
BLACK
6
CONTINUOUS
10
0.959358
20
0.480534
11
0.961104
21
0.475564
0
LINE
8
BLACK
6
CONTINUOUS
10
0.961104
20
0.475564
11
0.961417
21
0.472244
0
LINE
8
BLACK
6
CONTINUOUS
10
0.961417
20
0.472244
11
0.961417
21
0.452559
0
LINE
8
BLACK
6
CONTINUOUS
10
0.961417
20
0.452559
11
0.961104
21
0.449239
0
LINE
8
BLACK
6
CONTINUOUS
10
0.961104
20
0.449239
11
0.959358
21
0.444269
0
LINE
8
BLACK
6
CONTINUOUS
10
0.959358
20
0.444269
11
0.956228
21
0.440032
0
LINE
8
BLACK
6
CONTINUOUS
10
0.956228
20
0.440032
11
0.951991
21
0.436902
0
LINE
8
BLACK
6
CONTINUOUS
10
0.951991
20
0.436902
11
0.947021
21
0.435156
0
LINE
8
BLACK
6
CONTINUOUS
10
0.947021
20
0.435156
11
0.943701
21
0.434843
0
LINE
8
BLACK
6
CONTINUOUS
10
0.943701
20
0.434843
11
0.906299
21
0.434843
0
LINE
8
BLACK
6
CONTINUOUS
10
0.906299
20
0.434843
11
0.902979
21
0.435156
0
LINE
8
BLACK
6
CONTINUOUS
10
0.902979
20
0.435156
11
0.898009
21
0.436902
0
LINE
8
BLACK
6
CONTINUOUS
10
0.898009
20
0.436902
11
0.893772
21
0.440032
0
LINE
8
BLACK
6
CONTINUOUS
10
0.893772
20
0.440032
11
0.890642
21
0.444269
0
LINE
8
BLACK
6
CONTINUOUS
10
0.890642
20
0.444269
11
0.888896
21
0.449239
0
LINE
8
BLACK
6
CONTINUOUS
10
0.888896
20
0.449239
11
0.888583
21
0.452559
0
LINE
8
BLACK
6
CONTINUOUS
10
0.888583
20
0.452559
11
0.888583
21
0.472244
0
LINE
8
BLACK
6
CONTINUOUS
10
0.888583
20
0.472244
11
0.888896
21
0.475564
0
LINE
8
BLACK
6
CONTINUOUS
10
0.888896
20
0.475564
11
0.890642
21
0.480534
0
LINE
8
BLACK
6
CONTINUOUS
10
0.890642
20
0.480534
11
0.893772
21
0.484772
0
LINE
8
BLACK
6
CONTINUOUS
10
0.893772
20
0.484772
11
0.898009
21
0.487901
0
LINE
8
BLACK
6
CONTINUOUS
10
0.898009
20
0.487901
11
0.902979
21
0.489647
0
LINE
8
BLACK
6
CONTINUOUS
10
0.902979
20
0.489647
11
0.906299
21
0.489961
0
LINE
8
BLACK
6
CONTINUOUS
10
0.906299
20
0.489961
11
0.943701
21
0.489961
0
LINE
8
BLACK
6
CONTINUOUS
10
0.943701
20
0.489961
11
0.947021
21
0.489647
0
LINE
8
BLACK
6
CONTINUOUS
10
0.847021
20
0.489647
11
0.851991
21
0.487901
0
LINE
8
BLACK
6
CONTINUOUS
10
0.851991
20
0.487901
11
0.856228
21
0.484772
0
LINE
8
BLACK
6
CONTINUOUS
10
0.856228
20
0.484772
11
0.859358
21
0.480534
0
LINE
8
BLACK
6
CONTINUOUS
10
0.859358
20
0.480534
11
0.861104
21
0.475564
0
LINE
8
BLACK
6
CONTINUOUS
10
0.861104
20
0.475564
11
0.861417
21
0.472244
0
LINE
8
BLACK
6
CONTINUOUS
10
0.861417
20
0.472244
11
0.861417
21
0.452559
0
LINE
8
BLACK
6
CONTINUOUS
10
0.861417
20
0.452559
11
0.861104
21
0.449239
0
LINE
8
BLACK
6
CONTINUOUS
10
0.861104
20
0.449239
11
0.859358
21
0.444269
0
LINE
8
BLACK
6
CONTINUOUS
10
0.859358
20
0.444269
11
0.856228
21
0.440032
0
LINE
8
BLACK
6
CONTINUOUS
10
0.856228
20
0.440032
11
0.851991
21
0.436902
0
LINE
8
BLACK
6
CONTINUOUS
10
0.851991
20
0.436902
11
0.847021
21
0.435156
0
LINE
8
BLACK
6
CONTINUOUS
10
0.847021
20
0.435156
11
0.843701
21
0.434843
0
LINE
8
BLACK
6
CONTINUOUS
10
0.843701
20
0.434843
11
0.806299
21
0.434843
0
LINE
8
BLACK
6
CONTINUOUS
10
0.806299
20
0.434843
11
0.802979
21
0.435156
0
LINE
8
BLACK
6
CONTINUOUS
10
0.802979
20
0.435156
11
0.798009
21
0.436902
0
LINE
8
BLACK
6
CONTINUOUS
10
0.798009
20
0.436902
11
0.793772
21
0.440032
0
LINE
8
BLACK
6
CONTINUOUS
10
0.793772
20
0.440032
11
0.790642
21
0.444269
0
LINE
8
BLACK
6
CONTINUOUS
10
0.790642
20
0.444269
11
0.788896
21
0.449239
0
LINE
8
BLACK
6
CONTINUOUS
10
0.788896
20
0.449239
11
0.788583
21
0.452559
0
LINE
8
BLACK
6
CONTINUOUS
10
0.788583
20
0.452559
11
0.788583
21
0.472244
0
LINE
8
BLACK
6
CONTINUOUS
10
0.788583
20
0.472244
11
0.788896
21
0.475564
0
LINE
8
BLACK
6
CONTINUOUS
10
0.788896
20
0.475564
11
0.790642
21
0.480534
0
LINE
8
BLACK
6
CONTINUOUS
10
0.790642
20
0.480534
11
0.793772
21
0.484772
0
LINE
8
BLACK
6
CONTINUOUS
10
0.793772
20
0.484772
11
0.798009
21
0.487901
0
LINE
8
BLACK
6
CONTINUOUS
10
0.798009
20
0.487901
11
0.802979
21
0.489647
0
LINE
8
BLACK
6
CONTINUOUS
10
0.802979
20
0.489647
11
0.806299
21
0.489961
0
LINE
8
BLACK
6
CONTINUOUS
10
0.806299
20
0.489961
11
0.843701
21
0.489961
0
LINE
8
BLACK
6
CONTINUOUS
10
0.843701
20
0.489961
11
0.847021
21
0.489647
0
LINE
8
BLACK
6
CONTINUOUS
10
1.28304
20
0.494663
11
1.28801
21
0.492917
0
LINE
8
BLACK
6
CONTINUOUS
10
1.28801
20
0.492917
11
1.29224
21
0.489787
0
LINE
8
BLACK
6
CONTINUOUS
10
1.29224
20
0.489787
11
1.29537
21
0.48555
0
LINE
8
BLACK
6
CONTINUOUS
10
1.29537
20
0.48555
11
1.29712
21
0.48058
0
LINE
8
BLACK
6
CONTINUOUS
10
1.29712
20
0.48058
11
1.29743
21
0.47726
0
LINE
8
BLACK
6
CONTINUOUS
10
1.29743
20
0.47726
11
1.29743
21
0.456591
0
LINE
8
BLACK
6
CONTINUOUS
10
1.29743
20
0.456591
11
1.29712
21
0.453271
0
LINE
8
BLACK
6
CONTINUOUS
10
1.29712
20
0.453271
11
1.29537
21
0.4483
0
LINE
8
BLACK
6
CONTINUOUS
10
1.29537
20
0.4483
11
1.29224
21
0.444063
0
LINE
8
BLACK
6
CONTINUOUS
10
1.29224
20
0.444063
11
1.28801
21
0.440933
0
LINE
8
BLACK
6
CONTINUOUS
10
1.28801
20
0.440933
11
1.28304
21
0.439188
0
LINE
8
BLACK
6
CONTINUOUS
10
1.28304
20
0.439188
11
1.27972
21
0.438874
0
LINE
8
BLACK
6
CONTINUOUS
10
1.27972
20
0.438874
11
1.24428
21
0.438874
0
LINE
8
BLACK
6
CONTINUOUS
10
1.24428
20
0.438874
11
1.24096
21
0.439188
0
LINE
8
BLACK
6
CONTINUOUS
10
1.24096
20
0.439188
11
1.23599
21
0.440933
0
LINE
8
BLACK
6
CONTINUOUS
10
1.23599
20
0.440933
11
1.23176
21
0.444063
0
LINE
8
BLACK
6
CONTINUOUS
10
1.23176
20
0.444063
11
1.22863
21
0.4483
0
LINE
8
BLACK
6
CONTINUOUS
10
1.22863
20
0.4483
11
1.22688
21
0.453271
0
LINE
8
BLACK
6
CONTINUOUS
10
1.22688
20
0.453271
11
1.22657
21
0.456591
0
LINE
8
BLACK
6
CONTINUOUS
10
1.22657
20
0.456591
11
1.22657
21
0.47726
0
LINE
8
BLACK
6
CONTINUOUS
10
1.22657
20
0.47726
11
1.22688
21
0.48058
0
LINE
8
BLACK
6
CONTINUOUS
10
1.22688
20
0.48058
11
1.22863
21
0.48555
0
LINE
8
BLACK
6
CONTINUOUS
10
1.22863
20
0.48555
11
1.23176
21
0.489787
0
LINE
8
BLACK
6
CONTINUOUS
10
1.23176
20
0.489787
11
1.23599
21
0.492917
0
LINE
8
BLACK
6
CONTINUOUS
10
1.23599
20
0.492917
11
1.24096
21
0.494663
0
LINE
8
BLACK
6
CONTINUOUS
10
1.24096
20
0.494663
11
1.24428
21
0.494976
0
LINE
8
BLACK
6
CONTINUOUS
10
1.24428
20
0.494976
11
1.27972
21
0.494976
0
LINE
8
BLACK
6
CONTINUOUS
10
1.27972
20
0.494976
11
1.28304
21
0.494663
0
LINE
8
BLACK
6
CONTINUOUS
10
0.65874
20
0.534819
11
0.662805
21
0.532832
0
LINE
8
BLACK
6
CONTINUOUS
10
0.662805
20
0.532832
11
0.666007
21
0.529636
0
LINE
8
BLACK
6
CONTINUOUS
10
0.666007
20
0.529636
11
0.668001
21
0.525574
0
LINE
8
BLACK
6
CONTINUOUS
10
0.668001
20
0.525574
11
0.668583
21
0.521614
0
LINE
8
BLACK
6
CONTINUOUS
10
0.668583
20
0.521614
11
0.668583
21
0.475354
0
LINE
8
BLACK
6
CONTINUOUS
10
0.668583
20
0.475354
11
0.668008
21
0.471418
0
LINE
8
BLACK
6
CONTINUOUS
10
0.668008
20
0.471418
11
0.666021
21
0.467353
0
LINE
8
BLACK
6
CONTINUOUS
10
0.666021
20
0.467353
11
0.662825
21
0.46415
0
LINE
8
BLACK
6
CONTINUOUS
10
0.662825
20
0.46415
11
0.658763
21
0.462156
0
LINE
8
BLACK
6
CONTINUOUS
10
0.658763
20
0.462156
11
0.654803
21
0.461575
0
LINE
8
BLACK
6
CONTINUOUS
10
0.654803
20
0.461575
11
0.642992
21
0.461575
0
LINE
8
BLACK
6
CONTINUOUS
10
0.642992
20
0.461575
11
0.639055
21
0.462149
0
LINE
8
BLACK
6
CONTINUOUS
10
0.639055
20
0.462149
11
0.63499
21
0.464136
0
LINE
8
BLACK
6
CONTINUOUS
10
0.63499
20
0.464136
11
0.631788
21
0.467333
0
LINE
8
BLACK
6
CONTINUOUS
10
0.631788
20
0.467333
11
0.629794
21
0.471395
0
LINE
8
BLACK
6
CONTINUOUS
10
0.629794
20
0.471395
11
0.629213
21
0.475354
0
LINE
8
BLACK
6
CONTINUOUS
10
0.629213
20
0.475354
11
0.629213
21
0.521614
0
LINE
8
BLACK
6
CONTINUOUS
10
0.629213
20
0.521614
11
0.629787
21
0.525551
0
LINE
8
BLACK
6
CONTINUOUS
10
0.629787
20
0.525551
11
0.631774
21
0.529616
0
LINE
8
BLACK
6
CONTINUOUS
10
0.631774
20
0.529616
11
0.634971
21
0.532818
0
LINE
8
BLACK
6
CONTINUOUS
10
0.634971
20
0.532818
11
0.639032
21
0.534813
0
LINE
8
BLACK
6
CONTINUOUS
10
0.639032
20
0.534813
11
0.642992
21
0.535394
0
LINE
8
BLACK
6
CONTINUOUS
10
0.642992
20
0.535394
11
0.654803
21
0.535394
0
LINE
8
BLACK
6
CONTINUOUS
10
0.654803
20
0.535394
11
0.65874
21
0.534819
0
LINE
8
BLACK
6
CONTINUOUS
10
0.402021
20
0.519844
11
0.406991
21
0.518098
0
LINE
8
BLACK
6
CONTINUOUS
10
0.406991
20
0.518098
11
0.411228
21
0.514968
0
LINE
8
BLACK
6
CONTINUOUS
10
0.411228
20
0.514968
11
0.414358
21
0.510731
0
LINE
8
BLACK
6
CONTINUOUS
10
0.414358
20
0.510731
11
0.416104
21
0.505761
0
LINE
8
BLACK
6
CONTINUOUS
10
0.416104
20
0.505761
11
0.416417
21
0.502441
0
LINE
8
BLACK
6
CONTINUOUS
10
0.416417
20
0.502441
11
0.416417
21
0.482756
0
LINE
8
BLACK
6
CONTINUOUS
10
0.416417
20
0.482756
11
0.416104
21
0.479436
0
LINE
8
BLACK
6
CONTINUOUS
10
0.416104
20
0.479436
11
0.414358
21
0.474466
0
LINE
8
BLACK
6
CONTINUOUS
10
0.414358
20
0.474466
11
0.411228
21
0.470228
0
LINE
8
BLACK
6
CONTINUOUS
10
0.411228
20
0.470228
11
0.406991
21
0.467099
0
LINE
8
BLACK
6
CONTINUOUS
10
0.406991
20
0.467099
11
0.402021
21
0.465353
0
LINE
8
BLACK
6
CONTINUOUS
10
0.402021
20
0.465353
11
0.398701
21
0.465039
0
LINE
8
BLACK
6
CONTINUOUS
10
0.398701
20
0.465039
11
0.361299
21
0.465039
0
LINE
8
BLACK
6
CONTINUOUS
10
0.361299
20
0.465039
11
0.357979
21
0.465353
0
LINE
8
BLACK
6
CONTINUOUS
10
0.357979
20
0.465353
11
0.353009
21
0.467099
0
LINE
8
BLACK
6
CONTINUOUS
10
0.353009
20
0.467099
11
0.348772
21
0.470228
0
LINE
8
BLACK
6
CONTINUOUS
10
0.348772
20
0.470228
11
0.345642
21
0.474466
0
LINE
8
BLACK
6
CONTINUOUS
10
0.345642
20
0.474466
11
0.343896
21
0.479436
0
LINE
8
BLACK
6
CONTINUOUS
10
0.343896
20
0.479436
11
0.343583
21
0.482756
0
LINE
8
BLACK
6
CONTINUOUS
10
0.343583
20
0.482756
11
0.343583
21
0.502441
0
LINE
8
BLACK
6
CONTINUOUS
10
0.343583
20
0.502441
11
0.343896
21
0.505761
0
LINE
8
BLACK
6
CONTINUOUS
10
0.343896
20
0.505761
11
0.345642
21
0.510731
0
LINE
8
BLACK
6
CONTINUOUS
10
0.345642
20
0.510731
11
0.348772
21
0.514968
0
LINE
8
BLACK
6
CONTINUOUS
10
0.348772
20
0.514968
11
0.353009
21
0.518098
0
LINE
8
BLACK
6
CONTINUOUS
10
0.353009
20
0.518098
11
0.357979
21
0.519844
0
LINE
8
BLACK
6
CONTINUOUS
10
0.357979
20
0.519844
11
0.361299
21
0.520157
0
LINE
8
BLACK
6
CONTINUOUS
10
0.361299
20
0.520157
11
0.398701
21
0.520157
0
LINE
8
BLACK
6
CONTINUOUS
10
0.398701
20
0.520157
11
0.402021
21
0.519844
0
LINE
8
BLACK
6
CONTINUOUS
10
0.266021
20
0.546344
11
0.270991
21
0.544598
0
LINE
8
BLACK
6
CONTINUOUS
10
0.270991
20
0.544598
11
0.275228
21
0.541468
0
LINE
8
BLACK
6
CONTINUOUS
10
0.275228
20
0.541468
11
0.278358
21
0.537231
0
LINE
8
BLACK
6
CONTINUOUS
10
0.278358
20
0.537231
11
0.280104
21
0.532261
0
LINE
8
BLACK
6
CONTINUOUS
10
0.280104
20
0.532261
11
0.280417
21
0.528941
0
LINE
8
BLACK
6
CONTINUOUS
10
0.280417
20
0.528941
11
0.280417
21
0.509256
0
LINE
8
BLACK
6
CONTINUOUS
10
0.280417
20
0.509256
11
0.280104
21
0.505936
0
LINE
8
BLACK
6
CONTINUOUS
10
0.280104
20
0.505936
11
0.278358
21
0.500966
0
LINE
8
BLACK
6
CONTINUOUS
10
0.278358
20
0.500966
11
0.275228
21
0.496728
0
LINE
8
BLACK
6
CONTINUOUS
10
0.275228
20
0.496728
11
0.270991
21
0.493599
0
LINE
8
BLACK
6
CONTINUOUS
10
0.270991
20
0.493599
11
0.266021
21
0.491853
0
LINE
8
BLACK
6
CONTINUOUS
10
0.266021
20
0.491853
11
0.262701
21
0.491539
0
LINE
8
BLACK
6
CONTINUOUS
10
0.262701
20
0.491539
11
0.225299
21
0.491539
0
LINE
8
BLACK
6
CONTINUOUS
10
0.225299
20
0.491539
11
0.221979
21
0.491853
0
LINE
8
BLACK
6
CONTINUOUS
10
0.221979
20
0.491853
11
0.217009
21
0.493599
0
LINE
8
BLACK
6
CONTINUOUS
10
0.217009
20
0.493599
11
0.212772
21
0.496728
0
LINE
8
BLACK
6
CONTINUOUS
10
0.212772
20
0.496728
11
0.209642
21
0.500966
0
LINE
8
BLACK
6
CONTINUOUS
10
0.209642
20
0.500966
11
0.207896
21
0.505936
0
LINE
8
BLACK
6
CONTINUOUS
10
0.207896
20
0.505936
11
0.207583
21
0.509256
0
LINE
8
BLACK
6
CONTINUOUS
10
0.207583
20
0.509256
11
0.207583
21
0.528941
0
LINE
8
BLACK
6
CONTINUOUS
10
0.207583
20
0.528941
11
0.207896
21
0.532261
0
LINE
8
BLACK
6
CONTINUOUS
10
0.207896
20
0.532261
11
0.209642
21
0.537231
0
LINE
8
BLACK
6
CONTINUOUS
10
0.209642
20
0.537231
11
0.212772
21
0.541468
0
LINE
8
BLACK
6
CONTINUOUS
10
0.212772
20
0.541468
11
0.217009
21
0.544598
0
LINE
8
BLACK
6
CONTINUOUS
10
0.217009
20
0.544598
11
0.221979
21
0.546344
0
LINE
8
BLACK
6
CONTINUOUS
10
0.221979
20
0.546344
11
0.225299
21
0.546657
0
LINE
8
BLACK
6
CONTINUOUS
10
0.225299
20
0.546657
11
0.262701
21
0.546657
0
LINE
8
BLACK
6
CONTINUOUS
10
0.262701
20
0.546657
11
0.266021
21
0.546344
0
LINE
8
BLACK
6
CONTINUOUS
10
1.49504
20
0.553663
11
1.50001
21
0.551917
0
LINE
8
BLACK
6
CONTINUOUS
10
1.50001
20
0.551917
11
1.50424
21
0.548787
0
LINE
8
BLACK
6
CONTINUOUS
10
1.50424
20
0.548787
11
1.50737
21
0.54455
0
LINE
8
BLACK
6
CONTINUOUS
10
1.50737
20
0.54455
11
1.50912
21
0.53958
0
LINE
8
BLACK
6
CONTINUOUS
10
1.50912
20
0.53958
11
1.50943
21
0.53626
0
LINE
8
BLACK
6
CONTINUOUS
10
1.50943
20
0.53626
11
1.50943
21
0.515591
0
LINE
8
BLACK
6
CONTINUOUS
10
1.50943
20
0.515591
11
1.50912
21
0.512271
0
LINE
8
BLACK
6
CONTINUOUS
10
1.50912
20
0.512271
11
1.50737
21
0.5073
0
LINE
8
BLACK
6
CONTINUOUS
10
1.50737
20
0.5073
11
1.50424
21
0.503063
0
LINE
8
BLACK
6
CONTINUOUS
10
1.50424
20
0.503063
11
1.50001
21
0.499933
0
LINE
8
BLACK
6
CONTINUOUS
10
1.50001
20
0.499933
11
1.49504
21
0.498188
0
LINE
8
BLACK
6
CONTINUOUS
10
1.49504
20
0.498188
11
1.49172
21
0.497874
0
LINE
8
BLACK
6
CONTINUOUS
10
1.49172
20
0.497874
11
1.45628
21
0.497874
0
LINE
8
BLACK
6
CONTINUOUS
10
1.45628
20
0.497874
11
1.45296
21
0.498188
0
LINE
8
BLACK
6
CONTINUOUS
10
1.45296
20
0.498188
11
1.44799
21
0.499933
0
LINE
8
BLACK
6
CONTINUOUS
10
1.44799
20
0.499933
11
1.44376
21
0.503063
0
LINE
8
BLACK
6
CONTINUOUS
10
1.44376
20
0.503063
11
1.44063
21
0.5073
0
LINE
8
BLACK
6
CONTINUOUS
10
1.44063
20
0.5073
11
1.43888
21
0.512271
0
LINE
8
BLACK
6
CONTINUOUS
10
1.43888
20
0.512271
11
1.43857
21
0.515591
0
LINE
8
BLACK
6
CONTINUOUS
10
1.43857
20
0.515591
11
1.43857
21
0.53626
0
LINE
8
BLACK
6
CONTINUOUS
10
1.43857
20
0.53626
11
1.43888
21
0.53958
0
LINE
8
BLACK
6
CONTINUOUS
10
1.43888
20
0.53958
11
1.44063
21
0.54455
0
LINE
8
BLACK
6
CONTINUOUS
10
1.44063
20
0.54455
11
1.44376
21
0.548787
0
LINE
8
BLACK
6
CONTINUOUS
10
1.44376
20
0.548787
11
1.44799
21
0.551917
0
LINE
8
BLACK
6
CONTINUOUS
10
1.44799
20
0.551917
11
1.45296
21
0.553663
0
LINE
8
BLACK
6
CONTINUOUS
10
1.45296
20
0.553663
11
1.45628
21
0.553976
0
LINE
8
BLACK
6
CONTINUOUS
10
1.45628
20
0.553976
11
1.49172
21
0.553976
0
LINE
8
BLACK
6
CONTINUOUS
10
1.49172
20
0.553976
11
1.49504
21
0.553663
0
LINE
8
BLACK
6
CONTINUOUS
10
1.28402
20
0.552844
11
1.28899
21
0.551098
0
LINE
8
BLACK
6
CONTINUOUS
10
1.28899
20
0.551098
11
1.29323
21
0.547968
0
LINE
8
BLACK
6
CONTINUOUS
10
1.29323
20
0.547968
11
1.29636
21
0.543731
0
LINE
8
BLACK
6
CONTINUOUS
10
1.29636
20
0.543731
11
1.2981
21
0.538761
0
LINE
8
BLACK
6
CONTINUOUS
10
1.2981
20
0.538761
11
1.29842
21
0.535441
0
LINE
8
BLACK
6
CONTINUOUS
10
1.29842
20
0.535441
11
1.29842
21
0.515756
0
LINE
8
BLACK
6
CONTINUOUS
10
1.29842
20
0.515756
11
1.2981
21
0.512436
0
LINE
8
BLACK
6
CONTINUOUS
10
1.2981
20
0.512436
11
1.29636
21
0.507466
0
LINE
8
BLACK
6
CONTINUOUS
10
1.29636
20
0.507466
11
1.29323
21
0.503228
0
LINE
8
BLACK
6
CONTINUOUS
10
1.29323
20
0.503228
11
1.28899
21
0.500099
0
LINE
8
BLACK
6
CONTINUOUS
10
1.28899
20
0.500099
11
1.28402
21
0.498353
0
LINE
8
BLACK
6
CONTINUOUS
10
1.28402
20
0.498353
11
1.2807
21
0.498039
0
LINE
8
BLACK
6
CONTINUOUS
10
1.2807
20
0.498039
11
1.2433
21
0.498039
0
LINE
8
BLACK
6
CONTINUOUS
10
1.2433
20
0.498039
11
1.23998
21
0.498353
0
LINE
8
BLACK
6
CONTINUOUS
10
1.23998
20
0.498353
11
1.23501
21
0.500099
0
LINE
8
BLACK
6
CONTINUOUS
10
1.23501
20
0.500099
11
1.23077
21
0.503228
0
LINE
8
BLACK
6
CONTINUOUS
10
1.23077
20
0.503228
11
1.22764
21
0.507466
0
LINE
8
BLACK
6
CONTINUOUS
10
1.22764
20
0.507466
11
1.2259
21
0.512436
0
LINE
8
BLACK
6
CONTINUOUS
10
1.2259
20
0.512436
11
1.22558
21
0.515756
0
LINE
8
BLACK
6
CONTINUOUS
10
1.22558
20
0.515756
11
1.22558
21
0.535441
0
LINE
8
BLACK
6
CONTINUOUS
10
1.22558
20
0.535441
11
1.2259
21
0.538761
0
LINE
8
BLACK
6
CONTINUOUS
10
1.2259
20
0.538761
11
1.22764
21
0.543731
0
LINE
8
BLACK
6
CONTINUOUS
10
1.22764
20
0.543731
11
1.23077
21
0.547968
0
LINE
8
BLACK
6
CONTINUOUS
10
1.23077
20
0.547968
11
1.23501
21
0.551098
0
LINE
8
BLACK
6
CONTINUOUS
10
1.23501
20
0.551098
11
1.23998
21
0.552844
0
LINE
8
BLACK
6
CONTINUOUS
10
1.23998
20
0.552844
11
1.2433
21
0.553157
0
LINE
8
BLACK
6
CONTINUOUS
10
1.2433
20
0.553157
11
1.2807
21
0.553157
0
LINE
8
BLACK
6
CONTINUOUS
10
1.2807
20
0.553157
11
1.28402
21
0.552844
0
LINE
8
BLACK
6
CONTINUOUS
10
1.36304
20
0.557663
11
1.36801
21
0.555917
0
LINE
8
BLACK
6
CONTINUOUS
10
1.36801
20
0.555917
11
1.37224
21
0.552787
0
LINE
8
BLACK
6
CONTINUOUS
10
1.37224
20
0.552787
11
1.37537
21
0.54855
0
LINE
8
BLACK
6
CONTINUOUS
10
1.37537
20
0.54855
11
1.37712
21
0.54358
0
LINE
8
BLACK
6
CONTINUOUS
10
1.37712
20
0.54358
11
1.37743
21
0.54026
0
LINE
8
BLACK
6
CONTINUOUS
10
1.37743
20
0.54026
11
1.37743
21
0.519591
0
LINE
8
BLACK
6
CONTINUOUS
10
1.37743
20
0.519591
11
1.37712
21
0.516271
0
LINE
8
BLACK
6
CONTINUOUS
10
1.37712
20
0.516271
11
1.37537
21
0.5113
0
LINE
8
BLACK
6
CONTINUOUS
10
1.37537
20
0.5113
11
1.37224
21
0.507063
0
LINE
8
BLACK
6
CONTINUOUS
10
1.37224
20
0.507063
11
1.36801
21
0.503933
0
LINE
8
BLACK
6
CONTINUOUS
10
1.36801
20
0.503933
11
1.36304
21
0.502188
0
LINE
8
BLACK
6
CONTINUOUS
10
1.36304
20
0.502188
11
1.35972
21
0.501874
0
LINE
8
BLACK
6
CONTINUOUS
10
1.35972
20
0.501874
11
1.32428
21
0.501874
0
LINE
8
BLACK
6
CONTINUOUS
10
1.32428
20
0.501874
11
1.32096
21
0.502188
0
LINE
8
BLACK
6
CONTINUOUS
10
1.32096
20
0.502188
11
1.31599
21
0.503933
0
LINE
8
BLACK
6
CONTINUOUS
10
1.31599
20
0.503933
11
1.31176
21
0.507063
0
LINE
8
BLACK
6
CONTINUOUS
10
1.31176
20
0.507063
11
1.30863
21
0.5113
0
LINE
8
BLACK
6
CONTINUOUS
10
1.30863
20
0.5113
11
1.30688
21
0.516271
0
LINE
8
BLACK
6
CONTINUOUS
10
1.30688
20
0.516271
11
1.30657
21
0.519591
0
LINE
8
BLACK
6
CONTINUOUS
10
1.30657
20
0.519591
11
1.30657
21
0.54026
0
LINE
8
BLACK
6
CONTINUOUS
10
1.30657
20
0.54026
11
1.30688
21
0.54358
0
LINE
8
BLACK
6
CONTINUOUS
10
1.30688
20
0.54358
11
1.30863
21
0.54855
0
LINE
8
BLACK
6
CONTINUOUS
10
1.30863
20
0.54855
11
1.31176
21
0.552787
0
LINE
8
BLACK
6
CONTINUOUS
10
1.31176
20
0.552787
11
1.31599
21
0.555917
0
LINE
8
BLACK
6
CONTINUOUS
10
1.31599
20
0.555917
11
1.32096
21
0.557663
0
LINE
8
BLACK
6
CONTINUOUS
10
1.32096
20
0.557663
11
1.32428
21
0.557976
0
LINE
8
BLACK
6
CONTINUOUS
10
1.32428
20
0.557976
11
1.35972
21
0.557976
0
LINE
8
BLACK
6
CONTINUOUS
10
1.35972
20
0.557976
11
1.36304
21
0.557663
0
LINE
8
BLACK
6
CONTINUOUS
10
0.133013
20
0.587275
11
0.135568
21
0.585568
0
LINE
8
BLACK
6
CONTINUOUS
10
0.135568
20
0.585568
11
0.137275
21
0.583013
0
LINE
8
BLACK
6
CONTINUOUS
10
0.137275
20
0.583013
11
0.137874
21
0.58
0
LINE
8
BLACK
6
CONTINUOUS
10
0.137874
20
0.58
11
0.137874
21
0.52
0
LINE
8
BLACK
6
CONTINUOUS
10
0.137874
20
0.52
11
0.137275
21
0.516987
0
LINE
8
BLACK
6
CONTINUOUS
10
0.137275
20
0.516987
11
0.135568
21
0.514432
0
LINE
8
BLACK
6
CONTINUOUS
10
0.135568
20
0.514432
11
0.133013
21
0.512725
0
LINE
8
BLACK
6
CONTINUOUS
10
0.133013
20
0.512725
11
0.13
21
0.512126
0
LINE
8
BLACK
6
CONTINUOUS
10
0.13
20
0.512126
11
0.07
21
0.512126
0
LINE
8
BLACK
6
CONTINUOUS
10
0.07
20
0.512126
11
0.0669867
21
0.512725
0
LINE
8
BLACK
6
CONTINUOUS
10
0.0669867
20
0.512725
11
0.0644322
21
0.514432
0
LINE
8
BLACK
6
CONTINUOUS
10
0.0644322
20
0.514432
11
0.0627254
21
0.516987
0
LINE
8
BLACK
6
CONTINUOUS
10
0.0627254
20
0.516987
11
0.062126
21
0.52
0
LINE
8
BLACK
6
CONTINUOUS
10
0.062126
20
0.52
11
0.062126
21
0.58
0
LINE
8
BLACK
6
CONTINUOUS
10
0.062126
20
0.58
11
0.0627254
21
0.583013
0
LINE
8
BLACK
6
CONTINUOUS
10
0.0627254
20
0.583013
11
0.0644322
21
0.585568
0
LINE
8
BLACK
6
CONTINUOUS
10
0.0644322
20
0.585568
11
0.0669867
21
0.587275
0
LINE
8
BLACK
6
CONTINUOUS
10
0.0669867
20
0.587275
11
0.07
21
0.587874
0
LINE
8
BLACK
6
CONTINUOUS
10
0.07
20
0.587874
11
0.13
21
0.587874
0
LINE
8
BLACK
6
CONTINUOUS
10
0.13
20
0.587874
11
0.133013
21
0.587275
0
LINE
8
BLACK
6
CONTINUOUS
10
0.0330133
20
0.587275
11
0.0355678
21
0.585568
0
LINE
8
BLACK
6
CONTINUOUS
10
0.0355678
20
0.585568
11
0.0372746
21
0.583013
0
LINE
8
BLACK
6
CONTINUOUS
10
0.0372746
20
0.583013
11
0.037874
21
0.58
0
LINE
8
BLACK
6
CONTINUOUS
10
0.037874
20
0.58
11
0.037874
21
0.52
0
LINE
8
BLACK
6
CONTINUOUS
10
0.037874
20
0.52
11
0.0372746
21
0.516987
0
LINE
8
BLACK
6
CONTINUOUS
10
0.0372746
20
0.516987
11
0.0355678
21
0.514432
0
LINE
8
BLACK
6
CONTINUOUS
10
0.0355678
20
0.514432
11
0.0330133
21
0.512725
0
LINE
8
BLACK
6
CONTINUOUS
10
0.0330133
20
0.512725
11
0.03
21
0.512126
0
LINE
8
BLACK
6
CONTINUOUS
10
0.03
20
0.512126
11
-0.03
21
0.512126
0
LINE
8
BLACK
6
CONTINUOUS
10
-0.03
20
0.512126
11
-0.0330133
21
0.512725
0
LINE
8
BLACK
6
CONTINUOUS
10
-0.0330133
20
0.512725
11
-0.0355678
21
0.514432
0
LINE
8
BLACK
6
CONTINUOUS
10
-0.0355678
20
0.514432
11
-0.0372746
21
0.516987
0
LINE
8
BLACK
6
CONTINUOUS
10
-0.0372746
20
0.516987
11
-0.037874
21
0.52
0
LINE
8
BLACK
6
CONTINUOUS
10
-0.037874
20
0.52
11
-0.037874
21
0.58
0
LINE
8
BLACK
6
CONTINUOUS
10
-0.037874
20
0.58
11
-0.0372746
21
0.583013
0
LINE
8
BLACK
6
CONTINUOUS
10
-0.0372746
20
0.583013
11
-0.0355678
21
0.585568
0
LINE
8
BLACK
6
CONTINUOUS
10
-0.0355678
20
0.585568
11
-0.0330133
21
0.587275
0
LINE
8
BLACK
6
CONTINUOUS
10
-0.0330133
20
0.587275
11
-0.03
21
0.587874
0
LINE
8
BLACK
6
CONTINUOUS
10
-0.03
20
0.587874
11
0.03
21
0.587874
0
LINE
8
BLACK
6
CONTINUOUS
10
0.03
20
0.587874
11
0.0330133
21
0.587275
0
LINE
8
BLACK
6
CONTINUOUS
10
1.71201
20
0.601275
11
1.71457
21
0.599568
0
LINE
8
BLACK
6
CONTINUOUS
10
1.71457
20
0.599568
11
1.71627
21
0.597013
0
LINE
8
BLACK
6
CONTINUOUS
10
1.71627
20
0.597013
11
1.71687
21
0.594
0
LINE
8
BLACK
6
CONTINUOUS
10
1.71687
20
0.594
11
1.71687
21
0.534
0
LINE
8
BLACK
6
CONTINUOUS
10
1.71687
20
0.534
11
1.71627
21
0.530987
0
LINE
8
BLACK
6
CONTINUOUS
10
1.71627
20
0.530987
11
1.71457
21
0.528432
0
LINE
8
BLACK
6
CONTINUOUS
10
1.71457
20
0.528432
11
1.71201
21
0.526725
0
LINE
8
BLACK
6
CONTINUOUS
10
1.71201
20
0.526725
11
1.709
21
0.526126
0
LINE
8
BLACK
6
CONTINUOUS
10
1.709
20
0.526126
11
1.649
21
0.526126
0
LINE
8
BLACK
6
CONTINUOUS
10
1.649
20
0.526126
11
1.64599
21
0.526725
0
LINE
8
BLACK
6
CONTINUOUS
10
1.64599
20
0.526725
11
1.64343
21
0.528432
0
LINE
8
BLACK
6
CONTINUOUS
10
1.64343
20
0.528432
11
1.64173
21
0.530987
0
LINE
8
BLACK
6
CONTINUOUS
10
1.64173
20
0.530987
11
1.64113
21
0.534
0
LINE
8
BLACK
6
CONTINUOUS
10
1.64113
20
0.534
11
1.64113
21
0.594
0
LINE
8
BLACK
6
CONTINUOUS
10
1.64113
20
0.594
11
1.64173
21
0.597013
0
LINE
8
BLACK
6
CONTINUOUS
10
1.64173
20
0.597013
11
1.64343
21
0.599568
0
LINE
8
BLACK
6
CONTINUOUS
10
1.64343
20
0.599568
11
1.64599
21
0.601275
0
LINE
8
BLACK
6
CONTINUOUS
10
1.64599
20
0.601275
11
1.649
21
0.601874
0
LINE
8
BLACK
6
CONTINUOUS
10
1.649
20
0.601874
11
1.709
21
0.601874
0
LINE
8
BLACK
6
CONTINUOUS
10
1.709
20
0.601874
11
1.71201
21
0.601275
0
LINE
8
BLACK
6
CONTINUOUS
10
1.61201
20
0.601275
11
1.61457
21
0.599568
0
LINE
8
BLACK
6
CONTINUOUS
10
1.61457
20
0.599568
11
1.61627
21
0.597013
0
LINE
8
BLACK
6
CONTINUOUS
10
1.61627
20
0.597013
11
1.61687
21
0.594
0
LINE
8
BLACK
6
CONTINUOUS
10
1.61687
20
0.594
11
1.61687
21
0.534
0
LINE
8
BLACK
6
CONTINUOUS
10
1.61687
20
0.534
11
1.61627
21
0.530987
0
LINE
8
BLACK
6
CONTINUOUS
10
1.61627
20
0.530987
11
1.61457
21
0.528432
0
LINE
8
BLACK
6
CONTINUOUS
10
1.61457
20
0.528432
11
1.61201
21
0.526725
0
LINE
8
BLACK
6
CONTINUOUS
10
1.61201
20
0.526725
11
1.609
21
0.526126
0
LINE
8
BLACK
6
CONTINUOUS
10
1.609
20
0.526126
11
1.549
21
0.526126
0
LINE
8
BLACK
6
CONTINUOUS
10
1.549
20
0.526126
11
1.54599
21
0.526725
0
LINE
8
BLACK
6
CONTINUOUS
10
1.54599
20
0.526725
11
1.54343
21
0.528432
0
LINE
8
BLACK
6
CONTINUOUS
10
1.54343
20
0.528432
11
1.54173
21
0.530987
0
LINE
8
BLACK
6
CONTINUOUS
10
1.54173
20
0.530987
11
1.54113
21
0.534
0
LINE
8
BLACK
6
CONTINUOUS
10
1.54113
20
0.534
11
1.54113
21
0.594
0
LINE
8
BLACK
6
CONTINUOUS
10
1.54113
20
0.594
11
1.54173
21
0.597013
0
LINE
8
BLACK
6
CONTINUOUS
10
1.54173
20
0.597013
11
1.54343
21
0.599568
0
LINE
8
BLACK
6
CONTINUOUS
10
1.54343
20
0.599568
11
1.54599
21
0.601275
0
LINE
8
BLACK
6
CONTINUOUS
10
1.54599
20
0.601275
11
1.549
21
0.601874
0
LINE
8
BLACK
6
CONTINUOUS
10
1.549
20
0.601874
11
1.609
21
0.601874
0
LINE
8
BLACK
6
CONTINUOUS
10
1.609
20
0.601874
11
1.61201
21
0.601275
0
LINE
8
BLACK
6
CONTINUOUS
10
0.696141
20
0.608638
11
0.700207
21
0.606651
0
LINE
8
BLACK
6
CONTINUOUS
10
0.700207
20
0.606651
11
0.703409
21
0.603454
0
LINE
8
BLACK
6
CONTINUOUS
10
0.703409
20
0.603454
11
0.705403
21
0.599393
0
LINE
8
BLACK
6
CONTINUOUS
10
0.705403
20
0.599393
11
0.705984
21
0.595433
0
LINE
8
BLACK
6
CONTINUOUS
10
0.705984
20
0.595433
11
0.705984
21
0.549173
0
LINE
8
BLACK
6
CONTINUOUS
10
0.705984
20
0.549173
11
0.70541
21
0.545237
0
LINE
8
BLACK
6
CONTINUOUS
10
0.70541
20
0.545237
11
0.703423
21
0.541171
0
LINE
8
BLACK
6
CONTINUOUS
10
0.703423
20
0.541171
11
0.700226
21
0.537969
0
LINE
8
BLACK
6
CONTINUOUS
10
0.700226
20
0.537969
11
0.696164
21
0.535975
0
LINE
8
BLACK
6
CONTINUOUS
10
0.696164
20
0.535975
11
0.692205
21
0.535394
0
LINE
8
BLACK
6
CONTINUOUS
10
0.692205
20
0.535394
11
0.680394
21
0.535394
0
LINE
8
BLACK
6
CONTINUOUS
10
0.680394
20
0.535394
11
0.676457
21
0.535968
0
LINE
8
BLACK
6
CONTINUOUS
10
0.676457
20
0.535968
11
0.672392
21
0.537955
0
LINE
8
BLACK
6
CONTINUOUS
10
0.672392
20
0.537955
11
0.66919
21
0.541152
0
LINE
8
BLACK
6
CONTINUOUS
10
0.66919
20
0.541152
11
0.667195
21
0.545214
0
LINE
8
BLACK
6
CONTINUOUS
10
0.667195
20
0.545214
11
0.666614
21
0.549173
0
LINE
8
BLACK
6
CONTINUOUS
10
0.666614
20
0.549173
11
0.666614
21
0.595433
0
LINE
8
BLACK
6
CONTINUOUS
10
0.666614
20
0.595433
11
0.667188
21
0.59937
0
LINE
8
BLACK
6
CONTINUOUS
10
0.667188
20
0.59937
11
0.669176
21
0.603435
0
LINE
8
BLACK
6
CONTINUOUS
10
0.669176
20
0.603435
11
0.672372
21
0.606637
0
LINE
8
BLACK
6
CONTINUOUS
10
0.672372
20
0.606637
11
0.676434
21
0.608631
0
LINE
8
BLACK
6
CONTINUOUS
10
0.676434
20
0.608631
11
0.680394
21
0.609213
0
LINE
8
BLACK
6
CONTINUOUS
10
0.680394
20
0.609213
11
0.692205
21
0.609213
0
LINE
8
BLACK
6
CONTINUOUS
10
0.692205
20
0.609213
11
0.696141
21
0.608638
0
LINE
8
BLACK
6
CONTINUOUS
10
0.621338
20
0.608638
11
0.625403
21
0.606651
0
LINE
8
BLACK
6
CONTINUOUS
10
0.625403
20
0.606651
11
0.628606
21
0.603454
0
LINE
8
BLACK
6
CONTINUOUS
10
0.628606
20
0.603454
11
0.6306
21
0.599393
0
LINE
8
BLACK
6
CONTINUOUS
10
0.6306
20
0.599393
11
0.631181
21
0.595433
0
LINE
8
BLACK
6
CONTINUOUS
10
0.631181
20
0.595433
11
0.631181
21
0.549173
0
LINE
8
BLACK
6
CONTINUOUS
10
0.631181
20
0.549173
11
0.630607
21
0.545237
0
LINE
8
BLACK
6
CONTINUOUS
10
0.630607
20
0.545237
11
0.62862
21
0.541171
0
LINE
8
BLACK
6
CONTINUOUS
10
0.62862
20
0.541171
11
0.625423
21
0.537969
0
LINE
8
BLACK
6
CONTINUOUS
10
0.625423
20
0.537969
11
0.621361
21
0.535975
0
LINE
8
BLACK
6
CONTINUOUS
10
0.621361
20
0.535975
11
0.617402
21
0.535394
0
LINE
8
BLACK
6
CONTINUOUS
10
0.617402
20
0.535394
11
0.605591
21
0.535394
0
LINE
8
BLACK
6
CONTINUOUS
10
0.605591
20
0.535394
11
0.601654
21
0.535968
0
LINE
8
BLACK
6
CONTINUOUS
10
0.601654
20
0.535968
11
0.597589
21
0.537955
0
LINE
8
BLACK
6
CONTINUOUS
10
0.597589
20
0.537955
11
0.594386
21
0.541152
0
LINE
8
BLACK
6
CONTINUOUS
10
0.594386
20
0.541152
11
0.592392
21
0.545214
0
LINE
8
BLACK
6
CONTINUOUS
10
0.592392
20
0.545214
11
0.591811
21
0.549173
0
LINE
8
BLACK
6
CONTINUOUS
10
0.591811
20
0.549173
11
0.591811
21
0.595433
0
LINE
8
BLACK
6
CONTINUOUS
10
0.591811
20
0.595433
11
0.592385
21
0.59937
0
LINE
8
BLACK
6
CONTINUOUS
10
0.592385
20
0.59937
11
0.594372
21
0.603435
0
LINE
8
BLACK
6
CONTINUOUS
10
0.594372
20
0.603435
11
0.597569
21
0.606637
0
LINE
8
BLACK
6
CONTINUOUS
10
0.597569
20
0.606637
11
0.601631
21
0.608631
0
LINE
8
BLACK
6
CONTINUOUS
10
0.601631
20
0.608631
11
0.605591
21
0.609213
0
LINE
8
BLACK
6
CONTINUOUS
10
0.605591
20
0.609213
11
0.617402
21
0.609213
0
LINE
8
BLACK
6
CONTINUOUS
10
0.617402
20
0.609213
11
0.621338
21
0.608638
0
LINE
8
BLACK
6
CONTINUOUS
10
0.402021
20
0.594647
11
0.406991
21
0.592901
0
LINE
8
BLACK
6
CONTINUOUS
10
0.406991
20
0.592901
11
0.411228
21
0.589772
0
LINE
8
BLACK
6
CONTINUOUS
10
0.411228
20
0.589772
11
0.414358
21
0.585534
0
LINE
8
BLACK
6
CONTINUOUS
10
0.414358
20
0.585534
11
0.416104
21
0.580564
0
LINE
8
BLACK
6
CONTINUOUS
10
0.416104
20
0.580564
11
0.416417
21
0.577244
0
LINE
8
BLACK
6
CONTINUOUS
10
0.416417
20
0.577244
11
0.416417
21
0.557559
0
LINE
8
BLACK
6
CONTINUOUS
10
0.416417
20
0.557559
11
0.416104
21
0.554239
0
LINE
8
BLACK
6
CONTINUOUS
10
0.416104
20
0.554239
11
0.414358
21
0.549269
0
LINE
8
BLACK
6
CONTINUOUS
10
0.414358
20
0.549269
11
0.411228
21
0.545032
0
LINE
8
BLACK
6
CONTINUOUS
10
0.411228
20
0.545032
11
0.406991
21
0.541902
0
LINE
8
BLACK
6
CONTINUOUS
10
0.406991
20
0.541902
11
0.402021
21
0.540156
0
LINE
8
BLACK
6
CONTINUOUS
10
0.402021
20
0.540156
11
0.398701
21
0.539843
0
LINE
8
BLACK
6
CONTINUOUS
10
0.398701
20
0.539843
11
0.361299
21
0.539843
0
LINE
8
BLACK
6
CONTINUOUS
10
0.361299
20
0.539843
11
0.357979
21
0.540156
0
LINE
8
BLACK
6
CONTINUOUS
10
0.357979
20
0.540156
11
0.353009
21
0.541902
0
LINE
8
BLACK
6
CONTINUOUS
10
0.353009
20
0.541902
11
0.348772
21
0.545032
0
LINE
8
BLACK
6
CONTINUOUS
10
0.348772
20
0.545032
11
0.345642
21
0.549269
0
LINE
8
BLACK
6
CONTINUOUS
10
0.345642
20
0.549269
11
0.343896
21
0.554239
0
LINE
8
BLACK
6
CONTINUOUS
10
0.343896
20
0.554239
11
0.343583
21
0.557559
0
LINE
8
BLACK
6
CONTINUOUS
10
0.343583
20
0.557559
11
0.343583
21
0.577244
0
LINE
8
BLACK
6
CONTINUOUS
10
0.343583
20
0.577244
11
0.343896
21
0.580564
0
LINE
8
BLACK
6
CONTINUOUS
10
0.343896
20
0.580564
11
0.345642
21
0.585534
0
LINE
8
BLACK
6
CONTINUOUS
10
0.345642
20
0.585534
11
0.348772
21
0.589772
0
LINE
8
BLACK
6
CONTINUOUS
10
0.348772
20
0.589772
11
0.353009
21
0.592901
0
LINE
8
BLACK
6
CONTINUOUS
10
0.353009
20
0.592901
11
0.357979
21
0.594647
0
LINE
8
BLACK
6
CONTINUOUS
10
0.357979
20
0.594647
11
0.361299
21
0.594961
0
LINE
8
BLACK
6
CONTINUOUS
10
0.361299
20
0.594961
11
0.398701
21
0.594961
0
LINE
8
BLACK
6
CONTINUOUS
10
0.398701
20
0.594961
11
0.402021
21
0.594647
0
LINE
8
BLACK
6
CONTINUOUS
10
1.34576
20
0.638104
11
1.35073
21
0.636358
0
LINE
8
BLACK
6
CONTINUOUS
10
1.35073
20
0.636358
11
1.35497
21
0.633228
0
LINE
8
BLACK
6
CONTINUOUS
10
1.35497
20
0.633228
11
1.3581
21
0.628991
0
LINE
8
BLACK
6
CONTINUOUS
10
1.3581
20
0.628991
11
1.35984
21
0.624021
0
LINE
8
BLACK
6
CONTINUOUS
10
1.35984
20
0.624021
11
1.36016
21
0.620701
0
LINE
8
BLACK
6
CONTINUOUS
10
1.36016
20
0.620701
11
1.36016
21
0.583299
0
LINE
8
BLACK
6
CONTINUOUS
10
1.36016
20
0.583299
11
1.35984
21
0.579979
0
LINE
8
BLACK
6
CONTINUOUS
10
1.35984
20
0.579979
11
1.3581
21
0.575009
0
LINE
8
BLACK
6
CONTINUOUS
10
1.3581
20
0.575009
11
1.35497
21
0.570772
0
LINE
8
BLACK
6
CONTINUOUS
10
1.35497
20
0.570772
11
1.35073
21
0.567642
0
LINE
8
BLACK
6
CONTINUOUS
10
1.35073
20
0.567642
11
1.34576
21
0.565896
0
LINE
8
BLACK
6
CONTINUOUS
10
1.34576
20
0.565896
11
1.34244
21
0.565583
0
LINE
8
BLACK
6
CONTINUOUS
10
1.34244
20
0.565583
11
1.32276
21
0.565583
0
LINE
8
BLACK
6
CONTINUOUS
10
1.32276
20
0.565583
11
1.31944
21
0.565896
0
LINE
8
BLACK
6
CONTINUOUS
10
1.31944
20
0.565896
11
1.31447
21
0.567642
0
LINE
8
BLACK
6
CONTINUOUS
10
1.31447
20
0.567642
11
1.31023
21
0.570772
0
LINE
8
BLACK
6
CONTINUOUS
10
1.31023
20
0.570772
11
1.3071
21
0.575009
0
LINE
8
BLACK
6
CONTINUOUS
10
1.3071
20
0.575009
11
1.30535
21
0.579979
0
LINE
8
BLACK
6
CONTINUOUS
10
1.30535
20
0.579979
11
1.30504
21
0.583299
0
LINE
8
BLACK
6
CONTINUOUS
10
1.30504
20
0.583299
11
1.30504
21
0.620701
0
LINE
8
BLACK
6
CONTINUOUS
10
1.30504
20
0.620701
11
1.30535
21
0.624021
0
LINE
8
BLACK
6
CONTINUOUS
10
1.30535
20
0.624021
11
1.3071
21
0.628991
0
LINE
8
BLACK
6
CONTINUOUS
10
1.3071
20
0.628991
11
1.31023
21
0.633228
0
LINE
8
BLACK
6
CONTINUOUS
10
1.31023
20
0.633228
11
1.31447
21
0.636358
0
LINE
8
BLACK
6
CONTINUOUS
10
1.31447
20
0.636358
11
1.31944
21
0.638104
0
LINE
8
BLACK
6
CONTINUOUS
10
1.31944
20
0.638104
11
1.32276
21
0.638417
0
LINE
8
BLACK
6
CONTINUOUS
10
1.32276
20
0.638417
11
1.34244
21
0.638417
0
LINE
8
BLACK
6
CONTINUOUS
10
1.34244
20
0.638417
11
1.34576
21
0.638104
0
LINE
8
BLACK
6
CONTINUOUS
10
1.42056
20
0.638104
11
1.42553
21
0.636358
0
LINE
8
BLACK
6
CONTINUOUS
10
1.42553
20
0.636358
11
1.42977
21
0.633228
0
LINE
8
BLACK
6
CONTINUOUS
10
1.42977
20
0.633228
11
1.4329
21
0.628991
0
LINE
8
BLACK
6
CONTINUOUS
10
1.4329
20
0.628991
11
1.43465
21
0.624021
0
LINE
8
BLACK
6
CONTINUOUS
10
1.43465
20
0.624021
11
1.43496
21
0.620701
0
LINE
8
BLACK
6
CONTINUOUS
10
1.43496
20
0.620701
11
1.43496
21
0.583299
0
LINE
8
BLACK
6
CONTINUOUS
10
1.43496
20
0.583299
11
1.43465
21
0.579979
0
LINE
8
BLACK
6
CONTINUOUS
10
1.43465
20
0.579979
11
1.4329
21
0.575009
0
LINE
8
BLACK
6
CONTINUOUS
10
1.4329
20
0.575009
11
1.42977
21
0.570772
0
LINE
8
BLACK
6
CONTINUOUS
10
1.42977
20
0.570772
11
1.42553
21
0.567642
0
LINE
8
BLACK
6
CONTINUOUS
10
1.42553
20
0.567642
11
1.42056
21
0.565896
0
LINE
8
BLACK
6
CONTINUOUS
10
1.42056
20
0.565896
11
1.41724
21
0.565583
0
LINE
8
BLACK
6
CONTINUOUS
10
1.41724
20
0.565583
11
1.39756
21
0.565583
0
LINE
8
BLACK
6
CONTINUOUS
10
1.39756
20
0.565583
11
1.39424
21
0.565896
0
LINE
8
BLACK
6
CONTINUOUS
10
1.39424
20
0.565896
11
1.38927
21
0.567642
0
LINE
8
BLACK
6
CONTINUOUS
10
1.38927
20
0.567642
11
1.38503
21
0.570772
0
LINE
8
BLACK
6
CONTINUOUS
10
1.38503
20
0.570772
11
1.3819
21
0.575009
0
LINE
8
BLACK
6
CONTINUOUS
10
1.3819
20
0.575009
11
1.38016
21
0.579979
0
LINE
8
BLACK
6
CONTINUOUS
10
1.38016
20
0.579979
11
1.37984
21
0.583299
0
LINE
8
BLACK
6
CONTINUOUS
10
1.37984
20
0.583299
11
1.37984
21
0.620701
0
LINE
8
BLACK
6
CONTINUOUS
10
1.37984
20
0.620701
11
1.38016
21
0.624021
0
LINE
8
BLACK
6
CONTINUOUS
10
1.38016
20
0.624021
11
1.3819
21
0.628991
0
LINE
8
BLACK
6
CONTINUOUS
10
1.3819
20
0.628991
11
1.38503
21
0.633228
0
LINE
8
BLACK
6
CONTINUOUS
10
1.38503
20
0.633228
11
1.38927
21
0.636358
0
LINE
8
BLACK
6
CONTINUOUS
10
1.38927
20
0.636358
11
1.39424
21
0.638104
0
LINE
8
BLACK
6
CONTINUOUS
10
1.39424
20
0.638104
11
1.39756
21
0.638417
0
LINE
8
BLACK
6
CONTINUOUS
10
1.39756
20
0.638417
11
1.41724
21
0.638417
0
LINE
8
BLACK
6
CONTINUOUS
10
1.41724
20
0.638417
11
1.42056
21
0.638104
0
LINE
8
BLACK
6
CONTINUOUS
10
0.266021
20
0.621147
11
0.270991
21
0.619401
0
LINE
8
BLACK
6
CONTINUOUS
10
0.270991
20
0.619401
11
0.275228
21
0.616272
0
LINE
8
BLACK
6
CONTINUOUS
10
0.275228
20
0.616272
11
0.278358
21
0.612034
0
LINE
8
BLACK
6
CONTINUOUS
10
0.278358
20
0.612034
11
0.280104
21
0.607064
0
LINE
8
BLACK
6
CONTINUOUS
10
0.280104
20
0.607064
11
0.280417
21
0.603744
0
LINE
8
BLACK
6
CONTINUOUS
10
0.280417
20
0.603744
11
0.280417
21
0.584059
0
LINE
8
BLACK
6
CONTINUOUS
10
0.280417
20
0.584059
11
0.280104
21
0.580739
0
LINE
8
BLACK
6
CONTINUOUS
10
0.280104
20
0.580739
11
0.278358
21
0.575769
0
LINE
8
BLACK
6
CONTINUOUS
10
0.278358
20
0.575769
11
0.275228
21
0.571532
0
LINE
8
BLACK
6
CONTINUOUS
10
0.275228
20
0.571532
11
0.270991
21
0.568402
0
LINE
8
BLACK
6
CONTINUOUS
10
0.270991
20
0.568402
11
0.266021
21
0.566656
0
LINE
8
BLACK
6
CONTINUOUS
10
0.266021
20
0.566656
11
0.262701
21
0.566343
0
LINE
8
BLACK
6
CONTINUOUS
10
0.262701
20
0.566343
11
0.225299
21
0.566343
0
LINE
8
BLACK
6
CONTINUOUS
10
0.225299
20
0.566343
11
0.221979
21
0.566656
0
LINE
8
BLACK
6
CONTINUOUS
10
0.221979
20
0.566656
11
0.217009
21
0.568402
0
LINE
8
BLACK
6
CONTINUOUS
10
0.217009
20
0.568402
11
0.212772
21
0.571532
0
LINE
8
BLACK
6
CONTINUOUS
10
0.212772
20
0.571532
11
0.209642
21
0.575769
0
LINE
8
BLACK
6
CONTINUOUS
10
0.209642
20
0.575769
11
0.207896
21
0.580739
0
LINE
8
BLACK
6
CONTINUOUS
10
0.207896
20
0.580739
11
0.207583
21
0.584059
0
LINE
8
BLACK
6
CONTINUOUS
10
0.207583
20
0.584059
11
0.207583
21
0.603744
0
LINE
8
BLACK
6
CONTINUOUS
10
0.207583
20
0.603744
11
0.207896
21
0.607064
0
LINE
8
BLACK
6
CONTINUOUS
10
0.207896
20
0.607064
11
0.209642
21
0.612034
0
LINE
8
BLACK
6
CONTINUOUS
10
0.209642
20
0.612034
11
0.212772
21
0.616272
0
LINE
8
BLACK
6
CONTINUOUS
10
0.212772
20
0.616272
11
0.217009
21
0.619401
0
LINE
8
BLACK
6
CONTINUOUS
10
0.217009
20
0.619401
11
0.221979
21
0.621147
0
LINE
8
BLACK
6
CONTINUOUS
10
0.221979
20
0.621147
11
0.225299
21
0.621461
0
LINE
8
BLACK
6
CONTINUOUS
10
0.225299
20
0.621461
11
0.262701
21
0.621461
0
LINE
8
BLACK
6
CONTINUOUS
10
0.262701
20
0.621461
11
0.266021
21
0.621147
0
LINE
8
BLACK
6
CONTINUOUS
10
1.28402
20
0.627647
11
1.28899
21
0.625901
0
LINE
8
BLACK
6
CONTINUOUS
10
1.28899
20
0.625901
11
1.29323
21
0.622772
0
LINE
8
BLACK
6
CONTINUOUS
10
1.29323
20
0.622772
11
1.29636
21
0.618534
0
LINE
8
BLACK
6
CONTINUOUS
10
1.29636
20
0.618534
11
1.2981
21
0.613564
0
LINE
8
BLACK
6
CONTINUOUS
10
1.2981
20
0.613564
11
1.29842
21
0.610244
0
LINE
8
BLACK
6
CONTINUOUS
10
1.29842
20
0.610244
11
1.29842
21
0.590559
0
LINE
8
BLACK
6
CONTINUOUS
10
1.29842
20
0.590559
11
1.2981
21
0.587239
0
LINE
8
BLACK
6
CONTINUOUS
10
1.2981
20
0.587239
11
1.29636
21
0.582269
0
LINE
8
BLACK
6
CONTINUOUS
10
1.29636
20
0.582269
11
1.29323
21
0.578032
0
LINE
8
BLACK
6
CONTINUOUS
10
1.29323
20
0.578032
11
1.28899
21
0.574902
0
LINE
8
BLACK
6
CONTINUOUS
10
1.28899
20
0.574902
11
1.28402
21
0.573156
0
LINE
8
BLACK
6
CONTINUOUS
10
1.28402
20
0.573156
11
1.2807
21
0.572843
0
LINE
8
BLACK
6
CONTINUOUS
10
1.2807
20
0.572843
11
1.2433
21
0.572843
0
LINE
8
BLACK
6
CONTINUOUS
10
1.2433
20
0.572843
11
1.23998
21
0.573156
0
LINE
8
BLACK
6
CONTINUOUS
10
1.23998
20
0.573156
11
1.23501
21
0.574902
0
LINE
8
BLACK
6
CONTINUOUS
10
1.23501
20
0.574902
11
1.23077
21
0.578032
0
LINE
8
BLACK
6
CONTINUOUS
10
1.23077
20
0.578032
11
1.22764
21
0.582269
0
LINE
8
BLACK
6
CONTINUOUS
10
1.22764
20
0.582269
11
1.2259
21
0.587239
0
LINE
8
BLACK
6
CONTINUOUS
10
1.2259
20
0.587239
11
1.22558
21
0.590559
0
LINE
8
BLACK
6
CONTINUOUS
10
1.22558
20
0.590559
11
1.22558
21
0.610244
0
LINE
8
BLACK
6
CONTINUOUS
10
1.22558
20
0.610244
11
1.2259
21
0.613564
0
LINE
8
BLACK
6
CONTINUOUS
10
1.2259
20
0.613564
11
1.22764
21
0.618534
0
LINE
8
BLACK
6
CONTINUOUS
10
1.22764
20
0.618534
11
1.23077
21
0.622772
0
LINE
8
BLACK
6
CONTINUOUS
10
1.23077
20
0.622772
11
1.23501
21
0.625901
0
LINE
8
BLACK
6
CONTINUOUS
10
1.23501
20
0.625901
11
1.23998
21
0.627647
0
LINE
8
BLACK
6
CONTINUOUS
10
1.23998
20
0.627647
11
1.2433
21
0.627961
0
LINE
8
BLACK
6
CONTINUOUS
10
1.2433
20
0.627961
11
1.2807
21
0.627961
0
LINE
8
BLACK
6
CONTINUOUS
10
1.2807
20
0.627961
11
1.28402
21
0.627647
0
LINE
8
BLACK
6
CONTINUOUS
10
0.401036
20
0.666812
11
0.406007
21
0.665067
0
LINE
8
BLACK
6
CONTINUOUS
10
0.406007
20
0.665067
11
0.410244
21
0.661937
0
LINE
8
BLACK
6
CONTINUOUS
10
0.410244
20
0.661937
11
0.413374
21
0.6577
0
LINE
8
BLACK
6
CONTINUOUS
10
0.413374
20
0.6577
11
0.415119
21
0.652729
0
LINE
8
BLACK
6
CONTINUOUS
10
0.415119
20
0.652729
11
0.415433
21
0.649409
0
LINE
8
BLACK
6
CONTINUOUS
10
0.415433
20
0.649409
11
0.415433
21
0.62874
0
LINE
8
BLACK
6
CONTINUOUS
10
0.415433
20
0.62874
11
0.415119
21
0.62542
0
LINE
8
BLACK
6
CONTINUOUS
10
0.415119
20
0.62542
11
0.413374
21
0.62045
0
LINE
8
BLACK
6
CONTINUOUS
10
0.413374
20
0.62045
11
0.410244
21
0.616213
0
LINE
8
BLACK
6
CONTINUOUS
10
0.410244
20
0.616213
11
0.406007
21
0.613083
0
LINE
8
BLACK
6
CONTINUOUS
10
0.406007
20
0.613083
11
0.401036
21
0.611337
0
LINE
8
BLACK
6
CONTINUOUS
10
0.401036
20
0.611337
11
0.397717
21
0.611024
0
LINE
8
BLACK
6
CONTINUOUS
10
0.397717
20
0.611024
11
0.362283
21
0.611024
0
LINE
8
BLACK
6
CONTINUOUS
10
0.362283
20
0.611024
11
0.358964
21
0.611337
0
LINE
8
BLACK
6
CONTINUOUS
10
0.358964
20
0.611337
11
0.353993
21
0.613083
0
LINE
8
BLACK
6
CONTINUOUS
10
0.353993
20
0.613083
11
0.349756
21
0.616213
0
LINE
8
BLACK
6
CONTINUOUS
10
0.349756
20
0.616213
11
0.346626
21
0.62045
0
LINE
8
BLACK
6
CONTINUOUS
10
0.346626
20
0.62045
11
0.344881
21
0.62542
0
LINE
8
BLACK
6
CONTINUOUS
10
0.344881
20
0.62542
11
0.344567
21
0.62874
0
LINE
8
BLACK
6
CONTINUOUS
10
0.344567
20
0.62874
11
0.344567
21
0.649409
0
LINE
8
BLACK
6
CONTINUOUS
10
0.344567
20
0.649409
11
0.344881
21
0.652729
0
LINE
8
BLACK
6
CONTINUOUS
10
0.344881
20
0.652729
11
0.346626
21
0.6577
0
LINE
8
BLACK
6
CONTINUOUS
10
0.346626
20
0.6577
11
0.349756
21
0.661937
0
LINE
8
BLACK
6
CONTINUOUS
10
0.349756
20
0.661937
11
0.353993
21
0.665067
0
LINE
8
BLACK
6
CONTINUOUS
10
0.353993
20
0.665067
11
0.358964
21
0.666812
0
LINE
8
BLACK
6
CONTINUOUS
10
0.358964
20
0.666812
11
0.362283
21
0.667126
0
LINE
8
BLACK
6
CONTINUOUS
10
0.362283
20
0.667126
11
0.397717
21
0.667126
0
LINE
8
BLACK
6
CONTINUOUS
10
0.397717
20
0.667126
11
0.401036
21
0.666812
0
LINE
8
BLACK
6
CONTINUOUS
10
0.843013
20
0.687275
11
0.845568
21
0.685568
0
LINE
8
BLACK
6
CONTINUOUS
10
0.845568
20
0.685568
11
0.847275
21
0.683013
0
LINE
8
BLACK
6
CONTINUOUS
10
0.847275
20
0.683013
11
0.847874
21
0.68
0
LINE
8
BLACK
6
CONTINUOUS
10
0.847874
20
0.68
11
0.847874
21
0.62
0
LINE
8
BLACK
6
CONTINUOUS
10
0.847874
20
0.62
11
0.847275
21
0.616987
0
LINE
8
BLACK
6
CONTINUOUS
10
0.847275
20
0.616987
11
0.845568
21
0.614432
0
LINE
8
BLACK
6
CONTINUOUS
10
0.845568
20
0.614432
11
0.843013
21
0.612725
0
LINE
8
BLACK
6
CONTINUOUS
10
0.843013
20
0.612725
11
0.84
21
0.612126
0
LINE
8
BLACK
6
CONTINUOUS
10
0.84
20
0.612126
11
0.78
21
0.612126
0
LINE
8
BLACK
6
CONTINUOUS
10
0.78
20
0.612126
11
0.776987
21
0.612725
0
LINE
8
BLACK
6
CONTINUOUS
10
0.776987
20
0.612725
11
0.774432
21
0.614432
0
LINE
8
BLACK
6
CONTINUOUS
10
0.774432
20
0.614432
11
0.772725
21
0.616987
0
LINE
8
BLACK
6
CONTINUOUS
10
0.772725
20
0.616987
11
0.772126
21
0.62
0
LINE
8
BLACK
6
CONTINUOUS
10
0.772126
20
0.62
11
0.772126
21
0.68
0
LINE
8
BLACK
6
CONTINUOUS
10
0.772126
20
0.68
11
0.772725
21
0.683013
0
LINE
8
BLACK
6
CONTINUOUS
10
0.772725
20
0.683013
11
0.774432
21
0.685568
0
LINE
8
BLACK
6
CONTINUOUS
10
0.774432
20
0.685568
11
0.776987
21
0.687275
0
LINE
8
BLACK
6
CONTINUOUS
10
0.776987
20
0.687275
11
0.78
21
0.687874
0
LINE
8
BLACK
6
CONTINUOUS
10
0.78
20
0.687874
11
0.84
21
0.687874
0
LINE
8
BLACK
6
CONTINUOUS
10
0.84
20
0.687874
11
0.843013
21
0.687275
0
LINE
8
BLACK
6
CONTINUOUS
10
1.18801
20
0.679775
11
1.19057
21
0.678068
0
LINE
8
BLACK
6
CONTINUOUS
10
1.19057
20
0.678068
11
1.19227
21
0.675513
0
LINE
8
BLACK
6
CONTINUOUS
10
1.19227
20
0.675513
11
1.19287
21
0.6725
0
LINE
8
BLACK
6
CONTINUOUS
10
1.19287
20
0.6725
11
1.19287
21
0.6275
0
LINE
8
BLACK
6
CONTINUOUS
10
1.19287
20
0.6275
11
1.19227
21
0.624487
0
LINE
8
BLACK
6
CONTINUOUS
10
1.19227
20
0.624487
11
1.19057
21
0.621932
0
LINE
8
BLACK
6
CONTINUOUS
10
1.19057
20
0.621932
11
1.18801
21
0.620225
0
LINE
8
BLACK
6
CONTINUOUS
10
1.18801
20
0.620225
11
1.185
21
0.619626
0
LINE
8
BLACK
6
CONTINUOUS
10
1.185
20
0.619626
11
1.165
21
0.619626
0
LINE
8
BLACK
6
CONTINUOUS
10
1.165
20
0.619626
11
1.16199
21
0.620225
0
LINE
8
BLACK
6
CONTINUOUS
10
1.16199
20
0.620225
11
1.15943
21
0.621932
0
LINE
8
BLACK
6
CONTINUOUS
10
1.15943
20
0.621932
11
1.15773
21
0.624487
0
LINE
8
BLACK
6
CONTINUOUS
10
1.15773
20
0.624487
11
1.15713
21
0.6275
0
LINE
8
BLACK
6
CONTINUOUS
10
1.15713
20
0.6275
11
1.15713
21
0.6725
0
LINE
8
BLACK
6
CONTINUOUS
10
1.15713
20
0.6725
11
1.15773
21
0.675513
0
LINE
8
BLACK
6
CONTINUOUS
10
1.15773
20
0.675513
11
1.15943
21
0.678068
0
LINE
8
BLACK
6
CONTINUOUS
10
1.15943
20
0.678068
11
1.16199
21
0.679775
0
LINE
8
BLACK
6
CONTINUOUS
10
1.16199
20
0.679775
11
1.165
21
0.680374
0
LINE
8
BLACK
6
CONTINUOUS
10
1.165
20
0.680374
11
1.185
21
0.680374
0
LINE
8
BLACK
6
CONTINUOUS
10
1.185
20
0.680374
11
1.18801
21
0.679775
0
LINE
8
BLACK
6
CONTINUOUS
10
1.13801
20
0.679775
11
1.14057
21
0.678068
0
LINE
8
BLACK
6
CONTINUOUS
10
1.14057
20
0.678068
11
1.14227
21
0.675513
0
LINE
8
BLACK
6
CONTINUOUS
10
1.14227
20
0.675513
11
1.14287
21
0.6725
0
LINE
8
BLACK
6
CONTINUOUS
10
1.14287
20
0.6725
11
1.14287
21
0.6275
0
LINE
8
BLACK
6
CONTINUOUS
10
1.14287
20
0.6275
11
1.14227
21
0.624487
0
LINE
8
BLACK
6
CONTINUOUS
10
1.14227
20
0.624487
11
1.14057
21
0.621932
0
LINE
8
BLACK
6
CONTINUOUS
10
1.14057
20
0.621932
11
1.13801
21
0.620225
0
LINE
8
BLACK
6
CONTINUOUS
10
1.13801
20
0.620225
11
1.135
21
0.619626
0
LINE
8
BLACK
6
CONTINUOUS
10
1.135
20
0.619626
11
1.115
21
0.619626
0
LINE
8
BLACK
6
CONTINUOUS
10
1.115
20
0.619626
11
1.11199
21
0.620225
0
LINE
8
BLACK
6
CONTINUOUS
10
1.11199
20
0.620225
11
1.10943
21
0.621932
0
LINE
8
BLACK
6
CONTINUOUS
10
1.10943
20
0.621932
11
1.10773
21
0.624487
0
LINE
8
BLACK
6
CONTINUOUS
10
1.10773
20
0.624487
11
1.10713
21
0.6275
0
LINE
8
BLACK
6
CONTINUOUS
10
1.10713
20
0.6275
11
1.10713
21
0.6725
0
LINE
8
BLACK
6
CONTINUOUS
10
1.10713
20
0.6725
11
1.10773
21
0.675513
0
LINE
8
BLACK
6
CONTINUOUS
10
1.10773
20
0.675513
11
1.10943
21
0.678068
0
LINE
8
BLACK
6
CONTINUOUS
10
1.10943
20
0.678068
11
1.11199
21
0.679775
0
LINE
8
BLACK
6
CONTINUOUS
10
1.11199
20
0.679775
11
1.115
21
0.680374
0
LINE
8
BLACK
6
CONTINUOUS
10
1.115
20
0.680374
11
1.135
21
0.680374
0
LINE
8
BLACK
6
CONTINUOUS
10
1.135
20
0.680374
11
1.13801
21
0.679775
0
LINE
8
BLACK
6
CONTINUOUS
10
1.08801
20
0.679775
11
1.09057
21
0.678068
0
LINE
8
BLACK
6
CONTINUOUS
10
1.09057
20
0.678068
11
1.09227
21
0.675513
0
LINE
8
BLACK
6
CONTINUOUS
10
1.09227
20
0.675513
11
1.09287
21
0.6725
0
LINE
8
BLACK
6
CONTINUOUS
10
1.09287
20
0.6725
11
1.09287
21
0.6275
0
LINE
8
BLACK
6
CONTINUOUS
10
1.09287
20
0.6275
11
1.09227
21
0.624487
0
LINE
8
BLACK
6
CONTINUOUS
10
1.09227
20
0.624487
11
1.09057
21
0.621932
0
LINE
8
BLACK
6
CONTINUOUS
10
1.09057
20
0.621932
11
1.08801
21
0.620225
0
LINE
8
BLACK
6
CONTINUOUS
10
1.08801
20
0.620225
11
1.085
21
0.619626
0
LINE
8
BLACK
6
CONTINUOUS
10
1.085
20
0.619626
11
1.065
21
0.619626
0
LINE
8
BLACK
6
CONTINUOUS
10
1.065
20
0.619626
11
1.06199
21
0.620225
0
LINE
8
BLACK
6
CONTINUOUS
10
1.06199
20
0.620225
11
1.05943
21
0.621932
0
LINE
8
BLACK
6
CONTINUOUS
10
1.05943
20
0.621932
11
1.05773
21
0.624487
0
LINE
8
BLACK
6
CONTINUOUS
10
1.05773
20
0.624487
11
1.05713
21
0.6275
0
LINE
8
BLACK
6
CONTINUOUS
10
1.05713
20
0.6275
11
1.05713
21
0.6725
0
LINE
8
BLACK
6
CONTINUOUS
10
1.05713
20
0.6725
11
1.05773
21
0.675513
0
LINE
8
BLACK
6
CONTINUOUS
10
1.05773
20
0.675513
11
1.05943
21
0.678068
0
LINE
8
BLACK
6
CONTINUOUS
10
1.05943
20
0.678068
11
1.06199
21
0.679775
0
LINE
8
BLACK
6
CONTINUOUS
10
1.06199
20
0.679775
11
1.065
21
0.680374
0
LINE
8
BLACK
6
CONTINUOUS
10
1.065
20
0.680374
11
1.085
21
0.680374
0
LINE
8
BLACK
6
CONTINUOUS
10
1.085
20
0.680374
11
1.08801
21
0.679775
0
LINE
8
BLACK
6
CONTINUOUS
10
1.03801
20
0.679775
11
1.04057
21
0.678068
0
LINE
8
BLACK
6
CONTINUOUS
10
1.04057
20
0.678068
11
1.04227
21
0.675513
0
LINE
8
BLACK
6
CONTINUOUS
10
1.04227
20
0.675513
11
1.04287
21
0.6725
0
LINE
8
BLACK
6
CONTINUOUS
10
1.04287
20
0.6725
11
1.04287
21
0.6275
0
LINE
8
BLACK
6
CONTINUOUS
10
1.04287
20
0.6275
11
1.04227
21
0.624487
0
LINE
8
BLACK
6
CONTINUOUS
10
1.04227
20
0.624487
11
1.04057
21
0.621932
0
LINE
8
BLACK
6
CONTINUOUS
10
1.04057
20
0.621932
11
1.03801
21
0.620225
0
LINE
8
BLACK
6
CONTINUOUS
10
1.03801
20
0.620225
11
1.035
21
0.619626
0
LINE
8
BLACK
6
CONTINUOUS
10
1.035
20
0.619626
11
1.015
21
0.619626
0
LINE
8
BLACK
6
CONTINUOUS
10
1.015
20
0.619626
11
1.01199
21
0.620225
0
LINE
8
BLACK
6
CONTINUOUS
10
1.01199
20
0.620225
11
1.00943
21
0.621932
0
LINE
8
BLACK
6
CONTINUOUS
10
1.00943
20
0.621932
11
1.00773
21
0.624487
0
LINE
8
BLACK
6
CONTINUOUS
10
1.00773
20
0.624487
11
1.00713
21
0.6275
0
LINE
8
BLACK
6
CONTINUOUS
10
1.00713
20
0.6275
11
1.00713
21
0.6725
0
LINE
8
BLACK
6
CONTINUOUS
10
1.00713
20
0.6725
11
1.00773
21
0.675513
0
LINE
8
BLACK
6
CONTINUOUS
10
1.00773
20
0.675513
11
1.00943
21
0.678068
0
LINE
8
BLACK
6
CONTINUOUS
10
1.00943
20
0.678068
11
1.01199
21
0.679775
0
LINE
8
BLACK
6
CONTINUOUS
10
1.01199
20
0.679775
11
1.015
21
0.680374
0
LINE
8
BLACK
6
CONTINUOUS
10
1.015
20
0.680374
11
1.035
21
0.680374
0
LINE
8
BLACK
6
CONTINUOUS
10
1.035
20
0.680374
11
1.03801
21
0.679775
0
LINE
8
BLACK
6
CONTINUOUS
10
1.39702
20
0.714844
11
1.40199
21
0.713098
0
LINE
8
BLACK
6
CONTINUOUS
10
1.40199
20
0.713098
11
1.40623
21
0.709968
0
LINE
8
BLACK
6
CONTINUOUS
10
1.40623
20
0.709968
11
1.40936
21
0.705731
0
LINE
8
BLACK
6
CONTINUOUS
10
1.40936
20
0.705731
11
1.4111
21
0.700761
0
LINE
8
BLACK
6
CONTINUOUS
10
1.4111
20
0.700761
11
1.41142
21
0.697441
0
LINE
8
BLACK
6
CONTINUOUS
10
1.41142
20
0.697441
11
1.41142
21
0.677756
0
LINE
8
BLACK
6
CONTINUOUS
10
1.41142
20
0.677756
11
1.4111
21
0.674436
0
LINE
8
BLACK
6
CONTINUOUS
10
1.4111
20
0.674436
11
1.40936
21
0.669466
0
LINE
8
BLACK
6
CONTINUOUS
10
1.40936
20
0.669466
11
1.40623
21
0.665228
0
LINE
8
BLACK
6
CONTINUOUS
10
1.40623
20
0.665228
11
1.40199
21
0.662099
0
LINE
8
BLACK
6
CONTINUOUS
10
1.40199
20
0.662099
11
1.39702
21
0.660353
0
LINE
8
BLACK
6
CONTINUOUS
10
1.39702
20
0.660353
11
1.3937
21
0.660039
0
LINE
8
BLACK
6
CONTINUOUS
10
1.3937
20
0.660039
11
1.3563
21
0.660039
0
LINE
8
BLACK
6
CONTINUOUS
10
1.3563
20
0.660039
11
1.35298
21
0.660353
0
LINE
8
BLACK
6
CONTINUOUS
10
1.35298
20
0.660353
11
1.34801
21
0.662099
0
LINE
8
BLACK
6
CONTINUOUS
10
1.34801
20
0.662099
11
1.34377
21
0.665228
0
LINE
8
BLACK
6
CONTINUOUS
10
1.34377
20
0.665228
11
1.34064
21
0.669466
0
LINE
8
BLACK
6
CONTINUOUS
10
1.34064
20
0.669466
11
1.3389
21
0.674436
0
LINE
8
BLACK
6
CONTINUOUS
10
1.3389
20
0.674436
11
1.33858
21
0.677756
0
LINE
8
BLACK
6
CONTINUOUS
10
1.33858
20
0.677756
11
1.33858
21
0.697441
0
LINE
8
BLACK
6
CONTINUOUS
10
1.33858
20
0.697441
11
1.3389
21
0.700761
0
LINE
8
BLACK
6
CONTINUOUS
10
1.3389
20
0.700761
11
1.34064
21
0.705731
0
LINE
8
BLACK
6
CONTINUOUS
10
1.34064
20
0.705731
11
1.34377
21
0.709968
0
LINE
8
BLACK
6
CONTINUOUS
10
1.34377
20
0.709968
11
1.34801
21
0.713098
0
LINE
8
BLACK
6
CONTINUOUS
10
1.34801
20
0.713098
11
1.35298
21
0.714844
0
LINE
8
BLACK
6
CONTINUOUS
10
1.35298
20
0.714844
11
1.3563
21
0.715157
0
LINE
8
BLACK
6
CONTINUOUS
10
1.3563
20
0.715157
11
1.3937
21
0.715157
0
LINE
8
BLACK
6
CONTINUOUS
10
1.3937
20
0.715157
11
1.39702
21
0.714844
0
LINE
8
BLACK
6
CONTINUOUS
10
1.29702
20
0.714844
11
1.30199
21
0.713098
0
LINE
8
BLACK
6
CONTINUOUS
10
1.30199
20
0.713098
11
1.30623
21
0.709968
0
LINE
8
BLACK
6
CONTINUOUS
10
1.30623
20
0.709968
11
1.30936
21
0.705731
0
LINE
8
BLACK
6
CONTINUOUS
10
1.30936
20
0.705731
11
1.3111
21
0.700761
0
LINE
8
BLACK
6
CONTINUOUS
10
1.3111
20
0.700761
11
1.31142
21
0.697441
0
LINE
8
BLACK
6
CONTINUOUS
10
1.31142
20
0.697441
11
1.31142
21
0.677756
0
LINE
8
BLACK
6
CONTINUOUS
10
1.31142
20
0.677756
11
1.3111
21
0.674436
0
LINE
8
BLACK
6
CONTINUOUS
10
1.3111
20
0.674436
11
1.30936
21
0.669466
0
LINE
8
BLACK
6
CONTINUOUS
10
1.30936
20
0.669466
11
1.30623
21
0.665228
0
LINE
8
BLACK
6
CONTINUOUS
10
1.30623
20
0.665228
11
1.30199
21
0.662099
0
LINE
8
BLACK
6
CONTINUOUS
10
1.30199
20
0.662099
11
1.29702
21
0.660353
0
LINE
8
BLACK
6
CONTINUOUS
10
1.29702
20
0.660353
11
1.2937
21
0.660039
0
LINE
8
BLACK
6
CONTINUOUS
10
1.2937
20
0.660039
11
1.2563
21
0.660039
0
LINE
8
BLACK
6
CONTINUOUS
10
1.2563
20
0.660039
11
1.25298
21
0.660353
0
LINE
8
BLACK
6
CONTINUOUS
10
1.25298
20
0.660353
11
1.24801
21
0.662099
0
LINE
8
BLACK
6
CONTINUOUS
10
1.24801
20
0.662099
11
1.24377
21
0.665228
0
LINE
8
BLACK
6
CONTINUOUS
10
1.24377
20
0.665228
11
1.24064
21
0.669466
0
LINE
8
BLACK
6
CONTINUOUS
10
1.24064
20
0.669466
11
1.2389
21
0.674436
0
LINE
8
BLACK
6
CONTINUOUS
10
1.2389
20
0.674436
11
1.23858
21
0.677756
0
LINE
8
BLACK
6
CONTINUOUS
10
1.23858
20
0.677756
11
1.23858
21
0.697441
0
LINE
8
BLACK
6
CONTINUOUS
10
1.23858
20
0.697441
11
1.2389
21
0.700761
0
LINE
8
BLACK
6
CONTINUOUS
10
1.2389
20
0.700761
11
1.24064
21
0.705731
0
LINE
8
BLACK
6
CONTINUOUS
10
1.24064
20
0.705731
11
1.24377
21
0.709968
0
LINE
8
BLACK
6
CONTINUOUS
10
1.24377
20
0.709968
11
1.24801
21
0.713098
0
LINE
8
BLACK
6
CONTINUOUS
10
1.24801
20
0.713098
11
1.25298
21
0.714844
0
LINE
8
BLACK
6
CONTINUOUS
10
1.25298
20
0.714844
11
1.2563
21
0.715157
0
LINE
8
BLACK
6
CONTINUOUS
10
1.2563
20
0.715157
11
1.2937
21
0.715157
0
LINE
8
BLACK
6
CONTINUOUS
10
1.2937
20
0.715157
11
1.29702
21
0.714844
0
LINE
8
BLACK
6
CONTINUOUS
10
1.61492
20
0.925098
11
1.62877
21
0.922656
0
LINE
8
BLACK
6
CONTINUOUS
10
1.62877
20
0.922656
11
1.64226
21
0.918684
0
LINE
8
BLACK
6
CONTINUOUS
10
1.64226
20
0.918684
11
1.65523
21
0.913234
0
LINE
8
BLACK
6
CONTINUOUS
10
1.65523
20
0.913234
11
1.66751
21
0.906372
0
LINE
8
BLACK
6
CONTINUOUS
10
1.66751
20
0.906372
11
1.67894
21
0.898184
0
LINE
8
BLACK
6
CONTINUOUS
10
1.67894
20
0.898184
11
1.68939
21
0.888773
0
LINE
8
BLACK
6
CONTINUOUS
10
1.68939
20
0.888773
11
1.69873
21
0.878255
0
LINE
8
BLACK
6
CONTINUOUS
10
1.69873
20
0.878255
11
1.70684
21
0.866761
0
LINE
8
BLACK
6
CONTINUOUS
10
1.70684
20
0.866761
11
1.71362
21
0.854436
0
LINE
8
BLACK
6
CONTINUOUS
10
1.71362
20
0.854436
11
1.71898
21
0.841432
0
LINE
8
BLACK
6
CONTINUOUS
10
1.71898
20
0.841432
11
1.72285
21
0.827912
0
LINE
8
BLACK
6
CONTINUOUS
10
1.72285
20
0.827912
11
1.7252
21
0.814043
0
LINE
8
BLACK
6
CONTINUOUS
10
1.7252
20
0.814043
11
1.72598
21
0.8
0
LINE
8
BLACK
6
CONTINUOUS
10
1.72598
20
0.8
11
1.72594
21
0.796482
0
LINE
8
BLACK
6
CONTINUOUS
10
1.72594
20
0.796482
11
1.72476
21
0.782466
0
LINE
8
BLACK
6
CONTINUOUS
10
1.72476
20
0.782466
11
1.72203
21
0.768669
0
LINE
8
BLACK
6
CONTINUOUS
10
1.72203
20
0.768669
11
1.71777
21
0.755262
0
LINE
8
BLACK
6
CONTINUOUS
10
1.71777
20
0.755262
11
1.71205
21
0.742413
0
LINE
8
BLACK
6
CONTINUOUS
10
1.71205
20
0.742413
11
1.70493
21
0.730281
0
LINE
8
BLACK
6
CONTINUOUS
10
1.70493
20
0.730281
11
1.69651
21
0.719019
0
LINE
8
BLACK
6
CONTINUOUS
10
1.69651
20
0.719019
11
1.68688
21
0.708766
0
LINE
8
BLACK
6
CONTINUOUS
10
1.68688
20
0.708766
11
1.67617
21
0.69965
0
LINE
8
BLACK
6
CONTINUOUS
10
1.67617
20
0.69965
11
1.66451
21
0.691785
0
LINE
8
BLACK
6
CONTINUOUS
10
1.66451
20
0.691785
11
1.65204
21
0.685268
0
LINE
8
BLACK
6
CONTINUOUS
10
1.65204
20
0.685268
11
1.63893
21
0.680182
0
LINE
8
BLACK
6
CONTINUOUS
10
1.63893
20
0.680182
11
1.62533
21
0.676589
0
LINE
8
BLACK
6
CONTINUOUS
10
1.62533
20
0.676589
11
1.61142
21
0.674534
0
LINE
8
BLACK
6
CONTINUOUS
10
1.61142
20
0.674534
11
1.59736
21
0.674043
0
LINE
8
BLACK
6
CONTINUOUS
10
1.59736
20
0.674043
11
1.58334
21
0.675122
0
LINE
8
BLACK
6
CONTINUOUS
10
1.58334
20
0.675122
11
1.56952
21
0.677758
0
LINE
8
BLACK
6
CONTINUOUS
10
1.56952
20
0.677758
11
1.55609
21
0.681917
0
LINE
8
BLACK
6
CONTINUOUS
10
1.55609
20
0.681917
11
1.5432
21
0.687548
0
LINE
8
BLACK
6
CONTINUOUS
10
1.5432
20
0.687548
11
1.53102
21
0.694581
0
LINE
8
BLACK
6
CONTINUOUS
10
1.53102
20
0.694581
11
1.51969
21
0.702927
0
LINE
8
BLACK
6
CONTINUOUS
10
1.51969
20
0.702927
11
1.50937
21
0.712484
0
LINE
8
BLACK
6
CONTINUOUS
10
1.50937
20
0.712484
11
1.50018
21
0.723131
0
LINE
8
BLACK
6
CONTINUOUS
10
1.50018
20
0.723131
11
1.49224
21
0.734737
0
LINE
8
BLACK
6
CONTINUOUS
10
1.49224
20
0.734737
11
1.48563
21
0.747156
0
LINE
8
BLACK
6
CONTINUOUS
10
1.48563
20
0.747156
11
1.48046
21
0.760233
0
LINE
8
BLACK
6
CONTINUOUS
10
1.48046
20
0.760233
11
1.47677
21
0.773806
0
LINE
8
BLACK
6
CONTINUOUS
10
1.47677
20
0.773806
11
1.47462
21
0.787706
0
LINE
8
BLACK
6
CONTINUOUS
10
1.47462
20
0.787706
11
1.47403
21
0.801759
0
LINE
8
BLACK
6
CONTINUOUS
10
1.47403
20
0.801759
11
1.47501
21
0.81579
0
LINE
8
BLACK
6
CONTINUOUS
10
1.47501
20
0.81579
11
1.47755
21
0.829624
0
LINE
8
BLACK
6
CONTINUOUS
10
1.47755
20
0.829624
11
1.48161
21
0.843089
0
LINE
8
BLACK
6
CONTINUOUS
10
1.48161
20
0.843089
11
1.48715
21
0.856017
0
LINE
8
BLACK
6
CONTINUOUS
10
1.48715
20
0.856017
11
1.4941
21
0.868247
0
LINE
8
BLACK
6
CONTINUOUS
10
1.4941
20
0.868247
11
1.50237
21
0.879626
0
LINE
8
BLACK
6
CONTINUOUS
10
1.50237
20
0.879626
11
1.51185
21
0.890012
0
LINE
8
BLACK
6
CONTINUOUS
10
1.51185
20
0.890012
11
1.52244
21
0.899277
0
LINE
8
BLACK
6
CONTINUOUS
10
1.52244
20
0.899277
11
1.53399
21
0.907304
0
LINE
8
BLACK
6
CONTINUOUS
10
1.53399
20
0.907304
11
1.54636
21
0.913994
0
LINE
8
BLACK
6
CONTINUOUS
10
1.54636
20
0.913994
11
1.5594
21
0.919263
0
LINE
8
BLACK
6
CONTINUOUS
10
1.5594
20
0.919263
11
1.57295
21
0.923045
0
LINE
8
BLACK
6
CONTINUOUS
10
1.57295
20
0.923045
11
1.58683
21
0.925294
0
LINE
8
BLACK
6
CONTINUOUS
10
1.58683
20
0.925294
11
1.60088
21
0.925981
0
LINE
8
BLACK
6
CONTINUOUS
10
1.60088
20
0.925981
11
1.61492
21
0.925098
0
LINE
8
BLACK
6
CONTINUOUS
10
0.014917
20
0.925098
11
0.0287686
21
0.922656
0
LINE
8
BLACK
6
CONTINUOUS
10
0.0287686
20
0.922656
11
0.0422616
21
0.918684
0
LINE
8
BLACK
6
CONTINUOUS
10
0.0422616
20
0.918684
11
0.0552279
21
0.913234
0
LINE
8
BLACK
6
CONTINUOUS
10
0.0552279
20
0.913234
11
0.0675057
21
0.906372
0
LINE
8
BLACK
6
CONTINUOUS
10
0.0675057
20
0.906372
11
0.0789422
21
0.898184
0
LINE
8
BLACK
6
CONTINUOUS
10
0.0789422
20
0.898184
11
0.0893947
21
0.888773
0
LINE
8
BLACK
6
CONTINUOUS
10
0.0893947
20
0.888773
11
0.098733
21
0.878255
0
LINE
8
BLACK
6
CONTINUOUS
10
0.098733
20
0.878255
11
0.106841
21
0.866761
0
LINE
8
BLACK
6
CONTINUOUS
10
0.106841
20
0.866761
11
0.113617
21
0.854436
0
LINE
8
BLACK
6
CONTINUOUS
10
0.113617
20
0.854436
11
0.118977
21
0.841432
0
LINE
8
BLACK
6
CONTINUOUS
10
0.118977
20
0.841432
11
0.122853
21
0.827912
0
LINE
8
BLACK
6
CONTINUOUS
10
0.122853
20
0.827912
11
0.125199
21
0.814043
0
LINE
8
BLACK
6
CONTINUOUS
10
0.125199
20
0.814043
11
0.125984
21
0.8
0
LINE
8
BLACK
6
CONTINUOUS
10
0.125984
20
0.8
11
0.125935
21
0.796482
0
LINE
8
BLACK
6
CONTINUOUS
10
0.125935
20
0.796482
11
0.124758
21
0.782466
0
LINE
8
BLACK
6
CONTINUOUS
10
0.124758
20
0.782466
11
0.122026
21
0.768669
0
LINE
8
BLACK
6
CONTINUOUS
10
0.122026
20
0.768669
11
0.117773
21
0.755262
0
LINE
8
BLACK
6
CONTINUOUS
10
0.117773
20
0.755262
11
0.112052
21
0.742413
0
LINE
8
BLACK
6
CONTINUOUS
10
0.112052
20
0.742413
11
0.104935
21
0.730281
0
LINE
8
BLACK
6
CONTINUOUS
10
0.104935
20
0.730281
11
0.0965095
21
0.719019
0
LINE
8
BLACK
6
CONTINUOUS
10
0.0965095
20
0.719019
11
0.0868812
21
0.708766
0
LINE
8
BLACK
6
CONTINUOUS
10
0.0868812
20
0.708766
11
0.07617
21
0.69965
0
LINE
8
BLACK
6
CONTINUOUS
10
0.07617
20
0.69965
11
0.0645093
21
0.691785
0
LINE
8
BLACK
6
CONTINUOUS
10
0.0645093
20
0.691785
11
0.0520446
21
0.685268
0
LINE
8
BLACK
6
CONTINUOUS
10
0.0520446
20
0.685268
11
0.0389313
21
0.680182
0
LINE
8
BLACK
6
CONTINUOUS
10
0.0389313
20
0.680182
11
0.0253326
21
0.676589
0
LINE
8
BLACK
6
CONTINUOUS
10
0.0253326
20
0.676589
11
0.0114183
21
0.674534
0
LINE
8
BLACK
6
CONTINUOUS
10
0.0114183
20
0.674534
11
-0.00263843
21
0.674043
0
LINE
8
BLACK
6
CONTINUOUS
10
-0.00263843
20
0.674043
11
-0.0166622
21
0.675122
0
LINE
8
BLACK
6
CONTINUOUS
10
-0.0166622
20
0.675122
11
-0.0304783
21
0.677758
0
LINE
8
BLACK
6
CONTINUOUS
10
-0.0304783
20
0.677758
11
-0.0439146
21
0.681917
0
LINE
8
BLACK
6
CONTINUOUS
10
-0.0439146
20
0.681917
11
-0.0568035
21
0.687548
0
LINE
8
BLACK
6
CONTINUOUS
10
-0.0568035
20
0.687548
11
-0.0689843
21
0.694581
0
LINE
8
BLACK
6
CONTINUOUS
10
-0.0689843
20
0.694581
11
-0.0803054
21
0.702927
0
LINE
8
BLACK
6
CONTINUOUS
10
-0.0803054
20
0.702927
11
-0.0906255
21
0.712484
0
LINE
8
BLACK
6
CONTINUOUS
10
-0.0906255
20
0.712484
11
-0.099816
21
0.723131
0
LINE
8
BLACK
6
CONTINUOUS
10
-0.099816
20
0.723131
11
-0.107762
21
0.734737
0
LINE
8
BLACK
6
CONTINUOUS
10
-0.107762
20
0.734737
11
-0.114366
21
0.747156
0
LINE
8
BLACK
6
CONTINUOUS
10
-0.114366
20
0.747156
11
-0.119543
21
0.760233
0
LINE
8
BLACK
6
CONTINUOUS
10
-0.119543
20
0.760233
11
-0.123231
21
0.773806
0
LINE
8
BLACK
6
CONTINUOUS
10
-0.123231
20
0.773806
11
-0.125383
21
0.787706
0
LINE
8
BLACK
6
CONTINUOUS
10
-0.125383
20
0.787706
11
-0.125972
21
0.801759
0
LINE
8
BLACK
6
CONTINUOUS
10
-0.125972
20
0.801759
11
-0.124991
21
0.81579
0
LINE
8
BLACK
6
CONTINUOUS
10
-0.124991
20
0.81579
11
-0.122452
21
0.829624
0
LINE
8
BLACK
6
CONTINUOUS
10
-0.122452
20
0.829624
11
-0.118386
21
0.843089
0
LINE
8
BLACK
6
CONTINUOUS
10
-0.118386
20
0.843089
11
-0.112846
21
0.856017
0
LINE
8
BLACK
6
CONTINUOUS
10
-0.112846
20
0.856017
11
-0.105898
21
0.868247
0
LINE
8
BLACK
6
CONTINUOUS
10
-0.105898
20
0.868247
11
-0.0976308
21
0.879626
0
LINE
8
BLACK
6
CONTINUOUS
10
-0.0976308
20
0.879626
11
-0.0881466
21
0.890012
0
LINE
8
BLACK
6
CONTINUOUS
10
-0.0881466
20
0.890012
11
-0.0775637
21
0.899277
0
LINE
8
BLACK
6
CONTINUOUS
10
-0.0775637
20
0.899277
11
-0.066014
21
0.907304
0
LINE
8
BLACK
6
CONTINUOUS
10
-0.066014
20
0.907304
11
-0.0536415
21
0.913994
0
LINE
8
BLACK
6
CONTINUOUS
10
-0.0536415
20
0.913994
11
-0.0406004
21
0.919263
0
LINE
8
BLACK
6
CONTINUOUS
10
-0.0406004
20
0.919263
11
-0.0270533
21
0.923045
0
LINE
8
BLACK
6
CONTINUOUS
10
-0.0270533
20
0.923045
11
-0.0131689
21
0.925294
0
LINE
8
BLACK
6
CONTINUOUS
10
-0.0131689
20
0.925294
11
0.000879528
21
0.925981
0
LINE
8
BLACK
6
CONTINUOUS
10
0.000879528
20
0.925981
11
0.014917
21
0.925098
0
LINE
8
BLACK
6
CONTINUOUS
10
0.401036
20
0.738663
11
0.406007
21
0.736917
0
LINE
8
BLACK
6
CONTINUOUS
10
0.406007
20
0.736917
11
0.410244
21
0.733787
0
LINE
8
BLACK
6
CONTINUOUS
10
0.410244
20
0.733787
11
0.413374
21
0.72955
0
LINE
8
BLACK
6
CONTINUOUS
10
0.413374
20
0.72955
11
0.415119
21
0.72458
0
LINE
8
BLACK
6
CONTINUOUS
10
0.415119
20
0.72458
11
0.415433
21
0.72126
0
LINE
8
BLACK
6
CONTINUOUS
10
0.415433
20
0.72126
11
0.415433
21
0.700591
0
LINE
8
BLACK
6
CONTINUOUS
10
0.415433
20
0.700591
11
0.415119
21
0.697271
0
LINE
8
BLACK
6
CONTINUOUS
10
0.415119
20
0.697271
11
0.413374
21
0.6923
0
LINE
8
BLACK
6
CONTINUOUS
10
0.413374
20
0.6923
11
0.410244
21
0.688063
0
LINE
8
BLACK
6
CONTINUOUS
10
0.410244
20
0.688063
11
0.406007
21
0.684933
0
LINE
8
BLACK
6
CONTINUOUS
10
0.406007
20
0.684933
11
0.401036
21
0.683188
0
LINE
8
BLACK
6
CONTINUOUS
10
0.401036
20
0.683188
11
0.397717
21
0.682874
0
LINE
8
BLACK
6
CONTINUOUS
10
0.397717
20
0.682874
11
0.362283
21
0.682874
0
LINE
8
BLACK
6
CONTINUOUS
10
0.362283
20
0.682874
11
0.358964
21
0.683188
0
LINE
8
BLACK
6
CONTINUOUS
10
0.358964
20
0.683188
11
0.353993
21
0.684933
0
LINE
8
BLACK
6
CONTINUOUS
10
0.353993
20
0.684933
11
0.349756
21
0.688063
0
LINE
8
BLACK
6
CONTINUOUS
10
0.349756
20
0.688063
11
0.346626
21
0.6923
0
LINE
8
BLACK
6
CONTINUOUS
10
0.346626
20
0.6923
11
0.344881
21
0.697271
0
LINE
8
BLACK
6
CONTINUOUS
10
0.344881
20
0.697271
11
0.344567
21
0.700591
0
LINE
8
BLACK
6
CONTINUOUS
10
0.344567
20
0.700591
11
0.344567
21
0.72126
0
LINE
8
BLACK
6
CONTINUOUS
10
0.344567
20
0.72126
11
0.344881
21
0.72458
0
LINE
8
BLACK
6
CONTINUOUS
10
0.344881
20
0.72458
11
0.346626
21
0.72955
0
LINE
8
BLACK
6
CONTINUOUS
10
0.346626
20
0.72955
11
0.349756
21
0.733787
0
LINE
8
BLACK
6
CONTINUOUS
10
0.349756
20
0.733787
11
0.353993
21
0.736917
0
LINE
8
BLACK
6
CONTINUOUS
10
0.353993
20
0.736917
11
0.358964
21
0.738663
0
LINE
8
BLACK
6
CONTINUOUS
10
0.358964
20
0.738663
11
0.362283
21
0.738976
0
LINE
8
BLACK
6
CONTINUOUS
10
0.362283
20
0.738976
11
0.397717
21
0.738976
0
LINE
8
BLACK
6
CONTINUOUS
10
0.397717
20
0.738976
11
0.401036
21
0.738663
0
LINE
8
BLACK
6
CONTINUOUS
10
0.843013
20
0.787275
11
0.845568
21
0.785568
0
LINE
8
BLACK
6
CONTINUOUS
10
0.845568
20
0.785568
11
0.847275
21
0.783013
0
LINE
8
BLACK
6
CONTINUOUS
10
0.847275
20
0.783013
11
0.847874
21
0.78
0
LINE
8
BLACK
6
CONTINUOUS
10
0.847874
20
0.78
11
0.847874
21
0.72
0
LINE
8
BLACK
6
CONTINUOUS
10
0.847874
20
0.72
11
0.847275
21
0.716987
0
LINE
8
BLACK
6
CONTINUOUS
10
0.847275
20
0.716987
11
0.845568
21
0.714432
0
LINE
8
BLACK
6
CONTINUOUS
10
0.845568
20
0.714432
11
0.843013
21
0.712725
0
LINE
8
BLACK
6
CONTINUOUS
10
0.843013
20
0.712725
11
0.84
21
0.712126
0
LINE
8
BLACK
6
CONTINUOUS
10
0.84
20
0.712126
11
0.78
21
0.712126
0
LINE
8
BLACK
6
CONTINUOUS
10
0.78
20
0.712126
11
0.776987
21
0.712725
0
LINE
8
BLACK
6
CONTINUOUS
10
0.776987
20
0.712725
11
0.774432
21
0.714432
0
LINE
8
BLACK
6
CONTINUOUS
10
0.774432
20
0.714432
11
0.772725
21
0.716987
0
LINE
8
BLACK
6
CONTINUOUS
10
0.772725
20
0.716987
11
0.772126
21
0.72
0
LINE
8
BLACK
6
CONTINUOUS
10
0.772126
20
0.72
11
0.772126
21
0.78
0
LINE
8
BLACK
6
CONTINUOUS
10
0.772126
20
0.78
11
0.772725
21
0.783013
0
LINE
8
BLACK
6
CONTINUOUS
10
0.772725
20
0.783013
11
0.774432
21
0.785568
0
LINE
8
BLACK
6
CONTINUOUS
10
0.774432
20
0.785568
11
0.776987
21
0.787275
0
LINE
8
BLACK
6
CONTINUOUS
10
0.776987
20
0.787275
11
0.78
21
0.787874
0
LINE
8
BLACK
6
CONTINUOUS
10
0.78
20
0.787874
11
0.84
21
0.787874
0
LINE
8
BLACK
6
CONTINUOUS
10
0.84
20
0.787874
11
0.843013
21
0.787275
0
LINE
8
BLACK
6
CONTINUOUS
10
1.39702
20
0.789647
11
1.40199
21
0.787901
0
LINE
8
BLACK
6
CONTINUOUS
10
1.40199
20
0.787901
11
1.40623
21
0.784772
0
LINE
8
BLACK
6
CONTINUOUS
10
1.40623
20
0.784772
11
1.40936
21
0.780534
0
LINE
8
BLACK
6
CONTINUOUS
10
1.40936
20
0.780534
11
1.4111
21
0.775564
0
LINE
8
BLACK
6
CONTINUOUS
10
1.4111
20
0.775564
11
1.41142
21
0.772244
0
LINE
8
BLACK
6
CONTINUOUS
10
1.41142
20
0.772244
11
1.41142
21
0.752559
0
LINE
8
BLACK
6
CONTINUOUS
10
1.41142
20
0.752559
11
1.4111
21
0.749239
0
LINE
8
BLACK
6
CONTINUOUS
10
1.4111
20
0.749239
11
1.40936
21
0.744269
0
LINE
8
BLACK
6
CONTINUOUS
10
1.40936
20
0.744269
11
1.40623
21
0.740032
0
LINE
8
BLACK
6
CONTINUOUS
10
1.40623
20
0.740032
11
1.40199
21
0.736902
0
LINE
8
BLACK
6
CONTINUOUS
10
1.40199
20
0.736902
11
1.39702
21
0.735156
0
LINE
8
BLACK
6
CONTINUOUS
10
1.39702
20
0.735156
11
1.3937
21
0.734843
0
LINE
8
BLACK
6
CONTINUOUS
10
1.3937
20
0.734843
11
1.3563
21
0.734843
0
LINE
8
BLACK
6
CONTINUOUS
10
1.3563
20
0.734843
11
1.35298
21
0.735156
0
LINE
8
BLACK
6
CONTINUOUS
10
1.35298
20
0.735156
11
1.34801
21
0.736902
0
LINE
8
BLACK
6
CONTINUOUS
10
1.34801
20
0.736902
11
1.34377
21
0.740032
0
LINE
8
BLACK
6
CONTINUOUS
10
1.34377
20
0.740032
11
1.34064
21
0.744269
0
LINE
8
BLACK
6
CONTINUOUS
10
1.34064
20
0.744269
11
1.3389
21
0.749239
0
LINE
8
BLACK
6
CONTINUOUS
10
1.3389
20
0.749239
11
1.33858
21
0.752559
0
LINE
8
BLACK
6
CONTINUOUS
10
1.33858
20
0.752559
11
1.33858
21
0.772244
0
LINE
8
BLACK
6
CONTINUOUS
10
1.33858
20
0.772244
11
1.3389
21
0.775564
0
LINE
8
BLACK
6
CONTINUOUS
10
1.3389
20
0.775564
11
1.34064
21
0.780534
0
LINE
8
BLACK
6
CONTINUOUS
10
1.34064
20
0.780534
11
1.34377
21
0.784772
0
LINE
8
BLACK
6
CONTINUOUS
10
1.34377
20
0.784772
11
1.34801
21
0.787901
0
LINE
8
BLACK
6
CONTINUOUS
10
1.34801
20
0.787901
11
1.35298
21
0.789647
0
LINE
8
BLACK
6
CONTINUOUS
10
1.35298
20
0.789647
11
1.3563
21
0.789961
0
LINE
8
BLACK
6
CONTINUOUS
10
1.3563
20
0.789961
11
1.3937
21
0.789961
0
LINE
8
BLACK
6
CONTINUOUS
10
1.3937
20
0.789961
11
1.39702
21
0.789647
0
LINE
8
BLACK
6
CONTINUOUS
10
1.29702
20
0.789647
11
1.30199
21
0.787901
0
LINE
8
BLACK
6
CONTINUOUS
10
1.30199
20
0.787901
11
1.30623
21
0.784772
0
LINE
8
BLACK
6
CONTINUOUS
10
1.30623
20
0.784772
11
1.30936
21
0.780534
0
LINE
8
BLACK
6
CONTINUOUS
10
1.30936
20
0.780534
11
1.3111
21
0.775564
0
LINE
8
BLACK
6
CONTINUOUS
10
1.3111
20
0.775564
11
1.31142
21
0.772244
0
LINE
8
BLACK
6
CONTINUOUS
10
1.31142
20
0.772244
11
1.31142
21
0.752559
0
LINE
8
BLACK
6
CONTINUOUS
10
1.31142
20
0.752559
11
1.3111
21
0.749239
0
LINE
8
BLACK
6
CONTINUOUS
10
1.3111
20
0.749239
11
1.30936
21
0.744269
0
LINE
8
BLACK
6
CONTINUOUS
10
1.30936
20
0.744269
11
1.30623
21
0.740032
0
LINE
8
BLACK
6
CONTINUOUS
10
1.30623
20
0.740032
11
1.30199
21
0.736902
0
LINE
8
BLACK
6
CONTINUOUS
10
1.30199
20
0.736902
11
1.29702
21
0.735156
0
LINE
8
BLACK
6
CONTINUOUS
10
1.29702
20
0.735156
11
1.2937
21
0.734843
0
LINE
8
BLACK
6
CONTINUOUS
10
1.2937
20
0.734843
11
1.2563
21
0.734843
0
LINE
8
BLACK
6
CONTINUOUS
10
1.2563
20
0.734843
11
1.25298
21
0.735156
0
LINE
8
BLACK
6
CONTINUOUS
10
1.25298
20
0.735156
11
1.24801
21
0.736902
0
LINE
8
BLACK
6
CONTINUOUS
10
1.24801
20
0.736902
11
1.24377
21
0.740032
0
LINE
8
BLACK
6
CONTINUOUS
10
1.24377
20
0.740032
11
1.24064
21
0.744269
0
LINE
8
BLACK
6
CONTINUOUS
10
1.24064
20
0.744269
11
1.2389
21
0.749239
0
LINE
8
BLACK
6
CONTINUOUS
10
1.2389
20
0.749239
11
1.23858
21
0.752559
0
LINE
8
BLACK
6
CONTINUOUS
10
1.23858
20
0.752559
11
1.23858
21
0.772244
0
LINE
8
BLACK
6
CONTINUOUS
10
1.23858
20
0.772244
11
1.2389
21
0.775564
0
LINE
8
BLACK
6
CONTINUOUS
10
1.2389
20
0.775564
11
1.24064
21
0.780534
0
LINE
8
BLACK
6
CONTINUOUS
10
1.24064
20
0.780534
11
1.24377
21
0.784772
0
LINE
8
BLACK
6
CONTINUOUS
10
1.24377
20
0.784772
11
1.24801
21
0.787901
0
LINE
8
BLACK
6
CONTINUOUS
10
1.24801
20
0.787901
11
1.25298
21
0.789647
0
LINE
8
BLACK
6
CONTINUOUS
10
1.25298
20
0.789647
11
1.2563
21
0.789961
0
LINE
8
BLACK
6
CONTINUOUS
10
1.2563
20
0.789961
11
1.2937
21
0.789961
0
LINE
8
BLACK
6
CONTINUOUS
10
1.2937
20
0.789961
11
1.29702
21
0.789647
  0
ENDSEC
  0
EOF
