  0
SECTION
  2
HEADER
  9
$ANGBASE
  50
0.0
  9
$ANGDIR
  70
1
  9
$MEASUREMENT
  70
0
  0
ENDSEC
  0
SECTION
  2
TABLES
  0
TABLE
  2
LTYPE
  70
4
  0
LTYPE
  5
40F
  2
CONTINUOUS
  70
0
  3
Solid line
  72
65
  73
0
  40
0.0
  0
LTYPE
  5
410
  2
DASHDOT
 70
0
  3
Dash Dot ____ _ ____ _
 72
65
 73
4
 40
2.0
 49
1.25
 49
-0.25
 49
0.25
 49
-0.25
  0
LTYPE
  5
411
  2
DASHED
 70
0
  3
Dashed __ __ __ __ __
 72
65
 73
2
 40
0.75
 49
0.5
 49
-0.25
  0
LTYPE
  5
43B
  2
DOTTED
 70
0
  3
Dotted .  .  .  .
 72
65
 73
2
 40
0.2
 49
0.0
 49
-0.2
  0
ENDTAB
  0
TABLE
  2
STYLE
  70
4
  0
STYLE
  2
KICAD
  70
0
  40
0
  41
1
  42
1
  50
0
  71
0
  3
isocp.shx
  0
STYLE
  2
KICADB
  70
0
  40
0
  41
1
  42
1
  50
0
  71
0
  3
isocp.shx
  0
STYLE
  2
KICADI
  70
0
  40
0
  41
1
  42
1
  50
15
  71
0
  3
isocp.shx
  0
STYLE
  2
KICADBI
  70
0
  40
0
  41
1
  42
1
  50
15
  71
0
  3
isocp.shx
  0
ENDTAB
  0
TABLE
  2
LAYER
  70
1
  0
LAYER
  2
BLACK
  70
0
  62
7
  6
CONTINUOUS
  0
ENDTAB
  0
ENDSEC
  0
SECTION
  2
ENTITIES
0
LINE
8
BLACK
6
CONTINUOUS
10
0.825013
20
-0.0627254
11
0.827568
21
-0.0644322
0
LINE
8
BLACK
6
CONTINUOUS
10
0.827568
20
-0.0644322
11
0.829275
21
-0.0669867
0
LINE
8
BLACK
6
CONTINUOUS
10
0.829275
20
-0.0669867
11
0.829874
21
-0.07
0
LINE
8
BLACK
6
CONTINUOUS
10
0.829874
20
-0.07
11
0.829874
21
-0.13
0
LINE
8
BLACK
6
CONTINUOUS
10
0.829874
20
-0.13
11
0.829275
21
-0.133013
0
LINE
8
BLACK
6
CONTINUOUS
10
0.829275
20
-0.133013
11
0.827568
21
-0.135568
0
LINE
8
BLACK
6
CONTINUOUS
10
0.827568
20
-0.135568
11
0.825013
21
-0.137275
0
LINE
8
BLACK
6
CONTINUOUS
10
0.825013
20
-0.137275
11
0.822
21
-0.137874
0
LINE
8
BLACK
6
CONTINUOUS
10
0.822
20
-0.137874
11
0.762
21
-0.137874
0
LINE
8
BLACK
6
CONTINUOUS
10
0.762
20
-0.137874
11
0.758987
21
-0.137275
0
LINE
8
BLACK
6
CONTINUOUS
10
0.758987
20
-0.137275
11
0.756432
21
-0.135568
0
LINE
8
BLACK
6
CONTINUOUS
10
0.756432
20
-0.135568
11
0.754725
21
-0.133013
0
LINE
8
BLACK
6
CONTINUOUS
10
0.754725
20
-0.133013
11
0.754126
21
-0.13
0
LINE
8
BLACK
6
CONTINUOUS
10
0.754126
20
-0.13
11
0.754126
21
-0.07
0
LINE
8
BLACK
6
CONTINUOUS
10
0.754126
20
-0.07
11
0.754725
21
-0.0669867
0
LINE
8
BLACK
6
CONTINUOUS
10
0.754725
20
-0.0669867
11
0.756432
21
-0.0644322
0
LINE
8
BLACK
6
CONTINUOUS
10
0.756432
20
-0.0644322
11
0.758987
21
-0.0627254
0
LINE
8
BLACK
6
CONTINUOUS
10
0.758987
20
-0.0627254
11
0.762
21
-0.062126
0
LINE
8
BLACK
6
CONTINUOUS
10
0.762
20
-0.062126
11
0.822
21
-0.062126
0
LINE
8
BLACK
6
CONTINUOUS
10
0.822
20
-0.062126
11
0.825013
21
-0.0627254
0
LINE
8
BLACK
6
CONTINUOUS
10
0.925013
20
-0.0627254
11
0.927568
21
-0.0644322
0
LINE
8
BLACK
6
CONTINUOUS
10
0.927568
20
-0.0644322
11
0.929275
21
-0.0669867
0
LINE
8
BLACK
6
CONTINUOUS
10
0.929275
20
-0.0669867
11
0.929874
21
-0.07
0
LINE
8
BLACK
6
CONTINUOUS
10
0.929874
20
-0.07
11
0.929874
21
-0.13
0
LINE
8
BLACK
6
CONTINUOUS
10
0.929874
20
-0.13
11
0.929275
21
-0.133013
0
LINE
8
BLACK
6
CONTINUOUS
10
0.929275
20
-0.133013
11
0.927568
21
-0.135568
0
LINE
8
BLACK
6
CONTINUOUS
10
0.927568
20
-0.135568
11
0.925013
21
-0.137275
0
LINE
8
BLACK
6
CONTINUOUS
10
0.925013
20
-0.137275
11
0.922
21
-0.137874
0
LINE
8
BLACK
6
CONTINUOUS
10
0.922
20
-0.137874
11
0.862
21
-0.137874
0
LINE
8
BLACK
6
CONTINUOUS
10
0.862
20
-0.137874
11
0.858987
21
-0.137275
0
LINE
8
BLACK
6
CONTINUOUS
10
0.858987
20
-0.137275
11
0.856432
21
-0.135568
0
LINE
8
BLACK
6
CONTINUOUS
10
0.856432
20
-0.135568
11
0.854725
21
-0.133013
0
LINE
8
BLACK
6
CONTINUOUS
10
0.854725
20
-0.133013
11
0.854126
21
-0.13
0
LINE
8
BLACK
6
CONTINUOUS
10
0.854126
20
-0.13
11
0.854126
21
-0.07
0
LINE
8
BLACK
6
CONTINUOUS
10
0.854126
20
-0.07
11
0.854725
21
-0.0669867
0
LINE
8
BLACK
6
CONTINUOUS
10
0.854725
20
-0.0669867
11
0.856432
21
-0.0644322
0
LINE
8
BLACK
6
CONTINUOUS
10
0.856432
20
-0.0644322
11
0.858987
21
-0.0627254
0
LINE
8
BLACK
6
CONTINUOUS
10
0.858987
20
-0.0627254
11
0.862
21
-0.062126
0
LINE
8
BLACK
6
CONTINUOUS
10
0.862
20
-0.062126
11
0.922
21
-0.062126
0
LINE
8
BLACK
6
CONTINUOUS
10
0.922
20
-0.062126
11
0.925013
21
-0.0627254
0
LINE
8
BLACK
6
CONTINUOUS
10
1.22501
20
-0.0627254
11
1.22757
21
-0.0644322
0
LINE
8
BLACK
6
CONTINUOUS
10
1.22757
20
-0.0644322
11
1.22927
21
-0.0669867
0
LINE
8
BLACK
6
CONTINUOUS
10
1.22927
20
-0.0669867
11
1.22987
21
-0.07
0
LINE
8
BLACK
6
CONTINUOUS
10
1.22987
20
-0.07
11
1.22987
21
-0.13
0
LINE
8
BLACK
6
CONTINUOUS
10
1.22987
20
-0.13
11
1.22927
21
-0.133013
0
LINE
8
BLACK
6
CONTINUOUS
10
1.22927
20
-0.133013
11
1.22757
21
-0.135568
0
LINE
8
BLACK
6
CONTINUOUS
10
1.22757
20
-0.135568
11
1.22501
21
-0.137275
0
LINE
8
BLACK
6
CONTINUOUS
10
1.22501
20
-0.137275
11
1.222
21
-0.137874
0
LINE
8
BLACK
6
CONTINUOUS
10
1.222
20
-0.137874
11
1.162
21
-0.137874
0
LINE
8
BLACK
6
CONTINUOUS
10
1.162
20
-0.137874
11
1.15899
21
-0.137275
0
LINE
8
BLACK
6
CONTINUOUS
10
1.15899
20
-0.137275
11
1.15643
21
-0.135568
0
LINE
8
BLACK
6
CONTINUOUS
10
1.15643
20
-0.135568
11
1.15473
21
-0.133013
0
LINE
8
BLACK
6
CONTINUOUS
10
1.15473
20
-0.133013
11
1.15413
21
-0.13
0
LINE
8
BLACK
6
CONTINUOUS
10
1.15413
20
-0.13
11
1.15413
21
-0.07
0
LINE
8
BLACK
6
CONTINUOUS
10
1.15413
20
-0.07
11
1.15473
21
-0.0669867
0
LINE
8
BLACK
6
CONTINUOUS
10
1.15473
20
-0.0669867
11
1.15643
21
-0.0644322
0
LINE
8
BLACK
6
CONTINUOUS
10
1.15643
20
-0.0644322
11
1.15899
21
-0.0627254
0
LINE
8
BLACK
6
CONTINUOUS
10
1.15899
20
-0.0627254
11
1.162
21
-0.062126
0
LINE
8
BLACK
6
CONTINUOUS
10
1.162
20
-0.062126
11
1.222
21
-0.062126
0
LINE
8
BLACK
6
CONTINUOUS
10
1.222
20
-0.062126
11
1.22501
21
-0.0627254
0
LINE
8
BLACK
6
CONTINUOUS
10
1.12501
20
-0.0627254
11
1.12757
21
-0.0644322
0
LINE
8
BLACK
6
CONTINUOUS
10
1.12757
20
-0.0644322
11
1.12927
21
-0.0669867
0
LINE
8
BLACK
6
CONTINUOUS
10
1.12927
20
-0.0669867
11
1.12987
21
-0.07
0
LINE
8
BLACK
6
CONTINUOUS
10
1.12987
20
-0.07
11
1.12987
21
-0.13
0
LINE
8
BLACK
6
CONTINUOUS
10
1.12987
20
-0.13
11
1.12927
21
-0.133013
0
LINE
8
BLACK
6
CONTINUOUS
10
1.12927
20
-0.133013
11
1.12757
21
-0.135568
0
LINE
8
BLACK
6
CONTINUOUS
10
1.12757
20
-0.135568
11
1.12501
21
-0.137275
0
LINE
8
BLACK
6
CONTINUOUS
10
1.12501
20
-0.137275
11
1.122
21
-0.137874
0
LINE
8
BLACK
6
CONTINUOUS
10
1.122
20
-0.137874
11
1.062
21
-0.137874
0
LINE
8
BLACK
6
CONTINUOUS
10
1.062
20
-0.137874
11
1.05899
21
-0.137275
0
LINE
8
BLACK
6
CONTINUOUS
10
1.05899
20
-0.137275
11
1.05643
21
-0.135568
0
LINE
8
BLACK
6
CONTINUOUS
10
1.05643
20
-0.135568
11
1.05473
21
-0.133013
0
LINE
8
BLACK
6
CONTINUOUS
10
1.05473
20
-0.133013
11
1.05413
21
-0.13
0
LINE
8
BLACK
6
CONTINUOUS
10
1.05413
20
-0.13
11
1.05413
21
-0.07
0
LINE
8
BLACK
6
CONTINUOUS
10
1.05413
20
-0.07
11
1.05473
21
-0.0669867
0
LINE
8
BLACK
6
CONTINUOUS
10
1.05473
20
-0.0669867
11
1.05643
21
-0.0644322
0
LINE
8
BLACK
6
CONTINUOUS
10
1.05643
20
-0.0644322
11
1.05899
21
-0.0627254
0
LINE
8
BLACK
6
CONTINUOUS
10
1.05899
20
-0.0627254
11
1.062
21
-0.062126
0
LINE
8
BLACK
6
CONTINUOUS
10
1.062
20
-0.062126
11
1.122
21
-0.062126
0
LINE
8
BLACK
6
CONTINUOUS
10
1.122
20
-0.062126
11
1.12501
21
-0.0627254
0
LINE
8
BLACK
6
CONTINUOUS
10
1.02501
20
-0.0627254
11
1.02757
21
-0.0644322
0
LINE
8
BLACK
6
CONTINUOUS
10
1.02757
20
-0.0644322
11
1.02927
21
-0.0669867
0
LINE
8
BLACK
6
CONTINUOUS
10
1.02927
20
-0.0669867
11
1.02987
21
-0.07
0
LINE
8
BLACK
6
CONTINUOUS
10
1.02987
20
-0.07
11
1.02987
21
-0.13
0
LINE
8
BLACK
6
CONTINUOUS
10
1.02987
20
-0.13
11
1.02927
21
-0.133013
0
LINE
8
BLACK
6
CONTINUOUS
10
1.02927
20
-0.133013
11
1.02757
21
-0.135568
0
LINE
8
BLACK
6
CONTINUOUS
10
1.02757
20
-0.135568
11
1.02501
21
-0.137275
0
LINE
8
BLACK
6
CONTINUOUS
10
1.02501
20
-0.137275
11
1.022
21
-0.137874
0
LINE
8
BLACK
6
CONTINUOUS
10
1.022
20
-0.137874
11
0.962
21
-0.137874
0
LINE
8
BLACK
6
CONTINUOUS
10
0.962
20
-0.137874
11
0.958987
21
-0.137275
0
LINE
8
BLACK
6
CONTINUOUS
10
0.958987
20
-0.137275
11
0.956432
21
-0.135568
0
LINE
8
BLACK
6
CONTINUOUS
10
0.956432
20
-0.135568
11
0.954725
21
-0.133013
0
LINE
8
BLACK
6
CONTINUOUS
10
0.954725
20
-0.133013
11
0.954126
21
-0.13
0
LINE
8
BLACK
6
CONTINUOUS
10
0.954126
20
-0.13
11
0.954126
21
-0.07
0
LINE
8
BLACK
6
CONTINUOUS
10
0.954126
20
-0.07
11
0.954725
21
-0.0669867
0
LINE
8
BLACK
6
CONTINUOUS
10
0.954725
20
-0.0669867
11
0.956432
21
-0.0644322
0
LINE
8
BLACK
6
CONTINUOUS
10
0.956432
20
-0.0644322
11
0.958987
21
-0.0627254
0
LINE
8
BLACK
6
CONTINUOUS
10
0.958987
20
-0.0627254
11
0.962
21
-0.062126
0
LINE
8
BLACK
6
CONTINUOUS
10
0.962
20
-0.062126
11
1.022
21
-0.062126
0
LINE
8
BLACK
6
CONTINUOUS
10
1.022
20
-0.062126
11
1.02501
21
-0.0627254
0
LINE
8
BLACK
6
CONTINUOUS
10
1.61492
20
0.125098
11
1.62877
21
0.122656
0
LINE
8
BLACK
6
CONTINUOUS
10
1.62877
20
0.122656
11
1.64226
21
0.118684
0
LINE
8
BLACK
6
CONTINUOUS
10
1.64226
20
0.118684
11
1.65523
21
0.113234
0
LINE
8
BLACK
6
CONTINUOUS
10
1.65523
20
0.113234
11
1.66751
21
0.106372
0
LINE
8
BLACK
6
CONTINUOUS
10
1.66751
20
0.106372
11
1.67894
21
0.0981843
0
LINE
8
BLACK
6
CONTINUOUS
10
1.67894
20
0.0981843
11
1.68939
21
0.0887728
0
LINE
8
BLACK
6
CONTINUOUS
10
1.68939
20
0.0887728
11
1.69873
21
0.0782548
0
LINE
8
BLACK
6
CONTINUOUS
10
1.69873
20
0.0782548
11
1.70684
21
0.0667615
0
LINE
8
BLACK
6
CONTINUOUS
10
1.70684
20
0.0667615
11
1.71362
21
0.054436
0
LINE
8
BLACK
6
CONTINUOUS
10
1.71362
20
0.054436
11
1.71898
21
0.041432
0
LINE
8
BLACK
6
CONTINUOUS
10
1.71898
20
0.041432
11
1.72285
21
0.0279116
0
LINE
8
BLACK
6
CONTINUOUS
10
1.72285
20
0.0279116
11
1.7252
21
0.0140433
0
LINE
8
BLACK
6
CONTINUOUS
10
1.7252
20
0.0140433
11
1.72598
21
0
0
LINE
8
BLACK
6
CONTINUOUS
10
1.72598
20
0
11
1.72594
21
-0.00351768
0
LINE
8
BLACK
6
CONTINUOUS
10
1.72594
20
-0.00351768
11
1.72476
21
-0.0175336
0
LINE
8
BLACK
6
CONTINUOUS
10
1.72476
20
-0.0175336
11
1.72203
21
-0.031331
0
LINE
8
BLACK
6
CONTINUOUS
10
1.72203
20
-0.031331
11
1.71777
21
-0.0447379
0
LINE
8
BLACK
6
CONTINUOUS
10
1.71777
20
-0.0447379
11
1.71205
21
-0.0575871
0
LINE
8
BLACK
6
CONTINUOUS
10
1.71205
20
-0.0575871
11
1.70493
21
-0.0697186
0
LINE
8
BLACK
6
CONTINUOUS
10
1.70493
20
-0.0697186
11
1.69651
21
-0.0809811
0
LINE
8
BLACK
6
CONTINUOUS
10
1.69651
20
-0.0809811
11
1.68688
21
-0.0912343
0
LINE
8
BLACK
6
CONTINUOUS
10
1.68688
20
-0.0912343
11
1.67617
21
-0.10035
0
LINE
8
BLACK
6
CONTINUOUS
10
1.67617
20
-0.10035
11
1.66451
21
-0.108215
0
LINE
8
BLACK
6
CONTINUOUS
10
1.66451
20
-0.108215
11
1.65204
21
-0.114732
0
LINE
8
BLACK
6
CONTINUOUS
10
1.65204
20
-0.114732
11
1.63893
21
-0.119818
0
LINE
8
BLACK
6
CONTINUOUS
10
1.63893
20
-0.119818
11
1.62533
21
-0.123411
0
LINE
8
BLACK
6
CONTINUOUS
10
1.62533
20
-0.123411
11
1.61142
21
-0.125466
0
LINE
8
BLACK
6
CONTINUOUS
10
1.61142
20
-0.125466
11
1.59736
21
-0.125957
0
LINE
8
BLACK
6
CONTINUOUS
10
1.59736
20
-0.125957
11
1.58334
21
-0.124878
0
LINE
8
BLACK
6
CONTINUOUS
10
1.58334
20
-0.124878
11
1.56952
21
-0.122242
0
LINE
8
BLACK
6
CONTINUOUS
10
1.56952
20
-0.122242
11
1.55609
21
-0.118083
0
LINE
8
BLACK
6
CONTINUOUS
10
1.55609
20
-0.118083
11
1.5432
21
-0.112452
0
LINE
8
BLACK
6
CONTINUOUS
10
1.5432
20
-0.112452
11
1.53102
21
-0.105419
0
LINE
8
BLACK
6
CONTINUOUS
10
1.53102
20
-0.105419
11
1.51969
21
-0.0970725
0
LINE
8
BLACK
6
CONTINUOUS
10
1.51969
20
-0.0970725
11
1.50937
21
-0.087516
0
LINE
8
BLACK
6
CONTINUOUS
10
1.50937
20
-0.087516
11
1.50018
21
-0.0768687
0
LINE
8
BLACK
6
CONTINUOUS
10
1.50018
20
-0.0768687
11
1.49224
21
-0.0652632
0
LINE
8
BLACK
6
CONTINUOUS
10
1.49224
20
-0.0652632
11
1.48563
21
-0.0528444
0
LINE
8
BLACK
6
CONTINUOUS
10
1.48563
20
-0.0528444
11
1.48046
21
-0.0397668
0
LINE
8
BLACK
6
CONTINUOUS
10
1.48046
20
-0.0397668
11
1.47677
21
-0.0261936
0
LINE
8
BLACK
6
CONTINUOUS
10
1.47677
20
-0.0261936
11
1.47462
21
-0.0122939
0
LINE
8
BLACK
6
CONTINUOUS
10
1.47462
20
-0.0122939
11
1.47403
21
0.00175902
0
LINE
8
BLACK
6
CONTINUOUS
10
1.47403
20
0.00175902
11
1.47501
21
0.01579
0
LINE
8
BLACK
6
CONTINUOUS
10
1.47501
20
0.01579
11
1.47755
21
0.0296242
0
LINE
8
BLACK
6
CONTINUOUS
10
1.47755
20
0.0296242
11
1.48161
21
0.0430891
0
LINE
8
BLACK
6
CONTINUOUS
10
1.48161
20
0.0430891
11
1.48715
21
0.056017
0
LINE
8
BLACK
6
CONTINUOUS
10
1.48715
20
0.056017
11
1.4941
21
0.0682467
0
LINE
8
BLACK
6
CONTINUOUS
10
1.4941
20
0.0682467
11
1.50237
21
0.0796257
0
LINE
8
BLACK
6
CONTINUOUS
10
1.50237
20
0.0796257
11
1.51185
21
0.0900123
0
LINE
8
BLACK
6
CONTINUOUS
10
1.51185
20
0.0900123
11
1.52244
21
0.0992769
0
LINE
8
BLACK
6
CONTINUOUS
10
1.52244
20
0.0992769
11
1.53399
21
0.107304
0
LINE
8
BLACK
6
CONTINUOUS
10
1.53399
20
0.107304
11
1.54636
21
0.113994
0
LINE
8
BLACK
6
CONTINUOUS
10
1.54636
20
0.113994
11
1.5594
21
0.119263
0
LINE
8
BLACK
6
CONTINUOUS
10
1.5594
20
0.119263
11
1.57295
21
0.123045
0
LINE
8
BLACK
6
CONTINUOUS
10
1.57295
20
0.123045
11
1.58683
21
0.125294
0
LINE
8
BLACK
6
CONTINUOUS
10
1.58683
20
0.125294
11
1.60088
21
0.125981
0
LINE
8
BLACK
6
CONTINUOUS
10
1.60088
20
0.125981
11
1.61492
21
0.125098
0
LINE
8
BLACK
6
CONTINUOUS
10
0.014917
20
0.125098
11
0.0287686
21
0.122656
0
LINE
8
BLACK
6
CONTINUOUS
10
0.0287686
20
0.122656
11
0.0422616
21
0.118684
0
LINE
8
BLACK
6
CONTINUOUS
10
0.0422616
20
0.118684
11
0.0552279
21
0.113234
0
LINE
8
BLACK
6
CONTINUOUS
10
0.0552279
20
0.113234
11
0.0675057
21
0.106372
0
LINE
8
BLACK
6
CONTINUOUS
10
0.0675057
20
0.106372
11
0.0789422
21
0.0981843
0
LINE
8
BLACK
6
CONTINUOUS
10
0.0789422
20
0.0981843
11
0.0893947
21
0.0887728
0
LINE
8
BLACK
6
CONTINUOUS
10
0.0893947
20
0.0887728
11
0.098733
21
0.0782548
0
LINE
8
BLACK
6
CONTINUOUS
10
0.098733
20
0.0782548
11
0.106841
21
0.0667615
0
LINE
8
BLACK
6
CONTINUOUS
10
0.106841
20
0.0667615
11
0.113617
21
0.054436
0
LINE
8
BLACK
6
CONTINUOUS
10
0.113617
20
0.054436
11
0.118977
21
0.041432
0
LINE
8
BLACK
6
CONTINUOUS
10
0.118977
20
0.041432
11
0.122853
21
0.0279116
0
LINE
8
BLACK
6
CONTINUOUS
10
0.122853
20
0.0279116
11
0.125199
21
0.0140433
0
LINE
8
BLACK
6
CONTINUOUS
10
0.125199
20
0.0140433
11
0.125984
21
0
0
LINE
8
BLACK
6
CONTINUOUS
10
0.125984
20
0
11
0.125935
21
-0.00351768
0
LINE
8
BLACK
6
CONTINUOUS
10
0.125935
20
-0.00351768
11
0.124758
21
-0.0175336
0
LINE
8
BLACK
6
CONTINUOUS
10
0.124758
20
-0.0175336
11
0.122026
21
-0.031331
0
LINE
8
BLACK
6
CONTINUOUS
10
0.122026
20
-0.031331
11
0.117773
21
-0.0447379
0
LINE
8
BLACK
6
CONTINUOUS
10
0.117773
20
-0.0447379
11
0.112052
21
-0.0575871
0
LINE
8
BLACK
6
CONTINUOUS
10
0.112052
20
-0.0575871
11
0.104935
21
-0.0697186
0
LINE
8
BLACK
6
CONTINUOUS
10
0.104935
20
-0.0697186
11
0.0965095
21
-0.0809811
0
LINE
8
BLACK
6
CONTINUOUS
10
0.0965095
20
-0.0809811
11
0.0868812
21
-0.0912343
0
LINE
8
BLACK
6
CONTINUOUS
10
0.0868812
20
-0.0912343
11
0.07617
21
-0.10035
0
LINE
8
BLACK
6
CONTINUOUS
10
0.07617
20
-0.10035
11
0.0645093
21
-0.108215
0
LINE
8
BLACK
6
CONTINUOUS
10
0.0645093
20
-0.108215
11
0.0520446
21
-0.114732
0
LINE
8
BLACK
6
CONTINUOUS
10
0.0520446
20
-0.114732
11
0.0389313
21
-0.119818
0
LINE
8
BLACK
6
CONTINUOUS
10
0.0389313
20
-0.119818
11
0.0253326
21
-0.123411
0
LINE
8
BLACK
6
CONTINUOUS
10
0.0253326
20
-0.123411
11
0.0114183
21
-0.125466
0
LINE
8
BLACK
6
CONTINUOUS
10
0.0114183
20
-0.125466
11
-0.00263843
21
-0.125957
0
LINE
8
BLACK
6
CONTINUOUS
10
-0.00263843
20
-0.125957
11
-0.0166622
21
-0.124878
0
LINE
8
BLACK
6
CONTINUOUS
10
-0.0166622
20
-0.124878
11
-0.0304783
21
-0.122242
0
LINE
8
BLACK
6
CONTINUOUS
10
-0.0304783
20
-0.122242
11
-0.0439146
21
-0.118083
0
LINE
8
BLACK
6
CONTINUOUS
10
-0.0439146
20
-0.118083
11
-0.0568035
21
-0.112452
0
LINE
8
BLACK
6
CONTINUOUS
10
-0.0568035
20
-0.112452
11
-0.0689843
21
-0.105419
0
LINE
8
BLACK
6
CONTINUOUS
10
-0.0689843
20
-0.105419
11
-0.0803054
21
-0.0970725
0
LINE
8
BLACK
6
CONTINUOUS
10
-0.0803054
20
-0.0970725
11
-0.0906255
21
-0.087516
0
LINE
8
BLACK
6
CONTINUOUS
10
-0.0906255
20
-0.087516
11
-0.099816
21
-0.0768687
0
LINE
8
BLACK
6
CONTINUOUS
10
-0.099816
20
-0.0768687
11
-0.107762
21
-0.0652632
0
LINE
8
BLACK
6
CONTINUOUS
10
-0.107762
20
-0.0652632
11
-0.114366
21
-0.0528444
0
LINE
8
BLACK
6
CONTINUOUS
10
-0.114366
20
-0.0528444
11
-0.119543
21
-0.0397668
0
LINE
8
BLACK
6
CONTINUOUS
10
-0.119543
20
-0.0397668
11
-0.123231
21
-0.0261936
0
LINE
8
BLACK
6
CONTINUOUS
10
-0.123231
20
-0.0261936
11
-0.125383
21
-0.0122939
0
LINE
8
BLACK
6
CONTINUOUS
10
-0.125383
20
-0.0122939
11
-0.125972
21
0.00175902
0
LINE
8
BLACK
6
CONTINUOUS
10
-0.125972
20
0.00175902
11
-0.124991
21
0.01579
0
LINE
8
BLACK
6
CONTINUOUS
10
-0.124991
20
0.01579
11
-0.122452
21
0.0296242
0
LINE
8
BLACK
6
CONTINUOUS
10
-0.122452
20
0.0296242
11
-0.118386
21
0.0430891
0
LINE
8
BLACK
6
CONTINUOUS
10
-0.118386
20
0.0430891
11
-0.112846
21
0.056017
0
LINE
8
BLACK
6
CONTINUOUS
10
-0.112846
20
0.056017
11
-0.105898
21
0.0682467
0
LINE
8
BLACK
6
CONTINUOUS
10
-0.105898
20
0.0682467
11
-0.0976308
21
0.0796257
0
LINE
8
BLACK
6
CONTINUOUS
10
-0.0976308
20
0.0796257
11
-0.0881466
21
0.0900123
0
LINE
8
BLACK
6
CONTINUOUS
10
-0.0881466
20
0.0900123
11
-0.0775637
21
0.0992769
0
LINE
8
BLACK
6
CONTINUOUS
10
-0.0775637
20
0.0992769
11
-0.066014
21
0.107304
0
LINE
8
BLACK
6
CONTINUOUS
10
-0.066014
20
0.107304
11
-0.0536415
21
0.113994
0
LINE
8
BLACK
6
CONTINUOUS
10
-0.0536415
20
0.113994
11
-0.0406004
21
0.119263
0
LINE
8
BLACK
6
CONTINUOUS
10
-0.0406004
20
0.119263
11
-0.0270533
21
0.123045
0
LINE
8
BLACK
6
CONTINUOUS
10
-0.0270533
20
0.123045
11
-0.0131689
21
0.125294
0
LINE
8
BLACK
6
CONTINUOUS
10
-0.0131689
20
0.125294
11
0.000879528
21
0.125981
0
LINE
8
BLACK
6
CONTINUOUS
10
0.000879528
20
0.125981
11
0.014917
21
0.125098
0
LINE
8
BLACK
6
CONTINUOUS
10
0.825013
20
0.0372746
11
0.827568
21
0.0355678
0
LINE
8
BLACK
6
CONTINUOUS
10
0.827568
20
0.0355678
11
0.829275
21
0.0330133
0
LINE
8
BLACK
6
CONTINUOUS
10
0.829275
20
0.0330133
11
0.829874
21
0.03
0
LINE
8
BLACK
6
CONTINUOUS
10
0.829874
20
0.03
11
0.829874
21
-0.03
0
LINE
8
BLACK
6
CONTINUOUS
10
0.829874
20
-0.03
11
0.829275
21
-0.0330133
0
LINE
8
BLACK
6
CONTINUOUS
10
0.829275
20
-0.0330133
11
0.827568
21
-0.0355678
0
LINE
8
BLACK
6
CONTINUOUS
10
0.827568
20
-0.0355678
11
0.825013
21
-0.0372746
0
LINE
8
BLACK
6
CONTINUOUS
10
0.825013
20
-0.0372746
11
0.822
21
-0.037874
0
LINE
8
BLACK
6
CONTINUOUS
10
0.822
20
-0.037874
11
0.762
21
-0.037874
0
LINE
8
BLACK
6
CONTINUOUS
10
0.762
20
-0.037874
11
0.758987
21
-0.0372746
0
LINE
8
BLACK
6
CONTINUOUS
10
0.758987
20
-0.0372746
11
0.756432
21
-0.0355678
0
LINE
8
BLACK
6
CONTINUOUS
10
0.756432
20
-0.0355678
11
0.754725
21
-0.0330133
0
LINE
8
BLACK
6
CONTINUOUS
10
0.754725
20
-0.0330133
11
0.754126
21
-0.03
0
LINE
8
BLACK
6
CONTINUOUS
10
0.754126
20
-0.03
11
0.754126
21
0.03
0
LINE
8
BLACK
6
CONTINUOUS
10
0.754126
20
0.03
11
0.754725
21
0.0330133
0
LINE
8
BLACK
6
CONTINUOUS
10
0.754725
20
0.0330133
11
0.756432
21
0.0355678
0
LINE
8
BLACK
6
CONTINUOUS
10
0.756432
20
0.0355678
11
0.758987
21
0.0372746
0
LINE
8
BLACK
6
CONTINUOUS
10
0.758987
20
0.0372746
11
0.762
21
0.037874
0
LINE
8
BLACK
6
CONTINUOUS
10
0.762
20
0.037874
11
0.822
21
0.037874
0
LINE
8
BLACK
6
CONTINUOUS
10
0.822
20
0.037874
11
0.825013
21
0.0372746
0
LINE
8
BLACK
6
CONTINUOUS
10
1.22501
20
0.0372746
11
1.22757
21
0.0355678
0
LINE
8
BLACK
6
CONTINUOUS
10
1.22757
20
0.0355678
11
1.22927
21
0.0330133
0
LINE
8
BLACK
6
CONTINUOUS
10
1.22927
20
0.0330133
11
1.22987
21
0.03
0
LINE
8
BLACK
6
CONTINUOUS
10
1.22987
20
0.03
11
1.22987
21
-0.03
0
LINE
8
BLACK
6
CONTINUOUS
10
1.22987
20
-0.03
11
1.22927
21
-0.0330133
0
LINE
8
BLACK
6
CONTINUOUS
10
1.22927
20
-0.0330133
11
1.22757
21
-0.0355678
0
LINE
8
BLACK
6
CONTINUOUS
10
1.22757
20
-0.0355678
11
1.22501
21
-0.0372746
0
LINE
8
BLACK
6
CONTINUOUS
10
1.22501
20
-0.0372746
11
1.222
21
-0.037874
0
LINE
8
BLACK
6
CONTINUOUS
10
1.222
20
-0.037874
11
1.162
21
-0.037874
0
LINE
8
BLACK
6
CONTINUOUS
10
1.162
20
-0.037874
11
1.15899
21
-0.0372746
0
LINE
8
BLACK
6
CONTINUOUS
10
1.15899
20
-0.0372746
11
1.15643
21
-0.0355678
0
LINE
8
BLACK
6
CONTINUOUS
10
1.15643
20
-0.0355678
11
1.15473
21
-0.0330133
0
LINE
8
BLACK
6
CONTINUOUS
10
1.15473
20
-0.0330133
11
1.15413
21
-0.03
0
LINE
8
BLACK
6
CONTINUOUS
10
1.15413
20
-0.03
11
1.15413
21
0.03
0
LINE
8
BLACK
6
CONTINUOUS
10
1.15413
20
0.03
11
1.15473
21
0.0330133
0
LINE
8
BLACK
6
CONTINUOUS
10
1.15473
20
0.0330133
11
1.15643
21
0.0355678
0
LINE
8
BLACK
6
CONTINUOUS
10
1.15643
20
0.0355678
11
1.15899
21
0.0372746
0
LINE
8
BLACK
6
CONTINUOUS
10
1.15899
20
0.0372746
11
1.162
21
0.037874
0
LINE
8
BLACK
6
CONTINUOUS
10
1.162
20
0.037874
11
1.222
21
0.037874
0
LINE
8
BLACK
6
CONTINUOUS
10
1.222
20
0.037874
11
1.22501
21
0.0372746
0
LINE
8
BLACK
6
CONTINUOUS
10
1.12501
20
0.0372746
11
1.12757
21
0.0355678
0
LINE
8
BLACK
6
CONTINUOUS
10
1.12757
20
0.0355678
11
1.12927
21
0.0330133
0
LINE
8
BLACK
6
CONTINUOUS
10
1.12927
20
0.0330133
11
1.12987
21
0.03
0
LINE
8
BLACK
6
CONTINUOUS
10
1.12987
20
0.03
11
1.12987
21
-0.03
0
LINE
8
BLACK
6
CONTINUOUS
10
1.12987
20
-0.03
11
1.12927
21
-0.0330133
0
LINE
8
BLACK
6
CONTINUOUS
10
1.12927
20
-0.0330133
11
1.12757
21
-0.0355678
0
LINE
8
BLACK
6
CONTINUOUS
10
1.12757
20
-0.0355678
11
1.12501
21
-0.0372746
0
LINE
8
BLACK
6
CONTINUOUS
10
1.12501
20
-0.0372746
11
1.122
21
-0.037874
0
LINE
8
BLACK
6
CONTINUOUS
10
1.122
20
-0.037874
11
1.062
21
-0.037874
0
LINE
8
BLACK
6
CONTINUOUS
10
1.062
20
-0.037874
11
1.05899
21
-0.0372746
0
LINE
8
BLACK
6
CONTINUOUS
10
1.05899
20
-0.0372746
11
1.05643
21
-0.0355678
0
LINE
8
BLACK
6
CONTINUOUS
10
1.05643
20
-0.0355678
11
1.05473
21
-0.0330133
0
LINE
8
BLACK
6
CONTINUOUS
10
1.05473
20
-0.0330133
11
1.05413
21
-0.03
0
LINE
8
BLACK
6
CONTINUOUS
10
1.05413
20
-0.03
11
1.05413
21
0.03
0
LINE
8
BLACK
6
CONTINUOUS
10
1.05413
20
0.03
11
1.05473
21
0.0330133
0
LINE
8
BLACK
6
CONTINUOUS
10
1.05473
20
0.0330133
11
1.05643
21
0.0355678
0
LINE
8
BLACK
6
CONTINUOUS
10
1.05643
20
0.0355678
11
1.05899
21
0.0372746
0
LINE
8
BLACK
6
CONTINUOUS
10
1.05899
20
0.0372746
11
1.062
21
0.037874
0
LINE
8
BLACK
6
CONTINUOUS
10
1.062
20
0.037874
11
1.122
21
0.037874
0
LINE
8
BLACK
6
CONTINUOUS
10
1.122
20
0.037874
11
1.12501
21
0.0372746
0
LINE
8
BLACK
6
CONTINUOUS
10
1.02501
20
0.0372746
11
1.02757
21
0.0355678
0
LINE
8
BLACK
6
CONTINUOUS
10
1.02757
20
0.0355678
11
1.02927
21
0.0330133
0
LINE
8
BLACK
6
CONTINUOUS
10
1.02927
20
0.0330133
11
1.02987
21
0.03
0
LINE
8
BLACK
6
CONTINUOUS
10
1.02987
20
0.03
11
1.02987
21
-0.03
0
LINE
8
BLACK
6
CONTINUOUS
10
1.02987
20
-0.03
11
1.02927
21
-0.0330133
0
LINE
8
BLACK
6
CONTINUOUS
10
1.02927
20
-0.0330133
11
1.02757
21
-0.0355678
0
LINE
8
BLACK
6
CONTINUOUS
10
1.02757
20
-0.0355678
11
1.02501
21
-0.0372746
0
LINE
8
BLACK
6
CONTINUOUS
10
1.02501
20
-0.0372746
11
1.022
21
-0.037874
0
LINE
8
BLACK
6
CONTINUOUS
10
1.022
20
-0.037874
11
0.962
21
-0.037874
0
LINE
8
BLACK
6
CONTINUOUS
10
0.962
20
-0.037874
11
0.958987
21
-0.0372746
0
LINE
8
BLACK
6
CONTINUOUS
10
0.958987
20
-0.0372746
11
0.956432
21
-0.0355678
0
LINE
8
BLACK
6
CONTINUOUS
10
0.956432
20
-0.0355678
11
0.954725
21
-0.0330133
0
LINE
8
BLACK
6
CONTINUOUS
10
0.954725
20
-0.0330133
11
0.954126
21
-0.03
0
LINE
8
BLACK
6
CONTINUOUS
10
0.954126
20
-0.03
11
0.954126
21
0.03
0
LINE
8
BLACK
6
CONTINUOUS
10
0.954126
20
0.03
11
0.954725
21
0.0330133
0
LINE
8
BLACK
6
CONTINUOUS
10
0.954725
20
0.0330133
11
0.956432
21
0.0355678
0
LINE
8
BLACK
6
CONTINUOUS
10
0.956432
20
0.0355678
11
0.958987
21
0.0372746
0
LINE
8
BLACK
6
CONTINUOUS
10
0.958987
20
0.0372746
11
0.962
21
0.037874
0
LINE
8
BLACK
6
CONTINUOUS
10
0.962
20
0.037874
11
1.022
21
0.037874
0
LINE
8
BLACK
6
CONTINUOUS
10
1.022
20
0.037874
11
1.02501
21
0.0372746
0
LINE
8
BLACK
6
CONTINUOUS
10
0.925013
20
0.0372746
11
0.927568
21
0.0355678
0
LINE
8
BLACK
6
CONTINUOUS
10
0.927568
20
0.0355678
11
0.929275
21
0.0330133
0
LINE
8
BLACK
6
CONTINUOUS
10
0.929275
20
0.0330133
11
0.929874
21
0.03
0
LINE
8
BLACK
6
CONTINUOUS
10
0.929874
20
0.03
11
0.929874
21
-0.03
0
LINE
8
BLACK
6
CONTINUOUS
10
0.929874
20
-0.03
11
0.929275
21
-0.0330133
0
LINE
8
BLACK
6
CONTINUOUS
10
0.929275
20
-0.0330133
11
0.927568
21
-0.0355678
0
LINE
8
BLACK
6
CONTINUOUS
10
0.927568
20
-0.0355678
11
0.925013
21
-0.0372746
0
LINE
8
BLACK
6
CONTINUOUS
10
0.925013
20
-0.0372746
11
0.922
21
-0.037874
0
LINE
8
BLACK
6
CONTINUOUS
10
0.922
20
-0.037874
11
0.862
21
-0.037874
0
LINE
8
BLACK
6
CONTINUOUS
10
0.862
20
-0.037874
11
0.858987
21
-0.0372746
0
LINE
8
BLACK
6
CONTINUOUS
10
0.858987
20
-0.0372746
11
0.856432
21
-0.0355678
0
LINE
8
BLACK
6
CONTINUOUS
10
0.856432
20
-0.0355678
11
0.854725
21
-0.0330133
0
LINE
8
BLACK
6
CONTINUOUS
10
0.854725
20
-0.0330133
11
0.854126
21
-0.03
0
LINE
8
BLACK
6
CONTINUOUS
10
0.854126
20
-0.03
11
0.854126
21
0.03
0
LINE
8
BLACK
6
CONTINUOUS
10
0.854126
20
0.03
11
0.854725
21
0.0330133
0
LINE
8
BLACK
6
CONTINUOUS
10
0.854725
20
0.0330133
11
0.856432
21
0.0355678
0
LINE
8
BLACK
6
CONTINUOUS
10
0.856432
20
0.0355678
11
0.858987
21
0.0372746
0
LINE
8
BLACK
6
CONTINUOUS
10
0.858987
20
0.0372746
11
0.862
21
0.037874
0
LINE
8
BLACK
6
CONTINUOUS
10
0.862
20
0.037874
11
0.922
21
0.037874
0
LINE
8
BLACK
6
CONTINUOUS
10
0.922
20
0.037874
11
0.925013
21
0.0372746
0
LINE
8
BLACK
6
CONTINUOUS
10
0.0330133
20
0.387275
11
0.0355678
21
0.385568
0
LINE
8
BLACK
6
CONTINUOUS
10
0.0355678
20
0.385568
11
0.0372746
21
0.383013
0
LINE
8
BLACK
6
CONTINUOUS
10
0.0372746
20
0.383013
11
0.037874
21
0.38
0
LINE
8
BLACK
6
CONTINUOUS
10
0.037874
20
0.38
11
0.037874
21
0.32
0
LINE
8
BLACK
6
CONTINUOUS
10
0.037874
20
0.32
11
0.0372746
21
0.316987
0
LINE
8
BLACK
6
CONTINUOUS
10
0.0372746
20
0.316987
11
0.0355678
21
0.314432
0
LINE
8
BLACK
6
CONTINUOUS
10
0.0355678
20
0.314432
11
0.0330133
21
0.312725
0
LINE
8
BLACK
6
CONTINUOUS
10
0.0330133
20
0.312725
11
0.03
21
0.312126
0
LINE
8
BLACK
6
CONTINUOUS
10
0.03
20
0.312126
11
-0.03
21
0.312126
0
LINE
8
BLACK
6
CONTINUOUS
10
-0.03
20
0.312126
11
-0.0330133
21
0.312725
0
LINE
8
BLACK
6
CONTINUOUS
10
-0.0330133
20
0.312725
11
-0.0355678
21
0.314432
0
LINE
8
BLACK
6
CONTINUOUS
10
-0.0355678
20
0.314432
11
-0.0372746
21
0.316987
0
LINE
8
BLACK
6
CONTINUOUS
10
-0.0372746
20
0.316987
11
-0.037874
21
0.32
0
LINE
8
BLACK
6
CONTINUOUS
10
-0.037874
20
0.32
11
-0.037874
21
0.38
0
LINE
8
BLACK
6
CONTINUOUS
10
-0.037874
20
0.38
11
-0.0372746
21
0.383013
0
LINE
8
BLACK
6
CONTINUOUS
10
-0.0372746
20
0.383013
11
-0.0355678
21
0.385568
0
LINE
8
BLACK
6
CONTINUOUS
10
-0.0355678
20
0.385568
11
-0.0330133
21
0.387275
0
LINE
8
BLACK
6
CONTINUOUS
10
-0.0330133
20
0.387275
11
-0.03
21
0.387874
0
LINE
8
BLACK
6
CONTINUOUS
10
-0.03
20
0.387874
11
0.03
21
0.387874
0
LINE
8
BLACK
6
CONTINUOUS
10
0.03
20
0.387874
11
0.0330133
21
0.387275
0
LINE
8
BLACK
6
CONTINUOUS
10
0.133013
20
0.387275
11
0.135568
21
0.385568
0
LINE
8
BLACK
6
CONTINUOUS
10
0.135568
20
0.385568
11
0.137275
21
0.383013
0
LINE
8
BLACK
6
CONTINUOUS
10
0.137275
20
0.383013
11
0.137874
21
0.38
0
LINE
8
BLACK
6
CONTINUOUS
10
0.137874
20
0.38
11
0.137874
21
0.32
0
LINE
8
BLACK
6
CONTINUOUS
10
0.137874
20
0.32
11
0.137275
21
0.316987
0
LINE
8
BLACK
6
CONTINUOUS
10
0.137275
20
0.316987
11
0.135568
21
0.314432
0
LINE
8
BLACK
6
CONTINUOUS
10
0.135568
20
0.314432
11
0.133013
21
0.312725
0
LINE
8
BLACK
6
CONTINUOUS
10
0.133013
20
0.312725
11
0.13
21
0.312126
0
LINE
8
BLACK
6
CONTINUOUS
10
0.13
20
0.312126
11
0.07
21
0.312126
0
LINE
8
BLACK
6
CONTINUOUS
10
0.07
20
0.312126
11
0.0669867
21
0.312725
0
LINE
8
BLACK
6
CONTINUOUS
10
0.0669867
20
0.312725
11
0.0644322
21
0.314432
0
LINE
8
BLACK
6
CONTINUOUS
10
0.0644322
20
0.314432
11
0.0627254
21
0.316987
0
LINE
8
BLACK
6
CONTINUOUS
10
0.0627254
20
0.316987
11
0.062126
21
0.32
0
LINE
8
BLACK
6
CONTINUOUS
10
0.062126
20
0.32
11
0.062126
21
0.38
0
LINE
8
BLACK
6
CONTINUOUS
10
0.062126
20
0.38
11
0.0627254
21
0.383013
0
LINE
8
BLACK
6
CONTINUOUS
10
0.0627254
20
0.383013
11
0.0644322
21
0.385568
0
LINE
8
BLACK
6
CONTINUOUS
10
0.0644322
20
0.385568
11
0.0669867
21
0.387275
0
LINE
8
BLACK
6
CONTINUOUS
10
0.0669867
20
0.387275
11
0.07
21
0.387874
0
LINE
8
BLACK
6
CONTINUOUS
10
0.07
20
0.387874
11
0.13
21
0.387874
0
LINE
8
BLACK
6
CONTINUOUS
10
0.13
20
0.387874
11
0.133013
21
0.387275
0
LINE
8
BLACK
6
CONTINUOUS
10
1.71201
20
0.401275
11
1.71457
21
0.399568
0
LINE
8
BLACK
6
CONTINUOUS
10
1.71457
20
0.399568
11
1.71627
21
0.397013
0
LINE
8
BLACK
6
CONTINUOUS
10
1.71627
20
0.397013
11
1.71687
21
0.394
0
LINE
8
BLACK
6
CONTINUOUS
10
1.71687
20
0.394
11
1.71687
21
0.334
0
LINE
8
BLACK
6
CONTINUOUS
10
1.71687
20
0.334
11
1.71627
21
0.330987
0
LINE
8
BLACK
6
CONTINUOUS
10
1.71627
20
0.330987
11
1.71457
21
0.328432
0
LINE
8
BLACK
6
CONTINUOUS
10
1.71457
20
0.328432
11
1.71201
21
0.326725
0
LINE
8
BLACK
6
CONTINUOUS
10
1.71201
20
0.326725
11
1.709
21
0.326126
0
LINE
8
BLACK
6
CONTINUOUS
10
1.709
20
0.326126
11
1.649
21
0.326126
0
LINE
8
BLACK
6
CONTINUOUS
10
1.649
20
0.326126
11
1.64599
21
0.326725
0
LINE
8
BLACK
6
CONTINUOUS
10
1.64599
20
0.326725
11
1.64343
21
0.328432
0
LINE
8
BLACK
6
CONTINUOUS
10
1.64343
20
0.328432
11
1.64173
21
0.330987
0
LINE
8
BLACK
6
CONTINUOUS
10
1.64173
20
0.330987
11
1.64113
21
0.334
0
LINE
8
BLACK
6
CONTINUOUS
10
1.64113
20
0.334
11
1.64113
21
0.394
0
LINE
8
BLACK
6
CONTINUOUS
10
1.64113
20
0.394
11
1.64173
21
0.397013
0
LINE
8
BLACK
6
CONTINUOUS
10
1.64173
20
0.397013
11
1.64343
21
0.399568
0
LINE
8
BLACK
6
CONTINUOUS
10
1.64343
20
0.399568
11
1.64599
21
0.401275
0
LINE
8
BLACK
6
CONTINUOUS
10
1.64599
20
0.401275
11
1.649
21
0.401874
0
LINE
8
BLACK
6
CONTINUOUS
10
1.649
20
0.401874
11
1.709
21
0.401874
0
LINE
8
BLACK
6
CONTINUOUS
10
1.709
20
0.401874
11
1.71201
21
0.401275
0
LINE
8
BLACK
6
CONTINUOUS
10
1.61201
20
0.401275
11
1.61457
21
0.399568
0
LINE
8
BLACK
6
CONTINUOUS
10
1.61457
20
0.399568
11
1.61627
21
0.397013
0
LINE
8
BLACK
6
CONTINUOUS
10
1.61627
20
0.397013
11
1.61687
21
0.394
0
LINE
8
BLACK
6
CONTINUOUS
10
1.61687
20
0.394
11
1.61687
21
0.334
0
LINE
8
BLACK
6
CONTINUOUS
10
1.61687
20
0.334
11
1.61627
21
0.330987
0
LINE
8
BLACK
6
CONTINUOUS
10
1.61627
20
0.330987
11
1.61457
21
0.328432
0
LINE
8
BLACK
6
CONTINUOUS
10
1.61457
20
0.328432
11
1.61201
21
0.326725
0
LINE
8
BLACK
6
CONTINUOUS
10
1.61201
20
0.326725
11
1.609
21
0.326126
0
LINE
8
BLACK
6
CONTINUOUS
10
1.609
20
0.326126
11
1.549
21
0.326126
0
LINE
8
BLACK
6
CONTINUOUS
10
1.549
20
0.326126
11
1.54599
21
0.326725
0
LINE
8
BLACK
6
CONTINUOUS
10
1.54599
20
0.326725
11
1.54343
21
0.328432
0
LINE
8
BLACK
6
CONTINUOUS
10
1.54343
20
0.328432
11
1.54173
21
0.330987
0
LINE
8
BLACK
6
CONTINUOUS
10
1.54173
20
0.330987
11
1.54113
21
0.334
0
LINE
8
BLACK
6
CONTINUOUS
10
1.54113
20
0.334
11
1.54113
21
0.394
0
LINE
8
BLACK
6
CONTINUOUS
10
1.54113
20
0.394
11
1.54173
21
0.397013
0
LINE
8
BLACK
6
CONTINUOUS
10
1.54173
20
0.397013
11
1.54343
21
0.399568
0
LINE
8
BLACK
6
CONTINUOUS
10
1.54343
20
0.399568
11
1.54599
21
0.401275
0
LINE
8
BLACK
6
CONTINUOUS
10
1.54599
20
0.401275
11
1.549
21
0.401874
0
LINE
8
BLACK
6
CONTINUOUS
10
1.549
20
0.401874
11
1.609
21
0.401874
0
LINE
8
BLACK
6
CONTINUOUS
10
1.609
20
0.401874
11
1.61201
21
0.401275
0
LINE
8
BLACK
6
CONTINUOUS
10
0.608013
20
0.412275
11
0.610568
21
0.410568
0
LINE
8
BLACK
6
CONTINUOUS
10
0.610568
20
0.410568
11
0.612275
21
0.408013
0
LINE
8
BLACK
6
CONTINUOUS
10
0.612275
20
0.408013
11
0.612874
21
0.405
0
LINE
8
BLACK
6
CONTINUOUS
10
0.612874
20
0.405
11
0.612874
21
0.345
0
LINE
8
BLACK
6
CONTINUOUS
10
0.612874
20
0.345
11
0.612275
21
0.341987
0
LINE
8
BLACK
6
CONTINUOUS
10
0.612275
20
0.341987
11
0.610568
21
0.339432
0
LINE
8
BLACK
6
CONTINUOUS
10
0.610568
20
0.339432
11
0.608013
21
0.337725
0
LINE
8
BLACK
6
CONTINUOUS
10
0.608013
20
0.337725
11
0.605
21
0.337126
0
LINE
8
BLACK
6
CONTINUOUS
10
0.605
20
0.337126
11
0.545
21
0.337126
0
LINE
8
BLACK
6
CONTINUOUS
10
0.545
20
0.337126
11
0.541987
21
0.337725
0
LINE
8
BLACK
6
CONTINUOUS
10
0.541987
20
0.337725
11
0.539432
21
0.339432
0
LINE
8
BLACK
6
CONTINUOUS
10
0.539432
20
0.339432
11
0.537725
21
0.341987
0
LINE
8
BLACK
6
CONTINUOUS
10
0.537725
20
0.341987
11
0.537126
21
0.345
0
LINE
8
BLACK
6
CONTINUOUS
10
0.537126
20
0.345
11
0.537126
21
0.405
0
LINE
8
BLACK
6
CONTINUOUS
10
0.537126
20
0.405
11
0.537725
21
0.408013
0
LINE
8
BLACK
6
CONTINUOUS
10
0.537725
20
0.408013
11
0.539432
21
0.410568
0
LINE
8
BLACK
6
CONTINUOUS
10
0.539432
20
0.410568
11
0.541987
21
0.412275
0
LINE
8
BLACK
6
CONTINUOUS
10
0.541987
20
0.412275
11
0.545
21
0.412874
0
LINE
8
BLACK
6
CONTINUOUS
10
0.545
20
0.412874
11
0.605
21
0.412874
0
LINE
8
BLACK
6
CONTINUOUS
10
0.605
20
0.412874
11
0.608013
21
0.412275
0
LINE
8
BLACK
6
CONTINUOUS
10
0.508013
20
0.412275
11
0.510568
21
0.410568
0
LINE
8
BLACK
6
CONTINUOUS
10
0.510568
20
0.410568
11
0.512275
21
0.408013
0
LINE
8
BLACK
6
CONTINUOUS
10
0.512275
20
0.408013
11
0.512874
21
0.405
0
LINE
8
BLACK
6
CONTINUOUS
10
0.512874
20
0.405
11
0.512874
21
0.345
0
LINE
8
BLACK
6
CONTINUOUS
10
0.512874
20
0.345
11
0.512275
21
0.341987
0
LINE
8
BLACK
6
CONTINUOUS
10
0.512275
20
0.341987
11
0.510568
21
0.339432
0
LINE
8
BLACK
6
CONTINUOUS
10
0.510568
20
0.339432
11
0.508013
21
0.337725
0
LINE
8
BLACK
6
CONTINUOUS
10
0.508013
20
0.337725
11
0.505
21
0.337126
0
LINE
8
BLACK
6
CONTINUOUS
10
0.505
20
0.337126
11
0.445
21
0.337126
0
LINE
8
BLACK
6
CONTINUOUS
10
0.445
20
0.337126
11
0.441987
21
0.337725
0
LINE
8
BLACK
6
CONTINUOUS
10
0.441987
20
0.337725
11
0.439432
21
0.339432
0
LINE
8
BLACK
6
CONTINUOUS
10
0.439432
20
0.339432
11
0.437725
21
0.341987
0
LINE
8
BLACK
6
CONTINUOUS
10
0.437725
20
0.341987
11
0.437126
21
0.345
0
LINE
8
BLACK
6
CONTINUOUS
10
0.437126
20
0.345
11
0.437126
21
0.405
0
LINE
8
BLACK
6
CONTINUOUS
10
0.437126
20
0.405
11
0.437725
21
0.408013
0
LINE
8
BLACK
6
CONTINUOUS
10
0.437725
20
0.408013
11
0.439432
21
0.410568
0
LINE
8
BLACK
6
CONTINUOUS
10
0.439432
20
0.410568
11
0.441987
21
0.412275
0
LINE
8
BLACK
6
CONTINUOUS
10
0.441987
20
0.412275
11
0.445
21
0.412874
0
LINE
8
BLACK
6
CONTINUOUS
10
0.445
20
0.412874
11
0.505
21
0.412874
0
LINE
8
BLACK
6
CONTINUOUS
10
0.505
20
0.412874
11
0.508013
21
0.412275
0
LINE
8
BLACK
6
CONTINUOUS
10
0.408013
20
0.412275
11
0.410568
21
0.410568
0
LINE
8
BLACK
6
CONTINUOUS
10
0.410568
20
0.410568
11
0.412275
21
0.408013
0
LINE
8
BLACK
6
CONTINUOUS
10
0.412275
20
0.408013
11
0.412874
21
0.405
0
LINE
8
BLACK
6
CONTINUOUS
10
0.412874
20
0.405
11
0.412874
21
0.345
0
LINE
8
BLACK
6
CONTINUOUS
10
0.412874
20
0.345
11
0.412275
21
0.341987
0
LINE
8
BLACK
6
CONTINUOUS
10
0.412275
20
0.341987
11
0.410568
21
0.339432
0
LINE
8
BLACK
6
CONTINUOUS
10
0.410568
20
0.339432
11
0.408013
21
0.337725
0
LINE
8
BLACK
6
CONTINUOUS
10
0.408013
20
0.337725
11
0.405
21
0.337126
0
LINE
8
BLACK
6
CONTINUOUS
10
0.405
20
0.337126
11
0.345
21
0.337126
0
LINE
8
BLACK
6
CONTINUOUS
10
0.345
20
0.337126
11
0.341987
21
0.337725
0
LINE
8
BLACK
6
CONTINUOUS
10
0.341987
20
0.337725
11
0.339432
21
0.339432
0
LINE
8
BLACK
6
CONTINUOUS
10
0.339432
20
0.339432
11
0.337725
21
0.341987
0
LINE
8
BLACK
6
CONTINUOUS
10
0.337725
20
0.341987
11
0.337126
21
0.345
0
LINE
8
BLACK
6
CONTINUOUS
10
0.337126
20
0.345
11
0.337126
21
0.405
0
LINE
8
BLACK
6
CONTINUOUS
10
0.337126
20
0.405
11
0.337725
21
0.408013
0
LINE
8
BLACK
6
CONTINUOUS
10
0.337725
20
0.408013
11
0.339432
21
0.410568
0
LINE
8
BLACK
6
CONTINUOUS
10
0.339432
20
0.410568
11
0.341987
21
0.412275
0
LINE
8
BLACK
6
CONTINUOUS
10
0.341987
20
0.412275
11
0.345
21
0.412874
0
LINE
8
BLACK
6
CONTINUOUS
10
0.345
20
0.412874
11
0.405
21
0.412874
0
LINE
8
BLACK
6
CONTINUOUS
10
0.405
20
0.412874
11
0.408013
21
0.412275
0
LINE
8
BLACK
6
CONTINUOUS
10
0.133013
20
0.487275
11
0.135568
21
0.485568
0
LINE
8
BLACK
6
CONTINUOUS
10
0.135568
20
0.485568
11
0.137275
21
0.483013
0
LINE
8
BLACK
6
CONTINUOUS
10
0.137275
20
0.483013
11
0.137874
21
0.48
0
LINE
8
BLACK
6
CONTINUOUS
10
0.137874
20
0.48
11
0.137874
21
0.42
0
LINE
8
BLACK
6
CONTINUOUS
10
0.137874
20
0.42
11
0.137275
21
0.416987
0
LINE
8
BLACK
6
CONTINUOUS
10
0.137275
20
0.416987
11
0.135568
21
0.414432
0
LINE
8
BLACK
6
CONTINUOUS
10
0.135568
20
0.414432
11
0.133013
21
0.412725
0
LINE
8
BLACK
6
CONTINUOUS
10
0.133013
20
0.412725
11
0.13
21
0.412126
0
LINE
8
BLACK
6
CONTINUOUS
10
0.13
20
0.412126
11
0.07
21
0.412126
0
LINE
8
BLACK
6
CONTINUOUS
10
0.07
20
0.412126
11
0.0669867
21
0.412725
0
LINE
8
BLACK
6
CONTINUOUS
10
0.0669867
20
0.412725
11
0.0644322
21
0.414432
0
LINE
8
BLACK
6
CONTINUOUS
10
0.0644322
20
0.414432
11
0.0627254
21
0.416987
0
LINE
8
BLACK
6
CONTINUOUS
10
0.0627254
20
0.416987
11
0.062126
21
0.42
0
LINE
8
BLACK
6
CONTINUOUS
10
0.062126
20
0.42
11
0.062126
21
0.48
0
LINE
8
BLACK
6
CONTINUOUS
10
0.062126
20
0.48
11
0.0627254
21
0.483013
0
LINE
8
BLACK
6
CONTINUOUS
10
0.0627254
20
0.483013
11
0.0644322
21
0.485568
0
LINE
8
BLACK
6
CONTINUOUS
10
0.0644322
20
0.485568
11
0.0669867
21
0.487275
0
LINE
8
BLACK
6
CONTINUOUS
10
0.0669867
20
0.487275
11
0.07
21
0.487874
0
LINE
8
BLACK
6
CONTINUOUS
10
0.07
20
0.487874
11
0.13
21
0.487874
0
LINE
8
BLACK
6
CONTINUOUS
10
0.13
20
0.487874
11
0.133013
21
0.487275
0
LINE
8
BLACK
6
CONTINUOUS
10
0.0330133
20
0.487275
11
0.0355678
21
0.485568
0
LINE
8
BLACK
6
CONTINUOUS
10
0.0355678
20
0.485568
11
0.0372746
21
0.483013
0
LINE
8
BLACK
6
CONTINUOUS
10
0.0372746
20
0.483013
11
0.037874
21
0.48
0
LINE
8
BLACK
6
CONTINUOUS
10
0.037874
20
0.48
11
0.037874
21
0.42
0
LINE
8
BLACK
6
CONTINUOUS
10
0.037874
20
0.42
11
0.0372746
21
0.416987
0
LINE
8
BLACK
6
CONTINUOUS
10
0.0372746
20
0.416987
11
0.0355678
21
0.414432
0
LINE
8
BLACK
6
CONTINUOUS
10
0.0355678
20
0.414432
11
0.0330133
21
0.412725
0
LINE
8
BLACK
6
CONTINUOUS
10
0.0330133
20
0.412725
11
0.03
21
0.412126
0
LINE
8
BLACK
6
CONTINUOUS
10
0.03
20
0.412126
11
-0.03
21
0.412126
0
LINE
8
BLACK
6
CONTINUOUS
10
-0.03
20
0.412126
11
-0.0330133
21
0.412725
0
LINE
8
BLACK
6
CONTINUOUS
10
-0.0330133
20
0.412725
11
-0.0355678
21
0.414432
0
LINE
8
BLACK
6
CONTINUOUS
10
-0.0355678
20
0.414432
11
-0.0372746
21
0.416987
0
LINE
8
BLACK
6
CONTINUOUS
10
-0.0372746
20
0.416987
11
-0.037874
21
0.42
0
LINE
8
BLACK
6
CONTINUOUS
10
-0.037874
20
0.42
11
-0.037874
21
0.48
0
LINE
8
BLACK
6
CONTINUOUS
10
-0.037874
20
0.48
11
-0.0372746
21
0.483013
0
LINE
8
BLACK
6
CONTINUOUS
10
-0.0372746
20
0.483013
11
-0.0355678
21
0.485568
0
LINE
8
BLACK
6
CONTINUOUS
10
-0.0355678
20
0.485568
11
-0.0330133
21
0.487275
0
LINE
8
BLACK
6
CONTINUOUS
10
-0.0330133
20
0.487275
11
-0.03
21
0.487874
0
LINE
8
BLACK
6
CONTINUOUS
10
-0.03
20
0.487874
11
0.03
21
0.487874
0
LINE
8
BLACK
6
CONTINUOUS
10
0.03
20
0.487874
11
0.0330133
21
0.487275
0
LINE
8
BLACK
6
CONTINUOUS
10
1.61201
20
0.501275
11
1.61457
21
0.499568
0
LINE
8
BLACK
6
CONTINUOUS
10
1.61457
20
0.499568
11
1.61627
21
0.497013
0
LINE
8
BLACK
6
CONTINUOUS
10
1.61627
20
0.497013
11
1.61687
21
0.494
0
LINE
8
BLACK
6
CONTINUOUS
10
1.61687
20
0.494
11
1.61687
21
0.434
0
LINE
8
BLACK
6
CONTINUOUS
10
1.61687
20
0.434
11
1.61627
21
0.430987
0
LINE
8
BLACK
6
CONTINUOUS
10
1.61627
20
0.430987
11
1.61457
21
0.428432
0
LINE
8
BLACK
6
CONTINUOUS
10
1.61457
20
0.428432
11
1.61201
21
0.426725
0
LINE
8
BLACK
6
CONTINUOUS
10
1.61201
20
0.426725
11
1.609
21
0.426126
0
LINE
8
BLACK
6
CONTINUOUS
10
1.609
20
0.426126
11
1.549
21
0.426126
0
LINE
8
BLACK
6
CONTINUOUS
10
1.549
20
0.426126
11
1.54599
21
0.426725
0
LINE
8
BLACK
6
CONTINUOUS
10
1.54599
20
0.426725
11
1.54343
21
0.428432
0
LINE
8
BLACK
6
CONTINUOUS
10
1.54343
20
0.428432
11
1.54173
21
0.430987
0
LINE
8
BLACK
6
CONTINUOUS
10
1.54173
20
0.430987
11
1.54113
21
0.434
0
LINE
8
BLACK
6
CONTINUOUS
10
1.54113
20
0.434
11
1.54113
21
0.494
0
LINE
8
BLACK
6
CONTINUOUS
10
1.54113
20
0.494
11
1.54173
21
0.497013
0
LINE
8
BLACK
6
CONTINUOUS
10
1.54173
20
0.497013
11
1.54343
21
0.499568
0
LINE
8
BLACK
6
CONTINUOUS
10
1.54343
20
0.499568
11
1.54599
21
0.501275
0
LINE
8
BLACK
6
CONTINUOUS
10
1.54599
20
0.501275
11
1.549
21
0.501874
0
LINE
8
BLACK
6
CONTINUOUS
10
1.549
20
0.501874
11
1.609
21
0.501874
0
LINE
8
BLACK
6
CONTINUOUS
10
1.609
20
0.501874
11
1.61201
21
0.501275
0
LINE
8
BLACK
6
CONTINUOUS
10
1.71201
20
0.501275
11
1.71457
21
0.499568
0
LINE
8
BLACK
6
CONTINUOUS
10
1.71457
20
0.499568
11
1.71627
21
0.497013
0
LINE
8
BLACK
6
CONTINUOUS
10
1.71627
20
0.497013
11
1.71687
21
0.494
0
LINE
8
BLACK
6
CONTINUOUS
10
1.71687
20
0.494
11
1.71687
21
0.434
0
LINE
8
BLACK
6
CONTINUOUS
10
1.71687
20
0.434
11
1.71627
21
0.430987
0
LINE
8
BLACK
6
CONTINUOUS
10
1.71627
20
0.430987
11
1.71457
21
0.428432
0
LINE
8
BLACK
6
CONTINUOUS
10
1.71457
20
0.428432
11
1.71201
21
0.426725
0
LINE
8
BLACK
6
CONTINUOUS
10
1.71201
20
0.426725
11
1.709
21
0.426126
0
LINE
8
BLACK
6
CONTINUOUS
10
1.709
20
0.426126
11
1.649
21
0.426126
0
LINE
8
BLACK
6
CONTINUOUS
10
1.649
20
0.426126
11
1.64599
21
0.426725
0
LINE
8
BLACK
6
CONTINUOUS
10
1.64599
20
0.426725
11
1.64343
21
0.428432
0
LINE
8
BLACK
6
CONTINUOUS
10
1.64343
20
0.428432
11
1.64173
21
0.430987
0
LINE
8
BLACK
6
CONTINUOUS
10
1.64173
20
0.430987
11
1.64113
21
0.434
0
LINE
8
BLACK
6
CONTINUOUS
10
1.64113
20
0.434
11
1.64113
21
0.494
0
LINE
8
BLACK
6
CONTINUOUS
10
1.64113
20
0.494
11
1.64173
21
0.497013
0
LINE
8
BLACK
6
CONTINUOUS
10
1.64173
20
0.497013
11
1.64343
21
0.499568
0
LINE
8
BLACK
6
CONTINUOUS
10
1.64343
20
0.499568
11
1.64599
21
0.501275
0
LINE
8
BLACK
6
CONTINUOUS
10
1.64599
20
0.501275
11
1.649
21
0.501874
0
LINE
8
BLACK
6
CONTINUOUS
10
1.649
20
0.501874
11
1.709
21
0.501874
0
LINE
8
BLACK
6
CONTINUOUS
10
1.709
20
0.501874
11
1.71201
21
0.501275
0
LINE
8
BLACK
6
CONTINUOUS
10
0.0330133
20
0.587275
11
0.0355678
21
0.585568
0
LINE
8
BLACK
6
CONTINUOUS
10
0.0355678
20
0.585568
11
0.0372746
21
0.583013
0
LINE
8
BLACK
6
CONTINUOUS
10
0.0372746
20
0.583013
11
0.037874
21
0.58
0
LINE
8
BLACK
6
CONTINUOUS
10
0.037874
20
0.58
11
0.037874
21
0.52
0
LINE
8
BLACK
6
CONTINUOUS
10
0.037874
20
0.52
11
0.0372746
21
0.516987
0
LINE
8
BLACK
6
CONTINUOUS
10
0.0372746
20
0.516987
11
0.0355678
21
0.514432
0
LINE
8
BLACK
6
CONTINUOUS
10
0.0355678
20
0.514432
11
0.0330133
21
0.512725
0
LINE
8
BLACK
6
CONTINUOUS
10
0.0330133
20
0.512725
11
0.03
21
0.512126
0
LINE
8
BLACK
6
CONTINUOUS
10
0.03
20
0.512126
11
-0.03
21
0.512126
0
LINE
8
BLACK
6
CONTINUOUS
10
-0.03
20
0.512126
11
-0.0330133
21
0.512725
0
LINE
8
BLACK
6
CONTINUOUS
10
-0.0330133
20
0.512725
11
-0.0355678
21
0.514432
0
LINE
8
BLACK
6
CONTINUOUS
10
-0.0355678
20
0.514432
11
-0.0372746
21
0.516987
0
LINE
8
BLACK
6
CONTINUOUS
10
-0.0372746
20
0.516987
11
-0.037874
21
0.52
0
LINE
8
BLACK
6
CONTINUOUS
10
-0.037874
20
0.52
11
-0.037874
21
0.58
0
LINE
8
BLACK
6
CONTINUOUS
10
-0.037874
20
0.58
11
-0.0372746
21
0.583013
0
LINE
8
BLACK
6
CONTINUOUS
10
-0.0372746
20
0.583013
11
-0.0355678
21
0.585568
0
LINE
8
BLACK
6
CONTINUOUS
10
-0.0355678
20
0.585568
11
-0.0330133
21
0.587275
0
LINE
8
BLACK
6
CONTINUOUS
10
-0.0330133
20
0.587275
11
-0.03
21
0.587874
0
LINE
8
BLACK
6
CONTINUOUS
10
-0.03
20
0.587874
11
0.03
21
0.587874
0
LINE
8
BLACK
6
CONTINUOUS
10
0.03
20
0.587874
11
0.0330133
21
0.587275
0
LINE
8
BLACK
6
CONTINUOUS
10
0.133013
20
0.587275
11
0.135568
21
0.585568
0
LINE
8
BLACK
6
CONTINUOUS
10
0.135568
20
0.585568
11
0.137275
21
0.583013
0
LINE
8
BLACK
6
CONTINUOUS
10
0.137275
20
0.583013
11
0.137874
21
0.58
0
LINE
8
BLACK
6
CONTINUOUS
10
0.137874
20
0.58
11
0.137874
21
0.52
0
LINE
8
BLACK
6
CONTINUOUS
10
0.137874
20
0.52
11
0.137275
21
0.516987
0
LINE
8
BLACK
6
CONTINUOUS
10
0.137275
20
0.516987
11
0.135568
21
0.514432
0
LINE
8
BLACK
6
CONTINUOUS
10
0.135568
20
0.514432
11
0.133013
21
0.512725
0
LINE
8
BLACK
6
CONTINUOUS
10
0.133013
20
0.512725
11
0.13
21
0.512126
0
LINE
8
BLACK
6
CONTINUOUS
10
0.13
20
0.512126
11
0.07
21
0.512126
0
LINE
8
BLACK
6
CONTINUOUS
10
0.07
20
0.512126
11
0.0669867
21
0.512725
0
LINE
8
BLACK
6
CONTINUOUS
10
0.0669867
20
0.512725
11
0.0644322
21
0.514432
0
LINE
8
BLACK
6
CONTINUOUS
10
0.0644322
20
0.514432
11
0.0627254
21
0.516987
0
LINE
8
BLACK
6
CONTINUOUS
10
0.0627254
20
0.516987
11
0.062126
21
0.52
0
LINE
8
BLACK
6
CONTINUOUS
10
0.062126
20
0.52
11
0.062126
21
0.58
0
LINE
8
BLACK
6
CONTINUOUS
10
0.062126
20
0.58
11
0.0627254
21
0.583013
0
LINE
8
BLACK
6
CONTINUOUS
10
0.0627254
20
0.583013
11
0.0644322
21
0.585568
0
LINE
8
BLACK
6
CONTINUOUS
10
0.0644322
20
0.585568
11
0.0669867
21
0.587275
0
LINE
8
BLACK
6
CONTINUOUS
10
0.0669867
20
0.587275
11
0.07
21
0.587874
0
LINE
8
BLACK
6
CONTINUOUS
10
0.07
20
0.587874
11
0.13
21
0.587874
0
LINE
8
BLACK
6
CONTINUOUS
10
0.13
20
0.587874
11
0.133013
21
0.587275
0
LINE
8
BLACK
6
CONTINUOUS
10
1.71201
20
0.601275
11
1.71457
21
0.599568
0
LINE
8
BLACK
6
CONTINUOUS
10
1.71457
20
0.599568
11
1.71627
21
0.597013
0
LINE
8
BLACK
6
CONTINUOUS
10
1.71627
20
0.597013
11
1.71687
21
0.594
0
LINE
8
BLACK
6
CONTINUOUS
10
1.71687
20
0.594
11
1.71687
21
0.534
0
LINE
8
BLACK
6
CONTINUOUS
10
1.71687
20
0.534
11
1.71627
21
0.530987
0
LINE
8
BLACK
6
CONTINUOUS
10
1.71627
20
0.530987
11
1.71457
21
0.528432
0
LINE
8
BLACK
6
CONTINUOUS
10
1.71457
20
0.528432
11
1.71201
21
0.526725
0
LINE
8
BLACK
6
CONTINUOUS
10
1.71201
20
0.526725
11
1.709
21
0.526126
0
LINE
8
BLACK
6
CONTINUOUS
10
1.709
20
0.526126
11
1.649
21
0.526126
0
LINE
8
BLACK
6
CONTINUOUS
10
1.649
20
0.526126
11
1.64599
21
0.526725
0
LINE
8
BLACK
6
CONTINUOUS
10
1.64599
20
0.526725
11
1.64343
21
0.528432
0
LINE
8
BLACK
6
CONTINUOUS
10
1.64343
20
0.528432
11
1.64173
21
0.530987
0
LINE
8
BLACK
6
CONTINUOUS
10
1.64173
20
0.530987
11
1.64113
21
0.534
0
LINE
8
BLACK
6
CONTINUOUS
10
1.64113
20
0.534
11
1.64113
21
0.594
0
LINE
8
BLACK
6
CONTINUOUS
10
1.64113
20
0.594
11
1.64173
21
0.597013
0
LINE
8
BLACK
6
CONTINUOUS
10
1.64173
20
0.597013
11
1.64343
21
0.599568
0
LINE
8
BLACK
6
CONTINUOUS
10
1.64343
20
0.599568
11
1.64599
21
0.601275
0
LINE
8
BLACK
6
CONTINUOUS
10
1.64599
20
0.601275
11
1.649
21
0.601874
0
LINE
8
BLACK
6
CONTINUOUS
10
1.649
20
0.601874
11
1.709
21
0.601874
0
LINE
8
BLACK
6
CONTINUOUS
10
1.709
20
0.601874
11
1.71201
21
0.601275
0
LINE
8
BLACK
6
CONTINUOUS
10
1.61201
20
0.601275
11
1.61457
21
0.599568
0
LINE
8
BLACK
6
CONTINUOUS
10
1.61457
20
0.599568
11
1.61627
21
0.597013
0
LINE
8
BLACK
6
CONTINUOUS
10
1.61627
20
0.597013
11
1.61687
21
0.594
0
LINE
8
BLACK
6
CONTINUOUS
10
1.61687
20
0.594
11
1.61687
21
0.534
0
LINE
8
BLACK
6
CONTINUOUS
10
1.61687
20
0.534
11
1.61627
21
0.530987
0
LINE
8
BLACK
6
CONTINUOUS
10
1.61627
20
0.530987
11
1.61457
21
0.528432
0
LINE
8
BLACK
6
CONTINUOUS
10
1.61457
20
0.528432
11
1.61201
21
0.526725
0
LINE
8
BLACK
6
CONTINUOUS
10
1.61201
20
0.526725
11
1.609
21
0.526126
0
LINE
8
BLACK
6
CONTINUOUS
10
1.609
20
0.526126
11
1.549
21
0.526126
0
LINE
8
BLACK
6
CONTINUOUS
10
1.549
20
0.526126
11
1.54599
21
0.526725
0
LINE
8
BLACK
6
CONTINUOUS
10
1.54599
20
0.526725
11
1.54343
21
0.528432
0
LINE
8
BLACK
6
CONTINUOUS
10
1.54343
20
0.528432
11
1.54173
21
0.530987
0
LINE
8
BLACK
6
CONTINUOUS
10
1.54173
20
0.530987
11
1.54113
21
0.534
0
LINE
8
BLACK
6
CONTINUOUS
10
1.54113
20
0.534
11
1.54113
21
0.594
0
LINE
8
BLACK
6
CONTINUOUS
10
1.54113
20
0.594
11
1.54173
21
0.597013
0
LINE
8
BLACK
6
CONTINUOUS
10
1.54173
20
0.597013
11
1.54343
21
0.599568
0
LINE
8
BLACK
6
CONTINUOUS
10
1.54343
20
0.599568
11
1.54599
21
0.601275
0
LINE
8
BLACK
6
CONTINUOUS
10
1.54599
20
0.601275
11
1.549
21
0.601874
0
LINE
8
BLACK
6
CONTINUOUS
10
1.549
20
0.601874
11
1.609
21
0.601874
0
LINE
8
BLACK
6
CONTINUOUS
10
1.609
20
0.601874
11
1.61201
21
0.601275
0
LINE
8
BLACK
6
CONTINUOUS
10
0.843013
20
0.687275
11
0.845568
21
0.685568
0
LINE
8
BLACK
6
CONTINUOUS
10
0.845568
20
0.685568
11
0.847275
21
0.683013
0
LINE
8
BLACK
6
CONTINUOUS
10
0.847275
20
0.683013
11
0.847874
21
0.68
0
LINE
8
BLACK
6
CONTINUOUS
10
0.847874
20
0.68
11
0.847874
21
0.62
0
LINE
8
BLACK
6
CONTINUOUS
10
0.847874
20
0.62
11
0.847275
21
0.616987
0
LINE
8
BLACK
6
CONTINUOUS
10
0.847275
20
0.616987
11
0.845568
21
0.614432
0
LINE
8
BLACK
6
CONTINUOUS
10
0.845568
20
0.614432
11
0.843013
21
0.612725
0
LINE
8
BLACK
6
CONTINUOUS
10
0.843013
20
0.612725
11
0.84
21
0.612126
0
LINE
8
BLACK
6
CONTINUOUS
10
0.84
20
0.612126
11
0.78
21
0.612126
0
LINE
8
BLACK
6
CONTINUOUS
10
0.78
20
0.612126
11
0.776987
21
0.612725
0
LINE
8
BLACK
6
CONTINUOUS
10
0.776987
20
0.612725
11
0.774432
21
0.614432
0
LINE
8
BLACK
6
CONTINUOUS
10
0.774432
20
0.614432
11
0.772725
21
0.616987
0
LINE
8
BLACK
6
CONTINUOUS
10
0.772725
20
0.616987
11
0.772126
21
0.62
0
LINE
8
BLACK
6
CONTINUOUS
10
0.772126
20
0.62
11
0.772126
21
0.68
0
LINE
8
BLACK
6
CONTINUOUS
10
0.772126
20
0.68
11
0.772725
21
0.683013
0
LINE
8
BLACK
6
CONTINUOUS
10
0.772725
20
0.683013
11
0.774432
21
0.685568
0
LINE
8
BLACK
6
CONTINUOUS
10
0.774432
20
0.685568
11
0.776987
21
0.687275
0
LINE
8
BLACK
6
CONTINUOUS
10
0.776987
20
0.687275
11
0.78
21
0.687874
0
LINE
8
BLACK
6
CONTINUOUS
10
0.78
20
0.687874
11
0.84
21
0.687874
0
LINE
8
BLACK
6
CONTINUOUS
10
0.84
20
0.687874
11
0.843013
21
0.687275
0
LINE
8
BLACK
6
CONTINUOUS
10
0.014917
20
0.925098
11
0.0287686
21
0.922656
0
LINE
8
BLACK
6
CONTINUOUS
10
0.0287686
20
0.922656
11
0.0422616
21
0.918684
0
LINE
8
BLACK
6
CONTINUOUS
10
0.0422616
20
0.918684
11
0.0552279
21
0.913234
0
LINE
8
BLACK
6
CONTINUOUS
10
0.0552279
20
0.913234
11
0.0675057
21
0.906372
0
LINE
8
BLACK
6
CONTINUOUS
10
0.0675057
20
0.906372
11
0.0789422
21
0.898184
0
LINE
8
BLACK
6
CONTINUOUS
10
0.0789422
20
0.898184
11
0.0893947
21
0.888773
0
LINE
8
BLACK
6
CONTINUOUS
10
0.0893947
20
0.888773
11
0.098733
21
0.878255
0
LINE
8
BLACK
6
CONTINUOUS
10
0.098733
20
0.878255
11
0.106841
21
0.866761
0
LINE
8
BLACK
6
CONTINUOUS
10
0.106841
20
0.866761
11
0.113617
21
0.854436
0
LINE
8
BLACK
6
CONTINUOUS
10
0.113617
20
0.854436
11
0.118977
21
0.841432
0
LINE
8
BLACK
6
CONTINUOUS
10
0.118977
20
0.841432
11
0.122853
21
0.827912
0
LINE
8
BLACK
6
CONTINUOUS
10
0.122853
20
0.827912
11
0.125199
21
0.814043
0
LINE
8
BLACK
6
CONTINUOUS
10
0.125199
20
0.814043
11
0.125984
21
0.8
0
LINE
8
BLACK
6
CONTINUOUS
10
0.125984
20
0.8
11
0.125935
21
0.796482
0
LINE
8
BLACK
6
CONTINUOUS
10
0.125935
20
0.796482
11
0.124758
21
0.782466
0
LINE
8
BLACK
6
CONTINUOUS
10
0.124758
20
0.782466
11
0.122026
21
0.768669
0
LINE
8
BLACK
6
CONTINUOUS
10
0.122026
20
0.768669
11
0.117773
21
0.755262
0
LINE
8
BLACK
6
CONTINUOUS
10
0.117773
20
0.755262
11
0.112052
21
0.742413
0
LINE
8
BLACK
6
CONTINUOUS
10
0.112052
20
0.742413
11
0.104935
21
0.730281
0
LINE
8
BLACK
6
CONTINUOUS
10
0.104935
20
0.730281
11
0.0965095
21
0.719019
0
LINE
8
BLACK
6
CONTINUOUS
10
0.0965095
20
0.719019
11
0.0868812
21
0.708766
0
LINE
8
BLACK
6
CONTINUOUS
10
0.0868812
20
0.708766
11
0.07617
21
0.69965
0
LINE
8
BLACK
6
CONTINUOUS
10
0.07617
20
0.69965
11
0.0645093
21
0.691785
0
LINE
8
BLACK
6
CONTINUOUS
10
0.0645093
20
0.691785
11
0.0520446
21
0.685268
0
LINE
8
BLACK
6
CONTINUOUS
10
0.0520446
20
0.685268
11
0.0389313
21
0.680182
0
LINE
8
BLACK
6
CONTINUOUS
10
0.0389313
20
0.680182
11
0.0253326
21
0.676589
0
LINE
8
BLACK
6
CONTINUOUS
10
0.0253326
20
0.676589
11
0.0114183
21
0.674534
0
LINE
8
BLACK
6
CONTINUOUS
10
0.0114183
20
0.674534
11
-0.00263843
21
0.674043
0
LINE
8
BLACK
6
CONTINUOUS
10
-0.00263843
20
0.674043
11
-0.0166622
21
0.675122
0
LINE
8
BLACK
6
CONTINUOUS
10
-0.0166622
20
0.675122
11
-0.0304783
21
0.677758
0
LINE
8
BLACK
6
CONTINUOUS
10
-0.0304783
20
0.677758
11
-0.0439146
21
0.681917
0
LINE
8
BLACK
6
CONTINUOUS
10
-0.0439146
20
0.681917
11
-0.0568035
21
0.687548
0
LINE
8
BLACK
6
CONTINUOUS
10
-0.0568035
20
0.687548
11
-0.0689843
21
0.694581
0
LINE
8
BLACK
6
CONTINUOUS
10
-0.0689843
20
0.694581
11
-0.0803054
21
0.702927
0
LINE
8
BLACK
6
CONTINUOUS
10
-0.0803054
20
0.702927
11
-0.0906255
21
0.712484
0
LINE
8
BLACK
6
CONTINUOUS
10
-0.0906255
20
0.712484
11
-0.099816
21
0.723131
0
LINE
8
BLACK
6
CONTINUOUS
10
-0.099816
20
0.723131
11
-0.107762
21
0.734737
0
LINE
8
BLACK
6
CONTINUOUS
10
-0.107762
20
0.734737
11
-0.114366
21
0.747156
0
LINE
8
BLACK
6
CONTINUOUS
10
-0.114366
20
0.747156
11
-0.119543
21
0.760233
0
LINE
8
BLACK
6
CONTINUOUS
10
-0.119543
20
0.760233
11
-0.123231
21
0.773806
0
LINE
8
BLACK
6
CONTINUOUS
10
-0.123231
20
0.773806
11
-0.125383
21
0.787706
0
LINE
8
BLACK
6
CONTINUOUS
10
-0.125383
20
0.787706
11
-0.125972
21
0.801759
0
LINE
8
BLACK
6
CONTINUOUS
10
-0.125972
20
0.801759
11
-0.124991
21
0.81579
0
LINE
8
BLACK
6
CONTINUOUS
10
-0.124991
20
0.81579
11
-0.122452
21
0.829624
0
LINE
8
BLACK
6
CONTINUOUS
10
-0.122452
20
0.829624
11
-0.118386
21
0.843089
0
LINE
8
BLACK
6
CONTINUOUS
10
-0.118386
20
0.843089
11
-0.112846
21
0.856017
0
LINE
8
BLACK
6
CONTINUOUS
10
-0.112846
20
0.856017
11
-0.105898
21
0.868247
0
LINE
8
BLACK
6
CONTINUOUS
10
-0.105898
20
0.868247
11
-0.0976308
21
0.879626
0
LINE
8
BLACK
6
CONTINUOUS
10
-0.0976308
20
0.879626
11
-0.0881466
21
0.890012
0
LINE
8
BLACK
6
CONTINUOUS
10
-0.0881466
20
0.890012
11
-0.0775637
21
0.899277
0
LINE
8
BLACK
6
CONTINUOUS
10
-0.0775637
20
0.899277
11
-0.066014
21
0.907304
0
LINE
8
BLACK
6
CONTINUOUS
10
-0.066014
20
0.907304
11
-0.0536415
21
0.913994
0
LINE
8
BLACK
6
CONTINUOUS
10
-0.0536415
20
0.913994
11
-0.0406004
21
0.919263
0
LINE
8
BLACK
6
CONTINUOUS
10
-0.0406004
20
0.919263
11
-0.0270533
21
0.923045
0
LINE
8
BLACK
6
CONTINUOUS
10
-0.0270533
20
0.923045
11
-0.0131689
21
0.925294
0
LINE
8
BLACK
6
CONTINUOUS
10
-0.0131689
20
0.925294
11
0.000879528
21
0.925981
0
LINE
8
BLACK
6
CONTINUOUS
10
0.000879528
20
0.925981
11
0.014917
21
0.925098
0
LINE
8
BLACK
6
CONTINUOUS
10
1.61492
20
0.925098
11
1.62877
21
0.922656
0
LINE
8
BLACK
6
CONTINUOUS
10
1.62877
20
0.922656
11
1.64226
21
0.918684
0
LINE
8
BLACK
6
CONTINUOUS
10
1.64226
20
0.918684
11
1.65523
21
0.913234
0
LINE
8
BLACK
6
CONTINUOUS
10
1.65523
20
0.913234
11
1.66751
21
0.906372
0
LINE
8
BLACK
6
CONTINUOUS
10
1.66751
20
0.906372
11
1.67894
21
0.898184
0
LINE
8
BLACK
6
CONTINUOUS
10
1.67894
20
0.898184
11
1.68939
21
0.888773
0
LINE
8
BLACK
6
CONTINUOUS
10
1.68939
20
0.888773
11
1.69873
21
0.878255
0
LINE
8
BLACK
6
CONTINUOUS
10
1.69873
20
0.878255
11
1.70684
21
0.866761
0
LINE
8
BLACK
6
CONTINUOUS
10
1.70684
20
0.866761
11
1.71362
21
0.854436
0
LINE
8
BLACK
6
CONTINUOUS
10
1.71362
20
0.854436
11
1.71898
21
0.841432
0
LINE
8
BLACK
6
CONTINUOUS
10
1.71898
20
0.841432
11
1.72285
21
0.827912
0
LINE
8
BLACK
6
CONTINUOUS
10
1.72285
20
0.827912
11
1.7252
21
0.814043
0
LINE
8
BLACK
6
CONTINUOUS
10
1.7252
20
0.814043
11
1.72598
21
0.8
0
LINE
8
BLACK
6
CONTINUOUS
10
1.72598
20
0.8
11
1.72594
21
0.796482
0
LINE
8
BLACK
6
CONTINUOUS
10
1.72594
20
0.796482
11
1.72476
21
0.782466
0
LINE
8
BLACK
6
CONTINUOUS
10
1.72476
20
0.782466
11
1.72203
21
0.768669
0
LINE
8
BLACK
6
CONTINUOUS
10
1.72203
20
0.768669
11
1.71777
21
0.755262
0
LINE
8
BLACK
6
CONTINUOUS
10
1.71777
20
0.755262
11
1.71205
21
0.742413
0
LINE
8
BLACK
6
CONTINUOUS
10
1.71205
20
0.742413
11
1.70493
21
0.730281
0
LINE
8
BLACK
6
CONTINUOUS
10
1.70493
20
0.730281
11
1.69651
21
0.719019
0
LINE
8
BLACK
6
CONTINUOUS
10
1.69651
20
0.719019
11
1.68688
21
0.708766
0
LINE
8
BLACK
6
CONTINUOUS
10
1.68688
20
0.708766
11
1.67617
21
0.69965
0
LINE
8
BLACK
6
CONTINUOUS
10
1.67617
20
0.69965
11
1.66451
21
0.691785
0
LINE
8
BLACK
6
CONTINUOUS
10
1.66451
20
0.691785
11
1.65204
21
0.685268
0
LINE
8
BLACK
6
CONTINUOUS
10
1.65204
20
0.685268
11
1.63893
21
0.680182
0
LINE
8
BLACK
6
CONTINUOUS
10
1.63893
20
0.680182
11
1.62533
21
0.676589
0
LINE
8
BLACK
6
CONTINUOUS
10
1.62533
20
0.676589
11
1.61142
21
0.674534
0
LINE
8
BLACK
6
CONTINUOUS
10
1.61142
20
0.674534
11
1.59736
21
0.674043
0
LINE
8
BLACK
6
CONTINUOUS
10
1.59736
20
0.674043
11
1.58334
21
0.675122
0
LINE
8
BLACK
6
CONTINUOUS
10
1.58334
20
0.675122
11
1.56952
21
0.677758
0
LINE
8
BLACK
6
CONTINUOUS
10
1.56952
20
0.677758
11
1.55609
21
0.681917
0
LINE
8
BLACK
6
CONTINUOUS
10
1.55609
20
0.681917
11
1.5432
21
0.687548
0
LINE
8
BLACK
6
CONTINUOUS
10
1.5432
20
0.687548
11
1.53102
21
0.694581
0
LINE
8
BLACK
6
CONTINUOUS
10
1.53102
20
0.694581
11
1.51969
21
0.702927
0
LINE
8
BLACK
6
CONTINUOUS
10
1.51969
20
0.702927
11
1.50937
21
0.712484
0
LINE
8
BLACK
6
CONTINUOUS
10
1.50937
20
0.712484
11
1.50018
21
0.723131
0
LINE
8
BLACK
6
CONTINUOUS
10
1.50018
20
0.723131
11
1.49224
21
0.734737
0
LINE
8
BLACK
6
CONTINUOUS
10
1.49224
20
0.734737
11
1.48563
21
0.747156
0
LINE
8
BLACK
6
CONTINUOUS
10
1.48563
20
0.747156
11
1.48046
21
0.760233
0
LINE
8
BLACK
6
CONTINUOUS
10
1.48046
20
0.760233
11
1.47677
21
0.773806
0
LINE
8
BLACK
6
CONTINUOUS
10
1.47677
20
0.773806
11
1.47462
21
0.787706
0
LINE
8
BLACK
6
CONTINUOUS
10
1.47462
20
0.787706
11
1.47403
21
0.801759
0
LINE
8
BLACK
6
CONTINUOUS
10
1.47403
20
0.801759
11
1.47501
21
0.81579
0
LINE
8
BLACK
6
CONTINUOUS
10
1.47501
20
0.81579
11
1.47755
21
0.829624
0
LINE
8
BLACK
6
CONTINUOUS
10
1.47755
20
0.829624
11
1.48161
21
0.843089
0
LINE
8
BLACK
6
CONTINUOUS
10
1.48161
20
0.843089
11
1.48715
21
0.856017
0
LINE
8
BLACK
6
CONTINUOUS
10
1.48715
20
0.856017
11
1.4941
21
0.868247
0
LINE
8
BLACK
6
CONTINUOUS
10
1.4941
20
0.868247
11
1.50237
21
0.879626
0
LINE
8
BLACK
6
CONTINUOUS
10
1.50237
20
0.879626
11
1.51185
21
0.890012
0
LINE
8
BLACK
6
CONTINUOUS
10
1.51185
20
0.890012
11
1.52244
21
0.899277
0
LINE
8
BLACK
6
CONTINUOUS
10
1.52244
20
0.899277
11
1.53399
21
0.907304
0
LINE
8
BLACK
6
CONTINUOUS
10
1.53399
20
0.907304
11
1.54636
21
0.913994
0
LINE
8
BLACK
6
CONTINUOUS
10
1.54636
20
0.913994
11
1.5594
21
0.919263
0
LINE
8
BLACK
6
CONTINUOUS
10
1.5594
20
0.919263
11
1.57295
21
0.923045
0
LINE
8
BLACK
6
CONTINUOUS
10
1.57295
20
0.923045
11
1.58683
21
0.925294
0
LINE
8
BLACK
6
CONTINUOUS
10
1.58683
20
0.925294
11
1.60088
21
0.925981
0
LINE
8
BLACK
6
CONTINUOUS
10
1.60088
20
0.925981
11
1.61492
21
0.925098
0
LINE
8
BLACK
6
CONTINUOUS
10
0.843013
20
0.787275
11
0.845568
21
0.785568
0
LINE
8
BLACK
6
CONTINUOUS
10
0.845568
20
0.785568
11
0.847275
21
0.783013
0
LINE
8
BLACK
6
CONTINUOUS
10
0.847275
20
0.783013
11
0.847874
21
0.78
0
LINE
8
BLACK
6
CONTINUOUS
10
0.847874
20
0.78
11
0.847874
21
0.72
0
LINE
8
BLACK
6
CONTINUOUS
10
0.847874
20
0.72
11
0.847275
21
0.716987
0
LINE
8
BLACK
6
CONTINUOUS
10
0.847275
20
0.716987
11
0.845568
21
0.714432
0
LINE
8
BLACK
6
CONTINUOUS
10
0.845568
20
0.714432
11
0.843013
21
0.712725
0
LINE
8
BLACK
6
CONTINUOUS
10
0.843013
20
0.712725
11
0.84
21
0.712126
0
LINE
8
BLACK
6
CONTINUOUS
10
0.84
20
0.712126
11
0.78
21
0.712126
0
LINE
8
BLACK
6
CONTINUOUS
10
0.78
20
0.712126
11
0.776987
21
0.712725
0
LINE
8
BLACK
6
CONTINUOUS
10
0.776987
20
0.712725
11
0.774432
21
0.714432
0
LINE
8
BLACK
6
CONTINUOUS
10
0.774432
20
0.714432
11
0.772725
21
0.716987
0
LINE
8
BLACK
6
CONTINUOUS
10
0.772725
20
0.716987
11
0.772126
21
0.72
0
LINE
8
BLACK
6
CONTINUOUS
10
0.772126
20
0.72
11
0.772126
21
0.78
0
LINE
8
BLACK
6
CONTINUOUS
10
0.772126
20
0.78
11
0.772725
21
0.783013
0
LINE
8
BLACK
6
CONTINUOUS
10
0.772725
20
0.783013
11
0.774432
21
0.785568
0
LINE
8
BLACK
6
CONTINUOUS
10
0.774432
20
0.785568
11
0.776987
21
0.787275
0
LINE
8
BLACK
6
CONTINUOUS
10
0.776987
20
0.787275
11
0.78
21
0.787874
0
LINE
8
BLACK
6
CONTINUOUS
10
0.78
20
0.787874
11
0.84
21
0.787874
0
LINE
8
BLACK
6
CONTINUOUS
10
0.84
20
0.787874
11
0.843013
21
0.787275
  0
ENDSEC
  0
EOF
