  0
SECTION
  2
HEADER
  9
$ANGBASE
  50
0.0
  9
$ANGDIR
  70
1
  9
$MEASUREMENT
  70
0
  0
ENDSEC
  0
SECTION
  2
TABLES
  0
TABLE
  2
LTYPE
  70
4
  0
LTYPE
  5
40F
  2
CONTINUOUS
  70
0
  3
Solid line
  72
65
  73
0
  40
0.0
  0
LTYPE
  5
410
  2
DASHDOT
 70
0
  3
Dash Dot ____ _ ____ _
 72
65
 73
4
 40
2.0
 49
1.25
 49
-0.25
 49
0.25
 49
-0.25
  0
LTYPE
  5
411
  2
DASHED
 70
0
  3
Dashed __ __ __ __ __
 72
65
 73
2
 40
0.75
 49
0.5
 49
-0.25
  0
LTYPE
  5
43B
  2
DOTTED
 70
0
  3
Dotted .  .  .  .
 72
65
 73
2
 40
0.2
 49
0.0
 49
-0.2
  0
ENDTAB
  0
TABLE
  2
STYLE
  70
4
  0
STYLE
  2
KICAD
  70
0
  40
0
  41
1
  42
1
  50
0
  71
0
  3
isocp.shx
  0
STYLE
  2
KICADB
  70
0
  40
0
  41
1
  42
1
  50
0
  71
0
  3
isocp.shx
  0
STYLE
  2
KICADI
  70
0
  40
0
  41
1
  42
1
  50
15
  71
0
  3
isocp.shx
  0
STYLE
  2
KICADBI
  70
0
  40
0
  41
1
  42
1
  50
15
  71
0
  3
isocp.shx
  0
ENDTAB
  0
TABLE
  2
LAYER
  70
1
  0
LAYER
  2
BLACK
  70
0
  62
7
  6
CONTINUOUS
  0
ENDTAB
  0
ENDSEC
  0
SECTION
  2
ENTITIES
0
LINE
8
BLACK
6
CONTINUOUS
10
7.19814
20
-2.95206
11
7.19955
21
-2.95401
0
LINE
8
BLACK
6
CONTINUOUS
10
7.19955
20
-2.95401
11
7.19974
21
-2.95522
0
LINE
8
BLACK
6
CONTINUOUS
10
7.19974
20
-2.95522
11
7.19974
21
-4.08722
0
LINE
8
BLACK
6
CONTINUOUS
10
7.19974
20
-4.08722
11
7.199
21
-4.08952
0
LINE
8
BLACK
6
CONTINUOUS
10
7.199
20
-4.08952
11
7.19705
21
-4.09093
0
LINE
8
BLACK
6
CONTINUOUS
10
7.19705
20
-4.09093
11
7.19585
21
-4.09112
0
LINE
8
BLACK
6
CONTINUOUS
10
7.19585
20
-4.09112
11
6.5117
21
-4.09112
0
LINE
8
BLACK
6
CONTINUOUS
10
6.5117
20
-4.09112
11
6.50941
21
-4.09038
0
LINE
8
BLACK
6
CONTINUOUS
10
6.50941
20
-4.09038
11
6.50799
21
-4.08843
0
LINE
8
BLACK
6
CONTINUOUS
10
6.50799
20
-4.08843
11
6.50799
21
-4.08602
0
LINE
8
BLACK
6
CONTINUOUS
10
6.50799
20
-4.08602
11
6.50894
21
-4.08447
0
LINE
8
BLACK
6
CONTINUOUS
10
6.50894
20
-4.08447
11
6.51853
21
-4.07488
0
LINE
8
BLACK
6
CONTINUOUS
10
6.51853
20
-4.07488
11
6.52068
21
-4.07379
0
LINE
8
BLACK
6
CONTINUOUS
10
6.52068
20
-4.07379
11
6.52129
21
-4.07374
0
LINE
8
BLACK
6
CONTINUOUS
10
6.52129
20
-4.07374
11
6.55624
21
-4.07374
0
LINE
8
BLACK
6
CONTINUOUS
10
6.55624
20
-4.07374
11
6.55703
21
-4.07365
0
LINE
8
BLACK
6
CONTINUOUS
10
6.55703
20
-4.07365
11
6.55844
21
-4.0735
0
LINE
8
BLACK
6
CONTINUOUS
10
6.55844
20
-4.0735
11
6.55844
21
-4.0735
0
LINE
8
BLACK
6
CONTINUOUS
10
6.55844
20
-4.0735
11
6.55869
21
-4.07347
0
LINE
8
BLACK
6
CONTINUOUS
10
6.55869
20
-4.07347
11
6.56406
21
-4.07146
0
LINE
8
BLACK
6
CONTINUOUS
10
6.56406
20
-4.07146
11
6.56864
21
-4.06802
0
LINE
8
BLACK
6
CONTINUOUS
10
6.56864
20
-4.06802
11
6.57208
21
-4.06343
0
LINE
8
BLACK
6
CONTINUOUS
10
6.57208
20
-4.06343
11
6.5741
21
-4.05806
0
LINE
8
BLACK
6
CONTINUOUS
10
6.5741
20
-4.05806
11
6.57436
21
-4.05562
0
LINE
8
BLACK
6
CONTINUOUS
10
6.57436
20
-4.05562
11
6.57436
21
-3.98683
0
LINE
8
BLACK
6
CONTINUOUS
10
6.57436
20
-3.98683
11
6.5741
21
-3.98438
0
LINE
8
BLACK
6
CONTINUOUS
10
6.5741
20
-3.98438
11
6.57208
21
-3.97901
0
LINE
8
BLACK
6
CONTINUOUS
10
6.57208
20
-3.97901
11
6.56864
21
-3.97442
0
LINE
8
BLACK
6
CONTINUOUS
10
6.56864
20
-3.97442
11
6.56842
21
-3.97425
0
LINE
8
BLACK
6
CONTINUOUS
10
6.56842
20
-3.97425
11
6.56823
21
-3.97406
0
LINE
8
BLACK
6
CONTINUOUS
10
6.56823
20
-3.97406
11
6.56829
21
-3.97399
0
LINE
8
BLACK
6
CONTINUOUS
10
6.56829
20
-3.97399
11
6.56715
21
-3.97237
0
LINE
8
BLACK
6
CONTINUOUS
10
6.56715
20
-3.97237
11
6.56719
21
-3.96996
0
LINE
8
BLACK
6
CONTINUOUS
10
6.56719
20
-3.96996
11
6.56829
21
-3.96845
0
LINE
8
BLACK
6
CONTINUOUS
10
6.56829
20
-3.96845
11
6.56823
21
-3.96838
0
LINE
8
BLACK
6
CONTINUOUS
10
6.56823
20
-3.96838
11
6.56842
21
-3.96819
0
LINE
8
BLACK
6
CONTINUOUS
10
6.56842
20
-3.96819
11
6.56864
21
-3.96802
0
LINE
8
BLACK
6
CONTINUOUS
10
6.56864
20
-3.96802
11
6.57208
21
-3.96343
0
LINE
8
BLACK
6
CONTINUOUS
10
6.57208
20
-3.96343
11
6.5741
21
-3.95806
0
LINE
8
BLACK
6
CONTINUOUS
10
6.5741
20
-3.95806
11
6.57436
21
-3.95562
0
LINE
8
BLACK
6
CONTINUOUS
10
6.57436
20
-3.95562
11
6.57436
21
-3.88683
0
LINE
8
BLACK
6
CONTINUOUS
10
6.57436
20
-3.88683
11
6.5741
21
-3.88438
0
LINE
8
BLACK
6
CONTINUOUS
10
6.5741
20
-3.88438
11
6.57208
21
-3.87901
0
LINE
8
BLACK
6
CONTINUOUS
10
6.57208
20
-3.87901
11
6.56864
21
-3.87442
0
LINE
8
BLACK
6
CONTINUOUS
10
6.56864
20
-3.87442
11
6.56406
21
-3.87098
0
LINE
8
BLACK
6
CONTINUOUS
10
6.56406
20
-3.87098
11
6.55869
21
-3.86897
0
LINE
8
BLACK
6
CONTINUOUS
10
6.55869
20
-3.86897
11
6.55844
21
-3.86894
0
LINE
8
BLACK
6
CONTINUOUS
10
6.55844
20
-3.86894
11
6.55844
21
-3.86894
0
LINE
8
BLACK
6
CONTINUOUS
10
6.55844
20
-3.86894
11
6.55703
21
-3.86879
0
LINE
8
BLACK
6
CONTINUOUS
10
6.55703
20
-3.86879
11
6.55624
21
-3.8687
0
LINE
8
BLACK
6
CONTINUOUS
10
6.55624
20
-3.8687
11
6.48745
21
-3.8687
0
LINE
8
BLACK
6
CONTINUOUS
10
6.48745
20
-3.8687
11
6.48666
21
-3.86879
0
LINE
8
BLACK
6
CONTINUOUS
10
6.48666
20
-3.86879
11
6.48524
21
-3.86894
0
LINE
8
BLACK
6
CONTINUOUS
10
6.48524
20
-3.86894
11
6.48524
21
-3.86894
0
LINE
8
BLACK
6
CONTINUOUS
10
6.48524
20
-3.86894
11
6.485
21
-3.86897
0
LINE
8
BLACK
6
CONTINUOUS
10
6.485
20
-3.86897
11
6.47963
21
-3.87098
0
LINE
8
BLACK
6
CONTINUOUS
10
6.47963
20
-3.87098
11
6.47504
21
-3.87442
0
LINE
8
BLACK
6
CONTINUOUS
10
6.47504
20
-3.87442
11
6.47487
21
-3.87464
0
LINE
8
BLACK
6
CONTINUOUS
10
6.47487
20
-3.87464
11
6.47468
21
-3.87484
0
LINE
8
BLACK
6
CONTINUOUS
10
6.47468
20
-3.87484
11
6.47461
21
-3.87477
0
LINE
8
BLACK
6
CONTINUOUS
10
6.47461
20
-3.87477
11
6.47299
21
-3.87591
0
LINE
8
BLACK
6
CONTINUOUS
10
6.47299
20
-3.87591
11
6.47058
21
-3.87588
0
LINE
8
BLACK
6
CONTINUOUS
10
6.47058
20
-3.87588
11
6.46907
21
-3.87478
0
LINE
8
BLACK
6
CONTINUOUS
10
6.46907
20
-3.87478
11
6.46901
21
-3.87484
0
LINE
8
BLACK
6
CONTINUOUS
10
6.46901
20
-3.87484
11
6.46881
21
-3.87464
0
LINE
8
BLACK
6
CONTINUOUS
10
6.46881
20
-3.87464
11
6.46864
21
-3.87442
0
LINE
8
BLACK
6
CONTINUOUS
10
6.46864
20
-3.87442
11
6.46406
21
-3.87098
0
LINE
8
BLACK
6
CONTINUOUS
10
6.46406
20
-3.87098
11
6.45869
21
-3.86897
0
LINE
8
BLACK
6
CONTINUOUS
10
6.45869
20
-3.86897
11
6.45844
21
-3.86894
0
LINE
8
BLACK
6
CONTINUOUS
10
6.45844
20
-3.86894
11
6.45844
21
-3.86894
0
LINE
8
BLACK
6
CONTINUOUS
10
6.45844
20
-3.86894
11
6.45703
21
-3.86879
0
LINE
8
BLACK
6
CONTINUOUS
10
6.45703
20
-3.86879
11
6.45624
21
-3.8687
0
LINE
8
BLACK
6
CONTINUOUS
10
6.45624
20
-3.8687
11
6.4556
21
-3.8687
0
LINE
8
BLACK
6
CONTINUOUS
10
6.4556
20
-3.8687
11
6.45331
21
-3.86796
0
LINE
8
BLACK
6
CONTINUOUS
10
6.45331
20
-3.86796
11
6.4519
21
-3.86601
0
LINE
8
BLACK
6
CONTINUOUS
10
6.4519
20
-3.86601
11
6.4517
21
-3.8648
0
LINE
8
BLACK
6
CONTINUOUS
10
6.4517
20
-3.8648
11
6.4517
21
-3.76138
0
LINE
8
BLACK
6
CONTINUOUS
10
6.4517
20
-3.76138
11
6.45175
21
-3.76079
0
LINE
8
BLACK
6
CONTINUOUS
10
6.45175
20
-3.76079
11
6.45186
21
-3.76009
0
LINE
8
BLACK
6
CONTINUOUS
10
6.45186
20
-3.76009
11
6.45186
21
-3.76009
0
LINE
8
BLACK
6
CONTINUOUS
10
6.45186
20
-3.76009
11
6.45189
21
-3.75987
0
LINE
8
BLACK
6
CONTINUOUS
10
6.45189
20
-3.75987
11
6.45172
21
-3.75775
0
LINE
8
BLACK
6
CONTINUOUS
10
6.45172
20
-3.75775
11
6.4517
21
-3.75744
0
LINE
8
BLACK
6
CONTINUOUS
10
6.4517
20
-3.75744
11
6.4517
21
-3.75708
0
LINE
8
BLACK
6
CONTINUOUS
10
6.4517
20
-3.75708
11
6.45157
21
-3.75595
0
LINE
8
BLACK
6
CONTINUOUS
10
6.45157
20
-3.75595
11
6.45156
21
-3.75581
0
LINE
8
BLACK
6
CONTINUOUS
10
6.45156
20
-3.75581
11
6.45134
21
-3.75316
0
LINE
8
BLACK
6
CONTINUOUS
10
6.45134
20
-3.75316
11
6.45134
21
-3.75315
0
LINE
8
BLACK
6
CONTINUOUS
10
6.45134
20
-3.75315
11
6.45133
21
-3.75293
0
LINE
8
BLACK
6
CONTINUOUS
10
6.45133
20
-3.75293
11
6.45126
21
-3.75271
0
LINE
8
BLACK
6
CONTINUOUS
10
6.45126
20
-3.75271
11
6.45121
21
-3.75249
0
LINE
8
BLACK
6
CONTINUOUS
10
6.45121
20
-3.75249
11
6.45122
21
-3.75249
0
LINE
8
BLACK
6
CONTINUOUS
10
6.45122
20
-3.75249
11
6.45118
21
-3.75235
0
LINE
8
BLACK
6
CONTINUOUS
10
6.45118
20
-3.75235
11
6.45118
21
-3.75235
0
LINE
8
BLACK
6
CONTINUOUS
10
6.45118
20
-3.75235
11
6.45113
21
-3.75213
0
LINE
8
BLACK
6
CONTINUOUS
10
6.45113
20
-3.75213
11
6.4511
21
-3.7519
0
LINE
8
BLACK
6
CONTINUOUS
10
6.4511
20
-3.7519
11
6.45088
21
-3.75129
0
LINE
8
BLACK
6
CONTINUOUS
10
6.45088
20
-3.75129
11
6.45011
21
-3.74919
0
LINE
8
BLACK
6
CONTINUOUS
10
6.45011
20
-3.74919
11
6.45007
21
-3.74906
0
LINE
8
BLACK
6
CONTINUOUS
10
6.45007
20
-3.74906
11
6.44925
21
-3.74652
0
LINE
8
BLACK
6
CONTINUOUS
10
6.44925
20
-3.74652
11
6.44918
21
-3.7463
0
LINE
8
BLACK
6
CONTINUOUS
10
6.44918
20
-3.7463
11
6.44906
21
-3.74611
0
LINE
8
BLACK
6
CONTINUOUS
10
6.44906
20
-3.74611
11
6.44897
21
-3.74591
0
LINE
8
BLACK
6
CONTINUOUS
10
6.44897
20
-3.74591
11
6.44897
21
-3.7459
0
LINE
8
BLACK
6
CONTINUOUS
10
6.44897
20
-3.7459
11
6.44891
21
-3.74577
0
LINE
8
BLACK
6
CONTINUOUS
10
6.44891
20
-3.74577
11
6.4489
21
-3.74577
0
LINE
8
BLACK
6
CONTINUOUS
10
6.4489
20
-3.74577
11
6.4488
21
-3.74557
0
LINE
8
BLACK
6
CONTINUOUS
10
6.4488
20
-3.74557
11
6.44873
21
-3.74536
0
LINE
8
BLACK
6
CONTINUOUS
10
6.44873
20
-3.74536
11
6.44714
21
-3.74294
0
LINE
8
BLACK
6
CONTINUOUS
10
6.44714
20
-3.74294
11
6.44707
21
-3.74283
0
LINE
8
BLACK
6
CONTINUOUS
10
6.44707
20
-3.74283
11
6.44566
21
-3.7405
0
LINE
8
BLACK
6
CONTINUOUS
10
6.44566
20
-3.7405
11
6.44566
21
-3.7405
0
LINE
8
BLACK
6
CONTINUOUS
10
6.44566
20
-3.7405
11
6.44557
21
-3.74035
0
LINE
8
BLACK
6
CONTINUOUS
10
6.44557
20
-3.74035
11
6.44528
21
-3.74002
0
LINE
8
BLACK
6
CONTINUOUS
10
6.44528
20
-3.74002
11
6.44528
21
-3.74002
0
LINE
8
BLACK
6
CONTINUOUS
10
6.44528
20
-3.74002
11
6.44518
21
-3.73989
0
LINE
8
BLACK
6
CONTINUOUS
10
6.44518
20
-3.73989
11
6.44518
21
-3.7399
0
LINE
8
BLACK
6
CONTINUOUS
10
6.44518
20
-3.7399
11
6.44503
21
-3.73972
0
LINE
8
BLACK
6
CONTINUOUS
10
6.44503
20
-3.73972
11
6.44491
21
-3.73953
0
LINE
8
BLACK
6
CONTINUOUS
10
6.44491
20
-3.73953
11
6.44268
21
-3.73743
0
LINE
8
BLACK
6
CONTINUOUS
10
6.44268
20
-3.73743
11
6.44261
21
-3.73736
0
LINE
8
BLACK
6
CONTINUOUS
10
6.44261
20
-3.73736
11
6.43356
21
-3.72831
0
LINE
8
BLACK
6
CONTINUOUS
10
6.43356
20
-3.72831
11
6.4325
21
-3.72622
0
LINE
8
BLACK
6
CONTINUOUS
10
6.4325
20
-3.72622
11
6.42234
21
-3.72622
0
LINE
8
BLACK
6
CONTINUOUS
10
6.42234
20
-3.72622
11
6.42234
21
-3.69122
0
LINE
8
BLACK
6
CONTINUOUS
10
6.42234
20
-3.69122
11
6.42949
21
-3.69122
0
LINE
8
BLACK
6
CONTINUOUS
10
6.42949
20
-3.69122
11
6.42944
21
-3.69109
0
LINE
8
BLACK
6
CONTINUOUS
10
6.42944
20
-3.69109
11
6.42786
21
-3.68867
0
LINE
8
BLACK
6
CONTINUOUS
10
6.42786
20
-3.68867
11
6.42778
21
-3.68855
0
LINE
8
BLACK
6
CONTINUOUS
10
6.42778
20
-3.68855
11
6.42637
21
-3.68623
0
LINE
8
BLACK
6
CONTINUOUS
10
6.42637
20
-3.68623
11
6.42637
21
-3.68623
0
LINE
8
BLACK
6
CONTINUOUS
10
6.42637
20
-3.68623
11
6.42628
21
-3.68608
0
LINE
8
BLACK
6
CONTINUOUS
10
6.42628
20
-3.68608
11
6.42599
21
-3.68575
0
LINE
8
BLACK
6
CONTINUOUS
10
6.42599
20
-3.68575
11
6.426
21
-3.68574
0
LINE
8
BLACK
6
CONTINUOUS
10
6.426
20
-3.68574
11
6.4259
21
-3.68562
0
LINE
8
BLACK
6
CONTINUOUS
10
6.4259
20
-3.68562
11
6.42589
21
-3.68562
0
LINE
8
BLACK
6
CONTINUOUS
10
6.42589
20
-3.68562
11
6.42575
21
-3.68545
0
LINE
8
BLACK
6
CONTINUOUS
10
6.42575
20
-3.68545
11
6.42562
21
-3.68526
0
LINE
8
BLACK
6
CONTINUOUS
10
6.42562
20
-3.68526
11
6.4234
21
-3.68316
0
LINE
8
BLACK
6
CONTINUOUS
10
6.4234
20
-3.68316
11
6.42333
21
-3.68308
0
LINE
8
BLACK
6
CONTINUOUS
10
6.42333
20
-3.68308
11
6.41814
21
-3.67789
0
LINE
8
BLACK
6
CONTINUOUS
10
6.41814
20
-3.67789
11
6.41704
21
-3.67575
0
LINE
8
BLACK
6
CONTINUOUS
10
6.41704
20
-3.67575
11
6.41742
21
-3.67337
0
LINE
8
BLACK
6
CONTINUOUS
10
6.41742
20
-3.67337
11
6.41912
21
-3.67166
0
LINE
8
BLACK
6
CONTINUOUS
10
6.41912
20
-3.67166
11
6.42089
21
-3.67124
0
LINE
8
BLACK
6
CONTINUOUS
10
6.42089
20
-3.67124
11
6.47924
21
-3.67124
0
LINE
8
BLACK
6
CONTINUOUS
10
6.47924
20
-3.67124
11
6.48003
21
-3.67115
0
LINE
8
BLACK
6
CONTINUOUS
10
6.48003
20
-3.67115
11
6.48144
21
-3.671
0
LINE
8
BLACK
6
CONTINUOUS
10
6.48144
20
-3.671
11
6.48144
21
-3.671
0
LINE
8
BLACK
6
CONTINUOUS
10
6.48144
20
-3.671
11
6.48169
21
-3.67097
0
LINE
8
BLACK
6
CONTINUOUS
10
6.48169
20
-3.67097
11
6.48706
21
-3.66896
0
LINE
8
BLACK
6
CONTINUOUS
10
6.48706
20
-3.66896
11
6.49164
21
-3.66552
0
LINE
8
BLACK
6
CONTINUOUS
10
6.49164
20
-3.66552
11
6.49181
21
-3.6653
0
LINE
8
BLACK
6
CONTINUOUS
10
6.49181
20
-3.6653
11
6.49181
21
-3.6653
0
LINE
8
BLACK
6
CONTINUOUS
10
6.49181
20
-3.6653
11
6.49422
21
-3.66208
0
LINE
8
BLACK
6
CONTINUOUS
10
6.49422
20
-3.66208
11
6.49619
21
-3.66069
0
LINE
8
BLACK
6
CONTINUOUS
10
6.49619
20
-3.66069
11
6.4986
21
-3.66073
0
LINE
8
BLACK
6
CONTINUOUS
10
6.4986
20
-3.66073
11
6.50046
21
-3.66208
0
LINE
8
BLACK
6
CONTINUOUS
10
6.50046
20
-3.66208
11
6.50287
21
-3.6653
0
LINE
8
BLACK
6
CONTINUOUS
10
6.50287
20
-3.6653
11
6.50287
21
-3.6653
0
LINE
8
BLACK
6
CONTINUOUS
10
6.50287
20
-3.6653
11
6.50304
21
-3.66552
0
LINE
8
BLACK
6
CONTINUOUS
10
6.50304
20
-3.66552
11
6.50763
21
-3.66896
0
LINE
8
BLACK
6
CONTINUOUS
10
6.50763
20
-3.66896
11
6.513
21
-3.67097
0
LINE
8
BLACK
6
CONTINUOUS
10
6.513
20
-3.67097
11
6.51324
21
-3.671
0
LINE
8
BLACK
6
CONTINUOUS
10
6.51324
20
-3.671
11
6.51324
21
-3.671
0
LINE
8
BLACK
6
CONTINUOUS
10
6.51324
20
-3.671
11
6.51466
21
-3.67115
0
LINE
8
BLACK
6
CONTINUOUS
10
6.51466
20
-3.67115
11
6.51545
21
-3.67124
0
LINE
8
BLACK
6
CONTINUOUS
10
6.51545
20
-3.67124
11
6.5713
21
-3.67124
0
LINE
8
BLACK
6
CONTINUOUS
10
6.5713
20
-3.67124
11
6.57359
21
-3.67198
0
LINE
8
BLACK
6
CONTINUOUS
10
6.57359
20
-3.67198
11
6.57406
21
-3.67238
0
LINE
8
BLACK
6
CONTINUOUS
10
6.57406
20
-3.67238
11
6.59618
21
-3.69451
0
LINE
8
BLACK
6
CONTINUOUS
10
6.59618
20
-3.69451
11
6.59727
21
-3.69665
0
LINE
8
BLACK
6
CONTINUOUS
10
6.59727
20
-3.69665
11
6.59732
21
-3.69726
0
LINE
8
BLACK
6
CONTINUOUS
10
6.59732
20
-3.69726
11
6.59732
21
-3.72312
0
LINE
8
BLACK
6
CONTINUOUS
10
6.59732
20
-3.72312
11
6.59759
21
-3.72556
0
LINE
8
BLACK
6
CONTINUOUS
10
6.59759
20
-3.72556
11
6.5996
21
-3.73093
0
LINE
8
BLACK
6
CONTINUOUS
10
6.5996
20
-3.73093
11
6.60304
21
-3.73552
0
LINE
8
BLACK
6
CONTINUOUS
10
6.60304
20
-3.73552
11
6.60763
21
-3.73896
0
LINE
8
BLACK
6
CONTINUOUS
10
6.60763
20
-3.73896
11
6.60789
21
-3.73906
0
LINE
8
BLACK
6
CONTINUOUS
10
6.60789
20
-3.73906
11
6.60789
21
-3.73906
0
LINE
8
BLACK
6
CONTINUOUS
10
6.60789
20
-3.73906
11
6.6086
21
-3.73933
0
LINE
8
BLACK
6
CONTINUOUS
10
6.6086
20
-3.73933
11
6.613
21
-3.74097
0
LINE
8
BLACK
6
CONTINUOUS
10
6.613
20
-3.74097
11
6.61324
21
-3.741
0
LINE
8
BLACK
6
CONTINUOUS
10
6.61324
20
-3.741
11
6.61324
21
-3.741
0
LINE
8
BLACK
6
CONTINUOUS
10
6.61324
20
-3.741
11
6.61466
21
-3.74115
0
LINE
8
BLACK
6
CONTINUOUS
10
6.61466
20
-3.74115
11
6.61545
21
-3.74124
0
LINE
8
BLACK
6
CONTINUOUS
10
6.61545
20
-3.74124
11
6.67424
21
-3.74124
0
LINE
8
BLACK
6
CONTINUOUS
10
6.67424
20
-3.74124
11
6.67503
21
-3.74115
0
LINE
8
BLACK
6
CONTINUOUS
10
6.67503
20
-3.74115
11
6.67644
21
-3.741
0
LINE
8
BLACK
6
CONTINUOUS
10
6.67644
20
-3.741
11
6.67644
21
-3.741
0
LINE
8
BLACK
6
CONTINUOUS
10
6.67644
20
-3.741
11
6.67669
21
-3.74097
0
LINE
8
BLACK
6
CONTINUOUS
10
6.67669
20
-3.74097
11
6.68108
21
-3.73933
0
LINE
8
BLACK
6
CONTINUOUS
10
6.68108
20
-3.73933
11
6.6818
21
-3.73906
0
LINE
8
BLACK
6
CONTINUOUS
10
6.6818
20
-3.73906
11
6.6818
21
-3.73906
0
LINE
8
BLACK
6
CONTINUOUS
10
6.6818
20
-3.73906
11
6.68206
21
-3.73896
0
LINE
8
BLACK
6
CONTINUOUS
10
6.68206
20
-3.73896
11
6.68664
21
-3.73552
0
LINE
8
BLACK
6
CONTINUOUS
10
6.68664
20
-3.73552
11
6.68681
21
-3.7353
0
LINE
8
BLACK
6
CONTINUOUS
10
6.68681
20
-3.7353
11
6.68681
21
-3.7353
0
LINE
8
BLACK
6
CONTINUOUS
10
6.68681
20
-3.7353
11
6.6884
21
-3.73317
0
LINE
8
BLACK
6
CONTINUOUS
10
6.6884
20
-3.73317
11
6.69037
21
-3.73179
0
LINE
8
BLACK
6
CONTINUOUS
10
6.69037
20
-3.73179
11
6.69152
21
-3.73161
0
LINE
8
BLACK
6
CONTINUOUS
10
6.69152
20
-3.73161
11
6.69316
21
-3.73161
0
LINE
8
BLACK
6
CONTINUOUS
10
6.69316
20
-3.73161
11
6.69545
21
-3.73236
0
LINE
8
BLACK
6
CONTINUOUS
10
6.69545
20
-3.73236
11
6.69628
21
-3.73317
0
LINE
8
BLACK
6
CONTINUOUS
10
6.69628
20
-3.73317
11
6.69787
21
-3.7353
0
LINE
8
BLACK
6
CONTINUOUS
10
6.69787
20
-3.7353
11
6.69787
21
-3.7353
0
LINE
8
BLACK
6
CONTINUOUS
10
6.69787
20
-3.7353
11
6.69804
21
-3.73552
0
LINE
8
BLACK
6
CONTINUOUS
10
6.69804
20
-3.73552
11
6.70263
21
-3.73896
0
LINE
8
BLACK
6
CONTINUOUS
10
6.70263
20
-3.73896
11
6.70289
21
-3.73906
0
LINE
8
BLACK
6
CONTINUOUS
10
6.70289
20
-3.73906
11
6.70289
21
-3.73906
0
LINE
8
BLACK
6
CONTINUOUS
10
6.70289
20
-3.73906
11
6.7036
21
-3.73933
0
LINE
8
BLACK
6
CONTINUOUS
10
6.7036
20
-3.73933
11
6.708
21
-3.74097
0
LINE
8
BLACK
6
CONTINUOUS
10
6.708
20
-3.74097
11
6.70824
21
-3.741
0
LINE
8
BLACK
6
CONTINUOUS
10
6.70824
20
-3.741
11
6.70824
21
-3.741
0
LINE
8
BLACK
6
CONTINUOUS
10
6.70824
20
-3.741
11
6.70966
21
-3.74115
0
LINE
8
BLACK
6
CONTINUOUS
10
6.70966
20
-3.74115
11
6.71045
21
-3.74124
0
LINE
8
BLACK
6
CONTINUOUS
10
6.71045
20
-3.74124
11
6.76924
21
-3.74124
0
LINE
8
BLACK
6
CONTINUOUS
10
6.76924
20
-3.74124
11
6.77003
21
-3.74115
0
LINE
8
BLACK
6
CONTINUOUS
10
6.77003
20
-3.74115
11
6.77144
21
-3.741
0
LINE
8
BLACK
6
CONTINUOUS
10
6.77144
20
-3.741
11
6.77144
21
-3.741
0
LINE
8
BLACK
6
CONTINUOUS
10
6.77144
20
-3.741
11
6.77169
21
-3.74097
0
LINE
8
BLACK
6
CONTINUOUS
10
6.77169
20
-3.74097
11
6.77608
21
-3.73933
0
LINE
8
BLACK
6
CONTINUOUS
10
6.77608
20
-3.73933
11
6.7768
21
-3.73906
0
LINE
8
BLACK
6
CONTINUOUS
10
6.7768
20
-3.73906
11
6.7768
21
-3.73906
0
LINE
8
BLACK
6
CONTINUOUS
10
6.7768
20
-3.73906
11
6.77706
21
-3.73896
0
LINE
8
BLACK
6
CONTINUOUS
10
6.77706
20
-3.73896
11
6.78164
21
-3.73552
0
LINE
8
BLACK
6
CONTINUOUS
10
6.78164
20
-3.73552
11
6.78508
21
-3.73093
0
LINE
8
BLACK
6
CONTINUOUS
10
6.78508
20
-3.73093
11
6.7871
21
-3.72556
0
LINE
8
BLACK
6
CONTINUOUS
10
6.7871
20
-3.72556
11
6.78736
21
-3.72312
0
LINE
8
BLACK
6
CONTINUOUS
10
6.78736
20
-3.72312
11
6.78736
21
-3.68433
0
LINE
8
BLACK
6
CONTINUOUS
10
6.78736
20
-3.68433
11
6.7871
21
-3.68188
0
LINE
8
BLACK
6
CONTINUOUS
10
6.7871
20
-3.68188
11
6.78508
21
-3.67651
0
LINE
8
BLACK
6
CONTINUOUS
10
6.78508
20
-3.67651
11
6.78164
21
-3.67192
0
LINE
8
BLACK
6
CONTINUOUS
10
6.78164
20
-3.67192
11
6.78142
21
-3.67175
0
LINE
8
BLACK
6
CONTINUOUS
10
6.78142
20
-3.67175
11
6.78142
21
-3.67175
0
LINE
8
BLACK
6
CONTINUOUS
10
6.78142
20
-3.67175
11
6.7782
21
-3.66934
0
LINE
8
BLACK
6
CONTINUOUS
10
6.7782
20
-3.66934
11
6.77682
21
-3.66737
0
LINE
8
BLACK
6
CONTINUOUS
10
6.77682
20
-3.66737
11
6.77685
21
-3.66496
0
LINE
8
BLACK
6
CONTINUOUS
10
6.77685
20
-3.66496
11
6.7782
21
-3.6631
0
LINE
8
BLACK
6
CONTINUOUS
10
6.7782
20
-3.6631
11
6.78142
21
-3.66069
0
LINE
8
BLACK
6
CONTINUOUS
10
6.78142
20
-3.66069
11
6.78142
21
-3.66069
0
LINE
8
BLACK
6
CONTINUOUS
10
6.78142
20
-3.66069
11
6.78164
21
-3.66052
0
LINE
8
BLACK
6
CONTINUOUS
10
6.78164
20
-3.66052
11
6.78181
21
-3.6603
0
LINE
8
BLACK
6
CONTINUOUS
10
6.78181
20
-3.6603
11
6.78181
21
-3.6603
0
LINE
8
BLACK
6
CONTINUOUS
10
6.78181
20
-3.6603
11
6.7834
21
-3.65817
0
LINE
8
BLACK
6
CONTINUOUS
10
6.7834
20
-3.65817
11
6.78537
21
-3.65679
0
LINE
8
BLACK
6
CONTINUOUS
10
6.78537
20
-3.65679
11
6.78652
21
-3.65661
0
LINE
8
BLACK
6
CONTINUOUS
10
6.78652
20
-3.65661
11
6.80874
21
-3.65661
0
LINE
8
BLACK
6
CONTINUOUS
10
6.80874
20
-3.65661
11
6.80901
21
-3.65662
0
LINE
8
BLACK
6
CONTINUOUS
10
6.80901
20
-3.65662
11
6.81131
21
-3.65678
0
LINE
8
BLACK
6
CONTINUOUS
10
6.81131
20
-3.65678
11
6.81244
21
-3.65658
0
LINE
8
BLACK
6
CONTINUOUS
10
6.81244
20
-3.65658
11
6.81382
21
-3.65634
0
LINE
8
BLACK
6
CONTINUOUS
10
6.81382
20
-3.65634
11
6.81402
21
-3.65631
0
LINE
8
BLACK
6
CONTINUOUS
10
6.81402
20
-3.65631
11
6.81439
21
-3.65627
0
LINE
8
BLACK
6
CONTINUOUS
10
6.81439
20
-3.65627
11
6.81486
21
-3.65624
0
LINE
8
BLACK
6
CONTINUOUS
10
6.81486
20
-3.65624
11
6.84924
21
-3.65624
0
LINE
8
BLACK
6
CONTINUOUS
10
6.84924
20
-3.65624
11
6.85003
21
-3.65615
0
LINE
8
BLACK
6
CONTINUOUS
10
6.85003
20
-3.65615
11
6.85144
21
-3.656
0
LINE
8
BLACK
6
CONTINUOUS
10
6.85144
20
-3.656
11
6.85144
21
-3.656
0
LINE
8
BLACK
6
CONTINUOUS
10
6.85144
20
-3.656
11
6.85169
21
-3.65597
0
LINE
8
BLACK
6
CONTINUOUS
10
6.85169
20
-3.65597
11
6.85706
21
-3.65396
0
LINE
8
BLACK
6
CONTINUOUS
10
6.85706
20
-3.65396
11
6.86164
21
-3.65052
0
LINE
8
BLACK
6
CONTINUOUS
10
6.86164
20
-3.65052
11
6.86508
21
-3.64593
0
LINE
8
BLACK
6
CONTINUOUS
10
6.86508
20
-3.64593
11
6.8671
21
-3.64056
0
LINE
8
BLACK
6
CONTINUOUS
10
6.8671
20
-3.64056
11
6.86736
21
-3.63812
0
LINE
8
BLACK
6
CONTINUOUS
10
6.86736
20
-3.63812
11
6.86736
21
-3.59933
0
LINE
8
BLACK
6
CONTINUOUS
10
6.86736
20
-3.59933
11
6.8671
21
-3.59688
0
LINE
8
BLACK
6
CONTINUOUS
10
6.8671
20
-3.59688
11
6.86582
21
-3.59348
0
LINE
8
BLACK
6
CONTINUOUS
10
6.86582
20
-3.59348
11
6.86518
21
-3.59177
0
LINE
8
BLACK
6
CONTINUOUS
10
6.86518
20
-3.59177
11
6.86518
21
-3.59177
0
LINE
8
BLACK
6
CONTINUOUS
10
6.86518
20
-3.59177
11
6.86508
21
-3.59151
0
LINE
8
BLACK
6
CONTINUOUS
10
6.86508
20
-3.59151
11
6.86164
21
-3.58692
0
LINE
8
BLACK
6
CONTINUOUS
10
6.86164
20
-3.58692
11
6.86142
21
-3.58675
0
LINE
8
BLACK
6
CONTINUOUS
10
6.86142
20
-3.58675
11
6.86142
21
-3.58675
0
LINE
8
BLACK
6
CONTINUOUS
10
6.86142
20
-3.58675
11
6.8582
21
-3.58434
0
LINE
8
BLACK
6
CONTINUOUS
10
6.8582
20
-3.58434
11
6.85682
21
-3.58237
0
LINE
8
BLACK
6
CONTINUOUS
10
6.85682
20
-3.58237
11
6.85685
21
-3.57996
0
LINE
8
BLACK
6
CONTINUOUS
10
6.85685
20
-3.57996
11
6.8582
21
-3.5781
0
LINE
8
BLACK
6
CONTINUOUS
10
6.8582
20
-3.5781
11
6.86142
21
-3.57569
0
LINE
8
BLACK
6
CONTINUOUS
10
6.86142
20
-3.57569
11
6.86142
21
-3.57569
0
LINE
8
BLACK
6
CONTINUOUS
10
6.86142
20
-3.57569
11
6.86164
21
-3.57552
0
LINE
8
BLACK
6
CONTINUOUS
10
6.86164
20
-3.57552
11
6.86181
21
-3.5753
0
LINE
8
BLACK
6
CONTINUOUS
10
6.86181
20
-3.5753
11
6.86201
21
-3.5751
0
LINE
8
BLACK
6
CONTINUOUS
10
6.86201
20
-3.5751
11
6.86207
21
-3.57517
0
LINE
8
BLACK
6
CONTINUOUS
10
6.86207
20
-3.57517
11
6.86369
21
-3.57403
0
LINE
8
BLACK
6
CONTINUOUS
10
6.86369
20
-3.57403
11
6.8661
21
-3.57406
0
LINE
8
BLACK
6
CONTINUOUS
10
6.8661
20
-3.57406
11
6.86762
21
-3.57517
0
LINE
8
BLACK
6
CONTINUOUS
10
6.86762
20
-3.57517
11
6.86768
21
-3.5751
0
LINE
8
BLACK
6
CONTINUOUS
10
6.86768
20
-3.5751
11
6.86787
21
-3.5753
0
LINE
8
BLACK
6
CONTINUOUS
10
6.86787
20
-3.5753
11
6.86804
21
-3.57552
0
LINE
8
BLACK
6
CONTINUOUS
10
6.86804
20
-3.57552
11
6.87263
21
-3.57896
0
LINE
8
BLACK
6
CONTINUOUS
10
6.87263
20
-3.57896
11
6.878
21
-3.58097
0
LINE
8
BLACK
6
CONTINUOUS
10
6.878
20
-3.58097
11
6.87824
21
-3.581
0
LINE
8
BLACK
6
CONTINUOUS
10
6.87824
20
-3.581
11
6.87824
21
-3.581
0
LINE
8
BLACK
6
CONTINUOUS
10
6.87824
20
-3.581
11
6.87958
21
-3.58115
0
LINE
8
BLACK
6
CONTINUOUS
10
6.87958
20
-3.58115
11
6.88045
21
-3.58124
0
LINE
8
BLACK
6
CONTINUOUS
10
6.88045
20
-3.58124
11
6.93924
21
-3.58124
0
LINE
8
BLACK
6
CONTINUOUS
10
6.93924
20
-3.58124
11
6.9401
21
-3.58115
0
LINE
8
BLACK
6
CONTINUOUS
10
6.9401
20
-3.58115
11
6.94144
21
-3.581
0
LINE
8
BLACK
6
CONTINUOUS
10
6.94144
20
-3.581
11
6.94144
21
-3.581
0
LINE
8
BLACK
6
CONTINUOUS
10
6.94144
20
-3.581
11
6.94169
21
-3.58097
0
LINE
8
BLACK
6
CONTINUOUS
10
6.94169
20
-3.58097
11
6.94706
21
-3.57896
0
LINE
8
BLACK
6
CONTINUOUS
10
6.94706
20
-3.57896
11
6.95164
21
-3.57552
0
LINE
8
BLACK
6
CONTINUOUS
10
6.95164
20
-3.57552
11
6.95508
21
-3.57093
0
LINE
8
BLACK
6
CONTINUOUS
10
6.95508
20
-3.57093
11
6.95569
21
-3.56932
0
LINE
8
BLACK
6
CONTINUOUS
10
6.95569
20
-3.56932
11
6.95701
21
-3.56579
0
LINE
8
BLACK
6
CONTINUOUS
10
6.95701
20
-3.56579
11
6.9571
21
-3.56556
0
LINE
8
BLACK
6
CONTINUOUS
10
6.9571
20
-3.56556
11
6.95714
21
-3.56514
0
LINE
8
BLACK
6
CONTINUOUS
10
6.95714
20
-3.56514
11
6.95735
21
-3.56322
0
LINE
8
BLACK
6
CONTINUOUS
10
6.95735
20
-3.56322
11
6.95736
21
-3.56312
0
LINE
8
BLACK
6
CONTINUOUS
10
6.95736
20
-3.56312
11
6.95736
21
-3.52433
0
LINE
8
BLACK
6
CONTINUOUS
10
6.95736
20
-3.52433
11
6.95726
21
-3.52339
0
LINE
8
BLACK
6
CONTINUOUS
10
6.95726
20
-3.52339
11
6.95712
21
-3.52212
0
LINE
8
BLACK
6
CONTINUOUS
10
6.95712
20
-3.52212
11
6.95712
21
-3.52212
0
LINE
8
BLACK
6
CONTINUOUS
10
6.95712
20
-3.52212
11
6.9571
21
-3.52188
0
LINE
8
BLACK
6
CONTINUOUS
10
6.9571
20
-3.52188
11
6.95586
21
-3.51857
0
LINE
8
BLACK
6
CONTINUOUS
10
6.95586
20
-3.51857
11
6.95518
21
-3.51677
0
LINE
8
BLACK
6
CONTINUOUS
10
6.95518
20
-3.51677
11
6.95518
21
-3.51677
0
LINE
8
BLACK
6
CONTINUOUS
10
6.95518
20
-3.51677
11
6.95508
21
-3.51651
0
LINE
8
BLACK
6
CONTINUOUS
10
6.95508
20
-3.51651
11
6.95164
21
-3.51192
0
LINE
8
BLACK
6
CONTINUOUS
10
6.95164
20
-3.51192
11
6.94706
21
-3.50848
0
LINE
8
BLACK
6
CONTINUOUS
10
6.94706
20
-3.50848
11
6.94636
21
-3.50822
0
LINE
8
BLACK
6
CONTINUOUS
10
6.94636
20
-3.50822
11
6.94191
21
-3.50655
0
LINE
8
BLACK
6
CONTINUOUS
10
6.94191
20
-3.50655
11
6.94169
21
-3.50647
0
LINE
8
BLACK
6
CONTINUOUS
10
6.94169
20
-3.50647
11
6.94144
21
-3.50644
0
LINE
8
BLACK
6
CONTINUOUS
10
6.94144
20
-3.50644
11
6.94144
21
-3.50644
0
LINE
8
BLACK
6
CONTINUOUS
10
6.94144
20
-3.50644
11
6.9396
21
-3.50624
0
LINE
8
BLACK
6
CONTINUOUS
10
6.9396
20
-3.50624
11
6.93924
21
-3.5062
0
LINE
8
BLACK
6
CONTINUOUS
10
6.93924
20
-3.5062
11
6.88045
21
-3.5062
0
LINE
8
BLACK
6
CONTINUOUS
10
6.88045
20
-3.5062
11
6.88009
21
-3.50624
0
LINE
8
BLACK
6
CONTINUOUS
10
6.88009
20
-3.50624
11
6.87824
21
-3.50644
0
LINE
8
BLACK
6
CONTINUOUS
10
6.87824
20
-3.50644
11
6.87824
21
-3.50644
0
LINE
8
BLACK
6
CONTINUOUS
10
6.87824
20
-3.50644
11
6.878
21
-3.50647
0
LINE
8
BLACK
6
CONTINUOUS
10
6.878
20
-3.50647
11
6.87777
21
-3.50655
0
LINE
8
BLACK
6
CONTINUOUS
10
6.87777
20
-3.50655
11
6.87332
21
-3.50822
0
LINE
8
BLACK
6
CONTINUOUS
10
6.87332
20
-3.50822
11
6.87263
21
-3.50848
0
LINE
8
BLACK
6
CONTINUOUS
10
6.87263
20
-3.50848
11
6.86804
21
-3.51192
0
LINE
8
BLACK
6
CONTINUOUS
10
6.86804
20
-3.51192
11
6.86787
21
-3.51214
0
LINE
8
BLACK
6
CONTINUOUS
10
6.86787
20
-3.51214
11
6.86768
21
-3.51234
0
LINE
8
BLACK
6
CONTINUOUS
10
6.86768
20
-3.51234
11
6.86761
21
-3.51227
0
LINE
8
BLACK
6
CONTINUOUS
10
6.86761
20
-3.51227
11
6.86599
21
-3.51341
0
LINE
8
BLACK
6
CONTINUOUS
10
6.86599
20
-3.51341
11
6.86358
21
-3.51338
0
LINE
8
BLACK
6
CONTINUOUS
10
6.86358
20
-3.51338
11
6.86207
21
-3.51228
0
LINE
8
BLACK
6
CONTINUOUS
10
6.86207
20
-3.51228
11
6.86201
21
-3.51234
0
LINE
8
BLACK
6
CONTINUOUS
10
6.86201
20
-3.51234
11
6.86181
21
-3.51214
0
LINE
8
BLACK
6
CONTINUOUS
10
6.86181
20
-3.51214
11
6.86164
21
-3.51192
0
LINE
8
BLACK
6
CONTINUOUS
10
6.86164
20
-3.51192
11
6.85706
21
-3.50848
0
LINE
8
BLACK
6
CONTINUOUS
10
6.85706
20
-3.50848
11
6.85636
21
-3.50822
0
LINE
8
BLACK
6
CONTINUOUS
10
6.85636
20
-3.50822
11
6.85191
21
-3.50655
0
LINE
8
BLACK
6
CONTINUOUS
10
6.85191
20
-3.50655
11
6.85169
21
-3.50647
0
LINE
8
BLACK
6
CONTINUOUS
10
6.85169
20
-3.50647
11
6.85144
21
-3.50644
0
LINE
8
BLACK
6
CONTINUOUS
10
6.85144
20
-3.50644
11
6.85144
21
-3.50644
0
LINE
8
BLACK
6
CONTINUOUS
10
6.85144
20
-3.50644
11
6.8496
21
-3.50624
0
LINE
8
BLACK
6
CONTINUOUS
10
6.8496
20
-3.50624
11
6.8474
21
-3.50525
0
LINE
8
BLACK
6
CONTINUOUS
10
6.8474
20
-3.50525
11
6.84645
21
-3.50393
0
LINE
8
BLACK
6
CONTINUOUS
10
6.84645
20
-3.50393
11
6.8463
21
-3.5036
0
LINE
8
BLACK
6
CONTINUOUS
10
6.8463
20
-3.5036
11
6.84572
21
-3.50227
0
LINE
8
BLACK
6
CONTINUOUS
10
6.84572
20
-3.50227
11
6.84564
21
-3.50208
0
LINE
8
BLACK
6
CONTINUOUS
10
6.84564
20
-3.50208
11
6.84483
21
-3.49992
0
LINE
8
BLACK
6
CONTINUOUS
10
6.84483
20
-3.49992
11
6.84474
21
-3.4997
0
LINE
8
BLACK
6
CONTINUOUS
10
6.84474
20
-3.4997
11
6.84453
21
-3.4994
0
LINE
8
BLACK
6
CONTINUOUS
10
6.84453
20
-3.4994
11
6.84418
21
-3.49876
0
LINE
8
BLACK
6
CONTINUOUS
10
6.84418
20
-3.49876
11
6.84413
21
-3.49865
0
LINE
8
BLACK
6
CONTINUOUS
10
6.84413
20
-3.49865
11
6.84403
21
-3.49842
0
LINE
8
BLACK
6
CONTINUOUS
10
6.84403
20
-3.49842
11
6.84248
21
-3.4964
0
LINE
8
BLACK
6
CONTINUOUS
10
6.84248
20
-3.4964
11
6.84236
21
-3.49623
0
LINE
8
BLACK
6
CONTINUOUS
10
6.84236
20
-3.49623
11
6.84105
21
-3.49433
0
LINE
8
BLACK
6
CONTINUOUS
10
6.84105
20
-3.49433
11
6.84092
21
-3.49414
0
LINE
8
BLACK
6
CONTINUOUS
10
6.84092
20
-3.49414
11
6.83907
21
-3.49249
0
LINE
8
BLACK
6
CONTINUOUS
10
6.83907
20
-3.49249
11
6.8389
21
-3.49233
0
LINE
8
BLACK
6
CONTINUOUS
10
6.8389
20
-3.49233
11
6.8205
21
-3.47393
0
LINE
8
BLACK
6
CONTINUOUS
10
6.8205
20
-3.47393
11
6.81941
21
-3.47179
0
LINE
8
BLACK
6
CONTINUOUS
10
6.81941
20
-3.47179
11
6.81936
21
-3.47118
0
LINE
8
BLACK
6
CONTINUOUS
10
6.81936
20
-3.47118
11
6.81936
21
-3.44533
0
LINE
8
BLACK
6
CONTINUOUS
10
6.81936
20
-3.44533
11
6.8191
21
-3.44288
0
LINE
8
BLACK
6
CONTINUOUS
10
6.8191
20
-3.44288
11
6.81778
21
-3.43938
0
LINE
8
BLACK
6
CONTINUOUS
10
6.81778
20
-3.43938
11
6.81718
21
-3.43777
0
LINE
8
BLACK
6
CONTINUOUS
10
6.81718
20
-3.43777
11
6.81718
21
-3.43777
0
LINE
8
BLACK
6
CONTINUOUS
10
6.81718
20
-3.43777
11
6.81708
21
-3.43751
0
LINE
8
BLACK
6
CONTINUOUS
10
6.81708
20
-3.43751
11
6.81364
21
-3.43292
0
LINE
8
BLACK
6
CONTINUOUS
10
6.81364
20
-3.43292
11
6.81342
21
-3.43275
0
LINE
8
BLACK
6
CONTINUOUS
10
6.81342
20
-3.43275
11
6.81342
21
-3.43275
0
LINE
8
BLACK
6
CONTINUOUS
10
6.81342
20
-3.43275
11
6.8102
21
-3.43034
0
LINE
8
BLACK
6
CONTINUOUS
10
6.8102
20
-3.43034
11
6.80882
21
-3.42837
0
LINE
8
BLACK
6
CONTINUOUS
10
6.80882
20
-3.42837
11
6.80885
21
-3.42596
0
LINE
8
BLACK
6
CONTINUOUS
10
6.80885
20
-3.42596
11
6.8102
21
-3.4241
0
LINE
8
BLACK
6
CONTINUOUS
10
6.8102
20
-3.4241
11
6.81342
21
-3.42169
0
LINE
8
BLACK
6
CONTINUOUS
10
6.81342
20
-3.42169
11
6.81342
21
-3.42169
0
LINE
8
BLACK
6
CONTINUOUS
10
6.81342
20
-3.42169
11
6.81364
21
-3.42152
0
LINE
8
BLACK
6
CONTINUOUS
10
6.81364
20
-3.42152
11
6.81708
21
-3.41693
0
LINE
8
BLACK
6
CONTINUOUS
10
6.81708
20
-3.41693
11
6.81727
21
-3.41642
0
LINE
8
BLACK
6
CONTINUOUS
10
6.81727
20
-3.41642
11
6.81901
21
-3.41179
0
LINE
8
BLACK
6
CONTINUOUS
10
6.81901
20
-3.41179
11
6.8191
21
-3.41156
0
LINE
8
BLACK
6
CONTINUOUS
10
6.8191
20
-3.41156
11
6.81918
21
-3.41078
0
LINE
8
BLACK
6
CONTINUOUS
10
6.81918
20
-3.41078
11
6.81935
21
-3.40922
0
LINE
8
BLACK
6
CONTINUOUS
10
6.81935
20
-3.40922
11
6.81936
21
-3.40912
0
LINE
8
BLACK
6
CONTINUOUS
10
6.81936
20
-3.40912
11
6.81936
21
-3.37064
0
LINE
8
BLACK
6
CONTINUOUS
10
6.81936
20
-3.37064
11
6.82011
21
-3.36835
0
LINE
8
BLACK
6
CONTINUOUS
10
6.82011
20
-3.36835
11
6.82206
21
-3.36693
0
LINE
8
BLACK
6
CONTINUOUS
10
6.82206
20
-3.36693
11
6.82326
21
-3.36674
0
LINE
8
BLACK
6
CONTINUOUS
10
6.82326
20
-3.36674
11
6.8358
21
-3.36674
0
LINE
8
BLACK
6
CONTINUOUS
10
6.8358
20
-3.36674
11
6.83809
21
-3.36748
0
LINE
8
BLACK
6
CONTINUOUS
10
6.83809
20
-3.36748
11
6.83856
21
-3.36788
0
LINE
8
BLACK
6
CONTINUOUS
10
6.83856
20
-3.36788
11
6.85518
21
-3.38451
0
LINE
8
BLACK
6
CONTINUOUS
10
6.85518
20
-3.38451
11
6.85627
21
-3.38665
0
LINE
8
BLACK
6
CONTINUOUS
10
6.85627
20
-3.38665
11
6.85632
21
-3.38726
0
LINE
8
BLACK
6
CONTINUOUS
10
6.85632
20
-3.38726
11
6.85632
21
-3.41312
0
LINE
8
BLACK
6
CONTINUOUS
10
6.85632
20
-3.41312
11
6.85633
21
-3.41322
0
LINE
8
BLACK
6
CONTINUOUS
10
6.85633
20
-3.41322
11
6.8565
21
-3.41479
0
LINE
8
BLACK
6
CONTINUOUS
10
6.8565
20
-3.41479
11
6.85659
21
-3.41556
0
LINE
8
BLACK
6
CONTINUOUS
10
6.85659
20
-3.41556
11
6.85667
21
-3.41579
0
LINE
8
BLACK
6
CONTINUOUS
10
6.85667
20
-3.41579
11
6.85835
21
-3.42027
0
LINE
8
BLACK
6
CONTINUOUS
10
6.85835
20
-3.42027
11
6.8586
21
-3.42093
0
LINE
8
BLACK
6
CONTINUOUS
10
6.8586
20
-3.42093
11
6.86204
21
-3.42552
0
LINE
8
BLACK
6
CONTINUOUS
10
6.86204
20
-3.42552
11
6.86663
21
-3.42896
0
LINE
8
BLACK
6
CONTINUOUS
10
6.86663
20
-3.42896
11
6.86689
21
-3.42906
0
LINE
8
BLACK
6
CONTINUOUS
10
6.86689
20
-3.42906
11
6.86689
21
-3.42906
0
LINE
8
BLACK
6
CONTINUOUS
10
6.86689
20
-3.42906
11
6.86789
21
-3.42943
0
LINE
8
BLACK
6
CONTINUOUS
10
6.86789
20
-3.42943
11
6.872
21
-3.43097
0
LINE
8
BLACK
6
CONTINUOUS
10
6.872
20
-3.43097
11
6.87224
21
-3.431
0
LINE
8
BLACK
6
CONTINUOUS
10
6.87224
20
-3.431
11
6.87224
21
-3.431
0
LINE
8
BLACK
6
CONTINUOUS
10
6.87224
20
-3.431
11
6.87334
21
-3.43112
0
LINE
8
BLACK
6
CONTINUOUS
10
6.87334
20
-3.43112
11
6.87445
21
-3.43124
0
LINE
8
BLACK
6
CONTINUOUS
10
6.87445
20
-3.43124
11
6.93324
21
-3.43124
0
LINE
8
BLACK
6
CONTINUOUS
10
6.93324
20
-3.43124
11
6.93434
21
-3.43112
0
LINE
8
BLACK
6
CONTINUOUS
10
6.93434
20
-3.43112
11
6.93544
21
-3.431
0
LINE
8
BLACK
6
CONTINUOUS
10
6.93544
20
-3.431
11
6.93544
21
-3.431
0
LINE
8
BLACK
6
CONTINUOUS
10
6.93544
20
-3.431
11
6.93569
21
-3.43097
0
LINE
8
BLACK
6
CONTINUOUS
10
6.93569
20
-3.43097
11
6.93594
21
-3.43088
0
LINE
8
BLACK
6
CONTINUOUS
10
6.93594
20
-3.43088
11
6.93876
21
-3.42982
0
LINE
8
BLACK
6
CONTINUOUS
10
6.93876
20
-3.42982
11
6.94117
21
-3.42971
0
LINE
8
BLACK
6
CONTINUOUS
10
6.94117
20
-3.42971
11
6.94289
21
-3.43071
0
LINE
8
BLACK
6
CONTINUOUS
10
6.94289
20
-3.43071
11
6.95518
21
-3.44301
0
LINE
8
BLACK
6
CONTINUOUS
10
6.95518
20
-3.44301
11
6.95627
21
-3.44515
0
LINE
8
BLACK
6
CONTINUOUS
10
6.95627
20
-3.44515
11
6.95632
21
-3.44576
0
LINE
8
BLACK
6
CONTINUOUS
10
6.95632
20
-3.44576
11
6.95632
21
-3.49162
0
LINE
8
BLACK
6
CONTINUOUS
10
6.95632
20
-3.49162
11
6.95633
21
-3.49172
0
LINE
8
BLACK
6
CONTINUOUS
10
6.95633
20
-3.49172
11
6.95651
21
-3.49334
0
LINE
8
BLACK
6
CONTINUOUS
10
6.95651
20
-3.49334
11
6.95659
21
-3.49406
0
LINE
8
BLACK
6
CONTINUOUS
10
6.95659
20
-3.49406
11
6.95667
21
-3.49429
0
LINE
8
BLACK
6
CONTINUOUS
10
6.95667
20
-3.49429
11
6.95831
21
-3.49865
0
LINE
8
BLACK
6
CONTINUOUS
10
6.95831
20
-3.49865
11
6.9586
21
-3.49943
0
LINE
8
BLACK
6
CONTINUOUS
10
6.9586
20
-3.49943
11
6.96204
21
-3.50402
0
LINE
8
BLACK
6
CONTINUOUS
10
6.96204
20
-3.50402
11
6.96663
21
-3.50746
0
LINE
8
BLACK
6
CONTINUOUS
10
6.96663
20
-3.50746
11
6.972
21
-3.50947
0
LINE
8
BLACK
6
CONTINUOUS
10
6.972
20
-3.50947
11
6.97224
21
-3.5095
0
LINE
8
BLACK
6
CONTINUOUS
10
6.97224
20
-3.5095
11
6.97224
21
-3.5095
0
LINE
8
BLACK
6
CONTINUOUS
10
6.97224
20
-3.5095
11
6.97366
21
-3.50965
0
LINE
8
BLACK
6
CONTINUOUS
10
6.97366
20
-3.50965
11
6.97445
21
-3.50974
0
LINE
8
BLACK
6
CONTINUOUS
10
6.97445
20
-3.50974
11
7.04324
21
-3.50974
0
LINE
8
BLACK
6
CONTINUOUS
10
7.04324
20
-3.50974
11
7.04403
21
-3.50965
0
LINE
8
BLACK
6
CONTINUOUS
10
7.04403
20
-3.50965
11
7.04544
21
-3.5095
0
LINE
8
BLACK
6
CONTINUOUS
10
7.04544
20
-3.5095
11
7.04544
21
-3.5095
0
LINE
8
BLACK
6
CONTINUOUS
10
7.04544
20
-3.5095
11
7.04569
21
-3.50947
0
LINE
8
BLACK
6
CONTINUOUS
10
7.04569
20
-3.50947
11
7.05106
21
-3.50746
0
LINE
8
BLACK
6
CONTINUOUS
10
7.05106
20
-3.50746
11
7.05564
21
-3.50402
0
LINE
8
BLACK
6
CONTINUOUS
10
7.05564
20
-3.50402
11
7.05581
21
-3.5038
0
LINE
8
BLACK
6
CONTINUOUS
10
7.05581
20
-3.5038
11
7.05601
21
-3.5036
0
LINE
8
BLACK
6
CONTINUOUS
10
7.05601
20
-3.5036
11
7.05607
21
-3.50367
0
LINE
8
BLACK
6
CONTINUOUS
10
7.05607
20
-3.50367
11
7.05769
21
-3.50253
0
LINE
8
BLACK
6
CONTINUOUS
10
7.05769
20
-3.50253
11
7.0601
21
-3.50256
0
LINE
8
BLACK
6
CONTINUOUS
10
7.0601
20
-3.50256
11
7.06162
21
-3.50367
0
LINE
8
BLACK
6
CONTINUOUS
10
7.06162
20
-3.50367
11
7.06168
21
-3.5036
0
LINE
8
BLACK
6
CONTINUOUS
10
7.06168
20
-3.5036
11
7.06187
21
-3.5038
0
LINE
8
BLACK
6
CONTINUOUS
10
7.06187
20
-3.5038
11
7.06204
21
-3.50402
0
LINE
8
BLACK
6
CONTINUOUS
10
7.06204
20
-3.50402
11
7.06663
21
-3.50746
0
LINE
8
BLACK
6
CONTINUOUS
10
7.06663
20
-3.50746
11
7.072
21
-3.50947
0
LINE
8
BLACK
6
CONTINUOUS
10
7.072
20
-3.50947
11
7.07224
21
-3.5095
0
LINE
8
BLACK
6
CONTINUOUS
10
7.07224
20
-3.5095
11
7.07224
21
-3.5095
0
LINE
8
BLACK
6
CONTINUOUS
10
7.07224
20
-3.5095
11
7.07366
21
-3.50965
0
LINE
8
BLACK
6
CONTINUOUS
10
7.07366
20
-3.50965
11
7.07445
21
-3.50974
0
LINE
8
BLACK
6
CONTINUOUS
10
7.07445
20
-3.50974
11
7.14324
21
-3.50974
0
LINE
8
BLACK
6
CONTINUOUS
10
7.14324
20
-3.50974
11
7.14403
21
-3.50965
0
LINE
8
BLACK
6
CONTINUOUS
10
7.14403
20
-3.50965
11
7.14544
21
-3.5095
0
LINE
8
BLACK
6
CONTINUOUS
10
7.14544
20
-3.5095
11
7.14544
21
-3.5095
0
LINE
8
BLACK
6
CONTINUOUS
10
7.14544
20
-3.5095
11
7.14569
21
-3.50947
0
LINE
8
BLACK
6
CONTINUOUS
10
7.14569
20
-3.50947
11
7.15106
21
-3.50746
0
LINE
8
BLACK
6
CONTINUOUS
10
7.15106
20
-3.50746
11
7.15564
21
-3.50402
0
LINE
8
BLACK
6
CONTINUOUS
10
7.15564
20
-3.50402
11
7.15908
21
-3.49943
0
LINE
8
BLACK
6
CONTINUOUS
10
7.15908
20
-3.49943
11
7.15938
21
-3.49865
0
LINE
8
BLACK
6
CONTINUOUS
10
7.15938
20
-3.49865
11
7.16101
21
-3.49429
0
LINE
8
BLACK
6
CONTINUOUS
10
7.16101
20
-3.49429
11
7.1611
21
-3.49406
0
LINE
8
BLACK
6
CONTINUOUS
10
7.1611
20
-3.49406
11
7.16117
21
-3.49334
0
LINE
8
BLACK
6
CONTINUOUS
10
7.16117
20
-3.49334
11
7.16135
21
-3.49172
0
LINE
8
BLACK
6
CONTINUOUS
10
7.16135
20
-3.49172
11
7.16136
21
-3.49162
0
LINE
8
BLACK
6
CONTINUOUS
10
7.16136
20
-3.49162
11
7.16136
21
-3.42283
0
LINE
8
BLACK
6
CONTINUOUS
10
7.16136
20
-3.42283
11
7.16124
21
-3.42169
0
LINE
8
BLACK
6
CONTINUOUS
10
7.16124
20
-3.42169
11
7.16112
21
-3.42062
0
LINE
8
BLACK
6
CONTINUOUS
10
7.16112
20
-3.42062
11
7.16112
21
-3.42062
0
LINE
8
BLACK
6
CONTINUOUS
10
7.16112
20
-3.42062
11
7.1611
21
-3.42038
0
LINE
8
BLACK
6
CONTINUOUS
10
7.1611
20
-3.42038
11
7.16047
21
-3.4187
0
LINE
8
BLACK
6
CONTINUOUS
10
7.16047
20
-3.4187
11
7.15918
21
-3.41527
0
LINE
8
BLACK
6
CONTINUOUS
10
7.15918
20
-3.41527
11
7.15918
21
-3.41527
0
LINE
8
BLACK
6
CONTINUOUS
10
7.15918
20
-3.41527
11
7.15908
21
-3.41501
0
LINE
8
BLACK
6
CONTINUOUS
10
7.15908
20
-3.41501
11
7.15564
21
-3.41042
0
LINE
8
BLACK
6
CONTINUOUS
10
7.15564
20
-3.41042
11
7.15106
21
-3.40698
0
LINE
8
BLACK
6
CONTINUOUS
10
7.15106
20
-3.40698
11
7.14569
21
-3.40497
0
LINE
8
BLACK
6
CONTINUOUS
10
7.14569
20
-3.40497
11
7.14544
21
-3.40494
0
LINE
8
BLACK
6
CONTINUOUS
10
7.14544
20
-3.40494
11
7.14544
21
-3.40494
0
LINE
8
BLACK
6
CONTINUOUS
10
7.14544
20
-3.40494
11
7.14403
21
-3.40479
0
LINE
8
BLACK
6
CONTINUOUS
10
7.14403
20
-3.40479
11
7.14324
21
-3.4047
0
LINE
8
BLACK
6
CONTINUOUS
10
7.14324
20
-3.4047
11
7.07445
21
-3.4047
0
LINE
8
BLACK
6
CONTINUOUS
10
7.07445
20
-3.4047
11
7.07366
21
-3.40479
0
LINE
8
BLACK
6
CONTINUOUS
10
7.07366
20
-3.40479
11
7.07224
21
-3.40494
0
LINE
8
BLACK
6
CONTINUOUS
10
7.07224
20
-3.40494
11
7.07224
21
-3.40494
0
LINE
8
BLACK
6
CONTINUOUS
10
7.07224
20
-3.40494
11
7.072
21
-3.40497
0
LINE
8
BLACK
6
CONTINUOUS
10
7.072
20
-3.40497
11
7.06663
21
-3.40698
0
LINE
8
BLACK
6
CONTINUOUS
10
7.06663
20
-3.40698
11
7.06204
21
-3.41042
0
LINE
8
BLACK
6
CONTINUOUS
10
7.06204
20
-3.41042
11
7.06187
21
-3.41064
0
LINE
8
BLACK
6
CONTINUOUS
10
7.06187
20
-3.41064
11
7.06168
21
-3.41084
0
LINE
8
BLACK
6
CONTINUOUS
10
7.06168
20
-3.41084
11
7.06161
21
-3.41077
0
LINE
8
BLACK
6
CONTINUOUS
10
7.06161
20
-3.41077
11
7.05999
21
-3.41191
0
LINE
8
BLACK
6
CONTINUOUS
10
7.05999
20
-3.41191
11
7.05758
21
-3.41188
0
LINE
8
BLACK
6
CONTINUOUS
10
7.05758
20
-3.41188
11
7.05607
21
-3.41078
0
LINE
8
BLACK
6
CONTINUOUS
10
7.05607
20
-3.41078
11
7.05601
21
-3.41084
0
LINE
8
BLACK
6
CONTINUOUS
10
7.05601
20
-3.41084
11
7.05581
21
-3.41064
0
LINE
8
BLACK
6
CONTINUOUS
10
7.05581
20
-3.41064
11
7.05564
21
-3.41042
0
LINE
8
BLACK
6
CONTINUOUS
10
7.05564
20
-3.41042
11
7.05106
21
-3.40698
0
LINE
8
BLACK
6
CONTINUOUS
10
7.05106
20
-3.40698
11
7.04569
21
-3.40497
0
LINE
8
BLACK
6
CONTINUOUS
10
7.04569
20
-3.40497
11
7.04544
21
-3.40494
0
LINE
8
BLACK
6
CONTINUOUS
10
7.04544
20
-3.40494
11
7.04544
21
-3.40494
0
LINE
8
BLACK
6
CONTINUOUS
10
7.04544
20
-3.40494
11
7.04403
21
-3.40479
0
LINE
8
BLACK
6
CONTINUOUS
10
7.04403
20
-3.40479
11
7.04324
21
-3.4047
0
LINE
8
BLACK
6
CONTINUOUS
10
7.04324
20
-3.4047
11
6.99738
21
-3.4047
0
LINE
8
BLACK
6
CONTINUOUS
10
6.99738
20
-3.4047
11
6.99509
21
-3.40396
0
LINE
8
BLACK
6
CONTINUOUS
10
6.99509
20
-3.40396
11
6.99463
21
-3.40356
0
LINE
8
BLACK
6
CONTINUOUS
10
6.99463
20
-3.40356
11
6.98079
21
-3.38972
0
LINE
8
BLACK
6
CONTINUOUS
10
6.98079
20
-3.38972
11
6.97634
21
-3.38972
0
LINE
8
BLACK
6
CONTINUOUS
10
6.97634
20
-3.38972
11
6.97634
21
-3.38527
0
LINE
8
BLACK
6
CONTINUOUS
10
6.97634
20
-3.38527
11
6.96585
21
-3.37478
0
LINE
8
BLACK
6
CONTINUOUS
10
6.96585
20
-3.37478
11
6.96566
21
-3.37458
0
LINE
8
BLACK
6
CONTINUOUS
10
6.96566
20
-3.37458
11
6.9643
21
-3.37302
0
LINE
8
BLACK
6
CONTINUOUS
10
6.9643
20
-3.37302
11
6.96414
21
-3.37284
0
LINE
8
BLACK
6
CONTINUOUS
10
6.96414
20
-3.37284
11
6.96395
21
-3.3727
0
LINE
8
BLACK
6
CONTINUOUS
10
6.96395
20
-3.3727
11
6.96395
21
-3.3727
0
LINE
8
BLACK
6
CONTINUOUS
10
6.96395
20
-3.3727
11
6.96206
21
-3.37138
0
LINE
8
BLACK
6
CONTINUOUS
10
6.96206
20
-3.37138
11
6.9619
21
-3.37125
0
LINE
8
BLACK
6
CONTINUOUS
10
6.9619
20
-3.37125
11
6.96008
21
-3.36983
0
LINE
8
BLACK
6
CONTINUOUS
10
6.96008
20
-3.36983
11
6.96008
21
-3.36983
0
LINE
8
BLACK
6
CONTINUOUS
10
6.96008
20
-3.36983
11
6.9599
21
-3.36969
0
LINE
8
BLACK
6
CONTINUOUS
10
6.9599
20
-3.36969
11
6.95964
21
-3.36957
0
LINE
8
BLACK
6
CONTINUOUS
10
6.95964
20
-3.36957
11
6.95956
21
-3.36953
0
LINE
8
BLACK
6
CONTINUOUS
10
6.95956
20
-3.36953
11
6.95892
21
-3.36917
0
LINE
8
BLACK
6
CONTINUOUS
10
6.95892
20
-3.36917
11
6.95881
21
-3.36909
0
LINE
8
BLACK
6
CONTINUOUS
10
6.95881
20
-3.36909
11
6.95881
21
-3.36909
0
LINE
8
BLACK
6
CONTINUOUS
10
6.95881
20
-3.36909
11
6.95862
21
-3.36896
0
LINE
8
BLACK
6
CONTINUOUS
10
6.95862
20
-3.36896
11
6.95625
21
-3.36803
0
LINE
8
BLACK
6
CONTINUOUS
10
6.95625
20
-3.36803
11
6.95606
21
-3.36795
0
LINE
8
BLACK
6
CONTINUOUS
10
6.95606
20
-3.36795
11
6.95578
21
-3.36783
0
LINE
8
BLACK
6
CONTINUOUS
10
6.95578
20
-3.36783
11
6.95527
21
-3.36759
0
LINE
8
BLACK
6
CONTINUOUS
10
6.95527
20
-3.36759
11
6.95396
21
-3.367
0
LINE
8
BLACK
6
CONTINUOUS
10
6.95396
20
-3.367
11
6.95396
21
-3.367
0
LINE
8
BLACK
6
CONTINUOUS
10
6.95396
20
-3.367
11
6.95375
21
-3.36691
0
LINE
8
BLACK
6
CONTINUOUS
10
6.95375
20
-3.36691
11
6.95351
21
-3.36686
0
LINE
8
BLACK
6
CONTINUOUS
10
6.95351
20
-3.36686
11
6.95351
21
-3.36686
0
LINE
8
BLACK
6
CONTINUOUS
10
6.95351
20
-3.36686
11
6.95338
21
-3.36684
0
LINE
8
BLACK
6
CONTINUOUS
10
6.95338
20
-3.36684
11
6.95268
21
-3.36664
0
LINE
8
BLACK
6
CONTINUOUS
10
6.95268
20
-3.36664
11
6.95233
21
-3.3665
0
LINE
8
BLACK
6
CONTINUOUS
10
6.95233
20
-3.3665
11
6.95138
21
-3.36638
0
LINE
8
BLACK
6
CONTINUOUS
10
6.95138
20
-3.36638
11
6.95035
21
-3.36624
0
LINE
8
BLACK
6
CONTINUOUS
10
6.95035
20
-3.36624
11
6.94818
21
-3.36521
0
LINE
8
BLACK
6
CONTINUOUS
10
6.94818
20
-3.36521
11
6.94774
21
-3.36472
0
LINE
8
BLACK
6
CONTINUOUS
10
6.94774
20
-3.36472
11
6.94773
21
-3.3647
0
LINE
8
BLACK
6
CONTINUOUS
10
6.94773
20
-3.3647
11
6.94564
21
-3.36192
0
LINE
8
BLACK
6
CONTINUOUS
10
6.94564
20
-3.36192
11
6.94491
21
-3.36137
0
LINE
8
BLACK
6
CONTINUOUS
10
6.94491
20
-3.36137
11
6.94239
21
-3.35948
0
LINE
8
BLACK
6
CONTINUOUS
10
6.94239
20
-3.35948
11
6.94106
21
-3.35848
0
LINE
8
BLACK
6
CONTINUOUS
10
6.94106
20
-3.35848
11
6.93971
21
-3.35797
0
LINE
8
BLACK
6
CONTINUOUS
10
6.93971
20
-3.35797
11
6.93591
21
-3.35655
0
LINE
8
BLACK
6
CONTINUOUS
10
6.93591
20
-3.35655
11
6.93569
21
-3.35647
0
LINE
8
BLACK
6
CONTINUOUS
10
6.93569
20
-3.35647
11
6.93544
21
-3.35644
0
LINE
8
BLACK
6
CONTINUOUS
10
6.93544
20
-3.35644
11
6.93544
21
-3.35644
0
LINE
8
BLACK
6
CONTINUOUS
10
6.93544
20
-3.35644
11
6.93403
21
-3.35629
0
LINE
8
BLACK
6
CONTINUOUS
10
6.93403
20
-3.35629
11
6.93324
21
-3.3562
0
LINE
8
BLACK
6
CONTINUOUS
10
6.93324
20
-3.3562
11
6.90738
21
-3.3562
0
LINE
8
BLACK
6
CONTINUOUS
10
6.90738
20
-3.3562
11
6.90509
21
-3.35546
0
LINE
8
BLACK
6
CONTINUOUS
10
6.90509
20
-3.35546
11
6.90463
21
-3.35506
0
LINE
8
BLACK
6
CONTINUOUS
10
6.90463
20
-3.35506
11
6.876
21
-3.32643
0
LINE
8
BLACK
6
CONTINUOUS
10
6.876
20
-3.32643
11
6.87491
21
-3.32429
0
LINE
8
BLACK
6
CONTINUOUS
10
6.87491
20
-3.32429
11
6.87486
21
-3.32368
0
LINE
8
BLACK
6
CONTINUOUS
10
6.87486
20
-3.32368
11
6.87486
21
-3.28983
0
LINE
8
BLACK
6
CONTINUOUS
10
6.87486
20
-3.28983
11
6.8746
21
-3.28738
0
LINE
8
BLACK
6
CONTINUOUS
10
6.8746
20
-3.28738
11
6.87258
21
-3.28201
0
LINE
8
BLACK
6
CONTINUOUS
10
6.87258
20
-3.28201
11
6.86914
21
-3.27742
0
LINE
8
BLACK
6
CONTINUOUS
10
6.86914
20
-3.27742
11
6.86456
21
-3.27398
0
LINE
8
BLACK
6
CONTINUOUS
10
6.86456
20
-3.27398
11
6.85919
21
-3.27197
0
LINE
8
BLACK
6
CONTINUOUS
10
6.85919
20
-3.27197
11
6.85894
21
-3.27194
0
LINE
8
BLACK
6
CONTINUOUS
10
6.85894
20
-3.27194
11
6.85894
21
-3.27194
0
LINE
8
BLACK
6
CONTINUOUS
10
6.85894
20
-3.27194
11
6.85753
21
-3.27179
0
LINE
8
BLACK
6
CONTINUOUS
10
6.85753
20
-3.27179
11
6.85674
21
-3.2717
0
LINE
8
BLACK
6
CONTINUOUS
10
6.85674
20
-3.2717
11
6.84981
21
-3.2717
0
LINE
8
BLACK
6
CONTINUOUS
10
6.84981
20
-3.2717
11
6.84751
21
-3.27096
0
LINE
8
BLACK
6
CONTINUOUS
10
6.84751
20
-3.27096
11
6.8461
21
-3.26901
0
LINE
8
BLACK
6
CONTINUOUS
10
6.8461
20
-3.26901
11
6.8461
21
-3.2666
0
LINE
8
BLACK
6
CONTINUOUS
10
6.8461
20
-3.2666
11
6.84669
21
-3.26547
0
LINE
8
BLACK
6
CONTINUOUS
10
6.84669
20
-3.26547
11
6.84992
21
-3.26116
0
LINE
8
BLACK
6
CONTINUOUS
10
6.84992
20
-3.26116
11
6.84992
21
-3.26116
0
LINE
8
BLACK
6
CONTINUOUS
10
6.84992
20
-3.26116
11
6.85008
21
-3.26093
0
LINE
8
BLACK
6
CONTINUOUS
10
6.85008
20
-3.26093
11
6.8521
21
-3.25556
0
LINE
8
BLACK
6
CONTINUOUS
10
6.8521
20
-3.25556
11
6.85236
21
-3.25312
0
LINE
8
BLACK
6
CONTINUOUS
10
6.85236
20
-3.25312
11
6.85236
21
-3.21433
0
LINE
8
BLACK
6
CONTINUOUS
10
6.85236
20
-3.21433
11
6.8522
21
-3.21287
0
LINE
8
BLACK
6
CONTINUOUS
10
6.8522
20
-3.21287
11
6.85212
21
-3.21212
0
LINE
8
BLACK
6
CONTINUOUS
10
6.85212
20
-3.21212
11
6.85212
21
-3.21212
0
LINE
8
BLACK
6
CONTINUOUS
10
6.85212
20
-3.21212
11
6.8521
21
-3.21188
0
LINE
8
BLACK
6
CONTINUOUS
10
6.8521
20
-3.21188
11
6.85008
21
-3.20651
0
LINE
8
BLACK
6
CONTINUOUS
10
6.85008
20
-3.20651
11
6.84664
21
-3.20192
0
LINE
8
BLACK
6
CONTINUOUS
10
6.84664
20
-3.20192
11
6.84206
21
-3.19848
0
LINE
8
BLACK
6
CONTINUOUS
10
6.84206
20
-3.19848
11
6.83669
21
-3.19647
0
LINE
8
BLACK
6
CONTINUOUS
10
6.83669
20
-3.19647
11
6.83644
21
-3.19644
0
LINE
8
BLACK
6
CONTINUOUS
10
6.83644
20
-3.19644
11
6.83644
21
-3.19644
0
LINE
8
BLACK
6
CONTINUOUS
10
6.83644
20
-3.19644
11
6.83503
21
-3.19629
0
LINE
8
BLACK
6
CONTINUOUS
10
6.83503
20
-3.19629
11
6.83424
21
-3.1962
0
LINE
8
BLACK
6
CONTINUOUS
10
6.83424
20
-3.1962
11
6.77545
21
-3.1962
0
LINE
8
BLACK
6
CONTINUOUS
10
6.77545
20
-3.1962
11
6.77466
21
-3.19629
0
LINE
8
BLACK
6
CONTINUOUS
10
6.77466
20
-3.19629
11
6.77324
21
-3.19644
0
LINE
8
BLACK
6
CONTINUOUS
10
6.77324
20
-3.19644
11
6.77324
21
-3.19644
0
LINE
8
BLACK
6
CONTINUOUS
10
6.77324
20
-3.19644
11
6.773
21
-3.19647
0
LINE
8
BLACK
6
CONTINUOUS
10
6.773
20
-3.19647
11
6.76763
21
-3.19848
0
LINE
8
BLACK
6
CONTINUOUS
10
6.76763
20
-3.19848
11
6.76304
21
-3.20192
0
LINE
8
BLACK
6
CONTINUOUS
10
6.76304
20
-3.20192
11
6.76287
21
-3.20214
0
LINE
8
BLACK
6
CONTINUOUS
10
6.76287
20
-3.20214
11
6.76276
21
-3.2023
0
LINE
8
BLACK
6
CONTINUOUS
10
6.76276
20
-3.2023
11
6.76079
21
-3.20369
0
LINE
8
BLACK
6
CONTINUOUS
10
6.76079
20
-3.20369
11
6.75964
21
-3.20386
0
LINE
8
BLACK
6
CONTINUOUS
10
6.75964
20
-3.20386
11
6.75005
21
-3.20386
0
LINE
8
BLACK
6
CONTINUOUS
10
6.75005
20
-3.20386
11
6.74776
21
-3.20311
0
LINE
8
BLACK
6
CONTINUOUS
10
6.74776
20
-3.20311
11
6.74693
21
-3.2023
0
LINE
8
BLACK
6
CONTINUOUS
10
6.74693
20
-3.2023
11
6.74681
21
-3.20214
0
LINE
8
BLACK
6
CONTINUOUS
10
6.74681
20
-3.20214
11
6.74664
21
-3.20192
0
LINE
8
BLACK
6
CONTINUOUS
10
6.74664
20
-3.20192
11
6.74206
21
-3.19848
0
LINE
8
BLACK
6
CONTINUOUS
10
6.74206
20
-3.19848
11
6.73669
21
-3.19647
0
LINE
8
BLACK
6
CONTINUOUS
10
6.73669
20
-3.19647
11
6.73644
21
-3.19644
0
LINE
8
BLACK
6
CONTINUOUS
10
6.73644
20
-3.19644
11
6.73644
21
-3.19644
0
LINE
8
BLACK
6
CONTINUOUS
10
6.73644
20
-3.19644
11
6.73503
21
-3.19629
0
LINE
8
BLACK
6
CONTINUOUS
10
6.73503
20
-3.19629
11
6.73424
21
-3.1962
0
LINE
8
BLACK
6
CONTINUOUS
10
6.73424
20
-3.1962
11
6.67545
21
-3.1962
0
LINE
8
BLACK
6
CONTINUOUS
10
6.67545
20
-3.1962
11
6.67466
21
-3.19629
0
LINE
8
BLACK
6
CONTINUOUS
10
6.67466
20
-3.19629
11
6.67324
21
-3.19644
0
LINE
8
BLACK
6
CONTINUOUS
10
6.67324
20
-3.19644
11
6.67324
21
-3.19644
0
LINE
8
BLACK
6
CONTINUOUS
10
6.67324
20
-3.19644
11
6.673
21
-3.19647
0
LINE
8
BLACK
6
CONTINUOUS
10
6.673
20
-3.19647
11
6.66763
21
-3.19848
0
LINE
8
BLACK
6
CONTINUOUS
10
6.66763
20
-3.19848
11
6.66304
21
-3.20192
0
LINE
8
BLACK
6
CONTINUOUS
10
6.66304
20
-3.20192
11
6.6596
21
-3.20651
0
LINE
8
BLACK
6
CONTINUOUS
10
6.6596
20
-3.20651
11
6.65759
21
-3.21188
0
LINE
8
BLACK
6
CONTINUOUS
10
6.65759
20
-3.21188
11
6.65756
21
-3.21212
0
LINE
8
BLACK
6
CONTINUOUS
10
6.65756
20
-3.21212
11
6.65756
21
-3.21212
0
LINE
8
BLACK
6
CONTINUOUS
10
6.65756
20
-3.21212
11
6.65748
21
-3.21287
0
LINE
8
BLACK
6
CONTINUOUS
10
6.65748
20
-3.21287
11
6.65732
21
-3.21433
0
LINE
8
BLACK
6
CONTINUOUS
10
6.65732
20
-3.21433
11
6.65732
21
-3.23739
0
LINE
8
BLACK
6
CONTINUOUS
10
6.65732
20
-3.23739
11
6.65658
21
-3.23969
0
LINE
8
BLACK
6
CONTINUOUS
10
6.65658
20
-3.23969
11
6.65618
21
-3.24015
0
LINE
8
BLACK
6
CONTINUOUS
10
6.65618
20
-3.24015
11
6.65611
21
-3.24022
0
LINE
8
BLACK
6
CONTINUOUS
10
6.65611
20
-3.24022
11
6.65397
21
-3.24131
0
LINE
8
BLACK
6
CONTINUOUS
10
6.65397
20
-3.24131
11
6.65336
21
-3.24136
0
LINE
8
BLACK
6
CONTINUOUS
10
6.65336
20
-3.24136
11
6.63829
21
-3.24136
0
LINE
8
BLACK
6
CONTINUOUS
10
6.63829
20
-3.24136
11
6.636
21
-3.24061
0
LINE
8
BLACK
6
CONTINUOUS
10
6.636
20
-3.24061
11
6.63459
21
-3.23867
0
LINE
8
BLACK
6
CONTINUOUS
10
6.63459
20
-3.23867
11
6.63441
21
-3.23778
0
LINE
8
BLACK
6
CONTINUOUS
10
6.63441
20
-3.23778
11
6.63434
21
-3.23697
0
LINE
8
BLACK
6
CONTINUOUS
10
6.63434
20
-3.23697
11
6.63433
21
-3.23675
0
LINE
8
BLACK
6
CONTINUOUS
10
6.63433
20
-3.23675
11
6.63426
21
-3.23653
0
LINE
8
BLACK
6
CONTINUOUS
10
6.63426
20
-3.23653
11
6.63421
21
-3.23631
0
LINE
8
BLACK
6
CONTINUOUS
10
6.63421
20
-3.23631
11
6.63422
21
-3.23631
0
LINE
8
BLACK
6
CONTINUOUS
10
6.63422
20
-3.23631
11
6.63418
21
-3.23617
0
LINE
8
BLACK
6
CONTINUOUS
10
6.63418
20
-3.23617
11
6.63418
21
-3.23617
0
LINE
8
BLACK
6
CONTINUOUS
10
6.63418
20
-3.23617
11
6.63413
21
-3.23595
0
LINE
8
BLACK
6
CONTINUOUS
10
6.63413
20
-3.23595
11
6.6341
21
-3.23572
0
LINE
8
BLACK
6
CONTINUOUS
10
6.6341
20
-3.23572
11
6.63347
21
-3.23397
0
LINE
8
BLACK
6
CONTINUOUS
10
6.63347
20
-3.23397
11
6.63311
21
-3.233
0
LINE
8
BLACK
6
CONTINUOUS
10
6.63311
20
-3.233
11
6.63307
21
-3.23287
0
LINE
8
BLACK
6
CONTINUOUS
10
6.63307
20
-3.23287
11
6.63225
21
-3.23034
0
LINE
8
BLACK
6
CONTINUOUS
10
6.63225
20
-3.23034
11
6.63218
21
-3.23012
0
LINE
8
BLACK
6
CONTINUOUS
10
6.63218
20
-3.23012
11
6.63206
21
-3.22993
0
LINE
8
BLACK
6
CONTINUOUS
10
6.63206
20
-3.22993
11
6.63197
21
-3.22972
0
LINE
8
BLACK
6
CONTINUOUS
10
6.63197
20
-3.22972
11
6.63197
21
-3.22972
0
LINE
8
BLACK
6
CONTINUOUS
10
6.63197
20
-3.22972
11
6.63191
21
-3.22959
0
LINE
8
BLACK
6
CONTINUOUS
10
6.63191
20
-3.22959
11
6.6319
21
-3.22959
0
LINE
8
BLACK
6
CONTINUOUS
10
6.6319
20
-3.22959
11
6.6318
21
-3.22939
0
LINE
8
BLACK
6
CONTINUOUS
10
6.6318
20
-3.22939
11
6.63173
21
-3.22918
0
LINE
8
BLACK
6
CONTINUOUS
10
6.63173
20
-3.22918
11
6.63014
21
-3.22676
0
LINE
8
BLACK
6
CONTINUOUS
10
6.63014
20
-3.22676
11
6.63007
21
-3.22664
0
LINE
8
BLACK
6
CONTINUOUS
10
6.63007
20
-3.22664
11
6.62866
21
-3.22432
0
LINE
8
BLACK
6
CONTINUOUS
10
6.62866
20
-3.22432
11
6.62866
21
-3.22432
0
LINE
8
BLACK
6
CONTINUOUS
10
6.62866
20
-3.22432
11
6.62857
21
-3.22417
0
LINE
8
BLACK
6
CONTINUOUS
10
6.62857
20
-3.22417
11
6.62828
21
-3.22384
0
LINE
8
BLACK
6
CONTINUOUS
10
6.62828
20
-3.22384
11
6.62828
21
-3.22383
0
LINE
8
BLACK
6
CONTINUOUS
10
6.62828
20
-3.22383
11
6.62818
21
-3.22371
0
LINE
8
BLACK
6
CONTINUOUS
10
6.62818
20
-3.22371
11
6.62818
21
-3.22372
0
LINE
8
BLACK
6
CONTINUOUS
10
6.62818
20
-3.22372
11
6.62803
21
-3.22354
0
LINE
8
BLACK
6
CONTINUOUS
10
6.62803
20
-3.22354
11
6.62791
21
-3.22335
0
LINE
8
BLACK
6
CONTINUOUS
10
6.62791
20
-3.22335
11
6.62568
21
-3.22125
0
LINE
8
BLACK
6
CONTINUOUS
10
6.62568
20
-3.22125
11
6.62561
21
-3.22117
0
LINE
8
BLACK
6
CONTINUOUS
10
6.62561
20
-3.22117
11
6.59922
21
-3.19478
0
LINE
8
BLACK
6
CONTINUOUS
10
6.59922
20
-3.19478
11
6.5981
21
-3.19241
0
LINE
8
BLACK
6
CONTINUOUS
10
6.5981
20
-3.19241
11
6.59803
21
-3.19169
0
LINE
8
BLACK
6
CONTINUOUS
10
6.59803
20
-3.19169
11
6.59803
21
-3.19169
0
LINE
8
BLACK
6
CONTINUOUS
10
6.59803
20
-3.19169
11
6.59801
21
-3.1915
0
LINE
8
BLACK
6
CONTINUOUS
10
6.59801
20
-3.1915
11
6.59588
21
-3.18445
0
LINE
8
BLACK
6
CONTINUOUS
10
6.59588
20
-3.18445
11
6.59243
21
-3.17796
0
LINE
8
BLACK
6
CONTINUOUS
10
6.59243
20
-3.17796
11
6.58778
21
-3.17225
0
LINE
8
BLACK
6
CONTINUOUS
10
6.58778
20
-3.17225
11
6.58733
21
-3.17188
0
LINE
8
BLACK
6
CONTINUOUS
10
6.58733
20
-3.17188
11
6.58225
21
-3.16768
0
LINE
8
BLACK
6
CONTINUOUS
10
6.58225
20
-3.16768
11
6.58225
21
-3.16768
0
LINE
8
BLACK
6
CONTINUOUS
10
6.58225
20
-3.16768
11
6.58211
21
-3.16756
0
LINE
8
BLACK
6
CONTINUOUS
10
6.58211
20
-3.16756
11
6.57563
21
-3.16406
0
LINE
8
BLACK
6
CONTINUOUS
10
6.57563
20
-3.16406
11
6.5686
21
-3.16189
0
LINE
8
BLACK
6
CONTINUOUS
10
6.5686
20
-3.16189
11
6.56842
21
-3.16187
0
LINE
8
BLACK
6
CONTINUOUS
10
6.56842
20
-3.16187
11
6.56842
21
-3.16187
0
LINE
8
BLACK
6
CONTINUOUS
10
6.56842
20
-3.16187
11
6.56148
21
-3.16114
0
LINE
8
BLACK
6
CONTINUOUS
10
6.56148
20
-3.16114
11
6.56148
21
-3.16114
0
LINE
8
BLACK
6
CONTINUOUS
10
6.56148
20
-3.16114
11
6.56129
21
-3.16112
0
LINE
8
BLACK
6
CONTINUOUS
10
6.56129
20
-3.16112
11
6.55893
21
-3.16133
0
LINE
8
BLACK
6
CONTINUOUS
10
6.55893
20
-3.16133
11
6.55415
21
-3.16177
0
LINE
8
BLACK
6
CONTINUOUS
10
6.55415
20
-3.16177
11
6.55415
21
-3.16177
0
LINE
8
BLACK
6
CONTINUOUS
10
6.55415
20
-3.16177
11
6.55396
21
-3.16179
0
LINE
8
BLACK
6
CONTINUOUS
10
6.55396
20
-3.16179
11
6.55378
21
-3.16184
0
LINE
8
BLACK
6
CONTINUOUS
10
6.55378
20
-3.16184
11
6.55378
21
-3.16184
0
LINE
8
BLACK
6
CONTINUOUS
10
6.55378
20
-3.16184
11
6.54708
21
-3.16381
0
LINE
8
BLACK
6
CONTINUOUS
10
6.54708
20
-3.16381
11
6.54708
21
-3.16381
0
LINE
8
BLACK
6
CONTINUOUS
10
6.54708
20
-3.16381
11
6.5469
21
-3.16386
0
LINE
8
BLACK
6
CONTINUOUS
10
6.5469
20
-3.16386
11
6.54038
21
-3.16727
0
LINE
8
BLACK
6
CONTINUOUS
10
6.54038
20
-3.16727
11
6.54023
21
-3.16739
0
LINE
8
BLACK
6
CONTINUOUS
10
6.54023
20
-3.16739
11
6.54023
21
-3.16739
0
LINE
8
BLACK
6
CONTINUOUS
10
6.54023
20
-3.16739
11
6.53549
21
-3.1712
0
LINE
8
BLACK
6
CONTINUOUS
10
6.53549
20
-3.1712
11
6.53465
21
-3.17188
0
LINE
8
BLACK
6
CONTINUOUS
10
6.53465
20
-3.17188
11
6.53452
21
-3.17203
0
LINE
8
BLACK
6
CONTINUOUS
10
6.53452
20
-3.17203
11
6.53452
21
-3.17203
0
LINE
8
BLACK
6
CONTINUOUS
10
6.53452
20
-3.17203
11
6.53339
21
-3.17338
0
LINE
8
BLACK
6
CONTINUOUS
10
6.53339
20
-3.17338
11
6.52992
21
-3.17752
0
LINE
8
BLACK
6
CONTINUOUS
10
6.52992
20
-3.17752
11
6.52982
21
-3.17769
0
LINE
8
BLACK
6
CONTINUOUS
10
6.52982
20
-3.17769
11
6.52982
21
-3.17769
0
LINE
8
BLACK
6
CONTINUOUS
10
6.52982
20
-3.17769
11
6.52683
21
-3.18314
0
LINE
8
BLACK
6
CONTINUOUS
10
6.52683
20
-3.18314
11
6.52637
21
-3.18397
0
LINE
8
BLACK
6
CONTINUOUS
10
6.52637
20
-3.18397
11
6.52631
21
-3.18415
0
LINE
8
BLACK
6
CONTINUOUS
10
6.52631
20
-3.18415
11
6.52631
21
-3.18415
0
LINE
8
BLACK
6
CONTINUOUS
10
6.52631
20
-3.18415
11
6.5242
21
-3.1908
0
LINE
8
BLACK
6
CONTINUOUS
10
6.5242
20
-3.1908
11
6.5242
21
-3.1908
0
LINE
8
BLACK
6
CONTINUOUS
10
6.5242
20
-3.1908
11
6.52415
21
-3.19098
0
LINE
8
BLACK
6
CONTINUOUS
10
6.52415
20
-3.19098
11
6.52412
21
-3.19117
0
LINE
8
BLACK
6
CONTINUOUS
10
6.52412
20
-3.19117
11
6.52356
21
-3.1962
0
LINE
8
BLACK
6
CONTINUOUS
10
6.52356
20
-3.1962
11
6.52333
21
-3.19829
0
LINE
8
BLACK
6
CONTINUOUS
10
6.52333
20
-3.19829
11
6.52334
21
-3.19848
0
LINE
8
BLACK
6
CONTINUOUS
10
6.52334
20
-3.19848
11
6.52362
21
-3.20175
0
LINE
8
BLACK
6
CONTINUOUS
10
6.52362
20
-3.20175
11
6.52394
21
-3.20562
0
LINE
8
BLACK
6
CONTINUOUS
10
6.52394
20
-3.20562
11
6.52597
21
-3.2127
0
LINE
8
BLACK
6
CONTINUOUS
10
6.52597
20
-3.2127
11
6.52681
21
-3.21433
0
LINE
8
BLACK
6
CONTINUOUS
10
6.52681
20
-3.21433
11
6.52893
21
-3.21845
0
LINE
8
BLACK
6
CONTINUOUS
10
6.52893
20
-3.21845
11
6.52933
21
-3.21924
0
LINE
8
BLACK
6
CONTINUOUS
10
6.52933
20
-3.21924
11
6.5339
21
-3.22501
0
LINE
8
BLACK
6
CONTINUOUS
10
6.5339
20
-3.22501
11
6.53405
21
-3.22513
0
LINE
8
BLACK
6
CONTINUOUS
10
6.53405
20
-3.22513
11
6.53405
21
-3.22513
0
LINE
8
BLACK
6
CONTINUOUS
10
6.53405
20
-3.22513
11
6.53449
21
-3.22551
0
LINE
8
BLACK
6
CONTINUOUS
10
6.53449
20
-3.22551
11
6.53576
21
-3.22756
0
LINE
8
BLACK
6
CONTINUOUS
10
6.53576
20
-3.22756
11
6.53557
21
-3.22996
0
LINE
8
BLACK
6
CONTINUOUS
10
6.53557
20
-3.22996
11
6.53431
21
-3.2316
0
LINE
8
BLACK
6
CONTINUOUS
10
6.53431
20
-3.2316
11
6.53218
21
-3.23319
0
LINE
8
BLACK
6
CONTINUOUS
10
6.53218
20
-3.23319
11
6.5299
21
-3.23397
0
LINE
8
BLACK
6
CONTINUOUS
10
6.5299
20
-3.23397
11
6.5275
21
-3.23319
0
LINE
8
BLACK
6
CONTINUOUS
10
6.5275
20
-3.23319
11
6.52538
21
-3.2316
0
LINE
8
BLACK
6
CONTINUOUS
10
6.52538
20
-3.2316
11
6.52456
21
-3.23098
0
LINE
8
BLACK
6
CONTINUOUS
10
6.52456
20
-3.23098
11
6.52345
21
-3.23056
0
LINE
8
BLACK
6
CONTINUOUS
10
6.52345
20
-3.23056
11
6.51941
21
-3.22905
0
LINE
8
BLACK
6
CONTINUOUS
10
6.51941
20
-3.22905
11
6.51919
21
-3.22897
0
LINE
8
BLACK
6
CONTINUOUS
10
6.51919
20
-3.22897
11
6.51894
21
-3.22894
0
LINE
8
BLACK
6
CONTINUOUS
10
6.51894
20
-3.22894
11
6.51894
21
-3.22894
0
LINE
8
BLACK
6
CONTINUOUS
10
6.51894
20
-3.22894
11
6.51752
21
-3.22879
0
LINE
8
BLACK
6
CONTINUOUS
10
6.51752
20
-3.22879
11
6.51674
21
-3.2287
0
LINE
8
BLACK
6
CONTINUOUS
10
6.51674
20
-3.2287
11
6.49295
21
-3.2287
0
LINE
8
BLACK
6
CONTINUOUS
10
6.49295
20
-3.2287
11
6.49217
21
-3.22879
0
LINE
8
BLACK
6
CONTINUOUS
10
6.49217
20
-3.22879
11
6.49074
21
-3.22894
0
LINE
8
BLACK
6
CONTINUOUS
10
6.49074
20
-3.22894
11
6.49074
21
-3.22894
0
LINE
8
BLACK
6
CONTINUOUS
10
6.49074
20
-3.22894
11
6.4905
21
-3.22897
0
LINE
8
BLACK
6
CONTINUOUS
10
6.4905
20
-3.22897
11
6.49027
21
-3.22905
0
LINE
8
BLACK
6
CONTINUOUS
10
6.49027
20
-3.22905
11
6.48624
21
-3.23056
0
LINE
8
BLACK
6
CONTINUOUS
10
6.48624
20
-3.23056
11
6.48513
21
-3.23098
0
LINE
8
BLACK
6
CONTINUOUS
10
6.48513
20
-3.23098
11
6.48054
21
-3.23442
0
LINE
8
BLACK
6
CONTINUOUS
10
6.48054
20
-3.23442
11
6.4771
21
-3.23901
0
LINE
8
BLACK
6
CONTINUOUS
10
6.4771
20
-3.23901
11
6.477
21
-3.23927
0
LINE
8
BLACK
6
CONTINUOUS
10
6.477
20
-3.23927
11
6.477
21
-3.23927
0
LINE
8
BLACK
6
CONTINUOUS
10
6.477
20
-3.23927
11
6.47622
21
-3.24136
0
LINE
8
BLACK
6
CONTINUOUS
10
6.47622
20
-3.24136
11
6.47509
21
-3.24438
0
LINE
8
BLACK
6
CONTINUOUS
10
6.47509
20
-3.24438
11
6.47482
21
-3.24683
0
LINE
8
BLACK
6
CONTINUOUS
10
6.47482
20
-3.24683
11
6.47482
21
-3.29562
0
LINE
8
BLACK
6
CONTINUOUS
10
6.47482
20
-3.29562
11
6.47509
21
-3.29806
0
LINE
8
BLACK
6
CONTINUOUS
10
6.47509
20
-3.29806
11
6.47649
21
-3.30181
0
LINE
8
BLACK
6
CONTINUOUS
10
6.47649
20
-3.30181
11
6.47654
21
-3.30195
0
LINE
8
BLACK
6
CONTINUOUS
10
6.47654
20
-3.30195
11
6.47679
21
-3.30311
0
LINE
8
BLACK
6
CONTINUOUS
10
6.47679
20
-3.30311
11
6.4768
21
-3.30332
0
LINE
8
BLACK
6
CONTINUOUS
10
6.4768
20
-3.30332
11
6.47678
21
-3.30356
0
LINE
8
BLACK
6
CONTINUOUS
10
6.47678
20
-3.30356
11
6.47682
21
-3.30379
0
LINE
8
BLACK
6
CONTINUOUS
10
6.47682
20
-3.30379
11
6.47682
21
-3.30379
0
LINE
8
BLACK
6
CONTINUOUS
10
6.47682
20
-3.30379
11
6.47722
21
-3.30606
0
LINE
8
BLACK
6
CONTINUOUS
10
6.47722
20
-3.30606
11
6.47725
21
-3.30626
0
LINE
8
BLACK
6
CONTINUOUS
10
6.47725
20
-3.30626
11
6.47756
21
-3.30879
0
LINE
8
BLACK
6
CONTINUOUS
10
6.47756
20
-3.30879
11
6.47764
21
-3.30901
0
LINE
8
BLACK
6
CONTINUOUS
10
6.47764
20
-3.30901
11
6.47764
21
-3.30901
0
LINE
8
BLACK
6
CONTINUOUS
10
6.47764
20
-3.30901
11
6.47769
21
-3.30914
0
LINE
8
BLACK
6
CONTINUOUS
10
6.47769
20
-3.30914
11
6.47788
21
-3.30984
0
LINE
8
BLACK
6
CONTINUOUS
10
6.47788
20
-3.30984
11
6.47794
21
-3.31021
0
LINE
8
BLACK
6
CONTINUOUS
10
6.47794
20
-3.31021
11
6.47804
21
-3.31042
0
LINE
8
BLACK
6
CONTINUOUS
10
6.47804
20
-3.31042
11
6.47897
21
-3.31254
0
LINE
8
BLACK
6
CONTINUOUS
10
6.47897
20
-3.31254
11
6.47904
21
-3.31273
0
LINE
8
BLACK
6
CONTINUOUS
10
6.47904
20
-3.31273
11
6.47994
21
-3.3151
0
LINE
8
BLACK
6
CONTINUOUS
10
6.47994
20
-3.3151
11
6.48015
21
-3.31541
0
LINE
8
BLACK
6
CONTINUOUS
10
6.48015
20
-3.31541
11
6.48051
21
-3.31605
0
LINE
8
BLACK
6
CONTINUOUS
10
6.48051
20
-3.31605
11
6.48066
21
-3.31639
0
LINE
8
BLACK
6
CONTINUOUS
10
6.48066
20
-3.31639
11
6.4808
21
-3.31658
0
LINE
8
BLACK
6
CONTINUOUS
10
6.4808
20
-3.31658
11
6.48221
21
-3.31841
0
LINE
8
BLACK
6
CONTINUOUS
10
6.48221
20
-3.31841
11
6.48233
21
-3.31857
0
LINE
8
BLACK
6
CONTINUOUS
10
6.48233
20
-3.31857
11
6.48377
21
-3.32067
0
LINE
8
BLACK
6
CONTINUOUS
10
6.48377
20
-3.32067
11
6.48559
21
-3.3223
0
LINE
8
BLACK
6
CONTINUOUS
10
6.48559
20
-3.3223
11
6.48562
21
-3.32232
0
LINE
8
BLACK
6
CONTINUOUS
10
6.48562
20
-3.32232
11
6.48578
21
-3.32247
0
LINE
8
BLACK
6
CONTINUOUS
10
6.48578
20
-3.32247
11
6.57797
21
-3.41467
0
LINE
8
BLACK
6
CONTINUOUS
10
6.57797
20
-3.41467
11
6.57815
21
-3.41486
0
LINE
8
BLACK
6
CONTINUOUS
10
6.57815
20
-3.41486
11
6.57967
21
-3.4166
0
LINE
8
BLACK
6
CONTINUOUS
10
6.57967
20
-3.4166
11
6.57987
21
-3.41674
0
LINE
8
BLACK
6
CONTINUOUS
10
6.57987
20
-3.41674
11
6.57987
21
-3.41674
0
LINE
8
BLACK
6
CONTINUOUS
10
6.57987
20
-3.41674
11
6.58176
21
-3.41806
0
LINE
8
BLACK
6
CONTINUOUS
10
6.58176
20
-3.41806
11
6.58192
21
-3.41819
0
LINE
8
BLACK
6
CONTINUOUS
10
6.58192
20
-3.41819
11
6.58374
21
-3.41961
0
LINE
8
BLACK
6
CONTINUOUS
10
6.58374
20
-3.41961
11
6.58374
21
-3.41961
0
LINE
8
BLACK
6
CONTINUOUS
10
6.58374
20
-3.41961
11
6.58392
21
-3.41975
0
LINE
8
BLACK
6
CONTINUOUS
10
6.58392
20
-3.41975
11
6.58413
21
-3.41985
0
LINE
8
BLACK
6
CONTINUOUS
10
6.58413
20
-3.41985
11
6.58426
21
-3.41991
0
LINE
8
BLACK
6
CONTINUOUS
10
6.58426
20
-3.41991
11
6.5849
21
-3.42027
0
LINE
8
BLACK
6
CONTINUOUS
10
6.5849
20
-3.42027
11
6.58501
21
-3.42035
0
LINE
8
BLACK
6
CONTINUOUS
10
6.58501
20
-3.42035
11
6.58501
21
-3.42035
0
LINE
8
BLACK
6
CONTINUOUS
10
6.58501
20
-3.42035
11
6.5852
21
-3.42048
0
LINE
8
BLACK
6
CONTINUOUS
10
6.5852
20
-3.42048
11
6.58757
21
-3.42141
0
LINE
8
BLACK
6
CONTINUOUS
10
6.58757
20
-3.42141
11
6.58776
21
-3.42149
0
LINE
8
BLACK
6
CONTINUOUS
10
6.58776
20
-3.42149
11
6.59007
21
-3.42253
0
LINE
8
BLACK
6
CONTINUOUS
10
6.59007
20
-3.42253
11
6.5903
21
-3.42258
0
LINE
8
BLACK
6
CONTINUOUS
10
6.5903
20
-3.42258
11
6.5903
21
-3.42258
0
LINE
8
BLACK
6
CONTINUOUS
10
6.5903
20
-3.42258
11
6.59044
21
-3.4226
0
LINE
8
BLACK
6
CONTINUOUS
10
6.59044
20
-3.4226
11
6.59114
21
-3.4228
0
LINE
8
BLACK
6
CONTINUOUS
10
6.59114
20
-3.4228
11
6.59149
21
-3.42294
0
LINE
8
BLACK
6
CONTINUOUS
10
6.59149
20
-3.42294
11
6.59401
21
-3.42327
0
LINE
8
BLACK
6
CONTINUOUS
10
6.59401
20
-3.42327
11
6.59421
21
-3.4233
0
LINE
8
BLACK
6
CONTINUOUS
10
6.59421
20
-3.4233
11
6.59496
21
-3.42344
0
LINE
8
BLACK
6
CONTINUOUS
10
6.59496
20
-3.42344
11
6.59648
21
-3.42372
0
LINE
8
BLACK
6
CONTINUOUS
10
6.59648
20
-3.42372
11
6.59648
21
-3.42372
0
LINE
8
BLACK
6
CONTINUOUS
10
6.59648
20
-3.42372
11
6.59671
21
-3.42376
0
LINE
8
BLACK
6
CONTINUOUS
10
6.59671
20
-3.42376
11
6.59919
21
-3.42362
0
LINE
8
BLACK
6
CONTINUOUS
10
6.59919
20
-3.42362
11
6.59942
21
-3.42361
0
LINE
8
BLACK
6
CONTINUOUS
10
6.59942
20
-3.42361
11
6.64169
21
-3.42361
0
LINE
8
BLACK
6
CONTINUOUS
10
6.64169
20
-3.42361
11
6.64398
21
-3.42436
0
LINE
8
BLACK
6
CONTINUOUS
10
6.64398
20
-3.42436
11
6.64539
21
-3.42631
0
LINE
8
BLACK
6
CONTINUOUS
10
6.64539
20
-3.42631
11
6.64534
21
-3.42888
0
LINE
8
BLACK
6
CONTINUOUS
10
6.64534
20
-3.42888
11
6.64459
21
-3.43088
0
LINE
8
BLACK
6
CONTINUOUS
10
6.64459
20
-3.43088
11
6.64456
21
-3.43112
0
LINE
8
BLACK
6
CONTINUOUS
10
6.64456
20
-3.43112
11
6.64456
21
-3.43112
0
LINE
8
BLACK
6
CONTINUOUS
10
6.64456
20
-3.43112
11
6.64455
21
-3.43123
0
LINE
8
BLACK
6
CONTINUOUS
10
6.64455
20
-3.43123
11
6.64432
21
-3.43333
0
LINE
8
BLACK
6
CONTINUOUS
10
6.64432
20
-3.43333
11
6.64432
21
-3.47212
0
LINE
8
BLACK
6
CONTINUOUS
10
6.64432
20
-3.47212
11
6.64459
21
-3.47456
0
LINE
8
BLACK
6
CONTINUOUS
10
6.64459
20
-3.47456
11
6.64467
21
-3.47479
0
LINE
8
BLACK
6
CONTINUOUS
10
6.64467
20
-3.47479
11
6.64624
21
-3.47897
0
LINE
8
BLACK
6
CONTINUOUS
10
6.64624
20
-3.47897
11
6.6466
21
-3.47993
0
LINE
8
BLACK
6
CONTINUOUS
10
6.6466
20
-3.47993
11
6.65004
21
-3.48452
0
LINE
8
BLACK
6
CONTINUOUS
10
6.65004
20
-3.48452
11
6.65026
21
-3.48469
0
LINE
8
BLACK
6
CONTINUOUS
10
6.65026
20
-3.48469
11
6.65026
21
-3.48469
0
LINE
8
BLACK
6
CONTINUOUS
10
6.65026
20
-3.48469
11
6.65348
21
-3.4871
0
LINE
8
BLACK
6
CONTINUOUS
10
6.65348
20
-3.4871
11
6.65487
21
-3.48907
0
LINE
8
BLACK
6
CONTINUOUS
10
6.65487
20
-3.48907
11
6.65483
21
-3.49148
0
LINE
8
BLACK
6
CONTINUOUS
10
6.65483
20
-3.49148
11
6.65348
21
-3.49334
0
LINE
8
BLACK
6
CONTINUOUS
10
6.65348
20
-3.49334
11
6.65026
21
-3.49575
0
LINE
8
BLACK
6
CONTINUOUS
10
6.65026
20
-3.49575
11
6.65026
21
-3.49575
0
LINE
8
BLACK
6
CONTINUOUS
10
6.65026
20
-3.49575
11
6.65004
21
-3.49592
0
LINE
8
BLACK
6
CONTINUOUS
10
6.65004
20
-3.49592
11
6.64987
21
-3.49614
0
LINE
8
BLACK
6
CONTINUOUS
10
6.64987
20
-3.49614
11
6.6498
21
-3.49623
0
LINE
8
BLACK
6
CONTINUOUS
10
6.6498
20
-3.49623
11
6.6466
21
-3.50051
0
LINE
8
BLACK
6
CONTINUOUS
10
6.6466
20
-3.50051
11
6.64459
21
-3.50588
0
LINE
8
BLACK
6
CONTINUOUS
10
6.64459
20
-3.50588
11
6.64456
21
-3.50612
0
LINE
8
BLACK
6
CONTINUOUS
10
6.64456
20
-3.50612
11
6.64456
21
-3.50612
0
LINE
8
BLACK
6
CONTINUOUS
10
6.64456
20
-3.50612
11
6.64452
21
-3.50655
0
LINE
8
BLACK
6
CONTINUOUS
10
6.64452
20
-3.50655
11
6.64432
21
-3.50833
0
LINE
8
BLACK
6
CONTINUOUS
10
6.64432
20
-3.50833
11
6.64432
21
-3.54712
0
LINE
8
BLACK
6
CONTINUOUS
10
6.64432
20
-3.54712
11
6.64459
21
-3.54956
0
LINE
8
BLACK
6
CONTINUOUS
10
6.64459
20
-3.54956
11
6.6466
21
-3.55493
0
LINE
8
BLACK
6
CONTINUOUS
10
6.6466
20
-3.55493
11
6.65004
21
-3.55952
0
LINE
8
BLACK
6
CONTINUOUS
10
6.65004
20
-3.55952
11
6.65463
21
-3.56296
0
LINE
8
BLACK
6
CONTINUOUS
10
6.65463
20
-3.56296
11
6.65489
21
-3.56306
0
LINE
8
BLACK
6
CONTINUOUS
10
6.65489
20
-3.56306
11
6.65489
21
-3.56306
0
LINE
8
BLACK
6
CONTINUOUS
10
6.65489
20
-3.56306
11
6.65671
21
-3.56374
0
LINE
8
BLACK
6
CONTINUOUS
10
6.65671
20
-3.56374
11
6.66
21
-3.56497
0
LINE
8
BLACK
6
CONTINUOUS
10
6.66
20
-3.56497
11
6.66024
21
-3.565
0
LINE
8
BLACK
6
CONTINUOUS
10
6.66024
20
-3.565
11
6.66024
21
-3.565
0
LINE
8
BLACK
6
CONTINUOUS
10
6.66024
20
-3.565
11
6.66155
21
-3.56514
0
LINE
8
BLACK
6
CONTINUOUS
10
6.66155
20
-3.56514
11
6.66245
21
-3.56524
0
LINE
8
BLACK
6
CONTINUOUS
10
6.66245
20
-3.56524
11
6.72124
21
-3.56524
0
LINE
8
BLACK
6
CONTINUOUS
10
6.72124
20
-3.56524
11
6.72213
21
-3.56514
0
LINE
8
BLACK
6
CONTINUOUS
10
6.72213
20
-3.56514
11
6.72344
21
-3.565
0
LINE
8
BLACK
6
CONTINUOUS
10
6.72344
20
-3.565
11
6.72344
21
-3.565
0
LINE
8
BLACK
6
CONTINUOUS
10
6.72344
20
-3.565
11
6.72369
21
-3.56497
0
LINE
8
BLACK
6
CONTINUOUS
10
6.72369
20
-3.56497
11
6.72698
21
-3.56374
0
LINE
8
BLACK
6
CONTINUOUS
10
6.72698
20
-3.56374
11
6.7288
21
-3.56306
0
LINE
8
BLACK
6
CONTINUOUS
10
6.7288
20
-3.56306
11
6.7288
21
-3.56306
0
LINE
8
BLACK
6
CONTINUOUS
10
6.7288
20
-3.56306
11
6.72906
21
-3.56296
0
LINE
8
BLACK
6
CONTINUOUS
10
6.72906
20
-3.56296
11
6.73364
21
-3.55952
0
LINE
8
BLACK
6
CONTINUOUS
10
6.73364
20
-3.55952
11
6.73708
21
-3.55493
0
LINE
8
BLACK
6
CONTINUOUS
10
6.73708
20
-3.55493
11
6.7391
21
-3.54956
0
LINE
8
BLACK
6
CONTINUOUS
10
6.7391
20
-3.54956
11
6.73936
21
-3.54712
0
LINE
8
BLACK
6
CONTINUOUS
10
6.73936
20
-3.54712
11
6.73936
21
-3.53826
0
LINE
8
BLACK
6
CONTINUOUS
10
6.73936
20
-3.53826
11
6.74011
21
-3.53597
0
LINE
8
BLACK
6
CONTINUOUS
10
6.74011
20
-3.53597
11
6.7405
21
-3.53551
0
LINE
8
BLACK
6
CONTINUOUS
10
6.7405
20
-3.53551
11
6.76909
21
-3.50692
0
LINE
8
BLACK
6
CONTINUOUS
10
6.76909
20
-3.50692
11
6.77123
21
-3.50583
0
LINE
8
BLACK
6
CONTINUOUS
10
6.77123
20
-3.50583
11
6.77361
21
-3.50621
0
LINE
8
BLACK
6
CONTINUOUS
10
6.77361
20
-3.50621
11
6.7746
21
-3.50692
0
LINE
8
BLACK
6
CONTINUOUS
10
6.7746
20
-3.50692
11
6.77544
21
-3.50777
0
LINE
8
BLACK
6
CONTINUOUS
10
6.77544
20
-3.50777
11
6.77632
21
-3.50864
0
LINE
8
BLACK
6
CONTINUOUS
10
6.77632
20
-3.50864
11
6.77741
21
-3.51079
0
LINE
8
BLACK
6
CONTINUOUS
10
6.77741
20
-3.51079
11
6.77703
21
-3.51317
0
LINE
8
BLACK
6
CONTINUOUS
10
6.77703
20
-3.51317
11
6.77668
21
-3.51374
0
LINE
8
BLACK
6
CONTINUOUS
10
6.77668
20
-3.51374
11
6.77477
21
-3.51629
0
LINE
8
BLACK
6
CONTINUOUS
10
6.77477
20
-3.51629
11
6.7746
21
-3.51651
0
LINE
8
BLACK
6
CONTINUOUS
10
6.7746
20
-3.51651
11
6.7745
21
-3.51677
0
LINE
8
BLACK
6
CONTINUOUS
10
6.7745
20
-3.51677
11
6.7745
21
-3.51677
0
LINE
8
BLACK
6
CONTINUOUS
10
6.7745
20
-3.51677
11
6.77383
21
-3.51857
0
LINE
8
BLACK
6
CONTINUOUS
10
6.77383
20
-3.51857
11
6.77259
21
-3.52188
0
LINE
8
BLACK
6
CONTINUOUS
10
6.77259
20
-3.52188
11
6.77256
21
-3.52212
0
LINE
8
BLACK
6
CONTINUOUS
10
6.77256
20
-3.52212
11
6.77256
21
-3.52212
0
LINE
8
BLACK
6
CONTINUOUS
10
6.77256
20
-3.52212
11
6.77242
21
-3.52339
0
LINE
8
BLACK
6
CONTINUOUS
10
6.77242
20
-3.52339
11
6.77232
21
-3.52433
0
LINE
8
BLACK
6
CONTINUOUS
10
6.77232
20
-3.52433
11
6.77232
21
-3.56312
0
LINE
8
BLACK
6
CONTINUOUS
10
6.77232
20
-3.56312
11
6.77233
21
-3.56322
0
LINE
8
BLACK
6
CONTINUOUS
10
6.77233
20
-3.56322
11
6.77254
21
-3.56514
0
LINE
8
BLACK
6
CONTINUOUS
10
6.77254
20
-3.56514
11
6.77259
21
-3.56556
0
LINE
8
BLACK
6
CONTINUOUS
10
6.77259
20
-3.56556
11
6.77267
21
-3.56579
0
LINE
8
BLACK
6
CONTINUOUS
10
6.77267
20
-3.56579
11
6.774
21
-3.56932
0
LINE
8
BLACK
6
CONTINUOUS
10
6.774
20
-3.56932
11
6.7746
21
-3.57093
0
LINE
8
BLACK
6
CONTINUOUS
10
6.7746
20
-3.57093
11
6.77804
21
-3.57552
0
LINE
8
BLACK
6
CONTINUOUS
10
6.77804
20
-3.57552
11
6.77826
21
-3.57569
0
LINE
8
BLACK
6
CONTINUOUS
10
6.77826
20
-3.57569
11
6.77826
21
-3.57569
0
LINE
8
BLACK
6
CONTINUOUS
10
6.77826
20
-3.57569
11
6.78148
21
-3.5781
0
LINE
8
BLACK
6
CONTINUOUS
10
6.78148
20
-3.5781
11
6.78287
21
-3.58007
0
LINE
8
BLACK
6
CONTINUOUS
10
6.78287
20
-3.58007
11
6.78283
21
-3.58248
0
LINE
8
BLACK
6
CONTINUOUS
10
6.78283
20
-3.58248
11
6.78148
21
-3.58434
0
LINE
8
BLACK
6
CONTINUOUS
10
6.78148
20
-3.58434
11
6.77826
21
-3.58675
0
LINE
8
BLACK
6
CONTINUOUS
10
6.77826
20
-3.58675
11
6.77826
21
-3.58675
0
LINE
8
BLACK
6
CONTINUOUS
10
6.77826
20
-3.58675
11
6.77804
21
-3.58692
0
LINE
8
BLACK
6
CONTINUOUS
10
6.77804
20
-3.58692
11
6.77787
21
-3.58714
0
LINE
8
BLACK
6
CONTINUOUS
10
6.77787
20
-3.58714
11
6.77787
21
-3.58714
0
LINE
8
BLACK
6
CONTINUOUS
10
6.77787
20
-3.58714
11
6.7757
21
-3.59004
0
LINE
8
BLACK
6
CONTINUOUS
10
6.7757
20
-3.59004
11
6.77373
21
-3.59143
0
LINE
8
BLACK
6
CONTINUOUS
10
6.77373
20
-3.59143
11
6.77176
21
-3.59149
0
LINE
8
BLACK
6
CONTINUOUS
10
6.77176
20
-3.59149
11
6.77169
21
-3.59147
0
LINE
8
BLACK
6
CONTINUOUS
10
6.77169
20
-3.59147
11
6.76924
21
-3.5912
0
LINE
8
BLACK
6
CONTINUOUS
10
6.76924
20
-3.5912
11
6.71045
21
-3.5912
0
LINE
8
BLACK
6
CONTINUOUS
10
6.71045
20
-3.5912
11
6.70967
21
-3.59129
0
LINE
8
BLACK
6
CONTINUOUS
10
6.70967
20
-3.59129
11
6.70824
21
-3.59144
0
LINE
8
BLACK
6
CONTINUOUS
10
6.70824
20
-3.59144
11
6.70824
21
-3.59144
0
LINE
8
BLACK
6
CONTINUOUS
10
6.70824
20
-3.59144
11
6.708
21
-3.59147
0
LINE
8
BLACK
6
CONTINUOUS
10
6.708
20
-3.59147
11
6.70263
21
-3.59348
0
LINE
8
BLACK
6
CONTINUOUS
10
6.70263
20
-3.59348
11
6.69804
21
-3.59692
0
LINE
8
BLACK
6
CONTINUOUS
10
6.69804
20
-3.59692
11
6.69787
21
-3.59714
0
LINE
8
BLACK
6
CONTINUOUS
10
6.69787
20
-3.59714
11
6.69787
21
-3.59714
0
LINE
8
BLACK
6
CONTINUOUS
10
6.69787
20
-3.59714
11
6.69628
21
-3.59927
0
LINE
8
BLACK
6
CONTINUOUS
10
6.69628
20
-3.59927
11
6.69431
21
-3.60065
0
LINE
8
BLACK
6
CONTINUOUS
10
6.69431
20
-3.60065
11
6.69316
21
-3.60083
0
LINE
8
BLACK
6
CONTINUOUS
10
6.69316
20
-3.60083
11
6.69152
21
-3.60083
0
LINE
8
BLACK
6
CONTINUOUS
10
6.69152
20
-3.60083
11
6.68923
21
-3.60008
0
LINE
8
BLACK
6
CONTINUOUS
10
6.68923
20
-3.60008
11
6.6884
21
-3.59927
0
LINE
8
BLACK
6
CONTINUOUS
10
6.6884
20
-3.59927
11
6.68681
21
-3.59714
0
LINE
8
BLACK
6
CONTINUOUS
10
6.68681
20
-3.59714
11
6.68681
21
-3.59714
0
LINE
8
BLACK
6
CONTINUOUS
10
6.68681
20
-3.59714
11
6.68664
21
-3.59692
0
LINE
8
BLACK
6
CONTINUOUS
10
6.68664
20
-3.59692
11
6.68206
21
-3.59348
0
LINE
8
BLACK
6
CONTINUOUS
10
6.68206
20
-3.59348
11
6.67669
21
-3.59147
0
LINE
8
BLACK
6
CONTINUOUS
10
6.67669
20
-3.59147
11
6.67644
21
-3.59144
0
LINE
8
BLACK
6
CONTINUOUS
10
6.67644
20
-3.59144
11
6.67644
21
-3.59144
0
LINE
8
BLACK
6
CONTINUOUS
10
6.67644
20
-3.59144
11
6.67502
21
-3.59129
0
LINE
8
BLACK
6
CONTINUOUS
10
6.67502
20
-3.59129
11
6.67424
21
-3.5912
0
LINE
8
BLACK
6
CONTINUOUS
10
6.67424
20
-3.5912
11
6.64838
21
-3.5912
0
LINE
8
BLACK
6
CONTINUOUS
10
6.64838
20
-3.5912
11
6.64609
21
-3.59046
0
LINE
8
BLACK
6
CONTINUOUS
10
6.64609
20
-3.59046
11
6.64563
21
-3.59006
0
LINE
8
BLACK
6
CONTINUOUS
10
6.64563
20
-3.59006
11
6.63388
21
-3.57831
0
LINE
8
BLACK
6
CONTINUOUS
10
6.63388
20
-3.57831
11
6.63278
21
-3.57616
0
LINE
8
BLACK
6
CONTINUOUS
10
6.63278
20
-3.57616
11
6.63274
21
-3.57555
0
LINE
8
BLACK
6
CONTINUOUS
10
6.63274
20
-3.57555
11
6.63274
21
-3.55373
0
LINE
8
BLACK
6
CONTINUOUS
10
6.63274
20
-3.55373
11
6.63298
21
-3.55236
0
LINE
8
BLACK
6
CONTINUOUS
10
6.63298
20
-3.55236
11
6.63451
21
-3.54829
0
LINE
8
BLACK
6
CONTINUOUS
10
6.63451
20
-3.54829
11
6.6346
21
-3.54806
0
LINE
8
BLACK
6
CONTINUOUS
10
6.6346
20
-3.54806
11
6.63486
21
-3.54562
0
LINE
8
BLACK
6
CONTINUOUS
10
6.63486
20
-3.54562
11
6.63486
21
-3.49683
0
LINE
8
BLACK
6
CONTINUOUS
10
6.63486
20
-3.49683
11
6.6346
21
-3.49438
0
LINE
8
BLACK
6
CONTINUOUS
10
6.6346
20
-3.49438
11
6.63341
21
-3.49122
0
LINE
8
BLACK
6
CONTINUOUS
10
6.63341
20
-3.49122
11
6.63268
21
-3.48927
0
LINE
8
BLACK
6
CONTINUOUS
10
6.63268
20
-3.48927
11
6.63268
21
-3.48927
0
LINE
8
BLACK
6
CONTINUOUS
10
6.63268
20
-3.48927
11
6.63258
21
-3.48901
0
LINE
8
BLACK
6
CONTINUOUS
10
6.63258
20
-3.48901
11
6.62914
21
-3.48442
0
LINE
8
BLACK
6
CONTINUOUS
10
6.62914
20
-3.48442
11
6.62456
21
-3.48098
0
LINE
8
BLACK
6
CONTINUOUS
10
6.62456
20
-3.48098
11
6.62236
21
-3.48016
0
LINE
8
BLACK
6
CONTINUOUS
10
6.62236
20
-3.48016
11
6.61941
21
-3.47905
0
LINE
8
BLACK
6
CONTINUOUS
10
6.61941
20
-3.47905
11
6.61919
21
-3.47897
0
LINE
8
BLACK
6
CONTINUOUS
10
6.61919
20
-3.47897
11
6.61894
21
-3.47894
0
LINE
8
BLACK
6
CONTINUOUS
10
6.61894
20
-3.47894
11
6.61894
21
-3.47894
0
LINE
8
BLACK
6
CONTINUOUS
10
6.61894
20
-3.47894
11
6.61753
21
-3.47879
0
LINE
8
BLACK
6
CONTINUOUS
10
6.61753
20
-3.47879
11
6.61674
21
-3.4787
0
LINE
8
BLACK
6
CONTINUOUS
10
6.61674
20
-3.4787
11
6.59295
21
-3.4787
0
LINE
8
BLACK
6
CONTINUOUS
10
6.59295
20
-3.4787
11
6.59216
21
-3.47879
0
LINE
8
BLACK
6
CONTINUOUS
10
6.59216
20
-3.47879
11
6.59074
21
-3.47894
0
LINE
8
BLACK
6
CONTINUOUS
10
6.59074
20
-3.47894
11
6.59074
21
-3.47894
0
LINE
8
BLACK
6
CONTINUOUS
10
6.59074
20
-3.47894
11
6.5905
21
-3.47897
0
LINE
8
BLACK
6
CONTINUOUS
10
6.5905
20
-3.47897
11
6.59027
21
-3.47905
0
LINE
8
BLACK
6
CONTINUOUS
10
6.59027
20
-3.47905
11
6.58733
21
-3.48016
0
LINE
8
BLACK
6
CONTINUOUS
10
6.58733
20
-3.48016
11
6.58513
21
-3.48098
0
LINE
8
BLACK
6
CONTINUOUS
10
6.58513
20
-3.48098
11
6.5822
21
-3.48318
0
LINE
8
BLACK
6
CONTINUOUS
10
6.5822
20
-3.48318
11
6.58218
21
-3.48319
0
LINE
8
BLACK
6
CONTINUOUS
10
6.58218
20
-3.48319
11
6.5799
21
-3.48397
0
LINE
8
BLACK
6
CONTINUOUS
10
6.5799
20
-3.48397
11
6.5775
21
-3.48319
0
LINE
8
BLACK
6
CONTINUOUS
10
6.5775
20
-3.48319
11
6.57749
21
-3.48318
0
LINE
8
BLACK
6
CONTINUOUS
10
6.57749
20
-3.48318
11
6.57456
21
-3.48098
0
LINE
8
BLACK
6
CONTINUOUS
10
6.57456
20
-3.48098
11
6.57236
21
-3.48016
0
LINE
8
BLACK
6
CONTINUOUS
10
6.57236
20
-3.48016
11
6.56941
21
-3.47905
0
LINE
8
BLACK
6
CONTINUOUS
10
6.56941
20
-3.47905
11
6.56919
21
-3.47897
0
LINE
8
BLACK
6
CONTINUOUS
10
6.56919
20
-3.47897
11
6.56894
21
-3.47894
0
LINE
8
BLACK
6
CONTINUOUS
10
6.56894
20
-3.47894
11
6.56894
21
-3.47894
0
LINE
8
BLACK
6
CONTINUOUS
10
6.56894
20
-3.47894
11
6.56753
21
-3.47879
0
LINE
8
BLACK
6
CONTINUOUS
10
6.56753
20
-3.47879
11
6.56674
21
-3.4787
0
LINE
8
BLACK
6
CONTINUOUS
10
6.56674
20
-3.4787
11
6.54295
21
-3.4787
0
LINE
8
BLACK
6
CONTINUOUS
10
6.54295
20
-3.4787
11
6.54216
21
-3.47879
0
LINE
8
BLACK
6
CONTINUOUS
10
6.54216
20
-3.47879
11
6.54074
21
-3.47894
0
LINE
8
BLACK
6
CONTINUOUS
10
6.54074
20
-3.47894
11
6.54074
21
-3.47894
0
LINE
8
BLACK
6
CONTINUOUS
10
6.54074
20
-3.47894
11
6.5405
21
-3.47897
0
LINE
8
BLACK
6
CONTINUOUS
10
6.5405
20
-3.47897
11
6.54027
21
-3.47905
0
LINE
8
BLACK
6
CONTINUOUS
10
6.54027
20
-3.47905
11
6.53733
21
-3.48016
0
LINE
8
BLACK
6
CONTINUOUS
10
6.53733
20
-3.48016
11
6.53513
21
-3.48098
0
LINE
8
BLACK
6
CONTINUOUS
10
6.53513
20
-3.48098
11
6.5322
21
-3.48318
0
LINE
8
BLACK
6
CONTINUOUS
10
6.5322
20
-3.48318
11
6.53218
21
-3.48319
0
LINE
8
BLACK
6
CONTINUOUS
10
6.53218
20
-3.48319
11
6.5299
21
-3.48397
0
LINE
8
BLACK
6
CONTINUOUS
10
6.5299
20
-3.48397
11
6.5275
21
-3.48319
0
LINE
8
BLACK
6
CONTINUOUS
10
6.5275
20
-3.48319
11
6.52749
21
-3.48318
0
LINE
8
BLACK
6
CONTINUOUS
10
6.52749
20
-3.48318
11
6.52456
21
-3.48098
0
LINE
8
BLACK
6
CONTINUOUS
10
6.52456
20
-3.48098
11
6.52236
21
-3.48016
0
LINE
8
BLACK
6
CONTINUOUS
10
6.52236
20
-3.48016
11
6.51941
21
-3.47905
0
LINE
8
BLACK
6
CONTINUOUS
10
6.51941
20
-3.47905
11
6.51919
21
-3.47897
0
LINE
8
BLACK
6
CONTINUOUS
10
6.51919
20
-3.47897
11
6.51894
21
-3.47894
0
LINE
8
BLACK
6
CONTINUOUS
10
6.51894
20
-3.47894
11
6.51894
21
-3.47894
0
LINE
8
BLACK
6
CONTINUOUS
10
6.51894
20
-3.47894
11
6.51753
21
-3.47879
0
LINE
8
BLACK
6
CONTINUOUS
10
6.51753
20
-3.47879
11
6.51674
21
-3.4787
0
LINE
8
BLACK
6
CONTINUOUS
10
6.51674
20
-3.4787
11
6.49295
21
-3.4787
0
LINE
8
BLACK
6
CONTINUOUS
10
6.49295
20
-3.4787
11
6.49216
21
-3.47879
0
LINE
8
BLACK
6
CONTINUOUS
10
6.49216
20
-3.47879
11
6.49074
21
-3.47894
0
LINE
8
BLACK
6
CONTINUOUS
10
6.49074
20
-3.47894
11
6.49074
21
-3.47894
0
LINE
8
BLACK
6
CONTINUOUS
10
6.49074
20
-3.47894
11
6.4905
21
-3.47897
0
LINE
8
BLACK
6
CONTINUOUS
10
6.4905
20
-3.47897
11
6.49027
21
-3.47905
0
LINE
8
BLACK
6
CONTINUOUS
10
6.49027
20
-3.47905
11
6.48733
21
-3.48016
0
LINE
8
BLACK
6
CONTINUOUS
10
6.48733
20
-3.48016
11
6.48513
21
-3.48098
0
LINE
8
BLACK
6
CONTINUOUS
10
6.48513
20
-3.48098
11
6.4822
21
-3.48318
0
LINE
8
BLACK
6
CONTINUOUS
10
6.4822
20
-3.48318
11
6.48218
21
-3.48319
0
LINE
8
BLACK
6
CONTINUOUS
10
6.48218
20
-3.48319
11
6.4799
21
-3.48397
0
LINE
8
BLACK
6
CONTINUOUS
10
6.4799
20
-3.48397
11
6.4775
21
-3.48319
0
LINE
8
BLACK
6
CONTINUOUS
10
6.4775
20
-3.48319
11
6.47749
21
-3.48318
0
LINE
8
BLACK
6
CONTINUOUS
10
6.47749
20
-3.48318
11
6.47456
21
-3.48098
0
LINE
8
BLACK
6
CONTINUOUS
10
6.47456
20
-3.48098
11
6.47236
21
-3.48016
0
LINE
8
BLACK
6
CONTINUOUS
10
6.47236
20
-3.48016
11
6.46941
21
-3.47905
0
LINE
8
BLACK
6
CONTINUOUS
10
6.46941
20
-3.47905
11
6.46919
21
-3.47897
0
LINE
8
BLACK
6
CONTINUOUS
10
6.46919
20
-3.47897
11
6.46894
21
-3.47894
0
LINE
8
BLACK
6
CONTINUOUS
10
6.46894
20
-3.47894
11
6.46894
21
-3.47894
0
LINE
8
BLACK
6
CONTINUOUS
10
6.46894
20
-3.47894
11
6.46753
21
-3.47879
0
LINE
8
BLACK
6
CONTINUOUS
10
6.46753
20
-3.47879
11
6.46674
21
-3.4787
0
LINE
8
BLACK
6
CONTINUOUS
10
6.46674
20
-3.4787
11
6.44295
21
-3.4787
0
LINE
8
BLACK
6
CONTINUOUS
10
6.44295
20
-3.4787
11
6.44216
21
-3.47879
0
LINE
8
BLACK
6
CONTINUOUS
10
6.44216
20
-3.47879
11
6.44074
21
-3.47894
0
LINE
8
BLACK
6
CONTINUOUS
10
6.44074
20
-3.47894
11
6.44074
21
-3.47894
0
LINE
8
BLACK
6
CONTINUOUS
10
6.44074
20
-3.47894
11
6.4405
21
-3.47897
0
LINE
8
BLACK
6
CONTINUOUS
10
6.4405
20
-3.47897
11
6.44027
21
-3.47905
0
LINE
8
BLACK
6
CONTINUOUS
10
6.44027
20
-3.47905
11
6.43733
21
-3.48016
0
LINE
8
BLACK
6
CONTINUOUS
10
6.43733
20
-3.48016
11
6.43513
21
-3.48098
0
LINE
8
BLACK
6
CONTINUOUS
10
6.43513
20
-3.48098
11
6.43054
21
-3.48442
0
LINE
8
BLACK
6
CONTINUOUS
10
6.43054
20
-3.48442
11
6.4271
21
-3.48901
0
LINE
8
BLACK
6
CONTINUOUS
10
6.4271
20
-3.48901
11
6.427
21
-3.48927
0
LINE
8
BLACK
6
CONTINUOUS
10
6.427
20
-3.48927
11
6.427
21
-3.48927
0
LINE
8
BLACK
6
CONTINUOUS
10
6.427
20
-3.48927
11
6.42627
21
-3.49122
0
LINE
8
BLACK
6
CONTINUOUS
10
6.42627
20
-3.49122
11
6.42509
21
-3.49438
0
LINE
8
BLACK
6
CONTINUOUS
10
6.42509
20
-3.49438
11
6.42482
21
-3.49683
0
LINE
8
BLACK
6
CONTINUOUS
10
6.42482
20
-3.49683
11
6.42482
21
-3.49996
0
LINE
8
BLACK
6
CONTINUOUS
10
6.42482
20
-3.49996
11
6.42408
21
-3.50225
0
LINE
8
BLACK
6
CONTINUOUS
10
6.42408
20
-3.50225
11
6.42213
21
-3.50367
0
LINE
8
BLACK
6
CONTINUOUS
10
6.42213
20
-3.50367
11
6.42093
21
-3.50386
0
LINE
8
BLACK
6
CONTINUOUS
10
6.42093
20
-3.50386
11
6.40005
21
-3.50386
0
LINE
8
BLACK
6
CONTINUOUS
10
6.40005
20
-3.50386
11
6.39776
21
-3.50311
0
LINE
8
BLACK
6
CONTINUOUS
10
6.39776
20
-3.50311
11
6.39693
21
-3.5023
0
LINE
8
BLACK
6
CONTINUOUS
10
6.39693
20
-3.5023
11
6.39681
21
-3.50214
0
LINE
8
BLACK
6
CONTINUOUS
10
6.39681
20
-3.50214
11
6.39664
21
-3.50192
0
LINE
8
BLACK
6
CONTINUOUS
10
6.39664
20
-3.50192
11
6.39206
21
-3.49848
0
LINE
8
BLACK
6
CONTINUOUS
10
6.39206
20
-3.49848
11
6.38669
21
-3.49647
0
LINE
8
BLACK
6
CONTINUOUS
10
6.38669
20
-3.49647
11
6.38644
21
-3.49644
0
LINE
8
BLACK
6
CONTINUOUS
10
6.38644
20
-3.49644
11
6.38644
21
-3.49644
0
LINE
8
BLACK
6
CONTINUOUS
10
6.38644
20
-3.49644
11
6.38482
21
-3.49626
0
LINE
8
BLACK
6
CONTINUOUS
10
6.38482
20
-3.49626
11
6.38424
21
-3.4962
0
LINE
8
BLACK
6
CONTINUOUS
10
6.38424
20
-3.4962
11
6.32545
21
-3.4962
0
LINE
8
BLACK
6
CONTINUOUS
10
6.32545
20
-3.4962
11
6.32331
21
-3.49643
0
LINE
8
BLACK
6
CONTINUOUS
10
6.32331
20
-3.49643
11
6.32173
21
-3.49628
0
LINE
8
BLACK
6
CONTINUOUS
10
6.32173
20
-3.49628
11
6.31548
21
-3.49435
0
LINE
8
BLACK
6
CONTINUOUS
10
6.31548
20
-3.49435
11
6.31548
21
-3.49435
0
LINE
8
BLACK
6
CONTINUOUS
10
6.31548
20
-3.49435
11
6.3153
21
-3.49429
0
LINE
8
BLACK
6
CONTINUOUS
10
6.3153
20
-3.49429
11
6.31511
21
-3.49427
0
LINE
8
BLACK
6
CONTINUOUS
10
6.31511
20
-3.49427
11
6.31511
21
-3.49427
0
LINE
8
BLACK
6
CONTINUOUS
10
6.31511
20
-3.49427
11
6.30817
21
-3.49354
0
LINE
8
BLACK
6
CONTINUOUS
10
6.30817
20
-3.49354
11
6.30817
21
-3.49354
0
LINE
8
BLACK
6
CONTINUOUS
10
6.30817
20
-3.49354
11
6.30798
21
-3.49352
0
LINE
8
BLACK
6
CONTINUOUS
10
6.30798
20
-3.49352
11
6.30562
21
-3.49373
0
LINE
8
BLACK
6
CONTINUOUS
10
6.30562
20
-3.49373
11
6.30084
21
-3.49417
0
LINE
8
BLACK
6
CONTINUOUS
10
6.30084
20
-3.49417
11
6.30084
21
-3.49417
0
LINE
8
BLACK
6
CONTINUOUS
10
6.30084
20
-3.49417
11
6.30065
21
-3.49419
0
LINE
8
BLACK
6
CONTINUOUS
10
6.30065
20
-3.49419
11
6.30047
21
-3.49424
0
LINE
8
BLACK
6
CONTINUOUS
10
6.30047
20
-3.49424
11
6.30047
21
-3.49424
0
LINE
8
BLACK
6
CONTINUOUS
10
6.30047
20
-3.49424
11
6.29378
21
-3.49621
0
LINE
8
BLACK
6
CONTINUOUS
10
6.29378
20
-3.49621
11
6.29378
21
-3.49621
0
LINE
8
BLACK
6
CONTINUOUS
10
6.29378
20
-3.49621
11
6.29359
21
-3.49626
0
LINE
8
BLACK
6
CONTINUOUS
10
6.29359
20
-3.49626
11
6.29342
21
-3.49635
0
LINE
8
BLACK
6
CONTINUOUS
10
6.29342
20
-3.49635
11
6.29342
21
-3.49635
0
LINE
8
BLACK
6
CONTINUOUS
10
6.29342
20
-3.49635
11
6.29203
21
-3.49708
0
LINE
8
BLACK
6
CONTINUOUS
10
6.29203
20
-3.49708
11
6.28965
21
-3.49749
0
LINE
8
BLACK
6
CONTINUOUS
10
6.28965
20
-3.49749
11
6.28885
21
-3.49728
0
LINE
8
BLACK
6
CONTINUOUS
10
6.28885
20
-3.49728
11
6.28737
21
-3.49672
0
LINE
8
BLACK
6
CONTINUOUS
10
6.28737
20
-3.49672
11
6.28549
21
-3.49522
0
LINE
8
BLACK
6
CONTINUOUS
10
6.28549
20
-3.49522
11
6.28484
21
-3.49307
0
LINE
8
BLACK
6
CONTINUOUS
10
6.28484
20
-3.49307
11
6.28484
21
-3.49122
0
LINE
8
BLACK
6
CONTINUOUS
10
6.28484
20
-3.49122
11
6.21714
21
-3.49122
0
LINE
8
BLACK
6
CONTINUOUS
10
6.21714
20
-3.49122
11
6.21485
21
-3.49048
0
LINE
8
BLACK
6
CONTINUOUS
10
6.21485
20
-3.49048
11
6.21373
21
-3.48921
0
LINE
8
BLACK
6
CONTINUOUS
10
6.21373
20
-3.48921
11
6.18969
21
-3.44561
0
LINE
8
BLACK
6
CONTINUOUS
10
6.18969
20
-3.44561
11
6.18923
21
-3.44325
0
LINE
8
BLACK
6
CONTINUOUS
10
6.18923
20
-3.44325
11
6.19035
21
-3.44097
0
LINE
8
BLACK
6
CONTINUOUS
10
6.19035
20
-3.44097
11
6.2209
21
-3.41042
0
LINE
8
BLACK
6
CONTINUOUS
10
6.2209
20
-3.41042
11
6.26379
21
-3.36753
0
LINE
8
BLACK
6
CONTINUOUS
10
6.26379
20
-3.36753
11
6.26398
21
-3.36735
0
LINE
8
BLACK
6
CONTINUOUS
10
6.26398
20
-3.36735
11
6.26555
21
-3.36598
0
LINE
8
BLACK
6
CONTINUOUS
10
6.26555
20
-3.36598
11
6.26572
21
-3.36583
0
LINE
8
BLACK
6
CONTINUOUS
10
6.26572
20
-3.36583
11
6.2661
21
-3.3653
0
LINE
8
BLACK
6
CONTINUOUS
10
6.2661
20
-3.3653
11
6.26719
21
-3.36375
0
LINE
8
BLACK
6
CONTINUOUS
10
6.26719
20
-3.36375
11
6.26731
21
-3.36359
0
LINE
8
BLACK
6
CONTINUOUS
10
6.26731
20
-3.36359
11
6.26873
21
-3.36177
0
LINE
8
BLACK
6
CONTINUOUS
10
6.26873
20
-3.36177
11
6.26873
21
-3.36177
0
LINE
8
BLACK
6
CONTINUOUS
10
6.26873
20
-3.36177
11
6.26888
21
-3.36158
0
LINE
8
BLACK
6
CONTINUOUS
10
6.26888
20
-3.36158
11
6.26903
21
-3.36125
0
LINE
8
BLACK
6
CONTINUOUS
10
6.26903
20
-3.36125
11
6.26939
21
-3.36061
0
LINE
8
BLACK
6
CONTINUOUS
10
6.26939
20
-3.36061
11
6.26947
21
-3.3605
0
LINE
8
BLACK
6
CONTINUOUS
10
6.26947
20
-3.3605
11
6.26947
21
-3.3605
0
LINE
8
BLACK
6
CONTINUOUS
10
6.26947
20
-3.3605
11
6.26961
21
-3.36031
0
LINE
8
BLACK
6
CONTINUOUS
10
6.26961
20
-3.36031
11
6.27053
21
-3.35793
0
LINE
8
BLACK
6
CONTINUOUS
10
6.27053
20
-3.35793
11
6.27061
21
-3.35775
0
LINE
8
BLACK
6
CONTINUOUS
10
6.27061
20
-3.35775
11
6.27111
21
-3.35664
0
LINE
8
BLACK
6
CONTINUOUS
10
6.27111
20
-3.35664
11
6.27166
21
-3.35543
0
LINE
8
BLACK
6
CONTINUOUS
10
6.27166
20
-3.35543
11
6.27172
21
-3.3551
0
LINE
8
BLACK
6
CONTINUOUS
10
6.27172
20
-3.3551
11
6.27172
21
-3.35507
0
LINE
8
BLACK
6
CONTINUOUS
10
6.27172
20
-3.35507
11
6.27192
21
-3.35436
0
LINE
8
BLACK
6
CONTINUOUS
10
6.27192
20
-3.35436
11
6.27197
21
-3.35423
0
LINE
8
BLACK
6
CONTINUOUS
10
6.27197
20
-3.35423
11
6.27206
21
-3.35402
0
LINE
8
BLACK
6
CONTINUOUS
10
6.27206
20
-3.35402
11
6.27239
21
-3.35149
0
LINE
8
BLACK
6
CONTINUOUS
10
6.27239
20
-3.35149
11
6.27242
21
-3.35129
0
LINE
8
BLACK
6
CONTINUOUS
10
6.27242
20
-3.35129
11
6.27284
21
-3.34902
0
LINE
8
BLACK
6
CONTINUOUS
10
6.27284
20
-3.34902
11
6.27284
21
-3.34902
0
LINE
8
BLACK
6
CONTINUOUS
10
6.27284
20
-3.34902
11
6.27289
21
-3.34879
0
LINE
8
BLACK
6
CONTINUOUS
10
6.27289
20
-3.34879
11
6.27274
21
-3.34631
0
LINE
8
BLACK
6
CONTINUOUS
10
6.27274
20
-3.34631
11
6.27274
21
-3.34609
0
LINE
8
BLACK
6
CONTINUOUS
10
6.27274
20
-3.34609
11
6.27274
21
-3.32764
0
LINE
8
BLACK
6
CONTINUOUS
10
6.27274
20
-3.32764
11
6.27348
21
-3.32535
0
LINE
8
BLACK
6
CONTINUOUS
10
6.27348
20
-3.32535
11
6.27543
21
-3.32393
0
LINE
8
BLACK
6
CONTINUOUS
10
6.27543
20
-3.32393
11
6.27663
21
-3.32374
0
LINE
8
BLACK
6
CONTINUOUS
10
6.27663
20
-3.32374
11
6.27924
21
-3.32374
0
LINE
8
BLACK
6
CONTINUOUS
10
6.27924
20
-3.32374
11
6.28003
21
-3.32365
0
LINE
8
BLACK
6
CONTINUOUS
10
6.28003
20
-3.32365
11
6.28144
21
-3.3235
0
LINE
8
BLACK
6
CONTINUOUS
10
6.28144
20
-3.3235
11
6.28144
21
-3.3235
0
LINE
8
BLACK
6
CONTINUOUS
10
6.28144
20
-3.3235
11
6.28169
21
-3.32347
0
LINE
8
BLACK
6
CONTINUOUS
10
6.28169
20
-3.32347
11
6.28524
21
-3.32214
0
LINE
8
BLACK
6
CONTINUOUS
10
6.28524
20
-3.32214
11
6.2868
21
-3.32156
0
LINE
8
BLACK
6
CONTINUOUS
10
6.2868
20
-3.32156
11
6.2868
21
-3.32156
0
LINE
8
BLACK
6
CONTINUOUS
10
6.2868
20
-3.32156
11
6.28706
21
-3.32146
0
LINE
8
BLACK
6
CONTINUOUS
10
6.28706
20
-3.32146
11
6.29164
21
-3.31802
0
LINE
8
BLACK
6
CONTINUOUS
10
6.29164
20
-3.31802
11
6.29508
21
-3.31343
0
LINE
8
BLACK
6
CONTINUOUS
10
6.29508
20
-3.31343
11
6.2971
21
-3.30806
0
LINE
8
BLACK
6
CONTINUOUS
10
6.2971
20
-3.30806
11
6.29736
21
-3.30562
0
LINE
8
BLACK
6
CONTINUOUS
10
6.29736
20
-3.30562
11
6.29736
21
-3.23683
0
LINE
8
BLACK
6
CONTINUOUS
10
6.29736
20
-3.23683
11
6.2971
21
-3.23438
0
LINE
8
BLACK
6
CONTINUOUS
10
6.2971
20
-3.23438
11
6.29582
21
-3.23098
0
LINE
8
BLACK
6
CONTINUOUS
10
6.29582
20
-3.23098
11
6.29518
21
-3.22927
0
LINE
8
BLACK
6
CONTINUOUS
10
6.29518
20
-3.22927
11
6.29518
21
-3.22927
0
LINE
8
BLACK
6
CONTINUOUS
10
6.29518
20
-3.22927
11
6.29508
21
-3.22901
0
LINE
8
BLACK
6
CONTINUOUS
10
6.29508
20
-3.22901
11
6.29164
21
-3.22442
0
LINE
8
BLACK
6
CONTINUOUS
10
6.29164
20
-3.22442
11
6.29142
21
-3.22425
0
LINE
8
BLACK
6
CONTINUOUS
10
6.29142
20
-3.22425
11
6.29123
21
-3.22406
0
LINE
8
BLACK
6
CONTINUOUS
10
6.29123
20
-3.22406
11
6.29129
21
-3.22399
0
LINE
8
BLACK
6
CONTINUOUS
10
6.29129
20
-3.22399
11
6.29015
21
-3.22237
0
LINE
8
BLACK
6
CONTINUOUS
10
6.29015
20
-3.22237
11
6.29019
21
-3.21996
0
LINE
8
BLACK
6
CONTINUOUS
10
6.29019
20
-3.21996
11
6.29129
21
-3.21845
0
LINE
8
BLACK
6
CONTINUOUS
10
6.29129
20
-3.21845
11
6.29123
21
-3.21838
0
LINE
8
BLACK
6
CONTINUOUS
10
6.29123
20
-3.21838
11
6.29142
21
-3.21819
0
LINE
8
BLACK
6
CONTINUOUS
10
6.29142
20
-3.21819
11
6.29164
21
-3.21802
0
LINE
8
BLACK
6
CONTINUOUS
10
6.29164
20
-3.21802
11
6.29508
21
-3.21343
0
LINE
8
BLACK
6
CONTINUOUS
10
6.29508
20
-3.21343
11
6.2971
21
-3.20806
0
LINE
8
BLACK
6
CONTINUOUS
10
6.2971
20
-3.20806
11
6.29736
21
-3.20562
0
LINE
8
BLACK
6
CONTINUOUS
10
6.29736
20
-3.20562
11
6.29736
21
-3.13683
0
LINE
8
BLACK
6
CONTINUOUS
10
6.29736
20
-3.13683
11
6.2971
21
-3.13438
0
LINE
8
BLACK
6
CONTINUOUS
10
6.2971
20
-3.13438
11
6.29508
21
-3.12901
0
LINE
8
BLACK
6
CONTINUOUS
10
6.29508
20
-3.12901
11
6.29164
21
-3.12442
0
LINE
8
BLACK
6
CONTINUOUS
10
6.29164
20
-3.12442
11
6.28706
21
-3.12098
0
LINE
8
BLACK
6
CONTINUOUS
10
6.28706
20
-3.12098
11
6.28169
21
-3.11897
0
LINE
8
BLACK
6
CONTINUOUS
10
6.28169
20
-3.11897
11
6.28144
21
-3.11894
0
LINE
8
BLACK
6
CONTINUOUS
10
6.28144
20
-3.11894
11
6.28144
21
-3.11894
0
LINE
8
BLACK
6
CONTINUOUS
10
6.28144
20
-3.11894
11
6.28003
21
-3.11879
0
LINE
8
BLACK
6
CONTINUOUS
10
6.28003
20
-3.11879
11
6.27924
21
-3.1187
0
LINE
8
BLACK
6
CONTINUOUS
10
6.27924
20
-3.1187
11
6.21045
21
-3.1187
0
LINE
8
BLACK
6
CONTINUOUS
10
6.21045
20
-3.1187
11
6.20966
21
-3.11879
0
LINE
8
BLACK
6
CONTINUOUS
10
6.20966
20
-3.11879
11
6.20824
21
-3.11894
0
LINE
8
BLACK
6
CONTINUOUS
10
6.20824
20
-3.11894
11
6.20824
21
-3.11894
0
LINE
8
BLACK
6
CONTINUOUS
10
6.20824
20
-3.11894
11
6.208
21
-3.11897
0
LINE
8
BLACK
6
CONTINUOUS
10
6.208
20
-3.11897
11
6.20263
21
-3.12098
0
LINE
8
BLACK
6
CONTINUOUS
10
6.20263
20
-3.12098
11
6.19804
21
-3.12442
0
LINE
8
BLACK
6
CONTINUOUS
10
6.19804
20
-3.12442
11
6.1946
21
-3.12901
0
LINE
8
BLACK
6
CONTINUOUS
10
6.1946
20
-3.12901
11
6.19259
21
-3.13438
0
LINE
8
BLACK
6
CONTINUOUS
10
6.19259
20
-3.13438
11
6.19232
21
-3.13683
0
LINE
8
BLACK
6
CONTINUOUS
10
6.19232
20
-3.13683
11
6.19232
21
-3.20562
0
LINE
8
BLACK
6
CONTINUOUS
10
6.19232
20
-3.20562
11
6.19259
21
-3.20806
0
LINE
8
BLACK
6
CONTINUOUS
10
6.19259
20
-3.20806
11
6.1946
21
-3.21343
0
LINE
8
BLACK
6
CONTINUOUS
10
6.1946
20
-3.21343
11
6.19804
21
-3.21802
0
LINE
8
BLACK
6
CONTINUOUS
10
6.19804
20
-3.21802
11
6.19826
21
-3.21819
0
LINE
8
BLACK
6
CONTINUOUS
10
6.19826
20
-3.21819
11
6.19846
21
-3.21838
0
LINE
8
BLACK
6
CONTINUOUS
10
6.19846
20
-3.21838
11
6.19839
21
-3.21845
0
LINE
8
BLACK
6
CONTINUOUS
10
6.19839
20
-3.21845
11
6.19953
21
-3.22007
0
LINE
8
BLACK
6
CONTINUOUS
10
6.19953
20
-3.22007
11
6.1995
21
-3.22248
0
LINE
8
BLACK
6
CONTINUOUS
10
6.1995
20
-3.22248
11
6.1984
21
-3.22399
0
LINE
8
BLACK
6
CONTINUOUS
10
6.1984
20
-3.22399
11
6.19846
21
-3.22406
0
LINE
8
BLACK
6
CONTINUOUS
10
6.19846
20
-3.22406
11
6.19826
21
-3.22425
0
LINE
8
BLACK
6
CONTINUOUS
10
6.19826
20
-3.22425
11
6.19804
21
-3.22442
0
LINE
8
BLACK
6
CONTINUOUS
10
6.19804
20
-3.22442
11
6.1946
21
-3.22901
0
LINE
8
BLACK
6
CONTINUOUS
10
6.1946
20
-3.22901
11
6.1945
21
-3.22927
0
LINE
8
BLACK
6
CONTINUOUS
10
6.1945
20
-3.22927
11
6.1945
21
-3.22927
0
LINE
8
BLACK
6
CONTINUOUS
10
6.1945
20
-3.22927
11
6.19386
21
-3.23098
0
LINE
8
BLACK
6
CONTINUOUS
10
6.19386
20
-3.23098
11
6.19259
21
-3.23438
0
LINE
8
BLACK
6
CONTINUOUS
10
6.19259
20
-3.23438
11
6.19232
21
-3.23683
0
LINE
8
BLACK
6
CONTINUOUS
10
6.19232
20
-3.23683
11
6.19232
21
-3.284
0
LINE
8
BLACK
6
CONTINUOUS
10
6.19232
20
-3.284
11
6.19158
21
-3.28629
0
LINE
8
BLACK
6
CONTINUOUS
10
6.19158
20
-3.28629
11
6.18963
21
-3.28771
0
LINE
8
BLACK
6
CONTINUOUS
10
6.18963
20
-3.28771
11
6.18722
21
-3.28771
0
LINE
8
BLACK
6
CONTINUOUS
10
6.18722
20
-3.28771
11
6.1858
21
-3.28683
0
LINE
8
BLACK
6
CONTINUOUS
10
6.1858
20
-3.28683
11
6.18578
21
-3.28684
0
LINE
8
BLACK
6
CONTINUOUS
10
6.18578
20
-3.28684
11
6.18568
21
-3.28676
0
LINE
8
BLACK
6
CONTINUOUS
10
6.18568
20
-3.28676
11
6.18568
21
-3.28676
0
LINE
8
BLACK
6
CONTINUOUS
10
6.18568
20
-3.28676
11
6.18234
21
-3.284
0
LINE
8
BLACK
6
CONTINUOUS
10
6.18234
20
-3.284
11
6.18026
21
-3.28228
0
LINE
8
BLACK
6
CONTINUOUS
10
6.18026
20
-3.28228
11
6.18026
21
-3.28228
0
LINE
8
BLACK
6
CONTINUOUS
10
6.18026
20
-3.28228
11
6.18011
21
-3.28215
0
LINE
8
BLACK
6
CONTINUOUS
10
6.18011
20
-3.28215
11
6.17364
21
-3.27865
0
LINE
8
BLACK
6
CONTINUOUS
10
6.17364
20
-3.27865
11
6.16983
21
-3.27748
0
LINE
8
BLACK
6
CONTINUOUS
10
6.16983
20
-3.27748
11
6.16679
21
-3.27653
0
LINE
8
BLACK
6
CONTINUOUS
10
6.16679
20
-3.27653
11
6.16679
21
-3.27653
0
LINE
8
BLACK
6
CONTINUOUS
10
6.16679
20
-3.27653
11
6.16661
21
-3.27648
0
LINE
8
BLACK
6
CONTINUOUS
10
6.16661
20
-3.27648
11
6.16642
21
-3.27646
0
LINE
8
BLACK
6
CONTINUOUS
10
6.16642
20
-3.27646
11
6.16642
21
-3.27646
0
LINE
8
BLACK
6
CONTINUOUS
10
6.16642
20
-3.27646
11
6.16599
21
-3.27641
0
LINE
8
BLACK
6
CONTINUOUS
10
6.16599
20
-3.27641
11
6.16544
21
-3.27635
0
LINE
8
BLACK
6
CONTINUOUS
10
6.16544
20
-3.27635
11
6.16309
21
-3.27523
0
LINE
8
BLACK
6
CONTINUOUS
10
6.16309
20
-3.27523
11
6.07727
21
-3.18941
0
LINE
8
BLACK
6
CONTINUOUS
10
6.07727
20
-3.18941
11
6.07689
21
-3.18897
0
LINE
8
BLACK
6
CONTINUOUS
10
6.07689
20
-3.18897
11
6.07647
21
-3.1884
0
LINE
8
BLACK
6
CONTINUOUS
10
6.07647
20
-3.1884
11
6.07647
21
-3.1884
0
LINE
8
BLACK
6
CONTINUOUS
10
6.07647
20
-3.1884
11
6.07633
21
-3.18822
0
LINE
8
BLACK
6
CONTINUOUS
10
6.07633
20
-3.18822
11
6.07616
21
-3.18807
0
LINE
8
BLACK
6
CONTINUOUS
10
6.07616
20
-3.18807
11
6.07616
21
-3.18807
0
LINE
8
BLACK
6
CONTINUOUS
10
6.07616
20
-3.18807
11
6.07471
21
-3.18684
0
LINE
8
BLACK
6
CONTINUOUS
10
6.07471
20
-3.18684
11
6.07448
21
-3.18663
0
LINE
8
BLACK
6
CONTINUOUS
10
6.07448
20
-3.18663
11
6.07423
21
-3.18637
0
LINE
8
BLACK
6
CONTINUOUS
10
6.07423
20
-3.18637
11
6.07333
21
-3.18567
0
LINE
8
BLACK
6
CONTINUOUS
10
6.07333
20
-3.18567
11
6.07323
21
-3.18558
0
LINE
8
BLACK
6
CONTINUOUS
10
6.07323
20
-3.18558
11
6.07102
21
-3.18371
0
LINE
8
BLACK
6
CONTINUOUS
10
6.07102
20
-3.18371
11
6.07082
21
-3.1836
0
LINE
8
BLACK
6
CONTINUOUS
10
6.07082
20
-3.1836
11
6.07063
21
-3.18348
0
LINE
8
BLACK
6
CONTINUOUS
10
6.07063
20
-3.18348
11
6.07064
21
-3.18348
0
LINE
8
BLACK
6
CONTINUOUS
10
6.07064
20
-3.18348
11
6.07051
21
-3.1834
0
LINE
8
BLACK
6
CONTINUOUS
10
6.07051
20
-3.1834
11
6.07051
21
-3.1834
0
LINE
8
BLACK
6
CONTINUOUS
10
6.07051
20
-3.1834
11
6.07032
21
-3.18328
0
LINE
8
BLACK
6
CONTINUOUS
10
6.07032
20
-3.18328
11
6.07014
21
-3.18314
0
LINE
8
BLACK
6
CONTINUOUS
10
6.07014
20
-3.18314
11
6.06994
21
-3.18304
0
LINE
8
BLACK
6
CONTINUOUS
10
6.06994
20
-3.18304
11
6.06994
21
-3.18304
0
LINE
8
BLACK
6
CONTINUOUS
10
6.06994
20
-3.18304
11
6.06752
21
-3.18192
0
LINE
8
BLACK
6
CONTINUOUS
10
6.06752
20
-3.18192
11
6.0674
21
-3.18186
0
LINE
8
BLACK
6
CONTINUOUS
10
6.0674
20
-3.18186
11
6.06628
21
-3.18129
0
LINE
8
BLACK
6
CONTINUOUS
10
6.06628
20
-3.18129
11
6.06482
21
-3.18054
0
LINE
8
BLACK
6
CONTINUOUS
10
6.06482
20
-3.18054
11
6.0646
21
-3.18049
0
LINE
8
BLACK
6
CONTINUOUS
10
6.0646
20
-3.18049
11
6.06439
21
-3.18041
0
LINE
8
BLACK
6
CONTINUOUS
10
6.06439
20
-3.18041
11
6.06439
21
-3.1804
0
LINE
8
BLACK
6
CONTINUOUS
10
6.06439
20
-3.1804
11
6.06425
21
-3.18036
0
LINE
8
BLACK
6
CONTINUOUS
10
6.06425
20
-3.18036
11
6.06425
21
-3.18036
0
LINE
8
BLACK
6
CONTINUOUS
10
6.06425
20
-3.18036
11
6.06404
21
-3.18029
0
LINE
8
BLACK
6
CONTINUOUS
10
6.06404
20
-3.18029
11
6.06383
21
-3.18019
0
LINE
8
BLACK
6
CONTINUOUS
10
6.06383
20
-3.18019
11
6.06361
21
-3.18015
0
LINE
8
BLACK
6
CONTINUOUS
10
6.06361
20
-3.18015
11
6.06361
21
-3.18015
0
LINE
8
BLACK
6
CONTINUOUS
10
6.06361
20
-3.18015
11
6.061
21
-3.1796
0
LINE
8
BLACK
6
CONTINUOUS
10
6.061
20
-3.1796
11
6.06087
21
-3.17957
0
LINE
8
BLACK
6
CONTINUOUS
10
6.06087
20
-3.17957
11
6.05823
21
-3.17893
0
LINE
8
BLACK
6
CONTINUOUS
10
6.05823
20
-3.17893
11
6.05806
21
-3.17889
0
LINE
8
BLACK
6
CONTINUOUS
10
6.05806
20
-3.17889
11
6.05762
21
-3.17886
0
LINE
8
BLACK
6
CONTINUOUS
10
6.05762
20
-3.17886
11
6.05762
21
-3.17885
0
LINE
8
BLACK
6
CONTINUOUS
10
6.05762
20
-3.17885
11
6.05746
21
-3.17883
0
LINE
8
BLACK
6
CONTINUOUS
10
6.05746
20
-3.17883
11
6.05746
21
-3.17884
0
LINE
8
BLACK
6
CONTINUOUS
10
6.05746
20
-3.17884
11
6.05724
21
-3.17882
0
LINE
8
BLACK
6
CONTINUOUS
10
6.05724
20
-3.17882
11
6.05702
21
-3.17877
0
LINE
8
BLACK
6
CONTINUOUS
10
6.05702
20
-3.17877
11
6.05679
21
-3.17878
0
LINE
8
BLACK
6
CONTINUOUS
10
6.05679
20
-3.17878
11
6.05679
21
-3.17878
0
LINE
8
BLACK
6
CONTINUOUS
10
6.05679
20
-3.17878
11
6.05395
21
-3.17886
0
LINE
8
BLACK
6
CONTINUOUS
10
6.05395
20
-3.17886
11
6.05385
21
-3.17886
0
LINE
8
BLACK
6
CONTINUOUS
10
6.05385
20
-3.17886
11
5.85505
21
-3.17886
0
LINE
8
BLACK
6
CONTINUOUS
10
5.85505
20
-3.17886
11
5.85276
21
-3.17811
0
LINE
8
BLACK
6
CONTINUOUS
10
5.85276
20
-3.17811
11
5.85193
21
-3.1773
0
LINE
8
BLACK
6
CONTINUOUS
10
5.85193
20
-3.1773
11
5.85181
21
-3.17714
0
LINE
8
BLACK
6
CONTINUOUS
10
5.85181
20
-3.17714
11
5.85164
21
-3.17692
0
LINE
8
BLACK
6
CONTINUOUS
10
5.85164
20
-3.17692
11
5.84706
21
-3.17348
0
LINE
8
BLACK
6
CONTINUOUS
10
5.84706
20
-3.17348
11
5.84169
21
-3.17147
0
LINE
8
BLACK
6
CONTINUOUS
10
5.84169
20
-3.17147
11
5.84144
21
-3.17144
0
LINE
8
BLACK
6
CONTINUOUS
10
5.84144
20
-3.17144
11
5.84144
21
-3.17144
0
LINE
8
BLACK
6
CONTINUOUS
10
5.84144
20
-3.17144
11
5.84003
21
-3.17129
0
LINE
8
BLACK
6
CONTINUOUS
10
5.84003
20
-3.17129
11
5.83924
21
-3.1712
0
LINE
8
BLACK
6
CONTINUOUS
10
5.83924
20
-3.1712
11
5.78045
21
-3.1712
0
LINE
8
BLACK
6
CONTINUOUS
10
5.78045
20
-3.1712
11
5.77966
21
-3.17129
0
LINE
8
BLACK
6
CONTINUOUS
10
5.77966
20
-3.17129
11
5.77824
21
-3.17144
0
LINE
8
BLACK
6
CONTINUOUS
10
5.77824
20
-3.17144
11
5.77824
21
-3.17144
0
LINE
8
BLACK
6
CONTINUOUS
10
5.77824
20
-3.17144
11
5.778
21
-3.17147
0
LINE
8
BLACK
6
CONTINUOUS
10
5.778
20
-3.17147
11
5.77263
21
-3.17348
0
LINE
8
BLACK
6
CONTINUOUS
10
5.77263
20
-3.17348
11
5.76804
21
-3.17692
0
LINE
8
BLACK
6
CONTINUOUS
10
5.76804
20
-3.17692
11
5.7646
21
-3.18151
0
LINE
8
BLACK
6
CONTINUOUS
10
5.7646
20
-3.18151
11
5.7645
21
-3.18177
0
LINE
8
BLACK
6
CONTINUOUS
10
5.7645
20
-3.18177
11
5.7645
21
-3.18177
0
LINE
8
BLACK
6
CONTINUOUS
10
5.7645
20
-3.18177
11
5.76372
21
-3.18385
0
LINE
8
BLACK
6
CONTINUOUS
10
5.76372
20
-3.18385
11
5.76259
21
-3.18688
0
LINE
8
BLACK
6
CONTINUOUS
10
5.76259
20
-3.18688
11
5.76232
21
-3.18933
0
LINE
8
BLACK
6
CONTINUOUS
10
5.76232
20
-3.18933
11
5.76232
21
-3.22812
0
LINE
8
BLACK
6
CONTINUOUS
10
5.76232
20
-3.22812
11
5.76233
21
-3.22822
0
LINE
8
BLACK
6
CONTINUOUS
10
5.76233
20
-3.22822
11
5.76254
21
-3.23012
0
LINE
8
BLACK
6
CONTINUOUS
10
5.76254
20
-3.23012
11
5.76259
21
-3.23056
0
LINE
8
BLACK
6
CONTINUOUS
10
5.76259
20
-3.23056
11
5.76267
21
-3.23079
0
LINE
8
BLACK
6
CONTINUOUS
10
5.76267
20
-3.23079
11
5.76444
21
-3.23551
0
LINE
8
BLACK
6
CONTINUOUS
10
5.76444
20
-3.23551
11
5.7646
21
-3.23593
0
LINE
8
BLACK
6
CONTINUOUS
10
5.7646
20
-3.23593
11
5.76804
21
-3.24052
0
LINE
8
BLACK
6
CONTINUOUS
10
5.76804
20
-3.24052
11
5.76826
21
-3.24069
0
LINE
8
BLACK
6
CONTINUOUS
10
5.76826
20
-3.24069
11
5.76826
21
-3.24069
0
LINE
8
BLACK
6
CONTINUOUS
10
5.76826
20
-3.24069
11
5.77148
21
-3.2431
0
LINE
8
BLACK
6
CONTINUOUS
10
5.77148
20
-3.2431
11
5.77287
21
-3.24507
0
LINE
8
BLACK
6
CONTINUOUS
10
5.77287
20
-3.24507
11
5.77283
21
-3.24748
0
LINE
8
BLACK
6
CONTINUOUS
10
5.77283
20
-3.24748
11
5.77148
21
-3.24934
0
LINE
8
BLACK
6
CONTINUOUS
10
5.77148
20
-3.24934
11
5.76826
21
-3.25175
0
LINE
8
BLACK
6
CONTINUOUS
10
5.76826
20
-3.25175
11
5.76826
21
-3.25175
0
LINE
8
BLACK
6
CONTINUOUS
10
5.76826
20
-3.25175
11
5.76804
21
-3.25192
0
LINE
8
BLACK
6
CONTINUOUS
10
5.76804
20
-3.25192
11
5.7646
21
-3.25651
0
LINE
8
BLACK
6
CONTINUOUS
10
5.7646
20
-3.25651
11
5.76259
21
-3.26188
0
LINE
8
BLACK
6
CONTINUOUS
10
5.76259
20
-3.26188
11
5.76232
21
-3.26433
0
LINE
8
BLACK
6
CONTINUOUS
10
5.76232
20
-3.26433
11
5.76232
21
-3.30312
0
LINE
8
BLACK
6
CONTINUOUS
10
5.76232
20
-3.30312
11
5.76233
21
-3.30322
0
LINE
8
BLACK
6
CONTINUOUS
10
5.76233
20
-3.30322
11
5.76256
21
-3.30531
0
LINE
8
BLACK
6
CONTINUOUS
10
5.76256
20
-3.30531
11
5.76259
21
-3.30556
0
LINE
8
BLACK
6
CONTINUOUS
10
5.76259
20
-3.30556
11
5.7646
21
-3.31093
0
LINE
8
BLACK
6
CONTINUOUS
10
5.7646
20
-3.31093
11
5.76804
21
-3.31552
0
LINE
8
BLACK
6
CONTINUOUS
10
5.76804
20
-3.31552
11
5.76826
21
-3.31569
0
LINE
8
BLACK
6
CONTINUOUS
10
5.76826
20
-3.31569
11
5.76846
21
-3.31588
0
LINE
8
BLACK
6
CONTINUOUS
10
5.76846
20
-3.31588
11
5.76839
21
-3.31595
0
LINE
8
BLACK
6
CONTINUOUS
10
5.76839
20
-3.31595
11
5.76953
21
-3.31757
0
LINE
8
BLACK
6
CONTINUOUS
10
5.76953
20
-3.31757
11
5.7695
21
-3.31998
0
LINE
8
BLACK
6
CONTINUOUS
10
5.7695
20
-3.31998
11
5.7684
21
-3.32149
0
LINE
8
BLACK
6
CONTINUOUS
10
5.7684
20
-3.32149
11
5.76846
21
-3.32156
0
LINE
8
BLACK
6
CONTINUOUS
10
5.76846
20
-3.32156
11
5.76826
21
-3.32175
0
LINE
8
BLACK
6
CONTINUOUS
10
5.76826
20
-3.32175
11
5.76804
21
-3.32192
0
LINE
8
BLACK
6
CONTINUOUS
10
5.76804
20
-3.32192
11
5.76787
21
-3.32214
0
LINE
8
BLACK
6
CONTINUOUS
10
5.76787
20
-3.32214
11
5.76787
21
-3.32214
0
LINE
8
BLACK
6
CONTINUOUS
10
5.76787
20
-3.32214
11
5.76492
21
-3.32608
0
LINE
8
BLACK
6
CONTINUOUS
10
5.76492
20
-3.32608
11
5.76295
21
-3.32746
0
LINE
8
BLACK
6
CONTINUOUS
10
5.76295
20
-3.32746
11
5.76182
21
-3.32764
0
LINE
8
BLACK
6
CONTINUOUS
10
5.76182
20
-3.32764
11
5.74158
21
-3.32772
0
LINE
8
BLACK
6
CONTINUOUS
10
5.74158
20
-3.32772
11
5.71524
21
-3.32782
0
LINE
8
BLACK
6
CONTINUOUS
10
5.71524
20
-3.32782
11
5.71551
21
-3.36061
0
LINE
8
BLACK
6
CONTINUOUS
10
5.71551
20
-3.36061
11
5.71553
21
-3.363
0
LINE
8
BLACK
6
CONTINUOUS
10
5.71553
20
-3.363
11
5.7148
21
-3.3653
0
LINE
8
BLACK
6
CONTINUOUS
10
5.7148
20
-3.3653
11
5.71287
21
-3.36673
0
LINE
8
BLACK
6
CONTINUOUS
10
5.71287
20
-3.36673
11
5.71026
21
-3.36668
0
LINE
8
BLACK
6
CONTINUOUS
10
5.71026
20
-3.36668
11
5.70569
21
-3.36497
0
LINE
8
BLACK
6
CONTINUOUS
10
5.70569
20
-3.36497
11
5.70544
21
-3.36494
0
LINE
8
BLACK
6
CONTINUOUS
10
5.70544
20
-3.36494
11
5.70544
21
-3.36494
0
LINE
8
BLACK
6
CONTINUOUS
10
5.70544
20
-3.36494
11
5.70403
21
-3.36479
0
LINE
8
BLACK
6
CONTINUOUS
10
5.70403
20
-3.36479
11
5.70324
21
-3.3647
0
LINE
8
BLACK
6
CONTINUOUS
10
5.70324
20
-3.3647
11
5.64445
21
-3.3647
0
LINE
8
BLACK
6
CONTINUOUS
10
5.64445
20
-3.3647
11
5.64366
21
-3.36479
0
LINE
8
BLACK
6
CONTINUOUS
10
5.64366
20
-3.36479
11
5.64224
21
-3.36494
0
LINE
8
BLACK
6
CONTINUOUS
10
5.64224
20
-3.36494
11
5.64224
21
-3.36494
0
LINE
8
BLACK
6
CONTINUOUS
10
5.64224
20
-3.36494
11
5.642
21
-3.36497
0
LINE
8
BLACK
6
CONTINUOUS
10
5.642
20
-3.36497
11
5.64177
21
-3.36505
0
LINE
8
BLACK
6
CONTINUOUS
10
5.64177
20
-3.36505
11
5.63727
21
-3.36674
0
LINE
8
BLACK
6
CONTINUOUS
10
5.63727
20
-3.36674
11
5.63663
21
-3.36698
0
LINE
8
BLACK
6
CONTINUOUS
10
5.63663
20
-3.36698
11
5.63204
21
-3.37042
0
LINE
8
BLACK
6
CONTINUOUS
10
5.63204
20
-3.37042
11
5.6286
21
-3.37501
0
LINE
8
BLACK
6
CONTINUOUS
10
5.6286
20
-3.37501
11
5.62659
21
-3.38038
0
LINE
8
BLACK
6
CONTINUOUS
10
5.62659
20
-3.38038
11
5.62632
21
-3.38283
0
LINE
8
BLACK
6
CONTINUOUS
10
5.62632
20
-3.38283
11
5.62632
21
-3.42121
0
LINE
8
BLACK
6
CONTINUOUS
10
5.62632
20
-3.42121
11
5.62558
21
-3.4235
0
LINE
8
BLACK
6
CONTINUOUS
10
5.62558
20
-3.4235
11
5.62363
21
-3.42491
0
LINE
8
BLACK
6
CONTINUOUS
10
5.62363
20
-3.42491
11
5.62106
21
-3.42486
0
LINE
8
BLACK
6
CONTINUOUS
10
5.62106
20
-3.42486
11
5.62048
21
-3.42464
0
LINE
8
BLACK
6
CONTINUOUS
10
5.62048
20
-3.42464
11
5.61869
21
-3.42397
0
LINE
8
BLACK
6
CONTINUOUS
10
5.61869
20
-3.42397
11
5.61844
21
-3.42394
0
LINE
8
BLACK
6
CONTINUOUS
10
5.61844
20
-3.42394
11
5.61844
21
-3.42394
0
LINE
8
BLACK
6
CONTINUOUS
10
5.61844
20
-3.42394
11
5.61703
21
-3.42379
0
LINE
8
BLACK
6
CONTINUOUS
10
5.61703
20
-3.42379
11
5.61624
21
-3.4237
0
LINE
8
BLACK
6
CONTINUOUS
10
5.61624
20
-3.4237
11
5.57745
21
-3.4237
0
LINE
8
BLACK
6
CONTINUOUS
10
5.57745
20
-3.4237
11
5.57734
21
-3.42371
0
LINE
8
BLACK
6
CONTINUOUS
10
5.57734
20
-3.42371
11
5.57724
21
-3.42372
0
LINE
8
BLACK
6
CONTINUOUS
10
5.57724
20
-3.42372
11
5.57723
21
-3.42366
0
LINE
8
BLACK
6
CONTINUOUS
10
5.57723
20
-3.42366
11
5.57508
21
-3.42321
0
LINE
8
BLACK
6
CONTINUOUS
10
5.57508
20
-3.42321
11
5.57468
21
-3.42295
0
LINE
8
BLACK
6
CONTINUOUS
10
5.57468
20
-3.42295
11
5.57228
21
-3.42115
0
LINE
8
BLACK
6
CONTINUOUS
10
5.57228
20
-3.42115
11
5.57228
21
-3.42115
0
LINE
8
BLACK
6
CONTINUOUS
10
5.57228
20
-3.42115
11
5.57206
21
-3.42098
0
LINE
8
BLACK
6
CONTINUOUS
10
5.57206
20
-3.42098
11
5.57037
21
-3.42035
0
LINE
8
BLACK
6
CONTINUOUS
10
5.57037
20
-3.42035
11
5.56691
21
-3.41905
0
LINE
8
BLACK
6
CONTINUOUS
10
5.56691
20
-3.41905
11
5.56669
21
-3.41897
0
LINE
8
BLACK
6
CONTINUOUS
10
5.56669
20
-3.41897
11
5.56644
21
-3.41894
0
LINE
8
BLACK
6
CONTINUOUS
10
5.56644
20
-3.41894
11
5.56644
21
-3.41894
0
LINE
8
BLACK
6
CONTINUOUS
10
5.56644
20
-3.41894
11
5.56503
21
-3.41879
0
LINE
8
BLACK
6
CONTINUOUS
10
5.56503
20
-3.41879
11
5.56424
21
-3.4187
0
LINE
8
BLACK
6
CONTINUOUS
10
5.56424
20
-3.4187
11
5.49545
21
-3.4187
0
LINE
8
BLACK
6
CONTINUOUS
10
5.49545
20
-3.4187
11
5.49466
21
-3.41879
0
LINE
8
BLACK
6
CONTINUOUS
10
5.49466
20
-3.41879
11
5.49324
21
-3.41894
0
LINE
8
BLACK
6
CONTINUOUS
10
5.49324
20
-3.41894
11
5.49324
21
-3.41894
0
LINE
8
BLACK
6
CONTINUOUS
10
5.49324
20
-3.41894
11
5.493
21
-3.41897
0
LINE
8
BLACK
6
CONTINUOUS
10
5.493
20
-3.41897
11
5.49277
21
-3.41905
0
LINE
8
BLACK
6
CONTINUOUS
10
5.49277
20
-3.41905
11
5.48931
21
-3.42035
0
LINE
8
BLACK
6
CONTINUOUS
10
5.48931
20
-3.42035
11
5.48763
21
-3.42098
0
LINE
8
BLACK
6
CONTINUOUS
10
5.48763
20
-3.42098
11
5.48453
21
-3.4233
0
LINE
8
BLACK
6
CONTINUOUS
10
5.48453
20
-3.4233
11
5.48331
21
-3.42422
0
LINE
8
BLACK
6
CONTINUOUS
10
5.48331
20
-3.42422
11
5.48304
21
-3.42442
0
LINE
8
BLACK
6
CONTINUOUS
10
5.48304
20
-3.42442
11
5.48287
21
-3.42464
0
LINE
8
BLACK
6
CONTINUOUS
10
5.48287
20
-3.42464
11
5.48268
21
-3.42484
0
LINE
8
BLACK
6
CONTINUOUS
10
5.48268
20
-3.42484
11
5.48261
21
-3.42477
0
LINE
8
BLACK
6
CONTINUOUS
10
5.48261
20
-3.42477
11
5.48099
21
-3.42591
0
LINE
8
BLACK
6
CONTINUOUS
10
5.48099
20
-3.42591
11
5.47858
21
-3.42588
0
LINE
8
BLACK
6
CONTINUOUS
10
5.47858
20
-3.42588
11
5.47707
21
-3.42478
0
LINE
8
BLACK
6
CONTINUOUS
10
5.47707
20
-3.42478
11
5.47701
21
-3.42484
0
LINE
8
BLACK
6
CONTINUOUS
10
5.47701
20
-3.42484
11
5.47681
21
-3.42464
0
LINE
8
BLACK
6
CONTINUOUS
10
5.47681
20
-3.42464
11
5.47664
21
-3.42442
0
LINE
8
BLACK
6
CONTINUOUS
10
5.47664
20
-3.42442
11
5.47638
21
-3.42422
0
LINE
8
BLACK
6
CONTINUOUS
10
5.47638
20
-3.42422
11
5.47515
21
-3.4233
0
LINE
8
BLACK
6
CONTINUOUS
10
5.47515
20
-3.4233
11
5.47206
21
-3.42098
0
LINE
8
BLACK
6
CONTINUOUS
10
5.47206
20
-3.42098
11
5.47037
21
-3.42035
0
LINE
8
BLACK
6
CONTINUOUS
10
5.47037
20
-3.42035
11
5.46691
21
-3.41905
0
LINE
8
BLACK
6
CONTINUOUS
10
5.46691
20
-3.41905
11
5.46669
21
-3.41897
0
LINE
8
BLACK
6
CONTINUOUS
10
5.46669
20
-3.41897
11
5.46644
21
-3.41894
0
LINE
8
BLACK
6
CONTINUOUS
10
5.46644
20
-3.41894
11
5.46644
21
-3.41894
0
LINE
8
BLACK
6
CONTINUOUS
10
5.46644
20
-3.41894
11
5.46503
21
-3.41879
0
LINE
8
BLACK
6
CONTINUOUS
10
5.46503
20
-3.41879
11
5.46424
21
-3.4187
0
LINE
8
BLACK
6
CONTINUOUS
10
5.46424
20
-3.4187
11
5.39545
21
-3.4187
0
LINE
8
BLACK
6
CONTINUOUS
10
5.39545
20
-3.4187
11
5.39466
21
-3.41879
0
LINE
8
BLACK
6
CONTINUOUS
10
5.39466
20
-3.41879
11
5.39324
21
-3.41894
0
LINE
8
BLACK
6
CONTINUOUS
10
5.39324
20
-3.41894
11
5.39324
21
-3.41894
0
LINE
8
BLACK
6
CONTINUOUS
10
5.39324
20
-3.41894
11
5.393
21
-3.41897
0
LINE
8
BLACK
6
CONTINUOUS
10
5.393
20
-3.41897
11
5.39277
21
-3.41905
0
LINE
8
BLACK
6
CONTINUOUS
10
5.39277
20
-3.41905
11
5.38931
21
-3.42035
0
LINE
8
BLACK
6
CONTINUOUS
10
5.38931
20
-3.42035
11
5.38763
21
-3.42098
0
LINE
8
BLACK
6
CONTINUOUS
10
5.38763
20
-3.42098
11
5.38453
21
-3.4233
0
LINE
8
BLACK
6
CONTINUOUS
10
5.38453
20
-3.4233
11
5.38331
21
-3.42422
0
LINE
8
BLACK
6
CONTINUOUS
10
5.38331
20
-3.42422
11
5.38304
21
-3.42442
0
LINE
8
BLACK
6
CONTINUOUS
10
5.38304
20
-3.42442
11
5.3796
21
-3.42901
0
LINE
8
BLACK
6
CONTINUOUS
10
5.3796
20
-3.42901
11
5.3795
21
-3.42927
0
LINE
8
BLACK
6
CONTINUOUS
10
5.3795
20
-3.42927
11
5.3795
21
-3.42927
0
LINE
8
BLACK
6
CONTINUOUS
10
5.3795
20
-3.42927
11
5.37885
21
-3.431
0
LINE
8
BLACK
6
CONTINUOUS
10
5.37885
20
-3.431
11
5.37759
21
-3.43438
0
LINE
8
BLACK
6
CONTINUOUS
10
5.37759
20
-3.43438
11
5.37732
21
-3.43683
0
LINE
8
BLACK
6
CONTINUOUS
10
5.37732
20
-3.43683
11
5.37732
21
-3.50562
0
LINE
8
BLACK
6
CONTINUOUS
10
5.37732
20
-3.50562
11
5.37737
21
-3.50602
0
LINE
8
BLACK
6
CONTINUOUS
10
5.37737
20
-3.50602
11
5.37753
21
-3.50756
0
LINE
8
BLACK
6
CONTINUOUS
10
5.37753
20
-3.50756
11
5.37759
21
-3.50806
0
LINE
8
BLACK
6
CONTINUOUS
10
5.37759
20
-3.50806
11
5.37767
21
-3.50829
0
LINE
8
BLACK
6
CONTINUOUS
10
5.37767
20
-3.50829
11
5.3795
21
-3.51317
0
LINE
8
BLACK
6
CONTINUOUS
10
5.3795
20
-3.51317
11
5.3796
21
-3.51343
0
LINE
8
BLACK
6
CONTINUOUS
10
5.3796
20
-3.51343
11
5.38304
21
-3.51802
0
LINE
8
BLACK
6
CONTINUOUS
10
5.38304
20
-3.51802
11
5.38763
21
-3.52146
0
LINE
8
BLACK
6
CONTINUOUS
10
5.38763
20
-3.52146
11
5.38789
21
-3.52156
0
LINE
8
BLACK
6
CONTINUOUS
10
5.38789
20
-3.52156
11
5.38789
21
-3.52156
0
LINE
8
BLACK
6
CONTINUOUS
10
5.38789
20
-3.52156
11
5.39077
21
-3.52264
0
LINE
8
BLACK
6
CONTINUOUS
10
5.39077
20
-3.52264
11
5.393
21
-3.52347
0
LINE
8
BLACK
6
CONTINUOUS
10
5.393
20
-3.52347
11
5.39324
21
-3.5235
0
LINE
8
BLACK
6
CONTINUOUS
10
5.39324
20
-3.5235
11
5.39324
21
-3.5235
0
LINE
8
BLACK
6
CONTINUOUS
10
5.39324
20
-3.5235
11
5.39466
21
-3.52365
0
LINE
8
BLACK
6
CONTINUOUS
10
5.39466
20
-3.52365
11
5.39545
21
-3.52374
0
LINE
8
BLACK
6
CONTINUOUS
10
5.39545
20
-3.52374
11
5.46424
21
-3.52374
0
LINE
8
BLACK
6
CONTINUOUS
10
5.46424
20
-3.52374
11
5.46503
21
-3.52365
0
LINE
8
BLACK
6
CONTINUOUS
10
5.46503
20
-3.52365
11
5.46644
21
-3.5235
0
LINE
8
BLACK
6
CONTINUOUS
10
5.46644
20
-3.5235
11
5.46644
21
-3.5235
0
LINE
8
BLACK
6
CONTINUOUS
10
5.46644
20
-3.5235
11
5.46669
21
-3.52347
0
LINE
8
BLACK
6
CONTINUOUS
10
5.46669
20
-3.52347
11
5.46892
21
-3.52264
0
LINE
8
BLACK
6
CONTINUOUS
10
5.46892
20
-3.52264
11
5.4718
21
-3.52156
0
LINE
8
BLACK
6
CONTINUOUS
10
5.4718
20
-3.52156
11
5.4718
21
-3.52156
0
LINE
8
BLACK
6
CONTINUOUS
10
5.4718
20
-3.52156
11
5.47206
21
-3.52146
0
LINE
8
BLACK
6
CONTINUOUS
10
5.47206
20
-3.52146
11
5.47639
21
-3.51821
0
LINE
8
BLACK
6
CONTINUOUS
10
5.47639
20
-3.51821
11
5.47874
21
-3.51743
0
LINE
8
BLACK
6
CONTINUOUS
10
5.47874
20
-3.51743
11
5.48098
21
-3.51744
0
LINE
8
BLACK
6
CONTINUOUS
10
5.48098
20
-3.51744
11
5.4833
21
-3.51822
0
LINE
8
BLACK
6
CONTINUOUS
10
5.4833
20
-3.51822
11
5.48741
21
-3.52129
0
LINE
8
BLACK
6
CONTINUOUS
10
5.48741
20
-3.52129
11
5.48741
21
-3.52129
0
LINE
8
BLACK
6
CONTINUOUS
10
5.48741
20
-3.52129
11
5.48763
21
-3.52146
0
LINE
8
BLACK
6
CONTINUOUS
10
5.48763
20
-3.52146
11
5.48789
21
-3.52156
0
LINE
8
BLACK
6
CONTINUOUS
10
5.48789
20
-3.52156
11
5.48789
21
-3.52156
0
LINE
8
BLACK
6
CONTINUOUS
10
5.48789
20
-3.52156
11
5.49077
21
-3.52264
0
LINE
8
BLACK
6
CONTINUOUS
10
5.49077
20
-3.52264
11
5.493
21
-3.52347
0
LINE
8
BLACK
6
CONTINUOUS
10
5.493
20
-3.52347
11
5.49324
21
-3.5235
0
LINE
8
BLACK
6
CONTINUOUS
10
5.49324
20
-3.5235
11
5.49324
21
-3.5235
0
LINE
8
BLACK
6
CONTINUOUS
10
5.49324
20
-3.5235
11
5.49466
21
-3.52365
0
LINE
8
BLACK
6
CONTINUOUS
10
5.49466
20
-3.52365
11
5.49545
21
-3.52374
0
LINE
8
BLACK
6
CONTINUOUS
10
5.49545
20
-3.52374
11
5.56424
21
-3.52374
0
LINE
8
BLACK
6
CONTINUOUS
10
5.56424
20
-3.52374
11
5.56503
21
-3.52365
0
LINE
8
BLACK
6
CONTINUOUS
10
5.56503
20
-3.52365
11
5.56644
21
-3.5235
0
LINE
8
BLACK
6
CONTINUOUS
10
5.56644
20
-3.5235
11
5.56644
21
-3.5235
0
LINE
8
BLACK
6
CONTINUOUS
10
5.56644
20
-3.5235
11
5.56669
21
-3.52347
0
LINE
8
BLACK
6
CONTINUOUS
10
5.56669
20
-3.52347
11
5.56892
21
-3.52264
0
LINE
8
BLACK
6
CONTINUOUS
10
5.56892
20
-3.52264
11
5.5718
21
-3.52156
0
LINE
8
BLACK
6
CONTINUOUS
10
5.5718
20
-3.52156
11
5.5718
21
-3.52156
0
LINE
8
BLACK
6
CONTINUOUS
10
5.5718
20
-3.52156
11
5.57206
21
-3.52146
0
LINE
8
BLACK
6
CONTINUOUS
10
5.57206
20
-3.52146
11
5.57228
21
-3.52129
0
LINE
8
BLACK
6
CONTINUOUS
10
5.57228
20
-3.52129
11
5.57228
21
-3.52129
0
LINE
8
BLACK
6
CONTINUOUS
10
5.57228
20
-3.52129
11
5.57468
21
-3.51949
0
LINE
8
BLACK
6
CONTINUOUS
10
5.57468
20
-3.51949
11
5.57696
21
-3.51872
0
LINE
8
BLACK
6
CONTINUOUS
10
5.57696
20
-3.51872
11
5.57724
21
-3.51873
0
LINE
8
BLACK
6
CONTINUOUS
10
5.57724
20
-3.51873
11
5.57724
21
-3.51872
0
LINE
8
BLACK
6
CONTINUOUS
10
5.57724
20
-3.51872
11
5.57734
21
-3.51873
0
LINE
8
BLACK
6
CONTINUOUS
10
5.57734
20
-3.51873
11
5.57745
21
-3.51874
0
LINE
8
BLACK
6
CONTINUOUS
10
5.57745
20
-3.51874
11
5.57878
21
-3.51874
0
LINE
8
BLACK
6
CONTINUOUS
10
5.57878
20
-3.51874
11
5.58107
21
-3.51948
0
LINE
8
BLACK
6
CONTINUOUS
10
5.58107
20
-3.51948
11
5.58249
21
-3.52143
0
LINE
8
BLACK
6
CONTINUOUS
10
5.58249
20
-3.52143
11
5.58268
21
-3.52264
0
LINE
8
BLACK
6
CONTINUOUS
10
5.58268
20
-3.52264
11
5.58268
21
-3.64961
0
LINE
8
BLACK
6
CONTINUOUS
10
5.58268
20
-3.64961
11
5.84728
21
-3.64961
0
LINE
8
BLACK
6
CONTINUOUS
10
5.84728
20
-3.64961
11
5.84957
21
-3.65035
0
LINE
8
BLACK
6
CONTINUOUS
10
5.84957
20
-3.65035
11
5.85099
21
-3.6523
0
LINE
8
BLACK
6
CONTINUOUS
10
5.85099
20
-3.6523
11
5.85118
21
-3.6535
0
LINE
8
BLACK
6
CONTINUOUS
10
5.85118
20
-3.6535
11
5.85118
21
-3.75988
0
LINE
8
BLACK
6
CONTINUOUS
10
5.85118
20
-3.75988
11
6.05343
21
-3.75988
0
LINE
8
BLACK
6
CONTINUOUS
10
6.05343
20
-3.75988
11
6.05572
21
-3.76063
0
LINE
8
BLACK
6
CONTINUOUS
10
6.05572
20
-3.76063
11
6.05713
21
-3.76258
0
LINE
8
BLACK
6
CONTINUOUS
10
6.05713
20
-3.76258
11
6.05732
21
-3.76378
0
LINE
8
BLACK
6
CONTINUOUS
10
6.05732
20
-3.76378
11
6.05732
21
-3.77812
0
LINE
8
BLACK
6
CONTINUOUS
10
6.05732
20
-3.77812
11
6.05759
21
-3.78056
0
LINE
8
BLACK
6
CONTINUOUS
10
6.05759
20
-3.78056
11
6.0596
21
-3.78593
0
LINE
8
BLACK
6
CONTINUOUS
10
6.0596
20
-3.78593
11
6.06304
21
-3.79052
0
LINE
8
BLACK
6
CONTINUOUS
10
6.06304
20
-3.79052
11
6.06763
21
-3.79396
0
LINE
8
BLACK
6
CONTINUOUS
10
6.06763
20
-3.79396
11
6.06789
21
-3.79406
0
LINE
8
BLACK
6
CONTINUOUS
10
6.06789
20
-3.79406
11
6.06789
21
-3.79406
0
LINE
8
BLACK
6
CONTINUOUS
10
6.06789
20
-3.79406
11
6.07072
21
-3.79512
0
LINE
8
BLACK
6
CONTINUOUS
10
6.07072
20
-3.79512
11
6.073
21
-3.79597
0
LINE
8
BLACK
6
CONTINUOUS
10
6.073
20
-3.79597
11
6.07324
21
-3.796
0
LINE
8
BLACK
6
CONTINUOUS
10
6.07324
20
-3.796
11
6.07324
21
-3.796
0
LINE
8
BLACK
6
CONTINUOUS
10
6.07324
20
-3.796
11
6.07466
21
-3.79615
0
LINE
8
BLACK
6
CONTINUOUS
10
6.07466
20
-3.79615
11
6.07545
21
-3.79624
0
LINE
8
BLACK
6
CONTINUOUS
10
6.07545
20
-3.79624
11
6.13424
21
-3.79624
0
LINE
8
BLACK
6
CONTINUOUS
10
6.13424
20
-3.79624
11
6.13503
21
-3.79615
0
LINE
8
BLACK
6
CONTINUOUS
10
6.13503
20
-3.79615
11
6.13644
21
-3.796
0
LINE
8
BLACK
6
CONTINUOUS
10
6.13644
20
-3.796
11
6.13644
21
-3.796
0
LINE
8
BLACK
6
CONTINUOUS
10
6.13644
20
-3.796
11
6.13669
21
-3.79597
0
LINE
8
BLACK
6
CONTINUOUS
10
6.13669
20
-3.79597
11
6.14097
21
-3.79437
0
LINE
8
BLACK
6
CONTINUOUS
10
6.14097
20
-3.79437
11
6.14338
21
-3.79426
0
LINE
8
BLACK
6
CONTINUOUS
10
6.14338
20
-3.79426
11
6.14371
21
-3.79437
0
LINE
8
BLACK
6
CONTINUOUS
10
6.14371
20
-3.79437
11
6.148
21
-3.79597
0
LINE
8
BLACK
6
CONTINUOUS
10
6.148
20
-3.79597
11
6.14824
21
-3.796
0
LINE
8
BLACK
6
CONTINUOUS
10
6.14824
20
-3.796
11
6.14824
21
-3.796
0
LINE
8
BLACK
6
CONTINUOUS
10
6.14824
20
-3.796
11
6.14966
21
-3.79615
0
LINE
8
BLACK
6
CONTINUOUS
10
6.14966
20
-3.79615
11
6.15045
21
-3.79624
0
LINE
8
BLACK
6
CONTINUOUS
10
6.15045
20
-3.79624
11
6.20924
21
-3.79624
0
LINE
8
BLACK
6
CONTINUOUS
10
6.20924
20
-3.79624
11
6.21003
21
-3.79615
0
LINE
8
BLACK
6
CONTINUOUS
10
6.21003
20
-3.79615
11
6.21144
21
-3.796
0
LINE
8
BLACK
6
CONTINUOUS
10
6.21144
20
-3.796
11
6.21144
21
-3.796
0
LINE
8
BLACK
6
CONTINUOUS
10
6.21144
20
-3.796
11
6.21169
21
-3.79597
0
LINE
8
BLACK
6
CONTINUOUS
10
6.21169
20
-3.79597
11
6.21397
21
-3.79512
0
LINE
8
BLACK
6
CONTINUOUS
10
6.21397
20
-3.79512
11
6.2168
21
-3.79406
0
LINE
8
BLACK
6
CONTINUOUS
10
6.2168
20
-3.79406
11
6.2168
21
-3.79406
0
LINE
8
BLACK
6
CONTINUOUS
10
6.2168
20
-3.79406
11
6.21706
21
-3.79396
0
LINE
8
BLACK
6
CONTINUOUS
10
6.21706
20
-3.79396
11
6.21967
21
-3.792
0
LINE
8
BLACK
6
CONTINUOUS
10
6.21967
20
-3.792
11
6.22201
21
-3.79122
0
LINE
8
BLACK
6
CONTINUOUS
10
6.22201
20
-3.79122
11
6.24993
21
-3.79122
0
LINE
8
BLACK
6
CONTINUOUS
10
6.24993
20
-3.79122
11
6.25222
21
-3.79196
0
LINE
8
BLACK
6
CONTINUOUS
10
6.25222
20
-3.79196
11
6.25363
21
-3.79391
0
LINE
8
BLACK
6
CONTINUOUS
10
6.25363
20
-3.79391
11
6.25382
21
-3.79512
0
LINE
8
BLACK
6
CONTINUOUS
10
6.25382
20
-3.79512
11
6.25382
21
-3.84862
0
LINE
8
BLACK
6
CONTINUOUS
10
6.25382
20
-3.84862
11
6.25409
21
-3.85106
0
LINE
8
BLACK
6
CONTINUOUS
10
6.25409
20
-3.85106
11
6.2561
21
-3.85643
0
LINE
8
BLACK
6
CONTINUOUS
10
6.2561
20
-3.85643
11
6.25954
21
-3.86102
0
LINE
8
BLACK
6
CONTINUOUS
10
6.25954
20
-3.86102
11
6.26413
21
-3.86446
0
LINE
8
BLACK
6
CONTINUOUS
10
6.26413
20
-3.86446
11
6.2695
21
-3.86647
0
LINE
8
BLACK
6
CONTINUOUS
10
6.2695
20
-3.86647
11
6.26974
21
-3.8665
0
LINE
8
BLACK
6
CONTINUOUS
10
6.26974
20
-3.8665
11
6.26974
21
-3.8665
0
LINE
8
BLACK
6
CONTINUOUS
10
6.26974
20
-3.8665
11
6.27116
21
-3.86665
0
LINE
8
BLACK
6
CONTINUOUS
10
6.27116
20
-3.86665
11
6.27195
21
-3.86674
0
LINE
8
BLACK
6
CONTINUOUS
10
6.27195
20
-3.86674
11
6.27359
21
-3.86674
0
LINE
8
BLACK
6
CONTINUOUS
10
6.27359
20
-3.86674
11
6.27588
21
-3.86748
0
LINE
8
BLACK
6
CONTINUOUS
10
6.27588
20
-3.86748
11
6.27729
21
-3.86943
0
LINE
8
BLACK
6
CONTINUOUS
10
6.27729
20
-3.86943
11
6.27729
21
-3.87184
0
LINE
8
BLACK
6
CONTINUOUS
10
6.27729
20
-3.87184
11
6.27592
21
-3.87376
0
LINE
8
BLACK
6
CONTINUOUS
10
6.27592
20
-3.87376
11
6.27526
21
-3.87425
0
LINE
8
BLACK
6
CONTINUOUS
10
6.27526
20
-3.87425
11
6.27526
21
-3.87425
0
LINE
8
BLACK
6
CONTINUOUS
10
6.27526
20
-3.87425
11
6.27504
21
-3.87442
0
LINE
8
BLACK
6
CONTINUOUS
10
6.27504
20
-3.87442
11
6.2716
21
-3.87901
0
LINE
8
BLACK
6
CONTINUOUS
10
6.2716
20
-3.87901
11
6.26959
21
-3.88438
0
LINE
8
BLACK
6
CONTINUOUS
10
6.26959
20
-3.88438
11
6.26932
21
-3.88683
0
LINE
8
BLACK
6
CONTINUOUS
10
6.26932
20
-3.88683
11
6.26932
21
-3.95562
0
LINE
8
BLACK
6
CONTINUOUS
10
6.26932
20
-3.95562
11
6.26959
21
-3.95806
0
LINE
8
BLACK
6
CONTINUOUS
10
6.26959
20
-3.95806
11
6.2716
21
-3.96343
0
LINE
8
BLACK
6
CONTINUOUS
10
6.2716
20
-3.96343
11
6.27504
21
-3.96802
0
LINE
8
BLACK
6
CONTINUOUS
10
6.27504
20
-3.96802
11
6.27526
21
-3.96819
0
LINE
8
BLACK
6
CONTINUOUS
10
6.27526
20
-3.96819
11
6.27546
21
-3.96838
0
LINE
8
BLACK
6
CONTINUOUS
10
6.27546
20
-3.96838
11
6.27539
21
-3.96845
0
LINE
8
BLACK
6
CONTINUOUS
10
6.27539
20
-3.96845
11
6.27653
21
-3.97007
0
LINE
8
BLACK
6
CONTINUOUS
10
6.27653
20
-3.97007
11
6.2765
21
-3.97248
0
LINE
8
BLACK
6
CONTINUOUS
10
6.2765
20
-3.97248
11
6.2754
21
-3.97399
0
LINE
8
BLACK
6
CONTINUOUS
10
6.2754
20
-3.97399
11
6.27546
21
-3.97406
0
LINE
8
BLACK
6
CONTINUOUS
10
6.27546
20
-3.97406
11
6.27526
21
-3.97425
0
LINE
8
BLACK
6
CONTINUOUS
10
6.27526
20
-3.97425
11
6.27504
21
-3.97442
0
LINE
8
BLACK
6
CONTINUOUS
10
6.27504
20
-3.97442
11
6.2716
21
-3.97901
0
LINE
8
BLACK
6
CONTINUOUS
10
6.2716
20
-3.97901
11
6.26959
21
-3.98438
0
LINE
8
BLACK
6
CONTINUOUS
10
6.26959
20
-3.98438
11
6.26932
21
-3.98683
0
LINE
8
BLACK
6
CONTINUOUS
10
6.26932
20
-3.98683
11
6.26932
21
-4.05562
0
LINE
8
BLACK
6
CONTINUOUS
10
6.26932
20
-4.05562
11
6.26959
21
-4.05806
0
LINE
8
BLACK
6
CONTINUOUS
10
6.26959
20
-4.05806
11
6.2716
21
-4.06343
0
LINE
8
BLACK
6
CONTINUOUS
10
6.2716
20
-4.06343
11
6.27504
21
-4.06802
0
LINE
8
BLACK
6
CONTINUOUS
10
6.27504
20
-4.06802
11
6.27963
21
-4.07146
0
LINE
8
BLACK
6
CONTINUOUS
10
6.27963
20
-4.07146
11
6.285
21
-4.07347
0
LINE
8
BLACK
6
CONTINUOUS
10
6.285
20
-4.07347
11
6.28524
21
-4.0735
0
LINE
8
BLACK
6
CONTINUOUS
10
6.28524
20
-4.0735
11
6.28524
21
-4.0735
0
LINE
8
BLACK
6
CONTINUOUS
10
6.28524
20
-4.0735
11
6.28666
21
-4.07365
0
LINE
8
BLACK
6
CONTINUOUS
10
6.28666
20
-4.07365
11
6.28745
21
-4.07374
0
LINE
8
BLACK
6
CONTINUOUS
10
6.28745
20
-4.07374
11
6.32517
21
-4.07374
0
LINE
8
BLACK
6
CONTINUOUS
10
6.32517
20
-4.07374
11
6.32746
21
-4.07448
0
LINE
8
BLACK
6
CONTINUOUS
10
6.32746
20
-4.07448
11
6.32793
21
-4.07488
0
LINE
8
BLACK
6
CONTINUOUS
10
6.32793
20
-4.07488
11
6.33751
21
-4.08447
0
LINE
8
BLACK
6
CONTINUOUS
10
6.33751
20
-4.08447
11
6.33861
21
-4.08661
0
LINE
8
BLACK
6
CONTINUOUS
10
6.33861
20
-4.08661
11
6.33823
21
-4.08899
0
LINE
8
BLACK
6
CONTINUOUS
10
6.33823
20
-4.08899
11
6.33653
21
-4.0907
0
LINE
8
BLACK
6
CONTINUOUS
10
6.33653
20
-4.0907
11
6.33476
21
-4.09112
0
LINE
8
BLACK
6
CONTINUOUS
10
6.33476
20
-4.09112
11
5.26384
21
-4.09112
0
LINE
8
BLACK
6
CONTINUOUS
10
5.26384
20
-4.09112
11
5.26155
21
-4.09038
0
LINE
8
BLACK
6
CONTINUOUS
10
5.26155
20
-4.09038
11
5.26013
21
-4.08843
0
LINE
8
BLACK
6
CONTINUOUS
10
5.26013
20
-4.08843
11
5.25994
21
-4.08722
0
LINE
8
BLACK
6
CONTINUOUS
10
5.25994
20
-4.08722
11
5.25994
21
-2.95522
0
LINE
8
BLACK
6
CONTINUOUS
10
5.25994
20
-2.95522
11
5.26069
21
-2.95293
0
LINE
8
BLACK
6
CONTINUOUS
10
5.26069
20
-2.95293
11
5.26263
21
-2.95151
0
LINE
8
BLACK
6
CONTINUOUS
10
5.26263
20
-2.95151
11
5.26384
21
-2.95132
0
LINE
8
BLACK
6
CONTINUOUS
10
5.26384
20
-2.95132
11
7.19585
21
-2.95132
0
LINE
8
BLACK
6
CONTINUOUS
10
7.19585
20
-2.95132
11
7.19814
21
-2.95206
0
LINE
8
BLACK
6
CONTINUOUS
10
6.1674
20
-3.70379
11
6.22257
21
-3.70379
0
LINE
8
BLACK
6
CONTINUOUS
10
6.22257
20
-3.70379
11
6.22634
21
-3.70454
0
LINE
8
BLACK
6
CONTINUOUS
10
6.22634
20
-3.70454
11
6.22953
21
-3.70668
0
LINE
8
BLACK
6
CONTINUOUS
10
6.22953
20
-3.70668
11
6.25923
21
-3.73638
0
LINE
8
BLACK
6
CONTINUOUS
10
6.25923
20
-3.73638
11
6.27484
21
-3.73638
0
LINE
8
BLACK
6
CONTINUOUS
10
6.27484
20
-3.73638
11
6.27484
21
-3.71872
0
LINE
8
BLACK
6
CONTINUOUS
10
6.27484
20
-3.71872
11
6.30984
21
-3.71872
0
LINE
8
BLACK
6
CONTINUOUS
10
6.30984
20
-3.71872
11
6.30984
21
-3.74323
0
LINE
8
BLACK
6
CONTINUOUS
10
6.30984
20
-3.74323
11
6.31034
21
-3.74672
0
LINE
8
BLACK
6
CONTINUOUS
10
6.31034
20
-3.74672
11
6.31034
21
-3.74715
0
LINE
8
BLACK
6
CONTINUOUS
10
6.31034
20
-3.74715
11
6.30984
21
-3.75009
0
LINE
8
BLACK
6
CONTINUOUS
10
6.30984
20
-3.75009
11
6.30984
21
-3.77372
0
LINE
8
BLACK
6
CONTINUOUS
10
6.30984
20
-3.77372
11
6.29922
21
-3.77372
0
LINE
8
BLACK
6
CONTINUOUS
10
6.29922
20
-3.77372
11
6.29922
21
-3.79172
0
LINE
8
BLACK
6
CONTINUOUS
10
6.29922
20
-3.79172
11
6.30884
21
-3.79172
0
LINE
8
BLACK
6
CONTINUOUS
10
6.30884
20
-3.79172
11
6.30884
21
-3.8228
0
LINE
8
BLACK
6
CONTINUOUS
10
6.30884
20
-3.8228
11
6.3288
21
-3.84276
0
LINE
8
BLACK
6
CONTINUOUS
10
6.3288
20
-3.84276
11
6.33094
21
-3.84595
0
LINE
8
BLACK
6
CONTINUOUS
10
6.33094
20
-3.84595
11
6.33169
21
-3.84972
0
LINE
8
BLACK
6
CONTINUOUS
10
6.33169
20
-3.84972
11
6.33169
21
-3.88872
0
LINE
8
BLACK
6
CONTINUOUS
10
6.33169
20
-3.88872
11
6.35434
21
-3.88872
0
LINE
8
BLACK
6
CONTINUOUS
10
6.35434
20
-3.88872
11
6.35434
21
-3.95372
0
LINE
8
BLACK
6
CONTINUOUS
10
6.35434
20
-3.95372
11
6.33169
21
-3.95372
0
LINE
8
BLACK
6
CONTINUOUS
10
6.33169
20
-3.95372
11
6.33169
21
-3.98872
0
LINE
8
BLACK
6
CONTINUOUS
10
6.33169
20
-3.98872
11
6.35434
21
-3.98872
0
LINE
8
BLACK
6
CONTINUOUS
10
6.35434
20
-3.98872
11
6.35434
21
-4.04515
0
LINE
8
BLACK
6
CONTINUOUS
10
6.35434
20
-4.04515
11
6.38006
21
-4.07087
0
LINE
8
BLACK
6
CONTINUOUS
10
6.38006
20
-4.07087
11
6.4664
21
-4.07087
0
LINE
8
BLACK
6
CONTINUOUS
10
6.4664
20
-4.07087
11
6.48934
21
-4.04792
0
LINE
8
BLACK
6
CONTINUOUS
10
6.48934
20
-4.04792
11
6.48934
21
-3.98872
0
LINE
8
BLACK
6
CONTINUOUS
10
6.48934
20
-3.98872
11
6.512
21
-3.98872
0
LINE
8
BLACK
6
CONTINUOUS
10
6.512
20
-3.98872
11
6.512
21
-3.95372
0
LINE
8
BLACK
6
CONTINUOUS
10
6.512
20
-3.95372
11
6.48934
21
-3.95372
0
LINE
8
BLACK
6
CONTINUOUS
10
6.48934
20
-3.95372
11
6.48934
21
-3.88872
0
LINE
8
BLACK
6
CONTINUOUS
10
6.48934
20
-3.88872
11
6.55434
21
-3.88872
0
LINE
8
BLACK
6
CONTINUOUS
10
6.55434
20
-3.88872
11
6.55434
21
-3.95372
0
LINE
8
BLACK
6
CONTINUOUS
10
6.55434
20
-3.95372
11
6.53169
21
-3.95372
0
LINE
8
BLACK
6
CONTINUOUS
10
6.53169
20
-3.95372
11
6.53169
21
-3.98872
0
LINE
8
BLACK
6
CONTINUOUS
10
6.53169
20
-3.98872
11
6.55434
21
-3.98872
0
LINE
8
BLACK
6
CONTINUOUS
10
6.55434
20
-3.98872
11
6.55434
21
-4.05372
0
LINE
8
BLACK
6
CONTINUOUS
10
6.55434
20
-4.05372
11
6.51138
21
-4.05372
0
LINE
8
BLACK
6
CONTINUOUS
10
6.51138
20
-4.05372
11
6.47743
21
-4.08767
0
LINE
8
BLACK
6
CONTINUOUS
10
6.47743
20
-4.08767
11
6.47424
21
-4.0898
0
LINE
8
BLACK
6
CONTINUOUS
10
6.47424
20
-4.0898
11
6.47047
21
-4.09055
0
LINE
8
BLACK
6
CONTINUOUS
10
6.47047
20
-4.09055
11
6.37598
21
-4.09055
0
LINE
8
BLACK
6
CONTINUOUS
10
6.37598
20
-4.09055
11
6.37222
21
-4.0898
0
LINE
8
BLACK
6
CONTINUOUS
10
6.37222
20
-4.0898
11
6.36902
21
-4.08767
0
LINE
8
BLACK
6
CONTINUOUS
10
6.36902
20
-4.08767
11
6.36902
21
-4.08767
0
LINE
8
BLACK
6
CONTINUOUS
10
6.36902
20
-4.08767
11
6.33508
21
-4.05372
0
LINE
8
BLACK
6
CONTINUOUS
10
6.33508
20
-4.05372
11
6.28934
21
-4.05372
0
LINE
8
BLACK
6
CONTINUOUS
10
6.28934
20
-4.05372
11
6.28934
21
-3.98872
0
LINE
8
BLACK
6
CONTINUOUS
10
6.28934
20
-3.98872
11
6.312
21
-3.98872
0
LINE
8
BLACK
6
CONTINUOUS
10
6.312
20
-3.98872
11
6.312
21
-3.95372
0
LINE
8
BLACK
6
CONTINUOUS
10
6.312
20
-3.95372
11
6.28934
21
-3.95372
0
LINE
8
BLACK
6
CONTINUOUS
10
6.28934
20
-3.95372
11
6.28934
21
-3.88872
0
LINE
8
BLACK
6
CONTINUOUS
10
6.28934
20
-3.88872
11
6.312
21
-3.88872
0
LINE
8
BLACK
6
CONTINUOUS
10
6.312
20
-3.88872
11
6.312
21
-3.8538
0
LINE
8
BLACK
6
CONTINUOUS
10
6.312
20
-3.8538
11
6.30492
21
-3.84672
0
LINE
8
BLACK
6
CONTINUOUS
10
6.30492
20
-3.84672
11
6.27384
21
-3.84672
0
LINE
8
BLACK
6
CONTINUOUS
10
6.27384
20
-3.84672
11
6.27384
21
-3.79172
0
LINE
8
BLACK
6
CONTINUOUS
10
6.27384
20
-3.79172
11
6.28347
21
-3.79172
0
LINE
8
BLACK
6
CONTINUOUS
10
6.28347
20
-3.79172
11
6.28347
21
-3.77372
0
LINE
8
BLACK
6
CONTINUOUS
10
6.28347
20
-3.77372
11
6.27484
21
-3.77372
0
LINE
8
BLACK
6
CONTINUOUS
10
6.27484
20
-3.77372
11
6.27484
21
-3.75606
0
LINE
8
BLACK
6
CONTINUOUS
10
6.27484
20
-3.75606
11
6.25516
21
-3.75606
0
LINE
8
BLACK
6
CONTINUOUS
10
6.25516
20
-3.75606
11
6.25139
21
-3.75531
0
LINE
8
BLACK
6
CONTINUOUS
10
6.25139
20
-3.75531
11
6.2482
21
-3.75318
0
LINE
8
BLACK
6
CONTINUOUS
10
6.2482
20
-3.75318
11
6.2185
21
-3.72348
0
LINE
8
BLACK
6
CONTINUOUS
10
6.2185
20
-3.72348
11
6.16333
21
-3.72348
0
LINE
8
BLACK
6
CONTINUOUS
10
6.16333
20
-3.72348
11
6.16333
21
-3.72348
0
LINE
8
BLACK
6
CONTINUOUS
10
6.16333
20
-3.72348
11
6.15956
21
-3.72273
0
LINE
8
BLACK
6
CONTINUOUS
10
6.15956
20
-3.72273
11
6.15637
21
-3.7206
0
LINE
8
BLACK
6
CONTINUOUS
10
6.15637
20
-3.7206
11
6.14288
21
-3.70711
0
LINE
8
BLACK
6
CONTINUOUS
10
6.14288
20
-3.70711
11
6.14075
21
-3.70392
0
LINE
8
BLACK
6
CONTINUOUS
10
6.14075
20
-3.70392
11
6.14
21
-3.70015
0
LINE
8
BLACK
6
CONTINUOUS
10
6.14
20
-3.70015
11
6.14
21
-3.65652
0
LINE
8
BLACK
6
CONTINUOUS
10
6.14
20
-3.65652
11
6.15969
21
-3.65652
0
LINE
8
BLACK
6
CONTINUOUS
10
6.15969
20
-3.65652
11
6.15969
21
-3.69608
0
LINE
8
BLACK
6
CONTINUOUS
10
6.15969
20
-3.69608
11
6.1674
21
-3.70379
0
LINE
8
BLACK
6
CONTINUOUS
10
6.37641
20
-3.66448
11
6.40952
21
-3.69759
0
LINE
8
BLACK
6
CONTINUOUS
10
6.40952
20
-3.69759
11
6.41165
21
-3.70078
0
LINE
8
BLACK
6
CONTINUOUS
10
6.41165
20
-3.70078
11
6.4124
21
-3.70455
0
LINE
8
BLACK
6
CONTINUOUS
10
6.4124
20
-3.70455
11
6.4124
21
-3.70455
0
LINE
8
BLACK
6
CONTINUOUS
10
6.4124
20
-3.70455
11
6.4124
21
-3.73546
0
LINE
8
BLACK
6
CONTINUOUS
10
6.4124
20
-3.73546
11
6.4288
21
-3.75186
0
LINE
8
BLACK
6
CONTINUOUS
10
6.4288
20
-3.75186
11
6.4288
21
-3.75186
0
LINE
8
BLACK
6
CONTINUOUS
10
6.4288
20
-3.75186
11
6.43094
21
-3.75505
0
LINE
8
BLACK
6
CONTINUOUS
10
6.43094
20
-3.75505
11
6.43169
21
-3.75882
0
LINE
8
BLACK
6
CONTINUOUS
10
6.43169
20
-3.75882
11
6.43169
21
-3.88872
0
LINE
8
BLACK
6
CONTINUOUS
10
6.43169
20
-3.88872
11
6.45434
21
-3.88872
0
LINE
8
BLACK
6
CONTINUOUS
10
6.45434
20
-3.88872
11
6.45434
21
-3.95372
0
LINE
8
BLACK
6
CONTINUOUS
10
6.45434
20
-3.95372
11
6.43169
21
-3.95372
0
LINE
8
BLACK
6
CONTINUOUS
10
6.43169
20
-3.95372
11
6.43169
21
-3.98872
0
LINE
8
BLACK
6
CONTINUOUS
10
6.43169
20
-3.98872
11
6.45434
21
-3.98872
0
LINE
8
BLACK
6
CONTINUOUS
10
6.45434
20
-3.98872
11
6.45434
21
-4.05372
0
LINE
8
BLACK
6
CONTINUOUS
10
6.45434
20
-4.05372
11
6.38934
21
-4.05372
0
LINE
8
BLACK
6
CONTINUOUS
10
6.38934
20
-4.05372
11
6.38934
21
-3.98872
0
LINE
8
BLACK
6
CONTINUOUS
10
6.38934
20
-3.98872
11
6.412
21
-3.98872
0
LINE
8
BLACK
6
CONTINUOUS
10
6.412
20
-3.98872
11
6.412
21
-3.95372
0
LINE
8
BLACK
6
CONTINUOUS
10
6.412
20
-3.95372
11
6.38934
21
-3.95372
0
LINE
8
BLACK
6
CONTINUOUS
10
6.38934
20
-3.95372
11
6.38934
21
-3.88872
0
LINE
8
BLACK
6
CONTINUOUS
10
6.38934
20
-3.88872
11
6.412
21
-3.88872
0
LINE
8
BLACK
6
CONTINUOUS
10
6.412
20
-3.88872
11
6.412
21
-3.7629
0
LINE
8
BLACK
6
CONTINUOUS
10
6.412
20
-3.7629
11
6.3956
21
-3.7465
0
LINE
8
BLACK
6
CONTINUOUS
10
6.3956
20
-3.7465
11
6.39347
21
-3.7433
0
LINE
8
BLACK
6
CONTINUOUS
10
6.39347
20
-3.7433
11
6.39272
21
-3.73954
0
LINE
8
BLACK
6
CONTINUOUS
10
6.39272
20
-3.73954
11
6.39272
21
-3.70862
0
LINE
8
BLACK
6
CONTINUOUS
10
6.39272
20
-3.70862
11
6.36537
21
-3.68128
0
LINE
8
BLACK
6
CONTINUOUS
10
6.36537
20
-3.68128
11
6.31166
21
-3.68128
0
LINE
8
BLACK
6
CONTINUOUS
10
6.31166
20
-3.68128
11
6.30789
21
-3.68053
0
LINE
8
BLACK
6
CONTINUOUS
10
6.30789
20
-3.68053
11
6.30633
21
-3.67949
0
LINE
8
BLACK
6
CONTINUOUS
10
6.30633
20
-3.67949
11
6.3047
21
-3.6784
0
LINE
8
BLACK
6
CONTINUOUS
10
6.3047
20
-3.6784
11
6.3047
21
-3.6784
0
LINE
8
BLACK
6
CONTINUOUS
10
6.3047
20
-3.6784
11
6.2956
21
-3.6693
0
LINE
8
BLACK
6
CONTINUOUS
10
6.2956
20
-3.6693
11
6.29347
21
-3.6661
0
LINE
8
BLACK
6
CONTINUOUS
10
6.29347
20
-3.6661
11
6.29272
21
-3.66234
0
LINE
8
BLACK
6
CONTINUOUS
10
6.29272
20
-3.66234
11
6.29272
21
-3.58551
0
LINE
8
BLACK
6
CONTINUOUS
10
6.29272
20
-3.58551
11
6.25842
21
-3.55122
0
LINE
8
BLACK
6
CONTINUOUS
10
6.25842
20
-3.55122
11
6.25126
21
-3.55122
0
LINE
8
BLACK
6
CONTINUOUS
10
6.25126
20
-3.55122
11
6.24909
21
-3.55339
0
LINE
8
BLACK
6
CONTINUOUS
10
6.24909
20
-3.55339
11
6.2459
21
-3.55552
0
LINE
8
BLACK
6
CONTINUOUS
10
6.2459
20
-3.55552
11
6.24213
21
-3.55627
0
LINE
8
BLACK
6
CONTINUOUS
10
6.24213
20
-3.55627
11
6.21951
21
-3.55627
0
LINE
8
BLACK
6
CONTINUOUS
10
6.21951
20
-3.55627
11
6.21624
21
-3.55989
0
LINE
8
BLACK
6
CONTINUOUS
10
6.21624
20
-3.55989
11
6.21201
21
-3.56249
0
LINE
8
BLACK
6
CONTINUOUS
10
6.21201
20
-3.56249
11
6.20722
21
-3.5638
0
LINE
8
BLACK
6
CONTINUOUS
10
6.20722
20
-3.5638
11
6.20226
21
-3.5637
0
LINE
8
BLACK
6
CONTINUOUS
10
6.20226
20
-3.5637
11
6.20183
21
-3.56357
0
LINE
8
BLACK
6
CONTINUOUS
10
6.20183
20
-3.56357
11
6.19719
21
-3.56822
0
LINE
8
BLACK
6
CONTINUOUS
10
6.19719
20
-3.56822
11
6.19719
21
-3.59592
0
LINE
8
BLACK
6
CONTINUOUS
10
6.19719
20
-3.59592
11
6.1775
21
-3.59592
0
LINE
8
BLACK
6
CONTINUOUS
10
6.1775
20
-3.59592
11
6.1775
21
-3.55652
0
LINE
8
BLACK
6
CONTINUOUS
10
6.1775
20
-3.55652
11
6.18105
21
-3.55652
0
LINE
8
BLACK
6
CONTINUOUS
10
6.18105
20
-3.55652
11
6.188
21
-3.54957
0
LINE
8
BLACK
6
CONTINUOUS
10
6.188
20
-3.54957
11
6.18756
21
-3.54622
0
LINE
8
BLACK
6
CONTINUOUS
10
6.18756
20
-3.54622
11
6.18832
21
-3.54131
0
LINE
8
BLACK
6
CONTINUOUS
10
6.18832
20
-3.54131
11
6.19043
21
-3.53682
0
LINE
8
BLACK
6
CONTINUOUS
10
6.19043
20
-3.53682
11
6.19371
21
-3.5331
0
LINE
8
BLACK
6
CONTINUOUS
10
6.19371
20
-3.5331
11
6.19791
21
-3.53045
0
LINE
8
BLACK
6
CONTINUOUS
10
6.19791
20
-3.53045
11
6.20268
21
-3.52909
0
LINE
8
BLACK
6
CONTINUOUS
10
6.20268
20
-3.52909
11
6.20764
21
-3.52912
0
LINE
8
BLACK
6
CONTINUOUS
10
6.20764
20
-3.52912
11
6.2124
21
-3.53054
0
LINE
8
BLACK
6
CONTINUOUS
10
6.2124
20
-3.53054
11
6.21656
21
-3.53324
0
LINE
8
BLACK
6
CONTINUOUS
10
6.21656
20
-3.53324
11
6.21944
21
-3.53659
0
LINE
8
BLACK
6
CONTINUOUS
10
6.21944
20
-3.53659
11
6.22734
21
-3.53659
0
LINE
8
BLACK
6
CONTINUOUS
10
6.22734
20
-3.53659
11
6.22734
21
-3.51622
0
LINE
8
BLACK
6
CONTINUOUS
10
6.22734
20
-3.51622
11
6.28234
21
-3.51622
0
LINE
8
BLACK
6
CONTINUOUS
10
6.28234
20
-3.51622
11
6.28234
21
-3.5473
0
LINE
8
BLACK
6
CONTINUOUS
10
6.28234
20
-3.5473
11
6.30952
21
-3.57448
0
LINE
8
BLACK
6
CONTINUOUS
10
6.30952
20
-3.57448
11
6.31165
21
-3.57767
0
LINE
8
BLACK
6
CONTINUOUS
10
6.31165
20
-3.57767
11
6.3124
21
-3.58144
0
LINE
8
BLACK
6
CONTINUOUS
10
6.3124
20
-3.58144
11
6.3124
21
-3.65826
0
LINE
8
BLACK
6
CONTINUOUS
10
6.3124
20
-3.65826
11
6.31574
21
-3.66159
0
LINE
8
BLACK
6
CONTINUOUS
10
6.31574
20
-3.66159
11
6.36945
21
-3.66159
0
LINE
8
BLACK
6
CONTINUOUS
10
6.36945
20
-3.66159
11
6.37322
21
-3.66234
0
LINE
8
BLACK
6
CONTINUOUS
10
6.37322
20
-3.66234
11
6.37641
21
-3.66448
0
LINE
8
BLACK
6
CONTINUOUS
10
6.35776
20
-3.70204
11
6.35822
21
-3.70244
0
LINE
8
BLACK
6
CONTINUOUS
10
6.35822
20
-3.70244
11
6.37156
21
-3.71577
0
LINE
8
BLACK
6
CONTINUOUS
10
6.37156
20
-3.71577
11
6.37265
21
-3.71792
0
LINE
8
BLACK
6
CONTINUOUS
10
6.37265
20
-3.71792
11
6.3727
21
-3.71853
0
LINE
8
BLACK
6
CONTINUOUS
10
6.3727
20
-3.71853
11
6.3727
21
-3.71872
0
LINE
8
BLACK
6
CONTINUOUS
10
6.3727
20
-3.71872
11
6.38484
21
-3.71872
0
LINE
8
BLACK
6
CONTINUOUS
10
6.38484
20
-3.71872
11
6.38484
21
-3.76405
0
LINE
8
BLACK
6
CONTINUOUS
10
6.38484
20
-3.76405
11
6.39084
21
-3.77005
0
LINE
8
BLACK
6
CONTINUOUS
10
6.39084
20
-3.77005
11
6.39193
21
-3.77219
0
LINE
8
BLACK
6
CONTINUOUS
10
6.39193
20
-3.77219
11
6.39198
21
-3.7728
0
LINE
8
BLACK
6
CONTINUOUS
10
6.39198
20
-3.7728
11
6.39198
21
-3.8648
0
LINE
8
BLACK
6
CONTINUOUS
10
6.39198
20
-3.8648
11
6.39124
21
-3.86709
0
LINE
8
BLACK
6
CONTINUOUS
10
6.39124
20
-3.86709
11
6.38929
21
-3.86851
0
LINE
8
BLACK
6
CONTINUOUS
10
6.38929
20
-3.86851
11
6.38808
21
-3.8687
0
LINE
8
BLACK
6
CONTINUOUS
10
6.38808
20
-3.8687
11
6.38745
21
-3.8687
0
LINE
8
BLACK
6
CONTINUOUS
10
6.38745
20
-3.8687
11
6.38666
21
-3.86879
0
LINE
8
BLACK
6
CONTINUOUS
10
6.38666
20
-3.86879
11
6.38524
21
-3.86894
0
LINE
8
BLACK
6
CONTINUOUS
10
6.38524
20
-3.86894
11
6.38524
21
-3.86894
0
LINE
8
BLACK
6
CONTINUOUS
10
6.38524
20
-3.86894
11
6.385
21
-3.86897
0
LINE
8
BLACK
6
CONTINUOUS
10
6.385
20
-3.86897
11
6.37963
21
-3.87098
0
LINE
8
BLACK
6
CONTINUOUS
10
6.37963
20
-3.87098
11
6.37504
21
-3.87442
0
LINE
8
BLACK
6
CONTINUOUS
10
6.37504
20
-3.87442
11
6.37487
21
-3.87464
0
LINE
8
BLACK
6
CONTINUOUS
10
6.37487
20
-3.87464
11
6.37468
21
-3.87484
0
LINE
8
BLACK
6
CONTINUOUS
10
6.37468
20
-3.87484
11
6.37461
21
-3.87477
0
LINE
8
BLACK
6
CONTINUOUS
10
6.37461
20
-3.87477
11
6.37299
21
-3.87591
0
LINE
8
BLACK
6
CONTINUOUS
10
6.37299
20
-3.87591
11
6.37058
21
-3.87588
0
LINE
8
BLACK
6
CONTINUOUS
10
6.37058
20
-3.87588
11
6.36907
21
-3.87478
0
LINE
8
BLACK
6
CONTINUOUS
10
6.36907
20
-3.87478
11
6.36901
21
-3.87484
0
LINE
8
BLACK
6
CONTINUOUS
10
6.36901
20
-3.87484
11
6.36881
21
-3.87464
0
LINE
8
BLACK
6
CONTINUOUS
10
6.36881
20
-3.87464
11
6.36864
21
-3.87442
0
LINE
8
BLACK
6
CONTINUOUS
10
6.36864
20
-3.87442
11
6.36406
21
-3.87098
0
LINE
8
BLACK
6
CONTINUOUS
10
6.36406
20
-3.87098
11
6.35869
21
-3.86897
0
LINE
8
BLACK
6
CONTINUOUS
10
6.35869
20
-3.86897
11
6.35844
21
-3.86894
0
LINE
8
BLACK
6
CONTINUOUS
10
6.35844
20
-3.86894
11
6.35844
21
-3.86894
0
LINE
8
BLACK
6
CONTINUOUS
10
6.35844
20
-3.86894
11
6.35703
21
-3.86879
0
LINE
8
BLACK
6
CONTINUOUS
10
6.35703
20
-3.86879
11
6.35624
21
-3.8687
0
LINE
8
BLACK
6
CONTINUOUS
10
6.35624
20
-3.8687
11
6.3556
21
-3.8687
0
LINE
8
BLACK
6
CONTINUOUS
10
6.3556
20
-3.8687
11
6.35331
21
-3.86796
0
LINE
8
BLACK
6
CONTINUOUS
10
6.35331
20
-3.86796
11
6.3519
21
-3.86601
0
LINE
8
BLACK
6
CONTINUOUS
10
6.3519
20
-3.86601
11
6.3517
21
-3.8648
0
LINE
8
BLACK
6
CONTINUOUS
10
6.3517
20
-3.8648
11
6.3517
21
-3.85228
0
LINE
8
BLACK
6
CONTINUOUS
10
6.3517
20
-3.85228
11
6.35175
21
-3.85169
0
LINE
8
BLACK
6
CONTINUOUS
10
6.35175
20
-3.85169
11
6.35186
21
-3.85099
0
LINE
8
BLACK
6
CONTINUOUS
10
6.35186
20
-3.85099
11
6.35186
21
-3.85099
0
LINE
8
BLACK
6
CONTINUOUS
10
6.35186
20
-3.85099
11
6.35189
21
-3.85077
0
LINE
8
BLACK
6
CONTINUOUS
10
6.35189
20
-3.85077
11
6.35172
21
-3.84865
0
LINE
8
BLACK
6
CONTINUOUS
10
6.35172
20
-3.84865
11
6.3517
21
-3.84834
0
LINE
8
BLACK
6
CONTINUOUS
10
6.3517
20
-3.84834
11
6.3517
21
-3.84798
0
LINE
8
BLACK
6
CONTINUOUS
10
6.3517
20
-3.84798
11
6.35157
21
-3.84685
0
LINE
8
BLACK
6
CONTINUOUS
10
6.35157
20
-3.84685
11
6.35156
21
-3.84672
0
LINE
8
BLACK
6
CONTINUOUS
10
6.35156
20
-3.84672
11
6.34884
21
-3.84672
0
LINE
8
BLACK
6
CONTINUOUS
10
6.34884
20
-3.84672
11
6.34884
21
-3.83655
0
LINE
8
BLACK
6
CONTINUOUS
10
6.34884
20
-3.83655
11
6.3488
21
-3.83647
0
LINE
8
BLACK
6
CONTINUOUS
10
6.3488
20
-3.83647
11
6.34873
21
-3.83626
0
LINE
8
BLACK
6
CONTINUOUS
10
6.34873
20
-3.83626
11
6.34714
21
-3.83384
0
LINE
8
BLACK
6
CONTINUOUS
10
6.34714
20
-3.83384
11
6.34707
21
-3.83373
0
LINE
8
BLACK
6
CONTINUOUS
10
6.34707
20
-3.83373
11
6.34566
21
-3.8314
0
LINE
8
BLACK
6
CONTINUOUS
10
6.34566
20
-3.8314
11
6.34566
21
-3.8314
0
LINE
8
BLACK
6
CONTINUOUS
10
6.34566
20
-3.8314
11
6.34557
21
-3.83125
0
LINE
8
BLACK
6
CONTINUOUS
10
6.34557
20
-3.83125
11
6.34528
21
-3.83092
0
LINE
8
BLACK
6
CONTINUOUS
10
6.34528
20
-3.83092
11
6.34528
21
-3.83092
0
LINE
8
BLACK
6
CONTINUOUS
10
6.34528
20
-3.83092
11
6.34518
21
-3.83079
0
LINE
8
BLACK
6
CONTINUOUS
10
6.34518
20
-3.83079
11
6.34518
21
-3.8308
0
LINE
8
BLACK
6
CONTINUOUS
10
6.34518
20
-3.8308
11
6.34503
21
-3.83062
0
LINE
8
BLACK
6
CONTINUOUS
10
6.34503
20
-3.83062
11
6.34491
21
-3.83043
0
LINE
8
BLACK
6
CONTINUOUS
10
6.34491
20
-3.83043
11
6.34268
21
-3.82833
0
LINE
8
BLACK
6
CONTINUOUS
10
6.34268
20
-3.82833
11
6.34261
21
-3.82826
0
LINE
8
BLACK
6
CONTINUOUS
10
6.34261
20
-3.82826
11
6.33
21
-3.81565
0
LINE
8
BLACK
6
CONTINUOUS
10
6.33
20
-3.81565
11
6.32891
21
-3.8135
0
LINE
8
BLACK
6
CONTINUOUS
10
6.32891
20
-3.8135
11
6.32886
21
-3.81289
0
LINE
8
BLACK
6
CONTINUOUS
10
6.32886
20
-3.81289
11
6.32886
21
-3.78983
0
LINE
8
BLACK
6
CONTINUOUS
10
6.32886
20
-3.78983
11
6.3286
21
-3.78738
0
LINE
8
BLACK
6
CONTINUOUS
10
6.3286
20
-3.78738
11
6.32786
21
-3.78542
0
LINE
8
BLACK
6
CONTINUOUS
10
6.32786
20
-3.78542
11
6.32776
21
-3.78302
0
LINE
8
BLACK
6
CONTINUOUS
10
6.32776
20
-3.78302
11
6.32786
21
-3.78269
0
LINE
8
BLACK
6
CONTINUOUS
10
6.32786
20
-3.78269
11
6.32951
21
-3.77829
0
LINE
8
BLACK
6
CONTINUOUS
10
6.32951
20
-3.77829
11
6.3296
21
-3.77806
0
LINE
8
BLACK
6
CONTINUOUS
10
6.3296
20
-3.77806
11
6.32986
21
-3.77562
0
LINE
8
BLACK
6
CONTINUOUS
10
6.32986
20
-3.77562
11
6.32986
21
-3.7533
0
LINE
8
BLACK
6
CONTINUOUS
10
6.32986
20
-3.7533
11
6.32989
21
-3.75281
0
LINE
8
BLACK
6
CONTINUOUS
10
6.32989
20
-3.75281
11
6.33007
21
-3.7514
0
LINE
8
BLACK
6
CONTINUOUS
10
6.33007
20
-3.7514
11
6.33053
21
-3.74777
0
LINE
8
BLACK
6
CONTINUOUS
10
6.33053
20
-3.74777
11
6.33054
21
-3.74672
0
LINE
8
BLACK
6
CONTINUOUS
10
6.33054
20
-3.74672
11
6.32988
21
-3.73996
0
LINE
8
BLACK
6
CONTINUOUS
10
6.32988
20
-3.73996
11
6.32986
21
-3.73958
0
LINE
8
BLACK
6
CONTINUOUS
10
6.32986
20
-3.73958
11
6.32986
21
-3.71683
0
LINE
8
BLACK
6
CONTINUOUS
10
6.32986
20
-3.71683
11
6.32978
21
-3.71604
0
LINE
8
BLACK
6
CONTINUOUS
10
6.32978
20
-3.71604
11
6.32962
21
-3.71462
0
LINE
8
BLACK
6
CONTINUOUS
10
6.32962
20
-3.71462
11
6.32962
21
-3.71462
0
LINE
8
BLACK
6
CONTINUOUS
10
6.32962
20
-3.71462
11
6.3296
21
-3.71438
0
LINE
8
BLACK
6
CONTINUOUS
10
6.3296
20
-3.71438
11
6.32758
21
-3.70901
0
LINE
8
BLACK
6
CONTINUOUS
10
6.32758
20
-3.70901
11
6.32742
21
-3.70879
0
LINE
8
BLACK
6
CONTINUOUS
10
6.32742
20
-3.70879
11
6.32742
21
-3.70879
0
LINE
8
BLACK
6
CONTINUOUS
10
6.32742
20
-3.70879
11
6.32648
21
-3.70753
0
LINE
8
BLACK
6
CONTINUOUS
10
6.32648
20
-3.70753
11
6.3257
21
-3.70525
0
LINE
8
BLACK
6
CONTINUOUS
10
6.3257
20
-3.70525
11
6.32641
21
-3.70295
0
LINE
8
BLACK
6
CONTINUOUS
10
6.32641
20
-3.70295
11
6.32834
21
-3.70151
0
LINE
8
BLACK
6
CONTINUOUS
10
6.32834
20
-3.70151
11
6.3296
21
-3.7013
0
LINE
8
BLACK
6
CONTINUOUS
10
6.3296
20
-3.7013
11
6.35547
21
-3.7013
0
LINE
8
BLACK
6
CONTINUOUS
10
6.35547
20
-3.7013
11
6.35776
21
-3.70204
0
LINE
8
BLACK
6
CONTINUOUS
10
6.12219
20
-3.69592
11
6.12008
21
-3.69592
0
LINE
8
BLACK
6
CONTINUOUS
10
6.12008
20
-3.69592
11
6.12008
21
-3.74122
0
LINE
8
BLACK
6
CONTINUOUS
10
6.12008
20
-3.74122
11
6.13234
21
-3.74122
0
LINE
8
BLACK
6
CONTINUOUS
10
6.13234
20
-3.74122
11
6.13234
21
-3.75085
0
LINE
8
BLACK
6
CONTINUOUS
10
6.13234
20
-3.75085
11
6.15234
21
-3.75085
0
LINE
8
BLACK
6
CONTINUOUS
10
6.15234
20
-3.75085
11
6.15234
21
-3.74122
0
LINE
8
BLACK
6
CONTINUOUS
10
6.15234
20
-3.74122
11
6.20734
21
-3.74122
0
LINE
8
BLACK
6
CONTINUOUS
10
6.20734
20
-3.74122
11
6.20734
21
-3.77622
0
LINE
8
BLACK
6
CONTINUOUS
10
6.20734
20
-3.77622
11
6.15234
21
-3.77622
0
LINE
8
BLACK
6
CONTINUOUS
10
6.15234
20
-3.77622
11
6.15234
21
-3.76659
0
LINE
8
BLACK
6
CONTINUOUS
10
6.15234
20
-3.76659
11
6.13234
21
-3.76659
0
LINE
8
BLACK
6
CONTINUOUS
10
6.13234
20
-3.76659
11
6.13234
21
-3.77622
0
LINE
8
BLACK
6
CONTINUOUS
10
6.13234
20
-3.77622
11
6.07734
21
-3.77622
0
LINE
8
BLACK
6
CONTINUOUS
10
6.07734
20
-3.77622
11
6.07734
21
-3.74122
0
LINE
8
BLACK
6
CONTINUOUS
10
6.07734
20
-3.74122
11
6.10433
21
-3.74122
0
LINE
8
BLACK
6
CONTINUOUS
10
6.10433
20
-3.74122
11
6.10433
21
-3.69592
0
LINE
8
BLACK
6
CONTINUOUS
10
6.10433
20
-3.69592
11
6.1025
21
-3.69592
0
LINE
8
BLACK
6
CONTINUOUS
10
6.1025
20
-3.69592
11
6.1025
21
-3.65652
0
LINE
8
BLACK
6
CONTINUOUS
10
6.1025
20
-3.65652
11
6.12219
21
-3.65652
0
LINE
8
BLACK
6
CONTINUOUS
10
6.12219
20
-3.65652
11
6.12219
21
-3.69592
0
LINE
8
BLACK
6
CONTINUOUS
10
6.04845
20
-3.68407
11
6.0532
21
-3.68549
0
LINE
8
BLACK
6
CONTINUOUS
10
6.0532
20
-3.68549
11
6.05737
21
-3.68819
0
LINE
8
BLACK
6
CONTINUOUS
10
6.05737
20
-3.68819
11
6.06061
21
-3.69195
0
LINE
8
BLACK
6
CONTINUOUS
10
6.06061
20
-3.69195
11
6.06266
21
-3.69646
0
LINE
8
BLACK
6
CONTINUOUS
10
6.06266
20
-3.69646
11
6.06336
21
-3.70138
0
LINE
8
BLACK
6
CONTINUOUS
10
6.06336
20
-3.70138
11
6.06336
21
-3.7018
0
LINE
8
BLACK
6
CONTINUOUS
10
6.06336
20
-3.7018
11
6.06253
21
-3.7067
0
LINE
8
BLACK
6
CONTINUOUS
10
6.06253
20
-3.7067
11
6.06037
21
-3.71116
0
LINE
8
BLACK
6
CONTINUOUS
10
6.06037
20
-3.71116
11
6.05704
21
-3.71484
0
LINE
8
BLACK
6
CONTINUOUS
10
6.05704
20
-3.71484
11
6.05281
21
-3.71744
0
LINE
8
BLACK
6
CONTINUOUS
10
6.05281
20
-3.71744
11
6.04803
21
-3.71874
0
LINE
8
BLACK
6
CONTINUOUS
10
6.04803
20
-3.71874
11
6.04307
21
-3.71865
0
LINE
8
BLACK
6
CONTINUOUS
10
6.04307
20
-3.71865
11
6.04264
21
-3.71852
0
LINE
8
BLACK
6
CONTINUOUS
10
6.04264
20
-3.71852
11
6.03766
21
-3.7235
0
LINE
8
BLACK
6
CONTINUOUS
10
6.03766
20
-3.7235
11
6.03447
21
-3.72563
0
LINE
8
BLACK
6
CONTINUOUS
10
6.03447
20
-3.72563
11
6.03185
21
-3.72615
0
LINE
8
BLACK
6
CONTINUOUS
10
6.03185
20
-3.72615
11
6.03185
21
-3.73138
0
LINE
8
BLACK
6
CONTINUOUS
10
6.03185
20
-3.73138
11
5.97685
21
-3.73138
0
LINE
8
BLACK
6
CONTINUOUS
10
5.97685
20
-3.73138
11
5.97685
21
-3.72638
0
LINE
8
BLACK
6
CONTINUOUS
10
5.97685
20
-3.72638
11
5.94433
21
-3.72638
0
LINE
8
BLACK
6
CONTINUOUS
10
5.94433
20
-3.72638
11
5.94433
21
-3.73355
0
LINE
8
BLACK
6
CONTINUOUS
10
5.94433
20
-3.73355
11
5.88933
21
-3.73355
0
LINE
8
BLACK
6
CONTINUOUS
10
5.88933
20
-3.73355
11
5.88933
21
-3.69855
0
LINE
8
BLACK
6
CONTINUOUS
10
5.88933
20
-3.69855
11
5.94433
21
-3.69855
0
LINE
8
BLACK
6
CONTINUOUS
10
5.94433
20
-3.69855
11
5.94433
21
-3.70669
0
LINE
8
BLACK
6
CONTINUOUS
10
5.94433
20
-3.70669
11
5.97685
21
-3.70669
0
LINE
8
BLACK
6
CONTINUOUS
10
5.97685
20
-3.70669
11
5.97685
21
-3.69638
0
LINE
8
BLACK
6
CONTINUOUS
10
5.97685
20
-3.69638
11
6.02911
21
-3.69638
0
LINE
8
BLACK
6
CONTINUOUS
10
6.02911
20
-3.69638
11
6.02913
21
-3.69626
0
LINE
8
BLACK
6
CONTINUOUS
10
6.02913
20
-3.69626
11
6.03124
21
-3.69177
0
LINE
8
BLACK
6
CONTINUOUS
10
6.03124
20
-3.69177
11
6.03452
21
-3.68805
0
LINE
8
BLACK
6
CONTINUOUS
10
6.03452
20
-3.68805
11
6.03872
21
-3.6854
0
LINE
8
BLACK
6
CONTINUOUS
10
6.03872
20
-3.6854
11
6.04349
21
-3.68404
0
LINE
8
BLACK
6
CONTINUOUS
10
6.04349
20
-3.68404
11
6.04845
21
-3.68407
0
LINE
8
BLACK
6
CONTINUOUS
10
6.56484
20
-3.54372
11
6.56272
21
-3.54372
0
LINE
8
BLACK
6
CONTINUOUS
10
6.56272
20
-3.54372
11
6.56272
21
-3.61622
0
LINE
8
BLACK
6
CONTINUOUS
10
6.56272
20
-3.61622
11
6.57234
21
-3.61622
0
LINE
8
BLACK
6
CONTINUOUS
10
6.57234
20
-3.61622
11
6.57234
21
-3.62585
0
LINE
8
BLACK
6
CONTINUOUS
10
6.57234
20
-3.62585
11
6.57486
21
-3.62585
0
LINE
8
BLACK
6
CONTINUOUS
10
6.57486
20
-3.62585
11
6.57614
21
-3.62614
0
LINE
8
BLACK
6
CONTINUOUS
10
6.57614
20
-3.62614
11
6.57744
21
-3.62629
0
LINE
8
BLACK
6
CONTINUOUS
10
6.57744
20
-3.62629
11
6.57783
21
-3.62653
0
LINE
8
BLACK
6
CONTINUOUS
10
6.57783
20
-3.62653
11
6.57827
21
-3.62663
0
LINE
8
BLACK
6
CONTINUOUS
10
6.57827
20
-3.62663
11
6.5793
21
-3.62745
0
LINE
8
BLACK
6
CONTINUOUS
10
6.5793
20
-3.62745
11
6.58041
21
-3.62815
0
LINE
8
BLACK
6
CONTINUOUS
10
6.58041
20
-3.62815
11
6.63848
21
-3.68622
0
LINE
8
BLACK
6
CONTINUOUS
10
6.63848
20
-3.68622
11
6.67234
21
-3.68622
0
LINE
8
BLACK
6
CONTINUOUS
10
6.67234
20
-3.68622
11
6.67234
21
-3.69585
0
LINE
8
BLACK
6
CONTINUOUS
10
6.67234
20
-3.69585
11
6.71234
21
-3.69585
0
LINE
8
BLACK
6
CONTINUOUS
10
6.71234
20
-3.69585
11
6.71234
21
-3.68622
0
LINE
8
BLACK
6
CONTINUOUS
10
6.71234
20
-3.68622
11
6.76734
21
-3.68622
0
LINE
8
BLACK
6
CONTINUOUS
10
6.76734
20
-3.68622
11
6.76734
21
-3.72122
0
LINE
8
BLACK
6
CONTINUOUS
10
6.76734
20
-3.72122
11
6.71234
21
-3.72122
0
LINE
8
BLACK
6
CONTINUOUS
10
6.71234
20
-3.72122
11
6.71234
21
-3.71159
0
LINE
8
BLACK
6
CONTINUOUS
10
6.71234
20
-3.71159
11
6.67234
21
-3.71159
0
LINE
8
BLACK
6
CONTINUOUS
10
6.67234
20
-3.71159
11
6.67234
21
-3.72122
0
LINE
8
BLACK
6
CONTINUOUS
10
6.67234
20
-3.72122
11
6.61734
21
-3.72122
0
LINE
8
BLACK
6
CONTINUOUS
10
6.61734
20
-3.72122
11
6.61734
21
-3.68736
0
LINE
8
BLACK
6
CONTINUOUS
10
6.61734
20
-3.68736
11
6.57234
21
-3.64236
0
LINE
8
BLACK
6
CONTINUOUS
10
6.57234
20
-3.64236
11
6.57234
21
-3.65122
0
LINE
8
BLACK
6
CONTINUOUS
10
6.57234
20
-3.65122
11
6.51734
21
-3.65122
0
LINE
8
BLACK
6
CONTINUOUS
10
6.51734
20
-3.65122
11
6.51734
21
-3.61622
0
LINE
8
BLACK
6
CONTINUOUS
10
6.51734
20
-3.61622
11
6.54697
21
-3.61622
0
LINE
8
BLACK
6
CONTINUOUS
10
6.54697
20
-3.61622
11
6.54697
21
-3.54372
0
LINE
8
BLACK
6
CONTINUOUS
10
6.54697
20
-3.54372
11
6.54484
21
-3.54372
0
LINE
8
BLACK
6
CONTINUOUS
10
6.54484
20
-3.54372
11
6.54484
21
-3.49872
0
LINE
8
BLACK
6
CONTINUOUS
10
6.54484
20
-3.49872
11
6.56484
21
-3.49872
0
LINE
8
BLACK
6
CONTINUOUS
10
6.56484
20
-3.49872
11
6.56484
21
-3.54372
0
LINE
8
BLACK
6
CONTINUOUS
10
6.28484
20
-3.65372
11
6.26376
21
-3.65372
0
LINE
8
BLACK
6
CONTINUOUS
10
6.26376
20
-3.65372
11
6.2348
21
-3.68268
0
LINE
8
BLACK
6
CONTINUOUS
10
6.2348
20
-3.68268
11
6.2348
21
-3.68268
0
LINE
8
BLACK
6
CONTINUOUS
10
6.2348
20
-3.68268
11
6.23161
21
-3.68481
0
LINE
8
BLACK
6
CONTINUOUS
10
6.23161
20
-3.68481
11
6.22948
21
-3.68524
0
LINE
8
BLACK
6
CONTINUOUS
10
6.22948
20
-3.68524
11
6.22935
21
-3.68551
0
LINE
8
BLACK
6
CONTINUOUS
10
6.22935
20
-3.68551
11
6.22602
21
-3.68918
0
LINE
8
BLACK
6
CONTINUOUS
10
6.22602
20
-3.68918
11
6.22179
21
-3.69178
0
LINE
8
BLACK
6
CONTINUOUS
10
6.22179
20
-3.69178
11
6.21701
21
-3.69309
0
LINE
8
BLACK
6
CONTINUOUS
10
6.21701
20
-3.69309
11
6.21204
21
-3.693
0
LINE
8
BLACK
6
CONTINUOUS
10
6.21204
20
-3.693
11
6.20731
21
-3.69152
0
LINE
8
BLACK
6
CONTINUOUS
10
6.20731
20
-3.69152
11
6.20318
21
-3.68877
0
LINE
8
BLACK
6
CONTINUOUS
10
6.20318
20
-3.68877
11
6.20049
21
-3.68556
0
LINE
8
BLACK
6
CONTINUOUS
10
6.20049
20
-3.68556
11
6.19719
21
-3.68556
0
LINE
8
BLACK
6
CONTINUOUS
10
6.19719
20
-3.68556
11
6.19719
21
-3.69592
0
LINE
8
BLACK
6
CONTINUOUS
10
6.19719
20
-3.69592
11
6.1775
21
-3.69592
0
LINE
8
BLACK
6
CONTINUOUS
10
6.1775
20
-3.69592
11
6.1775
21
-3.65652
0
LINE
8
BLACK
6
CONTINUOUS
10
6.1775
20
-3.65652
11
6.19719
21
-3.65652
0
LINE
8
BLACK
6
CONTINUOUS
10
6.19719
20
-3.65652
11
6.19719
21
-3.66588
0
LINE
8
BLACK
6
CONTINUOUS
10
6.19719
20
-3.66588
11
6.20042
21
-3.66588
0
LINE
8
BLACK
6
CONTINUOUS
10
6.20042
20
-3.66588
11
6.2035
21
-3.66239
0
LINE
8
BLACK
6
CONTINUOUS
10
6.2035
20
-3.66239
11
6.2077
21
-3.65975
0
LINE
8
BLACK
6
CONTINUOUS
10
6.2077
20
-3.65975
11
6.21247
21
-3.65838
0
LINE
8
BLACK
6
CONTINUOUS
10
6.21247
20
-3.65838
11
6.21743
21
-3.65841
0
LINE
8
BLACK
6
CONTINUOUS
10
6.21743
20
-3.65841
11
6.22218
21
-3.65983
0
LINE
8
BLACK
6
CONTINUOUS
10
6.22218
20
-3.65983
11
6.22635
21
-3.66253
0
LINE
8
BLACK
6
CONTINUOUS
10
6.22635
20
-3.66253
11
6.2267
21
-3.66294
0
LINE
8
BLACK
6
CONTINUOUS
10
6.2267
20
-3.66294
11
6.24984
21
-3.6398
0
LINE
8
BLACK
6
CONTINUOUS
10
6.24984
20
-3.6398
11
6.24984
21
-3.59872
0
LINE
8
BLACK
6
CONTINUOUS
10
6.24984
20
-3.59872
11
6.28484
21
-3.59872
0
LINE
8
BLACK
6
CONTINUOUS
10
6.28484
20
-3.59872
11
6.28484
21
-3.65372
0
LINE
8
BLACK
6
CONTINUOUS
10
6.08691
20
-3.39415
11
6.08882
21
-3.39543
0
LINE
8
BLACK
6
CONTINUOUS
10
6.08882
20
-3.39543
11
6.0901
21
-3.39735
0
LINE
8
BLACK
6
CONTINUOUS
10
6.0901
20
-3.39735
11
6.09055
21
-3.39961
0
LINE
8
BLACK
6
CONTINUOUS
10
6.09055
20
-3.39961
11
6.09055
21
-3.42125
0
LINE
8
BLACK
6
CONTINUOUS
10
6.09055
20
-3.42125
11
6.09144
21
-3.42257
0
LINE
8
BLACK
6
CONTINUOUS
10
6.09144
20
-3.42257
11
6.09219
21
-3.42634
0
LINE
8
BLACK
6
CONTINUOUS
10
6.09219
20
-3.42634
11
6.09219
21
-3.54214
0
LINE
8
BLACK
6
CONTINUOUS
10
6.09219
20
-3.54214
11
6.10656
21
-3.55652
0
LINE
8
BLACK
6
CONTINUOUS
10
6.10656
20
-3.55652
11
6.12221
21
-3.55652
0
LINE
8
BLACK
6
CONTINUOUS
10
6.12221
20
-3.55652
11
6.12221
21
-3.59592
0
LINE
8
BLACK
6
CONTINUOUS
10
6.12221
20
-3.59592
11
6.10248
21
-3.59592
0
LINE
8
BLACK
6
CONTINUOUS
10
6.10248
20
-3.59592
11
6.10248
21
-3.58028
0
LINE
8
BLACK
6
CONTINUOUS
10
6.10248
20
-3.58028
11
6.07827
21
-3.55606
0
LINE
8
BLACK
6
CONTINUOUS
10
6.07827
20
-3.55606
11
6.03484
21
-3.55606
0
LINE
8
BLACK
6
CONTINUOUS
10
6.03484
20
-3.55606
11
6.03484
21
-3.57622
0
LINE
8
BLACK
6
CONTINUOUS
10
6.03484
20
-3.57622
11
6.01469
21
-3.57622
0
LINE
8
BLACK
6
CONTINUOUS
10
6.01469
20
-3.57622
11
6.01469
21
-3.62138
0
LINE
8
BLACK
6
CONTINUOUS
10
6.01469
20
-3.62138
11
6.03185
21
-3.62138
0
LINE
8
BLACK
6
CONTINUOUS
10
6.03185
20
-3.62138
11
6.03185
21
-3.65638
0
LINE
8
BLACK
6
CONTINUOUS
10
6.03185
20
-3.65638
11
5.97685
21
-3.65638
0
LINE
8
BLACK
6
CONTINUOUS
10
5.97685
20
-3.65638
11
5.97685
21
-3.65089
0
LINE
8
BLACK
6
CONTINUOUS
10
5.97685
20
-3.65089
11
5.94433
21
-3.65089
0
LINE
8
BLACK
6
CONTINUOUS
10
5.94433
20
-3.65089
11
5.94433
21
-3.65855
0
LINE
8
BLACK
6
CONTINUOUS
10
5.94433
20
-3.65855
11
5.88933
21
-3.65855
0
LINE
8
BLACK
6
CONTINUOUS
10
5.88933
20
-3.65855
11
5.88933
21
-3.62355
0
LINE
8
BLACK
6
CONTINUOUS
10
5.88933
20
-3.62355
11
5.94433
21
-3.62355
0
LINE
8
BLACK
6
CONTINUOUS
10
5.94433
20
-3.62355
11
5.94433
21
-3.6312
0
LINE
8
BLACK
6
CONTINUOUS
10
5.94433
20
-3.6312
11
5.97685
21
-3.6312
0
LINE
8
BLACK
6
CONTINUOUS
10
5.97685
20
-3.6312
11
5.97685
21
-3.62138
0
LINE
8
BLACK
6
CONTINUOUS
10
5.97685
20
-3.62138
11
5.99408
21
-3.62138
0
LINE
8
BLACK
6
CONTINUOUS
10
5.99408
20
-3.62138
11
5.995
21
-3.62
0
LINE
8
BLACK
6
CONTINUOUS
10
5.995
20
-3.62
11
5.995
21
-3.57622
0
LINE
8
BLACK
6
CONTINUOUS
10
5.995
20
-3.57622
11
5.97484
21
-3.57622
0
LINE
8
BLACK
6
CONTINUOUS
10
5.97484
20
-3.57622
11
5.97484
21
-3.51622
0
LINE
8
BLACK
6
CONTINUOUS
10
5.97484
20
-3.51622
11
6.03484
21
-3.51622
0
LINE
8
BLACK
6
CONTINUOUS
10
6.03484
20
-3.51622
11
6.03484
21
-3.53638
0
LINE
8
BLACK
6
CONTINUOUS
10
6.03484
20
-3.53638
11
6.0725
21
-3.53638
0
LINE
8
BLACK
6
CONTINUOUS
10
6.0725
20
-3.53638
11
6.0725
21
-3.45171
0
LINE
8
BLACK
6
CONTINUOUS
10
6.0725
20
-3.45171
11
6.07057
21
-3.45132
0
LINE
8
BLACK
6
CONTINUOUS
10
6.07057
20
-3.45132
11
6.06866
21
-3.45004
0
LINE
8
BLACK
6
CONTINUOUS
10
6.06866
20
-3.45004
11
6.06738
21
-3.44813
0
LINE
8
BLACK
6
CONTINUOUS
10
6.06738
20
-3.44813
11
6.06693
21
-3.44587
0
LINE
8
BLACK
6
CONTINUOUS
10
6.06693
20
-3.44587
11
6.06693
21
-3.39961
0
LINE
8
BLACK
6
CONTINUOUS
10
6.06693
20
-3.39961
11
6.06738
21
-3.39735
0
LINE
8
BLACK
6
CONTINUOUS
10
6.06738
20
-3.39735
11
6.06866
21
-3.39543
0
LINE
8
BLACK
6
CONTINUOUS
10
6.06866
20
-3.39543
11
6.07057
21
-3.39415
0
LINE
8
BLACK
6
CONTINUOUS
10
6.07057
20
-3.39415
11
6.07283
21
-3.3937
0
LINE
8
BLACK
6
CONTINUOUS
10
6.07283
20
-3.3937
11
6.08465
21
-3.3937
0
LINE
8
BLACK
6
CONTINUOUS
10
6.08465
20
-3.3937
11
6.08691
21
-3.39415
0
LINE
8
BLACK
6
CONTINUOUS
10
6.51484
20
-3.54372
11
6.51272
21
-3.54372
0
LINE
8
BLACK
6
CONTINUOUS
10
6.51272
20
-3.54372
11
6.51272
21
-3.57873
0
LINE
8
BLACK
6
CONTINUOUS
10
6.51272
20
-3.57873
11
6.51242
21
-3.58002
0
LINE
8
BLACK
6
CONTINUOUS
10
6.51242
20
-3.58002
11
6.51227
21
-3.58132
0
LINE
8
BLACK
6
CONTINUOUS
10
6.51227
20
-3.58132
11
6.51203
21
-3.58171
0
LINE
8
BLACK
6
CONTINUOUS
10
6.51203
20
-3.58171
11
6.51193
21
-3.58215
0
LINE
8
BLACK
6
CONTINUOUS
10
6.51193
20
-3.58215
11
6.51111
21
-3.58317
0
LINE
8
BLACK
6
CONTINUOUS
10
6.51111
20
-3.58317
11
6.51041
21
-3.58429
0
LINE
8
BLACK
6
CONTINUOUS
10
6.51041
20
-3.58429
11
6.47734
21
-3.61736
0
LINE
8
BLACK
6
CONTINUOUS
10
6.47734
20
-3.61736
11
6.47734
21
-3.65122
0
LINE
8
BLACK
6
CONTINUOUS
10
6.47734
20
-3.65122
11
6.42234
21
-3.65122
0
LINE
8
BLACK
6
CONTINUOUS
10
6.42234
20
-3.65122
11
6.42234
21
-3.63606
0
LINE
8
BLACK
6
CONTINUOUS
10
6.42234
20
-3.63606
11
6.35984
21
-3.63606
0
LINE
8
BLACK
6
CONTINUOUS
10
6.35984
20
-3.63606
11
6.35984
21
-3.65372
0
LINE
8
BLACK
6
CONTINUOUS
10
6.35984
20
-3.65372
11
6.32484
21
-3.65372
0
LINE
8
BLACK
6
CONTINUOUS
10
6.32484
20
-3.65372
11
6.32484
21
-3.59872
0
LINE
8
BLACK
6
CONTINUOUS
10
6.32484
20
-3.59872
11
6.35984
21
-3.59872
0
LINE
8
BLACK
6
CONTINUOUS
10
6.35984
20
-3.59872
11
6.35984
21
-3.61638
0
LINE
8
BLACK
6
CONTINUOUS
10
6.35984
20
-3.61638
11
6.42234
21
-3.61638
0
LINE
8
BLACK
6
CONTINUOUS
10
6.42234
20
-3.61638
11
6.42234
21
-3.61622
0
LINE
8
BLACK
6
CONTINUOUS
10
6.42234
20
-3.61622
11
6.45621
21
-3.61622
0
LINE
8
BLACK
6
CONTINUOUS
10
6.45621
20
-3.61622
11
6.49697
21
-3.57546
0
LINE
8
BLACK
6
CONTINUOUS
10
6.49697
20
-3.57546
11
6.49697
21
-3.54372
0
LINE
8
BLACK
6
CONTINUOUS
10
6.49697
20
-3.54372
11
6.49484
21
-3.54372
0
LINE
8
BLACK
6
CONTINUOUS
10
6.49484
20
-3.54372
11
6.49484
21
-3.49872
0
LINE
8
BLACK
6
CONTINUOUS
10
6.49484
20
-3.49872
11
6.51484
21
-3.49872
0
LINE
8
BLACK
6
CONTINUOUS
10
6.51484
20
-3.49872
11
6.51484
21
-3.54372
0
LINE
8
BLACK
6
CONTINUOUS
10
6.61484
20
-3.54372
11
6.61272
21
-3.54372
0
LINE
8
BLACK
6
CONTINUOUS
10
6.61272
20
-3.54372
11
6.61272
21
-3.58546
0
LINE
8
BLACK
6
CONTINUOUS
10
6.61272
20
-3.58546
11
6.63848
21
-3.61122
0
LINE
8
BLACK
6
CONTINUOUS
10
6.63848
20
-3.61122
11
6.67234
21
-3.61122
0
LINE
8
BLACK
6
CONTINUOUS
10
6.67234
20
-3.61122
11
6.67234
21
-3.62085
0
LINE
8
BLACK
6
CONTINUOUS
10
6.67234
20
-3.62085
11
6.71234
21
-3.62085
0
LINE
8
BLACK
6
CONTINUOUS
10
6.71234
20
-3.62085
11
6.71234
21
-3.61122
0
LINE
8
BLACK
6
CONTINUOUS
10
6.71234
20
-3.61122
11
6.76734
21
-3.61122
0
LINE
8
BLACK
6
CONTINUOUS
10
6.76734
20
-3.61122
11
6.76734
21
-3.62085
0
LINE
8
BLACK
6
CONTINUOUS
10
6.76734
20
-3.62085
11
6.79234
21
-3.62085
0
LINE
8
BLACK
6
CONTINUOUS
10
6.79234
20
-3.62085
11
6.79234
21
-3.60122
0
LINE
8
BLACK
6
CONTINUOUS
10
6.79234
20
-3.60122
11
6.84734
21
-3.60122
0
LINE
8
BLACK
6
CONTINUOUS
10
6.84734
20
-3.60122
11
6.84734
21
-3.63622
0
LINE
8
BLACK
6
CONTINUOUS
10
6.84734
20
-3.63622
11
6.81186
21
-3.63622
0
LINE
8
BLACK
6
CONTINUOUS
10
6.81186
20
-3.63622
11
6.81112
21
-3.6363
0
LINE
8
BLACK
6
CONTINUOUS
10
6.81112
20
-3.6363
11
6.80984
21
-3.63659
0
LINE
8
BLACK
6
CONTINUOUS
10
6.80984
20
-3.63659
11
6.76734
21
-3.63659
0
LINE
8
BLACK
6
CONTINUOUS
10
6.76734
20
-3.63659
11
6.76734
21
-3.64622
0
LINE
8
BLACK
6
CONTINUOUS
10
6.76734
20
-3.64622
11
6.71234
21
-3.64622
0
LINE
8
BLACK
6
CONTINUOUS
10
6.71234
20
-3.64622
11
6.71234
21
-3.63659
0
LINE
8
BLACK
6
CONTINUOUS
10
6.71234
20
-3.63659
11
6.67234
21
-3.63659
0
LINE
8
BLACK
6
CONTINUOUS
10
6.67234
20
-3.63659
11
6.67234
21
-3.64622
0
LINE
8
BLACK
6
CONTINUOUS
10
6.67234
20
-3.64622
11
6.61734
21
-3.64622
0
LINE
8
BLACK
6
CONTINUOUS
10
6.61734
20
-3.64622
11
6.61734
21
-3.61236
0
LINE
8
BLACK
6
CONTINUOUS
10
6.61734
20
-3.61236
11
6.59927
21
-3.59428
0
LINE
8
BLACK
6
CONTINUOUS
10
6.59927
20
-3.59428
11
6.59857
21
-3.59316
0
LINE
8
BLACK
6
CONTINUOUS
10
6.59857
20
-3.59316
11
6.59775
21
-3.59214
0
LINE
8
BLACK
6
CONTINUOUS
10
6.59775
20
-3.59214
11
6.59765
21
-3.59169
0
LINE
8
BLACK
6
CONTINUOUS
10
6.59765
20
-3.59169
11
6.59741
21
-3.59131
0
LINE
8
BLACK
6
CONTINUOUS
10
6.59741
20
-3.59131
11
6.59726
21
-3.59
0
LINE
8
BLACK
6
CONTINUOUS
10
6.59726
20
-3.59
11
6.59697
21
-3.58872
0
LINE
8
BLACK
6
CONTINUOUS
10
6.59697
20
-3.58872
11
6.59697
21
-3.54372
0
LINE
8
BLACK
6
CONTINUOUS
10
6.59697
20
-3.54372
11
6.59484
21
-3.54372
0
LINE
8
BLACK
6
CONTINUOUS
10
6.59484
20
-3.54372
11
6.59484
21
-3.49872
0
LINE
8
BLACK
6
CONTINUOUS
10
6.59484
20
-3.49872
11
6.61484
21
-3.49872
0
LINE
8
BLACK
6
CONTINUOUS
10
6.61484
20
-3.49872
11
6.61484
21
-3.54372
0
LINE
8
BLACK
6
CONTINUOUS
10
6.25242
20
-3.34832
11
6.25227
21
-3.34963
0
LINE
8
BLACK
6
CONTINUOUS
10
6.25227
20
-3.34963
11
6.25203
21
-3.35001
0
LINE
8
BLACK
6
CONTINUOUS
10
6.25203
20
-3.35001
11
6.25193
21
-3.35045
0
LINE
8
BLACK
6
CONTINUOUS
10
6.25193
20
-3.35045
11
6.25111
21
-3.35148
0
LINE
8
BLACK
6
CONTINUOUS
10
6.25111
20
-3.35148
11
6.25041
21
-3.3526
0
LINE
8
BLACK
6
CONTINUOUS
10
6.25041
20
-3.3526
11
6.15772
21
-3.44529
0
LINE
8
BLACK
6
CONTINUOUS
10
6.15772
20
-3.44529
11
6.15772
21
-3.55652
0
LINE
8
BLACK
6
CONTINUOUS
10
6.15772
20
-3.55652
11
6.15969
21
-3.55652
0
LINE
8
BLACK
6
CONTINUOUS
10
6.15969
20
-3.55652
11
6.15969
21
-3.59592
0
LINE
8
BLACK
6
CONTINUOUS
10
6.15969
20
-3.59592
11
6.14
21
-3.59592
0
LINE
8
BLACK
6
CONTINUOUS
10
6.14
20
-3.59592
11
6.14
21
-3.55652
0
LINE
8
BLACK
6
CONTINUOUS
10
6.14
20
-3.55652
11
6.14197
21
-3.55652
0
LINE
8
BLACK
6
CONTINUOUS
10
6.14197
20
-3.55652
11
6.14197
21
-3.44201
0
LINE
8
BLACK
6
CONTINUOUS
10
6.14197
20
-3.44201
11
6.14226
21
-3.44073
0
LINE
8
BLACK
6
CONTINUOUS
10
6.14226
20
-3.44073
11
6.14241
21
-3.43943
0
LINE
8
BLACK
6
CONTINUOUS
10
6.14241
20
-3.43943
11
6.14265
21
-3.43904
0
LINE
8
BLACK
6
CONTINUOUS
10
6.14265
20
-3.43904
11
6.14275
21
-3.4386
0
LINE
8
BLACK
6
CONTINUOUS
10
6.14275
20
-3.4386
11
6.14358
21
-3.43757
0
LINE
8
BLACK
6
CONTINUOUS
10
6.14358
20
-3.43757
11
6.14427
21
-3.43646
0
LINE
8
BLACK
6
CONTINUOUS
10
6.14427
20
-3.43646
11
6.23697
21
-3.34377
0
LINE
8
BLACK
6
CONTINUOUS
10
6.23697
20
-3.34377
11
6.23697
21
-3.30372
0
LINE
8
BLACK
6
CONTINUOUS
10
6.23697
20
-3.30372
11
6.21234
21
-3.30372
0
LINE
8
BLACK
6
CONTINUOUS
10
6.21234
20
-3.30372
11
6.21234
21
-3.23872
0
LINE
8
BLACK
6
CONTINUOUS
10
6.21234
20
-3.23872
11
6.27734
21
-3.23872
0
LINE
8
BLACK
6
CONTINUOUS
10
6.27734
20
-3.23872
11
6.27734
21
-3.30372
0
LINE
8
BLACK
6
CONTINUOUS
10
6.27734
20
-3.30372
11
6.25272
21
-3.30372
0
LINE
8
BLACK
6
CONTINUOUS
10
6.25272
20
-3.30372
11
6.25272
21
-3.34704
0
LINE
8
BLACK
6
CONTINUOUS
10
6.25272
20
-3.34704
11
6.25242
21
-3.34832
0
LINE
8
BLACK
6
CONTINUOUS
10
5.70134
20
-3.41972
11
5.68172
21
-3.41972
0
LINE
8
BLACK
6
CONTINUOUS
10
5.68172
20
-3.41972
11
5.68172
21
-3.44372
0
LINE
8
BLACK
6
CONTINUOUS
10
5.68172
20
-3.44372
11
5.68934
21
-3.44372
0
LINE
8
BLACK
6
CONTINUOUS
10
5.68934
20
-3.44372
11
5.68934
21
-3.49872
0
LINE
8
BLACK
6
CONTINUOUS
10
5.68934
20
-3.49872
11
5.65548
21
-3.49872
0
LINE
8
BLACK
6
CONTINUOUS
10
5.65548
20
-3.49872
11
5.6327
21
-3.5215
0
LINE
8
BLACK
6
CONTINUOUS
10
5.6327
20
-3.5215
11
5.6327
21
-3.53102
0
LINE
8
BLACK
6
CONTINUOUS
10
5.6327
20
-3.53102
11
5.64232
21
-3.53102
0
LINE
8
BLACK
6
CONTINUOUS
10
5.64232
20
-3.53102
11
5.64232
21
-3.58602
0
LINE
8
BLACK
6
CONTINUOUS
10
5.64232
20
-3.58602
11
5.60732
21
-3.58602
0
LINE
8
BLACK
6
CONTINUOUS
10
5.60732
20
-3.58602
11
5.60732
21
-3.53102
0
LINE
8
BLACK
6
CONTINUOUS
10
5.60732
20
-3.53102
11
5.61695
21
-3.53102
0
LINE
8
BLACK
6
CONTINUOUS
10
5.61695
20
-3.53102
11
5.61695
21
-3.51823
0
LINE
8
BLACK
6
CONTINUOUS
10
5.61695
20
-3.51823
11
5.61724
21
-3.51694
0
LINE
8
BLACK
6
CONTINUOUS
10
5.61724
20
-3.51694
11
5.61739
21
-3.51564
0
LINE
8
BLACK
6
CONTINUOUS
10
5.61739
20
-3.51564
11
5.61763
21
-3.51525
0
LINE
8
BLACK
6
CONTINUOUS
10
5.61763
20
-3.51525
11
5.61773
21
-3.51481
0
LINE
8
BLACK
6
CONTINUOUS
10
5.61773
20
-3.51481
11
5.61856
21
-3.51379
0
LINE
8
BLACK
6
CONTINUOUS
10
5.61856
20
-3.51379
11
5.61926
21
-3.51267
0
LINE
8
BLACK
6
CONTINUOUS
10
5.61926
20
-3.51267
11
5.65434
21
-3.47758
0
LINE
8
BLACK
6
CONTINUOUS
10
5.65434
20
-3.47758
11
5.65434
21
-3.44372
0
LINE
8
BLACK
6
CONTINUOUS
10
5.65434
20
-3.44372
11
5.66597
21
-3.44372
0
LINE
8
BLACK
6
CONTINUOUS
10
5.66597
20
-3.44372
11
5.66597
21
-3.41972
0
LINE
8
BLACK
6
CONTINUOUS
10
5.66597
20
-3.41972
11
5.64634
21
-3.41972
0
LINE
8
BLACK
6
CONTINUOUS
10
5.64634
20
-3.41972
11
5.64634
21
-3.38472
0
LINE
8
BLACK
6
CONTINUOUS
10
5.64634
20
-3.38472
11
5.70134
21
-3.38472
0
LINE
8
BLACK
6
CONTINUOUS
10
5.70134
20
-3.38472
11
5.70134
21
-3.41972
0
LINE
8
BLACK
6
CONTINUOUS
10
5.83484
20
-3.51622
11
5.83484
21
-3.57622
0
LINE
8
BLACK
6
CONTINUOUS
10
5.83484
20
-3.57622
11
5.77484
21
-3.57622
0
LINE
8
BLACK
6
CONTINUOUS
10
5.77484
20
-3.57622
11
5.77484
21
-3.55409
0
LINE
8
BLACK
6
CONTINUOUS
10
5.77484
20
-3.55409
11
5.71732
21
-3.55409
0
LINE
8
BLACK
6
CONTINUOUS
10
5.71732
20
-3.55409
11
5.71732
21
-3.58602
0
LINE
8
BLACK
6
CONTINUOUS
10
5.71732
20
-3.58602
11
5.68232
21
-3.58602
0
LINE
8
BLACK
6
CONTINUOUS
10
5.68232
20
-3.58602
11
5.68232
21
-3.53102
0
LINE
8
BLACK
6
CONTINUOUS
10
5.68232
20
-3.53102
11
5.71732
21
-3.53102
0
LINE
8
BLACK
6
CONTINUOUS
10
5.71732
20
-3.53102
11
5.71732
21
-3.53835
0
LINE
8
BLACK
6
CONTINUOUS
10
5.71732
20
-3.53835
11
5.77484
21
-3.53835
0
LINE
8
BLACK
6
CONTINUOUS
10
5.77484
20
-3.53835
11
5.77484
21
-3.51622
0
LINE
8
BLACK
6
CONTINUOUS
10
5.77484
20
-3.51622
11
5.795
21
-3.51622
0
LINE
8
BLACK
6
CONTINUOUS
10
5.795
20
-3.51622
11
5.795
21
-3.44622
0
LINE
8
BLACK
6
CONTINUOUS
10
5.795
20
-3.44622
11
5.78234
21
-3.44622
0
LINE
8
BLACK
6
CONTINUOUS
10
5.78234
20
-3.44622
11
5.78234
21
-3.41122
0
LINE
8
BLACK
6
CONTINUOUS
10
5.78234
20
-3.41122
11
5.83734
21
-3.41122
0
LINE
8
BLACK
6
CONTINUOUS
10
5.83734
20
-3.41122
11
5.83734
21
-3.44622
0
LINE
8
BLACK
6
CONTINUOUS
10
5.83734
20
-3.44622
11
5.81469
21
-3.44622
0
LINE
8
BLACK
6
CONTINUOUS
10
5.81469
20
-3.44622
11
5.81469
21
-3.51622
0
LINE
8
BLACK
6
CONTINUOUS
10
5.81469
20
-3.51622
11
5.83484
21
-3.51622
0
LINE
8
BLACK
6
CONTINUOUS
10
5.93484
20
-3.57622
11
5.87484
21
-3.57622
0
LINE
8
BLACK
6
CONTINUOUS
10
5.87484
20
-3.57622
11
5.87484
21
-3.51622
0
LINE
8
BLACK
6
CONTINUOUS
10
5.87484
20
-3.51622
11
5.93484
21
-3.51622
0
LINE
8
BLACK
6
CONTINUOUS
10
5.93484
20
-3.51622
11
5.93484
21
-3.57622
0
LINE
8
BLACK
6
CONTINUOUS
10
6.79934
20
-3.48108
11
6.82542
21
-3.50716
0
LINE
8
BLACK
6
CONTINUOUS
10
6.82542
20
-3.50716
11
6.82612
21
-3.50828
0
LINE
8
BLACK
6
CONTINUOUS
10
6.82612
20
-3.50828
11
6.82694
21
-3.50931
0
LINE
8
BLACK
6
CONTINUOUS
10
6.82694
20
-3.50931
11
6.82704
21
-3.50975
0
LINE
8
BLACK
6
CONTINUOUS
10
6.82704
20
-3.50975
11
6.82728
21
-3.51013
0
LINE
8
BLACK
6
CONTINUOUS
10
6.82728
20
-3.51013
11
6.82742
21
-3.51144
0
LINE
8
BLACK
6
CONTINUOUS
10
6.82742
20
-3.51144
11
6.82772
21
-3.51272
0
LINE
8
BLACK
6
CONTINUOUS
10
6.82772
20
-3.51272
11
6.82772
21
-3.52622
0
LINE
8
BLACK
6
CONTINUOUS
10
6.82772
20
-3.52622
11
6.84734
21
-3.52622
0
LINE
8
BLACK
6
CONTINUOUS
10
6.84734
20
-3.52622
11
6.84734
21
-3.53585
0
LINE
8
BLACK
6
CONTINUOUS
10
6.84734
20
-3.53585
11
6.88234
21
-3.53585
0
LINE
8
BLACK
6
CONTINUOUS
10
6.88234
20
-3.53585
11
6.88234
21
-3.52622
0
LINE
8
BLACK
6
CONTINUOUS
10
6.88234
20
-3.52622
11
6.93734
21
-3.52622
0
LINE
8
BLACK
6
CONTINUOUS
10
6.93734
20
-3.52622
11
6.93734
21
-3.56122
0
LINE
8
BLACK
6
CONTINUOUS
10
6.93734
20
-3.56122
11
6.88234
21
-3.56122
0
LINE
8
BLACK
6
CONTINUOUS
10
6.88234
20
-3.56122
11
6.88234
21
-3.55159
0
LINE
8
BLACK
6
CONTINUOUS
10
6.88234
20
-3.55159
11
6.84734
21
-3.55159
0
LINE
8
BLACK
6
CONTINUOUS
10
6.84734
20
-3.55159
11
6.84734
21
-3.56122
0
LINE
8
BLACK
6
CONTINUOUS
10
6.84734
20
-3.56122
11
6.79234
21
-3.56122
0
LINE
8
BLACK
6
CONTINUOUS
10
6.79234
20
-3.56122
11
6.79234
21
-3.52622
0
LINE
8
BLACK
6
CONTINUOUS
10
6.79234
20
-3.52622
11
6.81197
21
-3.52622
0
LINE
8
BLACK
6
CONTINUOUS
10
6.81197
20
-3.52622
11
6.81197
21
-3.51598
0
LINE
8
BLACK
6
CONTINUOUS
10
6.81197
20
-3.51598
11
6.77821
21
-3.48222
0
LINE
8
BLACK
6
CONTINUOUS
10
6.77821
20
-3.48222
11
6.76548
21
-3.48222
0
LINE
8
BLACK
6
CONTINUOUS
10
6.76548
20
-3.48222
11
6.71934
21
-3.52836
0
LINE
8
BLACK
6
CONTINUOUS
10
6.71934
20
-3.52836
11
6.71934
21
-3.54522
0
LINE
8
BLACK
6
CONTINUOUS
10
6.71934
20
-3.54522
11
6.66434
21
-3.54522
0
LINE
8
BLACK
6
CONTINUOUS
10
6.66434
20
-3.54522
11
6.66434
21
-3.51022
0
LINE
8
BLACK
6
CONTINUOUS
10
6.66434
20
-3.51022
11
6.71521
21
-3.51022
0
LINE
8
BLACK
6
CONTINUOUS
10
6.71521
20
-3.51022
11
6.74434
21
-3.48108
0
LINE
8
BLACK
6
CONTINUOUS
10
6.74434
20
-3.48108
11
6.74434
21
-3.44722
0
LINE
8
BLACK
6
CONTINUOUS
10
6.74434
20
-3.44722
11
6.79934
21
-3.44722
0
LINE
8
BLACK
6
CONTINUOUS
10
6.79934
20
-3.44722
11
6.79934
21
-3.48108
0
LINE
8
BLACK
6
CONTINUOUS
10
6.38234
20
-3.55122
11
6.32734
21
-3.55122
0
LINE
8
BLACK
6
CONTINUOUS
10
6.32734
20
-3.55122
11
6.32734
21
-3.53909
0
LINE
8
BLACK
6
CONTINUOUS
10
6.32734
20
-3.53909
11
6.32315
21
-3.53909
0
LINE
8
BLACK
6
CONTINUOUS
10
6.32315
20
-3.53909
11
6.32222
21
-3.54101
0
LINE
8
BLACK
6
CONTINUOUS
10
6.32222
20
-3.54101
11
6.3189
21
-3.54468
0
LINE
8
BLACK
6
CONTINUOUS
10
6.3189
20
-3.54468
11
6.31467
21
-3.54728
0
LINE
8
BLACK
6
CONTINUOUS
10
6.31467
20
-3.54728
11
6.30988
21
-3.54859
0
LINE
8
BLACK
6
CONTINUOUS
10
6.30988
20
-3.54859
11
6.30492
21
-3.5485
0
LINE
8
BLACK
6
CONTINUOUS
10
6.30492
20
-3.5485
11
6.30018
21
-3.54702
0
LINE
8
BLACK
6
CONTINUOUS
10
6.30018
20
-3.54702
11
6.29605
21
-3.54427
0
LINE
8
BLACK
6
CONTINUOUS
10
6.29605
20
-3.54427
11
6.29286
21
-3.54047
0
LINE
8
BLACK
6
CONTINUOUS
10
6.29286
20
-3.54047
11
6.29086
21
-3.53593
0
LINE
8
BLACK
6
CONTINUOUS
10
6.29086
20
-3.53593
11
6.29022
21
-3.53101
0
LINE
8
BLACK
6
CONTINUOUS
10
6.29022
20
-3.53101
11
6.29098
21
-3.5261
0
LINE
8
BLACK
6
CONTINUOUS
10
6.29098
20
-3.5261
11
6.29309
21
-3.52161
0
LINE
8
BLACK
6
CONTINUOUS
10
6.29309
20
-3.52161
11
6.29637
21
-3.51789
0
LINE
8
BLACK
6
CONTINUOUS
10
6.29637
20
-3.51789
11
6.30057
21
-3.51525
0
LINE
8
BLACK
6
CONTINUOUS
10
6.30057
20
-3.51525
11
6.30534
21
-3.51388
0
LINE
8
BLACK
6
CONTINUOUS
10
6.30534
20
-3.51388
11
6.3103
21
-3.51391
0
LINE
8
BLACK
6
CONTINUOUS
10
6.3103
20
-3.51391
11
6.31506
21
-3.51533
0
LINE
8
BLACK
6
CONTINUOUS
10
6.31506
20
-3.51533
11
6.31922
21
-3.51803
0
LINE
8
BLACK
6
CONTINUOUS
10
6.31922
20
-3.51803
11
6.32246
21
-3.52179
0
LINE
8
BLACK
6
CONTINUOUS
10
6.32246
20
-3.52179
11
6.32317
21
-3.52335
0
LINE
8
BLACK
6
CONTINUOUS
10
6.32317
20
-3.52335
11
6.32734
21
-3.52335
0
LINE
8
BLACK
6
CONTINUOUS
10
6.32734
20
-3.52335
11
6.32734
21
-3.51622
0
LINE
8
BLACK
6
CONTINUOUS
10
6.32734
20
-3.51622
11
6.38234
21
-3.51622
0
LINE
8
BLACK
6
CONTINUOUS
10
6.38234
20
-3.51622
11
6.38234
21
-3.52388
0
LINE
8
BLACK
6
CONTINUOUS
10
6.38234
20
-3.52388
11
6.43827
21
-3.52388
0
LINE
8
BLACK
6
CONTINUOUS
10
6.43827
20
-3.52388
11
6.44484
21
-3.5173
0
LINE
8
BLACK
6
CONTINUOUS
10
6.44484
20
-3.5173
11
6.44484
21
-3.49872
0
LINE
8
BLACK
6
CONTINUOUS
10
6.44484
20
-3.49872
11
6.46484
21
-3.49872
0
LINE
8
BLACK
6
CONTINUOUS
10
6.46484
20
-3.49872
11
6.46484
21
-3.54372
0
LINE
8
BLACK
6
CONTINUOUS
10
6.46484
20
-3.54372
11
6.44484
21
-3.54372
0
LINE
8
BLACK
6
CONTINUOUS
10
6.44484
20
-3.54372
11
6.44484
21
-3.54307
0
LINE
8
BLACK
6
CONTINUOUS
10
6.44484
20
-3.54307
11
6.44234
21
-3.54356
0
LINE
8
BLACK
6
CONTINUOUS
10
6.44234
20
-3.54356
11
6.38234
21
-3.54356
0
LINE
8
BLACK
6
CONTINUOUS
10
6.38234
20
-3.54356
11
6.38234
21
-3.55122
0
LINE
8
BLACK
6
CONTINUOUS
10
5.46234
20
-3.46138
11
5.49734
21
-3.46138
0
LINE
8
BLACK
6
CONTINUOUS
10
5.49734
20
-3.46138
11
5.49734
21
-3.43872
0
LINE
8
BLACK
6
CONTINUOUS
10
5.49734
20
-3.43872
11
5.56234
21
-3.43872
0
LINE
8
BLACK
6
CONTINUOUS
10
5.56234
20
-3.43872
11
5.56234
21
-3.46335
0
LINE
8
BLACK
6
CONTINUOUS
10
5.56234
20
-3.46335
11
5.57934
21
-3.46335
0
LINE
8
BLACK
6
CONTINUOUS
10
5.57934
20
-3.46335
11
5.57934
21
-3.44372
0
LINE
8
BLACK
6
CONTINUOUS
10
5.57934
20
-3.44372
11
5.61434
21
-3.44372
0
LINE
8
BLACK
6
CONTINUOUS
10
5.61434
20
-3.44372
11
5.61434
21
-3.49872
0
LINE
8
BLACK
6
CONTINUOUS
10
5.61434
20
-3.49872
11
5.57934
21
-3.49872
0
LINE
8
BLACK
6
CONTINUOUS
10
5.57934
20
-3.49872
11
5.57934
21
-3.47909
0
LINE
8
BLACK
6
CONTINUOUS
10
5.57934
20
-3.47909
11
5.56234
21
-3.47909
0
LINE
8
BLACK
6
CONTINUOUS
10
5.56234
20
-3.47909
11
5.56234
21
-3.50372
0
LINE
8
BLACK
6
CONTINUOUS
10
5.56234
20
-3.50372
11
5.49734
21
-3.50372
0
LINE
8
BLACK
6
CONTINUOUS
10
5.49734
20
-3.50372
11
5.49734
21
-3.48106
0
LINE
8
BLACK
6
CONTINUOUS
10
5.49734
20
-3.48106
11
5.46234
21
-3.48106
0
LINE
8
BLACK
6
CONTINUOUS
10
5.46234
20
-3.48106
11
5.46234
21
-3.50372
0
LINE
8
BLACK
6
CONTINUOUS
10
5.46234
20
-3.50372
11
5.39734
21
-3.50372
0
LINE
8
BLACK
6
CONTINUOUS
10
5.39734
20
-3.50372
11
5.39734
21
-3.43872
0
LINE
8
BLACK
6
CONTINUOUS
10
5.39734
20
-3.43872
11
5.46234
21
-3.43872
0
LINE
8
BLACK
6
CONTINUOUS
10
5.46234
20
-3.43872
11
5.46234
21
-3.46138
0
LINE
8
BLACK
6
CONTINUOUS
10
6.85484
20
-3.33358
11
6.89748
21
-3.37622
0
LINE
8
BLACK
6
CONTINUOUS
10
6.89748
20
-3.37622
11
6.93134
21
-3.37622
0
LINE
8
BLACK
6
CONTINUOUS
10
6.93134
20
-3.37622
11
6.93134
21
-3.38585
0
LINE
8
BLACK
6
CONTINUOUS
10
6.93134
20
-3.38585
11
6.94536
21
-3.38585
0
LINE
8
BLACK
6
CONTINUOUS
10
6.94536
20
-3.38585
11
6.94664
21
-3.38614
0
LINE
8
BLACK
6
CONTINUOUS
10
6.94664
20
-3.38614
11
6.94794
21
-3.38629
0
LINE
8
BLACK
6
CONTINUOUS
10
6.94794
20
-3.38629
11
6.94833
21
-3.38653
0
LINE
8
BLACK
6
CONTINUOUS
10
6.94833
20
-3.38653
11
6.94877
21
-3.38663
0
LINE
8
BLACK
6
CONTINUOUS
10
6.94877
20
-3.38663
11
6.9498
21
-3.38745
0
LINE
8
BLACK
6
CONTINUOUS
10
6.9498
20
-3.38745
11
6.95091
21
-3.38815
0
LINE
8
BLACK
6
CONTINUOUS
10
6.95091
20
-3.38815
11
6.98748
21
-3.42472
0
LINE
8
BLACK
6
CONTINUOUS
10
6.98748
20
-3.42472
11
7.04134
21
-3.42472
0
LINE
8
BLACK
6
CONTINUOUS
10
7.04134
20
-3.42472
11
7.04134
21
-3.44935
0
LINE
8
BLACK
6
CONTINUOUS
10
7.04134
20
-3.44935
11
7.07634
21
-3.44935
0
LINE
8
BLACK
6
CONTINUOUS
10
7.07634
20
-3.44935
11
7.07634
21
-3.42472
0
LINE
8
BLACK
6
CONTINUOUS
10
7.07634
20
-3.42472
11
7.14134
21
-3.42472
0
LINE
8
BLACK
6
CONTINUOUS
10
7.14134
20
-3.42472
11
7.14134
21
-3.48972
0
LINE
8
BLACK
6
CONTINUOUS
10
7.14134
20
-3.48972
11
7.07634
21
-3.48972
0
LINE
8
BLACK
6
CONTINUOUS
10
7.07634
20
-3.48972
11
7.07634
21
-3.46509
0
LINE
8
BLACK
6
CONTINUOUS
10
7.07634
20
-3.46509
11
7.04134
21
-3.46509
0
LINE
8
BLACK
6
CONTINUOUS
10
7.04134
20
-3.46509
11
7.04134
21
-3.48972
0
LINE
8
BLACK
6
CONTINUOUS
10
7.04134
20
-3.48972
11
6.97634
21
-3.48972
0
LINE
8
BLACK
6
CONTINUOUS
10
6.97634
20
-3.48972
11
6.97634
21
-3.43586
0
LINE
8
BLACK
6
CONTINUOUS
10
6.97634
20
-3.43586
11
6.94208
21
-3.40159
0
LINE
8
BLACK
6
CONTINUOUS
10
6.94208
20
-3.40159
11
6.93134
21
-3.40159
0
LINE
8
BLACK
6
CONTINUOUS
10
6.93134
20
-3.40159
11
6.93134
21
-3.41122
0
LINE
8
BLACK
6
CONTINUOUS
10
6.93134
20
-3.41122
11
6.87634
21
-3.41122
0
LINE
8
BLACK
6
CONTINUOUS
10
6.87634
20
-3.41122
11
6.87634
21
-3.37736
0
LINE
8
BLACK
6
CONTINUOUS
10
6.87634
20
-3.37736
11
6.84571
21
-3.34672
0
LINE
8
BLACK
6
CONTINUOUS
10
6.84571
20
-3.34672
11
6.81984
21
-3.34672
0
LINE
8
BLACK
6
CONTINUOUS
10
6.81984
20
-3.34672
11
6.81984
21
-3.29172
0
LINE
8
BLACK
6
CONTINUOUS
10
6.81984
20
-3.29172
11
6.85484
21
-3.29172
0
LINE
8
BLACK
6
CONTINUOUS
10
6.85484
20
-3.29172
11
6.85484
21
-3.33358
0
LINE
8
BLACK
6
CONTINUOUS
10
6.51484
20
-3.29372
11
6.51272
21
-3.29372
0
LINE
8
BLACK
6
CONTINUOUS
10
6.51272
20
-3.29372
11
6.51272
21
-3.29883
0
LINE
8
BLACK
6
CONTINUOUS
10
6.51272
20
-3.29883
11
6.60174
21
-3.38785
0
LINE
8
BLACK
6
CONTINUOUS
10
6.60174
20
-3.38785
11
6.66434
21
-3.38785
0
LINE
8
BLACK
6
CONTINUOUS
10
6.66434
20
-3.38785
11
6.66434
21
-3.37822
0
LINE
8
BLACK
6
CONTINUOUS
10
6.66434
20
-3.37822
11
6.71934
21
-3.37822
0
LINE
8
BLACK
6
CONTINUOUS
10
6.71934
20
-3.37822
11
6.71934
21
-3.41322
0
LINE
8
BLACK
6
CONTINUOUS
10
6.71934
20
-3.41322
11
6.69972
21
-3.41322
0
LINE
8
BLACK
6
CONTINUOUS
10
6.69972
20
-3.41322
11
6.69972
21
-3.43522
0
LINE
8
BLACK
6
CONTINUOUS
10
6.69972
20
-3.43522
11
6.71934
21
-3.43522
0
LINE
8
BLACK
6
CONTINUOUS
10
6.71934
20
-3.43522
11
6.71934
21
-3.47022
0
LINE
8
BLACK
6
CONTINUOUS
10
6.71934
20
-3.47022
11
6.66434
21
-3.47022
0
LINE
8
BLACK
6
CONTINUOUS
10
6.66434
20
-3.47022
11
6.66434
21
-3.43522
0
LINE
8
BLACK
6
CONTINUOUS
10
6.66434
20
-3.43522
11
6.68397
21
-3.43522
0
LINE
8
BLACK
6
CONTINUOUS
10
6.68397
20
-3.43522
11
6.68397
21
-3.41322
0
LINE
8
BLACK
6
CONTINUOUS
10
6.68397
20
-3.41322
11
6.66434
21
-3.41322
0
LINE
8
BLACK
6
CONTINUOUS
10
6.66434
20
-3.41322
11
6.66434
21
-3.40359
0
LINE
8
BLACK
6
CONTINUOUS
10
6.66434
20
-3.40359
11
6.59846
21
-3.40359
0
LINE
8
BLACK
6
CONTINUOUS
10
6.59846
20
-3.40359
11
6.59718
21
-3.4033
0
LINE
8
BLACK
6
CONTINUOUS
10
6.59718
20
-3.4033
11
6.59587
21
-3.40315
0
LINE
8
BLACK
6
CONTINUOUS
10
6.59587
20
-3.40315
11
6.59549
21
-3.40291
0
LINE
8
BLACK
6
CONTINUOUS
10
6.59549
20
-3.40291
11
6.59505
21
-3.40281
0
LINE
8
BLACK
6
CONTINUOUS
10
6.59505
20
-3.40281
11
6.59402
21
-3.40199
0
LINE
8
BLACK
6
CONTINUOUS
10
6.59402
20
-3.40199
11
6.59291
21
-3.40129
0
LINE
8
BLACK
6
CONTINUOUS
10
6.59291
20
-3.40129
11
6.49927
21
-3.30764
0
LINE
8
BLACK
6
CONTINUOUS
10
6.49927
20
-3.30764
11
6.49857
21
-3.30653
0
LINE
8
BLACK
6
CONTINUOUS
10
6.49857
20
-3.30653
11
6.49775
21
-3.3055
0
LINE
8
BLACK
6
CONTINUOUS
10
6.49775
20
-3.3055
11
6.49765
21
-3.30506
0
LINE
8
BLACK
6
CONTINUOUS
10
6.49765
20
-3.30506
11
6.49741
21
-3.30468
0
LINE
8
BLACK
6
CONTINUOUS
10
6.49741
20
-3.30468
11
6.49726
21
-3.30337
0
LINE
8
BLACK
6
CONTINUOUS
10
6.49726
20
-3.30337
11
6.49697
21
-3.30209
0
LINE
8
BLACK
6
CONTINUOUS
10
6.49697
20
-3.30209
11
6.49697
21
-3.29372
0
LINE
8
BLACK
6
CONTINUOUS
10
6.49697
20
-3.29372
11
6.49484
21
-3.29372
0
LINE
8
BLACK
6
CONTINUOUS
10
6.49484
20
-3.29372
11
6.49484
21
-3.24872
0
LINE
8
BLACK
6
CONTINUOUS
10
6.49484
20
-3.24872
11
6.51484
21
-3.24872
0
LINE
8
BLACK
6
CONTINUOUS
10
6.51484
20
-3.24872
11
6.51484
21
-3.29372
0
LINE
8
BLACK
6
CONTINUOUS
10
6.56484
20
-3.29372
11
6.56272
21
-3.29372
0
LINE
8
BLACK
6
CONTINUOUS
10
6.56272
20
-3.29372
11
6.56272
21
-3.29764
0
LINE
8
BLACK
6
CONTINUOUS
10
6.56272
20
-3.29764
11
6.57792
21
-3.31285
0
LINE
8
BLACK
6
CONTINUOUS
10
6.57792
20
-3.31285
11
6.66434
21
-3.31285
0
LINE
8
BLACK
6
CONTINUOUS
10
6.66434
20
-3.31285
11
6.66434
21
-3.30322
0
LINE
8
BLACK
6
CONTINUOUS
10
6.66434
20
-3.30322
11
6.71934
21
-3.30322
0
LINE
8
BLACK
6
CONTINUOUS
10
6.71934
20
-3.30322
11
6.71934
21
-3.31285
0
LINE
8
BLACK
6
CONTINUOUS
10
6.71934
20
-3.31285
11
6.74484
21
-3.31285
0
LINE
8
BLACK
6
CONTINUOUS
10
6.74484
20
-3.31285
11
6.74484
21
-3.29172
0
LINE
8
BLACK
6
CONTINUOUS
10
6.74484
20
-3.29172
11
6.77984
21
-3.29172
0
LINE
8
BLACK
6
CONTINUOUS
10
6.77984
20
-3.29172
11
6.77984
21
-3.34672
0
LINE
8
BLACK
6
CONTINUOUS
10
6.77984
20
-3.34672
11
6.77022
21
-3.34672
0
LINE
8
BLACK
6
CONTINUOUS
10
6.77022
20
-3.34672
11
6.77022
21
-3.37222
0
LINE
8
BLACK
6
CONTINUOUS
10
6.77022
20
-3.37222
11
6.79934
21
-3.37222
0
LINE
8
BLACK
6
CONTINUOUS
10
6.79934
20
-3.37222
11
6.79934
21
-3.40722
0
LINE
8
BLACK
6
CONTINUOUS
10
6.79934
20
-3.40722
11
6.74434
21
-3.40722
0
LINE
8
BLACK
6
CONTINUOUS
10
6.74434
20
-3.40722
11
6.74434
21
-3.37222
0
LINE
8
BLACK
6
CONTINUOUS
10
6.74434
20
-3.37222
11
6.75447
21
-3.37222
0
LINE
8
BLACK
6
CONTINUOUS
10
6.75447
20
-3.37222
11
6.75447
21
-3.34672
0
LINE
8
BLACK
6
CONTINUOUS
10
6.75447
20
-3.34672
11
6.74484
21
-3.34672
0
LINE
8
BLACK
6
CONTINUOUS
10
6.74484
20
-3.34672
11
6.74484
21
-3.32859
0
LINE
8
BLACK
6
CONTINUOUS
10
6.74484
20
-3.32859
11
6.71934
21
-3.32859
0
LINE
8
BLACK
6
CONTINUOUS
10
6.71934
20
-3.32859
11
6.71934
21
-3.33822
0
LINE
8
BLACK
6
CONTINUOUS
10
6.71934
20
-3.33822
11
6.66434
21
-3.33822
0
LINE
8
BLACK
6
CONTINUOUS
10
6.66434
20
-3.33822
11
6.66434
21
-3.32859
0
LINE
8
BLACK
6
CONTINUOUS
10
6.66434
20
-3.32859
11
6.57464
21
-3.32859
0
LINE
8
BLACK
6
CONTINUOUS
10
6.57464
20
-3.32859
11
6.57336
21
-3.3283
0
LINE
8
BLACK
6
CONTINUOUS
10
6.57336
20
-3.3283
11
6.57206
21
-3.32815
0
LINE
8
BLACK
6
CONTINUOUS
10
6.57206
20
-3.32815
11
6.57167
21
-3.32791
0
LINE
8
BLACK
6
CONTINUOUS
10
6.57167
20
-3.32791
11
6.57123
21
-3.32781
0
LINE
8
BLACK
6
CONTINUOUS
10
6.57123
20
-3.32781
11
6.5702
21
-3.32699
0
LINE
8
BLACK
6
CONTINUOUS
10
6.5702
20
-3.32699
11
6.56909
21
-3.32629
0
LINE
8
BLACK
6
CONTINUOUS
10
6.56909
20
-3.32629
11
6.54927
21
-3.30646
0
LINE
8
BLACK
6
CONTINUOUS
10
6.54927
20
-3.30646
11
6.54857
21
-3.30535
0
LINE
8
BLACK
6
CONTINUOUS
10
6.54857
20
-3.30535
11
6.54775
21
-3.30432
0
LINE
8
BLACK
6
CONTINUOUS
10
6.54775
20
-3.30432
11
6.54765
21
-3.30388
0
LINE
8
BLACK
6
CONTINUOUS
10
6.54765
20
-3.30388
11
6.54741
21
-3.3035
0
LINE
8
BLACK
6
CONTINUOUS
10
6.54741
20
-3.3035
11
6.54726
21
-3.30219
0
LINE
8
BLACK
6
CONTINUOUS
10
6.54726
20
-3.30219
11
6.54697
21
-3.30091
0
LINE
8
BLACK
6
CONTINUOUS
10
6.54697
20
-3.30091
11
6.54697
21
-3.29372
0
LINE
8
BLACK
6
CONTINUOUS
10
6.54697
20
-3.29372
11
6.54484
21
-3.29372
0
LINE
8
BLACK
6
CONTINUOUS
10
6.54484
20
-3.29372
11
6.54484
21
-3.24872
0
LINE
8
BLACK
6
CONTINUOUS
10
6.54484
20
-3.24872
11
6.56484
21
-3.24872
0
LINE
8
BLACK
6
CONTINUOUS
10
6.56484
20
-3.24872
11
6.56484
21
-3.29372
0
LINE
8
BLACK
6
CONTINUOUS
10
6.12431
20
-3.32033
11
6.12622
21
-3.32161
0
LINE
8
BLACK
6
CONTINUOUS
10
6.12622
20
-3.32161
11
6.1275
21
-3.32353
0
LINE
8
BLACK
6
CONTINUOUS
10
6.1275
20
-3.32353
11
6.12795
21
-3.32579
0
LINE
8
BLACK
6
CONTINUOUS
10
6.12795
20
-3.32579
11
6.12795
21
-3.37205
0
LINE
8
BLACK
6
CONTINUOUS
10
6.12795
20
-3.37205
11
6.1275
21
-3.37431
0
LINE
8
BLACK
6
CONTINUOUS
10
6.1275
20
-3.37431
11
6.12742
21
-3.37443
0
LINE
8
BLACK
6
CONTINUOUS
10
6.12742
20
-3.37443
11
6.12835
21
-3.37503
0
LINE
8
BLACK
6
CONTINUOUS
10
6.12835
20
-3.37503
11
6.13159
21
-3.37879
0
LINE
8
BLACK
6
CONTINUOUS
10
6.13159
20
-3.37879
11
6.13364
21
-3.38331
0
LINE
8
BLACK
6
CONTINUOUS
10
6.13364
20
-3.38331
11
6.13434
21
-3.38822
0
LINE
8
BLACK
6
CONTINUOUS
10
6.13434
20
-3.38822
11
6.13434
21
-3.38865
0
LINE
8
BLACK
6
CONTINUOUS
10
6.13434
20
-3.38865
11
6.13351
21
-3.39354
0
LINE
8
BLACK
6
CONTINUOUS
10
6.13351
20
-3.39354
11
6.13135
21
-3.39801
0
LINE
8
BLACK
6
CONTINUOUS
10
6.13135
20
-3.39801
11
6.12802
21
-3.40168
0
LINE
8
BLACK
6
CONTINUOUS
10
6.12802
20
-3.40168
11
6.12379
21
-3.40428
0
LINE
8
BLACK
6
CONTINUOUS
10
6.12379
20
-3.40428
11
6.11901
21
-3.40559
0
LINE
8
BLACK
6
CONTINUOUS
10
6.11901
20
-3.40559
11
6.11404
21
-3.4055
0
LINE
8
BLACK
6
CONTINUOUS
10
6.11404
20
-3.4055
11
6.10931
21
-3.40402
0
LINE
8
BLACK
6
CONTINUOUS
10
6.10931
20
-3.40402
11
6.10518
21
-3.40127
0
LINE
8
BLACK
6
CONTINUOUS
10
6.10518
20
-3.40127
11
6.10199
21
-3.39747
0
LINE
8
BLACK
6
CONTINUOUS
10
6.10199
20
-3.39747
11
6.09999
21
-3.39293
0
LINE
8
BLACK
6
CONTINUOUS
10
6.09999
20
-3.39293
11
6.09934
21
-3.38801
0
LINE
8
BLACK
6
CONTINUOUS
10
6.09934
20
-3.38801
11
6.10011
21
-3.3831
0
LINE
8
BLACK
6
CONTINUOUS
10
6.10011
20
-3.3831
11
6.10222
21
-3.37861
0
LINE
8
BLACK
6
CONTINUOUS
10
6.10222
20
-3.37861
11
6.10531
21
-3.37511
0
LINE
8
BLACK
6
CONTINUOUS
10
6.10531
20
-3.37511
11
6.10478
21
-3.37431
0
LINE
8
BLACK
6
CONTINUOUS
10
6.10478
20
-3.37431
11
6.10433
21
-3.37205
0
LINE
8
BLACK
6
CONTINUOUS
10
6.10433
20
-3.37205
11
6.10433
21
-3.32579
0
LINE
8
BLACK
6
CONTINUOUS
10
6.10433
20
-3.32579
11
6.10478
21
-3.32353
0
LINE
8
BLACK
6
CONTINUOUS
10
6.10478
20
-3.32353
11
6.10606
21
-3.32161
0
LINE
8
BLACK
6
CONTINUOUS
10
6.10606
20
-3.32161
11
6.10798
21
-3.32033
0
LINE
8
BLACK
6
CONTINUOUS
10
6.10798
20
-3.32033
11
6.11024
21
-3.31988
0
LINE
8
BLACK
6
CONTINUOUS
10
6.11024
20
-3.31988
11
6.12205
21
-3.31988
0
LINE
8
BLACK
6
CONTINUOUS
10
6.12205
20
-3.31988
11
6.12431
21
-3.32033
0
LINE
8
BLACK
6
CONTINUOUS
10
5.83734
20
-3.30122
11
5.81969
21
-3.30122
0
LINE
8
BLACK
6
CONTINUOUS
10
5.81969
20
-3.30122
11
5.81969
21
-3.33622
0
LINE
8
BLACK
6
CONTINUOUS
10
5.81969
20
-3.33622
11
5.83734
21
-3.33622
0
LINE
8
BLACK
6
CONTINUOUS
10
5.83734
20
-3.33622
11
5.83734
21
-3.34388
0
LINE
8
BLACK
6
CONTINUOUS
10
5.83734
20
-3.34388
11
6.02953
21
-3.34388
0
LINE
8
BLACK
6
CONTINUOUS
10
6.02953
20
-3.34388
11
6.02953
21
-3.32579
0
LINE
8
BLACK
6
CONTINUOUS
10
6.02953
20
-3.32579
11
6.02998
21
-3.32353
0
LINE
8
BLACK
6
CONTINUOUS
10
6.02998
20
-3.32353
11
6.03126
21
-3.32161
0
LINE
8
BLACK
6
CONTINUOUS
10
6.03126
20
-3.32161
11
6.03317
21
-3.32033
0
LINE
8
BLACK
6
CONTINUOUS
10
6.03317
20
-3.32033
11
6.03543
21
-3.31988
0
LINE
8
BLACK
6
CONTINUOUS
10
6.03543
20
-3.31988
11
6.04724
21
-3.31988
0
LINE
8
BLACK
6
CONTINUOUS
10
6.04724
20
-3.31988
11
6.0495
21
-3.32033
0
LINE
8
BLACK
6
CONTINUOUS
10
6.0495
20
-3.32033
11
6.05142
21
-3.32161
0
LINE
8
BLACK
6
CONTINUOUS
10
6.05142
20
-3.32161
11
6.0527
21
-3.32353
0
LINE
8
BLACK
6
CONTINUOUS
10
6.0527
20
-3.32353
11
6.05315
21
-3.32579
0
LINE
8
BLACK
6
CONTINUOUS
10
6.05315
20
-3.32579
11
6.05315
21
-3.37205
0
LINE
8
BLACK
6
CONTINUOUS
10
6.05315
20
-3.37205
11
6.0527
21
-3.37431
0
LINE
8
BLACK
6
CONTINUOUS
10
6.0527
20
-3.37431
11
6.05142
21
-3.37622
0
LINE
8
BLACK
6
CONTINUOUS
10
6.05142
20
-3.37622
11
6.0495
21
-3.3775
0
LINE
8
BLACK
6
CONTINUOUS
10
6.0495
20
-3.3775
11
6.04724
21
-3.37795
0
LINE
8
BLACK
6
CONTINUOUS
10
6.04724
20
-3.37795
11
6.03543
21
-3.37795
0
LINE
8
BLACK
6
CONTINUOUS
10
6.03543
20
-3.37795
11
6.03317
21
-3.3775
0
LINE
8
BLACK
6
CONTINUOUS
10
6.03317
20
-3.3775
11
6.03126
21
-3.37622
0
LINE
8
BLACK
6
CONTINUOUS
10
6.03126
20
-3.37622
11
6.02998
21
-3.37431
0
LINE
8
BLACK
6
CONTINUOUS
10
6.02998
20
-3.37431
11
6.02953
21
-3.37205
0
LINE
8
BLACK
6
CONTINUOUS
10
6.02953
20
-3.37205
11
6.02953
21
-3.36356
0
LINE
8
BLACK
6
CONTINUOUS
10
6.02953
20
-3.36356
11
5.83734
21
-3.36356
0
LINE
8
BLACK
6
CONTINUOUS
10
5.83734
20
-3.36356
11
5.83734
21
-3.37122
0
LINE
8
BLACK
6
CONTINUOUS
10
5.83734
20
-3.37122
11
5.78234
21
-3.37122
0
LINE
8
BLACK
6
CONTINUOUS
10
5.78234
20
-3.37122
11
5.78234
21
-3.33622
0
LINE
8
BLACK
6
CONTINUOUS
10
5.78234
20
-3.33622
11
5.8
21
-3.33622
0
LINE
8
BLACK
6
CONTINUOUS
10
5.8
20
-3.33622
11
5.8
21
-3.30122
0
LINE
8
BLACK
6
CONTINUOUS
10
5.8
20
-3.30122
11
5.78234
21
-3.30122
0
LINE
8
BLACK
6
CONTINUOUS
10
5.78234
20
-3.30122
11
5.78234
21
-3.26622
0
LINE
8
BLACK
6
CONTINUOUS
10
5.78234
20
-3.26622
11
5.83734
21
-3.26622
0
LINE
8
BLACK
6
CONTINUOUS
10
5.83734
20
-3.26622
11
5.83734
21
-3.30122
0
LINE
8
BLACK
6
CONTINUOUS
10
6.0613
20
-3.20176
11
6.15584
21
-3.2963
0
LINE
8
BLACK
6
CONTINUOUS
10
6.15584
20
-3.2963
11
6.15666
21
-3.29607
0
LINE
8
BLACK
6
CONTINUOUS
10
6.15666
20
-3.29607
11
6.16162
21
-3.2961
0
LINE
8
BLACK
6
CONTINUOUS
10
6.16162
20
-3.2961
11
6.16637
21
-3.29752
0
LINE
8
BLACK
6
CONTINUOUS
10
6.16637
20
-3.29752
11
6.17054
21
-3.30022
0
LINE
8
BLACK
6
CONTINUOUS
10
6.17054
20
-3.30022
11
6.17377
21
-3.30398
0
LINE
8
BLACK
6
CONTINUOUS
10
6.17377
20
-3.30398
11
6.17583
21
-3.3085
0
LINE
8
BLACK
6
CONTINUOUS
10
6.17583
20
-3.3085
11
6.17653
21
-3.31341
0
LINE
8
BLACK
6
CONTINUOUS
10
6.17653
20
-3.31341
11
6.17653
21
-3.31384
0
LINE
8
BLACK
6
CONTINUOUS
10
6.17653
20
-3.31384
11
6.1757
21
-3.31873
0
LINE
8
BLACK
6
CONTINUOUS
10
6.1757
20
-3.31873
11
6.17354
21
-3.3232
0
LINE
8
BLACK
6
CONTINUOUS
10
6.17354
20
-3.3232
11
6.17021
21
-3.32687
0
LINE
8
BLACK
6
CONTINUOUS
10
6.17021
20
-3.32687
11
6.16598
21
-3.32947
0
LINE
8
BLACK
6
CONTINUOUS
10
6.16598
20
-3.32947
11
6.16119
21
-3.33078
0
LINE
8
BLACK
6
CONTINUOUS
10
6.16119
20
-3.33078
11
6.15623
21
-3.33068
0
LINE
8
BLACK
6
CONTINUOUS
10
6.15623
20
-3.33068
11
6.1515
21
-3.3292
0
LINE
8
BLACK
6
CONTINUOUS
10
6.1515
20
-3.3292
11
6.14737
21
-3.32646
0
LINE
8
BLACK
6
CONTINUOUS
10
6.14737
20
-3.32646
11
6.14417
21
-3.32266
0
LINE
8
BLACK
6
CONTINUOUS
10
6.14417
20
-3.32266
11
6.14218
21
-3.31812
0
LINE
8
BLACK
6
CONTINUOUS
10
6.14218
20
-3.31812
11
6.14153
21
-3.3132
0
LINE
8
BLACK
6
CONTINUOUS
10
6.14153
20
-3.3132
11
6.14199
21
-3.31028
0
LINE
8
BLACK
6
CONTINUOUS
10
6.14199
20
-3.31028
11
6.05027
21
-3.21856
0
LINE
8
BLACK
6
CONTINUOUS
10
6.05027
20
-3.21856
11
5.83734
21
-3.21856
0
LINE
8
BLACK
6
CONTINUOUS
10
5.83734
20
-3.21856
11
5.83734
21
-3.22622
0
LINE
8
BLACK
6
CONTINUOUS
10
5.83734
20
-3.22622
11
5.78234
21
-3.22622
0
LINE
8
BLACK
6
CONTINUOUS
10
5.78234
20
-3.22622
11
5.78234
21
-3.19122
0
LINE
8
BLACK
6
CONTINUOUS
10
5.78234
20
-3.19122
11
5.83734
21
-3.19122
0
LINE
8
BLACK
6
CONTINUOUS
10
5.83734
20
-3.19122
11
5.83734
21
-3.19888
0
LINE
8
BLACK
6
CONTINUOUS
10
5.83734
20
-3.19888
11
6.05434
21
-3.19888
0
LINE
8
BLACK
6
CONTINUOUS
10
6.05434
20
-3.19888
11
6.05811
21
-3.19963
0
LINE
8
BLACK
6
CONTINUOUS
10
6.05811
20
-3.19963
11
6.0613
21
-3.20176
0
LINE
8
BLACK
6
CONTINUOUS
10
6.61484
20
-3.29372
11
6.59484
21
-3.29372
0
LINE
8
BLACK
6
CONTINUOUS
10
6.59484
20
-3.29372
11
6.59484
21
-3.24872
0
LINE
8
BLACK
6
CONTINUOUS
10
6.59484
20
-3.24872
11
6.595
21
-3.24872
0
LINE
8
BLACK
6
CONTINUOUS
10
6.595
20
-3.24872
11
6.595
21
-3.24671
0
LINE
8
BLACK
6
CONTINUOUS
10
6.595
20
-3.24671
11
6.5642
21
-3.21591
0
LINE
8
BLACK
6
CONTINUOUS
10
6.5642
20
-3.21591
11
6.56319
21
-3.21618
0
LINE
8
BLACK
6
CONTINUOUS
10
6.56319
20
-3.21618
11
6.55823
21
-3.21609
0
LINE
8
BLACK
6
CONTINUOUS
10
6.55823
20
-3.21609
11
6.55349
21
-3.21461
0
LINE
8
BLACK
6
CONTINUOUS
10
6.55349
20
-3.21461
11
6.54936
21
-3.21186
0
LINE
8
BLACK
6
CONTINUOUS
10
6.54936
20
-3.21186
11
6.54617
21
-3.20807
0
LINE
8
BLACK
6
CONTINUOUS
10
6.54617
20
-3.20807
11
6.54417
21
-3.20352
0
LINE
8
BLACK
6
CONTINUOUS
10
6.54417
20
-3.20352
11
6.54352
21
-3.19861
0
LINE
8
BLACK
6
CONTINUOUS
10
6.54352
20
-3.19861
11
6.54429
21
-3.1937
0
LINE
8
BLACK
6
CONTINUOUS
10
6.54429
20
-3.1937
11
6.5464
21
-3.18921
0
LINE
8
BLACK
6
CONTINUOUS
10
6.5464
20
-3.18921
11
6.54968
21
-3.18549
0
LINE
8
BLACK
6
CONTINUOUS
10
6.54968
20
-3.18549
11
6.55388
21
-3.18284
0
LINE
8
BLACK
6
CONTINUOUS
10
6.55388
20
-3.18284
11
6.55865
21
-3.18148
0
LINE
8
BLACK
6
CONTINUOUS
10
6.55865
20
-3.18148
11
6.56361
21
-3.18151
0
LINE
8
BLACK
6
CONTINUOUS
10
6.56361
20
-3.18151
11
6.56836
21
-3.18293
0
LINE
8
BLACK
6
CONTINUOUS
10
6.56836
20
-3.18293
11
6.57253
21
-3.18563
0
LINE
8
BLACK
6
CONTINUOUS
10
6.57253
20
-3.18563
11
6.57577
21
-3.18939
0
LINE
8
BLACK
6
CONTINUOUS
10
6.57577
20
-3.18939
11
6.57782
21
-3.19391
0
LINE
8
BLACK
6
CONTINUOUS
10
6.57782
20
-3.19391
11
6.57852
21
-3.19882
0
LINE
8
BLACK
6
CONTINUOUS
10
6.57852
20
-3.19882
11
6.57852
21
-3.19925
0
LINE
8
BLACK
6
CONTINUOUS
10
6.57852
20
-3.19925
11
6.57807
21
-3.20194
0
LINE
8
BLACK
6
CONTINUOUS
10
6.57807
20
-3.20194
11
6.6118
21
-3.23568
0
LINE
8
BLACK
6
CONTINUOUS
10
6.6118
20
-3.23568
11
6.6118
21
-3.23568
0
LINE
8
BLACK
6
CONTINUOUS
10
6.6118
20
-3.23568
11
6.61267
21
-3.23697
0
LINE
8
BLACK
6
CONTINUOUS
10
6.61267
20
-3.23697
11
6.61394
21
-3.23887
0
LINE
8
BLACK
6
CONTINUOUS
10
6.61394
20
-3.23887
11
6.61469
21
-3.24264
0
LINE
8
BLACK
6
CONTINUOUS
10
6.61469
20
-3.24264
11
6.61469
21
-3.24264
0
LINE
8
BLACK
6
CONTINUOUS
10
6.61469
20
-3.24264
11
6.61469
21
-3.24872
0
LINE
8
BLACK
6
CONTINUOUS
10
6.61469
20
-3.24872
11
6.61484
21
-3.24872
0
LINE
8
BLACK
6
CONTINUOUS
10
6.61484
20
-3.24872
11
6.61484
21
-3.26138
0
LINE
8
BLACK
6
CONTINUOUS
10
6.61484
20
-3.26138
11
6.66327
21
-3.26138
0
LINE
8
BLACK
6
CONTINUOUS
10
6.66327
20
-3.26138
11
6.67734
21
-3.2473
0
LINE
8
BLACK
6
CONTINUOUS
10
6.67734
20
-3.2473
11
6.67734
21
-3.21622
0
LINE
8
BLACK
6
CONTINUOUS
10
6.67734
20
-3.21622
11
6.73234
21
-3.21622
0
LINE
8
BLACK
6
CONTINUOUS
10
6.73234
20
-3.21622
11
6.73234
21
-3.22388
0
LINE
8
BLACK
6
CONTINUOUS
10
6.73234
20
-3.22388
11
6.77734
21
-3.22388
0
LINE
8
BLACK
6
CONTINUOUS
10
6.77734
20
-3.22388
11
6.77734
21
-3.21622
0
LINE
8
BLACK
6
CONTINUOUS
10
6.77734
20
-3.21622
11
6.83234
21
-3.21622
0
LINE
8
BLACK
6
CONTINUOUS
10
6.83234
20
-3.21622
11
6.83234
21
-3.25122
0
LINE
8
BLACK
6
CONTINUOUS
10
6.83234
20
-3.25122
11
6.77734
21
-3.25122
0
LINE
8
BLACK
6
CONTINUOUS
10
6.77734
20
-3.25122
11
6.77734
21
-3.24356
0
LINE
8
BLACK
6
CONTINUOUS
10
6.77734
20
-3.24356
11
6.73234
21
-3.24356
0
LINE
8
BLACK
6
CONTINUOUS
10
6.73234
20
-3.24356
11
6.73234
21
-3.25122
0
LINE
8
BLACK
6
CONTINUOUS
10
6.73234
20
-3.25122
11
6.70126
21
-3.25122
0
LINE
8
BLACK
6
CONTINUOUS
10
6.70126
20
-3.25122
11
6.6743
21
-3.27818
0
LINE
8
BLACK
6
CONTINUOUS
10
6.6743
20
-3.27818
11
6.67111
21
-3.28031
0
LINE
8
BLACK
6
CONTINUOUS
10
6.67111
20
-3.28031
11
6.66734
21
-3.28106
0
LINE
8
BLACK
6
CONTINUOUS
10
6.66734
20
-3.28106
11
6.61484
21
-3.28106
0
LINE
8
BLACK
6
CONTINUOUS
10
6.61484
20
-3.28106
11
6.61484
21
-3.29372
0
LINE
8
BLACK
6
CONTINUOUS
10
6.27734
20
-3.20372
11
6.21234
21
-3.20372
0
LINE
8
BLACK
6
CONTINUOUS
10
6.21234
20
-3.20372
11
6.21234
21
-3.13872
0
LINE
8
BLACK
6
CONTINUOUS
10
6.21234
20
-3.13872
11
6.27734
21
-3.13872
0
LINE
8
BLACK
6
CONTINUOUS
10
6.27734
20
-3.13872
11
6.27734
21
-3.20372
0
CIRCLE
8
BLACK
10
6.40384
20
-3.27122
40
0.0125
0
CIRCLE
8
BLACK
10
6.10084
20
-3.03922
40
0.0125
0
CIRCLE
8
BLACK
10
6.71984
20
-3.06222
40
0.0125
0
CIRCLE
8
BLACK
10
6.52284
20
-3.04322
40
0.0125
0
CIRCLE
8
BLACK
10
6.40484
20
-3.37122
40
0.0125
0
CIRCLE
8
BLACK
10
6.29584
20
-3.40122
40
0.0125
0
CIRCLE
8
BLACK
10
6.34584
20
-3.78522
40
0.0125
0
CIRCLE
8
BLACK
10
5.34384
20
-3.29522
40
0.0125
0
CIRCLE
8
BLACK
10
5.34384
20
-3.73122
40
0.0125
0
CIRCLE
8
BLACK
10
6.55584
20
-3.43922
40
0.0125
0
CIRCLE
8
BLACK
10
6.74384
20
-3.77422
40
0.0125
0
CIRCLE
8
BLACK
10
5.48031
20
-3.72441
40
0.0125
0
CIRCLE
8
BLACK
10
6.88784
20
-3.72022
40
0.0125
0
CIRCLE
8
BLACK
10
6.51234
20
-3.79372
40
0.0125
0
CIRCLE
8
BLACK
10
6.33684
20
-3.04722
40
0.0125
0
CIRCLE
8
BLACK
10
5.91084
20
-3.02222
40
0.0125
0
CIRCLE
8
BLACK
10
5.59884
20
-3.19222
40
0.0125
0
CIRCLE
8
BLACK
10
6.20506
20
-3.54643
40
0.0125
0
CIRCLE
8
BLACK
10
6.11684
20
-3.38822
40
0.0125
0
CIRCLE
8
BLACK
10
6.56102
20
-3.19882
40
0.0125
0
CIRCLE
8
BLACK
10
6.21484
20
-3.67572
40
0.0125
0
CIRCLE
8
BLACK
10
6.04586
20
-3.70138
40
0.0125
0
CIRCLE
8
BLACK
10
6.29284
20
-3.74672
40
0.0125
0
CIRCLE
8
BLACK
10
6.30772
20
-3.53122
40
0.0125
0
CIRCLE
8
BLACK
10
6.15903
20
-3.31341
40
0.0125
  0
ENDSEC
  0
EOF
