  0
SECTION
  2
HEADER
  9
$ANGBASE
  50
0.0
  9
$ANGDIR
  70
1
  9
$MEASUREMENT
  70
0
  0
ENDSEC
  0
SECTION
  2
TABLES
  0
TABLE
  2
LTYPE
  70
4
  0
LTYPE
  5
40F
  2
CONTINUOUS
  70
0
  3
Solid line
  72
65
  73
0
  40
0.0
  0
LTYPE
  5
410
  2
DASHDOT
 70
0
  3
Dash Dot ____ _ ____ _
 72
65
 73
4
 40
2.0
 49
1.25
 49
-0.25
 49
0.25
 49
-0.25
  0
LTYPE
  5
411
  2
DASHED
 70
0
  3
Dashed __ __ __ __ __
 72
65
 73
2
 40
0.75
 49
0.5
 49
-0.25
  0
LTYPE
  5
43B
  2
DOTTED
 70
0
  3
Dotted .  .  .  .
 72
65
 73
2
 40
0.2
 49
0.0
 49
-0.2
  0
ENDTAB
  0
TABLE
  2
STYLE
  70
4
  0
STYLE
  2
KICAD
  70
0
  40
0
  41
1
  42
1
  50
0
  71
0
  3
isocp.shx
  0
STYLE
  2
KICADB
  70
0
  40
0
  41
1
  42
1
  50
0
  71
0
  3
isocp.shx
  0
STYLE
  2
KICADI
  70
0
  40
0
  41
1
  42
1
  50
15
  71
0
  3
isocp.shx
  0
STYLE
  2
KICADBI
  70
0
  40
0
  41
1
  42
1
  50
15
  71
0
  3
isocp.shx
  0
ENDTAB
  0
TABLE
  2
LAYER
  70
1
  0
LAYER
  2
BLACK
  70
0
  62
7
  6
CONTINUOUS
  0
ENDTAB
  0
ENDSEC
  0
SECTION
  2
ENTITIES
0
LINE
8
BLACK
6
CONTINUOUS
10
0.736459
20
0.62373
11
0.740649
21
0.621037
0
LINE
8
BLACK
6
CONTINUOUS
10
0.740649
20
0.621037
11
0.743911
21
0.617272
0
LINE
8
BLACK
6
CONTINUOUS
10
0.743911
20
0.617272
11
0.74598
21
0.612741
0
LINE
8
BLACK
6
CONTINUOUS
10
0.74598
20
0.612741
11
0.746689
21
0.607811
0
LINE
8
BLACK
6
CONTINUOUS
10
0.746689
20
0.607811
11
0.74598
21
0.602881
0
LINE
8
BLACK
6
CONTINUOUS
10
0.74598
20
0.602881
11
0.743911
21
0.59835
0
LINE
8
BLACK
6
CONTINUOUS
10
0.743911
20
0.59835
11
0.740649
21
0.594585
0
LINE
8
BLACK
6
CONTINUOUS
10
0.740649
20
0.594585
11
0.739031
21
0.593546
0
LINE
8
BLACK
6
CONTINUOUS
10
0.739031
20
0.593546
11
0.739031
21
0.542762
0
LINE
8
BLACK
6
CONTINUOUS
10
0.739031
20
0.542762
11
0.874679
21
0.407115
0
LINE
8
BLACK
6
CONTINUOUS
10
0.874679
20
0.407115
11
0.875384
21
0.407322
0
LINE
8
BLACK
6
CONTINUOUS
10
0.875384
20
0.407322
11
0.880365
21
0.407322
0
LINE
8
BLACK
6
CONTINUOUS
10
0.880365
20
0.407322
11
0.885144
21
0.405919
0
LINE
8
BLACK
6
CONTINUOUS
10
0.885144
20
0.405919
11
0.889334
21
0.403226
0
LINE
8
BLACK
6
CONTINUOUS
10
0.889334
20
0.403226
11
0.892596
21
0.399461
0
LINE
8
BLACK
6
CONTINUOUS
10
0.892596
20
0.399461
11
0.894665
21
0.39493
0
LINE
8
BLACK
6
CONTINUOUS
10
0.894665
20
0.39493
11
0.895374
21
0.39
0
LINE
8
BLACK
6
CONTINUOUS
10
0.895374
20
0.39
11
0.894665
21
0.38507
0
LINE
8
BLACK
6
CONTINUOUS
10
0.894665
20
0.38507
11
0.892596
21
0.380539
0
LINE
8
BLACK
6
CONTINUOUS
10
0.892596
20
0.380539
11
0.889334
21
0.376774
0
LINE
8
BLACK
6
CONTINUOUS
10
0.889334
20
0.376774
11
0.887717
21
0.375735
0
LINE
8
BLACK
6
CONTINUOUS
10
0.887717
20
0.375735
11
0.887717
21
0.189374
0
LINE
8
BLACK
6
CONTINUOUS
10
0.887717
20
0.189374
11
0.887717
21
0.189374
0
LINE
8
BLACK
6
CONTINUOUS
10
0.887717
20
0.189374
11
0.887314
21
0.18735
0
LINE
8
BLACK
6
CONTINUOUS
10
0.887314
20
0.18735
11
0.886967
21
0.185608
0
LINE
8
BLACK
6
CONTINUOUS
10
0.886967
20
0.185608
11
0.884834
21
0.182414
0
LINE
8
BLACK
6
CONTINUOUS
10
0.884834
20
0.182414
11
0.884834
21
0.182414
0
LINE
8
BLACK
6
CONTINUOUS
10
0.884834
20
0.182414
11
0.88005
21
0.177631
0
LINE
8
BLACK
6
CONTINUOUS
10
0.88005
20
0.177631
11
0.8805
21
0.1745
0
LINE
8
BLACK
6
CONTINUOUS
10
0.8805
20
0.1745
11
0.879791
21
0.16957
0
LINE
8
BLACK
6
CONTINUOUS
10
0.879791
20
0.16957
11
0.877722
21
0.165039
0
LINE
8
BLACK
6
CONTINUOUS
10
0.877722
20
0.165039
11
0.87446
21
0.161274
0
LINE
8
BLACK
6
CONTINUOUS
10
0.87446
20
0.161274
11
0.87027
21
0.158581
0
LINE
8
BLACK
6
CONTINUOUS
10
0.87027
20
0.158581
11
0.865491
21
0.157178
0
LINE
8
BLACK
6
CONTINUOUS
10
0.865491
20
0.157178
11
0.860509
21
0.157178
0
LINE
8
BLACK
6
CONTINUOUS
10
0.860509
20
0.157178
11
0.85573
21
0.158581
0
LINE
8
BLACK
6
CONTINUOUS
10
0.85573
20
0.158581
11
0.85154
21
0.161274
0
LINE
8
BLACK
6
CONTINUOUS
10
0.85154
20
0.161274
11
0.848278
21
0.165039
0
LINE
8
BLACK
6
CONTINUOUS
10
0.848278
20
0.165039
11
0.846209
21
0.16957
0
LINE
8
BLACK
6
CONTINUOUS
10
0.846209
20
0.16957
11
0.8455
21
0.1745
0
LINE
8
BLACK
6
CONTINUOUS
10
0.8455
20
0.1745
11
0.846209
21
0.17943
0
LINE
8
BLACK
6
CONTINUOUS
10
0.846209
20
0.17943
11
0.848278
21
0.183961
0
LINE
8
BLACK
6
CONTINUOUS
10
0.848278
20
0.183961
11
0.85154
21
0.187726
0
LINE
8
BLACK
6
CONTINUOUS
10
0.85154
20
0.187726
11
0.85573
21
0.190419
0
LINE
8
BLACK
6
CONTINUOUS
10
0.85573
20
0.190419
11
0.860509
21
0.191822
0
LINE
8
BLACK
6
CONTINUOUS
10
0.860509
20
0.191822
11
0.865491
21
0.191822
0
LINE
8
BLACK
6
CONTINUOUS
10
0.865491
20
0.191822
11
0.866195
21
0.191615
0
LINE
8
BLACK
6
CONTINUOUS
10
0.866195
20
0.191615
11
0.868032
21
0.193451
0
LINE
8
BLACK
6
CONTINUOUS
10
0.868032
20
0.193451
11
0.868032
21
0.375735
0
LINE
8
BLACK
6
CONTINUOUS
10
0.868032
20
0.375735
11
0.866414
21
0.376774
0
LINE
8
BLACK
6
CONTINUOUS
10
0.866414
20
0.376774
11
0.863152
21
0.380539
0
LINE
8
BLACK
6
CONTINUOUS
10
0.863152
20
0.380539
11
0.861083
21
0.38507
0
LINE
8
BLACK
6
CONTINUOUS
10
0.861083
20
0.38507
11
0.860374
21
0.39
0
LINE
8
BLACK
6
CONTINUOUS
10
0.860374
20
0.39
11
0.860824
21
0.39313
0
LINE
8
BLACK
6
CONTINUOUS
10
0.860824
20
0.39313
11
0.722229
21
0.531725
0
LINE
8
BLACK
6
CONTINUOUS
10
0.722229
20
0.531725
11
0.720096
21
0.534919
0
LINE
8
BLACK
6
CONTINUOUS
10
0.720096
20
0.534919
11
0.719346
21
0.538685
0
LINE
8
BLACK
6
CONTINUOUS
10
0.719346
20
0.538685
11
0.719346
21
0.593546
0
LINE
8
BLACK
6
CONTINUOUS
10
0.719346
20
0.593546
11
0.717729
21
0.594585
0
LINE
8
BLACK
6
CONTINUOUS
10
0.717729
20
0.594585
11
0.714467
21
0.59835
0
LINE
8
BLACK
6
CONTINUOUS
10
0.714467
20
0.59835
11
0.712398
21
0.602881
0
LINE
8
BLACK
6
CONTINUOUS
10
0.712398
20
0.602881
11
0.711689
21
0.607811
0
LINE
8
BLACK
6
CONTINUOUS
10
0.711689
20
0.607811
11
0.712398
21
0.612741
0
LINE
8
BLACK
6
CONTINUOUS
10
0.712398
20
0.612741
11
0.714467
21
0.617272
0
LINE
8
BLACK
6
CONTINUOUS
10
0.714467
20
0.617272
11
0.717729
21
0.621037
0
LINE
8
BLACK
6
CONTINUOUS
10
0.717729
20
0.621037
11
0.721919
21
0.62373
0
LINE
8
BLACK
6
CONTINUOUS
10
0.721919
20
0.62373
11
0.726698
21
0.625133
0
LINE
8
BLACK
6
CONTINUOUS
10
0.726698
20
0.625133
11
0.731679
21
0.625133
0
LINE
8
BLACK
6
CONTINUOUS
10
0.731679
20
0.625133
11
0.736459
21
0.62373
0
LINE
8
BLACK
6
CONTINUOUS
10
0.84
20
0.759843
11
0.896526
21
0.759843
0
LINE
8
BLACK
6
CONTINUOUS
10
0.896526
20
0.759843
11
1.10358
21
0.759843
0
LINE
8
BLACK
6
CONTINUOUS
10
1.10358
20
0.759843
11
1.10735
21
0.759093
0
LINE
8
BLACK
6
CONTINUOUS
10
1.10735
20
0.759093
11
1.11054
21
0.75696
0
LINE
8
BLACK
6
CONTINUOUS
10
1.11054
20
0.75696
11
1.12799
21
0.739516
0
LINE
8
BLACK
6
CONTINUOUS
10
1.12799
20
0.739516
11
1.12869
21
0.739723
0
LINE
8
BLACK
6
CONTINUOUS
10
1.12869
20
0.739723
11
1.13367
21
0.739723
0
LINE
8
BLACK
6
CONTINUOUS
10
1.13367
20
0.739723
11
1.13845
21
0.73832
0
LINE
8
BLACK
6
CONTINUOUS
10
1.13845
20
0.73832
11
1.14264
21
0.735627
0
LINE
8
BLACK
6
CONTINUOUS
10
1.14264
20
0.735627
11
1.1459
21
0.731863
0
LINE
8
BLACK
6
CONTINUOUS
10
1.1459
20
0.731863
11
1.14797
21
0.727332
0
LINE
8
BLACK
6
CONTINUOUS
10
1.14797
20
0.727332
11
1.14868
21
0.722402
0
LINE
8
BLACK
6
CONTINUOUS
10
1.14868
20
0.722402
11
1.14797
21
0.717471
0
LINE
8
BLACK
6
CONTINUOUS
10
1.14797
20
0.717471
11
1.1459
21
0.71294
0
LINE
8
BLACK
6
CONTINUOUS
10
1.1459
20
0.71294
11
1.14264
21
0.709176
0
LINE
8
BLACK
6
CONTINUOUS
10
1.14264
20
0.709176
11
1.13845
21
0.706483
0
LINE
8
BLACK
6
CONTINUOUS
10
1.13845
20
0.706483
11
1.13367
21
0.70508
0
LINE
8
BLACK
6
CONTINUOUS
10
1.13367
20
0.70508
11
1.12869
21
0.70508
0
LINE
8
BLACK
6
CONTINUOUS
10
1.12869
20
0.70508
11
1.12391
21
0.706483
0
LINE
8
BLACK
6
CONTINUOUS
10
1.12391
20
0.706483
11
1.11972
21
0.709176
0
LINE
8
BLACK
6
CONTINUOUS
10
1.11972
20
0.709176
11
1.11646
21
0.71294
0
LINE
8
BLACK
6
CONTINUOUS
10
1.11646
20
0.71294
11
1.11439
21
0.717471
0
LINE
8
BLACK
6
CONTINUOUS
10
1.11439
20
0.717471
11
1.11368
21
0.722402
0
LINE
8
BLACK
6
CONTINUOUS
10
1.11368
20
0.722402
11
1.11413
21
0.725532
0
LINE
8
BLACK
6
CONTINUOUS
10
1.11413
20
0.725532
11
1.09951
21
0.740157
0
LINE
8
BLACK
6
CONTINUOUS
10
1.09951
20
0.740157
11
0.896526
21
0.740157
0
LINE
8
BLACK
6
CONTINUOUS
10
0.896526
20
0.740157
11
0.84
21
0.740157
0
LINE
8
BLACK
6
CONTINUOUS
10
0.84
20
0.740157
11
0.84
21
0.72
0
LINE
8
BLACK
6
CONTINUOUS
10
0.84
20
0.72
11
0.78
21
0.72
0
LINE
8
BLACK
6
CONTINUOUS
10
0.78
20
0.72
11
0.78
21
0.740157
0
LINE
8
BLACK
6
CONTINUOUS
10
0.78
20
0.740157
11
0.778077
21
0.740157
0
LINE
8
BLACK
6
CONTINUOUS
10
0.778077
20
0.740157
11
0.706743
21
0.668824
0
LINE
8
BLACK
6
CONTINUOUS
10
0.706743
20
0.668824
11
0.706743
21
0.668824
0
LINE
8
BLACK
6
CONTINUOUS
10
0.706743
20
0.668824
11
0.696843
21
0.658923
0
LINE
8
BLACK
6
CONTINUOUS
10
0.696843
20
0.658923
11
0.696843
21
0.547265
0
LINE
8
BLACK
6
CONTINUOUS
10
0.696843
20
0.547265
11
0.69846
21
0.546226
0
LINE
8
BLACK
6
CONTINUOUS
10
0.69846
20
0.546226
11
0.701722
21
0.542461
0
LINE
8
BLACK
6
CONTINUOUS
10
0.701722
20
0.542461
11
0.703791
21
0.53793
0
LINE
8
BLACK
6
CONTINUOUS
10
0.703791
20
0.53793
11
0.7045
21
0.533
0
LINE
8
BLACK
6
CONTINUOUS
10
0.7045
20
0.533
11
0.703791
21
0.52807
0
LINE
8
BLACK
6
CONTINUOUS
10
0.703791
20
0.52807
11
0.701722
21
0.523539
0
LINE
8
BLACK
6
CONTINUOUS
10
0.701722
20
0.523539
11
0.69846
21
0.519774
0
LINE
8
BLACK
6
CONTINUOUS
10
0.69846
20
0.519774
11
0.696843
21
0.518735
0
LINE
8
BLACK
6
CONTINUOUS
10
0.696843
20
0.518735
11
0.696843
21
0.467082
0
LINE
8
BLACK
6
CONTINUOUS
10
0.696843
20
0.467082
11
0.705799
21
0.458126
0
LINE
8
BLACK
6
CONTINUOUS
10
0.705799
20
0.458126
11
0.772019
21
0.391906
0
LINE
8
BLACK
6
CONTINUOUS
10
0.772019
20
0.391906
11
0.772724
21
0.392113
0
LINE
8
BLACK
6
CONTINUOUS
10
0.772724
20
0.392113
11
0.777705
21
0.392113
0
LINE
8
BLACK
6
CONTINUOUS
10
0.777705
20
0.392113
11
0.782484
21
0.390709
0
LINE
8
BLACK
6
CONTINUOUS
10
0.782484
20
0.390709
11
0.786675
21
0.388017
0
LINE
8
BLACK
6
CONTINUOUS
10
0.786675
20
0.388017
11
0.789936
21
0.384252
0
LINE
8
BLACK
6
CONTINUOUS
10
0.789936
20
0.384252
11
0.792006
21
0.379721
0
LINE
8
BLACK
6
CONTINUOUS
10
0.792006
20
0.379721
11
0.792714
21
0.374791
0
LINE
8
BLACK
6
CONTINUOUS
10
0.792714
20
0.374791
11
0.792006
21
0.369861
0
LINE
8
BLACK
6
CONTINUOUS
10
0.792006
20
0.369861
11
0.789936
21
0.36533
0
LINE
8
BLACK
6
CONTINUOUS
10
0.789936
20
0.36533
11
0.786675
21
0.361565
0
LINE
8
BLACK
6
CONTINUOUS
10
0.786675
20
0.361565
11
0.782484
21
0.358872
0
LINE
8
BLACK
6
CONTINUOUS
10
0.782484
20
0.358872
11
0.777705
21
0.357469
0
LINE
8
BLACK
6
CONTINUOUS
10
0.777705
20
0.357469
11
0.772724
21
0.357469
0
LINE
8
BLACK
6
CONTINUOUS
10
0.772724
20
0.357469
11
0.767945
21
0.358872
0
LINE
8
BLACK
6
CONTINUOUS
10
0.767945
20
0.358872
11
0.763754
21
0.361565
0
LINE
8
BLACK
6
CONTINUOUS
10
0.763754
20
0.361565
11
0.760493
21
0.36533
0
LINE
8
BLACK
6
CONTINUOUS
10
0.760493
20
0.36533
11
0.758423
21
0.369861
0
LINE
8
BLACK
6
CONTINUOUS
10
0.758423
20
0.369861
11
0.757714
21
0.374791
0
LINE
8
BLACK
6
CONTINUOUS
10
0.757714
20
0.374791
11
0.758165
21
0.377921
0
LINE
8
BLACK
6
CONTINUOUS
10
0.758165
20
0.377921
11
0.69188
21
0.444206
0
LINE
8
BLACK
6
CONTINUOUS
10
0.69188
20
0.444206
11
0.691879
21
0.444206
0
LINE
8
BLACK
6
CONTINUOUS
10
0.691879
20
0.444206
11
0.68004
21
0.456046
0
LINE
8
BLACK
6
CONTINUOUS
10
0.68004
20
0.456046
11
0.677907
21
0.459239
0
LINE
8
BLACK
6
CONTINUOUS
10
0.677907
20
0.459239
11
0.677157
21
0.463005
0
LINE
8
BLACK
6
CONTINUOUS
10
0.677157
20
0.463005
11
0.677157
21
0.518735
0
LINE
8
BLACK
6
CONTINUOUS
10
0.677157
20
0.518735
11
0.67554
21
0.519774
0
LINE
8
BLACK
6
CONTINUOUS
10
0.67554
20
0.519774
11
0.672278
21
0.523539
0
LINE
8
BLACK
6
CONTINUOUS
10
0.672278
20
0.523539
11
0.670209
21
0.52807
0
LINE
8
BLACK
6
CONTINUOUS
10
0.670209
20
0.52807
11
0.6695
21
0.533
0
LINE
8
BLACK
6
CONTINUOUS
10
0.6695
20
0.533
11
0.670209
21
0.53793
0
LINE
8
BLACK
6
CONTINUOUS
10
0.670209
20
0.53793
11
0.672278
21
0.542461
0
LINE
8
BLACK
6
CONTINUOUS
10
0.672278
20
0.542461
11
0.67554
21
0.546226
0
LINE
8
BLACK
6
CONTINUOUS
10
0.67554
20
0.546226
11
0.677157
21
0.547265
0
LINE
8
BLACK
6
CONTINUOUS
10
0.677157
20
0.547265
11
0.677157
21
0.663
0
LINE
8
BLACK
6
CONTINUOUS
10
0.677157
20
0.663
11
0.677907
21
0.666767
0
LINE
8
BLACK
6
CONTINUOUS
10
0.677907
20
0.666767
11
0.68004
21
0.66996
0
LINE
8
BLACK
6
CONTINUOUS
10
0.68004
20
0.66996
11
0.68004
21
0.66996
0
LINE
8
BLACK
6
CONTINUOUS
10
0.68004
20
0.66996
11
0.692824
21
0.682743
0
LINE
8
BLACK
6
CONTINUOUS
10
0.692824
20
0.682743
11
0.692824
21
0.682743
0
LINE
8
BLACK
6
CONTINUOUS
10
0.692824
20
0.682743
11
0.76704
21
0.75696
0
LINE
8
BLACK
6
CONTINUOUS
10
0.76704
20
0.75696
11
0.76704
21
0.75696
0
LINE
8
BLACK
6
CONTINUOUS
10
0.76704
20
0.75696
11
0.770233
21
0.759093
0
LINE
8
BLACK
6
CONTINUOUS
10
0.770233
20
0.759093
11
0.774
21
0.759843
0
LINE
8
BLACK
6
CONTINUOUS
10
0.774
20
0.759843
11
0.78
21
0.759843
0
LINE
8
BLACK
6
CONTINUOUS
10
0.78
20
0.759843
11
0.78
21
0.78
0
LINE
8
BLACK
6
CONTINUOUS
10
0.78
20
0.78
11
0.84
21
0.78
0
LINE
8
BLACK
6
CONTINUOUS
10
0.84
20
0.78
11
0.84
21
0.759843
0
LINE
8
BLACK
6
CONTINUOUS
10
0.84
20
0.62
11
0.78
21
0.62
0
LINE
8
BLACK
6
CONTINUOUS
10
0.78
20
0.62
11
0.78
21
0.68
0
LINE
8
BLACK
6
CONTINUOUS
10
0.78
20
0.68
11
0.84
21
0.68
0
LINE
8
BLACK
6
CONTINUOUS
10
0.84
20
0.68
11
0.84
21
0.62
0
LINE
8
BLACK
6
CONTINUOUS
10
0.405
20
0.345
11
0.345
21
0.345
0
LINE
8
BLACK
6
CONTINUOUS
10
0.345
20
0.345
11
0.345
21
0.405
0
LINE
8
BLACK
6
CONTINUOUS
10
0.345
20
0.405
11
0.405
21
0.405
0
LINE
8
BLACK
6
CONTINUOUS
10
0.405
20
0.405
11
0.405
21
0.345
0
LINE
8
BLACK
6
CONTINUOUS
10
0.605
20
0.345
11
0.545
21
0.345
0
LINE
8
BLACK
6
CONTINUOUS
10
0.545
20
0.345
11
0.545
21
0.405
0
LINE
8
BLACK
6
CONTINUOUS
10
0.545
20
0.405
11
0.605
21
0.405
0
LINE
8
BLACK
6
CONTINUOUS
10
0.605
20
0.405
11
0.605
21
0.345
0
LINE
8
BLACK
6
CONTINUOUS
10
1.609
20
0.434
11
1.549
21
0.434
0
LINE
8
BLACK
6
CONTINUOUS
10
1.549
20
0.434
11
1.549
21
0.494
0
LINE
8
BLACK
6
CONTINUOUS
10
1.549
20
0.494
11
1.609
21
0.494
0
LINE
8
BLACK
6
CONTINUOUS
10
1.609
20
0.494
11
1.609
21
0.434
0
LINE
8
BLACK
6
CONTINUOUS
10
1.709
20
0.434
11
1.649
21
0.434
0
LINE
8
BLACK
6
CONTINUOUS
10
1.649
20
0.434
11
1.649
21
0.494
0
LINE
8
BLACK
6
CONTINUOUS
10
1.649
20
0.494
11
1.709
21
0.494
0
LINE
8
BLACK
6
CONTINUOUS
10
1.709
20
0.494
11
1.709
21
0.434
0
LINE
8
BLACK
6
CONTINUOUS
10
1.78641
20
0.987267
11
1.78782
21
0.985319
0
LINE
8
BLACK
6
CONTINUOUS
10
1.78782
20
0.985319
11
1.78801
21
0.984114
0
LINE
8
BLACK
6
CONTINUOUS
10
1.78801
20
0.984114
11
1.78801
21
-0.184114
0
LINE
8
BLACK
6
CONTINUOUS
10
1.78801
20
-0.184114
11
1.78727
21
-0.186405
0
LINE
8
BLACK
6
CONTINUOUS
10
1.78727
20
-0.186405
11
1.78532
21
-0.187821
0
LINE
8
BLACK
6
CONTINUOUS
10
1.78532
20
-0.187821
11
1.78411
21
-0.188012
0
LINE
8
BLACK
6
CONTINUOUS
10
1.78411
20
-0.188012
11
-0.184114
21
-0.188012
0
LINE
8
BLACK
6
CONTINUOUS
10
-0.184114
20
-0.188012
11
-0.186405
21
-0.187267
0
LINE
8
BLACK
6
CONTINUOUS
10
-0.186405
20
-0.187267
11
-0.187821
21
-0.185319
0
LINE
8
BLACK
6
CONTINUOUS
10
-0.187821
20
-0.185319
11
-0.188012
21
-0.184114
0
LINE
8
BLACK
6
CONTINUOUS
10
-0.188012
20
-0.184114
11
-0.188012
21
-0.131915
0
LINE
8
BLACK
6
CONTINUOUS
10
-0.188012
20
-0.131915
11
-0.188012
21
0.219845
0
LINE
8
BLACK
6
CONTINUOUS
10
-0.188012
20
0.219845
11
-0.188012
21
0.343085
0
LINE
8
BLACK
6
CONTINUOUS
10
-0.188012
20
0.343085
11
-0.188012
21
0.418085
0
LINE
8
BLACK
6
CONTINUOUS
10
-0.188012
20
0.418085
11
-0.188012
21
0.533
0
LINE
8
BLACK
6
CONTINUOUS
10
-0.188012
20
0.533
11
-0.188012
21
0.984114
0
LINE
8
BLACK
6
CONTINUOUS
10
-0.188012
20
0.984114
11
-0.187267
21
0.986405
0
LINE
8
BLACK
6
CONTINUOUS
10
-0.187267
20
0.986405
11
-0.185319
21
0.987821
0
LINE
8
BLACK
6
CONTINUOUS
10
-0.185319
20
0.987821
11
-0.184114
21
0.988012
0
LINE
8
BLACK
6
CONTINUOUS
10
-0.184114
20
0.988012
11
1.78411
21
0.988012
0
LINE
8
BLACK
6
CONTINUOUS
10
1.78411
20
0.988012
11
1.78641
21
0.987267
0
LINE
8
BLACK
6
CONTINUOUS
10
0.922
20
-0.13
11
0.862
21
-0.13
0
LINE
8
BLACK
6
CONTINUOUS
10
0.862
20
-0.13
11
0.862
21
-0.07
0
LINE
8
BLACK
6
CONTINUOUS
10
0.862
20
-0.07
11
0.922
21
-0.07
0
LINE
8
BLACK
6
CONTINUOUS
10
0.922
20
-0.07
11
0.922
21
-0.13
0
LINE
8
BLACK
6
CONTINUOUS
10
1.022
20
-0.13
11
0.962
21
-0.13
0
LINE
8
BLACK
6
CONTINUOUS
10
0.962
20
-0.13
11
0.962
21
-0.07
0
LINE
8
BLACK
6
CONTINUOUS
10
0.962
20
-0.07
11
1.022
21
-0.07
0
LINE
8
BLACK
6
CONTINUOUS
10
1.022
20
-0.07
11
1.022
21
-0.13
0
LINE
8
BLACK
6
CONTINUOUS
10
1.122
20
-0.13
11
1.062
21
-0.13
0
LINE
8
BLACK
6
CONTINUOUS
10
1.062
20
-0.13
11
1.062
21
-0.07
0
LINE
8
BLACK
6
CONTINUOUS
10
1.062
20
-0.07
11
1.122
21
-0.07
0
LINE
8
BLACK
6
CONTINUOUS
10
1.122
20
-0.07
11
1.122
21
-0.13
0
LINE
8
BLACK
6
CONTINUOUS
10
0.922
20
-0.03
11
0.862
21
-0.03
0
LINE
8
BLACK
6
CONTINUOUS
10
0.862
20
-0.03
11
0.862
21
0.03
0
LINE
8
BLACK
6
CONTINUOUS
10
0.862
20
0.03
11
0.922
21
0.03
0
LINE
8
BLACK
6
CONTINUOUS
10
0.922
20
0.03
11
0.922
21
-0.03
0
LINE
8
BLACK
6
CONTINUOUS
10
1.022
20
-0.03
11
0.962
21
-0.03
0
LINE
8
BLACK
6
CONTINUOUS
10
0.962
20
-0.03
11
0.962
21
0.03
0
LINE
8
BLACK
6
CONTINUOUS
10
0.962
20
0.03
11
1.022
21
0.03
0
LINE
8
BLACK
6
CONTINUOUS
10
1.022
20
0.03
11
1.022
21
-0.03
0
LINE
8
BLACK
6
CONTINUOUS
10
1.122
20
-0.03
11
1.062
21
-0.03
0
LINE
8
BLACK
6
CONTINUOUS
10
1.062
20
-0.03
11
1.062
21
0.03
0
LINE
8
BLACK
6
CONTINUOUS
10
1.062
20
0.03
11
1.122
21
0.03
0
LINE
8
BLACK
6
CONTINUOUS
10
1.122
20
0.03
11
1.122
21
-0.03
0
LINE
8
BLACK
6
CONTINUOUS
10
0.777452
20
0.799952
11
0.775701
21
0.799763
0
LINE
8
BLACK
6
CONTINUOUS
10
0.775701
20
0.799763
11
0.772721
21
0.798652
0
LINE
8
BLACK
6
CONTINUOUS
10
0.772721
20
0.798652
11
0.770307
21
0.797752
0
LINE
8
BLACK
6
CONTINUOUS
10
0.770307
20
0.797752
11
0.770307
21
0.797751
0
LINE
8
BLACK
6
CONTINUOUS
10
0.770307
20
0.797751
11
0.770307
21
0.797751
0
LINE
8
BLACK
6
CONTINUOUS
10
0.770307
20
0.797751
11
0.765699
21
0.794302
0
LINE
8
BLACK
6
CONTINUOUS
10
0.765699
20
0.794302
11
0.765698
21
0.794301
0
LINE
8
BLACK
6
CONTINUOUS
10
0.765698
20
0.794301
11
0.762249
21
0.789693
0
LINE
8
BLACK
6
CONTINUOUS
10
0.762249
20
0.789693
11
0.762249
21
0.789693
0
LINE
8
BLACK
6
CONTINUOUS
10
0.762249
20
0.789693
11
0.762248
21
0.789693
0
LINE
8
BLACK
6
CONTINUOUS
10
0.762248
20
0.789693
11
0.761348
21
0.787279
0
LINE
8
BLACK
6
CONTINUOUS
10
0.761348
20
0.787279
11
0.760237
21
0.784299
0
LINE
8
BLACK
6
CONTINUOUS
10
0.760237
20
0.784299
11
0.75998
21
0.781915
0
LINE
8
BLACK
6
CONTINUOUS
10
0.75998
20
0.781915
11
0.75998
21
0.781915
0
LINE
8
BLACK
6
CONTINUOUS
10
0.75998
20
0.781915
11
0.75998
21
0.778623
0
LINE
8
BLACK
6
CONTINUOUS
10
0.75998
20
0.778623
11
0.759236
21
0.776332
0
LINE
8
BLACK
6
CONTINUOUS
10
0.759236
20
0.776332
11
0.758224
21
0.775367
0
LINE
8
BLACK
6
CONTINUOUS
10
0.758224
20
0.775367
11
0.757976
21
0.775203
0
LINE
8
BLACK
6
CONTINUOUS
10
0.757976
20
0.775203
11
0.757928
21
0.775173
0
LINE
8
BLACK
6
CONTINUOUS
10
0.757928
20
0.775173
11
0.755352
21
0.773584
0
LINE
8
BLACK
6
CONTINUOUS
10
0.755352
20
0.773584
11
0.755352
21
0.773584
0
LINE
8
BLACK
6
CONTINUOUS
10
0.755352
20
0.773584
11
0.755323
21
0.773554
0
LINE
8
BLACK
6
CONTINUOUS
10
0.755323
20
0.773554
11
0.754709
21
0.773055
0
LINE
8
BLACK
6
CONTINUOUS
10
0.754709
20
0.773055
11
0.754675
21
0.773032
0
LINE
8
BLACK
6
CONTINUOUS
10
0.754675
20
0.773032
11
0.754674
21
0.773031
0
LINE
8
BLACK
6
CONTINUOUS
10
0.754674
20
0.773031
11
0.752596
21
0.770829
0
LINE
8
BLACK
6
CONTINUOUS
10
0.752596
20
0.770829
11
0.752557
21
0.770788
0
LINE
8
BLACK
6
CONTINUOUS
10
0.752557
20
0.770788
11
0.681136
21
0.699367
0
LINE
8
BLACK
6
CONTINUOUS
10
0.681136
20
0.699367
11
0.667623
21
0.685855
0
LINE
8
BLACK
6
CONTINUOUS
10
0.667623
20
0.685855
11
0.667195
21
0.685485
0
LINE
8
BLACK
6
CONTINUOUS
10
0.667195
20
0.685485
11
0.666368
21
0.684869
0
LINE
8
BLACK
6
CONTINUOUS
10
0.666368
20
0.684869
11
0.666368
21
0.684869
0
LINE
8
BLACK
6
CONTINUOUS
10
0.666368
20
0.684869
11
0.665017
21
0.683259
0
LINE
8
BLACK
6
CONTINUOUS
10
0.665017
20
0.683259
11
0.664902
21
0.683134
0
LINE
8
BLACK
6
CONTINUOUS
10
0.664902
20
0.683134
11
0.664655
21
0.682886
0
LINE
8
BLACK
6
CONTINUOUS
10
0.664655
20
0.682886
11
0.663862
21
0.681884
0
LINE
8
BLACK
6
CONTINUOUS
10
0.663862
20
0.681884
11
0.663827
21
0.681841
0
LINE
8
BLACK
6
CONTINUOUS
10
0.663827
20
0.681841
11
0.661881
21
0.679521
0
LINE
8
BLACK
6
CONTINUOUS
10
0.661881
20
0.679521
11
0.66188
21
0.679521
0
LINE
8
BLACK
6
CONTINUOUS
10
0.66188
20
0.679521
11
0.661862
21
0.679484
0
LINE
8
BLACK
6
CONTINUOUS
10
0.661862
20
0.679484
11
0.661437
21
0.678817
0
LINE
8
BLACK
6
CONTINUOUS
10
0.661437
20
0.678817
11
0.661411
21
0.678784
0
LINE
8
BLACK
6
CONTINUOUS
10
0.661411
20
0.678784
11
0.661411
21
0.678784
0
LINE
8
BLACK
6
CONTINUOUS
10
0.661411
20
0.678784
11
0.660131
21
0.676038
0
LINE
8
BLACK
6
CONTINUOUS
10
0.660131
20
0.676038
11
0.660106
21
0.675988
0
LINE
8
BLACK
6
CONTINUOUS
10
0.660106
20
0.675988
11
0.658748
21
0.673283
0
LINE
8
BLACK
6
CONTINUOUS
10
0.658748
20
0.673283
11
0.658748
21
0.673283
0
LINE
8
BLACK
6
CONTINUOUS
10
0.658748
20
0.673283
11
0.658738
21
0.673242
0
LINE
8
BLACK
6
CONTINUOUS
10
0.658738
20
0.673242
11
0.658478
21
0.672495
0
LINE
8
BLACK
6
CONTINUOUS
10
0.658478
20
0.672495
11
0.65846
21
0.672457
0
LINE
8
BLACK
6
CONTINUOUS
10
0.65846
20
0.672457
11
0.65846
21
0.672457
0
LINE
8
BLACK
6
CONTINUOUS
10
0.65846
20
0.672457
11
0.657848
21
0.66949
0
LINE
8
BLACK
6
CONTINUOUS
10
0.657848
20
0.66949
11
0.657836
21
0.669435
0
LINE
8
BLACK
6
CONTINUOUS
10
0.657836
20
0.669435
11
0.657138
21
0.66649
0
LINE
8
BLACK
6
CONTINUOUS
10
0.657138
20
0.66649
11
0.657138
21
0.666449
0
LINE
8
BLACK
6
CONTINUOUS
10
0.657138
20
0.666449
11
0.657057
21
0.665661
0
LINE
8
BLACK
6
CONTINUOUS
10
0.657057
20
0.665661
11
0.657049
21
0.66562
0
LINE
8
BLACK
6
CONTINUOUS
10
0.657049
20
0.66562
11
0.657137
21
0.662592
0
LINE
8
BLACK
6
CONTINUOUS
10
0.657137
20
0.662592
11
0.657138
21
0.662536
0
LINE
8
BLACK
6
CONTINUOUS
10
0.657138
20
0.662536
11
0.657138
21
0.55715
0
LINE
8
BLACK
6
CONTINUOUS
10
0.657138
20
0.55715
11
0.656393
21
0.554859
0
LINE
8
BLACK
6
CONTINUOUS
10
0.656393
20
0.554859
11
0.656253
21
0.554677
0
LINE
8
BLACK
6
CONTINUOUS
10
0.656253
20
0.554677
11
0.655653
21
0.553946
0
LINE
8
BLACK
6
CONTINUOUS
10
0.655653
20
0.553946
11
0.652169
21
0.547428
0
LINE
8
BLACK
6
CONTINUOUS
10
0.652169
20
0.547428
11
0.652169
21
0.547427
0
LINE
8
BLACK
6
CONTINUOUS
10
0.652169
20
0.547427
11
0.650023
21
0.540355
0
LINE
8
BLACK
6
CONTINUOUS
10
0.650023
20
0.540355
11
0.650023
21
0.540355
0
LINE
8
BLACK
6
CONTINUOUS
10
0.650023
20
0.540355
11
0.649299
21
0.533
0
LINE
8
BLACK
6
CONTINUOUS
10
0.649299
20
0.533
11
0.649299
21
0.533
0
LINE
8
BLACK
6
CONTINUOUS
10
0.649299
20
0.533
11
0.650023
21
0.525645
0
LINE
8
BLACK
6
CONTINUOUS
10
0.650023
20
0.525645
11
0.650023
21
0.525645
0
LINE
8
BLACK
6
CONTINUOUS
10
0.650023
20
0.525645
11
0.651933
21
0.51935
0
LINE
8
BLACK
6
CONTINUOUS
10
0.651933
20
0.51935
11
0.652169
21
0.518572
0
LINE
8
BLACK
6
CONTINUOUS
10
0.652169
20
0.518572
11
0.652169
21
0.518572
0
LINE
8
BLACK
6
CONTINUOUS
10
0.652169
20
0.518572
11
0.652169
21
0.518572
0
LINE
8
BLACK
6
CONTINUOUS
10
0.652169
20
0.518572
11
0.655653
21
0.512054
0
LINE
8
BLACK
6
CONTINUOUS
10
0.655653
20
0.512054
11
0.655653
21
0.512054
0
LINE
8
BLACK
6
CONTINUOUS
10
0.655653
20
0.512054
11
0.656253
21
0.511323
0
LINE
8
BLACK
6
CONTINUOUS
10
0.656253
20
0.511323
11
0.657131
21
0.50908
0
LINE
8
BLACK
6
CONTINUOUS
10
0.657131
20
0.50908
11
0.657138
21
0.50885
0
LINE
8
BLACK
6
CONTINUOUS
10
0.657138
20
0.50885
11
0.657138
21
0.465465
0
LINE
8
BLACK
6
CONTINUOUS
10
0.657138
20
0.465465
11
0.657097
21
0.4649
0
LINE
8
BLACK
6
CONTINUOUS
10
0.657097
20
0.4649
11
0.656947
21
0.46388
0
LINE
8
BLACK
6
CONTINUOUS
10
0.656947
20
0.46388
11
0.65713
21
0.461786
0
LINE
8
BLACK
6
CONTINUOUS
10
0.65713
20
0.461786
11
0.657138
21
0.461616
0
LINE
8
BLACK
6
CONTINUOUS
10
0.657138
20
0.461616
11
0.657138
21
0.461266
0
LINE
8
BLACK
6
CONTINUOUS
10
0.657138
20
0.461266
11
0.657286
21
0.459997
0
LINE
8
BLACK
6
CONTINUOUS
10
0.657286
20
0.459997
11
0.657292
21
0.459942
0
LINE
8
BLACK
6
CONTINUOUS
10
0.657292
20
0.459942
11
0.657393
21
0.45878
0
LINE
8
BLACK
6
CONTINUOUS
10
0.657393
20
0.45878
11
0.657556
21
0.456926
0
LINE
8
BLACK
6
CONTINUOUS
10
0.657556
20
0.456926
11
0.657569
21
0.456886
0
LINE
8
BLACK
6
CONTINUOUS
10
0.657569
20
0.456886
11
0.65774
21
0.456113
0
LINE
8
BLACK
6
CONTINUOUS
10
0.65774
20
0.456113
11
0.657745
21
0.456072
0
LINE
8
BLACK
6
CONTINUOUS
10
0.657745
20
0.456072
11
0.658781
21
0.453226
0
LINE
8
BLACK
6
CONTINUOUS
10
0.658781
20
0.453226
11
0.658799
21
0.453174
0
LINE
8
BLACK
6
CONTINUOUS
10
0.658799
20
0.453174
11
0.659441
21
0.451235
0
LINE
8
BLACK
6
CONTINUOUS
10
0.659441
20
0.451235
11
0.659751
21
0.450299
0
LINE
8
BLACK
6
CONTINUOUS
10
0.659751
20
0.450299
11
0.659752
21
0.450299
0
LINE
8
BLACK
6
CONTINUOUS
10
0.659752
20
0.450299
11
0.659773
21
0.450264
0
LINE
8
BLACK
6
CONTINUOUS
10
0.659773
20
0.450264
11
0.660118
21
0.449551
0
LINE
8
BLACK
6
CONTINUOUS
10
0.660118
20
0.449551
11
0.660132
21
0.449512
0
LINE
8
BLACK
6
CONTINUOUS
10
0.660132
20
0.449512
11
0.660133
21
0.449512
0
LINE
8
BLACK
6
CONTINUOUS
10
0.660133
20
0.449512
11
0.661797
21
0.446982
0
LINE
8
BLACK
6
CONTINUOUS
10
0.661797
20
0.446982
11
0.661827
21
0.446934
0
LINE
8
BLACK
6
CONTINUOUS
10
0.661827
20
0.446934
11
0.663416
21
0.444358
0
LINE
8
BLACK
6
CONTINUOUS
10
0.663416
20
0.444358
11
0.663416
21
0.444358
0
LINE
8
BLACK
6
CONTINUOUS
10
0.663416
20
0.444358
11
0.663446
21
0.444328
0
LINE
8
BLACK
6
CONTINUOUS
10
0.663446
20
0.444328
11
0.663945
21
0.443715
0
LINE
8
BLACK
6
CONTINUOUS
10
0.663945
20
0.443715
11
0.663968
21
0.44368
0
LINE
8
BLACK
6
CONTINUOUS
10
0.663968
20
0.44368
11
0.666171
21
0.441602
0
LINE
8
BLACK
6
CONTINUOUS
10
0.666171
20
0.441602
11
0.666212
21
0.441562
0
LINE
8
BLACK
6
CONTINUOUS
10
0.666212
20
0.441562
11
0.737022
21
0.370752
0
LINE
8
BLACK
6
CONTINUOUS
10
0.737022
20
0.370752
11
0.738116
21
0.368605
0
LINE
8
BLACK
6
CONTINUOUS
10
0.738116
20
0.368605
11
0.738145
21
0.368378
0
LINE
8
BLACK
6
CONTINUOUS
10
0.738145
20
0.368378
11
0.738238
21
0.367436
0
LINE
8
BLACK
6
CONTINUOUS
10
0.738238
20
0.367436
11
0.738238
21
0.367436
0
LINE
8
BLACK
6
CONTINUOUS
10
0.738238
20
0.367436
11
0.740147
21
0.361141
0
LINE
8
BLACK
6
CONTINUOUS
10
0.740147
20
0.361141
11
0.740383
21
0.360363
0
LINE
8
BLACK
6
CONTINUOUS
10
0.740383
20
0.360363
11
0.743867
21
0.353845
0
LINE
8
BLACK
6
CONTINUOUS
10
0.743867
20
0.353845
11
0.748556
21
0.348132
0
LINE
8
BLACK
6
CONTINUOUS
10
0.748556
20
0.348132
11
0.754269
21
0.343444
0
LINE
8
BLACK
6
CONTINUOUS
10
0.754269
20
0.343444
11
0.760787
21
0.33996
0
LINE
8
BLACK
6
CONTINUOUS
10
0.760787
20
0.33996
11
0.76595
21
0.338393
0
LINE
8
BLACK
6
CONTINUOUS
10
0.76595
20
0.338393
11
0.767859
21
0.337814
0
LINE
8
BLACK
6
CONTINUOUS
10
0.767859
20
0.337814
11
0.767859
21
0.337814
0
LINE
8
BLACK
6
CONTINUOUS
10
0.767859
20
0.337814
11
0.775214
21
0.33709
0
LINE
8
BLACK
6
CONTINUOUS
10
0.775214
20
0.33709
11
0.775214
21
0.33709
0
LINE
8
BLACK
6
CONTINUOUS
10
0.775214
20
0.33709
11
0.775215
21
0.33709
0
LINE
8
BLACK
6
CONTINUOUS
10
0.775215
20
0.33709
11
0.782569
21
0.337814
0
LINE
8
BLACK
6
CONTINUOUS
10
0.782569
20
0.337814
11
0.78257
21
0.337814
0
LINE
8
BLACK
6
CONTINUOUS
10
0.78257
20
0.337814
11
0.78257
21
0.337814
0
LINE
8
BLACK
6
CONTINUOUS
10
0.78257
20
0.337814
11
0.789642
21
0.33996
0
LINE
8
BLACK
6
CONTINUOUS
10
0.789642
20
0.33996
11
0.79616
21
0.343444
0
LINE
8
BLACK
6
CONTINUOUS
10
0.79616
20
0.343444
11
0.801873
21
0.348132
0
LINE
8
BLACK
6
CONTINUOUS
10
0.801873
20
0.348132
11
0.806562
21
0.353845
0
LINE
8
BLACK
6
CONTINUOUS
10
0.806562
20
0.353845
11
0.810046
21
0.360363
0
LINE
8
BLACK
6
CONTINUOUS
10
0.810046
20
0.360363
11
0.812191
21
0.367436
0
LINE
8
BLACK
6
CONTINUOUS
10
0.812191
20
0.367436
11
0.812191
21
0.367436
0
LINE
8
BLACK
6
CONTINUOUS
10
0.812191
20
0.367436
11
0.812916
21
0.374791
0
LINE
8
BLACK
6
CONTINUOUS
10
0.812916
20
0.374791
11
0.812916
21
0.374791
0
LINE
8
BLACK
6
CONTINUOUS
10
0.812916
20
0.374791
11
0.812191
21
0.382146
0
LINE
8
BLACK
6
CONTINUOUS
10
0.812191
20
0.382146
11
0.812191
21
0.382146
0
LINE
8
BLACK
6
CONTINUOUS
10
0.812191
20
0.382146
11
0.811612
21
0.384056
0
LINE
8
BLACK
6
CONTINUOUS
10
0.811612
20
0.384056
11
0.810046
21
0.389219
0
LINE
8
BLACK
6
CONTINUOUS
10
0.810046
20
0.389219
11
0.806562
21
0.395737
0
LINE
8
BLACK
6
CONTINUOUS
10
0.806562
20
0.395737
11
0.801873
21
0.40145
0
LINE
8
BLACK
6
CONTINUOUS
10
0.801873
20
0.40145
11
0.796696
21
0.405698
0
LINE
8
BLACK
6
CONTINUOUS
10
0.796696
20
0.405698
11
0.79616
21
0.406138
0
LINE
8
BLACK
6
CONTINUOUS
10
0.79616
20
0.406138
11
0.789642
21
0.409622
0
LINE
8
BLACK
6
CONTINUOUS
10
0.789642
20
0.409622
11
0.789642
21
0.409622
0
LINE
8
BLACK
6
CONTINUOUS
10
0.789642
20
0.409622
11
0.789642
21
0.409622
0
LINE
8
BLACK
6
CONTINUOUS
10
0.789642
20
0.409622
11
0.787386
21
0.410307
0
LINE
8
BLACK
6
CONTINUOUS
10
0.787386
20
0.410307
11
0.78257
21
0.411768
0
LINE
8
BLACK
6
CONTINUOUS
10
0.78257
20
0.411768
11
0.781627
21
0.411861
0
LINE
8
BLACK
6
CONTINUOUS
10
0.781627
20
0.411861
11
0.779421
21
0.412826
0
LINE
8
BLACK
6
CONTINUOUS
10
0.779421
20
0.412826
11
0.779254
21
0.412983
0
LINE
8
BLACK
6
CONTINUOUS
10
0.779254
20
0.412983
11
0.718004
21
0.474233
0
LINE
8
BLACK
6
CONTINUOUS
10
0.718004
20
0.474233
11
0.71691
21
0.476379
0
LINE
8
BLACK
6
CONTINUOUS
10
0.71691
20
0.476379
11
0.716862
21
0.476989
0
LINE
8
BLACK
6
CONTINUOUS
10
0.716862
20
0.476989
11
0.716862
21
0.499371
0
LINE
8
BLACK
6
CONTINUOUS
10
0.716862
20
0.499371
11
0.717607
21
0.501662
0
LINE
8
BLACK
6
CONTINUOUS
10
0.717607
20
0.501662
11
0.719555
21
0.503077
0
LINE
8
BLACK
6
CONTINUOUS
10
0.719555
20
0.503077
11
0.721964
21
0.503077
0
LINE
8
BLACK
6
CONTINUOUS
10
0.721964
20
0.503077
11
0.723516
21
0.502127
0
LINE
8
BLACK
6
CONTINUOUS
10
0.723516
20
0.502127
11
0.839682
21
0.385961
0
LINE
8
BLACK
6
CONTINUOUS
10
0.839682
20
0.385961
11
0.840775
21
0.383815
0
LINE
8
BLACK
6
CONTINUOUS
10
0.840775
20
0.383815
11
0.840804
21
0.383587
0
LINE
8
BLACK
6
CONTINUOUS
10
0.840804
20
0.383587
11
0.840897
21
0.382645
0
LINE
8
BLACK
6
CONTINUOUS
10
0.840897
20
0.382645
11
0.840897
21
0.382645
0
LINE
8
BLACK
6
CONTINUOUS
10
0.840897
20
0.382645
11
0.842807
21
0.37635
0
LINE
8
BLACK
6
CONTINUOUS
10
0.842807
20
0.37635
11
0.843043
21
0.375572
0
LINE
8
BLACK
6
CONTINUOUS
10
0.843043
20
0.375572
11
0.843043
21
0.375572
0
LINE
8
BLACK
6
CONTINUOUS
10
0.843043
20
0.375572
11
0.843043
21
0.375572
0
LINE
8
BLACK
6
CONTINUOUS
10
0.843043
20
0.375572
11
0.846527
21
0.369054
0
LINE
8
BLACK
6
CONTINUOUS
10
0.846527
20
0.369054
11
0.846527
21
0.369054
0
LINE
8
BLACK
6
CONTINUOUS
10
0.846527
20
0.369054
11
0.847127
21
0.368323
0
LINE
8
BLACK
6
CONTINUOUS
10
0.847127
20
0.368323
11
0.848005
21
0.36608
0
LINE
8
BLACK
6
CONTINUOUS
10
0.848005
20
0.36608
11
0.848012
21
0.36585
0
LINE
8
BLACK
6
CONTINUOUS
10
0.848012
20
0.36585
11
0.848012
21
0.211368
0
LINE
8
BLACK
6
CONTINUOUS
10
0.848012
20
0.211368
11
0.847268
21
0.209077
0
LINE
8
BLACK
6
CONTINUOUS
10
0.847268
20
0.209077
11
0.845952
21
0.207931
0
LINE
8
BLACK
6
CONTINUOUS
10
0.845952
20
0.207931
11
0.842054
21
0.205847
0
LINE
8
BLACK
6
CONTINUOUS
10
0.842054
20
0.205847
11
0.836341
21
0.201159
0
LINE
8
BLACK
6
CONTINUOUS
10
0.836341
20
0.201159
11
0.836341
21
0.201159
0
LINE
8
BLACK
6
CONTINUOUS
10
0.836341
20
0.201159
11
0.831653
21
0.195446
0
LINE
8
BLACK
6
CONTINUOUS
10
0.831653
20
0.195446
11
0.828169
21
0.188928
0
LINE
8
BLACK
6
CONTINUOUS
10
0.828169
20
0.188928
11
0.828169
21
0.188927
0
LINE
8
BLACK
6
CONTINUOUS
10
0.828169
20
0.188927
11
0.826023
21
0.181855
0
LINE
8
BLACK
6
CONTINUOUS
10
0.826023
20
0.181855
11
0.826023
21
0.181855
0
LINE
8
BLACK
6
CONTINUOUS
10
0.826023
20
0.181855
11
0.825299
21
0.1745
0
LINE
8
BLACK
6
CONTINUOUS
10
0.825299
20
0.1745
11
0.825299
21
0.1745
0
LINE
8
BLACK
6
CONTINUOUS
10
0.825299
20
0.1745
11
0.826023
21
0.167145
0
LINE
8
BLACK
6
CONTINUOUS
10
0.826023
20
0.167145
11
0.826023
21
0.167145
0
LINE
8
BLACK
6
CONTINUOUS
10
0.826023
20
0.167145
11
0.827933
21
0.16085
0
LINE
8
BLACK
6
CONTINUOUS
10
0.827933
20
0.16085
11
0.828169
21
0.160072
0
LINE
8
BLACK
6
CONTINUOUS
10
0.828169
20
0.160072
11
0.831653
21
0.153554
0
LINE
8
BLACK
6
CONTINUOUS
10
0.831653
20
0.153554
11
0.836341
21
0.147841
0
LINE
8
BLACK
6
CONTINUOUS
10
0.836341
20
0.147841
11
0.842054
21
0.143153
0
LINE
8
BLACK
6
CONTINUOUS
10
0.842054
20
0.143153
11
0.848572
21
0.139669
0
LINE
8
BLACK
6
CONTINUOUS
10
0.848572
20
0.139669
11
0.853735
21
0.138103
0
LINE
8
BLACK
6
CONTINUOUS
10
0.853735
20
0.138103
11
0.855645
21
0.137523
0
LINE
8
BLACK
6
CONTINUOUS
10
0.855645
20
0.137523
11
0.855645
21
0.137523
0
LINE
8
BLACK
6
CONTINUOUS
10
0.855645
20
0.137523
11
0.863
21
0.136799
0
LINE
8
BLACK
6
CONTINUOUS
10
0.863
20
0.136799
11
0.863
21
0.136799
0
LINE
8
BLACK
6
CONTINUOUS
10
0.863
20
0.136799
11
0.863
21
0.136799
0
LINE
8
BLACK
6
CONTINUOUS
10
0.863
20
0.136799
11
0.870355
21
0.137523
0
LINE
8
BLACK
6
CONTINUOUS
10
0.870355
20
0.137523
11
0.870355
21
0.137523
0
LINE
8
BLACK
6
CONTINUOUS
10
0.870355
20
0.137523
11
0.870355
21
0.137523
0
LINE
8
BLACK
6
CONTINUOUS
10
0.870355
20
0.137523
11
0.877428
21
0.139669
0
LINE
8
BLACK
6
CONTINUOUS
10
0.877428
20
0.139669
11
0.883946
21
0.143153
0
LINE
8
BLACK
6
CONTINUOUS
10
0.883946
20
0.143153
11
0.889659
21
0.147841
0
LINE
8
BLACK
6
CONTINUOUS
10
0.889659
20
0.147841
11
0.894347
21
0.153554
0
LINE
8
BLACK
6
CONTINUOUS
10
0.894347
20
0.153554
11
0.897831
21
0.160072
0
LINE
8
BLACK
6
CONTINUOUS
10
0.897831
20
0.160072
11
0.899977
21
0.167145
0
LINE
8
BLACK
6
CONTINUOUS
10
0.899977
20
0.167145
11
0.900094
21
0.168332
0
LINE
8
BLACK
6
CONTINUOUS
10
0.900094
20
0.168332
11
0.900915
21
0.170368
0
LINE
8
BLACK
6
CONTINUOUS
10
0.900915
20
0.170368
11
0.901013
21
0.170491
0
LINE
8
BLACK
6
CONTINUOUS
10
0.901013
20
0.170491
11
0.901046
21
0.170533
0
LINE
8
BLACK
6
CONTINUOUS
10
0.901046
20
0.170533
11
0.902993
21
0.172853
0
LINE
8
BLACK
6
CONTINUOUS
10
0.902993
20
0.172853
11
0.903012
21
0.172889
0
LINE
8
BLACK
6
CONTINUOUS
10
0.903012
20
0.172889
11
0.903438
21
0.173559
0
LINE
8
BLACK
6
CONTINUOUS
10
0.903438
20
0.173559
11
0.903463
21
0.17359
0
LINE
8
BLACK
6
CONTINUOUS
10
0.903463
20
0.17359
11
0.904743
21
0.176335
0
LINE
8
BLACK
6
CONTINUOUS
10
0.904743
20
0.176335
11
0.904768
21
0.176386
0
LINE
8
BLACK
6
CONTINUOUS
10
0.904768
20
0.176386
11
0.904805
21
0.17646
0
LINE
8
BLACK
6
CONTINUOUS
10
0.904805
20
0.17646
11
0.906126
21
0.179091
0
LINE
8
BLACK
6
CONTINUOUS
10
0.906126
20
0.179091
11
0.906136
21
0.179131
0
LINE
8
BLACK
6
CONTINUOUS
10
0.906136
20
0.179131
11
0.906396
21
0.17988
0
LINE
8
BLACK
6
CONTINUOUS
10
0.906396
20
0.17988
11
0.906414
21
0.179917
0
LINE
8
BLACK
6
CONTINUOUS
10
0.906414
20
0.179917
11
0.907026
21
0.182884
0
LINE
8
BLACK
6
CONTINUOUS
10
0.907026
20
0.182884
11
0.907039
21
0.18294
0
LINE
8
BLACK
6
CONTINUOUS
10
0.907039
20
0.18294
11
0.907736
21
0.185884
0
LINE
8
BLACK
6
CONTINUOUS
10
0.907736
20
0.185884
11
0.907736
21
0.185925
0
LINE
8
BLACK
6
CONTINUOUS
10
0.907736
20
0.185925
11
0.907817
21
0.186713
0
LINE
8
BLACK
6
CONTINUOUS
10
0.907817
20
0.186713
11
0.907825
21
0.186754
0
LINE
8
BLACK
6
CONTINUOUS
10
0.907825
20
0.186754
11
0.907737
21
0.189782
0
LINE
8
BLACK
6
CONTINUOUS
10
0.907737
20
0.189782
11
0.907736
21
0.189839
0
LINE
8
BLACK
6
CONTINUOUS
10
0.907736
20
0.189839
11
0.907736
21
0.36585
0
LINE
8
BLACK
6
CONTINUOUS
10
0.907736
20
0.36585
11
0.908481
21
0.368141
0
LINE
8
BLACK
6
CONTINUOUS
10
0.908481
20
0.368141
11
0.908621
21
0.368323
0
LINE
8
BLACK
6
CONTINUOUS
10
0.908621
20
0.368323
11
0.908853
21
0.368605
0
LINE
8
BLACK
6
CONTINUOUS
10
0.908853
20
0.368605
11
0.909221
21
0.369054
0
LINE
8
BLACK
6
CONTINUOUS
10
0.909221
20
0.369054
11
0.912705
21
0.375572
0
LINE
8
BLACK
6
CONTINUOUS
10
0.912705
20
0.375572
11
0.914851
21
0.382645
0
LINE
8
BLACK
6
CONTINUOUS
10
0.914851
20
0.382645
11
0.914851
21
0.382645
0
LINE
8
BLACK
6
CONTINUOUS
10
0.914851
20
0.382645
11
0.915575
21
0.39
0
LINE
8
BLACK
6
CONTINUOUS
10
0.915575
20
0.39
11
0.915575
21
0.39
0
LINE
8
BLACK
6
CONTINUOUS
10
0.915575
20
0.39
11
0.914851
21
0.397355
0
LINE
8
BLACK
6
CONTINUOUS
10
0.914851
20
0.397355
11
0.914851
21
0.397355
0
LINE
8
BLACK
6
CONTINUOUS
10
0.914851
20
0.397355
11
0.913609
21
0.40145
0
LINE
8
BLACK
6
CONTINUOUS
10
0.913609
20
0.40145
11
0.912705
21
0.404428
0
LINE
8
BLACK
6
CONTINUOUS
10
0.912705
20
0.404428
11
0.909221
21
0.410946
0
LINE
8
BLACK
6
CONTINUOUS
10
0.909221
20
0.410946
11
0.904533
21
0.416659
0
LINE
8
BLACK
6
CONTINUOUS
10
0.904533
20
0.416659
11
0.89882
21
0.421347
0
LINE
8
BLACK
6
CONTINUOUS
10
0.89882
20
0.421347
11
0.89882
21
0.421347
0
LINE
8
BLACK
6
CONTINUOUS
10
0.89882
20
0.421347
11
0.892302
21
0.424831
0
LINE
8
BLACK
6
CONTINUOUS
10
0.892302
20
0.424831
11
0.892302
21
0.424831
0
LINE
8
BLACK
6
CONTINUOUS
10
0.892302
20
0.424831
11
0.892302
21
0.424831
0
LINE
8
BLACK
6
CONTINUOUS
10
0.892302
20
0.424831
11
0.890612
21
0.425344
0
LINE
8
BLACK
6
CONTINUOUS
10
0.890612
20
0.425344
11
0.885229
21
0.426977
0
LINE
8
BLACK
6
CONTINUOUS
10
0.885229
20
0.426977
11
0.884287
21
0.42707
0
LINE
8
BLACK
6
CONTINUOUS
10
0.884287
20
0.42707
11
0.88208
21
0.428035
0
LINE
8
BLACK
6
CONTINUOUS
10
0.88208
20
0.428035
11
0.881913
21
0.428192
0
LINE
8
BLACK
6
CONTINUOUS
10
0.881913
20
0.428192
11
0.87802
21
0.432085
0
LINE
8
BLACK
6
CONTINUOUS
10
0.87802
20
0.432085
11
0.760193
21
0.549913
0
LINE
8
BLACK
6
CONTINUOUS
10
0.760193
20
0.549913
11
0.759099
21
0.552059
0
LINE
8
BLACK
6
CONTINUOUS
10
0.759099
20
0.552059
11
0.759051
21
0.552669
0
LINE
8
BLACK
6
CONTINUOUS
10
0.759051
20
0.552669
11
0.759051
21
0.583661
0
LINE
8
BLACK
6
CONTINUOUS
10
0.759051
20
0.583661
11
0.759796
21
0.585952
0
LINE
8
BLACK
6
CONTINUOUS
10
0.759796
20
0.585952
11
0.759936
21
0.586134
0
LINE
8
BLACK
6
CONTINUOUS
10
0.759936
20
0.586134
11
0.760536
21
0.586865
0
LINE
8
BLACK
6
CONTINUOUS
10
0.760536
20
0.586865
11
0.76402
21
0.593383
0
LINE
8
BLACK
6
CONTINUOUS
10
0.76402
20
0.593383
11
0.765871
21
0.599483
0
LINE
8
BLACK
6
CONTINUOUS
10
0.765871
20
0.599483
11
0.767248
21
0.60146
0
LINE
8
BLACK
6
CONTINUOUS
10
0.767248
20
0.60146
11
0.769524
21
0.602249
0
LINE
8
BLACK
6
CONTINUOUS
10
0.769524
20
0.602249
11
0.770963
21
0.602004
0
LINE
8
BLACK
6
CONTINUOUS
10
0.770963
20
0.602004
11
0.775701
21
0.600237
0
LINE
8
BLACK
6
CONTINUOUS
10
0.775701
20
0.600237
11
0.778085
21
0.59998
0
LINE
8
BLACK
6
CONTINUOUS
10
0.778085
20
0.59998
11
0.778085
21
0.59998
0
LINE
8
BLACK
6
CONTINUOUS
10
0.778085
20
0.59998
11
0.841915
21
0.59998
0
LINE
8
BLACK
6
CONTINUOUS
10
0.841915
20
0.59998
11
0.841915
21
0.59998
0
LINE
8
BLACK
6
CONTINUOUS
10
0.841915
20
0.59998
11
0.844299
21
0.600237
0
LINE
8
BLACK
6
CONTINUOUS
10
0.844299
20
0.600237
11
0.849693
21
0.602248
0
LINE
8
BLACK
6
CONTINUOUS
10
0.849693
20
0.602248
11
0.854302
21
0.605698
0
LINE
8
BLACK
6
CONTINUOUS
10
0.854302
20
0.605698
11
0.857752
21
0.610307
0
LINE
8
BLACK
6
CONTINUOUS
10
0.857752
20
0.610307
11
0.859763
21
0.615701
0
LINE
8
BLACK
6
CONTINUOUS
10
0.859763
20
0.615701
11
0.86002
21
0.618085
0
LINE
8
BLACK
6
CONTINUOUS
10
0.86002
20
0.618085
11
0.86002
21
0.681915
0
LINE
8
BLACK
6
CONTINUOUS
10
0.86002
20
0.681915
11
0.859763
21
0.684299
0
LINE
8
BLACK
6
CONTINUOUS
10
0.859763
20
0.684299
11
0.857752
21
0.689693
0
LINE
8
BLACK
6
CONTINUOUS
10
0.857752
20
0.689693
11
0.854302
21
0.694302
0
LINE
8
BLACK
6
CONTINUOUS
10
0.854302
20
0.694302
11
0.850857
21
0.69688
0
LINE
8
BLACK
6
CONTINUOUS
10
0.850857
20
0.69688
11
0.84947
21
0.698849
0
LINE
8
BLACK
6
CONTINUOUS
10
0.84947
20
0.698849
11
0.849504
21
0.701257
0
LINE
8
BLACK
6
CONTINUOUS
10
0.849504
20
0.701257
11
0.850857
21
0.70312
0
LINE
8
BLACK
6
CONTINUOUS
10
0.850857
20
0.70312
11
0.854302
21
0.705698
0
LINE
8
BLACK
6
CONTINUOUS
10
0.854302
20
0.705698
11
0.857752
21
0.710307
0
LINE
8
BLACK
6
CONTINUOUS
10
0.857752
20
0.710307
11
0.859763
21
0.715701
0
LINE
8
BLACK
6
CONTINUOUS
10
0.859763
20
0.715701
11
0.859866
21
0.716657
0
LINE
8
BLACK
6
CONTINUOUS
10
0.859866
20
0.716657
11
0.860851
21
0.718855
0
LINE
8
BLACK
6
CONTINUOUS
10
0.860851
20
0.718855
11
0.86294
21
0.720055
0
LINE
8
BLACK
6
CONTINUOUS
10
0.86294
20
0.720055
11
0.863741
21
0.720138
0
LINE
8
BLACK
6
CONTINUOUS
10
0.863741
20
0.720138
11
0.893035
21
0.720138
0
LINE
8
BLACK
6
CONTINUOUS
10
0.893035
20
0.720138
11
1.0896
21
0.720138
0
LINE
8
BLACK
6
CONTINUOUS
10
1.0896
20
0.720138
11
1.09189
21
0.719393
0
LINE
8
BLACK
6
CONTINUOUS
10
1.09189
20
0.719393
11
1.09235
21
0.718996
0
LINE
8
BLACK
6
CONTINUOUS
10
1.09235
20
0.718996
11
1.09299
21
0.718362
0
LINE
8
BLACK
6
CONTINUOUS
10
1.09299
20
0.718362
11
1.09408
21
0.716216
0
LINE
8
BLACK
6
CONTINUOUS
10
1.09408
20
0.716216
11
1.09411
21
0.715989
0
LINE
8
BLACK
6
CONTINUOUS
10
1.09411
20
0.715989
11
1.0942
21
0.715047
0
LINE
8
BLACK
6
CONTINUOUS
10
1.0942
20
0.715047
11
1.0942
21
0.715046
0
LINE
8
BLACK
6
CONTINUOUS
10
1.0942
20
0.715046
11
1.09564
21
0.710307
0
LINE
8
BLACK
6
CONTINUOUS
10
1.09564
20
0.710307
11
1.09635
21
0.707974
0
LINE
8
BLACK
6
CONTINUOUS
10
1.09635
20
0.707974
11
1.09635
21
0.707974
0
LINE
8
BLACK
6
CONTINUOUS
10
1.09635
20
0.707974
11
1.09635
21
0.707974
0
LINE
8
BLACK
6
CONTINUOUS
10
1.09635
20
0.707974
11
1.09983
21
0.701456
0
LINE
8
BLACK
6
CONTINUOUS
10
1.09983
20
0.701456
11
1.10103
21
0.7
0
LINE
8
BLACK
6
CONTINUOUS
10
1.10103
20
0.7
11
1.10452
21
0.695743
0
LINE
8
BLACK
6
CONTINUOUS
10
1.10452
20
0.695743
11
1.11024
21
0.691054
0
LINE
8
BLACK
6
CONTINUOUS
10
1.11024
20
0.691054
11
1.11675
21
0.68757
0
LINE
8
BLACK
6
CONTINUOUS
10
1.11675
20
0.68757
11
1.12069
21
0.686375
0
LINE
8
BLACK
6
CONTINUOUS
10
1.12069
20
0.686375
11
1.12383
21
0.685425
0
LINE
8
BLACK
6
CONTINUOUS
10
1.12383
20
0.685425
11
1.12383
21
0.685425
0
LINE
8
BLACK
6
CONTINUOUS
10
1.12383
20
0.685425
11
1.13118
21
0.6847
0
LINE
8
BLACK
6
CONTINUOUS
10
1.13118
20
0.6847
11
1.13118
21
0.6847
0
LINE
8
BLACK
6
CONTINUOUS
10
1.13118
20
0.6847
11
1.13118
21
0.6847
0
LINE
8
BLACK
6
CONTINUOUS
10
1.13118
20
0.6847
11
1.13854
21
0.685425
0
LINE
8
BLACK
6
CONTINUOUS
10
1.13854
20
0.685425
11
1.13854
21
0.685425
0
LINE
8
BLACK
6
CONTINUOUS
10
1.13854
20
0.685425
11
1.13873
21
0.685485
0
LINE
8
BLACK
6
CONTINUOUS
10
1.13873
20
0.685485
11
1.14561
21
0.68757
0
LINE
8
BLACK
6
CONTINUOUS
10
1.14561
20
0.68757
11
1.15213
21
0.691054
0
LINE
8
BLACK
6
CONTINUOUS
10
1.15213
20
0.691054
11
1.15784
21
0.695743
0
LINE
8
BLACK
6
CONTINUOUS
10
1.15784
20
0.695743
11
1.16253
21
0.701456
0
LINE
8
BLACK
6
CONTINUOUS
10
1.16253
20
0.701456
11
1.16601
21
0.707974
0
LINE
8
BLACK
6
CONTINUOUS
10
1.16601
20
0.707974
11
1.16816
21
0.715046
0
LINE
8
BLACK
6
CONTINUOUS
10
1.16816
20
0.715046
11
1.16816
21
0.715047
0
LINE
8
BLACK
6
CONTINUOUS
10
1.16816
20
0.715047
11
1.16888
21
0.722401
0
LINE
8
BLACK
6
CONTINUOUS
10
1.16888
20
0.722401
11
1.16888
21
0.722402
0
LINE
8
BLACK
6
CONTINUOUS
10
1.16888
20
0.722402
11
1.16816
21
0.729757
0
LINE
8
BLACK
6
CONTINUOUS
10
1.16816
20
0.729757
11
1.16816
21
0.729757
0
LINE
8
BLACK
6
CONTINUOUS
10
1.16816
20
0.729757
11
1.16758
21
0.731666
0
LINE
8
BLACK
6
CONTINUOUS
10
1.16758
20
0.731666
11
1.16601
21
0.736829
0
LINE
8
BLACK
6
CONTINUOUS
10
1.16601
20
0.736829
11
1.16253
21
0.743347
0
LINE
8
BLACK
6
CONTINUOUS
10
1.16253
20
0.743347
11
1.15784
21
0.74906
0
LINE
8
BLACK
6
CONTINUOUS
10
1.15784
20
0.74906
11
1.15213
21
0.753749
0
LINE
8
BLACK
6
CONTINUOUS
10
1.15213
20
0.753749
11
1.15213
21
0.753749
0
LINE
8
BLACK
6
CONTINUOUS
10
1.15213
20
0.753749
11
1.14561
21
0.757233
0
LINE
8
BLACK
6
CONTINUOUS
10
1.14561
20
0.757233
11
1.14561
21
0.757233
0
LINE
8
BLACK
6
CONTINUOUS
10
1.14561
20
0.757233
11
1.14561
21
0.757233
0
LINE
8
BLACK
6
CONTINUOUS
10
1.14561
20
0.757233
11
1.14392
21
0.757746
0
LINE
8
BLACK
6
CONTINUOUS
10
1.14392
20
0.757746
11
1.13854
21
0.759378
0
LINE
8
BLACK
6
CONTINUOUS
10
1.13854
20
0.759378
11
1.13759
21
0.759471
0
LINE
8
BLACK
6
CONTINUOUS
10
1.13759
20
0.759471
11
1.13539
21
0.760437
0
LINE
8
BLACK
6
CONTINUOUS
10
1.13539
20
0.760437
11
1.13522
21
0.760594
0
LINE
8
BLACK
6
CONTINUOUS
10
1.13522
20
0.760594
11
1.12644
21
0.769377
0
LINE
8
BLACK
6
CONTINUOUS
10
1.12644
20
0.769377
11
1.12607
21
0.769805
0
LINE
8
BLACK
6
CONTINUOUS
10
1.12607
20
0.769805
11
1.12545
21
0.770632
0
LINE
8
BLACK
6
CONTINUOUS
10
1.12545
20
0.770632
11
1.12384
21
0.771983
0
LINE
8
BLACK
6
CONTINUOUS
10
1.12384
20
0.771983
11
1.12372
21
0.772098
0
LINE
8
BLACK
6
CONTINUOUS
10
1.12372
20
0.772098
11
1.12347
21
0.772346
0
LINE
8
BLACK
6
CONTINUOUS
10
1.12347
20
0.772346
11
1.12347
21
0.772346
0
LINE
8
BLACK
6
CONTINUOUS
10
1.12347
20
0.772346
11
1.12247
21
0.773137
0
LINE
8
BLACK
6
CONTINUOUS
10
1.12247
20
0.773137
11
1.12242
21
0.773173
0
LINE
8
BLACK
6
CONTINUOUS
10
1.12242
20
0.773173
11
1.12193
21
0.773584
0
LINE
8
BLACK
6
CONTINUOUS
10
1.12193
20
0.773584
11
1.1201
21
0.775119
0
LINE
8
BLACK
6
CONTINUOUS
10
1.1201
20
0.775119
11
1.1201
21
0.775119
0
LINE
8
BLACK
6
CONTINUOUS
10
1.1201
20
0.775119
11
1.1201
21
0.775119
0
LINE
8
BLACK
6
CONTINUOUS
10
1.1201
20
0.775119
11
1.12007
21
0.775138
0
LINE
8
BLACK
6
CONTINUOUS
10
1.12007
20
0.775138
11
1.1194
21
0.775563
0
LINE
8
BLACK
6
CONTINUOUS
10
1.1194
20
0.775563
11
1.11937
21
0.775589
0
LINE
8
BLACK
6
CONTINUOUS
10
1.11937
20
0.775589
11
1.11937
21
0.775589
0
LINE
8
BLACK
6
CONTINUOUS
10
1.11937
20
0.775589
11
1.11937
21
0.775589
0
LINE
8
BLACK
6
CONTINUOUS
10
1.11937
20
0.775589
11
1.11662
21
0.77687
0
LINE
8
BLACK
6
CONTINUOUS
10
1.11662
20
0.77687
11
1.11657
21
0.776893
0
LINE
8
BLACK
6
CONTINUOUS
10
1.11657
20
0.776893
11
1.11387
21
0.778252
0
LINE
8
BLACK
6
CONTINUOUS
10
1.11387
20
0.778252
11
1.11387
21
0.778252
0
LINE
8
BLACK
6
CONTINUOUS
10
1.11387
20
0.778252
11
1.11383
21
0.77826
0
LINE
8
BLACK
6
CONTINUOUS
10
1.11383
20
0.77826
11
1.11383
21
0.778262
0
LINE
8
BLACK
6
CONTINUOUS
10
1.11383
20
0.778262
11
1.11308
21
0.778522
0
LINE
8
BLACK
6
CONTINUOUS
10
1.11308
20
0.778522
11
1.11304
21
0.778539
0
LINE
8
BLACK
6
CONTINUOUS
10
1.11304
20
0.778539
11
1.11304
21
0.77854
0
LINE
8
BLACK
6
CONTINUOUS
10
1.11304
20
0.77854
11
1.11007
21
0.779152
0
LINE
8
BLACK
6
CONTINUOUS
10
1.11007
20
0.779152
11
1.11002
21
0.779164
0
LINE
8
BLACK
6
CONTINUOUS
10
1.11002
20
0.779164
11
1.10707
21
0.779862
0
LINE
8
BLACK
6
CONTINUOUS
10
1.10707
20
0.779862
11
1.10707
21
0.779862
0
LINE
8
BLACK
6
CONTINUOUS
10
1.10707
20
0.779862
11
1.10703
21
0.779862
0
LINE
8
BLACK
6
CONTINUOUS
10
1.10703
20
0.779862
11
1.10624
21
0.779943
0
LINE
8
BLACK
6
CONTINUOUS
10
1.10624
20
0.779943
11
1.10623
21
0.779946
0
LINE
8
BLACK
6
CONTINUOUS
10
1.10623
20
0.779946
11
1.1062
21
0.779951
0
LINE
8
BLACK
6
CONTINUOUS
10
1.1062
20
0.779951
11
1.10335
21
0.779868
0
LINE
8
BLACK
6
CONTINUOUS
10
1.10335
20
0.779868
11
1.10317
21
0.779863
0
LINE
8
BLACK
6
CONTINUOUS
10
1.10317
20
0.779863
11
1.10312
21
0.779862
0
LINE
8
BLACK
6
CONTINUOUS
10
1.10312
20
0.779862
11
0.863741
21
0.779862
0
LINE
8
BLACK
6
CONTINUOUS
10
0.863741
20
0.779862
11
0.86145
21
0.780607
0
LINE
8
BLACK
6
CONTINUOUS
10
0.86145
20
0.780607
11
0.860035
21
0.782555
0
LINE
8
BLACK
6
CONTINUOUS
10
0.860035
20
0.782555
11
0.859866
21
0.783343
0
LINE
8
BLACK
6
CONTINUOUS
10
0.859866
20
0.783343
11
0.859763
21
0.784299
0
LINE
8
BLACK
6
CONTINUOUS
10
0.859763
20
0.784299
11
0.859763
21
0.784299
0
LINE
8
BLACK
6
CONTINUOUS
10
0.859763
20
0.784299
11
0.859763
21
0.784299
0
LINE
8
BLACK
6
CONTINUOUS
10
0.859763
20
0.784299
11
0.857752
21
0.789693
0
LINE
8
BLACK
6
CONTINUOUS
10
0.857752
20
0.789693
11
0.854302
21
0.794302
0
LINE
8
BLACK
6
CONTINUOUS
10
0.854302
20
0.794302
11
0.849693
21
0.797752
0
LINE
8
BLACK
6
CONTINUOUS
10
0.849693
20
0.797752
11
0.844299
21
0.799763
0
LINE
8
BLACK
6
CONTINUOUS
10
0.844299
20
0.799763
11
0.844299
21
0.799763
0
LINE
8
BLACK
6
CONTINUOUS
10
0.844299
20
0.799763
11
0.84269
21
0.799936
0
LINE
8
BLACK
6
CONTINUOUS
10
0.84269
20
0.799936
11
0.841915
21
0.80002
0
LINE
8
BLACK
6
CONTINUOUS
10
0.841915
20
0.80002
11
0.778085
21
0.80002
0
LINE
8
BLACK
6
CONTINUOUS
10
0.778085
20
0.80002
11
0.777452
21
0.799952
0
LINE
8
BLACK
6
CONTINUOUS
10
0.79227
20
0.261419
11
0.79646
21
0.258726
0
LINE
8
BLACK
6
CONTINUOUS
10
0.79646
20
0.258726
11
0.799722
21
0.254961
0
LINE
8
BLACK
6
CONTINUOUS
10
0.799722
20
0.254961
11
0.801791
21
0.25043
0
LINE
8
BLACK
6
CONTINUOUS
10
0.801791
20
0.25043
11
0.8025
21
0.2455
0
LINE
8
BLACK
6
CONTINUOUS
10
0.8025
20
0.2455
11
0.801791
21
0.24057
0
LINE
8
BLACK
6
CONTINUOUS
10
0.801791
20
0.24057
11
0.799722
21
0.236039
0
LINE
8
BLACK
6
CONTINUOUS
10
0.799722
20
0.236039
11
0.79646
21
0.232274
0
LINE
8
BLACK
6
CONTINUOUS
10
0.79646
20
0.232274
11
0.79227
21
0.229581
0
LINE
8
BLACK
6
CONTINUOUS
10
0.79227
20
0.229581
11
0.787491
21
0.228178
0
LINE
8
BLACK
6
CONTINUOUS
10
0.787491
20
0.228178
11
0.782509
21
0.228178
0
LINE
8
BLACK
6
CONTINUOUS
10
0.782509
20
0.228178
11
0.77773
21
0.229581
0
LINE
8
BLACK
6
CONTINUOUS
10
0.77773
20
0.229581
11
0.77354
21
0.232274
0
LINE
8
BLACK
6
CONTINUOUS
10
0.77354
20
0.232274
11
0.770608
21
0.235657
0
LINE
8
BLACK
6
CONTINUOUS
10
0.770608
20
0.235657
11
0.645753
21
0.235657
0
LINE
8
BLACK
6
CONTINUOUS
10
0.645753
20
0.235657
11
0.633071
21
0.222976
0
LINE
8
BLACK
6
CONTINUOUS
10
0.633071
20
0.222976
11
0.633521
21
0.219845
0
LINE
8
BLACK
6
CONTINUOUS
10
0.633521
20
0.219845
11
0.632812
21
0.214915
0
LINE
8
BLACK
6
CONTINUOUS
10
0.632812
20
0.214915
11
0.630743
21
0.210384
0
LINE
8
BLACK
6
CONTINUOUS
10
0.630743
20
0.210384
11
0.627481
21
0.20662
0
LINE
8
BLACK
6
CONTINUOUS
10
0.627481
20
0.20662
11
0.623291
21
0.203927
0
LINE
8
BLACK
6
CONTINUOUS
10
0.623291
20
0.203927
11
0.618511
21
0.202523
0
LINE
8
BLACK
6
CONTINUOUS
10
0.618511
20
0.202523
11
0.61353
21
0.202523
0
LINE
8
BLACK
6
CONTINUOUS
10
0.61353
20
0.202523
11
0.608751
21
0.203927
0
LINE
8
BLACK
6
CONTINUOUS
10
0.608751
20
0.203927
11
0.604561
21
0.20662
0
LINE
8
BLACK
6
CONTINUOUS
10
0.604561
20
0.20662
11
0.601299
21
0.210384
0
LINE
8
BLACK
6
CONTINUOUS
10
0.601299
20
0.210384
11
0.59923
21
0.214915
0
LINE
8
BLACK
6
CONTINUOUS
10
0.59923
20
0.214915
11
0.598521
21
0.219845
0
LINE
8
BLACK
6
CONTINUOUS
10
0.598521
20
0.219845
11
0.59923
21
0.224776
0
LINE
8
BLACK
6
CONTINUOUS
10
0.59923
20
0.224776
11
0.601299
21
0.229306
0
LINE
8
BLACK
6
CONTINUOUS
10
0.601299
20
0.229306
11
0.604561
21
0.233071
0
LINE
8
BLACK
6
CONTINUOUS
10
0.604561
20
0.233071
11
0.608751
21
0.235764
0
LINE
8
BLACK
6
CONTINUOUS
10
0.608751
20
0.235764
11
0.61353
21
0.237167
0
LINE
8
BLACK
6
CONTINUOUS
10
0.61353
20
0.237167
11
0.618511
21
0.237167
0
LINE
8
BLACK
6
CONTINUOUS
10
0.618511
20
0.237167
11
0.619216
21
0.23696
0
LINE
8
BLACK
6
CONTINUOUS
10
0.619216
20
0.23696
11
0.634716
21
0.25246
0
LINE
8
BLACK
6
CONTINUOUS
10
0.634716
20
0.25246
11
0.634716
21
0.25246
0
LINE
8
BLACK
6
CONTINUOUS
10
0.634716
20
0.25246
11
0.637909
21
0.254593
0
LINE
8
BLACK
6
CONTINUOUS
10
0.637909
20
0.254593
11
0.641676
21
0.255343
0
LINE
8
BLACK
6
CONTINUOUS
10
0.641676
20
0.255343
11
0.770608
21
0.255343
0
LINE
8
BLACK
6
CONTINUOUS
10
0.770608
20
0.255343
11
0.77354
21
0.258726
0
LINE
8
BLACK
6
CONTINUOUS
10
0.77354
20
0.258726
11
0.77773
21
0.261419
0
LINE
8
BLACK
6
CONTINUOUS
10
0.77773
20
0.261419
11
0.782509
21
0.262822
0
LINE
8
BLACK
6
CONTINUOUS
10
0.782509
20
0.262822
11
0.787491
21
0.262822
0
LINE
8
BLACK
6
CONTINUOUS
10
0.787491
20
0.262822
11
0.79227
21
0.261419
0
LINE
8
BLACK
6
CONTINUOUS
10
0.342452
20
0.424952
11
0.340701
21
0.424763
0
LINE
8
BLACK
6
CONTINUOUS
10
0.340701
20
0.424763
11
0.337721
21
0.423652
0
LINE
8
BLACK
6
CONTINUOUS
10
0.337721
20
0.423652
11
0.335307
21
0.422752
0
LINE
8
BLACK
6
CONTINUOUS
10
0.335307
20
0.422752
11
0.335307
21
0.422751
0
LINE
8
BLACK
6
CONTINUOUS
10
0.335307
20
0.422751
11
0.335307
21
0.422751
0
LINE
8
BLACK
6
CONTINUOUS
10
0.335307
20
0.422751
11
0.330699
21
0.419302
0
LINE
8
BLACK
6
CONTINUOUS
10
0.330699
20
0.419302
11
0.330698
21
0.419301
0
LINE
8
BLACK
6
CONTINUOUS
10
0.330698
20
0.419301
11
0.327249
21
0.414693
0
LINE
8
BLACK
6
CONTINUOUS
10
0.327249
20
0.414693
11
0.327249
21
0.414693
0
LINE
8
BLACK
6
CONTINUOUS
10
0.327249
20
0.414693
11
0.327248
21
0.414693
0
LINE
8
BLACK
6
CONTINUOUS
10
0.327248
20
0.414693
11
0.326552
21
0.412826
0
LINE
8
BLACK
6
CONTINUOUS
10
0.326552
20
0.412826
11
0.325237
21
0.409299
0
LINE
8
BLACK
6
CONTINUOUS
10
0.325237
20
0.409299
11
0.32498
21
0.406915
0
LINE
8
BLACK
6
CONTINUOUS
10
0.32498
20
0.406915
11
0.32498
21
0.343085
0
LINE
8
BLACK
6
CONTINUOUS
10
0.32498
20
0.343085
11
0.325237
21
0.340701
0
LINE
8
BLACK
6
CONTINUOUS
10
0.325237
20
0.340701
11
0.325687
21
0.339494
0
LINE
8
BLACK
6
CONTINUOUS
10
0.325687
20
0.339494
11
0.327248
21
0.335307
0
LINE
8
BLACK
6
CONTINUOUS
10
0.327248
20
0.335307
11
0.330698
21
0.330698
0
LINE
8
BLACK
6
CONTINUOUS
10
0.330698
20
0.330698
11
0.335307
21
0.327248
0
LINE
8
BLACK
6
CONTINUOUS
10
0.335307
20
0.327248
11
0.340701
21
0.325237
0
LINE
8
BLACK
6
CONTINUOUS
10
0.340701
20
0.325237
11
0.343085
21
0.32498
0
LINE
8
BLACK
6
CONTINUOUS
10
0.343085
20
0.32498
11
0.343085
21
0.32498
0
LINE
8
BLACK
6
CONTINUOUS
10
0.343085
20
0.32498
11
0.406915
21
0.32498
0
LINE
8
BLACK
6
CONTINUOUS
10
0.406915
20
0.32498
11
0.406915
21
0.32498
0
LINE
8
BLACK
6
CONTINUOUS
10
0.406915
20
0.32498
11
0.409299
21
0.325237
0
LINE
8
BLACK
6
CONTINUOUS
10
0.409299
20
0.325237
11
0.414693
21
0.327248
0
LINE
8
BLACK
6
CONTINUOUS
10
0.414693
20
0.327248
11
0.419302
21
0.330698
0
LINE
8
BLACK
6
CONTINUOUS
10
0.419302
20
0.330698
11
0.422752
21
0.335307
0
LINE
8
BLACK
6
CONTINUOUS
10
0.422752
20
0.335307
11
0.424763
21
0.340701
0
LINE
8
BLACK
6
CONTINUOUS
10
0.424763
20
0.340701
11
0.42502
21
0.343085
0
LINE
8
BLACK
6
CONTINUOUS
10
0.42502
20
0.343085
11
0.42502
21
0.343085
0
LINE
8
BLACK
6
CONTINUOUS
10
0.42502
20
0.343085
11
0.42502
21
0.406915
0
LINE
8
BLACK
6
CONTINUOUS
10
0.42502
20
0.406915
11
0.424763
21
0.409299
0
LINE
8
BLACK
6
CONTINUOUS
10
0.424763
20
0.409299
11
0.422752
21
0.414693
0
LINE
8
BLACK
6
CONTINUOUS
10
0.422752
20
0.414693
11
0.419302
21
0.419302
0
LINE
8
BLACK
6
CONTINUOUS
10
0.419302
20
0.419302
11
0.418772
21
0.419698
0
LINE
8
BLACK
6
CONTINUOUS
10
0.418772
20
0.419698
11
0.414693
21
0.422751
0
LINE
8
BLACK
6
CONTINUOUS
10
0.414693
20
0.422751
11
0.414693
21
0.422751
0
LINE
8
BLACK
6
CONTINUOUS
10
0.414693
20
0.422751
11
0.414693
21
0.422752
0
LINE
8
BLACK
6
CONTINUOUS
10
0.414693
20
0.422752
11
0.409299
21
0.424763
0
LINE
8
BLACK
6
CONTINUOUS
10
0.409299
20
0.424763
11
0.409299
21
0.424763
0
LINE
8
BLACK
6
CONTINUOUS
10
0.409299
20
0.424763
11
0.40769
21
0.424936
0
LINE
8
BLACK
6
CONTINUOUS
10
0.40769
20
0.424936
11
0.406915
21
0.42502
0
LINE
8
BLACK
6
CONTINUOUS
10
0.406915
20
0.42502
11
0.343085
21
0.42502
0
LINE
8
BLACK
6
CONTINUOUS
10
0.343085
20
0.42502
11
0.342452
21
0.424952
0
LINE
8
BLACK
6
CONTINUOUS
10
0.525237
20
0.340701
11
0.525687
21
0.339494
0
LINE
8
BLACK
6
CONTINUOUS
10
0.525687
20
0.339494
11
0.527248
21
0.335307
0
LINE
8
BLACK
6
CONTINUOUS
10
0.527248
20
0.335307
11
0.530698
21
0.330698
0
LINE
8
BLACK
6
CONTINUOUS
10
0.530698
20
0.330698
11
0.535307
21
0.327248
0
LINE
8
BLACK
6
CONTINUOUS
10
0.535307
20
0.327248
11
0.540701
21
0.325237
0
LINE
8
BLACK
6
CONTINUOUS
10
0.540701
20
0.325237
11
0.543085
21
0.32498
0
LINE
8
BLACK
6
CONTINUOUS
10
0.543085
20
0.32498
11
0.543085
21
0.32498
0
LINE
8
BLACK
6
CONTINUOUS
10
0.543085
20
0.32498
11
0.606915
21
0.32498
0
LINE
8
BLACK
6
CONTINUOUS
10
0.606915
20
0.32498
11
0.606915
21
0.32498
0
LINE
8
BLACK
6
CONTINUOUS
10
0.606915
20
0.32498
11
0.609299
21
0.325237
0
LINE
8
BLACK
6
CONTINUOUS
10
0.609299
20
0.325237
11
0.614693
21
0.327248
0
LINE
8
BLACK
6
CONTINUOUS
10
0.614693
20
0.327248
11
0.619302
21
0.330698
0
LINE
8
BLACK
6
CONTINUOUS
10
0.619302
20
0.330698
11
0.622752
21
0.335307
0
LINE
8
BLACK
6
CONTINUOUS
10
0.622752
20
0.335307
11
0.624763
21
0.340701
0
LINE
8
BLACK
6
CONTINUOUS
10
0.624763
20
0.340701
11
0.62502
21
0.343085
0
LINE
8
BLACK
6
CONTINUOUS
10
0.62502
20
0.343085
11
0.62502
21
0.406915
0
LINE
8
BLACK
6
CONTINUOUS
10
0.62502
20
0.406915
11
0.624763
21
0.409299
0
LINE
8
BLACK
6
CONTINUOUS
10
0.624763
20
0.409299
11
0.622752
21
0.414693
0
LINE
8
BLACK
6
CONTINUOUS
10
0.622752
20
0.414693
11
0.619302
21
0.419302
0
LINE
8
BLACK
6
CONTINUOUS
10
0.619302
20
0.419302
11
0.618772
21
0.419698
0
LINE
8
BLACK
6
CONTINUOUS
10
0.618772
20
0.419698
11
0.614693
21
0.422751
0
LINE
8
BLACK
6
CONTINUOUS
10
0.614693
20
0.422751
11
0.614693
21
0.422751
0
LINE
8
BLACK
6
CONTINUOUS
10
0.614693
20
0.422751
11
0.614693
21
0.422752
0
LINE
8
BLACK
6
CONTINUOUS
10
0.614693
20
0.422752
11
0.609299
21
0.424763
0
LINE
8
BLACK
6
CONTINUOUS
10
0.609299
20
0.424763
11
0.609299
21
0.424763
0
LINE
8
BLACK
6
CONTINUOUS
10
0.609299
20
0.424763
11
0.60769
21
0.424936
0
LINE
8
BLACK
6
CONTINUOUS
10
0.60769
20
0.424936
11
0.606915
21
0.42502
0
LINE
8
BLACK
6
CONTINUOUS
10
0.606915
20
0.42502
11
0.543085
21
0.42502
0
LINE
8
BLACK
6
CONTINUOUS
10
0.543085
20
0.42502
11
0.542452
21
0.424952
0
LINE
8
BLACK
6
CONTINUOUS
10
0.542452
20
0.424952
11
0.540701
21
0.424763
0
LINE
8
BLACK
6
CONTINUOUS
10
0.540701
20
0.424763
11
0.537721
21
0.423652
0
LINE
8
BLACK
6
CONTINUOUS
10
0.537721
20
0.423652
11
0.535307
21
0.422752
0
LINE
8
BLACK
6
CONTINUOUS
10
0.535307
20
0.422752
11
0.535307
21
0.422751
0
LINE
8
BLACK
6
CONTINUOUS
10
0.535307
20
0.422751
11
0.535307
21
0.422751
0
LINE
8
BLACK
6
CONTINUOUS
10
0.535307
20
0.422751
11
0.530699
21
0.419302
0
LINE
8
BLACK
6
CONTINUOUS
10
0.530699
20
0.419302
11
0.530698
21
0.419301
0
LINE
8
BLACK
6
CONTINUOUS
10
0.530698
20
0.419301
11
0.527249
21
0.414693
0
LINE
8
BLACK
6
CONTINUOUS
10
0.527249
20
0.414693
11
0.527249
21
0.414693
0
LINE
8
BLACK
6
CONTINUOUS
10
0.527249
20
0.414693
11
0.527248
21
0.414693
0
LINE
8
BLACK
6
CONTINUOUS
10
0.527248
20
0.414693
11
0.526552
21
0.412826
0
LINE
8
BLACK
6
CONTINUOUS
10
0.526552
20
0.412826
11
0.525237
21
0.409299
0
LINE
8
BLACK
6
CONTINUOUS
10
0.525237
20
0.409299
11
0.52498
21
0.406915
0
LINE
8
BLACK
6
CONTINUOUS
10
0.52498
20
0.406915
11
0.52498
21
0.343085
0
LINE
8
BLACK
6
CONTINUOUS
10
0.52498
20
0.343085
11
0.525237
21
0.340701
0
LINE
8
BLACK
6
CONTINUOUS
10
0.03
20
0.42
11
-0.03
21
0.42
0
LINE
8
BLACK
6
CONTINUOUS
10
-0.03
20
0.42
11
-0.03
21
0.48
0
LINE
8
BLACK
6
CONTINUOUS
10
-0.03
20
0.48
11
0.03
21
0.48
0
LINE
8
BLACK
6
CONTINUOUS
10
0.03
20
0.48
11
0.03
21
0.42
0
LINE
8
BLACK
6
CONTINUOUS
10
0.13
20
0.42
11
0.07
21
0.42
0
LINE
8
BLACK
6
CONTINUOUS
10
0.07
20
0.42
11
0.07
21
0.48
0
LINE
8
BLACK
6
CONTINUOUS
10
0.07
20
0.48
11
0.13
21
0.48
0
LINE
8
BLACK
6
CONTINUOUS
10
0.13
20
0.48
11
0.13
21
0.42
0
LINE
8
BLACK
6
CONTINUOUS
10
1.52924
20
0.429701
11
1.52924
21
0.429701
0
LINE
8
BLACK
6
CONTINUOUS
10
1.52924
20
0.429701
11
1.53125
21
0.424307
0
LINE
8
BLACK
6
CONTINUOUS
10
1.53125
20
0.424307
11
1.53125
21
0.424307
0
LINE
8
BLACK
6
CONTINUOUS
10
1.53125
20
0.424307
11
1.53125
21
0.424307
0
LINE
8
BLACK
6
CONTINUOUS
10
1.53125
20
0.424307
11
1.53241
21
0.422752
0
LINE
8
BLACK
6
CONTINUOUS
10
1.53241
20
0.422752
11
1.5347
21
0.419698
0
LINE
8
BLACK
6
CONTINUOUS
10
1.5347
20
0.419698
11
1.53931
21
0.416248
0
LINE
8
BLACK
6
CONTINUOUS
10
1.53931
20
0.416248
11
1.5447
21
0.414237
0
LINE
8
BLACK
6
CONTINUOUS
10
1.5447
20
0.414237
11
1.54709
21
0.41398
0
LINE
8
BLACK
6
CONTINUOUS
10
1.54709
20
0.41398
11
1.54709
21
0.41398
0
LINE
8
BLACK
6
CONTINUOUS
10
1.54709
20
0.41398
11
1.61091
21
0.41398
0
LINE
8
BLACK
6
CONTINUOUS
10
1.61091
20
0.41398
11
1.61091
21
0.41398
0
LINE
8
BLACK
6
CONTINUOUS
10
1.61091
20
0.41398
11
1.6133
21
0.414237
0
LINE
8
BLACK
6
CONTINUOUS
10
1.6133
20
0.414237
11
1.61869
21
0.416248
0
LINE
8
BLACK
6
CONTINUOUS
10
1.61869
20
0.416248
11
1.6233
21
0.419698
0
LINE
8
BLACK
6
CONTINUOUS
10
1.6233
20
0.419698
11
1.62588
21
0.423143
0
LINE
8
BLACK
6
CONTINUOUS
10
1.62588
20
0.423143
11
1.62785
21
0.42453
0
LINE
8
BLACK
6
CONTINUOUS
10
1.62785
20
0.42453
11
1.63026
21
0.424496
0
LINE
8
BLACK
6
CONTINUOUS
10
1.63026
20
0.424496
11
1.63212
21
0.423143
0
LINE
8
BLACK
6
CONTINUOUS
10
1.63212
20
0.423143
11
1.6347
21
0.419698
0
LINE
8
BLACK
6
CONTINUOUS
10
1.6347
20
0.419698
11
1.63931
21
0.416248
0
LINE
8
BLACK
6
CONTINUOUS
10
1.63931
20
0.416248
11
1.6447
21
0.414237
0
LINE
8
BLACK
6
CONTINUOUS
10
1.6447
20
0.414237
11
1.64709
21
0.41398
0
LINE
8
BLACK
6
CONTINUOUS
10
1.64709
20
0.41398
11
1.64709
21
0.41398
0
LINE
8
BLACK
6
CONTINUOUS
10
1.64709
20
0.41398
11
1.71091
21
0.41398
0
LINE
8
BLACK
6
CONTINUOUS
10
1.71091
20
0.41398
11
1.71091
21
0.41398
0
LINE
8
BLACK
6
CONTINUOUS
10
1.71091
20
0.41398
11
1.7133
21
0.414237
0
LINE
8
BLACK
6
CONTINUOUS
10
1.7133
20
0.414237
11
1.71869
21
0.416248
0
LINE
8
BLACK
6
CONTINUOUS
10
1.71869
20
0.416248
11
1.7233
21
0.419698
0
LINE
8
BLACK
6
CONTINUOUS
10
1.7233
20
0.419698
11
1.72675
21
0.424307
0
LINE
8
BLACK
6
CONTINUOUS
10
1.72675
20
0.424307
11
1.72876
21
0.429701
0
LINE
8
BLACK
6
CONTINUOUS
10
1.72876
20
0.429701
11
1.72902
21
0.432085
0
LINE
8
BLACK
6
CONTINUOUS
10
1.72902
20
0.432085
11
1.72902
21
0.495915
0
LINE
8
BLACK
6
CONTINUOUS
10
1.72902
20
0.495915
11
1.72876
21
0.498299
0
LINE
8
BLACK
6
CONTINUOUS
10
1.72876
20
0.498299
11
1.72675
21
0.503693
0
LINE
8
BLACK
6
CONTINUOUS
10
1.72675
20
0.503693
11
1.7233
21
0.508302
0
LINE
8
BLACK
6
CONTINUOUS
10
1.7233
20
0.508302
11
1.72266
21
0.50878
0
LINE
8
BLACK
6
CONTINUOUS
10
1.72266
20
0.50878
11
1.71869
21
0.511751
0
LINE
8
BLACK
6
CONTINUOUS
10
1.71869
20
0.511751
11
1.71869
21
0.511751
0
LINE
8
BLACK
6
CONTINUOUS
10
1.71869
20
0.511751
11
1.71869
21
0.511752
0
LINE
8
BLACK
6
CONTINUOUS
10
1.71869
20
0.511752
11
1.7133
21
0.513763
0
LINE
8
BLACK
6
CONTINUOUS
10
1.7133
20
0.513763
11
1.7133
21
0.513763
0
LINE
8
BLACK
6
CONTINUOUS
10
1.7133
20
0.513763
11
1.71169
21
0.513936
0
LINE
8
BLACK
6
CONTINUOUS
10
1.71169
20
0.513936
11
1.71091
21
0.51402
0
LINE
8
BLACK
6
CONTINUOUS
10
1.71091
20
0.51402
11
1.64709
21
0.51402
0
LINE
8
BLACK
6
CONTINUOUS
10
1.64709
20
0.51402
11
1.64645
21
0.513952
0
LINE
8
BLACK
6
CONTINUOUS
10
1.64645
20
0.513952
11
1.6447
21
0.513763
0
LINE
8
BLACK
6
CONTINUOUS
10
1.6447
20
0.513763
11
1.64172
21
0.512652
0
LINE
8
BLACK
6
CONTINUOUS
10
1.64172
20
0.512652
11
1.63931
21
0.511752
0
LINE
8
BLACK
6
CONTINUOUS
10
1.63931
20
0.511752
11
1.63931
21
0.511751
0
LINE
8
BLACK
6
CONTINUOUS
10
1.63931
20
0.511751
11
1.63931
21
0.511751
0
LINE
8
BLACK
6
CONTINUOUS
10
1.63931
20
0.511751
11
1.6347
21
0.508302
0
LINE
8
BLACK
6
CONTINUOUS
10
1.6347
20
0.508302
11
1.6347
21
0.508301
0
LINE
8
BLACK
6
CONTINUOUS
10
1.6347
20
0.508301
11
1.63212
21
0.504858
0
LINE
8
BLACK
6
CONTINUOUS
10
1.63212
20
0.504858
11
1.63015
21
0.50347
0
LINE
8
BLACK
6
CONTINUOUS
10
1.63015
20
0.50347
11
1.62774
21
0.503504
0
LINE
8
BLACK
6
CONTINUOUS
10
1.62774
20
0.503504
11
1.62588
21
0.504858
0
LINE
8
BLACK
6
CONTINUOUS
10
1.62588
20
0.504858
11
1.6233
21
0.508301
0
LINE
8
BLACK
6
CONTINUOUS
10
1.6233
20
0.508301
11
1.6233
21
0.508301
0
LINE
8
BLACK
6
CONTINUOUS
10
1.6233
20
0.508301
11
1.6233
21
0.508302
0
LINE
8
BLACK
6
CONTINUOUS
10
1.6233
20
0.508302
11
1.62266
21
0.50878
0
LINE
8
BLACK
6
CONTINUOUS
10
1.62266
20
0.50878
11
1.61869
21
0.511751
0
LINE
8
BLACK
6
CONTINUOUS
10
1.61869
20
0.511751
11
1.61869
21
0.511751
0
LINE
8
BLACK
6
CONTINUOUS
10
1.61869
20
0.511751
11
1.61869
21
0.511752
0
LINE
8
BLACK
6
CONTINUOUS
10
1.61869
20
0.511752
11
1.6133
21
0.513763
0
LINE
8
BLACK
6
CONTINUOUS
10
1.6133
20
0.513763
11
1.6133
21
0.513763
0
LINE
8
BLACK
6
CONTINUOUS
10
1.6133
20
0.513763
11
1.61169
21
0.513936
0
LINE
8
BLACK
6
CONTINUOUS
10
1.61169
20
0.513936
11
1.61091
21
0.51402
0
LINE
8
BLACK
6
CONTINUOUS
10
1.61091
20
0.51402
11
1.54709
21
0.51402
0
LINE
8
BLACK
6
CONTINUOUS
10
1.54709
20
0.51402
11
1.54645
21
0.513952
0
LINE
8
BLACK
6
CONTINUOUS
10
1.54645
20
0.513952
11
1.5447
21
0.513763
0
LINE
8
BLACK
6
CONTINUOUS
10
1.5447
20
0.513763
11
1.54172
21
0.512652
0
LINE
8
BLACK
6
CONTINUOUS
10
1.54172
20
0.512652
11
1.53931
21
0.511752
0
LINE
8
BLACK
6
CONTINUOUS
10
1.53931
20
0.511752
11
1.53931
21
0.511751
0
LINE
8
BLACK
6
CONTINUOUS
10
1.53931
20
0.511751
11
1.53931
21
0.511751
0
LINE
8
BLACK
6
CONTINUOUS
10
1.53931
20
0.511751
11
1.5347
21
0.508302
0
LINE
8
BLACK
6
CONTINUOUS
10
1.5347
20
0.508302
11
1.5347
21
0.508301
0
LINE
8
BLACK
6
CONTINUOUS
10
1.5347
20
0.508301
11
1.53125
21
0.503693
0
LINE
8
BLACK
6
CONTINUOUS
10
1.53125
20
0.503693
11
1.53125
21
0.503693
0
LINE
8
BLACK
6
CONTINUOUS
10
1.53125
20
0.503693
11
1.53125
21
0.503693
0
LINE
8
BLACK
6
CONTINUOUS
10
1.53125
20
0.503693
11
1.53118
21
0.503504
0
LINE
8
BLACK
6
CONTINUOUS
10
1.53118
20
0.503504
11
1.52924
21
0.498299
0
LINE
8
BLACK
6
CONTINUOUS
10
1.52924
20
0.498299
11
1.52898
21
0.495915
0
LINE
8
BLACK
6
CONTINUOUS
10
1.52898
20
0.495915
11
1.52898
21
0.432085
0
LINE
8
BLACK
6
CONTINUOUS
10
1.52898
20
0.432085
11
1.52924
21
0.429701
0
LINE
8
BLACK
6
CONTINUOUS
10
0.842237
20
-0.134299
11
0.842237
21
-0.134299
0
LINE
8
BLACK
6
CONTINUOUS
10
0.842237
20
-0.134299
11
0.844248
21
-0.139693
0
LINE
8
BLACK
6
CONTINUOUS
10
0.844248
20
-0.139693
11
0.844249
21
-0.139693
0
LINE
8
BLACK
6
CONTINUOUS
10
0.844249
20
-0.139693
11
0.844249
21
-0.139693
0
LINE
8
BLACK
6
CONTINUOUS
10
0.844249
20
-0.139693
11
0.84512
21
-0.140858
0
LINE
8
BLACK
6
CONTINUOUS
10
0.84512
20
-0.140858
11
0.847698
21
-0.144302
0
LINE
8
BLACK
6
CONTINUOUS
10
0.847698
20
-0.144302
11
0.852307
21
-0.147752
0
LINE
8
BLACK
6
CONTINUOUS
10
0.852307
20
-0.147752
11
0.857701
21
-0.149763
0
LINE
8
BLACK
6
CONTINUOUS
10
0.857701
20
-0.149763
11
0.860085
21
-0.15002
0
LINE
8
BLACK
6
CONTINUOUS
10
0.860085
20
-0.15002
11
0.860085
21
-0.15002
0
LINE
8
BLACK
6
CONTINUOUS
10
0.860085
20
-0.15002
11
0.923915
21
-0.15002
0
LINE
8
BLACK
6
CONTINUOUS
10
0.923915
20
-0.15002
11
0.923915
21
-0.15002
0
LINE
8
BLACK
6
CONTINUOUS
10
0.923915
20
-0.15002
11
0.926299
21
-0.149763
0
LINE
8
BLACK
6
CONTINUOUS
10
0.926299
20
-0.149763
11
0.931693
21
-0.147752
0
LINE
8
BLACK
6
CONTINUOUS
10
0.931693
20
-0.147752
11
0.936302
21
-0.144302
0
LINE
8
BLACK
6
CONTINUOUS
10
0.936302
20
-0.144302
11
0.93888
21
-0.140857
0
LINE
8
BLACK
6
CONTINUOUS
10
0.93888
20
-0.140857
11
0.940849
21
-0.13947
0
LINE
8
BLACK
6
CONTINUOUS
10
0.940849
20
-0.13947
11
0.943257
21
-0.139504
0
LINE
8
BLACK
6
CONTINUOUS
10
0.943257
20
-0.139504
11
0.94512
21
-0.140857
0
LINE
8
BLACK
6
CONTINUOUS
10
0.94512
20
-0.140857
11
0.947698
21
-0.144302
0
LINE
8
BLACK
6
CONTINUOUS
10
0.947698
20
-0.144302
11
0.952307
21
-0.147752
0
LINE
8
BLACK
6
CONTINUOUS
10
0.952307
20
-0.147752
11
0.957701
21
-0.149763
0
LINE
8
BLACK
6
CONTINUOUS
10
0.957701
20
-0.149763
11
0.960085
21
-0.15002
0
LINE
8
BLACK
6
CONTINUOUS
10
0.960085
20
-0.15002
11
0.960085
21
-0.15002
0
LINE
8
BLACK
6
CONTINUOUS
10
0.960085
20
-0.15002
11
1.02391
21
-0.15002
0
LINE
8
BLACK
6
CONTINUOUS
10
1.02391
20
-0.15002
11
1.02391
21
-0.15002
0
LINE
8
BLACK
6
CONTINUOUS
10
1.02391
20
-0.15002
11
1.0263
21
-0.149763
0
LINE
8
BLACK
6
CONTINUOUS
10
1.0263
20
-0.149763
11
1.03169
21
-0.147752
0
LINE
8
BLACK
6
CONTINUOUS
10
1.03169
20
-0.147752
11
1.0363
21
-0.144302
0
LINE
8
BLACK
6
CONTINUOUS
10
1.0363
20
-0.144302
11
1.03888
21
-0.140857
0
LINE
8
BLACK
6
CONTINUOUS
10
1.03888
20
-0.140857
11
1.04085
21
-0.13947
0
LINE
8
BLACK
6
CONTINUOUS
10
1.04085
20
-0.13947
11
1.04326
21
-0.139504
0
LINE
8
BLACK
6
CONTINUOUS
10
1.04326
20
-0.139504
11
1.04512
21
-0.140858
0
LINE
8
BLACK
6
CONTINUOUS
10
1.04512
20
-0.140858
11
1.0477
21
-0.144301
0
LINE
8
BLACK
6
CONTINUOUS
10
1.0477
20
-0.144301
11
1.0477
21
-0.144302
0
LINE
8
BLACK
6
CONTINUOUS
10
1.0477
20
-0.144302
11
1.05231
21
-0.147752
0
LINE
8
BLACK
6
CONTINUOUS
10
1.05231
20
-0.147752
11
1.0577
21
-0.149763
0
LINE
8
BLACK
6
CONTINUOUS
10
1.0577
20
-0.149763
11
1.06009
21
-0.15002
0
LINE
8
BLACK
6
CONTINUOUS
10
1.06009
20
-0.15002
11
1.06009
21
-0.15002
0
LINE
8
BLACK
6
CONTINUOUS
10
1.06009
20
-0.15002
11
1.12391
21
-0.15002
0
LINE
8
BLACK
6
CONTINUOUS
10
1.12391
20
-0.15002
11
1.12391
21
-0.15002
0
LINE
8
BLACK
6
CONTINUOUS
10
1.12391
20
-0.15002
11
1.1263
21
-0.149763
0
LINE
8
BLACK
6
CONTINUOUS
10
1.1263
20
-0.149763
11
1.13169
21
-0.147752
0
LINE
8
BLACK
6
CONTINUOUS
10
1.13169
20
-0.147752
11
1.1363
21
-0.144302
0
LINE
8
BLACK
6
CONTINUOUS
10
1.1363
20
-0.144302
11
1.13975
21
-0.139693
0
LINE
8
BLACK
6
CONTINUOUS
10
1.13975
20
-0.139693
11
1.14176
21
-0.134299
0
LINE
8
BLACK
6
CONTINUOUS
10
1.14176
20
-0.134299
11
1.14202
21
-0.131915
0
LINE
8
BLACK
6
CONTINUOUS
10
1.14202
20
-0.131915
11
1.14202
21
-0.0680851
0
LINE
8
BLACK
6
CONTINUOUS
10
1.14202
20
-0.0680851
11
1.14176
21
-0.0657007
0
LINE
8
BLACK
6
CONTINUOUS
10
1.14176
20
-0.0657007
11
1.13975
21
-0.0603069
0
LINE
8
BLACK
6
CONTINUOUS
10
1.13975
20
-0.0603069
11
1.1363
21
-0.0556984
0
LINE
8
BLACK
6
CONTINUOUS
10
1.1363
20
-0.0556984
11
1.13286
21
-0.0531201
0
LINE
8
BLACK
6
CONTINUOUS
10
1.13286
20
-0.0531201
11
1.13147
21
-0.0511514
0
LINE
8
BLACK
6
CONTINUOUS
10
1.13147
20
-0.0511514
11
1.1315
21
-0.0487428
0
LINE
8
BLACK
6
CONTINUOUS
10
1.1315
20
-0.0487428
11
1.13286
21
-0.0468798
0
LINE
8
BLACK
6
CONTINUOUS
10
1.13286
20
-0.0468798
11
1.1363
21
-0.0443016
0
LINE
8
BLACK
6
CONTINUOUS
10
1.1363
20
-0.0443016
11
1.13975
21
-0.0396931
0
LINE
8
BLACK
6
CONTINUOUS
10
1.13975
20
-0.0396931
11
1.14176
21
-0.0342993
0
LINE
8
BLACK
6
CONTINUOUS
10
1.14176
20
-0.0342993
11
1.14202
21
-0.0319149
0
LINE
8
BLACK
6
CONTINUOUS
10
1.14202
20
-0.0319149
11
1.14202
21
0.0319149
0
LINE
8
BLACK
6
CONTINUOUS
10
1.14202
20
0.0319149
11
1.14176
21
0.0342993
0
LINE
8
BLACK
6
CONTINUOUS
10
1.14176
20
0.0342993
11
1.13975
21
0.0396931
0
LINE
8
BLACK
6
CONTINUOUS
10
1.13975
20
0.0396931
11
1.1363
21
0.0443016
0
LINE
8
BLACK
6
CONTINUOUS
10
1.1363
20
0.0443016
11
1.13169
21
0.0477515
0
LINE
8
BLACK
6
CONTINUOUS
10
1.13169
20
0.0477515
11
1.1263
21
0.0497633
0
LINE
8
BLACK
6
CONTINUOUS
10
1.1263
20
0.0497633
11
1.1263
21
0.0497634
0
LINE
8
BLACK
6
CONTINUOUS
10
1.1263
20
0.0497634
11
1.12469
21
0.0499364
0
LINE
8
BLACK
6
CONTINUOUS
10
1.12469
20
0.0499364
11
1.12391
21
0.0500197
0
LINE
8
BLACK
6
CONTINUOUS
10
1.12391
20
0.0500197
11
1.06009
21
0.0500197
0
LINE
8
BLACK
6
CONTINUOUS
10
1.06009
20
0.0500197
11
1.05945
21
0.0499517
0
LINE
8
BLACK
6
CONTINUOUS
10
1.05945
20
0.0499517
11
1.0577
21
0.0497634
0
LINE
8
BLACK
6
CONTINUOUS
10
1.0577
20
0.0497634
11
1.05472
21
0.048652
0
LINE
8
BLACK
6
CONTINUOUS
10
1.05472
20
0.048652
11
1.05231
21
0.0477515
0
LINE
8
BLACK
6
CONTINUOUS
10
1.05231
20
0.0477515
11
1.05231
21
0.0477515
0
LINE
8
BLACK
6
CONTINUOUS
10
1.05231
20
0.0477515
11
1.05231
21
0.0477515
0
LINE
8
BLACK
6
CONTINUOUS
10
1.05231
20
0.0477515
11
1.0477
21
0.0443018
0
LINE
8
BLACK
6
CONTINUOUS
10
1.0477
20
0.0443018
11
1.0477
21
0.0443015
0
LINE
8
BLACK
6
CONTINUOUS
10
1.0477
20
0.0443015
11
1.04512
21
0.0408576
0
LINE
8
BLACK
6
CONTINUOUS
10
1.04512
20
0.0408576
11
1.04315
21
0.0394697
0
LINE
8
BLACK
6
CONTINUOUS
10
1.04315
20
0.0394697
11
1.04074
21
0.0395041
0
LINE
8
BLACK
6
CONTINUOUS
10
1.04074
20
0.0395041
11
1.03888
21
0.0408576
0
LINE
8
BLACK
6
CONTINUOUS
10
1.03888
20
0.0408576
11
1.0363
21
0.0443015
0
LINE
8
BLACK
6
CONTINUOUS
10
1.0363
20
0.0443015
11
1.0363
21
0.0443015
0
LINE
8
BLACK
6
CONTINUOUS
10
1.0363
20
0.0443015
11
1.0363
21
0.0443016
0
LINE
8
BLACK
6
CONTINUOUS
10
1.0363
20
0.0443016
11
1.03169
21
0.0477515
0
LINE
8
BLACK
6
CONTINUOUS
10
1.03169
20
0.0477515
11
1.0263
21
0.0497633
0
LINE
8
BLACK
6
CONTINUOUS
10
1.0263
20
0.0497633
11
1.0263
21
0.0497634
0
LINE
8
BLACK
6
CONTINUOUS
10
1.0263
20
0.0497634
11
1.02469
21
0.0499364
0
LINE
8
BLACK
6
CONTINUOUS
10
1.02469
20
0.0499364
11
1.02391
21
0.0500197
0
LINE
8
BLACK
6
CONTINUOUS
10
1.02391
20
0.0500197
11
0.960085
21
0.0500197
0
LINE
8
BLACK
6
CONTINUOUS
10
0.960085
20
0.0500197
11
0.959452
21
0.0499517
0
LINE
8
BLACK
6
CONTINUOUS
10
0.959452
20
0.0499517
11
0.957701
21
0.0497634
0
LINE
8
BLACK
6
CONTINUOUS
10
0.957701
20
0.0497634
11
0.954721
21
0.048652
0
LINE
8
BLACK
6
CONTINUOUS
10
0.954721
20
0.048652
11
0.952307
21
0.0477515
0
LINE
8
BLACK
6
CONTINUOUS
10
0.952307
20
0.0477515
11
0.952307
21
0.0477515
0
LINE
8
BLACK
6
CONTINUOUS
10
0.952307
20
0.0477515
11
0.952307
21
0.0477515
0
LINE
8
BLACK
6
CONTINUOUS
10
0.952307
20
0.0477515
11
0.947699
21
0.0443018
0
LINE
8
BLACK
6
CONTINUOUS
10
0.947699
20
0.0443018
11
0.947698
21
0.0443015
0
LINE
8
BLACK
6
CONTINUOUS
10
0.947698
20
0.0443015
11
0.94512
21
0.0408576
0
LINE
8
BLACK
6
CONTINUOUS
10
0.94512
20
0.0408576
11
0.943151
21
0.0394697
0
LINE
8
BLACK
6
CONTINUOUS
10
0.943151
20
0.0394697
11
0.940743
21
0.0395041
0
LINE
8
BLACK
6
CONTINUOUS
10
0.940743
20
0.0395041
11
0.93888
21
0.0408576
0
LINE
8
BLACK
6
CONTINUOUS
10
0.93888
20
0.0408576
11
0.936302
21
0.0443015
0
LINE
8
BLACK
6
CONTINUOUS
10
0.936302
20
0.0443015
11
0.936302
21
0.0443015
0
LINE
8
BLACK
6
CONTINUOUS
10
0.936302
20
0.0443015
11
0.936302
21
0.0443016
0
LINE
8
BLACK
6
CONTINUOUS
10
0.936302
20
0.0443016
11
0.931693
21
0.0477515
0
LINE
8
BLACK
6
CONTINUOUS
10
0.931693
20
0.0477515
11
0.926299
21
0.0497633
0
LINE
8
BLACK
6
CONTINUOUS
10
0.926299
20
0.0497633
11
0.926299
21
0.0497634
0
LINE
8
BLACK
6
CONTINUOUS
10
0.926299
20
0.0497634
11
0.92469
21
0.0499364
0
LINE
8
BLACK
6
CONTINUOUS
10
0.92469
20
0.0499364
11
0.923915
21
0.0500197
0
LINE
8
BLACK
6
CONTINUOUS
10
0.923915
20
0.0500197
11
0.860085
21
0.0500197
0
LINE
8
BLACK
6
CONTINUOUS
10
0.860085
20
0.0500197
11
0.859452
21
0.0499517
0
LINE
8
BLACK
6
CONTINUOUS
10
0.859452
20
0.0499517
11
0.857701
21
0.0497634
0
LINE
8
BLACK
6
CONTINUOUS
10
0.857701
20
0.0497634
11
0.854721
21
0.048652
0
LINE
8
BLACK
6
CONTINUOUS
10
0.854721
20
0.048652
11
0.852307
21
0.0477515
0
LINE
8
BLACK
6
CONTINUOUS
10
0.852307
20
0.0477515
11
0.852307
21
0.0477515
0
LINE
8
BLACK
6
CONTINUOUS
10
0.852307
20
0.0477515
11
0.852307
21
0.0477515
0
LINE
8
BLACK
6
CONTINUOUS
10
0.852307
20
0.0477515
11
0.847699
21
0.0443018
0
LINE
8
BLACK
6
CONTINUOUS
10
0.847699
20
0.0443018
11
0.847698
21
0.0443015
0
LINE
8
BLACK
6
CONTINUOUS
10
0.847698
20
0.0443015
11
0.844249
21
0.0396932
0
LINE
8
BLACK
6
CONTINUOUS
10
0.844249
20
0.0396932
11
0.844249
21
0.0396931
0
LINE
8
BLACK
6
CONTINUOUS
10
0.844249
20
0.0396931
11
0.844248
21
0.0396931
0
LINE
8
BLACK
6
CONTINUOUS
10
0.844248
20
0.0396931
11
0.844178
21
0.0395041
0
LINE
8
BLACK
6
CONTINUOUS
10
0.844178
20
0.0395041
11
0.842237
21
0.0342992
0
LINE
8
BLACK
6
CONTINUOUS
10
0.842237
20
0.0342992
11
0.84198
21
0.0319148
0
LINE
8
BLACK
6
CONTINUOUS
10
0.84198
20
0.0319148
11
0.84198
21
-0.0319147
0
LINE
8
BLACK
6
CONTINUOUS
10
0.84198
20
-0.0319147
11
0.842237
21
-0.0342992
0
LINE
8
BLACK
6
CONTINUOUS
10
0.842237
20
-0.0342992
11
0.842237
21
-0.0342993
0
LINE
8
BLACK
6
CONTINUOUS
10
0.842237
20
-0.0342993
11
0.844248
21
-0.0396931
0
LINE
8
BLACK
6
CONTINUOUS
10
0.844248
20
-0.0396931
11
0.847698
21
-0.0443016
0
LINE
8
BLACK
6
CONTINUOUS
10
0.847698
20
-0.0443016
11
0.847699
21
-0.0443017
0
LINE
8
BLACK
6
CONTINUOUS
10
0.847699
20
-0.0443017
11
0.847699
21
-0.0443017
0
LINE
8
BLACK
6
CONTINUOUS
10
0.847699
20
-0.0443017
11
0.851142
21
-0.0468798
0
LINE
8
BLACK
6
CONTINUOUS
10
0.851142
20
-0.0468798
11
0.85253
21
-0.0488486
0
LINE
8
BLACK
6
CONTINUOUS
10
0.85253
20
-0.0488486
11
0.852496
21
-0.0512573
0
LINE
8
BLACK
6
CONTINUOUS
10
0.852496
20
-0.0512573
11
0.851142
21
-0.0531202
0
LINE
8
BLACK
6
CONTINUOUS
10
0.851142
20
-0.0531202
11
0.847699
21
-0.0556982
0
LINE
8
BLACK
6
CONTINUOUS
10
0.847699
20
-0.0556982
11
0.847698
21
-0.0556985
0
LINE
8
BLACK
6
CONTINUOUS
10
0.847698
20
-0.0556985
11
0.844249
21
-0.0603068
0
LINE
8
BLACK
6
CONTINUOUS
10
0.844249
20
-0.0603068
11
0.844249
21
-0.0603069
0
LINE
8
BLACK
6
CONTINUOUS
10
0.844249
20
-0.0603069
11
0.844248
21
-0.0603069
0
LINE
8
BLACK
6
CONTINUOUS
10
0.844248
20
-0.0603069
11
0.844178
21
-0.0604959
0
LINE
8
BLACK
6
CONTINUOUS
10
0.844178
20
-0.0604959
11
0.842237
21
-0.0657008
0
LINE
8
BLACK
6
CONTINUOUS
10
0.842237
20
-0.0657008
11
0.84198
21
-0.0680852
0
LINE
8
BLACK
6
CONTINUOUS
10
0.84198
20
-0.0680852
11
0.84198
21
-0.131915
0
LINE
8
BLACK
6
CONTINUOUS
10
0.84198
20
-0.131915
11
0.842237
21
-0.134299
0
LINE
8
BLACK
6
CONTINUOUS
10
0.579044
20
0.21249
11
0.579044
21
0.21249
0
LINE
8
BLACK
6
CONTINUOUS
10
0.579044
20
0.21249
11
0.580079
21
0.209077
0
LINE
8
BLACK
6
CONTINUOUS
10
0.580079
20
0.209077
11
0.58119
21
0.205418
0
LINE
8
BLACK
6
CONTINUOUS
10
0.58119
20
0.205418
11
0.58119
21
0.205417
0
LINE
8
BLACK
6
CONTINUOUS
10
0.58119
20
0.205417
11
0.58119
21
0.205417
0
LINE
8
BLACK
6
CONTINUOUS
10
0.58119
20
0.205417
11
0.583466
21
0.201159
0
LINE
8
BLACK
6
CONTINUOUS
10
0.583466
20
0.201159
11
0.584674
21
0.1989
0
LINE
8
BLACK
6
CONTINUOUS
10
0.584674
20
0.1989
11
0.589362
21
0.193186
0
LINE
8
BLACK
6
CONTINUOUS
10
0.589362
20
0.193186
11
0.595075
21
0.188498
0
LINE
8
BLACK
6
CONTINUOUS
10
0.595075
20
0.188498
11
0.601593
21
0.185014
0
LINE
8
BLACK
6
CONTINUOUS
10
0.601593
20
0.185014
11
0.606756
21
0.183448
0
LINE
8
BLACK
6
CONTINUOUS
10
0.606756
20
0.183448
11
0.608666
21
0.182868
0
LINE
8
BLACK
6
CONTINUOUS
10
0.608666
20
0.182868
11
0.608666
21
0.182868
0
LINE
8
BLACK
6
CONTINUOUS
10
0.608666
20
0.182868
11
0.616021
21
0.182144
0
LINE
8
BLACK
6
CONTINUOUS
10
0.616021
20
0.182144
11
0.616021
21
0.182144
0
LINE
8
BLACK
6
CONTINUOUS
10
0.616021
20
0.182144
11
0.616021
21
0.182144
0
LINE
8
BLACK
6
CONTINUOUS
10
0.616021
20
0.182144
11
0.623376
21
0.182868
0
LINE
8
BLACK
6
CONTINUOUS
10
0.623376
20
0.182868
11
0.623376
21
0.182868
0
LINE
8
BLACK
6
CONTINUOUS
10
0.623376
20
0.182868
11
0.623611
21
0.18294
0
LINE
8
BLACK
6
CONTINUOUS
10
0.623611
20
0.18294
11
0.630449
21
0.185014
0
LINE
8
BLACK
6
CONTINUOUS
10
0.630449
20
0.185014
11
0.636967
21
0.188498
0
LINE
8
BLACK
6
CONTINUOUS
10
0.636967
20
0.188498
11
0.64268
21
0.193186
0
LINE
8
BLACK
6
CONTINUOUS
10
0.64268
20
0.193186
11
0.647368
21
0.1989
0
LINE
8
BLACK
6
CONTINUOUS
10
0.647368
20
0.1989
11
0.650852
21
0.205418
0
LINE
8
BLACK
6
CONTINUOUS
10
0.650852
20
0.205418
11
0.652998
21
0.21249
0
LINE
8
BLACK
6
CONTINUOUS
10
0.652998
20
0.21249
11
0.652998
21
0.21249
0
LINE
8
BLACK
6
CONTINUOUS
10
0.652998
20
0.21249
11
0.653
21
0.212501
0
LINE
8
BLACK
6
CONTINUOUS
10
0.653
20
0.212501
11
0.653002
21
0.212505
0
LINE
8
BLACK
6
CONTINUOUS
10
0.653002
20
0.212505
11
0.653053
21
0.212673
0
LINE
8
BLACK
6
CONTINUOUS
10
0.653053
20
0.212673
11
0.65309
21
0.212662
0
LINE
8
BLACK
6
CONTINUOUS
10
0.65309
20
0.212662
11
0.654177
21
0.214602
0
LINE
8
BLACK
6
CONTINUOUS
10
0.654177
20
0.214602
11
0.656365
21
0.215611
0
LINE
8
BLACK
6
CONTINUOUS
10
0.656365
20
0.215611
11
0.656823
21
0.215638
0
LINE
8
BLACK
6
CONTINUOUS
10
0.656823
20
0.215638
11
0.76085
21
0.215638
0
LINE
8
BLACK
6
CONTINUOUS
10
0.76085
20
0.215638
11
0.763141
21
0.214893
0
LINE
8
BLACK
6
CONTINUOUS
10
0.763141
20
0.214893
11
0.763323
21
0.214753
0
LINE
8
BLACK
6
CONTINUOUS
10
0.763323
20
0.214753
11
0.76356
21
0.214559
0
LINE
8
BLACK
6
CONTINUOUS
10
0.76356
20
0.214559
11
0.764054
21
0.214153
0
LINE
8
BLACK
6
CONTINUOUS
10
0.764054
20
0.214153
11
0.770572
21
0.210669
0
LINE
8
BLACK
6
CONTINUOUS
10
0.770572
20
0.210669
11
0.775735
21
0.209103
0
LINE
8
BLACK
6
CONTINUOUS
10
0.775735
20
0.209103
11
0.777645
21
0.208523
0
LINE
8
BLACK
6
CONTINUOUS
10
0.777645
20
0.208523
11
0.777645
21
0.208523
0
LINE
8
BLACK
6
CONTINUOUS
10
0.777645
20
0.208523
11
0.785
21
0.207799
0
LINE
8
BLACK
6
CONTINUOUS
10
0.785
20
0.207799
11
0.785
21
0.207799
0
LINE
8
BLACK
6
CONTINUOUS
10
0.785
20
0.207799
11
0.785
21
0.207799
0
LINE
8
BLACK
6
CONTINUOUS
10
0.785
20
0.207799
11
0.792355
21
0.208523
0
LINE
8
BLACK
6
CONTINUOUS
10
0.792355
20
0.208523
11
0.792355
21
0.208523
0
LINE
8
BLACK
6
CONTINUOUS
10
0.792355
20
0.208523
11
0.792355
21
0.208523
0
LINE
8
BLACK
6
CONTINUOUS
10
0.792355
20
0.208523
11
0.799428
21
0.210669
0
LINE
8
BLACK
6
CONTINUOUS
10
0.799428
20
0.210669
11
0.805946
21
0.214153
0
LINE
8
BLACK
6
CONTINUOUS
10
0.805946
20
0.214153
11
0.811659
21
0.218841
0
LINE
8
BLACK
6
CONTINUOUS
10
0.811659
20
0.218841
11
0.816347
21
0.224554
0
LINE
8
BLACK
6
CONTINUOUS
10
0.816347
20
0.224554
11
0.819831
21
0.231072
0
LINE
8
BLACK
6
CONTINUOUS
10
0.819831
20
0.231072
11
0.821977
21
0.238145
0
LINE
8
BLACK
6
CONTINUOUS
10
0.821977
20
0.238145
11
0.822701
21
0.2455
0
LINE
8
BLACK
6
CONTINUOUS
10
0.822701
20
0.2455
11
0.822602
21
0.246504
0
LINE
8
BLACK
6
CONTINUOUS
10
0.822602
20
0.246504
11
0.821977
21
0.252855
0
LINE
8
BLACK
6
CONTINUOUS
10
0.821977
20
0.252855
11
0.821977
21
0.252855
0
LINE
8
BLACK
6
CONTINUOUS
10
0.821977
20
0.252855
11
0.820773
21
0.256822
0
LINE
8
BLACK
6
CONTINUOUS
10
0.820773
20
0.256822
11
0.819831
21
0.259928
0
LINE
8
BLACK
6
CONTINUOUS
10
0.819831
20
0.259928
11
0.816347
21
0.266446
0
LINE
8
BLACK
6
CONTINUOUS
10
0.816347
20
0.266446
11
0.811659
21
0.272159
0
LINE
8
BLACK
6
CONTINUOUS
10
0.811659
20
0.272159
11
0.811405
21
0.272367
0
LINE
8
BLACK
6
CONTINUOUS
10
0.811405
20
0.272367
11
0.805946
21
0.276847
0
LINE
8
BLACK
6
CONTINUOUS
10
0.805946
20
0.276847
11
0.799428
21
0.280331
0
LINE
8
BLACK
6
CONTINUOUS
10
0.799428
20
0.280331
11
0.799428
21
0.280331
0
LINE
8
BLACK
6
CONTINUOUS
10
0.799428
20
0.280331
11
0.799428
21
0.280331
0
LINE
8
BLACK
6
CONTINUOUS
10
0.799428
20
0.280331
11
0.79865
21
0.280567
0
LINE
8
BLACK
6
CONTINUOUS
10
0.79865
20
0.280567
11
0.792355
21
0.282477
0
LINE
8
BLACK
6
CONTINUOUS
10
0.792355
20
0.282477
11
0.792355
21
0.282477
0
LINE
8
BLACK
6
CONTINUOUS
10
0.792355
20
0.282477
11
0.785
21
0.283201
0
LINE
8
BLACK
6
CONTINUOUS
10
0.785
20
0.283201
11
0.785
21
0.283201
0
LINE
8
BLACK
6
CONTINUOUS
10
0.785
20
0.283201
11
0.777645
21
0.282477
0
LINE
8
BLACK
6
CONTINUOUS
10
0.777645
20
0.282477
11
0.777645
21
0.282477
0
LINE
8
BLACK
6
CONTINUOUS
10
0.777645
20
0.282477
11
0.770573
21
0.280331
0
LINE
8
BLACK
6
CONTINUOUS
10
0.770573
20
0.280331
11
0.770572
21
0.280331
0
LINE
8
BLACK
6
CONTINUOUS
10
0.770572
20
0.280331
11
0.770572
21
0.280331
0
LINE
8
BLACK
6
CONTINUOUS
10
0.770572
20
0.280331
11
0.770572
21
0.280331
0
LINE
8
BLACK
6
CONTINUOUS
10
0.770572
20
0.280331
11
0.770572
21
0.280331
0
LINE
8
BLACK
6
CONTINUOUS
10
0.770572
20
0.280331
11
0.764054
21
0.276847
0
LINE
8
BLACK
6
CONTINUOUS
10
0.764054
20
0.276847
11
0.764054
21
0.276847
0
LINE
8
BLACK
6
CONTINUOUS
10
0.764054
20
0.276847
11
0.763323
21
0.276247
0
LINE
8
BLACK
6
CONTINUOUS
10
0.763323
20
0.276247
11
0.761079
21
0.275369
0
LINE
8
BLACK
6
CONTINUOUS
10
0.761079
20
0.275369
11
0.76085
21
0.275362
0
LINE
8
BLACK
6
CONTINUOUS
10
0.76085
20
0.275362
11
0.644135
21
0.275362
0
LINE
8
BLACK
6
CONTINUOUS
10
0.644135
20
0.275362
11
0.64357
21
0.275403
0
LINE
8
BLACK
6
CONTINUOUS
10
0.64357
20
0.275403
11
0.643337
21
0.275438
0
LINE
8
BLACK
6
CONTINUOUS
10
0.643337
20
0.275438
11
0.64255
21
0.275553
0
LINE
8
BLACK
6
CONTINUOUS
10
0.64255
20
0.275553
11
0.64255
21
0.275553
0
LINE
8
BLACK
6
CONTINUOUS
10
0.64255
20
0.275553
11
0.64255
21
0.275553
0
LINE
8
BLACK
6
CONTINUOUS
10
0.64255
20
0.275553
11
0.64255
21
0.275553
0
LINE
8
BLACK
6
CONTINUOUS
10
0.64255
20
0.275553
11
0.641863
21
0.275493
0
LINE
8
BLACK
6
CONTINUOUS
10
0.641863
20
0.275493
11
0.640456
21
0.27537
0
LINE
8
BLACK
6
CONTINUOUS
10
0.640456
20
0.27537
11
0.640287
21
0.275362
0
LINE
8
BLACK
6
CONTINUOUS
10
0.640287
20
0.275362
11
0.639936
21
0.275362
0
LINE
8
BLACK
6
CONTINUOUS
10
0.639936
20
0.275362
11
0.638668
21
0.275214
0
LINE
8
BLACK
6
CONTINUOUS
10
0.638668
20
0.275214
11
0.638612
21
0.275208
0
LINE
8
BLACK
6
CONTINUOUS
10
0.638612
20
0.275208
11
0.6375
21
0.275111
0
LINE
8
BLACK
6
CONTINUOUS
10
0.6375
20
0.275111
11
0.635596
21
0.274944
0
LINE
8
BLACK
6
CONTINUOUS
10
0.635596
20
0.274944
11
0.635596
21
0.274944
0
LINE
8
BLACK
6
CONTINUOUS
10
0.635596
20
0.274944
11
0.635596
21
0.274944
0
LINE
8
BLACK
6
CONTINUOUS
10
0.635596
20
0.274944
11
0.635556
21
0.274931
0
LINE
8
BLACK
6
CONTINUOUS
10
0.635556
20
0.274931
11
0.634783
21
0.27476
0
LINE
8
BLACK
6
CONTINUOUS
10
0.634783
20
0.27476
11
0.63476
21
0.274757
0
LINE
8
BLACK
6
CONTINUOUS
10
0.63476
20
0.274757
11
0.634742
21
0.274755
0
LINE
8
BLACK
6
CONTINUOUS
10
0.634742
20
0.274755
11
0.631897
21
0.27372
0
LINE
8
BLACK
6
CONTINUOUS
10
0.631897
20
0.27372
11
0.631844
21
0.273701
0
LINE
8
BLACK
6
CONTINUOUS
10
0.631844
20
0.273701
11
0.628969
21
0.272749
0
LINE
8
BLACK
6
CONTINUOUS
10
0.628969
20
0.272749
11
0.628969
21
0.272749
0
LINE
8
BLACK
6
CONTINUOUS
10
0.628969
20
0.272749
11
0.628934
21
0.272726
0
LINE
8
BLACK
6
CONTINUOUS
10
0.628934
20
0.272726
11
0.628222
21
0.272382
0
LINE
8
BLACK
6
CONTINUOUS
10
0.628222
20
0.272382
11
0.628183
21
0.272368
0
LINE
8
BLACK
6
CONTINUOUS
10
0.628183
20
0.272368
11
0.628182
21
0.272367
0
LINE
8
BLACK
6
CONTINUOUS
10
0.628182
20
0.272367
11
0.625651
21
0.270703
0
LINE
8
BLACK
6
CONTINUOUS
10
0.625651
20
0.270703
11
0.625603
21
0.270672
0
LINE
8
BLACK
6
CONTINUOUS
10
0.625603
20
0.270672
11
0.623028
21
0.269084
0
LINE
8
BLACK
6
CONTINUOUS
10
0.623028
20
0.269084
11
0.623028
21
0.269084
0
LINE
8
BLACK
6
CONTINUOUS
10
0.623028
20
0.269084
11
0.622999
21
0.269054
0
LINE
8
BLACK
6
CONTINUOUS
10
0.622999
20
0.269054
11
0.622385
21
0.268555
0
LINE
8
BLACK
6
CONTINUOUS
10
0.622385
20
0.268555
11
0.62235
21
0.268532
0
LINE
8
BLACK
6
CONTINUOUS
10
0.62235
20
0.268532
11
0.62235
21
0.268531
0
LINE
8
BLACK
6
CONTINUOUS
10
0.62235
20
0.268531
11
0.620272
21
0.266329
0
LINE
8
BLACK
6
CONTINUOUS
10
0.620272
20
0.266329
11
0.620232
21
0.266288
0
LINE
8
BLACK
6
CONTINUOUS
10
0.620232
20
0.266288
11
0.611982
21
0.258038
0
LINE
8
BLACK
6
CONTINUOUS
10
0.611982
20
0.258038
11
0.609835
21
0.256944
0
LINE
8
BLACK
6
CONTINUOUS
10
0.609835
20
0.256944
11
0.609608
21
0.256915
0
LINE
8
BLACK
6
CONTINUOUS
10
0.609608
20
0.256915
11
0.608666
21
0.256822
0
LINE
8
BLACK
6
CONTINUOUS
10
0.608666
20
0.256822
11
0.608666
21
0.256822
0
LINE
8
BLACK
6
CONTINUOUS
10
0.608666
20
0.256822
11
0.601594
21
0.254677
0
LINE
8
BLACK
6
CONTINUOUS
10
0.601594
20
0.254677
11
0.601593
21
0.254677
0
LINE
8
BLACK
6
CONTINUOUS
10
0.601593
20
0.254677
11
0.601593
21
0.254677
0
LINE
8
BLACK
6
CONTINUOUS
10
0.601593
20
0.254677
11
0.601593
21
0.254677
0
LINE
8
BLACK
6
CONTINUOUS
10
0.601593
20
0.254677
11
0.601593
21
0.254677
0
LINE
8
BLACK
6
CONTINUOUS
10
0.601593
20
0.254677
11
0.595075
21
0.251193
0
LINE
8
BLACK
6
CONTINUOUS
10
0.595075
20
0.251193
11
0.589362
21
0.246504
0
LINE
8
BLACK
6
CONTINUOUS
10
0.589362
20
0.246504
11
0.589362
21
0.246504
0
LINE
8
BLACK
6
CONTINUOUS
10
0.589362
20
0.246504
11
0.584673
21
0.240791
0
LINE
8
BLACK
6
CONTINUOUS
10
0.584673
20
0.240791
11
0.58119
21
0.234273
0
LINE
8
BLACK
6
CONTINUOUS
10
0.58119
20
0.234273
11
0.581189
21
0.234273
0
LINE
8
BLACK
6
CONTINUOUS
10
0.581189
20
0.234273
11
0.579044
21
0.2272
0
LINE
8
BLACK
6
CONTINUOUS
10
0.579044
20
0.2272
11
0.579044
21
0.2272
0
LINE
8
BLACK
6
CONTINUOUS
10
0.579044
20
0.2272
11
0.57832
21
0.219845
0
LINE
8
BLACK
6
CONTINUOUS
10
0.57832
20
0.219845
11
0.57832
21
0.219845
0
LINE
8
BLACK
6
CONTINUOUS
10
0.57832
20
0.219845
11
0.579044
21
0.21249
0
LINE
8
BLACK
6
CONTINUOUS
10
-0.0497634
20
0.415701
11
-0.0493131
21
0.414494
0
LINE
8
BLACK
6
CONTINUOUS
10
-0.0493131
20
0.414494
11
-0.0477515
21
0.410307
0
LINE
8
BLACK
6
CONTINUOUS
10
-0.0477515
20
0.410307
11
-0.0477515
21
0.410307
0
LINE
8
BLACK
6
CONTINUOUS
10
-0.0477515
20
0.410307
11
-0.0477515
21
0.410307
0
LINE
8
BLACK
6
CONTINUOUS
10
-0.0477515
20
0.410307
11
-0.047239
21
0.409622
0
LINE
8
BLACK
6
CONTINUOUS
10
-0.047239
20
0.409622
11
-0.0443016
21
0.405698
0
LINE
8
BLACK
6
CONTINUOUS
10
-0.0443016
20
0.405698
11
-0.0396931
21
0.402248
0
LINE
8
BLACK
6
CONTINUOUS
10
-0.0396931
20
0.402248
11
-0.0342993
21
0.400237
0
LINE
8
BLACK
6
CONTINUOUS
10
-0.0342993
20
0.400237
11
-0.0319149
21
0.39998
0
LINE
8
BLACK
6
CONTINUOUS
10
-0.0319149
20
0.39998
11
-0.0319148
21
0.39998
0
LINE
8
BLACK
6
CONTINUOUS
10
-0.0319148
20
0.39998
11
0.0319148
21
0.39998
0
LINE
8
BLACK
6
CONTINUOUS
10
0.0319148
20
0.39998
11
0.0319149
21
0.39998
0
LINE
8
BLACK
6
CONTINUOUS
10
0.0319149
20
0.39998
11
0.0342993
21
0.400237
0
LINE
8
BLACK
6
CONTINUOUS
10
0.0342993
20
0.400237
11
0.0396931
21
0.402248
0
LINE
8
BLACK
6
CONTINUOUS
10
0.0396931
20
0.402248
11
0.0443016
21
0.405698
0
LINE
8
BLACK
6
CONTINUOUS
10
0.0443016
20
0.405698
11
0.0468798
21
0.409143
0
LINE
8
BLACK
6
CONTINUOUS
10
0.0468798
20
0.409143
11
0.0488486
21
0.41053
0
LINE
8
BLACK
6
CONTINUOUS
10
0.0488486
20
0.41053
11
0.0512572
21
0.410496
0
LINE
8
BLACK
6
CONTINUOUS
10
0.0512572
20
0.410496
11
0.0531201
21
0.409143
0
LINE
8
BLACK
6
CONTINUOUS
10
0.0531201
20
0.409143
11
0.0556984
21
0.405698
0
LINE
8
BLACK
6
CONTINUOUS
10
0.0556984
20
0.405698
11
0.0603069
21
0.402248
0
LINE
8
BLACK
6
CONTINUOUS
10
0.0603069
20
0.402248
11
0.0657007
21
0.400237
0
LINE
8
BLACK
6
CONTINUOUS
10
0.0657007
20
0.400237
11
0.0680851
21
0.39998
0
LINE
8
BLACK
6
CONTINUOUS
10
0.0680851
20
0.39998
11
0.0680852
21
0.39998
0
LINE
8
BLACK
6
CONTINUOUS
10
0.0680852
20
0.39998
11
0.131915
21
0.39998
0
LINE
8
BLACK
6
CONTINUOUS
10
0.131915
20
0.39998
11
0.131915
21
0.39998
0
LINE
8
BLACK
6
CONTINUOUS
10
0.131915
20
0.39998
11
0.134299
21
0.400237
0
LINE
8
BLACK
6
CONTINUOUS
10
0.134299
20
0.400237
11
0.139693
21
0.402248
0
LINE
8
BLACK
6
CONTINUOUS
10
0.139693
20
0.402248
11
0.144302
21
0.405698
0
LINE
8
BLACK
6
CONTINUOUS
10
0.144302
20
0.405698
11
0.147752
21
0.410307
0
LINE
8
BLACK
6
CONTINUOUS
10
0.147752
20
0.410307
11
0.149763
21
0.415701
0
LINE
8
BLACK
6
CONTINUOUS
10
0.149763
20
0.415701
11
0.15002
21
0.418085
0
LINE
8
BLACK
6
CONTINUOUS
10
0.15002
20
0.418085
11
0.15002
21
0.481915
0
LINE
8
BLACK
6
CONTINUOUS
10
0.15002
20
0.481915
11
0.149763
21
0.484299
0
LINE
8
BLACK
6
CONTINUOUS
10
0.149763
20
0.484299
11
0.147752
21
0.489693
0
LINE
8
BLACK
6
CONTINUOUS
10
0.147752
20
0.489693
11
0.144302
21
0.494302
0
LINE
8
BLACK
6
CONTINUOUS
10
0.144302
20
0.494302
11
0.142147
21
0.495915
0
LINE
8
BLACK
6
CONTINUOUS
10
0.142147
20
0.495915
11
0.139693
21
0.497751
0
LINE
8
BLACK
6
CONTINUOUS
10
0.139693
20
0.497751
11
0.139693
21
0.497751
0
LINE
8
BLACK
6
CONTINUOUS
10
0.139693
20
0.497751
11
0.139693
21
0.497752
0
LINE
8
BLACK
6
CONTINUOUS
10
0.139693
20
0.497752
11
0.134299
21
0.499763
0
LINE
8
BLACK
6
CONTINUOUS
10
0.134299
20
0.499763
11
0.134299
21
0.499763
0
LINE
8
BLACK
6
CONTINUOUS
10
0.134299
20
0.499763
11
0.13269
21
0.499936
0
LINE
8
BLACK
6
CONTINUOUS
10
0.13269
20
0.499936
11
0.131915
21
0.50002
0
LINE
8
BLACK
6
CONTINUOUS
10
0.131915
20
0.50002
11
0.0680851
21
0.50002
0
LINE
8
BLACK
6
CONTINUOUS
10
0.0680851
20
0.50002
11
0.0674523
21
0.499952
0
LINE
8
BLACK
6
CONTINUOUS
10
0.0674523
20
0.499952
11
0.0657008
21
0.499763
0
LINE
8
BLACK
6
CONTINUOUS
10
0.0657008
20
0.499763
11
0.0627211
21
0.498652
0
LINE
8
BLACK
6
CONTINUOUS
10
0.0627211
20
0.498652
11
0.0603069
21
0.497752
0
LINE
8
BLACK
6
CONTINUOUS
10
0.0603069
20
0.497752
11
0.0603069
21
0.497751
0
LINE
8
BLACK
6
CONTINUOUS
10
0.0603069
20
0.497751
11
0.0603068
21
0.497751
0
LINE
8
BLACK
6
CONTINUOUS
10
0.0603068
20
0.497751
11
0.0556985
21
0.494302
0
LINE
8
BLACK
6
CONTINUOUS
10
0.0556985
20
0.494302
11
0.0556982
21
0.494301
0
LINE
8
BLACK
6
CONTINUOUS
10
0.0556982
20
0.494301
11
0.0531202
21
0.490858
0
LINE
8
BLACK
6
CONTINUOUS
10
0.0531202
20
0.490858
11
0.0511514
21
0.48947
0
LINE
8
BLACK
6
CONTINUOUS
10
0.0511514
20
0.48947
11
0.0487427
21
0.489504
0
LINE
8
BLACK
6
CONTINUOUS
10
0.0487427
20
0.489504
11
0.0468798
21
0.490858
0
LINE
8
BLACK
6
CONTINUOUS
10
0.0468798
20
0.490858
11
0.0443017
21
0.494301
0
LINE
8
BLACK
6
CONTINUOUS
10
0.0443017
20
0.494301
11
0.0443017
21
0.494301
0
LINE
8
BLACK
6
CONTINUOUS
10
0.0443017
20
0.494301
11
0.0443016
21
0.494302
0
LINE
8
BLACK
6
CONTINUOUS
10
0.0443016
20
0.494302
11
0.0421467
21
0.495915
0
LINE
8
BLACK
6
CONTINUOUS
10
0.0421467
20
0.495915
11
0.0396932
21
0.497751
0
LINE
8
BLACK
6
CONTINUOUS
10
0.0396932
20
0.497751
11
0.0396931
21
0.497751
0
LINE
8
BLACK
6
CONTINUOUS
10
0.0396931
20
0.497751
11
0.0396931
21
0.497752
0
LINE
8
BLACK
6
CONTINUOUS
10
0.0396931
20
0.497752
11
0.0342993
21
0.499763
0
LINE
8
BLACK
6
CONTINUOUS
10
0.0342993
20
0.499763
11
0.0342992
21
0.499763
0
LINE
8
BLACK
6
CONTINUOUS
10
0.0342992
20
0.499763
11
0.03269
21
0.499936
0
LINE
8
BLACK
6
CONTINUOUS
10
0.03269
20
0.499936
11
0.0319149
21
0.50002
0
LINE
8
BLACK
6
CONTINUOUS
10
0.0319149
20
0.50002
11
-0.0319149
21
0.50002
0
LINE
8
BLACK
6
CONTINUOUS
10
-0.0319149
20
0.50002
11
-0.0325477
21
0.499952
0
LINE
8
BLACK
6
CONTINUOUS
10
-0.0325477
20
0.499952
11
-0.0342992
21
0.499763
0
LINE
8
BLACK
6
CONTINUOUS
10
-0.0342992
20
0.499763
11
-0.0372789
21
0.498652
0
LINE
8
BLACK
6
CONTINUOUS
10
-0.0372789
20
0.498652
11
-0.0396931
21
0.497752
0
LINE
8
BLACK
6
CONTINUOUS
10
-0.0396931
20
0.497752
11
-0.0396931
21
0.497751
0
LINE
8
BLACK
6
CONTINUOUS
10
-0.0396931
20
0.497751
11
-0.0396932
21
0.497751
0
LINE
8
BLACK
6
CONTINUOUS
10
-0.0396932
20
0.497751
11
-0.0443015
21
0.494302
0
LINE
8
BLACK
6
CONTINUOUS
10
-0.0443015
20
0.494302
11
-0.0443018
21
0.494301
0
LINE
8
BLACK
6
CONTINUOUS
10
-0.0443018
20
0.494301
11
-0.0477515
21
0.489693
0
LINE
8
BLACK
6
CONTINUOUS
10
-0.0477515
20
0.489693
11
-0.0477515
21
0.489693
0
LINE
8
BLACK
6
CONTINUOUS
10
-0.0477515
20
0.489693
11
-0.0477515
21
0.489693
0
LINE
8
BLACK
6
CONTINUOUS
10
-0.0477515
20
0.489693
11
-0.047822
21
0.489504
0
LINE
8
BLACK
6
CONTINUOUS
10
-0.047822
20
0.489504
11
-0.0497634
21
0.484299
0
LINE
8
BLACK
6
CONTINUOUS
10
-0.0497634
20
0.484299
11
-0.0500197
21
0.481915
0
LINE
8
BLACK
6
CONTINUOUS
10
-0.0500197
20
0.481915
11
-0.0500197
21
0.418085
0
LINE
8
BLACK
6
CONTINUOUS
10
-0.0500197
20
0.418085
11
-0.0497634
21
0.415701
0
CIRCLE
8
BLACK
10
0.1
20
0.35
40
0.00688976
0
CIRCLE
8
BLACK
10
0
20
0.35
40
0.00688976
0
CIRCLE
8
BLACK
10
0.1
20
0.45
40
0.00688976
0
CIRCLE
8
BLACK
10
0
20
0.45
40
0.00688976
0
CIRCLE
8
BLACK
10
0.1
20
0.55
40
0.00688976
0
CIRCLE
8
BLACK
10
0
20
0.55
40
0.00688976
0
CIRCLE
8
BLACK
10
1.192
20
0
40
0.00688976
0
CIRCLE
8
BLACK
10
1.192
20
-0.1
40
0.00688976
0
CIRCLE
8
BLACK
10
1.092
20
0
40
0.00688976
0
CIRCLE
8
BLACK
10
1.092
20
-0.1
40
0.00688976
0
CIRCLE
8
BLACK
10
0.992
20
0
40
0.00688976
0
CIRCLE
8
BLACK
10
0.992
20
-0.1
40
0.00688976
0
CIRCLE
8
BLACK
10
0.892
20
0
40
0.00688976
0
CIRCLE
8
BLACK
10
0.892
20
-0.1
40
0.00688976
0
CIRCLE
8
BLACK
10
0.792
20
0
40
0.00688976
0
CIRCLE
8
BLACK
10
0.792
20
-0.1
40
0.00688976
0
CIRCLE
8
BLACK
10
1.679
20
0.364
40
0.00688976
0
CIRCLE
8
BLACK
10
1.579
20
0.364
40
0.00688976
0
CIRCLE
8
BLACK
10
1.679
20
0.464
40
0.00688976
0
CIRCLE
8
BLACK
10
1.579
20
0.464
40
0.00688976
0
CIRCLE
8
BLACK
10
1.679
20
0.564
40
0.00688976
0
CIRCLE
8
BLACK
10
1.579
20
0.564
40
0.00688976
0
CIRCLE
8
BLACK
10
0
20
0
40
0.00688976
0
CIRCLE
8
BLACK
10
0
20
0.8
40
0.00688976
0
CIRCLE
8
BLACK
10
1.6
20
0
40
0.00688976
0
CIRCLE
8
BLACK
10
1.6
20
0.8
40
0.00688976
0
CIRCLE
8
BLACK
10
0.81
20
0.65
40
0.00688976
0
CIRCLE
8
BLACK
10
0.81
20
0.75
40
0.00688976
0
CIRCLE
8
BLACK
10
0.375
20
0.375
40
0.00688976
0
CIRCLE
8
BLACK
10
0.475
20
0.375
40
0.00688976
0
CIRCLE
8
BLACK
10
0.575
20
0.375
40
0.00688976
0
CIRCLE
8
BLACK
10
0.974
20
0.65
40
0.0125
0
CIRCLE
8
BLACK
10
0.671
20
0.882
40
0.0125
0
CIRCLE
8
BLACK
10
1.29
20
0.859
40
0.0125
0
CIRCLE
8
BLACK
10
1.093
20
0.878
40
0.0125
0
CIRCLE
8
BLACK
10
0.975
20
0.55
40
0.0125
0
CIRCLE
8
BLACK
10
0.866
20
0.52
40
0.0125
0
CIRCLE
8
BLACK
10
0.916
20
0.136
40
0.0125
0
CIRCLE
8
BLACK
10
-0.086
20
0.626
40
0.0125
0
CIRCLE
8
BLACK
10
-0.086
20
0.19
40
0.0125
0
CIRCLE
8
BLACK
10
1.126
20
0.482
40
0.0125
0
CIRCLE
8
BLACK
10
1.314
20
0.147
40
0.0125
0
CIRCLE
8
BLACK
10
0.0504724
20
0.196811
40
0.0125
0
CIRCLE
8
BLACK
10
1.458
20
0.201
40
0.0125
0
CIRCLE
8
BLACK
10
1.0825
20
0.1275
40
0.0125
0
CIRCLE
8
BLACK
10
0.907
20
0.874
40
0.0125
0
CIRCLE
8
BLACK
10
0.481
20
0.899
40
0.0125
0
CIRCLE
8
BLACK
10
0.169
20
0.729
40
0.0125
0
CIRCLE
8
BLACK
10
0.775214
20
0.374791
40
0.0125
0
CIRCLE
8
BLACK
10
0.687
20
0.533
40
0.0125
0
CIRCLE
8
BLACK
10
1.13118
20
0.722402
40
0.0125
0
CIRCLE
8
BLACK
10
0.785
20
0.2455
40
0.0125
0
CIRCLE
8
BLACK
10
0.616021
20
0.219845
40
0.0125
0
CIRCLE
8
BLACK
10
0.863
20
0.1745
40
0.0125
0
CIRCLE
8
BLACK
10
0.877874
20
0.39
40
0.0125
0
CIRCLE
8
BLACK
10
0.729189
20
0.607811
40
0.0125
  0
ENDSEC
  0
EOF
