  0
SECTION
  2
HEADER
  9
$ANGBASE
  50
0.0
  9
$ANGDIR
  70
1
  9
$MEASUREMENT
  70
0
  0
ENDSEC
  0
SECTION
  2
TABLES
  0
TABLE
  2
LTYPE
  70
4
  0
LTYPE
  5
40F
  2
CONTINUOUS
  70
0
  3
Solid line
  72
65
  73
0
  40
0.0
  0
LTYPE
  5
410
  2
DASHDOT
 70
0
  3
Dash Dot ____ _ ____ _
 72
65
 73
4
 40
2.0
 49
1.25
 49
-0.25
 49
0.25
 49
-0.25
  0
LTYPE
  5
411
  2
DASHED
 70
0
  3
Dashed __ __ __ __ __
 72
65
 73
2
 40
0.75
 49
0.5
 49
-0.25
  0
LTYPE
  5
43B
  2
DOTTED
 70
0
  3
Dotted .  .  .  .
 72
65
 73
2
 40
0.2
 49
0.0
 49
-0.2
  0
ENDTAB
  0
TABLE
  2
STYLE
  70
4
  0
STYLE
  2
KICAD
  70
0
  40
0
  41
1
  42
1
  50
0
  71
0
  3
isocp.shx
  0
STYLE
  2
KICADB
  70
0
  40
0
  41
1
  42
1
  50
0
  71
0
  3
isocp.shx
  0
STYLE
  2
KICADI
  70
0
  40
0
  41
1
  42
1
  50
15
  71
0
  3
isocp.shx
  0
STYLE
  2
KICADBI
  70
0
  40
0
  41
1
  42
1
  50
15
  71
0
  3
isocp.shx
  0
ENDTAB
  0
TABLE
  2
LAYER
  70
1
  0
LAYER
  2
BLACK
  70
0
  62
7
  6
CONTINUOUS
  0
ENDTAB
  0
ENDSEC
  0
SECTION
  2
ENTITIES
0
LINE
8
BLACK
6
CONTINUOUS
10
0.150384
20
0.602885
11
0.150513
21
0.602908
0
LINE
8
BLACK
6
CONTINUOUS
10
0.150513
20
0.602908
11
0.150626
21
0.602842
0
LINE
8
BLACK
6
CONTINUOUS
10
0.150626
20
0.602842
11
0.15101
21
0.602775
0
LINE
8
BLACK
6
CONTINUOUS
10
0.15101
20
0.602775
11
0.151598
21
0.602282
0
LINE
8
BLACK
6
CONTINUOUS
10
0.151598
20
0.602282
11
0.152262
21
0.601898
0
LINE
8
BLACK
6
CONTINUOUS
10
0.152262
20
0.601898
11
0.152353
21
0.601648
0
LINE
8
BLACK
6
CONTINUOUS
10
0.152353
20
0.601648
11
0.152557
21
0.601476
0
LINE
8
BLACK
6
CONTINUOUS
10
0.152557
20
0.601476
11
0.15269
21
0.600721
0
LINE
8
BLACK
6
CONTINUOUS
10
0.15269
20
0.600721
11
0.152953
21
0.6
0
LINE
8
BLACK
6
CONTINUOUS
10
0.152953
20
0.6
11
0.152953
21
0.3
0
LINE
8
BLACK
6
CONTINUOUS
10
0.152953
20
0.3
11
0.152885
21
0.299616
0
LINE
8
BLACK
6
CONTINUOUS
10
0.152885
20
0.299616
11
0.152908
21
0.299487
0
LINE
8
BLACK
6
CONTINUOUS
10
0.152908
20
0.299487
11
0.152842
21
0.299374
0
LINE
8
BLACK
6
CONTINUOUS
10
0.152842
20
0.299374
11
0.152775
21
0.29899
0
LINE
8
BLACK
6
CONTINUOUS
10
0.152775
20
0.29899
11
0.152282
21
0.298402
0
LINE
8
BLACK
6
CONTINUOUS
10
0.152282
20
0.298402
11
0.151898
21
0.297738
0
LINE
8
BLACK
6
CONTINUOUS
10
0.151898
20
0.297738
11
0.151648
21
0.297647
0
LINE
8
BLACK
6
CONTINUOUS
10
0.151648
20
0.297647
11
0.151476
21
0.297443
0
LINE
8
BLACK
6
CONTINUOUS
10
0.151476
20
0.297443
11
0.150721
21
0.29731
0
LINE
8
BLACK
6
CONTINUOUS
10
0.150721
20
0.29731
11
0.15
21
0.297047
0
LINE
8
BLACK
6
CONTINUOUS
10
0.15
20
0.297047
11
-0.05
21
0.297047
0
LINE
8
BLACK
6
CONTINUOUS
10
-0.05
20
0.297047
11
-0.0503835
21
0.297115
0
LINE
8
BLACK
6
CONTINUOUS
10
-0.0503835
20
0.297115
11
-0.0505128
21
0.297092
0
LINE
8
BLACK
6
CONTINUOUS
10
-0.0505128
20
0.297092
11
-0.0506264
21
0.297158
0
LINE
8
BLACK
6
CONTINUOUS
10
-0.0506264
20
0.297158
11
-0.0510099
21
0.297225
0
LINE
8
BLACK
6
CONTINUOUS
10
-0.0510099
20
0.297225
11
-0.0515976
21
0.297718
0
LINE
8
BLACK
6
CONTINUOUS
10
-0.0515976
20
0.297718
11
-0.0522619
21
0.298102
0
LINE
8
BLACK
6
CONTINUOUS
10
-0.0522619
20
0.298102
11
-0.052353
21
0.298352
0
LINE
8
BLACK
6
CONTINUOUS
10
-0.052353
20
0.298352
11
-0.0525572
21
0.298524
0
LINE
8
BLACK
6
CONTINUOUS
10
-0.0525572
20
0.298524
11
-0.0526904
21
0.299279
0
LINE
8
BLACK
6
CONTINUOUS
10
-0.0526904
20
0.299279
11
-0.0529528
21
0.3
0
LINE
8
BLACK
6
CONTINUOUS
10
-0.0529528
20
0.3
11
-0.0529528
21
0.6
0
LINE
8
BLACK
6
CONTINUOUS
10
-0.0529528
20
0.6
11
-0.0528851
21
0.600384
0
LINE
8
BLACK
6
CONTINUOUS
10
-0.0528851
20
0.600384
11
-0.0529079
21
0.600513
0
LINE
8
BLACK
6
CONTINUOUS
10
-0.0529079
20
0.600513
11
-0.0528423
21
0.600626
0
LINE
8
BLACK
6
CONTINUOUS
10
-0.0528423
20
0.600626
11
-0.0527747
21
0.60101
0
LINE
8
BLACK
6
CONTINUOUS
10
-0.0527747
20
0.60101
11
-0.0522815
21
0.601598
0
LINE
8
BLACK
6
CONTINUOUS
10
-0.0522815
20
0.601598
11
-0.051898
21
0.602262
0
LINE
8
BLACK
6
CONTINUOUS
10
-0.051898
20
0.602262
11
-0.0516476
21
0.602353
0
LINE
8
BLACK
6
CONTINUOUS
10
-0.0516476
20
0.602353
11
-0.0514764
21
0.602557
0
LINE
8
BLACK
6
CONTINUOUS
10
-0.0514764
20
0.602557
11
-0.0507208
21
0.60269
0
LINE
8
BLACK
6
CONTINUOUS
10
-0.0507208
20
0.60269
11
-0.05
21
0.602953
0
LINE
8
BLACK
6
CONTINUOUS
10
-0.05
20
0.602953
11
0.15
21
0.602953
0
LINE
8
BLACK
6
CONTINUOUS
10
0.15
20
0.602953
11
0.150384
21
0.602885
0
LINE
8
BLACK
6
CONTINUOUS
10
-0.0470472
20
0.597047
11
-0.0470472
21
0.302953
0
LINE
8
BLACK
6
CONTINUOUS
10
-0.0470472
20
0.302953
11
0.147047
21
0.302953
0
LINE
8
BLACK
6
CONTINUOUS
10
0.147047
20
0.302953
11
0.147047
21
0.597047
0
LINE
8
BLACK
6
CONTINUOUS
10
0.147047
20
0.597047
11
-0.0470472
21
0.597047
0
LINE
8
BLACK
6
CONTINUOUS
10
1.72938
20
0.616885
11
1.72951
21
0.616908
0
LINE
8
BLACK
6
CONTINUOUS
10
1.72951
20
0.616908
11
1.72963
21
0.616842
0
LINE
8
BLACK
6
CONTINUOUS
10
1.72963
20
0.616842
11
1.73001
21
0.616775
0
LINE
8
BLACK
6
CONTINUOUS
10
1.73001
20
0.616775
11
1.7306
21
0.616282
0
LINE
8
BLACK
6
CONTINUOUS
10
1.7306
20
0.616282
11
1.73126
21
0.615898
0
LINE
8
BLACK
6
CONTINUOUS
10
1.73126
20
0.615898
11
1.73135
21
0.615648
0
LINE
8
BLACK
6
CONTINUOUS
10
1.73135
20
0.615648
11
1.73156
21
0.615476
0
LINE
8
BLACK
6
CONTINUOUS
10
1.73156
20
0.615476
11
1.73169
21
0.614721
0
LINE
8
BLACK
6
CONTINUOUS
10
1.73169
20
0.614721
11
1.73195
21
0.614
0
LINE
8
BLACK
6
CONTINUOUS
10
1.73195
20
0.614
11
1.73195
21
0.314
0
LINE
8
BLACK
6
CONTINUOUS
10
1.73195
20
0.314
11
1.73189
21
0.313616
0
LINE
8
BLACK
6
CONTINUOUS
10
1.73189
20
0.313616
11
1.73191
21
0.313487
0
LINE
8
BLACK
6
CONTINUOUS
10
1.73191
20
0.313487
11
1.73184
21
0.313374
0
LINE
8
BLACK
6
CONTINUOUS
10
1.73184
20
0.313374
11
1.73177
21
0.31299
0
LINE
8
BLACK
6
CONTINUOUS
10
1.73177
20
0.31299
11
1.73128
21
0.312402
0
LINE
8
BLACK
6
CONTINUOUS
10
1.73128
20
0.312402
11
1.7309
21
0.311738
0
LINE
8
BLACK
6
CONTINUOUS
10
1.7309
20
0.311738
11
1.73065
21
0.311647
0
LINE
8
BLACK
6
CONTINUOUS
10
1.73065
20
0.311647
11
1.73048
21
0.311443
0
LINE
8
BLACK
6
CONTINUOUS
10
1.73048
20
0.311443
11
1.72972
21
0.31131
0
LINE
8
BLACK
6
CONTINUOUS
10
1.72972
20
0.31131
11
1.729
21
0.311047
0
LINE
8
BLACK
6
CONTINUOUS
10
1.729
20
0.311047
11
1.529
21
0.311047
0
LINE
8
BLACK
6
CONTINUOUS
10
1.529
20
0.311047
11
1.52862
21
0.311115
0
LINE
8
BLACK
6
CONTINUOUS
10
1.52862
20
0.311115
11
1.52849
21
0.311092
0
LINE
8
BLACK
6
CONTINUOUS
10
1.52849
20
0.311092
11
1.52837
21
0.311158
0
LINE
8
BLACK
6
CONTINUOUS
10
1.52837
20
0.311158
11
1.52799
21
0.311225
0
LINE
8
BLACK
6
CONTINUOUS
10
1.52799
20
0.311225
11
1.5274
21
0.311718
0
LINE
8
BLACK
6
CONTINUOUS
10
1.5274
20
0.311718
11
1.52674
21
0.312102
0
LINE
8
BLACK
6
CONTINUOUS
10
1.52674
20
0.312102
11
1.52665
21
0.312352
0
LINE
8
BLACK
6
CONTINUOUS
10
1.52665
20
0.312352
11
1.52644
21
0.312524
0
LINE
8
BLACK
6
CONTINUOUS
10
1.52644
20
0.312524
11
1.52631
21
0.313279
0
LINE
8
BLACK
6
CONTINUOUS
10
1.52631
20
0.313279
11
1.52605
21
0.314
0
LINE
8
BLACK
6
CONTINUOUS
10
1.52605
20
0.314
11
1.52605
21
0.614
0
LINE
8
BLACK
6
CONTINUOUS
10
1.52605
20
0.614
11
1.52611
21
0.614384
0
LINE
8
BLACK
6
CONTINUOUS
10
1.52611
20
0.614384
11
1.52609
21
0.614513
0
LINE
8
BLACK
6
CONTINUOUS
10
1.52609
20
0.614513
11
1.52616
21
0.614626
0
LINE
8
BLACK
6
CONTINUOUS
10
1.52616
20
0.614626
11
1.52623
21
0.61501
0
LINE
8
BLACK
6
CONTINUOUS
10
1.52623
20
0.61501
11
1.52672
21
0.615598
0
LINE
8
BLACK
6
CONTINUOUS
10
1.52672
20
0.615598
11
1.5271
21
0.616262
0
LINE
8
BLACK
6
CONTINUOUS
10
1.5271
20
0.616262
11
1.52735
21
0.616353
0
LINE
8
BLACK
6
CONTINUOUS
10
1.52735
20
0.616353
11
1.52752
21
0.616557
0
LINE
8
BLACK
6
CONTINUOUS
10
1.52752
20
0.616557
11
1.52828
21
0.61669
0
LINE
8
BLACK
6
CONTINUOUS
10
1.52828
20
0.61669
11
1.529
21
0.616953
0
LINE
8
BLACK
6
CONTINUOUS
10
1.529
20
0.616953
11
1.729
21
0.616953
0
LINE
8
BLACK
6
CONTINUOUS
10
1.729
20
0.616953
11
1.72938
21
0.616885
0
LINE
8
BLACK
6
CONTINUOUS
10
1.53195
20
0.611047
11
1.53195
21
0.316953
0
LINE
8
BLACK
6
CONTINUOUS
10
1.53195
20
0.316953
11
1.72605
21
0.316953
0
LINE
8
BLACK
6
CONTINUOUS
10
1.72605
20
0.316953
11
1.72605
21
0.611047
0
LINE
8
BLACK
6
CONTINUOUS
10
1.72605
20
0.611047
11
1.53195
21
0.611047
  0
ENDSEC
  0
EOF
