  0
SECTION
  2
HEADER
  9
$ANGBASE
  50
0.0
  9
$ANGDIR
  70
1
  9
$MEASUREMENT
  70
0
  0
ENDSEC
  0
SECTION
  2
TABLES
  0
TABLE
  2
LTYPE
  70
4
  0
LTYPE
  5
40F
  2
CONTINUOUS
  70
0
  3
Solid line
  72
65
  73
0
  40
0.0
  0
LTYPE
  5
410
  2
DASHDOT
 70
0
  3
Dash Dot ____ _ ____ _
 72
65
 73
4
 40
2.0
 49
1.25
 49
-0.25
 49
0.25
 49
-0.25
  0
LTYPE
  5
411
  2
DASHED
 70
0
  3
Dashed __ __ __ __ __
 72
65
 73
2
 40
0.75
 49
0.5
 49
-0.25
  0
LTYPE
  5
43B
  2
DOTTED
 70
0
  3
Dotted .  .  .  .
 72
65
 73
2
 40
0.2
 49
0.0
 49
-0.2
  0
ENDTAB
  0
TABLE
  2
STYLE
  70
4
  0
STYLE
  2
KICAD
  70
0
  40
0
  41
1
  42
1
  50
0
  71
0
  3
isocp.shx
  0
STYLE
  2
KICADB
  70
0
  40
0
  41
1
  42
1
  50
0
  71
0
  3
isocp.shx
  0
STYLE
  2
KICADI
  70
0
  40
0
  41
1
  42
1
  50
15
  71
0
  3
isocp.shx
  0
STYLE
  2
KICADBI
  70
0
  40
0
  41
1
  42
1
  50
15
  71
0
  3
isocp.shx
  0
ENDTAB
  0
TABLE
  2
LAYER
  70
1
  0
LAYER
  2
BLACK
  70
0
  62
7
  6
CONTINUOUS
  0
ENDTAB
  0
ENDSEC
  0
SECTION
  2
ENTITIES
0
LINE
8
BLACK
6
CONTINUOUS
10
6.25486
20
-3.98395
11
6.25741
21
-3.98565
0
LINE
8
BLACK
6
CONTINUOUS
10
6.25741
20
-3.98565
11
6.25912
21
-3.98821
0
LINE
8
BLACK
6
CONTINUOUS
10
6.25912
20
-3.98821
11
6.25972
21
-3.99122
0
LINE
8
BLACK
6
CONTINUOUS
10
6.25972
20
-3.99122
11
6.25972
21
-4.05122
0
LINE
8
BLACK
6
CONTINUOUS
10
6.25972
20
-4.05122
11
6.25912
21
-4.05423
0
LINE
8
BLACK
6
CONTINUOUS
10
6.25912
20
-4.05423
11
6.25741
21
-4.05679
0
LINE
8
BLACK
6
CONTINUOUS
10
6.25741
20
-4.05679
11
6.25486
21
-4.0585
0
LINE
8
BLACK
6
CONTINUOUS
10
6.25486
20
-4.0585
11
6.25184
21
-4.05909
0
LINE
8
BLACK
6
CONTINUOUS
10
6.25184
20
-4.05909
11
6.19184
21
-4.05909
0
LINE
8
BLACK
6
CONTINUOUS
10
6.19184
20
-4.05909
11
6.18883
21
-4.0585
0
LINE
8
BLACK
6
CONTINUOUS
10
6.18883
20
-4.0585
11
6.18627
21
-4.05679
0
LINE
8
BLACK
6
CONTINUOUS
10
6.18627
20
-4.05679
11
6.18457
21
-4.05423
0
LINE
8
BLACK
6
CONTINUOUS
10
6.18457
20
-4.05423
11
6.18397
21
-4.05122
0
LINE
8
BLACK
6
CONTINUOUS
10
6.18397
20
-4.05122
11
6.18397
21
-3.99122
0
LINE
8
BLACK
6
CONTINUOUS
10
6.18397
20
-3.99122
11
6.18457
21
-3.98821
0
LINE
8
BLACK
6
CONTINUOUS
10
6.18457
20
-3.98821
11
6.18627
21
-3.98565
0
LINE
8
BLACK
6
CONTINUOUS
10
6.18627
20
-3.98565
11
6.18883
21
-3.98395
0
LINE
8
BLACK
6
CONTINUOUS
10
6.18883
20
-3.98395
11
6.19184
21
-3.98335
0
LINE
8
BLACK
6
CONTINUOUS
10
6.19184
20
-3.98335
11
6.25184
21
-3.98335
0
LINE
8
BLACK
6
CONTINUOUS
10
6.25184
20
-3.98335
11
6.25486
21
-3.98395
0
LINE
8
BLACK
6
CONTINUOUS
10
6.35486
20
-3.98395
11
6.35741
21
-3.98565
0
LINE
8
BLACK
6
CONTINUOUS
10
6.35741
20
-3.98565
11
6.35912
21
-3.98821
0
LINE
8
BLACK
6
CONTINUOUS
10
6.35912
20
-3.98821
11
6.35972
21
-3.99122
0
LINE
8
BLACK
6
CONTINUOUS
10
6.35972
20
-3.99122
11
6.35972
21
-4.05122
0
LINE
8
BLACK
6
CONTINUOUS
10
6.35972
20
-4.05122
11
6.35912
21
-4.05423
0
LINE
8
BLACK
6
CONTINUOUS
10
6.35912
20
-4.05423
11
6.35741
21
-4.05679
0
LINE
8
BLACK
6
CONTINUOUS
10
6.35741
20
-4.05679
11
6.35486
21
-4.0585
0
LINE
8
BLACK
6
CONTINUOUS
10
6.35486
20
-4.0585
11
6.35184
21
-4.05909
0
LINE
8
BLACK
6
CONTINUOUS
10
6.35184
20
-4.05909
11
6.29184
21
-4.05909
0
LINE
8
BLACK
6
CONTINUOUS
10
6.29184
20
-4.05909
11
6.28883
21
-4.0585
0
LINE
8
BLACK
6
CONTINUOUS
10
6.28883
20
-4.0585
11
6.28627
21
-4.05679
0
LINE
8
BLACK
6
CONTINUOUS
10
6.28627
20
-4.05679
11
6.28457
21
-4.05423
0
LINE
8
BLACK
6
CONTINUOUS
10
6.28457
20
-4.05423
11
6.28397
21
-4.05122
0
LINE
8
BLACK
6
CONTINUOUS
10
6.28397
20
-4.05122
11
6.28397
21
-3.99122
0
LINE
8
BLACK
6
CONTINUOUS
10
6.28397
20
-3.99122
11
6.28457
21
-3.98821
0
LINE
8
BLACK
6
CONTINUOUS
10
6.28457
20
-3.98821
11
6.28627
21
-3.98565
0
LINE
8
BLACK
6
CONTINUOUS
10
6.28627
20
-3.98565
11
6.28883
21
-3.98395
0
LINE
8
BLACK
6
CONTINUOUS
10
6.28883
20
-3.98395
11
6.29184
21
-3.98335
0
LINE
8
BLACK
6
CONTINUOUS
10
6.29184
20
-3.98335
11
6.35184
21
-3.98335
0
LINE
8
BLACK
6
CONTINUOUS
10
6.35184
20
-3.98335
11
6.35486
21
-3.98395
0
LINE
8
BLACK
6
CONTINUOUS
10
6.65486
20
-3.98395
11
6.65741
21
-3.98565
0
LINE
8
BLACK
6
CONTINUOUS
10
6.65741
20
-3.98565
11
6.65912
21
-3.98821
0
LINE
8
BLACK
6
CONTINUOUS
10
6.65912
20
-3.98821
11
6.65972
21
-3.99122
0
LINE
8
BLACK
6
CONTINUOUS
10
6.65972
20
-3.99122
11
6.65972
21
-4.05122
0
LINE
8
BLACK
6
CONTINUOUS
10
6.65972
20
-4.05122
11
6.65912
21
-4.05423
0
LINE
8
BLACK
6
CONTINUOUS
10
6.65912
20
-4.05423
11
6.65741
21
-4.05679
0
LINE
8
BLACK
6
CONTINUOUS
10
6.65741
20
-4.05679
11
6.65486
21
-4.0585
0
LINE
8
BLACK
6
CONTINUOUS
10
6.65486
20
-4.0585
11
6.65184
21
-4.05909
0
LINE
8
BLACK
6
CONTINUOUS
10
6.65184
20
-4.05909
11
6.59184
21
-4.05909
0
LINE
8
BLACK
6
CONTINUOUS
10
6.59184
20
-4.05909
11
6.58883
21
-4.0585
0
LINE
8
BLACK
6
CONTINUOUS
10
6.58883
20
-4.0585
11
6.58627
21
-4.05679
0
LINE
8
BLACK
6
CONTINUOUS
10
6.58627
20
-4.05679
11
6.58457
21
-4.05423
0
LINE
8
BLACK
6
CONTINUOUS
10
6.58457
20
-4.05423
11
6.58397
21
-4.05122
0
LINE
8
BLACK
6
CONTINUOUS
10
6.58397
20
-4.05122
11
6.58397
21
-3.99122
0
LINE
8
BLACK
6
CONTINUOUS
10
6.58397
20
-3.99122
11
6.58457
21
-3.98821
0
LINE
8
BLACK
6
CONTINUOUS
10
6.58457
20
-3.98821
11
6.58627
21
-3.98565
0
LINE
8
BLACK
6
CONTINUOUS
10
6.58627
20
-3.98565
11
6.58883
21
-3.98395
0
LINE
8
BLACK
6
CONTINUOUS
10
6.58883
20
-3.98395
11
6.59184
21
-3.98335
0
LINE
8
BLACK
6
CONTINUOUS
10
6.59184
20
-3.98335
11
6.65184
21
-3.98335
0
LINE
8
BLACK
6
CONTINUOUS
10
6.65184
20
-3.98335
11
6.65486
21
-3.98395
0
LINE
8
BLACK
6
CONTINUOUS
10
6.55486
20
-3.98395
11
6.55741
21
-3.98565
0
LINE
8
BLACK
6
CONTINUOUS
10
6.55741
20
-3.98565
11
6.55912
21
-3.98821
0
LINE
8
BLACK
6
CONTINUOUS
10
6.55912
20
-3.98821
11
6.55972
21
-3.99122
0
LINE
8
BLACK
6
CONTINUOUS
10
6.55972
20
-3.99122
11
6.55972
21
-4.05122
0
LINE
8
BLACK
6
CONTINUOUS
10
6.55972
20
-4.05122
11
6.55912
21
-4.05423
0
LINE
8
BLACK
6
CONTINUOUS
10
6.55912
20
-4.05423
11
6.55741
21
-4.05679
0
LINE
8
BLACK
6
CONTINUOUS
10
6.55741
20
-4.05679
11
6.55486
21
-4.0585
0
LINE
8
BLACK
6
CONTINUOUS
10
6.55486
20
-4.0585
11
6.55184
21
-4.05909
0
LINE
8
BLACK
6
CONTINUOUS
10
6.55184
20
-4.05909
11
6.49184
21
-4.05909
0
LINE
8
BLACK
6
CONTINUOUS
10
6.49184
20
-4.05909
11
6.48883
21
-4.0585
0
LINE
8
BLACK
6
CONTINUOUS
10
6.48883
20
-4.0585
11
6.48627
21
-4.05679
0
LINE
8
BLACK
6
CONTINUOUS
10
6.48627
20
-4.05679
11
6.48457
21
-4.05423
0
LINE
8
BLACK
6
CONTINUOUS
10
6.48457
20
-4.05423
11
6.48397
21
-4.05122
0
LINE
8
BLACK
6
CONTINUOUS
10
6.48397
20
-4.05122
11
6.48397
21
-3.99122
0
LINE
8
BLACK
6
CONTINUOUS
10
6.48397
20
-3.99122
11
6.48457
21
-3.98821
0
LINE
8
BLACK
6
CONTINUOUS
10
6.48457
20
-3.98821
11
6.48627
21
-3.98565
0
LINE
8
BLACK
6
CONTINUOUS
10
6.48627
20
-3.98565
11
6.48883
21
-3.98395
0
LINE
8
BLACK
6
CONTINUOUS
10
6.48883
20
-3.98395
11
6.49184
21
-3.98335
0
LINE
8
BLACK
6
CONTINUOUS
10
6.49184
20
-3.98335
11
6.55184
21
-3.98335
0
LINE
8
BLACK
6
CONTINUOUS
10
6.55184
20
-3.98335
11
6.55486
21
-3.98395
0
LINE
8
BLACK
6
CONTINUOUS
10
6.45486
20
-3.98395
11
6.45741
21
-3.98565
0
LINE
8
BLACK
6
CONTINUOUS
10
6.45741
20
-3.98565
11
6.45912
21
-3.98821
0
LINE
8
BLACK
6
CONTINUOUS
10
6.45912
20
-3.98821
11
6.45972
21
-3.99122
0
LINE
8
BLACK
6
CONTINUOUS
10
6.45972
20
-3.99122
11
6.45972
21
-4.05122
0
LINE
8
BLACK
6
CONTINUOUS
10
6.45972
20
-4.05122
11
6.45912
21
-4.05423
0
LINE
8
BLACK
6
CONTINUOUS
10
6.45912
20
-4.05423
11
6.45741
21
-4.05679
0
LINE
8
BLACK
6
CONTINUOUS
10
6.45741
20
-4.05679
11
6.45486
21
-4.0585
0
LINE
8
BLACK
6
CONTINUOUS
10
6.45486
20
-4.0585
11
6.45184
21
-4.05909
0
LINE
8
BLACK
6
CONTINUOUS
10
6.45184
20
-4.05909
11
6.39184
21
-4.05909
0
LINE
8
BLACK
6
CONTINUOUS
10
6.39184
20
-4.05909
11
6.38883
21
-4.0585
0
LINE
8
BLACK
6
CONTINUOUS
10
6.38883
20
-4.0585
11
6.38627
21
-4.05679
0
LINE
8
BLACK
6
CONTINUOUS
10
6.38627
20
-4.05679
11
6.38457
21
-4.05423
0
LINE
8
BLACK
6
CONTINUOUS
10
6.38457
20
-4.05423
11
6.38397
21
-4.05122
0
LINE
8
BLACK
6
CONTINUOUS
10
6.38397
20
-4.05122
11
6.38397
21
-3.99122
0
LINE
8
BLACK
6
CONTINUOUS
10
6.38397
20
-3.99122
11
6.38457
21
-3.98821
0
LINE
8
BLACK
6
CONTINUOUS
10
6.38457
20
-3.98821
11
6.38627
21
-3.98565
0
LINE
8
BLACK
6
CONTINUOUS
10
6.38627
20
-3.98565
11
6.38883
21
-3.98395
0
LINE
8
BLACK
6
CONTINUOUS
10
6.38883
20
-3.98395
11
6.39184
21
-3.98335
0
LINE
8
BLACK
6
CONTINUOUS
10
6.39184
20
-3.98335
11
6.45184
21
-3.98335
0
LINE
8
BLACK
6
CONTINUOUS
10
6.45184
20
-3.98335
11
6.45486
21
-3.98395
0
LINE
8
BLACK
6
CONTINUOUS
10
7.04476
20
-3.79612
11
7.05861
21
-3.79856
0
LINE
8
BLACK
6
CONTINUOUS
10
7.05861
20
-3.79856
11
7.0721
21
-3.80254
0
LINE
8
BLACK
6
CONTINUOUS
10
7.0721
20
-3.80254
11
7.08507
21
-3.80799
0
LINE
8
BLACK
6
CONTINUOUS
10
7.08507
20
-3.80799
11
7.09735
21
-3.81485
0
LINE
8
BLACK
6
CONTINUOUS
10
7.09735
20
-3.81485
11
7.10878
21
-3.82304
0
LINE
8
BLACK
6
CONTINUOUS
10
7.10878
20
-3.82304
11
7.11924
21
-3.83245
0
LINE
8
BLACK
6
CONTINUOUS
10
7.11924
20
-3.83245
11
7.12858
21
-3.84297
0
LINE
8
BLACK
6
CONTINUOUS
10
7.12858
20
-3.84297
11
7.13668
21
-3.85446
0
LINE
8
BLACK
6
CONTINUOUS
10
7.13668
20
-3.85446
11
7.14346
21
-3.86678
0
LINE
8
BLACK
6
CONTINUOUS
10
7.14346
20
-3.86678
11
7.14882
21
-3.87979
0
LINE
8
BLACK
6
CONTINUOUS
10
7.14882
20
-3.87979
11
7.1527
21
-3.89331
0
LINE
8
BLACK
6
CONTINUOUS
10
7.1527
20
-3.89331
11
7.15504
21
-3.90718
0
LINE
8
BLACK
6
CONTINUOUS
10
7.15504
20
-3.90718
11
7.15583
21
-3.92122
0
LINE
8
BLACK
6
CONTINUOUS
10
7.15583
20
-3.92122
11
7.15578
21
-3.92474
0
LINE
8
BLACK
6
CONTINUOUS
10
7.15578
20
-3.92474
11
7.1546
21
-3.93875
0
LINE
8
BLACK
6
CONTINUOUS
10
7.1546
20
-3.93875
11
7.15187
21
-3.95255
0
LINE
8
BLACK
6
CONTINUOUS
10
7.15187
20
-3.95255
11
7.14762
21
-3.96596
0
LINE
8
BLACK
6
CONTINUOUS
10
7.14762
20
-3.96596
11
7.14189
21
-3.97881
0
LINE
8
BLACK
6
CONTINUOUS
10
7.14189
20
-3.97881
11
7.13478
21
-3.99094
0
LINE
8
BLACK
6
CONTINUOUS
10
7.13478
20
-3.99094
11
7.12635
21
-4.0022
0
LINE
8
BLACK
6
CONTINUOUS
10
7.12635
20
-4.0022
11
7.11672
21
-4.01245
0
LINE
8
BLACK
6
CONTINUOUS
10
7.11672
20
-4.01245
11
7.10601
21
-4.02157
0
LINE
8
BLACK
6
CONTINUOUS
10
7.10601
20
-4.02157
11
7.09435
21
-4.02944
0
LINE
8
BLACK
6
CONTINUOUS
10
7.09435
20
-4.02944
11
7.08189
21
-4.03595
0
LINE
8
BLACK
6
CONTINUOUS
10
7.08189
20
-4.03595
11
7.06877
21
-4.04104
0
LINE
8
BLACK
6
CONTINUOUS
10
7.06877
20
-4.04104
11
7.05518
21
-4.04463
0
LINE
8
BLACK
6
CONTINUOUS
10
7.05518
20
-4.04463
11
7.04126
21
-4.04669
0
LINE
8
BLACK
6
CONTINUOUS
10
7.04126
20
-4.04669
11
7.0272
21
-4.04718
0
LINE
8
BLACK
6
CONTINUOUS
10
7.0272
20
-4.04718
11
7.01318
21
-4.0461
0
LINE
8
BLACK
6
CONTINUOUS
10
7.01318
20
-4.0461
11
6.99936
21
-4.04346
0
LINE
8
BLACK
6
CONTINUOUS
10
6.99936
20
-4.04346
11
6.98593
21
-4.0393
0
LINE
8
BLACK
6
CONTINUOUS
10
6.98593
20
-4.0393
11
6.97304
21
-4.03367
0
LINE
8
BLACK
6
CONTINUOUS
10
6.97304
20
-4.03367
11
6.96086
21
-4.02664
0
LINE
8
BLACK
6
CONTINUOUS
10
6.96086
20
-4.02664
11
6.94954
21
-4.01829
0
LINE
8
BLACK
6
CONTINUOUS
10
6.94954
20
-4.01829
11
6.93922
21
-4.00874
0
LINE
8
BLACK
6
CONTINUOUS
10
6.93922
20
-4.00874
11
6.93003
21
-3.99809
0
LINE
8
BLACK
6
CONTINUOUS
10
6.93003
20
-3.99809
11
6.92208
21
-3.98648
0
LINE
8
BLACK
6
CONTINUOUS
10
6.92208
20
-3.98648
11
6.91548
21
-3.97406
0
LINE
8
BLACK
6
CONTINUOUS
10
6.91548
20
-3.97406
11
6.9103
21
-3.96099
0
LINE
8
BLACK
6
CONTINUOUS
10
6.9103
20
-3.96099
11
6.90661
21
-3.94741
0
LINE
8
BLACK
6
CONTINUOUS
10
6.90661
20
-3.94741
11
6.90446
21
-3.93351
0
LINE
8
BLACK
6
CONTINUOUS
10
6.90446
20
-3.93351
11
6.90387
21
-3.91946
0
LINE
8
BLACK
6
CONTINUOUS
10
6.90387
20
-3.91946
11
6.90485
21
-3.90543
0
LINE
8
BLACK
6
CONTINUOUS
10
6.90485
20
-3.90543
11
6.90739
21
-3.8916
0
LINE
8
BLACK
6
CONTINUOUS
10
6.90739
20
-3.8916
11
6.91146
21
-3.87813
0
LINE
8
BLACK
6
CONTINUOUS
10
6.91146
20
-3.87813
11
6.917
21
-3.8652
0
LINE
8
BLACK
6
CONTINUOUS
10
6.917
20
-3.8652
11
6.92394
21
-3.85297
0
LINE
8
BLACK
6
CONTINUOUS
10
6.92394
20
-3.85297
11
6.93221
21
-3.84159
0
LINE
8
BLACK
6
CONTINUOUS
10
6.93221
20
-3.84159
11
6.9417
21
-3.83121
0
LINE
8
BLACK
6
CONTINUOUS
10
6.9417
20
-3.83121
11
6.95228
21
-3.82194
0
LINE
8
BLACK
6
CONTINUOUS
10
6.95228
20
-3.82194
11
6.96383
21
-3.81392
0
LINE
8
BLACK
6
CONTINUOUS
10
6.96383
20
-3.81392
11
6.9762
21
-3.80723
0
LINE
8
BLACK
6
CONTINUOUS
10
6.9762
20
-3.80723
11
6.98924
21
-3.80196
0
LINE
8
BLACK
6
CONTINUOUS
10
6.98924
20
-3.80196
11
7.00279
21
-3.79818
0
LINE
8
BLACK
6
CONTINUOUS
10
7.00279
20
-3.79818
11
7.01667
21
-3.79593
0
LINE
8
BLACK
6
CONTINUOUS
10
7.01667
20
-3.79593
11
7.03072
21
-3.79524
0
LINE
8
BLACK
6
CONTINUOUS
10
7.03072
20
-3.79524
11
7.04476
21
-3.79612
0
LINE
8
BLACK
6
CONTINUOUS
10
5.44476
20
-3.79612
11
5.45861
21
-3.79856
0
LINE
8
BLACK
6
CONTINUOUS
10
5.45861
20
-3.79856
11
5.4721
21
-3.80254
0
LINE
8
BLACK
6
CONTINUOUS
10
5.4721
20
-3.80254
11
5.48507
21
-3.80799
0
LINE
8
BLACK
6
CONTINUOUS
10
5.48507
20
-3.80799
11
5.49735
21
-3.81485
0
LINE
8
BLACK
6
CONTINUOUS
10
5.49735
20
-3.81485
11
5.50878
21
-3.82304
0
LINE
8
BLACK
6
CONTINUOUS
10
5.50878
20
-3.82304
11
5.51924
21
-3.83245
0
LINE
8
BLACK
6
CONTINUOUS
10
5.51924
20
-3.83245
11
5.52858
21
-3.84297
0
LINE
8
BLACK
6
CONTINUOUS
10
5.52858
20
-3.84297
11
5.53668
21
-3.85446
0
LINE
8
BLACK
6
CONTINUOUS
10
5.53668
20
-3.85446
11
5.54346
21
-3.86678
0
LINE
8
BLACK
6
CONTINUOUS
10
5.54346
20
-3.86678
11
5.54882
21
-3.87979
0
LINE
8
BLACK
6
CONTINUOUS
10
5.54882
20
-3.87979
11
5.5527
21
-3.89331
0
LINE
8
BLACK
6
CONTINUOUS
10
5.5527
20
-3.89331
11
5.55504
21
-3.90718
0
LINE
8
BLACK
6
CONTINUOUS
10
5.55504
20
-3.90718
11
5.55583
21
-3.92122
0
LINE
8
BLACK
6
CONTINUOUS
10
5.55583
20
-3.92122
11
5.55578
21
-3.92474
0
LINE
8
BLACK
6
CONTINUOUS
10
5.55578
20
-3.92474
11
5.5546
21
-3.93875
0
LINE
8
BLACK
6
CONTINUOUS
10
5.5546
20
-3.93875
11
5.55187
21
-3.95255
0
LINE
8
BLACK
6
CONTINUOUS
10
5.55187
20
-3.95255
11
5.54762
21
-3.96596
0
LINE
8
BLACK
6
CONTINUOUS
10
5.54762
20
-3.96596
11
5.54189
21
-3.97881
0
LINE
8
BLACK
6
CONTINUOUS
10
5.54189
20
-3.97881
11
5.53478
21
-3.99094
0
LINE
8
BLACK
6
CONTINUOUS
10
5.53478
20
-3.99094
11
5.52635
21
-4.0022
0
LINE
8
BLACK
6
CONTINUOUS
10
5.52635
20
-4.0022
11
5.51672
21
-4.01245
0
LINE
8
BLACK
6
CONTINUOUS
10
5.51672
20
-4.01245
11
5.50601
21
-4.02157
0
LINE
8
BLACK
6
CONTINUOUS
10
5.50601
20
-4.02157
11
5.49435
21
-4.02944
0
LINE
8
BLACK
6
CONTINUOUS
10
5.49435
20
-4.02944
11
5.48189
21
-4.03595
0
LINE
8
BLACK
6
CONTINUOUS
10
5.48189
20
-4.03595
11
5.46877
21
-4.04104
0
LINE
8
BLACK
6
CONTINUOUS
10
5.46877
20
-4.04104
11
5.45518
21
-4.04463
0
LINE
8
BLACK
6
CONTINUOUS
10
5.45518
20
-4.04463
11
5.44126
21
-4.04669
0
LINE
8
BLACK
6
CONTINUOUS
10
5.44126
20
-4.04669
11
5.4272
21
-4.04718
0
LINE
8
BLACK
6
CONTINUOUS
10
5.4272
20
-4.04718
11
5.41318
21
-4.0461
0
LINE
8
BLACK
6
CONTINUOUS
10
5.41318
20
-4.0461
11
5.39936
21
-4.04346
0
LINE
8
BLACK
6
CONTINUOUS
10
5.39936
20
-4.04346
11
5.38593
21
-4.0393
0
LINE
8
BLACK
6
CONTINUOUS
10
5.38593
20
-4.0393
11
5.37304
21
-4.03367
0
LINE
8
BLACK
6
CONTINUOUS
10
5.37304
20
-4.03367
11
5.36086
21
-4.02664
0
LINE
8
BLACK
6
CONTINUOUS
10
5.36086
20
-4.02664
11
5.34954
21
-4.01829
0
LINE
8
BLACK
6
CONTINUOUS
10
5.34954
20
-4.01829
11
5.33922
21
-4.00874
0
LINE
8
BLACK
6
CONTINUOUS
10
5.33922
20
-4.00874
11
5.33003
21
-3.99809
0
LINE
8
BLACK
6
CONTINUOUS
10
5.33003
20
-3.99809
11
5.32208
21
-3.98648
0
LINE
8
BLACK
6
CONTINUOUS
10
5.32208
20
-3.98648
11
5.31548
21
-3.97406
0
LINE
8
BLACK
6
CONTINUOUS
10
5.31548
20
-3.97406
11
5.3103
21
-3.96099
0
LINE
8
BLACK
6
CONTINUOUS
10
5.3103
20
-3.96099
11
5.30661
21
-3.94741
0
LINE
8
BLACK
6
CONTINUOUS
10
5.30661
20
-3.94741
11
5.30446
21
-3.93351
0
LINE
8
BLACK
6
CONTINUOUS
10
5.30446
20
-3.93351
11
5.30387
21
-3.91946
0
LINE
8
BLACK
6
CONTINUOUS
10
5.30387
20
-3.91946
11
5.30485
21
-3.90543
0
LINE
8
BLACK
6
CONTINUOUS
10
5.30485
20
-3.90543
11
5.30739
21
-3.8916
0
LINE
8
BLACK
6
CONTINUOUS
10
5.30739
20
-3.8916
11
5.31146
21
-3.87813
0
LINE
8
BLACK
6
CONTINUOUS
10
5.31146
20
-3.87813
11
5.317
21
-3.8652
0
LINE
8
BLACK
6
CONTINUOUS
10
5.317
20
-3.8652
11
5.32394
21
-3.85297
0
LINE
8
BLACK
6
CONTINUOUS
10
5.32394
20
-3.85297
11
5.33221
21
-3.84159
0
LINE
8
BLACK
6
CONTINUOUS
10
5.33221
20
-3.84159
11
5.3417
21
-3.83121
0
LINE
8
BLACK
6
CONTINUOUS
10
5.3417
20
-3.83121
11
5.35228
21
-3.82194
0
LINE
8
BLACK
6
CONTINUOUS
10
5.35228
20
-3.82194
11
5.36383
21
-3.81392
0
LINE
8
BLACK
6
CONTINUOUS
10
5.36383
20
-3.81392
11
5.3762
21
-3.80723
0
LINE
8
BLACK
6
CONTINUOUS
10
5.3762
20
-3.80723
11
5.38924
21
-3.80196
0
LINE
8
BLACK
6
CONTINUOUS
10
5.38924
20
-3.80196
11
5.40279
21
-3.79818
0
LINE
8
BLACK
6
CONTINUOUS
10
5.40279
20
-3.79818
11
5.41667
21
-3.79593
0
LINE
8
BLACK
6
CONTINUOUS
10
5.41667
20
-3.79593
11
5.43072
21
-3.79524
0
LINE
8
BLACK
6
CONTINUOUS
10
5.43072
20
-3.79524
11
5.44476
21
-3.79612
0
LINE
8
BLACK
6
CONTINUOUS
10
6.25486
20
-3.88395
11
6.25741
21
-3.88565
0
LINE
8
BLACK
6
CONTINUOUS
10
6.25741
20
-3.88565
11
6.25912
21
-3.88821
0
LINE
8
BLACK
6
CONTINUOUS
10
6.25912
20
-3.88821
11
6.25972
21
-3.89122
0
LINE
8
BLACK
6
CONTINUOUS
10
6.25972
20
-3.89122
11
6.25972
21
-3.95122
0
LINE
8
BLACK
6
CONTINUOUS
10
6.25972
20
-3.95122
11
6.25912
21
-3.95423
0
LINE
8
BLACK
6
CONTINUOUS
10
6.25912
20
-3.95423
11
6.25741
21
-3.95679
0
LINE
8
BLACK
6
CONTINUOUS
10
6.25741
20
-3.95679
11
6.25486
21
-3.9585
0
LINE
8
BLACK
6
CONTINUOUS
10
6.25486
20
-3.9585
11
6.25184
21
-3.95909
0
LINE
8
BLACK
6
CONTINUOUS
10
6.25184
20
-3.95909
11
6.19184
21
-3.95909
0
LINE
8
BLACK
6
CONTINUOUS
10
6.19184
20
-3.95909
11
6.18883
21
-3.9585
0
LINE
8
BLACK
6
CONTINUOUS
10
6.18883
20
-3.9585
11
6.18627
21
-3.95679
0
LINE
8
BLACK
6
CONTINUOUS
10
6.18627
20
-3.95679
11
6.18457
21
-3.95423
0
LINE
8
BLACK
6
CONTINUOUS
10
6.18457
20
-3.95423
11
6.18397
21
-3.95122
0
LINE
8
BLACK
6
CONTINUOUS
10
6.18397
20
-3.95122
11
6.18397
21
-3.89122
0
LINE
8
BLACK
6
CONTINUOUS
10
6.18397
20
-3.89122
11
6.18457
21
-3.88821
0
LINE
8
BLACK
6
CONTINUOUS
10
6.18457
20
-3.88821
11
6.18627
21
-3.88565
0
LINE
8
BLACK
6
CONTINUOUS
10
6.18627
20
-3.88565
11
6.18883
21
-3.88395
0
LINE
8
BLACK
6
CONTINUOUS
10
6.18883
20
-3.88395
11
6.19184
21
-3.88335
0
LINE
8
BLACK
6
CONTINUOUS
10
6.19184
20
-3.88335
11
6.25184
21
-3.88335
0
LINE
8
BLACK
6
CONTINUOUS
10
6.25184
20
-3.88335
11
6.25486
21
-3.88395
0
LINE
8
BLACK
6
CONTINUOUS
10
6.65486
20
-3.88395
11
6.65741
21
-3.88565
0
LINE
8
BLACK
6
CONTINUOUS
10
6.65741
20
-3.88565
11
6.65912
21
-3.88821
0
LINE
8
BLACK
6
CONTINUOUS
10
6.65912
20
-3.88821
11
6.65972
21
-3.89122
0
LINE
8
BLACK
6
CONTINUOUS
10
6.65972
20
-3.89122
11
6.65972
21
-3.95122
0
LINE
8
BLACK
6
CONTINUOUS
10
6.65972
20
-3.95122
11
6.65912
21
-3.95423
0
LINE
8
BLACK
6
CONTINUOUS
10
6.65912
20
-3.95423
11
6.65741
21
-3.95679
0
LINE
8
BLACK
6
CONTINUOUS
10
6.65741
20
-3.95679
11
6.65486
21
-3.9585
0
LINE
8
BLACK
6
CONTINUOUS
10
6.65486
20
-3.9585
11
6.65184
21
-3.95909
0
LINE
8
BLACK
6
CONTINUOUS
10
6.65184
20
-3.95909
11
6.59184
21
-3.95909
0
LINE
8
BLACK
6
CONTINUOUS
10
6.59184
20
-3.95909
11
6.58883
21
-3.9585
0
LINE
8
BLACK
6
CONTINUOUS
10
6.58883
20
-3.9585
11
6.58627
21
-3.95679
0
LINE
8
BLACK
6
CONTINUOUS
10
6.58627
20
-3.95679
11
6.58457
21
-3.95423
0
LINE
8
BLACK
6
CONTINUOUS
10
6.58457
20
-3.95423
11
6.58397
21
-3.95122
0
LINE
8
BLACK
6
CONTINUOUS
10
6.58397
20
-3.95122
11
6.58397
21
-3.89122
0
LINE
8
BLACK
6
CONTINUOUS
10
6.58397
20
-3.89122
11
6.58457
21
-3.88821
0
LINE
8
BLACK
6
CONTINUOUS
10
6.58457
20
-3.88821
11
6.58627
21
-3.88565
0
LINE
8
BLACK
6
CONTINUOUS
10
6.58627
20
-3.88565
11
6.58883
21
-3.88395
0
LINE
8
BLACK
6
CONTINUOUS
10
6.58883
20
-3.88395
11
6.59184
21
-3.88335
0
LINE
8
BLACK
6
CONTINUOUS
10
6.59184
20
-3.88335
11
6.65184
21
-3.88335
0
LINE
8
BLACK
6
CONTINUOUS
10
6.65184
20
-3.88335
11
6.65486
21
-3.88395
0
LINE
8
BLACK
6
CONTINUOUS
10
6.55486
20
-3.88395
11
6.55741
21
-3.88565
0
LINE
8
BLACK
6
CONTINUOUS
10
6.55741
20
-3.88565
11
6.55912
21
-3.88821
0
LINE
8
BLACK
6
CONTINUOUS
10
6.55912
20
-3.88821
11
6.55972
21
-3.89122
0
LINE
8
BLACK
6
CONTINUOUS
10
6.55972
20
-3.89122
11
6.55972
21
-3.95122
0
LINE
8
BLACK
6
CONTINUOUS
10
6.55972
20
-3.95122
11
6.55912
21
-3.95423
0
LINE
8
BLACK
6
CONTINUOUS
10
6.55912
20
-3.95423
11
6.55741
21
-3.95679
0
LINE
8
BLACK
6
CONTINUOUS
10
6.55741
20
-3.95679
11
6.55486
21
-3.9585
0
LINE
8
BLACK
6
CONTINUOUS
10
6.55486
20
-3.9585
11
6.55184
21
-3.95909
0
LINE
8
BLACK
6
CONTINUOUS
10
6.55184
20
-3.95909
11
6.49184
21
-3.95909
0
LINE
8
BLACK
6
CONTINUOUS
10
6.49184
20
-3.95909
11
6.48883
21
-3.9585
0
LINE
8
BLACK
6
CONTINUOUS
10
6.48883
20
-3.9585
11
6.48627
21
-3.95679
0
LINE
8
BLACK
6
CONTINUOUS
10
6.48627
20
-3.95679
11
6.48457
21
-3.95423
0
LINE
8
BLACK
6
CONTINUOUS
10
6.48457
20
-3.95423
11
6.48397
21
-3.95122
0
LINE
8
BLACK
6
CONTINUOUS
10
6.48397
20
-3.95122
11
6.48397
21
-3.89122
0
LINE
8
BLACK
6
CONTINUOUS
10
6.48397
20
-3.89122
11
6.48457
21
-3.88821
0
LINE
8
BLACK
6
CONTINUOUS
10
6.48457
20
-3.88821
11
6.48627
21
-3.88565
0
LINE
8
BLACK
6
CONTINUOUS
10
6.48627
20
-3.88565
11
6.48883
21
-3.88395
0
LINE
8
BLACK
6
CONTINUOUS
10
6.48883
20
-3.88395
11
6.49184
21
-3.88335
0
LINE
8
BLACK
6
CONTINUOUS
10
6.49184
20
-3.88335
11
6.55184
21
-3.88335
0
LINE
8
BLACK
6
CONTINUOUS
10
6.55184
20
-3.88335
11
6.55486
21
-3.88395
0
LINE
8
BLACK
6
CONTINUOUS
10
6.45486
20
-3.88395
11
6.45741
21
-3.88565
0
LINE
8
BLACK
6
CONTINUOUS
10
6.45741
20
-3.88565
11
6.45912
21
-3.88821
0
LINE
8
BLACK
6
CONTINUOUS
10
6.45912
20
-3.88821
11
6.45972
21
-3.89122
0
LINE
8
BLACK
6
CONTINUOUS
10
6.45972
20
-3.89122
11
6.45972
21
-3.95122
0
LINE
8
BLACK
6
CONTINUOUS
10
6.45972
20
-3.95122
11
6.45912
21
-3.95423
0
LINE
8
BLACK
6
CONTINUOUS
10
6.45912
20
-3.95423
11
6.45741
21
-3.95679
0
LINE
8
BLACK
6
CONTINUOUS
10
6.45741
20
-3.95679
11
6.45486
21
-3.9585
0
LINE
8
BLACK
6
CONTINUOUS
10
6.45486
20
-3.9585
11
6.45184
21
-3.95909
0
LINE
8
BLACK
6
CONTINUOUS
10
6.45184
20
-3.95909
11
6.39184
21
-3.95909
0
LINE
8
BLACK
6
CONTINUOUS
10
6.39184
20
-3.95909
11
6.38883
21
-3.9585
0
LINE
8
BLACK
6
CONTINUOUS
10
6.38883
20
-3.9585
11
6.38627
21
-3.95679
0
LINE
8
BLACK
6
CONTINUOUS
10
6.38627
20
-3.95679
11
6.38457
21
-3.95423
0
LINE
8
BLACK
6
CONTINUOUS
10
6.38457
20
-3.95423
11
6.38397
21
-3.95122
0
LINE
8
BLACK
6
CONTINUOUS
10
6.38397
20
-3.95122
11
6.38397
21
-3.89122
0
LINE
8
BLACK
6
CONTINUOUS
10
6.38397
20
-3.89122
11
6.38457
21
-3.88821
0
LINE
8
BLACK
6
CONTINUOUS
10
6.38457
20
-3.88821
11
6.38627
21
-3.88565
0
LINE
8
BLACK
6
CONTINUOUS
10
6.38627
20
-3.88565
11
6.38883
21
-3.88395
0
LINE
8
BLACK
6
CONTINUOUS
10
6.38883
20
-3.88395
11
6.39184
21
-3.88335
0
LINE
8
BLACK
6
CONTINUOUS
10
6.39184
20
-3.88335
11
6.45184
21
-3.88335
0
LINE
8
BLACK
6
CONTINUOUS
10
6.45184
20
-3.88335
11
6.45486
21
-3.88395
0
LINE
8
BLACK
6
CONTINUOUS
10
6.35486
20
-3.88395
11
6.35741
21
-3.88565
0
LINE
8
BLACK
6
CONTINUOUS
10
6.35741
20
-3.88565
11
6.35912
21
-3.88821
0
LINE
8
BLACK
6
CONTINUOUS
10
6.35912
20
-3.88821
11
6.35972
21
-3.89122
0
LINE
8
BLACK
6
CONTINUOUS
10
6.35972
20
-3.89122
11
6.35972
21
-3.95122
0
LINE
8
BLACK
6
CONTINUOUS
10
6.35972
20
-3.95122
11
6.35912
21
-3.95423
0
LINE
8
BLACK
6
CONTINUOUS
10
6.35912
20
-3.95423
11
6.35741
21
-3.95679
0
LINE
8
BLACK
6
CONTINUOUS
10
6.35741
20
-3.95679
11
6.35486
21
-3.9585
0
LINE
8
BLACK
6
CONTINUOUS
10
6.35486
20
-3.9585
11
6.35184
21
-3.95909
0
LINE
8
BLACK
6
CONTINUOUS
10
6.35184
20
-3.95909
11
6.29184
21
-3.95909
0
LINE
8
BLACK
6
CONTINUOUS
10
6.29184
20
-3.95909
11
6.28883
21
-3.9585
0
LINE
8
BLACK
6
CONTINUOUS
10
6.28883
20
-3.9585
11
6.28627
21
-3.95679
0
LINE
8
BLACK
6
CONTINUOUS
10
6.28627
20
-3.95679
11
6.28457
21
-3.95423
0
LINE
8
BLACK
6
CONTINUOUS
10
6.28457
20
-3.95423
11
6.28397
21
-3.95122
0
LINE
8
BLACK
6
CONTINUOUS
10
6.28397
20
-3.95122
11
6.28397
21
-3.89122
0
LINE
8
BLACK
6
CONTINUOUS
10
6.28397
20
-3.89122
11
6.28457
21
-3.88821
0
LINE
8
BLACK
6
CONTINUOUS
10
6.28457
20
-3.88821
11
6.28627
21
-3.88565
0
LINE
8
BLACK
6
CONTINUOUS
10
6.28627
20
-3.88565
11
6.28883
21
-3.88395
0
LINE
8
BLACK
6
CONTINUOUS
10
6.28883
20
-3.88395
11
6.29184
21
-3.88335
0
LINE
8
BLACK
6
CONTINUOUS
10
6.29184
20
-3.88335
11
6.35184
21
-3.88335
0
LINE
8
BLACK
6
CONTINUOUS
10
6.35184
20
-3.88335
11
6.35486
21
-3.88395
0
LINE
8
BLACK
6
CONTINUOUS
10
5.46286
20
-3.53395
11
5.46541
21
-3.53565
0
LINE
8
BLACK
6
CONTINUOUS
10
5.46541
20
-3.53565
11
5.46712
21
-3.53821
0
LINE
8
BLACK
6
CONTINUOUS
10
5.46712
20
-3.53821
11
5.46772
21
-3.54122
0
LINE
8
BLACK
6
CONTINUOUS
10
5.46772
20
-3.54122
11
5.46772
21
-3.60122
0
LINE
8
BLACK
6
CONTINUOUS
10
5.46772
20
-3.60122
11
5.46712
21
-3.60423
0
LINE
8
BLACK
6
CONTINUOUS
10
5.46712
20
-3.60423
11
5.46541
21
-3.60679
0
LINE
8
BLACK
6
CONTINUOUS
10
5.46541
20
-3.60679
11
5.46286
21
-3.6085
0
LINE
8
BLACK
6
CONTINUOUS
10
5.46286
20
-3.6085
11
5.45984
21
-3.60909
0
LINE
8
BLACK
6
CONTINUOUS
10
5.45984
20
-3.60909
11
5.39984
21
-3.60909
0
LINE
8
BLACK
6
CONTINUOUS
10
5.39984
20
-3.60909
11
5.39683
21
-3.6085
0
LINE
8
BLACK
6
CONTINUOUS
10
5.39683
20
-3.6085
11
5.39427
21
-3.60679
0
LINE
8
BLACK
6
CONTINUOUS
10
5.39427
20
-3.60679
11
5.39257
21
-3.60423
0
LINE
8
BLACK
6
CONTINUOUS
10
5.39257
20
-3.60423
11
5.39197
21
-3.60122
0
LINE
8
BLACK
6
CONTINUOUS
10
5.39197
20
-3.60122
11
5.39197
21
-3.54122
0
LINE
8
BLACK
6
CONTINUOUS
10
5.39197
20
-3.54122
11
5.39257
21
-3.53821
0
LINE
8
BLACK
6
CONTINUOUS
10
5.39257
20
-3.53821
11
5.39427
21
-3.53565
0
LINE
8
BLACK
6
CONTINUOUS
10
5.39427
20
-3.53565
11
5.39683
21
-3.53395
0
LINE
8
BLACK
6
CONTINUOUS
10
5.39683
20
-3.53395
11
5.39984
21
-3.53335
0
LINE
8
BLACK
6
CONTINUOUS
10
5.39984
20
-3.53335
11
5.45984
21
-3.53335
0
LINE
8
BLACK
6
CONTINUOUS
10
5.45984
20
-3.53335
11
5.46286
21
-3.53395
0
LINE
8
BLACK
6
CONTINUOUS
10
5.56286
20
-3.53395
11
5.56541
21
-3.53565
0
LINE
8
BLACK
6
CONTINUOUS
10
5.56541
20
-3.53565
11
5.56712
21
-3.53821
0
LINE
8
BLACK
6
CONTINUOUS
10
5.56712
20
-3.53821
11
5.56772
21
-3.54122
0
LINE
8
BLACK
6
CONTINUOUS
10
5.56772
20
-3.54122
11
5.56772
21
-3.60122
0
LINE
8
BLACK
6
CONTINUOUS
10
5.56772
20
-3.60122
11
5.56712
21
-3.60423
0
LINE
8
BLACK
6
CONTINUOUS
10
5.56712
20
-3.60423
11
5.56541
21
-3.60679
0
LINE
8
BLACK
6
CONTINUOUS
10
5.56541
20
-3.60679
11
5.56286
21
-3.6085
0
LINE
8
BLACK
6
CONTINUOUS
10
5.56286
20
-3.6085
11
5.55984
21
-3.60909
0
LINE
8
BLACK
6
CONTINUOUS
10
5.55984
20
-3.60909
11
5.49984
21
-3.60909
0
LINE
8
BLACK
6
CONTINUOUS
10
5.49984
20
-3.60909
11
5.49683
21
-3.6085
0
LINE
8
BLACK
6
CONTINUOUS
10
5.49683
20
-3.6085
11
5.49427
21
-3.60679
0
LINE
8
BLACK
6
CONTINUOUS
10
5.49427
20
-3.60679
11
5.49257
21
-3.60423
0
LINE
8
BLACK
6
CONTINUOUS
10
5.49257
20
-3.60423
11
5.49197
21
-3.60122
0
LINE
8
BLACK
6
CONTINUOUS
10
5.49197
20
-3.60122
11
5.49197
21
-3.54122
0
LINE
8
BLACK
6
CONTINUOUS
10
5.49197
20
-3.54122
11
5.49257
21
-3.53821
0
LINE
8
BLACK
6
CONTINUOUS
10
5.49257
20
-3.53821
11
5.49427
21
-3.53565
0
LINE
8
BLACK
6
CONTINUOUS
10
5.49427
20
-3.53565
11
5.49683
21
-3.53395
0
LINE
8
BLACK
6
CONTINUOUS
10
5.49683
20
-3.53395
11
5.49984
21
-3.53335
0
LINE
8
BLACK
6
CONTINUOUS
10
5.49984
20
-3.53335
11
5.55984
21
-3.53335
0
LINE
8
BLACK
6
CONTINUOUS
10
5.55984
20
-3.53335
11
5.56286
21
-3.53395
0
LINE
8
BLACK
6
CONTINUOUS
10
7.14186
20
-3.51995
11
7.14441
21
-3.52165
0
LINE
8
BLACK
6
CONTINUOUS
10
7.14441
20
-3.52165
11
7.14612
21
-3.52421
0
LINE
8
BLACK
6
CONTINUOUS
10
7.14612
20
-3.52421
11
7.14672
21
-3.52722
0
LINE
8
BLACK
6
CONTINUOUS
10
7.14672
20
-3.52722
11
7.14672
21
-3.58722
0
LINE
8
BLACK
6
CONTINUOUS
10
7.14672
20
-3.58722
11
7.14612
21
-3.59023
0
LINE
8
BLACK
6
CONTINUOUS
10
7.14612
20
-3.59023
11
7.14441
21
-3.59279
0
LINE
8
BLACK
6
CONTINUOUS
10
7.14441
20
-3.59279
11
7.14186
21
-3.5945
0
LINE
8
BLACK
6
CONTINUOUS
10
7.14186
20
-3.5945
11
7.13884
21
-3.59509
0
LINE
8
BLACK
6
CONTINUOUS
10
7.13884
20
-3.59509
11
7.07884
21
-3.59509
0
LINE
8
BLACK
6
CONTINUOUS
10
7.07884
20
-3.59509
11
7.07583
21
-3.5945
0
LINE
8
BLACK
6
CONTINUOUS
10
7.07583
20
-3.5945
11
7.07327
21
-3.59279
0
LINE
8
BLACK
6
CONTINUOUS
10
7.07327
20
-3.59279
11
7.07157
21
-3.59023
0
LINE
8
BLACK
6
CONTINUOUS
10
7.07157
20
-3.59023
11
7.07097
21
-3.58722
0
LINE
8
BLACK
6
CONTINUOUS
10
7.07097
20
-3.58722
11
7.07097
21
-3.52722
0
LINE
8
BLACK
6
CONTINUOUS
10
7.07097
20
-3.52722
11
7.07157
21
-3.52421
0
LINE
8
BLACK
6
CONTINUOUS
10
7.07157
20
-3.52421
11
7.07327
21
-3.52165
0
LINE
8
BLACK
6
CONTINUOUS
10
7.07327
20
-3.52165
11
7.07583
21
-3.51995
0
LINE
8
BLACK
6
CONTINUOUS
10
7.07583
20
-3.51995
11
7.07884
21
-3.51935
0
LINE
8
BLACK
6
CONTINUOUS
10
7.07884
20
-3.51935
11
7.13884
21
-3.51935
0
LINE
8
BLACK
6
CONTINUOUS
10
7.13884
20
-3.51935
11
7.14186
21
-3.51995
0
LINE
8
BLACK
6
CONTINUOUS
10
7.04186
20
-3.51995
11
7.04441
21
-3.52165
0
LINE
8
BLACK
6
CONTINUOUS
10
7.04441
20
-3.52165
11
7.04612
21
-3.52421
0
LINE
8
BLACK
6
CONTINUOUS
10
7.04612
20
-3.52421
11
7.04672
21
-3.52722
0
LINE
8
BLACK
6
CONTINUOUS
10
7.04672
20
-3.52722
11
7.04672
21
-3.58722
0
LINE
8
BLACK
6
CONTINUOUS
10
7.04672
20
-3.58722
11
7.04612
21
-3.59023
0
LINE
8
BLACK
6
CONTINUOUS
10
7.04612
20
-3.59023
11
7.04441
21
-3.59279
0
LINE
8
BLACK
6
CONTINUOUS
10
7.04441
20
-3.59279
11
7.04186
21
-3.5945
0
LINE
8
BLACK
6
CONTINUOUS
10
7.04186
20
-3.5945
11
7.03884
21
-3.59509
0
LINE
8
BLACK
6
CONTINUOUS
10
7.03884
20
-3.59509
11
6.97884
21
-3.59509
0
LINE
8
BLACK
6
CONTINUOUS
10
6.97884
20
-3.59509
11
6.97583
21
-3.5945
0
LINE
8
BLACK
6
CONTINUOUS
10
6.97583
20
-3.5945
11
6.97327
21
-3.59279
0
LINE
8
BLACK
6
CONTINUOUS
10
6.97327
20
-3.59279
11
6.97157
21
-3.59023
0
LINE
8
BLACK
6
CONTINUOUS
10
6.97157
20
-3.59023
11
6.97097
21
-3.58722
0
LINE
8
BLACK
6
CONTINUOUS
10
6.97097
20
-3.58722
11
6.97097
21
-3.52722
0
LINE
8
BLACK
6
CONTINUOUS
10
6.97097
20
-3.52722
11
6.97157
21
-3.52421
0
LINE
8
BLACK
6
CONTINUOUS
10
6.97157
20
-3.52421
11
6.97327
21
-3.52165
0
LINE
8
BLACK
6
CONTINUOUS
10
6.97327
20
-3.52165
11
6.97583
21
-3.51995
0
LINE
8
BLACK
6
CONTINUOUS
10
6.97583
20
-3.51995
11
6.97884
21
-3.51935
0
LINE
8
BLACK
6
CONTINUOUS
10
6.97884
20
-3.51935
11
7.03884
21
-3.51935
0
LINE
8
BLACK
6
CONTINUOUS
10
7.03884
20
-3.51935
11
7.04186
21
-3.51995
0
LINE
8
BLACK
6
CONTINUOUS
10
6.03786
20
-3.50895
11
6.04041
21
-3.51065
0
LINE
8
BLACK
6
CONTINUOUS
10
6.04041
20
-3.51065
11
6.04212
21
-3.51321
0
LINE
8
BLACK
6
CONTINUOUS
10
6.04212
20
-3.51321
11
6.04272
21
-3.51622
0
LINE
8
BLACK
6
CONTINUOUS
10
6.04272
20
-3.51622
11
6.04272
21
-3.57622
0
LINE
8
BLACK
6
CONTINUOUS
10
6.04272
20
-3.57622
11
6.04212
21
-3.57923
0
LINE
8
BLACK
6
CONTINUOUS
10
6.04212
20
-3.57923
11
6.04041
21
-3.58179
0
LINE
8
BLACK
6
CONTINUOUS
10
6.04041
20
-3.58179
11
6.03786
21
-3.5835
0
LINE
8
BLACK
6
CONTINUOUS
10
6.03786
20
-3.5835
11
6.03484
21
-3.58409
0
LINE
8
BLACK
6
CONTINUOUS
10
6.03484
20
-3.58409
11
5.97484
21
-3.58409
0
LINE
8
BLACK
6
CONTINUOUS
10
5.97484
20
-3.58409
11
5.97183
21
-3.5835
0
LINE
8
BLACK
6
CONTINUOUS
10
5.97183
20
-3.5835
11
5.96927
21
-3.58179
0
LINE
8
BLACK
6
CONTINUOUS
10
5.96927
20
-3.58179
11
5.96757
21
-3.57923
0
LINE
8
BLACK
6
CONTINUOUS
10
5.96757
20
-3.57923
11
5.96697
21
-3.57622
0
LINE
8
BLACK
6
CONTINUOUS
10
5.96697
20
-3.57622
11
5.96697
21
-3.51622
0
LINE
8
BLACK
6
CONTINUOUS
10
5.96697
20
-3.51622
11
5.96757
21
-3.51321
0
LINE
8
BLACK
6
CONTINUOUS
10
5.96757
20
-3.51321
11
5.96927
21
-3.51065
0
LINE
8
BLACK
6
CONTINUOUS
10
5.96927
20
-3.51065
11
5.97183
21
-3.50895
0
LINE
8
BLACK
6
CONTINUOUS
10
5.97183
20
-3.50895
11
5.97484
21
-3.50835
0
LINE
8
BLACK
6
CONTINUOUS
10
5.97484
20
-3.50835
11
6.03484
21
-3.50835
0
LINE
8
BLACK
6
CONTINUOUS
10
6.03484
20
-3.50835
11
6.03786
21
-3.50895
0
LINE
8
BLACK
6
CONTINUOUS
10
5.93786
20
-3.50895
11
5.94041
21
-3.51065
0
LINE
8
BLACK
6
CONTINUOUS
10
5.94041
20
-3.51065
11
5.94212
21
-3.51321
0
LINE
8
BLACK
6
CONTINUOUS
10
5.94212
20
-3.51321
11
5.94272
21
-3.51622
0
LINE
8
BLACK
6
CONTINUOUS
10
5.94272
20
-3.51622
11
5.94272
21
-3.57622
0
LINE
8
BLACK
6
CONTINUOUS
10
5.94272
20
-3.57622
11
5.94212
21
-3.57923
0
LINE
8
BLACK
6
CONTINUOUS
10
5.94212
20
-3.57923
11
5.94041
21
-3.58179
0
LINE
8
BLACK
6
CONTINUOUS
10
5.94041
20
-3.58179
11
5.93786
21
-3.5835
0
LINE
8
BLACK
6
CONTINUOUS
10
5.93786
20
-3.5835
11
5.93484
21
-3.58409
0
LINE
8
BLACK
6
CONTINUOUS
10
5.93484
20
-3.58409
11
5.87484
21
-3.58409
0
LINE
8
BLACK
6
CONTINUOUS
10
5.87484
20
-3.58409
11
5.87183
21
-3.5835
0
LINE
8
BLACK
6
CONTINUOUS
10
5.87183
20
-3.5835
11
5.86927
21
-3.58179
0
LINE
8
BLACK
6
CONTINUOUS
10
5.86927
20
-3.58179
11
5.86757
21
-3.57923
0
LINE
8
BLACK
6
CONTINUOUS
10
5.86757
20
-3.57923
11
5.86697
21
-3.57622
0
LINE
8
BLACK
6
CONTINUOUS
10
5.86697
20
-3.57622
11
5.86697
21
-3.51622
0
LINE
8
BLACK
6
CONTINUOUS
10
5.86697
20
-3.51622
11
5.86757
21
-3.51321
0
LINE
8
BLACK
6
CONTINUOUS
10
5.86757
20
-3.51321
11
5.86927
21
-3.51065
0
LINE
8
BLACK
6
CONTINUOUS
10
5.86927
20
-3.51065
11
5.87183
21
-3.50895
0
LINE
8
BLACK
6
CONTINUOUS
10
5.87183
20
-3.50895
11
5.87484
21
-3.50835
0
LINE
8
BLACK
6
CONTINUOUS
10
5.87484
20
-3.50835
11
5.93484
21
-3.50835
0
LINE
8
BLACK
6
CONTINUOUS
10
5.93484
20
-3.50835
11
5.93786
21
-3.50895
0
LINE
8
BLACK
6
CONTINUOUS
10
5.83786
20
-3.50895
11
5.84041
21
-3.51065
0
LINE
8
BLACK
6
CONTINUOUS
10
5.84041
20
-3.51065
11
5.84212
21
-3.51321
0
LINE
8
BLACK
6
CONTINUOUS
10
5.84212
20
-3.51321
11
5.84272
21
-3.51622
0
LINE
8
BLACK
6
CONTINUOUS
10
5.84272
20
-3.51622
11
5.84272
21
-3.57622
0
LINE
8
BLACK
6
CONTINUOUS
10
5.84272
20
-3.57622
11
5.84212
21
-3.57923
0
LINE
8
BLACK
6
CONTINUOUS
10
5.84212
20
-3.57923
11
5.84041
21
-3.58179
0
LINE
8
BLACK
6
CONTINUOUS
10
5.84041
20
-3.58179
11
5.83786
21
-3.5835
0
LINE
8
BLACK
6
CONTINUOUS
10
5.83786
20
-3.5835
11
5.83484
21
-3.58409
0
LINE
8
BLACK
6
CONTINUOUS
10
5.83484
20
-3.58409
11
5.77484
21
-3.58409
0
LINE
8
BLACK
6
CONTINUOUS
10
5.77484
20
-3.58409
11
5.77183
21
-3.5835
0
LINE
8
BLACK
6
CONTINUOUS
10
5.77183
20
-3.5835
11
5.76927
21
-3.58179
0
LINE
8
BLACK
6
CONTINUOUS
10
5.76927
20
-3.58179
11
5.76757
21
-3.57923
0
LINE
8
BLACK
6
CONTINUOUS
10
5.76757
20
-3.57923
11
5.76697
21
-3.57622
0
LINE
8
BLACK
6
CONTINUOUS
10
5.76697
20
-3.57622
11
5.76697
21
-3.51622
0
LINE
8
BLACK
6
CONTINUOUS
10
5.76697
20
-3.51622
11
5.76757
21
-3.51321
0
LINE
8
BLACK
6
CONTINUOUS
10
5.76757
20
-3.51321
11
5.76927
21
-3.51065
0
LINE
8
BLACK
6
CONTINUOUS
10
5.76927
20
-3.51065
11
5.77183
21
-3.50895
0
LINE
8
BLACK
6
CONTINUOUS
10
5.77183
20
-3.50895
11
5.77484
21
-3.50835
0
LINE
8
BLACK
6
CONTINUOUS
10
5.77484
20
-3.50835
11
5.83484
21
-3.50835
0
LINE
8
BLACK
6
CONTINUOUS
10
5.83484
20
-3.50835
11
5.83786
21
-3.50895
0
LINE
8
BLACK
6
CONTINUOUS
10
5.56286
20
-3.43395
11
5.56541
21
-3.43565
0
LINE
8
BLACK
6
CONTINUOUS
10
5.56541
20
-3.43565
11
5.56712
21
-3.43821
0
LINE
8
BLACK
6
CONTINUOUS
10
5.56712
20
-3.43821
11
5.56772
21
-3.44122
0
LINE
8
BLACK
6
CONTINUOUS
10
5.56772
20
-3.44122
11
5.56772
21
-3.50122
0
LINE
8
BLACK
6
CONTINUOUS
10
5.56772
20
-3.50122
11
5.56712
21
-3.50423
0
LINE
8
BLACK
6
CONTINUOUS
10
5.56712
20
-3.50423
11
5.56541
21
-3.50679
0
LINE
8
BLACK
6
CONTINUOUS
10
5.56541
20
-3.50679
11
5.56286
21
-3.5085
0
LINE
8
BLACK
6
CONTINUOUS
10
5.56286
20
-3.5085
11
5.55984
21
-3.50909
0
LINE
8
BLACK
6
CONTINUOUS
10
5.55984
20
-3.50909
11
5.49984
21
-3.50909
0
LINE
8
BLACK
6
CONTINUOUS
10
5.49984
20
-3.50909
11
5.49683
21
-3.5085
0
LINE
8
BLACK
6
CONTINUOUS
10
5.49683
20
-3.5085
11
5.49427
21
-3.50679
0
LINE
8
BLACK
6
CONTINUOUS
10
5.49427
20
-3.50679
11
5.49257
21
-3.50423
0
LINE
8
BLACK
6
CONTINUOUS
10
5.49257
20
-3.50423
11
5.49197
21
-3.50122
0
LINE
8
BLACK
6
CONTINUOUS
10
5.49197
20
-3.50122
11
5.49197
21
-3.44122
0
LINE
8
BLACK
6
CONTINUOUS
10
5.49197
20
-3.44122
11
5.49257
21
-3.43821
0
LINE
8
BLACK
6
CONTINUOUS
10
5.49257
20
-3.43821
11
5.49427
21
-3.43565
0
LINE
8
BLACK
6
CONTINUOUS
10
5.49427
20
-3.43565
11
5.49683
21
-3.43395
0
LINE
8
BLACK
6
CONTINUOUS
10
5.49683
20
-3.43395
11
5.49984
21
-3.43335
0
LINE
8
BLACK
6
CONTINUOUS
10
5.49984
20
-3.43335
11
5.55984
21
-3.43335
0
LINE
8
BLACK
6
CONTINUOUS
10
5.55984
20
-3.43335
11
5.56286
21
-3.43395
0
LINE
8
BLACK
6
CONTINUOUS
10
5.46286
20
-3.43395
11
5.46541
21
-3.43565
0
LINE
8
BLACK
6
CONTINUOUS
10
5.46541
20
-3.43565
11
5.46712
21
-3.43821
0
LINE
8
BLACK
6
CONTINUOUS
10
5.46712
20
-3.43821
11
5.46772
21
-3.44122
0
LINE
8
BLACK
6
CONTINUOUS
10
5.46772
20
-3.44122
11
5.46772
21
-3.50122
0
LINE
8
BLACK
6
CONTINUOUS
10
5.46772
20
-3.50122
11
5.46712
21
-3.50423
0
LINE
8
BLACK
6
CONTINUOUS
10
5.46712
20
-3.50423
11
5.46541
21
-3.50679
0
LINE
8
BLACK
6
CONTINUOUS
10
5.46541
20
-3.50679
11
5.46286
21
-3.5085
0
LINE
8
BLACK
6
CONTINUOUS
10
5.46286
20
-3.5085
11
5.45984
21
-3.50909
0
LINE
8
BLACK
6
CONTINUOUS
10
5.45984
20
-3.50909
11
5.39984
21
-3.50909
0
LINE
8
BLACK
6
CONTINUOUS
10
5.39984
20
-3.50909
11
5.39683
21
-3.5085
0
LINE
8
BLACK
6
CONTINUOUS
10
5.39683
20
-3.5085
11
5.39427
21
-3.50679
0
LINE
8
BLACK
6
CONTINUOUS
10
5.39427
20
-3.50679
11
5.39257
21
-3.50423
0
LINE
8
BLACK
6
CONTINUOUS
10
5.39257
20
-3.50423
11
5.39197
21
-3.50122
0
LINE
8
BLACK
6
CONTINUOUS
10
5.39197
20
-3.50122
11
5.39197
21
-3.44122
0
LINE
8
BLACK
6
CONTINUOUS
10
5.39197
20
-3.44122
11
5.39257
21
-3.43821
0
LINE
8
BLACK
6
CONTINUOUS
10
5.39257
20
-3.43821
11
5.39427
21
-3.43565
0
LINE
8
BLACK
6
CONTINUOUS
10
5.39427
20
-3.43565
11
5.39683
21
-3.43395
0
LINE
8
BLACK
6
CONTINUOUS
10
5.39683
20
-3.43395
11
5.39984
21
-3.43335
0
LINE
8
BLACK
6
CONTINUOUS
10
5.39984
20
-3.43335
11
5.45984
21
-3.43335
0
LINE
8
BLACK
6
CONTINUOUS
10
5.45984
20
-3.43335
11
5.46286
21
-3.43395
0
LINE
8
BLACK
6
CONTINUOUS
10
7.04186
20
-3.41995
11
7.04441
21
-3.42165
0
LINE
8
BLACK
6
CONTINUOUS
10
7.04441
20
-3.42165
11
7.04612
21
-3.42421
0
LINE
8
BLACK
6
CONTINUOUS
10
7.04612
20
-3.42421
11
7.04672
21
-3.42722
0
LINE
8
BLACK
6
CONTINUOUS
10
7.04672
20
-3.42722
11
7.04672
21
-3.48722
0
LINE
8
BLACK
6
CONTINUOUS
10
7.04672
20
-3.48722
11
7.04612
21
-3.49023
0
LINE
8
BLACK
6
CONTINUOUS
10
7.04612
20
-3.49023
11
7.04441
21
-3.49279
0
LINE
8
BLACK
6
CONTINUOUS
10
7.04441
20
-3.49279
11
7.04186
21
-3.4945
0
LINE
8
BLACK
6
CONTINUOUS
10
7.04186
20
-3.4945
11
7.03884
21
-3.49509
0
LINE
8
BLACK
6
CONTINUOUS
10
7.03884
20
-3.49509
11
6.97884
21
-3.49509
0
LINE
8
BLACK
6
CONTINUOUS
10
6.97884
20
-3.49509
11
6.97583
21
-3.4945
0
LINE
8
BLACK
6
CONTINUOUS
10
6.97583
20
-3.4945
11
6.97327
21
-3.49279
0
LINE
8
BLACK
6
CONTINUOUS
10
6.97327
20
-3.49279
11
6.97157
21
-3.49023
0
LINE
8
BLACK
6
CONTINUOUS
10
6.97157
20
-3.49023
11
6.97097
21
-3.48722
0
LINE
8
BLACK
6
CONTINUOUS
10
6.97097
20
-3.48722
11
6.97097
21
-3.42722
0
LINE
8
BLACK
6
CONTINUOUS
10
6.97097
20
-3.42722
11
6.97157
21
-3.42421
0
LINE
8
BLACK
6
CONTINUOUS
10
6.97157
20
-3.42421
11
6.97327
21
-3.42165
0
LINE
8
BLACK
6
CONTINUOUS
10
6.97327
20
-3.42165
11
6.97583
21
-3.41995
0
LINE
8
BLACK
6
CONTINUOUS
10
6.97583
20
-3.41995
11
6.97884
21
-3.41935
0
LINE
8
BLACK
6
CONTINUOUS
10
6.97884
20
-3.41935
11
7.03884
21
-3.41935
0
LINE
8
BLACK
6
CONTINUOUS
10
7.03884
20
-3.41935
11
7.04186
21
-3.41995
0
LINE
8
BLACK
6
CONTINUOUS
10
7.14186
20
-3.41995
11
7.14441
21
-3.42165
0
LINE
8
BLACK
6
CONTINUOUS
10
7.14441
20
-3.42165
11
7.14612
21
-3.42421
0
LINE
8
BLACK
6
CONTINUOUS
10
7.14612
20
-3.42421
11
7.14672
21
-3.42722
0
LINE
8
BLACK
6
CONTINUOUS
10
7.14672
20
-3.42722
11
7.14672
21
-3.48722
0
LINE
8
BLACK
6
CONTINUOUS
10
7.14672
20
-3.48722
11
7.14612
21
-3.49023
0
LINE
8
BLACK
6
CONTINUOUS
10
7.14612
20
-3.49023
11
7.14441
21
-3.49279
0
LINE
8
BLACK
6
CONTINUOUS
10
7.14441
20
-3.49279
11
7.14186
21
-3.4945
0
LINE
8
BLACK
6
CONTINUOUS
10
7.14186
20
-3.4945
11
7.13884
21
-3.49509
0
LINE
8
BLACK
6
CONTINUOUS
10
7.13884
20
-3.49509
11
7.07884
21
-3.49509
0
LINE
8
BLACK
6
CONTINUOUS
10
7.07884
20
-3.49509
11
7.07583
21
-3.4945
0
LINE
8
BLACK
6
CONTINUOUS
10
7.07583
20
-3.4945
11
7.07327
21
-3.49279
0
LINE
8
BLACK
6
CONTINUOUS
10
7.07327
20
-3.49279
11
7.07157
21
-3.49023
0
LINE
8
BLACK
6
CONTINUOUS
10
7.07157
20
-3.49023
11
7.07097
21
-3.48722
0
LINE
8
BLACK
6
CONTINUOUS
10
7.07097
20
-3.48722
11
7.07097
21
-3.42722
0
LINE
8
BLACK
6
CONTINUOUS
10
7.07097
20
-3.42722
11
7.07157
21
-3.42421
0
LINE
8
BLACK
6
CONTINUOUS
10
7.07157
20
-3.42421
11
7.07327
21
-3.42165
0
LINE
8
BLACK
6
CONTINUOUS
10
7.07327
20
-3.42165
11
7.07583
21
-3.41995
0
LINE
8
BLACK
6
CONTINUOUS
10
7.07583
20
-3.41995
11
7.07884
21
-3.41935
0
LINE
8
BLACK
6
CONTINUOUS
10
7.07884
20
-3.41935
11
7.13884
21
-3.41935
0
LINE
8
BLACK
6
CONTINUOUS
10
7.13884
20
-3.41935
11
7.14186
21
-3.41995
0
LINE
8
BLACK
6
CONTINUOUS
10
5.46286
20
-3.33395
11
5.46541
21
-3.33565
0
LINE
8
BLACK
6
CONTINUOUS
10
5.46541
20
-3.33565
11
5.46712
21
-3.33821
0
LINE
8
BLACK
6
CONTINUOUS
10
5.46712
20
-3.33821
11
5.46772
21
-3.34122
0
LINE
8
BLACK
6
CONTINUOUS
10
5.46772
20
-3.34122
11
5.46772
21
-3.40122
0
LINE
8
BLACK
6
CONTINUOUS
10
5.46772
20
-3.40122
11
5.46712
21
-3.40423
0
LINE
8
BLACK
6
CONTINUOUS
10
5.46712
20
-3.40423
11
5.46541
21
-3.40679
0
LINE
8
BLACK
6
CONTINUOUS
10
5.46541
20
-3.40679
11
5.46286
21
-3.4085
0
LINE
8
BLACK
6
CONTINUOUS
10
5.46286
20
-3.4085
11
5.45984
21
-3.40909
0
LINE
8
BLACK
6
CONTINUOUS
10
5.45984
20
-3.40909
11
5.39984
21
-3.40909
0
LINE
8
BLACK
6
CONTINUOUS
10
5.39984
20
-3.40909
11
5.39683
21
-3.4085
0
LINE
8
BLACK
6
CONTINUOUS
10
5.39683
20
-3.4085
11
5.39427
21
-3.40679
0
LINE
8
BLACK
6
CONTINUOUS
10
5.39427
20
-3.40679
11
5.39257
21
-3.40423
0
LINE
8
BLACK
6
CONTINUOUS
10
5.39257
20
-3.40423
11
5.39197
21
-3.40122
0
LINE
8
BLACK
6
CONTINUOUS
10
5.39197
20
-3.40122
11
5.39197
21
-3.34122
0
LINE
8
BLACK
6
CONTINUOUS
10
5.39197
20
-3.34122
11
5.39257
21
-3.33821
0
LINE
8
BLACK
6
CONTINUOUS
10
5.39257
20
-3.33821
11
5.39427
21
-3.33565
0
LINE
8
BLACK
6
CONTINUOUS
10
5.39427
20
-3.33565
11
5.39683
21
-3.33395
0
LINE
8
BLACK
6
CONTINUOUS
10
5.39683
20
-3.33395
11
5.39984
21
-3.33335
0
LINE
8
BLACK
6
CONTINUOUS
10
5.39984
20
-3.33335
11
5.45984
21
-3.33335
0
LINE
8
BLACK
6
CONTINUOUS
10
5.45984
20
-3.33335
11
5.46286
21
-3.33395
0
LINE
8
BLACK
6
CONTINUOUS
10
5.56286
20
-3.33395
11
5.56541
21
-3.33565
0
LINE
8
BLACK
6
CONTINUOUS
10
5.56541
20
-3.33565
11
5.56712
21
-3.33821
0
LINE
8
BLACK
6
CONTINUOUS
10
5.56712
20
-3.33821
11
5.56772
21
-3.34122
0
LINE
8
BLACK
6
CONTINUOUS
10
5.56772
20
-3.34122
11
5.56772
21
-3.40122
0
LINE
8
BLACK
6
CONTINUOUS
10
5.56772
20
-3.40122
11
5.56712
21
-3.40423
0
LINE
8
BLACK
6
CONTINUOUS
10
5.56712
20
-3.40423
11
5.56541
21
-3.40679
0
LINE
8
BLACK
6
CONTINUOUS
10
5.56541
20
-3.40679
11
5.56286
21
-3.4085
0
LINE
8
BLACK
6
CONTINUOUS
10
5.56286
20
-3.4085
11
5.55984
21
-3.40909
0
LINE
8
BLACK
6
CONTINUOUS
10
5.55984
20
-3.40909
11
5.49984
21
-3.40909
0
LINE
8
BLACK
6
CONTINUOUS
10
5.49984
20
-3.40909
11
5.49683
21
-3.4085
0
LINE
8
BLACK
6
CONTINUOUS
10
5.49683
20
-3.4085
11
5.49427
21
-3.40679
0
LINE
8
BLACK
6
CONTINUOUS
10
5.49427
20
-3.40679
11
5.49257
21
-3.40423
0
LINE
8
BLACK
6
CONTINUOUS
10
5.49257
20
-3.40423
11
5.49197
21
-3.40122
0
LINE
8
BLACK
6
CONTINUOUS
10
5.49197
20
-3.40122
11
5.49197
21
-3.34122
0
LINE
8
BLACK
6
CONTINUOUS
10
5.49197
20
-3.34122
11
5.49257
21
-3.33821
0
LINE
8
BLACK
6
CONTINUOUS
10
5.49257
20
-3.33821
11
5.49427
21
-3.33565
0
LINE
8
BLACK
6
CONTINUOUS
10
5.49427
20
-3.33565
11
5.49683
21
-3.33395
0
LINE
8
BLACK
6
CONTINUOUS
10
5.49683
20
-3.33395
11
5.49984
21
-3.33335
0
LINE
8
BLACK
6
CONTINUOUS
10
5.49984
20
-3.33335
11
5.55984
21
-3.33335
0
LINE
8
BLACK
6
CONTINUOUS
10
5.55984
20
-3.33335
11
5.56286
21
-3.33395
0
LINE
8
BLACK
6
CONTINUOUS
10
7.14186
20
-3.31995
11
7.14441
21
-3.32165
0
LINE
8
BLACK
6
CONTINUOUS
10
7.14441
20
-3.32165
11
7.14612
21
-3.32421
0
LINE
8
BLACK
6
CONTINUOUS
10
7.14612
20
-3.32421
11
7.14672
21
-3.32722
0
LINE
8
BLACK
6
CONTINUOUS
10
7.14672
20
-3.32722
11
7.14672
21
-3.38722
0
LINE
8
BLACK
6
CONTINUOUS
10
7.14672
20
-3.38722
11
7.14612
21
-3.39023
0
LINE
8
BLACK
6
CONTINUOUS
10
7.14612
20
-3.39023
11
7.14441
21
-3.39279
0
LINE
8
BLACK
6
CONTINUOUS
10
7.14441
20
-3.39279
11
7.14186
21
-3.3945
0
LINE
8
BLACK
6
CONTINUOUS
10
7.14186
20
-3.3945
11
7.13884
21
-3.39509
0
LINE
8
BLACK
6
CONTINUOUS
10
7.13884
20
-3.39509
11
7.07884
21
-3.39509
0
LINE
8
BLACK
6
CONTINUOUS
10
7.07884
20
-3.39509
11
7.07583
21
-3.3945
0
LINE
8
BLACK
6
CONTINUOUS
10
7.07583
20
-3.3945
11
7.07327
21
-3.39279
0
LINE
8
BLACK
6
CONTINUOUS
10
7.07327
20
-3.39279
11
7.07157
21
-3.39023
0
LINE
8
BLACK
6
CONTINUOUS
10
7.07157
20
-3.39023
11
7.07097
21
-3.38722
0
LINE
8
BLACK
6
CONTINUOUS
10
7.07097
20
-3.38722
11
7.07097
21
-3.32722
0
LINE
8
BLACK
6
CONTINUOUS
10
7.07097
20
-3.32722
11
7.07157
21
-3.32421
0
LINE
8
BLACK
6
CONTINUOUS
10
7.07157
20
-3.32421
11
7.07327
21
-3.32165
0
LINE
8
BLACK
6
CONTINUOUS
10
7.07327
20
-3.32165
11
7.07583
21
-3.31995
0
LINE
8
BLACK
6
CONTINUOUS
10
7.07583
20
-3.31995
11
7.07884
21
-3.31935
0
LINE
8
BLACK
6
CONTINUOUS
10
7.07884
20
-3.31935
11
7.13884
21
-3.31935
0
LINE
8
BLACK
6
CONTINUOUS
10
7.13884
20
-3.31935
11
7.14186
21
-3.31995
0
LINE
8
BLACK
6
CONTINUOUS
10
7.04186
20
-3.31995
11
7.04441
21
-3.32165
0
LINE
8
BLACK
6
CONTINUOUS
10
7.04441
20
-3.32165
11
7.04612
21
-3.32421
0
LINE
8
BLACK
6
CONTINUOUS
10
7.04612
20
-3.32421
11
7.04672
21
-3.32722
0
LINE
8
BLACK
6
CONTINUOUS
10
7.04672
20
-3.32722
11
7.04672
21
-3.38722
0
LINE
8
BLACK
6
CONTINUOUS
10
7.04672
20
-3.38722
11
7.04612
21
-3.39023
0
LINE
8
BLACK
6
CONTINUOUS
10
7.04612
20
-3.39023
11
7.04441
21
-3.39279
0
LINE
8
BLACK
6
CONTINUOUS
10
7.04441
20
-3.39279
11
7.04186
21
-3.3945
0
LINE
8
BLACK
6
CONTINUOUS
10
7.04186
20
-3.3945
11
7.03884
21
-3.39509
0
LINE
8
BLACK
6
CONTINUOUS
10
7.03884
20
-3.39509
11
6.97884
21
-3.39509
0
LINE
8
BLACK
6
CONTINUOUS
10
6.97884
20
-3.39509
11
6.97583
21
-3.3945
0
LINE
8
BLACK
6
CONTINUOUS
10
6.97583
20
-3.3945
11
6.97327
21
-3.39279
0
LINE
8
BLACK
6
CONTINUOUS
10
6.97327
20
-3.39279
11
6.97157
21
-3.39023
0
LINE
8
BLACK
6
CONTINUOUS
10
6.97157
20
-3.39023
11
6.97097
21
-3.38722
0
LINE
8
BLACK
6
CONTINUOUS
10
6.97097
20
-3.38722
11
6.97097
21
-3.32722
0
LINE
8
BLACK
6
CONTINUOUS
10
6.97097
20
-3.32722
11
6.97157
21
-3.32421
0
LINE
8
BLACK
6
CONTINUOUS
10
6.97157
20
-3.32421
11
6.97327
21
-3.32165
0
LINE
8
BLACK
6
CONTINUOUS
10
6.97327
20
-3.32165
11
6.97583
21
-3.31995
0
LINE
8
BLACK
6
CONTINUOUS
10
6.97583
20
-3.31995
11
6.97884
21
-3.31935
0
LINE
8
BLACK
6
CONTINUOUS
10
6.97884
20
-3.31935
11
7.03884
21
-3.31935
0
LINE
8
BLACK
6
CONTINUOUS
10
7.03884
20
-3.31935
11
7.04186
21
-3.31995
0
LINE
8
BLACK
6
CONTINUOUS
10
6.27286
20
-3.23395
11
6.27541
21
-3.23565
0
LINE
8
BLACK
6
CONTINUOUS
10
6.27541
20
-3.23565
11
6.27712
21
-3.23821
0
LINE
8
BLACK
6
CONTINUOUS
10
6.27712
20
-3.23821
11
6.27772
21
-3.24122
0
LINE
8
BLACK
6
CONTINUOUS
10
6.27772
20
-3.24122
11
6.27772
21
-3.30122
0
LINE
8
BLACK
6
CONTINUOUS
10
6.27772
20
-3.30122
11
6.27712
21
-3.30423
0
LINE
8
BLACK
6
CONTINUOUS
10
6.27712
20
-3.30423
11
6.27541
21
-3.30679
0
LINE
8
BLACK
6
CONTINUOUS
10
6.27541
20
-3.30679
11
6.27286
21
-3.3085
0
LINE
8
BLACK
6
CONTINUOUS
10
6.27286
20
-3.3085
11
6.26984
21
-3.30909
0
LINE
8
BLACK
6
CONTINUOUS
10
6.26984
20
-3.30909
11
6.20984
21
-3.30909
0
LINE
8
BLACK
6
CONTINUOUS
10
6.20984
20
-3.30909
11
6.20683
21
-3.3085
0
LINE
8
BLACK
6
CONTINUOUS
10
6.20683
20
-3.3085
11
6.20427
21
-3.30679
0
LINE
8
BLACK
6
CONTINUOUS
10
6.20427
20
-3.30679
11
6.20257
21
-3.30423
0
LINE
8
BLACK
6
CONTINUOUS
10
6.20257
20
-3.30423
11
6.20197
21
-3.30122
0
LINE
8
BLACK
6
CONTINUOUS
10
6.20197
20
-3.30122
11
6.20197
21
-3.24122
0
LINE
8
BLACK
6
CONTINUOUS
10
6.20197
20
-3.24122
11
6.20257
21
-3.23821
0
LINE
8
BLACK
6
CONTINUOUS
10
6.20257
20
-3.23821
11
6.20427
21
-3.23565
0
LINE
8
BLACK
6
CONTINUOUS
10
6.20427
20
-3.23565
11
6.20683
21
-3.23395
0
LINE
8
BLACK
6
CONTINUOUS
10
6.20683
20
-3.23395
11
6.20984
21
-3.23335
0
LINE
8
BLACK
6
CONTINUOUS
10
6.20984
20
-3.23335
11
6.26984
21
-3.23335
0
LINE
8
BLACK
6
CONTINUOUS
10
6.26984
20
-3.23335
11
6.27286
21
-3.23395
0
LINE
8
BLACK
6
CONTINUOUS
10
5.44476
20
-2.99612
11
5.45861
21
-2.99856
0
LINE
8
BLACK
6
CONTINUOUS
10
5.45861
20
-2.99856
11
5.4721
21
-3.00254
0
LINE
8
BLACK
6
CONTINUOUS
10
5.4721
20
-3.00254
11
5.48507
21
-3.00799
0
LINE
8
BLACK
6
CONTINUOUS
10
5.48507
20
-3.00799
11
5.49735
21
-3.01485
0
LINE
8
BLACK
6
CONTINUOUS
10
5.49735
20
-3.01485
11
5.50878
21
-3.02304
0
LINE
8
BLACK
6
CONTINUOUS
10
5.50878
20
-3.02304
11
5.51924
21
-3.03245
0
LINE
8
BLACK
6
CONTINUOUS
10
5.51924
20
-3.03245
11
5.52858
21
-3.04297
0
LINE
8
BLACK
6
CONTINUOUS
10
5.52858
20
-3.04297
11
5.53668
21
-3.05446
0
LINE
8
BLACK
6
CONTINUOUS
10
5.53668
20
-3.05446
11
5.54346
21
-3.06678
0
LINE
8
BLACK
6
CONTINUOUS
10
5.54346
20
-3.06678
11
5.54882
21
-3.07979
0
LINE
8
BLACK
6
CONTINUOUS
10
5.54882
20
-3.07979
11
5.5527
21
-3.09331
0
LINE
8
BLACK
6
CONTINUOUS
10
5.5527
20
-3.09331
11
5.55504
21
-3.10718
0
LINE
8
BLACK
6
CONTINUOUS
10
5.55504
20
-3.10718
11
5.55583
21
-3.12122
0
LINE
8
BLACK
6
CONTINUOUS
10
5.55583
20
-3.12122
11
5.55578
21
-3.12474
0
LINE
8
BLACK
6
CONTINUOUS
10
5.55578
20
-3.12474
11
5.5546
21
-3.13875
0
LINE
8
BLACK
6
CONTINUOUS
10
5.5546
20
-3.13875
11
5.55187
21
-3.15255
0
LINE
8
BLACK
6
CONTINUOUS
10
5.55187
20
-3.15255
11
5.54762
21
-3.16596
0
LINE
8
BLACK
6
CONTINUOUS
10
5.54762
20
-3.16596
11
5.54189
21
-3.17881
0
LINE
8
BLACK
6
CONTINUOUS
10
5.54189
20
-3.17881
11
5.53478
21
-3.19094
0
LINE
8
BLACK
6
CONTINUOUS
10
5.53478
20
-3.19094
11
5.52635
21
-3.2022
0
LINE
8
BLACK
6
CONTINUOUS
10
5.52635
20
-3.2022
11
5.51672
21
-3.21245
0
LINE
8
BLACK
6
CONTINUOUS
10
5.51672
20
-3.21245
11
5.50601
21
-3.22157
0
LINE
8
BLACK
6
CONTINUOUS
10
5.50601
20
-3.22157
11
5.49435
21
-3.22944
0
LINE
8
BLACK
6
CONTINUOUS
10
5.49435
20
-3.22944
11
5.48189
21
-3.23595
0
LINE
8
BLACK
6
CONTINUOUS
10
5.48189
20
-3.23595
11
5.46877
21
-3.24104
0
LINE
8
BLACK
6
CONTINUOUS
10
5.46877
20
-3.24104
11
5.45518
21
-3.24463
0
LINE
8
BLACK
6
CONTINUOUS
10
5.45518
20
-3.24463
11
5.44126
21
-3.24669
0
LINE
8
BLACK
6
CONTINUOUS
10
5.44126
20
-3.24669
11
5.4272
21
-3.24718
0
LINE
8
BLACK
6
CONTINUOUS
10
5.4272
20
-3.24718
11
5.41318
21
-3.2461
0
LINE
8
BLACK
6
CONTINUOUS
10
5.41318
20
-3.2461
11
5.39936
21
-3.24346
0
LINE
8
BLACK
6
CONTINUOUS
10
5.39936
20
-3.24346
11
5.38593
21
-3.2393
0
LINE
8
BLACK
6
CONTINUOUS
10
5.38593
20
-3.2393
11
5.37304
21
-3.23367
0
LINE
8
BLACK
6
CONTINUOUS
10
5.37304
20
-3.23367
11
5.36086
21
-3.22664
0
LINE
8
BLACK
6
CONTINUOUS
10
5.36086
20
-3.22664
11
5.34954
21
-3.21829
0
LINE
8
BLACK
6
CONTINUOUS
10
5.34954
20
-3.21829
11
5.33922
21
-3.20874
0
LINE
8
BLACK
6
CONTINUOUS
10
5.33922
20
-3.20874
11
5.33003
21
-3.19809
0
LINE
8
BLACK
6
CONTINUOUS
10
5.33003
20
-3.19809
11
5.32208
21
-3.18648
0
LINE
8
BLACK
6
CONTINUOUS
10
5.32208
20
-3.18648
11
5.31548
21
-3.17406
0
LINE
8
BLACK
6
CONTINUOUS
10
5.31548
20
-3.17406
11
5.3103
21
-3.16099
0
LINE
8
BLACK
6
CONTINUOUS
10
5.3103
20
-3.16099
11
5.30661
21
-3.14741
0
LINE
8
BLACK
6
CONTINUOUS
10
5.30661
20
-3.14741
11
5.30446
21
-3.13351
0
LINE
8
BLACK
6
CONTINUOUS
10
5.30446
20
-3.13351
11
5.30387
21
-3.11946
0
LINE
8
BLACK
6
CONTINUOUS
10
5.30387
20
-3.11946
11
5.30485
21
-3.10543
0
LINE
8
BLACK
6
CONTINUOUS
10
5.30485
20
-3.10543
11
5.30739
21
-3.0916
0
LINE
8
BLACK
6
CONTINUOUS
10
5.30739
20
-3.0916
11
5.31146
21
-3.07813
0
LINE
8
BLACK
6
CONTINUOUS
10
5.31146
20
-3.07813
11
5.317
21
-3.0652
0
LINE
8
BLACK
6
CONTINUOUS
10
5.317
20
-3.0652
11
5.32394
21
-3.05297
0
LINE
8
BLACK
6
CONTINUOUS
10
5.32394
20
-3.05297
11
5.33221
21
-3.04159
0
LINE
8
BLACK
6
CONTINUOUS
10
5.33221
20
-3.04159
11
5.3417
21
-3.03121
0
LINE
8
BLACK
6
CONTINUOUS
10
5.3417
20
-3.03121
11
5.35228
21
-3.02194
0
LINE
8
BLACK
6
CONTINUOUS
10
5.35228
20
-3.02194
11
5.36383
21
-3.01392
0
LINE
8
BLACK
6
CONTINUOUS
10
5.36383
20
-3.01392
11
5.3762
21
-3.00723
0
LINE
8
BLACK
6
CONTINUOUS
10
5.3762
20
-3.00723
11
5.38924
21
-3.00196
0
LINE
8
BLACK
6
CONTINUOUS
10
5.38924
20
-3.00196
11
5.40279
21
-2.99818
0
LINE
8
BLACK
6
CONTINUOUS
10
5.40279
20
-2.99818
11
5.41667
21
-2.99593
0
LINE
8
BLACK
6
CONTINUOUS
10
5.41667
20
-2.99593
11
5.43072
21
-2.99524
0
LINE
8
BLACK
6
CONTINUOUS
10
5.43072
20
-2.99524
11
5.44476
21
-2.99612
0
LINE
8
BLACK
6
CONTINUOUS
10
7.04476
20
-2.99612
11
7.05861
21
-2.99856
0
LINE
8
BLACK
6
CONTINUOUS
10
7.05861
20
-2.99856
11
7.0721
21
-3.00254
0
LINE
8
BLACK
6
CONTINUOUS
10
7.0721
20
-3.00254
11
7.08507
21
-3.00799
0
LINE
8
BLACK
6
CONTINUOUS
10
7.08507
20
-3.00799
11
7.09735
21
-3.01485
0
LINE
8
BLACK
6
CONTINUOUS
10
7.09735
20
-3.01485
11
7.10878
21
-3.02304
0
LINE
8
BLACK
6
CONTINUOUS
10
7.10878
20
-3.02304
11
7.11924
21
-3.03245
0
LINE
8
BLACK
6
CONTINUOUS
10
7.11924
20
-3.03245
11
7.12858
21
-3.04297
0
LINE
8
BLACK
6
CONTINUOUS
10
7.12858
20
-3.04297
11
7.13668
21
-3.05446
0
LINE
8
BLACK
6
CONTINUOUS
10
7.13668
20
-3.05446
11
7.14346
21
-3.06678
0
LINE
8
BLACK
6
CONTINUOUS
10
7.14346
20
-3.06678
11
7.14882
21
-3.07979
0
LINE
8
BLACK
6
CONTINUOUS
10
7.14882
20
-3.07979
11
7.1527
21
-3.09331
0
LINE
8
BLACK
6
CONTINUOUS
10
7.1527
20
-3.09331
11
7.15504
21
-3.10718
0
LINE
8
BLACK
6
CONTINUOUS
10
7.15504
20
-3.10718
11
7.15583
21
-3.12122
0
LINE
8
BLACK
6
CONTINUOUS
10
7.15583
20
-3.12122
11
7.15578
21
-3.12474
0
LINE
8
BLACK
6
CONTINUOUS
10
7.15578
20
-3.12474
11
7.1546
21
-3.13875
0
LINE
8
BLACK
6
CONTINUOUS
10
7.1546
20
-3.13875
11
7.15187
21
-3.15255
0
LINE
8
BLACK
6
CONTINUOUS
10
7.15187
20
-3.15255
11
7.14762
21
-3.16596
0
LINE
8
BLACK
6
CONTINUOUS
10
7.14762
20
-3.16596
11
7.14189
21
-3.17881
0
LINE
8
BLACK
6
CONTINUOUS
10
7.14189
20
-3.17881
11
7.13478
21
-3.19094
0
LINE
8
BLACK
6
CONTINUOUS
10
7.13478
20
-3.19094
11
7.12635
21
-3.2022
0
LINE
8
BLACK
6
CONTINUOUS
10
7.12635
20
-3.2022
11
7.11672
21
-3.21245
0
LINE
8
BLACK
6
CONTINUOUS
10
7.11672
20
-3.21245
11
7.10601
21
-3.22157
0
LINE
8
BLACK
6
CONTINUOUS
10
7.10601
20
-3.22157
11
7.09435
21
-3.22944
0
LINE
8
BLACK
6
CONTINUOUS
10
7.09435
20
-3.22944
11
7.08189
21
-3.23595
0
LINE
8
BLACK
6
CONTINUOUS
10
7.08189
20
-3.23595
11
7.06877
21
-3.24104
0
LINE
8
BLACK
6
CONTINUOUS
10
7.06877
20
-3.24104
11
7.05518
21
-3.24463
0
LINE
8
BLACK
6
CONTINUOUS
10
7.05518
20
-3.24463
11
7.04126
21
-3.24669
0
LINE
8
BLACK
6
CONTINUOUS
10
7.04126
20
-3.24669
11
7.0272
21
-3.24718
0
LINE
8
BLACK
6
CONTINUOUS
10
7.0272
20
-3.24718
11
7.01318
21
-3.2461
0
LINE
8
BLACK
6
CONTINUOUS
10
7.01318
20
-3.2461
11
6.99936
21
-3.24346
0
LINE
8
BLACK
6
CONTINUOUS
10
6.99936
20
-3.24346
11
6.98593
21
-3.2393
0
LINE
8
BLACK
6
CONTINUOUS
10
6.98593
20
-3.2393
11
6.97304
21
-3.23367
0
LINE
8
BLACK
6
CONTINUOUS
10
6.97304
20
-3.23367
11
6.96086
21
-3.22664
0
LINE
8
BLACK
6
CONTINUOUS
10
6.96086
20
-3.22664
11
6.94954
21
-3.21829
0
LINE
8
BLACK
6
CONTINUOUS
10
6.94954
20
-3.21829
11
6.93922
21
-3.20874
0
LINE
8
BLACK
6
CONTINUOUS
10
6.93922
20
-3.20874
11
6.93003
21
-3.19809
0
LINE
8
BLACK
6
CONTINUOUS
10
6.93003
20
-3.19809
11
6.92208
21
-3.18648
0
LINE
8
BLACK
6
CONTINUOUS
10
6.92208
20
-3.18648
11
6.91548
21
-3.17406
0
LINE
8
BLACK
6
CONTINUOUS
10
6.91548
20
-3.17406
11
6.9103
21
-3.16099
0
LINE
8
BLACK
6
CONTINUOUS
10
6.9103
20
-3.16099
11
6.90661
21
-3.14741
0
LINE
8
BLACK
6
CONTINUOUS
10
6.90661
20
-3.14741
11
6.90446
21
-3.13351
0
LINE
8
BLACK
6
CONTINUOUS
10
6.90446
20
-3.13351
11
6.90387
21
-3.11946
0
LINE
8
BLACK
6
CONTINUOUS
10
6.90387
20
-3.11946
11
6.90485
21
-3.10543
0
LINE
8
BLACK
6
CONTINUOUS
10
6.90485
20
-3.10543
11
6.90739
21
-3.0916
0
LINE
8
BLACK
6
CONTINUOUS
10
6.90739
20
-3.0916
11
6.91146
21
-3.07813
0
LINE
8
BLACK
6
CONTINUOUS
10
6.91146
20
-3.07813
11
6.917
21
-3.0652
0
LINE
8
BLACK
6
CONTINUOUS
10
6.917
20
-3.0652
11
6.92394
21
-3.05297
0
LINE
8
BLACK
6
CONTINUOUS
10
6.92394
20
-3.05297
11
6.93221
21
-3.04159
0
LINE
8
BLACK
6
CONTINUOUS
10
6.93221
20
-3.04159
11
6.9417
21
-3.03121
0
LINE
8
BLACK
6
CONTINUOUS
10
6.9417
20
-3.03121
11
6.95228
21
-3.02194
0
LINE
8
BLACK
6
CONTINUOUS
10
6.95228
20
-3.02194
11
6.96383
21
-3.01392
0
LINE
8
BLACK
6
CONTINUOUS
10
6.96383
20
-3.01392
11
6.9762
21
-3.00723
0
LINE
8
BLACK
6
CONTINUOUS
10
6.9762
20
-3.00723
11
6.98924
21
-3.00196
0
LINE
8
BLACK
6
CONTINUOUS
10
6.98924
20
-3.00196
11
7.00279
21
-2.99818
0
LINE
8
BLACK
6
CONTINUOUS
10
7.00279
20
-2.99818
11
7.01667
21
-2.99593
0
LINE
8
BLACK
6
CONTINUOUS
10
7.01667
20
-2.99593
11
7.03072
21
-2.99524
0
LINE
8
BLACK
6
CONTINUOUS
10
7.03072
20
-2.99524
11
7.04476
21
-2.99612
0
LINE
8
BLACK
6
CONTINUOUS
10
6.27286
20
-3.13395
11
6.27541
21
-3.13565
0
LINE
8
BLACK
6
CONTINUOUS
10
6.27541
20
-3.13565
11
6.27712
21
-3.13821
0
LINE
8
BLACK
6
CONTINUOUS
10
6.27712
20
-3.13821
11
6.27772
21
-3.14122
0
LINE
8
BLACK
6
CONTINUOUS
10
6.27772
20
-3.14122
11
6.27772
21
-3.20122
0
LINE
8
BLACK
6
CONTINUOUS
10
6.27772
20
-3.20122
11
6.27712
21
-3.20423
0
LINE
8
BLACK
6
CONTINUOUS
10
6.27712
20
-3.20423
11
6.27541
21
-3.20679
0
LINE
8
BLACK
6
CONTINUOUS
10
6.27541
20
-3.20679
11
6.27286
21
-3.2085
0
LINE
8
BLACK
6
CONTINUOUS
10
6.27286
20
-3.2085
11
6.26984
21
-3.20909
0
LINE
8
BLACK
6
CONTINUOUS
10
6.26984
20
-3.20909
11
6.20984
21
-3.20909
0
LINE
8
BLACK
6
CONTINUOUS
10
6.20984
20
-3.20909
11
6.20683
21
-3.2085
0
LINE
8
BLACK
6
CONTINUOUS
10
6.20683
20
-3.2085
11
6.20427
21
-3.20679
0
LINE
8
BLACK
6
CONTINUOUS
10
6.20427
20
-3.20679
11
6.20257
21
-3.20423
0
LINE
8
BLACK
6
CONTINUOUS
10
6.20257
20
-3.20423
11
6.20197
21
-3.20122
0
LINE
8
BLACK
6
CONTINUOUS
10
6.20197
20
-3.20122
11
6.20197
21
-3.14122
0
LINE
8
BLACK
6
CONTINUOUS
10
6.20197
20
-3.14122
11
6.20257
21
-3.13821
0
LINE
8
BLACK
6
CONTINUOUS
10
6.20257
20
-3.13821
11
6.20427
21
-3.13565
0
LINE
8
BLACK
6
CONTINUOUS
10
6.20427
20
-3.13565
11
6.20683
21
-3.13395
0
LINE
8
BLACK
6
CONTINUOUS
10
6.20683
20
-3.13395
11
6.20984
21
-3.13335
0
LINE
8
BLACK
6
CONTINUOUS
10
6.20984
20
-3.13335
11
6.26984
21
-3.13335
0
LINE
8
BLACK
6
CONTINUOUS
10
6.26984
20
-3.13335
11
6.27286
21
-3.13395
  0
ENDSEC
  0
EOF
