  0
SECTION
  2
HEADER
  9
$ANGBASE
  50
0.0
  9
$ANGDIR
  70
1
  9
$MEASUREMENT
  70
0
  0
ENDSEC
  0
SECTION
  2
TABLES
  0
TABLE
  2
LTYPE
  70
4
  0
LTYPE
  5
40F
  2
CONTINUOUS
  70
0
  3
Solid line
  72
65
  73
0
  40
0.0
  0
LTYPE
  5
410
  2
DASHDOT
 70
0
  3
Dash Dot ____ _ ____ _
 72
65
 73
4
 40
2.0
 49
1.25
 49
-0.25
 49
0.25
 49
-0.25
  0
LTYPE
  5
411
  2
DASHED
 70
0
  3
Dashed __ __ __ __ __
 72
65
 73
2
 40
0.75
 49
0.5
 49
-0.25
  0
LTYPE
  5
43B
  2
DOTTED
 70
0
  3
Dotted .  .  .  .
 72
65
 73
2
 40
0.2
 49
0.0
 49
-0.2
  0
ENDTAB
  0
TABLE
  2
STYLE
  70
4
  0
STYLE
  2
KICAD
  70
0
  40
0
  41
1
  42
1
  50
0
  71
0
  3
isocp.shx
  0
STYLE
  2
KICADB
  70
0
  40
0
  41
1
  42
1
  50
0
  71
0
  3
isocp.shx
  0
STYLE
  2
KICADI
  70
0
  40
0
  41
1
  42
1
  50
15
  71
0
  3
isocp.shx
  0
STYLE
  2
KICADBI
  70
0
  40
0
  41
1
  42
1
  50
15
  71
0
  3
isocp.shx
  0
ENDTAB
  0
TABLE
  2
LAYER
  70
1
  0
LAYER
  2
BLACK
  70
0
  62
7
  6
CONTINUOUS
  0
ENDTAB
  0
ENDSEC
  0
SECTION
  2
ENTITIES
0
LINE
8
BLACK
6
CONTINUOUS
10
5.26069
20
-2.95293
11
5.26263
21
-2.95151
0
LINE
8
BLACK
6
CONTINUOUS
10
5.26263
20
-2.95151
11
5.26384
21
-2.95132
0
LINE
8
BLACK
6
CONTINUOUS
10
5.26384
20
-2.95132
11
7.19585
21
-2.95132
0
LINE
8
BLACK
6
CONTINUOUS
10
7.19585
20
-2.95132
11
7.19814
21
-2.95206
0
LINE
8
BLACK
6
CONTINUOUS
10
7.19814
20
-2.95206
11
7.19955
21
-2.95401
0
LINE
8
BLACK
6
CONTINUOUS
10
7.19955
20
-2.95401
11
7.19974
21
-2.95522
0
LINE
8
BLACK
6
CONTINUOUS
10
7.19974
20
-2.95522
11
7.19974
21
-4.08722
0
LINE
8
BLACK
6
CONTINUOUS
10
7.19974
20
-4.08722
11
7.199
21
-4.08952
0
LINE
8
BLACK
6
CONTINUOUS
10
7.199
20
-4.08952
11
7.19705
21
-4.09093
0
LINE
8
BLACK
6
CONTINUOUS
10
7.19705
20
-4.09093
11
7.19585
21
-4.09112
0
LINE
8
BLACK
6
CONTINUOUS
10
7.19585
20
-4.09112
11
5.26384
21
-4.09112
0
LINE
8
BLACK
6
CONTINUOUS
10
5.26384
20
-4.09112
11
5.26155
21
-4.09038
0
LINE
8
BLACK
6
CONTINUOUS
10
5.26155
20
-4.09038
11
5.26013
21
-4.08843
0
LINE
8
BLACK
6
CONTINUOUS
10
5.26013
20
-4.08843
11
5.25994
21
-4.08722
0
LINE
8
BLACK
6
CONTINUOUS
10
5.25994
20
-4.08722
11
5.25994
21
-2.95522
0
LINE
8
BLACK
6
CONTINUOUS
10
5.25994
20
-2.95522
11
5.26069
21
-2.95293
0
LINE
8
BLACK
6
CONTINUOUS
10
6.2716
20
-4.06343
11
6.27504
21
-4.06802
0
LINE
8
BLACK
6
CONTINUOUS
10
6.27504
20
-4.06802
11
6.27963
21
-4.07146
0
LINE
8
BLACK
6
CONTINUOUS
10
6.27963
20
-4.07146
11
6.285
21
-4.07347
0
LINE
8
BLACK
6
CONTINUOUS
10
6.285
20
-4.07347
11
6.28524
21
-4.0735
0
LINE
8
BLACK
6
CONTINUOUS
10
6.28524
20
-4.0735
11
6.28524
21
-4.0735
0
LINE
8
BLACK
6
CONTINUOUS
10
6.28524
20
-4.0735
11
6.28666
21
-4.07365
0
LINE
8
BLACK
6
CONTINUOUS
10
6.28666
20
-4.07365
11
6.28745
21
-4.07374
0
LINE
8
BLACK
6
CONTINUOUS
10
6.28745
20
-4.07374
11
6.35624
21
-4.07374
0
LINE
8
BLACK
6
CONTINUOUS
10
6.35624
20
-4.07374
11
6.35703
21
-4.07365
0
LINE
8
BLACK
6
CONTINUOUS
10
6.35703
20
-4.07365
11
6.35844
21
-4.0735
0
LINE
8
BLACK
6
CONTINUOUS
10
6.35844
20
-4.0735
11
6.35844
21
-4.0735
0
LINE
8
BLACK
6
CONTINUOUS
10
6.35844
20
-4.0735
11
6.35869
21
-4.07347
0
LINE
8
BLACK
6
CONTINUOUS
10
6.35869
20
-4.07347
11
6.36406
21
-4.07146
0
LINE
8
BLACK
6
CONTINUOUS
10
6.36406
20
-4.07146
11
6.36864
21
-4.06802
0
LINE
8
BLACK
6
CONTINUOUS
10
6.36864
20
-4.06802
11
6.36881
21
-4.0678
0
LINE
8
BLACK
6
CONTINUOUS
10
6.36881
20
-4.0678
11
6.36901
21
-4.0676
0
LINE
8
BLACK
6
CONTINUOUS
10
6.36901
20
-4.0676
11
6.36907
21
-4.06767
0
LINE
8
BLACK
6
CONTINUOUS
10
6.36907
20
-4.06767
11
6.37069
21
-4.06653
0
LINE
8
BLACK
6
CONTINUOUS
10
6.37069
20
-4.06653
11
6.3731
21
-4.06656
0
LINE
8
BLACK
6
CONTINUOUS
10
6.3731
20
-4.06656
11
6.37462
21
-4.06767
0
LINE
8
BLACK
6
CONTINUOUS
10
6.37462
20
-4.06767
11
6.37468
21
-4.0676
0
LINE
8
BLACK
6
CONTINUOUS
10
6.37468
20
-4.0676
11
6.37487
21
-4.0678
0
LINE
8
BLACK
6
CONTINUOUS
10
6.37487
20
-4.0678
11
6.37504
21
-4.06802
0
LINE
8
BLACK
6
CONTINUOUS
10
6.37504
20
-4.06802
11
6.37963
21
-4.07146
0
LINE
8
BLACK
6
CONTINUOUS
10
6.37963
20
-4.07146
11
6.385
21
-4.07347
0
LINE
8
BLACK
6
CONTINUOUS
10
6.385
20
-4.07347
11
6.38524
21
-4.0735
0
LINE
8
BLACK
6
CONTINUOUS
10
6.38524
20
-4.0735
11
6.38524
21
-4.0735
0
LINE
8
BLACK
6
CONTINUOUS
10
6.38524
20
-4.0735
11
6.38666
21
-4.07365
0
LINE
8
BLACK
6
CONTINUOUS
10
6.38666
20
-4.07365
11
6.38745
21
-4.07374
0
LINE
8
BLACK
6
CONTINUOUS
10
6.38745
20
-4.07374
11
6.45624
21
-4.07374
0
LINE
8
BLACK
6
CONTINUOUS
10
6.45624
20
-4.07374
11
6.45703
21
-4.07365
0
LINE
8
BLACK
6
CONTINUOUS
10
6.45703
20
-4.07365
11
6.45844
21
-4.0735
0
LINE
8
BLACK
6
CONTINUOUS
10
6.45844
20
-4.0735
11
6.45844
21
-4.0735
0
LINE
8
BLACK
6
CONTINUOUS
10
6.45844
20
-4.0735
11
6.45869
21
-4.07347
0
LINE
8
BLACK
6
CONTINUOUS
10
6.45869
20
-4.07347
11
6.46406
21
-4.07146
0
LINE
8
BLACK
6
CONTINUOUS
10
6.46406
20
-4.07146
11
6.46864
21
-4.06802
0
LINE
8
BLACK
6
CONTINUOUS
10
6.46864
20
-4.06802
11
6.46881
21
-4.0678
0
LINE
8
BLACK
6
CONTINUOUS
10
6.46881
20
-4.0678
11
6.46901
21
-4.0676
0
LINE
8
BLACK
6
CONTINUOUS
10
6.46901
20
-4.0676
11
6.46907
21
-4.06767
0
LINE
8
BLACK
6
CONTINUOUS
10
6.46907
20
-4.06767
11
6.47069
21
-4.06653
0
LINE
8
BLACK
6
CONTINUOUS
10
6.47069
20
-4.06653
11
6.4731
21
-4.06656
0
LINE
8
BLACK
6
CONTINUOUS
10
6.4731
20
-4.06656
11
6.47462
21
-4.06767
0
LINE
8
BLACK
6
CONTINUOUS
10
6.47462
20
-4.06767
11
6.47468
21
-4.0676
0
LINE
8
BLACK
6
CONTINUOUS
10
6.47468
20
-4.0676
11
6.47487
21
-4.0678
0
LINE
8
BLACK
6
CONTINUOUS
10
6.47487
20
-4.0678
11
6.47504
21
-4.06802
0
LINE
8
BLACK
6
CONTINUOUS
10
6.47504
20
-4.06802
11
6.47963
21
-4.07146
0
LINE
8
BLACK
6
CONTINUOUS
10
6.47963
20
-4.07146
11
6.485
21
-4.07347
0
LINE
8
BLACK
6
CONTINUOUS
10
6.485
20
-4.07347
11
6.48524
21
-4.0735
0
LINE
8
BLACK
6
CONTINUOUS
10
6.48524
20
-4.0735
11
6.48524
21
-4.0735
0
LINE
8
BLACK
6
CONTINUOUS
10
6.48524
20
-4.0735
11
6.48666
21
-4.07365
0
LINE
8
BLACK
6
CONTINUOUS
10
6.48666
20
-4.07365
11
6.48745
21
-4.07374
0
LINE
8
BLACK
6
CONTINUOUS
10
6.48745
20
-4.07374
11
6.55624
21
-4.07374
0
LINE
8
BLACK
6
CONTINUOUS
10
6.55624
20
-4.07374
11
6.55703
21
-4.07365
0
LINE
8
BLACK
6
CONTINUOUS
10
6.55703
20
-4.07365
11
6.55844
21
-4.0735
0
LINE
8
BLACK
6
CONTINUOUS
10
6.55844
20
-4.0735
11
6.55844
21
-4.0735
0
LINE
8
BLACK
6
CONTINUOUS
10
6.55844
20
-4.0735
11
6.55869
21
-4.07347
0
LINE
8
BLACK
6
CONTINUOUS
10
6.55869
20
-4.07347
11
6.56406
21
-4.07146
0
LINE
8
BLACK
6
CONTINUOUS
10
6.56406
20
-4.07146
11
6.56864
21
-4.06802
0
LINE
8
BLACK
6
CONTINUOUS
10
6.56864
20
-4.06802
11
6.57208
21
-4.06343
0
LINE
8
BLACK
6
CONTINUOUS
10
6.57208
20
-4.06343
11
6.5741
21
-4.05806
0
LINE
8
BLACK
6
CONTINUOUS
10
6.5741
20
-4.05806
11
6.57436
21
-4.05562
0
LINE
8
BLACK
6
CONTINUOUS
10
6.57436
20
-4.05562
11
6.57436
21
-3.98683
0
LINE
8
BLACK
6
CONTINUOUS
10
6.57436
20
-3.98683
11
6.5741
21
-3.98438
0
LINE
8
BLACK
6
CONTINUOUS
10
6.5741
20
-3.98438
11
6.57208
21
-3.97901
0
LINE
8
BLACK
6
CONTINUOUS
10
6.57208
20
-3.97901
11
6.56864
21
-3.97442
0
LINE
8
BLACK
6
CONTINUOUS
10
6.56864
20
-3.97442
11
6.56842
21
-3.97425
0
LINE
8
BLACK
6
CONTINUOUS
10
6.56842
20
-3.97425
11
6.56823
21
-3.97406
0
LINE
8
BLACK
6
CONTINUOUS
10
6.56823
20
-3.97406
11
6.56829
21
-3.97399
0
LINE
8
BLACK
6
CONTINUOUS
10
6.56829
20
-3.97399
11
6.56715
21
-3.97237
0
LINE
8
BLACK
6
CONTINUOUS
10
6.56715
20
-3.97237
11
6.56719
21
-3.96996
0
LINE
8
BLACK
6
CONTINUOUS
10
6.56719
20
-3.96996
11
6.56829
21
-3.96845
0
LINE
8
BLACK
6
CONTINUOUS
10
6.56829
20
-3.96845
11
6.56823
21
-3.96838
0
LINE
8
BLACK
6
CONTINUOUS
10
6.56823
20
-3.96838
11
6.56842
21
-3.96819
0
LINE
8
BLACK
6
CONTINUOUS
10
6.56842
20
-3.96819
11
6.56864
21
-3.96802
0
LINE
8
BLACK
6
CONTINUOUS
10
6.56864
20
-3.96802
11
6.57208
21
-3.96343
0
LINE
8
BLACK
6
CONTINUOUS
10
6.57208
20
-3.96343
11
6.5741
21
-3.95806
0
LINE
8
BLACK
6
CONTINUOUS
10
6.5741
20
-3.95806
11
6.57436
21
-3.95562
0
LINE
8
BLACK
6
CONTINUOUS
10
6.57436
20
-3.95562
11
6.57436
21
-3.88683
0
LINE
8
BLACK
6
CONTINUOUS
10
6.57436
20
-3.88683
11
6.5741
21
-3.88438
0
LINE
8
BLACK
6
CONTINUOUS
10
6.5741
20
-3.88438
11
6.57208
21
-3.87901
0
LINE
8
BLACK
6
CONTINUOUS
10
6.57208
20
-3.87901
11
6.56864
21
-3.87442
0
LINE
8
BLACK
6
CONTINUOUS
10
6.56864
20
-3.87442
11
6.56406
21
-3.87098
0
LINE
8
BLACK
6
CONTINUOUS
10
6.56406
20
-3.87098
11
6.55869
21
-3.86897
0
LINE
8
BLACK
6
CONTINUOUS
10
6.55869
20
-3.86897
11
6.55844
21
-3.86894
0
LINE
8
BLACK
6
CONTINUOUS
10
6.55844
20
-3.86894
11
6.55844
21
-3.86894
0
LINE
8
BLACK
6
CONTINUOUS
10
6.55844
20
-3.86894
11
6.55703
21
-3.86879
0
LINE
8
BLACK
6
CONTINUOUS
10
6.55703
20
-3.86879
11
6.55624
21
-3.8687
0
LINE
8
BLACK
6
CONTINUOUS
10
6.55624
20
-3.8687
11
6.48745
21
-3.8687
0
LINE
8
BLACK
6
CONTINUOUS
10
6.48745
20
-3.8687
11
6.48666
21
-3.86879
0
LINE
8
BLACK
6
CONTINUOUS
10
6.48666
20
-3.86879
11
6.48524
21
-3.86894
0
LINE
8
BLACK
6
CONTINUOUS
10
6.48524
20
-3.86894
11
6.48524
21
-3.86894
0
LINE
8
BLACK
6
CONTINUOUS
10
6.48524
20
-3.86894
11
6.485
21
-3.86897
0
LINE
8
BLACK
6
CONTINUOUS
10
6.485
20
-3.86897
11
6.47963
21
-3.87098
0
LINE
8
BLACK
6
CONTINUOUS
10
6.47963
20
-3.87098
11
6.47504
21
-3.87442
0
LINE
8
BLACK
6
CONTINUOUS
10
6.47504
20
-3.87442
11
6.47487
21
-3.87464
0
LINE
8
BLACK
6
CONTINUOUS
10
6.47487
20
-3.87464
11
6.47468
21
-3.87484
0
LINE
8
BLACK
6
CONTINUOUS
10
6.47468
20
-3.87484
11
6.47461
21
-3.87477
0
LINE
8
BLACK
6
CONTINUOUS
10
6.47461
20
-3.87477
11
6.47299
21
-3.87591
0
LINE
8
BLACK
6
CONTINUOUS
10
6.47299
20
-3.87591
11
6.47058
21
-3.87588
0
LINE
8
BLACK
6
CONTINUOUS
10
6.47058
20
-3.87588
11
6.46907
21
-3.87478
0
LINE
8
BLACK
6
CONTINUOUS
10
6.46907
20
-3.87478
11
6.46901
21
-3.87484
0
LINE
8
BLACK
6
CONTINUOUS
10
6.46901
20
-3.87484
11
6.46881
21
-3.87464
0
LINE
8
BLACK
6
CONTINUOUS
10
6.46881
20
-3.87464
11
6.46864
21
-3.87442
0
LINE
8
BLACK
6
CONTINUOUS
10
6.46864
20
-3.87442
11
6.46406
21
-3.87098
0
LINE
8
BLACK
6
CONTINUOUS
10
6.46406
20
-3.87098
11
6.45869
21
-3.86897
0
LINE
8
BLACK
6
CONTINUOUS
10
6.45869
20
-3.86897
11
6.45844
21
-3.86894
0
LINE
8
BLACK
6
CONTINUOUS
10
6.45844
20
-3.86894
11
6.45844
21
-3.86894
0
LINE
8
BLACK
6
CONTINUOUS
10
6.45844
20
-3.86894
11
6.45703
21
-3.86879
0
LINE
8
BLACK
6
CONTINUOUS
10
6.45703
20
-3.86879
11
6.45624
21
-3.8687
0
LINE
8
BLACK
6
CONTINUOUS
10
6.45624
20
-3.8687
11
6.38745
21
-3.8687
0
LINE
8
BLACK
6
CONTINUOUS
10
6.38745
20
-3.8687
11
6.38666
21
-3.86879
0
LINE
8
BLACK
6
CONTINUOUS
10
6.38666
20
-3.86879
11
6.38524
21
-3.86894
0
LINE
8
BLACK
6
CONTINUOUS
10
6.38524
20
-3.86894
11
6.38524
21
-3.86894
0
LINE
8
BLACK
6
CONTINUOUS
10
6.38524
20
-3.86894
11
6.385
21
-3.86897
0
LINE
8
BLACK
6
CONTINUOUS
10
6.385
20
-3.86897
11
6.37963
21
-3.87098
0
LINE
8
BLACK
6
CONTINUOUS
10
6.37963
20
-3.87098
11
6.37504
21
-3.87442
0
LINE
8
BLACK
6
CONTINUOUS
10
6.37504
20
-3.87442
11
6.37487
21
-3.87464
0
LINE
8
BLACK
6
CONTINUOUS
10
6.37487
20
-3.87464
11
6.37468
21
-3.87484
0
LINE
8
BLACK
6
CONTINUOUS
10
6.37468
20
-3.87484
11
6.37461
21
-3.87477
0
LINE
8
BLACK
6
CONTINUOUS
10
6.37461
20
-3.87477
11
6.37299
21
-3.87591
0
LINE
8
BLACK
6
CONTINUOUS
10
6.37299
20
-3.87591
11
6.37058
21
-3.87588
0
LINE
8
BLACK
6
CONTINUOUS
10
6.37058
20
-3.87588
11
6.36907
21
-3.87478
0
LINE
8
BLACK
6
CONTINUOUS
10
6.36907
20
-3.87478
11
6.36901
21
-3.87484
0
LINE
8
BLACK
6
CONTINUOUS
10
6.36901
20
-3.87484
11
6.36881
21
-3.87464
0
LINE
8
BLACK
6
CONTINUOUS
10
6.36881
20
-3.87464
11
6.36864
21
-3.87442
0
LINE
8
BLACK
6
CONTINUOUS
10
6.36864
20
-3.87442
11
6.36406
21
-3.87098
0
LINE
8
BLACK
6
CONTINUOUS
10
6.36406
20
-3.87098
11
6.35869
21
-3.86897
0
LINE
8
BLACK
6
CONTINUOUS
10
6.35869
20
-3.86897
11
6.35844
21
-3.86894
0
LINE
8
BLACK
6
CONTINUOUS
10
6.35844
20
-3.86894
11
6.35844
21
-3.86894
0
LINE
8
BLACK
6
CONTINUOUS
10
6.35844
20
-3.86894
11
6.35703
21
-3.86879
0
LINE
8
BLACK
6
CONTINUOUS
10
6.35703
20
-3.86879
11
6.35624
21
-3.8687
0
LINE
8
BLACK
6
CONTINUOUS
10
6.35624
20
-3.8687
11
6.28745
21
-3.8687
0
LINE
8
BLACK
6
CONTINUOUS
10
6.28745
20
-3.8687
11
6.28666
21
-3.86879
0
LINE
8
BLACK
6
CONTINUOUS
10
6.28666
20
-3.86879
11
6.28524
21
-3.86894
0
LINE
8
BLACK
6
CONTINUOUS
10
6.28524
20
-3.86894
11
6.28524
21
-3.86894
0
LINE
8
BLACK
6
CONTINUOUS
10
6.28524
20
-3.86894
11
6.285
21
-3.86897
0
LINE
8
BLACK
6
CONTINUOUS
10
6.285
20
-3.86897
11
6.27963
21
-3.87098
0
LINE
8
BLACK
6
CONTINUOUS
10
6.27963
20
-3.87098
11
6.27504
21
-3.87442
0
LINE
8
BLACK
6
CONTINUOUS
10
6.27504
20
-3.87442
11
6.2716
21
-3.87901
0
LINE
8
BLACK
6
CONTINUOUS
10
6.2716
20
-3.87901
11
6.26959
21
-3.88438
0
LINE
8
BLACK
6
CONTINUOUS
10
6.26959
20
-3.88438
11
6.26932
21
-3.88683
0
LINE
8
BLACK
6
CONTINUOUS
10
6.26932
20
-3.88683
11
6.26932
21
-3.95562
0
LINE
8
BLACK
6
CONTINUOUS
10
6.26932
20
-3.95562
11
6.26959
21
-3.95806
0
LINE
8
BLACK
6
CONTINUOUS
10
6.26959
20
-3.95806
11
6.2716
21
-3.96343
0
LINE
8
BLACK
6
CONTINUOUS
10
6.2716
20
-3.96343
11
6.27504
21
-3.96802
0
LINE
8
BLACK
6
CONTINUOUS
10
6.27504
20
-3.96802
11
6.27526
21
-3.96819
0
LINE
8
BLACK
6
CONTINUOUS
10
6.27526
20
-3.96819
11
6.27546
21
-3.96838
0
LINE
8
BLACK
6
CONTINUOUS
10
6.27546
20
-3.96838
11
6.27539
21
-3.96845
0
LINE
8
BLACK
6
CONTINUOUS
10
6.27539
20
-3.96845
11
6.27653
21
-3.97007
0
LINE
8
BLACK
6
CONTINUOUS
10
6.27653
20
-3.97007
11
6.2765
21
-3.97248
0
LINE
8
BLACK
6
CONTINUOUS
10
6.2765
20
-3.97248
11
6.2754
21
-3.97399
0
LINE
8
BLACK
6
CONTINUOUS
10
6.2754
20
-3.97399
11
6.27546
21
-3.97406
0
LINE
8
BLACK
6
CONTINUOUS
10
6.27546
20
-3.97406
11
6.27526
21
-3.97425
0
LINE
8
BLACK
6
CONTINUOUS
10
6.27526
20
-3.97425
11
6.27504
21
-3.97442
0
LINE
8
BLACK
6
CONTINUOUS
10
6.27504
20
-3.97442
11
6.2716
21
-3.97901
0
LINE
8
BLACK
6
CONTINUOUS
10
6.2716
20
-3.97901
11
6.26959
21
-3.98438
0
LINE
8
BLACK
6
CONTINUOUS
10
6.26959
20
-3.98438
11
6.26932
21
-3.98683
0
LINE
8
BLACK
6
CONTINUOUS
10
6.26932
20
-3.98683
11
6.26932
21
-4.05562
0
LINE
8
BLACK
6
CONTINUOUS
10
6.26932
20
-4.05562
11
6.26959
21
-4.05806
0
LINE
8
BLACK
6
CONTINUOUS
10
6.26959
20
-4.05806
11
6.2716
21
-4.06343
0
LINE
8
BLACK
6
CONTINUOUS
10
6.9586
20
-3.49943
11
6.96204
21
-3.50402
0
LINE
8
BLACK
6
CONTINUOUS
10
6.96204
20
-3.50402
11
6.96663
21
-3.50746
0
LINE
8
BLACK
6
CONTINUOUS
10
6.96663
20
-3.50746
11
6.972
21
-3.50947
0
LINE
8
BLACK
6
CONTINUOUS
10
6.972
20
-3.50947
11
6.97224
21
-3.5095
0
LINE
8
BLACK
6
CONTINUOUS
10
6.97224
20
-3.5095
11
6.97224
21
-3.5095
0
LINE
8
BLACK
6
CONTINUOUS
10
6.97224
20
-3.5095
11
6.97335
21
-3.50962
0
LINE
8
BLACK
6
CONTINUOUS
10
6.97335
20
-3.50962
11
6.97445
21
-3.50974
0
LINE
8
BLACK
6
CONTINUOUS
10
6.97445
20
-3.50974
11
7.04324
21
-3.50974
0
LINE
8
BLACK
6
CONTINUOUS
10
7.04324
20
-3.50974
11
7.04434
21
-3.50962
0
LINE
8
BLACK
6
CONTINUOUS
10
7.04434
20
-3.50962
11
7.04544
21
-3.5095
0
LINE
8
BLACK
6
CONTINUOUS
10
7.04544
20
-3.5095
11
7.04544
21
-3.5095
0
LINE
8
BLACK
6
CONTINUOUS
10
7.04544
20
-3.5095
11
7.04569
21
-3.50947
0
LINE
8
BLACK
6
CONTINUOUS
10
7.04569
20
-3.50947
11
7.05106
21
-3.50746
0
LINE
8
BLACK
6
CONTINUOUS
10
7.05106
20
-3.50746
11
7.05564
21
-3.50402
0
LINE
8
BLACK
6
CONTINUOUS
10
7.05564
20
-3.50402
11
7.05581
21
-3.5038
0
LINE
8
BLACK
6
CONTINUOUS
10
7.05581
20
-3.5038
11
7.05601
21
-3.5036
0
LINE
8
BLACK
6
CONTINUOUS
10
7.05601
20
-3.5036
11
7.05607
21
-3.50367
0
LINE
8
BLACK
6
CONTINUOUS
10
7.05607
20
-3.50367
11
7.05769
21
-3.50253
0
LINE
8
BLACK
6
CONTINUOUS
10
7.05769
20
-3.50253
11
7.0601
21
-3.50256
0
LINE
8
BLACK
6
CONTINUOUS
10
7.0601
20
-3.50256
11
7.06162
21
-3.50367
0
LINE
8
BLACK
6
CONTINUOUS
10
7.06162
20
-3.50367
11
7.06168
21
-3.5036
0
LINE
8
BLACK
6
CONTINUOUS
10
7.06168
20
-3.5036
11
7.06187
21
-3.5038
0
LINE
8
BLACK
6
CONTINUOUS
10
7.06187
20
-3.5038
11
7.06204
21
-3.50402
0
LINE
8
BLACK
6
CONTINUOUS
10
7.06204
20
-3.50402
11
7.06663
21
-3.50746
0
LINE
8
BLACK
6
CONTINUOUS
10
7.06663
20
-3.50746
11
7.072
21
-3.50947
0
LINE
8
BLACK
6
CONTINUOUS
10
7.072
20
-3.50947
11
7.07224
21
-3.5095
0
LINE
8
BLACK
6
CONTINUOUS
10
7.07224
20
-3.5095
11
7.07224
21
-3.5095
0
LINE
8
BLACK
6
CONTINUOUS
10
7.07224
20
-3.5095
11
7.07334
21
-3.50962
0
LINE
8
BLACK
6
CONTINUOUS
10
7.07334
20
-3.50962
11
7.07445
21
-3.50974
0
LINE
8
BLACK
6
CONTINUOUS
10
7.07445
20
-3.50974
11
7.14324
21
-3.50974
0
LINE
8
BLACK
6
CONTINUOUS
10
7.14324
20
-3.50974
11
7.14434
21
-3.50962
0
LINE
8
BLACK
6
CONTINUOUS
10
7.14434
20
-3.50962
11
7.14544
21
-3.5095
0
LINE
8
BLACK
6
CONTINUOUS
10
7.14544
20
-3.5095
11
7.14544
21
-3.5095
0
LINE
8
BLACK
6
CONTINUOUS
10
7.14544
20
-3.5095
11
7.14569
21
-3.50947
0
LINE
8
BLACK
6
CONTINUOUS
10
7.14569
20
-3.50947
11
7.15106
21
-3.50746
0
LINE
8
BLACK
6
CONTINUOUS
10
7.15106
20
-3.50746
11
7.15564
21
-3.50402
0
LINE
8
BLACK
6
CONTINUOUS
10
7.15564
20
-3.50402
11
7.15908
21
-3.49943
0
LINE
8
BLACK
6
CONTINUOUS
10
7.15908
20
-3.49943
11
7.1611
21
-3.49406
0
LINE
8
BLACK
6
CONTINUOUS
10
7.1611
20
-3.49406
11
7.16136
21
-3.49162
0
LINE
8
BLACK
6
CONTINUOUS
10
7.16136
20
-3.49162
11
7.16136
21
-3.42283
0
LINE
8
BLACK
6
CONTINUOUS
10
7.16136
20
-3.42283
11
7.16116
21
-3.42098
0
LINE
8
BLACK
6
CONTINUOUS
10
7.16116
20
-3.42098
11
7.16112
21
-3.42062
0
LINE
8
BLACK
6
CONTINUOUS
10
7.16112
20
-3.42062
11
7.16112
21
-3.42062
0
LINE
8
BLACK
6
CONTINUOUS
10
7.16112
20
-3.42062
11
7.1611
21
-3.42038
0
LINE
8
BLACK
6
CONTINUOUS
10
7.1611
20
-3.42038
11
7.15908
21
-3.41501
0
LINE
8
BLACK
6
CONTINUOUS
10
7.15908
20
-3.41501
11
7.15564
21
-3.41042
0
LINE
8
BLACK
6
CONTINUOUS
10
7.15564
20
-3.41042
11
7.15106
21
-3.40698
0
LINE
8
BLACK
6
CONTINUOUS
10
7.15106
20
-3.40698
11
7.14569
21
-3.40497
0
LINE
8
BLACK
6
CONTINUOUS
10
7.14569
20
-3.40497
11
7.14544
21
-3.40494
0
LINE
8
BLACK
6
CONTINUOUS
10
7.14544
20
-3.40494
11
7.14544
21
-3.40494
0
LINE
8
BLACK
6
CONTINUOUS
10
7.14544
20
-3.40494
11
7.14403
21
-3.40479
0
LINE
8
BLACK
6
CONTINUOUS
10
7.14403
20
-3.40479
11
7.14324
21
-3.4047
0
LINE
8
BLACK
6
CONTINUOUS
10
7.14324
20
-3.4047
11
7.07445
21
-3.4047
0
LINE
8
BLACK
6
CONTINUOUS
10
7.07445
20
-3.4047
11
7.07366
21
-3.40479
0
LINE
8
BLACK
6
CONTINUOUS
10
7.07366
20
-3.40479
11
7.07224
21
-3.40494
0
LINE
8
BLACK
6
CONTINUOUS
10
7.07224
20
-3.40494
11
7.07224
21
-3.40494
0
LINE
8
BLACK
6
CONTINUOUS
10
7.07224
20
-3.40494
11
7.072
21
-3.40497
0
LINE
8
BLACK
6
CONTINUOUS
10
7.072
20
-3.40497
11
7.06663
21
-3.40698
0
LINE
8
BLACK
6
CONTINUOUS
10
7.06663
20
-3.40698
11
7.06204
21
-3.41042
0
LINE
8
BLACK
6
CONTINUOUS
10
7.06204
20
-3.41042
11
7.06187
21
-3.41064
0
LINE
8
BLACK
6
CONTINUOUS
10
7.06187
20
-3.41064
11
7.06168
21
-3.41084
0
LINE
8
BLACK
6
CONTINUOUS
10
7.06168
20
-3.41084
11
7.06161
21
-3.41077
0
LINE
8
BLACK
6
CONTINUOUS
10
7.06161
20
-3.41077
11
7.05999
21
-3.41191
0
LINE
8
BLACK
6
CONTINUOUS
10
7.05999
20
-3.41191
11
7.05758
21
-3.41188
0
LINE
8
BLACK
6
CONTINUOUS
10
7.05758
20
-3.41188
11
7.05607
21
-3.41078
0
LINE
8
BLACK
6
CONTINUOUS
10
7.05607
20
-3.41078
11
7.05601
21
-3.41084
0
LINE
8
BLACK
6
CONTINUOUS
10
7.05601
20
-3.41084
11
7.05581
21
-3.41064
0
LINE
8
BLACK
6
CONTINUOUS
10
7.05581
20
-3.41064
11
7.05564
21
-3.41042
0
LINE
8
BLACK
6
CONTINUOUS
10
7.05564
20
-3.41042
11
7.05106
21
-3.40698
0
LINE
8
BLACK
6
CONTINUOUS
10
7.05106
20
-3.40698
11
7.04569
21
-3.40497
0
LINE
8
BLACK
6
CONTINUOUS
10
7.04569
20
-3.40497
11
7.04544
21
-3.40494
0
LINE
8
BLACK
6
CONTINUOUS
10
7.04544
20
-3.40494
11
7.04544
21
-3.40494
0
LINE
8
BLACK
6
CONTINUOUS
10
7.04544
20
-3.40494
11
7.04403
21
-3.40479
0
LINE
8
BLACK
6
CONTINUOUS
10
7.04403
20
-3.40479
11
7.04324
21
-3.4047
0
LINE
8
BLACK
6
CONTINUOUS
10
7.04324
20
-3.4047
11
6.97445
21
-3.4047
0
LINE
8
BLACK
6
CONTINUOUS
10
6.97445
20
-3.4047
11
6.97366
21
-3.40479
0
LINE
8
BLACK
6
CONTINUOUS
10
6.97366
20
-3.40479
11
6.97224
21
-3.40494
0
LINE
8
BLACK
6
CONTINUOUS
10
6.97224
20
-3.40494
11
6.97224
21
-3.40494
0
LINE
8
BLACK
6
CONTINUOUS
10
6.97224
20
-3.40494
11
6.972
21
-3.40497
0
LINE
8
BLACK
6
CONTINUOUS
10
6.972
20
-3.40497
11
6.96663
21
-3.40698
0
LINE
8
BLACK
6
CONTINUOUS
10
6.96663
20
-3.40698
11
6.96204
21
-3.41042
0
LINE
8
BLACK
6
CONTINUOUS
10
6.96204
20
-3.41042
11
6.9586
21
-3.41501
0
LINE
8
BLACK
6
CONTINUOUS
10
6.9586
20
-3.41501
11
6.95659
21
-3.42038
0
LINE
8
BLACK
6
CONTINUOUS
10
6.95659
20
-3.42038
11
6.95656
21
-3.42062
0
LINE
8
BLACK
6
CONTINUOUS
10
6.95656
20
-3.42062
11
6.95656
21
-3.42062
0
LINE
8
BLACK
6
CONTINUOUS
10
6.95656
20
-3.42062
11
6.95652
21
-3.42098
0
LINE
8
BLACK
6
CONTINUOUS
10
6.95652
20
-3.42098
11
6.95632
21
-3.42283
0
LINE
8
BLACK
6
CONTINUOUS
10
6.95632
20
-3.42283
11
6.95632
21
-3.49162
0
LINE
8
BLACK
6
CONTINUOUS
10
6.95632
20
-3.49162
11
6.95659
21
-3.49406
0
LINE
8
BLACK
6
CONTINUOUS
10
6.95659
20
-3.49406
11
6.9586
21
-3.49943
0
LINE
8
BLACK
6
CONTINUOUS
10
5.95242
20
-3.58149
11
5.95259
21
-3.58306
0
LINE
8
BLACK
6
CONTINUOUS
10
5.95259
20
-3.58306
11
5.9546
21
-3.58843
0
LINE
8
BLACK
6
CONTINUOUS
10
5.9546
20
-3.58843
11
5.95804
21
-3.59302
0
LINE
8
BLACK
6
CONTINUOUS
10
5.95804
20
-3.59302
11
5.96263
21
-3.59646
0
LINE
8
BLACK
6
CONTINUOUS
10
5.96263
20
-3.59646
11
5.968
21
-3.59847
0
LINE
8
BLACK
6
CONTINUOUS
10
5.968
20
-3.59847
11
5.96824
21
-3.5985
0
LINE
8
BLACK
6
CONTINUOUS
10
5.96824
20
-3.5985
11
5.96824
21
-3.5985
0
LINE
8
BLACK
6
CONTINUOUS
10
5.96824
20
-3.5985
11
5.96966
21
-3.59865
0
LINE
8
BLACK
6
CONTINUOUS
10
5.96966
20
-3.59865
11
5.97045
21
-3.59874
0
LINE
8
BLACK
6
CONTINUOUS
10
5.97045
20
-3.59874
11
6.03924
21
-3.59874
0
LINE
8
BLACK
6
CONTINUOUS
10
6.03924
20
-3.59874
11
6.04003
21
-3.59865
0
LINE
8
BLACK
6
CONTINUOUS
10
6.04003
20
-3.59865
11
6.04144
21
-3.5985
0
LINE
8
BLACK
6
CONTINUOUS
10
6.04144
20
-3.5985
11
6.04144
21
-3.5985
0
LINE
8
BLACK
6
CONTINUOUS
10
6.04144
20
-3.5985
11
6.04169
21
-3.59847
0
LINE
8
BLACK
6
CONTINUOUS
10
6.04169
20
-3.59847
11
6.04706
21
-3.59646
0
LINE
8
BLACK
6
CONTINUOUS
10
6.04706
20
-3.59646
11
6.05164
21
-3.59302
0
LINE
8
BLACK
6
CONTINUOUS
10
6.05164
20
-3.59302
11
6.05508
21
-3.58843
0
LINE
8
BLACK
6
CONTINUOUS
10
6.05508
20
-3.58843
11
6.0571
21
-3.58306
0
LINE
8
BLACK
6
CONTINUOUS
10
6.0571
20
-3.58306
11
6.05727
21
-3.58149
0
LINE
8
BLACK
6
CONTINUOUS
10
6.05727
20
-3.58149
11
6.05735
21
-3.58072
0
LINE
8
BLACK
6
CONTINUOUS
10
6.05735
20
-3.58072
11
6.05736
21
-3.58062
0
LINE
8
BLACK
6
CONTINUOUS
10
6.05736
20
-3.58062
11
6.05736
21
-3.51183
0
LINE
8
BLACK
6
CONTINUOUS
10
6.05736
20
-3.51183
11
6.0571
21
-3.50938
0
LINE
8
BLACK
6
CONTINUOUS
10
6.0571
20
-3.50938
11
6.05508
21
-3.50401
0
LINE
8
BLACK
6
CONTINUOUS
10
6.05508
20
-3.50401
11
6.05205
21
-3.49996
0
LINE
8
BLACK
6
CONTINUOUS
10
6.05205
20
-3.49996
11
6.05181
21
-3.49964
0
LINE
8
BLACK
6
CONTINUOUS
10
6.05181
20
-3.49964
11
6.05164
21
-3.49942
0
LINE
8
BLACK
6
CONTINUOUS
10
6.05164
20
-3.49942
11
6.04706
21
-3.49598
0
LINE
8
BLACK
6
CONTINUOUS
10
6.04706
20
-3.49598
11
6.04169
21
-3.49397
0
LINE
8
BLACK
6
CONTINUOUS
10
6.04169
20
-3.49397
11
6.04144
21
-3.49394
0
LINE
8
BLACK
6
CONTINUOUS
10
6.04144
20
-3.49394
11
6.04144
21
-3.49394
0
LINE
8
BLACK
6
CONTINUOUS
10
6.04144
20
-3.49394
11
6.04003
21
-3.49379
0
LINE
8
BLACK
6
CONTINUOUS
10
6.04003
20
-3.49379
11
6.03924
21
-3.4937
0
LINE
8
BLACK
6
CONTINUOUS
10
6.03924
20
-3.4937
11
5.97045
21
-3.4937
0
LINE
8
BLACK
6
CONTINUOUS
10
5.97045
20
-3.4937
11
5.96966
21
-3.49379
0
LINE
8
BLACK
6
CONTINUOUS
10
5.96966
20
-3.49379
11
5.96824
21
-3.49394
0
LINE
8
BLACK
6
CONTINUOUS
10
5.96824
20
-3.49394
11
5.96824
21
-3.49394
0
LINE
8
BLACK
6
CONTINUOUS
10
5.96824
20
-3.49394
11
5.968
21
-3.49397
0
LINE
8
BLACK
6
CONTINUOUS
10
5.968
20
-3.49397
11
5.96263
21
-3.49598
0
LINE
8
BLACK
6
CONTINUOUS
10
5.96263
20
-3.49598
11
5.95804
21
-3.49942
0
LINE
8
BLACK
6
CONTINUOUS
10
5.95804
20
-3.49942
11
5.95787
21
-3.49964
0
LINE
8
BLACK
6
CONTINUOUS
10
5.95787
20
-3.49964
11
5.95763
21
-3.49996
0
LINE
8
BLACK
6
CONTINUOUS
10
5.95763
20
-3.49996
11
5.9546
21
-3.50401
0
LINE
8
BLACK
6
CONTINUOUS
10
5.9546
20
-3.50401
11
5.95259
21
-3.50938
0
LINE
8
BLACK
6
CONTINUOUS
10
5.95259
20
-3.50938
11
5.95232
21
-3.51183
0
LINE
8
BLACK
6
CONTINUOUS
10
5.95232
20
-3.51183
11
5.95232
21
-3.58062
0
LINE
8
BLACK
6
CONTINUOUS
10
5.95232
20
-3.58062
11
5.95233
21
-3.58072
0
LINE
8
BLACK
6
CONTINUOUS
10
5.95233
20
-3.58072
11
5.95242
21
-3.58149
0
LINE
8
BLACK
6
CONTINUOUS
10
6.00873
20
-3.70755
11
6.00878
21
-3.70818
0
LINE
8
BLACK
6
CONTINUOUS
10
6.00878
20
-3.70818
11
6.01081
21
-3.71525
0
LINE
8
BLACK
6
CONTINUOUS
10
6.01081
20
-3.71525
11
6.01417
21
-3.7218
0
LINE
8
BLACK
6
CONTINUOUS
10
6.01417
20
-3.7218
11
6.01874
21
-3.72756
0
LINE
8
BLACK
6
CONTINUOUS
10
6.01874
20
-3.72756
11
6.01889
21
-3.72769
0
LINE
8
BLACK
6
CONTINUOUS
10
6.01889
20
-3.72769
11
6.01889
21
-3.72769
0
LINE
8
BLACK
6
CONTINUOUS
10
6.01889
20
-3.72769
11
6.02019
21
-3.72879
0
LINE
8
BLACK
6
CONTINUOUS
10
6.02019
20
-3.72879
11
6.02435
21
-3.73233
0
LINE
8
BLACK
6
CONTINUOUS
10
6.02435
20
-3.73233
11
6.02451
21
-3.73243
0
LINE
8
BLACK
6
CONTINUOUS
10
6.02451
20
-3.73243
11
6.02451
21
-3.73243
0
LINE
8
BLACK
6
CONTINUOUS
10
6.02451
20
-3.73243
11
6.02591
21
-3.73321
0
LINE
8
BLACK
6
CONTINUOUS
10
6.02591
20
-3.73321
11
6.03077
21
-3.73592
0
LINE
8
BLACK
6
CONTINUOUS
10
6.03077
20
-3.73592
11
6.03095
21
-3.73598
0
LINE
8
BLACK
6
CONTINUOUS
10
6.03095
20
-3.73598
11
6.03759
21
-3.73814
0
LINE
8
BLACK
6
CONTINUOUS
10
6.03759
20
-3.73814
11
6.03759
21
-3.73814
0
LINE
8
BLACK
6
CONTINUOUS
10
6.03759
20
-3.73814
11
6.03777
21
-3.7382
0
LINE
8
BLACK
6
CONTINUOUS
10
6.03777
20
-3.7382
11
6.04507
21
-3.73907
0
LINE
8
BLACK
6
CONTINUOUS
10
6.04507
20
-3.73907
11
6.04526
21
-3.73905
0
LINE
8
BLACK
6
CONTINUOUS
10
6.04526
20
-3.73905
11
6.04526
21
-3.73905
0
LINE
8
BLACK
6
CONTINUOUS
10
6.04526
20
-3.73905
11
6.04767
21
-3.73887
0
LINE
8
BLACK
6
CONTINUOUS
10
6.04767
20
-3.73887
11
6.05241
21
-3.7385
0
LINE
8
BLACK
6
CONTINUOUS
10
6.05241
20
-3.7385
11
6.0595
21
-3.73652
0
LINE
8
BLACK
6
CONTINUOUS
10
6.0595
20
-3.73652
11
6.05967
21
-3.73644
0
LINE
8
BLACK
6
CONTINUOUS
10
6.05967
20
-3.73644
11
6.06589
21
-3.73329
0
LINE
8
BLACK
6
CONTINUOUS
10
6.06589
20
-3.73329
11
6.06589
21
-3.73329
0
LINE
8
BLACK
6
CONTINUOUS
10
6.06589
20
-3.73329
11
6.06606
21
-3.73321
0
LINE
8
BLACK
6
CONTINUOUS
10
6.06606
20
-3.73321
11
6.07186
21
-3.72868
0
LINE
8
BLACK
6
CONTINUOUS
10
6.07186
20
-3.72868
11
6.07199
21
-3.72853
0
LINE
8
BLACK
6
CONTINUOUS
10
6.07199
20
-3.72853
11
6.07199
21
-3.72853
0
LINE
8
BLACK
6
CONTINUOUS
10
6.07199
20
-3.72853
11
6.07655
21
-3.72325
0
LINE
8
BLACK
6
CONTINUOUS
10
6.07655
20
-3.72325
11
6.07667
21
-3.72311
0
LINE
8
BLACK
6
CONTINUOUS
10
6.07667
20
-3.72311
11
6.07733
21
-3.72195
0
LINE
8
BLACK
6
CONTINUOUS
10
6.07733
20
-3.72195
11
6.08021
21
-3.71688
0
LINE
8
BLACK
6
CONTINUOUS
10
6.08021
20
-3.71688
11
6.08021
21
-3.71688
0
LINE
8
BLACK
6
CONTINUOUS
10
6.08021
20
-3.71688
11
6.08031
21
-3.71671
0
LINE
8
BLACK
6
CONTINUOUS
10
6.08031
20
-3.71671
11
6.08263
21
-3.70973
0
LINE
8
BLACK
6
CONTINUOUS
10
6.08263
20
-3.70973
11
6.08272
21
-3.70899
0
LINE
8
BLACK
6
CONTINUOUS
10
6.08272
20
-3.70899
11
6.08375
21
-3.70681
0
LINE
8
BLACK
6
CONTINUOUS
10
6.08375
20
-3.70681
11
6.08586
21
-3.70565
0
LINE
8
BLACK
6
CONTINUOUS
10
6.08586
20
-3.70565
11
6.08659
21
-3.70558
0
LINE
8
BLACK
6
CONTINUOUS
10
6.08659
20
-3.70558
11
6.1906
21
-3.70558
0
LINE
8
BLACK
6
CONTINUOUS
10
6.1906
20
-3.70558
11
6.19289
21
-3.70633
0
LINE
8
BLACK
6
CONTINUOUS
10
6.19289
20
-3.70633
11
6.19313
21
-3.70651
0
LINE
8
BLACK
6
CONTINUOUS
10
6.19313
20
-3.70651
11
6.19333
21
-3.70668
0
LINE
8
BLACK
6
CONTINUOUS
10
6.19333
20
-3.70668
11
6.19349
21
-3.70677
0
LINE
8
BLACK
6
CONTINUOUS
10
6.19349
20
-3.70677
11
6.19349
21
-3.70677
0
LINE
8
BLACK
6
CONTINUOUS
10
6.19349
20
-3.70677
11
6.19634
21
-3.70836
0
LINE
8
BLACK
6
CONTINUOUS
10
6.19634
20
-3.70836
11
6.19975
21
-3.71027
0
LINE
8
BLACK
6
CONTINUOUS
10
6.19975
20
-3.71027
11
6.19993
21
-3.71033
0
LINE
8
BLACK
6
CONTINUOUS
10
6.19993
20
-3.71033
11
6.20657
21
-3.71248
0
LINE
8
BLACK
6
CONTINUOUS
10
6.20657
20
-3.71248
11
6.20657
21
-3.71248
0
LINE
8
BLACK
6
CONTINUOUS
10
6.20657
20
-3.71248
11
6.20675
21
-3.71254
0
LINE
8
BLACK
6
CONTINUOUS
10
6.20675
20
-3.71254
11
6.21405
21
-3.71341
0
LINE
8
BLACK
6
CONTINUOUS
10
6.21405
20
-3.71341
11
6.21424
21
-3.7134
0
LINE
8
BLACK
6
CONTINUOUS
10
6.21424
20
-3.7134
11
6.21424
21
-3.7134
0
LINE
8
BLACK
6
CONTINUOUS
10
6.21424
20
-3.7134
11
6.21664
21
-3.71321
0
LINE
8
BLACK
6
CONTINUOUS
10
6.21664
20
-3.71321
11
6.22139
21
-3.71285
0
LINE
8
BLACK
6
CONTINUOUS
10
6.22139
20
-3.71285
11
6.22848
21
-3.71087
0
LINE
8
BLACK
6
CONTINUOUS
10
6.22848
20
-3.71087
11
6.22865
21
-3.71078
0
LINE
8
BLACK
6
CONTINUOUS
10
6.22865
20
-3.71078
11
6.23487
21
-3.70764
0
LINE
8
BLACK
6
CONTINUOUS
10
6.23487
20
-3.70764
11
6.23487
21
-3.70764
0
LINE
8
BLACK
6
CONTINUOUS
10
6.23487
20
-3.70764
11
6.23504
21
-3.70755
0
LINE
8
BLACK
6
CONTINUOUS
10
6.23504
20
-3.70755
11
6.24084
21
-3.70302
0
LINE
8
BLACK
6
CONTINUOUS
10
6.24084
20
-3.70302
11
6.24097
21
-3.70288
0
LINE
8
BLACK
6
CONTINUOUS
10
6.24097
20
-3.70288
11
6.24097
21
-3.70288
0
LINE
8
BLACK
6
CONTINUOUS
10
6.24097
20
-3.70288
11
6.24553
21
-3.6976
0
LINE
8
BLACK
6
CONTINUOUS
10
6.24553
20
-3.6976
11
6.24565
21
-3.69745
0
LINE
8
BLACK
6
CONTINUOUS
10
6.24565
20
-3.69745
11
6.24777
21
-3.69373
0
LINE
8
BLACK
6
CONTINUOUS
10
6.24777
20
-3.69373
11
6.24919
21
-3.69122
0
LINE
8
BLACK
6
CONTINUOUS
10
6.24919
20
-3.69122
11
6.24919
21
-3.69122
0
LINE
8
BLACK
6
CONTINUOUS
10
6.24919
20
-3.69122
11
6.24928
21
-3.69105
0
LINE
8
BLACK
6
CONTINUOUS
10
6.24928
20
-3.69105
11
6.25073
21
-3.6867
0
LINE
8
BLACK
6
CONTINUOUS
10
6.25073
20
-3.6867
11
6.25155
21
-3.68425
0
LINE
8
BLACK
6
CONTINUOUS
10
6.25155
20
-3.68425
11
6.25155
21
-3.68425
0
LINE
8
BLACK
6
CONTINUOUS
10
6.25155
20
-3.68425
11
6.25161
21
-3.68407
0
LINE
8
BLACK
6
CONTINUOUS
10
6.25161
20
-3.68407
11
6.25253
21
-3.67677
0
LINE
8
BLACK
6
CONTINUOUS
10
6.25253
20
-3.67677
11
6.25254
21
-3.67572
0
LINE
8
BLACK
6
CONTINUOUS
10
6.25254
20
-3.67572
11
6.25183
21
-3.6684
0
LINE
8
BLACK
6
CONTINUOUS
10
6.25183
20
-3.6684
11
6.2497
21
-3.66135
0
LINE
8
BLACK
6
CONTINUOUS
10
6.2497
20
-3.66135
11
6.24624
21
-3.65486
0
LINE
8
BLACK
6
CONTINUOUS
10
6.24624
20
-3.65486
11
6.24159
21
-3.64915
0
LINE
8
BLACK
6
CONTINUOUS
10
6.24159
20
-3.64915
11
6.24136
21
-3.64896
0
LINE
8
BLACK
6
CONTINUOUS
10
6.24136
20
-3.64896
11
6.23607
21
-3.64459
0
LINE
8
BLACK
6
CONTINUOUS
10
6.23607
20
-3.64459
11
6.23607
21
-3.64459
0
LINE
8
BLACK
6
CONTINUOUS
10
6.23607
20
-3.64459
11
6.23592
21
-3.64446
0
LINE
8
BLACK
6
CONTINUOUS
10
6.23592
20
-3.64446
11
6.22945
21
-3.64097
0
LINE
8
BLACK
6
CONTINUOUS
10
6.22945
20
-3.64097
11
6.22242
21
-3.63879
0
LINE
8
BLACK
6
CONTINUOUS
10
6.22242
20
-3.63879
11
6.22223
21
-3.63877
0
LINE
8
BLACK
6
CONTINUOUS
10
6.22223
20
-3.63877
11
6.22223
21
-3.63877
0
LINE
8
BLACK
6
CONTINUOUS
10
6.22223
20
-3.63877
11
6.2153
21
-3.63804
0
LINE
8
BLACK
6
CONTINUOUS
10
6.2153
20
-3.63804
11
6.2153
21
-3.63804
0
LINE
8
BLACK
6
CONTINUOUS
10
6.2153
20
-3.63804
11
6.21511
21
-3.63802
0
LINE
8
BLACK
6
CONTINUOUS
10
6.21511
20
-3.63802
11
6.21275
21
-3.63823
0
LINE
8
BLACK
6
CONTINUOUS
10
6.21275
20
-3.63823
11
6.20797
21
-3.63867
0
LINE
8
BLACK
6
CONTINUOUS
10
6.20797
20
-3.63867
11
6.20797
21
-3.63867
0
LINE
8
BLACK
6
CONTINUOUS
10
6.20797
20
-3.63867
11
6.20778
21
-3.63869
0
LINE
8
BLACK
6
CONTINUOUS
10
6.20778
20
-3.63869
11
6.2076
21
-3.63874
0
LINE
8
BLACK
6
CONTINUOUS
10
6.2076
20
-3.63874
11
6.2076
21
-3.63874
0
LINE
8
BLACK
6
CONTINUOUS
10
6.2076
20
-3.63874
11
6.2009
21
-3.64071
0
LINE
8
BLACK
6
CONTINUOUS
10
6.2009
20
-3.64071
11
6.2009
21
-3.64071
0
LINE
8
BLACK
6
CONTINUOUS
10
6.2009
20
-3.64071
11
6.20072
21
-3.64076
0
LINE
8
BLACK
6
CONTINUOUS
10
6.20072
20
-3.64076
11
6.1942
21
-3.64417
0
LINE
8
BLACK
6
CONTINUOUS
10
6.1942
20
-3.64417
11
6.19405
21
-3.64429
0
LINE
8
BLACK
6
CONTINUOUS
10
6.19405
20
-3.64429
11
6.19405
21
-3.64429
0
LINE
8
BLACK
6
CONTINUOUS
10
6.19405
20
-3.64429
11
6.19317
21
-3.645
0
LINE
8
BLACK
6
CONTINUOUS
10
6.19317
20
-3.645
11
6.19073
21
-3.64586
0
LINE
8
BLACK
6
CONTINUOUS
10
6.19073
20
-3.64586
11
6.07408
21
-3.64586
0
LINE
8
BLACK
6
CONTINUOUS
10
6.07408
20
-3.64586
11
6.07349
21
-3.64581
0
LINE
8
BLACK
6
CONTINUOUS
10
6.07349
20
-3.64581
11
6.07279
21
-3.64571
0
LINE
8
BLACK
6
CONTINUOUS
10
6.07279
20
-3.64571
11
6.07279
21
-3.64571
0
LINE
8
BLACK
6
CONTINUOUS
10
6.07279
20
-3.64571
11
6.07257
21
-3.64567
0
LINE
8
BLACK
6
CONTINUOUS
10
6.07257
20
-3.64567
11
6.07053
21
-3.64584
0
LINE
8
BLACK
6
CONTINUOUS
10
6.07053
20
-3.64584
11
6.07045
21
-3.64585
0
LINE
8
BLACK
6
CONTINUOUS
10
6.07045
20
-3.64585
11
6.07014
21
-3.64586
0
LINE
8
BLACK
6
CONTINUOUS
10
6.07014
20
-3.64586
11
6.06977
21
-3.64586
0
LINE
8
BLACK
6
CONTINUOUS
10
6.06977
20
-3.64586
11
6.06966
21
-3.64587
0
LINE
8
BLACK
6
CONTINUOUS
10
6.06966
20
-3.64587
11
6.06966
21
-3.64587
0
LINE
8
BLACK
6
CONTINUOUS
10
6.06966
20
-3.64587
11
6.06864
21
-3.64599
0
LINE
8
BLACK
6
CONTINUOUS
10
6.06864
20
-3.64599
11
6.06851
21
-3.646
0
LINE
8
BLACK
6
CONTINUOUS
10
6.06851
20
-3.646
11
6.06585
21
-3.64622
0
LINE
8
BLACK
6
CONTINUOUS
10
6.06585
20
-3.64622
11
6.06585
21
-3.64622
0
LINE
8
BLACK
6
CONTINUOUS
10
6.06585
20
-3.64622
11
6.06563
21
-3.64624
0
LINE
8
BLACK
6
CONTINUOUS
10
6.06563
20
-3.64624
11
6.06541
21
-3.64631
0
LINE
8
BLACK
6
CONTINUOUS
10
6.06541
20
-3.64631
11
6.06519
21
-3.64635
0
LINE
8
BLACK
6
CONTINUOUS
10
6.06519
20
-3.64635
11
6.06519
21
-3.64635
0
LINE
8
BLACK
6
CONTINUOUS
10
6.06519
20
-3.64635
11
6.06505
21
-3.64638
0
LINE
8
BLACK
6
CONTINUOUS
10
6.06505
20
-3.64638
11
6.06505
21
-3.64638
0
LINE
8
BLACK
6
CONTINUOUS
10
6.06505
20
-3.64638
11
6.06483
21
-3.64644
0
LINE
8
BLACK
6
CONTINUOUS
10
6.06483
20
-3.64644
11
6.0646
21
-3.64646
0
LINE
8
BLACK
6
CONTINUOUS
10
6.0646
20
-3.64646
11
6.06439
21
-3.64654
0
LINE
8
BLACK
6
CONTINUOUS
10
6.06439
20
-3.64654
11
6.06188
21
-3.64745
0
LINE
8
BLACK
6
CONTINUOUS
10
6.06188
20
-3.64745
11
6.06175
21
-3.64749
0
LINE
8
BLACK
6
CONTINUOUS
10
6.06175
20
-3.64749
11
6.05967
21
-3.64817
0
LINE
8
BLACK
6
CONTINUOUS
10
6.05967
20
-3.64817
11
6.059
21
-3.64838
0
LINE
8
BLACK
6
CONTINUOUS
10
6.059
20
-3.64838
11
6.05881
21
-3.6485
0
LINE
8
BLACK
6
CONTINUOUS
10
6.05881
20
-3.6485
11
6.0586
21
-3.6486
0
LINE
8
BLACK
6
CONTINUOUS
10
6.0586
20
-3.6486
11
6.0586
21
-3.64859
0
LINE
8
BLACK
6
CONTINUOUS
10
6.0586
20
-3.64859
11
6.05847
21
-3.64865
0
LINE
8
BLACK
6
CONTINUOUS
10
6.05847
20
-3.64865
11
6.05847
21
-3.64866
0
LINE
8
BLACK
6
CONTINUOUS
10
6.05847
20
-3.64866
11
6.05827
21
-3.64876
0
LINE
8
BLACK
6
CONTINUOUS
10
6.05827
20
-3.64876
11
6.05806
21
-3.64884
0
LINE
8
BLACK
6
CONTINUOUS
10
6.05806
20
-3.64884
11
6.05787
21
-3.64896
0
LINE
8
BLACK
6
CONTINUOUS
10
6.05787
20
-3.64896
11
6.05787
21
-3.64896
0
LINE
8
BLACK
6
CONTINUOUS
10
6.05787
20
-3.64896
11
6.05564
21
-3.65042
0
LINE
8
BLACK
6
CONTINUOUS
10
6.05564
20
-3.65042
11
6.05552
21
-3.6505
0
LINE
8
BLACK
6
CONTINUOUS
10
6.05552
20
-3.6505
11
6.0532
21
-3.65191
0
LINE
8
BLACK
6
CONTINUOUS
10
6.0532
20
-3.65191
11
6.0532
21
-3.65191
0
LINE
8
BLACK
6
CONTINUOUS
10
6.0532
20
-3.65191
11
6.05305
21
-3.652
0
LINE
8
BLACK
6
CONTINUOUS
10
6.05305
20
-3.652
11
6.05272
21
-3.65229
0
LINE
8
BLACK
6
CONTINUOUS
10
6.05272
20
-3.65229
11
6.05271
21
-3.65228
0
LINE
8
BLACK
6
CONTINUOUS
10
6.05271
20
-3.65228
11
6.05259
21
-3.65238
0
LINE
8
BLACK
6
CONTINUOUS
10
6.05259
20
-3.65238
11
6.0526
21
-3.65239
0
LINE
8
BLACK
6
CONTINUOUS
10
6.0526
20
-3.65239
11
6.05242
21
-3.65253
0
LINE
8
BLACK
6
CONTINUOUS
10
6.05242
20
-3.65253
11
6.05223
21
-3.65266
0
LINE
8
BLACK
6
CONTINUOUS
10
6.05223
20
-3.65266
11
6.05208
21
-3.65282
0
LINE
8
BLACK
6
CONTINUOUS
10
6.05208
20
-3.65282
11
6.05013
21
-3.65488
0
LINE
8
BLACK
6
CONTINUOUS
10
6.05013
20
-3.65488
11
6.05005
21
-3.65495
0
LINE
8
BLACK
6
CONTINUOUS
10
6.05005
20
-3.65495
11
6.04185
21
-3.66316
0
LINE
8
BLACK
6
CONTINUOUS
10
6.04185
20
-3.66316
11
6.0397
21
-3.66425
0
LINE
8
BLACK
6
CONTINUOUS
10
6.0397
20
-3.66425
11
6.03945
21
-3.66428
0
LINE
8
BLACK
6
CONTINUOUS
10
6.03945
20
-3.66428
11
6.03899
21
-3.66432
0
LINE
8
BLACK
6
CONTINUOUS
10
6.03899
20
-3.66432
11
6.03899
21
-3.66432
0
LINE
8
BLACK
6
CONTINUOUS
10
6.03899
20
-3.66432
11
6.0388
21
-3.66434
0
LINE
8
BLACK
6
CONTINUOUS
10
6.0388
20
-3.66434
11
6.03607
21
-3.66515
0
LINE
8
BLACK
6
CONTINUOUS
10
6.03607
20
-3.66515
11
6.03192
21
-3.66637
0
LINE
8
BLACK
6
CONTINUOUS
10
6.03192
20
-3.66637
11
6.03192
21
-3.66637
0
LINE
8
BLACK
6
CONTINUOUS
10
6.03192
20
-3.66637
11
6.03174
21
-3.66642
0
LINE
8
BLACK
6
CONTINUOUS
10
6.03174
20
-3.66642
11
6.02522
21
-3.66983
0
LINE
8
BLACK
6
CONTINUOUS
10
6.02522
20
-3.66983
11
6.02507
21
-3.66995
0
LINE
8
BLACK
6
CONTINUOUS
10
6.02507
20
-3.66995
11
6.02507
21
-3.66995
0
LINE
8
BLACK
6
CONTINUOUS
10
6.02507
20
-3.66995
11
6.01963
21
-3.67432
0
LINE
8
BLACK
6
CONTINUOUS
10
6.01963
20
-3.67432
11
6.01949
21
-3.67444
0
LINE
8
BLACK
6
CONTINUOUS
10
6.01949
20
-3.67444
11
6.01936
21
-3.67458
0
LINE
8
BLACK
6
CONTINUOUS
10
6.01936
20
-3.67458
11
6.01936
21
-3.67458
0
LINE
8
BLACK
6
CONTINUOUS
10
6.01936
20
-3.67458
11
6.0185
21
-3.67561
0
LINE
8
BLACK
6
CONTINUOUS
10
6.0185
20
-3.67561
11
6.01476
21
-3.68008
0
LINE
8
BLACK
6
CONTINUOUS
10
6.01476
20
-3.68008
11
6.01466
21
-3.68024
0
LINE
8
BLACK
6
CONTINUOUS
10
6.01466
20
-3.68024
11
6.01466
21
-3.68024
0
LINE
8
BLACK
6
CONTINUOUS
10
6.01466
20
-3.68024
11
6.01246
21
-3.68425
0
LINE
8
BLACK
6
CONTINUOUS
10
6.01246
20
-3.68425
11
6.01121
21
-3.68652
0
LINE
8
BLACK
6
CONTINUOUS
10
6.01121
20
-3.68652
11
6.01115
21
-3.6867
0
LINE
8
BLACK
6
CONTINUOUS
10
6.01115
20
-3.6867
11
6.01115
21
-3.6867
0
LINE
8
BLACK
6
CONTINUOUS
10
6.01115
20
-3.6867
11
6.00904
21
-3.69335
0
LINE
8
BLACK
6
CONTINUOUS
10
6.00904
20
-3.69335
11
6.00904
21
-3.69336
0
LINE
8
BLACK
6
CONTINUOUS
10
6.00904
20
-3.69336
11
6.00899
21
-3.69354
0
LINE
8
BLACK
6
CONTINUOUS
10
6.00899
20
-3.69354
11
6.00817
21
-3.70085
0
LINE
8
BLACK
6
CONTINUOUS
10
6.00817
20
-3.70085
11
6.00818
21
-3.70104
0
LINE
8
BLACK
6
CONTINUOUS
10
6.00818
20
-3.70104
11
6.00873
21
-3.70755
0
LINE
8
BLACK
6
CONTINUOUS
10
5.37753
20
-3.50756
11
5.37759
21
-3.50806
0
LINE
8
BLACK
6
CONTINUOUS
10
5.37759
20
-3.50806
11
5.3796
21
-3.51343
0
LINE
8
BLACK
6
CONTINUOUS
10
5.3796
20
-3.51343
11
5.38304
21
-3.51802
0
LINE
8
BLACK
6
CONTINUOUS
10
5.38304
20
-3.51802
11
5.38763
21
-3.52146
0
LINE
8
BLACK
6
CONTINUOUS
10
5.38763
20
-3.52146
11
5.393
21
-3.52347
0
LINE
8
BLACK
6
CONTINUOUS
10
5.393
20
-3.52347
11
5.39324
21
-3.5235
0
LINE
8
BLACK
6
CONTINUOUS
10
5.39324
20
-3.5235
11
5.39324
21
-3.5235
0
LINE
8
BLACK
6
CONTINUOUS
10
5.39324
20
-3.5235
11
5.39466
21
-3.52365
0
LINE
8
BLACK
6
CONTINUOUS
10
5.39466
20
-3.52365
11
5.39545
21
-3.52374
0
LINE
8
BLACK
6
CONTINUOUS
10
5.39545
20
-3.52374
11
5.46424
21
-3.52374
0
LINE
8
BLACK
6
CONTINUOUS
10
5.46424
20
-3.52374
11
5.46503
21
-3.52365
0
LINE
8
BLACK
6
CONTINUOUS
10
5.46503
20
-3.52365
11
5.46644
21
-3.5235
0
LINE
8
BLACK
6
CONTINUOUS
10
5.46644
20
-3.5235
11
5.46644
21
-3.5235
0
LINE
8
BLACK
6
CONTINUOUS
10
5.46644
20
-3.5235
11
5.46669
21
-3.52347
0
LINE
8
BLACK
6
CONTINUOUS
10
5.46669
20
-3.52347
11
5.47206
21
-3.52146
0
LINE
8
BLACK
6
CONTINUOUS
10
5.47206
20
-3.52146
11
5.47664
21
-3.51802
0
LINE
8
BLACK
6
CONTINUOUS
10
5.47664
20
-3.51802
11
5.47681
21
-3.5178
0
LINE
8
BLACK
6
CONTINUOUS
10
5.47681
20
-3.5178
11
5.47701
21
-3.5176
0
LINE
8
BLACK
6
CONTINUOUS
10
5.47701
20
-3.5176
11
5.47707
21
-3.51767
0
LINE
8
BLACK
6
CONTINUOUS
10
5.47707
20
-3.51767
11
5.47869
21
-3.51653
0
LINE
8
BLACK
6
CONTINUOUS
10
5.47869
20
-3.51653
11
5.4811
21
-3.51656
0
LINE
8
BLACK
6
CONTINUOUS
10
5.4811
20
-3.51656
11
5.48262
21
-3.51767
0
LINE
8
BLACK
6
CONTINUOUS
10
5.48262
20
-3.51767
11
5.48268
21
-3.5176
0
LINE
8
BLACK
6
CONTINUOUS
10
5.48268
20
-3.5176
11
5.48287
21
-3.5178
0
LINE
8
BLACK
6
CONTINUOUS
10
5.48287
20
-3.5178
11
5.48304
21
-3.51802
0
LINE
8
BLACK
6
CONTINUOUS
10
5.48304
20
-3.51802
11
5.48763
21
-3.52146
0
LINE
8
BLACK
6
CONTINUOUS
10
5.48763
20
-3.52146
11
5.493
21
-3.52347
0
LINE
8
BLACK
6
CONTINUOUS
10
5.493
20
-3.52347
11
5.49324
21
-3.5235
0
LINE
8
BLACK
6
CONTINUOUS
10
5.49324
20
-3.5235
11
5.49324
21
-3.5235
0
LINE
8
BLACK
6
CONTINUOUS
10
5.49324
20
-3.5235
11
5.49466
21
-3.52365
0
LINE
8
BLACK
6
CONTINUOUS
10
5.49466
20
-3.52365
11
5.49545
21
-3.52374
0
LINE
8
BLACK
6
CONTINUOUS
10
5.49545
20
-3.52374
11
5.56424
21
-3.52374
0
LINE
8
BLACK
6
CONTINUOUS
10
5.56424
20
-3.52374
11
5.56503
21
-3.52365
0
LINE
8
BLACK
6
CONTINUOUS
10
5.56503
20
-3.52365
11
5.56644
21
-3.5235
0
LINE
8
BLACK
6
CONTINUOUS
10
5.56644
20
-3.5235
11
5.56644
21
-3.5235
0
LINE
8
BLACK
6
CONTINUOUS
10
5.56644
20
-3.5235
11
5.56669
21
-3.52347
0
LINE
8
BLACK
6
CONTINUOUS
10
5.56669
20
-3.52347
11
5.57206
21
-3.52146
0
LINE
8
BLACK
6
CONTINUOUS
10
5.57206
20
-3.52146
11
5.57664
21
-3.51802
0
LINE
8
BLACK
6
CONTINUOUS
10
5.57664
20
-3.51802
11
5.58008
21
-3.51343
0
LINE
8
BLACK
6
CONTINUOUS
10
5.58008
20
-3.51343
11
5.5821
21
-3.50806
0
LINE
8
BLACK
6
CONTINUOUS
10
5.5821
20
-3.50806
11
5.58215
21
-3.50756
0
LINE
8
BLACK
6
CONTINUOUS
10
5.58215
20
-3.50756
11
5.58235
21
-3.50572
0
LINE
8
BLACK
6
CONTINUOUS
10
5.58235
20
-3.50572
11
5.58236
21
-3.50562
0
LINE
8
BLACK
6
CONTINUOUS
10
5.58236
20
-3.50562
11
5.58236
21
-3.43683
0
LINE
8
BLACK
6
CONTINUOUS
10
5.58236
20
-3.43683
11
5.5821
21
-3.43438
0
LINE
8
BLACK
6
CONTINUOUS
10
5.5821
20
-3.43438
11
5.58008
21
-3.42901
0
LINE
8
BLACK
6
CONTINUOUS
10
5.58008
20
-3.42901
11
5.57664
21
-3.42442
0
LINE
8
BLACK
6
CONTINUOUS
10
5.57664
20
-3.42442
11
5.57206
21
-3.42098
0
LINE
8
BLACK
6
CONTINUOUS
10
5.57206
20
-3.42098
11
5.56669
21
-3.41897
0
LINE
8
BLACK
6
CONTINUOUS
10
5.56669
20
-3.41897
11
5.56644
21
-3.41894
0
LINE
8
BLACK
6
CONTINUOUS
10
5.56644
20
-3.41894
11
5.56644
21
-3.41894
0
LINE
8
BLACK
6
CONTINUOUS
10
5.56644
20
-3.41894
11
5.56503
21
-3.41879
0
LINE
8
BLACK
6
CONTINUOUS
10
5.56503
20
-3.41879
11
5.56424
21
-3.4187
0
LINE
8
BLACK
6
CONTINUOUS
10
5.56424
20
-3.4187
11
5.49545
21
-3.4187
0
LINE
8
BLACK
6
CONTINUOUS
10
5.49545
20
-3.4187
11
5.49466
21
-3.41879
0
LINE
8
BLACK
6
CONTINUOUS
10
5.49466
20
-3.41879
11
5.49324
21
-3.41894
0
LINE
8
BLACK
6
CONTINUOUS
10
5.49324
20
-3.41894
11
5.49324
21
-3.41894
0
LINE
8
BLACK
6
CONTINUOUS
10
5.49324
20
-3.41894
11
5.493
21
-3.41897
0
LINE
8
BLACK
6
CONTINUOUS
10
5.493
20
-3.41897
11
5.48763
21
-3.42098
0
LINE
8
BLACK
6
CONTINUOUS
10
5.48763
20
-3.42098
11
5.48304
21
-3.42442
0
LINE
8
BLACK
6
CONTINUOUS
10
5.48304
20
-3.42442
11
5.48287
21
-3.42464
0
LINE
8
BLACK
6
CONTINUOUS
10
5.48287
20
-3.42464
11
5.48268
21
-3.42484
0
LINE
8
BLACK
6
CONTINUOUS
10
5.48268
20
-3.42484
11
5.48261
21
-3.42477
0
LINE
8
BLACK
6
CONTINUOUS
10
5.48261
20
-3.42477
11
5.48099
21
-3.42591
0
LINE
8
BLACK
6
CONTINUOUS
10
5.48099
20
-3.42591
11
5.47858
21
-3.42588
0
LINE
8
BLACK
6
CONTINUOUS
10
5.47858
20
-3.42588
11
5.47707
21
-3.42478
0
LINE
8
BLACK
6
CONTINUOUS
10
5.47707
20
-3.42478
11
5.47701
21
-3.42484
0
LINE
8
BLACK
6
CONTINUOUS
10
5.47701
20
-3.42484
11
5.47681
21
-3.42464
0
LINE
8
BLACK
6
CONTINUOUS
10
5.47681
20
-3.42464
11
5.47664
21
-3.42442
0
LINE
8
BLACK
6
CONTINUOUS
10
5.47664
20
-3.42442
11
5.47206
21
-3.42098
0
LINE
8
BLACK
6
CONTINUOUS
10
5.47206
20
-3.42098
11
5.46669
21
-3.41897
0
LINE
8
BLACK
6
CONTINUOUS
10
5.46669
20
-3.41897
11
5.46644
21
-3.41894
0
LINE
8
BLACK
6
CONTINUOUS
10
5.46644
20
-3.41894
11
5.46644
21
-3.41894
0
LINE
8
BLACK
6
CONTINUOUS
10
5.46644
20
-3.41894
11
5.46503
21
-3.41879
0
LINE
8
BLACK
6
CONTINUOUS
10
5.46503
20
-3.41879
11
5.46424
21
-3.4187
0
LINE
8
BLACK
6
CONTINUOUS
10
5.46424
20
-3.4187
11
5.39545
21
-3.4187
0
LINE
8
BLACK
6
CONTINUOUS
10
5.39545
20
-3.4187
11
5.39466
21
-3.41879
0
LINE
8
BLACK
6
CONTINUOUS
10
5.39466
20
-3.41879
11
5.39324
21
-3.41894
0
LINE
8
BLACK
6
CONTINUOUS
10
5.39324
20
-3.41894
11
5.39324
21
-3.41894
0
LINE
8
BLACK
6
CONTINUOUS
10
5.39324
20
-3.41894
11
5.393
21
-3.41897
0
LINE
8
BLACK
6
CONTINUOUS
10
5.393
20
-3.41897
11
5.38763
21
-3.42098
0
LINE
8
BLACK
6
CONTINUOUS
10
5.38763
20
-3.42098
11
5.38304
21
-3.42442
0
LINE
8
BLACK
6
CONTINUOUS
10
5.38304
20
-3.42442
11
5.3796
21
-3.42901
0
LINE
8
BLACK
6
CONTINUOUS
10
5.3796
20
-3.42901
11
5.37759
21
-3.43438
0
LINE
8
BLACK
6
CONTINUOUS
10
5.37759
20
-3.43438
11
5.37732
21
-3.43683
0
LINE
8
BLACK
6
CONTINUOUS
10
5.37732
20
-3.43683
11
5.37732
21
-3.50562
0
LINE
8
BLACK
6
CONTINUOUS
10
5.37732
20
-3.50562
11
5.37733
21
-3.50572
0
LINE
8
BLACK
6
CONTINUOUS
10
5.37733
20
-3.50572
11
5.37753
21
-3.50756
0
LINE
8
BLACK
6
CONTINUOUS
10
5.75242
20
-3.58149
11
5.75259
21
-3.58306
0
LINE
8
BLACK
6
CONTINUOUS
10
5.75259
20
-3.58306
11
5.7546
21
-3.58843
0
LINE
8
BLACK
6
CONTINUOUS
10
5.7546
20
-3.58843
11
5.75804
21
-3.59302
0
LINE
8
BLACK
6
CONTINUOUS
10
5.75804
20
-3.59302
11
5.76263
21
-3.59646
0
LINE
8
BLACK
6
CONTINUOUS
10
5.76263
20
-3.59646
11
5.768
21
-3.59847
0
LINE
8
BLACK
6
CONTINUOUS
10
5.768
20
-3.59847
11
5.76824
21
-3.5985
0
LINE
8
BLACK
6
CONTINUOUS
10
5.76824
20
-3.5985
11
5.76824
21
-3.5985
0
LINE
8
BLACK
6
CONTINUOUS
10
5.76824
20
-3.5985
11
5.76966
21
-3.59865
0
LINE
8
BLACK
6
CONTINUOUS
10
5.76966
20
-3.59865
11
5.77045
21
-3.59874
0
LINE
8
BLACK
6
CONTINUOUS
10
5.77045
20
-3.59874
11
5.83924
21
-3.59874
0
LINE
8
BLACK
6
CONTINUOUS
10
5.83924
20
-3.59874
11
5.84003
21
-3.59865
0
LINE
8
BLACK
6
CONTINUOUS
10
5.84003
20
-3.59865
11
5.84144
21
-3.5985
0
LINE
8
BLACK
6
CONTINUOUS
10
5.84144
20
-3.5985
11
5.84144
21
-3.5985
0
LINE
8
BLACK
6
CONTINUOUS
10
5.84144
20
-3.5985
11
5.84169
21
-3.59847
0
LINE
8
BLACK
6
CONTINUOUS
10
5.84169
20
-3.59847
11
5.84706
21
-3.59646
0
LINE
8
BLACK
6
CONTINUOUS
10
5.84706
20
-3.59646
11
5.85164
21
-3.59302
0
LINE
8
BLACK
6
CONTINUOUS
10
5.85164
20
-3.59302
11
5.85508
21
-3.58843
0
LINE
8
BLACK
6
CONTINUOUS
10
5.85508
20
-3.58843
11
5.8571
21
-3.58306
0
LINE
8
BLACK
6
CONTINUOUS
10
5.8571
20
-3.58306
11
5.85727
21
-3.58149
0
LINE
8
BLACK
6
CONTINUOUS
10
5.85727
20
-3.58149
11
5.85735
21
-3.58072
0
LINE
8
BLACK
6
CONTINUOUS
10
5.85735
20
-3.58072
11
5.85736
21
-3.58062
0
LINE
8
BLACK
6
CONTINUOUS
10
5.85736
20
-3.58062
11
5.85736
21
-3.51183
0
LINE
8
BLACK
6
CONTINUOUS
10
5.85736
20
-3.51183
11
5.8571
21
-3.50938
0
LINE
8
BLACK
6
CONTINUOUS
10
5.8571
20
-3.50938
11
5.85508
21
-3.50401
0
LINE
8
BLACK
6
CONTINUOUS
10
5.85508
20
-3.50401
11
5.85205
21
-3.49996
0
LINE
8
BLACK
6
CONTINUOUS
10
5.85205
20
-3.49996
11
5.85181
21
-3.49964
0
LINE
8
BLACK
6
CONTINUOUS
10
5.85181
20
-3.49964
11
5.85164
21
-3.49942
0
LINE
8
BLACK
6
CONTINUOUS
10
5.85164
20
-3.49942
11
5.84706
21
-3.49598
0
LINE
8
BLACK
6
CONTINUOUS
10
5.84706
20
-3.49598
11
5.84169
21
-3.49397
0
LINE
8
BLACK
6
CONTINUOUS
10
5.84169
20
-3.49397
11
5.84144
21
-3.49394
0
LINE
8
BLACK
6
CONTINUOUS
10
5.84144
20
-3.49394
11
5.84144
21
-3.49394
0
LINE
8
BLACK
6
CONTINUOUS
10
5.84144
20
-3.49394
11
5.84003
21
-3.49379
0
LINE
8
BLACK
6
CONTINUOUS
10
5.84003
20
-3.49379
11
5.83924
21
-3.4937
0
LINE
8
BLACK
6
CONTINUOUS
10
5.83924
20
-3.4937
11
5.77045
21
-3.4937
0
LINE
8
BLACK
6
CONTINUOUS
10
5.77045
20
-3.4937
11
5.76966
21
-3.49379
0
LINE
8
BLACK
6
CONTINUOUS
10
5.76966
20
-3.49379
11
5.76824
21
-3.49394
0
LINE
8
BLACK
6
CONTINUOUS
10
5.76824
20
-3.49394
11
5.76824
21
-3.49394
0
LINE
8
BLACK
6
CONTINUOUS
10
5.76824
20
-3.49394
11
5.768
21
-3.49397
0
LINE
8
BLACK
6
CONTINUOUS
10
5.768
20
-3.49397
11
5.76263
21
-3.49598
0
LINE
8
BLACK
6
CONTINUOUS
10
5.76263
20
-3.49598
11
5.75804
21
-3.49942
0
LINE
8
BLACK
6
CONTINUOUS
10
5.75804
20
-3.49942
11
5.75787
21
-3.49964
0
LINE
8
BLACK
6
CONTINUOUS
10
5.75787
20
-3.49964
11
5.75763
21
-3.49996
0
LINE
8
BLACK
6
CONTINUOUS
10
5.75763
20
-3.49996
11
5.7546
21
-3.50401
0
LINE
8
BLACK
6
CONTINUOUS
10
5.7546
20
-3.50401
11
5.75259
21
-3.50938
0
LINE
8
BLACK
6
CONTINUOUS
10
5.75259
20
-3.50938
11
5.75232
21
-3.51183
0
LINE
8
BLACK
6
CONTINUOUS
10
5.75232
20
-3.51183
11
5.75232
21
-3.58062
0
LINE
8
BLACK
6
CONTINUOUS
10
5.75232
20
-3.58062
11
5.75233
21
-3.58072
0
LINE
8
BLACK
6
CONTINUOUS
10
5.75233
20
-3.58072
11
5.75242
21
-3.58149
0
LINE
8
BLACK
6
CONTINUOUS
10
6.08179
20
-3.4021
11
6.08515
21
-3.40864
0
LINE
8
BLACK
6
CONTINUOUS
10
6.08515
20
-3.40864
11
6.08527
21
-3.40879
0
LINE
8
BLACK
6
CONTINUOUS
10
6.08527
20
-3.40879
11
6.08527
21
-3.40879
0
LINE
8
BLACK
6
CONTINUOUS
10
6.08527
20
-3.40879
11
6.08614
21
-3.40989
0
LINE
8
BLACK
6
CONTINUOUS
10
6.08614
20
-3.40989
11
6.08698
21
-3.41231
0
LINE
8
BLACK
6
CONTINUOUS
10
6.08698
20
-3.41231
11
6.08698
21
-3.45566
0
LINE
8
BLACK
6
CONTINUOUS
10
6.08698
20
-3.45566
11
6.08694
21
-3.45624
0
LINE
8
BLACK
6
CONTINUOUS
10
6.08694
20
-3.45624
11
6.0868
21
-3.45717
0
LINE
8
BLACK
6
CONTINUOUS
10
6.0868
20
-3.45717
11
6.08681
21
-3.45739
0
LINE
8
BLACK
6
CONTINUOUS
10
6.08681
20
-3.45739
11
6.08697
21
-3.45928
0
LINE
8
BLACK
6
CONTINUOUS
10
6.08697
20
-3.45928
11
6.08698
21
-3.4596
0
LINE
8
BLACK
6
CONTINUOUS
10
6.08698
20
-3.4596
11
6.08698
21
-3.45996
0
LINE
8
BLACK
6
CONTINUOUS
10
6.08698
20
-3.45996
11
6.08699
21
-3.46007
0
LINE
8
BLACK
6
CONTINUOUS
10
6.08699
20
-3.46007
11
6.08699
21
-3.46007
0
LINE
8
BLACK
6
CONTINUOUS
10
6.08699
20
-3.46007
11
6.08711
21
-3.46109
0
LINE
8
BLACK
6
CONTINUOUS
10
6.08711
20
-3.46109
11
6.08713
21
-3.46122
0
LINE
8
BLACK
6
CONTINUOUS
10
6.08713
20
-3.46122
11
6.08736
21
-3.46411
0
LINE
8
BLACK
6
CONTINUOUS
10
6.08736
20
-3.46411
11
6.08743
21
-3.46432
0
LINE
8
BLACK
6
CONTINUOUS
10
6.08743
20
-3.46432
11
6.08747
21
-3.46454
0
LINE
8
BLACK
6
CONTINUOUS
10
6.08747
20
-3.46454
11
6.08747
21
-3.46454
0
LINE
8
BLACK
6
CONTINUOUS
10
6.08747
20
-3.46454
11
6.0875
21
-3.46469
0
LINE
8
BLACK
6
CONTINUOUS
10
6.0875
20
-3.46469
11
6.08751
21
-3.46469
0
LINE
8
BLACK
6
CONTINUOUS
10
6.08751
20
-3.46469
11
6.08756
21
-3.46491
0
LINE
8
BLACK
6
CONTINUOUS
10
6.08756
20
-3.46491
11
6.08758
21
-3.46513
0
LINE
8
BLACK
6
CONTINUOUS
10
6.08758
20
-3.46513
11
6.08766
21
-3.46534
0
LINE
8
BLACK
6
CONTINUOUS
10
6.08766
20
-3.46534
11
6.08857
21
-3.46785
0
LINE
8
BLACK
6
CONTINUOUS
10
6.08857
20
-3.46785
11
6.08861
21
-3.46798
0
LINE
8
BLACK
6
CONTINUOUS
10
6.08861
20
-3.46798
11
6.08951
21
-3.47073
0
LINE
8
BLACK
6
CONTINUOUS
10
6.08951
20
-3.47073
11
6.08962
21
-3.47092
0
LINE
8
BLACK
6
CONTINUOUS
10
6.08962
20
-3.47092
11
6.08972
21
-3.47113
0
LINE
8
BLACK
6
CONTINUOUS
10
6.08972
20
-3.47113
11
6.08971
21
-3.47113
0
LINE
8
BLACK
6
CONTINUOUS
10
6.08971
20
-3.47113
11
6.08978
21
-3.47126
0
LINE
8
BLACK
6
CONTINUOUS
10
6.08978
20
-3.47126
11
6.08978
21
-3.47126
0
LINE
8
BLACK
6
CONTINUOUS
10
6.08978
20
-3.47126
11
6.08988
21
-3.47146
0
LINE
8
BLACK
6
CONTINUOUS
10
6.08988
20
-3.47146
11
6.08996
21
-3.47168
0
LINE
8
BLACK
6
CONTINUOUS
10
6.08996
20
-3.47168
11
6.09008
21
-3.47187
0
LINE
8
BLACK
6
CONTINUOUS
10
6.09008
20
-3.47187
11
6.09155
21
-3.4741
0
LINE
8
BLACK
6
CONTINUOUS
10
6.09155
20
-3.4741
11
6.09162
21
-3.47421
0
LINE
8
BLACK
6
CONTINUOUS
10
6.09162
20
-3.47421
11
6.09312
21
-3.47668
0
LINE
8
BLACK
6
CONTINUOUS
10
6.09312
20
-3.47668
11
6.09323
21
-3.47681
0
LINE
8
BLACK
6
CONTINUOUS
10
6.09323
20
-3.47681
11
6.09341
21
-3.47701
0
LINE
8
BLACK
6
CONTINUOUS
10
6.09341
20
-3.47701
11
6.0934
21
-3.47702
0
LINE
8
BLACK
6
CONTINUOUS
10
6.0934
20
-3.47702
11
6.0935
21
-3.47714
0
LINE
8
BLACK
6
CONTINUOUS
10
6.0935
20
-3.47714
11
6.09351
21
-3.47714
0
LINE
8
BLACK
6
CONTINUOUS
10
6.09351
20
-3.47714
11
6.09365
21
-3.47731
0
LINE
8
BLACK
6
CONTINUOUS
10
6.09365
20
-3.47731
11
6.09378
21
-3.4775
0
LINE
8
BLACK
6
CONTINUOUS
10
6.09378
20
-3.4775
11
6.09394
21
-3.47766
0
LINE
8
BLACK
6
CONTINUOUS
10
6.09394
20
-3.47766
11
6.096
21
-3.47961
0
LINE
8
BLACK
6
CONTINUOUS
10
6.096
20
-3.47961
11
6.09608
21
-3.47968
0
LINE
8
BLACK
6
CONTINUOUS
10
6.09608
20
-3.47968
11
6.16681
21
-3.55042
0
LINE
8
BLACK
6
CONTINUOUS
10
6.16681
20
-3.55042
11
6.16791
21
-3.55257
0
LINE
8
BLACK
6
CONTINUOUS
10
6.16791
20
-3.55257
11
6.16794
21
-3.55285
0
LINE
8
BLACK
6
CONTINUOUS
10
6.16794
20
-3.55285
11
6.16798
21
-3.55324
0
LINE
8
BLACK
6
CONTINUOUS
10
6.16798
20
-3.55324
11
6.17
21
-3.56031
0
LINE
8
BLACK
6
CONTINUOUS
10
6.17
20
-3.56031
11
6.17337
21
-3.56685
0
LINE
8
BLACK
6
CONTINUOUS
10
6.17337
20
-3.56685
11
6.17794
21
-3.57262
0
LINE
8
BLACK
6
CONTINUOUS
10
6.17794
20
-3.57262
11
6.17808
21
-3.57274
0
LINE
8
BLACK
6
CONTINUOUS
10
6.17808
20
-3.57274
11
6.17808
21
-3.57274
0
LINE
8
BLACK
6
CONTINUOUS
10
6.17808
20
-3.57274
11
6.17938
21
-3.57385
0
LINE
8
BLACK
6
CONTINUOUS
10
6.17938
20
-3.57385
11
6.18354
21
-3.57739
0
LINE
8
BLACK
6
CONTINUOUS
10
6.18354
20
-3.57739
11
6.18371
21
-3.57748
0
LINE
8
BLACK
6
CONTINUOUS
10
6.18371
20
-3.57748
11
6.18371
21
-3.57748
0
LINE
8
BLACK
6
CONTINUOUS
10
6.18371
20
-3.57748
11
6.1851
21
-3.57826
0
LINE
8
BLACK
6
CONTINUOUS
10
6.1851
20
-3.57826
11
6.18996
21
-3.58098
0
LINE
8
BLACK
6
CONTINUOUS
10
6.18996
20
-3.58098
11
6.19014
21
-3.58104
0
LINE
8
BLACK
6
CONTINUOUS
10
6.19014
20
-3.58104
11
6.19678
21
-3.58319
0
LINE
8
BLACK
6
CONTINUOUS
10
6.19678
20
-3.58319
11
6.19678
21
-3.58319
0
LINE
8
BLACK
6
CONTINUOUS
10
6.19678
20
-3.58319
11
6.19696
21
-3.58325
0
LINE
8
BLACK
6
CONTINUOUS
10
6.19696
20
-3.58325
11
6.20427
21
-3.58412
0
LINE
8
BLACK
6
CONTINUOUS
10
6.20427
20
-3.58412
11
6.20446
21
-3.58411
0
LINE
8
BLACK
6
CONTINUOUS
10
6.20446
20
-3.58411
11
6.20446
21
-3.58411
0
LINE
8
BLACK
6
CONTINUOUS
10
6.20446
20
-3.58411
11
6.20686
21
-3.58392
0
LINE
8
BLACK
6
CONTINUOUS
10
6.20686
20
-3.58392
11
6.2116
21
-3.58356
0
LINE
8
BLACK
6
CONTINUOUS
10
6.2116
20
-3.58356
11
6.21869
21
-3.58158
0
LINE
8
BLACK
6
CONTINUOUS
10
6.21869
20
-3.58158
11
6.21886
21
-3.58149
0
LINE
8
BLACK
6
CONTINUOUS
10
6.21886
20
-3.58149
11
6.22509
21
-3.57835
0
LINE
8
BLACK
6
CONTINUOUS
10
6.22509
20
-3.57835
11
6.22509
21
-3.57835
0
LINE
8
BLACK
6
CONTINUOUS
10
6.22509
20
-3.57835
11
6.22526
21
-3.57826
0
LINE
8
BLACK
6
CONTINUOUS
10
6.22526
20
-3.57826
11
6.23106
21
-3.57373
0
LINE
8
BLACK
6
CONTINUOUS
10
6.23106
20
-3.57373
11
6.23118
21
-3.57359
0
LINE
8
BLACK
6
CONTINUOUS
10
6.23118
20
-3.57359
11
6.23118
21
-3.57359
0
LINE
8
BLACK
6
CONTINUOUS
10
6.23118
20
-3.57359
11
6.23574
21
-3.56831
0
LINE
8
BLACK
6
CONTINUOUS
10
6.23574
20
-3.56831
11
6.23586
21
-3.56816
0
LINE
8
BLACK
6
CONTINUOUS
10
6.23586
20
-3.56816
11
6.23652
21
-3.567
0
LINE
8
BLACK
6
CONTINUOUS
10
6.23652
20
-3.567
11
6.2394
21
-3.56193
0
LINE
8
BLACK
6
CONTINUOUS
10
6.2394
20
-3.56193
11
6.2394
21
-3.56193
0
LINE
8
BLACK
6
CONTINUOUS
10
6.2394
20
-3.56193
11
6.2395
21
-3.56176
0
LINE
8
BLACK
6
CONTINUOUS
10
6.2395
20
-3.56176
11
6.24004
21
-3.56012
0
LINE
8
BLACK
6
CONTINUOUS
10
6.24004
20
-3.56012
11
6.24176
21
-3.55496
0
LINE
8
BLACK
6
CONTINUOUS
10
6.24176
20
-3.55496
11
6.24176
21
-3.55496
0
LINE
8
BLACK
6
CONTINUOUS
10
6.24176
20
-3.55496
11
6.24182
21
-3.55478
0
LINE
8
BLACK
6
CONTINUOUS
10
6.24182
20
-3.55478
11
6.24204
21
-3.55305
0
LINE
8
BLACK
6
CONTINUOUS
10
6.24204
20
-3.55305
11
6.24273
21
-3.54759
0
LINE
8
BLACK
6
CONTINUOUS
10
6.24273
20
-3.54759
11
6.24274
21
-3.54748
0
LINE
8
BLACK
6
CONTINUOUS
10
6.24274
20
-3.54748
11
6.24276
21
-3.54643
0
LINE
8
BLACK
6
CONTINUOUS
10
6.24276
20
-3.54643
11
6.24204
21
-3.53911
0
LINE
8
BLACK
6
CONTINUOUS
10
6.24204
20
-3.53911
11
6.23991
21
-3.53206
0
LINE
8
BLACK
6
CONTINUOUS
10
6.23991
20
-3.53206
11
6.23646
21
-3.52557
0
LINE
8
BLACK
6
CONTINUOUS
10
6.23646
20
-3.52557
11
6.23181
21
-3.51986
0
LINE
8
BLACK
6
CONTINUOUS
10
6.23181
20
-3.51986
11
6.22978
21
-3.51819
0
LINE
8
BLACK
6
CONTINUOUS
10
6.22978
20
-3.51819
11
6.22629
21
-3.5153
0
LINE
8
BLACK
6
CONTINUOUS
10
6.22629
20
-3.5153
11
6.22629
21
-3.5153
0
LINE
8
BLACK
6
CONTINUOUS
10
6.22629
20
-3.5153
11
6.22614
21
-3.51517
0
LINE
8
BLACK
6
CONTINUOUS
10
6.22614
20
-3.51517
11
6.21967
21
-3.51167
0
LINE
8
BLACK
6
CONTINUOUS
10
6.21967
20
-3.51167
11
6.21493
21
-3.51021
0
LINE
8
BLACK
6
CONTINUOUS
10
6.21493
20
-3.51021
11
6.21282
21
-3.50955
0
LINE
8
BLACK
6
CONTINUOUS
10
6.21282
20
-3.50955
11
6.21282
21
-3.50955
0
LINE
8
BLACK
6
CONTINUOUS
10
6.21282
20
-3.50955
11
6.21264
21
-3.5095
0
LINE
8
BLACK
6
CONTINUOUS
10
6.21264
20
-3.5095
11
6.21245
21
-3.50948
0
LINE
8
BLACK
6
CONTINUOUS
10
6.21245
20
-3.50948
11
6.21245
21
-3.50948
0
LINE
8
BLACK
6
CONTINUOUS
10
6.21245
20
-3.50948
11
6.21202
21
-3.50943
0
LINE
8
BLACK
6
CONTINUOUS
10
6.21202
20
-3.50943
11
6.21146
21
-3.50937
0
LINE
8
BLACK
6
CONTINUOUS
10
6.21146
20
-3.50937
11
6.20911
21
-3.50825
0
LINE
8
BLACK
6
CONTINUOUS
10
6.20911
20
-3.50825
11
6.14785
21
-3.44699
0
LINE
8
BLACK
6
CONTINUOUS
10
6.14785
20
-3.44699
11
6.14675
21
-3.44484
0
LINE
8
BLACK
6
CONTINUOUS
10
6.14675
20
-3.44484
11
6.1467
21
-3.44423
0
LINE
8
BLACK
6
CONTINUOUS
10
6.1467
20
-3.44423
11
6.1467
21
-3.41762
0
LINE
8
BLACK
6
CONTINUOUS
10
6.1467
20
-3.41762
11
6.14745
21
-3.41533
0
LINE
8
BLACK
6
CONTINUOUS
10
6.14745
20
-3.41533
11
6.1494
21
-3.41392
0
LINE
8
BLACK
6
CONTINUOUS
10
6.1494
20
-3.41392
11
6.15181
21
-3.41392
0
LINE
8
BLACK
6
CONTINUOUS
10
6.15181
20
-3.41392
11
6.15376
21
-3.41533
0
LINE
8
BLACK
6
CONTINUOUS
10
6.15376
20
-3.41533
11
6.15431
21
-3.41642
0
LINE
8
BLACK
6
CONTINUOUS
10
6.15431
20
-3.41642
11
6.15491
21
-3.41826
0
LINE
8
BLACK
6
CONTINUOUS
10
6.15491
20
-3.41826
11
6.15502
21
-3.41846
0
LINE
8
BLACK
6
CONTINUOUS
10
6.15502
20
-3.41846
11
6.15512
21
-3.41866
0
LINE
8
BLACK
6
CONTINUOUS
10
6.15512
20
-3.41866
11
6.15511
21
-3.41866
0
LINE
8
BLACK
6
CONTINUOUS
10
6.15511
20
-3.41866
11
6.15518
21
-3.4188
0
LINE
8
BLACK
6
CONTINUOUS
10
6.15518
20
-3.4188
11
6.15518
21
-3.41879
0
LINE
8
BLACK
6
CONTINUOUS
10
6.15518
20
-3.41879
11
6.15528
21
-3.419
0
LINE
8
BLACK
6
CONTINUOUS
10
6.15528
20
-3.419
11
6.15536
21
-3.41921
0
LINE
8
BLACK
6
CONTINUOUS
10
6.15536
20
-3.41921
11
6.15548
21
-3.4194
0
LINE
8
BLACK
6
CONTINUOUS
10
6.15548
20
-3.4194
11
6.15695
21
-3.42163
0
LINE
8
BLACK
6
CONTINUOUS
10
6.15695
20
-3.42163
11
6.15702
21
-3.42174
0
LINE
8
BLACK
6
CONTINUOUS
10
6.15702
20
-3.42174
11
6.15852
21
-3.42422
0
LINE
8
BLACK
6
CONTINUOUS
10
6.15852
20
-3.42422
11
6.15881
21
-3.42454
0
LINE
8
BLACK
6
CONTINUOUS
10
6.15881
20
-3.42454
11
6.1588
21
-3.42455
0
LINE
8
BLACK
6
CONTINUOUS
10
6.1588
20
-3.42455
11
6.1589
21
-3.42467
0
LINE
8
BLACK
6
CONTINUOUS
10
6.1589
20
-3.42467
11
6.15891
21
-3.42467
0
LINE
8
BLACK
6
CONTINUOUS
10
6.15891
20
-3.42467
11
6.15905
21
-3.42484
0
LINE
8
BLACK
6
CONTINUOUS
10
6.15905
20
-3.42484
11
6.15918
21
-3.42503
0
LINE
8
BLACK
6
CONTINUOUS
10
6.15918
20
-3.42503
11
6.15934
21
-3.42519
0
LINE
8
BLACK
6
CONTINUOUS
10
6.15934
20
-3.42519
11
6.1614
21
-3.42714
0
LINE
8
BLACK
6
CONTINUOUS
10
6.1614
20
-3.42714
11
6.16148
21
-3.42721
0
LINE
8
BLACK
6
CONTINUOUS
10
6.16148
20
-3.42721
11
6.26947
21
-3.53521
0
LINE
8
BLACK
6
CONTINUOUS
10
6.26947
20
-3.53521
11
6.27057
21
-3.53736
0
LINE
8
BLACK
6
CONTINUOUS
10
6.27057
20
-3.53736
11
6.2706
21
-3.53764
0
LINE
8
BLACK
6
CONTINUOUS
10
6.2706
20
-3.53764
11
6.27063
21
-3.53803
0
LINE
8
BLACK
6
CONTINUOUS
10
6.27063
20
-3.53803
11
6.27266
21
-3.5451
0
LINE
8
BLACK
6
CONTINUOUS
10
6.27266
20
-3.5451
11
6.27603
21
-3.55164
0
LINE
8
BLACK
6
CONTINUOUS
10
6.27603
20
-3.55164
11
6.27614
21
-3.55179
0
LINE
8
BLACK
6
CONTINUOUS
10
6.27614
20
-3.55179
11
6.27614
21
-3.55179
0
LINE
8
BLACK
6
CONTINUOUS
10
6.27614
20
-3.55179
11
6.27701
21
-3.55289
0
LINE
8
BLACK
6
CONTINUOUS
10
6.27701
20
-3.55289
11
6.27785
21
-3.55531
0
LINE
8
BLACK
6
CONTINUOUS
10
6.27785
20
-3.55531
11
6.27785
21
-3.70986
0
LINE
8
BLACK
6
CONTINUOUS
10
6.27785
20
-3.70986
11
6.27711
21
-3.71215
0
LINE
8
BLACK
6
CONTINUOUS
10
6.27711
20
-3.71215
11
6.27576
21
-3.71331
0
LINE
8
BLACK
6
CONTINUOUS
10
6.27576
20
-3.71331
11
6.27237
21
-3.71508
0
LINE
8
BLACK
6
CONTINUOUS
10
6.27237
20
-3.71508
11
6.27237
21
-3.71509
0
LINE
8
BLACK
6
CONTINUOUS
10
6.27237
20
-3.71509
11
6.2722
21
-3.71517
0
LINE
8
BLACK
6
CONTINUOUS
10
6.2722
20
-3.71517
11
6.27205
21
-3.71529
0
LINE
8
BLACK
6
CONTINUOUS
10
6.27205
20
-3.71529
11
6.27205
21
-3.71529
0
LINE
8
BLACK
6
CONTINUOUS
10
6.27205
20
-3.71529
11
6.26661
21
-3.71966
0
LINE
8
BLACK
6
CONTINUOUS
10
6.26661
20
-3.71966
11
6.26646
21
-3.71978
0
LINE
8
BLACK
6
CONTINUOUS
10
6.26646
20
-3.71978
11
6.26634
21
-3.71993
0
LINE
8
BLACK
6
CONTINUOUS
10
6.26634
20
-3.71993
11
6.26634
21
-3.71993
0
LINE
8
BLACK
6
CONTINUOUS
10
6.26634
20
-3.71993
11
6.26492
21
-3.72163
0
LINE
8
BLACK
6
CONTINUOUS
10
6.26492
20
-3.72163
11
6.26173
21
-3.72542
0
LINE
8
BLACK
6
CONTINUOUS
10
6.26173
20
-3.72542
11
6.26164
21
-3.72559
0
LINE
8
BLACK
6
CONTINUOUS
10
6.26164
20
-3.72559
11
6.26164
21
-3.72559
0
LINE
8
BLACK
6
CONTINUOUS
10
6.26164
20
-3.72559
11
6.25845
21
-3.7314
0
LINE
8
BLACK
6
CONTINUOUS
10
6.25845
20
-3.7314
11
6.25819
21
-3.73187
0
LINE
8
BLACK
6
CONTINUOUS
10
6.25819
20
-3.73187
11
6.25813
21
-3.73205
0
LINE
8
BLACK
6
CONTINUOUS
10
6.25813
20
-3.73205
11
6.25813
21
-3.73205
0
LINE
8
BLACK
6
CONTINUOUS
10
6.25813
20
-3.73205
11
6.25602
21
-3.7387
0
LINE
8
BLACK
6
CONTINUOUS
10
6.25602
20
-3.7387
11
6.25602
21
-3.7387
0
LINE
8
BLACK
6
CONTINUOUS
10
6.25602
20
-3.7387
11
6.25597
21
-3.73888
0
LINE
8
BLACK
6
CONTINUOUS
10
6.25597
20
-3.73888
11
6.25594
21
-3.73907
0
LINE
8
BLACK
6
CONTINUOUS
10
6.25594
20
-3.73907
11
6.25563
21
-3.7419
0
LINE
8
BLACK
6
CONTINUOUS
10
6.25563
20
-3.7419
11
6.25514
21
-3.74619
0
LINE
8
BLACK
6
CONTINUOUS
10
6.25514
20
-3.74619
11
6.25516
21
-3.74638
0
LINE
8
BLACK
6
CONTINUOUS
10
6.25516
20
-3.74638
11
6.2557
21
-3.75286
0
LINE
8
BLACK
6
CONTINUOUS
10
6.2557
20
-3.75286
11
6.25576
21
-3.75353
0
LINE
8
BLACK
6
CONTINUOUS
10
6.25576
20
-3.75353
11
6.25779
21
-3.7606
0
LINE
8
BLACK
6
CONTINUOUS
10
6.25779
20
-3.7606
11
6.26115
21
-3.76714
0
LINE
8
BLACK
6
CONTINUOUS
10
6.26115
20
-3.76714
11
6.26572
21
-3.77291
0
LINE
8
BLACK
6
CONTINUOUS
10
6.26572
20
-3.77291
11
6.26587
21
-3.77303
0
LINE
8
BLACK
6
CONTINUOUS
10
6.26587
20
-3.77303
11
6.26587
21
-3.77303
0
LINE
8
BLACK
6
CONTINUOUS
10
6.26587
20
-3.77303
11
6.26717
21
-3.77414
0
LINE
8
BLACK
6
CONTINUOUS
10
6.26717
20
-3.77414
11
6.27133
21
-3.77768
0
LINE
8
BLACK
6
CONTINUOUS
10
6.27133
20
-3.77768
11
6.27149
21
-3.77777
0
LINE
8
BLACK
6
CONTINUOUS
10
6.27149
20
-3.77777
11
6.27149
21
-3.77777
0
LINE
8
BLACK
6
CONTINUOUS
10
6.27149
20
-3.77777
11
6.27289
21
-3.77855
0
LINE
8
BLACK
6
CONTINUOUS
10
6.27289
20
-3.77855
11
6.27775
21
-3.78127
0
LINE
8
BLACK
6
CONTINUOUS
10
6.27775
20
-3.78127
11
6.27793
21
-3.78133
0
LINE
8
BLACK
6
CONTINUOUS
10
6.27793
20
-3.78133
11
6.28457
21
-3.78348
0
LINE
8
BLACK
6
CONTINUOUS
10
6.28457
20
-3.78348
11
6.28457
21
-3.78348
0
LINE
8
BLACK
6
CONTINUOUS
10
6.28457
20
-3.78348
11
6.28475
21
-3.78354
0
LINE
8
BLACK
6
CONTINUOUS
10
6.28475
20
-3.78354
11
6.29205
21
-3.78441
0
LINE
8
BLACK
6
CONTINUOUS
10
6.29205
20
-3.78441
11
6.29224
21
-3.7844
0
LINE
8
BLACK
6
CONTINUOUS
10
6.29224
20
-3.7844
11
6.29224
21
-3.7844
0
LINE
8
BLACK
6
CONTINUOUS
10
6.29224
20
-3.7844
11
6.29464
21
-3.78421
0
LINE
8
BLACK
6
CONTINUOUS
10
6.29464
20
-3.78421
11
6.29939
21
-3.78385
0
LINE
8
BLACK
6
CONTINUOUS
10
6.29939
20
-3.78385
11
6.30648
21
-3.78187
0
LINE
8
BLACK
6
CONTINUOUS
10
6.30648
20
-3.78187
11
6.30665
21
-3.78178
0
LINE
8
BLACK
6
CONTINUOUS
10
6.30665
20
-3.78178
11
6.31287
21
-3.77864
0
LINE
8
BLACK
6
CONTINUOUS
10
6.31287
20
-3.77864
11
6.31287
21
-3.77864
0
LINE
8
BLACK
6
CONTINUOUS
10
6.31287
20
-3.77864
11
6.31304
21
-3.77855
0
LINE
8
BLACK
6
CONTINUOUS
10
6.31304
20
-3.77855
11
6.31884
21
-3.77402
0
LINE
8
BLACK
6
CONTINUOUS
10
6.31884
20
-3.77402
11
6.31897
21
-3.77388
0
LINE
8
BLACK
6
CONTINUOUS
10
6.31897
20
-3.77388
11
6.31897
21
-3.77388
0
LINE
8
BLACK
6
CONTINUOUS
10
6.31897
20
-3.77388
11
6.32353
21
-3.7686
0
LINE
8
BLACK
6
CONTINUOUS
10
6.32353
20
-3.7686
11
6.32365
21
-3.76845
0
LINE
8
BLACK
6
CONTINUOUS
10
6.32365
20
-3.76845
11
6.32431
21
-3.76729
0
LINE
8
BLACK
6
CONTINUOUS
10
6.32431
20
-3.76729
11
6.32719
21
-3.76222
0
LINE
8
BLACK
6
CONTINUOUS
10
6.32719
20
-3.76222
11
6.32719
21
-3.76222
0
LINE
8
BLACK
6
CONTINUOUS
10
6.32719
20
-3.76222
11
6.32728
21
-3.76205
0
LINE
8
BLACK
6
CONTINUOUS
10
6.32728
20
-3.76205
11
6.32961
21
-3.75507
0
LINE
8
BLACK
6
CONTINUOUS
10
6.32961
20
-3.75507
11
6.32963
21
-3.75488
0
LINE
8
BLACK
6
CONTINUOUS
10
6.32963
20
-3.75488
11
6.32989
21
-3.75286
0
LINE
8
BLACK
6
CONTINUOUS
10
6.32989
20
-3.75286
11
6.3307
21
-3.75093
0
LINE
8
BLACK
6
CONTINUOUS
10
6.3307
20
-3.75093
11
6.33077
21
-3.75084
0
LINE
8
BLACK
6
CONTINUOUS
10
6.33077
20
-3.75084
11
6.33086
21
-3.75073
0
LINE
8
BLACK
6
CONTINUOUS
10
6.33086
20
-3.75073
11
6.33273
21
-3.74853
0
LINE
8
BLACK
6
CONTINUOUS
10
6.33273
20
-3.74853
11
6.33283
21
-3.74833
0
LINE
8
BLACK
6
CONTINUOUS
10
6.33283
20
-3.74833
11
6.33296
21
-3.74814
0
LINE
8
BLACK
6
CONTINUOUS
10
6.33296
20
-3.74814
11
6.33296
21
-3.74814
0
LINE
8
BLACK
6
CONTINUOUS
10
6.33296
20
-3.74814
11
6.33304
21
-3.74802
0
LINE
8
BLACK
6
CONTINUOUS
10
6.33304
20
-3.74802
11
6.33304
21
-3.74802
0
LINE
8
BLACK
6
CONTINUOUS
10
6.33304
20
-3.74802
11
6.33316
21
-3.74782
0
LINE
8
BLACK
6
CONTINUOUS
10
6.33316
20
-3.74782
11
6.3333
21
-3.74764
0
LINE
8
BLACK
6
CONTINUOUS
10
6.3333
20
-3.74764
11
6.33397
21
-3.74619
0
LINE
8
BLACK
6
CONTINUOUS
10
6.33397
20
-3.74619
11
6.33452
21
-3.74502
0
LINE
8
BLACK
6
CONTINUOUS
10
6.33452
20
-3.74502
11
6.33458
21
-3.7449
0
LINE
8
BLACK
6
CONTINUOUS
10
6.33458
20
-3.7449
11
6.33473
21
-3.74461
0
LINE
8
BLACK
6
CONTINUOUS
10
6.33473
20
-3.74461
11
6.3359
21
-3.74233
0
LINE
8
BLACK
6
CONTINUOUS
10
6.3359
20
-3.74233
11
6.33595
21
-3.74211
0
LINE
8
BLACK
6
CONTINUOUS
10
6.33595
20
-3.74211
11
6.33603
21
-3.74189
0
LINE
8
BLACK
6
CONTINUOUS
10
6.33603
20
-3.74189
11
6.33603
21
-3.7419
0
LINE
8
BLACK
6
CONTINUOUS
10
6.33603
20
-3.7419
11
6.33608
21
-3.74176
0
LINE
8
BLACK
6
CONTINUOUS
10
6.33608
20
-3.74176
11
6.33608
21
-3.74176
0
LINE
8
BLACK
6
CONTINUOUS
10
6.33608
20
-3.74176
11
6.33615
21
-3.74154
0
LINE
8
BLACK
6
CONTINUOUS
10
6.33615
20
-3.74154
11
6.33625
21
-3.74134
0
LINE
8
BLACK
6
CONTINUOUS
10
6.33625
20
-3.74134
11
6.33683
21
-3.7385
0
LINE
8
BLACK
6
CONTINUOUS
10
6.33683
20
-3.7385
11
6.33686
21
-3.73837
0
LINE
8
BLACK
6
CONTINUOUS
10
6.33686
20
-3.73837
11
6.33755
21
-3.73556
0
LINE
8
BLACK
6
CONTINUOUS
10
6.33755
20
-3.73556
11
6.33758
21
-3.73512
0
LINE
8
BLACK
6
CONTINUOUS
10
6.33758
20
-3.73512
11
6.33759
21
-3.73512
0
LINE
8
BLACK
6
CONTINUOUS
10
6.33759
20
-3.73512
11
6.33761
21
-3.73497
0
LINE
8
BLACK
6
CONTINUOUS
10
6.33761
20
-3.73497
11
6.3376
21
-3.73497
0
LINE
8
BLACK
6
CONTINUOUS
10
6.3376
20
-3.73497
11
6.33762
21
-3.73474
0
LINE
8
BLACK
6
CONTINUOUS
10
6.33762
20
-3.73474
11
6.33766
21
-3.73452
0
LINE
8
BLACK
6
CONTINUOUS
10
6.33766
20
-3.73452
11
6.33758
21
-3.73146
0
LINE
8
BLACK
6
CONTINUOUS
10
6.33758
20
-3.73146
11
6.33758
21
-3.73135
0
LINE
8
BLACK
6
CONTINUOUS
10
6.33758
20
-3.73135
11
6.33758
21
-3.5555
0
LINE
8
BLACK
6
CONTINUOUS
10
6.33758
20
-3.5555
11
6.33829
21
-3.55325
0
LINE
8
BLACK
6
CONTINUOUS
10
6.33829
20
-3.55325
11
6.3384
21
-3.5531
0
LINE
8
BLACK
6
CONTINUOUS
10
6.3384
20
-3.5531
11
6.33852
21
-3.55295
0
LINE
8
BLACK
6
CONTINUOUS
10
6.33852
20
-3.55295
11
6.33862
21
-3.55279
0
LINE
8
BLACK
6
CONTINUOUS
10
6.33862
20
-3.55279
11
6.34206
21
-3.54672
0
LINE
8
BLACK
6
CONTINUOUS
10
6.34206
20
-3.54672
11
6.34206
21
-3.54672
0
LINE
8
BLACK
6
CONTINUOUS
10
6.34206
20
-3.54672
11
6.34216
21
-3.54655
0
LINE
8
BLACK
6
CONTINUOUS
10
6.34216
20
-3.54655
11
6.3427
21
-3.54492
0
LINE
8
BLACK
6
CONTINUOUS
10
6.3427
20
-3.54492
11
6.34442
21
-3.53975
0
LINE
8
BLACK
6
CONTINUOUS
10
6.34442
20
-3.53975
11
6.34442
21
-3.53975
0
LINE
8
BLACK
6
CONTINUOUS
10
6.34442
20
-3.53975
11
6.34448
21
-3.53957
0
LINE
8
BLACK
6
CONTINUOUS
10
6.34448
20
-3.53957
11
6.3447
21
-3.53784
0
LINE
8
BLACK
6
CONTINUOUS
10
6.3447
20
-3.53784
11
6.34539
21
-3.53238
0
LINE
8
BLACK
6
CONTINUOUS
10
6.34539
20
-3.53238
11
6.3454
21
-3.53227
0
LINE
8
BLACK
6
CONTINUOUS
10
6.3454
20
-3.53227
11
6.34542
21
-3.53122
0
LINE
8
BLACK
6
CONTINUOUS
10
6.34542
20
-3.53122
11
6.3447
21
-3.5239
0
LINE
8
BLACK
6
CONTINUOUS
10
6.3447
20
-3.5239
11
6.34257
21
-3.51685
0
LINE
8
BLACK
6
CONTINUOUS
10
6.34257
20
-3.51685
11
6.33912
21
-3.51036
0
LINE
8
BLACK
6
CONTINUOUS
10
6.33912
20
-3.51036
11
6.33447
21
-3.50465
0
LINE
8
BLACK
6
CONTINUOUS
10
6.33447
20
-3.50465
11
6.3337
21
-3.50402
0
LINE
8
BLACK
6
CONTINUOUS
10
6.3337
20
-3.50402
11
6.32895
21
-3.50009
0
LINE
8
BLACK
6
CONTINUOUS
10
6.32895
20
-3.50009
11
6.32895
21
-3.50009
0
LINE
8
BLACK
6
CONTINUOUS
10
6.32895
20
-3.50009
11
6.3288
21
-3.49996
0
LINE
8
BLACK
6
CONTINUOUS
10
6.3288
20
-3.49996
11
6.32233
21
-3.49647
0
LINE
8
BLACK
6
CONTINUOUS
10
6.32233
20
-3.49647
11
6.32004
21
-3.49576
0
LINE
8
BLACK
6
CONTINUOUS
10
6.32004
20
-3.49576
11
6.31548
21
-3.49435
0
LINE
8
BLACK
6
CONTINUOUS
10
6.31548
20
-3.49435
11
6.31548
21
-3.49435
0
LINE
8
BLACK
6
CONTINUOUS
10
6.31548
20
-3.49435
11
6.3153
21
-3.49429
0
LINE
8
BLACK
6
CONTINUOUS
10
6.3153
20
-3.49429
11
6.31511
21
-3.49427
0
LINE
8
BLACK
6
CONTINUOUS
10
6.31511
20
-3.49427
11
6.31511
21
-3.49427
0
LINE
8
BLACK
6
CONTINUOUS
10
6.31511
20
-3.49427
11
6.31468
21
-3.49422
0
LINE
8
BLACK
6
CONTINUOUS
10
6.31468
20
-3.49422
11
6.31412
21
-3.49417
0
LINE
8
BLACK
6
CONTINUOUS
10
6.31412
20
-3.49417
11
6.31177
21
-3.49305
0
LINE
8
BLACK
6
CONTINUOUS
10
6.31177
20
-3.49305
11
6.21325
21
-3.39452
0
LINE
8
BLACK
6
CONTINUOUS
10
6.21325
20
-3.39452
11
6.21215
21
-3.39237
0
LINE
8
BLACK
6
CONTINUOUS
10
6.21215
20
-3.39237
11
6.2121
21
-3.39176
0
LINE
8
BLACK
6
CONTINUOUS
10
6.2121
20
-3.39176
11
6.2121
21
-3.3609
0
LINE
8
BLACK
6
CONTINUOUS
10
6.2121
20
-3.3609
11
6.21282
21
-3.35865
0
LINE
8
BLACK
6
CONTINUOUS
10
6.21282
20
-3.35865
11
6.21293
21
-3.3585
0
LINE
8
BLACK
6
CONTINUOUS
10
6.21293
20
-3.3585
11
6.21305
21
-3.35835
0
LINE
8
BLACK
6
CONTINUOUS
10
6.21305
20
-3.35835
11
6.21668
21
-3.35195
0
LINE
8
BLACK
6
CONTINUOUS
10
6.21668
20
-3.35195
11
6.21901
21
-3.34497
0
LINE
8
BLACK
6
CONTINUOUS
10
6.21901
20
-3.34497
11
6.21993
21
-3.33767
0
LINE
8
BLACK
6
CONTINUOUS
10
6.21993
20
-3.33767
11
6.21994
21
-3.33662
0
LINE
8
BLACK
6
CONTINUOUS
10
6.21994
20
-3.33662
11
6.21923
21
-3.3293
0
LINE
8
BLACK
6
CONTINUOUS
10
6.21923
20
-3.3293
11
6.21906
21
-3.32876
0
LINE
8
BLACK
6
CONTINUOUS
10
6.21906
20
-3.32876
11
6.21912
21
-3.32636
0
LINE
8
BLACK
6
CONTINUOUS
10
6.21912
20
-3.32636
11
6.22057
21
-3.32444
0
LINE
8
BLACK
6
CONTINUOUS
10
6.22057
20
-3.32444
11
6.2228
21
-3.32374
0
LINE
8
BLACK
6
CONTINUOUS
10
6.2228
20
-3.32374
11
6.27924
21
-3.32374
0
LINE
8
BLACK
6
CONTINUOUS
10
6.27924
20
-3.32374
11
6.28003
21
-3.32365
0
LINE
8
BLACK
6
CONTINUOUS
10
6.28003
20
-3.32365
11
6.28144
21
-3.3235
0
LINE
8
BLACK
6
CONTINUOUS
10
6.28144
20
-3.3235
11
6.28144
21
-3.3235
0
LINE
8
BLACK
6
CONTINUOUS
10
6.28144
20
-3.3235
11
6.28169
21
-3.32347
0
LINE
8
BLACK
6
CONTINUOUS
10
6.28169
20
-3.32347
11
6.28321
21
-3.3229
0
LINE
8
BLACK
6
CONTINUOUS
10
6.28321
20
-3.3229
11
6.2868
21
-3.32156
0
LINE
8
BLACK
6
CONTINUOUS
10
6.2868
20
-3.32156
11
6.2868
21
-3.32156
0
LINE
8
BLACK
6
CONTINUOUS
10
6.2868
20
-3.32156
11
6.28706
21
-3.32146
0
LINE
8
BLACK
6
CONTINUOUS
10
6.28706
20
-3.32146
11
6.29164
21
-3.31802
0
LINE
8
BLACK
6
CONTINUOUS
10
6.29164
20
-3.31802
11
6.29508
21
-3.31343
0
LINE
8
BLACK
6
CONTINUOUS
10
6.29508
20
-3.31343
11
6.2971
21
-3.30806
0
LINE
8
BLACK
6
CONTINUOUS
10
6.2971
20
-3.30806
11
6.29736
21
-3.30562
0
LINE
8
BLACK
6
CONTINUOUS
10
6.29736
20
-3.30562
11
6.29736
21
-3.23683
0
LINE
8
BLACK
6
CONTINUOUS
10
6.29736
20
-3.23683
11
6.2971
21
-3.23438
0
LINE
8
BLACK
6
CONTINUOUS
10
6.2971
20
-3.23438
11
6.29537
21
-3.22978
0
LINE
8
BLACK
6
CONTINUOUS
10
6.29537
20
-3.22978
11
6.29518
21
-3.22927
0
LINE
8
BLACK
6
CONTINUOUS
10
6.29518
20
-3.22927
11
6.29518
21
-3.22927
0
LINE
8
BLACK
6
CONTINUOUS
10
6.29518
20
-3.22927
11
6.29508
21
-3.22901
0
LINE
8
BLACK
6
CONTINUOUS
10
6.29508
20
-3.22901
11
6.29164
21
-3.22442
0
LINE
8
BLACK
6
CONTINUOUS
10
6.29164
20
-3.22442
11
6.29142
21
-3.22425
0
LINE
8
BLACK
6
CONTINUOUS
10
6.29142
20
-3.22425
11
6.29123
21
-3.22406
0
LINE
8
BLACK
6
CONTINUOUS
10
6.29123
20
-3.22406
11
6.29129
21
-3.22399
0
LINE
8
BLACK
6
CONTINUOUS
10
6.29129
20
-3.22399
11
6.29015
21
-3.22237
0
LINE
8
BLACK
6
CONTINUOUS
10
6.29015
20
-3.22237
11
6.29019
21
-3.21996
0
LINE
8
BLACK
6
CONTINUOUS
10
6.29019
20
-3.21996
11
6.29129
21
-3.21845
0
LINE
8
BLACK
6
CONTINUOUS
10
6.29129
20
-3.21845
11
6.29123
21
-3.21838
0
LINE
8
BLACK
6
CONTINUOUS
10
6.29123
20
-3.21838
11
6.29142
21
-3.21819
0
LINE
8
BLACK
6
CONTINUOUS
10
6.29142
20
-3.21819
11
6.29164
21
-3.21802
0
LINE
8
BLACK
6
CONTINUOUS
10
6.29164
20
-3.21802
11
6.29508
21
-3.21343
0
LINE
8
BLACK
6
CONTINUOUS
10
6.29508
20
-3.21343
11
6.2971
21
-3.20806
0
LINE
8
BLACK
6
CONTINUOUS
10
6.2971
20
-3.20806
11
6.29736
21
-3.20562
0
LINE
8
BLACK
6
CONTINUOUS
10
6.29736
20
-3.20562
11
6.29736
21
-3.20498
0
LINE
8
BLACK
6
CONTINUOUS
10
6.29736
20
-3.20498
11
6.29811
21
-3.20269
0
LINE
8
BLACK
6
CONTINUOUS
10
6.29811
20
-3.20269
11
6.30006
21
-3.20127
0
LINE
8
BLACK
6
CONTINUOUS
10
6.30006
20
-3.20127
11
6.30126
21
-3.20108
0
LINE
8
BLACK
6
CONTINUOUS
10
6.30126
20
-3.20108
11
6.51944
21
-3.20108
0
LINE
8
BLACK
6
CONTINUOUS
10
6.51944
20
-3.20108
11
6.52173
21
-3.20183
0
LINE
8
BLACK
6
CONTINUOUS
10
6.52173
20
-3.20183
11
6.5222
21
-3.20222
0
LINE
8
BLACK
6
CONTINUOUS
10
6.5222
20
-3.20222
11
6.52278
21
-3.20281
0
LINE
8
BLACK
6
CONTINUOUS
10
6.52278
20
-3.20281
11
6.52387
21
-3.20495
0
LINE
8
BLACK
6
CONTINUOUS
10
6.52387
20
-3.20495
11
6.52391
21
-3.20524
0
LINE
8
BLACK
6
CONTINUOUS
10
6.52391
20
-3.20524
11
6.52394
21
-3.20562
0
LINE
8
BLACK
6
CONTINUOUS
10
6.52394
20
-3.20562
11
6.52597
21
-3.2127
0
LINE
8
BLACK
6
CONTINUOUS
10
6.52597
20
-3.2127
11
6.5268
21
-3.21432
0
LINE
8
BLACK
6
CONTINUOUS
10
6.5268
20
-3.21432
11
6.52892
21
-3.21845
0
LINE
8
BLACK
6
CONTINUOUS
10
6.52892
20
-3.21845
11
6.52933
21
-3.21924
0
LINE
8
BLACK
6
CONTINUOUS
10
6.52933
20
-3.21924
11
6.5339
21
-3.22501
0
LINE
8
BLACK
6
CONTINUOUS
10
6.5339
20
-3.22501
11
6.53405
21
-3.22513
0
LINE
8
BLACK
6
CONTINUOUS
10
6.53405
20
-3.22513
11
6.53405
21
-3.22513
0
LINE
8
BLACK
6
CONTINUOUS
10
6.53405
20
-3.22513
11
6.53535
21
-3.22624
0
LINE
8
BLACK
6
CONTINUOUS
10
6.53535
20
-3.22624
11
6.53951
21
-3.22978
0
LINE
8
BLACK
6
CONTINUOUS
10
6.53951
20
-3.22978
11
6.53967
21
-3.22987
0
LINE
8
BLACK
6
CONTINUOUS
10
6.53967
20
-3.22987
11
6.53967
21
-3.22987
0
LINE
8
BLACK
6
CONTINUOUS
10
6.53967
20
-3.22987
11
6.54104
21
-3.23064
0
LINE
8
BLACK
6
CONTINUOUS
10
6.54104
20
-3.23064
11
6.54593
21
-3.23337
0
LINE
8
BLACK
6
CONTINUOUS
10
6.54593
20
-3.23337
11
6.54611
21
-3.23343
0
LINE
8
BLACK
6
CONTINUOUS
10
6.54611
20
-3.23343
11
6.55275
21
-3.23558
0
LINE
8
BLACK
6
CONTINUOUS
10
6.55275
20
-3.23558
11
6.55275
21
-3.23558
0
LINE
8
BLACK
6
CONTINUOUS
10
6.55275
20
-3.23558
11
6.55293
21
-3.23564
0
LINE
8
BLACK
6
CONTINUOUS
10
6.55293
20
-3.23564
11
6.56023
21
-3.23651
0
LINE
8
BLACK
6
CONTINUOUS
10
6.56023
20
-3.23651
11
6.56042
21
-3.2365
0
LINE
8
BLACK
6
CONTINUOUS
10
6.56042
20
-3.2365
11
6.56042
21
-3.2365
0
LINE
8
BLACK
6
CONTINUOUS
10
6.56042
20
-3.2365
11
6.56283
21
-3.23631
0
LINE
8
BLACK
6
CONTINUOUS
10
6.56283
20
-3.23631
11
6.56757
21
-3.23595
0
LINE
8
BLACK
6
CONTINUOUS
10
6.56757
20
-3.23595
11
6.57466
21
-3.23397
0
LINE
8
BLACK
6
CONTINUOUS
10
6.57466
20
-3.23397
11
6.57483
21
-3.23388
0
LINE
8
BLACK
6
CONTINUOUS
10
6.57483
20
-3.23388
11
6.58105
21
-3.23074
0
LINE
8
BLACK
6
CONTINUOUS
10
6.58105
20
-3.23074
11
6.58105
21
-3.23074
0
LINE
8
BLACK
6
CONTINUOUS
10
6.58105
20
-3.23074
11
6.58122
21
-3.23065
0
LINE
8
BLACK
6
CONTINUOUS
10
6.58122
20
-3.23065
11
6.58702
21
-3.22612
0
LINE
8
BLACK
6
CONTINUOUS
10
6.58702
20
-3.22612
11
6.58715
21
-3.22598
0
LINE
8
BLACK
6
CONTINUOUS
10
6.58715
20
-3.22598
11
6.58715
21
-3.22598
0
LINE
8
BLACK
6
CONTINUOUS
10
6.58715
20
-3.22598
11
6.59171
21
-3.2207
0
LINE
8
BLACK
6
CONTINUOUS
10
6.59171
20
-3.2207
11
6.59183
21
-3.22055
0
LINE
8
BLACK
6
CONTINUOUS
10
6.59183
20
-3.22055
11
6.59249
21
-3.21939
0
LINE
8
BLACK
6
CONTINUOUS
10
6.59249
20
-3.21939
11
6.59537
21
-3.21432
0
LINE
8
BLACK
6
CONTINUOUS
10
6.59537
20
-3.21432
11
6.59537
21
-3.21432
0
LINE
8
BLACK
6
CONTINUOUS
10
6.59537
20
-3.21432
11
6.59547
21
-3.21415
0
LINE
8
BLACK
6
CONTINUOUS
10
6.59547
20
-3.21415
11
6.5957
21
-3.21343
0
LINE
8
BLACK
6
CONTINUOUS
10
6.5957
20
-3.21343
11
6.59773
21
-3.20735
0
LINE
8
BLACK
6
CONTINUOUS
10
6.59773
20
-3.20735
11
6.59773
21
-3.20735
0
LINE
8
BLACK
6
CONTINUOUS
10
6.59773
20
-3.20735
11
6.59779
21
-3.20717
0
LINE
8
BLACK
6
CONTINUOUS
10
6.59779
20
-3.20717
11
6.59801
21
-3.20543
0
LINE
8
BLACK
6
CONTINUOUS
10
6.59801
20
-3.20543
11
6.5987
21
-3.19998
0
LINE
8
BLACK
6
CONTINUOUS
10
6.5987
20
-3.19998
11
6.59871
21
-3.19987
0
LINE
8
BLACK
6
CONTINUOUS
10
6.59871
20
-3.19987
11
6.59872
21
-3.19882
0
LINE
8
BLACK
6
CONTINUOUS
10
6.59872
20
-3.19882
11
6.59801
21
-3.1915
0
LINE
8
BLACK
6
CONTINUOUS
10
6.59801
20
-3.1915
11
6.59588
21
-3.18445
0
LINE
8
BLACK
6
CONTINUOUS
10
6.59588
20
-3.18445
11
6.59243
21
-3.17796
0
LINE
8
BLACK
6
CONTINUOUS
10
6.59243
20
-3.17796
11
6.58778
21
-3.17225
0
LINE
8
BLACK
6
CONTINUOUS
10
6.58778
20
-3.17225
11
6.58211
21
-3.16756
0
LINE
8
BLACK
6
CONTINUOUS
10
6.58211
20
-3.16756
11
6.57563
21
-3.16406
0
LINE
8
BLACK
6
CONTINUOUS
10
6.57563
20
-3.16406
11
6.57334
21
-3.16335
0
LINE
8
BLACK
6
CONTINUOUS
10
6.57334
20
-3.16335
11
6.56879
21
-3.16194
0
LINE
8
BLACK
6
CONTINUOUS
10
6.56879
20
-3.16194
11
6.56879
21
-3.16194
0
LINE
8
BLACK
6
CONTINUOUS
10
6.56879
20
-3.16194
11
6.5686
21
-3.16189
0
LINE
8
BLACK
6
CONTINUOUS
10
6.5686
20
-3.16189
11
6.56842
21
-3.16187
0
LINE
8
BLACK
6
CONTINUOUS
10
6.56842
20
-3.16187
11
6.56842
21
-3.16187
0
LINE
8
BLACK
6
CONTINUOUS
10
6.56842
20
-3.16187
11
6.56798
21
-3.16182
0
LINE
8
BLACK
6
CONTINUOUS
10
6.56798
20
-3.16182
11
6.56743
21
-3.16176
0
LINE
8
BLACK
6
CONTINUOUS
10
6.56743
20
-3.16176
11
6.56508
21
-3.16064
0
LINE
8
BLACK
6
CONTINUOUS
10
6.56508
20
-3.16064
11
6.55635
21
-3.15191
0
LINE
8
BLACK
6
CONTINUOUS
10
6.55635
20
-3.15191
11
6.55597
21
-3.15147
0
LINE
8
BLACK
6
CONTINUOUS
10
6.55597
20
-3.15147
11
6.55555
21
-3.1509
0
LINE
8
BLACK
6
CONTINUOUS
10
6.55555
20
-3.1509
11
6.55555
21
-3.1509
0
LINE
8
BLACK
6
CONTINUOUS
10
6.55555
20
-3.1509
11
6.55541
21
-3.15072
0
LINE
8
BLACK
6
CONTINUOUS
10
6.55541
20
-3.15072
11
6.55524
21
-3.15057
0
LINE
8
BLACK
6
CONTINUOUS
10
6.55524
20
-3.15057
11
6.55524
21
-3.15057
0
LINE
8
BLACK
6
CONTINUOUS
10
6.55524
20
-3.15057
11
6.5538
21
-3.14934
0
LINE
8
BLACK
6
CONTINUOUS
10
6.5538
20
-3.14934
11
6.55356
21
-3.14913
0
LINE
8
BLACK
6
CONTINUOUS
10
6.55356
20
-3.14913
11
6.55331
21
-3.14887
0
LINE
8
BLACK
6
CONTINUOUS
10
6.55331
20
-3.14887
11
6.55242
21
-3.14817
0
LINE
8
BLACK
6
CONTINUOUS
10
6.55242
20
-3.14817
11
6.55231
21
-3.14808
0
LINE
8
BLACK
6
CONTINUOUS
10
6.55231
20
-3.14808
11
6.55011
21
-3.14621
0
LINE
8
BLACK
6
CONTINUOUS
10
6.55011
20
-3.14621
11
6.54991
21
-3.1461
0
LINE
8
BLACK
6
CONTINUOUS
10
6.54991
20
-3.1461
11
6.54972
21
-3.14598
0
LINE
8
BLACK
6
CONTINUOUS
10
6.54972
20
-3.14598
11
6.54972
21
-3.14598
0
LINE
8
BLACK
6
CONTINUOUS
10
6.54972
20
-3.14598
11
6.5496
21
-3.1459
0
LINE
8
BLACK
6
CONTINUOUS
10
6.5496
20
-3.1459
11
6.54959
21
-3.1459
0
LINE
8
BLACK
6
CONTINUOUS
10
6.54959
20
-3.1459
11
6.5494
21
-3.14578
0
LINE
8
BLACK
6
CONTINUOUS
10
6.5494
20
-3.14578
11
6.54922
21
-3.14564
0
LINE
8
BLACK
6
CONTINUOUS
10
6.54922
20
-3.14564
11
6.54902
21
-3.14554
0
LINE
8
BLACK
6
CONTINUOUS
10
6.54902
20
-3.14554
11
6.54902
21
-3.14554
0
LINE
8
BLACK
6
CONTINUOUS
10
6.54902
20
-3.14554
11
6.5466
21
-3.14442
0
LINE
8
BLACK
6
CONTINUOUS
10
6.5466
20
-3.14442
11
6.54648
21
-3.14436
0
LINE
8
BLACK
6
CONTINUOUS
10
6.54648
20
-3.14436
11
6.54492
21
-3.14356
0
LINE
8
BLACK
6
CONTINUOUS
10
6.54492
20
-3.14356
11
6.54391
21
-3.14304
0
LINE
8
BLACK
6
CONTINUOUS
10
6.54391
20
-3.14304
11
6.54369
21
-3.14299
0
LINE
8
BLACK
6
CONTINUOUS
10
6.54369
20
-3.14299
11
6.54347
21
-3.14291
0
LINE
8
BLACK
6
CONTINUOUS
10
6.54347
20
-3.14291
11
6.54347
21
-3.1429
0
LINE
8
BLACK
6
CONTINUOUS
10
6.54347
20
-3.1429
11
6.54334
21
-3.14286
0
LINE
8
BLACK
6
CONTINUOUS
10
6.54334
20
-3.14286
11
6.54334
21
-3.14286
0
LINE
8
BLACK
6
CONTINUOUS
10
6.54334
20
-3.14286
11
6.54312
21
-3.14279
0
LINE
8
BLACK
6
CONTINUOUS
10
6.54312
20
-3.14279
11
6.54292
21
-3.14269
0
LINE
8
BLACK
6
CONTINUOUS
10
6.54292
20
-3.14269
11
6.54269
21
-3.14265
0
LINE
8
BLACK
6
CONTINUOUS
10
6.54269
20
-3.14265
11
6.54269
21
-3.14265
0
LINE
8
BLACK
6
CONTINUOUS
10
6.54269
20
-3.14265
11
6.54008
21
-3.1421
0
LINE
8
BLACK
6
CONTINUOUS
10
6.54008
20
-3.1421
11
6.53995
21
-3.14207
0
LINE
8
BLACK
6
CONTINUOUS
10
6.53995
20
-3.14207
11
6.53731
21
-3.14143
0
LINE
8
BLACK
6
CONTINUOUS
10
6.53731
20
-3.14143
11
6.53714
21
-3.14139
0
LINE
8
BLACK
6
CONTINUOUS
10
6.53714
20
-3.14139
11
6.5367
21
-3.14136
0
LINE
8
BLACK
6
CONTINUOUS
10
6.5367
20
-3.14136
11
6.5367
21
-3.14135
0
LINE
8
BLACK
6
CONTINUOUS
10
6.5367
20
-3.14135
11
6.53655
21
-3.14133
0
LINE
8
BLACK
6
CONTINUOUS
10
6.53655
20
-3.14133
11
6.53655
21
-3.14134
0
LINE
8
BLACK
6
CONTINUOUS
10
6.53655
20
-3.14134
11
6.53632
21
-3.14132
0
LINE
8
BLACK
6
CONTINUOUS
10
6.53632
20
-3.14132
11
6.5361
21
-3.14127
0
LINE
8
BLACK
6
CONTINUOUS
10
6.5361
20
-3.14127
11
6.53587
21
-3.14128
0
LINE
8
BLACK
6
CONTINUOUS
10
6.53587
20
-3.14128
11
6.53587
21
-3.14128
0
LINE
8
BLACK
6
CONTINUOUS
10
6.53587
20
-3.14128
11
6.53304
21
-3.14136
0
LINE
8
BLACK
6
CONTINUOUS
10
6.53304
20
-3.14136
11
6.53293
21
-3.14136
0
LINE
8
BLACK
6
CONTINUOUS
10
6.53293
20
-3.14136
11
6.30126
21
-3.14136
0
LINE
8
BLACK
6
CONTINUOUS
10
6.30126
20
-3.14136
11
6.29897
21
-3.14061
0
LINE
8
BLACK
6
CONTINUOUS
10
6.29897
20
-3.14061
11
6.29755
21
-3.13867
0
LINE
8
BLACK
6
CONTINUOUS
10
6.29755
20
-3.13867
11
6.29736
21
-3.13746
0
LINE
8
BLACK
6
CONTINUOUS
10
6.29736
20
-3.13746
11
6.29736
21
-3.13683
0
LINE
8
BLACK
6
CONTINUOUS
10
6.29736
20
-3.13683
11
6.2971
21
-3.13438
0
LINE
8
BLACK
6
CONTINUOUS
10
6.2971
20
-3.13438
11
6.29508
21
-3.12901
0
LINE
8
BLACK
6
CONTINUOUS
10
6.29508
20
-3.12901
11
6.29164
21
-3.12442
0
LINE
8
BLACK
6
CONTINUOUS
10
6.29164
20
-3.12442
11
6.28706
21
-3.12098
0
LINE
8
BLACK
6
CONTINUOUS
10
6.28706
20
-3.12098
11
6.28169
21
-3.11897
0
LINE
8
BLACK
6
CONTINUOUS
10
6.28169
20
-3.11897
11
6.28144
21
-3.11894
0
LINE
8
BLACK
6
CONTINUOUS
10
6.28144
20
-3.11894
11
6.28144
21
-3.11894
0
LINE
8
BLACK
6
CONTINUOUS
10
6.28144
20
-3.11894
11
6.28003
21
-3.11879
0
LINE
8
BLACK
6
CONTINUOUS
10
6.28003
20
-3.11879
11
6.27924
21
-3.1187
0
LINE
8
BLACK
6
CONTINUOUS
10
6.27924
20
-3.1187
11
6.21045
21
-3.1187
0
LINE
8
BLACK
6
CONTINUOUS
10
6.21045
20
-3.1187
11
6.20966
21
-3.11879
0
LINE
8
BLACK
6
CONTINUOUS
10
6.20966
20
-3.11879
11
6.20824
21
-3.11894
0
LINE
8
BLACK
6
CONTINUOUS
10
6.20824
20
-3.11894
11
6.20824
21
-3.11894
0
LINE
8
BLACK
6
CONTINUOUS
10
6.20824
20
-3.11894
11
6.208
21
-3.11897
0
LINE
8
BLACK
6
CONTINUOUS
10
6.208
20
-3.11897
11
6.20263
21
-3.12098
0
LINE
8
BLACK
6
CONTINUOUS
10
6.20263
20
-3.12098
11
6.19804
21
-3.12442
0
LINE
8
BLACK
6
CONTINUOUS
10
6.19804
20
-3.12442
11
6.1946
21
-3.12901
0
LINE
8
BLACK
6
CONTINUOUS
10
6.1946
20
-3.12901
11
6.19259
21
-3.13438
0
LINE
8
BLACK
6
CONTINUOUS
10
6.19259
20
-3.13438
11
6.19232
21
-3.13683
0
LINE
8
BLACK
6
CONTINUOUS
10
6.19232
20
-3.13683
11
6.19232
21
-3.14099
0
LINE
8
BLACK
6
CONTINUOUS
10
6.19232
20
-3.14099
11
6.19158
21
-3.14328
0
LINE
8
BLACK
6
CONTINUOUS
10
6.19158
20
-3.14328
11
6.19036
21
-3.14431
0
LINE
8
BLACK
6
CONTINUOUS
10
6.19036
20
-3.14431
11
6.19038
21
-3.14434
0
LINE
8
BLACK
6
CONTINUOUS
10
6.19038
20
-3.14434
11
6.18796
21
-3.14592
0
LINE
8
BLACK
6
CONTINUOUS
10
6.18796
20
-3.14592
11
6.18785
21
-3.146
0
LINE
8
BLACK
6
CONTINUOUS
10
6.18785
20
-3.146
11
6.18552
21
-3.14741
0
LINE
8
BLACK
6
CONTINUOUS
10
6.18552
20
-3.14741
11
6.18552
21
-3.14741
0
LINE
8
BLACK
6
CONTINUOUS
10
6.18552
20
-3.14741
11
6.18537
21
-3.1475
0
LINE
8
BLACK
6
CONTINUOUS
10
6.18537
20
-3.1475
11
6.18504
21
-3.14779
0
LINE
8
BLACK
6
CONTINUOUS
10
6.18504
20
-3.14779
11
6.18504
21
-3.14778
0
LINE
8
BLACK
6
CONTINUOUS
10
6.18504
20
-3.14778
11
6.18491
21
-3.14788
0
LINE
8
BLACK
6
CONTINUOUS
10
6.18491
20
-3.14788
11
6.18492
21
-3.14789
0
LINE
8
BLACK
6
CONTINUOUS
10
6.18492
20
-3.14789
11
6.18475
21
-3.14803
0
LINE
8
BLACK
6
CONTINUOUS
10
6.18475
20
-3.14803
11
6.18456
21
-3.14816
0
LINE
8
BLACK
6
CONTINUOUS
10
6.18456
20
-3.14816
11
6.18343
21
-3.14934
0
LINE
8
BLACK
6
CONTINUOUS
10
6.18343
20
-3.14934
11
6.18245
21
-3.15038
0
LINE
8
BLACK
6
CONTINUOUS
10
6.18245
20
-3.15038
11
6.18238
21
-3.15045
0
LINE
8
BLACK
6
CONTINUOUS
10
6.18238
20
-3.15045
11
6.09754
21
-3.23529
0
LINE
8
BLACK
6
CONTINUOUS
10
6.09754
20
-3.23529
11
6.09709
21
-3.23568
0
LINE
8
BLACK
6
CONTINUOUS
10
6.09709
20
-3.23568
11
6.09652
21
-3.2361
0
LINE
8
BLACK
6
CONTINUOUS
10
6.09652
20
-3.2361
11
6.09652
21
-3.2361
0
LINE
8
BLACK
6
CONTINUOUS
10
6.09652
20
-3.2361
11
6.09634
21
-3.23623
0
LINE
8
BLACK
6
CONTINUOUS
10
6.09634
20
-3.23623
11
6.09619
21
-3.2364
0
LINE
8
BLACK
6
CONTINUOUS
10
6.09619
20
-3.2364
11
6.09619
21
-3.2364
0
LINE
8
BLACK
6
CONTINUOUS
10
6.09619
20
-3.2364
11
6.09496
21
-3.23785
0
LINE
8
BLACK
6
CONTINUOUS
10
6.09496
20
-3.23785
11
6.09475
21
-3.23808
0
LINE
8
BLACK
6
CONTINUOUS
10
6.09475
20
-3.23808
11
6.09449
21
-3.23834
0
LINE
8
BLACK
6
CONTINUOUS
10
6.09449
20
-3.23834
11
6.09442
21
-3.23843
0
LINE
8
BLACK
6
CONTINUOUS
10
6.09442
20
-3.23843
11
6.09442
21
-3.23843
0
LINE
8
BLACK
6
CONTINUOUS
10
6.09442
20
-3.23843
11
6.09379
21
-3.23923
0
LINE
8
BLACK
6
CONTINUOUS
10
6.09379
20
-3.23923
11
6.0937
21
-3.23933
0
LINE
8
BLACK
6
CONTINUOUS
10
6.0937
20
-3.23933
11
6.09183
21
-3.24154
0
LINE
8
BLACK
6
CONTINUOUS
10
6.09183
20
-3.24154
11
6.09173
21
-3.24174
0
LINE
8
BLACK
6
CONTINUOUS
10
6.09173
20
-3.24174
11
6.0916
21
-3.24193
0
LINE
8
BLACK
6
CONTINUOUS
10
6.0916
20
-3.24193
11
6.0916
21
-3.24193
0
LINE
8
BLACK
6
CONTINUOUS
10
6.0916
20
-3.24193
11
6.09152
21
-3.24205
0
LINE
8
BLACK
6
CONTINUOUS
10
6.09152
20
-3.24205
11
6.09152
21
-3.24205
0
LINE
8
BLACK
6
CONTINUOUS
10
6.09152
20
-3.24205
11
6.0914
21
-3.24224
0
LINE
8
BLACK
6
CONTINUOUS
10
6.0914
20
-3.24224
11
6.09126
21
-3.24242
0
LINE
8
BLACK
6
CONTINUOUS
10
6.09126
20
-3.24242
11
6.09117
21
-3.24263
0
LINE
8
BLACK
6
CONTINUOUS
10
6.09117
20
-3.24263
11
6.09117
21
-3.24263
0
LINE
8
BLACK
6
CONTINUOUS
10
6.09117
20
-3.24263
11
6.09004
21
-3.24504
0
LINE
8
BLACK
6
CONTINUOUS
10
6.09004
20
-3.24504
11
6.08998
21
-3.24516
0
LINE
8
BLACK
6
CONTINUOUS
10
6.08998
20
-3.24516
11
6.08866
21
-3.24774
0
LINE
8
BLACK
6
CONTINUOUS
10
6.08866
20
-3.24774
11
6.08861
21
-3.24796
0
LINE
8
BLACK
6
CONTINUOUS
10
6.08861
20
-3.24796
11
6.08853
21
-3.24817
0
LINE
8
BLACK
6
CONTINUOUS
10
6.08853
20
-3.24817
11
6.08853
21
-3.24817
0
LINE
8
BLACK
6
CONTINUOUS
10
6.08853
20
-3.24817
11
6.08848
21
-3.24831
0
LINE
8
BLACK
6
CONTINUOUS
10
6.08848
20
-3.24831
11
6.08848
21
-3.24831
0
LINE
8
BLACK
6
CONTINUOUS
10
6.08848
20
-3.24831
11
6.08841
21
-3.24853
0
LINE
8
BLACK
6
CONTINUOUS
10
6.08841
20
-3.24853
11
6.08831
21
-3.24873
0
LINE
8
BLACK
6
CONTINUOUS
10
6.08831
20
-3.24873
11
6.08827
21
-3.24895
0
LINE
8
BLACK
6
CONTINUOUS
10
6.08827
20
-3.24895
11
6.08827
21
-3.24895
0
LINE
8
BLACK
6
CONTINUOUS
10
6.08827
20
-3.24895
11
6.08773
21
-3.25156
0
LINE
8
BLACK
6
CONTINUOUS
10
6.08773
20
-3.25156
11
6.0877
21
-3.25169
0
LINE
8
BLACK
6
CONTINUOUS
10
6.0877
20
-3.25169
11
6.08701
21
-3.2545
0
LINE
8
BLACK
6
CONTINUOUS
10
6.08701
20
-3.2545
11
6.08698
21
-3.25494
0
LINE
8
BLACK
6
CONTINUOUS
10
6.08698
20
-3.25494
11
6.08697
21
-3.25494
0
LINE
8
BLACK
6
CONTINUOUS
10
6.08697
20
-3.25494
11
6.08695
21
-3.2551
0
LINE
8
BLACK
6
CONTINUOUS
10
6.08695
20
-3.2551
11
6.08696
21
-3.2551
0
LINE
8
BLACK
6
CONTINUOUS
10
6.08696
20
-3.2551
11
6.08694
21
-3.25533
0
LINE
8
BLACK
6
CONTINUOUS
10
6.08694
20
-3.25533
11
6.0869
21
-3.25555
0
LINE
8
BLACK
6
CONTINUOUS
10
6.0869
20
-3.25555
11
6.0869
21
-3.25577
0
LINE
8
BLACK
6
CONTINUOUS
10
6.0869
20
-3.25577
11
6.0869
21
-3.25577
0
LINE
8
BLACK
6
CONTINUOUS
10
6.0869
20
-3.25577
11
6.08698
21
-3.25861
0
LINE
8
BLACK
6
CONTINUOUS
10
6.08698
20
-3.25861
11
6.08698
21
-3.25872
0
LINE
8
BLACK
6
CONTINUOUS
10
6.08698
20
-3.25872
11
6.08698
21
-3.36402
0
LINE
8
BLACK
6
CONTINUOUS
10
6.08698
20
-3.36402
11
6.08624
21
-3.36631
0
LINE
8
BLACK
6
CONTINUOUS
10
6.08624
20
-3.36631
11
6.08607
21
-3.36652
0
LINE
8
BLACK
6
CONTINUOUS
10
6.08607
20
-3.36652
11
6.08586
21
-3.36677
0
LINE
8
BLACK
6
CONTINUOUS
10
6.08586
20
-3.36677
11
6.08586
21
-3.36677
0
LINE
8
BLACK
6
CONTINUOUS
10
6.08586
20
-3.36677
11
6.08573
21
-3.36692
0
LINE
8
BLACK
6
CONTINUOUS
10
6.08573
20
-3.36692
11
6.08219
21
-3.37337
0
LINE
8
BLACK
6
CONTINUOUS
10
6.08219
20
-3.37337
11
6.08213
21
-3.37355
0
LINE
8
BLACK
6
CONTINUOUS
10
6.08213
20
-3.37355
11
6.08213
21
-3.37355
0
LINE
8
BLACK
6
CONTINUOUS
10
6.08213
20
-3.37355
11
6.08002
21
-3.3802
0
LINE
8
BLACK
6
CONTINUOUS
10
6.08002
20
-3.3802
11
6.08002
21
-3.3802
0
LINE
8
BLACK
6
CONTINUOUS
10
6.08002
20
-3.3802
11
6.07997
21
-3.38038
0
LINE
8
BLACK
6
CONTINUOUS
10
6.07997
20
-3.38038
11
6.07914
21
-3.38769
0
LINE
8
BLACK
6
CONTINUOUS
10
6.07914
20
-3.38769
11
6.07976
21
-3.39503
0
LINE
8
BLACK
6
CONTINUOUS
10
6.07976
20
-3.39503
11
6.08179
21
-3.4021
0
LINE
8
BLACK
6
CONTINUOUS
10
6.35434
20
-4.05372
11
6.28934
21
-4.05372
0
LINE
8
BLACK
6
CONTINUOUS
10
6.28934
20
-4.05372
11
6.28934
21
-3.98872
0
LINE
8
BLACK
6
CONTINUOUS
10
6.28934
20
-3.98872
11
6.35434
21
-3.98872
0
LINE
8
BLACK
6
CONTINUOUS
10
6.35434
20
-3.98872
11
6.35434
21
-4.05372
0
LINE
8
BLACK
6
CONTINUOUS
10
6.45434
20
-4.05372
11
6.38934
21
-4.05372
0
LINE
8
BLACK
6
CONTINUOUS
10
6.38934
20
-4.05372
11
6.38934
21
-3.98872
0
LINE
8
BLACK
6
CONTINUOUS
10
6.38934
20
-3.98872
11
6.45434
21
-3.98872
0
LINE
8
BLACK
6
CONTINUOUS
10
6.45434
20
-3.98872
11
6.45434
21
-4.05372
0
LINE
8
BLACK
6
CONTINUOUS
10
6.55434
20
-4.05372
11
6.48934
21
-4.05372
0
LINE
8
BLACK
6
CONTINUOUS
10
6.48934
20
-4.05372
11
6.48934
21
-3.98872
0
LINE
8
BLACK
6
CONTINUOUS
10
6.48934
20
-3.98872
11
6.55434
21
-3.98872
0
LINE
8
BLACK
6
CONTINUOUS
10
6.55434
20
-3.98872
11
6.55434
21
-4.05372
0
LINE
8
BLACK
6
CONTINUOUS
10
6.45434
20
-3.95372
11
6.38934
21
-3.95372
0
LINE
8
BLACK
6
CONTINUOUS
10
6.38934
20
-3.95372
11
6.38934
21
-3.88872
0
LINE
8
BLACK
6
CONTINUOUS
10
6.38934
20
-3.88872
11
6.45434
21
-3.88872
0
LINE
8
BLACK
6
CONTINUOUS
10
6.45434
20
-3.88872
11
6.45434
21
-3.95372
0
LINE
8
BLACK
6
CONTINUOUS
10
6.55434
20
-3.95372
11
6.48934
21
-3.95372
0
LINE
8
BLACK
6
CONTINUOUS
10
6.48934
20
-3.95372
11
6.48934
21
-3.88872
0
LINE
8
BLACK
6
CONTINUOUS
10
6.48934
20
-3.88872
11
6.55434
21
-3.88872
0
LINE
8
BLACK
6
CONTINUOUS
10
6.55434
20
-3.88872
11
6.55434
21
-3.95372
0
LINE
8
BLACK
6
CONTINUOUS
10
6.35434
20
-3.95372
11
6.28934
21
-3.95372
0
LINE
8
BLACK
6
CONTINUOUS
10
6.28934
20
-3.95372
11
6.28934
21
-3.88872
0
LINE
8
BLACK
6
CONTINUOUS
10
6.28934
20
-3.88872
11
6.35434
21
-3.88872
0
LINE
8
BLACK
6
CONTINUOUS
10
6.35434
20
-3.88872
11
6.35434
21
-3.95372
0
LINE
8
BLACK
6
CONTINUOUS
10
6.21743
20
-3.65841
11
6.22218
21
-3.65983
0
LINE
8
BLACK
6
CONTINUOUS
10
6.22218
20
-3.65983
11
6.22635
21
-3.66253
0
LINE
8
BLACK
6
CONTINUOUS
10
6.22635
20
-3.66253
11
6.22959
21
-3.66629
0
LINE
8
BLACK
6
CONTINUOUS
10
6.22959
20
-3.66629
11
6.23164
21
-3.67081
0
LINE
8
BLACK
6
CONTINUOUS
10
6.23164
20
-3.67081
11
6.23234
21
-3.67572
0
LINE
8
BLACK
6
CONTINUOUS
10
6.23234
20
-3.67572
11
6.23234
21
-3.67615
0
LINE
8
BLACK
6
CONTINUOUS
10
6.23234
20
-3.67615
11
6.23151
21
-3.68104
0
LINE
8
BLACK
6
CONTINUOUS
10
6.23151
20
-3.68104
11
6.22935
21
-3.68551
0
LINE
8
BLACK
6
CONTINUOUS
10
6.22935
20
-3.68551
11
6.22602
21
-3.68918
0
LINE
8
BLACK
6
CONTINUOUS
10
6.22602
20
-3.68918
11
6.22179
21
-3.69178
0
LINE
8
BLACK
6
CONTINUOUS
10
6.22179
20
-3.69178
11
6.21701
21
-3.69309
0
LINE
8
BLACK
6
CONTINUOUS
10
6.21701
20
-3.69309
11
6.21204
21
-3.693
0
LINE
8
BLACK
6
CONTINUOUS
10
6.21204
20
-3.693
11
6.20731
21
-3.69152
0
LINE
8
BLACK
6
CONTINUOUS
10
6.20731
20
-3.69152
11
6.20318
21
-3.68877
0
LINE
8
BLACK
6
CONTINUOUS
10
6.20318
20
-3.68877
11
6.20049
21
-3.68556
0
LINE
8
BLACK
6
CONTINUOUS
10
6.20049
20
-3.68556
11
6.0756
21
-3.68556
0
LINE
8
BLACK
6
CONTINUOUS
10
6.0756
20
-3.68556
11
6.06291
21
-3.69824
0
LINE
8
BLACK
6
CONTINUOUS
10
6.06291
20
-3.69824
11
6.06336
21
-3.70138
0
LINE
8
BLACK
6
CONTINUOUS
10
6.06336
20
-3.70138
11
6.06336
21
-3.7018
0
LINE
8
BLACK
6
CONTINUOUS
10
6.06336
20
-3.7018
11
6.06253
21
-3.7067
0
LINE
8
BLACK
6
CONTINUOUS
10
6.06253
20
-3.7067
11
6.06037
21
-3.71116
0
LINE
8
BLACK
6
CONTINUOUS
10
6.06037
20
-3.71116
11
6.05704
21
-3.71484
0
LINE
8
BLACK
6
CONTINUOUS
10
6.05704
20
-3.71484
11
6.05281
21
-3.71744
0
LINE
8
BLACK
6
CONTINUOUS
10
6.05281
20
-3.71744
11
6.04803
21
-3.71874
0
LINE
8
BLACK
6
CONTINUOUS
10
6.04803
20
-3.71874
11
6.04307
21
-3.71865
0
LINE
8
BLACK
6
CONTINUOUS
10
6.04307
20
-3.71865
11
6.03833
21
-3.71717
0
LINE
8
BLACK
6
CONTINUOUS
10
6.03833
20
-3.71717
11
6.0342
21
-3.71442
0
LINE
8
BLACK
6
CONTINUOUS
10
6.0342
20
-3.71442
11
6.03101
21
-3.71062
0
LINE
8
BLACK
6
CONTINUOUS
10
6.03101
20
-3.71062
11
6.02901
21
-3.70608
0
LINE
8
BLACK
6
CONTINUOUS
10
6.02901
20
-3.70608
11
6.02836
21
-3.70116
0
LINE
8
BLACK
6
CONTINUOUS
10
6.02836
20
-3.70116
11
6.02913
21
-3.69626
0
LINE
8
BLACK
6
CONTINUOUS
10
6.02913
20
-3.69626
11
6.03124
21
-3.69177
0
LINE
8
BLACK
6
CONTINUOUS
10
6.03124
20
-3.69177
11
6.03452
21
-3.68805
0
LINE
8
BLACK
6
CONTINUOUS
10
6.03452
20
-3.68805
11
6.03872
21
-3.6854
0
LINE
8
BLACK
6
CONTINUOUS
10
6.03872
20
-3.6854
11
6.04349
21
-3.68404
0
LINE
8
BLACK
6
CONTINUOUS
10
6.04349
20
-3.68404
11
6.04845
21
-3.68407
0
LINE
8
BLACK
6
CONTINUOUS
10
6.04845
20
-3.68407
11
6.04907
21
-3.68425
0
LINE
8
BLACK
6
CONTINUOUS
10
6.04907
20
-3.68425
11
6.06456
21
-3.66876
0
LINE
8
BLACK
6
CONTINUOUS
10
6.06456
20
-3.66876
11
6.06456
21
-3.66876
0
LINE
8
BLACK
6
CONTINUOUS
10
6.06456
20
-3.66876
11
6.06775
21
-3.66663
0
LINE
8
BLACK
6
CONTINUOUS
10
6.06775
20
-3.66663
11
6.07152
21
-3.66588
0
LINE
8
BLACK
6
CONTINUOUS
10
6.07152
20
-3.66588
11
6.20042
21
-3.66588
0
LINE
8
BLACK
6
CONTINUOUS
10
6.20042
20
-3.66588
11
6.2035
21
-3.66239
0
LINE
8
BLACK
6
CONTINUOUS
10
6.2035
20
-3.66239
11
6.2077
21
-3.65975
0
LINE
8
BLACK
6
CONTINUOUS
10
6.2077
20
-3.65975
11
6.21247
21
-3.65838
0
LINE
8
BLACK
6
CONTINUOUS
10
6.21247
20
-3.65838
11
6.21743
21
-3.65841
0
LINE
8
BLACK
6
CONTINUOUS
10
7.14134
20
-3.48972
11
7.07634
21
-3.48972
0
LINE
8
BLACK
6
CONTINUOUS
10
7.07634
20
-3.48972
11
7.07634
21
-3.42472
0
LINE
8
BLACK
6
CONTINUOUS
10
7.07634
20
-3.42472
11
7.14134
21
-3.42472
0
LINE
8
BLACK
6
CONTINUOUS
10
7.14134
20
-3.42472
11
7.14134
21
-3.48972
0
LINE
8
BLACK
6
CONTINUOUS
10
7.04134
20
-3.48972
11
6.97634
21
-3.48972
0
LINE
8
BLACK
6
CONTINUOUS
10
6.97634
20
-3.48972
11
6.97634
21
-3.42472
0
LINE
8
BLACK
6
CONTINUOUS
10
6.97634
20
-3.42472
11
7.04134
21
-3.42472
0
LINE
8
BLACK
6
CONTINUOUS
10
7.04134
20
-3.42472
11
7.04134
21
-3.48972
0
LINE
8
BLACK
6
CONTINUOUS
10
6.03734
20
-3.57872
11
5.97234
21
-3.57872
0
LINE
8
BLACK
6
CONTINUOUS
10
5.97234
20
-3.57872
11
5.97234
21
-3.51372
0
LINE
8
BLACK
6
CONTINUOUS
10
5.97234
20
-3.51372
11
6.03734
21
-3.51372
0
LINE
8
BLACK
6
CONTINUOUS
10
6.03734
20
-3.51372
11
6.03734
21
-3.57872
0
LINE
8
BLACK
6
CONTINUOUS
10
5.46234
20
-3.50372
11
5.39734
21
-3.50372
0
LINE
8
BLACK
6
CONTINUOUS
10
5.39734
20
-3.50372
11
5.39734
21
-3.43872
0
LINE
8
BLACK
6
CONTINUOUS
10
5.39734
20
-3.43872
11
5.46234
21
-3.43872
0
LINE
8
BLACK
6
CONTINUOUS
10
5.46234
20
-3.43872
11
5.46234
21
-3.50372
0
LINE
8
BLACK
6
CONTINUOUS
10
5.56234
20
-3.50372
11
5.49734
21
-3.50372
0
LINE
8
BLACK
6
CONTINUOUS
10
5.49734
20
-3.50372
11
5.49734
21
-3.43872
0
LINE
8
BLACK
6
CONTINUOUS
10
5.49734
20
-3.43872
11
5.56234
21
-3.43872
0
LINE
8
BLACK
6
CONTINUOUS
10
5.56234
20
-3.43872
11
5.56234
21
-3.50372
0
LINE
8
BLACK
6
CONTINUOUS
10
5.83734
20
-3.57872
11
5.77234
21
-3.57872
0
LINE
8
BLACK
6
CONTINUOUS
10
5.77234
20
-3.57872
11
5.77234
21
-3.51372
0
LINE
8
BLACK
6
CONTINUOUS
10
5.77234
20
-3.51372
11
5.83734
21
-3.51372
0
LINE
8
BLACK
6
CONTINUOUS
10
5.83734
20
-3.51372
11
5.83734
21
-3.57872
0
LINE
8
BLACK
6
CONTINUOUS
10
6.17582
20
-3.3449
11
6.18057
21
-3.34632
0
LINE
8
BLACK
6
CONTINUOUS
10
6.18057
20
-3.34632
11
6.18473
21
-3.34902
0
LINE
8
BLACK
6
CONTINUOUS
10
6.18473
20
-3.34902
11
6.18797
21
-3.35278
0
LINE
8
BLACK
6
CONTINUOUS
10
6.18797
20
-3.35278
11
6.19002
21
-3.35729
0
LINE
8
BLACK
6
CONTINUOUS
10
6.19002
20
-3.35729
11
6.19073
21
-3.3622
0
LINE
8
BLACK
6
CONTINUOUS
10
6.19073
20
-3.3622
11
6.19072
21
-3.36263
0
LINE
8
BLACK
6
CONTINUOUS
10
6.19072
20
-3.36263
11
6.1899
21
-3.36753
0
LINE
8
BLACK
6
CONTINUOUS
10
6.1899
20
-3.36753
11
6.18774
21
-3.37199
0
LINE
8
BLACK
6
CONTINUOUS
10
6.18774
20
-3.37199
11
6.18441
21
-3.37567
0
LINE
8
BLACK
6
CONTINUOUS
10
6.18441
20
-3.37567
11
6.18307
21
-3.37649
0
LINE
8
BLACK
6
CONTINUOUS
10
6.18307
20
-3.37649
11
6.18307
21
-3.39266
0
LINE
8
BLACK
6
CONTINUOUS
10
6.18307
20
-3.39266
11
6.30453
21
-3.51411
0
LINE
8
BLACK
6
CONTINUOUS
10
6.30453
20
-3.51411
11
6.30534
21
-3.51388
0
LINE
8
BLACK
6
CONTINUOUS
10
6.30534
20
-3.51388
11
6.3103
21
-3.51391
0
LINE
8
BLACK
6
CONTINUOUS
10
6.3103
20
-3.51391
11
6.31506
21
-3.51533
0
LINE
8
BLACK
6
CONTINUOUS
10
6.31506
20
-3.51533
11
6.31922
21
-3.51803
0
LINE
8
BLACK
6
CONTINUOUS
10
6.31922
20
-3.51803
11
6.32246
21
-3.52179
0
LINE
8
BLACK
6
CONTINUOUS
10
6.32246
20
-3.52179
11
6.32451
21
-3.52631
0
LINE
8
BLACK
6
CONTINUOUS
10
6.32451
20
-3.52631
11
6.32522
21
-3.53122
0
LINE
8
BLACK
6
CONTINUOUS
10
6.32522
20
-3.53122
11
6.32521
21
-3.53165
0
LINE
8
BLACK
6
CONTINUOUS
10
6.32521
20
-3.53165
11
6.32439
21
-3.53654
0
LINE
8
BLACK
6
CONTINUOUS
10
6.32439
20
-3.53654
11
6.32222
21
-3.54101
0
LINE
8
BLACK
6
CONTINUOUS
10
6.32222
20
-3.54101
11
6.3189
21
-3.54468
0
LINE
8
BLACK
6
CONTINUOUS
10
6.3189
20
-3.54468
11
6.31756
21
-3.54551
0
LINE
8
BLACK
6
CONTINUOUS
10
6.31756
20
-3.54551
11
6.31756
21
-3.73185
0
LINE
8
BLACK
6
CONTINUOUS
10
6.31756
20
-3.73185
11
6.31756
21
-3.73185
0
LINE
8
BLACK
6
CONTINUOUS
10
6.31756
20
-3.73185
11
6.31691
21
-3.73512
0
LINE
8
BLACK
6
CONTINUOUS
10
6.31691
20
-3.73512
11
6.31681
21
-3.73561
0
LINE
8
BLACK
6
CONTINUOUS
10
6.31681
20
-3.73561
11
6.31468
21
-3.73881
0
LINE
8
BLACK
6
CONTINUOUS
10
6.31468
20
-3.73881
11
6.31468
21
-3.73881
0
LINE
8
BLACK
6
CONTINUOUS
10
6.31468
20
-3.73881
11
6.30989
21
-3.74359
0
LINE
8
BLACK
6
CONTINUOUS
10
6.30989
20
-3.74359
11
6.31034
21
-3.74672
0
LINE
8
BLACK
6
CONTINUOUS
10
6.31034
20
-3.74672
11
6.31034
21
-3.74715
0
LINE
8
BLACK
6
CONTINUOUS
10
6.31034
20
-3.74715
11
6.30951
21
-3.75204
0
LINE
8
BLACK
6
CONTINUOUS
10
6.30951
20
-3.75204
11
6.30735
21
-3.75651
0
LINE
8
BLACK
6
CONTINUOUS
10
6.30735
20
-3.75651
11
6.30402
21
-3.76018
0
LINE
8
BLACK
6
CONTINUOUS
10
6.30402
20
-3.76018
11
6.29979
21
-3.76278
0
LINE
8
BLACK
6
CONTINUOUS
10
6.29979
20
-3.76278
11
6.29501
21
-3.76409
0
LINE
8
BLACK
6
CONTINUOUS
10
6.29501
20
-3.76409
11
6.29004
21
-3.764
0
LINE
8
BLACK
6
CONTINUOUS
10
6.29004
20
-3.764
11
6.28531
21
-3.76252
0
LINE
8
BLACK
6
CONTINUOUS
10
6.28531
20
-3.76252
11
6.28118
21
-3.75977
0
LINE
8
BLACK
6
CONTINUOUS
10
6.28118
20
-3.75977
11
6.27799
21
-3.75597
0
LINE
8
BLACK
6
CONTINUOUS
10
6.27799
20
-3.75597
11
6.27599
21
-3.75143
0
LINE
8
BLACK
6
CONTINUOUS
10
6.27599
20
-3.75143
11
6.27534
21
-3.74651
0
LINE
8
BLACK
6
CONTINUOUS
10
6.27534
20
-3.74651
11
6.27611
21
-3.7416
0
LINE
8
BLACK
6
CONTINUOUS
10
6.27611
20
-3.7416
11
6.27822
21
-3.73711
0
LINE
8
BLACK
6
CONTINUOUS
10
6.27822
20
-3.73711
11
6.2815
21
-3.73339
0
LINE
8
BLACK
6
CONTINUOUS
10
6.2815
20
-3.73339
11
6.2857
21
-3.73075
0
LINE
8
BLACK
6
CONTINUOUS
10
6.2857
20
-3.73075
11
6.29047
21
-3.72938
0
LINE
8
BLACK
6
CONTINUOUS
10
6.29047
20
-3.72938
11
6.29543
21
-3.72941
0
LINE
8
BLACK
6
CONTINUOUS
10
6.29543
20
-3.72941
11
6.29605
21
-3.7296
0
LINE
8
BLACK
6
CONTINUOUS
10
6.29605
20
-3.7296
11
6.29787
21
-3.72777
0
LINE
8
BLACK
6
CONTINUOUS
10
6.29787
20
-3.72777
11
6.29787
21
-3.54548
0
LINE
8
BLACK
6
CONTINUOUS
10
6.29787
20
-3.54548
11
6.29605
21
-3.54427
0
LINE
8
BLACK
6
CONTINUOUS
10
6.29605
20
-3.54427
11
6.29286
21
-3.54047
0
LINE
8
BLACK
6
CONTINUOUS
10
6.29286
20
-3.54047
11
6.29086
21
-3.53593
0
LINE
8
BLACK
6
CONTINUOUS
10
6.29086
20
-3.53593
11
6.29022
21
-3.53101
0
LINE
8
BLACK
6
CONTINUOUS
10
6.29022
20
-3.53101
11
6.29067
21
-3.52809
0
LINE
8
BLACK
6
CONTINUOUS
10
6.29067
20
-3.52809
11
6.16627
21
-3.40369
0
LINE
8
BLACK
6
CONTINUOUS
10
6.16627
20
-3.40369
11
6.16414
21
-3.4005
0
LINE
8
BLACK
6
CONTINUOUS
10
6.16414
20
-3.4005
11
6.16339
21
-3.39673
0
LINE
8
BLACK
6
CONTINUOUS
10
6.16339
20
-3.39673
11
6.16339
21
-3.37646
0
LINE
8
BLACK
6
CONTINUOUS
10
6.16339
20
-3.37646
11
6.16156
21
-3.37525
0
LINE
8
BLACK
6
CONTINUOUS
10
6.16156
20
-3.37525
11
6.15837
21
-3.37145
0
LINE
8
BLACK
6
CONTINUOUS
10
6.15837
20
-3.37145
11
6.15637
21
-3.36691
0
LINE
8
BLACK
6
CONTINUOUS
10
6.15637
20
-3.36691
11
6.15573
21
-3.36199
0
LINE
8
BLACK
6
CONTINUOUS
10
6.15573
20
-3.36199
11
6.15649
21
-3.35709
0
LINE
8
BLACK
6
CONTINUOUS
10
6.15649
20
-3.35709
11
6.1586
21
-3.3526
0
LINE
8
BLACK
6
CONTINUOUS
10
6.1586
20
-3.3526
11
6.16189
21
-3.34888
0
LINE
8
BLACK
6
CONTINUOUS
10
6.16189
20
-3.34888
11
6.16608
21
-3.34623
0
LINE
8
BLACK
6
CONTINUOUS
10
6.16608
20
-3.34623
11
6.17085
21
-3.34487
0
LINE
8
BLACK
6
CONTINUOUS
10
6.17085
20
-3.34487
11
6.17582
21
-3.3449
0
LINE
8
BLACK
6
CONTINUOUS
10
6.53719
20
-3.16213
11
6.54038
21
-3.16426
0
LINE
8
BLACK
6
CONTINUOUS
10
6.54038
20
-3.16426
11
6.55784
21
-3.18171
0
LINE
8
BLACK
6
CONTINUOUS
10
6.55784
20
-3.18171
11
6.55865
21
-3.18148
0
LINE
8
BLACK
6
CONTINUOUS
10
6.55865
20
-3.18148
11
6.56361
21
-3.18151
0
LINE
8
BLACK
6
CONTINUOUS
10
6.56361
20
-3.18151
11
6.56836
21
-3.18293
0
LINE
8
BLACK
6
CONTINUOUS
10
6.56836
20
-3.18293
11
6.57253
21
-3.18563
0
LINE
8
BLACK
6
CONTINUOUS
10
6.57253
20
-3.18563
11
6.57577
21
-3.18939
0
LINE
8
BLACK
6
CONTINUOUS
10
6.57577
20
-3.18939
11
6.57782
21
-3.19391
0
LINE
8
BLACK
6
CONTINUOUS
10
6.57782
20
-3.19391
11
6.57852
21
-3.19882
0
LINE
8
BLACK
6
CONTINUOUS
10
6.57852
20
-3.19882
11
6.57852
21
-3.19925
0
LINE
8
BLACK
6
CONTINUOUS
10
6.57852
20
-3.19925
11
6.5777
21
-3.20414
0
LINE
8
BLACK
6
CONTINUOUS
10
6.5777
20
-3.20414
11
6.57553
21
-3.2086
0
LINE
8
BLACK
6
CONTINUOUS
10
6.57553
20
-3.2086
11
6.5722
21
-3.21228
0
LINE
8
BLACK
6
CONTINUOUS
10
6.5722
20
-3.21228
11
6.56797
21
-3.21488
0
LINE
8
BLACK
6
CONTINUOUS
10
6.56797
20
-3.21488
11
6.56319
21
-3.21618
0
LINE
8
BLACK
6
CONTINUOUS
10
6.56319
20
-3.21618
11
6.55823
21
-3.21609
0
LINE
8
BLACK
6
CONTINUOUS
10
6.55823
20
-3.21609
11
6.55349
21
-3.21461
0
LINE
8
BLACK
6
CONTINUOUS
10
6.55349
20
-3.21461
11
6.54936
21
-3.21186
0
LINE
8
BLACK
6
CONTINUOUS
10
6.54936
20
-3.21186
11
6.54617
21
-3.20807
0
LINE
8
BLACK
6
CONTINUOUS
10
6.54617
20
-3.20807
11
6.54417
21
-3.20352
0
LINE
8
BLACK
6
CONTINUOUS
10
6.54417
20
-3.20352
11
6.54352
21
-3.19861
0
LINE
8
BLACK
6
CONTINUOUS
10
6.54352
20
-3.19861
11
6.54398
21
-3.19569
0
LINE
8
BLACK
6
CONTINUOUS
10
6.54398
20
-3.19569
11
6.52935
21
-3.18106
0
LINE
8
BLACK
6
CONTINUOUS
10
6.52935
20
-3.18106
11
6.27734
21
-3.18106
0
LINE
8
BLACK
6
CONTINUOUS
10
6.27734
20
-3.18106
11
6.27734
21
-3.20372
0
LINE
8
BLACK
6
CONTINUOUS
10
6.27734
20
-3.20372
11
6.21234
21
-3.20372
0
LINE
8
BLACK
6
CONTINUOUS
10
6.21234
20
-3.20372
11
6.21234
21
-3.18106
0
LINE
8
BLACK
6
CONTINUOUS
10
6.21234
20
-3.18106
11
6.20792
21
-3.18106
0
LINE
8
BLACK
6
CONTINUOUS
10
6.20792
20
-3.18106
11
6.13659
21
-3.2524
0
LINE
8
BLACK
6
CONTINUOUS
10
6.13659
20
-3.2524
11
6.12669
21
-3.2623
0
LINE
8
BLACK
6
CONTINUOUS
10
6.12669
20
-3.2623
11
6.12669
21
-3.37396
0
LINE
8
BLACK
6
CONTINUOUS
10
6.12669
20
-3.37396
11
6.12835
21
-3.37503
0
LINE
8
BLACK
6
CONTINUOUS
10
6.12835
20
-3.37503
11
6.13159
21
-3.37879
0
LINE
8
BLACK
6
CONTINUOUS
10
6.13159
20
-3.37879
11
6.13364
21
-3.38331
0
LINE
8
BLACK
6
CONTINUOUS
10
6.13364
20
-3.38331
11
6.13434
21
-3.38822
0
LINE
8
BLACK
6
CONTINUOUS
10
6.13434
20
-3.38822
11
6.13434
21
-3.38865
0
LINE
8
BLACK
6
CONTINUOUS
10
6.13434
20
-3.38865
11
6.13351
21
-3.39354
0
LINE
8
BLACK
6
CONTINUOUS
10
6.13351
20
-3.39354
11
6.13135
21
-3.39801
0
LINE
8
BLACK
6
CONTINUOUS
10
6.13135
20
-3.39801
11
6.12802
21
-3.40168
0
LINE
8
BLACK
6
CONTINUOUS
10
6.12802
20
-3.40168
11
6.12669
21
-3.40251
0
LINE
8
BLACK
6
CONTINUOUS
10
6.12669
20
-3.40251
11
6.12669
21
-3.45414
0
LINE
8
BLACK
6
CONTINUOUS
10
6.12669
20
-3.45414
11
6.13564
21
-3.46309
0
LINE
8
BLACK
6
CONTINUOUS
10
6.13564
20
-3.46309
11
6.20187
21
-3.52932
0
LINE
8
BLACK
6
CONTINUOUS
10
6.20187
20
-3.52932
11
6.20268
21
-3.52909
0
LINE
8
BLACK
6
CONTINUOUS
10
6.20268
20
-3.52909
11
6.20764
21
-3.52912
0
LINE
8
BLACK
6
CONTINUOUS
10
6.20764
20
-3.52912
11
6.2124
21
-3.53054
0
LINE
8
BLACK
6
CONTINUOUS
10
6.2124
20
-3.53054
11
6.21656
21
-3.53324
0
LINE
8
BLACK
6
CONTINUOUS
10
6.21656
20
-3.53324
11
6.2198
21
-3.537
0
LINE
8
BLACK
6
CONTINUOUS
10
6.2198
20
-3.537
11
6.22185
21
-3.54152
0
LINE
8
BLACK
6
CONTINUOUS
10
6.22185
20
-3.54152
11
6.22256
21
-3.54643
0
LINE
8
BLACK
6
CONTINUOUS
10
6.22256
20
-3.54643
11
6.22255
21
-3.54686
0
LINE
8
BLACK
6
CONTINUOUS
10
6.22255
20
-3.54686
11
6.22173
21
-3.55175
0
LINE
8
BLACK
6
CONTINUOUS
10
6.22173
20
-3.55175
11
6.21957
21
-3.55622
0
LINE
8
BLACK
6
CONTINUOUS
10
6.21957
20
-3.55622
11
6.21624
21
-3.55989
0
LINE
8
BLACK
6
CONTINUOUS
10
6.21624
20
-3.55989
11
6.21201
21
-3.56249
0
LINE
8
BLACK
6
CONTINUOUS
10
6.21201
20
-3.56249
11
6.20722
21
-3.5638
0
LINE
8
BLACK
6
CONTINUOUS
10
6.20722
20
-3.5638
11
6.20226
21
-3.5637
0
LINE
8
BLACK
6
CONTINUOUS
10
6.20226
20
-3.5637
11
6.19752
21
-3.56222
0
LINE
8
BLACK
6
CONTINUOUS
10
6.19752
20
-3.56222
11
6.19339
21
-3.55948
0
LINE
8
BLACK
6
CONTINUOUS
10
6.19339
20
-3.55948
11
6.1902
21
-3.55568
0
LINE
8
BLACK
6
CONTINUOUS
10
6.1902
20
-3.55568
11
6.1882
21
-3.55114
0
LINE
8
BLACK
6
CONTINUOUS
10
6.1882
20
-3.55114
11
6.18756
21
-3.54622
0
LINE
8
BLACK
6
CONTINUOUS
10
6.18756
20
-3.54622
11
6.18801
21
-3.5433
0
LINE
8
BLACK
6
CONTINUOUS
10
6.18801
20
-3.5433
11
6.12172
21
-3.47701
0
LINE
8
BLACK
6
CONTINUOUS
10
6.12172
20
-3.47701
11
6.10988
21
-3.46517
0
LINE
8
BLACK
6
CONTINUOUS
10
6.10988
20
-3.46517
11
6.10775
21
-3.46198
0
LINE
8
BLACK
6
CONTINUOUS
10
6.10775
20
-3.46198
11
6.107
21
-3.45822
0
LINE
8
BLACK
6
CONTINUOUS
10
6.107
20
-3.45822
11
6.107
21
-3.40248
0
LINE
8
BLACK
6
CONTINUOUS
10
6.107
20
-3.40248
11
6.10518
21
-3.40127
0
LINE
8
BLACK
6
CONTINUOUS
10
6.10518
20
-3.40127
11
6.10199
21
-3.39747
0
LINE
8
BLACK
6
CONTINUOUS
10
6.10199
20
-3.39747
11
6.09999
21
-3.39293
0
LINE
8
BLACK
6
CONTINUOUS
10
6.09999
20
-3.39293
11
6.09934
21
-3.38801
0
LINE
8
BLACK
6
CONTINUOUS
10
6.09934
20
-3.38801
11
6.10011
21
-3.3831
0
LINE
8
BLACK
6
CONTINUOUS
10
6.10011
20
-3.3831
11
6.10222
21
-3.37861
0
LINE
8
BLACK
6
CONTINUOUS
10
6.10222
20
-3.37861
11
6.1055
21
-3.37489
0
LINE
8
BLACK
6
CONTINUOUS
10
6.1055
20
-3.37489
11
6.107
21
-3.37395
0
LINE
8
BLACK
6
CONTINUOUS
10
6.107
20
-3.37395
11
6.107
21
-3.25822
0
LINE
8
BLACK
6
CONTINUOUS
10
6.107
20
-3.25822
11
6.10775
21
-3.25445
0
LINE
8
BLACK
6
CONTINUOUS
10
6.10775
20
-3.25445
11
6.10988
21
-3.25126
0
LINE
8
BLACK
6
CONTINUOUS
10
6.10988
20
-3.25126
11
6.12267
21
-3.23848
0
LINE
8
BLACK
6
CONTINUOUS
10
6.12267
20
-3.23848
11
6.19688
21
-3.16426
0
LINE
8
BLACK
6
CONTINUOUS
10
6.19688
20
-3.16426
11
6.19688
21
-3.16426
0
LINE
8
BLACK
6
CONTINUOUS
10
6.19688
20
-3.16426
11
6.20008
21
-3.16213
0
LINE
8
BLACK
6
CONTINUOUS
10
6.20008
20
-3.16213
11
6.20384
21
-3.16138
0
LINE
8
BLACK
6
CONTINUOUS
10
6.20384
20
-3.16138
11
6.21234
21
-3.16138
0
LINE
8
BLACK
6
CONTINUOUS
10
6.21234
20
-3.16138
11
6.21234
21
-3.13872
0
LINE
8
BLACK
6
CONTINUOUS
10
6.21234
20
-3.13872
11
6.27734
21
-3.13872
0
LINE
8
BLACK
6
CONTINUOUS
10
6.27734
20
-3.13872
11
6.27734
21
-3.16138
0
LINE
8
BLACK
6
CONTINUOUS
10
6.27734
20
-3.16138
11
6.53343
21
-3.16138
0
LINE
8
BLACK
6
CONTINUOUS
10
6.53343
20
-3.16138
11
6.53719
21
-3.16213
0
LINE
8
BLACK
6
CONTINUOUS
10
6.27734
20
-3.30372
11
6.21234
21
-3.30372
0
LINE
8
BLACK
6
CONTINUOUS
10
6.21234
20
-3.30372
11
6.21234
21
-3.23872
0
LINE
8
BLACK
6
CONTINUOUS
10
6.21234
20
-3.23872
11
6.27734
21
-3.23872
0
LINE
8
BLACK
6
CONTINUOUS
10
6.27734
20
-3.23872
11
6.27734
21
-3.30372
0
CIRCLE
8
BLACK
10
6.40384
20
-3.27122
40
0.0125
0
CIRCLE
8
BLACK
10
6.10084
20
-3.03922
40
0.0125
0
CIRCLE
8
BLACK
10
6.71984
20
-3.06222
40
0.0125
0
CIRCLE
8
BLACK
10
6.52284
20
-3.04322
40
0.0125
0
CIRCLE
8
BLACK
10
6.40484
20
-3.37122
40
0.0125
0
CIRCLE
8
BLACK
10
6.29584
20
-3.40122
40
0.0125
0
CIRCLE
8
BLACK
10
6.34584
20
-3.78522
40
0.0125
0
CIRCLE
8
BLACK
10
5.34384
20
-3.29522
40
0.0125
0
CIRCLE
8
BLACK
10
5.34384
20
-3.73122
40
0.0125
0
CIRCLE
8
BLACK
10
6.55584
20
-3.43922
40
0.0125
0
CIRCLE
8
BLACK
10
6.74384
20
-3.77422
40
0.0125
0
CIRCLE
8
BLACK
10
5.48031
20
-3.72441
40
0.0125
0
CIRCLE
8
BLACK
10
6.88784
20
-3.72022
40
0.0125
0
CIRCLE
8
BLACK
10
6.51234
20
-3.79372
40
0.0125
0
CIRCLE
8
BLACK
10
6.33684
20
-3.04722
40
0.0125
0
CIRCLE
8
BLACK
10
5.91084
20
-3.02222
40
0.0125
0
CIRCLE
8
BLACK
10
5.59884
20
-3.19222
40
0.0125
0
CIRCLE
8
BLACK
10
6.20506
20
-3.54643
40
0.0125
0
CIRCLE
8
BLACK
10
6.11684
20
-3.38822
40
0.0125
0
CIRCLE
8
BLACK
10
6.56102
20
-3.19882
40
0.0125
0
CIRCLE
8
BLACK
10
6.21484
20
-3.67572
40
0.0125
0
CIRCLE
8
BLACK
10
6.04586
20
-3.70138
40
0.0125
0
CIRCLE
8
BLACK
10
6.29284
20
-3.74672
40
0.0125
0
CIRCLE
8
BLACK
10
6.30772
20
-3.53122
40
0.0125
0
CIRCLE
8
BLACK
10
6.17323
20
-3.3622
40
0.0125
  0
ENDSEC
  0
EOF
