  0
SECTION
  2
HEADER
  9
$ANGBASE
  50
0.0
  9
$ANGDIR
  70
1
  9
$MEASUREMENT
  70
0
  0
ENDSEC
  0
SECTION
  2
TABLES
  0
TABLE
  2
LTYPE
  70
4
  0
LTYPE
  5
40F
  2
CONTINUOUS
  70
0
  3
Solid line
  72
65
  73
0
  40
0.0
  0
LTYPE
  5
410
  2
DASHDOT
 70
0
  3
Dash Dot ____ _ ____ _
 72
65
 73
4
 40
2.0
 49
1.25
 49
-0.25
 49
0.25
 49
-0.25
  0
LTYPE
  5
411
  2
DASHED
 70
0
  3
Dashed __ __ __ __ __
 72
65
 73
2
 40
0.75
 49
0.5
 49
-0.25
  0
LTYPE
  5
43B
  2
DOTTED
 70
0
  3
Dotted .  .  .  .
 72
65
 73
2
 40
0.2
 49
0.0
 49
-0.2
  0
ENDTAB
  0
TABLE
  2
STYLE
  70
4
  0
STYLE
  2
KICAD
  70
0
  40
0
  41
1
  42
1
  50
0
  71
0
  3
isocp.shx
  0
STYLE
  2
KICADB
  70
0
  40
0
  41
1
  42
1
  50
0
  71
0
  3
isocp.shx
  0
STYLE
  2
KICADI
  70
0
  40
0
  41
1
  42
1
  50
15
  71
0
  3
isocp.shx
  0
STYLE
  2
KICADBI
  70
0
  40
0
  41
1
  42
1
  50
15
  71
0
  3
isocp.shx
  0
ENDTAB
  0
TABLE
  2
LAYER
  70
1
  0
LAYER
  2
BLACK
  70
0
  62
7
  6
CONTINUOUS
  0
ENDTAB
  0
ENDSEC
  0
SECTION
  2
ENTITIES
0
LINE
8
BLACK
6
CONTINUOUS
10
5.26069
20
-2.95293
11
5.26263
21
-2.95151
0
LINE
8
BLACK
6
CONTINUOUS
10
5.26263
20
-2.95151
11
5.26384
21
-2.95132
0
LINE
8
BLACK
6
CONTINUOUS
10
5.26384
20
-2.95132
11
7.19585
21
-2.95132
0
LINE
8
BLACK
6
CONTINUOUS
10
7.19585
20
-2.95132
11
7.19814
21
-2.95206
0
LINE
8
BLACK
6
CONTINUOUS
10
7.19814
20
-2.95206
11
7.19955
21
-2.95401
0
LINE
8
BLACK
6
CONTINUOUS
10
7.19955
20
-2.95401
11
7.19974
21
-2.95522
0
LINE
8
BLACK
6
CONTINUOUS
10
7.19974
20
-2.95522
11
7.19974
21
-4.08722
0
LINE
8
BLACK
6
CONTINUOUS
10
7.19974
20
-4.08722
11
7.199
21
-4.08952
0
LINE
8
BLACK
6
CONTINUOUS
10
7.199
20
-4.08952
11
7.19705
21
-4.09093
0
LINE
8
BLACK
6
CONTINUOUS
10
7.19705
20
-4.09093
11
7.19585
21
-4.09112
0
LINE
8
BLACK
6
CONTINUOUS
10
7.19585
20
-4.09112
11
5.26384
21
-4.09112
0
LINE
8
BLACK
6
CONTINUOUS
10
5.26384
20
-4.09112
11
5.26155
21
-4.09038
0
LINE
8
BLACK
6
CONTINUOUS
10
5.26155
20
-4.09038
11
5.26013
21
-4.08843
0
LINE
8
BLACK
6
CONTINUOUS
10
5.26013
20
-4.08843
11
5.25994
21
-4.08722
0
LINE
8
BLACK
6
CONTINUOUS
10
5.25994
20
-4.08722
11
5.25994
21
-2.95522
0
LINE
8
BLACK
6
CONTINUOUS
10
5.25994
20
-2.95522
11
5.26069
21
-2.95293
0
LINE
8
BLACK
6
CONTINUOUS
10
6.2716
20
-4.06343
11
6.27504
21
-4.06802
0
LINE
8
BLACK
6
CONTINUOUS
10
6.27504
20
-4.06802
11
6.27963
21
-4.07146
0
LINE
8
BLACK
6
CONTINUOUS
10
6.27963
20
-4.07146
11
6.285
21
-4.07347
0
LINE
8
BLACK
6
CONTINUOUS
10
6.285
20
-4.07347
11
6.28524
21
-4.0735
0
LINE
8
BLACK
6
CONTINUOUS
10
6.28524
20
-4.0735
11
6.28524
21
-4.0735
0
LINE
8
BLACK
6
CONTINUOUS
10
6.28524
20
-4.0735
11
6.28666
21
-4.07365
0
LINE
8
BLACK
6
CONTINUOUS
10
6.28666
20
-4.07365
11
6.28745
21
-4.07374
0
LINE
8
BLACK
6
CONTINUOUS
10
6.28745
20
-4.07374
11
6.35624
21
-4.07374
0
LINE
8
BLACK
6
CONTINUOUS
10
6.35624
20
-4.07374
11
6.35703
21
-4.07365
0
LINE
8
BLACK
6
CONTINUOUS
10
6.35703
20
-4.07365
11
6.35844
21
-4.0735
0
LINE
8
BLACK
6
CONTINUOUS
10
6.35844
20
-4.0735
11
6.35844
21
-4.0735
0
LINE
8
BLACK
6
CONTINUOUS
10
6.35844
20
-4.0735
11
6.35869
21
-4.07347
0
LINE
8
BLACK
6
CONTINUOUS
10
6.35869
20
-4.07347
11
6.36406
21
-4.07146
0
LINE
8
BLACK
6
CONTINUOUS
10
6.36406
20
-4.07146
11
6.36864
21
-4.06802
0
LINE
8
BLACK
6
CONTINUOUS
10
6.36864
20
-4.06802
11
6.36881
21
-4.0678
0
LINE
8
BLACK
6
CONTINUOUS
10
6.36881
20
-4.0678
11
6.36901
21
-4.0676
0
LINE
8
BLACK
6
CONTINUOUS
10
6.36901
20
-4.0676
11
6.36907
21
-4.06767
0
LINE
8
BLACK
6
CONTINUOUS
10
6.36907
20
-4.06767
11
6.37069
21
-4.06653
0
LINE
8
BLACK
6
CONTINUOUS
10
6.37069
20
-4.06653
11
6.3731
21
-4.06656
0
LINE
8
BLACK
6
CONTINUOUS
10
6.3731
20
-4.06656
11
6.37462
21
-4.06767
0
LINE
8
BLACK
6
CONTINUOUS
10
6.37462
20
-4.06767
11
6.37468
21
-4.0676
0
LINE
8
BLACK
6
CONTINUOUS
10
6.37468
20
-4.0676
11
6.37487
21
-4.0678
0
LINE
8
BLACK
6
CONTINUOUS
10
6.37487
20
-4.0678
11
6.37504
21
-4.06802
0
LINE
8
BLACK
6
CONTINUOUS
10
6.37504
20
-4.06802
11
6.37963
21
-4.07146
0
LINE
8
BLACK
6
CONTINUOUS
10
6.37963
20
-4.07146
11
6.385
21
-4.07347
0
LINE
8
BLACK
6
CONTINUOUS
10
6.385
20
-4.07347
11
6.38524
21
-4.0735
0
LINE
8
BLACK
6
CONTINUOUS
10
6.38524
20
-4.0735
11
6.38524
21
-4.0735
0
LINE
8
BLACK
6
CONTINUOUS
10
6.38524
20
-4.0735
11
6.38666
21
-4.07365
0
LINE
8
BLACK
6
CONTINUOUS
10
6.38666
20
-4.07365
11
6.38745
21
-4.07374
0
LINE
8
BLACK
6
CONTINUOUS
10
6.38745
20
-4.07374
11
6.45624
21
-4.07374
0
LINE
8
BLACK
6
CONTINUOUS
10
6.45624
20
-4.07374
11
6.45703
21
-4.07365
0
LINE
8
BLACK
6
CONTINUOUS
10
6.45703
20
-4.07365
11
6.45844
21
-4.0735
0
LINE
8
BLACK
6
CONTINUOUS
10
6.45844
20
-4.0735
11
6.45844
21
-4.0735
0
LINE
8
BLACK
6
CONTINUOUS
10
6.45844
20
-4.0735
11
6.45869
21
-4.07347
0
LINE
8
BLACK
6
CONTINUOUS
10
6.45869
20
-4.07347
11
6.46406
21
-4.07146
0
LINE
8
BLACK
6
CONTINUOUS
10
6.46406
20
-4.07146
11
6.46864
21
-4.06802
0
LINE
8
BLACK
6
CONTINUOUS
10
6.46864
20
-4.06802
11
6.46881
21
-4.0678
0
LINE
8
BLACK
6
CONTINUOUS
10
6.46881
20
-4.0678
11
6.46901
21
-4.0676
0
LINE
8
BLACK
6
CONTINUOUS
10
6.46901
20
-4.0676
11
6.46907
21
-4.06767
0
LINE
8
BLACK
6
CONTINUOUS
10
6.46907
20
-4.06767
11
6.47069
21
-4.06653
0
LINE
8
BLACK
6
CONTINUOUS
10
6.47069
20
-4.06653
11
6.4731
21
-4.06656
0
LINE
8
BLACK
6
CONTINUOUS
10
6.4731
20
-4.06656
11
6.47462
21
-4.06767
0
LINE
8
BLACK
6
CONTINUOUS
10
6.47462
20
-4.06767
11
6.47468
21
-4.0676
0
LINE
8
BLACK
6
CONTINUOUS
10
6.47468
20
-4.0676
11
6.47487
21
-4.0678
0
LINE
8
BLACK
6
CONTINUOUS
10
6.47487
20
-4.0678
11
6.47504
21
-4.06802
0
LINE
8
BLACK
6
CONTINUOUS
10
6.47504
20
-4.06802
11
6.47963
21
-4.07146
0
LINE
8
BLACK
6
CONTINUOUS
10
6.47963
20
-4.07146
11
6.485
21
-4.07347
0
LINE
8
BLACK
6
CONTINUOUS
10
6.485
20
-4.07347
11
6.48524
21
-4.0735
0
LINE
8
BLACK
6
CONTINUOUS
10
6.48524
20
-4.0735
11
6.48524
21
-4.0735
0
LINE
8
BLACK
6
CONTINUOUS
10
6.48524
20
-4.0735
11
6.48666
21
-4.07365
0
LINE
8
BLACK
6
CONTINUOUS
10
6.48666
20
-4.07365
11
6.48745
21
-4.07374
0
LINE
8
BLACK
6
CONTINUOUS
10
6.48745
20
-4.07374
11
6.55624
21
-4.07374
0
LINE
8
BLACK
6
CONTINUOUS
10
6.55624
20
-4.07374
11
6.55703
21
-4.07365
0
LINE
8
BLACK
6
CONTINUOUS
10
6.55703
20
-4.07365
11
6.55844
21
-4.0735
0
LINE
8
BLACK
6
CONTINUOUS
10
6.55844
20
-4.0735
11
6.55844
21
-4.0735
0
LINE
8
BLACK
6
CONTINUOUS
10
6.55844
20
-4.0735
11
6.55869
21
-4.07347
0
LINE
8
BLACK
6
CONTINUOUS
10
6.55869
20
-4.07347
11
6.56406
21
-4.07146
0
LINE
8
BLACK
6
CONTINUOUS
10
6.56406
20
-4.07146
11
6.56864
21
-4.06802
0
LINE
8
BLACK
6
CONTINUOUS
10
6.56864
20
-4.06802
11
6.57208
21
-4.06343
0
LINE
8
BLACK
6
CONTINUOUS
10
6.57208
20
-4.06343
11
6.5741
21
-4.05806
0
LINE
8
BLACK
6
CONTINUOUS
10
6.5741
20
-4.05806
11
6.57436
21
-4.05562
0
LINE
8
BLACK
6
CONTINUOUS
10
6.57436
20
-4.05562
11
6.57436
21
-3.98683
0
LINE
8
BLACK
6
CONTINUOUS
10
6.57436
20
-3.98683
11
6.5741
21
-3.98438
0
LINE
8
BLACK
6
CONTINUOUS
10
6.5741
20
-3.98438
11
6.57208
21
-3.97901
0
LINE
8
BLACK
6
CONTINUOUS
10
6.57208
20
-3.97901
11
6.56864
21
-3.97442
0
LINE
8
BLACK
6
CONTINUOUS
10
6.56864
20
-3.97442
11
6.56842
21
-3.97425
0
LINE
8
BLACK
6
CONTINUOUS
10
6.56842
20
-3.97425
11
6.56823
21
-3.97406
0
LINE
8
BLACK
6
CONTINUOUS
10
6.56823
20
-3.97406
11
6.56829
21
-3.97399
0
LINE
8
BLACK
6
CONTINUOUS
10
6.56829
20
-3.97399
11
6.56715
21
-3.97237
0
LINE
8
BLACK
6
CONTINUOUS
10
6.56715
20
-3.97237
11
6.56719
21
-3.96996
0
LINE
8
BLACK
6
CONTINUOUS
10
6.56719
20
-3.96996
11
6.56829
21
-3.96845
0
LINE
8
BLACK
6
CONTINUOUS
10
6.56829
20
-3.96845
11
6.56823
21
-3.96838
0
LINE
8
BLACK
6
CONTINUOUS
10
6.56823
20
-3.96838
11
6.56842
21
-3.96819
0
LINE
8
BLACK
6
CONTINUOUS
10
6.56842
20
-3.96819
11
6.56864
21
-3.96802
0
LINE
8
BLACK
6
CONTINUOUS
10
6.56864
20
-3.96802
11
6.57208
21
-3.96343
0
LINE
8
BLACK
6
CONTINUOUS
10
6.57208
20
-3.96343
11
6.5741
21
-3.95806
0
LINE
8
BLACK
6
CONTINUOUS
10
6.5741
20
-3.95806
11
6.57414
21
-3.95767
0
LINE
8
BLACK
6
CONTINUOUS
10
6.57414
20
-3.95767
11
6.57435
21
-3.95572
0
LINE
8
BLACK
6
CONTINUOUS
10
6.57435
20
-3.95572
11
6.57436
21
-3.95562
0
LINE
8
BLACK
6
CONTINUOUS
10
6.57436
20
-3.95562
11
6.57436
21
-3.88683
0
LINE
8
BLACK
6
CONTINUOUS
10
6.57436
20
-3.88683
11
6.5741
21
-3.88438
0
LINE
8
BLACK
6
CONTINUOUS
10
6.5741
20
-3.88438
11
6.57208
21
-3.87901
0
LINE
8
BLACK
6
CONTINUOUS
10
6.57208
20
-3.87901
11
6.56864
21
-3.87442
0
LINE
8
BLACK
6
CONTINUOUS
10
6.56864
20
-3.87442
11
6.56406
21
-3.87098
0
LINE
8
BLACK
6
CONTINUOUS
10
6.56406
20
-3.87098
11
6.55869
21
-3.86897
0
LINE
8
BLACK
6
CONTINUOUS
10
6.55869
20
-3.86897
11
6.55844
21
-3.86894
0
LINE
8
BLACK
6
CONTINUOUS
10
6.55844
20
-3.86894
11
6.55844
21
-3.86894
0
LINE
8
BLACK
6
CONTINUOUS
10
6.55844
20
-3.86894
11
6.55703
21
-3.86879
0
LINE
8
BLACK
6
CONTINUOUS
10
6.55703
20
-3.86879
11
6.55624
21
-3.8687
0
LINE
8
BLACK
6
CONTINUOUS
10
6.55624
20
-3.8687
11
6.48745
21
-3.8687
0
LINE
8
BLACK
6
CONTINUOUS
10
6.48745
20
-3.8687
11
6.48666
21
-3.86879
0
LINE
8
BLACK
6
CONTINUOUS
10
6.48666
20
-3.86879
11
6.48524
21
-3.86894
0
LINE
8
BLACK
6
CONTINUOUS
10
6.48524
20
-3.86894
11
6.48524
21
-3.86894
0
LINE
8
BLACK
6
CONTINUOUS
10
6.48524
20
-3.86894
11
6.485
21
-3.86897
0
LINE
8
BLACK
6
CONTINUOUS
10
6.485
20
-3.86897
11
6.47963
21
-3.87098
0
LINE
8
BLACK
6
CONTINUOUS
10
6.47963
20
-3.87098
11
6.47504
21
-3.87442
0
LINE
8
BLACK
6
CONTINUOUS
10
6.47504
20
-3.87442
11
6.47487
21
-3.87464
0
LINE
8
BLACK
6
CONTINUOUS
10
6.47487
20
-3.87464
11
6.47468
21
-3.87484
0
LINE
8
BLACK
6
CONTINUOUS
10
6.47468
20
-3.87484
11
6.47461
21
-3.87477
0
LINE
8
BLACK
6
CONTINUOUS
10
6.47461
20
-3.87477
11
6.47299
21
-3.87591
0
LINE
8
BLACK
6
CONTINUOUS
10
6.47299
20
-3.87591
11
6.47058
21
-3.87588
0
LINE
8
BLACK
6
CONTINUOUS
10
6.47058
20
-3.87588
11
6.46907
21
-3.87478
0
LINE
8
BLACK
6
CONTINUOUS
10
6.46907
20
-3.87478
11
6.46901
21
-3.87484
0
LINE
8
BLACK
6
CONTINUOUS
10
6.46901
20
-3.87484
11
6.46881
21
-3.87464
0
LINE
8
BLACK
6
CONTINUOUS
10
6.46881
20
-3.87464
11
6.46864
21
-3.87442
0
LINE
8
BLACK
6
CONTINUOUS
10
6.46864
20
-3.87442
11
6.46406
21
-3.87098
0
LINE
8
BLACK
6
CONTINUOUS
10
6.46406
20
-3.87098
11
6.45869
21
-3.86897
0
LINE
8
BLACK
6
CONTINUOUS
10
6.45869
20
-3.86897
11
6.45844
21
-3.86894
0
LINE
8
BLACK
6
CONTINUOUS
10
6.45844
20
-3.86894
11
6.45844
21
-3.86894
0
LINE
8
BLACK
6
CONTINUOUS
10
6.45844
20
-3.86894
11
6.45703
21
-3.86879
0
LINE
8
BLACK
6
CONTINUOUS
10
6.45703
20
-3.86879
11
6.45624
21
-3.8687
0
LINE
8
BLACK
6
CONTINUOUS
10
6.45624
20
-3.8687
11
6.38745
21
-3.8687
0
LINE
8
BLACK
6
CONTINUOUS
10
6.38745
20
-3.8687
11
6.38666
21
-3.86879
0
LINE
8
BLACK
6
CONTINUOUS
10
6.38666
20
-3.86879
11
6.38524
21
-3.86894
0
LINE
8
BLACK
6
CONTINUOUS
10
6.38524
20
-3.86894
11
6.38524
21
-3.86894
0
LINE
8
BLACK
6
CONTINUOUS
10
6.38524
20
-3.86894
11
6.385
21
-3.86897
0
LINE
8
BLACK
6
CONTINUOUS
10
6.385
20
-3.86897
11
6.37963
21
-3.87098
0
LINE
8
BLACK
6
CONTINUOUS
10
6.37963
20
-3.87098
11
6.37504
21
-3.87442
0
LINE
8
BLACK
6
CONTINUOUS
10
6.37504
20
-3.87442
11
6.37487
21
-3.87464
0
LINE
8
BLACK
6
CONTINUOUS
10
6.37487
20
-3.87464
11
6.37468
21
-3.87484
0
LINE
8
BLACK
6
CONTINUOUS
10
6.37468
20
-3.87484
11
6.37461
21
-3.87477
0
LINE
8
BLACK
6
CONTINUOUS
10
6.37461
20
-3.87477
11
6.37299
21
-3.87591
0
LINE
8
BLACK
6
CONTINUOUS
10
6.37299
20
-3.87591
11
6.37058
21
-3.87588
0
LINE
8
BLACK
6
CONTINUOUS
10
6.37058
20
-3.87588
11
6.36907
21
-3.87478
0
LINE
8
BLACK
6
CONTINUOUS
10
6.36907
20
-3.87478
11
6.36901
21
-3.87484
0
LINE
8
BLACK
6
CONTINUOUS
10
6.36901
20
-3.87484
11
6.36881
21
-3.87464
0
LINE
8
BLACK
6
CONTINUOUS
10
6.36881
20
-3.87464
11
6.36864
21
-3.87442
0
LINE
8
BLACK
6
CONTINUOUS
10
6.36864
20
-3.87442
11
6.36406
21
-3.87098
0
LINE
8
BLACK
6
CONTINUOUS
10
6.36406
20
-3.87098
11
6.35869
21
-3.86897
0
LINE
8
BLACK
6
CONTINUOUS
10
6.35869
20
-3.86897
11
6.35844
21
-3.86894
0
LINE
8
BLACK
6
CONTINUOUS
10
6.35844
20
-3.86894
11
6.35844
21
-3.86894
0
LINE
8
BLACK
6
CONTINUOUS
10
6.35844
20
-3.86894
11
6.35703
21
-3.86879
0
LINE
8
BLACK
6
CONTINUOUS
10
6.35703
20
-3.86879
11
6.35624
21
-3.8687
0
LINE
8
BLACK
6
CONTINUOUS
10
6.35624
20
-3.8687
11
6.28745
21
-3.8687
0
LINE
8
BLACK
6
CONTINUOUS
10
6.28745
20
-3.8687
11
6.28666
21
-3.86879
0
LINE
8
BLACK
6
CONTINUOUS
10
6.28666
20
-3.86879
11
6.28524
21
-3.86894
0
LINE
8
BLACK
6
CONTINUOUS
10
6.28524
20
-3.86894
11
6.28524
21
-3.86894
0
LINE
8
BLACK
6
CONTINUOUS
10
6.28524
20
-3.86894
11
6.285
21
-3.86897
0
LINE
8
BLACK
6
CONTINUOUS
10
6.285
20
-3.86897
11
6.27963
21
-3.87098
0
LINE
8
BLACK
6
CONTINUOUS
10
6.27963
20
-3.87098
11
6.27504
21
-3.87442
0
LINE
8
BLACK
6
CONTINUOUS
10
6.27504
20
-3.87442
11
6.2716
21
-3.87901
0
LINE
8
BLACK
6
CONTINUOUS
10
6.2716
20
-3.87901
11
6.26959
21
-3.88438
0
LINE
8
BLACK
6
CONTINUOUS
10
6.26959
20
-3.88438
11
6.26932
21
-3.88683
0
LINE
8
BLACK
6
CONTINUOUS
10
6.26932
20
-3.88683
11
6.26932
21
-3.95562
0
LINE
8
BLACK
6
CONTINUOUS
10
6.26932
20
-3.95562
11
6.26933
21
-3.95572
0
LINE
8
BLACK
6
CONTINUOUS
10
6.26933
20
-3.95572
11
6.26955
21
-3.95767
0
LINE
8
BLACK
6
CONTINUOUS
10
6.26955
20
-3.95767
11
6.26959
21
-3.95806
0
LINE
8
BLACK
6
CONTINUOUS
10
6.26959
20
-3.95806
11
6.2716
21
-3.96343
0
LINE
8
BLACK
6
CONTINUOUS
10
6.2716
20
-3.96343
11
6.27504
21
-3.96802
0
LINE
8
BLACK
6
CONTINUOUS
10
6.27504
20
-3.96802
11
6.27526
21
-3.96819
0
LINE
8
BLACK
6
CONTINUOUS
10
6.27526
20
-3.96819
11
6.27546
21
-3.96838
0
LINE
8
BLACK
6
CONTINUOUS
10
6.27546
20
-3.96838
11
6.27539
21
-3.96845
0
LINE
8
BLACK
6
CONTINUOUS
10
6.27539
20
-3.96845
11
6.27653
21
-3.97007
0
LINE
8
BLACK
6
CONTINUOUS
10
6.27653
20
-3.97007
11
6.2765
21
-3.97248
0
LINE
8
BLACK
6
CONTINUOUS
10
6.2765
20
-3.97248
11
6.2754
21
-3.97399
0
LINE
8
BLACK
6
CONTINUOUS
10
6.2754
20
-3.97399
11
6.27546
21
-3.97406
0
LINE
8
BLACK
6
CONTINUOUS
10
6.27546
20
-3.97406
11
6.27526
21
-3.97425
0
LINE
8
BLACK
6
CONTINUOUS
10
6.27526
20
-3.97425
11
6.27504
21
-3.97442
0
LINE
8
BLACK
6
CONTINUOUS
10
6.27504
20
-3.97442
11
6.2716
21
-3.97901
0
LINE
8
BLACK
6
CONTINUOUS
10
6.2716
20
-3.97901
11
6.26959
21
-3.98438
0
LINE
8
BLACK
6
CONTINUOUS
10
6.26959
20
-3.98438
11
6.26932
21
-3.98683
0
LINE
8
BLACK
6
CONTINUOUS
10
6.26932
20
-3.98683
11
6.26932
21
-4.05562
0
LINE
8
BLACK
6
CONTINUOUS
10
6.26932
20
-4.05562
11
6.26959
21
-4.05806
0
LINE
8
BLACK
6
CONTINUOUS
10
6.26959
20
-4.05806
11
6.2716
21
-4.06343
0
LINE
8
BLACK
6
CONTINUOUS
10
5.58715
20
-3.86064
11
5.59105
21
-3.87825
0
LINE
8
BLACK
6
CONTINUOUS
10
5.59105
20
-3.87825
11
5.59108
21
-3.87833
0
LINE
8
BLACK
6
CONTINUOUS
10
5.59108
20
-3.87833
11
5.59108
21
-3.87833
0
LINE
8
BLACK
6
CONTINUOUS
10
5.59108
20
-3.87833
11
5.59376
21
-3.88683
0
LINE
8
BLACK
6
CONTINUOUS
10
5.59376
20
-3.88683
11
5.59648
21
-3.89546
0
LINE
8
BLACK
6
CONTINUOUS
10
5.59648
20
-3.89546
11
5.60339
21
-3.91213
0
LINE
8
BLACK
6
CONTINUOUS
10
5.60339
20
-3.91213
11
5.61172
21
-3.92814
0
LINE
8
BLACK
6
CONTINUOUS
10
5.61172
20
-3.92814
11
5.62141
21
-3.94336
0
LINE
8
BLACK
6
CONTINUOUS
10
5.62141
20
-3.94336
11
5.6324
21
-3.95767
0
LINE
8
BLACK
6
CONTINUOUS
10
5.6324
20
-3.95767
11
5.63245
21
-3.95773
0
LINE
8
BLACK
6
CONTINUOUS
10
5.63245
20
-3.95773
11
5.64376
21
-3.97007
0
LINE
8
BLACK
6
CONTINUOUS
10
5.64376
20
-3.97007
11
5.64459
21
-3.97098
0
LINE
8
BLACK
6
CONTINUOUS
10
5.64459
20
-3.97098
11
5.65789
21
-3.98317
0
LINE
8
BLACK
6
CONTINUOUS
10
5.65789
20
-3.98317
11
5.67221
21
-3.99415
0
LINE
8
BLACK
6
CONTINUOUS
10
5.67221
20
-3.99415
11
5.68742
21
-4.00385
0
LINE
8
BLACK
6
CONTINUOUS
10
5.68742
20
-4.00385
11
5.70343
21
-4.01218
0
LINE
8
BLACK
6
CONTINUOUS
10
5.70343
20
-4.01218
11
5.7201
21
-4.01908
0
LINE
8
BLACK
6
CONTINUOUS
10
5.7201
20
-4.01908
11
5.72018
21
-4.01911
0
LINE
8
BLACK
6
CONTINUOUS
10
5.72018
20
-4.01911
11
5.72018
21
-4.01911
0
LINE
8
BLACK
6
CONTINUOUS
10
5.72018
20
-4.01911
11
5.73723
21
-4.02448
0
LINE
8
BLACK
6
CONTINUOUS
10
5.73723
20
-4.02448
11
5.73723
21
-4.02448
0
LINE
8
BLACK
6
CONTINUOUS
10
5.73723
20
-4.02448
11
5.73731
21
-4.02451
0
LINE
8
BLACK
6
CONTINUOUS
10
5.73731
20
-4.02451
11
5.74336
21
-4.02585
0
LINE
8
BLACK
6
CONTINUOUS
10
5.74336
20
-4.02585
11
5.75484
21
-4.0284
0
LINE
8
BLACK
6
CONTINUOUS
10
5.75484
20
-4.0284
11
5.75484
21
-4.0284
0
LINE
8
BLACK
6
CONTINUOUS
10
5.75484
20
-4.0284
11
5.75493
21
-4.02841
0
LINE
8
BLACK
6
CONTINUOUS
10
5.75493
20
-4.02841
11
5.77282
21
-4.03077
0
LINE
8
BLACK
6
CONTINUOUS
10
5.77282
20
-4.03077
11
5.79084
21
-4.03156
0
LINE
8
BLACK
6
CONTINUOUS
10
5.79084
20
-4.03156
11
5.80887
21
-4.03077
0
LINE
8
BLACK
6
CONTINUOUS
10
5.80887
20
-4.03077
11
5.82676
21
-4.02841
0
LINE
8
BLACK
6
CONTINUOUS
10
5.82676
20
-4.02841
11
5.82684
21
-4.0284
0
LINE
8
BLACK
6
CONTINUOUS
10
5.82684
20
-4.0284
11
5.82684
21
-4.0284
0
LINE
8
BLACK
6
CONTINUOUS
10
5.82684
20
-4.0284
11
5.83832
21
-4.02585
0
LINE
8
BLACK
6
CONTINUOUS
10
5.83832
20
-4.02585
11
5.84438
21
-4.02451
0
LINE
8
BLACK
6
CONTINUOUS
10
5.84438
20
-4.02451
11
5.84446
21
-4.02448
0
LINE
8
BLACK
6
CONTINUOUS
10
5.84446
20
-4.02448
11
5.84446
21
-4.02448
0
LINE
8
BLACK
6
CONTINUOUS
10
5.84446
20
-4.02448
11
5.8615
21
-4.01911
0
LINE
8
BLACK
6
CONTINUOUS
10
5.8615
20
-4.01911
11
5.8615
21
-4.01911
0
LINE
8
BLACK
6
CONTINUOUS
10
5.8615
20
-4.01911
11
5.86158
21
-4.01908
0
LINE
8
BLACK
6
CONTINUOUS
10
5.86158
20
-4.01908
11
5.87826
21
-4.01218
0
LINE
8
BLACK
6
CONTINUOUS
10
5.87826
20
-4.01218
11
5.89426
21
-4.00385
0
LINE
8
BLACK
6
CONTINUOUS
10
5.89426
20
-4.00385
11
5.90948
21
-3.99415
0
LINE
8
BLACK
6
CONTINUOUS
10
5.90948
20
-3.99415
11
5.92379
21
-3.98317
0
LINE
8
BLACK
6
CONTINUOUS
10
5.92379
20
-3.98317
11
5.9371
21
-3.97098
0
LINE
8
BLACK
6
CONTINUOUS
10
5.9371
20
-3.97098
11
5.93793
21
-3.97007
0
LINE
8
BLACK
6
CONTINUOUS
10
5.93793
20
-3.97007
11
5.94923
21
-3.95773
0
LINE
8
BLACK
6
CONTINUOUS
10
5.94923
20
-3.95773
11
5.94929
21
-3.95767
0
LINE
8
BLACK
6
CONTINUOUS
10
5.94929
20
-3.95767
11
5.96027
21
-3.94336
0
LINE
8
BLACK
6
CONTINUOUS
10
5.96027
20
-3.94336
11
5.96997
21
-3.92814
0
LINE
8
BLACK
6
CONTINUOUS
10
5.96997
20
-3.92814
11
5.9783
21
-3.91213
0
LINE
8
BLACK
6
CONTINUOUS
10
5.9783
20
-3.91213
11
5.9852
21
-3.89546
0
LINE
8
BLACK
6
CONTINUOUS
10
5.9852
20
-3.89546
11
5.98793
21
-3.88683
0
LINE
8
BLACK
6
CONTINUOUS
10
5.98793
20
-3.88683
11
5.99061
21
-3.87833
0
LINE
8
BLACK
6
CONTINUOUS
10
5.99061
20
-3.87833
11
5.99061
21
-3.87833
0
LINE
8
BLACK
6
CONTINUOUS
10
5.99061
20
-3.87833
11
5.99063
21
-3.87825
0
LINE
8
BLACK
6
CONTINUOUS
10
5.99063
20
-3.87825
11
5.99454
21
-3.86064
0
LINE
8
BLACK
6
CONTINUOUS
10
5.99454
20
-3.86064
11
5.99689
21
-3.84275
0
LINE
8
BLACK
6
CONTINUOUS
10
5.99689
20
-3.84275
11
5.99768
21
-3.82472
0
LINE
8
BLACK
6
CONTINUOUS
10
5.99768
20
-3.82472
11
5.99689
21
-3.80669
0
LINE
8
BLACK
6
CONTINUOUS
10
5.99689
20
-3.80669
11
5.99454
21
-3.7888
0
LINE
8
BLACK
6
CONTINUOUS
10
5.99454
20
-3.7888
11
5.99067
21
-3.77137
0
LINE
8
BLACK
6
CONTINUOUS
10
5.99067
20
-3.77137
11
5.9909
21
-3.76897
0
LINE
8
BLACK
6
CONTINUOUS
10
5.9909
20
-3.76897
11
5.9925
21
-3.76717
0
LINE
8
BLACK
6
CONTINUOUS
10
5.9925
20
-3.76717
11
5.99485
21
-3.76665
0
LINE
8
BLACK
6
CONTINUOUS
10
5.99485
20
-3.76665
11
5.99638
21
-3.76712
0
LINE
8
BLACK
6
CONTINUOUS
10
5.99638
20
-3.76712
11
5.99842
21
-3.76827
0
LINE
8
BLACK
6
CONTINUOUS
10
5.99842
20
-3.76827
11
5.99861
21
-3.76833
0
LINE
8
BLACK
6
CONTINUOUS
10
5.99861
20
-3.76833
11
6.00524
21
-3.77048
0
LINE
8
BLACK
6
CONTINUOUS
10
6.00524
20
-3.77048
11
6.00524
21
-3.77048
0
LINE
8
BLACK
6
CONTINUOUS
10
6.00524
20
-3.77048
11
6.00542
21
-3.77054
0
LINE
8
BLACK
6
CONTINUOUS
10
6.00542
20
-3.77054
11
6.01273
21
-3.77141
0
LINE
8
BLACK
6
CONTINUOUS
10
6.01273
20
-3.77141
11
6.01292
21
-3.7714
0
LINE
8
BLACK
6
CONTINUOUS
10
6.01292
20
-3.7714
11
6.01292
21
-3.7714
0
LINE
8
BLACK
6
CONTINUOUS
10
6.01292
20
-3.7714
11
6.01567
21
-3.77119
0
LINE
8
BLACK
6
CONTINUOUS
10
6.01567
20
-3.77119
11
6.02006
21
-3.77085
0
LINE
8
BLACK
6
CONTINUOUS
10
6.02006
20
-3.77085
11
6.02715
21
-3.76887
0
LINE
8
BLACK
6
CONTINUOUS
10
6.02715
20
-3.76887
11
6.02769
21
-3.7686
0
LINE
8
BLACK
6
CONTINUOUS
10
6.02769
20
-3.7686
11
6.03355
21
-3.76564
0
LINE
8
BLACK
6
CONTINUOUS
10
6.03355
20
-3.76564
11
6.03355
21
-3.76564
0
LINE
8
BLACK
6
CONTINUOUS
10
6.03355
20
-3.76564
11
6.03372
21
-3.76555
0
LINE
8
BLACK
6
CONTINUOUS
10
6.03372
20
-3.76555
11
6.03952
21
-3.76102
0
LINE
8
BLACK
6
CONTINUOUS
10
6.03952
20
-3.76102
11
6.03964
21
-3.76088
0
LINE
8
BLACK
6
CONTINUOUS
10
6.03964
20
-3.76088
11
6.03964
21
-3.76088
0
LINE
8
BLACK
6
CONTINUOUS
10
6.03964
20
-3.76088
11
6.0442
21
-3.7556
0
LINE
8
BLACK
6
CONTINUOUS
10
6.0442
20
-3.7556
11
6.04433
21
-3.75545
0
LINE
8
BLACK
6
CONTINUOUS
10
6.04433
20
-3.75545
11
6.04444
21
-3.75525
0
LINE
8
BLACK
6
CONTINUOUS
10
6.04444
20
-3.75525
11
6.04787
21
-3.74922
0
LINE
8
BLACK
6
CONTINUOUS
10
6.04787
20
-3.74922
11
6.04787
21
-3.74922
0
LINE
8
BLACK
6
CONTINUOUS
10
6.04787
20
-3.74922
11
6.04796
21
-3.74905
0
LINE
8
BLACK
6
CONTINUOUS
10
6.04796
20
-3.74905
11
6.0485
21
-3.74744
0
LINE
8
BLACK
6
CONTINUOUS
10
6.0485
20
-3.74744
11
6.0493
21
-3.74502
0
LINE
8
BLACK
6
CONTINUOUS
10
6.0493
20
-3.74502
11
6.05028
21
-3.74207
0
LINE
8
BLACK
6
CONTINUOUS
10
6.05028
20
-3.74207
11
6.05053
21
-3.74009
0
LINE
8
BLACK
6
CONTINUOUS
10
6.05053
20
-3.74009
11
6.05164
21
-3.73783
0
LINE
8
BLACK
6
CONTINUOUS
10
6.05164
20
-3.73783
11
6.08275
21
-3.70672
0
LINE
8
BLACK
6
CONTINUOUS
10
6.08275
20
-3.70672
11
6.08489
21
-3.70563
0
LINE
8
BLACK
6
CONTINUOUS
10
6.08489
20
-3.70563
11
6.0855
21
-3.70558
0
LINE
8
BLACK
6
CONTINUOUS
10
6.0855
20
-3.70558
11
6.1906
21
-3.70558
0
LINE
8
BLACK
6
CONTINUOUS
10
6.1906
20
-3.70558
11
6.19289
21
-3.70633
0
LINE
8
BLACK
6
CONTINUOUS
10
6.19289
20
-3.70633
11
6.19313
21
-3.70651
0
LINE
8
BLACK
6
CONTINUOUS
10
6.19313
20
-3.70651
11
6.19333
21
-3.70668
0
LINE
8
BLACK
6
CONTINUOUS
10
6.19333
20
-3.70668
11
6.19349
21
-3.70677
0
LINE
8
BLACK
6
CONTINUOUS
10
6.19349
20
-3.70677
11
6.19349
21
-3.70677
0
LINE
8
BLACK
6
CONTINUOUS
10
6.19349
20
-3.70677
11
6.19489
21
-3.70755
0
LINE
8
BLACK
6
CONTINUOUS
10
6.19489
20
-3.70755
11
6.19975
21
-3.71027
0
LINE
8
BLACK
6
CONTINUOUS
10
6.19975
20
-3.71027
11
6.19993
21
-3.71033
0
LINE
8
BLACK
6
CONTINUOUS
10
6.19993
20
-3.71033
11
6.20657
21
-3.71248
0
LINE
8
BLACK
6
CONTINUOUS
10
6.20657
20
-3.71248
11
6.20657
21
-3.71248
0
LINE
8
BLACK
6
CONTINUOUS
10
6.20657
20
-3.71248
11
6.20675
21
-3.71254
0
LINE
8
BLACK
6
CONTINUOUS
10
6.20675
20
-3.71254
11
6.21405
21
-3.71341
0
LINE
8
BLACK
6
CONTINUOUS
10
6.21405
20
-3.71341
11
6.21424
21
-3.7134
0
LINE
8
BLACK
6
CONTINUOUS
10
6.21424
20
-3.7134
11
6.21424
21
-3.7134
0
LINE
8
BLACK
6
CONTINUOUS
10
6.21424
20
-3.7134
11
6.21664
21
-3.71321
0
LINE
8
BLACK
6
CONTINUOUS
10
6.21664
20
-3.71321
11
6.22139
21
-3.71285
0
LINE
8
BLACK
6
CONTINUOUS
10
6.22139
20
-3.71285
11
6.22848
21
-3.71087
0
LINE
8
BLACK
6
CONTINUOUS
10
6.22848
20
-3.71087
11
6.22865
21
-3.71078
0
LINE
8
BLACK
6
CONTINUOUS
10
6.22865
20
-3.71078
11
6.23487
21
-3.70764
0
LINE
8
BLACK
6
CONTINUOUS
10
6.23487
20
-3.70764
11
6.23487
21
-3.70764
0
LINE
8
BLACK
6
CONTINUOUS
10
6.23487
20
-3.70764
11
6.23504
21
-3.70755
0
LINE
8
BLACK
6
CONTINUOUS
10
6.23504
20
-3.70755
11
6.24084
21
-3.70302
0
LINE
8
BLACK
6
CONTINUOUS
10
6.24084
20
-3.70302
11
6.24097
21
-3.70288
0
LINE
8
BLACK
6
CONTINUOUS
10
6.24097
20
-3.70288
11
6.24097
21
-3.70288
0
LINE
8
BLACK
6
CONTINUOUS
10
6.24097
20
-3.70288
11
6.24553
21
-3.6976
0
LINE
8
BLACK
6
CONTINUOUS
10
6.24553
20
-3.6976
11
6.24565
21
-3.69745
0
LINE
8
BLACK
6
CONTINUOUS
10
6.24565
20
-3.69745
11
6.24608
21
-3.69669
0
LINE
8
BLACK
6
CONTINUOUS
10
6.24608
20
-3.69669
11
6.24919
21
-3.69122
0
LINE
8
BLACK
6
CONTINUOUS
10
6.24919
20
-3.69122
11
6.24919
21
-3.69122
0
LINE
8
BLACK
6
CONTINUOUS
10
6.24919
20
-3.69122
11
6.24928
21
-3.69105
0
LINE
8
BLACK
6
CONTINUOUS
10
6.24928
20
-3.69105
11
6.25161
21
-3.68407
0
LINE
8
BLACK
6
CONTINUOUS
10
6.25161
20
-3.68407
11
6.25253
21
-3.67677
0
LINE
8
BLACK
6
CONTINUOUS
10
6.25253
20
-3.67677
11
6.25254
21
-3.67572
0
LINE
8
BLACK
6
CONTINUOUS
10
6.25254
20
-3.67572
11
6.25183
21
-3.6684
0
LINE
8
BLACK
6
CONTINUOUS
10
6.25183
20
-3.6684
11
6.2497
21
-3.66135
0
LINE
8
BLACK
6
CONTINUOUS
10
6.2497
20
-3.66135
11
6.24624
21
-3.65486
0
LINE
8
BLACK
6
CONTINUOUS
10
6.24624
20
-3.65486
11
6.24159
21
-3.64915
0
LINE
8
BLACK
6
CONTINUOUS
10
6.24159
20
-3.64915
11
6.24136
21
-3.64896
0
LINE
8
BLACK
6
CONTINUOUS
10
6.24136
20
-3.64896
11
6.23607
21
-3.64459
0
LINE
8
BLACK
6
CONTINUOUS
10
6.23607
20
-3.64459
11
6.23607
21
-3.64459
0
LINE
8
BLACK
6
CONTINUOUS
10
6.23607
20
-3.64459
11
6.23592
21
-3.64446
0
LINE
8
BLACK
6
CONTINUOUS
10
6.23592
20
-3.64446
11
6.22945
21
-3.64097
0
LINE
8
BLACK
6
CONTINUOUS
10
6.22945
20
-3.64097
11
6.22242
21
-3.63879
0
LINE
8
BLACK
6
CONTINUOUS
10
6.22242
20
-3.63879
11
6.22223
21
-3.63877
0
LINE
8
BLACK
6
CONTINUOUS
10
6.22223
20
-3.63877
11
6.22223
21
-3.63877
0
LINE
8
BLACK
6
CONTINUOUS
10
6.22223
20
-3.63877
11
6.2153
21
-3.63804
0
LINE
8
BLACK
6
CONTINUOUS
10
6.2153
20
-3.63804
11
6.2153
21
-3.63804
0
LINE
8
BLACK
6
CONTINUOUS
10
6.2153
20
-3.63804
11
6.21511
21
-3.63802
0
LINE
8
BLACK
6
CONTINUOUS
10
6.21511
20
-3.63802
11
6.21275
21
-3.63823
0
LINE
8
BLACK
6
CONTINUOUS
10
6.21275
20
-3.63823
11
6.20797
21
-3.63867
0
LINE
8
BLACK
6
CONTINUOUS
10
6.20797
20
-3.63867
11
6.20797
21
-3.63867
0
LINE
8
BLACK
6
CONTINUOUS
10
6.20797
20
-3.63867
11
6.20778
21
-3.63869
0
LINE
8
BLACK
6
CONTINUOUS
10
6.20778
20
-3.63869
11
6.2076
21
-3.63874
0
LINE
8
BLACK
6
CONTINUOUS
10
6.2076
20
-3.63874
11
6.2076
21
-3.63874
0
LINE
8
BLACK
6
CONTINUOUS
10
6.2076
20
-3.63874
11
6.2009
21
-3.64071
0
LINE
8
BLACK
6
CONTINUOUS
10
6.2009
20
-3.64071
11
6.2009
21
-3.64071
0
LINE
8
BLACK
6
CONTINUOUS
10
6.2009
20
-3.64071
11
6.20072
21
-3.64076
0
LINE
8
BLACK
6
CONTINUOUS
10
6.20072
20
-3.64076
11
6.1942
21
-3.64417
0
LINE
8
BLACK
6
CONTINUOUS
10
6.1942
20
-3.64417
11
6.19405
21
-3.64429
0
LINE
8
BLACK
6
CONTINUOUS
10
6.19405
20
-3.64429
11
6.19405
21
-3.64429
0
LINE
8
BLACK
6
CONTINUOUS
10
6.19405
20
-3.64429
11
6.19317
21
-3.645
0
LINE
8
BLACK
6
CONTINUOUS
10
6.19317
20
-3.645
11
6.19073
21
-3.64586
0
LINE
8
BLACK
6
CONTINUOUS
10
6.19073
20
-3.64586
11
6.07408
21
-3.64586
0
LINE
8
BLACK
6
CONTINUOUS
10
6.07408
20
-3.64586
11
6.07349
21
-3.64581
0
LINE
8
BLACK
6
CONTINUOUS
10
6.07349
20
-3.64581
11
6.07279
21
-3.64571
0
LINE
8
BLACK
6
CONTINUOUS
10
6.07279
20
-3.64571
11
6.07279
21
-3.64571
0
LINE
8
BLACK
6
CONTINUOUS
10
6.07279
20
-3.64571
11
6.07257
21
-3.64567
0
LINE
8
BLACK
6
CONTINUOUS
10
6.07257
20
-3.64567
11
6.07053
21
-3.64584
0
LINE
8
BLACK
6
CONTINUOUS
10
6.07053
20
-3.64584
11
6.07045
21
-3.64585
0
LINE
8
BLACK
6
CONTINUOUS
10
6.07045
20
-3.64585
11
6.07014
21
-3.64586
0
LINE
8
BLACK
6
CONTINUOUS
10
6.07014
20
-3.64586
11
6.06977
21
-3.64586
0
LINE
8
BLACK
6
CONTINUOUS
10
6.06977
20
-3.64586
11
6.06966
21
-3.64587
0
LINE
8
BLACK
6
CONTINUOUS
10
6.06966
20
-3.64587
11
6.06966
21
-3.64587
0
LINE
8
BLACK
6
CONTINUOUS
10
6.06966
20
-3.64587
11
6.06864
21
-3.64599
0
LINE
8
BLACK
6
CONTINUOUS
10
6.06864
20
-3.64599
11
6.06851
21
-3.646
0
LINE
8
BLACK
6
CONTINUOUS
10
6.06851
20
-3.646
11
6.06585
21
-3.64622
0
LINE
8
BLACK
6
CONTINUOUS
10
6.06585
20
-3.64622
11
6.06585
21
-3.64622
0
LINE
8
BLACK
6
CONTINUOUS
10
6.06585
20
-3.64622
11
6.06563
21
-3.64624
0
LINE
8
BLACK
6
CONTINUOUS
10
6.06563
20
-3.64624
11
6.06541
21
-3.64631
0
LINE
8
BLACK
6
CONTINUOUS
10
6.06541
20
-3.64631
11
6.06519
21
-3.64635
0
LINE
8
BLACK
6
CONTINUOUS
10
6.06519
20
-3.64635
11
6.06519
21
-3.64635
0
LINE
8
BLACK
6
CONTINUOUS
10
6.06519
20
-3.64635
11
6.06505
21
-3.64638
0
LINE
8
BLACK
6
CONTINUOUS
10
6.06505
20
-3.64638
11
6.06505
21
-3.64638
0
LINE
8
BLACK
6
CONTINUOUS
10
6.06505
20
-3.64638
11
6.06483
21
-3.64644
0
LINE
8
BLACK
6
CONTINUOUS
10
6.06483
20
-3.64644
11
6.0646
21
-3.64646
0
LINE
8
BLACK
6
CONTINUOUS
10
6.0646
20
-3.64646
11
6.06439
21
-3.64654
0
LINE
8
BLACK
6
CONTINUOUS
10
6.06439
20
-3.64654
11
6.06188
21
-3.64745
0
LINE
8
BLACK
6
CONTINUOUS
10
6.06188
20
-3.64745
11
6.06175
21
-3.64749
0
LINE
8
BLACK
6
CONTINUOUS
10
6.06175
20
-3.64749
11
6.05967
21
-3.64817
0
LINE
8
BLACK
6
CONTINUOUS
10
6.05967
20
-3.64817
11
6.059
21
-3.64838
0
LINE
8
BLACK
6
CONTINUOUS
10
6.059
20
-3.64838
11
6.05881
21
-3.6485
0
LINE
8
BLACK
6
CONTINUOUS
10
6.05881
20
-3.6485
11
6.0586
21
-3.6486
0
LINE
8
BLACK
6
CONTINUOUS
10
6.0586
20
-3.6486
11
6.0586
21
-3.64859
0
LINE
8
BLACK
6
CONTINUOUS
10
6.0586
20
-3.64859
11
6.05847
21
-3.64865
0
LINE
8
BLACK
6
CONTINUOUS
10
6.05847
20
-3.64865
11
6.05847
21
-3.64866
0
LINE
8
BLACK
6
CONTINUOUS
10
6.05847
20
-3.64866
11
6.05827
21
-3.64876
0
LINE
8
BLACK
6
CONTINUOUS
10
6.05827
20
-3.64876
11
6.05806
21
-3.64884
0
LINE
8
BLACK
6
CONTINUOUS
10
6.05806
20
-3.64884
11
6.05787
21
-3.64896
0
LINE
8
BLACK
6
CONTINUOUS
10
6.05787
20
-3.64896
11
6.05787
21
-3.64896
0
LINE
8
BLACK
6
CONTINUOUS
10
6.05787
20
-3.64896
11
6.05564
21
-3.65042
0
LINE
8
BLACK
6
CONTINUOUS
10
6.05564
20
-3.65042
11
6.05552
21
-3.6505
0
LINE
8
BLACK
6
CONTINUOUS
10
6.05552
20
-3.6505
11
6.0532
21
-3.65191
0
LINE
8
BLACK
6
CONTINUOUS
10
6.0532
20
-3.65191
11
6.0532
21
-3.65191
0
LINE
8
BLACK
6
CONTINUOUS
10
6.0532
20
-3.65191
11
6.05305
21
-3.652
0
LINE
8
BLACK
6
CONTINUOUS
10
6.05305
20
-3.652
11
6.05272
21
-3.65229
0
LINE
8
BLACK
6
CONTINUOUS
10
6.05272
20
-3.65229
11
6.05271
21
-3.65228
0
LINE
8
BLACK
6
CONTINUOUS
10
6.05271
20
-3.65228
11
6.05259
21
-3.65238
0
LINE
8
BLACK
6
CONTINUOUS
10
6.05259
20
-3.65238
11
6.0526
21
-3.65239
0
LINE
8
BLACK
6
CONTINUOUS
10
6.0526
20
-3.65239
11
6.05242
21
-3.65253
0
LINE
8
BLACK
6
CONTINUOUS
10
6.05242
20
-3.65253
11
6.05223
21
-3.65266
0
LINE
8
BLACK
6
CONTINUOUS
10
6.05223
20
-3.65266
11
6.05208
21
-3.65282
0
LINE
8
BLACK
6
CONTINUOUS
10
6.05208
20
-3.65282
11
6.05013
21
-3.65488
0
LINE
8
BLACK
6
CONTINUOUS
10
6.05013
20
-3.65488
11
6.05005
21
-3.65495
0
LINE
8
BLACK
6
CONTINUOUS
10
6.05005
20
-3.65495
11
6.0095
21
-3.6955
0
LINE
8
BLACK
6
CONTINUOUS
10
6.0095
20
-3.6955
11
6.00736
21
-3.6966
0
LINE
8
BLACK
6
CONTINUOUS
10
6.00736
20
-3.6966
11
6.0071
21
-3.69663
0
LINE
8
BLACK
6
CONTINUOUS
10
6.0071
20
-3.69663
11
6.00664
21
-3.69667
0
LINE
8
BLACK
6
CONTINUOUS
10
6.00664
20
-3.69667
11
6.00664
21
-3.69667
0
LINE
8
BLACK
6
CONTINUOUS
10
6.00664
20
-3.69667
11
6.00645
21
-3.69669
0
LINE
8
BLACK
6
CONTINUOUS
10
6.00645
20
-3.69669
11
6.00385
21
-3.69745
0
LINE
8
BLACK
6
CONTINUOUS
10
6.00385
20
-3.69745
11
5.99958
21
-3.69871
0
LINE
8
BLACK
6
CONTINUOUS
10
5.99958
20
-3.69871
11
5.99958
21
-3.69871
0
LINE
8
BLACK
6
CONTINUOUS
10
5.99958
20
-3.69871
11
5.9994
21
-3.69876
0
LINE
8
BLACK
6
CONTINUOUS
10
5.9994
20
-3.69876
11
5.99287
21
-3.70217
0
LINE
8
BLACK
6
CONTINUOUS
10
5.99287
20
-3.70217
11
5.99273
21
-3.70229
0
LINE
8
BLACK
6
CONTINUOUS
10
5.99273
20
-3.70229
11
5.99273
21
-3.70229
0
LINE
8
BLACK
6
CONTINUOUS
10
5.99273
20
-3.70229
11
5.99185
21
-3.703
0
LINE
8
BLACK
6
CONTINUOUS
10
5.99185
20
-3.703
11
5.98941
21
-3.70386
0
LINE
8
BLACK
6
CONTINUOUS
10
5.98941
20
-3.70386
11
5.96049
21
-3.70386
0
LINE
8
BLACK
6
CONTINUOUS
10
5.96049
20
-3.70386
11
5.9582
21
-3.70311
0
LINE
8
BLACK
6
CONTINUOUS
10
5.9582
20
-3.70311
11
5.95739
21
-3.70233
0
LINE
8
BLACK
6
CONTINUOUS
10
5.95739
20
-3.70233
11
5.94929
21
-3.69177
0
LINE
8
BLACK
6
CONTINUOUS
10
5.94929
20
-3.69177
11
5.9371
21
-3.67847
0
LINE
8
BLACK
6
CONTINUOUS
10
5.9371
20
-3.67847
11
5.92379
21
-3.66627
0
LINE
8
BLACK
6
CONTINUOUS
10
5.92379
20
-3.66627
11
5.90948
21
-3.65529
0
LINE
8
BLACK
6
CONTINUOUS
10
5.90948
20
-3.65529
11
5.90534
21
-3.65266
0
LINE
8
BLACK
6
CONTINUOUS
10
5.90534
20
-3.65266
11
5.89433
21
-3.64564
0
LINE
8
BLACK
6
CONTINUOUS
10
5.89433
20
-3.64564
11
5.89433
21
-3.64564
0
LINE
8
BLACK
6
CONTINUOUS
10
5.89433
20
-3.64564
11
5.89426
21
-3.6456
0
LINE
8
BLACK
6
CONTINUOUS
10
5.89426
20
-3.6456
11
5.89136
21
-3.64409
0
LINE
8
BLACK
6
CONTINUOUS
10
5.89136
20
-3.64409
11
5.88854
21
-3.64262
0
LINE
8
BLACK
6
CONTINUOUS
10
5.88854
20
-3.64262
11
5.87826
21
-3.63726
0
LINE
8
BLACK
6
CONTINUOUS
10
5.87826
20
-3.63726
11
5.86158
21
-3.63036
0
LINE
8
BLACK
6
CONTINUOUS
10
5.86158
20
-3.63036
11
5.85922
21
-3.62961
0
LINE
8
BLACK
6
CONTINUOUS
10
5.85922
20
-3.62961
11
5.84446
21
-3.62496
0
LINE
8
BLACK
6
CONTINUOUS
10
5.84446
20
-3.62496
11
5.84446
21
-3.62496
0
LINE
8
BLACK
6
CONTINUOUS
10
5.84446
20
-3.62496
11
5.84438
21
-3.62493
0
LINE
8
BLACK
6
CONTINUOUS
10
5.84438
20
-3.62493
11
5.83832
21
-3.62359
0
LINE
8
BLACK
6
CONTINUOUS
10
5.83832
20
-3.62359
11
5.82684
21
-3.62105
0
LINE
8
BLACK
6
CONTINUOUS
10
5.82684
20
-3.62105
11
5.82684
21
-3.62105
0
LINE
8
BLACK
6
CONTINUOUS
10
5.82684
20
-3.62105
11
5.82676
21
-3.62103
0
LINE
8
BLACK
6
CONTINUOUS
10
5.82676
20
-3.62103
11
5.80887
21
-3.61867
0
LINE
8
BLACK
6
CONTINUOUS
10
5.80887
20
-3.61867
11
5.79084
21
-3.61788
0
LINE
8
BLACK
6
CONTINUOUS
10
5.79084
20
-3.61788
11
5.77282
21
-3.61867
0
LINE
8
BLACK
6
CONTINUOUS
10
5.77282
20
-3.61867
11
5.75493
21
-3.62103
0
LINE
8
BLACK
6
CONTINUOUS
10
5.75493
20
-3.62103
11
5.75484
21
-3.62105
0
LINE
8
BLACK
6
CONTINUOUS
10
5.75484
20
-3.62105
11
5.75484
21
-3.62105
0
LINE
8
BLACK
6
CONTINUOUS
10
5.75484
20
-3.62105
11
5.74336
21
-3.62359
0
LINE
8
BLACK
6
CONTINUOUS
10
5.74336
20
-3.62359
11
5.73731
21
-3.62493
0
LINE
8
BLACK
6
CONTINUOUS
10
5.73731
20
-3.62493
11
5.73723
21
-3.62496
0
LINE
8
BLACK
6
CONTINUOUS
10
5.73723
20
-3.62496
11
5.73723
21
-3.62496
0
LINE
8
BLACK
6
CONTINUOUS
10
5.73723
20
-3.62496
11
5.72247
21
-3.62961
0
LINE
8
BLACK
6
CONTINUOUS
10
5.72247
20
-3.62961
11
5.7201
21
-3.63036
0
LINE
8
BLACK
6
CONTINUOUS
10
5.7201
20
-3.63036
11
5.70343
21
-3.63726
0
LINE
8
BLACK
6
CONTINUOUS
10
5.70343
20
-3.63726
11
5.69314
21
-3.64262
0
LINE
8
BLACK
6
CONTINUOUS
10
5.69314
20
-3.64262
11
5.69033
21
-3.64409
0
LINE
8
BLACK
6
CONTINUOUS
10
5.69033
20
-3.64409
11
5.68742
21
-3.6456
0
LINE
8
BLACK
6
CONTINUOUS
10
5.68742
20
-3.6456
11
5.68735
21
-3.64564
0
LINE
8
BLACK
6
CONTINUOUS
10
5.68735
20
-3.64564
11
5.68735
21
-3.64564
0
LINE
8
BLACK
6
CONTINUOUS
10
5.68735
20
-3.64564
11
5.67634
21
-3.65266
0
LINE
8
BLACK
6
CONTINUOUS
10
5.67634
20
-3.65266
11
5.67221
21
-3.65529
0
LINE
8
BLACK
6
CONTINUOUS
10
5.67221
20
-3.65529
11
5.65789
21
-3.66627
0
LINE
8
BLACK
6
CONTINUOUS
10
5.65789
20
-3.66627
11
5.64459
21
-3.67847
0
LINE
8
BLACK
6
CONTINUOUS
10
5.64459
20
-3.67847
11
5.6324
21
-3.69177
0
LINE
8
BLACK
6
CONTINUOUS
10
5.6324
20
-3.69177
11
5.62141
21
-3.70608
0
LINE
8
BLACK
6
CONTINUOUS
10
5.62141
20
-3.70608
11
5.62137
21
-3.70616
0
LINE
8
BLACK
6
CONTINUOUS
10
5.62137
20
-3.70616
11
5.62137
21
-3.70616
0
LINE
8
BLACK
6
CONTINUOUS
10
5.62137
20
-3.70616
11
5.61555
21
-3.71529
0
LINE
8
BLACK
6
CONTINUOUS
10
5.61555
20
-3.71529
11
5.61172
21
-3.7213
0
LINE
8
BLACK
6
CONTINUOUS
10
5.61172
20
-3.7213
11
5.60339
21
-3.73731
0
LINE
8
BLACK
6
CONTINUOUS
10
5.60339
20
-3.73731
11
5.59648
21
-3.75398
0
LINE
8
BLACK
6
CONTINUOUS
10
5.59648
20
-3.75398
11
5.59645
21
-3.75406
0
LINE
8
BLACK
6
CONTINUOUS
10
5.59645
20
-3.75406
11
5.59116
21
-3.77086
0
LINE
8
BLACK
6
CONTINUOUS
10
5.59116
20
-3.77086
11
5.59105
21
-3.77119
0
LINE
8
BLACK
6
CONTINUOUS
10
5.59105
20
-3.77119
11
5.58971
21
-3.77724
0
LINE
8
BLACK
6
CONTINUOUS
10
5.58971
20
-3.77724
11
5.58813
21
-3.7844
0
LINE
8
BLACK
6
CONTINUOUS
10
5.58813
20
-3.7844
11
5.58715
21
-3.7888
0
LINE
8
BLACK
6
CONTINUOUS
10
5.58715
20
-3.7888
11
5.58479
21
-3.80669
0
LINE
8
BLACK
6
CONTINUOUS
10
5.58479
20
-3.80669
11
5.58401
21
-3.82472
0
LINE
8
BLACK
6
CONTINUOUS
10
5.58401
20
-3.82472
11
5.58479
21
-3.84275
0
LINE
8
BLACK
6
CONTINUOUS
10
5.58479
20
-3.84275
11
5.58715
21
-3.86064
0
LINE
8
BLACK
6
CONTINUOUS
10
6.9586
20
-3.49943
11
6.96204
21
-3.50402
0
LINE
8
BLACK
6
CONTINUOUS
10
6.96204
20
-3.50402
11
6.96663
21
-3.50746
0
LINE
8
BLACK
6
CONTINUOUS
10
6.96663
20
-3.50746
11
6.972
21
-3.50947
0
LINE
8
BLACK
6
CONTINUOUS
10
6.972
20
-3.50947
11
6.97224
21
-3.5095
0
LINE
8
BLACK
6
CONTINUOUS
10
6.97224
20
-3.5095
11
6.97224
21
-3.5095
0
LINE
8
BLACK
6
CONTINUOUS
10
6.97224
20
-3.5095
11
6.97335
21
-3.50962
0
LINE
8
BLACK
6
CONTINUOUS
10
6.97335
20
-3.50962
11
6.97445
21
-3.50974
0
LINE
8
BLACK
6
CONTINUOUS
10
6.97445
20
-3.50974
11
7.04324
21
-3.50974
0
LINE
8
BLACK
6
CONTINUOUS
10
7.04324
20
-3.50974
11
7.04434
21
-3.50962
0
LINE
8
BLACK
6
CONTINUOUS
10
7.04434
20
-3.50962
11
7.04544
21
-3.5095
0
LINE
8
BLACK
6
CONTINUOUS
10
7.04544
20
-3.5095
11
7.04544
21
-3.5095
0
LINE
8
BLACK
6
CONTINUOUS
10
7.04544
20
-3.5095
11
7.04569
21
-3.50947
0
LINE
8
BLACK
6
CONTINUOUS
10
7.04569
20
-3.50947
11
7.05106
21
-3.50746
0
LINE
8
BLACK
6
CONTINUOUS
10
7.05106
20
-3.50746
11
7.05564
21
-3.50402
0
LINE
8
BLACK
6
CONTINUOUS
10
7.05564
20
-3.50402
11
7.05581
21
-3.5038
0
LINE
8
BLACK
6
CONTINUOUS
10
7.05581
20
-3.5038
11
7.05601
21
-3.5036
0
LINE
8
BLACK
6
CONTINUOUS
10
7.05601
20
-3.5036
11
7.05607
21
-3.50367
0
LINE
8
BLACK
6
CONTINUOUS
10
7.05607
20
-3.50367
11
7.05769
21
-3.50253
0
LINE
8
BLACK
6
CONTINUOUS
10
7.05769
20
-3.50253
11
7.0601
21
-3.50256
0
LINE
8
BLACK
6
CONTINUOUS
10
7.0601
20
-3.50256
11
7.06162
21
-3.50367
0
LINE
8
BLACK
6
CONTINUOUS
10
7.06162
20
-3.50367
11
7.06168
21
-3.5036
0
LINE
8
BLACK
6
CONTINUOUS
10
7.06168
20
-3.5036
11
7.06187
21
-3.5038
0
LINE
8
BLACK
6
CONTINUOUS
10
7.06187
20
-3.5038
11
7.06204
21
-3.50402
0
LINE
8
BLACK
6
CONTINUOUS
10
7.06204
20
-3.50402
11
7.06663
21
-3.50746
0
LINE
8
BLACK
6
CONTINUOUS
10
7.06663
20
-3.50746
11
7.072
21
-3.50947
0
LINE
8
BLACK
6
CONTINUOUS
10
7.072
20
-3.50947
11
7.07224
21
-3.5095
0
LINE
8
BLACK
6
CONTINUOUS
10
7.07224
20
-3.5095
11
7.07224
21
-3.5095
0
LINE
8
BLACK
6
CONTINUOUS
10
7.07224
20
-3.5095
11
7.07334
21
-3.50962
0
LINE
8
BLACK
6
CONTINUOUS
10
7.07334
20
-3.50962
11
7.07445
21
-3.50974
0
LINE
8
BLACK
6
CONTINUOUS
10
7.07445
20
-3.50974
11
7.14324
21
-3.50974
0
LINE
8
BLACK
6
CONTINUOUS
10
7.14324
20
-3.50974
11
7.14434
21
-3.50962
0
LINE
8
BLACK
6
CONTINUOUS
10
7.14434
20
-3.50962
11
7.14544
21
-3.5095
0
LINE
8
BLACK
6
CONTINUOUS
10
7.14544
20
-3.5095
11
7.14544
21
-3.5095
0
LINE
8
BLACK
6
CONTINUOUS
10
7.14544
20
-3.5095
11
7.14569
21
-3.50947
0
LINE
8
BLACK
6
CONTINUOUS
10
7.14569
20
-3.50947
11
7.15106
21
-3.50746
0
LINE
8
BLACK
6
CONTINUOUS
10
7.15106
20
-3.50746
11
7.15564
21
-3.50402
0
LINE
8
BLACK
6
CONTINUOUS
10
7.15564
20
-3.50402
11
7.15908
21
-3.49943
0
LINE
8
BLACK
6
CONTINUOUS
10
7.15908
20
-3.49943
11
7.1611
21
-3.49406
0
LINE
8
BLACK
6
CONTINUOUS
10
7.1611
20
-3.49406
11
7.16136
21
-3.49162
0
LINE
8
BLACK
6
CONTINUOUS
10
7.16136
20
-3.49162
11
7.16136
21
-3.42283
0
LINE
8
BLACK
6
CONTINUOUS
10
7.16136
20
-3.42283
11
7.16116
21
-3.42098
0
LINE
8
BLACK
6
CONTINUOUS
10
7.16116
20
-3.42098
11
7.16112
21
-3.42062
0
LINE
8
BLACK
6
CONTINUOUS
10
7.16112
20
-3.42062
11
7.16112
21
-3.42062
0
LINE
8
BLACK
6
CONTINUOUS
10
7.16112
20
-3.42062
11
7.1611
21
-3.42038
0
LINE
8
BLACK
6
CONTINUOUS
10
7.1611
20
-3.42038
11
7.15908
21
-3.41501
0
LINE
8
BLACK
6
CONTINUOUS
10
7.15908
20
-3.41501
11
7.15564
21
-3.41042
0
LINE
8
BLACK
6
CONTINUOUS
10
7.15564
20
-3.41042
11
7.15106
21
-3.40698
0
LINE
8
BLACK
6
CONTINUOUS
10
7.15106
20
-3.40698
11
7.14569
21
-3.40497
0
LINE
8
BLACK
6
CONTINUOUS
10
7.14569
20
-3.40497
11
7.14544
21
-3.40494
0
LINE
8
BLACK
6
CONTINUOUS
10
7.14544
20
-3.40494
11
7.14544
21
-3.40494
0
LINE
8
BLACK
6
CONTINUOUS
10
7.14544
20
-3.40494
11
7.14403
21
-3.40479
0
LINE
8
BLACK
6
CONTINUOUS
10
7.14403
20
-3.40479
11
7.14324
21
-3.4047
0
LINE
8
BLACK
6
CONTINUOUS
10
7.14324
20
-3.4047
11
7.07445
21
-3.4047
0
LINE
8
BLACK
6
CONTINUOUS
10
7.07445
20
-3.4047
11
7.07366
21
-3.40479
0
LINE
8
BLACK
6
CONTINUOUS
10
7.07366
20
-3.40479
11
7.07224
21
-3.40494
0
LINE
8
BLACK
6
CONTINUOUS
10
7.07224
20
-3.40494
11
7.07224
21
-3.40494
0
LINE
8
BLACK
6
CONTINUOUS
10
7.07224
20
-3.40494
11
7.072
21
-3.40497
0
LINE
8
BLACK
6
CONTINUOUS
10
7.072
20
-3.40497
11
7.06663
21
-3.40698
0
LINE
8
BLACK
6
CONTINUOUS
10
7.06663
20
-3.40698
11
7.06204
21
-3.41042
0
LINE
8
BLACK
6
CONTINUOUS
10
7.06204
20
-3.41042
11
7.06187
21
-3.41064
0
LINE
8
BLACK
6
CONTINUOUS
10
7.06187
20
-3.41064
11
7.06168
21
-3.41084
0
LINE
8
BLACK
6
CONTINUOUS
10
7.06168
20
-3.41084
11
7.06161
21
-3.41077
0
LINE
8
BLACK
6
CONTINUOUS
10
7.06161
20
-3.41077
11
7.05999
21
-3.41191
0
LINE
8
BLACK
6
CONTINUOUS
10
7.05999
20
-3.41191
11
7.05758
21
-3.41188
0
LINE
8
BLACK
6
CONTINUOUS
10
7.05758
20
-3.41188
11
7.05607
21
-3.41078
0
LINE
8
BLACK
6
CONTINUOUS
10
7.05607
20
-3.41078
11
7.05601
21
-3.41084
0
LINE
8
BLACK
6
CONTINUOUS
10
7.05601
20
-3.41084
11
7.05581
21
-3.41064
0
LINE
8
BLACK
6
CONTINUOUS
10
7.05581
20
-3.41064
11
7.05564
21
-3.41042
0
LINE
8
BLACK
6
CONTINUOUS
10
7.05564
20
-3.41042
11
7.05106
21
-3.40698
0
LINE
8
BLACK
6
CONTINUOUS
10
7.05106
20
-3.40698
11
7.04569
21
-3.40497
0
LINE
8
BLACK
6
CONTINUOUS
10
7.04569
20
-3.40497
11
7.04544
21
-3.40494
0
LINE
8
BLACK
6
CONTINUOUS
10
7.04544
20
-3.40494
11
7.04544
21
-3.40494
0
LINE
8
BLACK
6
CONTINUOUS
10
7.04544
20
-3.40494
11
7.04403
21
-3.40479
0
LINE
8
BLACK
6
CONTINUOUS
10
7.04403
20
-3.40479
11
7.04324
21
-3.4047
0
LINE
8
BLACK
6
CONTINUOUS
10
7.04324
20
-3.4047
11
6.97445
21
-3.4047
0
LINE
8
BLACK
6
CONTINUOUS
10
6.97445
20
-3.4047
11
6.97366
21
-3.40479
0
LINE
8
BLACK
6
CONTINUOUS
10
6.97366
20
-3.40479
11
6.97224
21
-3.40494
0
LINE
8
BLACK
6
CONTINUOUS
10
6.97224
20
-3.40494
11
6.97224
21
-3.40494
0
LINE
8
BLACK
6
CONTINUOUS
10
6.97224
20
-3.40494
11
6.972
21
-3.40497
0
LINE
8
BLACK
6
CONTINUOUS
10
6.972
20
-3.40497
11
6.96663
21
-3.40698
0
LINE
8
BLACK
6
CONTINUOUS
10
6.96663
20
-3.40698
11
6.96204
21
-3.41042
0
LINE
8
BLACK
6
CONTINUOUS
10
6.96204
20
-3.41042
11
6.9586
21
-3.41501
0
LINE
8
BLACK
6
CONTINUOUS
10
6.9586
20
-3.41501
11
6.95659
21
-3.42038
0
LINE
8
BLACK
6
CONTINUOUS
10
6.95659
20
-3.42038
11
6.95656
21
-3.42062
0
LINE
8
BLACK
6
CONTINUOUS
10
6.95656
20
-3.42062
11
6.95656
21
-3.42062
0
LINE
8
BLACK
6
CONTINUOUS
10
6.95656
20
-3.42062
11
6.95652
21
-3.42098
0
LINE
8
BLACK
6
CONTINUOUS
10
6.95652
20
-3.42098
11
6.95632
21
-3.42283
0
LINE
8
BLACK
6
CONTINUOUS
10
6.95632
20
-3.42283
11
6.95632
21
-3.49162
0
LINE
8
BLACK
6
CONTINUOUS
10
6.95632
20
-3.49162
11
6.95659
21
-3.49406
0
LINE
8
BLACK
6
CONTINUOUS
10
6.95659
20
-3.49406
11
6.9586
21
-3.49943
0
LINE
8
BLACK
6
CONTINUOUS
10
5.95242
20
-3.58149
11
5.95259
21
-3.58306
0
LINE
8
BLACK
6
CONTINUOUS
10
5.95259
20
-3.58306
11
5.9546
21
-3.58843
0
LINE
8
BLACK
6
CONTINUOUS
10
5.9546
20
-3.58843
11
5.95804
21
-3.59302
0
LINE
8
BLACK
6
CONTINUOUS
10
5.95804
20
-3.59302
11
5.96263
21
-3.59646
0
LINE
8
BLACK
6
CONTINUOUS
10
5.96263
20
-3.59646
11
5.968
21
-3.59847
0
LINE
8
BLACK
6
CONTINUOUS
10
5.968
20
-3.59847
11
5.96824
21
-3.5985
0
LINE
8
BLACK
6
CONTINUOUS
10
5.96824
20
-3.5985
11
5.96824
21
-3.5985
0
LINE
8
BLACK
6
CONTINUOUS
10
5.96824
20
-3.5985
11
5.96966
21
-3.59865
0
LINE
8
BLACK
6
CONTINUOUS
10
5.96966
20
-3.59865
11
5.97045
21
-3.59874
0
LINE
8
BLACK
6
CONTINUOUS
10
5.97045
20
-3.59874
11
6.03924
21
-3.59874
0
LINE
8
BLACK
6
CONTINUOUS
10
6.03924
20
-3.59874
11
6.04003
21
-3.59865
0
LINE
8
BLACK
6
CONTINUOUS
10
6.04003
20
-3.59865
11
6.04144
21
-3.5985
0
LINE
8
BLACK
6
CONTINUOUS
10
6.04144
20
-3.5985
11
6.04144
21
-3.5985
0
LINE
8
BLACK
6
CONTINUOUS
10
6.04144
20
-3.5985
11
6.04169
21
-3.59847
0
LINE
8
BLACK
6
CONTINUOUS
10
6.04169
20
-3.59847
11
6.04706
21
-3.59646
0
LINE
8
BLACK
6
CONTINUOUS
10
6.04706
20
-3.59646
11
6.05164
21
-3.59302
0
LINE
8
BLACK
6
CONTINUOUS
10
6.05164
20
-3.59302
11
6.05508
21
-3.58843
0
LINE
8
BLACK
6
CONTINUOUS
10
6.05508
20
-3.58843
11
6.0571
21
-3.58306
0
LINE
8
BLACK
6
CONTINUOUS
10
6.0571
20
-3.58306
11
6.05727
21
-3.58149
0
LINE
8
BLACK
6
CONTINUOUS
10
6.05727
20
-3.58149
11
6.05735
21
-3.58072
0
LINE
8
BLACK
6
CONTINUOUS
10
6.05735
20
-3.58072
11
6.05736
21
-3.58062
0
LINE
8
BLACK
6
CONTINUOUS
10
6.05736
20
-3.58062
11
6.05736
21
-3.51183
0
LINE
8
BLACK
6
CONTINUOUS
10
6.05736
20
-3.51183
11
6.0571
21
-3.50938
0
LINE
8
BLACK
6
CONTINUOUS
10
6.0571
20
-3.50938
11
6.05508
21
-3.50401
0
LINE
8
BLACK
6
CONTINUOUS
10
6.05508
20
-3.50401
11
6.05205
21
-3.49996
0
LINE
8
BLACK
6
CONTINUOUS
10
6.05205
20
-3.49996
11
6.05181
21
-3.49964
0
LINE
8
BLACK
6
CONTINUOUS
10
6.05181
20
-3.49964
11
6.05164
21
-3.49942
0
LINE
8
BLACK
6
CONTINUOUS
10
6.05164
20
-3.49942
11
6.04706
21
-3.49598
0
LINE
8
BLACK
6
CONTINUOUS
10
6.04706
20
-3.49598
11
6.04169
21
-3.49397
0
LINE
8
BLACK
6
CONTINUOUS
10
6.04169
20
-3.49397
11
6.04144
21
-3.49394
0
LINE
8
BLACK
6
CONTINUOUS
10
6.04144
20
-3.49394
11
6.04144
21
-3.49394
0
LINE
8
BLACK
6
CONTINUOUS
10
6.04144
20
-3.49394
11
6.04003
21
-3.49379
0
LINE
8
BLACK
6
CONTINUOUS
10
6.04003
20
-3.49379
11
6.03924
21
-3.4937
0
LINE
8
BLACK
6
CONTINUOUS
10
6.03924
20
-3.4937
11
5.97045
21
-3.4937
0
LINE
8
BLACK
6
CONTINUOUS
10
5.97045
20
-3.4937
11
5.96966
21
-3.49379
0
LINE
8
BLACK
6
CONTINUOUS
10
5.96966
20
-3.49379
11
5.96824
21
-3.49394
0
LINE
8
BLACK
6
CONTINUOUS
10
5.96824
20
-3.49394
11
5.96824
21
-3.49394
0
LINE
8
BLACK
6
CONTINUOUS
10
5.96824
20
-3.49394
11
5.968
21
-3.49397
0
LINE
8
BLACK
6
CONTINUOUS
10
5.968
20
-3.49397
11
5.96263
21
-3.49598
0
LINE
8
BLACK
6
CONTINUOUS
10
5.96263
20
-3.49598
11
5.95804
21
-3.49942
0
LINE
8
BLACK
6
CONTINUOUS
10
5.95804
20
-3.49942
11
5.95787
21
-3.49964
0
LINE
8
BLACK
6
CONTINUOUS
10
5.95787
20
-3.49964
11
5.95763
21
-3.49996
0
LINE
8
BLACK
6
CONTINUOUS
10
5.95763
20
-3.49996
11
5.9546
21
-3.50401
0
LINE
8
BLACK
6
CONTINUOUS
10
5.9546
20
-3.50401
11
5.95259
21
-3.50938
0
LINE
8
BLACK
6
CONTINUOUS
10
5.95259
20
-3.50938
11
5.95232
21
-3.51183
0
LINE
8
BLACK
6
CONTINUOUS
10
5.95232
20
-3.51183
11
5.95232
21
-3.58062
0
LINE
8
BLACK
6
CONTINUOUS
10
5.95232
20
-3.58062
11
5.95233
21
-3.58072
0
LINE
8
BLACK
6
CONTINUOUS
10
5.95233
20
-3.58072
11
5.95242
21
-3.58149
0
LINE
8
BLACK
6
CONTINUOUS
10
5.37753
20
-3.50756
11
5.37759
21
-3.50806
0
LINE
8
BLACK
6
CONTINUOUS
10
5.37759
20
-3.50806
11
5.3796
21
-3.51343
0
LINE
8
BLACK
6
CONTINUOUS
10
5.3796
20
-3.51343
11
5.38304
21
-3.51802
0
LINE
8
BLACK
6
CONTINUOUS
10
5.38304
20
-3.51802
11
5.38763
21
-3.52146
0
LINE
8
BLACK
6
CONTINUOUS
10
5.38763
20
-3.52146
11
5.393
21
-3.52347
0
LINE
8
BLACK
6
CONTINUOUS
10
5.393
20
-3.52347
11
5.39324
21
-3.5235
0
LINE
8
BLACK
6
CONTINUOUS
10
5.39324
20
-3.5235
11
5.39324
21
-3.5235
0
LINE
8
BLACK
6
CONTINUOUS
10
5.39324
20
-3.5235
11
5.39466
21
-3.52365
0
LINE
8
BLACK
6
CONTINUOUS
10
5.39466
20
-3.52365
11
5.39545
21
-3.52374
0
LINE
8
BLACK
6
CONTINUOUS
10
5.39545
20
-3.52374
11
5.46424
21
-3.52374
0
LINE
8
BLACK
6
CONTINUOUS
10
5.46424
20
-3.52374
11
5.46503
21
-3.52365
0
LINE
8
BLACK
6
CONTINUOUS
10
5.46503
20
-3.52365
11
5.46644
21
-3.5235
0
LINE
8
BLACK
6
CONTINUOUS
10
5.46644
20
-3.5235
11
5.46644
21
-3.5235
0
LINE
8
BLACK
6
CONTINUOUS
10
5.46644
20
-3.5235
11
5.46669
21
-3.52347
0
LINE
8
BLACK
6
CONTINUOUS
10
5.46669
20
-3.52347
11
5.47206
21
-3.52146
0
LINE
8
BLACK
6
CONTINUOUS
10
5.47206
20
-3.52146
11
5.47664
21
-3.51802
0
LINE
8
BLACK
6
CONTINUOUS
10
5.47664
20
-3.51802
11
5.47681
21
-3.5178
0
LINE
8
BLACK
6
CONTINUOUS
10
5.47681
20
-3.5178
11
5.47701
21
-3.5176
0
LINE
8
BLACK
6
CONTINUOUS
10
5.47701
20
-3.5176
11
5.47707
21
-3.51767
0
LINE
8
BLACK
6
CONTINUOUS
10
5.47707
20
-3.51767
11
5.47869
21
-3.51653
0
LINE
8
BLACK
6
CONTINUOUS
10
5.47869
20
-3.51653
11
5.4811
21
-3.51656
0
LINE
8
BLACK
6
CONTINUOUS
10
5.4811
20
-3.51656
11
5.48262
21
-3.51767
0
LINE
8
BLACK
6
CONTINUOUS
10
5.48262
20
-3.51767
11
5.48268
21
-3.5176
0
LINE
8
BLACK
6
CONTINUOUS
10
5.48268
20
-3.5176
11
5.48287
21
-3.5178
0
LINE
8
BLACK
6
CONTINUOUS
10
5.48287
20
-3.5178
11
5.48304
21
-3.51802
0
LINE
8
BLACK
6
CONTINUOUS
10
5.48304
20
-3.51802
11
5.48763
21
-3.52146
0
LINE
8
BLACK
6
CONTINUOUS
10
5.48763
20
-3.52146
11
5.493
21
-3.52347
0
LINE
8
BLACK
6
CONTINUOUS
10
5.493
20
-3.52347
11
5.49324
21
-3.5235
0
LINE
8
BLACK
6
CONTINUOUS
10
5.49324
20
-3.5235
11
5.49324
21
-3.5235
0
LINE
8
BLACK
6
CONTINUOUS
10
5.49324
20
-3.5235
11
5.49466
21
-3.52365
0
LINE
8
BLACK
6
CONTINUOUS
10
5.49466
20
-3.52365
11
5.49545
21
-3.52374
0
LINE
8
BLACK
6
CONTINUOUS
10
5.49545
20
-3.52374
11
5.56424
21
-3.52374
0
LINE
8
BLACK
6
CONTINUOUS
10
5.56424
20
-3.52374
11
5.56503
21
-3.52365
0
LINE
8
BLACK
6
CONTINUOUS
10
5.56503
20
-3.52365
11
5.56644
21
-3.5235
0
LINE
8
BLACK
6
CONTINUOUS
10
5.56644
20
-3.5235
11
5.56644
21
-3.5235
0
LINE
8
BLACK
6
CONTINUOUS
10
5.56644
20
-3.5235
11
5.56669
21
-3.52347
0
LINE
8
BLACK
6
CONTINUOUS
10
5.56669
20
-3.52347
11
5.57206
21
-3.52146
0
LINE
8
BLACK
6
CONTINUOUS
10
5.57206
20
-3.52146
11
5.57664
21
-3.51802
0
LINE
8
BLACK
6
CONTINUOUS
10
5.57664
20
-3.51802
11
5.58008
21
-3.51343
0
LINE
8
BLACK
6
CONTINUOUS
10
5.58008
20
-3.51343
11
5.5821
21
-3.50806
0
LINE
8
BLACK
6
CONTINUOUS
10
5.5821
20
-3.50806
11
5.58215
21
-3.50756
0
LINE
8
BLACK
6
CONTINUOUS
10
5.58215
20
-3.50756
11
5.58235
21
-3.50572
0
LINE
8
BLACK
6
CONTINUOUS
10
5.58235
20
-3.50572
11
5.58236
21
-3.50562
0
LINE
8
BLACK
6
CONTINUOUS
10
5.58236
20
-3.50562
11
5.58236
21
-3.43683
0
LINE
8
BLACK
6
CONTINUOUS
10
5.58236
20
-3.43683
11
5.5821
21
-3.43438
0
LINE
8
BLACK
6
CONTINUOUS
10
5.5821
20
-3.43438
11
5.58008
21
-3.42901
0
LINE
8
BLACK
6
CONTINUOUS
10
5.58008
20
-3.42901
11
5.57664
21
-3.42442
0
LINE
8
BLACK
6
CONTINUOUS
10
5.57664
20
-3.42442
11
5.57206
21
-3.42098
0
LINE
8
BLACK
6
CONTINUOUS
10
5.57206
20
-3.42098
11
5.56669
21
-3.41897
0
LINE
8
BLACK
6
CONTINUOUS
10
5.56669
20
-3.41897
11
5.56644
21
-3.41894
0
LINE
8
BLACK
6
CONTINUOUS
10
5.56644
20
-3.41894
11
5.56644
21
-3.41894
0
LINE
8
BLACK
6
CONTINUOUS
10
5.56644
20
-3.41894
11
5.56503
21
-3.41879
0
LINE
8
BLACK
6
CONTINUOUS
10
5.56503
20
-3.41879
11
5.56424
21
-3.4187
0
LINE
8
BLACK
6
CONTINUOUS
10
5.56424
20
-3.4187
11
5.49545
21
-3.4187
0
LINE
8
BLACK
6
CONTINUOUS
10
5.49545
20
-3.4187
11
5.49466
21
-3.41879
0
LINE
8
BLACK
6
CONTINUOUS
10
5.49466
20
-3.41879
11
5.49324
21
-3.41894
0
LINE
8
BLACK
6
CONTINUOUS
10
5.49324
20
-3.41894
11
5.49324
21
-3.41894
0
LINE
8
BLACK
6
CONTINUOUS
10
5.49324
20
-3.41894
11
5.493
21
-3.41897
0
LINE
8
BLACK
6
CONTINUOUS
10
5.493
20
-3.41897
11
5.48763
21
-3.42098
0
LINE
8
BLACK
6
CONTINUOUS
10
5.48763
20
-3.42098
11
5.48304
21
-3.42442
0
LINE
8
BLACK
6
CONTINUOUS
10
5.48304
20
-3.42442
11
5.48287
21
-3.42464
0
LINE
8
BLACK
6
CONTINUOUS
10
5.48287
20
-3.42464
11
5.48268
21
-3.42484
0
LINE
8
BLACK
6
CONTINUOUS
10
5.48268
20
-3.42484
11
5.48261
21
-3.42477
0
LINE
8
BLACK
6
CONTINUOUS
10
5.48261
20
-3.42477
11
5.48099
21
-3.42591
0
LINE
8
BLACK
6
CONTINUOUS
10
5.48099
20
-3.42591
11
5.47858
21
-3.42588
0
LINE
8
BLACK
6
CONTINUOUS
10
5.47858
20
-3.42588
11
5.47707
21
-3.42478
0
LINE
8
BLACK
6
CONTINUOUS
10
5.47707
20
-3.42478
11
5.47701
21
-3.42484
0
LINE
8
BLACK
6
CONTINUOUS
10
5.47701
20
-3.42484
11
5.47681
21
-3.42464
0
LINE
8
BLACK
6
CONTINUOUS
10
5.47681
20
-3.42464
11
5.47664
21
-3.42442
0
LINE
8
BLACK
6
CONTINUOUS
10
5.47664
20
-3.42442
11
5.47206
21
-3.42098
0
LINE
8
BLACK
6
CONTINUOUS
10
5.47206
20
-3.42098
11
5.46669
21
-3.41897
0
LINE
8
BLACK
6
CONTINUOUS
10
5.46669
20
-3.41897
11
5.46644
21
-3.41894
0
LINE
8
BLACK
6
CONTINUOUS
10
5.46644
20
-3.41894
11
5.46644
21
-3.41894
0
LINE
8
BLACK
6
CONTINUOUS
10
5.46644
20
-3.41894
11
5.46503
21
-3.41879
0
LINE
8
BLACK
6
CONTINUOUS
10
5.46503
20
-3.41879
11
5.46424
21
-3.4187
0
LINE
8
BLACK
6
CONTINUOUS
10
5.46424
20
-3.4187
11
5.39545
21
-3.4187
0
LINE
8
BLACK
6
CONTINUOUS
10
5.39545
20
-3.4187
11
5.39466
21
-3.41879
0
LINE
8
BLACK
6
CONTINUOUS
10
5.39466
20
-3.41879
11
5.39324
21
-3.41894
0
LINE
8
BLACK
6
CONTINUOUS
10
5.39324
20
-3.41894
11
5.39324
21
-3.41894
0
LINE
8
BLACK
6
CONTINUOUS
10
5.39324
20
-3.41894
11
5.393
21
-3.41897
0
LINE
8
BLACK
6
CONTINUOUS
10
5.393
20
-3.41897
11
5.38763
21
-3.42098
0
LINE
8
BLACK
6
CONTINUOUS
10
5.38763
20
-3.42098
11
5.38304
21
-3.42442
0
LINE
8
BLACK
6
CONTINUOUS
10
5.38304
20
-3.42442
11
5.3796
21
-3.42901
0
LINE
8
BLACK
6
CONTINUOUS
10
5.3796
20
-3.42901
11
5.37759
21
-3.43438
0
LINE
8
BLACK
6
CONTINUOUS
10
5.37759
20
-3.43438
11
5.37732
21
-3.43683
0
LINE
8
BLACK
6
CONTINUOUS
10
5.37732
20
-3.43683
11
5.37732
21
-3.50562
0
LINE
8
BLACK
6
CONTINUOUS
10
5.37732
20
-3.50562
11
5.37733
21
-3.50572
0
LINE
8
BLACK
6
CONTINUOUS
10
5.37733
20
-3.50572
11
5.37753
21
-3.50756
0
LINE
8
BLACK
6
CONTINUOUS
10
5.75242
20
-3.58149
11
5.75259
21
-3.58306
0
LINE
8
BLACK
6
CONTINUOUS
10
5.75259
20
-3.58306
11
5.7546
21
-3.58843
0
LINE
8
BLACK
6
CONTINUOUS
10
5.7546
20
-3.58843
11
5.75804
21
-3.59302
0
LINE
8
BLACK
6
CONTINUOUS
10
5.75804
20
-3.59302
11
5.76263
21
-3.59646
0
LINE
8
BLACK
6
CONTINUOUS
10
5.76263
20
-3.59646
11
5.768
21
-3.59847
0
LINE
8
BLACK
6
CONTINUOUS
10
5.768
20
-3.59847
11
5.76824
21
-3.5985
0
LINE
8
BLACK
6
CONTINUOUS
10
5.76824
20
-3.5985
11
5.76824
21
-3.5985
0
LINE
8
BLACK
6
CONTINUOUS
10
5.76824
20
-3.5985
11
5.76966
21
-3.59865
0
LINE
8
BLACK
6
CONTINUOUS
10
5.76966
20
-3.59865
11
5.77045
21
-3.59874
0
LINE
8
BLACK
6
CONTINUOUS
10
5.77045
20
-3.59874
11
5.83924
21
-3.59874
0
LINE
8
BLACK
6
CONTINUOUS
10
5.83924
20
-3.59874
11
5.84003
21
-3.59865
0
LINE
8
BLACK
6
CONTINUOUS
10
5.84003
20
-3.59865
11
5.84144
21
-3.5985
0
LINE
8
BLACK
6
CONTINUOUS
10
5.84144
20
-3.5985
11
5.84144
21
-3.5985
0
LINE
8
BLACK
6
CONTINUOUS
10
5.84144
20
-3.5985
11
5.84169
21
-3.59847
0
LINE
8
BLACK
6
CONTINUOUS
10
5.84169
20
-3.59847
11
5.84706
21
-3.59646
0
LINE
8
BLACK
6
CONTINUOUS
10
5.84706
20
-3.59646
11
5.85164
21
-3.59302
0
LINE
8
BLACK
6
CONTINUOUS
10
5.85164
20
-3.59302
11
5.85508
21
-3.58843
0
LINE
8
BLACK
6
CONTINUOUS
10
5.85508
20
-3.58843
11
5.8571
21
-3.58306
0
LINE
8
BLACK
6
CONTINUOUS
10
5.8571
20
-3.58306
11
5.85727
21
-3.58149
0
LINE
8
BLACK
6
CONTINUOUS
10
5.85727
20
-3.58149
11
5.85735
21
-3.58072
0
LINE
8
BLACK
6
CONTINUOUS
10
5.85735
20
-3.58072
11
5.85736
21
-3.58062
0
LINE
8
BLACK
6
CONTINUOUS
10
5.85736
20
-3.58062
11
5.85736
21
-3.51183
0
LINE
8
BLACK
6
CONTINUOUS
10
5.85736
20
-3.51183
11
5.8571
21
-3.50938
0
LINE
8
BLACK
6
CONTINUOUS
10
5.8571
20
-3.50938
11
5.85508
21
-3.50401
0
LINE
8
BLACK
6
CONTINUOUS
10
5.85508
20
-3.50401
11
5.85205
21
-3.49996
0
LINE
8
BLACK
6
CONTINUOUS
10
5.85205
20
-3.49996
11
5.85181
21
-3.49964
0
LINE
8
BLACK
6
CONTINUOUS
10
5.85181
20
-3.49964
11
5.85164
21
-3.49942
0
LINE
8
BLACK
6
CONTINUOUS
10
5.85164
20
-3.49942
11
5.84706
21
-3.49598
0
LINE
8
BLACK
6
CONTINUOUS
10
5.84706
20
-3.49598
11
5.84169
21
-3.49397
0
LINE
8
BLACK
6
CONTINUOUS
10
5.84169
20
-3.49397
11
5.84144
21
-3.49394
0
LINE
8
BLACK
6
CONTINUOUS
10
5.84144
20
-3.49394
11
5.84144
21
-3.49394
0
LINE
8
BLACK
6
CONTINUOUS
10
5.84144
20
-3.49394
11
5.84003
21
-3.49379
0
LINE
8
BLACK
6
CONTINUOUS
10
5.84003
20
-3.49379
11
5.83924
21
-3.4937
0
LINE
8
BLACK
6
CONTINUOUS
10
5.83924
20
-3.4937
11
5.77045
21
-3.4937
0
LINE
8
BLACK
6
CONTINUOUS
10
5.77045
20
-3.4937
11
5.76966
21
-3.49379
0
LINE
8
BLACK
6
CONTINUOUS
10
5.76966
20
-3.49379
11
5.76824
21
-3.49394
0
LINE
8
BLACK
6
CONTINUOUS
10
5.76824
20
-3.49394
11
5.76824
21
-3.49394
0
LINE
8
BLACK
6
CONTINUOUS
10
5.76824
20
-3.49394
11
5.768
21
-3.49397
0
LINE
8
BLACK
6
CONTINUOUS
10
5.768
20
-3.49397
11
5.76263
21
-3.49598
0
LINE
8
BLACK
6
CONTINUOUS
10
5.76263
20
-3.49598
11
5.75804
21
-3.49942
0
LINE
8
BLACK
6
CONTINUOUS
10
5.75804
20
-3.49942
11
5.75787
21
-3.49964
0
LINE
8
BLACK
6
CONTINUOUS
10
5.75787
20
-3.49964
11
5.75763
21
-3.49996
0
LINE
8
BLACK
6
CONTINUOUS
10
5.75763
20
-3.49996
11
5.7546
21
-3.50401
0
LINE
8
BLACK
6
CONTINUOUS
10
5.7546
20
-3.50401
11
5.75259
21
-3.50938
0
LINE
8
BLACK
6
CONTINUOUS
10
5.75259
20
-3.50938
11
5.75232
21
-3.51183
0
LINE
8
BLACK
6
CONTINUOUS
10
5.75232
20
-3.51183
11
5.75232
21
-3.58062
0
LINE
8
BLACK
6
CONTINUOUS
10
5.75232
20
-3.58062
11
5.75233
21
-3.58072
0
LINE
8
BLACK
6
CONTINUOUS
10
5.75233
20
-3.58072
11
5.75242
21
-3.58149
0
LINE
8
BLACK
6
CONTINUOUS
10
6.08179
20
-3.4021
11
6.08515
21
-3.40864
0
LINE
8
BLACK
6
CONTINUOUS
10
6.08515
20
-3.40864
11
6.08527
21
-3.40879
0
LINE
8
BLACK
6
CONTINUOUS
10
6.08527
20
-3.40879
11
6.08527
21
-3.40879
0
LINE
8
BLACK
6
CONTINUOUS
10
6.08527
20
-3.40879
11
6.08614
21
-3.40989
0
LINE
8
BLACK
6
CONTINUOUS
10
6.08614
20
-3.40989
11
6.08698
21
-3.41231
0
LINE
8
BLACK
6
CONTINUOUS
10
6.08698
20
-3.41231
11
6.08698
21
-3.45566
0
LINE
8
BLACK
6
CONTINUOUS
10
6.08698
20
-3.45566
11
6.08694
21
-3.45624
0
LINE
8
BLACK
6
CONTINUOUS
10
6.08694
20
-3.45624
11
6.0868
21
-3.45717
0
LINE
8
BLACK
6
CONTINUOUS
10
6.0868
20
-3.45717
11
6.08681
21
-3.45739
0
LINE
8
BLACK
6
CONTINUOUS
10
6.08681
20
-3.45739
11
6.08697
21
-3.45928
0
LINE
8
BLACK
6
CONTINUOUS
10
6.08697
20
-3.45928
11
6.08698
21
-3.4596
0
LINE
8
BLACK
6
CONTINUOUS
10
6.08698
20
-3.4596
11
6.08698
21
-3.45996
0
LINE
8
BLACK
6
CONTINUOUS
10
6.08698
20
-3.45996
11
6.08699
21
-3.46007
0
LINE
8
BLACK
6
CONTINUOUS
10
6.08699
20
-3.46007
11
6.08699
21
-3.46007
0
LINE
8
BLACK
6
CONTINUOUS
10
6.08699
20
-3.46007
11
6.08711
21
-3.46109
0
LINE
8
BLACK
6
CONTINUOUS
10
6.08711
20
-3.46109
11
6.08713
21
-3.46122
0
LINE
8
BLACK
6
CONTINUOUS
10
6.08713
20
-3.46122
11
6.08736
21
-3.46411
0
LINE
8
BLACK
6
CONTINUOUS
10
6.08736
20
-3.46411
11
6.08743
21
-3.46432
0
LINE
8
BLACK
6
CONTINUOUS
10
6.08743
20
-3.46432
11
6.08747
21
-3.46454
0
LINE
8
BLACK
6
CONTINUOUS
10
6.08747
20
-3.46454
11
6.08747
21
-3.46454
0
LINE
8
BLACK
6
CONTINUOUS
10
6.08747
20
-3.46454
11
6.0875
21
-3.46469
0
LINE
8
BLACK
6
CONTINUOUS
10
6.0875
20
-3.46469
11
6.08751
21
-3.46469
0
LINE
8
BLACK
6
CONTINUOUS
10
6.08751
20
-3.46469
11
6.08756
21
-3.46491
0
LINE
8
BLACK
6
CONTINUOUS
10
6.08756
20
-3.46491
11
6.08758
21
-3.46513
0
LINE
8
BLACK
6
CONTINUOUS
10
6.08758
20
-3.46513
11
6.08766
21
-3.46534
0
LINE
8
BLACK
6
CONTINUOUS
10
6.08766
20
-3.46534
11
6.08857
21
-3.46785
0
LINE
8
BLACK
6
CONTINUOUS
10
6.08857
20
-3.46785
11
6.08861
21
-3.46798
0
LINE
8
BLACK
6
CONTINUOUS
10
6.08861
20
-3.46798
11
6.08951
21
-3.47073
0
LINE
8
BLACK
6
CONTINUOUS
10
6.08951
20
-3.47073
11
6.08962
21
-3.47092
0
LINE
8
BLACK
6
CONTINUOUS
10
6.08962
20
-3.47092
11
6.08972
21
-3.47113
0
LINE
8
BLACK
6
CONTINUOUS
10
6.08972
20
-3.47113
11
6.08971
21
-3.47113
0
LINE
8
BLACK
6
CONTINUOUS
10
6.08971
20
-3.47113
11
6.08978
21
-3.47126
0
LINE
8
BLACK
6
CONTINUOUS
10
6.08978
20
-3.47126
11
6.08978
21
-3.47126
0
LINE
8
BLACK
6
CONTINUOUS
10
6.08978
20
-3.47126
11
6.08988
21
-3.47146
0
LINE
8
BLACK
6
CONTINUOUS
10
6.08988
20
-3.47146
11
6.08996
21
-3.47168
0
LINE
8
BLACK
6
CONTINUOUS
10
6.08996
20
-3.47168
11
6.09008
21
-3.47187
0
LINE
8
BLACK
6
CONTINUOUS
10
6.09008
20
-3.47187
11
6.09155
21
-3.4741
0
LINE
8
BLACK
6
CONTINUOUS
10
6.09155
20
-3.4741
11
6.09162
21
-3.47421
0
LINE
8
BLACK
6
CONTINUOUS
10
6.09162
20
-3.47421
11
6.09312
21
-3.47668
0
LINE
8
BLACK
6
CONTINUOUS
10
6.09312
20
-3.47668
11
6.09323
21
-3.47681
0
LINE
8
BLACK
6
CONTINUOUS
10
6.09323
20
-3.47681
11
6.09341
21
-3.47701
0
LINE
8
BLACK
6
CONTINUOUS
10
6.09341
20
-3.47701
11
6.0934
21
-3.47702
0
LINE
8
BLACK
6
CONTINUOUS
10
6.0934
20
-3.47702
11
6.0935
21
-3.47714
0
LINE
8
BLACK
6
CONTINUOUS
10
6.0935
20
-3.47714
11
6.09351
21
-3.47714
0
LINE
8
BLACK
6
CONTINUOUS
10
6.09351
20
-3.47714
11
6.09365
21
-3.47731
0
LINE
8
BLACK
6
CONTINUOUS
10
6.09365
20
-3.47731
11
6.09378
21
-3.4775
0
LINE
8
BLACK
6
CONTINUOUS
10
6.09378
20
-3.4775
11
6.09394
21
-3.47766
0
LINE
8
BLACK
6
CONTINUOUS
10
6.09394
20
-3.47766
11
6.096
21
-3.47961
0
LINE
8
BLACK
6
CONTINUOUS
10
6.096
20
-3.47961
11
6.09608
21
-3.47968
0
LINE
8
BLACK
6
CONTINUOUS
10
6.09608
20
-3.47968
11
6.16681
21
-3.55042
0
LINE
8
BLACK
6
CONTINUOUS
10
6.16681
20
-3.55042
11
6.16791
21
-3.55257
0
LINE
8
BLACK
6
CONTINUOUS
10
6.16791
20
-3.55257
11
6.16794
21
-3.55285
0
LINE
8
BLACK
6
CONTINUOUS
10
6.16794
20
-3.55285
11
6.16798
21
-3.55324
0
LINE
8
BLACK
6
CONTINUOUS
10
6.16798
20
-3.55324
11
6.17
21
-3.56031
0
LINE
8
BLACK
6
CONTINUOUS
10
6.17
20
-3.56031
11
6.17337
21
-3.56685
0
LINE
8
BLACK
6
CONTINUOUS
10
6.17337
20
-3.56685
11
6.17794
21
-3.57262
0
LINE
8
BLACK
6
CONTINUOUS
10
6.17794
20
-3.57262
11
6.17808
21
-3.57274
0
LINE
8
BLACK
6
CONTINUOUS
10
6.17808
20
-3.57274
11
6.17808
21
-3.57274
0
LINE
8
BLACK
6
CONTINUOUS
10
6.17808
20
-3.57274
11
6.17938
21
-3.57385
0
LINE
8
BLACK
6
CONTINUOUS
10
6.17938
20
-3.57385
11
6.18354
21
-3.57739
0
LINE
8
BLACK
6
CONTINUOUS
10
6.18354
20
-3.57739
11
6.18371
21
-3.57748
0
LINE
8
BLACK
6
CONTINUOUS
10
6.18371
20
-3.57748
11
6.18371
21
-3.57748
0
LINE
8
BLACK
6
CONTINUOUS
10
6.18371
20
-3.57748
11
6.1851
21
-3.57826
0
LINE
8
BLACK
6
CONTINUOUS
10
6.1851
20
-3.57826
11
6.18996
21
-3.58098
0
LINE
8
BLACK
6
CONTINUOUS
10
6.18996
20
-3.58098
11
6.19014
21
-3.58104
0
LINE
8
BLACK
6
CONTINUOUS
10
6.19014
20
-3.58104
11
6.19678
21
-3.58319
0
LINE
8
BLACK
6
CONTINUOUS
10
6.19678
20
-3.58319
11
6.19678
21
-3.58319
0
LINE
8
BLACK
6
CONTINUOUS
10
6.19678
20
-3.58319
11
6.19696
21
-3.58325
0
LINE
8
BLACK
6
CONTINUOUS
10
6.19696
20
-3.58325
11
6.20427
21
-3.58412
0
LINE
8
BLACK
6
CONTINUOUS
10
6.20427
20
-3.58412
11
6.20446
21
-3.58411
0
LINE
8
BLACK
6
CONTINUOUS
10
6.20446
20
-3.58411
11
6.20446
21
-3.58411
0
LINE
8
BLACK
6
CONTINUOUS
10
6.20446
20
-3.58411
11
6.20686
21
-3.58392
0
LINE
8
BLACK
6
CONTINUOUS
10
6.20686
20
-3.58392
11
6.2116
21
-3.58356
0
LINE
8
BLACK
6
CONTINUOUS
10
6.2116
20
-3.58356
11
6.21869
21
-3.58158
0
LINE
8
BLACK
6
CONTINUOUS
10
6.21869
20
-3.58158
11
6.21886
21
-3.58149
0
LINE
8
BLACK
6
CONTINUOUS
10
6.21886
20
-3.58149
11
6.22509
21
-3.57835
0
LINE
8
BLACK
6
CONTINUOUS
10
6.22509
20
-3.57835
11
6.22509
21
-3.57835
0
LINE
8
BLACK
6
CONTINUOUS
10
6.22509
20
-3.57835
11
6.22526
21
-3.57826
0
LINE
8
BLACK
6
CONTINUOUS
10
6.22526
20
-3.57826
11
6.23106
21
-3.57373
0
LINE
8
BLACK
6
CONTINUOUS
10
6.23106
20
-3.57373
11
6.23118
21
-3.57359
0
LINE
8
BLACK
6
CONTINUOUS
10
6.23118
20
-3.57359
11
6.23118
21
-3.57359
0
LINE
8
BLACK
6
CONTINUOUS
10
6.23118
20
-3.57359
11
6.23574
21
-3.56831
0
LINE
8
BLACK
6
CONTINUOUS
10
6.23574
20
-3.56831
11
6.23586
21
-3.56816
0
LINE
8
BLACK
6
CONTINUOUS
10
6.23586
20
-3.56816
11
6.23652
21
-3.567
0
LINE
8
BLACK
6
CONTINUOUS
10
6.23652
20
-3.567
11
6.2394
21
-3.56193
0
LINE
8
BLACK
6
CONTINUOUS
10
6.2394
20
-3.56193
11
6.2394
21
-3.56193
0
LINE
8
BLACK
6
CONTINUOUS
10
6.2394
20
-3.56193
11
6.2395
21
-3.56176
0
LINE
8
BLACK
6
CONTINUOUS
10
6.2395
20
-3.56176
11
6.24004
21
-3.56012
0
LINE
8
BLACK
6
CONTINUOUS
10
6.24004
20
-3.56012
11
6.24176
21
-3.55496
0
LINE
8
BLACK
6
CONTINUOUS
10
6.24176
20
-3.55496
11
6.24176
21
-3.55496
0
LINE
8
BLACK
6
CONTINUOUS
10
6.24176
20
-3.55496
11
6.24182
21
-3.55478
0
LINE
8
BLACK
6
CONTINUOUS
10
6.24182
20
-3.55478
11
6.24204
21
-3.55305
0
LINE
8
BLACK
6
CONTINUOUS
10
6.24204
20
-3.55305
11
6.24273
21
-3.54759
0
LINE
8
BLACK
6
CONTINUOUS
10
6.24273
20
-3.54759
11
6.24274
21
-3.54748
0
LINE
8
BLACK
6
CONTINUOUS
10
6.24274
20
-3.54748
11
6.24276
21
-3.54643
0
LINE
8
BLACK
6
CONTINUOUS
10
6.24276
20
-3.54643
11
6.24204
21
-3.53911
0
LINE
8
BLACK
6
CONTINUOUS
10
6.24204
20
-3.53911
11
6.23991
21
-3.53206
0
LINE
8
BLACK
6
CONTINUOUS
10
6.23991
20
-3.53206
11
6.23646
21
-3.52557
0
LINE
8
BLACK
6
CONTINUOUS
10
6.23646
20
-3.52557
11
6.23181
21
-3.51986
0
LINE
8
BLACK
6
CONTINUOUS
10
6.23181
20
-3.51986
11
6.22978
21
-3.51819
0
LINE
8
BLACK
6
CONTINUOUS
10
6.22978
20
-3.51819
11
6.22629
21
-3.5153
0
LINE
8
BLACK
6
CONTINUOUS
10
6.22629
20
-3.5153
11
6.22629
21
-3.5153
0
LINE
8
BLACK
6
CONTINUOUS
10
6.22629
20
-3.5153
11
6.22614
21
-3.51517
0
LINE
8
BLACK
6
CONTINUOUS
10
6.22614
20
-3.51517
11
6.21967
21
-3.51167
0
LINE
8
BLACK
6
CONTINUOUS
10
6.21967
20
-3.51167
11
6.21493
21
-3.51021
0
LINE
8
BLACK
6
CONTINUOUS
10
6.21493
20
-3.51021
11
6.21282
21
-3.50955
0
LINE
8
BLACK
6
CONTINUOUS
10
6.21282
20
-3.50955
11
6.21282
21
-3.50955
0
LINE
8
BLACK
6
CONTINUOUS
10
6.21282
20
-3.50955
11
6.21264
21
-3.5095
0
LINE
8
BLACK
6
CONTINUOUS
10
6.21264
20
-3.5095
11
6.21245
21
-3.50948
0
LINE
8
BLACK
6
CONTINUOUS
10
6.21245
20
-3.50948
11
6.21245
21
-3.50948
0
LINE
8
BLACK
6
CONTINUOUS
10
6.21245
20
-3.50948
11
6.21202
21
-3.50943
0
LINE
8
BLACK
6
CONTINUOUS
10
6.21202
20
-3.50943
11
6.21146
21
-3.50937
0
LINE
8
BLACK
6
CONTINUOUS
10
6.21146
20
-3.50937
11
6.20911
21
-3.50825
0
LINE
8
BLACK
6
CONTINUOUS
10
6.20911
20
-3.50825
11
6.14785
21
-3.44699
0
LINE
8
BLACK
6
CONTINUOUS
10
6.14785
20
-3.44699
11
6.14675
21
-3.44484
0
LINE
8
BLACK
6
CONTINUOUS
10
6.14675
20
-3.44484
11
6.1467
21
-3.44423
0
LINE
8
BLACK
6
CONTINUOUS
10
6.1467
20
-3.44423
11
6.1467
21
-3.41762
0
LINE
8
BLACK
6
CONTINUOUS
10
6.1467
20
-3.41762
11
6.14745
21
-3.41533
0
LINE
8
BLACK
6
CONTINUOUS
10
6.14745
20
-3.41533
11
6.1494
21
-3.41392
0
LINE
8
BLACK
6
CONTINUOUS
10
6.1494
20
-3.41392
11
6.15181
21
-3.41392
0
LINE
8
BLACK
6
CONTINUOUS
10
6.15181
20
-3.41392
11
6.15376
21
-3.41533
0
LINE
8
BLACK
6
CONTINUOUS
10
6.15376
20
-3.41533
11
6.15431
21
-3.41642
0
LINE
8
BLACK
6
CONTINUOUS
10
6.15431
20
-3.41642
11
6.15491
21
-3.41826
0
LINE
8
BLACK
6
CONTINUOUS
10
6.15491
20
-3.41826
11
6.15502
21
-3.41846
0
LINE
8
BLACK
6
CONTINUOUS
10
6.15502
20
-3.41846
11
6.15512
21
-3.41866
0
LINE
8
BLACK
6
CONTINUOUS
10
6.15512
20
-3.41866
11
6.15511
21
-3.41866
0
LINE
8
BLACK
6
CONTINUOUS
10
6.15511
20
-3.41866
11
6.15518
21
-3.4188
0
LINE
8
BLACK
6
CONTINUOUS
10
6.15518
20
-3.4188
11
6.15518
21
-3.41879
0
LINE
8
BLACK
6
CONTINUOUS
10
6.15518
20
-3.41879
11
6.15528
21
-3.419
0
LINE
8
BLACK
6
CONTINUOUS
10
6.15528
20
-3.419
11
6.15536
21
-3.41921
0
LINE
8
BLACK
6
CONTINUOUS
10
6.15536
20
-3.41921
11
6.15548
21
-3.4194
0
LINE
8
BLACK
6
CONTINUOUS
10
6.15548
20
-3.4194
11
6.15695
21
-3.42163
0
LINE
8
BLACK
6
CONTINUOUS
10
6.15695
20
-3.42163
11
6.15702
21
-3.42174
0
LINE
8
BLACK
6
CONTINUOUS
10
6.15702
20
-3.42174
11
6.15852
21
-3.42422
0
LINE
8
BLACK
6
CONTINUOUS
10
6.15852
20
-3.42422
11
6.15881
21
-3.42454
0
LINE
8
BLACK
6
CONTINUOUS
10
6.15881
20
-3.42454
11
6.1588
21
-3.42455
0
LINE
8
BLACK
6
CONTINUOUS
10
6.1588
20
-3.42455
11
6.1589
21
-3.42467
0
LINE
8
BLACK
6
CONTINUOUS
10
6.1589
20
-3.42467
11
6.15891
21
-3.42467
0
LINE
8
BLACK
6
CONTINUOUS
10
6.15891
20
-3.42467
11
6.15905
21
-3.42484
0
LINE
8
BLACK
6
CONTINUOUS
10
6.15905
20
-3.42484
11
6.15918
21
-3.42503
0
LINE
8
BLACK
6
CONTINUOUS
10
6.15918
20
-3.42503
11
6.15934
21
-3.42519
0
LINE
8
BLACK
6
CONTINUOUS
10
6.15934
20
-3.42519
11
6.1614
21
-3.42714
0
LINE
8
BLACK
6
CONTINUOUS
10
6.1614
20
-3.42714
11
6.16148
21
-3.42721
0
LINE
8
BLACK
6
CONTINUOUS
10
6.16148
20
-3.42721
11
6.26947
21
-3.53521
0
LINE
8
BLACK
6
CONTINUOUS
10
6.26947
20
-3.53521
11
6.27057
21
-3.53736
0
LINE
8
BLACK
6
CONTINUOUS
10
6.27057
20
-3.53736
11
6.2706
21
-3.53764
0
LINE
8
BLACK
6
CONTINUOUS
10
6.2706
20
-3.53764
11
6.27063
21
-3.53803
0
LINE
8
BLACK
6
CONTINUOUS
10
6.27063
20
-3.53803
11
6.27266
21
-3.5451
0
LINE
8
BLACK
6
CONTINUOUS
10
6.27266
20
-3.5451
11
6.27603
21
-3.55164
0
LINE
8
BLACK
6
CONTINUOUS
10
6.27603
20
-3.55164
11
6.27614
21
-3.55179
0
LINE
8
BLACK
6
CONTINUOUS
10
6.27614
20
-3.55179
11
6.27614
21
-3.55179
0
LINE
8
BLACK
6
CONTINUOUS
10
6.27614
20
-3.55179
11
6.27701
21
-3.55289
0
LINE
8
BLACK
6
CONTINUOUS
10
6.27701
20
-3.55289
11
6.27785
21
-3.55531
0
LINE
8
BLACK
6
CONTINUOUS
10
6.27785
20
-3.55531
11
6.27785
21
-3.70986
0
LINE
8
BLACK
6
CONTINUOUS
10
6.27785
20
-3.70986
11
6.27711
21
-3.71215
0
LINE
8
BLACK
6
CONTINUOUS
10
6.27711
20
-3.71215
11
6.27576
21
-3.71331
0
LINE
8
BLACK
6
CONTINUOUS
10
6.27576
20
-3.71331
11
6.27237
21
-3.71508
0
LINE
8
BLACK
6
CONTINUOUS
10
6.27237
20
-3.71508
11
6.27237
21
-3.71509
0
LINE
8
BLACK
6
CONTINUOUS
10
6.27237
20
-3.71509
11
6.2722
21
-3.71517
0
LINE
8
BLACK
6
CONTINUOUS
10
6.2722
20
-3.71517
11
6.27205
21
-3.71529
0
LINE
8
BLACK
6
CONTINUOUS
10
6.27205
20
-3.71529
11
6.27205
21
-3.71529
0
LINE
8
BLACK
6
CONTINUOUS
10
6.27205
20
-3.71529
11
6.26661
21
-3.71966
0
LINE
8
BLACK
6
CONTINUOUS
10
6.26661
20
-3.71966
11
6.26646
21
-3.71978
0
LINE
8
BLACK
6
CONTINUOUS
10
6.26646
20
-3.71978
11
6.26634
21
-3.71993
0
LINE
8
BLACK
6
CONTINUOUS
10
6.26634
20
-3.71993
11
6.26634
21
-3.71993
0
LINE
8
BLACK
6
CONTINUOUS
10
6.26634
20
-3.71993
11
6.26519
21
-3.7213
0
LINE
8
BLACK
6
CONTINUOUS
10
6.26519
20
-3.7213
11
6.26173
21
-3.72542
0
LINE
8
BLACK
6
CONTINUOUS
10
6.26173
20
-3.72542
11
6.26164
21
-3.72559
0
LINE
8
BLACK
6
CONTINUOUS
10
6.26164
20
-3.72559
11
6.26164
21
-3.72559
0
LINE
8
BLACK
6
CONTINUOUS
10
6.26164
20
-3.72559
11
6.25845
21
-3.7314
0
LINE
8
BLACK
6
CONTINUOUS
10
6.25845
20
-3.7314
11
6.25819
21
-3.73187
0
LINE
8
BLACK
6
CONTINUOUS
10
6.25819
20
-3.73187
11
6.25813
21
-3.73205
0
LINE
8
BLACK
6
CONTINUOUS
10
6.25813
20
-3.73205
11
6.25813
21
-3.73205
0
LINE
8
BLACK
6
CONTINUOUS
10
6.25813
20
-3.73205
11
6.25602
21
-3.7387
0
LINE
8
BLACK
6
CONTINUOUS
10
6.25602
20
-3.7387
11
6.25602
21
-3.7387
0
LINE
8
BLACK
6
CONTINUOUS
10
6.25602
20
-3.7387
11
6.25597
21
-3.73888
0
LINE
8
BLACK
6
CONTINUOUS
10
6.25597
20
-3.73888
11
6.25594
21
-3.73907
0
LINE
8
BLACK
6
CONTINUOUS
10
6.25594
20
-3.73907
11
6.25563
21
-3.7419
0
LINE
8
BLACK
6
CONTINUOUS
10
6.25563
20
-3.7419
11
6.25514
21
-3.74619
0
LINE
8
BLACK
6
CONTINUOUS
10
6.25514
20
-3.74619
11
6.25516
21
-3.74638
0
LINE
8
BLACK
6
CONTINUOUS
10
6.25516
20
-3.74638
11
6.2557
21
-3.75286
0
LINE
8
BLACK
6
CONTINUOUS
10
6.2557
20
-3.75286
11
6.25576
21
-3.75353
0
LINE
8
BLACK
6
CONTINUOUS
10
6.25576
20
-3.75353
11
6.25779
21
-3.7606
0
LINE
8
BLACK
6
CONTINUOUS
10
6.25779
20
-3.7606
11
6.26115
21
-3.76714
0
LINE
8
BLACK
6
CONTINUOUS
10
6.26115
20
-3.76714
11
6.26572
21
-3.77291
0
LINE
8
BLACK
6
CONTINUOUS
10
6.26572
20
-3.77291
11
6.26587
21
-3.77303
0
LINE
8
BLACK
6
CONTINUOUS
10
6.26587
20
-3.77303
11
6.26587
21
-3.77303
0
LINE
8
BLACK
6
CONTINUOUS
10
6.26587
20
-3.77303
11
6.26717
21
-3.77414
0
LINE
8
BLACK
6
CONTINUOUS
10
6.26717
20
-3.77414
11
6.27133
21
-3.77768
0
LINE
8
BLACK
6
CONTINUOUS
10
6.27133
20
-3.77768
11
6.27149
21
-3.77777
0
LINE
8
BLACK
6
CONTINUOUS
10
6.27149
20
-3.77777
11
6.27149
21
-3.77777
0
LINE
8
BLACK
6
CONTINUOUS
10
6.27149
20
-3.77777
11
6.27289
21
-3.77855
0
LINE
8
BLACK
6
CONTINUOUS
10
6.27289
20
-3.77855
11
6.27775
21
-3.78127
0
LINE
8
BLACK
6
CONTINUOUS
10
6.27775
20
-3.78127
11
6.27793
21
-3.78133
0
LINE
8
BLACK
6
CONTINUOUS
10
6.27793
20
-3.78133
11
6.28457
21
-3.78348
0
LINE
8
BLACK
6
CONTINUOUS
10
6.28457
20
-3.78348
11
6.28457
21
-3.78348
0
LINE
8
BLACK
6
CONTINUOUS
10
6.28457
20
-3.78348
11
6.28475
21
-3.78354
0
LINE
8
BLACK
6
CONTINUOUS
10
6.28475
20
-3.78354
11
6.29205
21
-3.78441
0
LINE
8
BLACK
6
CONTINUOUS
10
6.29205
20
-3.78441
11
6.29224
21
-3.7844
0
LINE
8
BLACK
6
CONTINUOUS
10
6.29224
20
-3.7844
11
6.29224
21
-3.7844
0
LINE
8
BLACK
6
CONTINUOUS
10
6.29224
20
-3.7844
11
6.29464
21
-3.78421
0
LINE
8
BLACK
6
CONTINUOUS
10
6.29464
20
-3.78421
11
6.29939
21
-3.78385
0
LINE
8
BLACK
6
CONTINUOUS
10
6.29939
20
-3.78385
11
6.30648
21
-3.78187
0
LINE
8
BLACK
6
CONTINUOUS
10
6.30648
20
-3.78187
11
6.30665
21
-3.78178
0
LINE
8
BLACK
6
CONTINUOUS
10
6.30665
20
-3.78178
11
6.31287
21
-3.77864
0
LINE
8
BLACK
6
CONTINUOUS
10
6.31287
20
-3.77864
11
6.31287
21
-3.77864
0
LINE
8
BLACK
6
CONTINUOUS
10
6.31287
20
-3.77864
11
6.31304
21
-3.77855
0
LINE
8
BLACK
6
CONTINUOUS
10
6.31304
20
-3.77855
11
6.31884
21
-3.77402
0
LINE
8
BLACK
6
CONTINUOUS
10
6.31884
20
-3.77402
11
6.31897
21
-3.77388
0
LINE
8
BLACK
6
CONTINUOUS
10
6.31897
20
-3.77388
11
6.31897
21
-3.77388
0
LINE
8
BLACK
6
CONTINUOUS
10
6.31897
20
-3.77388
11
6.32329
21
-3.76887
0
LINE
8
BLACK
6
CONTINUOUS
10
6.32329
20
-3.76887
11
6.32365
21
-3.76845
0
LINE
8
BLACK
6
CONTINUOUS
10
6.32365
20
-3.76845
11
6.32381
21
-3.76818
0
LINE
8
BLACK
6
CONTINUOUS
10
6.32381
20
-3.76818
11
6.32719
21
-3.76222
0
LINE
8
BLACK
6
CONTINUOUS
10
6.32719
20
-3.76222
11
6.32719
21
-3.76222
0
LINE
8
BLACK
6
CONTINUOUS
10
6.32719
20
-3.76222
11
6.32728
21
-3.76205
0
LINE
8
BLACK
6
CONTINUOUS
10
6.32728
20
-3.76205
11
6.32759
21
-3.76114
0
LINE
8
BLACK
6
CONTINUOUS
10
6.32759
20
-3.76114
11
6.32844
21
-3.75857
0
LINE
8
BLACK
6
CONTINUOUS
10
6.32844
20
-3.75857
11
6.32961
21
-3.75507
0
LINE
8
BLACK
6
CONTINUOUS
10
6.32961
20
-3.75507
11
6.32963
21
-3.75488
0
LINE
8
BLACK
6
CONTINUOUS
10
6.32963
20
-3.75488
11
6.32989
21
-3.75286
0
LINE
8
BLACK
6
CONTINUOUS
10
6.32989
20
-3.75286
11
6.3307
21
-3.75093
0
LINE
8
BLACK
6
CONTINUOUS
10
6.3307
20
-3.75093
11
6.33077
21
-3.75084
0
LINE
8
BLACK
6
CONTINUOUS
10
6.33077
20
-3.75084
11
6.33086
21
-3.75073
0
LINE
8
BLACK
6
CONTINUOUS
10
6.33086
20
-3.75073
11
6.33273
21
-3.74853
0
LINE
8
BLACK
6
CONTINUOUS
10
6.33273
20
-3.74853
11
6.33283
21
-3.74833
0
LINE
8
BLACK
6
CONTINUOUS
10
6.33283
20
-3.74833
11
6.33296
21
-3.74814
0
LINE
8
BLACK
6
CONTINUOUS
10
6.33296
20
-3.74814
11
6.33296
21
-3.74814
0
LINE
8
BLACK
6
CONTINUOUS
10
6.33296
20
-3.74814
11
6.33304
21
-3.74802
0
LINE
8
BLACK
6
CONTINUOUS
10
6.33304
20
-3.74802
11
6.33304
21
-3.74802
0
LINE
8
BLACK
6
CONTINUOUS
10
6.33304
20
-3.74802
11
6.33316
21
-3.74782
0
LINE
8
BLACK
6
CONTINUOUS
10
6.33316
20
-3.74782
11
6.3333
21
-3.74764
0
LINE
8
BLACK
6
CONTINUOUS
10
6.3333
20
-3.74764
11
6.33397
21
-3.74619
0
LINE
8
BLACK
6
CONTINUOUS
10
6.33397
20
-3.74619
11
6.33452
21
-3.74502
0
LINE
8
BLACK
6
CONTINUOUS
10
6.33452
20
-3.74502
11
6.33458
21
-3.7449
0
LINE
8
BLACK
6
CONTINUOUS
10
6.33458
20
-3.7449
11
6.33473
21
-3.74461
0
LINE
8
BLACK
6
CONTINUOUS
10
6.33473
20
-3.74461
11
6.3359
21
-3.74233
0
LINE
8
BLACK
6
CONTINUOUS
10
6.3359
20
-3.74233
11
6.33595
21
-3.74211
0
LINE
8
BLACK
6
CONTINUOUS
10
6.33595
20
-3.74211
11
6.33603
21
-3.74189
0
LINE
8
BLACK
6
CONTINUOUS
10
6.33603
20
-3.74189
11
6.33603
21
-3.7419
0
LINE
8
BLACK
6
CONTINUOUS
10
6.33603
20
-3.7419
11
6.33608
21
-3.74176
0
LINE
8
BLACK
6
CONTINUOUS
10
6.33608
20
-3.74176
11
6.33608
21
-3.74176
0
LINE
8
BLACK
6
CONTINUOUS
10
6.33608
20
-3.74176
11
6.33615
21
-3.74154
0
LINE
8
BLACK
6
CONTINUOUS
10
6.33615
20
-3.74154
11
6.33625
21
-3.74134
0
LINE
8
BLACK
6
CONTINUOUS
10
6.33625
20
-3.74134
11
6.33683
21
-3.7385
0
LINE
8
BLACK
6
CONTINUOUS
10
6.33683
20
-3.7385
11
6.33686
21
-3.73837
0
LINE
8
BLACK
6
CONTINUOUS
10
6.33686
20
-3.73837
11
6.33755
21
-3.73556
0
LINE
8
BLACK
6
CONTINUOUS
10
6.33755
20
-3.73556
11
6.33758
21
-3.73512
0
LINE
8
BLACK
6
CONTINUOUS
10
6.33758
20
-3.73512
11
6.33759
21
-3.73512
0
LINE
8
BLACK
6
CONTINUOUS
10
6.33759
20
-3.73512
11
6.33761
21
-3.73497
0
LINE
8
BLACK
6
CONTINUOUS
10
6.33761
20
-3.73497
11
6.3376
21
-3.73497
0
LINE
8
BLACK
6
CONTINUOUS
10
6.3376
20
-3.73497
11
6.33762
21
-3.73474
0
LINE
8
BLACK
6
CONTINUOUS
10
6.33762
20
-3.73474
11
6.33766
21
-3.73452
0
LINE
8
BLACK
6
CONTINUOUS
10
6.33766
20
-3.73452
11
6.33758
21
-3.73146
0
LINE
8
BLACK
6
CONTINUOUS
10
6.33758
20
-3.73146
11
6.33758
21
-3.73135
0
LINE
8
BLACK
6
CONTINUOUS
10
6.33758
20
-3.73135
11
6.33758
21
-3.5555
0
LINE
8
BLACK
6
CONTINUOUS
10
6.33758
20
-3.5555
11
6.33829
21
-3.55325
0
LINE
8
BLACK
6
CONTINUOUS
10
6.33829
20
-3.55325
11
6.3384
21
-3.5531
0
LINE
8
BLACK
6
CONTINUOUS
10
6.3384
20
-3.5531
11
6.33852
21
-3.55295
0
LINE
8
BLACK
6
CONTINUOUS
10
6.33852
20
-3.55295
11
6.33862
21
-3.55279
0
LINE
8
BLACK
6
CONTINUOUS
10
6.33862
20
-3.55279
11
6.34206
21
-3.54672
0
LINE
8
BLACK
6
CONTINUOUS
10
6.34206
20
-3.54672
11
6.34206
21
-3.54672
0
LINE
8
BLACK
6
CONTINUOUS
10
6.34206
20
-3.54672
11
6.34216
21
-3.54655
0
LINE
8
BLACK
6
CONTINUOUS
10
6.34216
20
-3.54655
11
6.3427
21
-3.54492
0
LINE
8
BLACK
6
CONTINUOUS
10
6.3427
20
-3.54492
11
6.34442
21
-3.53975
0
LINE
8
BLACK
6
CONTINUOUS
10
6.34442
20
-3.53975
11
6.34442
21
-3.53975
0
LINE
8
BLACK
6
CONTINUOUS
10
6.34442
20
-3.53975
11
6.34448
21
-3.53957
0
LINE
8
BLACK
6
CONTINUOUS
10
6.34448
20
-3.53957
11
6.3447
21
-3.53784
0
LINE
8
BLACK
6
CONTINUOUS
10
6.3447
20
-3.53784
11
6.34539
21
-3.53238
0
LINE
8
BLACK
6
CONTINUOUS
10
6.34539
20
-3.53238
11
6.3454
21
-3.53227
0
LINE
8
BLACK
6
CONTINUOUS
10
6.3454
20
-3.53227
11
6.34542
21
-3.53122
0
LINE
8
BLACK
6
CONTINUOUS
10
6.34542
20
-3.53122
11
6.3447
21
-3.5239
0
LINE
8
BLACK
6
CONTINUOUS
10
6.3447
20
-3.5239
11
6.34257
21
-3.51685
0
LINE
8
BLACK
6
CONTINUOUS
10
6.34257
20
-3.51685
11
6.33912
21
-3.51036
0
LINE
8
BLACK
6
CONTINUOUS
10
6.33912
20
-3.51036
11
6.33447
21
-3.50465
0
LINE
8
BLACK
6
CONTINUOUS
10
6.33447
20
-3.50465
11
6.3337
21
-3.50402
0
LINE
8
BLACK
6
CONTINUOUS
10
6.3337
20
-3.50402
11
6.32895
21
-3.50009
0
LINE
8
BLACK
6
CONTINUOUS
10
6.32895
20
-3.50009
11
6.32895
21
-3.50009
0
LINE
8
BLACK
6
CONTINUOUS
10
6.32895
20
-3.50009
11
6.3288
21
-3.49996
0
LINE
8
BLACK
6
CONTINUOUS
10
6.3288
20
-3.49996
11
6.32233
21
-3.49647
0
LINE
8
BLACK
6
CONTINUOUS
10
6.32233
20
-3.49647
11
6.32004
21
-3.49576
0
LINE
8
BLACK
6
CONTINUOUS
10
6.32004
20
-3.49576
11
6.31548
21
-3.49435
0
LINE
8
BLACK
6
CONTINUOUS
10
6.31548
20
-3.49435
11
6.31548
21
-3.49435
0
LINE
8
BLACK
6
CONTINUOUS
10
6.31548
20
-3.49435
11
6.3153
21
-3.49429
0
LINE
8
BLACK
6
CONTINUOUS
10
6.3153
20
-3.49429
11
6.31511
21
-3.49427
0
LINE
8
BLACK
6
CONTINUOUS
10
6.31511
20
-3.49427
11
6.31511
21
-3.49427
0
LINE
8
BLACK
6
CONTINUOUS
10
6.31511
20
-3.49427
11
6.31468
21
-3.49422
0
LINE
8
BLACK
6
CONTINUOUS
10
6.31468
20
-3.49422
11
6.31412
21
-3.49417
0
LINE
8
BLACK
6
CONTINUOUS
10
6.31412
20
-3.49417
11
6.31177
21
-3.49305
0
LINE
8
BLACK
6
CONTINUOUS
10
6.31177
20
-3.49305
11
6.21325
21
-3.39452
0
LINE
8
BLACK
6
CONTINUOUS
10
6.21325
20
-3.39452
11
6.21215
21
-3.39237
0
LINE
8
BLACK
6
CONTINUOUS
10
6.21215
20
-3.39237
11
6.2121
21
-3.39176
0
LINE
8
BLACK
6
CONTINUOUS
10
6.2121
20
-3.39176
11
6.2121
21
-3.3609
0
LINE
8
BLACK
6
CONTINUOUS
10
6.2121
20
-3.3609
11
6.21282
21
-3.35865
0
LINE
8
BLACK
6
CONTINUOUS
10
6.21282
20
-3.35865
11
6.21293
21
-3.3585
0
LINE
8
BLACK
6
CONTINUOUS
10
6.21293
20
-3.3585
11
6.21305
21
-3.35835
0
LINE
8
BLACK
6
CONTINUOUS
10
6.21305
20
-3.35835
11
6.21668
21
-3.35195
0
LINE
8
BLACK
6
CONTINUOUS
10
6.21668
20
-3.35195
11
6.21901
21
-3.34497
0
LINE
8
BLACK
6
CONTINUOUS
10
6.21901
20
-3.34497
11
6.21993
21
-3.33767
0
LINE
8
BLACK
6
CONTINUOUS
10
6.21993
20
-3.33767
11
6.21994
21
-3.33662
0
LINE
8
BLACK
6
CONTINUOUS
10
6.21994
20
-3.33662
11
6.21923
21
-3.3293
0
LINE
8
BLACK
6
CONTINUOUS
10
6.21923
20
-3.3293
11
6.21906
21
-3.32876
0
LINE
8
BLACK
6
CONTINUOUS
10
6.21906
20
-3.32876
11
6.21912
21
-3.32636
0
LINE
8
BLACK
6
CONTINUOUS
10
6.21912
20
-3.32636
11
6.22057
21
-3.32444
0
LINE
8
BLACK
6
CONTINUOUS
10
6.22057
20
-3.32444
11
6.2228
21
-3.32374
0
LINE
8
BLACK
6
CONTINUOUS
10
6.2228
20
-3.32374
11
6.27924
21
-3.32374
0
LINE
8
BLACK
6
CONTINUOUS
10
6.27924
20
-3.32374
11
6.28003
21
-3.32365
0
LINE
8
BLACK
6
CONTINUOUS
10
6.28003
20
-3.32365
11
6.28144
21
-3.3235
0
LINE
8
BLACK
6
CONTINUOUS
10
6.28144
20
-3.3235
11
6.28144
21
-3.3235
0
LINE
8
BLACK
6
CONTINUOUS
10
6.28144
20
-3.3235
11
6.28169
21
-3.32347
0
LINE
8
BLACK
6
CONTINUOUS
10
6.28169
20
-3.32347
11
6.28321
21
-3.3229
0
LINE
8
BLACK
6
CONTINUOUS
10
6.28321
20
-3.3229
11
6.2868
21
-3.32156
0
LINE
8
BLACK
6
CONTINUOUS
10
6.2868
20
-3.32156
11
6.2868
21
-3.32156
0
LINE
8
BLACK
6
CONTINUOUS
10
6.2868
20
-3.32156
11
6.28706
21
-3.32146
0
LINE
8
BLACK
6
CONTINUOUS
10
6.28706
20
-3.32146
11
6.29164
21
-3.31802
0
LINE
8
BLACK
6
CONTINUOUS
10
6.29164
20
-3.31802
11
6.29508
21
-3.31343
0
LINE
8
BLACK
6
CONTINUOUS
10
6.29508
20
-3.31343
11
6.2971
21
-3.30806
0
LINE
8
BLACK
6
CONTINUOUS
10
6.2971
20
-3.30806
11
6.29736
21
-3.30562
0
LINE
8
BLACK
6
CONTINUOUS
10
6.29736
20
-3.30562
11
6.29736
21
-3.23683
0
LINE
8
BLACK
6
CONTINUOUS
10
6.29736
20
-3.23683
11
6.2971
21
-3.23438
0
LINE
8
BLACK
6
CONTINUOUS
10
6.2971
20
-3.23438
11
6.29508
21
-3.22901
0
LINE
8
BLACK
6
CONTINUOUS
10
6.29508
20
-3.22901
11
6.29164
21
-3.22442
0
LINE
8
BLACK
6
CONTINUOUS
10
6.29164
20
-3.22442
11
6.29142
21
-3.22425
0
LINE
8
BLACK
6
CONTINUOUS
10
6.29142
20
-3.22425
11
6.29123
21
-3.22406
0
LINE
8
BLACK
6
CONTINUOUS
10
6.29123
20
-3.22406
11
6.29129
21
-3.22399
0
LINE
8
BLACK
6
CONTINUOUS
10
6.29129
20
-3.22399
11
6.29015
21
-3.22237
0
LINE
8
BLACK
6
CONTINUOUS
10
6.29015
20
-3.22237
11
6.29019
21
-3.21996
0
LINE
8
BLACK
6
CONTINUOUS
10
6.29019
20
-3.21996
11
6.29129
21
-3.21845
0
LINE
8
BLACK
6
CONTINUOUS
10
6.29129
20
-3.21845
11
6.29123
21
-3.21838
0
LINE
8
BLACK
6
CONTINUOUS
10
6.29123
20
-3.21838
11
6.29142
21
-3.21819
0
LINE
8
BLACK
6
CONTINUOUS
10
6.29142
20
-3.21819
11
6.29164
21
-3.21802
0
LINE
8
BLACK
6
CONTINUOUS
10
6.29164
20
-3.21802
11
6.29508
21
-3.21343
0
LINE
8
BLACK
6
CONTINUOUS
10
6.29508
20
-3.21343
11
6.2971
21
-3.20806
0
LINE
8
BLACK
6
CONTINUOUS
10
6.2971
20
-3.20806
11
6.29736
21
-3.20562
0
LINE
8
BLACK
6
CONTINUOUS
10
6.29736
20
-3.20562
11
6.29736
21
-3.20498
0
LINE
8
BLACK
6
CONTINUOUS
10
6.29736
20
-3.20498
11
6.29811
21
-3.20269
0
LINE
8
BLACK
6
CONTINUOUS
10
6.29811
20
-3.20269
11
6.30006
21
-3.20127
0
LINE
8
BLACK
6
CONTINUOUS
10
6.30006
20
-3.20127
11
6.30126
21
-3.20108
0
LINE
8
BLACK
6
CONTINUOUS
10
6.30126
20
-3.20108
11
6.5806
21
-3.20108
0
LINE
8
BLACK
6
CONTINUOUS
10
6.5806
20
-3.20108
11
6.58289
21
-3.20183
0
LINE
8
BLACK
6
CONTINUOUS
10
6.58289
20
-3.20183
11
6.58313
21
-3.20201
0
LINE
8
BLACK
6
CONTINUOUS
10
6.58313
20
-3.20201
11
6.58333
21
-3.20218
0
LINE
8
BLACK
6
CONTINUOUS
10
6.58333
20
-3.20218
11
6.58349
21
-3.20227
0
LINE
8
BLACK
6
CONTINUOUS
10
6.58349
20
-3.20227
11
6.58349
21
-3.20227
0
LINE
8
BLACK
6
CONTINUOUS
10
6.58349
20
-3.20227
11
6.58489
21
-3.20305
0
LINE
8
BLACK
6
CONTINUOUS
10
6.58489
20
-3.20305
11
6.58975
21
-3.20577
0
LINE
8
BLACK
6
CONTINUOUS
10
6.58975
20
-3.20577
11
6.58993
21
-3.20583
0
LINE
8
BLACK
6
CONTINUOUS
10
6.58993
20
-3.20583
11
6.59657
21
-3.20798
0
LINE
8
BLACK
6
CONTINUOUS
10
6.59657
20
-3.20798
11
6.59657
21
-3.20798
0
LINE
8
BLACK
6
CONTINUOUS
10
6.59657
20
-3.20798
11
6.59675
21
-3.20804
0
LINE
8
BLACK
6
CONTINUOUS
10
6.59675
20
-3.20804
11
6.60405
21
-3.20891
0
LINE
8
BLACK
6
CONTINUOUS
10
6.60405
20
-3.20891
11
6.60424
21
-3.2089
0
LINE
8
BLACK
6
CONTINUOUS
10
6.60424
20
-3.2089
11
6.60424
21
-3.2089
0
LINE
8
BLACK
6
CONTINUOUS
10
6.60424
20
-3.2089
11
6.60664
21
-3.20871
0
LINE
8
BLACK
6
CONTINUOUS
10
6.60664
20
-3.20871
11
6.61139
21
-3.20835
0
LINE
8
BLACK
6
CONTINUOUS
10
6.61139
20
-3.20835
11
6.61848
21
-3.20637
0
LINE
8
BLACK
6
CONTINUOUS
10
6.61848
20
-3.20637
11
6.61865
21
-3.20628
0
LINE
8
BLACK
6
CONTINUOUS
10
6.61865
20
-3.20628
11
6.62487
21
-3.20314
0
LINE
8
BLACK
6
CONTINUOUS
10
6.62487
20
-3.20314
11
6.62487
21
-3.20314
0
LINE
8
BLACK
6
CONTINUOUS
10
6.62487
20
-3.20314
11
6.62504
21
-3.20305
0
LINE
8
BLACK
6
CONTINUOUS
10
6.62504
20
-3.20305
11
6.63084
21
-3.19852
0
LINE
8
BLACK
6
CONTINUOUS
10
6.63084
20
-3.19852
11
6.63097
21
-3.19838
0
LINE
8
BLACK
6
CONTINUOUS
10
6.63097
20
-3.19838
11
6.63097
21
-3.19838
0
LINE
8
BLACK
6
CONTINUOUS
10
6.63097
20
-3.19838
11
6.63553
21
-3.1931
0
LINE
8
BLACK
6
CONTINUOUS
10
6.63553
20
-3.1931
11
6.63565
21
-3.19295
0
LINE
8
BLACK
6
CONTINUOUS
10
6.63565
20
-3.19295
11
6.63928
21
-3.18655
0
LINE
8
BLACK
6
CONTINUOUS
10
6.63928
20
-3.18655
11
6.64161
21
-3.17957
0
LINE
8
BLACK
6
CONTINUOUS
10
6.64161
20
-3.17957
11
6.64253
21
-3.17227
0
LINE
8
BLACK
6
CONTINUOUS
10
6.64253
20
-3.17227
11
6.64254
21
-3.17122
0
LINE
8
BLACK
6
CONTINUOUS
10
6.64254
20
-3.17122
11
6.64183
21
-3.1639
0
LINE
8
BLACK
6
CONTINUOUS
10
6.64183
20
-3.1639
11
6.6397
21
-3.15685
0
LINE
8
BLACK
6
CONTINUOUS
10
6.6397
20
-3.15685
11
6.63624
21
-3.15036
0
LINE
8
BLACK
6
CONTINUOUS
10
6.63624
20
-3.15036
11
6.63159
21
-3.14465
0
LINE
8
BLACK
6
CONTINUOUS
10
6.63159
20
-3.14465
11
6.63145
21
-3.14453
0
LINE
8
BLACK
6
CONTINUOUS
10
6.63145
20
-3.14453
11
6.62607
21
-3.14009
0
LINE
8
BLACK
6
CONTINUOUS
10
6.62607
20
-3.14009
11
6.62607
21
-3.14009
0
LINE
8
BLACK
6
CONTINUOUS
10
6.62607
20
-3.14009
11
6.62592
21
-3.13996
0
LINE
8
BLACK
6
CONTINUOUS
10
6.62592
20
-3.13996
11
6.61945
21
-3.13647
0
LINE
8
BLACK
6
CONTINUOUS
10
6.61945
20
-3.13647
11
6.61242
21
-3.13429
0
LINE
8
BLACK
6
CONTINUOUS
10
6.61242
20
-3.13429
11
6.61223
21
-3.13427
0
LINE
8
BLACK
6
CONTINUOUS
10
6.61223
20
-3.13427
11
6.61223
21
-3.13427
0
LINE
8
BLACK
6
CONTINUOUS
10
6.61223
20
-3.13427
11
6.6053
21
-3.13354
0
LINE
8
BLACK
6
CONTINUOUS
10
6.6053
20
-3.13354
11
6.6053
21
-3.13354
0
LINE
8
BLACK
6
CONTINUOUS
10
6.6053
20
-3.13354
11
6.60511
21
-3.13352
0
LINE
8
BLACK
6
CONTINUOUS
10
6.60511
20
-3.13352
11
6.60275
21
-3.13373
0
LINE
8
BLACK
6
CONTINUOUS
10
6.60275
20
-3.13373
11
6.59797
21
-3.13417
0
LINE
8
BLACK
6
CONTINUOUS
10
6.59797
20
-3.13417
11
6.59797
21
-3.13417
0
LINE
8
BLACK
6
CONTINUOUS
10
6.59797
20
-3.13417
11
6.59778
21
-3.13419
0
LINE
8
BLACK
6
CONTINUOUS
10
6.59778
20
-3.13419
11
6.5976
21
-3.13424
0
LINE
8
BLACK
6
CONTINUOUS
10
6.5976
20
-3.13424
11
6.5976
21
-3.13424
0
LINE
8
BLACK
6
CONTINUOUS
10
6.5976
20
-3.13424
11
6.5909
21
-3.13621
0
LINE
8
BLACK
6
CONTINUOUS
10
6.5909
20
-3.13621
11
6.5909
21
-3.13621
0
LINE
8
BLACK
6
CONTINUOUS
10
6.5909
20
-3.13621
11
6.59072
21
-3.13626
0
LINE
8
BLACK
6
CONTINUOUS
10
6.59072
20
-3.13626
11
6.5842
21
-3.13967
0
LINE
8
BLACK
6
CONTINUOUS
10
6.5842
20
-3.13967
11
6.58405
21
-3.13979
0
LINE
8
BLACK
6
CONTINUOUS
10
6.58405
20
-3.13979
11
6.58405
21
-3.13979
0
LINE
8
BLACK
6
CONTINUOUS
10
6.58405
20
-3.13979
11
6.58317
21
-3.1405
0
LINE
8
BLACK
6
CONTINUOUS
10
6.58317
20
-3.1405
11
6.58073
21
-3.14136
0
LINE
8
BLACK
6
CONTINUOUS
10
6.58073
20
-3.14136
11
6.30126
21
-3.14136
0
LINE
8
BLACK
6
CONTINUOUS
10
6.30126
20
-3.14136
11
6.29897
21
-3.14061
0
LINE
8
BLACK
6
CONTINUOUS
10
6.29897
20
-3.14061
11
6.29755
21
-3.13867
0
LINE
8
BLACK
6
CONTINUOUS
10
6.29755
20
-3.13867
11
6.29736
21
-3.13746
0
LINE
8
BLACK
6
CONTINUOUS
10
6.29736
20
-3.13746
11
6.29736
21
-3.13683
0
LINE
8
BLACK
6
CONTINUOUS
10
6.29736
20
-3.13683
11
6.2971
21
-3.13438
0
LINE
8
BLACK
6
CONTINUOUS
10
6.2971
20
-3.13438
11
6.29508
21
-3.12901
0
LINE
8
BLACK
6
CONTINUOUS
10
6.29508
20
-3.12901
11
6.29164
21
-3.12442
0
LINE
8
BLACK
6
CONTINUOUS
10
6.29164
20
-3.12442
11
6.28706
21
-3.12098
0
LINE
8
BLACK
6
CONTINUOUS
10
6.28706
20
-3.12098
11
6.28169
21
-3.11897
0
LINE
8
BLACK
6
CONTINUOUS
10
6.28169
20
-3.11897
11
6.28144
21
-3.11894
0
LINE
8
BLACK
6
CONTINUOUS
10
6.28144
20
-3.11894
11
6.28144
21
-3.11894
0
LINE
8
BLACK
6
CONTINUOUS
10
6.28144
20
-3.11894
11
6.28003
21
-3.11879
0
LINE
8
BLACK
6
CONTINUOUS
10
6.28003
20
-3.11879
11
6.27924
21
-3.1187
0
LINE
8
BLACK
6
CONTINUOUS
10
6.27924
20
-3.1187
11
6.21045
21
-3.1187
0
LINE
8
BLACK
6
CONTINUOUS
10
6.21045
20
-3.1187
11
6.20966
21
-3.11879
0
LINE
8
BLACK
6
CONTINUOUS
10
6.20966
20
-3.11879
11
6.20824
21
-3.11894
0
LINE
8
BLACK
6
CONTINUOUS
10
6.20824
20
-3.11894
11
6.20824
21
-3.11894
0
LINE
8
BLACK
6
CONTINUOUS
10
6.20824
20
-3.11894
11
6.208
21
-3.11897
0
LINE
8
BLACK
6
CONTINUOUS
10
6.208
20
-3.11897
11
6.20263
21
-3.12098
0
LINE
8
BLACK
6
CONTINUOUS
10
6.20263
20
-3.12098
11
6.19804
21
-3.12442
0
LINE
8
BLACK
6
CONTINUOUS
10
6.19804
20
-3.12442
11
6.1946
21
-3.12901
0
LINE
8
BLACK
6
CONTINUOUS
10
6.1946
20
-3.12901
11
6.19259
21
-3.13438
0
LINE
8
BLACK
6
CONTINUOUS
10
6.19259
20
-3.13438
11
6.19232
21
-3.13683
0
LINE
8
BLACK
6
CONTINUOUS
10
6.19232
20
-3.13683
11
6.19232
21
-3.14099
0
LINE
8
BLACK
6
CONTINUOUS
10
6.19232
20
-3.14099
11
6.19158
21
-3.14328
0
LINE
8
BLACK
6
CONTINUOUS
10
6.19158
20
-3.14328
11
6.19036
21
-3.14431
0
LINE
8
BLACK
6
CONTINUOUS
10
6.19036
20
-3.14431
11
6.19038
21
-3.14434
0
LINE
8
BLACK
6
CONTINUOUS
10
6.19038
20
-3.14434
11
6.18796
21
-3.14592
0
LINE
8
BLACK
6
CONTINUOUS
10
6.18796
20
-3.14592
11
6.18785
21
-3.146
0
LINE
8
BLACK
6
CONTINUOUS
10
6.18785
20
-3.146
11
6.18552
21
-3.14741
0
LINE
8
BLACK
6
CONTINUOUS
10
6.18552
20
-3.14741
11
6.18552
21
-3.14741
0
LINE
8
BLACK
6
CONTINUOUS
10
6.18552
20
-3.14741
11
6.18537
21
-3.1475
0
LINE
8
BLACK
6
CONTINUOUS
10
6.18537
20
-3.1475
11
6.18504
21
-3.14779
0
LINE
8
BLACK
6
CONTINUOUS
10
6.18504
20
-3.14779
11
6.18504
21
-3.14778
0
LINE
8
BLACK
6
CONTINUOUS
10
6.18504
20
-3.14778
11
6.18491
21
-3.14788
0
LINE
8
BLACK
6
CONTINUOUS
10
6.18491
20
-3.14788
11
6.18492
21
-3.14789
0
LINE
8
BLACK
6
CONTINUOUS
10
6.18492
20
-3.14789
11
6.18475
21
-3.14803
0
LINE
8
BLACK
6
CONTINUOUS
10
6.18475
20
-3.14803
11
6.18456
21
-3.14816
0
LINE
8
BLACK
6
CONTINUOUS
10
6.18456
20
-3.14816
11
6.1844
21
-3.14832
0
LINE
8
BLACK
6
CONTINUOUS
10
6.1844
20
-3.14832
11
6.18245
21
-3.15038
0
LINE
8
BLACK
6
CONTINUOUS
10
6.18245
20
-3.15038
11
6.18238
21
-3.15045
0
LINE
8
BLACK
6
CONTINUOUS
10
6.18238
20
-3.15045
11
6.09754
21
-3.23529
0
LINE
8
BLACK
6
CONTINUOUS
10
6.09754
20
-3.23529
11
6.09709
21
-3.23568
0
LINE
8
BLACK
6
CONTINUOUS
10
6.09709
20
-3.23568
11
6.09652
21
-3.2361
0
LINE
8
BLACK
6
CONTINUOUS
10
6.09652
20
-3.2361
11
6.09652
21
-3.2361
0
LINE
8
BLACK
6
CONTINUOUS
10
6.09652
20
-3.2361
11
6.09634
21
-3.23623
0
LINE
8
BLACK
6
CONTINUOUS
10
6.09634
20
-3.23623
11
6.09619
21
-3.2364
0
LINE
8
BLACK
6
CONTINUOUS
10
6.09619
20
-3.2364
11
6.09619
21
-3.2364
0
LINE
8
BLACK
6
CONTINUOUS
10
6.09619
20
-3.2364
11
6.09496
21
-3.23785
0
LINE
8
BLACK
6
CONTINUOUS
10
6.09496
20
-3.23785
11
6.09475
21
-3.23808
0
LINE
8
BLACK
6
CONTINUOUS
10
6.09475
20
-3.23808
11
6.09449
21
-3.23834
0
LINE
8
BLACK
6
CONTINUOUS
10
6.09449
20
-3.23834
11
6.09442
21
-3.23843
0
LINE
8
BLACK
6
CONTINUOUS
10
6.09442
20
-3.23843
11
6.09442
21
-3.23843
0
LINE
8
BLACK
6
CONTINUOUS
10
6.09442
20
-3.23843
11
6.09379
21
-3.23923
0
LINE
8
BLACK
6
CONTINUOUS
10
6.09379
20
-3.23923
11
6.0937
21
-3.23933
0
LINE
8
BLACK
6
CONTINUOUS
10
6.0937
20
-3.23933
11
6.09183
21
-3.24154
0
LINE
8
BLACK
6
CONTINUOUS
10
6.09183
20
-3.24154
11
6.09173
21
-3.24174
0
LINE
8
BLACK
6
CONTINUOUS
10
6.09173
20
-3.24174
11
6.0916
21
-3.24193
0
LINE
8
BLACK
6
CONTINUOUS
10
6.0916
20
-3.24193
11
6.0916
21
-3.24193
0
LINE
8
BLACK
6
CONTINUOUS
10
6.0916
20
-3.24193
11
6.09152
21
-3.24205
0
LINE
8
BLACK
6
CONTINUOUS
10
6.09152
20
-3.24205
11
6.09152
21
-3.24205
0
LINE
8
BLACK
6
CONTINUOUS
10
6.09152
20
-3.24205
11
6.0914
21
-3.24224
0
LINE
8
BLACK
6
CONTINUOUS
10
6.0914
20
-3.24224
11
6.09126
21
-3.24242
0
LINE
8
BLACK
6
CONTINUOUS
10
6.09126
20
-3.24242
11
6.09117
21
-3.24263
0
LINE
8
BLACK
6
CONTINUOUS
10
6.09117
20
-3.24263
11
6.09117
21
-3.24263
0
LINE
8
BLACK
6
CONTINUOUS
10
6.09117
20
-3.24263
11
6.09004
21
-3.24504
0
LINE
8
BLACK
6
CONTINUOUS
10
6.09004
20
-3.24504
11
6.08998
21
-3.24516
0
LINE
8
BLACK
6
CONTINUOUS
10
6.08998
20
-3.24516
11
6.08866
21
-3.24774
0
LINE
8
BLACK
6
CONTINUOUS
10
6.08866
20
-3.24774
11
6.08861
21
-3.24796
0
LINE
8
BLACK
6
CONTINUOUS
10
6.08861
20
-3.24796
11
6.08853
21
-3.24817
0
LINE
8
BLACK
6
CONTINUOUS
10
6.08853
20
-3.24817
11
6.08853
21
-3.24817
0
LINE
8
BLACK
6
CONTINUOUS
10
6.08853
20
-3.24817
11
6.08848
21
-3.24831
0
LINE
8
BLACK
6
CONTINUOUS
10
6.08848
20
-3.24831
11
6.08848
21
-3.24831
0
LINE
8
BLACK
6
CONTINUOUS
10
6.08848
20
-3.24831
11
6.08841
21
-3.24853
0
LINE
8
BLACK
6
CONTINUOUS
10
6.08841
20
-3.24853
11
6.08831
21
-3.24873
0
LINE
8
BLACK
6
CONTINUOUS
10
6.08831
20
-3.24873
11
6.08827
21
-3.24895
0
LINE
8
BLACK
6
CONTINUOUS
10
6.08827
20
-3.24895
11
6.08827
21
-3.24895
0
LINE
8
BLACK
6
CONTINUOUS
10
6.08827
20
-3.24895
11
6.08773
21
-3.25156
0
LINE
8
BLACK
6
CONTINUOUS
10
6.08773
20
-3.25156
11
6.0877
21
-3.25169
0
LINE
8
BLACK
6
CONTINUOUS
10
6.0877
20
-3.25169
11
6.08701
21
-3.2545
0
LINE
8
BLACK
6
CONTINUOUS
10
6.08701
20
-3.2545
11
6.08698
21
-3.25494
0
LINE
8
BLACK
6
CONTINUOUS
10
6.08698
20
-3.25494
11
6.08697
21
-3.25494
0
LINE
8
BLACK
6
CONTINUOUS
10
6.08697
20
-3.25494
11
6.08695
21
-3.2551
0
LINE
8
BLACK
6
CONTINUOUS
10
6.08695
20
-3.2551
11
6.08696
21
-3.2551
0
LINE
8
BLACK
6
CONTINUOUS
10
6.08696
20
-3.2551
11
6.08694
21
-3.25533
0
LINE
8
BLACK
6
CONTINUOUS
10
6.08694
20
-3.25533
11
6.0869
21
-3.25555
0
LINE
8
BLACK
6
CONTINUOUS
10
6.0869
20
-3.25555
11
6.0869
21
-3.25577
0
LINE
8
BLACK
6
CONTINUOUS
10
6.0869
20
-3.25577
11
6.0869
21
-3.25577
0
LINE
8
BLACK
6
CONTINUOUS
10
6.0869
20
-3.25577
11
6.08698
21
-3.25861
0
LINE
8
BLACK
6
CONTINUOUS
10
6.08698
20
-3.25861
11
6.08698
21
-3.25872
0
LINE
8
BLACK
6
CONTINUOUS
10
6.08698
20
-3.25872
11
6.08698
21
-3.36402
0
LINE
8
BLACK
6
CONTINUOUS
10
6.08698
20
-3.36402
11
6.08624
21
-3.36631
0
LINE
8
BLACK
6
CONTINUOUS
10
6.08624
20
-3.36631
11
6.08607
21
-3.36652
0
LINE
8
BLACK
6
CONTINUOUS
10
6.08607
20
-3.36652
11
6.08586
21
-3.36677
0
LINE
8
BLACK
6
CONTINUOUS
10
6.08586
20
-3.36677
11
6.08586
21
-3.36677
0
LINE
8
BLACK
6
CONTINUOUS
10
6.08586
20
-3.36677
11
6.08573
21
-3.36692
0
LINE
8
BLACK
6
CONTINUOUS
10
6.08573
20
-3.36692
11
6.08219
21
-3.37337
0
LINE
8
BLACK
6
CONTINUOUS
10
6.08219
20
-3.37337
11
6.08213
21
-3.37355
0
LINE
8
BLACK
6
CONTINUOUS
10
6.08213
20
-3.37355
11
6.08213
21
-3.37355
0
LINE
8
BLACK
6
CONTINUOUS
10
6.08213
20
-3.37355
11
6.08002
21
-3.3802
0
LINE
8
BLACK
6
CONTINUOUS
10
6.08002
20
-3.3802
11
6.08002
21
-3.3802
0
LINE
8
BLACK
6
CONTINUOUS
10
6.08002
20
-3.3802
11
6.07997
21
-3.38038
0
LINE
8
BLACK
6
CONTINUOUS
10
6.07997
20
-3.38038
11
6.07914
21
-3.38769
0
LINE
8
BLACK
6
CONTINUOUS
10
6.07914
20
-3.38769
11
6.07976
21
-3.39503
0
LINE
8
BLACK
6
CONTINUOUS
10
6.07976
20
-3.39503
11
6.08179
21
-3.4021
0
LINE
8
BLACK
6
CONTINUOUS
10
6.55434
20
-4.05372
11
6.48934
21
-4.05372
0
LINE
8
BLACK
6
CONTINUOUS
10
6.48934
20
-4.05372
11
6.48934
21
-3.98872
0
LINE
8
BLACK
6
CONTINUOUS
10
6.48934
20
-3.98872
11
6.55434
21
-3.98872
0
LINE
8
BLACK
6
CONTINUOUS
10
6.55434
20
-3.98872
11
6.55434
21
-4.05372
0
LINE
8
BLACK
6
CONTINUOUS
10
6.45434
20
-4.05372
11
6.38934
21
-4.05372
0
LINE
8
BLACK
6
CONTINUOUS
10
6.38934
20
-4.05372
11
6.38934
21
-3.98872
0
LINE
8
BLACK
6
CONTINUOUS
10
6.38934
20
-3.98872
11
6.45434
21
-3.98872
0
LINE
8
BLACK
6
CONTINUOUS
10
6.45434
20
-3.98872
11
6.45434
21
-4.05372
0
LINE
8
BLACK
6
CONTINUOUS
10
6.35434
20
-4.05372
11
6.28934
21
-4.05372
0
LINE
8
BLACK
6
CONTINUOUS
10
6.28934
20
-4.05372
11
6.28934
21
-3.98872
0
LINE
8
BLACK
6
CONTINUOUS
10
6.28934
20
-3.98872
11
6.35434
21
-3.98872
0
LINE
8
BLACK
6
CONTINUOUS
10
6.35434
20
-3.98872
11
6.35434
21
-4.05372
0
LINE
8
BLACK
6
CONTINUOUS
10
6.55434
20
-3.95372
11
6.48934
21
-3.95372
0
LINE
8
BLACK
6
CONTINUOUS
10
6.48934
20
-3.95372
11
6.48934
21
-3.88872
0
LINE
8
BLACK
6
CONTINUOUS
10
6.48934
20
-3.88872
11
6.55434
21
-3.88872
0
LINE
8
BLACK
6
CONTINUOUS
10
6.55434
20
-3.88872
11
6.55434
21
-3.95372
0
LINE
8
BLACK
6
CONTINUOUS
10
6.45434
20
-3.95372
11
6.38934
21
-3.95372
0
LINE
8
BLACK
6
CONTINUOUS
10
6.38934
20
-3.95372
11
6.38934
21
-3.88872
0
LINE
8
BLACK
6
CONTINUOUS
10
6.38934
20
-3.88872
11
6.45434
21
-3.88872
0
LINE
8
BLACK
6
CONTINUOUS
10
6.45434
20
-3.88872
11
6.45434
21
-3.95372
0
LINE
8
BLACK
6
CONTINUOUS
10
6.35434
20
-3.95372
11
6.28934
21
-3.95372
0
LINE
8
BLACK
6
CONTINUOUS
10
6.28934
20
-3.95372
11
6.28934
21
-3.88872
0
LINE
8
BLACK
6
CONTINUOUS
10
6.28934
20
-3.88872
11
6.35434
21
-3.88872
0
LINE
8
BLACK
6
CONTINUOUS
10
6.35434
20
-3.88872
11
6.35434
21
-3.95372
0
LINE
8
BLACK
6
CONTINUOUS
10
6.2035
20
-3.66239
11
6.2077
21
-3.65975
0
LINE
8
BLACK
6
CONTINUOUS
10
6.2077
20
-3.65975
11
6.21247
21
-3.65838
0
LINE
8
BLACK
6
CONTINUOUS
10
6.21247
20
-3.65838
11
6.21743
21
-3.65841
0
LINE
8
BLACK
6
CONTINUOUS
10
6.21743
20
-3.65841
11
6.22218
21
-3.65983
0
LINE
8
BLACK
6
CONTINUOUS
10
6.22218
20
-3.65983
11
6.22635
21
-3.66253
0
LINE
8
BLACK
6
CONTINUOUS
10
6.22635
20
-3.66253
11
6.22959
21
-3.66629
0
LINE
8
BLACK
6
CONTINUOUS
10
6.22959
20
-3.66629
11
6.23164
21
-3.67081
0
LINE
8
BLACK
6
CONTINUOUS
10
6.23164
20
-3.67081
11
6.23234
21
-3.67572
0
LINE
8
BLACK
6
CONTINUOUS
10
6.23234
20
-3.67572
11
6.23234
21
-3.67615
0
LINE
8
BLACK
6
CONTINUOUS
10
6.23234
20
-3.67615
11
6.23151
21
-3.68104
0
LINE
8
BLACK
6
CONTINUOUS
10
6.23151
20
-3.68104
11
6.22935
21
-3.68551
0
LINE
8
BLACK
6
CONTINUOUS
10
6.22935
20
-3.68551
11
6.22602
21
-3.68918
0
LINE
8
BLACK
6
CONTINUOUS
10
6.22602
20
-3.68918
11
6.22179
21
-3.69178
0
LINE
8
BLACK
6
CONTINUOUS
10
6.22179
20
-3.69178
11
6.21701
21
-3.69309
0
LINE
8
BLACK
6
CONTINUOUS
10
6.21701
20
-3.69309
11
6.21204
21
-3.693
0
LINE
8
BLACK
6
CONTINUOUS
10
6.21204
20
-3.693
11
6.20731
21
-3.69152
0
LINE
8
BLACK
6
CONTINUOUS
10
6.20731
20
-3.69152
11
6.20318
21
-3.68877
0
LINE
8
BLACK
6
CONTINUOUS
10
6.20318
20
-3.68877
11
6.20049
21
-3.68556
0
LINE
8
BLACK
6
CONTINUOUS
10
6.20049
20
-3.68556
11
6.0756
21
-3.68556
0
LINE
8
BLACK
6
CONTINUOUS
10
6.0756
20
-3.68556
11
6.03057
21
-3.73059
0
LINE
8
BLACK
6
CONTINUOUS
10
6.03057
20
-3.73059
11
6.03102
21
-3.73372
0
LINE
8
BLACK
6
CONTINUOUS
10
6.03102
20
-3.73372
11
6.03101
21
-3.73415
0
LINE
8
BLACK
6
CONTINUOUS
10
6.03101
20
-3.73415
11
6.03019
21
-3.73904
0
LINE
8
BLACK
6
CONTINUOUS
10
6.03019
20
-3.73904
11
6.02803
21
-3.74351
0
LINE
8
BLACK
6
CONTINUOUS
10
6.02803
20
-3.74351
11
6.0247
21
-3.74718
0
LINE
8
BLACK
6
CONTINUOUS
10
6.0247
20
-3.74718
11
6.02047
21
-3.74978
0
LINE
8
BLACK
6
CONTINUOUS
10
6.02047
20
-3.74978
11
6.01568
21
-3.75109
0
LINE
8
BLACK
6
CONTINUOUS
10
6.01568
20
-3.75109
11
6.01072
21
-3.751
0
LINE
8
BLACK
6
CONTINUOUS
10
6.01072
20
-3.751
11
6.00598
21
-3.74952
0
LINE
8
BLACK
6
CONTINUOUS
10
6.00598
20
-3.74952
11
6.00185
21
-3.74677
0
LINE
8
BLACK
6
CONTINUOUS
10
6.00185
20
-3.74677
11
5.99916
21
-3.74356
0
LINE
8
BLACK
6
CONTINUOUS
10
5.99916
20
-3.74356
11
5.95886
21
-3.74356
0
LINE
8
BLACK
6
CONTINUOUS
10
5.95886
20
-3.74356
11
5.9653
21
-3.75845
0
LINE
8
BLACK
6
CONTINUOUS
10
5.9653
20
-3.75845
11
5.97059
21
-3.77453
0
LINE
8
BLACK
6
CONTINUOUS
10
5.97059
20
-3.77453
11
5.9744
21
-3.79103
0
LINE
8
BLACK
6
CONTINUOUS
10
5.9744
20
-3.79103
11
5.97669
21
-3.80781
0
LINE
8
BLACK
6
CONTINUOUS
10
5.97669
20
-3.80781
11
5.97746
21
-3.82472
0
LINE
8
BLACK
6
CONTINUOUS
10
5.97746
20
-3.82472
11
5.97742
21
-3.82863
0
LINE
8
BLACK
6
CONTINUOUS
10
5.97742
20
-3.82863
11
5.9763
21
-3.84552
0
LINE
8
BLACK
6
CONTINUOUS
10
5.9763
20
-3.84552
11
5.97365
21
-3.86225
0
LINE
8
BLACK
6
CONTINUOUS
10
5.97365
20
-3.86225
11
5.9695
21
-3.87866
0
LINE
8
BLACK
6
CONTINUOUS
10
5.9695
20
-3.87866
11
5.96387
21
-3.89463
0
LINE
8
BLACK
6
CONTINUOUS
10
5.96387
20
-3.89463
11
5.95682
21
-3.91002
0
LINE
8
BLACK
6
CONTINUOUS
10
5.95682
20
-3.91002
11
5.94841
21
-3.92472
0
LINE
8
BLACK
6
CONTINUOUS
10
5.94841
20
-3.92472
11
5.9387
21
-3.93859
0
LINE
8
BLACK
6
CONTINUOUS
10
5.9387
20
-3.93859
11
5.92777
21
-3.95152
0
LINE
8
BLACK
6
CONTINUOUS
10
5.92777
20
-3.95152
11
5.91572
21
-3.96341
0
LINE
8
BLACK
6
CONTINUOUS
10
5.91572
20
-3.96341
11
5.90263
21
-3.97415
0
LINE
8
BLACK
6
CONTINUOUS
10
5.90263
20
-3.97415
11
5.88863
21
-3.98367
0
LINE
8
BLACK
6
CONTINUOUS
10
5.88863
20
-3.98367
11
5.87382
21
-3.99188
0
LINE
8
BLACK
6
CONTINUOUS
10
5.87382
20
-3.99188
11
5.85833
21
-3.99871
0
LINE
8
BLACK
6
CONTINUOUS
10
5.85833
20
-3.99871
11
5.84228
21
-4.00411
0
LINE
8
BLACK
6
CONTINUOUS
10
5.84228
20
-4.00411
11
5.82581
21
-4.00803
0
LINE
8
BLACK
6
CONTINUOUS
10
5.82581
20
-4.00803
11
5.80905
21
-4.01045
0
LINE
8
BLACK
6
CONTINUOUS
10
5.80905
20
-4.01045
11
5.79215
21
-4.01134
0
LINE
8
BLACK
6
CONTINUOUS
10
5.79215
20
-4.01134
11
5.77523
21
-4.01069
0
LINE
8
BLACK
6
CONTINUOUS
10
5.77523
20
-4.01069
11
5.75844
21
-4.0085
0
LINE
8
BLACK
6
CONTINUOUS
10
5.75844
20
-4.0085
11
5.74191
21
-4.00481
0
LINE
8
BLACK
6
CONTINUOUS
10
5.74191
20
-4.00481
11
5.72579
21
-3.99964
0
LINE
8
BLACK
6
CONTINUOUS
10
5.72579
20
-3.99964
11
5.71021
21
-3.99302
0
LINE
8
BLACK
6
CONTINUOUS
10
5.71021
20
-3.99302
11
5.69529
21
-3.98502
0
LINE
8
BLACK
6
CONTINUOUS
10
5.69529
20
-3.98502
11
5.68115
21
-3.9757
0
LINE
8
BLACK
6
CONTINUOUS
10
5.68115
20
-3.9757
11
5.66792
21
-3.96514
0
LINE
8
BLACK
6
CONTINUOUS
10
5.66792
20
-3.96514
11
5.6557
21
-3.95342
0
LINE
8
BLACK
6
CONTINUOUS
10
5.6557
20
-3.95342
11
5.64459
21
-3.94064
0
LINE
8
BLACK
6
CONTINUOUS
10
5.64459
20
-3.94064
11
5.63469
21
-3.92691
0
LINE
8
BLACK
6
CONTINUOUS
10
5.63469
20
-3.92691
11
5.62607
21
-3.91233
0
LINE
8
BLACK
6
CONTINUOUS
10
5.62607
20
-3.91233
11
5.61881
21
-3.89704
0
LINE
8
BLACK
6
CONTINUOUS
10
5.61881
20
-3.89704
11
5.61296
21
-3.88115
0
LINE
8
BLACK
6
CONTINUOUS
10
5.61296
20
-3.88115
11
5.60858
21
-3.86479
0
LINE
8
BLACK
6
CONTINUOUS
10
5.60858
20
-3.86479
11
5.60569
21
-3.84811
0
LINE
8
BLACK
6
CONTINUOUS
10
5.60569
20
-3.84811
11
5.60434
21
-3.83123
0
LINE
8
BLACK
6
CONTINUOUS
10
5.60434
20
-3.83123
11
5.60451
21
-3.8143
0
LINE
8
BLACK
6
CONTINUOUS
10
5.60451
20
-3.8143
11
5.60623
21
-3.79746
0
LINE
8
BLACK
6
CONTINUOUS
10
5.60623
20
-3.79746
11
5.60946
21
-3.78084
0
LINE
8
BLACK
6
CONTINUOUS
10
5.60946
20
-3.78084
11
5.61418
21
-3.76458
0
LINE
8
BLACK
6
CONTINUOUS
10
5.61418
20
-3.76458
11
5.62036
21
-3.74882
0
LINE
8
BLACK
6
CONTINUOUS
10
5.62036
20
-3.74882
11
5.62794
21
-3.73368
0
LINE
8
BLACK
6
CONTINUOUS
10
5.62794
20
-3.73368
11
5.63686
21
-3.71929
0
LINE
8
BLACK
6
CONTINUOUS
10
5.63686
20
-3.71929
11
5.64705
21
-3.70576
0
LINE
8
BLACK
6
CONTINUOUS
10
5.64705
20
-3.70576
11
5.65842
21
-3.69322
0
LINE
8
BLACK
6
CONTINUOUS
10
5.65842
20
-3.69322
11
5.67089
21
-3.68176
0
LINE
8
BLACK
6
CONTINUOUS
10
5.67089
20
-3.68176
11
5.68434
21
-3.67148
0
LINE
8
BLACK
6
CONTINUOUS
10
5.68434
20
-3.67148
11
5.69866
21
-3.66246
0
LINE
8
BLACK
6
CONTINUOUS
10
5.69866
20
-3.66246
11
5.71375
21
-3.65477
0
LINE
8
BLACK
6
CONTINUOUS
10
5.71375
20
-3.65477
11
5.72947
21
-3.64848
0
LINE
8
BLACK
6
CONTINUOUS
10
5.72947
20
-3.64848
11
5.7457
21
-3.64364
0
LINE
8
BLACK
6
CONTINUOUS
10
5.7457
20
-3.64364
11
5.76229
21
-3.6403
0
LINE
8
BLACK
6
CONTINUOUS
10
5.76229
20
-3.6403
11
5.77912
21
-3.63847
0
LINE
8
BLACK
6
CONTINUOUS
10
5.77912
20
-3.63847
11
5.79605
21
-3.63817
0
LINE
8
BLACK
6
CONTINUOUS
10
5.79605
20
-3.63817
11
5.81294
21
-3.63941
0
LINE
8
BLACK
6
CONTINUOUS
10
5.81294
20
-3.63941
11
5.82964
21
-3.64218
0
LINE
8
BLACK
6
CONTINUOUS
10
5.82964
20
-3.64218
11
5.84603
21
-3.64645
0
LINE
8
BLACK
6
CONTINUOUS
10
5.84603
20
-3.64645
11
5.86196
21
-3.65218
0
LINE
8
BLACK
6
CONTINUOUS
10
5.86196
20
-3.65218
11
5.8773
21
-3.65934
0
LINE
8
BLACK
6
CONTINUOUS
10
5.8773
20
-3.65934
11
5.89194
21
-3.66785
0
LINE
8
BLACK
6
CONTINUOUS
10
5.89194
20
-3.66785
11
5.90574
21
-3.67766
0
LINE
8
BLACK
6
CONTINUOUS
10
5.90574
20
-3.67766
11
5.91859
21
-3.68868
0
LINE
8
BLACK
6
CONTINUOUS
10
5.91859
20
-3.68868
11
5.9304
21
-3.70082
0
LINE
8
BLACK
6
CONTINUOUS
10
5.9304
20
-3.70082
11
5.94105
21
-3.71398
0
LINE
8
BLACK
6
CONTINUOUS
10
5.94105
20
-3.71398
11
5.94768
21
-3.72388
0
LINE
8
BLACK
6
CONTINUOUS
10
5.94768
20
-3.72388
11
5.9991
21
-3.72388
0
LINE
8
BLACK
6
CONTINUOUS
10
5.9991
20
-3.72388
11
6.00218
21
-3.72039
0
LINE
8
BLACK
6
CONTINUOUS
10
6.00218
20
-3.72039
11
6.00637
21
-3.71775
0
LINE
8
BLACK
6
CONTINUOUS
10
6.00637
20
-3.71775
11
6.01114
21
-3.71638
0
LINE
8
BLACK
6
CONTINUOUS
10
6.01114
20
-3.71638
11
6.0161
21
-3.71641
0
LINE
8
BLACK
6
CONTINUOUS
10
6.0161
20
-3.71641
11
6.01672
21
-3.7166
0
LINE
8
BLACK
6
CONTINUOUS
10
6.01672
20
-3.7166
11
6.06456
21
-3.66876
0
LINE
8
BLACK
6
CONTINUOUS
10
6.06456
20
-3.66876
11
6.06456
21
-3.66876
0
LINE
8
BLACK
6
CONTINUOUS
10
6.06456
20
-3.66876
11
6.06775
21
-3.66663
0
LINE
8
BLACK
6
CONTINUOUS
10
6.06775
20
-3.66663
11
6.07152
21
-3.66588
0
LINE
8
BLACK
6
CONTINUOUS
10
6.07152
20
-3.66588
11
6.20042
21
-3.66588
0
LINE
8
BLACK
6
CONTINUOUS
10
6.20042
20
-3.66588
11
6.2035
21
-3.66239
0
LINE
8
BLACK
6
CONTINUOUS
10
7.04134
20
-3.48972
11
6.97634
21
-3.48972
0
LINE
8
BLACK
6
CONTINUOUS
10
6.97634
20
-3.48972
11
6.97634
21
-3.42472
0
LINE
8
BLACK
6
CONTINUOUS
10
6.97634
20
-3.42472
11
7.04134
21
-3.42472
0
LINE
8
BLACK
6
CONTINUOUS
10
7.04134
20
-3.42472
11
7.04134
21
-3.48972
0
LINE
8
BLACK
6
CONTINUOUS
10
7.14134
20
-3.48972
11
7.07634
21
-3.48972
0
LINE
8
BLACK
6
CONTINUOUS
10
7.07634
20
-3.48972
11
7.07634
21
-3.42472
0
LINE
8
BLACK
6
CONTINUOUS
10
7.07634
20
-3.42472
11
7.14134
21
-3.42472
0
LINE
8
BLACK
6
CONTINUOUS
10
7.14134
20
-3.42472
11
7.14134
21
-3.48972
0
LINE
8
BLACK
6
CONTINUOUS
10
6.03734
20
-3.57872
11
5.97234
21
-3.57872
0
LINE
8
BLACK
6
CONTINUOUS
10
5.97234
20
-3.57872
11
5.97234
21
-3.51372
0
LINE
8
BLACK
6
CONTINUOUS
10
5.97234
20
-3.51372
11
6.03734
21
-3.51372
0
LINE
8
BLACK
6
CONTINUOUS
10
6.03734
20
-3.51372
11
6.03734
21
-3.57872
0
LINE
8
BLACK
6
CONTINUOUS
10
5.46234
20
-3.50372
11
5.39734
21
-3.50372
0
LINE
8
BLACK
6
CONTINUOUS
10
5.39734
20
-3.50372
11
5.39734
21
-3.43872
0
LINE
8
BLACK
6
CONTINUOUS
10
5.39734
20
-3.43872
11
5.46234
21
-3.43872
0
LINE
8
BLACK
6
CONTINUOUS
10
5.46234
20
-3.43872
11
5.46234
21
-3.50372
0
LINE
8
BLACK
6
CONTINUOUS
10
5.56234
20
-3.50372
11
5.49734
21
-3.50372
0
LINE
8
BLACK
6
CONTINUOUS
10
5.49734
20
-3.50372
11
5.49734
21
-3.43872
0
LINE
8
BLACK
6
CONTINUOUS
10
5.49734
20
-3.43872
11
5.56234
21
-3.43872
0
LINE
8
BLACK
6
CONTINUOUS
10
5.56234
20
-3.43872
11
5.56234
21
-3.50372
0
LINE
8
BLACK
6
CONTINUOUS
10
5.83734
20
-3.57872
11
5.77234
21
-3.57872
0
LINE
8
BLACK
6
CONTINUOUS
10
5.77234
20
-3.57872
11
5.77234
21
-3.51372
0
LINE
8
BLACK
6
CONTINUOUS
10
5.77234
20
-3.51372
11
5.83734
21
-3.51372
0
LINE
8
BLACK
6
CONTINUOUS
10
5.83734
20
-3.51372
11
5.83734
21
-3.57872
0
LINE
8
BLACK
6
CONTINUOUS
10
6.18483
20
-3.31931
11
6.18958
21
-3.32073
0
LINE
8
BLACK
6
CONTINUOUS
10
6.18958
20
-3.32073
11
6.19375
21
-3.32343
0
LINE
8
BLACK
6
CONTINUOUS
10
6.19375
20
-3.32343
11
6.19699
21
-3.32719
0
LINE
8
BLACK
6
CONTINUOUS
10
6.19699
20
-3.32719
11
6.19904
21
-3.33171
0
LINE
8
BLACK
6
CONTINUOUS
10
6.19904
20
-3.33171
11
6.19974
21
-3.33662
0
LINE
8
BLACK
6
CONTINUOUS
10
6.19974
20
-3.33662
11
6.19974
21
-3.33705
0
LINE
8
BLACK
6
CONTINUOUS
10
6.19974
20
-3.33705
11
6.19891
21
-3.34194
0
LINE
8
BLACK
6
CONTINUOUS
10
6.19891
20
-3.34194
11
6.19675
21
-3.34641
0
LINE
8
BLACK
6
CONTINUOUS
10
6.19675
20
-3.34641
11
6.19342
21
-3.35008
0
LINE
8
BLACK
6
CONTINUOUS
10
6.19342
20
-3.35008
11
6.19209
21
-3.35091
0
LINE
8
BLACK
6
CONTINUOUS
10
6.19209
20
-3.35091
11
6.19209
21
-3.40167
0
LINE
8
BLACK
6
CONTINUOUS
10
6.19209
20
-3.40167
11
6.30453
21
-3.51411
0
LINE
8
BLACK
6
CONTINUOUS
10
6.30453
20
-3.51411
11
6.30534
21
-3.51388
0
LINE
8
BLACK
6
CONTINUOUS
10
6.30534
20
-3.51388
11
6.3103
21
-3.51391
0
LINE
8
BLACK
6
CONTINUOUS
10
6.3103
20
-3.51391
11
6.31506
21
-3.51533
0
LINE
8
BLACK
6
CONTINUOUS
10
6.31506
20
-3.51533
11
6.31922
21
-3.51803
0
LINE
8
BLACK
6
CONTINUOUS
10
6.31922
20
-3.51803
11
6.32246
21
-3.52179
0
LINE
8
BLACK
6
CONTINUOUS
10
6.32246
20
-3.52179
11
6.32451
21
-3.52631
0
LINE
8
BLACK
6
CONTINUOUS
10
6.32451
20
-3.52631
11
6.32522
21
-3.53122
0
LINE
8
BLACK
6
CONTINUOUS
10
6.32522
20
-3.53122
11
6.32521
21
-3.53165
0
LINE
8
BLACK
6
CONTINUOUS
10
6.32521
20
-3.53165
11
6.32439
21
-3.53654
0
LINE
8
BLACK
6
CONTINUOUS
10
6.32439
20
-3.53654
11
6.32222
21
-3.54101
0
LINE
8
BLACK
6
CONTINUOUS
10
6.32222
20
-3.54101
11
6.3189
21
-3.54468
0
LINE
8
BLACK
6
CONTINUOUS
10
6.3189
20
-3.54468
11
6.31756
21
-3.54551
0
LINE
8
BLACK
6
CONTINUOUS
10
6.31756
20
-3.54551
11
6.31756
21
-3.73185
0
LINE
8
BLACK
6
CONTINUOUS
10
6.31756
20
-3.73185
11
6.31756
21
-3.73185
0
LINE
8
BLACK
6
CONTINUOUS
10
6.31756
20
-3.73185
11
6.31691
21
-3.73512
0
LINE
8
BLACK
6
CONTINUOUS
10
6.31691
20
-3.73512
11
6.31681
21
-3.73561
0
LINE
8
BLACK
6
CONTINUOUS
10
6.31681
20
-3.73561
11
6.31468
21
-3.73881
0
LINE
8
BLACK
6
CONTINUOUS
10
6.31468
20
-3.73881
11
6.31468
21
-3.73881
0
LINE
8
BLACK
6
CONTINUOUS
10
6.31468
20
-3.73881
11
6.30989
21
-3.74359
0
LINE
8
BLACK
6
CONTINUOUS
10
6.30989
20
-3.74359
11
6.31034
21
-3.74672
0
LINE
8
BLACK
6
CONTINUOUS
10
6.31034
20
-3.74672
11
6.31034
21
-3.74715
0
LINE
8
BLACK
6
CONTINUOUS
10
6.31034
20
-3.74715
11
6.30951
21
-3.75204
0
LINE
8
BLACK
6
CONTINUOUS
10
6.30951
20
-3.75204
11
6.30735
21
-3.75651
0
LINE
8
BLACK
6
CONTINUOUS
10
6.30735
20
-3.75651
11
6.30402
21
-3.76018
0
LINE
8
BLACK
6
CONTINUOUS
10
6.30402
20
-3.76018
11
6.29979
21
-3.76278
0
LINE
8
BLACK
6
CONTINUOUS
10
6.29979
20
-3.76278
11
6.29501
21
-3.76409
0
LINE
8
BLACK
6
CONTINUOUS
10
6.29501
20
-3.76409
11
6.29004
21
-3.764
0
LINE
8
BLACK
6
CONTINUOUS
10
6.29004
20
-3.764
11
6.28531
21
-3.76252
0
LINE
8
BLACK
6
CONTINUOUS
10
6.28531
20
-3.76252
11
6.28118
21
-3.75977
0
LINE
8
BLACK
6
CONTINUOUS
10
6.28118
20
-3.75977
11
6.27799
21
-3.75597
0
LINE
8
BLACK
6
CONTINUOUS
10
6.27799
20
-3.75597
11
6.27599
21
-3.75143
0
LINE
8
BLACK
6
CONTINUOUS
10
6.27599
20
-3.75143
11
6.27534
21
-3.74651
0
LINE
8
BLACK
6
CONTINUOUS
10
6.27534
20
-3.74651
11
6.27611
21
-3.7416
0
LINE
8
BLACK
6
CONTINUOUS
10
6.27611
20
-3.7416
11
6.27822
21
-3.73711
0
LINE
8
BLACK
6
CONTINUOUS
10
6.27822
20
-3.73711
11
6.2815
21
-3.73339
0
LINE
8
BLACK
6
CONTINUOUS
10
6.2815
20
-3.73339
11
6.2857
21
-3.73075
0
LINE
8
BLACK
6
CONTINUOUS
10
6.2857
20
-3.73075
11
6.29047
21
-3.72938
0
LINE
8
BLACK
6
CONTINUOUS
10
6.29047
20
-3.72938
11
6.29543
21
-3.72941
0
LINE
8
BLACK
6
CONTINUOUS
10
6.29543
20
-3.72941
11
6.29605
21
-3.7296
0
LINE
8
BLACK
6
CONTINUOUS
10
6.29605
20
-3.7296
11
6.29787
21
-3.72777
0
LINE
8
BLACK
6
CONTINUOUS
10
6.29787
20
-3.72777
11
6.29787
21
-3.54548
0
LINE
8
BLACK
6
CONTINUOUS
10
6.29787
20
-3.54548
11
6.29605
21
-3.54427
0
LINE
8
BLACK
6
CONTINUOUS
10
6.29605
20
-3.54427
11
6.29286
21
-3.54047
0
LINE
8
BLACK
6
CONTINUOUS
10
6.29286
20
-3.54047
11
6.29086
21
-3.53593
0
LINE
8
BLACK
6
CONTINUOUS
10
6.29086
20
-3.53593
11
6.29022
21
-3.53101
0
LINE
8
BLACK
6
CONTINUOUS
10
6.29022
20
-3.53101
11
6.29067
21
-3.52809
0
LINE
8
BLACK
6
CONTINUOUS
10
6.29067
20
-3.52809
11
6.17528
21
-3.41271
0
LINE
8
BLACK
6
CONTINUOUS
10
6.17528
20
-3.41271
11
6.17315
21
-3.40951
0
LINE
8
BLACK
6
CONTINUOUS
10
6.17315
20
-3.40951
11
6.1724
21
-3.40575
0
LINE
8
BLACK
6
CONTINUOUS
10
6.1724
20
-3.40575
11
6.1724
21
-3.35088
0
LINE
8
BLACK
6
CONTINUOUS
10
6.1724
20
-3.35088
11
6.17058
21
-3.34967
0
LINE
8
BLACK
6
CONTINUOUS
10
6.17058
20
-3.34967
11
6.16739
21
-3.34587
0
LINE
8
BLACK
6
CONTINUOUS
10
6.16739
20
-3.34587
11
6.16539
21
-3.34133
0
LINE
8
BLACK
6
CONTINUOUS
10
6.16539
20
-3.34133
11
6.16474
21
-3.33641
0
LINE
8
BLACK
6
CONTINUOUS
10
6.16474
20
-3.33641
11
6.16551
21
-3.3315
0
LINE
8
BLACK
6
CONTINUOUS
10
6.16551
20
-3.3315
11
6.16762
21
-3.32701
0
LINE
8
BLACK
6
CONTINUOUS
10
6.16762
20
-3.32701
11
6.1709
21
-3.32329
0
LINE
8
BLACK
6
CONTINUOUS
10
6.1709
20
-3.32329
11
6.1751
21
-3.32065
0
LINE
8
BLACK
6
CONTINUOUS
10
6.1751
20
-3.32065
11
6.17987
21
-3.31928
0
LINE
8
BLACK
6
CONTINUOUS
10
6.17987
20
-3.31928
11
6.18483
21
-3.31931
0
LINE
8
BLACK
6
CONTINUOUS
10
6.5935
20
-3.15789
11
6.5977
21
-3.15525
0
LINE
8
BLACK
6
CONTINUOUS
10
6.5977
20
-3.15525
11
6.60247
21
-3.15388
0
LINE
8
BLACK
6
CONTINUOUS
10
6.60247
20
-3.15388
11
6.60743
21
-3.15391
0
LINE
8
BLACK
6
CONTINUOUS
10
6.60743
20
-3.15391
11
6.61218
21
-3.15533
0
LINE
8
BLACK
6
CONTINUOUS
10
6.61218
20
-3.15533
11
6.61635
21
-3.15803
0
LINE
8
BLACK
6
CONTINUOUS
10
6.61635
20
-3.15803
11
6.61959
21
-3.16179
0
LINE
8
BLACK
6
CONTINUOUS
10
6.61959
20
-3.16179
11
6.62164
21
-3.16631
0
LINE
8
BLACK
6
CONTINUOUS
10
6.62164
20
-3.16631
11
6.62234
21
-3.17122
0
LINE
8
BLACK
6
CONTINUOUS
10
6.62234
20
-3.17122
11
6.62234
21
-3.17165
0
LINE
8
BLACK
6
CONTINUOUS
10
6.62234
20
-3.17165
11
6.62151
21
-3.17654
0
LINE
8
BLACK
6
CONTINUOUS
10
6.62151
20
-3.17654
11
6.61935
21
-3.18101
0
LINE
8
BLACK
6
CONTINUOUS
10
6.61935
20
-3.18101
11
6.61602
21
-3.18468
0
LINE
8
BLACK
6
CONTINUOUS
10
6.61602
20
-3.18468
11
6.61179
21
-3.18728
0
LINE
8
BLACK
6
CONTINUOUS
10
6.61179
20
-3.18728
11
6.60701
21
-3.18859
0
LINE
8
BLACK
6
CONTINUOUS
10
6.60701
20
-3.18859
11
6.60204
21
-3.1885
0
LINE
8
BLACK
6
CONTINUOUS
10
6.60204
20
-3.1885
11
6.59731
21
-3.18702
0
LINE
8
BLACK
6
CONTINUOUS
10
6.59731
20
-3.18702
11
6.59318
21
-3.18427
0
LINE
8
BLACK
6
CONTINUOUS
10
6.59318
20
-3.18427
11
6.59049
21
-3.18106
0
LINE
8
BLACK
6
CONTINUOUS
10
6.59049
20
-3.18106
11
6.27734
21
-3.18106
0
LINE
8
BLACK
6
CONTINUOUS
10
6.27734
20
-3.18106
11
6.27734
21
-3.20372
0
LINE
8
BLACK
6
CONTINUOUS
10
6.27734
20
-3.20372
11
6.21234
21
-3.20372
0
LINE
8
BLACK
6
CONTINUOUS
10
6.21234
20
-3.20372
11
6.21234
21
-3.18106
0
LINE
8
BLACK
6
CONTINUOUS
10
6.21234
20
-3.18106
11
6.20792
21
-3.18106
0
LINE
8
BLACK
6
CONTINUOUS
10
6.20792
20
-3.18106
11
6.13659
21
-3.2524
0
LINE
8
BLACK
6
CONTINUOUS
10
6.13659
20
-3.2524
11
6.12669
21
-3.2623
0
LINE
8
BLACK
6
CONTINUOUS
10
6.12669
20
-3.2623
11
6.12669
21
-3.37396
0
LINE
8
BLACK
6
CONTINUOUS
10
6.12669
20
-3.37396
11
6.12835
21
-3.37503
0
LINE
8
BLACK
6
CONTINUOUS
10
6.12835
20
-3.37503
11
6.13159
21
-3.37879
0
LINE
8
BLACK
6
CONTINUOUS
10
6.13159
20
-3.37879
11
6.13364
21
-3.38331
0
LINE
8
BLACK
6
CONTINUOUS
10
6.13364
20
-3.38331
11
6.13434
21
-3.38822
0
LINE
8
BLACK
6
CONTINUOUS
10
6.13434
20
-3.38822
11
6.13434
21
-3.38865
0
LINE
8
BLACK
6
CONTINUOUS
10
6.13434
20
-3.38865
11
6.13351
21
-3.39354
0
LINE
8
BLACK
6
CONTINUOUS
10
6.13351
20
-3.39354
11
6.13135
21
-3.39801
0
LINE
8
BLACK
6
CONTINUOUS
10
6.13135
20
-3.39801
11
6.12802
21
-3.40168
0
LINE
8
BLACK
6
CONTINUOUS
10
6.12802
20
-3.40168
11
6.12669
21
-3.40251
0
LINE
8
BLACK
6
CONTINUOUS
10
6.12669
20
-3.40251
11
6.12669
21
-3.45414
0
LINE
8
BLACK
6
CONTINUOUS
10
6.12669
20
-3.45414
11
6.13564
21
-3.46309
0
LINE
8
BLACK
6
CONTINUOUS
10
6.13564
20
-3.46309
11
6.20187
21
-3.52932
0
LINE
8
BLACK
6
CONTINUOUS
10
6.20187
20
-3.52932
11
6.20268
21
-3.52909
0
LINE
8
BLACK
6
CONTINUOUS
10
6.20268
20
-3.52909
11
6.20764
21
-3.52912
0
LINE
8
BLACK
6
CONTINUOUS
10
6.20764
20
-3.52912
11
6.2124
21
-3.53054
0
LINE
8
BLACK
6
CONTINUOUS
10
6.2124
20
-3.53054
11
6.21656
21
-3.53324
0
LINE
8
BLACK
6
CONTINUOUS
10
6.21656
20
-3.53324
11
6.2198
21
-3.537
0
LINE
8
BLACK
6
CONTINUOUS
10
6.2198
20
-3.537
11
6.22185
21
-3.54152
0
LINE
8
BLACK
6
CONTINUOUS
10
6.22185
20
-3.54152
11
6.22256
21
-3.54643
0
LINE
8
BLACK
6
CONTINUOUS
10
6.22256
20
-3.54643
11
6.22255
21
-3.54686
0
LINE
8
BLACK
6
CONTINUOUS
10
6.22255
20
-3.54686
11
6.22173
21
-3.55175
0
LINE
8
BLACK
6
CONTINUOUS
10
6.22173
20
-3.55175
11
6.21957
21
-3.55622
0
LINE
8
BLACK
6
CONTINUOUS
10
6.21957
20
-3.55622
11
6.21624
21
-3.55989
0
LINE
8
BLACK
6
CONTINUOUS
10
6.21624
20
-3.55989
11
6.21201
21
-3.56249
0
LINE
8
BLACK
6
CONTINUOUS
10
6.21201
20
-3.56249
11
6.20722
21
-3.5638
0
LINE
8
BLACK
6
CONTINUOUS
10
6.20722
20
-3.5638
11
6.20226
21
-3.5637
0
LINE
8
BLACK
6
CONTINUOUS
10
6.20226
20
-3.5637
11
6.19752
21
-3.56222
0
LINE
8
BLACK
6
CONTINUOUS
10
6.19752
20
-3.56222
11
6.19339
21
-3.55948
0
LINE
8
BLACK
6
CONTINUOUS
10
6.19339
20
-3.55948
11
6.1902
21
-3.55568
0
LINE
8
BLACK
6
CONTINUOUS
10
6.1902
20
-3.55568
11
6.1882
21
-3.55114
0
LINE
8
BLACK
6
CONTINUOUS
10
6.1882
20
-3.55114
11
6.18756
21
-3.54622
0
LINE
8
BLACK
6
CONTINUOUS
10
6.18756
20
-3.54622
11
6.18801
21
-3.5433
0
LINE
8
BLACK
6
CONTINUOUS
10
6.18801
20
-3.5433
11
6.12172
21
-3.47701
0
LINE
8
BLACK
6
CONTINUOUS
10
6.12172
20
-3.47701
11
6.10988
21
-3.46517
0
LINE
8
BLACK
6
CONTINUOUS
10
6.10988
20
-3.46517
11
6.10775
21
-3.46198
0
LINE
8
BLACK
6
CONTINUOUS
10
6.10775
20
-3.46198
11
6.107
21
-3.45822
0
LINE
8
BLACK
6
CONTINUOUS
10
6.107
20
-3.45822
11
6.107
21
-3.40248
0
LINE
8
BLACK
6
CONTINUOUS
10
6.107
20
-3.40248
11
6.10518
21
-3.40127
0
LINE
8
BLACK
6
CONTINUOUS
10
6.10518
20
-3.40127
11
6.10199
21
-3.39747
0
LINE
8
BLACK
6
CONTINUOUS
10
6.10199
20
-3.39747
11
6.09999
21
-3.39293
0
LINE
8
BLACK
6
CONTINUOUS
10
6.09999
20
-3.39293
11
6.09934
21
-3.38801
0
LINE
8
BLACK
6
CONTINUOUS
10
6.09934
20
-3.38801
11
6.10011
21
-3.3831
0
LINE
8
BLACK
6
CONTINUOUS
10
6.10011
20
-3.3831
11
6.10222
21
-3.37861
0
LINE
8
BLACK
6
CONTINUOUS
10
6.10222
20
-3.37861
11
6.1055
21
-3.37489
0
LINE
8
BLACK
6
CONTINUOUS
10
6.1055
20
-3.37489
11
6.107
21
-3.37395
0
LINE
8
BLACK
6
CONTINUOUS
10
6.107
20
-3.37395
11
6.107
21
-3.25822
0
LINE
8
BLACK
6
CONTINUOUS
10
6.107
20
-3.25822
11
6.10775
21
-3.25445
0
LINE
8
BLACK
6
CONTINUOUS
10
6.10775
20
-3.25445
11
6.10988
21
-3.25126
0
LINE
8
BLACK
6
CONTINUOUS
10
6.10988
20
-3.25126
11
6.12267
21
-3.23848
0
LINE
8
BLACK
6
CONTINUOUS
10
6.12267
20
-3.23848
11
6.19688
21
-3.16426
0
LINE
8
BLACK
6
CONTINUOUS
10
6.19688
20
-3.16426
11
6.19688
21
-3.16426
0
LINE
8
BLACK
6
CONTINUOUS
10
6.19688
20
-3.16426
11
6.20008
21
-3.16213
0
LINE
8
BLACK
6
CONTINUOUS
10
6.20008
20
-3.16213
11
6.20384
21
-3.16138
0
LINE
8
BLACK
6
CONTINUOUS
10
6.20384
20
-3.16138
11
6.21234
21
-3.16138
0
LINE
8
BLACK
6
CONTINUOUS
10
6.21234
20
-3.16138
11
6.21234
21
-3.13872
0
LINE
8
BLACK
6
CONTINUOUS
10
6.21234
20
-3.13872
11
6.27734
21
-3.13872
0
LINE
8
BLACK
6
CONTINUOUS
10
6.27734
20
-3.13872
11
6.27734
21
-3.16138
0
LINE
8
BLACK
6
CONTINUOUS
10
6.27734
20
-3.16138
11
6.59042
21
-3.16138
0
LINE
8
BLACK
6
CONTINUOUS
10
6.59042
20
-3.16138
11
6.5935
21
-3.15789
0
LINE
8
BLACK
6
CONTINUOUS
10
6.27734
20
-3.30372
11
6.21234
21
-3.30372
0
LINE
8
BLACK
6
CONTINUOUS
10
6.21234
20
-3.30372
11
6.21234
21
-3.23872
0
LINE
8
BLACK
6
CONTINUOUS
10
6.21234
20
-3.23872
11
6.27734
21
-3.23872
0
LINE
8
BLACK
6
CONTINUOUS
10
6.27734
20
-3.23872
11
6.27734
21
-3.30372
0
CIRCLE
8
BLACK
10
6.40384
20
-3.27122
40
0.0125
0
CIRCLE
8
BLACK
10
6.10084
20
-3.03922
40
0.0125
0
CIRCLE
8
BLACK
10
6.71984
20
-3.06222
40
0.0125
0
CIRCLE
8
BLACK
10
6.52284
20
-3.04322
40
0.0125
0
CIRCLE
8
BLACK
10
6.40484
20
-3.37122
40
0.0125
0
CIRCLE
8
BLACK
10
6.29584
20
-3.40122
40
0.0125
0
CIRCLE
8
BLACK
10
6.34584
20
-3.78522
40
0.0125
0
CIRCLE
8
BLACK
10
5.34384
20
-3.29522
40
0.0125
0
CIRCLE
8
BLACK
10
5.34384
20
-3.73122
40
0.0125
0
CIRCLE
8
BLACK
10
6.55584
20
-3.43922
40
0.0125
0
CIRCLE
8
BLACK
10
6.74384
20
-3.77422
40
0.0125
0
CIRCLE
8
BLACK
10
5.48031
20
-3.72441
40
0.0125
0
CIRCLE
8
BLACK
10
6.88784
20
-3.72022
40
0.0125
0
CIRCLE
8
BLACK
10
6.51234
20
-3.79372
40
0.0125
0
CIRCLE
8
BLACK
10
6.33684
20
-3.04722
40
0.0125
0
CIRCLE
8
BLACK
10
5.91084
20
-3.02222
40
0.0125
0
CIRCLE
8
BLACK
10
5.59884
20
-3.19222
40
0.0125
0
CIRCLE
8
BLACK
10
6.20506
20
-3.54643
40
0.0125
0
CIRCLE
8
BLACK
10
6.11684
20
-3.38822
40
0.0125
0
CIRCLE
8
BLACK
10
6.60484
20
-3.17122
40
0.0125
0
CIRCLE
8
BLACK
10
6.21484
20
-3.67572
40
0.0125
0
CIRCLE
8
BLACK
10
6.01352
20
-3.73372
40
0.0125
0
CIRCLE
8
BLACK
10
6.29284
20
-3.74672
40
0.0125
0
CIRCLE
8
BLACK
10
6.30772
20
-3.53122
40
0.0125
0
CIRCLE
8
BLACK
10
6.18224
20
-3.33662
40
0.0125
  0
ENDSEC
  0
EOF
