  0
SECTION
  2
HEADER
  9
$ANGBASE
  50
0.0
  9
$ANGDIR
  70
1
  9
$MEASUREMENT
  70
0
  0
ENDSEC
  0
SECTION
  2
TABLES
  0
TABLE
  2
LTYPE
  70
4
  0
LTYPE
  5
40F
  2
CONTINUOUS
  70
0
  3
Solid line
  72
65
  73
0
  40
0.0
  0
LTYPE
  5
410
  2
DASHDOT
 70
0
  3
Dash Dot ____ _ ____ _
 72
65
 73
4
 40
2.0
 49
1.25
 49
-0.25
 49
0.25
 49
-0.25
  0
LTYPE
  5
411
  2
DASHED
 70
0
  3
Dashed __ __ __ __ __
 72
65
 73
2
 40
0.75
 49
0.5
 49
-0.25
  0
LTYPE
  5
43B
  2
DOTTED
 70
0
  3
Dotted .  .  .  .
 72
65
 73
2
 40
0.2
 49
0.0
 49
-0.2
  0
ENDTAB
  0
TABLE
  2
STYLE
  70
4
  0
STYLE
  2
KICAD
  70
0
  40
0
  41
1
  42
1
  50
0
  71
0
  3
isocp.shx
  0
STYLE
  2
KICADB
  70
0
  40
0
  41
1
  42
1
  50
0
  71
0
  3
isocp.shx
  0
STYLE
  2
KICADI
  70
0
  40
0
  41
1
  42
1
  50
15
  71
0
  3
isocp.shx
  0
STYLE
  2
KICADBI
  70
0
  40
0
  41
1
  42
1
  50
15
  71
0
  3
isocp.shx
  0
ENDTAB
  0
TABLE
  2
LAYER
  70
1
  0
LAYER
  2
BLACK
  70
0
  62
7
  6
CONTINUOUS
  0
ENDTAB
  0
ENDSEC
  0
SECTION
  2
ENTITIES
0
LINE
8
BLACK
6
CONTINUOUS
10
6.20231
20
-3.81469
11
6.2055
21
-3.81682
0
LINE
8
BLACK
6
CONTINUOUS
10
6.2055
20
-3.81682
11
6.20764
21
-3.82001
0
LINE
8
BLACK
6
CONTINUOUS
10
6.20764
20
-3.82001
11
6.20839
21
-3.82378
0
LINE
8
BLACK
6
CONTINUOUS
10
6.20839
20
-3.82378
11
6.20839
21
-3.84346
0
LINE
8
BLACK
6
CONTINUOUS
10
6.20839
20
-3.84346
11
6.20764
21
-3.84723
0
LINE
8
BLACK
6
CONTINUOUS
10
6.20764
20
-3.84723
11
6.2055
21
-3.85042
0
LINE
8
BLACK
6
CONTINUOUS
10
6.2055
20
-3.85042
11
6.20231
21
-3.85256
0
LINE
8
BLACK
6
CONTINUOUS
10
6.20231
20
-3.85256
11
6.19854
21
-3.85331
0
LINE
8
BLACK
6
CONTINUOUS
10
6.19854
20
-3.85331
11
6.16114
21
-3.85331
0
LINE
8
BLACK
6
CONTINUOUS
10
6.16114
20
-3.85331
11
6.15738
21
-3.85256
0
LINE
8
BLACK
6
CONTINUOUS
10
6.15738
20
-3.85256
11
6.15418
21
-3.85042
0
LINE
8
BLACK
6
CONTINUOUS
10
6.15418
20
-3.85042
11
6.15205
21
-3.84723
0
LINE
8
BLACK
6
CONTINUOUS
10
6.15205
20
-3.84723
11
6.1513
21
-3.84346
0
LINE
8
BLACK
6
CONTINUOUS
10
6.1513
20
-3.84346
11
6.1513
21
-3.82378
0
LINE
8
BLACK
6
CONTINUOUS
10
6.1513
20
-3.82378
11
6.15205
21
-3.82001
0
LINE
8
BLACK
6
CONTINUOUS
10
6.15205
20
-3.82001
11
6.15418
21
-3.81682
0
LINE
8
BLACK
6
CONTINUOUS
10
6.15418
20
-3.81682
11
6.15738
21
-3.81469
0
LINE
8
BLACK
6
CONTINUOUS
10
6.15738
20
-3.81469
11
6.16114
21
-3.81394
0
LINE
8
BLACK
6
CONTINUOUS
10
6.16114
20
-3.81394
11
6.19854
21
-3.81394
0
LINE
8
BLACK
6
CONTINUOUS
10
6.19854
20
-3.81394
11
6.20231
21
-3.81469
0
LINE
8
BLACK
6
CONTINUOUS
10
6.12633
20
-3.81272
11
6.12952
21
-3.81485
0
LINE
8
BLACK
6
CONTINUOUS
10
6.12952
20
-3.81485
11
6.13165
21
-3.81804
0
LINE
8
BLACK
6
CONTINUOUS
10
6.13165
20
-3.81804
11
6.1324
21
-3.82181
0
LINE
8
BLACK
6
CONTINUOUS
10
6.1324
20
-3.82181
11
6.1324
21
-3.84248
0
LINE
8
BLACK
6
CONTINUOUS
10
6.1324
20
-3.84248
11
6.13165
21
-3.84625
0
LINE
8
BLACK
6
CONTINUOUS
10
6.13165
20
-3.84625
11
6.12952
21
-3.84944
0
LINE
8
BLACK
6
CONTINUOUS
10
6.12952
20
-3.84944
11
6.12633
21
-3.85157
0
LINE
8
BLACK
6
CONTINUOUS
10
6.12633
20
-3.85157
11
6.12256
21
-3.85232
0
LINE
8
BLACK
6
CONTINUOUS
10
6.12256
20
-3.85232
11
6.08713
21
-3.85232
0
LINE
8
BLACK
6
CONTINUOUS
10
6.08713
20
-3.85232
11
6.08336
21
-3.85157
0
LINE
8
BLACK
6
CONTINUOUS
10
6.08336
20
-3.85157
11
6.08017
21
-3.84944
0
LINE
8
BLACK
6
CONTINUOUS
10
6.08017
20
-3.84944
11
6.07803
21
-3.84625
0
LINE
8
BLACK
6
CONTINUOUS
10
6.07803
20
-3.84625
11
6.07728
21
-3.84248
0
LINE
8
BLACK
6
CONTINUOUS
10
6.07728
20
-3.84248
11
6.07728
21
-3.82181
0
LINE
8
BLACK
6
CONTINUOUS
10
6.07728
20
-3.82181
11
6.07803
21
-3.81804
0
LINE
8
BLACK
6
CONTINUOUS
10
6.07803
20
-3.81804
11
6.08017
21
-3.81485
0
LINE
8
BLACK
6
CONTINUOUS
10
6.08017
20
-3.81485
11
6.08336
21
-3.81272
0
LINE
8
BLACK
6
CONTINUOUS
10
6.08336
20
-3.81272
11
6.08713
21
-3.81197
0
LINE
8
BLACK
6
CONTINUOUS
10
6.08713
20
-3.81197
11
6.12256
21
-3.81197
0
LINE
8
BLACK
6
CONTINUOUS
10
6.12256
20
-3.81197
11
6.12633
21
-3.81272
0
LINE
8
BLACK
6
CONTINUOUS
10
6.37985
20
-3.79143
11
6.38305
21
-3.79356
0
LINE
8
BLACK
6
CONTINUOUS
10
6.38305
20
-3.79356
11
6.38518
21
-3.79675
0
LINE
8
BLACK
6
CONTINUOUS
10
6.38518
20
-3.79675
11
6.38593
21
-3.80052
0
LINE
8
BLACK
6
CONTINUOUS
10
6.38593
20
-3.80052
11
6.38593
21
-3.83792
0
LINE
8
BLACK
6
CONTINUOUS
10
6.38593
20
-3.83792
11
6.38518
21
-3.84169
0
LINE
8
BLACK
6
CONTINUOUS
10
6.38518
20
-3.84169
11
6.38305
21
-3.84488
0
LINE
8
BLACK
6
CONTINUOUS
10
6.38305
20
-3.84488
11
6.37985
21
-3.84701
0
LINE
8
BLACK
6
CONTINUOUS
10
6.37985
20
-3.84701
11
6.37609
21
-3.84776
0
LINE
8
BLACK
6
CONTINUOUS
10
6.37609
20
-3.84776
11
6.3564
21
-3.84776
0
LINE
8
BLACK
6
CONTINUOUS
10
6.3564
20
-3.84776
11
6.35264
21
-3.84701
0
LINE
8
BLACK
6
CONTINUOUS
10
6.35264
20
-3.84701
11
6.34944
21
-3.84488
0
LINE
8
BLACK
6
CONTINUOUS
10
6.34944
20
-3.84488
11
6.34731
21
-3.84169
0
LINE
8
BLACK
6
CONTINUOUS
10
6.34731
20
-3.84169
11
6.34656
21
-3.83792
0
LINE
8
BLACK
6
CONTINUOUS
10
6.34656
20
-3.83792
11
6.34656
21
-3.80052
0
LINE
8
BLACK
6
CONTINUOUS
10
6.34656
20
-3.80052
11
6.34731
21
-3.79675
0
LINE
8
BLACK
6
CONTINUOUS
10
6.34731
20
-3.79675
11
6.34944
21
-3.79356
0
LINE
8
BLACK
6
CONTINUOUS
10
6.34944
20
-3.79356
11
6.35264
21
-3.79143
0
LINE
8
BLACK
6
CONTINUOUS
10
6.35264
20
-3.79143
11
6.3564
21
-3.79068
0
LINE
8
BLACK
6
CONTINUOUS
10
6.3564
20
-3.79068
11
6.37609
21
-3.79068
0
LINE
8
BLACK
6
CONTINUOUS
10
6.37609
20
-3.79068
11
6.37985
21
-3.79143
0
LINE
8
BLACK
6
CONTINUOUS
10
6.30505
20
-3.79143
11
6.30824
21
-3.79356
0
LINE
8
BLACK
6
CONTINUOUS
10
6.30824
20
-3.79356
11
6.31038
21
-3.79675
0
LINE
8
BLACK
6
CONTINUOUS
10
6.31038
20
-3.79675
11
6.31113
21
-3.80052
0
LINE
8
BLACK
6
CONTINUOUS
10
6.31113
20
-3.80052
11
6.31113
21
-3.83792
0
LINE
8
BLACK
6
CONTINUOUS
10
6.31113
20
-3.83792
11
6.31038
21
-3.84169
0
LINE
8
BLACK
6
CONTINUOUS
10
6.31038
20
-3.84169
11
6.30824
21
-3.84488
0
LINE
8
BLACK
6
CONTINUOUS
10
6.30824
20
-3.84488
11
6.30505
21
-3.84701
0
LINE
8
BLACK
6
CONTINUOUS
10
6.30505
20
-3.84701
11
6.30128
21
-3.84776
0
LINE
8
BLACK
6
CONTINUOUS
10
6.30128
20
-3.84776
11
6.2816
21
-3.84776
0
LINE
8
BLACK
6
CONTINUOUS
10
6.2816
20
-3.84776
11
6.27783
21
-3.84701
0
LINE
8
BLACK
6
CONTINUOUS
10
6.27783
20
-3.84701
11
6.27464
21
-3.84488
0
LINE
8
BLACK
6
CONTINUOUS
10
6.27464
20
-3.84488
11
6.27251
21
-3.84169
0
LINE
8
BLACK
6
CONTINUOUS
10
6.27251
20
-3.84169
11
6.27176
21
-3.83792
0
LINE
8
BLACK
6
CONTINUOUS
10
6.27176
20
-3.83792
11
6.27176
21
-3.80052
0
LINE
8
BLACK
6
CONTINUOUS
10
6.27176
20
-3.80052
11
6.27251
21
-3.79675
0
LINE
8
BLACK
6
CONTINUOUS
10
6.27251
20
-3.79675
11
6.27464
21
-3.79356
0
LINE
8
BLACK
6
CONTINUOUS
10
6.27464
20
-3.79356
11
6.27783
21
-3.79143
0
LINE
8
BLACK
6
CONTINUOUS
10
6.27783
20
-3.79143
11
6.2816
21
-3.79068
0
LINE
8
BLACK
6
CONTINUOUS
10
6.2816
20
-3.79068
11
6.30128
21
-3.79068
0
LINE
8
BLACK
6
CONTINUOUS
10
6.30128
20
-3.79068
11
6.30505
21
-3.79143
0
LINE
8
BLACK
6
CONTINUOUS
10
6.12633
20
-3.74087
11
6.12952
21
-3.743
0
LINE
8
BLACK
6
CONTINUOUS
10
6.12952
20
-3.743
11
6.13165
21
-3.74619
0
LINE
8
BLACK
6
CONTINUOUS
10
6.13165
20
-3.74619
11
6.1324
21
-3.74996
0
LINE
8
BLACK
6
CONTINUOUS
10
6.1324
20
-3.74996
11
6.1324
21
-3.77063
0
LINE
8
BLACK
6
CONTINUOUS
10
6.1324
20
-3.77063
11
6.13165
21
-3.7744
0
LINE
8
BLACK
6
CONTINUOUS
10
6.13165
20
-3.7744
11
6.12952
21
-3.77759
0
LINE
8
BLACK
6
CONTINUOUS
10
6.12952
20
-3.77759
11
6.12633
21
-3.77972
0
LINE
8
BLACK
6
CONTINUOUS
10
6.12633
20
-3.77972
11
6.12256
21
-3.78047
0
LINE
8
BLACK
6
CONTINUOUS
10
6.12256
20
-3.78047
11
6.08713
21
-3.78047
0
LINE
8
BLACK
6
CONTINUOUS
10
6.08713
20
-3.78047
11
6.08336
21
-3.77972
0
LINE
8
BLACK
6
CONTINUOUS
10
6.08336
20
-3.77972
11
6.08017
21
-3.77759
0
LINE
8
BLACK
6
CONTINUOUS
10
6.08017
20
-3.77759
11
6.07803
21
-3.7744
0
LINE
8
BLACK
6
CONTINUOUS
10
6.07803
20
-3.7744
11
6.07728
21
-3.77063
0
LINE
8
BLACK
6
CONTINUOUS
10
6.07728
20
-3.77063
11
6.07728
21
-3.74996
0
LINE
8
BLACK
6
CONTINUOUS
10
6.07728
20
-3.74996
11
6.07803
21
-3.74619
0
LINE
8
BLACK
6
CONTINUOUS
10
6.07803
20
-3.74619
11
6.08017
21
-3.743
0
LINE
8
BLACK
6
CONTINUOUS
10
6.08017
20
-3.743
11
6.08336
21
-3.74087
0
LINE
8
BLACK
6
CONTINUOUS
10
6.08336
20
-3.74087
11
6.08713
21
-3.74012
0
LINE
8
BLACK
6
CONTINUOUS
10
6.08713
20
-3.74012
11
6.12256
21
-3.74012
0
LINE
8
BLACK
6
CONTINUOUS
10
6.12256
20
-3.74012
11
6.12633
21
-3.74087
0
LINE
8
BLACK
6
CONTINUOUS
10
6.20231
20
-3.73988
11
6.2055
21
-3.74202
0
LINE
8
BLACK
6
CONTINUOUS
10
6.2055
20
-3.74202
11
6.20764
21
-3.74521
0
LINE
8
BLACK
6
CONTINUOUS
10
6.20764
20
-3.74521
11
6.20839
21
-3.74898
0
LINE
8
BLACK
6
CONTINUOUS
10
6.20839
20
-3.74898
11
6.20839
21
-3.76866
0
LINE
8
BLACK
6
CONTINUOUS
10
6.20839
20
-3.76866
11
6.20764
21
-3.77243
0
LINE
8
BLACK
6
CONTINUOUS
10
6.20764
20
-3.77243
11
6.2055
21
-3.77562
0
LINE
8
BLACK
6
CONTINUOUS
10
6.2055
20
-3.77562
11
6.20231
21
-3.77775
0
LINE
8
BLACK
6
CONTINUOUS
10
6.20231
20
-3.77775
11
6.19854
21
-3.7785
0
LINE
8
BLACK
6
CONTINUOUS
10
6.19854
20
-3.7785
11
6.16114
21
-3.7785
0
LINE
8
BLACK
6
CONTINUOUS
10
6.16114
20
-3.7785
11
6.15738
21
-3.77775
0
LINE
8
BLACK
6
CONTINUOUS
10
6.15738
20
-3.77775
11
6.15418
21
-3.77562
0
LINE
8
BLACK
6
CONTINUOUS
10
6.15418
20
-3.77562
11
6.15205
21
-3.77243
0
LINE
8
BLACK
6
CONTINUOUS
10
6.15205
20
-3.77243
11
6.1513
21
-3.76866
0
LINE
8
BLACK
6
CONTINUOUS
10
6.1513
20
-3.76866
11
6.1513
21
-3.74898
0
LINE
8
BLACK
6
CONTINUOUS
10
6.1513
20
-3.74898
11
6.15205
21
-3.74521
0
LINE
8
BLACK
6
CONTINUOUS
10
6.15205
20
-3.74521
11
6.15418
21
-3.74202
0
LINE
8
BLACK
6
CONTINUOUS
10
6.15418
20
-3.74202
11
6.15738
21
-3.73988
0
LINE
8
BLACK
6
CONTINUOUS
10
6.15738
20
-3.73988
11
6.16114
21
-3.73913
0
LINE
8
BLACK
6
CONTINUOUS
10
6.16114
20
-3.73913
11
6.19854
21
-3.73913
0
LINE
8
BLACK
6
CONTINUOUS
10
6.19854
20
-3.73913
11
6.20231
21
-3.73988
0
LINE
8
BLACK
6
CONTINUOUS
10
6.38085
20
-3.71843
11
6.38405
21
-3.72056
0
LINE
8
BLACK
6
CONTINUOUS
10
6.38405
20
-3.72056
11
6.38618
21
-3.72375
0
LINE
8
BLACK
6
CONTINUOUS
10
6.38618
20
-3.72375
11
6.38693
21
-3.72752
0
LINE
8
BLACK
6
CONTINUOUS
10
6.38693
20
-3.72752
11
6.38693
21
-3.76492
0
LINE
8
BLACK
6
CONTINUOUS
10
6.38693
20
-3.76492
11
6.38618
21
-3.76869
0
LINE
8
BLACK
6
CONTINUOUS
10
6.38618
20
-3.76869
11
6.38405
21
-3.77188
0
LINE
8
BLACK
6
CONTINUOUS
10
6.38405
20
-3.77188
11
6.38085
21
-3.77401
0
LINE
8
BLACK
6
CONTINUOUS
10
6.38085
20
-3.77401
11
6.37709
21
-3.77476
0
LINE
8
BLACK
6
CONTINUOUS
10
6.37709
20
-3.77476
11
6.3574
21
-3.77476
0
LINE
8
BLACK
6
CONTINUOUS
10
6.3574
20
-3.77476
11
6.35363
21
-3.77401
0
LINE
8
BLACK
6
CONTINUOUS
10
6.35363
20
-3.77401
11
6.35044
21
-3.77188
0
LINE
8
BLACK
6
CONTINUOUS
10
6.35044
20
-3.77188
11
6.34831
21
-3.76869
0
LINE
8
BLACK
6
CONTINUOUS
10
6.34831
20
-3.76869
11
6.34756
21
-3.76492
0
LINE
8
BLACK
6
CONTINUOUS
10
6.34756
20
-3.76492
11
6.34756
21
-3.72752
0
LINE
8
BLACK
6
CONTINUOUS
10
6.34756
20
-3.72752
11
6.34831
21
-3.72375
0
LINE
8
BLACK
6
CONTINUOUS
10
6.34831
20
-3.72375
11
6.35044
21
-3.72056
0
LINE
8
BLACK
6
CONTINUOUS
10
6.35044
20
-3.72056
11
6.35363
21
-3.71843
0
LINE
8
BLACK
6
CONTINUOUS
10
6.35363
20
-3.71843
11
6.3574
21
-3.71768
0
LINE
8
BLACK
6
CONTINUOUS
10
6.3574
20
-3.71768
11
6.37709
21
-3.71768
0
LINE
8
BLACK
6
CONTINUOUS
10
6.37709
20
-3.71768
11
6.38085
21
-3.71843
0
LINE
8
BLACK
6
CONTINUOUS
10
6.30605
20
-3.71843
11
6.30924
21
-3.72056
0
LINE
8
BLACK
6
CONTINUOUS
10
6.30924
20
-3.72056
11
6.31138
21
-3.72375
0
LINE
8
BLACK
6
CONTINUOUS
10
6.31138
20
-3.72375
11
6.31213
21
-3.72752
0
LINE
8
BLACK
6
CONTINUOUS
10
6.31213
20
-3.72752
11
6.31213
21
-3.76492
0
LINE
8
BLACK
6
CONTINUOUS
10
6.31213
20
-3.76492
11
6.31138
21
-3.76869
0
LINE
8
BLACK
6
CONTINUOUS
10
6.31138
20
-3.76869
11
6.30924
21
-3.77188
0
LINE
8
BLACK
6
CONTINUOUS
10
6.30924
20
-3.77188
11
6.30605
21
-3.77401
0
LINE
8
BLACK
6
CONTINUOUS
10
6.30605
20
-3.77401
11
6.30228
21
-3.77476
0
LINE
8
BLACK
6
CONTINUOUS
10
6.30228
20
-3.77476
11
6.2826
21
-3.77476
0
LINE
8
BLACK
6
CONTINUOUS
10
6.2826
20
-3.77476
11
6.27883
21
-3.77401
0
LINE
8
BLACK
6
CONTINUOUS
10
6.27883
20
-3.77401
11
6.27564
21
-3.77188
0
LINE
8
BLACK
6
CONTINUOUS
10
6.27564
20
-3.77188
11
6.27351
21
-3.76869
0
LINE
8
BLACK
6
CONTINUOUS
10
6.27351
20
-3.76869
11
6.27276
21
-3.76492
0
LINE
8
BLACK
6
CONTINUOUS
10
6.27276
20
-3.76492
11
6.27276
21
-3.72752
0
LINE
8
BLACK
6
CONTINUOUS
10
6.27276
20
-3.72752
11
6.27351
21
-3.72375
0
LINE
8
BLACK
6
CONTINUOUS
10
6.27351
20
-3.72375
11
6.27564
21
-3.72056
0
LINE
8
BLACK
6
CONTINUOUS
10
6.27564
20
-3.72056
11
6.27883
21
-3.71843
0
LINE
8
BLACK
6
CONTINUOUS
10
6.27883
20
-3.71843
11
6.2826
21
-3.71768
0
LINE
8
BLACK
6
CONTINUOUS
10
6.2826
20
-3.71768
11
6.30228
21
-3.71768
0
LINE
8
BLACK
6
CONTINUOUS
10
6.30228
20
-3.71768
11
6.30605
21
-3.71843
0
LINE
8
BLACK
6
CONTINUOUS
10
5.9393
20
-3.69701
11
5.94249
21
-3.69915
0
LINE
8
BLACK
6
CONTINUOUS
10
5.94249
20
-3.69915
11
5.94463
21
-3.70234
0
LINE
8
BLACK
6
CONTINUOUS
10
5.94463
20
-3.70234
11
5.94538
21
-3.70611
0
LINE
8
BLACK
6
CONTINUOUS
10
5.94538
20
-3.70611
11
5.94538
21
-3.72579
0
LINE
8
BLACK
6
CONTINUOUS
10
5.94538
20
-3.72579
11
5.94463
21
-3.72956
0
LINE
8
BLACK
6
CONTINUOUS
10
5.94463
20
-3.72956
11
5.94249
21
-3.73275
0
LINE
8
BLACK
6
CONTINUOUS
10
5.94249
20
-3.73275
11
5.9393
21
-3.73488
0
LINE
8
BLACK
6
CONTINUOUS
10
5.9393
20
-3.73488
11
5.93553
21
-3.73563
0
LINE
8
BLACK
6
CONTINUOUS
10
5.93553
20
-3.73563
11
5.89813
21
-3.73563
0
LINE
8
BLACK
6
CONTINUOUS
10
5.89813
20
-3.73563
11
5.89437
21
-3.73488
0
LINE
8
BLACK
6
CONTINUOUS
10
5.89437
20
-3.73488
11
5.89117
21
-3.73275
0
LINE
8
BLACK
6
CONTINUOUS
10
5.89117
20
-3.73275
11
5.88904
21
-3.72956
0
LINE
8
BLACK
6
CONTINUOUS
10
5.88904
20
-3.72956
11
5.88829
21
-3.72579
0
LINE
8
BLACK
6
CONTINUOUS
10
5.88829
20
-3.72579
11
5.88829
21
-3.70611
0
LINE
8
BLACK
6
CONTINUOUS
10
5.88829
20
-3.70611
11
5.88904
21
-3.70234
0
LINE
8
BLACK
6
CONTINUOUS
10
5.88904
20
-3.70234
11
5.89117
21
-3.69915
0
LINE
8
BLACK
6
CONTINUOUS
10
5.89117
20
-3.69915
11
5.89437
21
-3.69701
0
LINE
8
BLACK
6
CONTINUOUS
10
5.89437
20
-3.69701
11
5.89813
21
-3.69626
0
LINE
8
BLACK
6
CONTINUOUS
10
5.89813
20
-3.69626
11
5.93553
21
-3.69626
0
LINE
8
BLACK
6
CONTINUOUS
10
5.93553
20
-3.69626
11
5.9393
21
-3.69701
0
LINE
8
BLACK
6
CONTINUOUS
10
6.02584
20
-3.69288
11
6.02903
21
-3.69501
0
LINE
8
BLACK
6
CONTINUOUS
10
6.02903
20
-3.69501
11
6.03116
21
-3.6982
0
LINE
8
BLACK
6
CONTINUOUS
10
6.03116
20
-3.6982
11
6.03191
21
-3.70197
0
LINE
8
BLACK
6
CONTINUOUS
10
6.03191
20
-3.70197
11
6.03191
21
-3.72264
0
LINE
8
BLACK
6
CONTINUOUS
10
6.03191
20
-3.72264
11
6.03116
21
-3.72641
0
LINE
8
BLACK
6
CONTINUOUS
10
6.03116
20
-3.72641
11
6.02903
21
-3.7296
0
LINE
8
BLACK
6
CONTINUOUS
10
6.02903
20
-3.7296
11
6.02584
21
-3.73173
0
LINE
8
BLACK
6
CONTINUOUS
10
6.02584
20
-3.73173
11
6.02207
21
-3.73248
0
LINE
8
BLACK
6
CONTINUOUS
10
6.02207
20
-3.73248
11
5.98664
21
-3.73248
0
LINE
8
BLACK
6
CONTINUOUS
10
5.98664
20
-3.73248
11
5.98287
21
-3.73173
0
LINE
8
BLACK
6
CONTINUOUS
10
5.98287
20
-3.73173
11
5.97968
21
-3.7296
0
LINE
8
BLACK
6
CONTINUOUS
10
5.97968
20
-3.7296
11
5.97754
21
-3.72641
0
LINE
8
BLACK
6
CONTINUOUS
10
5.97754
20
-3.72641
11
5.97679
21
-3.72264
0
LINE
8
BLACK
6
CONTINUOUS
10
5.97679
20
-3.72264
11
5.97679
21
-3.70197
0
LINE
8
BLACK
6
CONTINUOUS
10
5.97679
20
-3.70197
11
5.97754
21
-3.6982
0
LINE
8
BLACK
6
CONTINUOUS
10
5.97754
20
-3.6982
11
5.97968
21
-3.69501
0
LINE
8
BLACK
6
CONTINUOUS
10
5.97968
20
-3.69501
11
5.98287
21
-3.69288
0
LINE
8
BLACK
6
CONTINUOUS
10
5.98287
20
-3.69288
11
5.98664
21
-3.69213
0
LINE
8
BLACK
6
CONTINUOUS
10
5.98664
20
-3.69213
11
6.02207
21
-3.69213
0
LINE
8
BLACK
6
CONTINUOUS
10
6.02207
20
-3.69213
11
6.02584
21
-3.69288
0
LINE
8
BLACK
6
CONTINUOUS
10
6.56633
20
-3.68772
11
6.56952
21
-3.68985
0
LINE
8
BLACK
6
CONTINUOUS
10
6.56952
20
-3.68985
11
6.57165
21
-3.69304
0
LINE
8
BLACK
6
CONTINUOUS
10
6.57165
20
-3.69304
11
6.5724
21
-3.69681
0
LINE
8
BLACK
6
CONTINUOUS
10
6.5724
20
-3.69681
11
6.5724
21
-3.71748
0
LINE
8
BLACK
6
CONTINUOUS
10
6.5724
20
-3.71748
11
6.57165
21
-3.72125
0
LINE
8
BLACK
6
CONTINUOUS
10
6.57165
20
-3.72125
11
6.56952
21
-3.72444
0
LINE
8
BLACK
6
CONTINUOUS
10
6.56952
20
-3.72444
11
6.56633
21
-3.72657
0
LINE
8
BLACK
6
CONTINUOUS
10
6.56633
20
-3.72657
11
6.56256
21
-3.72732
0
LINE
8
BLACK
6
CONTINUOUS
10
6.56256
20
-3.72732
11
6.52713
21
-3.72732
0
LINE
8
BLACK
6
CONTINUOUS
10
6.52713
20
-3.72732
11
6.52336
21
-3.72657
0
LINE
8
BLACK
6
CONTINUOUS
10
6.52336
20
-3.72657
11
6.52017
21
-3.72444
0
LINE
8
BLACK
6
CONTINUOUS
10
6.52017
20
-3.72444
11
6.51803
21
-3.72125
0
LINE
8
BLACK
6
CONTINUOUS
10
6.51803
20
-3.72125
11
6.51728
21
-3.71748
0
LINE
8
BLACK
6
CONTINUOUS
10
6.51728
20
-3.71748
11
6.51728
21
-3.69681
0
LINE
8
BLACK
6
CONTINUOUS
10
6.51728
20
-3.69681
11
6.51803
21
-3.69304
0
LINE
8
BLACK
6
CONTINUOUS
10
6.51803
20
-3.69304
11
6.52017
21
-3.68985
0
LINE
8
BLACK
6
CONTINUOUS
10
6.52017
20
-3.68985
11
6.52336
21
-3.68772
0
LINE
8
BLACK
6
CONTINUOUS
10
6.52336
20
-3.68772
11
6.52713
21
-3.68697
0
LINE
8
BLACK
6
CONTINUOUS
10
6.52713
20
-3.68697
11
6.56256
21
-3.68697
0
LINE
8
BLACK
6
CONTINUOUS
10
6.56256
20
-3.68697
11
6.56633
21
-3.68772
0
LINE
8
BLACK
6
CONTINUOUS
10
6.47133
20
-3.68772
11
6.47452
21
-3.68985
0
LINE
8
BLACK
6
CONTINUOUS
10
6.47452
20
-3.68985
11
6.47665
21
-3.69304
0
LINE
8
BLACK
6
CONTINUOUS
10
6.47665
20
-3.69304
11
6.4774
21
-3.69681
0
LINE
8
BLACK
6
CONTINUOUS
10
6.4774
20
-3.69681
11
6.4774
21
-3.71748
0
LINE
8
BLACK
6
CONTINUOUS
10
6.4774
20
-3.71748
11
6.47665
21
-3.72125
0
LINE
8
BLACK
6
CONTINUOUS
10
6.47665
20
-3.72125
11
6.47452
21
-3.72444
0
LINE
8
BLACK
6
CONTINUOUS
10
6.47452
20
-3.72444
11
6.47133
21
-3.72657
0
LINE
8
BLACK
6
CONTINUOUS
10
6.47133
20
-3.72657
11
6.46756
21
-3.72732
0
LINE
8
BLACK
6
CONTINUOUS
10
6.46756
20
-3.72732
11
6.43213
21
-3.72732
0
LINE
8
BLACK
6
CONTINUOUS
10
6.43213
20
-3.72732
11
6.42836
21
-3.72657
0
LINE
8
BLACK
6
CONTINUOUS
10
6.42836
20
-3.72657
11
6.42517
21
-3.72444
0
LINE
8
BLACK
6
CONTINUOUS
10
6.42517
20
-3.72444
11
6.42303
21
-3.72125
0
LINE
8
BLACK
6
CONTINUOUS
10
6.42303
20
-3.72125
11
6.42228
21
-3.71748
0
LINE
8
BLACK
6
CONTINUOUS
10
6.42228
20
-3.71748
11
6.42228
21
-3.69681
0
LINE
8
BLACK
6
CONTINUOUS
10
6.42228
20
-3.69681
11
6.42303
21
-3.69304
0
LINE
8
BLACK
6
CONTINUOUS
10
6.42303
20
-3.69304
11
6.42517
21
-3.68985
0
LINE
8
BLACK
6
CONTINUOUS
10
6.42517
20
-3.68985
11
6.42836
21
-3.68772
0
LINE
8
BLACK
6
CONTINUOUS
10
6.42836
20
-3.68772
11
6.43213
21
-3.68697
0
LINE
8
BLACK
6
CONTINUOUS
10
6.43213
20
-3.68697
11
6.46756
21
-3.68697
0
LINE
8
BLACK
6
CONTINUOUS
10
6.46756
20
-3.68697
11
6.47133
21
-3.68772
0
LINE
8
BLACK
6
CONTINUOUS
10
6.66731
20
-3.68469
11
6.6705
21
-3.68682
0
LINE
8
BLACK
6
CONTINUOUS
10
6.6705
20
-3.68682
11
6.67264
21
-3.69001
0
LINE
8
BLACK
6
CONTINUOUS
10
6.67264
20
-3.69001
11
6.67339
21
-3.69378
0
LINE
8
BLACK
6
CONTINUOUS
10
6.67339
20
-3.69378
11
6.67339
21
-3.71346
0
LINE
8
BLACK
6
CONTINUOUS
10
6.67339
20
-3.71346
11
6.67264
21
-3.71723
0
LINE
8
BLACK
6
CONTINUOUS
10
6.67264
20
-3.71723
11
6.6705
21
-3.72042
0
LINE
8
BLACK
6
CONTINUOUS
10
6.6705
20
-3.72042
11
6.66731
21
-3.72256
0
LINE
8
BLACK
6
CONTINUOUS
10
6.66731
20
-3.72256
11
6.66354
21
-3.72331
0
LINE
8
BLACK
6
CONTINUOUS
10
6.66354
20
-3.72331
11
6.62614
21
-3.72331
0
LINE
8
BLACK
6
CONTINUOUS
10
6.62614
20
-3.72331
11
6.62238
21
-3.72256
0
LINE
8
BLACK
6
CONTINUOUS
10
6.62238
20
-3.72256
11
6.61918
21
-3.72042
0
LINE
8
BLACK
6
CONTINUOUS
10
6.61918
20
-3.72042
11
6.61705
21
-3.71723
0
LINE
8
BLACK
6
CONTINUOUS
10
6.61705
20
-3.71723
11
6.6163
21
-3.71346
0
LINE
8
BLACK
6
CONTINUOUS
10
6.6163
20
-3.71346
11
6.6163
21
-3.69378
0
LINE
8
BLACK
6
CONTINUOUS
10
6.6163
20
-3.69378
11
6.61705
21
-3.69001
0
LINE
8
BLACK
6
CONTINUOUS
10
6.61705
20
-3.69001
11
6.61918
21
-3.68682
0
LINE
8
BLACK
6
CONTINUOUS
10
6.61918
20
-3.68682
11
6.62238
21
-3.68469
0
LINE
8
BLACK
6
CONTINUOUS
10
6.62238
20
-3.68469
11
6.62614
21
-3.68394
0
LINE
8
BLACK
6
CONTINUOUS
10
6.62614
20
-3.68394
11
6.66354
21
-3.68394
0
LINE
8
BLACK
6
CONTINUOUS
10
6.66354
20
-3.68394
11
6.66731
21
-3.68469
0
LINE
8
BLACK
6
CONTINUOUS
10
6.76133
20
-3.68272
11
6.76452
21
-3.68485
0
LINE
8
BLACK
6
CONTINUOUS
10
6.76452
20
-3.68485
11
6.76665
21
-3.68804
0
LINE
8
BLACK
6
CONTINUOUS
10
6.76665
20
-3.68804
11
6.7674
21
-3.69181
0
LINE
8
BLACK
6
CONTINUOUS
10
6.7674
20
-3.69181
11
6.7674
21
-3.71248
0
LINE
8
BLACK
6
CONTINUOUS
10
6.7674
20
-3.71248
11
6.76665
21
-3.71625
0
LINE
8
BLACK
6
CONTINUOUS
10
6.76665
20
-3.71625
11
6.76452
21
-3.71944
0
LINE
8
BLACK
6
CONTINUOUS
10
6.76452
20
-3.71944
11
6.76133
21
-3.72157
0
LINE
8
BLACK
6
CONTINUOUS
10
6.76133
20
-3.72157
11
6.75756
21
-3.72232
0
LINE
8
BLACK
6
CONTINUOUS
10
6.75756
20
-3.72232
11
6.72213
21
-3.72232
0
LINE
8
BLACK
6
CONTINUOUS
10
6.72213
20
-3.72232
11
6.71836
21
-3.72157
0
LINE
8
BLACK
6
CONTINUOUS
10
6.71836
20
-3.72157
11
6.71517
21
-3.71944
0
LINE
8
BLACK
6
CONTINUOUS
10
6.71517
20
-3.71944
11
6.71303
21
-3.71625
0
LINE
8
BLACK
6
CONTINUOUS
10
6.71303
20
-3.71625
11
6.71228
21
-3.71248
0
LINE
8
BLACK
6
CONTINUOUS
10
6.71228
20
-3.71248
11
6.71228
21
-3.69181
0
LINE
8
BLACK
6
CONTINUOUS
10
6.71228
20
-3.69181
11
6.71303
21
-3.68804
0
LINE
8
BLACK
6
CONTINUOUS
10
6.71303
20
-3.68804
11
6.71517
21
-3.68485
0
LINE
8
BLACK
6
CONTINUOUS
10
6.71517
20
-3.68485
11
6.71836
21
-3.68272
0
LINE
8
BLACK
6
CONTINUOUS
10
6.71836
20
-3.68272
11
6.72213
21
-3.68197
0
LINE
8
BLACK
6
CONTINUOUS
10
6.72213
20
-3.68197
11
6.75756
21
-3.68197
0
LINE
8
BLACK
6
CONTINUOUS
10
6.75756
20
-3.68197
11
6.76133
21
-3.68272
0
LINE
8
BLACK
6
CONTINUOUS
10
6.12219
20
-3.69592
11
6.1025
21
-3.69592
0
LINE
8
BLACK
6
CONTINUOUS
10
6.1025
20
-3.69592
11
6.1025
21
-3.65652
0
LINE
8
BLACK
6
CONTINUOUS
10
6.1025
20
-3.65652
11
6.12219
21
-3.65652
0
LINE
8
BLACK
6
CONTINUOUS
10
6.12219
20
-3.65652
11
6.12219
21
-3.69592
0
LINE
8
BLACK
6
CONTINUOUS
10
6.15969
20
-3.69592
11
6.14
21
-3.69592
0
LINE
8
BLACK
6
CONTINUOUS
10
6.14
20
-3.69592
11
6.14
21
-3.65652
0
LINE
8
BLACK
6
CONTINUOUS
10
6.14
20
-3.65652
11
6.15969
21
-3.65652
0
LINE
8
BLACK
6
CONTINUOUS
10
6.15969
20
-3.65652
11
6.15969
21
-3.69592
0
LINE
8
BLACK
6
CONTINUOUS
10
6.19719
20
-3.69592
11
6.1775
21
-3.69592
0
LINE
8
BLACK
6
CONTINUOUS
10
6.1775
20
-3.69592
11
6.1775
21
-3.65652
0
LINE
8
BLACK
6
CONTINUOUS
10
6.1775
20
-3.65652
11
6.19719
21
-3.65652
0
LINE
8
BLACK
6
CONTINUOUS
10
6.19719
20
-3.65652
11
6.19719
21
-3.69592
0
LINE
8
BLACK
6
CONTINUOUS
10
5.9393
20
-3.62221
11
5.94249
21
-3.62434
0
LINE
8
BLACK
6
CONTINUOUS
10
5.94249
20
-3.62434
11
5.94463
21
-3.62754
0
LINE
8
BLACK
6
CONTINUOUS
10
5.94463
20
-3.62754
11
5.94538
21
-3.6313
0
LINE
8
BLACK
6
CONTINUOUS
10
5.94538
20
-3.6313
11
5.94538
21
-3.65099
0
LINE
8
BLACK
6
CONTINUOUS
10
5.94538
20
-3.65099
11
5.94463
21
-3.65475
0
LINE
8
BLACK
6
CONTINUOUS
10
5.94463
20
-3.65475
11
5.94249
21
-3.65795
0
LINE
8
BLACK
6
CONTINUOUS
10
5.94249
20
-3.65795
11
5.9393
21
-3.66008
0
LINE
8
BLACK
6
CONTINUOUS
10
5.9393
20
-3.66008
11
5.93553
21
-3.66083
0
LINE
8
BLACK
6
CONTINUOUS
10
5.93553
20
-3.66083
11
5.89813
21
-3.66083
0
LINE
8
BLACK
6
CONTINUOUS
10
5.89813
20
-3.66083
11
5.89437
21
-3.66008
0
LINE
8
BLACK
6
CONTINUOUS
10
5.89437
20
-3.66008
11
5.89117
21
-3.65795
0
LINE
8
BLACK
6
CONTINUOUS
10
5.89117
20
-3.65795
11
5.88904
21
-3.65475
0
LINE
8
BLACK
6
CONTINUOUS
10
5.88904
20
-3.65475
11
5.88829
21
-3.65099
0
LINE
8
BLACK
6
CONTINUOUS
10
5.88829
20
-3.65099
11
5.88829
21
-3.6313
0
LINE
8
BLACK
6
CONTINUOUS
10
5.88829
20
-3.6313
11
5.88904
21
-3.62754
0
LINE
8
BLACK
6
CONTINUOUS
10
5.88904
20
-3.62754
11
5.89117
21
-3.62434
0
LINE
8
BLACK
6
CONTINUOUS
10
5.89117
20
-3.62434
11
5.89437
21
-3.62221
0
LINE
8
BLACK
6
CONTINUOUS
10
5.89437
20
-3.62221
11
5.89813
21
-3.62146
0
LINE
8
BLACK
6
CONTINUOUS
10
5.89813
20
-3.62146
11
5.93553
21
-3.62146
0
LINE
8
BLACK
6
CONTINUOUS
10
5.93553
20
-3.62146
11
5.9393
21
-3.62221
0
LINE
8
BLACK
6
CONTINUOUS
10
6.02584
20
-3.62103
11
6.02903
21
-3.62316
0
LINE
8
BLACK
6
CONTINUOUS
10
6.02903
20
-3.62316
11
6.03116
21
-3.62635
0
LINE
8
BLACK
6
CONTINUOUS
10
6.03116
20
-3.62635
11
6.03191
21
-3.63012
0
LINE
8
BLACK
6
CONTINUOUS
10
6.03191
20
-3.63012
11
6.03191
21
-3.65079
0
LINE
8
BLACK
6
CONTINUOUS
10
6.03191
20
-3.65079
11
6.03116
21
-3.65456
0
LINE
8
BLACK
6
CONTINUOUS
10
6.03116
20
-3.65456
11
6.02903
21
-3.65775
0
LINE
8
BLACK
6
CONTINUOUS
10
6.02903
20
-3.65775
11
6.02584
21
-3.65988
0
LINE
8
BLACK
6
CONTINUOUS
10
6.02584
20
-3.65988
11
6.02207
21
-3.66063
0
LINE
8
BLACK
6
CONTINUOUS
10
6.02207
20
-3.66063
11
5.98664
21
-3.66063
0
LINE
8
BLACK
6
CONTINUOUS
10
5.98664
20
-3.66063
11
5.98287
21
-3.65988
0
LINE
8
BLACK
6
CONTINUOUS
10
5.98287
20
-3.65988
11
5.97968
21
-3.65775
0
LINE
8
BLACK
6
CONTINUOUS
10
5.97968
20
-3.65775
11
5.97754
21
-3.65456
0
LINE
8
BLACK
6
CONTINUOUS
10
5.97754
20
-3.65456
11
5.97679
21
-3.65079
0
LINE
8
BLACK
6
CONTINUOUS
10
5.97679
20
-3.65079
11
5.97679
21
-3.63012
0
LINE
8
BLACK
6
CONTINUOUS
10
5.97679
20
-3.63012
11
5.97754
21
-3.62635
0
LINE
8
BLACK
6
CONTINUOUS
10
5.97754
20
-3.62635
11
5.97968
21
-3.62316
0
LINE
8
BLACK
6
CONTINUOUS
10
5.97968
20
-3.62316
11
5.98287
21
-3.62103
0
LINE
8
BLACK
6
CONTINUOUS
10
5.98287
20
-3.62103
11
5.98664
21
-3.62028
0
LINE
8
BLACK
6
CONTINUOUS
10
5.98664
20
-3.62028
11
6.02207
21
-3.62028
0
LINE
8
BLACK
6
CONTINUOUS
10
6.02207
20
-3.62028
11
6.02584
21
-3.62103
0
LINE
8
BLACK
6
CONTINUOUS
10
6.47133
20
-3.61587
11
6.47452
21
-3.618
0
LINE
8
BLACK
6
CONTINUOUS
10
6.47452
20
-3.618
11
6.47665
21
-3.62119
0
LINE
8
BLACK
6
CONTINUOUS
10
6.47665
20
-3.62119
11
6.4774
21
-3.62496
0
LINE
8
BLACK
6
CONTINUOUS
10
6.4774
20
-3.62496
11
6.4774
21
-3.64563
0
LINE
8
BLACK
6
CONTINUOUS
10
6.4774
20
-3.64563
11
6.47665
21
-3.6494
0
LINE
8
BLACK
6
CONTINUOUS
10
6.47665
20
-3.6494
11
6.47452
21
-3.65259
0
LINE
8
BLACK
6
CONTINUOUS
10
6.47452
20
-3.65259
11
6.47133
21
-3.65472
0
LINE
8
BLACK
6
CONTINUOUS
10
6.47133
20
-3.65472
11
6.46756
21
-3.65547
0
LINE
8
BLACK
6
CONTINUOUS
10
6.46756
20
-3.65547
11
6.43213
21
-3.65547
0
LINE
8
BLACK
6
CONTINUOUS
10
6.43213
20
-3.65547
11
6.42836
21
-3.65472
0
LINE
8
BLACK
6
CONTINUOUS
10
6.42836
20
-3.65472
11
6.42517
21
-3.65259
0
LINE
8
BLACK
6
CONTINUOUS
10
6.42517
20
-3.65259
11
6.42303
21
-3.6494
0
LINE
8
BLACK
6
CONTINUOUS
10
6.42303
20
-3.6494
11
6.42228
21
-3.64563
0
LINE
8
BLACK
6
CONTINUOUS
10
6.42228
20
-3.64563
11
6.42228
21
-3.62496
0
LINE
8
BLACK
6
CONTINUOUS
10
6.42228
20
-3.62496
11
6.42303
21
-3.62119
0
LINE
8
BLACK
6
CONTINUOUS
10
6.42303
20
-3.62119
11
6.42517
21
-3.618
0
LINE
8
BLACK
6
CONTINUOUS
10
6.42517
20
-3.618
11
6.42836
21
-3.61587
0
LINE
8
BLACK
6
CONTINUOUS
10
6.42836
20
-3.61587
11
6.43213
21
-3.61512
0
LINE
8
BLACK
6
CONTINUOUS
10
6.43213
20
-3.61512
11
6.46756
21
-3.61512
0
LINE
8
BLACK
6
CONTINUOUS
10
6.46756
20
-3.61512
11
6.47133
21
-3.61587
0
LINE
8
BLACK
6
CONTINUOUS
10
6.56633
20
-3.61587
11
6.56952
21
-3.618
0
LINE
8
BLACK
6
CONTINUOUS
10
6.56952
20
-3.618
11
6.57165
21
-3.62119
0
LINE
8
BLACK
6
CONTINUOUS
10
6.57165
20
-3.62119
11
6.5724
21
-3.62496
0
LINE
8
BLACK
6
CONTINUOUS
10
6.5724
20
-3.62496
11
6.5724
21
-3.64563
0
LINE
8
BLACK
6
CONTINUOUS
10
6.5724
20
-3.64563
11
6.57165
21
-3.6494
0
LINE
8
BLACK
6
CONTINUOUS
10
6.57165
20
-3.6494
11
6.56952
21
-3.65259
0
LINE
8
BLACK
6
CONTINUOUS
10
6.56952
20
-3.65259
11
6.56633
21
-3.65472
0
LINE
8
BLACK
6
CONTINUOUS
10
6.56633
20
-3.65472
11
6.56256
21
-3.65547
0
LINE
8
BLACK
6
CONTINUOUS
10
6.56256
20
-3.65547
11
6.52713
21
-3.65547
0
LINE
8
BLACK
6
CONTINUOUS
10
6.52713
20
-3.65547
11
6.52336
21
-3.65472
0
LINE
8
BLACK
6
CONTINUOUS
10
6.52336
20
-3.65472
11
6.52017
21
-3.65259
0
LINE
8
BLACK
6
CONTINUOUS
10
6.52017
20
-3.65259
11
6.51803
21
-3.6494
0
LINE
8
BLACK
6
CONTINUOUS
10
6.51803
20
-3.6494
11
6.51728
21
-3.64563
0
LINE
8
BLACK
6
CONTINUOUS
10
6.51728
20
-3.64563
11
6.51728
21
-3.62496
0
LINE
8
BLACK
6
CONTINUOUS
10
6.51728
20
-3.62496
11
6.51803
21
-3.62119
0
LINE
8
BLACK
6
CONTINUOUS
10
6.51803
20
-3.62119
11
6.52017
21
-3.618
0
LINE
8
BLACK
6
CONTINUOUS
10
6.52017
20
-3.618
11
6.52336
21
-3.61587
0
LINE
8
BLACK
6
CONTINUOUS
10
6.52336
20
-3.61587
11
6.52713
21
-3.61512
0
LINE
8
BLACK
6
CONTINUOUS
10
6.52713
20
-3.61512
11
6.56256
21
-3.61512
0
LINE
8
BLACK
6
CONTINUOUS
10
6.56256
20
-3.61512
11
6.56633
21
-3.61587
0
LINE
8
BLACK
6
CONTINUOUS
10
6.35585
20
-3.59843
11
6.35905
21
-3.60056
0
LINE
8
BLACK
6
CONTINUOUS
10
6.35905
20
-3.60056
11
6.36118
21
-3.60375
0
LINE
8
BLACK
6
CONTINUOUS
10
6.36118
20
-3.60375
11
6.36193
21
-3.60752
0
LINE
8
BLACK
6
CONTINUOUS
10
6.36193
20
-3.60752
11
6.36193
21
-3.64492
0
LINE
8
BLACK
6
CONTINUOUS
10
6.36193
20
-3.64492
11
6.36118
21
-3.64869
0
LINE
8
BLACK
6
CONTINUOUS
10
6.36118
20
-3.64869
11
6.35905
21
-3.65188
0
LINE
8
BLACK
6
CONTINUOUS
10
6.35905
20
-3.65188
11
6.35585
21
-3.65401
0
LINE
8
BLACK
6
CONTINUOUS
10
6.35585
20
-3.65401
11
6.35209
21
-3.65476
0
LINE
8
BLACK
6
CONTINUOUS
10
6.35209
20
-3.65476
11
6.3324
21
-3.65476
0
LINE
8
BLACK
6
CONTINUOUS
10
6.3324
20
-3.65476
11
6.32864
21
-3.65401
0
LINE
8
BLACK
6
CONTINUOUS
10
6.32864
20
-3.65401
11
6.32544
21
-3.65188
0
LINE
8
BLACK
6
CONTINUOUS
10
6.32544
20
-3.65188
11
6.32331
21
-3.64869
0
LINE
8
BLACK
6
CONTINUOUS
10
6.32331
20
-3.64869
11
6.32256
21
-3.64492
0
LINE
8
BLACK
6
CONTINUOUS
10
6.32256
20
-3.64492
11
6.32256
21
-3.60752
0
LINE
8
BLACK
6
CONTINUOUS
10
6.32256
20
-3.60752
11
6.32331
21
-3.60375
0
LINE
8
BLACK
6
CONTINUOUS
10
6.32331
20
-3.60375
11
6.32544
21
-3.60056
0
LINE
8
BLACK
6
CONTINUOUS
10
6.32544
20
-3.60056
11
6.32864
21
-3.59843
0
LINE
8
BLACK
6
CONTINUOUS
10
6.32864
20
-3.59843
11
6.3324
21
-3.59768
0
LINE
8
BLACK
6
CONTINUOUS
10
6.3324
20
-3.59768
11
6.35209
21
-3.59768
0
LINE
8
BLACK
6
CONTINUOUS
10
6.35209
20
-3.59768
11
6.35585
21
-3.59843
0
LINE
8
BLACK
6
CONTINUOUS
10
6.28105
20
-3.59843
11
6.28424
21
-3.60056
0
LINE
8
BLACK
6
CONTINUOUS
10
6.28424
20
-3.60056
11
6.28638
21
-3.60375
0
LINE
8
BLACK
6
CONTINUOUS
10
6.28638
20
-3.60375
11
6.28713
21
-3.60752
0
LINE
8
BLACK
6
CONTINUOUS
10
6.28713
20
-3.60752
11
6.28713
21
-3.64492
0
LINE
8
BLACK
6
CONTINUOUS
10
6.28713
20
-3.64492
11
6.28638
21
-3.64869
0
LINE
8
BLACK
6
CONTINUOUS
10
6.28638
20
-3.64869
11
6.28424
21
-3.65188
0
LINE
8
BLACK
6
CONTINUOUS
10
6.28424
20
-3.65188
11
6.28105
21
-3.65401
0
LINE
8
BLACK
6
CONTINUOUS
10
6.28105
20
-3.65401
11
6.27728
21
-3.65476
0
LINE
8
BLACK
6
CONTINUOUS
10
6.27728
20
-3.65476
11
6.2576
21
-3.65476
0
LINE
8
BLACK
6
CONTINUOUS
10
6.2576
20
-3.65476
11
6.25383
21
-3.65401
0
LINE
8
BLACK
6
CONTINUOUS
10
6.25383
20
-3.65401
11
6.25064
21
-3.65188
0
LINE
8
BLACK
6
CONTINUOUS
10
6.25064
20
-3.65188
11
6.24851
21
-3.64869
0
LINE
8
BLACK
6
CONTINUOUS
10
6.24851
20
-3.64869
11
6.24776
21
-3.64492
0
LINE
8
BLACK
6
CONTINUOUS
10
6.24776
20
-3.64492
11
6.24776
21
-3.60752
0
LINE
8
BLACK
6
CONTINUOUS
10
6.24776
20
-3.60752
11
6.24851
21
-3.60375
0
LINE
8
BLACK
6
CONTINUOUS
10
6.24851
20
-3.60375
11
6.25064
21
-3.60056
0
LINE
8
BLACK
6
CONTINUOUS
10
6.25064
20
-3.60056
11
6.25383
21
-3.59843
0
LINE
8
BLACK
6
CONTINUOUS
10
6.25383
20
-3.59843
11
6.2576
21
-3.59768
0
LINE
8
BLACK
6
CONTINUOUS
10
6.2576
20
-3.59768
11
6.27728
21
-3.59768
0
LINE
8
BLACK
6
CONTINUOUS
10
6.27728
20
-3.59768
11
6.28105
21
-3.59843
0
LINE
8
BLACK
6
CONTINUOUS
10
6.76133
20
-3.61087
11
6.76452
21
-3.613
0
LINE
8
BLACK
6
CONTINUOUS
10
6.76452
20
-3.613
11
6.76665
21
-3.61619
0
LINE
8
BLACK
6
CONTINUOUS
10
6.76665
20
-3.61619
11
6.7674
21
-3.61996
0
LINE
8
BLACK
6
CONTINUOUS
10
6.7674
20
-3.61996
11
6.7674
21
-3.64063
0
LINE
8
BLACK
6
CONTINUOUS
10
6.7674
20
-3.64063
11
6.76665
21
-3.6444
0
LINE
8
BLACK
6
CONTINUOUS
10
6.76665
20
-3.6444
11
6.76452
21
-3.64759
0
LINE
8
BLACK
6
CONTINUOUS
10
6.76452
20
-3.64759
11
6.76133
21
-3.64972
0
LINE
8
BLACK
6
CONTINUOUS
10
6.76133
20
-3.64972
11
6.75756
21
-3.65047
0
LINE
8
BLACK
6
CONTINUOUS
10
6.75756
20
-3.65047
11
6.72213
21
-3.65047
0
LINE
8
BLACK
6
CONTINUOUS
10
6.72213
20
-3.65047
11
6.71836
21
-3.64972
0
LINE
8
BLACK
6
CONTINUOUS
10
6.71836
20
-3.64972
11
6.71517
21
-3.64759
0
LINE
8
BLACK
6
CONTINUOUS
10
6.71517
20
-3.64759
11
6.71303
21
-3.6444
0
LINE
8
BLACK
6
CONTINUOUS
10
6.71303
20
-3.6444
11
6.71228
21
-3.64063
0
LINE
8
BLACK
6
CONTINUOUS
10
6.71228
20
-3.64063
11
6.71228
21
-3.61996
0
LINE
8
BLACK
6
CONTINUOUS
10
6.71228
20
-3.61996
11
6.71303
21
-3.61619
0
LINE
8
BLACK
6
CONTINUOUS
10
6.71303
20
-3.61619
11
6.71517
21
-3.613
0
LINE
8
BLACK
6
CONTINUOUS
10
6.71517
20
-3.613
11
6.71836
21
-3.61087
0
LINE
8
BLACK
6
CONTINUOUS
10
6.71836
20
-3.61087
11
6.72213
21
-3.61012
0
LINE
8
BLACK
6
CONTINUOUS
10
6.72213
20
-3.61012
11
6.75756
21
-3.61012
0
LINE
8
BLACK
6
CONTINUOUS
10
6.75756
20
-3.61012
11
6.76133
21
-3.61087
0
LINE
8
BLACK
6
CONTINUOUS
10
6.66731
20
-3.60988
11
6.6705
21
-3.61202
0
LINE
8
BLACK
6
CONTINUOUS
10
6.6705
20
-3.61202
11
6.67264
21
-3.61521
0
LINE
8
BLACK
6
CONTINUOUS
10
6.67264
20
-3.61521
11
6.67339
21
-3.61898
0
LINE
8
BLACK
6
CONTINUOUS
10
6.67339
20
-3.61898
11
6.67339
21
-3.63866
0
LINE
8
BLACK
6
CONTINUOUS
10
6.67339
20
-3.63866
11
6.67264
21
-3.64243
0
LINE
8
BLACK
6
CONTINUOUS
10
6.67264
20
-3.64243
11
6.6705
21
-3.64562
0
LINE
8
BLACK
6
CONTINUOUS
10
6.6705
20
-3.64562
11
6.66731
21
-3.64775
0
LINE
8
BLACK
6
CONTINUOUS
10
6.66731
20
-3.64775
11
6.66354
21
-3.6485
0
LINE
8
BLACK
6
CONTINUOUS
10
6.66354
20
-3.6485
11
6.62614
21
-3.6485
0
LINE
8
BLACK
6
CONTINUOUS
10
6.62614
20
-3.6485
11
6.62238
21
-3.64775
0
LINE
8
BLACK
6
CONTINUOUS
10
6.62238
20
-3.64775
11
6.61918
21
-3.64562
0
LINE
8
BLACK
6
CONTINUOUS
10
6.61918
20
-3.64562
11
6.61705
21
-3.64243
0
LINE
8
BLACK
6
CONTINUOUS
10
6.61705
20
-3.64243
11
6.6163
21
-3.63866
0
LINE
8
BLACK
6
CONTINUOUS
10
6.6163
20
-3.63866
11
6.6163
21
-3.61898
0
LINE
8
BLACK
6
CONTINUOUS
10
6.6163
20
-3.61898
11
6.61705
21
-3.61521
0
LINE
8
BLACK
6
CONTINUOUS
10
6.61705
20
-3.61521
11
6.61918
21
-3.61202
0
LINE
8
BLACK
6
CONTINUOUS
10
6.61918
20
-3.61202
11
6.62238
21
-3.60988
0
LINE
8
BLACK
6
CONTINUOUS
10
6.62238
20
-3.60988
11
6.62614
21
-3.60913
0
LINE
8
BLACK
6
CONTINUOUS
10
6.62614
20
-3.60913
11
6.66354
21
-3.60913
0
LINE
8
BLACK
6
CONTINUOUS
10
6.66354
20
-3.60913
11
6.66731
21
-3.60988
0
LINE
8
BLACK
6
CONTINUOUS
10
6.93231
20
-3.59969
11
6.9355
21
-3.60182
0
LINE
8
BLACK
6
CONTINUOUS
10
6.9355
20
-3.60182
11
6.93764
21
-3.60501
0
LINE
8
BLACK
6
CONTINUOUS
10
6.93764
20
-3.60501
11
6.93839
21
-3.60878
0
LINE
8
BLACK
6
CONTINUOUS
10
6.93839
20
-3.60878
11
6.93839
21
-3.62846
0
LINE
8
BLACK
6
CONTINUOUS
10
6.93839
20
-3.62846
11
6.93764
21
-3.63223
0
LINE
8
BLACK
6
CONTINUOUS
10
6.93764
20
-3.63223
11
6.9355
21
-3.63542
0
LINE
8
BLACK
6
CONTINUOUS
10
6.9355
20
-3.63542
11
6.93231
21
-3.63756
0
LINE
8
BLACK
6
CONTINUOUS
10
6.93231
20
-3.63756
11
6.92854
21
-3.63831
0
LINE
8
BLACK
6
CONTINUOUS
10
6.92854
20
-3.63831
11
6.89114
21
-3.63831
0
LINE
8
BLACK
6
CONTINUOUS
10
6.89114
20
-3.63831
11
6.88738
21
-3.63756
0
LINE
8
BLACK
6
CONTINUOUS
10
6.88738
20
-3.63756
11
6.88418
21
-3.63542
0
LINE
8
BLACK
6
CONTINUOUS
10
6.88418
20
-3.63542
11
6.88205
21
-3.63223
0
LINE
8
BLACK
6
CONTINUOUS
10
6.88205
20
-3.63223
11
6.8813
21
-3.62846
0
LINE
8
BLACK
6
CONTINUOUS
10
6.8813
20
-3.62846
11
6.8813
21
-3.60878
0
LINE
8
BLACK
6
CONTINUOUS
10
6.8813
20
-3.60878
11
6.88205
21
-3.60501
0
LINE
8
BLACK
6
CONTINUOUS
10
6.88205
20
-3.60501
11
6.88418
21
-3.60182
0
LINE
8
BLACK
6
CONTINUOUS
10
6.88418
20
-3.60182
11
6.88738
21
-3.59969
0
LINE
8
BLACK
6
CONTINUOUS
10
6.88738
20
-3.59969
11
6.89114
21
-3.59894
0
LINE
8
BLACK
6
CONTINUOUS
10
6.89114
20
-3.59894
11
6.92854
21
-3.59894
0
LINE
8
BLACK
6
CONTINUOUS
10
6.92854
20
-3.59894
11
6.93231
21
-3.59969
0
LINE
8
BLACK
6
CONTINUOUS
10
6.84133
20
-3.59772
11
6.84452
21
-3.59985
0
LINE
8
BLACK
6
CONTINUOUS
10
6.84452
20
-3.59985
11
6.84665
21
-3.60304
0
LINE
8
BLACK
6
CONTINUOUS
10
6.84665
20
-3.60304
11
6.8474
21
-3.60681
0
LINE
8
BLACK
6
CONTINUOUS
10
6.8474
20
-3.60681
11
6.8474
21
-3.62748
0
LINE
8
BLACK
6
CONTINUOUS
10
6.8474
20
-3.62748
11
6.84665
21
-3.63125
0
LINE
8
BLACK
6
CONTINUOUS
10
6.84665
20
-3.63125
11
6.84452
21
-3.63444
0
LINE
8
BLACK
6
CONTINUOUS
10
6.84452
20
-3.63444
11
6.84133
21
-3.63657
0
LINE
8
BLACK
6
CONTINUOUS
10
6.84133
20
-3.63657
11
6.83756
21
-3.63732
0
LINE
8
BLACK
6
CONTINUOUS
10
6.83756
20
-3.63732
11
6.80213
21
-3.63732
0
LINE
8
BLACK
6
CONTINUOUS
10
6.80213
20
-3.63732
11
6.79836
21
-3.63657
0
LINE
8
BLACK
6
CONTINUOUS
10
6.79836
20
-3.63657
11
6.79517
21
-3.63444
0
LINE
8
BLACK
6
CONTINUOUS
10
6.79517
20
-3.63444
11
6.79303
21
-3.63125
0
LINE
8
BLACK
6
CONTINUOUS
10
6.79303
20
-3.63125
11
6.79228
21
-3.62748
0
LINE
8
BLACK
6
CONTINUOUS
10
6.79228
20
-3.62748
11
6.79228
21
-3.60681
0
LINE
8
BLACK
6
CONTINUOUS
10
6.79228
20
-3.60681
11
6.79303
21
-3.60304
0
LINE
8
BLACK
6
CONTINUOUS
10
6.79303
20
-3.60304
11
6.79517
21
-3.59985
0
LINE
8
BLACK
6
CONTINUOUS
10
6.79517
20
-3.59985
11
6.79836
21
-3.59772
0
LINE
8
BLACK
6
CONTINUOUS
10
6.79836
20
-3.59772
11
6.80213
21
-3.59697
0
LINE
8
BLACK
6
CONTINUOUS
10
6.80213
20
-3.59697
11
6.83756
21
-3.59697
0
LINE
8
BLACK
6
CONTINUOUS
10
6.83756
20
-3.59697
11
6.84133
21
-3.59772
0
LINE
8
BLACK
6
CONTINUOUS
10
6.15969
20
-3.59592
11
6.14
21
-3.59592
0
LINE
8
BLACK
6
CONTINUOUS
10
6.14
20
-3.59592
11
6.14
21
-3.55652
0
LINE
8
BLACK
6
CONTINUOUS
10
6.14
20
-3.55652
11
6.15969
21
-3.55652
0
LINE
8
BLACK
6
CONTINUOUS
10
6.15969
20
-3.55652
11
6.15969
21
-3.59592
0
LINE
8
BLACK
6
CONTINUOUS
10
6.19719
20
-3.59592
11
6.1775
21
-3.59592
0
LINE
8
BLACK
6
CONTINUOUS
10
6.1775
20
-3.59592
11
6.1775
21
-3.55652
0
LINE
8
BLACK
6
CONTINUOUS
10
6.1775
20
-3.55652
11
6.19719
21
-3.55652
0
LINE
8
BLACK
6
CONTINUOUS
10
6.19719
20
-3.55652
11
6.19719
21
-3.59592
0
LINE
8
BLACK
6
CONTINUOUS
10
6.12221
20
-3.59592
11
6.10248
21
-3.59592
0
LINE
8
BLACK
6
CONTINUOUS
10
6.10248
20
-3.59592
11
6.10248
21
-3.55652
0
LINE
8
BLACK
6
CONTINUOUS
10
6.10248
20
-3.55652
11
6.12221
21
-3.55652
0
LINE
8
BLACK
6
CONTINUOUS
10
6.12221
20
-3.55652
11
6.12221
21
-3.59592
0
LINE
8
BLACK
6
CONTINUOUS
10
5.6405
20
-3.53171
11
5.64369
21
-3.53385
0
LINE
8
BLACK
6
CONTINUOUS
10
5.64369
20
-3.53385
11
5.64583
21
-3.53704
0
LINE
8
BLACK
6
CONTINUOUS
10
5.64583
20
-3.53704
11
5.64657
21
-3.54081
0
LINE
8
BLACK
6
CONTINUOUS
10
5.64657
20
-3.54081
11
5.64657
21
-3.57624
0
LINE
8
BLACK
6
CONTINUOUS
10
5.64657
20
-3.57624
11
5.64583
21
-3.58001
0
LINE
8
BLACK
6
CONTINUOUS
10
5.64583
20
-3.58001
11
5.64369
21
-3.5832
0
LINE
8
BLACK
6
CONTINUOUS
10
5.64369
20
-3.5832
11
5.6405
21
-3.58533
0
LINE
8
BLACK
6
CONTINUOUS
10
5.6405
20
-3.58533
11
5.63673
21
-3.58608
0
LINE
8
BLACK
6
CONTINUOUS
10
5.63673
20
-3.58608
11
5.61606
21
-3.58608
0
LINE
8
BLACK
6
CONTINUOUS
10
5.61606
20
-3.58608
11
5.6123
21
-3.58533
0
LINE
8
BLACK
6
CONTINUOUS
10
5.6123
20
-3.58533
11
5.6091
21
-3.5832
0
LINE
8
BLACK
6
CONTINUOUS
10
5.6091
20
-3.5832
11
5.60697
21
-3.58001
0
LINE
8
BLACK
6
CONTINUOUS
10
5.60697
20
-3.58001
11
5.60622
21
-3.57624
0
LINE
8
BLACK
6
CONTINUOUS
10
5.60622
20
-3.57624
11
5.60622
21
-3.54081
0
LINE
8
BLACK
6
CONTINUOUS
10
5.60622
20
-3.54081
11
5.60697
21
-3.53704
0
LINE
8
BLACK
6
CONTINUOUS
10
5.60697
20
-3.53704
11
5.6091
21
-3.53385
0
LINE
8
BLACK
6
CONTINUOUS
10
5.6091
20
-3.53385
11
5.6123
21
-3.53171
0
LINE
8
BLACK
6
CONTINUOUS
10
5.6123
20
-3.53171
11
5.61606
21
-3.53096
0
LINE
8
BLACK
6
CONTINUOUS
10
5.61606
20
-3.53096
11
5.63673
21
-3.53096
0
LINE
8
BLACK
6
CONTINUOUS
10
5.63673
20
-3.53096
11
5.6405
21
-3.53171
0
LINE
8
BLACK
6
CONTINUOUS
10
5.71235
20
-3.53171
11
5.71554
21
-3.53385
0
LINE
8
BLACK
6
CONTINUOUS
10
5.71554
20
-3.53385
11
5.71768
21
-3.53704
0
LINE
8
BLACK
6
CONTINUOUS
10
5.71768
20
-3.53704
11
5.71843
21
-3.54081
0
LINE
8
BLACK
6
CONTINUOUS
10
5.71843
20
-3.54081
11
5.71843
21
-3.57624
0
LINE
8
BLACK
6
CONTINUOUS
10
5.71843
20
-3.57624
11
5.71768
21
-3.58001
0
LINE
8
BLACK
6
CONTINUOUS
10
5.71768
20
-3.58001
11
5.71554
21
-3.5832
0
LINE
8
BLACK
6
CONTINUOUS
10
5.71554
20
-3.5832
11
5.71235
21
-3.58533
0
LINE
8
BLACK
6
CONTINUOUS
10
5.71235
20
-3.58533
11
5.70858
21
-3.58608
0
LINE
8
BLACK
6
CONTINUOUS
10
5.70858
20
-3.58608
11
5.68791
21
-3.58608
0
LINE
8
BLACK
6
CONTINUOUS
10
5.68791
20
-3.58608
11
5.68415
21
-3.58533
0
LINE
8
BLACK
6
CONTINUOUS
10
5.68415
20
-3.58533
11
5.68095
21
-3.5832
0
LINE
8
BLACK
6
CONTINUOUS
10
5.68095
20
-3.5832
11
5.67882
21
-3.58001
0
LINE
8
BLACK
6
CONTINUOUS
10
5.67882
20
-3.58001
11
5.67807
21
-3.57624
0
LINE
8
BLACK
6
CONTINUOUS
10
5.67807
20
-3.57624
11
5.67807
21
-3.54081
0
LINE
8
BLACK
6
CONTINUOUS
10
5.67807
20
-3.54081
11
5.67882
21
-3.53704
0
LINE
8
BLACK
6
CONTINUOUS
10
5.67882
20
-3.53704
11
5.68095
21
-3.53385
0
LINE
8
BLACK
6
CONTINUOUS
10
5.68095
20
-3.53385
11
5.68415
21
-3.53171
0
LINE
8
BLACK
6
CONTINUOUS
10
5.68415
20
-3.53171
11
5.68791
21
-3.53096
0
LINE
8
BLACK
6
CONTINUOUS
10
5.68791
20
-3.53096
11
5.70858
21
-3.53096
0
LINE
8
BLACK
6
CONTINUOUS
10
5.70858
20
-3.53096
11
5.71235
21
-3.53171
0
LINE
8
BLACK
6
CONTINUOUS
10
6.84133
20
-3.52587
11
6.84452
21
-3.528
0
LINE
8
BLACK
6
CONTINUOUS
10
6.84452
20
-3.528
11
6.84665
21
-3.53119
0
LINE
8
BLACK
6
CONTINUOUS
10
6.84665
20
-3.53119
11
6.8474
21
-3.53496
0
LINE
8
BLACK
6
CONTINUOUS
10
6.8474
20
-3.53496
11
6.8474
21
-3.55563
0
LINE
8
BLACK
6
CONTINUOUS
10
6.8474
20
-3.55563
11
6.84665
21
-3.5594
0
LINE
8
BLACK
6
CONTINUOUS
10
6.84665
20
-3.5594
11
6.84452
21
-3.56259
0
LINE
8
BLACK
6
CONTINUOUS
10
6.84452
20
-3.56259
11
6.84133
21
-3.56472
0
LINE
8
BLACK
6
CONTINUOUS
10
6.84133
20
-3.56472
11
6.83756
21
-3.56547
0
LINE
8
BLACK
6
CONTINUOUS
10
6.83756
20
-3.56547
11
6.80213
21
-3.56547
0
LINE
8
BLACK
6
CONTINUOUS
10
6.80213
20
-3.56547
11
6.79836
21
-3.56472
0
LINE
8
BLACK
6
CONTINUOUS
10
6.79836
20
-3.56472
11
6.79517
21
-3.56259
0
LINE
8
BLACK
6
CONTINUOUS
10
6.79517
20
-3.56259
11
6.79303
21
-3.5594
0
LINE
8
BLACK
6
CONTINUOUS
10
6.79303
20
-3.5594
11
6.79228
21
-3.55563
0
LINE
8
BLACK
6
CONTINUOUS
10
6.79228
20
-3.55563
11
6.79228
21
-3.53496
0
LINE
8
BLACK
6
CONTINUOUS
10
6.79228
20
-3.53496
11
6.79303
21
-3.53119
0
LINE
8
BLACK
6
CONTINUOUS
10
6.79303
20
-3.53119
11
6.79517
21
-3.528
0
LINE
8
BLACK
6
CONTINUOUS
10
6.79517
20
-3.528
11
6.79836
21
-3.52587
0
LINE
8
BLACK
6
CONTINUOUS
10
6.79836
20
-3.52587
11
6.80213
21
-3.52512
0
LINE
8
BLACK
6
CONTINUOUS
10
6.80213
20
-3.52512
11
6.83756
21
-3.52512
0
LINE
8
BLACK
6
CONTINUOUS
10
6.83756
20
-3.52512
11
6.84133
21
-3.52587
0
LINE
8
BLACK
6
CONTINUOUS
10
6.93231
20
-3.52488
11
6.9355
21
-3.52702
0
LINE
8
BLACK
6
CONTINUOUS
10
6.9355
20
-3.52702
11
6.93764
21
-3.53021
0
LINE
8
BLACK
6
CONTINUOUS
10
6.93764
20
-3.53021
11
6.93839
21
-3.53398
0
LINE
8
BLACK
6
CONTINUOUS
10
6.93839
20
-3.53398
11
6.93839
21
-3.55366
0
LINE
8
BLACK
6
CONTINUOUS
10
6.93839
20
-3.55366
11
6.93764
21
-3.55743
0
LINE
8
BLACK
6
CONTINUOUS
10
6.93764
20
-3.55743
11
6.9355
21
-3.56062
0
LINE
8
BLACK
6
CONTINUOUS
10
6.9355
20
-3.56062
11
6.93231
21
-3.56275
0
LINE
8
BLACK
6
CONTINUOUS
10
6.93231
20
-3.56275
11
6.92854
21
-3.5635
0
LINE
8
BLACK
6
CONTINUOUS
10
6.92854
20
-3.5635
11
6.89114
21
-3.5635
0
LINE
8
BLACK
6
CONTINUOUS
10
6.89114
20
-3.5635
11
6.88738
21
-3.56275
0
LINE
8
BLACK
6
CONTINUOUS
10
6.88738
20
-3.56275
11
6.88418
21
-3.56062
0
LINE
8
BLACK
6
CONTINUOUS
10
6.88418
20
-3.56062
11
6.88205
21
-3.55743
0
LINE
8
BLACK
6
CONTINUOUS
10
6.88205
20
-3.55743
11
6.8813
21
-3.55366
0
LINE
8
BLACK
6
CONTINUOUS
10
6.8813
20
-3.55366
11
6.8813
21
-3.53398
0
LINE
8
BLACK
6
CONTINUOUS
10
6.8813
20
-3.53398
11
6.88205
21
-3.53021
0
LINE
8
BLACK
6
CONTINUOUS
10
6.88205
20
-3.53021
11
6.88418
21
-3.52702
0
LINE
8
BLACK
6
CONTINUOUS
10
6.88418
20
-3.52702
11
6.88738
21
-3.52488
0
LINE
8
BLACK
6
CONTINUOUS
10
6.88738
20
-3.52488
11
6.89114
21
-3.52413
0
LINE
8
BLACK
6
CONTINUOUS
10
6.89114
20
-3.52413
11
6.92854
21
-3.52413
0
LINE
8
BLACK
6
CONTINUOUS
10
6.92854
20
-3.52413
11
6.93231
21
-3.52488
0
LINE
8
BLACK
6
CONTINUOUS
10
6.37731
20
-3.51469
11
6.3805
21
-3.51682
0
LINE
8
BLACK
6
CONTINUOUS
10
6.3805
20
-3.51682
11
6.38264
21
-3.52001
0
LINE
8
BLACK
6
CONTINUOUS
10
6.38264
20
-3.52001
11
6.38339
21
-3.52378
0
LINE
8
BLACK
6
CONTINUOUS
10
6.38339
20
-3.52378
11
6.38339
21
-3.54346
0
LINE
8
BLACK
6
CONTINUOUS
10
6.38339
20
-3.54346
11
6.38264
21
-3.54723
0
LINE
8
BLACK
6
CONTINUOUS
10
6.38264
20
-3.54723
11
6.3805
21
-3.55042
0
LINE
8
BLACK
6
CONTINUOUS
10
6.3805
20
-3.55042
11
6.37731
21
-3.55256
0
LINE
8
BLACK
6
CONTINUOUS
10
6.37731
20
-3.55256
11
6.37354
21
-3.55331
0
LINE
8
BLACK
6
CONTINUOUS
10
6.37354
20
-3.55331
11
6.33614
21
-3.55331
0
LINE
8
BLACK
6
CONTINUOUS
10
6.33614
20
-3.55331
11
6.33238
21
-3.55256
0
LINE
8
BLACK
6
CONTINUOUS
10
6.33238
20
-3.55256
11
6.32918
21
-3.55042
0
LINE
8
BLACK
6
CONTINUOUS
10
6.32918
20
-3.55042
11
6.32705
21
-3.54723
0
LINE
8
BLACK
6
CONTINUOUS
10
6.32705
20
-3.54723
11
6.3263
21
-3.54346
0
LINE
8
BLACK
6
CONTINUOUS
10
6.3263
20
-3.54346
11
6.3263
21
-3.52378
0
LINE
8
BLACK
6
CONTINUOUS
10
6.3263
20
-3.52378
11
6.32705
21
-3.52001
0
LINE
8
BLACK
6
CONTINUOUS
10
6.32705
20
-3.52001
11
6.32918
21
-3.51682
0
LINE
8
BLACK
6
CONTINUOUS
10
6.32918
20
-3.51682
11
6.33238
21
-3.51469
0
LINE
8
BLACK
6
CONTINUOUS
10
6.33238
20
-3.51469
11
6.33614
21
-3.51394
0
LINE
8
BLACK
6
CONTINUOUS
10
6.33614
20
-3.51394
11
6.37354
21
-3.51394
0
LINE
8
BLACK
6
CONTINUOUS
10
6.37354
20
-3.51394
11
6.37731
21
-3.51469
0
LINE
8
BLACK
6
CONTINUOUS
10
6.27731
20
-3.51469
11
6.2805
21
-3.51682
0
LINE
8
BLACK
6
CONTINUOUS
10
6.2805
20
-3.51682
11
6.28264
21
-3.52001
0
LINE
8
BLACK
6
CONTINUOUS
10
6.28264
20
-3.52001
11
6.28339
21
-3.52378
0
LINE
8
BLACK
6
CONTINUOUS
10
6.28339
20
-3.52378
11
6.28339
21
-3.54346
0
LINE
8
BLACK
6
CONTINUOUS
10
6.28339
20
-3.54346
11
6.28264
21
-3.54723
0
LINE
8
BLACK
6
CONTINUOUS
10
6.28264
20
-3.54723
11
6.2805
21
-3.55042
0
LINE
8
BLACK
6
CONTINUOUS
10
6.2805
20
-3.55042
11
6.27731
21
-3.55256
0
LINE
8
BLACK
6
CONTINUOUS
10
6.27731
20
-3.55256
11
6.27354
21
-3.55331
0
LINE
8
BLACK
6
CONTINUOUS
10
6.27354
20
-3.55331
11
6.23614
21
-3.55331
0
LINE
8
BLACK
6
CONTINUOUS
10
6.23614
20
-3.55331
11
6.23238
21
-3.55256
0
LINE
8
BLACK
6
CONTINUOUS
10
6.23238
20
-3.55256
11
6.22918
21
-3.55042
0
LINE
8
BLACK
6
CONTINUOUS
10
6.22918
20
-3.55042
11
6.22705
21
-3.54723
0
LINE
8
BLACK
6
CONTINUOUS
10
6.22705
20
-3.54723
11
6.2263
21
-3.54346
0
LINE
8
BLACK
6
CONTINUOUS
10
6.2263
20
-3.54346
11
6.2263
21
-3.52378
0
LINE
8
BLACK
6
CONTINUOUS
10
6.2263
20
-3.52378
11
6.22705
21
-3.52001
0
LINE
8
BLACK
6
CONTINUOUS
10
6.22705
20
-3.52001
11
6.22918
21
-3.51682
0
LINE
8
BLACK
6
CONTINUOUS
10
6.22918
20
-3.51682
11
6.23238
21
-3.51469
0
LINE
8
BLACK
6
CONTINUOUS
10
6.23238
20
-3.51469
11
6.23614
21
-3.51394
0
LINE
8
BLACK
6
CONTINUOUS
10
6.23614
20
-3.51394
11
6.27354
21
-3.51394
0
LINE
8
BLACK
6
CONTINUOUS
10
6.27354
20
-3.51394
11
6.27731
21
-3.51469
0
LINE
8
BLACK
6
CONTINUOUS
10
6.71333
20
-3.50672
11
6.71652
21
-3.50885
0
LINE
8
BLACK
6
CONTINUOUS
10
6.71652
20
-3.50885
11
6.71865
21
-3.51204
0
LINE
8
BLACK
6
CONTINUOUS
10
6.71865
20
-3.51204
11
6.7194
21
-3.51581
0
LINE
8
BLACK
6
CONTINUOUS
10
6.7194
20
-3.51581
11
6.7194
21
-3.53648
0
LINE
8
BLACK
6
CONTINUOUS
10
6.7194
20
-3.53648
11
6.71865
21
-3.54025
0
LINE
8
BLACK
6
CONTINUOUS
10
6.71865
20
-3.54025
11
6.71652
21
-3.54344
0
LINE
8
BLACK
6
CONTINUOUS
10
6.71652
20
-3.54344
11
6.71333
21
-3.54557
0
LINE
8
BLACK
6
CONTINUOUS
10
6.71333
20
-3.54557
11
6.70956
21
-3.54632
0
LINE
8
BLACK
6
CONTINUOUS
10
6.70956
20
-3.54632
11
6.67413
21
-3.54632
0
LINE
8
BLACK
6
CONTINUOUS
10
6.67413
20
-3.54632
11
6.67036
21
-3.54557
0
LINE
8
BLACK
6
CONTINUOUS
10
6.67036
20
-3.54557
11
6.66717
21
-3.54344
0
LINE
8
BLACK
6
CONTINUOUS
10
6.66717
20
-3.54344
11
6.66503
21
-3.54025
0
LINE
8
BLACK
6
CONTINUOUS
10
6.66503
20
-3.54025
11
6.66428
21
-3.53648
0
LINE
8
BLACK
6
CONTINUOUS
10
6.66428
20
-3.53648
11
6.66428
21
-3.51581
0
LINE
8
BLACK
6
CONTINUOUS
10
6.66428
20
-3.51581
11
6.66503
21
-3.51204
0
LINE
8
BLACK
6
CONTINUOUS
10
6.66503
20
-3.51204
11
6.66717
21
-3.50885
0
LINE
8
BLACK
6
CONTINUOUS
10
6.66717
20
-3.50885
11
6.67036
21
-3.50672
0
LINE
8
BLACK
6
CONTINUOUS
10
6.67036
20
-3.50672
11
6.67413
21
-3.50597
0
LINE
8
BLACK
6
CONTINUOUS
10
6.67413
20
-3.50597
11
6.70956
21
-3.50597
0
LINE
8
BLACK
6
CONTINUOUS
10
6.70956
20
-3.50597
11
6.71333
21
-3.50672
0
LINE
8
BLACK
6
CONTINUOUS
10
6.56484
20
-3.54372
11
6.54484
21
-3.54372
0
LINE
8
BLACK
6
CONTINUOUS
10
6.54484
20
-3.54372
11
6.54484
21
-3.49872
0
LINE
8
BLACK
6
CONTINUOUS
10
6.54484
20
-3.49872
11
6.56484
21
-3.49872
0
LINE
8
BLACK
6
CONTINUOUS
10
6.56484
20
-3.49872
11
6.56484
21
-3.54372
0
LINE
8
BLACK
6
CONTINUOUS
10
6.61484
20
-3.54372
11
6.59484
21
-3.54372
0
LINE
8
BLACK
6
CONTINUOUS
10
6.59484
20
-3.54372
11
6.59484
21
-3.49872
0
LINE
8
BLACK
6
CONTINUOUS
10
6.59484
20
-3.49872
11
6.61484
21
-3.49872
0
LINE
8
BLACK
6
CONTINUOUS
10
6.61484
20
-3.49872
11
6.61484
21
-3.54372
0
LINE
8
BLACK
6
CONTINUOUS
10
6.51484
20
-3.54372
11
6.49484
21
-3.54372
0
LINE
8
BLACK
6
CONTINUOUS
10
6.49484
20
-3.54372
11
6.49484
21
-3.49872
0
LINE
8
BLACK
6
CONTINUOUS
10
6.49484
20
-3.49872
11
6.51484
21
-3.49872
0
LINE
8
BLACK
6
CONTINUOUS
10
6.51484
20
-3.49872
11
6.51484
21
-3.54372
0
LINE
8
BLACK
6
CONTINUOUS
10
6.46484
20
-3.54372
11
6.44484
21
-3.54372
0
LINE
8
BLACK
6
CONTINUOUS
10
6.44484
20
-3.54372
11
6.44484
21
-3.49872
0
LINE
8
BLACK
6
CONTINUOUS
10
6.44484
20
-3.49872
11
6.46484
21
-3.49872
0
LINE
8
BLACK
6
CONTINUOUS
10
6.46484
20
-3.49872
11
6.46484
21
-3.54372
0
LINE
8
BLACK
6
CONTINUOUS
10
5.68437
20
-3.44441
11
5.68756
21
-3.44654
0
LINE
8
BLACK
6
CONTINUOUS
10
5.68756
20
-3.44654
11
5.6897
21
-3.44974
0
LINE
8
BLACK
6
CONTINUOUS
10
5.6897
20
-3.44974
11
5.69044
21
-3.4535
0
LINE
8
BLACK
6
CONTINUOUS
10
5.69044
20
-3.4535
11
5.69044
21
-3.48894
0
LINE
8
BLACK
6
CONTINUOUS
10
5.69044
20
-3.48894
11
5.6897
21
-3.4927
0
LINE
8
BLACK
6
CONTINUOUS
10
5.6897
20
-3.4927
11
5.68756
21
-3.4959
0
LINE
8
BLACK
6
CONTINUOUS
10
5.68756
20
-3.4959
11
5.68437
21
-3.49803
0
LINE
8
BLACK
6
CONTINUOUS
10
5.68437
20
-3.49803
11
5.6806
21
-3.49878
0
LINE
8
BLACK
6
CONTINUOUS
10
5.6806
20
-3.49878
11
5.65993
21
-3.49878
0
LINE
8
BLACK
6
CONTINUOUS
10
5.65993
20
-3.49878
11
5.65617
21
-3.49803
0
LINE
8
BLACK
6
CONTINUOUS
10
5.65617
20
-3.49803
11
5.65297
21
-3.4959
0
LINE
8
BLACK
6
CONTINUOUS
10
5.65297
20
-3.4959
11
5.65084
21
-3.4927
0
LINE
8
BLACK
6
CONTINUOUS
10
5.65084
20
-3.4927
11
5.65009
21
-3.48894
0
LINE
8
BLACK
6
CONTINUOUS
10
5.65009
20
-3.48894
11
5.65009
21
-3.4535
0
LINE
8
BLACK
6
CONTINUOUS
10
5.65009
20
-3.4535
11
5.65084
21
-3.44974
0
LINE
8
BLACK
6
CONTINUOUS
10
5.65084
20
-3.44974
11
5.65297
21
-3.44654
0
LINE
8
BLACK
6
CONTINUOUS
10
5.65297
20
-3.44654
11
5.65617
21
-3.44441
0
LINE
8
BLACK
6
CONTINUOUS
10
5.65617
20
-3.44441
11
5.65993
21
-3.44366
0
LINE
8
BLACK
6
CONTINUOUS
10
5.65993
20
-3.44366
11
5.6806
21
-3.44366
0
LINE
8
BLACK
6
CONTINUOUS
10
5.6806
20
-3.44366
11
5.68437
21
-3.44441
0
LINE
8
BLACK
6
CONTINUOUS
10
5.61252
20
-3.44441
11
5.61571
21
-3.44654
0
LINE
8
BLACK
6
CONTINUOUS
10
5.61571
20
-3.44654
11
5.61785
21
-3.44974
0
LINE
8
BLACK
6
CONTINUOUS
10
5.61785
20
-3.44974
11
5.61859
21
-3.4535
0
LINE
8
BLACK
6
CONTINUOUS
10
5.61859
20
-3.4535
11
5.61859
21
-3.48894
0
LINE
8
BLACK
6
CONTINUOUS
10
5.61859
20
-3.48894
11
5.61785
21
-3.4927
0
LINE
8
BLACK
6
CONTINUOUS
10
5.61785
20
-3.4927
11
5.61571
21
-3.4959
0
LINE
8
BLACK
6
CONTINUOUS
10
5.61571
20
-3.4959
11
5.61252
21
-3.49803
0
LINE
8
BLACK
6
CONTINUOUS
10
5.61252
20
-3.49803
11
5.60875
21
-3.49878
0
LINE
8
BLACK
6
CONTINUOUS
10
5.60875
20
-3.49878
11
5.58808
21
-3.49878
0
LINE
8
BLACK
6
CONTINUOUS
10
5.58808
20
-3.49878
11
5.58432
21
-3.49803
0
LINE
8
BLACK
6
CONTINUOUS
10
5.58432
20
-3.49803
11
5.58112
21
-3.4959
0
LINE
8
BLACK
6
CONTINUOUS
10
5.58112
20
-3.4959
11
5.57899
21
-3.4927
0
LINE
8
BLACK
6
CONTINUOUS
10
5.57899
20
-3.4927
11
5.57824
21
-3.48894
0
LINE
8
BLACK
6
CONTINUOUS
10
5.57824
20
-3.48894
11
5.57824
21
-3.4535
0
LINE
8
BLACK
6
CONTINUOUS
10
5.57824
20
-3.4535
11
5.57899
21
-3.44974
0
LINE
8
BLACK
6
CONTINUOUS
10
5.57899
20
-3.44974
11
5.58112
21
-3.44654
0
LINE
8
BLACK
6
CONTINUOUS
10
5.58112
20
-3.44654
11
5.58432
21
-3.44441
0
LINE
8
BLACK
6
CONTINUOUS
10
5.58432
20
-3.44441
11
5.58808
21
-3.44366
0
LINE
8
BLACK
6
CONTINUOUS
10
5.58808
20
-3.44366
11
5.60875
21
-3.44366
0
LINE
8
BLACK
6
CONTINUOUS
10
5.60875
20
-3.44366
11
5.61252
21
-3.44441
0
LINE
8
BLACK
6
CONTINUOUS
10
6.92533
20
-3.44772
11
6.92852
21
-3.44985
0
LINE
8
BLACK
6
CONTINUOUS
10
6.92852
20
-3.44985
11
6.93065
21
-3.45304
0
LINE
8
BLACK
6
CONTINUOUS
10
6.93065
20
-3.45304
11
6.9314
21
-3.45681
0
LINE
8
BLACK
6
CONTINUOUS
10
6.9314
20
-3.45681
11
6.9314
21
-3.47748
0
LINE
8
BLACK
6
CONTINUOUS
10
6.9314
20
-3.47748
11
6.93065
21
-3.48125
0
LINE
8
BLACK
6
CONTINUOUS
10
6.93065
20
-3.48125
11
6.92852
21
-3.48444
0
LINE
8
BLACK
6
CONTINUOUS
10
6.92852
20
-3.48444
11
6.92533
21
-3.48657
0
LINE
8
BLACK
6
CONTINUOUS
10
6.92533
20
-3.48657
11
6.92156
21
-3.48732
0
LINE
8
BLACK
6
CONTINUOUS
10
6.92156
20
-3.48732
11
6.88613
21
-3.48732
0
LINE
8
BLACK
6
CONTINUOUS
10
6.88613
20
-3.48732
11
6.88236
21
-3.48657
0
LINE
8
BLACK
6
CONTINUOUS
10
6.88236
20
-3.48657
11
6.87917
21
-3.48444
0
LINE
8
BLACK
6
CONTINUOUS
10
6.87917
20
-3.48444
11
6.87703
21
-3.48125
0
LINE
8
BLACK
6
CONTINUOUS
10
6.87703
20
-3.48125
11
6.87628
21
-3.47748
0
LINE
8
BLACK
6
CONTINUOUS
10
6.87628
20
-3.47748
11
6.87628
21
-3.45681
0
LINE
8
BLACK
6
CONTINUOUS
10
6.87628
20
-3.45681
11
6.87703
21
-3.45304
0
LINE
8
BLACK
6
CONTINUOUS
10
6.87703
20
-3.45304
11
6.87917
21
-3.44985
0
LINE
8
BLACK
6
CONTINUOUS
10
6.87917
20
-3.44985
11
6.88236
21
-3.44772
0
LINE
8
BLACK
6
CONTINUOUS
10
6.88236
20
-3.44772
11
6.88613
21
-3.44697
0
LINE
8
BLACK
6
CONTINUOUS
10
6.88613
20
-3.44697
11
6.92156
21
-3.44697
0
LINE
8
BLACK
6
CONTINUOUS
10
6.92156
20
-3.44697
11
6.92533
21
-3.44772
0
LINE
8
BLACK
6
CONTINUOUS
10
6.79333
20
-3.44372
11
6.79652
21
-3.44585
0
LINE
8
BLACK
6
CONTINUOUS
10
6.79652
20
-3.44585
11
6.79865
21
-3.44904
0
LINE
8
BLACK
6
CONTINUOUS
10
6.79865
20
-3.44904
11
6.7994
21
-3.45281
0
LINE
8
BLACK
6
CONTINUOUS
10
6.7994
20
-3.45281
11
6.7994
21
-3.47348
0
LINE
8
BLACK
6
CONTINUOUS
10
6.7994
20
-3.47348
11
6.79865
21
-3.47725
0
LINE
8
BLACK
6
CONTINUOUS
10
6.79865
20
-3.47725
11
6.79652
21
-3.48044
0
LINE
8
BLACK
6
CONTINUOUS
10
6.79652
20
-3.48044
11
6.79333
21
-3.48257
0
LINE
8
BLACK
6
CONTINUOUS
10
6.79333
20
-3.48257
11
6.78956
21
-3.48332
0
LINE
8
BLACK
6
CONTINUOUS
10
6.78956
20
-3.48332
11
6.75413
21
-3.48332
0
LINE
8
BLACK
6
CONTINUOUS
10
6.75413
20
-3.48332
11
6.75036
21
-3.48257
0
LINE
8
BLACK
6
CONTINUOUS
10
6.75036
20
-3.48257
11
6.74717
21
-3.48044
0
LINE
8
BLACK
6
CONTINUOUS
10
6.74717
20
-3.48044
11
6.74503
21
-3.47725
0
LINE
8
BLACK
6
CONTINUOUS
10
6.74503
20
-3.47725
11
6.74428
21
-3.47348
0
LINE
8
BLACK
6
CONTINUOUS
10
6.74428
20
-3.47348
11
6.74428
21
-3.45281
0
LINE
8
BLACK
6
CONTINUOUS
10
6.74428
20
-3.45281
11
6.74503
21
-3.44904
0
LINE
8
BLACK
6
CONTINUOUS
10
6.74503
20
-3.44904
11
6.74717
21
-3.44585
0
LINE
8
BLACK
6
CONTINUOUS
10
6.74717
20
-3.44585
11
6.75036
21
-3.44372
0
LINE
8
BLACK
6
CONTINUOUS
10
6.75036
20
-3.44372
11
6.75413
21
-3.44297
0
LINE
8
BLACK
6
CONTINUOUS
10
6.75413
20
-3.44297
11
6.78956
21
-3.44297
0
LINE
8
BLACK
6
CONTINUOUS
10
6.78956
20
-3.44297
11
6.79333
21
-3.44372
0
LINE
8
BLACK
6
CONTINUOUS
10
6.27731
20
-3.43988
11
6.2805
21
-3.44202
0
LINE
8
BLACK
6
CONTINUOUS
10
6.2805
20
-3.44202
11
6.28264
21
-3.44521
0
LINE
8
BLACK
6
CONTINUOUS
10
6.28264
20
-3.44521
11
6.28339
21
-3.44898
0
LINE
8
BLACK
6
CONTINUOUS
10
6.28339
20
-3.44898
11
6.28339
21
-3.46866
0
LINE
8
BLACK
6
CONTINUOUS
10
6.28339
20
-3.46866
11
6.28264
21
-3.47243
0
LINE
8
BLACK
6
CONTINUOUS
10
6.28264
20
-3.47243
11
6.2805
21
-3.47562
0
LINE
8
BLACK
6
CONTINUOUS
10
6.2805
20
-3.47562
11
6.27731
21
-3.47775
0
LINE
8
BLACK
6
CONTINUOUS
10
6.27731
20
-3.47775
11
6.27354
21
-3.4785
0
LINE
8
BLACK
6
CONTINUOUS
10
6.27354
20
-3.4785
11
6.23614
21
-3.4785
0
LINE
8
BLACK
6
CONTINUOUS
10
6.23614
20
-3.4785
11
6.23238
21
-3.47775
0
LINE
8
BLACK
6
CONTINUOUS
10
6.23238
20
-3.47775
11
6.22918
21
-3.47562
0
LINE
8
BLACK
6
CONTINUOUS
10
6.22918
20
-3.47562
11
6.22705
21
-3.47243
0
LINE
8
BLACK
6
CONTINUOUS
10
6.22705
20
-3.47243
11
6.2263
21
-3.46866
0
LINE
8
BLACK
6
CONTINUOUS
10
6.2263
20
-3.46866
11
6.2263
21
-3.44898
0
LINE
8
BLACK
6
CONTINUOUS
10
6.2263
20
-3.44898
11
6.22705
21
-3.44521
0
LINE
8
BLACK
6
CONTINUOUS
10
6.22705
20
-3.44521
11
6.22918
21
-3.44202
0
LINE
8
BLACK
6
CONTINUOUS
10
6.22918
20
-3.44202
11
6.23238
21
-3.43988
0
LINE
8
BLACK
6
CONTINUOUS
10
6.23238
20
-3.43988
11
6.23614
21
-3.43913
0
LINE
8
BLACK
6
CONTINUOUS
10
6.23614
20
-3.43913
11
6.27354
21
-3.43913
0
LINE
8
BLACK
6
CONTINUOUS
10
6.27354
20
-3.43913
11
6.27731
21
-3.43988
0
LINE
8
BLACK
6
CONTINUOUS
10
6.37731
20
-3.43988
11
6.3805
21
-3.44202
0
LINE
8
BLACK
6
CONTINUOUS
10
6.3805
20
-3.44202
11
6.38264
21
-3.44521
0
LINE
8
BLACK
6
CONTINUOUS
10
6.38264
20
-3.44521
11
6.38339
21
-3.44898
0
LINE
8
BLACK
6
CONTINUOUS
10
6.38339
20
-3.44898
11
6.38339
21
-3.46866
0
LINE
8
BLACK
6
CONTINUOUS
10
6.38339
20
-3.46866
11
6.38264
21
-3.47243
0
LINE
8
BLACK
6
CONTINUOUS
10
6.38264
20
-3.47243
11
6.3805
21
-3.47562
0
LINE
8
BLACK
6
CONTINUOUS
10
6.3805
20
-3.47562
11
6.37731
21
-3.47775
0
LINE
8
BLACK
6
CONTINUOUS
10
6.37731
20
-3.47775
11
6.37354
21
-3.4785
0
LINE
8
BLACK
6
CONTINUOUS
10
6.37354
20
-3.4785
11
6.33614
21
-3.4785
0
LINE
8
BLACK
6
CONTINUOUS
10
6.33614
20
-3.4785
11
6.33238
21
-3.47775
0
LINE
8
BLACK
6
CONTINUOUS
10
6.33238
20
-3.47775
11
6.32918
21
-3.47562
0
LINE
8
BLACK
6
CONTINUOUS
10
6.32918
20
-3.47562
11
6.32705
21
-3.47243
0
LINE
8
BLACK
6
CONTINUOUS
10
6.32705
20
-3.47243
11
6.3263
21
-3.46866
0
LINE
8
BLACK
6
CONTINUOUS
10
6.3263
20
-3.46866
11
6.3263
21
-3.44898
0
LINE
8
BLACK
6
CONTINUOUS
10
6.3263
20
-3.44898
11
6.32705
21
-3.44521
0
LINE
8
BLACK
6
CONTINUOUS
10
6.32705
20
-3.44521
11
6.32918
21
-3.44202
0
LINE
8
BLACK
6
CONTINUOUS
10
6.32918
20
-3.44202
11
6.33238
21
-3.43988
0
LINE
8
BLACK
6
CONTINUOUS
10
6.33238
20
-3.43988
11
6.33614
21
-3.43913
0
LINE
8
BLACK
6
CONTINUOUS
10
6.33614
20
-3.43913
11
6.37354
21
-3.43913
0
LINE
8
BLACK
6
CONTINUOUS
10
6.37354
20
-3.43913
11
6.37731
21
-3.43988
0
LINE
8
BLACK
6
CONTINUOUS
10
6.71333
20
-3.43487
11
6.71652
21
-3.437
0
LINE
8
BLACK
6
CONTINUOUS
10
6.71652
20
-3.437
11
6.71865
21
-3.44019
0
LINE
8
BLACK
6
CONTINUOUS
10
6.71865
20
-3.44019
11
6.7194
21
-3.44396
0
LINE
8
BLACK
6
CONTINUOUS
10
6.7194
20
-3.44396
11
6.7194
21
-3.46463
0
LINE
8
BLACK
6
CONTINUOUS
10
6.7194
20
-3.46463
11
6.71865
21
-3.4684
0
LINE
8
BLACK
6
CONTINUOUS
10
6.71865
20
-3.4684
11
6.71652
21
-3.47159
0
LINE
8
BLACK
6
CONTINUOUS
10
6.71652
20
-3.47159
11
6.71333
21
-3.47372
0
LINE
8
BLACK
6
CONTINUOUS
10
6.71333
20
-3.47372
11
6.70956
21
-3.47447
0
LINE
8
BLACK
6
CONTINUOUS
10
6.70956
20
-3.47447
11
6.67413
21
-3.47447
0
LINE
8
BLACK
6
CONTINUOUS
10
6.67413
20
-3.47447
11
6.67036
21
-3.47372
0
LINE
8
BLACK
6
CONTINUOUS
10
6.67036
20
-3.47372
11
6.66717
21
-3.47159
0
LINE
8
BLACK
6
CONTINUOUS
10
6.66717
20
-3.47159
11
6.66503
21
-3.4684
0
LINE
8
BLACK
6
CONTINUOUS
10
6.66503
20
-3.4684
11
6.66428
21
-3.46463
0
LINE
8
BLACK
6
CONTINUOUS
10
6.66428
20
-3.46463
11
6.66428
21
-3.44396
0
LINE
8
BLACK
6
CONTINUOUS
10
6.66428
20
-3.44396
11
6.66503
21
-3.44019
0
LINE
8
BLACK
6
CONTINUOUS
10
6.66503
20
-3.44019
11
6.66717
21
-3.437
0
LINE
8
BLACK
6
CONTINUOUS
10
6.66717
20
-3.437
11
6.67036
21
-3.43487
0
LINE
8
BLACK
6
CONTINUOUS
10
6.67036
20
-3.43487
11
6.67413
21
-3.43412
0
LINE
8
BLACK
6
CONTINUOUS
10
6.67413
20
-3.43412
11
6.70956
21
-3.43412
0
LINE
8
BLACK
6
CONTINUOUS
10
6.70956
20
-3.43412
11
6.71333
21
-3.43487
0
LINE
8
BLACK
6
CONTINUOUS
10
6.08691
20
-3.39415
11
6.08882
21
-3.39543
0
LINE
8
BLACK
6
CONTINUOUS
10
6.08882
20
-3.39543
11
6.0901
21
-3.39735
0
LINE
8
BLACK
6
CONTINUOUS
10
6.0901
20
-3.39735
11
6.09055
21
-3.39961
0
LINE
8
BLACK
6
CONTINUOUS
10
6.09055
20
-3.39961
11
6.09055
21
-3.44587
0
LINE
8
BLACK
6
CONTINUOUS
10
6.09055
20
-3.44587
11
6.0901
21
-3.44813
0
LINE
8
BLACK
6
CONTINUOUS
10
6.0901
20
-3.44813
11
6.08882
21
-3.45004
0
LINE
8
BLACK
6
CONTINUOUS
10
6.08882
20
-3.45004
11
6.08691
21
-3.45132
0
LINE
8
BLACK
6
CONTINUOUS
10
6.08691
20
-3.45132
11
6.08465
21
-3.45177
0
LINE
8
BLACK
6
CONTINUOUS
10
6.08465
20
-3.45177
11
6.07283
21
-3.45177
0
LINE
8
BLACK
6
CONTINUOUS
10
6.07283
20
-3.45177
11
6.07057
21
-3.45132
0
LINE
8
BLACK
6
CONTINUOUS
10
6.07057
20
-3.45132
11
6.06866
21
-3.45004
0
LINE
8
BLACK
6
CONTINUOUS
10
6.06866
20
-3.45004
11
6.06738
21
-3.44813
0
LINE
8
BLACK
6
CONTINUOUS
10
6.06738
20
-3.44813
11
6.06693
21
-3.44587
0
LINE
8
BLACK
6
CONTINUOUS
10
6.06693
20
-3.44587
11
6.06693
21
-3.39961
0
LINE
8
BLACK
6
CONTINUOUS
10
6.06693
20
-3.39961
11
6.06738
21
-3.39735
0
LINE
8
BLACK
6
CONTINUOUS
10
6.06738
20
-3.39735
11
6.06866
21
-3.39543
0
LINE
8
BLACK
6
CONTINUOUS
10
6.06866
20
-3.39543
11
6.07057
21
-3.39415
0
LINE
8
BLACK
6
CONTINUOUS
10
6.07057
20
-3.39415
11
6.07283
21
-3.3937
0
LINE
8
BLACK
6
CONTINUOUS
10
6.07283
20
-3.3937
11
6.08465
21
-3.3937
0
LINE
8
BLACK
6
CONTINUOUS
10
6.08465
20
-3.3937
11
6.08691
21
-3.39415
0
LINE
8
BLACK
6
CONTINUOUS
10
5.83231
20
-3.40969
11
5.8355
21
-3.41182
0
LINE
8
BLACK
6
CONTINUOUS
10
5.8355
20
-3.41182
11
5.83764
21
-3.41501
0
LINE
8
BLACK
6
CONTINUOUS
10
5.83764
20
-3.41501
11
5.83839
21
-3.41878
0
LINE
8
BLACK
6
CONTINUOUS
10
5.83839
20
-3.41878
11
5.83839
21
-3.43846
0
LINE
8
BLACK
6
CONTINUOUS
10
5.83839
20
-3.43846
11
5.83764
21
-3.44223
0
LINE
8
BLACK
6
CONTINUOUS
10
5.83764
20
-3.44223
11
5.8355
21
-3.44542
0
LINE
8
BLACK
6
CONTINUOUS
10
5.8355
20
-3.44542
11
5.83231
21
-3.44756
0
LINE
8
BLACK
6
CONTINUOUS
10
5.83231
20
-3.44756
11
5.82854
21
-3.44831
0
LINE
8
BLACK
6
CONTINUOUS
10
5.82854
20
-3.44831
11
5.79114
21
-3.44831
0
LINE
8
BLACK
6
CONTINUOUS
10
5.79114
20
-3.44831
11
5.78738
21
-3.44756
0
LINE
8
BLACK
6
CONTINUOUS
10
5.78738
20
-3.44756
11
5.78418
21
-3.44542
0
LINE
8
BLACK
6
CONTINUOUS
10
5.78418
20
-3.44542
11
5.78205
21
-3.44223
0
LINE
8
BLACK
6
CONTINUOUS
10
5.78205
20
-3.44223
11
5.7813
21
-3.43846
0
LINE
8
BLACK
6
CONTINUOUS
10
5.7813
20
-3.43846
11
5.7813
21
-3.41878
0
LINE
8
BLACK
6
CONTINUOUS
10
5.7813
20
-3.41878
11
5.78205
21
-3.41501
0
LINE
8
BLACK
6
CONTINUOUS
10
5.78205
20
-3.41501
11
5.78418
21
-3.41182
0
LINE
8
BLACK
6
CONTINUOUS
10
5.78418
20
-3.41182
11
5.78738
21
-3.40969
0
LINE
8
BLACK
6
CONTINUOUS
10
5.78738
20
-3.40969
11
5.79114
21
-3.40894
0
LINE
8
BLACK
6
CONTINUOUS
10
5.79114
20
-3.40894
11
5.82854
21
-3.40894
0
LINE
8
BLACK
6
CONTINUOUS
10
5.82854
20
-3.40894
11
5.83231
21
-3.40969
0
LINE
8
BLACK
6
CONTINUOUS
10
5.69631
20
-3.38319
11
5.6995
21
-3.38532
0
LINE
8
BLACK
6
CONTINUOUS
10
5.6995
20
-3.38532
11
5.70164
21
-3.38851
0
LINE
8
BLACK
6
CONTINUOUS
10
5.70164
20
-3.38851
11
5.70239
21
-3.39228
0
LINE
8
BLACK
6
CONTINUOUS
10
5.70239
20
-3.39228
11
5.70239
21
-3.41196
0
LINE
8
BLACK
6
CONTINUOUS
10
5.70239
20
-3.41196
11
5.70164
21
-3.41573
0
LINE
8
BLACK
6
CONTINUOUS
10
5.70164
20
-3.41573
11
5.6995
21
-3.41892
0
LINE
8
BLACK
6
CONTINUOUS
10
5.6995
20
-3.41892
11
5.69631
21
-3.42106
0
LINE
8
BLACK
6
CONTINUOUS
10
5.69631
20
-3.42106
11
5.69254
21
-3.42181
0
LINE
8
BLACK
6
CONTINUOUS
10
5.69254
20
-3.42181
11
5.65514
21
-3.42181
0
LINE
8
BLACK
6
CONTINUOUS
10
5.65514
20
-3.42181
11
5.65138
21
-3.42106
0
LINE
8
BLACK
6
CONTINUOUS
10
5.65138
20
-3.42106
11
5.64818
21
-3.41892
0
LINE
8
BLACK
6
CONTINUOUS
10
5.64818
20
-3.41892
11
5.64605
21
-3.41573
0
LINE
8
BLACK
6
CONTINUOUS
10
5.64605
20
-3.41573
11
5.6453
21
-3.41196
0
LINE
8
BLACK
6
CONTINUOUS
10
5.6453
20
-3.41196
11
5.6453
21
-3.39228
0
LINE
8
BLACK
6
CONTINUOUS
10
5.6453
20
-3.39228
11
5.64605
21
-3.38851
0
LINE
8
BLACK
6
CONTINUOUS
10
5.64605
20
-3.38851
11
5.64818
21
-3.38532
0
LINE
8
BLACK
6
CONTINUOUS
10
5.64818
20
-3.38532
11
5.65138
21
-3.38319
0
LINE
8
BLACK
6
CONTINUOUS
10
5.65138
20
-3.38319
11
5.65514
21
-3.38244
0
LINE
8
BLACK
6
CONTINUOUS
10
5.65514
20
-3.38244
11
5.69254
21
-3.38244
0
LINE
8
BLACK
6
CONTINUOUS
10
5.69254
20
-3.38244
11
5.69631
21
-3.38319
0
LINE
8
BLACK
6
CONTINUOUS
10
6.92533
20
-3.37587
11
6.92852
21
-3.378
0
LINE
8
BLACK
6
CONTINUOUS
10
6.92852
20
-3.378
11
6.93065
21
-3.38119
0
LINE
8
BLACK
6
CONTINUOUS
10
6.93065
20
-3.38119
11
6.9314
21
-3.38496
0
LINE
8
BLACK
6
CONTINUOUS
10
6.9314
20
-3.38496
11
6.9314
21
-3.40563
0
LINE
8
BLACK
6
CONTINUOUS
10
6.9314
20
-3.40563
11
6.93065
21
-3.4094
0
LINE
8
BLACK
6
CONTINUOUS
10
6.93065
20
-3.4094
11
6.92852
21
-3.41259
0
LINE
8
BLACK
6
CONTINUOUS
10
6.92852
20
-3.41259
11
6.92533
21
-3.41472
0
LINE
8
BLACK
6
CONTINUOUS
10
6.92533
20
-3.41472
11
6.92156
21
-3.41547
0
LINE
8
BLACK
6
CONTINUOUS
10
6.92156
20
-3.41547
11
6.88613
21
-3.41547
0
LINE
8
BLACK
6
CONTINUOUS
10
6.88613
20
-3.41547
11
6.88236
21
-3.41472
0
LINE
8
BLACK
6
CONTINUOUS
10
6.88236
20
-3.41472
11
6.87917
21
-3.41259
0
LINE
8
BLACK
6
CONTINUOUS
10
6.87917
20
-3.41259
11
6.87703
21
-3.4094
0
LINE
8
BLACK
6
CONTINUOUS
10
6.87703
20
-3.4094
11
6.87628
21
-3.40563
0
LINE
8
BLACK
6
CONTINUOUS
10
6.87628
20
-3.40563
11
6.87628
21
-3.38496
0
LINE
8
BLACK
6
CONTINUOUS
10
6.87628
20
-3.38496
11
6.87703
21
-3.38119
0
LINE
8
BLACK
6
CONTINUOUS
10
6.87703
20
-3.38119
11
6.87917
21
-3.378
0
LINE
8
BLACK
6
CONTINUOUS
10
6.87917
20
-3.378
11
6.88236
21
-3.37587
0
LINE
8
BLACK
6
CONTINUOUS
10
6.88236
20
-3.37587
11
6.88613
21
-3.37512
0
LINE
8
BLACK
6
CONTINUOUS
10
6.88613
20
-3.37512
11
6.92156
21
-3.37512
0
LINE
8
BLACK
6
CONTINUOUS
10
6.92156
20
-3.37512
11
6.92533
21
-3.37587
0
LINE
8
BLACK
6
CONTINUOUS
10
6.71431
20
-3.37669
11
6.7175
21
-3.37882
0
LINE
8
BLACK
6
CONTINUOUS
10
6.7175
20
-3.37882
11
6.71964
21
-3.38201
0
LINE
8
BLACK
6
CONTINUOUS
10
6.71964
20
-3.38201
11
6.72039
21
-3.38578
0
LINE
8
BLACK
6
CONTINUOUS
10
6.72039
20
-3.38578
11
6.72039
21
-3.40546
0
LINE
8
BLACK
6
CONTINUOUS
10
6.72039
20
-3.40546
11
6.71964
21
-3.40923
0
LINE
8
BLACK
6
CONTINUOUS
10
6.71964
20
-3.40923
11
6.7175
21
-3.41242
0
LINE
8
BLACK
6
CONTINUOUS
10
6.7175
20
-3.41242
11
6.71431
21
-3.41456
0
LINE
8
BLACK
6
CONTINUOUS
10
6.71431
20
-3.41456
11
6.71054
21
-3.41531
0
LINE
8
BLACK
6
CONTINUOUS
10
6.71054
20
-3.41531
11
6.67314
21
-3.41531
0
LINE
8
BLACK
6
CONTINUOUS
10
6.67314
20
-3.41531
11
6.66938
21
-3.41456
0
LINE
8
BLACK
6
CONTINUOUS
10
6.66938
20
-3.41456
11
6.66618
21
-3.41242
0
LINE
8
BLACK
6
CONTINUOUS
10
6.66618
20
-3.41242
11
6.66405
21
-3.40923
0
LINE
8
BLACK
6
CONTINUOUS
10
6.66405
20
-3.40923
11
6.6633
21
-3.40546
0
LINE
8
BLACK
6
CONTINUOUS
10
6.6633
20
-3.40546
11
6.6633
21
-3.38578
0
LINE
8
BLACK
6
CONTINUOUS
10
6.6633
20
-3.38578
11
6.66405
21
-3.38201
0
LINE
8
BLACK
6
CONTINUOUS
10
6.66405
20
-3.38201
11
6.66618
21
-3.37882
0
LINE
8
BLACK
6
CONTINUOUS
10
6.66618
20
-3.37882
11
6.66938
21
-3.37669
0
LINE
8
BLACK
6
CONTINUOUS
10
6.66938
20
-3.37669
11
6.67314
21
-3.37594
0
LINE
8
BLACK
6
CONTINUOUS
10
6.67314
20
-3.37594
11
6.71054
21
-3.37594
0
LINE
8
BLACK
6
CONTINUOUS
10
6.71054
20
-3.37594
11
6.71431
21
-3.37669
0
LINE
8
BLACK
6
CONTINUOUS
10
6.79333
20
-3.37187
11
6.79652
21
-3.374
0
LINE
8
BLACK
6
CONTINUOUS
10
6.79652
20
-3.374
11
6.79865
21
-3.37719
0
LINE
8
BLACK
6
CONTINUOUS
10
6.79865
20
-3.37719
11
6.7994
21
-3.38096
0
LINE
8
BLACK
6
CONTINUOUS
10
6.7994
20
-3.38096
11
6.7994
21
-3.40163
0
LINE
8
BLACK
6
CONTINUOUS
10
6.7994
20
-3.40163
11
6.79865
21
-3.4054
0
LINE
8
BLACK
6
CONTINUOUS
10
6.79865
20
-3.4054
11
6.79652
21
-3.40859
0
LINE
8
BLACK
6
CONTINUOUS
10
6.79652
20
-3.40859
11
6.79333
21
-3.41072
0
LINE
8
BLACK
6
CONTINUOUS
10
6.79333
20
-3.41072
11
6.78956
21
-3.41147
0
LINE
8
BLACK
6
CONTINUOUS
10
6.78956
20
-3.41147
11
6.75413
21
-3.41147
0
LINE
8
BLACK
6
CONTINUOUS
10
6.75413
20
-3.41147
11
6.75036
21
-3.41072
0
LINE
8
BLACK
6
CONTINUOUS
10
6.75036
20
-3.41072
11
6.74717
21
-3.40859
0
LINE
8
BLACK
6
CONTINUOUS
10
6.74717
20
-3.40859
11
6.74503
21
-3.4054
0
LINE
8
BLACK
6
CONTINUOUS
10
6.74503
20
-3.4054
11
6.74428
21
-3.40163
0
LINE
8
BLACK
6
CONTINUOUS
10
6.74428
20
-3.40163
11
6.74428
21
-3.38096
0
LINE
8
BLACK
6
CONTINUOUS
10
6.74428
20
-3.38096
11
6.74503
21
-3.37719
0
LINE
8
BLACK
6
CONTINUOUS
10
6.74503
20
-3.37719
11
6.74717
21
-3.374
0
LINE
8
BLACK
6
CONTINUOUS
10
6.74717
20
-3.374
11
6.75036
21
-3.37187
0
LINE
8
BLACK
6
CONTINUOUS
10
6.75036
20
-3.37187
11
6.75413
21
-3.37112
0
LINE
8
BLACK
6
CONTINUOUS
10
6.75413
20
-3.37112
11
6.78956
21
-3.37112
0
LINE
8
BLACK
6
CONTINUOUS
10
6.78956
20
-3.37112
11
6.79333
21
-3.37187
0
LINE
8
BLACK
6
CONTINUOUS
10
6.12431
20
-3.32033
11
6.12622
21
-3.32161
0
LINE
8
BLACK
6
CONTINUOUS
10
6.12622
20
-3.32161
11
6.1275
21
-3.32353
0
LINE
8
BLACK
6
CONTINUOUS
10
6.1275
20
-3.32353
11
6.12795
21
-3.32579
0
LINE
8
BLACK
6
CONTINUOUS
10
6.12795
20
-3.32579
11
6.12795
21
-3.37205
0
LINE
8
BLACK
6
CONTINUOUS
10
6.12795
20
-3.37205
11
6.1275
21
-3.37431
0
LINE
8
BLACK
6
CONTINUOUS
10
6.1275
20
-3.37431
11
6.12622
21
-3.37622
0
LINE
8
BLACK
6
CONTINUOUS
10
6.12622
20
-3.37622
11
6.12431
21
-3.3775
0
LINE
8
BLACK
6
CONTINUOUS
10
6.12431
20
-3.3775
11
6.12205
21
-3.37795
0
LINE
8
BLACK
6
CONTINUOUS
10
6.12205
20
-3.37795
11
6.11024
21
-3.37795
0
LINE
8
BLACK
6
CONTINUOUS
10
6.11024
20
-3.37795
11
6.10798
21
-3.3775
0
LINE
8
BLACK
6
CONTINUOUS
10
6.10798
20
-3.3775
11
6.10606
21
-3.37622
0
LINE
8
BLACK
6
CONTINUOUS
10
6.10606
20
-3.37622
11
6.10478
21
-3.37431
0
LINE
8
BLACK
6
CONTINUOUS
10
6.10478
20
-3.37431
11
6.10433
21
-3.37205
0
LINE
8
BLACK
6
CONTINUOUS
10
6.10433
20
-3.37205
11
6.10433
21
-3.32579
0
LINE
8
BLACK
6
CONTINUOUS
10
6.10433
20
-3.32579
11
6.10478
21
-3.32353
0
LINE
8
BLACK
6
CONTINUOUS
10
6.10478
20
-3.32353
11
6.10606
21
-3.32161
0
LINE
8
BLACK
6
CONTINUOUS
10
6.10606
20
-3.32161
11
6.10798
21
-3.32033
0
LINE
8
BLACK
6
CONTINUOUS
10
6.10798
20
-3.32033
11
6.11024
21
-3.31988
0
LINE
8
BLACK
6
CONTINUOUS
10
6.11024
20
-3.31988
11
6.12205
21
-3.31988
0
LINE
8
BLACK
6
CONTINUOUS
10
6.12205
20
-3.31988
11
6.12431
21
-3.32033
0
LINE
8
BLACK
6
CONTINUOUS
10
6.0495
20
-3.32033
11
6.05142
21
-3.32161
0
LINE
8
BLACK
6
CONTINUOUS
10
6.05142
20
-3.32161
11
6.0527
21
-3.32353
0
LINE
8
BLACK
6
CONTINUOUS
10
6.0527
20
-3.32353
11
6.05315
21
-3.32579
0
LINE
8
BLACK
6
CONTINUOUS
10
6.05315
20
-3.32579
11
6.05315
21
-3.37205
0
LINE
8
BLACK
6
CONTINUOUS
10
6.05315
20
-3.37205
11
6.0527
21
-3.37431
0
LINE
8
BLACK
6
CONTINUOUS
10
6.0527
20
-3.37431
11
6.05142
21
-3.37622
0
LINE
8
BLACK
6
CONTINUOUS
10
6.05142
20
-3.37622
11
6.0495
21
-3.3775
0
LINE
8
BLACK
6
CONTINUOUS
10
6.0495
20
-3.3775
11
6.04724
21
-3.37795
0
LINE
8
BLACK
6
CONTINUOUS
10
6.04724
20
-3.37795
11
6.03543
21
-3.37795
0
LINE
8
BLACK
6
CONTINUOUS
10
6.03543
20
-3.37795
11
6.03317
21
-3.3775
0
LINE
8
BLACK
6
CONTINUOUS
10
6.03317
20
-3.3775
11
6.03126
21
-3.37622
0
LINE
8
BLACK
6
CONTINUOUS
10
6.03126
20
-3.37622
11
6.02998
21
-3.37431
0
LINE
8
BLACK
6
CONTINUOUS
10
6.02998
20
-3.37431
11
6.02953
21
-3.37205
0
LINE
8
BLACK
6
CONTINUOUS
10
6.02953
20
-3.37205
11
6.02953
21
-3.32579
0
LINE
8
BLACK
6
CONTINUOUS
10
6.02953
20
-3.32579
11
6.02998
21
-3.32353
0
LINE
8
BLACK
6
CONTINUOUS
10
6.02998
20
-3.32353
11
6.03126
21
-3.32161
0
LINE
8
BLACK
6
CONTINUOUS
10
6.03126
20
-3.32161
11
6.03317
21
-3.32033
0
LINE
8
BLACK
6
CONTINUOUS
10
6.03317
20
-3.32033
11
6.03543
21
-3.31988
0
LINE
8
BLACK
6
CONTINUOUS
10
6.03543
20
-3.31988
11
6.04724
21
-3.31988
0
LINE
8
BLACK
6
CONTINUOUS
10
6.04724
20
-3.31988
11
6.0495
21
-3.32033
0
LINE
8
BLACK
6
CONTINUOUS
10
5.83231
20
-3.33488
11
5.8355
21
-3.33702
0
LINE
8
BLACK
6
CONTINUOUS
10
5.8355
20
-3.33702
11
5.83764
21
-3.34021
0
LINE
8
BLACK
6
CONTINUOUS
10
5.83764
20
-3.34021
11
5.83839
21
-3.34398
0
LINE
8
BLACK
6
CONTINUOUS
10
5.83839
20
-3.34398
11
5.83839
21
-3.36366
0
LINE
8
BLACK
6
CONTINUOUS
10
5.83839
20
-3.36366
11
5.83764
21
-3.36743
0
LINE
8
BLACK
6
CONTINUOUS
10
5.83764
20
-3.36743
11
5.8355
21
-3.37062
0
LINE
8
BLACK
6
CONTINUOUS
10
5.8355
20
-3.37062
11
5.83231
21
-3.37275
0
LINE
8
BLACK
6
CONTINUOUS
10
5.83231
20
-3.37275
11
5.82854
21
-3.3735
0
LINE
8
BLACK
6
CONTINUOUS
10
5.82854
20
-3.3735
11
5.79114
21
-3.3735
0
LINE
8
BLACK
6
CONTINUOUS
10
5.79114
20
-3.3735
11
5.78738
21
-3.37275
0
LINE
8
BLACK
6
CONTINUOUS
10
5.78738
20
-3.37275
11
5.78418
21
-3.37062
0
LINE
8
BLACK
6
CONTINUOUS
10
5.78418
20
-3.37062
11
5.78205
21
-3.36743
0
LINE
8
BLACK
6
CONTINUOUS
10
5.78205
20
-3.36743
11
5.7813
21
-3.36366
0
LINE
8
BLACK
6
CONTINUOUS
10
5.7813
20
-3.36366
11
5.7813
21
-3.34398
0
LINE
8
BLACK
6
CONTINUOUS
10
5.7813
20
-3.34398
11
5.78205
21
-3.34021
0
LINE
8
BLACK
6
CONTINUOUS
10
5.78205
20
-3.34021
11
5.78418
21
-3.33702
0
LINE
8
BLACK
6
CONTINUOUS
10
5.78418
20
-3.33702
11
5.78738
21
-3.33488
0
LINE
8
BLACK
6
CONTINUOUS
10
5.78738
20
-3.33488
11
5.79114
21
-3.33413
0
LINE
8
BLACK
6
CONTINUOUS
10
5.79114
20
-3.33413
11
5.82854
21
-3.33413
0
LINE
8
BLACK
6
CONTINUOUS
10
5.82854
20
-3.33413
11
5.83231
21
-3.33488
0
LINE
8
BLACK
6
CONTINUOUS
10
6.77605
20
-3.29143
11
6.77924
21
-3.29356
0
LINE
8
BLACK
6
CONTINUOUS
10
6.77924
20
-3.29356
11
6.78138
21
-3.29675
0
LINE
8
BLACK
6
CONTINUOUS
10
6.78138
20
-3.29675
11
6.78213
21
-3.30052
0
LINE
8
BLACK
6
CONTINUOUS
10
6.78213
20
-3.30052
11
6.78213
21
-3.33792
0
LINE
8
BLACK
6
CONTINUOUS
10
6.78213
20
-3.33792
11
6.78138
21
-3.34169
0
LINE
8
BLACK
6
CONTINUOUS
10
6.78138
20
-3.34169
11
6.77924
21
-3.34488
0
LINE
8
BLACK
6
CONTINUOUS
10
6.77924
20
-3.34488
11
6.77605
21
-3.34701
0
LINE
8
BLACK
6
CONTINUOUS
10
6.77605
20
-3.34701
11
6.77228
21
-3.34776
0
LINE
8
BLACK
6
CONTINUOUS
10
6.77228
20
-3.34776
11
6.7526
21
-3.34776
0
LINE
8
BLACK
6
CONTINUOUS
10
6.7526
20
-3.34776
11
6.74883
21
-3.34701
0
LINE
8
BLACK
6
CONTINUOUS
10
6.74883
20
-3.34701
11
6.74564
21
-3.34488
0
LINE
8
BLACK
6
CONTINUOUS
10
6.74564
20
-3.34488
11
6.74351
21
-3.34169
0
LINE
8
BLACK
6
CONTINUOUS
10
6.74351
20
-3.34169
11
6.74276
21
-3.33792
0
LINE
8
BLACK
6
CONTINUOUS
10
6.74276
20
-3.33792
11
6.74276
21
-3.30052
0
LINE
8
BLACK
6
CONTINUOUS
10
6.74276
20
-3.30052
11
6.74351
21
-3.29675
0
LINE
8
BLACK
6
CONTINUOUS
10
6.74351
20
-3.29675
11
6.74564
21
-3.29356
0
LINE
8
BLACK
6
CONTINUOUS
10
6.74564
20
-3.29356
11
6.74883
21
-3.29143
0
LINE
8
BLACK
6
CONTINUOUS
10
6.74883
20
-3.29143
11
6.7526
21
-3.29068
0
LINE
8
BLACK
6
CONTINUOUS
10
6.7526
20
-3.29068
11
6.77228
21
-3.29068
0
LINE
8
BLACK
6
CONTINUOUS
10
6.77228
20
-3.29068
11
6.77605
21
-3.29143
0
LINE
8
BLACK
6
CONTINUOUS
10
6.85085
20
-3.29143
11
6.85405
21
-3.29356
0
LINE
8
BLACK
6
CONTINUOUS
10
6.85405
20
-3.29356
11
6.85618
21
-3.29675
0
LINE
8
BLACK
6
CONTINUOUS
10
6.85618
20
-3.29675
11
6.85693
21
-3.30052
0
LINE
8
BLACK
6
CONTINUOUS
10
6.85693
20
-3.30052
11
6.85693
21
-3.33792
0
LINE
8
BLACK
6
CONTINUOUS
10
6.85693
20
-3.33792
11
6.85618
21
-3.34169
0
LINE
8
BLACK
6
CONTINUOUS
10
6.85618
20
-3.34169
11
6.85405
21
-3.34488
0
LINE
8
BLACK
6
CONTINUOUS
10
6.85405
20
-3.34488
11
6.85085
21
-3.34701
0
LINE
8
BLACK
6
CONTINUOUS
10
6.85085
20
-3.34701
11
6.84709
21
-3.34776
0
LINE
8
BLACK
6
CONTINUOUS
10
6.84709
20
-3.34776
11
6.8274
21
-3.34776
0
LINE
8
BLACK
6
CONTINUOUS
10
6.8274
20
-3.34776
11
6.82363
21
-3.34701
0
LINE
8
BLACK
6
CONTINUOUS
10
6.82363
20
-3.34701
11
6.82044
21
-3.34488
0
LINE
8
BLACK
6
CONTINUOUS
10
6.82044
20
-3.34488
11
6.81831
21
-3.34169
0
LINE
8
BLACK
6
CONTINUOUS
10
6.81831
20
-3.34169
11
6.81756
21
-3.33792
0
LINE
8
BLACK
6
CONTINUOUS
10
6.81756
20
-3.33792
11
6.81756
21
-3.30052
0
LINE
8
BLACK
6
CONTINUOUS
10
6.81756
20
-3.30052
11
6.81831
21
-3.29675
0
LINE
8
BLACK
6
CONTINUOUS
10
6.81831
20
-3.29675
11
6.82044
21
-3.29356
0
LINE
8
BLACK
6
CONTINUOUS
10
6.82044
20
-3.29356
11
6.82363
21
-3.29143
0
LINE
8
BLACK
6
CONTINUOUS
10
6.82363
20
-3.29143
11
6.8274
21
-3.29068
0
LINE
8
BLACK
6
CONTINUOUS
10
6.8274
20
-3.29068
11
6.84709
21
-3.29068
0
LINE
8
BLACK
6
CONTINUOUS
10
6.84709
20
-3.29068
11
6.85085
21
-3.29143
0
LINE
8
BLACK
6
CONTINUOUS
10
5.69631
20
-3.30838
11
5.6995
21
-3.31052
0
LINE
8
BLACK
6
CONTINUOUS
10
5.6995
20
-3.31052
11
5.70164
21
-3.31371
0
LINE
8
BLACK
6
CONTINUOUS
10
5.70164
20
-3.31371
11
5.70239
21
-3.31748
0
LINE
8
BLACK
6
CONTINUOUS
10
5.70239
20
-3.31748
11
5.70239
21
-3.33716
0
LINE
8
BLACK
6
CONTINUOUS
10
5.70239
20
-3.33716
11
5.70164
21
-3.34093
0
LINE
8
BLACK
6
CONTINUOUS
10
5.70164
20
-3.34093
11
5.6995
21
-3.34412
0
LINE
8
BLACK
6
CONTINUOUS
10
5.6995
20
-3.34412
11
5.69631
21
-3.34625
0
LINE
8
BLACK
6
CONTINUOUS
10
5.69631
20
-3.34625
11
5.69254
21
-3.347
0
LINE
8
BLACK
6
CONTINUOUS
10
5.69254
20
-3.347
11
5.65514
21
-3.347
0
LINE
8
BLACK
6
CONTINUOUS
10
5.65514
20
-3.347
11
5.65138
21
-3.34625
0
LINE
8
BLACK
6
CONTINUOUS
10
5.65138
20
-3.34625
11
5.64818
21
-3.34412
0
LINE
8
BLACK
6
CONTINUOUS
10
5.64818
20
-3.34412
11
5.64605
21
-3.34093
0
LINE
8
BLACK
6
CONTINUOUS
10
5.64605
20
-3.34093
11
5.6453
21
-3.33716
0
LINE
8
BLACK
6
CONTINUOUS
10
5.6453
20
-3.33716
11
5.6453
21
-3.31748
0
LINE
8
BLACK
6
CONTINUOUS
10
5.6453
20
-3.31748
11
5.64605
21
-3.31371
0
LINE
8
BLACK
6
CONTINUOUS
10
5.64605
20
-3.31371
11
5.64818
21
-3.31052
0
LINE
8
BLACK
6
CONTINUOUS
10
5.64818
20
-3.31052
11
5.65138
21
-3.30838
0
LINE
8
BLACK
6
CONTINUOUS
10
5.65138
20
-3.30838
11
5.65514
21
-3.30763
0
LINE
8
BLACK
6
CONTINUOUS
10
5.65514
20
-3.30763
11
5.69254
21
-3.30763
0
LINE
8
BLACK
6
CONTINUOUS
10
5.69254
20
-3.30763
11
5.69631
21
-3.30838
0
LINE
8
BLACK
6
CONTINUOUS
10
6.71431
20
-3.30188
11
6.7175
21
-3.30402
0
LINE
8
BLACK
6
CONTINUOUS
10
6.7175
20
-3.30402
11
6.71964
21
-3.30721
0
LINE
8
BLACK
6
CONTINUOUS
10
6.71964
20
-3.30721
11
6.72039
21
-3.31098
0
LINE
8
BLACK
6
CONTINUOUS
10
6.72039
20
-3.31098
11
6.72039
21
-3.33066
0
LINE
8
BLACK
6
CONTINUOUS
10
6.72039
20
-3.33066
11
6.71964
21
-3.33443
0
LINE
8
BLACK
6
CONTINUOUS
10
6.71964
20
-3.33443
11
6.7175
21
-3.33762
0
LINE
8
BLACK
6
CONTINUOUS
10
6.7175
20
-3.33762
11
6.71431
21
-3.33975
0
LINE
8
BLACK
6
CONTINUOUS
10
6.71431
20
-3.33975
11
6.71054
21
-3.3405
0
LINE
8
BLACK
6
CONTINUOUS
10
6.71054
20
-3.3405
11
6.67314
21
-3.3405
0
LINE
8
BLACK
6
CONTINUOUS
10
6.67314
20
-3.3405
11
6.66938
21
-3.33975
0
LINE
8
BLACK
6
CONTINUOUS
10
6.66938
20
-3.33975
11
6.66618
21
-3.33762
0
LINE
8
BLACK
6
CONTINUOUS
10
6.66618
20
-3.33762
11
6.66405
21
-3.33443
0
LINE
8
BLACK
6
CONTINUOUS
10
6.66405
20
-3.33443
11
6.6633
21
-3.33066
0
LINE
8
BLACK
6
CONTINUOUS
10
6.6633
20
-3.33066
11
6.6633
21
-3.31098
0
LINE
8
BLACK
6
CONTINUOUS
10
6.6633
20
-3.31098
11
6.66405
21
-3.30721
0
LINE
8
BLACK
6
CONTINUOUS
10
6.66405
20
-3.30721
11
6.66618
21
-3.30402
0
LINE
8
BLACK
6
CONTINUOUS
10
6.66618
20
-3.30402
11
6.66938
21
-3.30188
0
LINE
8
BLACK
6
CONTINUOUS
10
6.66938
20
-3.30188
11
6.67314
21
-3.30113
0
LINE
8
BLACK
6
CONTINUOUS
10
6.67314
20
-3.30113
11
6.71054
21
-3.30113
0
LINE
8
BLACK
6
CONTINUOUS
10
6.71054
20
-3.30113
11
6.71431
21
-3.30188
0
LINE
8
BLACK
6
CONTINUOUS
10
5.83133
20
-3.26272
11
5.83452
21
-3.26485
0
LINE
8
BLACK
6
CONTINUOUS
10
5.83452
20
-3.26485
11
5.83665
21
-3.26804
0
LINE
8
BLACK
6
CONTINUOUS
10
5.83665
20
-3.26804
11
5.8374
21
-3.27181
0
LINE
8
BLACK
6
CONTINUOUS
10
5.8374
20
-3.27181
11
5.8374
21
-3.29248
0
LINE
8
BLACK
6
CONTINUOUS
10
5.8374
20
-3.29248
11
5.83665
21
-3.29625
0
LINE
8
BLACK
6
CONTINUOUS
10
5.83665
20
-3.29625
11
5.83452
21
-3.29944
0
LINE
8
BLACK
6
CONTINUOUS
10
5.83452
20
-3.29944
11
5.83133
21
-3.30157
0
LINE
8
BLACK
6
CONTINUOUS
10
5.83133
20
-3.30157
11
5.82756
21
-3.30232
0
LINE
8
BLACK
6
CONTINUOUS
10
5.82756
20
-3.30232
11
5.79213
21
-3.30232
0
LINE
8
BLACK
6
CONTINUOUS
10
5.79213
20
-3.30232
11
5.78836
21
-3.30157
0
LINE
8
BLACK
6
CONTINUOUS
10
5.78836
20
-3.30157
11
5.78517
21
-3.29944
0
LINE
8
BLACK
6
CONTINUOUS
10
5.78517
20
-3.29944
11
5.78303
21
-3.29625
0
LINE
8
BLACK
6
CONTINUOUS
10
5.78303
20
-3.29625
11
5.78228
21
-3.29248
0
LINE
8
BLACK
6
CONTINUOUS
10
5.78228
20
-3.29248
11
5.78228
21
-3.27181
0
LINE
8
BLACK
6
CONTINUOUS
10
5.78228
20
-3.27181
11
5.78303
21
-3.26804
0
LINE
8
BLACK
6
CONTINUOUS
10
5.78303
20
-3.26804
11
5.78517
21
-3.26485
0
LINE
8
BLACK
6
CONTINUOUS
10
5.78517
20
-3.26485
11
5.78836
21
-3.26272
0
LINE
8
BLACK
6
CONTINUOUS
10
5.78836
20
-3.26272
11
5.79213
21
-3.26197
0
LINE
8
BLACK
6
CONTINUOUS
10
5.79213
20
-3.26197
11
5.82756
21
-3.26197
0
LINE
8
BLACK
6
CONTINUOUS
10
5.82756
20
-3.26197
11
5.83133
21
-3.26272
0
LINE
8
BLACK
6
CONTINUOUS
10
6.61484
20
-3.29372
11
6.59484
21
-3.29372
0
LINE
8
BLACK
6
CONTINUOUS
10
6.59484
20
-3.29372
11
6.59484
21
-3.24872
0
LINE
8
BLACK
6
CONTINUOUS
10
6.59484
20
-3.24872
11
6.61484
21
-3.24872
0
LINE
8
BLACK
6
CONTINUOUS
10
6.61484
20
-3.24872
11
6.61484
21
-3.29372
0
LINE
8
BLACK
6
CONTINUOUS
10
6.56484
20
-3.29372
11
6.54484
21
-3.29372
0
LINE
8
BLACK
6
CONTINUOUS
10
6.54484
20
-3.29372
11
6.54484
21
-3.24872
0
LINE
8
BLACK
6
CONTINUOUS
10
6.54484
20
-3.24872
11
6.56484
21
-3.24872
0
LINE
8
BLACK
6
CONTINUOUS
10
6.56484
20
-3.24872
11
6.56484
21
-3.29372
0
LINE
8
BLACK
6
CONTINUOUS
10
6.51484
20
-3.29372
11
6.49484
21
-3.29372
0
LINE
8
BLACK
6
CONTINUOUS
10
6.49484
20
-3.29372
11
6.49484
21
-3.24872
0
LINE
8
BLACK
6
CONTINUOUS
10
6.49484
20
-3.24872
11
6.51484
21
-3.24872
0
LINE
8
BLACK
6
CONTINUOUS
10
6.51484
20
-3.24872
11
6.51484
21
-3.29372
0
LINE
8
BLACK
6
CONTINUOUS
10
6.46484
20
-3.29372
11
6.44484
21
-3.29372
0
LINE
8
BLACK
6
CONTINUOUS
10
6.44484
20
-3.29372
11
6.44484
21
-3.24872
0
LINE
8
BLACK
6
CONTINUOUS
10
6.44484
20
-3.24872
11
6.46484
21
-3.24872
0
LINE
8
BLACK
6
CONTINUOUS
10
6.46484
20
-3.24872
11
6.46484
21
-3.29372
0
LINE
8
BLACK
6
CONTINUOUS
10
6.72731
20
-3.21469
11
6.7305
21
-3.21682
0
LINE
8
BLACK
6
CONTINUOUS
10
6.7305
20
-3.21682
11
6.73264
21
-3.22001
0
LINE
8
BLACK
6
CONTINUOUS
10
6.73264
20
-3.22001
11
6.73339
21
-3.22378
0
LINE
8
BLACK
6
CONTINUOUS
10
6.73339
20
-3.22378
11
6.73339
21
-3.24346
0
LINE
8
BLACK
6
CONTINUOUS
10
6.73339
20
-3.24346
11
6.73264
21
-3.24723
0
LINE
8
BLACK
6
CONTINUOUS
10
6.73264
20
-3.24723
11
6.7305
21
-3.25042
0
LINE
8
BLACK
6
CONTINUOUS
10
6.7305
20
-3.25042
11
6.72731
21
-3.25256
0
LINE
8
BLACK
6
CONTINUOUS
10
6.72731
20
-3.25256
11
6.72354
21
-3.25331
0
LINE
8
BLACK
6
CONTINUOUS
10
6.72354
20
-3.25331
11
6.68614
21
-3.25331
0
LINE
8
BLACK
6
CONTINUOUS
10
6.68614
20
-3.25331
11
6.68238
21
-3.25256
0
LINE
8
BLACK
6
CONTINUOUS
10
6.68238
20
-3.25256
11
6.67918
21
-3.25042
0
LINE
8
BLACK
6
CONTINUOUS
10
6.67918
20
-3.25042
11
6.67705
21
-3.24723
0
LINE
8
BLACK
6
CONTINUOUS
10
6.67705
20
-3.24723
11
6.6763
21
-3.24346
0
LINE
8
BLACK
6
CONTINUOUS
10
6.6763
20
-3.24346
11
6.6763
21
-3.22378
0
LINE
8
BLACK
6
CONTINUOUS
10
6.6763
20
-3.22378
11
6.67705
21
-3.22001
0
LINE
8
BLACK
6
CONTINUOUS
10
6.67705
20
-3.22001
11
6.67918
21
-3.21682
0
LINE
8
BLACK
6
CONTINUOUS
10
6.67918
20
-3.21682
11
6.68238
21
-3.21469
0
LINE
8
BLACK
6
CONTINUOUS
10
6.68238
20
-3.21469
11
6.68614
21
-3.21394
0
LINE
8
BLACK
6
CONTINUOUS
10
6.68614
20
-3.21394
11
6.72354
21
-3.21394
0
LINE
8
BLACK
6
CONTINUOUS
10
6.72354
20
-3.21394
11
6.72731
21
-3.21469
0
LINE
8
BLACK
6
CONTINUOUS
10
6.82731
20
-3.21469
11
6.8305
21
-3.21682
0
LINE
8
BLACK
6
CONTINUOUS
10
6.8305
20
-3.21682
11
6.83264
21
-3.22001
0
LINE
8
BLACK
6
CONTINUOUS
10
6.83264
20
-3.22001
11
6.83339
21
-3.22378
0
LINE
8
BLACK
6
CONTINUOUS
10
6.83339
20
-3.22378
11
6.83339
21
-3.24346
0
LINE
8
BLACK
6
CONTINUOUS
10
6.83339
20
-3.24346
11
6.83264
21
-3.24723
0
LINE
8
BLACK
6
CONTINUOUS
10
6.83264
20
-3.24723
11
6.8305
21
-3.25042
0
LINE
8
BLACK
6
CONTINUOUS
10
6.8305
20
-3.25042
11
6.82731
21
-3.25256
0
LINE
8
BLACK
6
CONTINUOUS
10
6.82731
20
-3.25256
11
6.82354
21
-3.25331
0
LINE
8
BLACK
6
CONTINUOUS
10
6.82354
20
-3.25331
11
6.78614
21
-3.25331
0
LINE
8
BLACK
6
CONTINUOUS
10
6.78614
20
-3.25331
11
6.78238
21
-3.25256
0
LINE
8
BLACK
6
CONTINUOUS
10
6.78238
20
-3.25256
11
6.77918
21
-3.25042
0
LINE
8
BLACK
6
CONTINUOUS
10
6.77918
20
-3.25042
11
6.77705
21
-3.24723
0
LINE
8
BLACK
6
CONTINUOUS
10
6.77705
20
-3.24723
11
6.7763
21
-3.24346
0
LINE
8
BLACK
6
CONTINUOUS
10
6.7763
20
-3.24346
11
6.7763
21
-3.22378
0
LINE
8
BLACK
6
CONTINUOUS
10
6.7763
20
-3.22378
11
6.77705
21
-3.22001
0
LINE
8
BLACK
6
CONTINUOUS
10
6.77705
20
-3.22001
11
6.77918
21
-3.21682
0
LINE
8
BLACK
6
CONTINUOUS
10
6.77918
20
-3.21682
11
6.78238
21
-3.21469
0
LINE
8
BLACK
6
CONTINUOUS
10
6.78238
20
-3.21469
11
6.78614
21
-3.21394
0
LINE
8
BLACK
6
CONTINUOUS
10
6.78614
20
-3.21394
11
6.82354
21
-3.21394
0
LINE
8
BLACK
6
CONTINUOUS
10
6.82354
20
-3.21394
11
6.82731
21
-3.21469
0
LINE
8
BLACK
6
CONTINUOUS
10
5.83133
20
-3.19087
11
5.83452
21
-3.193
0
LINE
8
BLACK
6
CONTINUOUS
10
5.83452
20
-3.193
11
5.83665
21
-3.19619
0
LINE
8
BLACK
6
CONTINUOUS
10
5.83665
20
-3.19619
11
5.8374
21
-3.19996
0
LINE
8
BLACK
6
CONTINUOUS
10
5.8374
20
-3.19996
11
5.8374
21
-3.22063
0
LINE
8
BLACK
6
CONTINUOUS
10
5.8374
20
-3.22063
11
5.83665
21
-3.2244
0
LINE
8
BLACK
6
CONTINUOUS
10
5.83665
20
-3.2244
11
5.83452
21
-3.22759
0
LINE
8
BLACK
6
CONTINUOUS
10
5.83452
20
-3.22759
11
5.83133
21
-3.22972
0
LINE
8
BLACK
6
CONTINUOUS
10
5.83133
20
-3.22972
11
5.82756
21
-3.23047
0
LINE
8
BLACK
6
CONTINUOUS
10
5.82756
20
-3.23047
11
5.79213
21
-3.23047
0
LINE
8
BLACK
6
CONTINUOUS
10
5.79213
20
-3.23047
11
5.78836
21
-3.22972
0
LINE
8
BLACK
6
CONTINUOUS
10
5.78836
20
-3.22972
11
5.78517
21
-3.22759
0
LINE
8
BLACK
6
CONTINUOUS
10
5.78517
20
-3.22759
11
5.78303
21
-3.2244
0
LINE
8
BLACK
6
CONTINUOUS
10
5.78303
20
-3.2244
11
5.78228
21
-3.22063
0
LINE
8
BLACK
6
CONTINUOUS
10
5.78228
20
-3.22063
11
5.78228
21
-3.19996
0
LINE
8
BLACK
6
CONTINUOUS
10
5.78228
20
-3.19996
11
5.78303
21
-3.19619
0
LINE
8
BLACK
6
CONTINUOUS
10
5.78303
20
-3.19619
11
5.78517
21
-3.193
0
LINE
8
BLACK
6
CONTINUOUS
10
5.78517
20
-3.193
11
5.78836
21
-3.19087
0
LINE
8
BLACK
6
CONTINUOUS
10
5.78836
20
-3.19087
11
5.79213
21
-3.19012
0
LINE
8
BLACK
6
CONTINUOUS
10
5.79213
20
-3.19012
11
5.82756
21
-3.19012
0
LINE
8
BLACK
6
CONTINUOUS
10
5.82756
20
-3.19012
11
5.83133
21
-3.19087
0
LINE
8
BLACK
6
CONTINUOUS
10
6.72731
20
-3.13988
11
6.7305
21
-3.14202
0
LINE
8
BLACK
6
CONTINUOUS
10
6.7305
20
-3.14202
11
6.73264
21
-3.14521
0
LINE
8
BLACK
6
CONTINUOUS
10
6.73264
20
-3.14521
11
6.73339
21
-3.14898
0
LINE
8
BLACK
6
CONTINUOUS
10
6.73339
20
-3.14898
11
6.73339
21
-3.16866
0
LINE
8
BLACK
6
CONTINUOUS
10
6.73339
20
-3.16866
11
6.73264
21
-3.17243
0
LINE
8
BLACK
6
CONTINUOUS
10
6.73264
20
-3.17243
11
6.7305
21
-3.17562
0
LINE
8
BLACK
6
CONTINUOUS
10
6.7305
20
-3.17562
11
6.72731
21
-3.17775
0
LINE
8
BLACK
6
CONTINUOUS
10
6.72731
20
-3.17775
11
6.72354
21
-3.1785
0
LINE
8
BLACK
6
CONTINUOUS
10
6.72354
20
-3.1785
11
6.68614
21
-3.1785
0
LINE
8
BLACK
6
CONTINUOUS
10
6.68614
20
-3.1785
11
6.68238
21
-3.17775
0
LINE
8
BLACK
6
CONTINUOUS
10
6.68238
20
-3.17775
11
6.67918
21
-3.17562
0
LINE
8
BLACK
6
CONTINUOUS
10
6.67918
20
-3.17562
11
6.67705
21
-3.17243
0
LINE
8
BLACK
6
CONTINUOUS
10
6.67705
20
-3.17243
11
6.6763
21
-3.16866
0
LINE
8
BLACK
6
CONTINUOUS
10
6.6763
20
-3.16866
11
6.6763
21
-3.14898
0
LINE
8
BLACK
6
CONTINUOUS
10
6.6763
20
-3.14898
11
6.67705
21
-3.14521
0
LINE
8
BLACK
6
CONTINUOUS
10
6.67705
20
-3.14521
11
6.67918
21
-3.14202
0
LINE
8
BLACK
6
CONTINUOUS
10
6.67918
20
-3.14202
11
6.68238
21
-3.13988
0
LINE
8
BLACK
6
CONTINUOUS
10
6.68238
20
-3.13988
11
6.68614
21
-3.13913
0
LINE
8
BLACK
6
CONTINUOUS
10
6.68614
20
-3.13913
11
6.72354
21
-3.13913
0
LINE
8
BLACK
6
CONTINUOUS
10
6.72354
20
-3.13913
11
6.72731
21
-3.13988
0
LINE
8
BLACK
6
CONTINUOUS
10
6.82731
20
-3.13988
11
6.8305
21
-3.14202
0
LINE
8
BLACK
6
CONTINUOUS
10
6.8305
20
-3.14202
11
6.83264
21
-3.14521
0
LINE
8
BLACK
6
CONTINUOUS
10
6.83264
20
-3.14521
11
6.83339
21
-3.14898
0
LINE
8
BLACK
6
CONTINUOUS
10
6.83339
20
-3.14898
11
6.83339
21
-3.16866
0
LINE
8
BLACK
6
CONTINUOUS
10
6.83339
20
-3.16866
11
6.83264
21
-3.17243
0
LINE
8
BLACK
6
CONTINUOUS
10
6.83264
20
-3.17243
11
6.8305
21
-3.17562
0
LINE
8
BLACK
6
CONTINUOUS
10
6.8305
20
-3.17562
11
6.82731
21
-3.17775
0
LINE
8
BLACK
6
CONTINUOUS
10
6.82731
20
-3.17775
11
6.82354
21
-3.1785
0
LINE
8
BLACK
6
CONTINUOUS
10
6.82354
20
-3.1785
11
6.78614
21
-3.1785
0
LINE
8
BLACK
6
CONTINUOUS
10
6.78614
20
-3.1785
11
6.78238
21
-3.17775
0
LINE
8
BLACK
6
CONTINUOUS
10
6.78238
20
-3.17775
11
6.77918
21
-3.17562
0
LINE
8
BLACK
6
CONTINUOUS
10
6.77918
20
-3.17562
11
6.77705
21
-3.17243
0
LINE
8
BLACK
6
CONTINUOUS
10
6.77705
20
-3.17243
11
6.7763
21
-3.16866
0
LINE
8
BLACK
6
CONTINUOUS
10
6.7763
20
-3.16866
11
6.7763
21
-3.14898
0
LINE
8
BLACK
6
CONTINUOUS
10
6.7763
20
-3.14898
11
6.77705
21
-3.14521
0
LINE
8
BLACK
6
CONTINUOUS
10
6.77705
20
-3.14521
11
6.77918
21
-3.14202
0
LINE
8
BLACK
6
CONTINUOUS
10
6.77918
20
-3.14202
11
6.78238
21
-3.13988
0
LINE
8
BLACK
6
CONTINUOUS
10
6.78238
20
-3.13988
11
6.78614
21
-3.13913
0
LINE
8
BLACK
6
CONTINUOUS
10
6.78614
20
-3.13913
11
6.82354
21
-3.13913
0
LINE
8
BLACK
6
CONTINUOUS
10
6.82354
20
-3.13913
11
6.82731
21
-3.13988
  0
ENDSEC
  0
EOF
