  0
SECTION
  2
HEADER
  9
$ANGBASE
  50
0.0
  9
$ANGDIR
  70
1
  9
$MEASUREMENT
  70
0
  0
ENDSEC
  0
SECTION
  2
TABLES
  0
TABLE
  2
LTYPE
  70
4
  0
LTYPE
  5
40F
  2
CONTINUOUS
  70
0
  3
Solid line
  72
65
  73
0
  40
0.0
  0
LTYPE
  5
410
  2
DASHDOT
 70
0
  3
Dash Dot ____ _ ____ _
 72
65
 73
4
 40
2.0
 49
1.25
 49
-0.25
 49
0.25
 49
-0.25
  0
LTYPE
  5
411
  2
DASHED
 70
0
  3
Dashed __ __ __ __ __
 72
65
 73
2
 40
0.75
 49
0.5
 49
-0.25
  0
LTYPE
  5
43B
  2
DOTTED
 70
0
  3
Dotted .  .  .  .
 72
65
 73
2
 40
0.2
 49
0.0
 49
-0.2
  0
ENDTAB
  0
TABLE
  2
STYLE
  70
4
  0
STYLE
  2
KICAD
  70
0
  40
0
  41
1
  42
1
  50
0
  71
0
  3
isocp.shx
  0
STYLE
  2
KICADB
  70
0
  40
0
  41
1
  42
1
  50
0
  71
0
  3
isocp.shx
  0
STYLE
  2
KICADI
  70
0
  40
0
  41
1
  42
1
  50
15
  71
0
  3
isocp.shx
  0
STYLE
  2
KICADBI
  70
0
  40
0
  41
1
  42
1
  50
15
  71
0
  3
isocp.shx
  0
ENDTAB
  0
TABLE
  2
LAYER
  70
1
  0
LAYER
  2
BLACK
  70
0
  62
7
  6
CONTINUOUS
  0
ENDTAB
  0
ENDSEC
  0
SECTION
  2
ENTITIES
0
LINE
8
BLACK
6
CONTINUOUS
10
5.30776
20
-3.89169
11
5.31182
21
-3.87826
0
LINE
8
BLACK
6
CONTINUOUS
10
5.31182
20
-3.87826
11
5.31734
21
-3.86537
0
LINE
8
BLACK
6
CONTINUOUS
10
5.31734
20
-3.86537
11
5.32427
21
-3.85318
0
LINE
8
BLACK
6
CONTINUOUS
10
5.32427
20
-3.85318
11
5.33251
21
-3.84184
0
LINE
8
BLACK
6
CONTINUOUS
10
5.33251
20
-3.84184
11
5.34196
21
-3.83148
0
LINE
8
BLACK
6
CONTINUOUS
10
5.34196
20
-3.83148
11
5.35252
21
-3.82225
0
LINE
8
BLACK
6
CONTINUOUS
10
5.35252
20
-3.82225
11
5.36403
21
-3.81424
0
LINE
8
BLACK
6
CONTINUOUS
10
5.36403
20
-3.81424
11
5.37636
21
-3.80757
0
LINE
8
BLACK
6
CONTINUOUS
10
5.37636
20
-3.80757
11
5.38937
21
-3.80232
0
LINE
8
BLACK
6
CONTINUOUS
10
5.38937
20
-3.80232
11
5.40287
21
-3.79855
0
LINE
8
BLACK
6
CONTINUOUS
10
5.40287
20
-3.79855
11
5.41671
21
-3.79631
0
LINE
8
BLACK
6
CONTINUOUS
10
5.41671
20
-3.79631
11
5.43072
21
-3.79562
0
LINE
8
BLACK
6
CONTINUOUS
10
5.43072
20
-3.79562
11
5.44471
21
-3.7965
0
LINE
8
BLACK
6
CONTINUOUS
10
5.44471
20
-3.7965
11
5.45852
21
-3.79894
0
LINE
8
BLACK
6
CONTINUOUS
10
5.45852
20
-3.79894
11
5.47198
21
-3.8029
0
LINE
8
BLACK
6
CONTINUOUS
10
5.47198
20
-3.8029
11
5.4849
21
-3.80833
0
LINE
8
BLACK
6
CONTINUOUS
10
5.4849
20
-3.80833
11
5.49714
21
-3.81517
0
LINE
8
BLACK
6
CONTINUOUS
10
5.49714
20
-3.81517
11
5.50854
21
-3.82334
0
LINE
8
BLACK
6
CONTINUOUS
10
5.50854
20
-3.82334
11
5.51896
21
-3.83272
0
LINE
8
BLACK
6
CONTINUOUS
10
5.51896
20
-3.83272
11
5.52827
21
-3.8432
0
LINE
8
BLACK
6
CONTINUOUS
10
5.52827
20
-3.8432
11
5.53636
21
-3.85466
0
LINE
8
BLACK
6
CONTINUOUS
10
5.53636
20
-3.85466
11
5.54311
21
-3.86695
0
LINE
8
BLACK
6
CONTINUOUS
10
5.54311
20
-3.86695
11
5.54846
21
-3.87991
0
LINE
8
BLACK
6
CONTINUOUS
10
5.54846
20
-3.87991
11
5.55232
21
-3.89339
0
LINE
8
BLACK
6
CONTINUOUS
10
5.55232
20
-3.89339
11
5.55466
21
-3.90722
0
LINE
8
BLACK
6
CONTINUOUS
10
5.55466
20
-3.90722
11
5.55544
21
-3.92122
0
LINE
8
BLACK
6
CONTINUOUS
10
5.55544
20
-3.92122
11
5.55539
21
-3.92473
0
LINE
8
BLACK
6
CONTINUOUS
10
5.55539
20
-3.92473
11
5.55422
21
-3.9387
0
LINE
8
BLACK
6
CONTINUOUS
10
5.55422
20
-3.9387
11
5.5515
21
-3.95246
0
LINE
8
BLACK
6
CONTINUOUS
10
5.5515
20
-3.95246
11
5.54726
21
-3.96582
0
LINE
8
BLACK
6
CONTINUOUS
10
5.54726
20
-3.96582
11
5.54155
21
-3.97863
0
LINE
8
BLACK
6
CONTINUOUS
10
5.54155
20
-3.97863
11
5.53446
21
-3.99073
0
LINE
8
BLACK
6
CONTINUOUS
10
5.53446
20
-3.99073
11
5.52606
21
-4.00195
0
LINE
8
BLACK
6
CONTINUOUS
10
5.52606
20
-4.00195
11
5.51646
21
-4.01218
0
LINE
8
BLACK
6
CONTINUOUS
10
5.51646
20
-4.01218
11
5.50578
21
-4.02126
0
LINE
8
BLACK
6
CONTINUOUS
10
5.50578
20
-4.02126
11
5.49416
21
-4.02911
0
LINE
8
BLACK
6
CONTINUOUS
10
5.49416
20
-4.02911
11
5.48173
21
-4.0356
0
LINE
8
BLACK
6
CONTINUOUS
10
5.48173
20
-4.0356
11
5.46866
21
-4.04067
0
LINE
8
BLACK
6
CONTINUOUS
10
5.46866
20
-4.04067
11
5.4551
21
-4.04426
0
LINE
8
BLACK
6
CONTINUOUS
10
5.4551
20
-4.04426
11
5.44123
21
-4.0463
0
LINE
8
BLACK
6
CONTINUOUS
10
5.44123
20
-4.0463
11
5.42721
21
-4.04679
0
LINE
8
BLACK
6
CONTINUOUS
10
5.42721
20
-4.04679
11
5.41323
21
-4.04572
0
LINE
8
BLACK
6
CONTINUOUS
10
5.41323
20
-4.04572
11
5.39946
21
-4.04309
0
LINE
8
BLACK
6
CONTINUOUS
10
5.39946
20
-4.04309
11
5.38606
21
-4.03894
0
LINE
8
BLACK
6
CONTINUOUS
10
5.38606
20
-4.03894
11
5.37321
21
-4.03333
0
LINE
8
BLACK
6
CONTINUOUS
10
5.37321
20
-4.03333
11
5.36107
21
-4.02632
0
LINE
8
BLACK
6
CONTINUOUS
10
5.36107
20
-4.02632
11
5.34978
21
-4.018
0
LINE
8
BLACK
6
CONTINUOUS
10
5.34978
20
-4.018
11
5.33949
21
-4.00847
0
LINE
8
BLACK
6
CONTINUOUS
10
5.33949
20
-4.00847
11
5.33033
21
-3.99785
0
LINE
8
BLACK
6
CONTINUOUS
10
5.33033
20
-3.99785
11
5.32241
21
-3.98628
0
LINE
8
BLACK
6
CONTINUOUS
10
5.32241
20
-3.98628
11
5.31583
21
-3.9739
0
LINE
8
BLACK
6
CONTINUOUS
10
5.31583
20
-3.9739
11
5.31066
21
-3.96087
0
LINE
8
BLACK
6
CONTINUOUS
10
5.31066
20
-3.96087
11
5.30699
21
-3.94733
0
LINE
8
BLACK
6
CONTINUOUS
10
5.30699
20
-3.94733
11
5.30484
21
-3.93348
0
LINE
8
BLACK
6
CONTINUOUS
10
5.30484
20
-3.93348
11
5.30425
21
-3.91947
0
LINE
8
BLACK
6
CONTINUOUS
10
5.30425
20
-3.91947
11
5.30438
21
-3.91774
0
LINE
8
BLACK
6
CONTINUOUS
10
5.30438
20
-3.91774
11
5.30523
21
-3.90548
0
LINE
8
BLACK
6
CONTINUOUS
10
5.30523
20
-3.90548
11
5.30776
21
-3.89169
0
LINE
8
BLACK
6
CONTINUOUS
10
5.32124
20
-3.94312
11
5.32448
21
-3.95546
0
LINE
8
BLACK
6
CONTINUOUS
10
5.32448
20
-3.95546
11
5.32911
21
-3.96734
0
LINE
8
BLACK
6
CONTINUOUS
10
5.32911
20
-3.96734
11
5.33508
21
-3.97861
0
LINE
8
BLACK
6
CONTINUOUS
10
5.33508
20
-3.97861
11
5.3423
21
-3.98912
0
LINE
8
BLACK
6
CONTINUOUS
10
5.3423
20
-3.98912
11
5.35069
21
-3.99873
0
LINE
8
BLACK
6
CONTINUOUS
10
5.35069
20
-3.99873
11
5.36012
21
-4.00732
0
LINE
8
BLACK
6
CONTINUOUS
10
5.36012
20
-4.00732
11
5.37048
21
-4.01476
0
LINE
8
BLACK
6
CONTINUOUS
10
5.37048
20
-4.01476
11
5.38162
21
-4.02096
0
LINE
8
BLACK
6
CONTINUOUS
10
5.38162
20
-4.02096
11
5.39341
21
-4.02585
0
LINE
8
BLACK
6
CONTINUOUS
10
5.39341
20
-4.02585
11
5.40567
21
-4.02934
0
LINE
8
BLACK
6
CONTINUOUS
10
5.40567
20
-4.02934
11
5.41826
21
-4.0314
0
LINE
8
BLACK
6
CONTINUOUS
10
5.41826
20
-4.0314
11
5.431
21
-4.032
0
LINE
8
BLACK
6
CONTINUOUS
10
5.431
20
-4.032
11
5.44373
21
-4.03113
0
LINE
8
BLACK
6
CONTINUOUS
10
5.44373
20
-4.03113
11
5.45627
21
-4.02881
0
LINE
8
BLACK
6
CONTINUOUS
10
5.45627
20
-4.02881
11
5.46846
21
-4.02506
0
LINE
8
BLACK
6
CONTINUOUS
10
5.46846
20
-4.02506
11
5.48014
21
-4.01993
0
LINE
8
BLACK
6
CONTINUOUS
10
5.48014
20
-4.01993
11
5.49115
21
-4.0135
0
LINE
8
BLACK
6
CONTINUOUS
10
5.49115
20
-4.0135
11
5.50135
21
-4.00584
0
LINE
8
BLACK
6
CONTINUOUS
10
5.50135
20
-4.00584
11
5.5106
21
-3.99706
0
LINE
8
BLACK
6
CONTINUOUS
10
5.5106
20
-3.99706
11
5.51878
21
-3.98727
0
LINE
8
BLACK
6
CONTINUOUS
10
5.51878
20
-3.98727
11
5.52579
21
-3.97661
0
LINE
8
BLACK
6
CONTINUOUS
10
5.52579
20
-3.97661
11
5.53152
21
-3.96522
0
LINE
8
BLACK
6
CONTINUOUS
10
5.53152
20
-3.96522
11
5.5359
21
-3.95324
0
LINE
8
BLACK
6
CONTINUOUS
10
5.5359
20
-3.95324
11
5.53888
21
-3.94084
0
LINE
8
BLACK
6
CONTINUOUS
10
5.53888
20
-3.94084
11
5.54041
21
-3.92818
0
LINE
8
BLACK
6
CONTINUOUS
10
5.54041
20
-3.92818
11
5.54063
21
-3.92122
0
LINE
8
BLACK
6
CONTINUOUS
10
5.54063
20
-3.92122
11
5.5399
21
-3.90849
0
LINE
8
BLACK
6
CONTINUOUS
10
5.5399
20
-3.90849
11
5.5377
21
-3.89592
0
LINE
8
BLACK
6
CONTINUOUS
10
5.5377
20
-3.89592
11
5.53408
21
-3.88369
0
LINE
8
BLACK
6
CONTINUOUS
10
5.53408
20
-3.88369
11
5.52908
21
-3.87196
0
LINE
8
BLACK
6
CONTINUOUS
10
5.52908
20
-3.87196
11
5.52276
21
-3.86088
0
LINE
8
BLACK
6
CONTINUOUS
10
5.52276
20
-3.86088
11
5.51521
21
-3.8506
0
LINE
8
BLACK
6
CONTINUOUS
10
5.51521
20
-3.8506
11
5.50652
21
-3.84126
0
LINE
8
BLACK
6
CONTINUOUS
10
5.50652
20
-3.84126
11
5.49682
21
-3.83297
0
LINE
8
BLACK
6
CONTINUOUS
10
5.49682
20
-3.83297
11
5.48624
21
-3.82586
0
LINE
8
BLACK
6
CONTINUOUS
10
5.48624
20
-3.82586
11
5.4749
21
-3.82001
0
LINE
8
BLACK
6
CONTINUOUS
10
5.4749
20
-3.82001
11
5.46297
21
-3.8155
0
LINE
8
BLACK
6
CONTINUOUS
10
5.46297
20
-3.8155
11
5.4506
21
-3.8124
0
LINE
8
BLACK
6
CONTINUOUS
10
5.4506
20
-3.8124
11
5.43796
21
-3.81073
0
LINE
8
BLACK
6
CONTINUOUS
10
5.43796
20
-3.81073
11
5.4252
21
-3.81053
0
LINE
8
BLACK
6
CONTINUOUS
10
5.4252
20
-3.81053
11
5.41251
21
-3.8118
0
LINE
8
BLACK
6
CONTINUOUS
10
5.41251
20
-3.8118
11
5.40005
21
-3.81451
0
LINE
8
BLACK
6
CONTINUOUS
10
5.40005
20
-3.81451
11
5.38798
21
-3.81865
0
LINE
8
BLACK
6
CONTINUOUS
10
5.38798
20
-3.81865
11
5.37647
21
-3.82414
0
LINE
8
BLACK
6
CONTINUOUS
10
5.37647
20
-3.82414
11
5.36567
21
-3.83091
0
LINE
8
BLACK
6
CONTINUOUS
10
5.36567
20
-3.83091
11
5.35571
21
-3.83889
0
LINE
8
BLACK
6
CONTINUOUS
10
5.35571
20
-3.83889
11
5.34674
21
-3.84796
0
LINE
8
BLACK
6
CONTINUOUS
10
5.34674
20
-3.84796
11
5.33887
21
-3.85799
0
LINE
8
BLACK
6
CONTINUOUS
10
5.33887
20
-3.85799
11
5.33221
21
-3.86887
0
LINE
8
BLACK
6
CONTINUOUS
10
5.33221
20
-3.86887
11
5.32683
21
-3.88044
0
LINE
8
BLACK
6
CONTINUOUS
10
5.32683
20
-3.88044
11
5.32283
21
-3.89255
0
LINE
8
BLACK
6
CONTINUOUS
10
5.32283
20
-3.89255
11
5.32024
21
-3.90504
0
LINE
8
BLACK
6
CONTINUOUS
10
5.32024
20
-3.90504
11
5.31911
21
-3.91774
0
LINE
8
BLACK
6
CONTINUOUS
10
5.31911
20
-3.91774
11
5.31944
21
-3.93049
0
LINE
8
BLACK
6
CONTINUOUS
10
5.31944
20
-3.93049
11
5.32124
21
-3.94312
0
LINE
8
BLACK
6
CONTINUOUS
10
6.90776
20
-3.89169
11
6.91182
21
-3.87826
0
LINE
8
BLACK
6
CONTINUOUS
10
6.91182
20
-3.87826
11
6.91734
21
-3.86537
0
LINE
8
BLACK
6
CONTINUOUS
10
6.91734
20
-3.86537
11
6.92427
21
-3.85318
0
LINE
8
BLACK
6
CONTINUOUS
10
6.92427
20
-3.85318
11
6.93251
21
-3.84184
0
LINE
8
BLACK
6
CONTINUOUS
10
6.93251
20
-3.84184
11
6.94196
21
-3.83148
0
LINE
8
BLACK
6
CONTINUOUS
10
6.94196
20
-3.83148
11
6.95252
21
-3.82225
0
LINE
8
BLACK
6
CONTINUOUS
10
6.95252
20
-3.82225
11
6.96403
21
-3.81424
0
LINE
8
BLACK
6
CONTINUOUS
10
6.96403
20
-3.81424
11
6.97636
21
-3.80757
0
LINE
8
BLACK
6
CONTINUOUS
10
6.97636
20
-3.80757
11
6.98937
21
-3.80232
0
LINE
8
BLACK
6
CONTINUOUS
10
6.98937
20
-3.80232
11
7.00287
21
-3.79855
0
LINE
8
BLACK
6
CONTINUOUS
10
7.00287
20
-3.79855
11
7.01671
21
-3.79631
0
LINE
8
BLACK
6
CONTINUOUS
10
7.01671
20
-3.79631
11
7.03072
21
-3.79562
0
LINE
8
BLACK
6
CONTINUOUS
10
7.03072
20
-3.79562
11
7.04471
21
-3.7965
0
LINE
8
BLACK
6
CONTINUOUS
10
7.04471
20
-3.7965
11
7.05852
21
-3.79894
0
LINE
8
BLACK
6
CONTINUOUS
10
7.05852
20
-3.79894
11
7.07198
21
-3.8029
0
LINE
8
BLACK
6
CONTINUOUS
10
7.07198
20
-3.8029
11
7.0849
21
-3.80833
0
LINE
8
BLACK
6
CONTINUOUS
10
7.0849
20
-3.80833
11
7.09714
21
-3.81517
0
LINE
8
BLACK
6
CONTINUOUS
10
7.09714
20
-3.81517
11
7.10854
21
-3.82334
0
LINE
8
BLACK
6
CONTINUOUS
10
7.10854
20
-3.82334
11
7.11896
21
-3.83272
0
LINE
8
BLACK
6
CONTINUOUS
10
7.11896
20
-3.83272
11
7.12827
21
-3.8432
0
LINE
8
BLACK
6
CONTINUOUS
10
7.12827
20
-3.8432
11
7.13636
21
-3.85466
0
LINE
8
BLACK
6
CONTINUOUS
10
7.13636
20
-3.85466
11
7.14311
21
-3.86695
0
LINE
8
BLACK
6
CONTINUOUS
10
7.14311
20
-3.86695
11
7.14846
21
-3.87991
0
LINE
8
BLACK
6
CONTINUOUS
10
7.14846
20
-3.87991
11
7.15232
21
-3.89339
0
LINE
8
BLACK
6
CONTINUOUS
10
7.15232
20
-3.89339
11
7.15466
21
-3.90722
0
LINE
8
BLACK
6
CONTINUOUS
10
7.15466
20
-3.90722
11
7.15544
21
-3.92122
0
LINE
8
BLACK
6
CONTINUOUS
10
7.15544
20
-3.92122
11
7.15539
21
-3.92473
0
LINE
8
BLACK
6
CONTINUOUS
10
7.15539
20
-3.92473
11
7.15422
21
-3.9387
0
LINE
8
BLACK
6
CONTINUOUS
10
7.15422
20
-3.9387
11
7.1515
21
-3.95246
0
LINE
8
BLACK
6
CONTINUOUS
10
7.1515
20
-3.95246
11
7.14726
21
-3.96582
0
LINE
8
BLACK
6
CONTINUOUS
10
7.14726
20
-3.96582
11
7.14155
21
-3.97863
0
LINE
8
BLACK
6
CONTINUOUS
10
7.14155
20
-3.97863
11
7.13446
21
-3.99073
0
LINE
8
BLACK
6
CONTINUOUS
10
7.13446
20
-3.99073
11
7.12606
21
-4.00195
0
LINE
8
BLACK
6
CONTINUOUS
10
7.12606
20
-4.00195
11
7.11646
21
-4.01218
0
LINE
8
BLACK
6
CONTINUOUS
10
7.11646
20
-4.01218
11
7.10578
21
-4.02126
0
LINE
8
BLACK
6
CONTINUOUS
10
7.10578
20
-4.02126
11
7.09416
21
-4.02911
0
LINE
8
BLACK
6
CONTINUOUS
10
7.09416
20
-4.02911
11
7.08173
21
-4.0356
0
LINE
8
BLACK
6
CONTINUOUS
10
7.08173
20
-4.0356
11
7.06866
21
-4.04067
0
LINE
8
BLACK
6
CONTINUOUS
10
7.06866
20
-4.04067
11
7.0551
21
-4.04426
0
LINE
8
BLACK
6
CONTINUOUS
10
7.0551
20
-4.04426
11
7.04123
21
-4.0463
0
LINE
8
BLACK
6
CONTINUOUS
10
7.04123
20
-4.0463
11
7.02721
21
-4.04679
0
LINE
8
BLACK
6
CONTINUOUS
10
7.02721
20
-4.04679
11
7.01323
21
-4.04572
0
LINE
8
BLACK
6
CONTINUOUS
10
7.01323
20
-4.04572
11
6.99946
21
-4.04309
0
LINE
8
BLACK
6
CONTINUOUS
10
6.99946
20
-4.04309
11
6.98606
21
-4.03894
0
LINE
8
BLACK
6
CONTINUOUS
10
6.98606
20
-4.03894
11
6.97321
21
-4.03333
0
LINE
8
BLACK
6
CONTINUOUS
10
6.97321
20
-4.03333
11
6.96107
21
-4.02632
0
LINE
8
BLACK
6
CONTINUOUS
10
6.96107
20
-4.02632
11
6.94978
21
-4.018
0
LINE
8
BLACK
6
CONTINUOUS
10
6.94978
20
-4.018
11
6.93949
21
-4.00847
0
LINE
8
BLACK
6
CONTINUOUS
10
6.93949
20
-4.00847
11
6.93033
21
-3.99785
0
LINE
8
BLACK
6
CONTINUOUS
10
6.93033
20
-3.99785
11
6.92241
21
-3.98628
0
LINE
8
BLACK
6
CONTINUOUS
10
6.92241
20
-3.98628
11
6.91583
21
-3.9739
0
LINE
8
BLACK
6
CONTINUOUS
10
6.91583
20
-3.9739
11
6.91066
21
-3.96087
0
LINE
8
BLACK
6
CONTINUOUS
10
6.91066
20
-3.96087
11
6.90699
21
-3.94733
0
LINE
8
BLACK
6
CONTINUOUS
10
6.90699
20
-3.94733
11
6.90484
21
-3.93348
0
LINE
8
BLACK
6
CONTINUOUS
10
6.90484
20
-3.93348
11
6.90425
21
-3.91947
0
LINE
8
BLACK
6
CONTINUOUS
10
6.90425
20
-3.91947
11
6.90438
21
-3.91774
0
LINE
8
BLACK
6
CONTINUOUS
10
6.90438
20
-3.91774
11
6.90523
21
-3.90548
0
LINE
8
BLACK
6
CONTINUOUS
10
6.90523
20
-3.90548
11
6.90776
21
-3.89169
0
LINE
8
BLACK
6
CONTINUOUS
10
6.92124
20
-3.94312
11
6.92448
21
-3.95546
0
LINE
8
BLACK
6
CONTINUOUS
10
6.92448
20
-3.95546
11
6.92911
21
-3.96734
0
LINE
8
BLACK
6
CONTINUOUS
10
6.92911
20
-3.96734
11
6.93508
21
-3.97861
0
LINE
8
BLACK
6
CONTINUOUS
10
6.93508
20
-3.97861
11
6.9423
21
-3.98912
0
LINE
8
BLACK
6
CONTINUOUS
10
6.9423
20
-3.98912
11
6.95069
21
-3.99873
0
LINE
8
BLACK
6
CONTINUOUS
10
6.95069
20
-3.99873
11
6.96012
21
-4.00732
0
LINE
8
BLACK
6
CONTINUOUS
10
6.96012
20
-4.00732
11
6.97048
21
-4.01476
0
LINE
8
BLACK
6
CONTINUOUS
10
6.97048
20
-4.01476
11
6.98162
21
-4.02096
0
LINE
8
BLACK
6
CONTINUOUS
10
6.98162
20
-4.02096
11
6.99341
21
-4.02585
0
LINE
8
BLACK
6
CONTINUOUS
10
6.99341
20
-4.02585
11
7.00568
21
-4.02934
0
LINE
8
BLACK
6
CONTINUOUS
10
7.00568
20
-4.02934
11
7.01826
21
-4.0314
0
LINE
8
BLACK
6
CONTINUOUS
10
7.01826
20
-4.0314
11
7.031
21
-4.032
0
LINE
8
BLACK
6
CONTINUOUS
10
7.031
20
-4.032
11
7.04373
21
-4.03113
0
LINE
8
BLACK
6
CONTINUOUS
10
7.04373
20
-4.03113
11
7.05627
21
-4.02881
0
LINE
8
BLACK
6
CONTINUOUS
10
7.05627
20
-4.02881
11
7.06846
21
-4.02506
0
LINE
8
BLACK
6
CONTINUOUS
10
7.06846
20
-4.02506
11
7.08014
21
-4.01993
0
LINE
8
BLACK
6
CONTINUOUS
10
7.08014
20
-4.01993
11
7.09115
21
-4.0135
0
LINE
8
BLACK
6
CONTINUOUS
10
7.09115
20
-4.0135
11
7.10135
21
-4.00584
0
LINE
8
BLACK
6
CONTINUOUS
10
7.10135
20
-4.00584
11
7.1106
21
-3.99706
0
LINE
8
BLACK
6
CONTINUOUS
10
7.1106
20
-3.99706
11
7.11878
21
-3.98727
0
LINE
8
BLACK
6
CONTINUOUS
10
7.11878
20
-3.98727
11
7.12579
21
-3.97661
0
LINE
8
BLACK
6
CONTINUOUS
10
7.12579
20
-3.97661
11
7.13152
21
-3.96522
0
LINE
8
BLACK
6
CONTINUOUS
10
7.13152
20
-3.96522
11
7.1359
21
-3.95324
0
LINE
8
BLACK
6
CONTINUOUS
10
7.1359
20
-3.95324
11
7.13888
21
-3.94084
0
LINE
8
BLACK
6
CONTINUOUS
10
7.13888
20
-3.94084
11
7.14041
21
-3.92818
0
LINE
8
BLACK
6
CONTINUOUS
10
7.14041
20
-3.92818
11
7.14063
21
-3.92122
0
LINE
8
BLACK
6
CONTINUOUS
10
7.14063
20
-3.92122
11
7.1399
21
-3.90849
0
LINE
8
BLACK
6
CONTINUOUS
10
7.1399
20
-3.90849
11
7.1377
21
-3.89592
0
LINE
8
BLACK
6
CONTINUOUS
10
7.1377
20
-3.89592
11
7.13408
21
-3.88369
0
LINE
8
BLACK
6
CONTINUOUS
10
7.13408
20
-3.88369
11
7.12908
21
-3.87196
0
LINE
8
BLACK
6
CONTINUOUS
10
7.12908
20
-3.87196
11
7.12276
21
-3.86088
0
LINE
8
BLACK
6
CONTINUOUS
10
7.12276
20
-3.86088
11
7.11521
21
-3.8506
0
LINE
8
BLACK
6
CONTINUOUS
10
7.11521
20
-3.8506
11
7.10652
21
-3.84126
0
LINE
8
BLACK
6
CONTINUOUS
10
7.10652
20
-3.84126
11
7.09682
21
-3.83297
0
LINE
8
BLACK
6
CONTINUOUS
10
7.09682
20
-3.83297
11
7.08624
21
-3.82586
0
LINE
8
BLACK
6
CONTINUOUS
10
7.08624
20
-3.82586
11
7.0749
21
-3.82001
0
LINE
8
BLACK
6
CONTINUOUS
10
7.0749
20
-3.82001
11
7.06297
21
-3.8155
0
LINE
8
BLACK
6
CONTINUOUS
10
7.06297
20
-3.8155
11
7.0506
21
-3.8124
0
LINE
8
BLACK
6
CONTINUOUS
10
7.0506
20
-3.8124
11
7.03796
21
-3.81073
0
LINE
8
BLACK
6
CONTINUOUS
10
7.03796
20
-3.81073
11
7.0252
21
-3.81053
0
LINE
8
BLACK
6
CONTINUOUS
10
7.0252
20
-3.81053
11
7.01251
21
-3.8118
0
LINE
8
BLACK
6
CONTINUOUS
10
7.01251
20
-3.8118
11
7.00005
21
-3.81451
0
LINE
8
BLACK
6
CONTINUOUS
10
7.00005
20
-3.81451
11
6.98798
21
-3.81865
0
LINE
8
BLACK
6
CONTINUOUS
10
6.98798
20
-3.81865
11
6.97647
21
-3.82414
0
LINE
8
BLACK
6
CONTINUOUS
10
6.97647
20
-3.82414
11
6.96567
21
-3.83091
0
LINE
8
BLACK
6
CONTINUOUS
10
6.96567
20
-3.83091
11
6.95571
21
-3.83889
0
LINE
8
BLACK
6
CONTINUOUS
10
6.95571
20
-3.83889
11
6.94674
21
-3.84796
0
LINE
8
BLACK
6
CONTINUOUS
10
6.94674
20
-3.84796
11
6.93887
21
-3.85799
0
LINE
8
BLACK
6
CONTINUOUS
10
6.93887
20
-3.85799
11
6.93221
21
-3.86887
0
LINE
8
BLACK
6
CONTINUOUS
10
6.93221
20
-3.86887
11
6.92683
21
-3.88044
0
LINE
8
BLACK
6
CONTINUOUS
10
6.92683
20
-3.88044
11
6.92283
21
-3.89255
0
LINE
8
BLACK
6
CONTINUOUS
10
6.92283
20
-3.89255
11
6.92024
21
-3.90504
0
LINE
8
BLACK
6
CONTINUOUS
10
6.92024
20
-3.90504
11
6.91911
21
-3.91774
0
LINE
8
BLACK
6
CONTINUOUS
10
6.91911
20
-3.91774
11
6.91944
21
-3.93049
0
LINE
8
BLACK
6
CONTINUOUS
10
6.91944
20
-3.93049
11
6.92124
21
-3.94312
0
LINE
8
BLACK
6
CONTINUOUS
10
5.30776
20
-3.09169
11
5.31182
21
-3.07826
0
LINE
8
BLACK
6
CONTINUOUS
10
5.31182
20
-3.07826
11
5.31734
21
-3.06537
0
LINE
8
BLACK
6
CONTINUOUS
10
5.31734
20
-3.06537
11
5.32427
21
-3.05318
0
LINE
8
BLACK
6
CONTINUOUS
10
5.32427
20
-3.05318
11
5.33251
21
-3.04184
0
LINE
8
BLACK
6
CONTINUOUS
10
5.33251
20
-3.04184
11
5.34196
21
-3.03148
0
LINE
8
BLACK
6
CONTINUOUS
10
5.34196
20
-3.03148
11
5.35252
21
-3.02225
0
LINE
8
BLACK
6
CONTINUOUS
10
5.35252
20
-3.02225
11
5.36403
21
-3.01424
0
LINE
8
BLACK
6
CONTINUOUS
10
5.36403
20
-3.01424
11
5.37636
21
-3.00757
0
LINE
8
BLACK
6
CONTINUOUS
10
5.37636
20
-3.00757
11
5.38937
21
-3.00232
0
LINE
8
BLACK
6
CONTINUOUS
10
5.38937
20
-3.00232
11
5.40287
21
-2.99855
0
LINE
8
BLACK
6
CONTINUOUS
10
5.40287
20
-2.99855
11
5.41671
21
-2.99631
0
LINE
8
BLACK
6
CONTINUOUS
10
5.41671
20
-2.99631
11
5.43072
21
-2.99562
0
LINE
8
BLACK
6
CONTINUOUS
10
5.43072
20
-2.99562
11
5.44471
21
-2.9965
0
LINE
8
BLACK
6
CONTINUOUS
10
5.44471
20
-2.9965
11
5.45852
21
-2.99894
0
LINE
8
BLACK
6
CONTINUOUS
10
5.45852
20
-2.99894
11
5.47198
21
-3.0029
0
LINE
8
BLACK
6
CONTINUOUS
10
5.47198
20
-3.0029
11
5.4849
21
-3.00833
0
LINE
8
BLACK
6
CONTINUOUS
10
5.4849
20
-3.00833
11
5.49714
21
-3.01517
0
LINE
8
BLACK
6
CONTINUOUS
10
5.49714
20
-3.01517
11
5.50854
21
-3.02334
0
LINE
8
BLACK
6
CONTINUOUS
10
5.50854
20
-3.02334
11
5.51896
21
-3.03272
0
LINE
8
BLACK
6
CONTINUOUS
10
5.51896
20
-3.03272
11
5.52827
21
-3.0432
0
LINE
8
BLACK
6
CONTINUOUS
10
5.52827
20
-3.0432
11
5.53636
21
-3.05466
0
LINE
8
BLACK
6
CONTINUOUS
10
5.53636
20
-3.05466
11
5.54311
21
-3.06695
0
LINE
8
BLACK
6
CONTINUOUS
10
5.54311
20
-3.06695
11
5.54846
21
-3.07991
0
LINE
8
BLACK
6
CONTINUOUS
10
5.54846
20
-3.07991
11
5.55232
21
-3.09339
0
LINE
8
BLACK
6
CONTINUOUS
10
5.55232
20
-3.09339
11
5.55466
21
-3.10722
0
LINE
8
BLACK
6
CONTINUOUS
10
5.55466
20
-3.10722
11
5.55544
21
-3.12122
0
LINE
8
BLACK
6
CONTINUOUS
10
5.55544
20
-3.12122
11
5.55539
21
-3.12473
0
LINE
8
BLACK
6
CONTINUOUS
10
5.55539
20
-3.12473
11
5.55422
21
-3.1387
0
LINE
8
BLACK
6
CONTINUOUS
10
5.55422
20
-3.1387
11
5.5515
21
-3.15246
0
LINE
8
BLACK
6
CONTINUOUS
10
5.5515
20
-3.15246
11
5.54726
21
-3.16582
0
LINE
8
BLACK
6
CONTINUOUS
10
5.54726
20
-3.16582
11
5.54155
21
-3.17863
0
LINE
8
BLACK
6
CONTINUOUS
10
5.54155
20
-3.17863
11
5.53446
21
-3.19073
0
LINE
8
BLACK
6
CONTINUOUS
10
5.53446
20
-3.19073
11
5.52606
21
-3.20195
0
LINE
8
BLACK
6
CONTINUOUS
10
5.52606
20
-3.20195
11
5.51646
21
-3.21218
0
LINE
8
BLACK
6
CONTINUOUS
10
5.51646
20
-3.21218
11
5.50578
21
-3.22126
0
LINE
8
BLACK
6
CONTINUOUS
10
5.50578
20
-3.22126
11
5.49416
21
-3.22911
0
LINE
8
BLACK
6
CONTINUOUS
10
5.49416
20
-3.22911
11
5.48173
21
-3.2356
0
LINE
8
BLACK
6
CONTINUOUS
10
5.48173
20
-3.2356
11
5.46866
21
-3.24067
0
LINE
8
BLACK
6
CONTINUOUS
10
5.46866
20
-3.24067
11
5.4551
21
-3.24426
0
LINE
8
BLACK
6
CONTINUOUS
10
5.4551
20
-3.24426
11
5.44123
21
-3.2463
0
LINE
8
BLACK
6
CONTINUOUS
10
5.44123
20
-3.2463
11
5.42721
21
-3.24679
0
LINE
8
BLACK
6
CONTINUOUS
10
5.42721
20
-3.24679
11
5.41323
21
-3.24572
0
LINE
8
BLACK
6
CONTINUOUS
10
5.41323
20
-3.24572
11
5.39946
21
-3.24309
0
LINE
8
BLACK
6
CONTINUOUS
10
5.39946
20
-3.24309
11
5.38606
21
-3.23894
0
LINE
8
BLACK
6
CONTINUOUS
10
5.38606
20
-3.23894
11
5.37321
21
-3.23333
0
LINE
8
BLACK
6
CONTINUOUS
10
5.37321
20
-3.23333
11
5.36107
21
-3.22632
0
LINE
8
BLACK
6
CONTINUOUS
10
5.36107
20
-3.22632
11
5.34978
21
-3.218
0
LINE
8
BLACK
6
CONTINUOUS
10
5.34978
20
-3.218
11
5.33949
21
-3.20847
0
LINE
8
BLACK
6
CONTINUOUS
10
5.33949
20
-3.20847
11
5.33033
21
-3.19785
0
LINE
8
BLACK
6
CONTINUOUS
10
5.33033
20
-3.19785
11
5.32241
21
-3.18628
0
LINE
8
BLACK
6
CONTINUOUS
10
5.32241
20
-3.18628
11
5.31583
21
-3.1739
0
LINE
8
BLACK
6
CONTINUOUS
10
5.31583
20
-3.1739
11
5.31066
21
-3.16087
0
LINE
8
BLACK
6
CONTINUOUS
10
5.31066
20
-3.16087
11
5.30699
21
-3.14733
0
LINE
8
BLACK
6
CONTINUOUS
10
5.30699
20
-3.14733
11
5.30484
21
-3.13348
0
LINE
8
BLACK
6
CONTINUOUS
10
5.30484
20
-3.13348
11
5.30425
21
-3.11947
0
LINE
8
BLACK
6
CONTINUOUS
10
5.30425
20
-3.11947
11
5.30438
21
-3.11774
0
LINE
8
BLACK
6
CONTINUOUS
10
5.30438
20
-3.11774
11
5.30523
21
-3.10548
0
LINE
8
BLACK
6
CONTINUOUS
10
5.30523
20
-3.10548
11
5.30776
21
-3.09169
0
LINE
8
BLACK
6
CONTINUOUS
10
5.32124
20
-3.14312
11
5.32448
21
-3.15546
0
LINE
8
BLACK
6
CONTINUOUS
10
5.32448
20
-3.15546
11
5.32911
21
-3.16734
0
LINE
8
BLACK
6
CONTINUOUS
10
5.32911
20
-3.16734
11
5.33508
21
-3.17861
0
LINE
8
BLACK
6
CONTINUOUS
10
5.33508
20
-3.17861
11
5.3423
21
-3.18912
0
LINE
8
BLACK
6
CONTINUOUS
10
5.3423
20
-3.18912
11
5.35069
21
-3.19873
0
LINE
8
BLACK
6
CONTINUOUS
10
5.35069
20
-3.19873
11
5.36012
21
-3.20732
0
LINE
8
BLACK
6
CONTINUOUS
10
5.36012
20
-3.20732
11
5.37048
21
-3.21476
0
LINE
8
BLACK
6
CONTINUOUS
10
5.37048
20
-3.21476
11
5.38162
21
-3.22096
0
LINE
8
BLACK
6
CONTINUOUS
10
5.38162
20
-3.22096
11
5.39341
21
-3.22585
0
LINE
8
BLACK
6
CONTINUOUS
10
5.39341
20
-3.22585
11
5.40567
21
-3.22934
0
LINE
8
BLACK
6
CONTINUOUS
10
5.40567
20
-3.22934
11
5.41826
21
-3.2314
0
LINE
8
BLACK
6
CONTINUOUS
10
5.41826
20
-3.2314
11
5.431
21
-3.232
0
LINE
8
BLACK
6
CONTINUOUS
10
5.431
20
-3.232
11
5.44373
21
-3.23113
0
LINE
8
BLACK
6
CONTINUOUS
10
5.44373
20
-3.23113
11
5.45627
21
-3.22881
0
LINE
8
BLACK
6
CONTINUOUS
10
5.45627
20
-3.22881
11
5.46846
21
-3.22506
0
LINE
8
BLACK
6
CONTINUOUS
10
5.46846
20
-3.22506
11
5.48014
21
-3.21993
0
LINE
8
BLACK
6
CONTINUOUS
10
5.48014
20
-3.21993
11
5.49115
21
-3.2135
0
LINE
8
BLACK
6
CONTINUOUS
10
5.49115
20
-3.2135
11
5.50135
21
-3.20584
0
LINE
8
BLACK
6
CONTINUOUS
10
5.50135
20
-3.20584
11
5.5106
21
-3.19706
0
LINE
8
BLACK
6
CONTINUOUS
10
5.5106
20
-3.19706
11
5.51878
21
-3.18727
0
LINE
8
BLACK
6
CONTINUOUS
10
5.51878
20
-3.18727
11
5.52579
21
-3.17661
0
LINE
8
BLACK
6
CONTINUOUS
10
5.52579
20
-3.17661
11
5.53152
21
-3.16522
0
LINE
8
BLACK
6
CONTINUOUS
10
5.53152
20
-3.16522
11
5.5359
21
-3.15324
0
LINE
8
BLACK
6
CONTINUOUS
10
5.5359
20
-3.15324
11
5.53888
21
-3.14084
0
LINE
8
BLACK
6
CONTINUOUS
10
5.53888
20
-3.14084
11
5.54041
21
-3.12818
0
LINE
8
BLACK
6
CONTINUOUS
10
5.54041
20
-3.12818
11
5.54063
21
-3.12122
0
LINE
8
BLACK
6
CONTINUOUS
10
5.54063
20
-3.12122
11
5.5399
21
-3.10849
0
LINE
8
BLACK
6
CONTINUOUS
10
5.5399
20
-3.10849
11
5.5377
21
-3.09592
0
LINE
8
BLACK
6
CONTINUOUS
10
5.5377
20
-3.09592
11
5.53408
21
-3.08369
0
LINE
8
BLACK
6
CONTINUOUS
10
5.53408
20
-3.08369
11
5.52908
21
-3.07196
0
LINE
8
BLACK
6
CONTINUOUS
10
5.52908
20
-3.07196
11
5.52276
21
-3.06088
0
LINE
8
BLACK
6
CONTINUOUS
10
5.52276
20
-3.06088
11
5.51521
21
-3.0506
0
LINE
8
BLACK
6
CONTINUOUS
10
5.51521
20
-3.0506
11
5.50652
21
-3.04126
0
LINE
8
BLACK
6
CONTINUOUS
10
5.50652
20
-3.04126
11
5.49682
21
-3.03297
0
LINE
8
BLACK
6
CONTINUOUS
10
5.49682
20
-3.03297
11
5.48624
21
-3.02586
0
LINE
8
BLACK
6
CONTINUOUS
10
5.48624
20
-3.02586
11
5.4749
21
-3.02001
0
LINE
8
BLACK
6
CONTINUOUS
10
5.4749
20
-3.02001
11
5.46297
21
-3.0155
0
LINE
8
BLACK
6
CONTINUOUS
10
5.46297
20
-3.0155
11
5.4506
21
-3.0124
0
LINE
8
BLACK
6
CONTINUOUS
10
5.4506
20
-3.0124
11
5.43796
21
-3.01073
0
LINE
8
BLACK
6
CONTINUOUS
10
5.43796
20
-3.01073
11
5.4252
21
-3.01053
0
LINE
8
BLACK
6
CONTINUOUS
10
5.4252
20
-3.01053
11
5.41251
21
-3.0118
0
LINE
8
BLACK
6
CONTINUOUS
10
5.41251
20
-3.0118
11
5.40005
21
-3.01451
0
LINE
8
BLACK
6
CONTINUOUS
10
5.40005
20
-3.01451
11
5.38798
21
-3.01865
0
LINE
8
BLACK
6
CONTINUOUS
10
5.38798
20
-3.01865
11
5.37647
21
-3.02414
0
LINE
8
BLACK
6
CONTINUOUS
10
5.37647
20
-3.02414
11
5.36567
21
-3.03091
0
LINE
8
BLACK
6
CONTINUOUS
10
5.36567
20
-3.03091
11
5.35571
21
-3.03889
0
LINE
8
BLACK
6
CONTINUOUS
10
5.35571
20
-3.03889
11
5.34674
21
-3.04796
0
LINE
8
BLACK
6
CONTINUOUS
10
5.34674
20
-3.04796
11
5.33887
21
-3.05799
0
LINE
8
BLACK
6
CONTINUOUS
10
5.33887
20
-3.05799
11
5.33221
21
-3.06887
0
LINE
8
BLACK
6
CONTINUOUS
10
5.33221
20
-3.06887
11
5.32683
21
-3.08044
0
LINE
8
BLACK
6
CONTINUOUS
10
5.32683
20
-3.08044
11
5.32283
21
-3.09255
0
LINE
8
BLACK
6
CONTINUOUS
10
5.32283
20
-3.09255
11
5.32024
21
-3.10504
0
LINE
8
BLACK
6
CONTINUOUS
10
5.32024
20
-3.10504
11
5.31911
21
-3.11774
0
LINE
8
BLACK
6
CONTINUOUS
10
5.31911
20
-3.11774
11
5.31944
21
-3.13049
0
LINE
8
BLACK
6
CONTINUOUS
10
5.31944
20
-3.13049
11
5.32124
21
-3.14312
0
LINE
8
BLACK
6
CONTINUOUS
10
6.90776
20
-3.09169
11
6.91182
21
-3.07826
0
LINE
8
BLACK
6
CONTINUOUS
10
6.91182
20
-3.07826
11
6.91734
21
-3.06537
0
LINE
8
BLACK
6
CONTINUOUS
10
6.91734
20
-3.06537
11
6.92427
21
-3.05318
0
LINE
8
BLACK
6
CONTINUOUS
10
6.92427
20
-3.05318
11
6.93251
21
-3.04184
0
LINE
8
BLACK
6
CONTINUOUS
10
6.93251
20
-3.04184
11
6.94196
21
-3.03148
0
LINE
8
BLACK
6
CONTINUOUS
10
6.94196
20
-3.03148
11
6.95252
21
-3.02225
0
LINE
8
BLACK
6
CONTINUOUS
10
6.95252
20
-3.02225
11
6.96403
21
-3.01424
0
LINE
8
BLACK
6
CONTINUOUS
10
6.96403
20
-3.01424
11
6.97636
21
-3.00757
0
LINE
8
BLACK
6
CONTINUOUS
10
6.97636
20
-3.00757
11
6.98937
21
-3.00232
0
LINE
8
BLACK
6
CONTINUOUS
10
6.98937
20
-3.00232
11
7.00287
21
-2.99855
0
LINE
8
BLACK
6
CONTINUOUS
10
7.00287
20
-2.99855
11
7.01671
21
-2.99631
0
LINE
8
BLACK
6
CONTINUOUS
10
7.01671
20
-2.99631
11
7.03072
21
-2.99562
0
LINE
8
BLACK
6
CONTINUOUS
10
7.03072
20
-2.99562
11
7.04471
21
-2.9965
0
LINE
8
BLACK
6
CONTINUOUS
10
7.04471
20
-2.9965
11
7.05852
21
-2.99894
0
LINE
8
BLACK
6
CONTINUOUS
10
7.05852
20
-2.99894
11
7.07198
21
-3.0029
0
LINE
8
BLACK
6
CONTINUOUS
10
7.07198
20
-3.0029
11
7.0849
21
-3.00833
0
LINE
8
BLACK
6
CONTINUOUS
10
7.0849
20
-3.00833
11
7.09714
21
-3.01517
0
LINE
8
BLACK
6
CONTINUOUS
10
7.09714
20
-3.01517
11
7.10854
21
-3.02334
0
LINE
8
BLACK
6
CONTINUOUS
10
7.10854
20
-3.02334
11
7.11896
21
-3.03272
0
LINE
8
BLACK
6
CONTINUOUS
10
7.11896
20
-3.03272
11
7.12827
21
-3.0432
0
LINE
8
BLACK
6
CONTINUOUS
10
7.12827
20
-3.0432
11
7.13636
21
-3.05466
0
LINE
8
BLACK
6
CONTINUOUS
10
7.13636
20
-3.05466
11
7.14311
21
-3.06695
0
LINE
8
BLACK
6
CONTINUOUS
10
7.14311
20
-3.06695
11
7.14846
21
-3.07991
0
LINE
8
BLACK
6
CONTINUOUS
10
7.14846
20
-3.07991
11
7.15232
21
-3.09339
0
LINE
8
BLACK
6
CONTINUOUS
10
7.15232
20
-3.09339
11
7.15466
21
-3.10722
0
LINE
8
BLACK
6
CONTINUOUS
10
7.15466
20
-3.10722
11
7.15544
21
-3.12122
0
LINE
8
BLACK
6
CONTINUOUS
10
7.15544
20
-3.12122
11
7.15539
21
-3.12473
0
LINE
8
BLACK
6
CONTINUOUS
10
7.15539
20
-3.12473
11
7.15422
21
-3.1387
0
LINE
8
BLACK
6
CONTINUOUS
10
7.15422
20
-3.1387
11
7.1515
21
-3.15246
0
LINE
8
BLACK
6
CONTINUOUS
10
7.1515
20
-3.15246
11
7.14726
21
-3.16582
0
LINE
8
BLACK
6
CONTINUOUS
10
7.14726
20
-3.16582
11
7.14155
21
-3.17863
0
LINE
8
BLACK
6
CONTINUOUS
10
7.14155
20
-3.17863
11
7.13446
21
-3.19073
0
LINE
8
BLACK
6
CONTINUOUS
10
7.13446
20
-3.19073
11
7.12606
21
-3.20195
0
LINE
8
BLACK
6
CONTINUOUS
10
7.12606
20
-3.20195
11
7.11646
21
-3.21218
0
LINE
8
BLACK
6
CONTINUOUS
10
7.11646
20
-3.21218
11
7.10578
21
-3.22126
0
LINE
8
BLACK
6
CONTINUOUS
10
7.10578
20
-3.22126
11
7.09416
21
-3.22911
0
LINE
8
BLACK
6
CONTINUOUS
10
7.09416
20
-3.22911
11
7.08173
21
-3.2356
0
LINE
8
BLACK
6
CONTINUOUS
10
7.08173
20
-3.2356
11
7.06866
21
-3.24067
0
LINE
8
BLACK
6
CONTINUOUS
10
7.06866
20
-3.24067
11
7.0551
21
-3.24426
0
LINE
8
BLACK
6
CONTINUOUS
10
7.0551
20
-3.24426
11
7.04123
21
-3.2463
0
LINE
8
BLACK
6
CONTINUOUS
10
7.04123
20
-3.2463
11
7.02721
21
-3.24679
0
LINE
8
BLACK
6
CONTINUOUS
10
7.02721
20
-3.24679
11
7.01323
21
-3.24572
0
LINE
8
BLACK
6
CONTINUOUS
10
7.01323
20
-3.24572
11
6.99946
21
-3.24309
0
LINE
8
BLACK
6
CONTINUOUS
10
6.99946
20
-3.24309
11
6.98606
21
-3.23894
0
LINE
8
BLACK
6
CONTINUOUS
10
6.98606
20
-3.23894
11
6.97321
21
-3.23333
0
LINE
8
BLACK
6
CONTINUOUS
10
6.97321
20
-3.23333
11
6.96107
21
-3.22632
0
LINE
8
BLACK
6
CONTINUOUS
10
6.96107
20
-3.22632
11
6.94978
21
-3.218
0
LINE
8
BLACK
6
CONTINUOUS
10
6.94978
20
-3.218
11
6.93949
21
-3.20847
0
LINE
8
BLACK
6
CONTINUOUS
10
6.93949
20
-3.20847
11
6.93033
21
-3.19785
0
LINE
8
BLACK
6
CONTINUOUS
10
6.93033
20
-3.19785
11
6.92241
21
-3.18628
0
LINE
8
BLACK
6
CONTINUOUS
10
6.92241
20
-3.18628
11
6.91583
21
-3.1739
0
LINE
8
BLACK
6
CONTINUOUS
10
6.91583
20
-3.1739
11
6.91066
21
-3.16087
0
LINE
8
BLACK
6
CONTINUOUS
10
6.91066
20
-3.16087
11
6.90699
21
-3.14733
0
LINE
8
BLACK
6
CONTINUOUS
10
6.90699
20
-3.14733
11
6.90484
21
-3.13348
0
LINE
8
BLACK
6
CONTINUOUS
10
6.90484
20
-3.13348
11
6.90425
21
-3.11947
0
LINE
8
BLACK
6
CONTINUOUS
10
6.90425
20
-3.11947
11
6.90438
21
-3.11774
0
LINE
8
BLACK
6
CONTINUOUS
10
6.90438
20
-3.11774
11
6.90523
21
-3.10548
0
LINE
8
BLACK
6
CONTINUOUS
10
6.90523
20
-3.10548
11
6.90776
21
-3.09169
0
LINE
8
BLACK
6
CONTINUOUS
10
6.92124
20
-3.14312
11
6.92448
21
-3.15546
0
LINE
8
BLACK
6
CONTINUOUS
10
6.92448
20
-3.15546
11
6.92911
21
-3.16734
0
LINE
8
BLACK
6
CONTINUOUS
10
6.92911
20
-3.16734
11
6.93508
21
-3.17861
0
LINE
8
BLACK
6
CONTINUOUS
10
6.93508
20
-3.17861
11
6.9423
21
-3.18912
0
LINE
8
BLACK
6
CONTINUOUS
10
6.9423
20
-3.18912
11
6.95069
21
-3.19873
0
LINE
8
BLACK
6
CONTINUOUS
10
6.95069
20
-3.19873
11
6.96012
21
-3.20732
0
LINE
8
BLACK
6
CONTINUOUS
10
6.96012
20
-3.20732
11
6.97048
21
-3.21476
0
LINE
8
BLACK
6
CONTINUOUS
10
6.97048
20
-3.21476
11
6.98162
21
-3.22096
0
LINE
8
BLACK
6
CONTINUOUS
10
6.98162
20
-3.22096
11
6.99341
21
-3.22585
0
LINE
8
BLACK
6
CONTINUOUS
10
6.99341
20
-3.22585
11
7.00568
21
-3.22934
0
LINE
8
BLACK
6
CONTINUOUS
10
7.00568
20
-3.22934
11
7.01826
21
-3.2314
0
LINE
8
BLACK
6
CONTINUOUS
10
7.01826
20
-3.2314
11
7.031
21
-3.232
0
LINE
8
BLACK
6
CONTINUOUS
10
7.031
20
-3.232
11
7.04373
21
-3.23113
0
LINE
8
BLACK
6
CONTINUOUS
10
7.04373
20
-3.23113
11
7.05627
21
-3.22881
0
LINE
8
BLACK
6
CONTINUOUS
10
7.05627
20
-3.22881
11
7.06846
21
-3.22506
0
LINE
8
BLACK
6
CONTINUOUS
10
7.06846
20
-3.22506
11
7.08014
21
-3.21993
0
LINE
8
BLACK
6
CONTINUOUS
10
7.08014
20
-3.21993
11
7.09115
21
-3.2135
0
LINE
8
BLACK
6
CONTINUOUS
10
7.09115
20
-3.2135
11
7.10135
21
-3.20584
0
LINE
8
BLACK
6
CONTINUOUS
10
7.10135
20
-3.20584
11
7.1106
21
-3.19706
0
LINE
8
BLACK
6
CONTINUOUS
10
7.1106
20
-3.19706
11
7.11878
21
-3.18727
0
LINE
8
BLACK
6
CONTINUOUS
10
7.11878
20
-3.18727
11
7.12579
21
-3.17661
0
LINE
8
BLACK
6
CONTINUOUS
10
7.12579
20
-3.17661
11
7.13152
21
-3.16522
0
LINE
8
BLACK
6
CONTINUOUS
10
7.13152
20
-3.16522
11
7.1359
21
-3.15324
0
LINE
8
BLACK
6
CONTINUOUS
10
7.1359
20
-3.15324
11
7.13888
21
-3.14084
0
LINE
8
BLACK
6
CONTINUOUS
10
7.13888
20
-3.14084
11
7.14041
21
-3.12818
0
LINE
8
BLACK
6
CONTINUOUS
10
7.14041
20
-3.12818
11
7.14063
21
-3.12122
0
LINE
8
BLACK
6
CONTINUOUS
10
7.14063
20
-3.12122
11
7.1399
21
-3.10849
0
LINE
8
BLACK
6
CONTINUOUS
10
7.1399
20
-3.10849
11
7.1377
21
-3.09592
0
LINE
8
BLACK
6
CONTINUOUS
10
7.1377
20
-3.09592
11
7.13408
21
-3.08369
0
LINE
8
BLACK
6
CONTINUOUS
10
7.13408
20
-3.08369
11
7.12908
21
-3.07196
0
LINE
8
BLACK
6
CONTINUOUS
10
7.12908
20
-3.07196
11
7.12276
21
-3.06088
0
LINE
8
BLACK
6
CONTINUOUS
10
7.12276
20
-3.06088
11
7.11521
21
-3.0506
0
LINE
8
BLACK
6
CONTINUOUS
10
7.11521
20
-3.0506
11
7.10652
21
-3.04126
0
LINE
8
BLACK
6
CONTINUOUS
10
7.10652
20
-3.04126
11
7.09682
21
-3.03297
0
LINE
8
BLACK
6
CONTINUOUS
10
7.09682
20
-3.03297
11
7.08624
21
-3.02586
0
LINE
8
BLACK
6
CONTINUOUS
10
7.08624
20
-3.02586
11
7.0749
21
-3.02001
0
LINE
8
BLACK
6
CONTINUOUS
10
7.0749
20
-3.02001
11
7.06297
21
-3.0155
0
LINE
8
BLACK
6
CONTINUOUS
10
7.06297
20
-3.0155
11
7.0506
21
-3.0124
0
LINE
8
BLACK
6
CONTINUOUS
10
7.0506
20
-3.0124
11
7.03796
21
-3.01073
0
LINE
8
BLACK
6
CONTINUOUS
10
7.03796
20
-3.01073
11
7.0252
21
-3.01053
0
LINE
8
BLACK
6
CONTINUOUS
10
7.0252
20
-3.01053
11
7.01251
21
-3.0118
0
LINE
8
BLACK
6
CONTINUOUS
10
7.01251
20
-3.0118
11
7.00005
21
-3.01451
0
LINE
8
BLACK
6
CONTINUOUS
10
7.00005
20
-3.01451
11
6.98798
21
-3.01865
0
LINE
8
BLACK
6
CONTINUOUS
10
6.98798
20
-3.01865
11
6.97647
21
-3.02414
0
LINE
8
BLACK
6
CONTINUOUS
10
6.97647
20
-3.02414
11
6.96567
21
-3.03091
0
LINE
8
BLACK
6
CONTINUOUS
10
6.96567
20
-3.03091
11
6.95571
21
-3.03889
0
LINE
8
BLACK
6
CONTINUOUS
10
6.95571
20
-3.03889
11
6.94674
21
-3.04796
0
LINE
8
BLACK
6
CONTINUOUS
10
6.94674
20
-3.04796
11
6.93887
21
-3.05799
0
LINE
8
BLACK
6
CONTINUOUS
10
6.93887
20
-3.05799
11
6.93221
21
-3.06887
0
LINE
8
BLACK
6
CONTINUOUS
10
6.93221
20
-3.06887
11
6.92683
21
-3.08044
0
LINE
8
BLACK
6
CONTINUOUS
10
6.92683
20
-3.08044
11
6.92283
21
-3.09255
0
LINE
8
BLACK
6
CONTINUOUS
10
6.92283
20
-3.09255
11
6.92024
21
-3.10504
0
LINE
8
BLACK
6
CONTINUOUS
10
6.92024
20
-3.10504
11
6.91911
21
-3.11774
0
LINE
8
BLACK
6
CONTINUOUS
10
6.91911
20
-3.11774
11
6.91944
21
-3.13049
0
LINE
8
BLACK
6
CONTINUOUS
10
6.91944
20
-3.13049
11
6.92124
21
-3.14312
  0
ENDSEC
  0
EOF
