  0
SECTION
  2
HEADER
  9
$ANGBASE
  50
0.0
  9
$ANGDIR
  70
1
  9
$MEASUREMENT
  70
0
  0
ENDSEC
  0
SECTION
  2
TABLES
  0
TABLE
  2
LTYPE
  70
4
  0
LTYPE
  5
40F
  2
CONTINUOUS
  70
0
  3
Solid line
  72
65
  73
0
  40
0.0
  0
LTYPE
  5
410
  2
DASHDOT
 70
0
  3
Dash Dot ____ _ ____ _
 72
65
 73
4
 40
2.0
 49
1.25
 49
-0.25
 49
0.25
 49
-0.25
  0
LTYPE
  5
411
  2
DASHED
 70
0
  3
Dashed __ __ __ __ __
 72
65
 73
2
 40
0.75
 49
0.5
 49
-0.25
  0
LTYPE
  5
43B
  2
DOTTED
 70
0
  3
Dotted .  .  .  .
 72
65
 73
2
 40
0.2
 49
0.0
 49
-0.2
  0
ENDTAB
  0
TABLE
  2
STYLE
  70
4
  0
STYLE
  2
KICAD
  70
0
  40
0
  41
1
  42
1
  50
0
  71
0
  3
isocp.shx
  0
STYLE
  2
KICADB
  70
0
  40
0
  41
1
  42
1
  50
0
  71
0
  3
isocp.shx
  0
STYLE
  2
KICADI
  70
0
  40
0
  41
1
  42
1
  50
15
  71
0
  3
isocp.shx
  0
STYLE
  2
KICADBI
  70
0
  40
0
  41
1
  42
1
  50
15
  71
0
  3
isocp.shx
  0
ENDTAB
  0
TABLE
  2
LAYER
  70
1
  0
LAYER
  2
BLACK
  70
0
  62
7
  6
CONTINUOUS
  0
ENDTAB
  0
ENDSEC
  0
SECTION
  2
ENTITIES
0
LINE
8
BLACK
6
CONTINUOUS
10
6.65486
20
-3.98395
11
6.65741
21
-3.98565
0
LINE
8
BLACK
6
CONTINUOUS
10
6.65741
20
-3.98565
11
6.65912
21
-3.98821
0
LINE
8
BLACK
6
CONTINUOUS
10
6.65912
20
-3.98821
11
6.65972
21
-3.99122
0
LINE
8
BLACK
6
CONTINUOUS
10
6.65972
20
-3.99122
11
6.65972
21
-4.05122
0
LINE
8
BLACK
6
CONTINUOUS
10
6.65972
20
-4.05122
11
6.65912
21
-4.05423
0
LINE
8
BLACK
6
CONTINUOUS
10
6.65912
20
-4.05423
11
6.65741
21
-4.05679
0
LINE
8
BLACK
6
CONTINUOUS
10
6.65741
20
-4.05679
11
6.65486
21
-4.0585
0
LINE
8
BLACK
6
CONTINUOUS
10
6.65486
20
-4.0585
11
6.65184
21
-4.05909
0
LINE
8
BLACK
6
CONTINUOUS
10
6.65184
20
-4.05909
11
6.59184
21
-4.05909
0
LINE
8
BLACK
6
CONTINUOUS
10
6.59184
20
-4.05909
11
6.58883
21
-4.0585
0
LINE
8
BLACK
6
CONTINUOUS
10
6.58883
20
-4.0585
11
6.58627
21
-4.05679
0
LINE
8
BLACK
6
CONTINUOUS
10
6.58627
20
-4.05679
11
6.58457
21
-4.05423
0
LINE
8
BLACK
6
CONTINUOUS
10
6.58457
20
-4.05423
11
6.58397
21
-4.05122
0
LINE
8
BLACK
6
CONTINUOUS
10
6.58397
20
-4.05122
11
6.58397
21
-3.99122
0
LINE
8
BLACK
6
CONTINUOUS
10
6.58397
20
-3.99122
11
6.58457
21
-3.98821
0
LINE
8
BLACK
6
CONTINUOUS
10
6.58457
20
-3.98821
11
6.58627
21
-3.98565
0
LINE
8
BLACK
6
CONTINUOUS
10
6.58627
20
-3.98565
11
6.58883
21
-3.98395
0
LINE
8
BLACK
6
CONTINUOUS
10
6.58883
20
-3.98395
11
6.59184
21
-3.98335
0
LINE
8
BLACK
6
CONTINUOUS
10
6.59184
20
-3.98335
11
6.65184
21
-3.98335
0
LINE
8
BLACK
6
CONTINUOUS
10
6.65184
20
-3.98335
11
6.65486
21
-3.98395
0
LINE
8
BLACK
6
CONTINUOUS
10
6.55486
20
-3.98395
11
6.55741
21
-3.98565
0
LINE
8
BLACK
6
CONTINUOUS
10
6.55741
20
-3.98565
11
6.55912
21
-3.98821
0
LINE
8
BLACK
6
CONTINUOUS
10
6.55912
20
-3.98821
11
6.55972
21
-3.99122
0
LINE
8
BLACK
6
CONTINUOUS
10
6.55972
20
-3.99122
11
6.55972
21
-4.05122
0
LINE
8
BLACK
6
CONTINUOUS
10
6.55972
20
-4.05122
11
6.55912
21
-4.05423
0
LINE
8
BLACK
6
CONTINUOUS
10
6.55912
20
-4.05423
11
6.55741
21
-4.05679
0
LINE
8
BLACK
6
CONTINUOUS
10
6.55741
20
-4.05679
11
6.55486
21
-4.0585
0
LINE
8
BLACK
6
CONTINUOUS
10
6.55486
20
-4.0585
11
6.55184
21
-4.05909
0
LINE
8
BLACK
6
CONTINUOUS
10
6.55184
20
-4.05909
11
6.49184
21
-4.05909
0
LINE
8
BLACK
6
CONTINUOUS
10
6.49184
20
-4.05909
11
6.48883
21
-4.0585
0
LINE
8
BLACK
6
CONTINUOUS
10
6.48883
20
-4.0585
11
6.48627
21
-4.05679
0
LINE
8
BLACK
6
CONTINUOUS
10
6.48627
20
-4.05679
11
6.48457
21
-4.05423
0
LINE
8
BLACK
6
CONTINUOUS
10
6.48457
20
-4.05423
11
6.48397
21
-4.05122
0
LINE
8
BLACK
6
CONTINUOUS
10
6.48397
20
-4.05122
11
6.48397
21
-3.99122
0
LINE
8
BLACK
6
CONTINUOUS
10
6.48397
20
-3.99122
11
6.48457
21
-3.98821
0
LINE
8
BLACK
6
CONTINUOUS
10
6.48457
20
-3.98821
11
6.48627
21
-3.98565
0
LINE
8
BLACK
6
CONTINUOUS
10
6.48627
20
-3.98565
11
6.48883
21
-3.98395
0
LINE
8
BLACK
6
CONTINUOUS
10
6.48883
20
-3.98395
11
6.49184
21
-3.98335
0
LINE
8
BLACK
6
CONTINUOUS
10
6.49184
20
-3.98335
11
6.55184
21
-3.98335
0
LINE
8
BLACK
6
CONTINUOUS
10
6.55184
20
-3.98335
11
6.55486
21
-3.98395
0
LINE
8
BLACK
6
CONTINUOUS
10
6.45486
20
-3.98395
11
6.45741
21
-3.98565
0
LINE
8
BLACK
6
CONTINUOUS
10
6.45741
20
-3.98565
11
6.45912
21
-3.98821
0
LINE
8
BLACK
6
CONTINUOUS
10
6.45912
20
-3.98821
11
6.45972
21
-3.99122
0
LINE
8
BLACK
6
CONTINUOUS
10
6.45972
20
-3.99122
11
6.45972
21
-4.05122
0
LINE
8
BLACK
6
CONTINUOUS
10
6.45972
20
-4.05122
11
6.45912
21
-4.05423
0
LINE
8
BLACK
6
CONTINUOUS
10
6.45912
20
-4.05423
11
6.45741
21
-4.05679
0
LINE
8
BLACK
6
CONTINUOUS
10
6.45741
20
-4.05679
11
6.45486
21
-4.0585
0
LINE
8
BLACK
6
CONTINUOUS
10
6.45486
20
-4.0585
11
6.45184
21
-4.05909
0
LINE
8
BLACK
6
CONTINUOUS
10
6.45184
20
-4.05909
11
6.39184
21
-4.05909
0
LINE
8
BLACK
6
CONTINUOUS
10
6.39184
20
-4.05909
11
6.38883
21
-4.0585
0
LINE
8
BLACK
6
CONTINUOUS
10
6.38883
20
-4.0585
11
6.38627
21
-4.05679
0
LINE
8
BLACK
6
CONTINUOUS
10
6.38627
20
-4.05679
11
6.38457
21
-4.05423
0
LINE
8
BLACK
6
CONTINUOUS
10
6.38457
20
-4.05423
11
6.38397
21
-4.05122
0
LINE
8
BLACK
6
CONTINUOUS
10
6.38397
20
-4.05122
11
6.38397
21
-3.99122
0
LINE
8
BLACK
6
CONTINUOUS
10
6.38397
20
-3.99122
11
6.38457
21
-3.98821
0
LINE
8
BLACK
6
CONTINUOUS
10
6.38457
20
-3.98821
11
6.38627
21
-3.98565
0
LINE
8
BLACK
6
CONTINUOUS
10
6.38627
20
-3.98565
11
6.38883
21
-3.98395
0
LINE
8
BLACK
6
CONTINUOUS
10
6.38883
20
-3.98395
11
6.39184
21
-3.98335
0
LINE
8
BLACK
6
CONTINUOUS
10
6.39184
20
-3.98335
11
6.45184
21
-3.98335
0
LINE
8
BLACK
6
CONTINUOUS
10
6.45184
20
-3.98335
11
6.45486
21
-3.98395
0
LINE
8
BLACK
6
CONTINUOUS
10
6.35486
20
-3.98395
11
6.35741
21
-3.98565
0
LINE
8
BLACK
6
CONTINUOUS
10
6.35741
20
-3.98565
11
6.35912
21
-3.98821
0
LINE
8
BLACK
6
CONTINUOUS
10
6.35912
20
-3.98821
11
6.35972
21
-3.99122
0
LINE
8
BLACK
6
CONTINUOUS
10
6.35972
20
-3.99122
11
6.35972
21
-4.05122
0
LINE
8
BLACK
6
CONTINUOUS
10
6.35972
20
-4.05122
11
6.35912
21
-4.05423
0
LINE
8
BLACK
6
CONTINUOUS
10
6.35912
20
-4.05423
11
6.35741
21
-4.05679
0
LINE
8
BLACK
6
CONTINUOUS
10
6.35741
20
-4.05679
11
6.35486
21
-4.0585
0
LINE
8
BLACK
6
CONTINUOUS
10
6.35486
20
-4.0585
11
6.35184
21
-4.05909
0
LINE
8
BLACK
6
CONTINUOUS
10
6.35184
20
-4.05909
11
6.29184
21
-4.05909
0
LINE
8
BLACK
6
CONTINUOUS
10
6.29184
20
-4.05909
11
6.28883
21
-4.0585
0
LINE
8
BLACK
6
CONTINUOUS
10
6.28883
20
-4.0585
11
6.28627
21
-4.05679
0
LINE
8
BLACK
6
CONTINUOUS
10
6.28627
20
-4.05679
11
6.28457
21
-4.05423
0
LINE
8
BLACK
6
CONTINUOUS
10
6.28457
20
-4.05423
11
6.28397
21
-4.05122
0
LINE
8
BLACK
6
CONTINUOUS
10
6.28397
20
-4.05122
11
6.28397
21
-3.99122
0
LINE
8
BLACK
6
CONTINUOUS
10
6.28397
20
-3.99122
11
6.28457
21
-3.98821
0
LINE
8
BLACK
6
CONTINUOUS
10
6.28457
20
-3.98821
11
6.28627
21
-3.98565
0
LINE
8
BLACK
6
CONTINUOUS
10
6.28627
20
-3.98565
11
6.28883
21
-3.98395
0
LINE
8
BLACK
6
CONTINUOUS
10
6.28883
20
-3.98395
11
6.29184
21
-3.98335
0
LINE
8
BLACK
6
CONTINUOUS
10
6.29184
20
-3.98335
11
6.35184
21
-3.98335
0
LINE
8
BLACK
6
CONTINUOUS
10
6.35184
20
-3.98335
11
6.35486
21
-3.98395
0
LINE
8
BLACK
6
CONTINUOUS
10
6.25486
20
-3.98395
11
6.25741
21
-3.98565
0
LINE
8
BLACK
6
CONTINUOUS
10
6.25741
20
-3.98565
11
6.25912
21
-3.98821
0
LINE
8
BLACK
6
CONTINUOUS
10
6.25912
20
-3.98821
11
6.25972
21
-3.99122
0
LINE
8
BLACK
6
CONTINUOUS
10
6.25972
20
-3.99122
11
6.25972
21
-4.05122
0
LINE
8
BLACK
6
CONTINUOUS
10
6.25972
20
-4.05122
11
6.25912
21
-4.05423
0
LINE
8
BLACK
6
CONTINUOUS
10
6.25912
20
-4.05423
11
6.25741
21
-4.05679
0
LINE
8
BLACK
6
CONTINUOUS
10
6.25741
20
-4.05679
11
6.25486
21
-4.0585
0
LINE
8
BLACK
6
CONTINUOUS
10
6.25486
20
-4.0585
11
6.25184
21
-4.05909
0
LINE
8
BLACK
6
CONTINUOUS
10
6.25184
20
-4.05909
11
6.19184
21
-4.05909
0
LINE
8
BLACK
6
CONTINUOUS
10
6.19184
20
-4.05909
11
6.18883
21
-4.0585
0
LINE
8
BLACK
6
CONTINUOUS
10
6.18883
20
-4.0585
11
6.18627
21
-4.05679
0
LINE
8
BLACK
6
CONTINUOUS
10
6.18627
20
-4.05679
11
6.18457
21
-4.05423
0
LINE
8
BLACK
6
CONTINUOUS
10
6.18457
20
-4.05423
11
6.18397
21
-4.05122
0
LINE
8
BLACK
6
CONTINUOUS
10
6.18397
20
-4.05122
11
6.18397
21
-3.99122
0
LINE
8
BLACK
6
CONTINUOUS
10
6.18397
20
-3.99122
11
6.18457
21
-3.98821
0
LINE
8
BLACK
6
CONTINUOUS
10
6.18457
20
-3.98821
11
6.18627
21
-3.98565
0
LINE
8
BLACK
6
CONTINUOUS
10
6.18627
20
-3.98565
11
6.18883
21
-3.98395
0
LINE
8
BLACK
6
CONTINUOUS
10
6.18883
20
-3.98395
11
6.19184
21
-3.98335
0
LINE
8
BLACK
6
CONTINUOUS
10
6.19184
20
-3.98335
11
6.25184
21
-3.98335
0
LINE
8
BLACK
6
CONTINUOUS
10
6.25184
20
-3.98335
11
6.25486
21
-3.98395
0
LINE
8
BLACK
6
CONTINUOUS
10
7.04476
20
-3.79612
11
7.05861
21
-3.79856
0
LINE
8
BLACK
6
CONTINUOUS
10
7.05861
20
-3.79856
11
7.0721
21
-3.80254
0
LINE
8
BLACK
6
CONTINUOUS
10
7.0721
20
-3.80254
11
7.08507
21
-3.80799
0
LINE
8
BLACK
6
CONTINUOUS
10
7.08507
20
-3.80799
11
7.09735
21
-3.81485
0
LINE
8
BLACK
6
CONTINUOUS
10
7.09735
20
-3.81485
11
7.10878
21
-3.82304
0
LINE
8
BLACK
6
CONTINUOUS
10
7.10878
20
-3.82304
11
7.11924
21
-3.83245
0
LINE
8
BLACK
6
CONTINUOUS
10
7.11924
20
-3.83245
11
7.12858
21
-3.84297
0
LINE
8
BLACK
6
CONTINUOUS
10
7.12858
20
-3.84297
11
7.13668
21
-3.85446
0
LINE
8
BLACK
6
CONTINUOUS
10
7.13668
20
-3.85446
11
7.14346
21
-3.86678
0
LINE
8
BLACK
6
CONTINUOUS
10
7.14346
20
-3.86678
11
7.14882
21
-3.87979
0
LINE
8
BLACK
6
CONTINUOUS
10
7.14882
20
-3.87979
11
7.1527
21
-3.89331
0
LINE
8
BLACK
6
CONTINUOUS
10
7.1527
20
-3.89331
11
7.15504
21
-3.90718
0
LINE
8
BLACK
6
CONTINUOUS
10
7.15504
20
-3.90718
11
7.15583
21
-3.92122
0
LINE
8
BLACK
6
CONTINUOUS
10
7.15583
20
-3.92122
11
7.15578
21
-3.92474
0
LINE
8
BLACK
6
CONTINUOUS
10
7.15578
20
-3.92474
11
7.1546
21
-3.93875
0
LINE
8
BLACK
6
CONTINUOUS
10
7.1546
20
-3.93875
11
7.15187
21
-3.95255
0
LINE
8
BLACK
6
CONTINUOUS
10
7.15187
20
-3.95255
11
7.14762
21
-3.96596
0
LINE
8
BLACK
6
CONTINUOUS
10
7.14762
20
-3.96596
11
7.14189
21
-3.97881
0
LINE
8
BLACK
6
CONTINUOUS
10
7.14189
20
-3.97881
11
7.13478
21
-3.99094
0
LINE
8
BLACK
6
CONTINUOUS
10
7.13478
20
-3.99094
11
7.12635
21
-4.0022
0
LINE
8
BLACK
6
CONTINUOUS
10
7.12635
20
-4.0022
11
7.11672
21
-4.01245
0
LINE
8
BLACK
6
CONTINUOUS
10
7.11672
20
-4.01245
11
7.10601
21
-4.02157
0
LINE
8
BLACK
6
CONTINUOUS
10
7.10601
20
-4.02157
11
7.09435
21
-4.02944
0
LINE
8
BLACK
6
CONTINUOUS
10
7.09435
20
-4.02944
11
7.08189
21
-4.03595
0
LINE
8
BLACK
6
CONTINUOUS
10
7.08189
20
-4.03595
11
7.06877
21
-4.04104
0
LINE
8
BLACK
6
CONTINUOUS
10
7.06877
20
-4.04104
11
7.05518
21
-4.04463
0
LINE
8
BLACK
6
CONTINUOUS
10
7.05518
20
-4.04463
11
7.04126
21
-4.04669
0
LINE
8
BLACK
6
CONTINUOUS
10
7.04126
20
-4.04669
11
7.0272
21
-4.04718
0
LINE
8
BLACK
6
CONTINUOUS
10
7.0272
20
-4.04718
11
7.01318
21
-4.0461
0
LINE
8
BLACK
6
CONTINUOUS
10
7.01318
20
-4.0461
11
6.99936
21
-4.04346
0
LINE
8
BLACK
6
CONTINUOUS
10
6.99936
20
-4.04346
11
6.98593
21
-4.0393
0
LINE
8
BLACK
6
CONTINUOUS
10
6.98593
20
-4.0393
11
6.97304
21
-4.03367
0
LINE
8
BLACK
6
CONTINUOUS
10
6.97304
20
-4.03367
11
6.96086
21
-4.02664
0
LINE
8
BLACK
6
CONTINUOUS
10
6.96086
20
-4.02664
11
6.94954
21
-4.01829
0
LINE
8
BLACK
6
CONTINUOUS
10
6.94954
20
-4.01829
11
6.93922
21
-4.00874
0
LINE
8
BLACK
6
CONTINUOUS
10
6.93922
20
-4.00874
11
6.93003
21
-3.99809
0
LINE
8
BLACK
6
CONTINUOUS
10
6.93003
20
-3.99809
11
6.92208
21
-3.98648
0
LINE
8
BLACK
6
CONTINUOUS
10
6.92208
20
-3.98648
11
6.91548
21
-3.97406
0
LINE
8
BLACK
6
CONTINUOUS
10
6.91548
20
-3.97406
11
6.9103
21
-3.96099
0
LINE
8
BLACK
6
CONTINUOUS
10
6.9103
20
-3.96099
11
6.90661
21
-3.94741
0
LINE
8
BLACK
6
CONTINUOUS
10
6.90661
20
-3.94741
11
6.90446
21
-3.93351
0
LINE
8
BLACK
6
CONTINUOUS
10
6.90446
20
-3.93351
11
6.90387
21
-3.91946
0
LINE
8
BLACK
6
CONTINUOUS
10
6.90387
20
-3.91946
11
6.90485
21
-3.90543
0
LINE
8
BLACK
6
CONTINUOUS
10
6.90485
20
-3.90543
11
6.90739
21
-3.8916
0
LINE
8
BLACK
6
CONTINUOUS
10
6.90739
20
-3.8916
11
6.91146
21
-3.87813
0
LINE
8
BLACK
6
CONTINUOUS
10
6.91146
20
-3.87813
11
6.917
21
-3.8652
0
LINE
8
BLACK
6
CONTINUOUS
10
6.917
20
-3.8652
11
6.92394
21
-3.85297
0
LINE
8
BLACK
6
CONTINUOUS
10
6.92394
20
-3.85297
11
6.93221
21
-3.84159
0
LINE
8
BLACK
6
CONTINUOUS
10
6.93221
20
-3.84159
11
6.9417
21
-3.83121
0
LINE
8
BLACK
6
CONTINUOUS
10
6.9417
20
-3.83121
11
6.95228
21
-3.82194
0
LINE
8
BLACK
6
CONTINUOUS
10
6.95228
20
-3.82194
11
6.96383
21
-3.81392
0
LINE
8
BLACK
6
CONTINUOUS
10
6.96383
20
-3.81392
11
6.9762
21
-3.80723
0
LINE
8
BLACK
6
CONTINUOUS
10
6.9762
20
-3.80723
11
6.98924
21
-3.80196
0
LINE
8
BLACK
6
CONTINUOUS
10
6.98924
20
-3.80196
11
7.00279
21
-3.79818
0
LINE
8
BLACK
6
CONTINUOUS
10
7.00279
20
-3.79818
11
7.01667
21
-3.79593
0
LINE
8
BLACK
6
CONTINUOUS
10
7.01667
20
-3.79593
11
7.03072
21
-3.79524
0
LINE
8
BLACK
6
CONTINUOUS
10
7.03072
20
-3.79524
11
7.04476
21
-3.79612
0
LINE
8
BLACK
6
CONTINUOUS
10
5.44476
20
-3.79612
11
5.45861
21
-3.79856
0
LINE
8
BLACK
6
CONTINUOUS
10
5.45861
20
-3.79856
11
5.4721
21
-3.80254
0
LINE
8
BLACK
6
CONTINUOUS
10
5.4721
20
-3.80254
11
5.48507
21
-3.80799
0
LINE
8
BLACK
6
CONTINUOUS
10
5.48507
20
-3.80799
11
5.49735
21
-3.81485
0
LINE
8
BLACK
6
CONTINUOUS
10
5.49735
20
-3.81485
11
5.50878
21
-3.82304
0
LINE
8
BLACK
6
CONTINUOUS
10
5.50878
20
-3.82304
11
5.51924
21
-3.83245
0
LINE
8
BLACK
6
CONTINUOUS
10
5.51924
20
-3.83245
11
5.52858
21
-3.84297
0
LINE
8
BLACK
6
CONTINUOUS
10
5.52858
20
-3.84297
11
5.53668
21
-3.85446
0
LINE
8
BLACK
6
CONTINUOUS
10
5.53668
20
-3.85446
11
5.54346
21
-3.86678
0
LINE
8
BLACK
6
CONTINUOUS
10
5.54346
20
-3.86678
11
5.54882
21
-3.87979
0
LINE
8
BLACK
6
CONTINUOUS
10
5.54882
20
-3.87979
11
5.5527
21
-3.89331
0
LINE
8
BLACK
6
CONTINUOUS
10
5.5527
20
-3.89331
11
5.55504
21
-3.90718
0
LINE
8
BLACK
6
CONTINUOUS
10
5.55504
20
-3.90718
11
5.55583
21
-3.92122
0
LINE
8
BLACK
6
CONTINUOUS
10
5.55583
20
-3.92122
11
5.55578
21
-3.92474
0
LINE
8
BLACK
6
CONTINUOUS
10
5.55578
20
-3.92474
11
5.5546
21
-3.93875
0
LINE
8
BLACK
6
CONTINUOUS
10
5.5546
20
-3.93875
11
5.55187
21
-3.95255
0
LINE
8
BLACK
6
CONTINUOUS
10
5.55187
20
-3.95255
11
5.54762
21
-3.96596
0
LINE
8
BLACK
6
CONTINUOUS
10
5.54762
20
-3.96596
11
5.54189
21
-3.97881
0
LINE
8
BLACK
6
CONTINUOUS
10
5.54189
20
-3.97881
11
5.53478
21
-3.99094
0
LINE
8
BLACK
6
CONTINUOUS
10
5.53478
20
-3.99094
11
5.52635
21
-4.0022
0
LINE
8
BLACK
6
CONTINUOUS
10
5.52635
20
-4.0022
11
5.51672
21
-4.01245
0
LINE
8
BLACK
6
CONTINUOUS
10
5.51672
20
-4.01245
11
5.50601
21
-4.02157
0
LINE
8
BLACK
6
CONTINUOUS
10
5.50601
20
-4.02157
11
5.49435
21
-4.02944
0
LINE
8
BLACK
6
CONTINUOUS
10
5.49435
20
-4.02944
11
5.48189
21
-4.03595
0
LINE
8
BLACK
6
CONTINUOUS
10
5.48189
20
-4.03595
11
5.46877
21
-4.04104
0
LINE
8
BLACK
6
CONTINUOUS
10
5.46877
20
-4.04104
11
5.45518
21
-4.04463
0
LINE
8
BLACK
6
CONTINUOUS
10
5.45518
20
-4.04463
11
5.44126
21
-4.04669
0
LINE
8
BLACK
6
CONTINUOUS
10
5.44126
20
-4.04669
11
5.4272
21
-4.04718
0
LINE
8
BLACK
6
CONTINUOUS
10
5.4272
20
-4.04718
11
5.41318
21
-4.0461
0
LINE
8
BLACK
6
CONTINUOUS
10
5.41318
20
-4.0461
11
5.39936
21
-4.04346
0
LINE
8
BLACK
6
CONTINUOUS
10
5.39936
20
-4.04346
11
5.38593
21
-4.0393
0
LINE
8
BLACK
6
CONTINUOUS
10
5.38593
20
-4.0393
11
5.37304
21
-4.03367
0
LINE
8
BLACK
6
CONTINUOUS
10
5.37304
20
-4.03367
11
5.36086
21
-4.02664
0
LINE
8
BLACK
6
CONTINUOUS
10
5.36086
20
-4.02664
11
5.34954
21
-4.01829
0
LINE
8
BLACK
6
CONTINUOUS
10
5.34954
20
-4.01829
11
5.33922
21
-4.00874
0
LINE
8
BLACK
6
CONTINUOUS
10
5.33922
20
-4.00874
11
5.33003
21
-3.99809
0
LINE
8
BLACK
6
CONTINUOUS
10
5.33003
20
-3.99809
11
5.32208
21
-3.98648
0
LINE
8
BLACK
6
CONTINUOUS
10
5.32208
20
-3.98648
11
5.31548
21
-3.97406
0
LINE
8
BLACK
6
CONTINUOUS
10
5.31548
20
-3.97406
11
5.3103
21
-3.96099
0
LINE
8
BLACK
6
CONTINUOUS
10
5.3103
20
-3.96099
11
5.30661
21
-3.94741
0
LINE
8
BLACK
6
CONTINUOUS
10
5.30661
20
-3.94741
11
5.30446
21
-3.93351
0
LINE
8
BLACK
6
CONTINUOUS
10
5.30446
20
-3.93351
11
5.30387
21
-3.91946
0
LINE
8
BLACK
6
CONTINUOUS
10
5.30387
20
-3.91946
11
5.30485
21
-3.90543
0
LINE
8
BLACK
6
CONTINUOUS
10
5.30485
20
-3.90543
11
5.30739
21
-3.8916
0
LINE
8
BLACK
6
CONTINUOUS
10
5.30739
20
-3.8916
11
5.31146
21
-3.87813
0
LINE
8
BLACK
6
CONTINUOUS
10
5.31146
20
-3.87813
11
5.317
21
-3.8652
0
LINE
8
BLACK
6
CONTINUOUS
10
5.317
20
-3.8652
11
5.32394
21
-3.85297
0
LINE
8
BLACK
6
CONTINUOUS
10
5.32394
20
-3.85297
11
5.33221
21
-3.84159
0
LINE
8
BLACK
6
CONTINUOUS
10
5.33221
20
-3.84159
11
5.3417
21
-3.83121
0
LINE
8
BLACK
6
CONTINUOUS
10
5.3417
20
-3.83121
11
5.35228
21
-3.82194
0
LINE
8
BLACK
6
CONTINUOUS
10
5.35228
20
-3.82194
11
5.36383
21
-3.81392
0
LINE
8
BLACK
6
CONTINUOUS
10
5.36383
20
-3.81392
11
5.3762
21
-3.80723
0
LINE
8
BLACK
6
CONTINUOUS
10
5.3762
20
-3.80723
11
5.38924
21
-3.80196
0
LINE
8
BLACK
6
CONTINUOUS
10
5.38924
20
-3.80196
11
5.40279
21
-3.79818
0
LINE
8
BLACK
6
CONTINUOUS
10
5.40279
20
-3.79818
11
5.41667
21
-3.79593
0
LINE
8
BLACK
6
CONTINUOUS
10
5.41667
20
-3.79593
11
5.43072
21
-3.79524
0
LINE
8
BLACK
6
CONTINUOUS
10
5.43072
20
-3.79524
11
5.44476
21
-3.79612
0
LINE
8
BLACK
6
CONTINUOUS
10
6.65486
20
-3.88395
11
6.65741
21
-3.88565
0
LINE
8
BLACK
6
CONTINUOUS
10
6.65741
20
-3.88565
11
6.65912
21
-3.88821
0
LINE
8
BLACK
6
CONTINUOUS
10
6.65912
20
-3.88821
11
6.65972
21
-3.89122
0
LINE
8
BLACK
6
CONTINUOUS
10
6.65972
20
-3.89122
11
6.65972
21
-3.95122
0
LINE
8
BLACK
6
CONTINUOUS
10
6.65972
20
-3.95122
11
6.65912
21
-3.95423
0
LINE
8
BLACK
6
CONTINUOUS
10
6.65912
20
-3.95423
11
6.65741
21
-3.95679
0
LINE
8
BLACK
6
CONTINUOUS
10
6.65741
20
-3.95679
11
6.65486
21
-3.9585
0
LINE
8
BLACK
6
CONTINUOUS
10
6.65486
20
-3.9585
11
6.65184
21
-3.95909
0
LINE
8
BLACK
6
CONTINUOUS
10
6.65184
20
-3.95909
11
6.59184
21
-3.95909
0
LINE
8
BLACK
6
CONTINUOUS
10
6.59184
20
-3.95909
11
6.58883
21
-3.9585
0
LINE
8
BLACK
6
CONTINUOUS
10
6.58883
20
-3.9585
11
6.58627
21
-3.95679
0
LINE
8
BLACK
6
CONTINUOUS
10
6.58627
20
-3.95679
11
6.58457
21
-3.95423
0
LINE
8
BLACK
6
CONTINUOUS
10
6.58457
20
-3.95423
11
6.58397
21
-3.95122
0
LINE
8
BLACK
6
CONTINUOUS
10
6.58397
20
-3.95122
11
6.58397
21
-3.89122
0
LINE
8
BLACK
6
CONTINUOUS
10
6.58397
20
-3.89122
11
6.58457
21
-3.88821
0
LINE
8
BLACK
6
CONTINUOUS
10
6.58457
20
-3.88821
11
6.58627
21
-3.88565
0
LINE
8
BLACK
6
CONTINUOUS
10
6.58627
20
-3.88565
11
6.58883
21
-3.88395
0
LINE
8
BLACK
6
CONTINUOUS
10
6.58883
20
-3.88395
11
6.59184
21
-3.88335
0
LINE
8
BLACK
6
CONTINUOUS
10
6.59184
20
-3.88335
11
6.65184
21
-3.88335
0
LINE
8
BLACK
6
CONTINUOUS
10
6.65184
20
-3.88335
11
6.65486
21
-3.88395
0
LINE
8
BLACK
6
CONTINUOUS
10
6.55486
20
-3.88395
11
6.55741
21
-3.88565
0
LINE
8
BLACK
6
CONTINUOUS
10
6.55741
20
-3.88565
11
6.55912
21
-3.88821
0
LINE
8
BLACK
6
CONTINUOUS
10
6.55912
20
-3.88821
11
6.55972
21
-3.89122
0
LINE
8
BLACK
6
CONTINUOUS
10
6.55972
20
-3.89122
11
6.55972
21
-3.95122
0
LINE
8
BLACK
6
CONTINUOUS
10
6.55972
20
-3.95122
11
6.55912
21
-3.95423
0
LINE
8
BLACK
6
CONTINUOUS
10
6.55912
20
-3.95423
11
6.55741
21
-3.95679
0
LINE
8
BLACK
6
CONTINUOUS
10
6.55741
20
-3.95679
11
6.55486
21
-3.9585
0
LINE
8
BLACK
6
CONTINUOUS
10
6.55486
20
-3.9585
11
6.55184
21
-3.95909
0
LINE
8
BLACK
6
CONTINUOUS
10
6.55184
20
-3.95909
11
6.49184
21
-3.95909
0
LINE
8
BLACK
6
CONTINUOUS
10
6.49184
20
-3.95909
11
6.48883
21
-3.9585
0
LINE
8
BLACK
6
CONTINUOUS
10
6.48883
20
-3.9585
11
6.48627
21
-3.95679
0
LINE
8
BLACK
6
CONTINUOUS
10
6.48627
20
-3.95679
11
6.48457
21
-3.95423
0
LINE
8
BLACK
6
CONTINUOUS
10
6.48457
20
-3.95423
11
6.48397
21
-3.95122
0
LINE
8
BLACK
6
CONTINUOUS
10
6.48397
20
-3.95122
11
6.48397
21
-3.89122
0
LINE
8
BLACK
6
CONTINUOUS
10
6.48397
20
-3.89122
11
6.48457
21
-3.88821
0
LINE
8
BLACK
6
CONTINUOUS
10
6.48457
20
-3.88821
11
6.48627
21
-3.88565
0
LINE
8
BLACK
6
CONTINUOUS
10
6.48627
20
-3.88565
11
6.48883
21
-3.88395
0
LINE
8
BLACK
6
CONTINUOUS
10
6.48883
20
-3.88395
11
6.49184
21
-3.88335
0
LINE
8
BLACK
6
CONTINUOUS
10
6.49184
20
-3.88335
11
6.55184
21
-3.88335
0
LINE
8
BLACK
6
CONTINUOUS
10
6.55184
20
-3.88335
11
6.55486
21
-3.88395
0
LINE
8
BLACK
6
CONTINUOUS
10
6.45486
20
-3.88395
11
6.45741
21
-3.88565
0
LINE
8
BLACK
6
CONTINUOUS
10
6.45741
20
-3.88565
11
6.45912
21
-3.88821
0
LINE
8
BLACK
6
CONTINUOUS
10
6.45912
20
-3.88821
11
6.45972
21
-3.89122
0
LINE
8
BLACK
6
CONTINUOUS
10
6.45972
20
-3.89122
11
6.45972
21
-3.95122
0
LINE
8
BLACK
6
CONTINUOUS
10
6.45972
20
-3.95122
11
6.45912
21
-3.95423
0
LINE
8
BLACK
6
CONTINUOUS
10
6.45912
20
-3.95423
11
6.45741
21
-3.95679
0
LINE
8
BLACK
6
CONTINUOUS
10
6.45741
20
-3.95679
11
6.45486
21
-3.9585
0
LINE
8
BLACK
6
CONTINUOUS
10
6.45486
20
-3.9585
11
6.45184
21
-3.95909
0
LINE
8
BLACK
6
CONTINUOUS
10
6.45184
20
-3.95909
11
6.39184
21
-3.95909
0
LINE
8
BLACK
6
CONTINUOUS
10
6.39184
20
-3.95909
11
6.38883
21
-3.9585
0
LINE
8
BLACK
6
CONTINUOUS
10
6.38883
20
-3.9585
11
6.38627
21
-3.95679
0
LINE
8
BLACK
6
CONTINUOUS
10
6.38627
20
-3.95679
11
6.38457
21
-3.95423
0
LINE
8
BLACK
6
CONTINUOUS
10
6.38457
20
-3.95423
11
6.38397
21
-3.95122
0
LINE
8
BLACK
6
CONTINUOUS
10
6.38397
20
-3.95122
11
6.38397
21
-3.89122
0
LINE
8
BLACK
6
CONTINUOUS
10
6.38397
20
-3.89122
11
6.38457
21
-3.88821
0
LINE
8
BLACK
6
CONTINUOUS
10
6.38457
20
-3.88821
11
6.38627
21
-3.88565
0
LINE
8
BLACK
6
CONTINUOUS
10
6.38627
20
-3.88565
11
6.38883
21
-3.88395
0
LINE
8
BLACK
6
CONTINUOUS
10
6.38883
20
-3.88395
11
6.39184
21
-3.88335
0
LINE
8
BLACK
6
CONTINUOUS
10
6.39184
20
-3.88335
11
6.45184
21
-3.88335
0
LINE
8
BLACK
6
CONTINUOUS
10
6.45184
20
-3.88335
11
6.45486
21
-3.88395
0
LINE
8
BLACK
6
CONTINUOUS
10
6.35486
20
-3.88395
11
6.35741
21
-3.88565
0
LINE
8
BLACK
6
CONTINUOUS
10
6.35741
20
-3.88565
11
6.35912
21
-3.88821
0
LINE
8
BLACK
6
CONTINUOUS
10
6.35912
20
-3.88821
11
6.35972
21
-3.89122
0
LINE
8
BLACK
6
CONTINUOUS
10
6.35972
20
-3.89122
11
6.35972
21
-3.95122
0
LINE
8
BLACK
6
CONTINUOUS
10
6.35972
20
-3.95122
11
6.35912
21
-3.95423
0
LINE
8
BLACK
6
CONTINUOUS
10
6.35912
20
-3.95423
11
6.35741
21
-3.95679
0
LINE
8
BLACK
6
CONTINUOUS
10
6.35741
20
-3.95679
11
6.35486
21
-3.9585
0
LINE
8
BLACK
6
CONTINUOUS
10
6.35486
20
-3.9585
11
6.35184
21
-3.95909
0
LINE
8
BLACK
6
CONTINUOUS
10
6.35184
20
-3.95909
11
6.29184
21
-3.95909
0
LINE
8
BLACK
6
CONTINUOUS
10
6.29184
20
-3.95909
11
6.28883
21
-3.9585
0
LINE
8
BLACK
6
CONTINUOUS
10
6.28883
20
-3.9585
11
6.28627
21
-3.95679
0
LINE
8
BLACK
6
CONTINUOUS
10
6.28627
20
-3.95679
11
6.28457
21
-3.95423
0
LINE
8
BLACK
6
CONTINUOUS
10
6.28457
20
-3.95423
11
6.28397
21
-3.95122
0
LINE
8
BLACK
6
CONTINUOUS
10
6.28397
20
-3.95122
11
6.28397
21
-3.89122
0
LINE
8
BLACK
6
CONTINUOUS
10
6.28397
20
-3.89122
11
6.28457
21
-3.88821
0
LINE
8
BLACK
6
CONTINUOUS
10
6.28457
20
-3.88821
11
6.28627
21
-3.88565
0
LINE
8
BLACK
6
CONTINUOUS
10
6.28627
20
-3.88565
11
6.28883
21
-3.88395
0
LINE
8
BLACK
6
CONTINUOUS
10
6.28883
20
-3.88395
11
6.29184
21
-3.88335
0
LINE
8
BLACK
6
CONTINUOUS
10
6.29184
20
-3.88335
11
6.35184
21
-3.88335
0
LINE
8
BLACK
6
CONTINUOUS
10
6.35184
20
-3.88335
11
6.35486
21
-3.88395
0
LINE
8
BLACK
6
CONTINUOUS
10
6.25486
20
-3.88395
11
6.25741
21
-3.88565
0
LINE
8
BLACK
6
CONTINUOUS
10
6.25741
20
-3.88565
11
6.25912
21
-3.88821
0
LINE
8
BLACK
6
CONTINUOUS
10
6.25912
20
-3.88821
11
6.25972
21
-3.89122
0
LINE
8
BLACK
6
CONTINUOUS
10
6.25972
20
-3.89122
11
6.25972
21
-3.95122
0
LINE
8
BLACK
6
CONTINUOUS
10
6.25972
20
-3.95122
11
6.25912
21
-3.95423
0
LINE
8
BLACK
6
CONTINUOUS
10
6.25912
20
-3.95423
11
6.25741
21
-3.95679
0
LINE
8
BLACK
6
CONTINUOUS
10
6.25741
20
-3.95679
11
6.25486
21
-3.9585
0
LINE
8
BLACK
6
CONTINUOUS
10
6.25486
20
-3.9585
11
6.25184
21
-3.95909
0
LINE
8
BLACK
6
CONTINUOUS
10
6.25184
20
-3.95909
11
6.19184
21
-3.95909
0
LINE
8
BLACK
6
CONTINUOUS
10
6.19184
20
-3.95909
11
6.18883
21
-3.9585
0
LINE
8
BLACK
6
CONTINUOUS
10
6.18883
20
-3.9585
11
6.18627
21
-3.95679
0
LINE
8
BLACK
6
CONTINUOUS
10
6.18627
20
-3.95679
11
6.18457
21
-3.95423
0
LINE
8
BLACK
6
CONTINUOUS
10
6.18457
20
-3.95423
11
6.18397
21
-3.95122
0
LINE
8
BLACK
6
CONTINUOUS
10
6.18397
20
-3.95122
11
6.18397
21
-3.89122
0
LINE
8
BLACK
6
CONTINUOUS
10
6.18397
20
-3.89122
11
6.18457
21
-3.88821
0
LINE
8
BLACK
6
CONTINUOUS
10
6.18457
20
-3.88821
11
6.18627
21
-3.88565
0
LINE
8
BLACK
6
CONTINUOUS
10
6.18627
20
-3.88565
11
6.18883
21
-3.88395
0
LINE
8
BLACK
6
CONTINUOUS
10
6.18883
20
-3.88395
11
6.19184
21
-3.88335
0
LINE
8
BLACK
6
CONTINUOUS
10
6.19184
20
-3.88335
11
6.25184
21
-3.88335
0
LINE
8
BLACK
6
CONTINUOUS
10
6.25184
20
-3.88335
11
6.25486
21
-3.88395
0
LINE
8
BLACK
6
CONTINUOUS
10
6.20186
20
-3.80638
11
6.20683
21
-3.80812
0
LINE
8
BLACK
6
CONTINUOUS
10
6.20683
20
-3.80812
11
6.21107
21
-3.81125
0
LINE
8
BLACK
6
CONTINUOUS
10
6.21107
20
-3.81125
11
6.2142
21
-3.81549
0
LINE
8
BLACK
6
CONTINUOUS
10
6.2142
20
-3.81549
11
6.21595
21
-3.82046
0
LINE
8
BLACK
6
CONTINUOUS
10
6.21595
20
-3.82046
11
6.21626
21
-3.82378
0
LINE
8
BLACK
6
CONTINUOUS
10
6.21626
20
-3.82378
11
6.21626
21
-3.84346
0
LINE
8
BLACK
6
CONTINUOUS
10
6.21626
20
-3.84346
11
6.21595
21
-3.84678
0
LINE
8
BLACK
6
CONTINUOUS
10
6.21595
20
-3.84678
11
6.2142
21
-3.85175
0
LINE
8
BLACK
6
CONTINUOUS
10
6.2142
20
-3.85175
11
6.21107
21
-3.85599
0
LINE
8
BLACK
6
CONTINUOUS
10
6.21107
20
-3.85599
11
6.20683
21
-3.85912
0
LINE
8
BLACK
6
CONTINUOUS
10
6.20683
20
-3.85912
11
6.20186
21
-3.86087
0
LINE
8
BLACK
6
CONTINUOUS
10
6.20186
20
-3.86087
11
6.19854
21
-3.86118
0
LINE
8
BLACK
6
CONTINUOUS
10
6.19854
20
-3.86118
11
6.16114
21
-3.86118
0
LINE
8
BLACK
6
CONTINUOUS
10
6.16114
20
-3.86118
11
6.15782
21
-3.86087
0
LINE
8
BLACK
6
CONTINUOUS
10
6.15782
20
-3.86087
11
6.15285
21
-3.85912
0
LINE
8
BLACK
6
CONTINUOUS
10
6.15285
20
-3.85912
11
6.14861
21
-3.85599
0
LINE
8
BLACK
6
CONTINUOUS
10
6.14861
20
-3.85599
11
6.14548
21
-3.85175
0
LINE
8
BLACK
6
CONTINUOUS
10
6.14548
20
-3.85175
11
6.14374
21
-3.84678
0
LINE
8
BLACK
6
CONTINUOUS
10
6.14374
20
-3.84678
11
6.14343
21
-3.84346
0
LINE
8
BLACK
6
CONTINUOUS
10
6.14343
20
-3.84346
11
6.14343
21
-3.82378
0
LINE
8
BLACK
6
CONTINUOUS
10
6.14343
20
-3.82378
11
6.14374
21
-3.82046
0
LINE
8
BLACK
6
CONTINUOUS
10
6.14374
20
-3.82046
11
6.14548
21
-3.81549
0
LINE
8
BLACK
6
CONTINUOUS
10
6.14548
20
-3.81549
11
6.14861
21
-3.81125
0
LINE
8
BLACK
6
CONTINUOUS
10
6.14861
20
-3.81125
11
6.15285
21
-3.80812
0
LINE
8
BLACK
6
CONTINUOUS
10
6.15285
20
-3.80812
11
6.15782
21
-3.80638
0
LINE
8
BLACK
6
CONTINUOUS
10
6.15782
20
-3.80638
11
6.16114
21
-3.80606
0
LINE
8
BLACK
6
CONTINUOUS
10
6.16114
20
-3.80606
11
6.19854
21
-3.80606
0
LINE
8
BLACK
6
CONTINUOUS
10
6.19854
20
-3.80606
11
6.20186
21
-3.80638
0
LINE
8
BLACK
6
CONTINUOUS
10
6.12588
20
-3.80441
11
6.13085
21
-3.80615
0
LINE
8
BLACK
6
CONTINUOUS
10
6.13085
20
-3.80615
11
6.13509
21
-3.80928
0
LINE
8
BLACK
6
CONTINUOUS
10
6.13509
20
-3.80928
11
6.13822
21
-3.81352
0
LINE
8
BLACK
6
CONTINUOUS
10
6.13822
20
-3.81352
11
6.13996
21
-3.81849
0
LINE
8
BLACK
6
CONTINUOUS
10
6.13996
20
-3.81849
11
6.14028
21
-3.82181
0
LINE
8
BLACK
6
CONTINUOUS
10
6.14028
20
-3.82181
11
6.14028
21
-3.84248
0
LINE
8
BLACK
6
CONTINUOUS
10
6.14028
20
-3.84248
11
6.13996
21
-3.8458
0
LINE
8
BLACK
6
CONTINUOUS
10
6.13996
20
-3.8458
11
6.13822
21
-3.85077
0
LINE
8
BLACK
6
CONTINUOUS
10
6.13822
20
-3.85077
11
6.13509
21
-3.85501
0
LINE
8
BLACK
6
CONTINUOUS
10
6.13509
20
-3.85501
11
6.13085
21
-3.85814
0
LINE
8
BLACK
6
CONTINUOUS
10
6.13085
20
-3.85814
11
6.12588
21
-3.85988
0
LINE
8
BLACK
6
CONTINUOUS
10
6.12588
20
-3.85988
11
6.12256
21
-3.8602
0
LINE
8
BLACK
6
CONTINUOUS
10
6.12256
20
-3.8602
11
6.08713
21
-3.8602
0
LINE
8
BLACK
6
CONTINUOUS
10
6.08713
20
-3.8602
11
6.08381
21
-3.85988
0
LINE
8
BLACK
6
CONTINUOUS
10
6.08381
20
-3.85988
11
6.07884
21
-3.85814
0
LINE
8
BLACK
6
CONTINUOUS
10
6.07884
20
-3.85814
11
6.0746
21
-3.85501
0
LINE
8
BLACK
6
CONTINUOUS
10
6.0746
20
-3.85501
11
6.07147
21
-3.85077
0
LINE
8
BLACK
6
CONTINUOUS
10
6.07147
20
-3.85077
11
6.06972
21
-3.8458
0
LINE
8
BLACK
6
CONTINUOUS
10
6.06972
20
-3.8458
11
6.06941
21
-3.84248
0
LINE
8
BLACK
6
CONTINUOUS
10
6.06941
20
-3.84248
11
6.06941
21
-3.82181
0
LINE
8
BLACK
6
CONTINUOUS
10
6.06941
20
-3.82181
11
6.06972
21
-3.81849
0
LINE
8
BLACK
6
CONTINUOUS
10
6.06972
20
-3.81849
11
6.07147
21
-3.81352
0
LINE
8
BLACK
6
CONTINUOUS
10
6.07147
20
-3.81352
11
6.0746
21
-3.80928
0
LINE
8
BLACK
6
CONTINUOUS
10
6.0746
20
-3.80928
11
6.07884
21
-3.80615
0
LINE
8
BLACK
6
CONTINUOUS
10
6.07884
20
-3.80615
11
6.08381
21
-3.80441
0
LINE
8
BLACK
6
CONTINUOUS
10
6.08381
20
-3.80441
11
6.08713
21
-3.80409
0
LINE
8
BLACK
6
CONTINUOUS
10
6.08713
20
-3.80409
11
6.12256
21
-3.80409
0
LINE
8
BLACK
6
CONTINUOUS
10
6.12256
20
-3.80409
11
6.12588
21
-3.80441
0
LINE
8
BLACK
6
CONTINUOUS
10
6.37941
20
-3.78312
11
6.38438
21
-3.78486
0
LINE
8
BLACK
6
CONTINUOUS
10
6.38438
20
-3.78486
11
6.38861
21
-3.78799
0
LINE
8
BLACK
6
CONTINUOUS
10
6.38861
20
-3.78799
11
6.39174
21
-3.79223
0
LINE
8
BLACK
6
CONTINUOUS
10
6.39174
20
-3.79223
11
6.39349
21
-3.7972
0
LINE
8
BLACK
6
CONTINUOUS
10
6.39349
20
-3.7972
11
6.3938
21
-3.80052
0
LINE
8
BLACK
6
CONTINUOUS
10
6.3938
20
-3.80052
11
6.3938
21
-3.83792
0
LINE
8
BLACK
6
CONTINUOUS
10
6.3938
20
-3.83792
11
6.39349
21
-3.84124
0
LINE
8
BLACK
6
CONTINUOUS
10
6.39349
20
-3.84124
11
6.39174
21
-3.84621
0
LINE
8
BLACK
6
CONTINUOUS
10
6.39174
20
-3.84621
11
6.38861
21
-3.85045
0
LINE
8
BLACK
6
CONTINUOUS
10
6.38861
20
-3.85045
11
6.38438
21
-3.85358
0
LINE
8
BLACK
6
CONTINUOUS
10
6.38438
20
-3.85358
11
6.37941
21
-3.85532
0
LINE
8
BLACK
6
CONTINUOUS
10
6.37941
20
-3.85532
11
6.37609
21
-3.85564
0
LINE
8
BLACK
6
CONTINUOUS
10
6.37609
20
-3.85564
11
6.3564
21
-3.85564
0
LINE
8
BLACK
6
CONTINUOUS
10
6.3564
20
-3.85564
11
6.35308
21
-3.85532
0
LINE
8
BLACK
6
CONTINUOUS
10
6.35308
20
-3.85532
11
6.34811
21
-3.85358
0
LINE
8
BLACK
6
CONTINUOUS
10
6.34811
20
-3.85358
11
6.34387
21
-3.85045
0
LINE
8
BLACK
6
CONTINUOUS
10
6.34387
20
-3.85045
11
6.34074
21
-3.84621
0
LINE
8
BLACK
6
CONTINUOUS
10
6.34074
20
-3.84621
11
6.339
21
-3.84124
0
LINE
8
BLACK
6
CONTINUOUS
10
6.339
20
-3.84124
11
6.33869
21
-3.83792
0
LINE
8
BLACK
6
CONTINUOUS
10
6.33869
20
-3.83792
11
6.33869
21
-3.80052
0
LINE
8
BLACK
6
CONTINUOUS
10
6.33869
20
-3.80052
11
6.339
21
-3.7972
0
LINE
8
BLACK
6
CONTINUOUS
10
6.339
20
-3.7972
11
6.34074
21
-3.79223
0
LINE
8
BLACK
6
CONTINUOUS
10
6.34074
20
-3.79223
11
6.34387
21
-3.78799
0
LINE
8
BLACK
6
CONTINUOUS
10
6.34387
20
-3.78799
11
6.34811
21
-3.78486
0
LINE
8
BLACK
6
CONTINUOUS
10
6.34811
20
-3.78486
11
6.35308
21
-3.78312
0
LINE
8
BLACK
6
CONTINUOUS
10
6.35308
20
-3.78312
11
6.3564
21
-3.7828
0
LINE
8
BLACK
6
CONTINUOUS
10
6.3564
20
-3.7828
11
6.37609
21
-3.7828
0
LINE
8
BLACK
6
CONTINUOUS
10
6.37609
20
-3.7828
11
6.37941
21
-3.78312
0
LINE
8
BLACK
6
CONTINUOUS
10
6.3046
20
-3.78312
11
6.30957
21
-3.78486
0
LINE
8
BLACK
6
CONTINUOUS
10
6.30957
20
-3.78486
11
6.31381
21
-3.78799
0
LINE
8
BLACK
6
CONTINUOUS
10
6.31381
20
-3.78799
11
6.31694
21
-3.79223
0
LINE
8
BLACK
6
CONTINUOUS
10
6.31694
20
-3.79223
11
6.31869
21
-3.7972
0
LINE
8
BLACK
6
CONTINUOUS
10
6.31869
20
-3.7972
11
6.319
21
-3.80052
0
LINE
8
BLACK
6
CONTINUOUS
10
6.319
20
-3.80052
11
6.319
21
-3.83792
0
LINE
8
BLACK
6
CONTINUOUS
10
6.319
20
-3.83792
11
6.31869
21
-3.84124
0
LINE
8
BLACK
6
CONTINUOUS
10
6.31869
20
-3.84124
11
6.31694
21
-3.84621
0
LINE
8
BLACK
6
CONTINUOUS
10
6.31694
20
-3.84621
11
6.31381
21
-3.85045
0
LINE
8
BLACK
6
CONTINUOUS
10
6.31381
20
-3.85045
11
6.30957
21
-3.85358
0
LINE
8
BLACK
6
CONTINUOUS
10
6.30957
20
-3.85358
11
6.3046
21
-3.85532
0
LINE
8
BLACK
6
CONTINUOUS
10
6.3046
20
-3.85532
11
6.30128
21
-3.85564
0
LINE
8
BLACK
6
CONTINUOUS
10
6.30128
20
-3.85564
11
6.2816
21
-3.85564
0
LINE
8
BLACK
6
CONTINUOUS
10
6.2816
20
-3.85564
11
6.27828
21
-3.85532
0
LINE
8
BLACK
6
CONTINUOUS
10
6.27828
20
-3.85532
11
6.27331
21
-3.85358
0
LINE
8
BLACK
6
CONTINUOUS
10
6.27331
20
-3.85358
11
6.26907
21
-3.85045
0
LINE
8
BLACK
6
CONTINUOUS
10
6.26907
20
-3.85045
11
6.26594
21
-3.84621
0
LINE
8
BLACK
6
CONTINUOUS
10
6.26594
20
-3.84621
11
6.2642
21
-3.84124
0
LINE
8
BLACK
6
CONTINUOUS
10
6.2642
20
-3.84124
11
6.26388
21
-3.83792
0
LINE
8
BLACK
6
CONTINUOUS
10
6.26388
20
-3.83792
11
6.26388
21
-3.80052
0
LINE
8
BLACK
6
CONTINUOUS
10
6.26388
20
-3.80052
11
6.2642
21
-3.7972
0
LINE
8
BLACK
6
CONTINUOUS
10
6.2642
20
-3.7972
11
6.26594
21
-3.79223
0
LINE
8
BLACK
6
CONTINUOUS
10
6.26594
20
-3.79223
11
6.26907
21
-3.78799
0
LINE
8
BLACK
6
CONTINUOUS
10
6.26907
20
-3.78799
11
6.27331
21
-3.78486
0
LINE
8
BLACK
6
CONTINUOUS
10
6.27331
20
-3.78486
11
6.27828
21
-3.78312
0
LINE
8
BLACK
6
CONTINUOUS
10
6.27828
20
-3.78312
11
6.2816
21
-3.7828
0
LINE
8
BLACK
6
CONTINUOUS
10
6.2816
20
-3.7828
11
6.30128
21
-3.7828
0
LINE
8
BLACK
6
CONTINUOUS
10
6.30128
20
-3.7828
11
6.3046
21
-3.78312
0
LINE
8
BLACK
6
CONTINUOUS
10
6.12588
20
-3.73256
11
6.13085
21
-3.7343
0
LINE
8
BLACK
6
CONTINUOUS
10
6.13085
20
-3.7343
11
6.13509
21
-3.73743
0
LINE
8
BLACK
6
CONTINUOUS
10
6.13509
20
-3.73743
11
6.13822
21
-3.74167
0
LINE
8
BLACK
6
CONTINUOUS
10
6.13822
20
-3.74167
11
6.13996
21
-3.74664
0
LINE
8
BLACK
6
CONTINUOUS
10
6.13996
20
-3.74664
11
6.14028
21
-3.74996
0
LINE
8
BLACK
6
CONTINUOUS
10
6.14028
20
-3.74996
11
6.14028
21
-3.77063
0
LINE
8
BLACK
6
CONTINUOUS
10
6.14028
20
-3.77063
11
6.13996
21
-3.77395
0
LINE
8
BLACK
6
CONTINUOUS
10
6.13996
20
-3.77395
11
6.13822
21
-3.77892
0
LINE
8
BLACK
6
CONTINUOUS
10
6.13822
20
-3.77892
11
6.13509
21
-3.78316
0
LINE
8
BLACK
6
CONTINUOUS
10
6.13509
20
-3.78316
11
6.13085
21
-3.78629
0
LINE
8
BLACK
6
CONTINUOUS
10
6.13085
20
-3.78629
11
6.12588
21
-3.78803
0
LINE
8
BLACK
6
CONTINUOUS
10
6.12588
20
-3.78803
11
6.12256
21
-3.78835
0
LINE
8
BLACK
6
CONTINUOUS
10
6.12256
20
-3.78835
11
6.08713
21
-3.78835
0
LINE
8
BLACK
6
CONTINUOUS
10
6.08713
20
-3.78835
11
6.08381
21
-3.78803
0
LINE
8
BLACK
6
CONTINUOUS
10
6.08381
20
-3.78803
11
6.07884
21
-3.78629
0
LINE
8
BLACK
6
CONTINUOUS
10
6.07884
20
-3.78629
11
6.0746
21
-3.78316
0
LINE
8
BLACK
6
CONTINUOUS
10
6.0746
20
-3.78316
11
6.07147
21
-3.77892
0
LINE
8
BLACK
6
CONTINUOUS
10
6.07147
20
-3.77892
11
6.06972
21
-3.77395
0
LINE
8
BLACK
6
CONTINUOUS
10
6.06972
20
-3.77395
11
6.06941
21
-3.77063
0
LINE
8
BLACK
6
CONTINUOUS
10
6.06941
20
-3.77063
11
6.06941
21
-3.74996
0
LINE
8
BLACK
6
CONTINUOUS
10
6.06941
20
-3.74996
11
6.06972
21
-3.74664
0
LINE
8
BLACK
6
CONTINUOUS
10
6.06972
20
-3.74664
11
6.07147
21
-3.74167
0
LINE
8
BLACK
6
CONTINUOUS
10
6.07147
20
-3.74167
11
6.0746
21
-3.73743
0
LINE
8
BLACK
6
CONTINUOUS
10
6.0746
20
-3.73743
11
6.07884
21
-3.7343
0
LINE
8
BLACK
6
CONTINUOUS
10
6.07884
20
-3.7343
11
6.08381
21
-3.73256
0
LINE
8
BLACK
6
CONTINUOUS
10
6.08381
20
-3.73256
11
6.08713
21
-3.73224
0
LINE
8
BLACK
6
CONTINUOUS
10
6.08713
20
-3.73224
11
6.12256
21
-3.73224
0
LINE
8
BLACK
6
CONTINUOUS
10
6.12256
20
-3.73224
11
6.12588
21
-3.73256
0
LINE
8
BLACK
6
CONTINUOUS
10
6.20186
20
-3.73157
11
6.20683
21
-3.73332
0
LINE
8
BLACK
6
CONTINUOUS
10
6.20683
20
-3.73332
11
6.21107
21
-3.73645
0
LINE
8
BLACK
6
CONTINUOUS
10
6.21107
20
-3.73645
11
6.2142
21
-3.74069
0
LINE
8
BLACK
6
CONTINUOUS
10
6.2142
20
-3.74069
11
6.21595
21
-3.74566
0
LINE
8
BLACK
6
CONTINUOUS
10
6.21595
20
-3.74566
11
6.21626
21
-3.74898
0
LINE
8
BLACK
6
CONTINUOUS
10
6.21626
20
-3.74898
11
6.21626
21
-3.76866
0
LINE
8
BLACK
6
CONTINUOUS
10
6.21626
20
-3.76866
11
6.21595
21
-3.77198
0
LINE
8
BLACK
6
CONTINUOUS
10
6.21595
20
-3.77198
11
6.2142
21
-3.77695
0
LINE
8
BLACK
6
CONTINUOUS
10
6.2142
20
-3.77695
11
6.21107
21
-3.78119
0
LINE
8
BLACK
6
CONTINUOUS
10
6.21107
20
-3.78119
11
6.20683
21
-3.78432
0
LINE
8
BLACK
6
CONTINUOUS
10
6.20683
20
-3.78432
11
6.20186
21
-3.78606
0
LINE
8
BLACK
6
CONTINUOUS
10
6.20186
20
-3.78606
11
6.19854
21
-3.78638
0
LINE
8
BLACK
6
CONTINUOUS
10
6.19854
20
-3.78638
11
6.16114
21
-3.78638
0
LINE
8
BLACK
6
CONTINUOUS
10
6.16114
20
-3.78638
11
6.15782
21
-3.78606
0
LINE
8
BLACK
6
CONTINUOUS
10
6.15782
20
-3.78606
11
6.15285
21
-3.78432
0
LINE
8
BLACK
6
CONTINUOUS
10
6.15285
20
-3.78432
11
6.14861
21
-3.78119
0
LINE
8
BLACK
6
CONTINUOUS
10
6.14861
20
-3.78119
11
6.14548
21
-3.77695
0
LINE
8
BLACK
6
CONTINUOUS
10
6.14548
20
-3.77695
11
6.14374
21
-3.77198
0
LINE
8
BLACK
6
CONTINUOUS
10
6.14374
20
-3.77198
11
6.14343
21
-3.76866
0
LINE
8
BLACK
6
CONTINUOUS
10
6.14343
20
-3.76866
11
6.14343
21
-3.74898
0
LINE
8
BLACK
6
CONTINUOUS
10
6.14343
20
-3.74898
11
6.14374
21
-3.74566
0
LINE
8
BLACK
6
CONTINUOUS
10
6.14374
20
-3.74566
11
6.14548
21
-3.74069
0
LINE
8
BLACK
6
CONTINUOUS
10
6.14548
20
-3.74069
11
6.14861
21
-3.73645
0
LINE
8
BLACK
6
CONTINUOUS
10
6.14861
20
-3.73645
11
6.15285
21
-3.73332
0
LINE
8
BLACK
6
CONTINUOUS
10
6.15285
20
-3.73332
11
6.15782
21
-3.73157
0
LINE
8
BLACK
6
CONTINUOUS
10
6.15782
20
-3.73157
11
6.16114
21
-3.73126
0
LINE
8
BLACK
6
CONTINUOUS
10
6.16114
20
-3.73126
11
6.19854
21
-3.73126
0
LINE
8
BLACK
6
CONTINUOUS
10
6.19854
20
-3.73126
11
6.20186
21
-3.73157
0
LINE
8
BLACK
6
CONTINUOUS
10
6.38041
20
-3.71012
11
6.38538
21
-3.71186
0
LINE
8
BLACK
6
CONTINUOUS
10
6.38538
20
-3.71186
11
6.38961
21
-3.71499
0
LINE
8
BLACK
6
CONTINUOUS
10
6.38961
20
-3.71499
11
6.39274
21
-3.71923
0
LINE
8
BLACK
6
CONTINUOUS
10
6.39274
20
-3.71923
11
6.39449
21
-3.7242
0
LINE
8
BLACK
6
CONTINUOUS
10
6.39449
20
-3.7242
11
6.3948
21
-3.72752
0
LINE
8
BLACK
6
CONTINUOUS
10
6.3948
20
-3.72752
11
6.3948
21
-3.76492
0
LINE
8
BLACK
6
CONTINUOUS
10
6.3948
20
-3.76492
11
6.39449
21
-3.76824
0
LINE
8
BLACK
6
CONTINUOUS
10
6.39449
20
-3.76824
11
6.39274
21
-3.77321
0
LINE
8
BLACK
6
CONTINUOUS
10
6.39274
20
-3.77321
11
6.38961
21
-3.77745
0
LINE
8
BLACK
6
CONTINUOUS
10
6.38961
20
-3.77745
11
6.38538
21
-3.78058
0
LINE
8
BLACK
6
CONTINUOUS
10
6.38538
20
-3.78058
11
6.38041
21
-3.78232
0
LINE
8
BLACK
6
CONTINUOUS
10
6.38041
20
-3.78232
11
6.37709
21
-3.78264
0
LINE
8
BLACK
6
CONTINUOUS
10
6.37709
20
-3.78264
11
6.3574
21
-3.78264
0
LINE
8
BLACK
6
CONTINUOUS
10
6.3574
20
-3.78264
11
6.35408
21
-3.78232
0
LINE
8
BLACK
6
CONTINUOUS
10
6.35408
20
-3.78232
11
6.34911
21
-3.78058
0
LINE
8
BLACK
6
CONTINUOUS
10
6.34911
20
-3.78058
11
6.34487
21
-3.77745
0
LINE
8
BLACK
6
CONTINUOUS
10
6.34487
20
-3.77745
11
6.34174
21
-3.77321
0
LINE
8
BLACK
6
CONTINUOUS
10
6.34174
20
-3.77321
11
6.34
21
-3.76824
0
LINE
8
BLACK
6
CONTINUOUS
10
6.34
20
-3.76824
11
6.33969
21
-3.76492
0
LINE
8
BLACK
6
CONTINUOUS
10
6.33969
20
-3.76492
11
6.33969
21
-3.72752
0
LINE
8
BLACK
6
CONTINUOUS
10
6.33969
20
-3.72752
11
6.34
21
-3.7242
0
LINE
8
BLACK
6
CONTINUOUS
10
6.34
20
-3.7242
11
6.34174
21
-3.71923
0
LINE
8
BLACK
6
CONTINUOUS
10
6.34174
20
-3.71923
11
6.34487
21
-3.71499
0
LINE
8
BLACK
6
CONTINUOUS
10
6.34487
20
-3.71499
11
6.34911
21
-3.71186
0
LINE
8
BLACK
6
CONTINUOUS
10
6.34911
20
-3.71186
11
6.35408
21
-3.71012
0
LINE
8
BLACK
6
CONTINUOUS
10
6.35408
20
-3.71012
11
6.3574
21
-3.7098
0
LINE
8
BLACK
6
CONTINUOUS
10
6.3574
20
-3.7098
11
6.37709
21
-3.7098
0
LINE
8
BLACK
6
CONTINUOUS
10
6.37709
20
-3.7098
11
6.38041
21
-3.71012
0
LINE
8
BLACK
6
CONTINUOUS
10
6.3056
20
-3.71012
11
6.31057
21
-3.71186
0
LINE
8
BLACK
6
CONTINUOUS
10
6.31057
20
-3.71186
11
6.31481
21
-3.71499
0
LINE
8
BLACK
6
CONTINUOUS
10
6.31481
20
-3.71499
11
6.31794
21
-3.71923
0
LINE
8
BLACK
6
CONTINUOUS
10
6.31794
20
-3.71923
11
6.31969
21
-3.7242
0
LINE
8
BLACK
6
CONTINUOUS
10
6.31969
20
-3.7242
11
6.32
21
-3.72752
0
LINE
8
BLACK
6
CONTINUOUS
10
6.32
20
-3.72752
11
6.32
21
-3.76492
0
LINE
8
BLACK
6
CONTINUOUS
10
6.32
20
-3.76492
11
6.31969
21
-3.76824
0
LINE
8
BLACK
6
CONTINUOUS
10
6.31969
20
-3.76824
11
6.31794
21
-3.77321
0
LINE
8
BLACK
6
CONTINUOUS
10
6.31794
20
-3.77321
11
6.31481
21
-3.77745
0
LINE
8
BLACK
6
CONTINUOUS
10
6.31481
20
-3.77745
11
6.31057
21
-3.78058
0
LINE
8
BLACK
6
CONTINUOUS
10
6.31057
20
-3.78058
11
6.3056
21
-3.78232
0
LINE
8
BLACK
6
CONTINUOUS
10
6.3056
20
-3.78232
11
6.30228
21
-3.78264
0
LINE
8
BLACK
6
CONTINUOUS
10
6.30228
20
-3.78264
11
6.2826
21
-3.78264
0
LINE
8
BLACK
6
CONTINUOUS
10
6.2826
20
-3.78264
11
6.27928
21
-3.78232
0
LINE
8
BLACK
6
CONTINUOUS
10
6.27928
20
-3.78232
11
6.27431
21
-3.78058
0
LINE
8
BLACK
6
CONTINUOUS
10
6.27431
20
-3.78058
11
6.27007
21
-3.77745
0
LINE
8
BLACK
6
CONTINUOUS
10
6.27007
20
-3.77745
11
6.26694
21
-3.77321
0
LINE
8
BLACK
6
CONTINUOUS
10
6.26694
20
-3.77321
11
6.2652
21
-3.76824
0
LINE
8
BLACK
6
CONTINUOUS
10
6.2652
20
-3.76824
11
6.26488
21
-3.76492
0
LINE
8
BLACK
6
CONTINUOUS
10
6.26488
20
-3.76492
11
6.26488
21
-3.72752
0
LINE
8
BLACK
6
CONTINUOUS
10
6.26488
20
-3.72752
11
6.2652
21
-3.7242
0
LINE
8
BLACK
6
CONTINUOUS
10
6.2652
20
-3.7242
11
6.26694
21
-3.71923
0
LINE
8
BLACK
6
CONTINUOUS
10
6.26694
20
-3.71923
11
6.27007
21
-3.71499
0
LINE
8
BLACK
6
CONTINUOUS
10
6.27007
20
-3.71499
11
6.27431
21
-3.71186
0
LINE
8
BLACK
6
CONTINUOUS
10
6.27431
20
-3.71186
11
6.27928
21
-3.71012
0
LINE
8
BLACK
6
CONTINUOUS
10
6.27928
20
-3.71012
11
6.2826
21
-3.7098
0
LINE
8
BLACK
6
CONTINUOUS
10
6.2826
20
-3.7098
11
6.30228
21
-3.7098
0
LINE
8
BLACK
6
CONTINUOUS
10
6.30228
20
-3.7098
11
6.3056
21
-3.71012
0
LINE
8
BLACK
6
CONTINUOUS
10
5.93885
20
-3.6887
11
5.94382
21
-3.69045
0
LINE
8
BLACK
6
CONTINUOUS
10
5.94382
20
-3.69045
11
5.94806
21
-3.69358
0
LINE
8
BLACK
6
CONTINUOUS
10
5.94806
20
-3.69358
11
5.95119
21
-3.69781
0
LINE
8
BLACK
6
CONTINUOUS
10
5.95119
20
-3.69781
11
5.95294
21
-3.70279
0
LINE
8
BLACK
6
CONTINUOUS
10
5.95294
20
-3.70279
11
5.95325
21
-3.70611
0
LINE
8
BLACK
6
CONTINUOUS
10
5.95325
20
-3.70611
11
5.95325
21
-3.72579
0
LINE
8
BLACK
6
CONTINUOUS
10
5.95325
20
-3.72579
11
5.95294
21
-3.72911
0
LINE
8
BLACK
6
CONTINUOUS
10
5.95294
20
-3.72911
11
5.95119
21
-3.73408
0
LINE
8
BLACK
6
CONTINUOUS
10
5.95119
20
-3.73408
11
5.94806
21
-3.73832
0
LINE
8
BLACK
6
CONTINUOUS
10
5.94806
20
-3.73832
11
5.94382
21
-3.74145
0
LINE
8
BLACK
6
CONTINUOUS
10
5.94382
20
-3.74145
11
5.93885
21
-3.74319
0
LINE
8
BLACK
6
CONTINUOUS
10
5.93885
20
-3.74319
11
5.93553
21
-3.74351
0
LINE
8
BLACK
6
CONTINUOUS
10
5.93553
20
-3.74351
11
5.89813
21
-3.74351
0
LINE
8
BLACK
6
CONTINUOUS
10
5.89813
20
-3.74351
11
5.89481
21
-3.74319
0
LINE
8
BLACK
6
CONTINUOUS
10
5.89481
20
-3.74319
11
5.88984
21
-3.74145
0
LINE
8
BLACK
6
CONTINUOUS
10
5.88984
20
-3.74145
11
5.88561
21
-3.73832
0
LINE
8
BLACK
6
CONTINUOUS
10
5.88561
20
-3.73832
11
5.88248
21
-3.73408
0
LINE
8
BLACK
6
CONTINUOUS
10
5.88248
20
-3.73408
11
5.88073
21
-3.72911
0
LINE
8
BLACK
6
CONTINUOUS
10
5.88073
20
-3.72911
11
5.88042
21
-3.72579
0
LINE
8
BLACK
6
CONTINUOUS
10
5.88042
20
-3.72579
11
5.88042
21
-3.70611
0
LINE
8
BLACK
6
CONTINUOUS
10
5.88042
20
-3.70611
11
5.88073
21
-3.70279
0
LINE
8
BLACK
6
CONTINUOUS
10
5.88073
20
-3.70279
11
5.88248
21
-3.69781
0
LINE
8
BLACK
6
CONTINUOUS
10
5.88248
20
-3.69781
11
5.88561
21
-3.69358
0
LINE
8
BLACK
6
CONTINUOUS
10
5.88561
20
-3.69358
11
5.88984
21
-3.69045
0
LINE
8
BLACK
6
CONTINUOUS
10
5.88984
20
-3.69045
11
5.89481
21
-3.6887
0
LINE
8
BLACK
6
CONTINUOUS
10
5.89481
20
-3.6887
11
5.89813
21
-3.68839
0
LINE
8
BLACK
6
CONTINUOUS
10
5.89813
20
-3.68839
11
5.93553
21
-3.68839
0
LINE
8
BLACK
6
CONTINUOUS
10
5.93553
20
-3.68839
11
5.93885
21
-3.6887
0
LINE
8
BLACK
6
CONTINUOUS
10
6.02539
20
-3.68457
11
6.03036
21
-3.68631
0
LINE
8
BLACK
6
CONTINUOUS
10
6.03036
20
-3.68631
11
6.0346
21
-3.68944
0
LINE
8
BLACK
6
CONTINUOUS
10
6.0346
20
-3.68944
11
6.03773
21
-3.69368
0
LINE
8
BLACK
6
CONTINUOUS
10
6.03773
20
-3.69368
11
6.03947
21
-3.69865
0
LINE
8
BLACK
6
CONTINUOUS
10
6.03947
20
-3.69865
11
6.03979
21
-3.70197
0
LINE
8
BLACK
6
CONTINUOUS
10
6.03979
20
-3.70197
11
6.03979
21
-3.72264
0
LINE
8
BLACK
6
CONTINUOUS
10
6.03979
20
-3.72264
11
6.03947
21
-3.72596
0
LINE
8
BLACK
6
CONTINUOUS
10
6.03947
20
-3.72596
11
6.03773
21
-3.73093
0
LINE
8
BLACK
6
CONTINUOUS
10
6.03773
20
-3.73093
11
6.0346
21
-3.73517
0
LINE
8
BLACK
6
CONTINUOUS
10
6.0346
20
-3.73517
11
6.03036
21
-3.7383
0
LINE
8
BLACK
6
CONTINUOUS
10
6.03036
20
-3.7383
11
6.02539
21
-3.74004
0
LINE
8
BLACK
6
CONTINUOUS
10
6.02539
20
-3.74004
11
6.02207
21
-3.74036
0
LINE
8
BLACK
6
CONTINUOUS
10
6.02207
20
-3.74036
11
5.98664
21
-3.74036
0
LINE
8
BLACK
6
CONTINUOUS
10
5.98664
20
-3.74036
11
5.98332
21
-3.74004
0
LINE
8
BLACK
6
CONTINUOUS
10
5.98332
20
-3.74004
11
5.97835
21
-3.7383
0
LINE
8
BLACK
6
CONTINUOUS
10
5.97835
20
-3.7383
11
5.97411
21
-3.73517
0
LINE
8
BLACK
6
CONTINUOUS
10
5.97411
20
-3.73517
11
5.97098
21
-3.73093
0
LINE
8
BLACK
6
CONTINUOUS
10
5.97098
20
-3.73093
11
5.96923
21
-3.72596
0
LINE
8
BLACK
6
CONTINUOUS
10
5.96923
20
-3.72596
11
5.96892
21
-3.72264
0
LINE
8
BLACK
6
CONTINUOUS
10
5.96892
20
-3.72264
11
5.96892
21
-3.70197
0
LINE
8
BLACK
6
CONTINUOUS
10
5.96892
20
-3.70197
11
5.96923
21
-3.69865
0
LINE
8
BLACK
6
CONTINUOUS
10
5.96923
20
-3.69865
11
5.97098
21
-3.69368
0
LINE
8
BLACK
6
CONTINUOUS
10
5.97098
20
-3.69368
11
5.97411
21
-3.68944
0
LINE
8
BLACK
6
CONTINUOUS
10
5.97411
20
-3.68944
11
5.97835
21
-3.68631
0
LINE
8
BLACK
6
CONTINUOUS
10
5.97835
20
-3.68631
11
5.98332
21
-3.68457
0
LINE
8
BLACK
6
CONTINUOUS
10
5.98332
20
-3.68457
11
5.98664
21
-3.68425
0
LINE
8
BLACK
6
CONTINUOUS
10
5.98664
20
-3.68425
11
6.02207
21
-3.68425
0
LINE
8
BLACK
6
CONTINUOUS
10
6.02207
20
-3.68425
11
6.02539
21
-3.68457
0
LINE
8
BLACK
6
CONTINUOUS
10
6.47088
20
-3.67941
11
6.47585
21
-3.68115
0
LINE
8
BLACK
6
CONTINUOUS
10
6.47585
20
-3.68115
11
6.48009
21
-3.68428
0
LINE
8
BLACK
6
CONTINUOUS
10
6.48009
20
-3.68428
11
6.48322
21
-3.68852
0
LINE
8
BLACK
6
CONTINUOUS
10
6.48322
20
-3.68852
11
6.48496
21
-3.69349
0
LINE
8
BLACK
6
CONTINUOUS
10
6.48496
20
-3.69349
11
6.48528
21
-3.69681
0
LINE
8
BLACK
6
CONTINUOUS
10
6.48528
20
-3.69681
11
6.48528
21
-3.71748
0
LINE
8
BLACK
6
CONTINUOUS
10
6.48528
20
-3.71748
11
6.48496
21
-3.7208
0
LINE
8
BLACK
6
CONTINUOUS
10
6.48496
20
-3.7208
11
6.48322
21
-3.72577
0
LINE
8
BLACK
6
CONTINUOUS
10
6.48322
20
-3.72577
11
6.48009
21
-3.73001
0
LINE
8
BLACK
6
CONTINUOUS
10
6.48009
20
-3.73001
11
6.47585
21
-3.73314
0
LINE
8
BLACK
6
CONTINUOUS
10
6.47585
20
-3.73314
11
6.47088
21
-3.73488
0
LINE
8
BLACK
6
CONTINUOUS
10
6.47088
20
-3.73488
11
6.46756
21
-3.7352
0
LINE
8
BLACK
6
CONTINUOUS
10
6.46756
20
-3.7352
11
6.43213
21
-3.7352
0
LINE
8
BLACK
6
CONTINUOUS
10
6.43213
20
-3.7352
11
6.42881
21
-3.73488
0
LINE
8
BLACK
6
CONTINUOUS
10
6.42881
20
-3.73488
11
6.42384
21
-3.73314
0
LINE
8
BLACK
6
CONTINUOUS
10
6.42384
20
-3.73314
11
6.4196
21
-3.73001
0
LINE
8
BLACK
6
CONTINUOUS
10
6.4196
20
-3.73001
11
6.41647
21
-3.72577
0
LINE
8
BLACK
6
CONTINUOUS
10
6.41647
20
-3.72577
11
6.41472
21
-3.7208
0
LINE
8
BLACK
6
CONTINUOUS
10
6.41472
20
-3.7208
11
6.41441
21
-3.71748
0
LINE
8
BLACK
6
CONTINUOUS
10
6.41441
20
-3.71748
11
6.41441
21
-3.69681
0
LINE
8
BLACK
6
CONTINUOUS
10
6.41441
20
-3.69681
11
6.41472
21
-3.69349
0
LINE
8
BLACK
6
CONTINUOUS
10
6.41472
20
-3.69349
11
6.41647
21
-3.68852
0
LINE
8
BLACK
6
CONTINUOUS
10
6.41647
20
-3.68852
11
6.4196
21
-3.68428
0
LINE
8
BLACK
6
CONTINUOUS
10
6.4196
20
-3.68428
11
6.42384
21
-3.68115
0
LINE
8
BLACK
6
CONTINUOUS
10
6.42384
20
-3.68115
11
6.42881
21
-3.67941
0
LINE
8
BLACK
6
CONTINUOUS
10
6.42881
20
-3.67941
11
6.43213
21
-3.67909
0
LINE
8
BLACK
6
CONTINUOUS
10
6.43213
20
-3.67909
11
6.46756
21
-3.67909
0
LINE
8
BLACK
6
CONTINUOUS
10
6.46756
20
-3.67909
11
6.47088
21
-3.67941
0
LINE
8
BLACK
6
CONTINUOUS
10
6.56588
20
-3.67941
11
6.57085
21
-3.68115
0
LINE
8
BLACK
6
CONTINUOUS
10
6.57085
20
-3.68115
11
6.57509
21
-3.68428
0
LINE
8
BLACK
6
CONTINUOUS
10
6.57509
20
-3.68428
11
6.57822
21
-3.68852
0
LINE
8
BLACK
6
CONTINUOUS
10
6.57822
20
-3.68852
11
6.57996
21
-3.69349
0
LINE
8
BLACK
6
CONTINUOUS
10
6.57996
20
-3.69349
11
6.58028
21
-3.69681
0
LINE
8
BLACK
6
CONTINUOUS
10
6.58028
20
-3.69681
11
6.58028
21
-3.71748
0
LINE
8
BLACK
6
CONTINUOUS
10
6.58028
20
-3.71748
11
6.57996
21
-3.7208
0
LINE
8
BLACK
6
CONTINUOUS
10
6.57996
20
-3.7208
11
6.57822
21
-3.72577
0
LINE
8
BLACK
6
CONTINUOUS
10
6.57822
20
-3.72577
11
6.57509
21
-3.73001
0
LINE
8
BLACK
6
CONTINUOUS
10
6.57509
20
-3.73001
11
6.57085
21
-3.73314
0
LINE
8
BLACK
6
CONTINUOUS
10
6.57085
20
-3.73314
11
6.56588
21
-3.73488
0
LINE
8
BLACK
6
CONTINUOUS
10
6.56588
20
-3.73488
11
6.56256
21
-3.7352
0
LINE
8
BLACK
6
CONTINUOUS
10
6.56256
20
-3.7352
11
6.52713
21
-3.7352
0
LINE
8
BLACK
6
CONTINUOUS
10
6.52713
20
-3.7352
11
6.52381
21
-3.73488
0
LINE
8
BLACK
6
CONTINUOUS
10
6.52381
20
-3.73488
11
6.51884
21
-3.73314
0
LINE
8
BLACK
6
CONTINUOUS
10
6.51884
20
-3.73314
11
6.5146
21
-3.73001
0
LINE
8
BLACK
6
CONTINUOUS
10
6.5146
20
-3.73001
11
6.51147
21
-3.72577
0
LINE
8
BLACK
6
CONTINUOUS
10
6.51147
20
-3.72577
11
6.50972
21
-3.7208
0
LINE
8
BLACK
6
CONTINUOUS
10
6.50972
20
-3.7208
11
6.50941
21
-3.71748
0
LINE
8
BLACK
6
CONTINUOUS
10
6.50941
20
-3.71748
11
6.50941
21
-3.69681
0
LINE
8
BLACK
6
CONTINUOUS
10
6.50941
20
-3.69681
11
6.50972
21
-3.69349
0
LINE
8
BLACK
6
CONTINUOUS
10
6.50972
20
-3.69349
11
6.51147
21
-3.68852
0
LINE
8
BLACK
6
CONTINUOUS
10
6.51147
20
-3.68852
11
6.5146
21
-3.68428
0
LINE
8
BLACK
6
CONTINUOUS
10
6.5146
20
-3.68428
11
6.51884
21
-3.68115
0
LINE
8
BLACK
6
CONTINUOUS
10
6.51884
20
-3.68115
11
6.52381
21
-3.67941
0
LINE
8
BLACK
6
CONTINUOUS
10
6.52381
20
-3.67941
11
6.52713
21
-3.67909
0
LINE
8
BLACK
6
CONTINUOUS
10
6.52713
20
-3.67909
11
6.56256
21
-3.67909
0
LINE
8
BLACK
6
CONTINUOUS
10
6.56256
20
-3.67909
11
6.56588
21
-3.67941
0
LINE
8
BLACK
6
CONTINUOUS
10
6.66686
20
-3.67638
11
6.67183
21
-3.67812
0
LINE
8
BLACK
6
CONTINUOUS
10
6.67183
20
-3.67812
11
6.67607
21
-3.68125
0
LINE
8
BLACK
6
CONTINUOUS
10
6.67607
20
-3.68125
11
6.6792
21
-3.68549
0
LINE
8
BLACK
6
CONTINUOUS
10
6.6792
20
-3.68549
11
6.68095
21
-3.69046
0
LINE
8
BLACK
6
CONTINUOUS
10
6.68095
20
-3.69046
11
6.68126
21
-3.69378
0
LINE
8
BLACK
6
CONTINUOUS
10
6.68126
20
-3.69378
11
6.68126
21
-3.71346
0
LINE
8
BLACK
6
CONTINUOUS
10
6.68126
20
-3.71346
11
6.68095
21
-3.71678
0
LINE
8
BLACK
6
CONTINUOUS
10
6.68095
20
-3.71678
11
6.6792
21
-3.72175
0
LINE
8
BLACK
6
CONTINUOUS
10
6.6792
20
-3.72175
11
6.67607
21
-3.72599
0
LINE
8
BLACK
6
CONTINUOUS
10
6.67607
20
-3.72599
11
6.67183
21
-3.72912
0
LINE
8
BLACK
6
CONTINUOUS
10
6.67183
20
-3.72912
11
6.66686
21
-3.73087
0
LINE
8
BLACK
6
CONTINUOUS
10
6.66686
20
-3.73087
11
6.66354
21
-3.73118
0
LINE
8
BLACK
6
CONTINUOUS
10
6.66354
20
-3.73118
11
6.62614
21
-3.73118
0
LINE
8
BLACK
6
CONTINUOUS
10
6.62614
20
-3.73118
11
6.62282
21
-3.73087
0
LINE
8
BLACK
6
CONTINUOUS
10
6.62282
20
-3.73087
11
6.61785
21
-3.72912
0
LINE
8
BLACK
6
CONTINUOUS
10
6.61785
20
-3.72912
11
6.61361
21
-3.72599
0
LINE
8
BLACK
6
CONTINUOUS
10
6.61361
20
-3.72599
11
6.61048
21
-3.72175
0
LINE
8
BLACK
6
CONTINUOUS
10
6.61048
20
-3.72175
11
6.60874
21
-3.71678
0
LINE
8
BLACK
6
CONTINUOUS
10
6.60874
20
-3.71678
11
6.60843
21
-3.71346
0
LINE
8
BLACK
6
CONTINUOUS
10
6.60843
20
-3.71346
11
6.60843
21
-3.69378
0
LINE
8
BLACK
6
CONTINUOUS
10
6.60843
20
-3.69378
11
6.60874
21
-3.69046
0
LINE
8
BLACK
6
CONTINUOUS
10
6.60874
20
-3.69046
11
6.61048
21
-3.68549
0
LINE
8
BLACK
6
CONTINUOUS
10
6.61048
20
-3.68549
11
6.61361
21
-3.68125
0
LINE
8
BLACK
6
CONTINUOUS
10
6.61361
20
-3.68125
11
6.61785
21
-3.67812
0
LINE
8
BLACK
6
CONTINUOUS
10
6.61785
20
-3.67812
11
6.62282
21
-3.67638
0
LINE
8
BLACK
6
CONTINUOUS
10
6.62282
20
-3.67638
11
6.62614
21
-3.67606
0
LINE
8
BLACK
6
CONTINUOUS
10
6.62614
20
-3.67606
11
6.66354
21
-3.67606
0
LINE
8
BLACK
6
CONTINUOUS
10
6.66354
20
-3.67606
11
6.66686
21
-3.67638
0
LINE
8
BLACK
6
CONTINUOUS
10
6.76088
20
-3.67441
11
6.76585
21
-3.67615
0
LINE
8
BLACK
6
CONTINUOUS
10
6.76585
20
-3.67615
11
6.77009
21
-3.67928
0
LINE
8
BLACK
6
CONTINUOUS
10
6.77009
20
-3.67928
11
6.77322
21
-3.68352
0
LINE
8
BLACK
6
CONTINUOUS
10
6.77322
20
-3.68352
11
6.77496
21
-3.68849
0
LINE
8
BLACK
6
CONTINUOUS
10
6.77496
20
-3.68849
11
6.77528
21
-3.69181
0
LINE
8
BLACK
6
CONTINUOUS
10
6.77528
20
-3.69181
11
6.77528
21
-3.71248
0
LINE
8
BLACK
6
CONTINUOUS
10
6.77528
20
-3.71248
11
6.77496
21
-3.7158
0
LINE
8
BLACK
6
CONTINUOUS
10
6.77496
20
-3.7158
11
6.77322
21
-3.72077
0
LINE
8
BLACK
6
CONTINUOUS
10
6.77322
20
-3.72077
11
6.77009
21
-3.72501
0
LINE
8
BLACK
6
CONTINUOUS
10
6.77009
20
-3.72501
11
6.76585
21
-3.72814
0
LINE
8
BLACK
6
CONTINUOUS
10
6.76585
20
-3.72814
11
6.76088
21
-3.72988
0
LINE
8
BLACK
6
CONTINUOUS
10
6.76088
20
-3.72988
11
6.75756
21
-3.7302
0
LINE
8
BLACK
6
CONTINUOUS
10
6.75756
20
-3.7302
11
6.72213
21
-3.7302
0
LINE
8
BLACK
6
CONTINUOUS
10
6.72213
20
-3.7302
11
6.71881
21
-3.72988
0
LINE
8
BLACK
6
CONTINUOUS
10
6.71881
20
-3.72988
11
6.71384
21
-3.72814
0
LINE
8
BLACK
6
CONTINUOUS
10
6.71384
20
-3.72814
11
6.7096
21
-3.72501
0
LINE
8
BLACK
6
CONTINUOUS
10
6.7096
20
-3.72501
11
6.70647
21
-3.72077
0
LINE
8
BLACK
6
CONTINUOUS
10
6.70647
20
-3.72077
11
6.70472
21
-3.7158
0
LINE
8
BLACK
6
CONTINUOUS
10
6.70472
20
-3.7158
11
6.70441
21
-3.71248
0
LINE
8
BLACK
6
CONTINUOUS
10
6.70441
20
-3.71248
11
6.70441
21
-3.69181
0
LINE
8
BLACK
6
CONTINUOUS
10
6.70441
20
-3.69181
11
6.70472
21
-3.68849
0
LINE
8
BLACK
6
CONTINUOUS
10
6.70472
20
-3.68849
11
6.70647
21
-3.68352
0
LINE
8
BLACK
6
CONTINUOUS
10
6.70647
20
-3.68352
11
6.7096
21
-3.67928
0
LINE
8
BLACK
6
CONTINUOUS
10
6.7096
20
-3.67928
11
6.71384
21
-3.67615
0
LINE
8
BLACK
6
CONTINUOUS
10
6.71384
20
-3.67615
11
6.71881
21
-3.67441
0
LINE
8
BLACK
6
CONTINUOUS
10
6.71881
20
-3.67441
11
6.72213
21
-3.67409
0
LINE
8
BLACK
6
CONTINUOUS
10
6.72213
20
-3.67409
11
6.75756
21
-3.67409
0
LINE
8
BLACK
6
CONTINUOUS
10
6.75756
20
-3.67409
11
6.76088
21
-3.67441
0
LINE
8
BLACK
6
CONTINUOUS
10
6.1627
20
-3.64925
11
6.16525
21
-3.65095
0
LINE
8
BLACK
6
CONTINUOUS
10
6.16525
20
-3.65095
11
6.16696
21
-3.65351
0
LINE
8
BLACK
6
CONTINUOUS
10
6.16696
20
-3.65351
11
6.16756
21
-3.65652
0
LINE
8
BLACK
6
CONTINUOUS
10
6.16756
20
-3.65652
11
6.16756
21
-3.69592
0
LINE
8
BLACK
6
CONTINUOUS
10
6.16756
20
-3.69592
11
6.16696
21
-3.69893
0
LINE
8
BLACK
6
CONTINUOUS
10
6.16696
20
-3.69893
11
6.16525
21
-3.70149
0
LINE
8
BLACK
6
CONTINUOUS
10
6.16525
20
-3.70149
11
6.1627
21
-3.7032
0
LINE
8
BLACK
6
CONTINUOUS
10
6.1627
20
-3.7032
11
6.15969
21
-3.70379
0
LINE
8
BLACK
6
CONTINUOUS
10
6.15969
20
-3.70379
11
6.14
21
-3.70379
0
LINE
8
BLACK
6
CONTINUOUS
10
6.14
20
-3.70379
11
6.13699
21
-3.7032
0
LINE
8
BLACK
6
CONTINUOUS
10
6.13699
20
-3.7032
11
6.13443
21
-3.70149
0
LINE
8
BLACK
6
CONTINUOUS
10
6.13443
20
-3.70149
11
6.13273
21
-3.69893
0
LINE
8
BLACK
6
CONTINUOUS
10
6.13273
20
-3.69893
11
6.13213
21
-3.69592
0
LINE
8
BLACK
6
CONTINUOUS
10
6.13213
20
-3.69592
11
6.13213
21
-3.65652
0
LINE
8
BLACK
6
CONTINUOUS
10
6.13213
20
-3.65652
11
6.13273
21
-3.65351
0
LINE
8
BLACK
6
CONTINUOUS
10
6.13273
20
-3.65351
11
6.13443
21
-3.65095
0
LINE
8
BLACK
6
CONTINUOUS
10
6.13443
20
-3.65095
11
6.13699
21
-3.64925
0
LINE
8
BLACK
6
CONTINUOUS
10
6.13699
20
-3.64925
11
6.14
21
-3.64865
0
LINE
8
BLACK
6
CONTINUOUS
10
6.14
20
-3.64865
11
6.15969
21
-3.64865
0
LINE
8
BLACK
6
CONTINUOUS
10
6.15969
20
-3.64865
11
6.1627
21
-3.64925
0
LINE
8
BLACK
6
CONTINUOUS
10
6.2002
20
-3.64925
11
6.20275
21
-3.65095
0
LINE
8
BLACK
6
CONTINUOUS
10
6.20275
20
-3.65095
11
6.20446
21
-3.65351
0
LINE
8
BLACK
6
CONTINUOUS
10
6.20446
20
-3.65351
11
6.20506
21
-3.65652
0
LINE
8
BLACK
6
CONTINUOUS
10
6.20506
20
-3.65652
11
6.20506
21
-3.69592
0
LINE
8
BLACK
6
CONTINUOUS
10
6.20506
20
-3.69592
11
6.20446
21
-3.69893
0
LINE
8
BLACK
6
CONTINUOUS
10
6.20446
20
-3.69893
11
6.20275
21
-3.70149
0
LINE
8
BLACK
6
CONTINUOUS
10
6.20275
20
-3.70149
11
6.2002
21
-3.7032
0
LINE
8
BLACK
6
CONTINUOUS
10
6.2002
20
-3.7032
11
6.19719
21
-3.70379
0
LINE
8
BLACK
6
CONTINUOUS
10
6.19719
20
-3.70379
11
6.1775
21
-3.70379
0
LINE
8
BLACK
6
CONTINUOUS
10
6.1775
20
-3.70379
11
6.17449
21
-3.7032
0
LINE
8
BLACK
6
CONTINUOUS
10
6.17449
20
-3.7032
11
6.17193
21
-3.70149
0
LINE
8
BLACK
6
CONTINUOUS
10
6.17193
20
-3.70149
11
6.17023
21
-3.69893
0
LINE
8
BLACK
6
CONTINUOUS
10
6.17023
20
-3.69893
11
6.16963
21
-3.69592
0
LINE
8
BLACK
6
CONTINUOUS
10
6.16963
20
-3.69592
11
6.16963
21
-3.65652
0
LINE
8
BLACK
6
CONTINUOUS
10
6.16963
20
-3.65652
11
6.17023
21
-3.65351
0
LINE
8
BLACK
6
CONTINUOUS
10
6.17023
20
-3.65351
11
6.17193
21
-3.65095
0
LINE
8
BLACK
6
CONTINUOUS
10
6.17193
20
-3.65095
11
6.17449
21
-3.64925
0
LINE
8
BLACK
6
CONTINUOUS
10
6.17449
20
-3.64925
11
6.1775
21
-3.64865
0
LINE
8
BLACK
6
CONTINUOUS
10
6.1775
20
-3.64865
11
6.19719
21
-3.64865
0
LINE
8
BLACK
6
CONTINUOUS
10
6.19719
20
-3.64865
11
6.2002
21
-3.64925
0
LINE
8
BLACK
6
CONTINUOUS
10
6.1252
20
-3.64925
11
6.12775
21
-3.65095
0
LINE
8
BLACK
6
CONTINUOUS
10
6.12775
20
-3.65095
11
6.12946
21
-3.65351
0
LINE
8
BLACK
6
CONTINUOUS
10
6.12946
20
-3.65351
11
6.13006
21
-3.65652
0
LINE
8
BLACK
6
CONTINUOUS
10
6.13006
20
-3.65652
11
6.13006
21
-3.69592
0
LINE
8
BLACK
6
CONTINUOUS
10
6.13006
20
-3.69592
11
6.12946
21
-3.69893
0
LINE
8
BLACK
6
CONTINUOUS
10
6.12946
20
-3.69893
11
6.12775
21
-3.70149
0
LINE
8
BLACK
6
CONTINUOUS
10
6.12775
20
-3.70149
11
6.1252
21
-3.7032
0
LINE
8
BLACK
6
CONTINUOUS
10
6.1252
20
-3.7032
11
6.12219
21
-3.70379
0
LINE
8
BLACK
6
CONTINUOUS
10
6.12219
20
-3.70379
11
6.1025
21
-3.70379
0
LINE
8
BLACK
6
CONTINUOUS
10
6.1025
20
-3.70379
11
6.09949
21
-3.7032
0
LINE
8
BLACK
6
CONTINUOUS
10
6.09949
20
-3.7032
11
6.09693
21
-3.70149
0
LINE
8
BLACK
6
CONTINUOUS
10
6.09693
20
-3.70149
11
6.09523
21
-3.69893
0
LINE
8
BLACK
6
CONTINUOUS
10
6.09523
20
-3.69893
11
6.09463
21
-3.69592
0
LINE
8
BLACK
6
CONTINUOUS
10
6.09463
20
-3.69592
11
6.09463
21
-3.65652
0
LINE
8
BLACK
6
CONTINUOUS
10
6.09463
20
-3.65652
11
6.09523
21
-3.65351
0
LINE
8
BLACK
6
CONTINUOUS
10
6.09523
20
-3.65351
11
6.09693
21
-3.65095
0
LINE
8
BLACK
6
CONTINUOUS
10
6.09693
20
-3.65095
11
6.09949
21
-3.64925
0
LINE
8
BLACK
6
CONTINUOUS
10
6.09949
20
-3.64925
11
6.1025
21
-3.64865
0
LINE
8
BLACK
6
CONTINUOUS
10
6.1025
20
-3.64865
11
6.12219
21
-3.64865
0
LINE
8
BLACK
6
CONTINUOUS
10
6.12219
20
-3.64865
11
6.1252
21
-3.64925
0
LINE
8
BLACK
6
CONTINUOUS
10
5.93885
20
-3.6139
11
5.94382
21
-3.61564
0
LINE
8
BLACK
6
CONTINUOUS
10
5.94382
20
-3.61564
11
5.94806
21
-3.61877
0
LINE
8
BLACK
6
CONTINUOUS
10
5.94806
20
-3.61877
11
5.95119
21
-3.62301
0
LINE
8
BLACK
6
CONTINUOUS
10
5.95119
20
-3.62301
11
5.95294
21
-3.62798
0
LINE
8
BLACK
6
CONTINUOUS
10
5.95294
20
-3.62798
11
5.95325
21
-3.6313
0
LINE
8
BLACK
6
CONTINUOUS
10
5.95325
20
-3.6313
11
5.95325
21
-3.65099
0
LINE
8
BLACK
6
CONTINUOUS
10
5.95325
20
-3.65099
11
5.95294
21
-3.65431
0
LINE
8
BLACK
6
CONTINUOUS
10
5.95294
20
-3.65431
11
5.95119
21
-3.65928
0
LINE
8
BLACK
6
CONTINUOUS
10
5.95119
20
-3.65928
11
5.94806
21
-3.66351
0
LINE
8
BLACK
6
CONTINUOUS
10
5.94806
20
-3.66351
11
5.94382
21
-3.66664
0
LINE
8
BLACK
6
CONTINUOUS
10
5.94382
20
-3.66664
11
5.93885
21
-3.66839
0
LINE
8
BLACK
6
CONTINUOUS
10
5.93885
20
-3.66839
11
5.93553
21
-3.6687
0
LINE
8
BLACK
6
CONTINUOUS
10
5.93553
20
-3.6687
11
5.89813
21
-3.6687
0
LINE
8
BLACK
6
CONTINUOUS
10
5.89813
20
-3.6687
11
5.89481
21
-3.66839
0
LINE
8
BLACK
6
CONTINUOUS
10
5.89481
20
-3.66839
11
5.88984
21
-3.66664
0
LINE
8
BLACK
6
CONTINUOUS
10
5.88984
20
-3.66664
11
5.88561
21
-3.66351
0
LINE
8
BLACK
6
CONTINUOUS
10
5.88561
20
-3.66351
11
5.88248
21
-3.65928
0
LINE
8
BLACK
6
CONTINUOUS
10
5.88248
20
-3.65928
11
5.88073
21
-3.65431
0
LINE
8
BLACK
6
CONTINUOUS
10
5.88073
20
-3.65431
11
5.88042
21
-3.65099
0
LINE
8
BLACK
6
CONTINUOUS
10
5.88042
20
-3.65099
11
5.88042
21
-3.6313
0
LINE
8
BLACK
6
CONTINUOUS
10
5.88042
20
-3.6313
11
5.88073
21
-3.62798
0
LINE
8
BLACK
6
CONTINUOUS
10
5.88073
20
-3.62798
11
5.88248
21
-3.62301
0
LINE
8
BLACK
6
CONTINUOUS
10
5.88248
20
-3.62301
11
5.88561
21
-3.61877
0
LINE
8
BLACK
6
CONTINUOUS
10
5.88561
20
-3.61877
11
5.88984
21
-3.61564
0
LINE
8
BLACK
6
CONTINUOUS
10
5.88984
20
-3.61564
11
5.89481
21
-3.6139
0
LINE
8
BLACK
6
CONTINUOUS
10
5.89481
20
-3.6139
11
5.89813
21
-3.61359
0
LINE
8
BLACK
6
CONTINUOUS
10
5.89813
20
-3.61359
11
5.93553
21
-3.61359
0
LINE
8
BLACK
6
CONTINUOUS
10
5.93553
20
-3.61359
11
5.93885
21
-3.6139
0
LINE
8
BLACK
6
CONTINUOUS
10
6.02539
20
-3.61272
11
6.03036
21
-3.61446
0
LINE
8
BLACK
6
CONTINUOUS
10
6.03036
20
-3.61446
11
6.0346
21
-3.61759
0
LINE
8
BLACK
6
CONTINUOUS
10
6.0346
20
-3.61759
11
6.03773
21
-3.62183
0
LINE
8
BLACK
6
CONTINUOUS
10
6.03773
20
-3.62183
11
6.03947
21
-3.6268
0
LINE
8
BLACK
6
CONTINUOUS
10
6.03947
20
-3.6268
11
6.03979
21
-3.63012
0
LINE
8
BLACK
6
CONTINUOUS
10
6.03979
20
-3.63012
11
6.03979
21
-3.65079
0
LINE
8
BLACK
6
CONTINUOUS
10
6.03979
20
-3.65079
11
6.03947
21
-3.65411
0
LINE
8
BLACK
6
CONTINUOUS
10
6.03947
20
-3.65411
11
6.03773
21
-3.65908
0
LINE
8
BLACK
6
CONTINUOUS
10
6.03773
20
-3.65908
11
6.0346
21
-3.66332
0
LINE
8
BLACK
6
CONTINUOUS
10
6.0346
20
-3.66332
11
6.03036
21
-3.66645
0
LINE
8
BLACK
6
CONTINUOUS
10
6.03036
20
-3.66645
11
6.02539
21
-3.66819
0
LINE
8
BLACK
6
CONTINUOUS
10
6.02539
20
-3.66819
11
6.02207
21
-3.66851
0
LINE
8
BLACK
6
CONTINUOUS
10
6.02207
20
-3.66851
11
5.98664
21
-3.66851
0
LINE
8
BLACK
6
CONTINUOUS
10
5.98664
20
-3.66851
11
5.98332
21
-3.66819
0
LINE
8
BLACK
6
CONTINUOUS
10
5.98332
20
-3.66819
11
5.97835
21
-3.66645
0
LINE
8
BLACK
6
CONTINUOUS
10
5.97835
20
-3.66645
11
5.97411
21
-3.66332
0
LINE
8
BLACK
6
CONTINUOUS
10
5.97411
20
-3.66332
11
5.97098
21
-3.65908
0
LINE
8
BLACK
6
CONTINUOUS
10
5.97098
20
-3.65908
11
5.96923
21
-3.65411
0
LINE
8
BLACK
6
CONTINUOUS
10
5.96923
20
-3.65411
11
5.96892
21
-3.65079
0
LINE
8
BLACK
6
CONTINUOUS
10
5.96892
20
-3.65079
11
5.96892
21
-3.63012
0
LINE
8
BLACK
6
CONTINUOUS
10
5.96892
20
-3.63012
11
5.96923
21
-3.6268
0
LINE
8
BLACK
6
CONTINUOUS
10
5.96923
20
-3.6268
11
5.97098
21
-3.62183
0
LINE
8
BLACK
6
CONTINUOUS
10
5.97098
20
-3.62183
11
5.97411
21
-3.61759
0
LINE
8
BLACK
6
CONTINUOUS
10
5.97411
20
-3.61759
11
5.97835
21
-3.61446
0
LINE
8
BLACK
6
CONTINUOUS
10
5.97835
20
-3.61446
11
5.98332
21
-3.61272
0
LINE
8
BLACK
6
CONTINUOUS
10
5.98332
20
-3.61272
11
5.98664
21
-3.6124
0
LINE
8
BLACK
6
CONTINUOUS
10
5.98664
20
-3.6124
11
6.02207
21
-3.6124
0
LINE
8
BLACK
6
CONTINUOUS
10
6.02207
20
-3.6124
11
6.02539
21
-3.61272
0
LINE
8
BLACK
6
CONTINUOUS
10
6.56588
20
-3.60756
11
6.57085
21
-3.6093
0
LINE
8
BLACK
6
CONTINUOUS
10
6.57085
20
-3.6093
11
6.57509
21
-3.61243
0
LINE
8
BLACK
6
CONTINUOUS
10
6.57509
20
-3.61243
11
6.57822
21
-3.61667
0
LINE
8
BLACK
6
CONTINUOUS
10
6.57822
20
-3.61667
11
6.57996
21
-3.62164
0
LINE
8
BLACK
6
CONTINUOUS
10
6.57996
20
-3.62164
11
6.58028
21
-3.62496
0
LINE
8
BLACK
6
CONTINUOUS
10
6.58028
20
-3.62496
11
6.58028
21
-3.64563
0
LINE
8
BLACK
6
CONTINUOUS
10
6.58028
20
-3.64563
11
6.57996
21
-3.64895
0
LINE
8
BLACK
6
CONTINUOUS
10
6.57996
20
-3.64895
11
6.57822
21
-3.65392
0
LINE
8
BLACK
6
CONTINUOUS
10
6.57822
20
-3.65392
11
6.57509
21
-3.65816
0
LINE
8
BLACK
6
CONTINUOUS
10
6.57509
20
-3.65816
11
6.57085
21
-3.66129
0
LINE
8
BLACK
6
CONTINUOUS
10
6.57085
20
-3.66129
11
6.56588
21
-3.66303
0
LINE
8
BLACK
6
CONTINUOUS
10
6.56588
20
-3.66303
11
6.56256
21
-3.66335
0
LINE
8
BLACK
6
CONTINUOUS
10
6.56256
20
-3.66335
11
6.52713
21
-3.66335
0
LINE
8
BLACK
6
CONTINUOUS
10
6.52713
20
-3.66335
11
6.52381
21
-3.66303
0
LINE
8
BLACK
6
CONTINUOUS
10
6.52381
20
-3.66303
11
6.51884
21
-3.66129
0
LINE
8
BLACK
6
CONTINUOUS
10
6.51884
20
-3.66129
11
6.5146
21
-3.65816
0
LINE
8
BLACK
6
CONTINUOUS
10
6.5146
20
-3.65816
11
6.51147
21
-3.65392
0
LINE
8
BLACK
6
CONTINUOUS
10
6.51147
20
-3.65392
11
6.50972
21
-3.64895
0
LINE
8
BLACK
6
CONTINUOUS
10
6.50972
20
-3.64895
11
6.50941
21
-3.64563
0
LINE
8
BLACK
6
CONTINUOUS
10
6.50941
20
-3.64563
11
6.50941
21
-3.62496
0
LINE
8
BLACK
6
CONTINUOUS
10
6.50941
20
-3.62496
11
6.50972
21
-3.62164
0
LINE
8
BLACK
6
CONTINUOUS
10
6.50972
20
-3.62164
11
6.51147
21
-3.61667
0
LINE
8
BLACK
6
CONTINUOUS
10
6.51147
20
-3.61667
11
6.5146
21
-3.61243
0
LINE
8
BLACK
6
CONTINUOUS
10
6.5146
20
-3.61243
11
6.51884
21
-3.6093
0
LINE
8
BLACK
6
CONTINUOUS
10
6.51884
20
-3.6093
11
6.52381
21
-3.60756
0
LINE
8
BLACK
6
CONTINUOUS
10
6.52381
20
-3.60756
11
6.52713
21
-3.60724
0
LINE
8
BLACK
6
CONTINUOUS
10
6.52713
20
-3.60724
11
6.56256
21
-3.60724
0
LINE
8
BLACK
6
CONTINUOUS
10
6.56256
20
-3.60724
11
6.56588
21
-3.60756
0
LINE
8
BLACK
6
CONTINUOUS
10
6.47088
20
-3.60756
11
6.47585
21
-3.6093
0
LINE
8
BLACK
6
CONTINUOUS
10
6.47585
20
-3.6093
11
6.48009
21
-3.61243
0
LINE
8
BLACK
6
CONTINUOUS
10
6.48009
20
-3.61243
11
6.48322
21
-3.61667
0
LINE
8
BLACK
6
CONTINUOUS
10
6.48322
20
-3.61667
11
6.48496
21
-3.62164
0
LINE
8
BLACK
6
CONTINUOUS
10
6.48496
20
-3.62164
11
6.48528
21
-3.62496
0
LINE
8
BLACK
6
CONTINUOUS
10
6.48528
20
-3.62496
11
6.48528
21
-3.64563
0
LINE
8
BLACK
6
CONTINUOUS
10
6.48528
20
-3.64563
11
6.48496
21
-3.64895
0
LINE
8
BLACK
6
CONTINUOUS
10
6.48496
20
-3.64895
11
6.48322
21
-3.65392
0
LINE
8
BLACK
6
CONTINUOUS
10
6.48322
20
-3.65392
11
6.48009
21
-3.65816
0
LINE
8
BLACK
6
CONTINUOUS
10
6.48009
20
-3.65816
11
6.47585
21
-3.66129
0
LINE
8
BLACK
6
CONTINUOUS
10
6.47585
20
-3.66129
11
6.47088
21
-3.66303
0
LINE
8
BLACK
6
CONTINUOUS
10
6.47088
20
-3.66303
11
6.46756
21
-3.66335
0
LINE
8
BLACK
6
CONTINUOUS
10
6.46756
20
-3.66335
11
6.43213
21
-3.66335
0
LINE
8
BLACK
6
CONTINUOUS
10
6.43213
20
-3.66335
11
6.42881
21
-3.66303
0
LINE
8
BLACK
6
CONTINUOUS
10
6.42881
20
-3.66303
11
6.42384
21
-3.66129
0
LINE
8
BLACK
6
CONTINUOUS
10
6.42384
20
-3.66129
11
6.4196
21
-3.65816
0
LINE
8
BLACK
6
CONTINUOUS
10
6.4196
20
-3.65816
11
6.41647
21
-3.65392
0
LINE
8
BLACK
6
CONTINUOUS
10
6.41647
20
-3.65392
11
6.41472
21
-3.64895
0
LINE
8
BLACK
6
CONTINUOUS
10
6.41472
20
-3.64895
11
6.41441
21
-3.64563
0
LINE
8
BLACK
6
CONTINUOUS
10
6.41441
20
-3.64563
11
6.41441
21
-3.62496
0
LINE
8
BLACK
6
CONTINUOUS
10
6.41441
20
-3.62496
11
6.41472
21
-3.62164
0
LINE
8
BLACK
6
CONTINUOUS
10
6.41472
20
-3.62164
11
6.41647
21
-3.61667
0
LINE
8
BLACK
6
CONTINUOUS
10
6.41647
20
-3.61667
11
6.4196
21
-3.61243
0
LINE
8
BLACK
6
CONTINUOUS
10
6.4196
20
-3.61243
11
6.42384
21
-3.6093
0
LINE
8
BLACK
6
CONTINUOUS
10
6.42384
20
-3.6093
11
6.42881
21
-3.60756
0
LINE
8
BLACK
6
CONTINUOUS
10
6.42881
20
-3.60756
11
6.43213
21
-3.60724
0
LINE
8
BLACK
6
CONTINUOUS
10
6.43213
20
-3.60724
11
6.46756
21
-3.60724
0
LINE
8
BLACK
6
CONTINUOUS
10
6.46756
20
-3.60724
11
6.47088
21
-3.60756
0
LINE
8
BLACK
6
CONTINUOUS
10
6.35541
20
-3.59012
11
6.36038
21
-3.59186
0
LINE
8
BLACK
6
CONTINUOUS
10
6.36038
20
-3.59186
11
6.36461
21
-3.59499
0
LINE
8
BLACK
6
CONTINUOUS
10
6.36461
20
-3.59499
11
6.36774
21
-3.59923
0
LINE
8
BLACK
6
CONTINUOUS
10
6.36774
20
-3.59923
11
6.36949
21
-3.6042
0
LINE
8
BLACK
6
CONTINUOUS
10
6.36949
20
-3.6042
11
6.3698
21
-3.60752
0
LINE
8
BLACK
6
CONTINUOUS
10
6.3698
20
-3.60752
11
6.3698
21
-3.64492
0
LINE
8
BLACK
6
CONTINUOUS
10
6.3698
20
-3.64492
11
6.36949
21
-3.64824
0
LINE
8
BLACK
6
CONTINUOUS
10
6.36949
20
-3.64824
11
6.36774
21
-3.65321
0
LINE
8
BLACK
6
CONTINUOUS
10
6.36774
20
-3.65321
11
6.36461
21
-3.65745
0
LINE
8
BLACK
6
CONTINUOUS
10
6.36461
20
-3.65745
11
6.36038
21
-3.66058
0
LINE
8
BLACK
6
CONTINUOUS
10
6.36038
20
-3.66058
11
6.35541
21
-3.66232
0
LINE
8
BLACK
6
CONTINUOUS
10
6.35541
20
-3.66232
11
6.35209
21
-3.66264
0
LINE
8
BLACK
6
CONTINUOUS
10
6.35209
20
-3.66264
11
6.3324
21
-3.66264
0
LINE
8
BLACK
6
CONTINUOUS
10
6.3324
20
-3.66264
11
6.32908
21
-3.66232
0
LINE
8
BLACK
6
CONTINUOUS
10
6.32908
20
-3.66232
11
6.32411
21
-3.66058
0
LINE
8
BLACK
6
CONTINUOUS
10
6.32411
20
-3.66058
11
6.31987
21
-3.65745
0
LINE
8
BLACK
6
CONTINUOUS
10
6.31987
20
-3.65745
11
6.31674
21
-3.65321
0
LINE
8
BLACK
6
CONTINUOUS
10
6.31674
20
-3.65321
11
6.315
21
-3.64824
0
LINE
8
BLACK
6
CONTINUOUS
10
6.315
20
-3.64824
11
6.31469
21
-3.64492
0
LINE
8
BLACK
6
CONTINUOUS
10
6.31469
20
-3.64492
11
6.31469
21
-3.60752
0
LINE
8
BLACK
6
CONTINUOUS
10
6.31469
20
-3.60752
11
6.315
21
-3.6042
0
LINE
8
BLACK
6
CONTINUOUS
10
6.315
20
-3.6042
11
6.31674
21
-3.59923
0
LINE
8
BLACK
6
CONTINUOUS
10
6.31674
20
-3.59923
11
6.31987
21
-3.59499
0
LINE
8
BLACK
6
CONTINUOUS
10
6.31987
20
-3.59499
11
6.32411
21
-3.59186
0
LINE
8
BLACK
6
CONTINUOUS
10
6.32411
20
-3.59186
11
6.32908
21
-3.59012
0
LINE
8
BLACK
6
CONTINUOUS
10
6.32908
20
-3.59012
11
6.3324
21
-3.5898
0
LINE
8
BLACK
6
CONTINUOUS
10
6.3324
20
-3.5898
11
6.35209
21
-3.5898
0
LINE
8
BLACK
6
CONTINUOUS
10
6.35209
20
-3.5898
11
6.35541
21
-3.59012
0
LINE
8
BLACK
6
CONTINUOUS
10
6.2806
20
-3.59012
11
6.28557
21
-3.59186
0
LINE
8
BLACK
6
CONTINUOUS
10
6.28557
20
-3.59186
11
6.28981
21
-3.59499
0
LINE
8
BLACK
6
CONTINUOUS
10
6.28981
20
-3.59499
11
6.29294
21
-3.59923
0
LINE
8
BLACK
6
CONTINUOUS
10
6.29294
20
-3.59923
11
6.29469
21
-3.6042
0
LINE
8
BLACK
6
CONTINUOUS
10
6.29469
20
-3.6042
11
6.295
21
-3.60752
0
LINE
8
BLACK
6
CONTINUOUS
10
6.295
20
-3.60752
11
6.295
21
-3.64492
0
LINE
8
BLACK
6
CONTINUOUS
10
6.295
20
-3.64492
11
6.29469
21
-3.64824
0
LINE
8
BLACK
6
CONTINUOUS
10
6.29469
20
-3.64824
11
6.29294
21
-3.65321
0
LINE
8
BLACK
6
CONTINUOUS
10
6.29294
20
-3.65321
11
6.28981
21
-3.65745
0
LINE
8
BLACK
6
CONTINUOUS
10
6.28981
20
-3.65745
11
6.28557
21
-3.66058
0
LINE
8
BLACK
6
CONTINUOUS
10
6.28557
20
-3.66058
11
6.2806
21
-3.66232
0
LINE
8
BLACK
6
CONTINUOUS
10
6.2806
20
-3.66232
11
6.27728
21
-3.66264
0
LINE
8
BLACK
6
CONTINUOUS
10
6.27728
20
-3.66264
11
6.2576
21
-3.66264
0
LINE
8
BLACK
6
CONTINUOUS
10
6.2576
20
-3.66264
11
6.25428
21
-3.66232
0
LINE
8
BLACK
6
CONTINUOUS
10
6.25428
20
-3.66232
11
6.24931
21
-3.66058
0
LINE
8
BLACK
6
CONTINUOUS
10
6.24931
20
-3.66058
11
6.24507
21
-3.65745
0
LINE
8
BLACK
6
CONTINUOUS
10
6.24507
20
-3.65745
11
6.24194
21
-3.65321
0
LINE
8
BLACK
6
CONTINUOUS
10
6.24194
20
-3.65321
11
6.2402
21
-3.64824
0
LINE
8
BLACK
6
CONTINUOUS
10
6.2402
20
-3.64824
11
6.23988
21
-3.64492
0
LINE
8
BLACK
6
CONTINUOUS
10
6.23988
20
-3.64492
11
6.23988
21
-3.60752
0
LINE
8
BLACK
6
CONTINUOUS
10
6.23988
20
-3.60752
11
6.2402
21
-3.6042
0
LINE
8
BLACK
6
CONTINUOUS
10
6.2402
20
-3.6042
11
6.24194
21
-3.59923
0
LINE
8
BLACK
6
CONTINUOUS
10
6.24194
20
-3.59923
11
6.24507
21
-3.59499
0
LINE
8
BLACK
6
CONTINUOUS
10
6.24507
20
-3.59499
11
6.24931
21
-3.59186
0
LINE
8
BLACK
6
CONTINUOUS
10
6.24931
20
-3.59186
11
6.25428
21
-3.59012
0
LINE
8
BLACK
6
CONTINUOUS
10
6.25428
20
-3.59012
11
6.2576
21
-3.5898
0
LINE
8
BLACK
6
CONTINUOUS
10
6.2576
20
-3.5898
11
6.27728
21
-3.5898
0
LINE
8
BLACK
6
CONTINUOUS
10
6.27728
20
-3.5898
11
6.2806
21
-3.59012
0
LINE
8
BLACK
6
CONTINUOUS
10
6.76088
20
-3.60256
11
6.76585
21
-3.6043
0
LINE
8
BLACK
6
CONTINUOUS
10
6.76585
20
-3.6043
11
6.77009
21
-3.60743
0
LINE
8
BLACK
6
CONTINUOUS
10
6.77009
20
-3.60743
11
6.77322
21
-3.61167
0
LINE
8
BLACK
6
CONTINUOUS
10
6.77322
20
-3.61167
11
6.77496
21
-3.61664
0
LINE
8
BLACK
6
CONTINUOUS
10
6.77496
20
-3.61664
11
6.77528
21
-3.61996
0
LINE
8
BLACK
6
CONTINUOUS
10
6.77528
20
-3.61996
11
6.77528
21
-3.64063
0
LINE
8
BLACK
6
CONTINUOUS
10
6.77528
20
-3.64063
11
6.77496
21
-3.64395
0
LINE
8
BLACK
6
CONTINUOUS
10
6.77496
20
-3.64395
11
6.77322
21
-3.64892
0
LINE
8
BLACK
6
CONTINUOUS
10
6.77322
20
-3.64892
11
6.77009
21
-3.65316
0
LINE
8
BLACK
6
CONTINUOUS
10
6.77009
20
-3.65316
11
6.76585
21
-3.65629
0
LINE
8
BLACK
6
CONTINUOUS
10
6.76585
20
-3.65629
11
6.76088
21
-3.65803
0
LINE
8
BLACK
6
CONTINUOUS
10
6.76088
20
-3.65803
11
6.75756
21
-3.65835
0
LINE
8
BLACK
6
CONTINUOUS
10
6.75756
20
-3.65835
11
6.72213
21
-3.65835
0
LINE
8
BLACK
6
CONTINUOUS
10
6.72213
20
-3.65835
11
6.71881
21
-3.65803
0
LINE
8
BLACK
6
CONTINUOUS
10
6.71881
20
-3.65803
11
6.71384
21
-3.65629
0
LINE
8
BLACK
6
CONTINUOUS
10
6.71384
20
-3.65629
11
6.7096
21
-3.65316
0
LINE
8
BLACK
6
CONTINUOUS
10
6.7096
20
-3.65316
11
6.70647
21
-3.64892
0
LINE
8
BLACK
6
CONTINUOUS
10
6.70647
20
-3.64892
11
6.70472
21
-3.64395
0
LINE
8
BLACK
6
CONTINUOUS
10
6.70472
20
-3.64395
11
6.70441
21
-3.64063
0
LINE
8
BLACK
6
CONTINUOUS
10
6.70441
20
-3.64063
11
6.70441
21
-3.61996
0
LINE
8
BLACK
6
CONTINUOUS
10
6.70441
20
-3.61996
11
6.70472
21
-3.61664
0
LINE
8
BLACK
6
CONTINUOUS
10
6.70472
20
-3.61664
11
6.70647
21
-3.61167
0
LINE
8
BLACK
6
CONTINUOUS
10
6.70647
20
-3.61167
11
6.7096
21
-3.60743
0
LINE
8
BLACK
6
CONTINUOUS
10
6.7096
20
-3.60743
11
6.71384
21
-3.6043
0
LINE
8
BLACK
6
CONTINUOUS
10
6.71384
20
-3.6043
11
6.71881
21
-3.60256
0
LINE
8
BLACK
6
CONTINUOUS
10
6.71881
20
-3.60256
11
6.72213
21
-3.60224
0
LINE
8
BLACK
6
CONTINUOUS
10
6.72213
20
-3.60224
11
6.75756
21
-3.60224
0
LINE
8
BLACK
6
CONTINUOUS
10
6.75756
20
-3.60224
11
6.76088
21
-3.60256
0
LINE
8
BLACK
6
CONTINUOUS
10
6.66686
20
-3.60157
11
6.67183
21
-3.60332
0
LINE
8
BLACK
6
CONTINUOUS
10
6.67183
20
-3.60332
11
6.67607
21
-3.60645
0
LINE
8
BLACK
6
CONTINUOUS
10
6.67607
20
-3.60645
11
6.6792
21
-3.61069
0
LINE
8
BLACK
6
CONTINUOUS
10
6.6792
20
-3.61069
11
6.68095
21
-3.61566
0
LINE
8
BLACK
6
CONTINUOUS
10
6.68095
20
-3.61566
11
6.68126
21
-3.61898
0
LINE
8
BLACK
6
CONTINUOUS
10
6.68126
20
-3.61898
11
6.68126
21
-3.63866
0
LINE
8
BLACK
6
CONTINUOUS
10
6.68126
20
-3.63866
11
6.68095
21
-3.64198
0
LINE
8
BLACK
6
CONTINUOUS
10
6.68095
20
-3.64198
11
6.6792
21
-3.64695
0
LINE
8
BLACK
6
CONTINUOUS
10
6.6792
20
-3.64695
11
6.67607
21
-3.65119
0
LINE
8
BLACK
6
CONTINUOUS
10
6.67607
20
-3.65119
11
6.67183
21
-3.65432
0
LINE
8
BLACK
6
CONTINUOUS
10
6.67183
20
-3.65432
11
6.66686
21
-3.65606
0
LINE
8
BLACK
6
CONTINUOUS
10
6.66686
20
-3.65606
11
6.66354
21
-3.65638
0
LINE
8
BLACK
6
CONTINUOUS
10
6.66354
20
-3.65638
11
6.62614
21
-3.65638
0
LINE
8
BLACK
6
CONTINUOUS
10
6.62614
20
-3.65638
11
6.62282
21
-3.65606
0
LINE
8
BLACK
6
CONTINUOUS
10
6.62282
20
-3.65606
11
6.61785
21
-3.65432
0
LINE
8
BLACK
6
CONTINUOUS
10
6.61785
20
-3.65432
11
6.61361
21
-3.65119
0
LINE
8
BLACK
6
CONTINUOUS
10
6.61361
20
-3.65119
11
6.61048
21
-3.64695
0
LINE
8
BLACK
6
CONTINUOUS
10
6.61048
20
-3.64695
11
6.60874
21
-3.64198
0
LINE
8
BLACK
6
CONTINUOUS
10
6.60874
20
-3.64198
11
6.60843
21
-3.63866
0
LINE
8
BLACK
6
CONTINUOUS
10
6.60843
20
-3.63866
11
6.60843
21
-3.61898
0
LINE
8
BLACK
6
CONTINUOUS
10
6.60843
20
-3.61898
11
6.60874
21
-3.61566
0
LINE
8
BLACK
6
CONTINUOUS
10
6.60874
20
-3.61566
11
6.61048
21
-3.61069
0
LINE
8
BLACK
6
CONTINUOUS
10
6.61048
20
-3.61069
11
6.61361
21
-3.60645
0
LINE
8
BLACK
6
CONTINUOUS
10
6.61361
20
-3.60645
11
6.61785
21
-3.60332
0
LINE
8
BLACK
6
CONTINUOUS
10
6.61785
20
-3.60332
11
6.62282
21
-3.60157
0
LINE
8
BLACK
6
CONTINUOUS
10
6.62282
20
-3.60157
11
6.62614
21
-3.60126
0
LINE
8
BLACK
6
CONTINUOUS
10
6.62614
20
-3.60126
11
6.66354
21
-3.60126
0
LINE
8
BLACK
6
CONTINUOUS
10
6.66354
20
-3.60126
11
6.66686
21
-3.60157
0
LINE
8
BLACK
6
CONTINUOUS
10
6.93186
20
-3.59138
11
6.93683
21
-3.59312
0
LINE
8
BLACK
6
CONTINUOUS
10
6.93683
20
-3.59312
11
6.94107
21
-3.59625
0
LINE
8
BLACK
6
CONTINUOUS
10
6.94107
20
-3.59625
11
6.9442
21
-3.60049
0
LINE
8
BLACK
6
CONTINUOUS
10
6.9442
20
-3.60049
11
6.94595
21
-3.60546
0
LINE
8
BLACK
6
CONTINUOUS
10
6.94595
20
-3.60546
11
6.94626
21
-3.60878
0
LINE
8
BLACK
6
CONTINUOUS
10
6.94626
20
-3.60878
11
6.94626
21
-3.62846
0
LINE
8
BLACK
6
CONTINUOUS
10
6.94626
20
-3.62846
11
6.94595
21
-3.63178
0
LINE
8
BLACK
6
CONTINUOUS
10
6.94595
20
-3.63178
11
6.9442
21
-3.63675
0
LINE
8
BLACK
6
CONTINUOUS
10
6.9442
20
-3.63675
11
6.94107
21
-3.64099
0
LINE
8
BLACK
6
CONTINUOUS
10
6.94107
20
-3.64099
11
6.93683
21
-3.64412
0
LINE
8
BLACK
6
CONTINUOUS
10
6.93683
20
-3.64412
11
6.93186
21
-3.64587
0
LINE
8
BLACK
6
CONTINUOUS
10
6.93186
20
-3.64587
11
6.92854
21
-3.64618
0
LINE
8
BLACK
6
CONTINUOUS
10
6.92854
20
-3.64618
11
6.89114
21
-3.64618
0
LINE
8
BLACK
6
CONTINUOUS
10
6.89114
20
-3.64618
11
6.88782
21
-3.64587
0
LINE
8
BLACK
6
CONTINUOUS
10
6.88782
20
-3.64587
11
6.88285
21
-3.64412
0
LINE
8
BLACK
6
CONTINUOUS
10
6.88285
20
-3.64412
11
6.87861
21
-3.64099
0
LINE
8
BLACK
6
CONTINUOUS
10
6.87861
20
-3.64099
11
6.87548
21
-3.63675
0
LINE
8
BLACK
6
CONTINUOUS
10
6.87548
20
-3.63675
11
6.87374
21
-3.63178
0
LINE
8
BLACK
6
CONTINUOUS
10
6.87374
20
-3.63178
11
6.87343
21
-3.62846
0
LINE
8
BLACK
6
CONTINUOUS
10
6.87343
20
-3.62846
11
6.87343
21
-3.60878
0
LINE
8
BLACK
6
CONTINUOUS
10
6.87343
20
-3.60878
11
6.87374
21
-3.60546
0
LINE
8
BLACK
6
CONTINUOUS
10
6.87374
20
-3.60546
11
6.87548
21
-3.60049
0
LINE
8
BLACK
6
CONTINUOUS
10
6.87548
20
-3.60049
11
6.87861
21
-3.59625
0
LINE
8
BLACK
6
CONTINUOUS
10
6.87861
20
-3.59625
11
6.88285
21
-3.59312
0
LINE
8
BLACK
6
CONTINUOUS
10
6.88285
20
-3.59312
11
6.88782
21
-3.59138
0
LINE
8
BLACK
6
CONTINUOUS
10
6.88782
20
-3.59138
11
6.89114
21
-3.59106
0
LINE
8
BLACK
6
CONTINUOUS
10
6.89114
20
-3.59106
11
6.92854
21
-3.59106
0
LINE
8
BLACK
6
CONTINUOUS
10
6.92854
20
-3.59106
11
6.93186
21
-3.59138
0
LINE
8
BLACK
6
CONTINUOUS
10
6.84088
20
-3.58941
11
6.84585
21
-3.59115
0
LINE
8
BLACK
6
CONTINUOUS
10
6.84585
20
-3.59115
11
6.85009
21
-3.59428
0
LINE
8
BLACK
6
CONTINUOUS
10
6.85009
20
-3.59428
11
6.85322
21
-3.59852
0
LINE
8
BLACK
6
CONTINUOUS
10
6.85322
20
-3.59852
11
6.85496
21
-3.60349
0
LINE
8
BLACK
6
CONTINUOUS
10
6.85496
20
-3.60349
11
6.85528
21
-3.60681
0
LINE
8
BLACK
6
CONTINUOUS
10
6.85528
20
-3.60681
11
6.85528
21
-3.62748
0
LINE
8
BLACK
6
CONTINUOUS
10
6.85528
20
-3.62748
11
6.85496
21
-3.6308
0
LINE
8
BLACK
6
CONTINUOUS
10
6.85496
20
-3.6308
11
6.85322
21
-3.63577
0
LINE
8
BLACK
6
CONTINUOUS
10
6.85322
20
-3.63577
11
6.85009
21
-3.64001
0
LINE
8
BLACK
6
CONTINUOUS
10
6.85009
20
-3.64001
11
6.84585
21
-3.64314
0
LINE
8
BLACK
6
CONTINUOUS
10
6.84585
20
-3.64314
11
6.84088
21
-3.64488
0
LINE
8
BLACK
6
CONTINUOUS
10
6.84088
20
-3.64488
11
6.83756
21
-3.6452
0
LINE
8
BLACK
6
CONTINUOUS
10
6.83756
20
-3.6452
11
6.80213
21
-3.6452
0
LINE
8
BLACK
6
CONTINUOUS
10
6.80213
20
-3.6452
11
6.79881
21
-3.64488
0
LINE
8
BLACK
6
CONTINUOUS
10
6.79881
20
-3.64488
11
6.79384
21
-3.64314
0
LINE
8
BLACK
6
CONTINUOUS
10
6.79384
20
-3.64314
11
6.7896
21
-3.64001
0
LINE
8
BLACK
6
CONTINUOUS
10
6.7896
20
-3.64001
11
6.78647
21
-3.63577
0
LINE
8
BLACK
6
CONTINUOUS
10
6.78647
20
-3.63577
11
6.78472
21
-3.6308
0
LINE
8
BLACK
6
CONTINUOUS
10
6.78472
20
-3.6308
11
6.78441
21
-3.62748
0
LINE
8
BLACK
6
CONTINUOUS
10
6.78441
20
-3.62748
11
6.78441
21
-3.60681
0
LINE
8
BLACK
6
CONTINUOUS
10
6.78441
20
-3.60681
11
6.78472
21
-3.60349
0
LINE
8
BLACK
6
CONTINUOUS
10
6.78472
20
-3.60349
11
6.78647
21
-3.59852
0
LINE
8
BLACK
6
CONTINUOUS
10
6.78647
20
-3.59852
11
6.7896
21
-3.59428
0
LINE
8
BLACK
6
CONTINUOUS
10
6.7896
20
-3.59428
11
6.79384
21
-3.59115
0
LINE
8
BLACK
6
CONTINUOUS
10
6.79384
20
-3.59115
11
6.79881
21
-3.58941
0
LINE
8
BLACK
6
CONTINUOUS
10
6.79881
20
-3.58941
11
6.80213
21
-3.58909
0
LINE
8
BLACK
6
CONTINUOUS
10
6.80213
20
-3.58909
11
6.83756
21
-3.58909
0
LINE
8
BLACK
6
CONTINUOUS
10
6.83756
20
-3.58909
11
6.84088
21
-3.58941
0
LINE
8
BLACK
6
CONTINUOUS
10
5.46286
20
-3.53395
11
5.46541
21
-3.53565
0
LINE
8
BLACK
6
CONTINUOUS
10
5.46541
20
-3.53565
11
5.46712
21
-3.53821
0
LINE
8
BLACK
6
CONTINUOUS
10
5.46712
20
-3.53821
11
5.46772
21
-3.54122
0
LINE
8
BLACK
6
CONTINUOUS
10
5.46772
20
-3.54122
11
5.46772
21
-3.60122
0
LINE
8
BLACK
6
CONTINUOUS
10
5.46772
20
-3.60122
11
5.46712
21
-3.60423
0
LINE
8
BLACK
6
CONTINUOUS
10
5.46712
20
-3.60423
11
5.46541
21
-3.60679
0
LINE
8
BLACK
6
CONTINUOUS
10
5.46541
20
-3.60679
11
5.46286
21
-3.6085
0
LINE
8
BLACK
6
CONTINUOUS
10
5.46286
20
-3.6085
11
5.45984
21
-3.60909
0
LINE
8
BLACK
6
CONTINUOUS
10
5.45984
20
-3.60909
11
5.39984
21
-3.60909
0
LINE
8
BLACK
6
CONTINUOUS
10
5.39984
20
-3.60909
11
5.39683
21
-3.6085
0
LINE
8
BLACK
6
CONTINUOUS
10
5.39683
20
-3.6085
11
5.39427
21
-3.60679
0
LINE
8
BLACK
6
CONTINUOUS
10
5.39427
20
-3.60679
11
5.39257
21
-3.60423
0
LINE
8
BLACK
6
CONTINUOUS
10
5.39257
20
-3.60423
11
5.39197
21
-3.60122
0
LINE
8
BLACK
6
CONTINUOUS
10
5.39197
20
-3.60122
11
5.39197
21
-3.54122
0
LINE
8
BLACK
6
CONTINUOUS
10
5.39197
20
-3.54122
11
5.39257
21
-3.53821
0
LINE
8
BLACK
6
CONTINUOUS
10
5.39257
20
-3.53821
11
5.39427
21
-3.53565
0
LINE
8
BLACK
6
CONTINUOUS
10
5.39427
20
-3.53565
11
5.39683
21
-3.53395
0
LINE
8
BLACK
6
CONTINUOUS
10
5.39683
20
-3.53395
11
5.39984
21
-3.53335
0
LINE
8
BLACK
6
CONTINUOUS
10
5.39984
20
-3.53335
11
5.45984
21
-3.53335
0
LINE
8
BLACK
6
CONTINUOUS
10
5.45984
20
-3.53335
11
5.46286
21
-3.53395
0
LINE
8
BLACK
6
CONTINUOUS
10
5.56286
20
-3.53395
11
5.56541
21
-3.53565
0
LINE
8
BLACK
6
CONTINUOUS
10
5.56541
20
-3.53565
11
5.56712
21
-3.53821
0
LINE
8
BLACK
6
CONTINUOUS
10
5.56712
20
-3.53821
11
5.56772
21
-3.54122
0
LINE
8
BLACK
6
CONTINUOUS
10
5.56772
20
-3.54122
11
5.56772
21
-3.60122
0
LINE
8
BLACK
6
CONTINUOUS
10
5.56772
20
-3.60122
11
5.56712
21
-3.60423
0
LINE
8
BLACK
6
CONTINUOUS
10
5.56712
20
-3.60423
11
5.56541
21
-3.60679
0
LINE
8
BLACK
6
CONTINUOUS
10
5.56541
20
-3.60679
11
5.56286
21
-3.6085
0
LINE
8
BLACK
6
CONTINUOUS
10
5.56286
20
-3.6085
11
5.55984
21
-3.60909
0
LINE
8
BLACK
6
CONTINUOUS
10
5.55984
20
-3.60909
11
5.49984
21
-3.60909
0
LINE
8
BLACK
6
CONTINUOUS
10
5.49984
20
-3.60909
11
5.49683
21
-3.6085
0
LINE
8
BLACK
6
CONTINUOUS
10
5.49683
20
-3.6085
11
5.49427
21
-3.60679
0
LINE
8
BLACK
6
CONTINUOUS
10
5.49427
20
-3.60679
11
5.49257
21
-3.60423
0
LINE
8
BLACK
6
CONTINUOUS
10
5.49257
20
-3.60423
11
5.49197
21
-3.60122
0
LINE
8
BLACK
6
CONTINUOUS
10
5.49197
20
-3.60122
11
5.49197
21
-3.54122
0
LINE
8
BLACK
6
CONTINUOUS
10
5.49197
20
-3.54122
11
5.49257
21
-3.53821
0
LINE
8
BLACK
6
CONTINUOUS
10
5.49257
20
-3.53821
11
5.49427
21
-3.53565
0
LINE
8
BLACK
6
CONTINUOUS
10
5.49427
20
-3.53565
11
5.49683
21
-3.53395
0
LINE
8
BLACK
6
CONTINUOUS
10
5.49683
20
-3.53395
11
5.49984
21
-3.53335
0
LINE
8
BLACK
6
CONTINUOUS
10
5.49984
20
-3.53335
11
5.55984
21
-3.53335
0
LINE
8
BLACK
6
CONTINUOUS
10
5.55984
20
-3.53335
11
5.56286
21
-3.53395
0
LINE
8
BLACK
6
CONTINUOUS
10
6.12522
20
-3.54925
11
6.12777
21
-3.55095
0
LINE
8
BLACK
6
CONTINUOUS
10
6.12777
20
-3.55095
11
6.12948
21
-3.55351
0
LINE
8
BLACK
6
CONTINUOUS
10
6.12948
20
-3.55351
11
6.13008
21
-3.55652
0
LINE
8
BLACK
6
CONTINUOUS
10
6.13008
20
-3.55652
11
6.13008
21
-3.59592
0
LINE
8
BLACK
6
CONTINUOUS
10
6.13008
20
-3.59592
11
6.12948
21
-3.59893
0
LINE
8
BLACK
6
CONTINUOUS
10
6.12948
20
-3.59893
11
6.12777
21
-3.60149
0
LINE
8
BLACK
6
CONTINUOUS
10
6.12777
20
-3.60149
11
6.12522
21
-3.6032
0
LINE
8
BLACK
6
CONTINUOUS
10
6.12522
20
-3.6032
11
6.12221
21
-3.60379
0
LINE
8
BLACK
6
CONTINUOUS
10
6.12221
20
-3.60379
11
6.10248
21
-3.60379
0
LINE
8
BLACK
6
CONTINUOUS
10
6.10248
20
-3.60379
11
6.09947
21
-3.6032
0
LINE
8
BLACK
6
CONTINUOUS
10
6.09947
20
-3.6032
11
6.09691
21
-3.60149
0
LINE
8
BLACK
6
CONTINUOUS
10
6.09691
20
-3.60149
11
6.0952
21
-3.59893
0
LINE
8
BLACK
6
CONTINUOUS
10
6.0952
20
-3.59893
11
6.09461
21
-3.59592
0
LINE
8
BLACK
6
CONTINUOUS
10
6.09461
20
-3.59592
11
6.09461
21
-3.55652
0
LINE
8
BLACK
6
CONTINUOUS
10
6.09461
20
-3.55652
11
6.0952
21
-3.55351
0
LINE
8
BLACK
6
CONTINUOUS
10
6.0952
20
-3.55351
11
6.09691
21
-3.55095
0
LINE
8
BLACK
6
CONTINUOUS
10
6.09691
20
-3.55095
11
6.09947
21
-3.54925
0
LINE
8
BLACK
6
CONTINUOUS
10
6.09947
20
-3.54925
11
6.10248
21
-3.54865
0
LINE
8
BLACK
6
CONTINUOUS
10
6.10248
20
-3.54865
11
6.12221
21
-3.54865
0
LINE
8
BLACK
6
CONTINUOUS
10
6.12221
20
-3.54865
11
6.12522
21
-3.54925
0
LINE
8
BLACK
6
CONTINUOUS
10
6.1627
20
-3.54925
11
6.16525
21
-3.55095
0
LINE
8
BLACK
6
CONTINUOUS
10
6.16525
20
-3.55095
11
6.16696
21
-3.55351
0
LINE
8
BLACK
6
CONTINUOUS
10
6.16696
20
-3.55351
11
6.16756
21
-3.55652
0
LINE
8
BLACK
6
CONTINUOUS
10
6.16756
20
-3.55652
11
6.16756
21
-3.59592
0
LINE
8
BLACK
6
CONTINUOUS
10
6.16756
20
-3.59592
11
6.16696
21
-3.59893
0
LINE
8
BLACK
6
CONTINUOUS
10
6.16696
20
-3.59893
11
6.16525
21
-3.60149
0
LINE
8
BLACK
6
CONTINUOUS
10
6.16525
20
-3.60149
11
6.1627
21
-3.6032
0
LINE
8
BLACK
6
CONTINUOUS
10
6.1627
20
-3.6032
11
6.15969
21
-3.60379
0
LINE
8
BLACK
6
CONTINUOUS
10
6.15969
20
-3.60379
11
6.14
21
-3.60379
0
LINE
8
BLACK
6
CONTINUOUS
10
6.14
20
-3.60379
11
6.13699
21
-3.6032
0
LINE
8
BLACK
6
CONTINUOUS
10
6.13699
20
-3.6032
11
6.13443
21
-3.60149
0
LINE
8
BLACK
6
CONTINUOUS
10
6.13443
20
-3.60149
11
6.13273
21
-3.59893
0
LINE
8
BLACK
6
CONTINUOUS
10
6.13273
20
-3.59893
11
6.13213
21
-3.59592
0
LINE
8
BLACK
6
CONTINUOUS
10
6.13213
20
-3.59592
11
6.13213
21
-3.55652
0
LINE
8
BLACK
6
CONTINUOUS
10
6.13213
20
-3.55652
11
6.13273
21
-3.55351
0
LINE
8
BLACK
6
CONTINUOUS
10
6.13273
20
-3.55351
11
6.13443
21
-3.55095
0
LINE
8
BLACK
6
CONTINUOUS
10
6.13443
20
-3.55095
11
6.13699
21
-3.54925
0
LINE
8
BLACK
6
CONTINUOUS
10
6.13699
20
-3.54925
11
6.14
21
-3.54865
0
LINE
8
BLACK
6
CONTINUOUS
10
6.14
20
-3.54865
11
6.15969
21
-3.54865
0
LINE
8
BLACK
6
CONTINUOUS
10
6.15969
20
-3.54865
11
6.1627
21
-3.54925
0
LINE
8
BLACK
6
CONTINUOUS
10
6.2002
20
-3.54925
11
6.20275
21
-3.55095
0
LINE
8
BLACK
6
CONTINUOUS
10
6.20275
20
-3.55095
11
6.20446
21
-3.55351
0
LINE
8
BLACK
6
CONTINUOUS
10
6.20446
20
-3.55351
11
6.20506
21
-3.55652
0
LINE
8
BLACK
6
CONTINUOUS
10
6.20506
20
-3.55652
11
6.20506
21
-3.59592
0
LINE
8
BLACK
6
CONTINUOUS
10
6.20506
20
-3.59592
11
6.20446
21
-3.59893
0
LINE
8
BLACK
6
CONTINUOUS
10
6.20446
20
-3.59893
11
6.20275
21
-3.60149
0
LINE
8
BLACK
6
CONTINUOUS
10
6.20275
20
-3.60149
11
6.2002
21
-3.6032
0
LINE
8
BLACK
6
CONTINUOUS
10
6.2002
20
-3.6032
11
6.19719
21
-3.60379
0
LINE
8
BLACK
6
CONTINUOUS
10
6.19719
20
-3.60379
11
6.1775
21
-3.60379
0
LINE
8
BLACK
6
CONTINUOUS
10
6.1775
20
-3.60379
11
6.17449
21
-3.6032
0
LINE
8
BLACK
6
CONTINUOUS
10
6.17449
20
-3.6032
11
6.17193
21
-3.60149
0
LINE
8
BLACK
6
CONTINUOUS
10
6.17193
20
-3.60149
11
6.17023
21
-3.59893
0
LINE
8
BLACK
6
CONTINUOUS
10
6.17023
20
-3.59893
11
6.16963
21
-3.59592
0
LINE
8
BLACK
6
CONTINUOUS
10
6.16963
20
-3.59592
11
6.16963
21
-3.55652
0
LINE
8
BLACK
6
CONTINUOUS
10
6.16963
20
-3.55652
11
6.17023
21
-3.55351
0
LINE
8
BLACK
6
CONTINUOUS
10
6.17023
20
-3.55351
11
6.17193
21
-3.55095
0
LINE
8
BLACK
6
CONTINUOUS
10
6.17193
20
-3.55095
11
6.17449
21
-3.54925
0
LINE
8
BLACK
6
CONTINUOUS
10
6.17449
20
-3.54925
11
6.1775
21
-3.54865
0
LINE
8
BLACK
6
CONTINUOUS
10
6.1775
20
-3.54865
11
6.19719
21
-3.54865
0
LINE
8
BLACK
6
CONTINUOUS
10
6.19719
20
-3.54865
11
6.2002
21
-3.54925
0
LINE
8
BLACK
6
CONTINUOUS
10
7.04186
20
-3.51995
11
7.04441
21
-3.52165
0
LINE
8
BLACK
6
CONTINUOUS
10
7.04441
20
-3.52165
11
7.04612
21
-3.52421
0
LINE
8
BLACK
6
CONTINUOUS
10
7.04612
20
-3.52421
11
7.04672
21
-3.52722
0
LINE
8
BLACK
6
CONTINUOUS
10
7.04672
20
-3.52722
11
7.04672
21
-3.58722
0
LINE
8
BLACK
6
CONTINUOUS
10
7.04672
20
-3.58722
11
7.04612
21
-3.59023
0
LINE
8
BLACK
6
CONTINUOUS
10
7.04612
20
-3.59023
11
7.04441
21
-3.59279
0
LINE
8
BLACK
6
CONTINUOUS
10
7.04441
20
-3.59279
11
7.04186
21
-3.5945
0
LINE
8
BLACK
6
CONTINUOUS
10
7.04186
20
-3.5945
11
7.03884
21
-3.59509
0
LINE
8
BLACK
6
CONTINUOUS
10
7.03884
20
-3.59509
11
6.97884
21
-3.59509
0
LINE
8
BLACK
6
CONTINUOUS
10
6.97884
20
-3.59509
11
6.97583
21
-3.5945
0
LINE
8
BLACK
6
CONTINUOUS
10
6.97583
20
-3.5945
11
6.97327
21
-3.59279
0
LINE
8
BLACK
6
CONTINUOUS
10
6.97327
20
-3.59279
11
6.97157
21
-3.59023
0
LINE
8
BLACK
6
CONTINUOUS
10
6.97157
20
-3.59023
11
6.97097
21
-3.58722
0
LINE
8
BLACK
6
CONTINUOUS
10
6.97097
20
-3.58722
11
6.97097
21
-3.52722
0
LINE
8
BLACK
6
CONTINUOUS
10
6.97097
20
-3.52722
11
6.97157
21
-3.52421
0
LINE
8
BLACK
6
CONTINUOUS
10
6.97157
20
-3.52421
11
6.97327
21
-3.52165
0
LINE
8
BLACK
6
CONTINUOUS
10
6.97327
20
-3.52165
11
6.97583
21
-3.51995
0
LINE
8
BLACK
6
CONTINUOUS
10
6.97583
20
-3.51995
11
6.97884
21
-3.51935
0
LINE
8
BLACK
6
CONTINUOUS
10
6.97884
20
-3.51935
11
7.03884
21
-3.51935
0
LINE
8
BLACK
6
CONTINUOUS
10
7.03884
20
-3.51935
11
7.04186
21
-3.51995
0
LINE
8
BLACK
6
CONTINUOUS
10
7.14186
20
-3.51995
11
7.14441
21
-3.52165
0
LINE
8
BLACK
6
CONTINUOUS
10
7.14441
20
-3.52165
11
7.14612
21
-3.52421
0
LINE
8
BLACK
6
CONTINUOUS
10
7.14612
20
-3.52421
11
7.14672
21
-3.52722
0
LINE
8
BLACK
6
CONTINUOUS
10
7.14672
20
-3.52722
11
7.14672
21
-3.58722
0
LINE
8
BLACK
6
CONTINUOUS
10
7.14672
20
-3.58722
11
7.14612
21
-3.59023
0
LINE
8
BLACK
6
CONTINUOUS
10
7.14612
20
-3.59023
11
7.14441
21
-3.59279
0
LINE
8
BLACK
6
CONTINUOUS
10
7.14441
20
-3.59279
11
7.14186
21
-3.5945
0
LINE
8
BLACK
6
CONTINUOUS
10
7.14186
20
-3.5945
11
7.13884
21
-3.59509
0
LINE
8
BLACK
6
CONTINUOUS
10
7.13884
20
-3.59509
11
7.07884
21
-3.59509
0
LINE
8
BLACK
6
CONTINUOUS
10
7.07884
20
-3.59509
11
7.07583
21
-3.5945
0
LINE
8
BLACK
6
CONTINUOUS
10
7.07583
20
-3.5945
11
7.07327
21
-3.59279
0
LINE
8
BLACK
6
CONTINUOUS
10
7.07327
20
-3.59279
11
7.07157
21
-3.59023
0
LINE
8
BLACK
6
CONTINUOUS
10
7.07157
20
-3.59023
11
7.07097
21
-3.58722
0
LINE
8
BLACK
6
CONTINUOUS
10
7.07097
20
-3.58722
11
7.07097
21
-3.52722
0
LINE
8
BLACK
6
CONTINUOUS
10
7.07097
20
-3.52722
11
7.07157
21
-3.52421
0
LINE
8
BLACK
6
CONTINUOUS
10
7.07157
20
-3.52421
11
7.07327
21
-3.52165
0
LINE
8
BLACK
6
CONTINUOUS
10
7.07327
20
-3.52165
11
7.07583
21
-3.51995
0
LINE
8
BLACK
6
CONTINUOUS
10
7.07583
20
-3.51995
11
7.07884
21
-3.51935
0
LINE
8
BLACK
6
CONTINUOUS
10
7.07884
20
-3.51935
11
7.13884
21
-3.51935
0
LINE
8
BLACK
6
CONTINUOUS
10
7.13884
20
-3.51935
11
7.14186
21
-3.51995
0
LINE
8
BLACK
6
CONTINUOUS
10
5.64005
20
-3.5234
11
5.64502
21
-3.52515
0
LINE
8
BLACK
6
CONTINUOUS
10
5.64502
20
-3.52515
11
5.64926
21
-3.52828
0
LINE
8
BLACK
6
CONTINUOUS
10
5.64926
20
-3.52828
11
5.65239
21
-3.53252
0
LINE
8
BLACK
6
CONTINUOUS
10
5.65239
20
-3.53252
11
5.65414
21
-3.53749
0
LINE
8
BLACK
6
CONTINUOUS
10
5.65414
20
-3.53749
11
5.65445
21
-3.54081
0
LINE
8
BLACK
6
CONTINUOUS
10
5.65445
20
-3.54081
11
5.65445
21
-3.57624
0
LINE
8
BLACK
6
CONTINUOUS
10
5.65445
20
-3.57624
11
5.65414
21
-3.57956
0
LINE
8
BLACK
6
CONTINUOUS
10
5.65414
20
-3.57956
11
5.65239
21
-3.58453
0
LINE
8
BLACK
6
CONTINUOUS
10
5.65239
20
-3.58453
11
5.64926
21
-3.58877
0
LINE
8
BLACK
6
CONTINUOUS
10
5.64926
20
-3.58877
11
5.64502
21
-3.5919
0
LINE
8
BLACK
6
CONTINUOUS
10
5.64502
20
-3.5919
11
5.64005
21
-3.59364
0
LINE
8
BLACK
6
CONTINUOUS
10
5.64005
20
-3.59364
11
5.63673
21
-3.59396
0
LINE
8
BLACK
6
CONTINUOUS
10
5.63673
20
-3.59396
11
5.61606
21
-3.59396
0
LINE
8
BLACK
6
CONTINUOUS
10
5.61606
20
-3.59396
11
5.61274
21
-3.59364
0
LINE
8
BLACK
6
CONTINUOUS
10
5.61274
20
-3.59364
11
5.60777
21
-3.5919
0
LINE
8
BLACK
6
CONTINUOUS
10
5.60777
20
-3.5919
11
5.60354
21
-3.58877
0
LINE
8
BLACK
6
CONTINUOUS
10
5.60354
20
-3.58877
11
5.60041
21
-3.58453
0
LINE
8
BLACK
6
CONTINUOUS
10
5.60041
20
-3.58453
11
5.59866
21
-3.57956
0
LINE
8
BLACK
6
CONTINUOUS
10
5.59866
20
-3.57956
11
5.59835
21
-3.57624
0
LINE
8
BLACK
6
CONTINUOUS
10
5.59835
20
-3.57624
11
5.59835
21
-3.54081
0
LINE
8
BLACK
6
CONTINUOUS
10
5.59835
20
-3.54081
11
5.59866
21
-3.53749
0
LINE
8
BLACK
6
CONTINUOUS
10
5.59866
20
-3.53749
11
5.60041
21
-3.53252
0
LINE
8
BLACK
6
CONTINUOUS
10
5.60041
20
-3.53252
11
5.60354
21
-3.52828
0
LINE
8
BLACK
6
CONTINUOUS
10
5.60354
20
-3.52828
11
5.60777
21
-3.52515
0
LINE
8
BLACK
6
CONTINUOUS
10
5.60777
20
-3.52515
11
5.61274
21
-3.5234
0
LINE
8
BLACK
6
CONTINUOUS
10
5.61274
20
-3.5234
11
5.61606
21
-3.52309
0
LINE
8
BLACK
6
CONTINUOUS
10
5.61606
20
-3.52309
11
5.63673
21
-3.52309
0
LINE
8
BLACK
6
CONTINUOUS
10
5.63673
20
-3.52309
11
5.64005
21
-3.5234
0
LINE
8
BLACK
6
CONTINUOUS
10
5.7119
20
-3.5234
11
5.71687
21
-3.52515
0
LINE
8
BLACK
6
CONTINUOUS
10
5.71687
20
-3.52515
11
5.72111
21
-3.52828
0
LINE
8
BLACK
6
CONTINUOUS
10
5.72111
20
-3.52828
11
5.72424
21
-3.53252
0
LINE
8
BLACK
6
CONTINUOUS
10
5.72424
20
-3.53252
11
5.72599
21
-3.53749
0
LINE
8
BLACK
6
CONTINUOUS
10
5.72599
20
-3.53749
11
5.7263
21
-3.54081
0
LINE
8
BLACK
6
CONTINUOUS
10
5.7263
20
-3.54081
11
5.7263
21
-3.57624
0
LINE
8
BLACK
6
CONTINUOUS
10
5.7263
20
-3.57624
11
5.72599
21
-3.57956
0
LINE
8
BLACK
6
CONTINUOUS
10
5.72599
20
-3.57956
11
5.72424
21
-3.58453
0
LINE
8
BLACK
6
CONTINUOUS
10
5.72424
20
-3.58453
11
5.72111
21
-3.58877
0
LINE
8
BLACK
6
CONTINUOUS
10
5.72111
20
-3.58877
11
5.71687
21
-3.5919
0
LINE
8
BLACK
6
CONTINUOUS
10
5.71687
20
-3.5919
11
5.7119
21
-3.59364
0
LINE
8
BLACK
6
CONTINUOUS
10
5.7119
20
-3.59364
11
5.70858
21
-3.59396
0
LINE
8
BLACK
6
CONTINUOUS
10
5.70858
20
-3.59396
11
5.68791
21
-3.59396
0
LINE
8
BLACK
6
CONTINUOUS
10
5.68791
20
-3.59396
11
5.68459
21
-3.59364
0
LINE
8
BLACK
6
CONTINUOUS
10
5.68459
20
-3.59364
11
5.67962
21
-3.5919
0
LINE
8
BLACK
6
CONTINUOUS
10
5.67962
20
-3.5919
11
5.67539
21
-3.58877
0
LINE
8
BLACK
6
CONTINUOUS
10
5.67539
20
-3.58877
11
5.67226
21
-3.58453
0
LINE
8
BLACK
6
CONTINUOUS
10
5.67226
20
-3.58453
11
5.67051
21
-3.57956
0
LINE
8
BLACK
6
CONTINUOUS
10
5.67051
20
-3.57956
11
5.6702
21
-3.57624
0
LINE
8
BLACK
6
CONTINUOUS
10
5.6702
20
-3.57624
11
5.6702
21
-3.54081
0
LINE
8
BLACK
6
CONTINUOUS
10
5.6702
20
-3.54081
11
5.67051
21
-3.53749
0
LINE
8
BLACK
6
CONTINUOUS
10
5.67051
20
-3.53749
11
5.67226
21
-3.53252
0
LINE
8
BLACK
6
CONTINUOUS
10
5.67226
20
-3.53252
11
5.67539
21
-3.52828
0
LINE
8
BLACK
6
CONTINUOUS
10
5.67539
20
-3.52828
11
5.67962
21
-3.52515
0
LINE
8
BLACK
6
CONTINUOUS
10
5.67962
20
-3.52515
11
5.68459
21
-3.5234
0
LINE
8
BLACK
6
CONTINUOUS
10
5.68459
20
-3.5234
11
5.68791
21
-3.52309
0
LINE
8
BLACK
6
CONTINUOUS
10
5.68791
20
-3.52309
11
5.70858
21
-3.52309
0
LINE
8
BLACK
6
CONTINUOUS
10
5.70858
20
-3.52309
11
5.7119
21
-3.5234
0
LINE
8
BLACK
6
CONTINUOUS
10
6.03786
20
-3.50895
11
6.04041
21
-3.51065
0
LINE
8
BLACK
6
CONTINUOUS
10
6.04041
20
-3.51065
11
6.04212
21
-3.51321
0
LINE
8
BLACK
6
CONTINUOUS
10
6.04212
20
-3.51321
11
6.04272
21
-3.51622
0
LINE
8
BLACK
6
CONTINUOUS
10
6.04272
20
-3.51622
11
6.04272
21
-3.57622
0
LINE
8
BLACK
6
CONTINUOUS
10
6.04272
20
-3.57622
11
6.04212
21
-3.57923
0
LINE
8
BLACK
6
CONTINUOUS
10
6.04212
20
-3.57923
11
6.04041
21
-3.58179
0
LINE
8
BLACK
6
CONTINUOUS
10
6.04041
20
-3.58179
11
6.03786
21
-3.5835
0
LINE
8
BLACK
6
CONTINUOUS
10
6.03786
20
-3.5835
11
6.03484
21
-3.58409
0
LINE
8
BLACK
6
CONTINUOUS
10
6.03484
20
-3.58409
11
5.97484
21
-3.58409
0
LINE
8
BLACK
6
CONTINUOUS
10
5.97484
20
-3.58409
11
5.97183
21
-3.5835
0
LINE
8
BLACK
6
CONTINUOUS
10
5.97183
20
-3.5835
11
5.96927
21
-3.58179
0
LINE
8
BLACK
6
CONTINUOUS
10
5.96927
20
-3.58179
11
5.96757
21
-3.57923
0
LINE
8
BLACK
6
CONTINUOUS
10
5.96757
20
-3.57923
11
5.96697
21
-3.57622
0
LINE
8
BLACK
6
CONTINUOUS
10
5.96697
20
-3.57622
11
5.96697
21
-3.51622
0
LINE
8
BLACK
6
CONTINUOUS
10
5.96697
20
-3.51622
11
5.96757
21
-3.51321
0
LINE
8
BLACK
6
CONTINUOUS
10
5.96757
20
-3.51321
11
5.96927
21
-3.51065
0
LINE
8
BLACK
6
CONTINUOUS
10
5.96927
20
-3.51065
11
5.97183
21
-3.50895
0
LINE
8
BLACK
6
CONTINUOUS
10
5.97183
20
-3.50895
11
5.97484
21
-3.50835
0
LINE
8
BLACK
6
CONTINUOUS
10
5.97484
20
-3.50835
11
6.03484
21
-3.50835
0
LINE
8
BLACK
6
CONTINUOUS
10
6.03484
20
-3.50835
11
6.03786
21
-3.50895
0
LINE
8
BLACK
6
CONTINUOUS
10
5.93786
20
-3.50895
11
5.94041
21
-3.51065
0
LINE
8
BLACK
6
CONTINUOUS
10
5.94041
20
-3.51065
11
5.94212
21
-3.51321
0
LINE
8
BLACK
6
CONTINUOUS
10
5.94212
20
-3.51321
11
5.94272
21
-3.51622
0
LINE
8
BLACK
6
CONTINUOUS
10
5.94272
20
-3.51622
11
5.94272
21
-3.57622
0
LINE
8
BLACK
6
CONTINUOUS
10
5.94272
20
-3.57622
11
5.94212
21
-3.57923
0
LINE
8
BLACK
6
CONTINUOUS
10
5.94212
20
-3.57923
11
5.94041
21
-3.58179
0
LINE
8
BLACK
6
CONTINUOUS
10
5.94041
20
-3.58179
11
5.93786
21
-3.5835
0
LINE
8
BLACK
6
CONTINUOUS
10
5.93786
20
-3.5835
11
5.93484
21
-3.58409
0
LINE
8
BLACK
6
CONTINUOUS
10
5.93484
20
-3.58409
11
5.87484
21
-3.58409
0
LINE
8
BLACK
6
CONTINUOUS
10
5.87484
20
-3.58409
11
5.87183
21
-3.5835
0
LINE
8
BLACK
6
CONTINUOUS
10
5.87183
20
-3.5835
11
5.86927
21
-3.58179
0
LINE
8
BLACK
6
CONTINUOUS
10
5.86927
20
-3.58179
11
5.86757
21
-3.57923
0
LINE
8
BLACK
6
CONTINUOUS
10
5.86757
20
-3.57923
11
5.86697
21
-3.57622
0
LINE
8
BLACK
6
CONTINUOUS
10
5.86697
20
-3.57622
11
5.86697
21
-3.51622
0
LINE
8
BLACK
6
CONTINUOUS
10
5.86697
20
-3.51622
11
5.86757
21
-3.51321
0
LINE
8
BLACK
6
CONTINUOUS
10
5.86757
20
-3.51321
11
5.86927
21
-3.51065
0
LINE
8
BLACK
6
CONTINUOUS
10
5.86927
20
-3.51065
11
5.87183
21
-3.50895
0
LINE
8
BLACK
6
CONTINUOUS
10
5.87183
20
-3.50895
11
5.87484
21
-3.50835
0
LINE
8
BLACK
6
CONTINUOUS
10
5.87484
20
-3.50835
11
5.93484
21
-3.50835
0
LINE
8
BLACK
6
CONTINUOUS
10
5.93484
20
-3.50835
11
5.93786
21
-3.50895
0
LINE
8
BLACK
6
CONTINUOUS
10
5.83786
20
-3.50895
11
5.84041
21
-3.51065
0
LINE
8
BLACK
6
CONTINUOUS
10
5.84041
20
-3.51065
11
5.84212
21
-3.51321
0
LINE
8
BLACK
6
CONTINUOUS
10
5.84212
20
-3.51321
11
5.84272
21
-3.51622
0
LINE
8
BLACK
6
CONTINUOUS
10
5.84272
20
-3.51622
11
5.84272
21
-3.57622
0
LINE
8
BLACK
6
CONTINUOUS
10
5.84272
20
-3.57622
11
5.84212
21
-3.57923
0
LINE
8
BLACK
6
CONTINUOUS
10
5.84212
20
-3.57923
11
5.84041
21
-3.58179
0
LINE
8
BLACK
6
CONTINUOUS
10
5.84041
20
-3.58179
11
5.83786
21
-3.5835
0
LINE
8
BLACK
6
CONTINUOUS
10
5.83786
20
-3.5835
11
5.83484
21
-3.58409
0
LINE
8
BLACK
6
CONTINUOUS
10
5.83484
20
-3.58409
11
5.77484
21
-3.58409
0
LINE
8
BLACK
6
CONTINUOUS
10
5.77484
20
-3.58409
11
5.77183
21
-3.5835
0
LINE
8
BLACK
6
CONTINUOUS
10
5.77183
20
-3.5835
11
5.76927
21
-3.58179
0
LINE
8
BLACK
6
CONTINUOUS
10
5.76927
20
-3.58179
11
5.76757
21
-3.57923
0
LINE
8
BLACK
6
CONTINUOUS
10
5.76757
20
-3.57923
11
5.76697
21
-3.57622
0
LINE
8
BLACK
6
CONTINUOUS
10
5.76697
20
-3.57622
11
5.76697
21
-3.51622
0
LINE
8
BLACK
6
CONTINUOUS
10
5.76697
20
-3.51622
11
5.76757
21
-3.51321
0
LINE
8
BLACK
6
CONTINUOUS
10
5.76757
20
-3.51321
11
5.76927
21
-3.51065
0
LINE
8
BLACK
6
CONTINUOUS
10
5.76927
20
-3.51065
11
5.77183
21
-3.50895
0
LINE
8
BLACK
6
CONTINUOUS
10
5.77183
20
-3.50895
11
5.77484
21
-3.50835
0
LINE
8
BLACK
6
CONTINUOUS
10
5.77484
20
-3.50835
11
5.83484
21
-3.50835
0
LINE
8
BLACK
6
CONTINUOUS
10
5.83484
20
-3.50835
11
5.83786
21
-3.50895
0
LINE
8
BLACK
6
CONTINUOUS
10
6.84088
20
-3.51756
11
6.84585
21
-3.5193
0
LINE
8
BLACK
6
CONTINUOUS
10
6.84585
20
-3.5193
11
6.85009
21
-3.52243
0
LINE
8
BLACK
6
CONTINUOUS
10
6.85009
20
-3.52243
11
6.85322
21
-3.52667
0
LINE
8
BLACK
6
CONTINUOUS
10
6.85322
20
-3.52667
11
6.85496
21
-3.53164
0
LINE
8
BLACK
6
CONTINUOUS
10
6.85496
20
-3.53164
11
6.85528
21
-3.53496
0
LINE
8
BLACK
6
CONTINUOUS
10
6.85528
20
-3.53496
11
6.85528
21
-3.55563
0
LINE
8
BLACK
6
CONTINUOUS
10
6.85528
20
-3.55563
11
6.85496
21
-3.55895
0
LINE
8
BLACK
6
CONTINUOUS
10
6.85496
20
-3.55895
11
6.85322
21
-3.56392
0
LINE
8
BLACK
6
CONTINUOUS
10
6.85322
20
-3.56392
11
6.85009
21
-3.56816
0
LINE
8
BLACK
6
CONTINUOUS
10
6.85009
20
-3.56816
11
6.84585
21
-3.57129
0
LINE
8
BLACK
6
CONTINUOUS
10
6.84585
20
-3.57129
11
6.84088
21
-3.57303
0
LINE
8
BLACK
6
CONTINUOUS
10
6.84088
20
-3.57303
11
6.83756
21
-3.57335
0
LINE
8
BLACK
6
CONTINUOUS
10
6.83756
20
-3.57335
11
6.80213
21
-3.57335
0
LINE
8
BLACK
6
CONTINUOUS
10
6.80213
20
-3.57335
11
6.79881
21
-3.57303
0
LINE
8
BLACK
6
CONTINUOUS
10
6.79881
20
-3.57303
11
6.79384
21
-3.57129
0
LINE
8
BLACK
6
CONTINUOUS
10
6.79384
20
-3.57129
11
6.7896
21
-3.56816
0
LINE
8
BLACK
6
CONTINUOUS
10
6.7896
20
-3.56816
11
6.78647
21
-3.56392
0
LINE
8
BLACK
6
CONTINUOUS
10
6.78647
20
-3.56392
11
6.78472
21
-3.55895
0
LINE
8
BLACK
6
CONTINUOUS
10
6.78472
20
-3.55895
11
6.78441
21
-3.55563
0
LINE
8
BLACK
6
CONTINUOUS
10
6.78441
20
-3.55563
11
6.78441
21
-3.53496
0
LINE
8
BLACK
6
CONTINUOUS
10
6.78441
20
-3.53496
11
6.78472
21
-3.53164
0
LINE
8
BLACK
6
CONTINUOUS
10
6.78472
20
-3.53164
11
6.78647
21
-3.52667
0
LINE
8
BLACK
6
CONTINUOUS
10
6.78647
20
-3.52667
11
6.7896
21
-3.52243
0
LINE
8
BLACK
6
CONTINUOUS
10
6.7896
20
-3.52243
11
6.79384
21
-3.5193
0
LINE
8
BLACK
6
CONTINUOUS
10
6.79384
20
-3.5193
11
6.79881
21
-3.51756
0
LINE
8
BLACK
6
CONTINUOUS
10
6.79881
20
-3.51756
11
6.80213
21
-3.51724
0
LINE
8
BLACK
6
CONTINUOUS
10
6.80213
20
-3.51724
11
6.83756
21
-3.51724
0
LINE
8
BLACK
6
CONTINUOUS
10
6.83756
20
-3.51724
11
6.84088
21
-3.51756
0
LINE
8
BLACK
6
CONTINUOUS
10
6.93186
20
-3.51657
11
6.93683
21
-3.51832
0
LINE
8
BLACK
6
CONTINUOUS
10
6.93683
20
-3.51832
11
6.94107
21
-3.52145
0
LINE
8
BLACK
6
CONTINUOUS
10
6.94107
20
-3.52145
11
6.9442
21
-3.52569
0
LINE
8
BLACK
6
CONTINUOUS
10
6.9442
20
-3.52569
11
6.94595
21
-3.53066
0
LINE
8
BLACK
6
CONTINUOUS
10
6.94595
20
-3.53066
11
6.94626
21
-3.53398
0
LINE
8
BLACK
6
CONTINUOUS
10
6.94626
20
-3.53398
11
6.94626
21
-3.55366
0
LINE
8
BLACK
6
CONTINUOUS
10
6.94626
20
-3.55366
11
6.94595
21
-3.55698
0
LINE
8
BLACK
6
CONTINUOUS
10
6.94595
20
-3.55698
11
6.9442
21
-3.56195
0
LINE
8
BLACK
6
CONTINUOUS
10
6.9442
20
-3.56195
11
6.94107
21
-3.56619
0
LINE
8
BLACK
6
CONTINUOUS
10
6.94107
20
-3.56619
11
6.93683
21
-3.56932
0
LINE
8
BLACK
6
CONTINUOUS
10
6.93683
20
-3.56932
11
6.93186
21
-3.57106
0
LINE
8
BLACK
6
CONTINUOUS
10
6.93186
20
-3.57106
11
6.92854
21
-3.57138
0
LINE
8
BLACK
6
CONTINUOUS
10
6.92854
20
-3.57138
11
6.89114
21
-3.57138
0
LINE
8
BLACK
6
CONTINUOUS
10
6.89114
20
-3.57138
11
6.88782
21
-3.57106
0
LINE
8
BLACK
6
CONTINUOUS
10
6.88782
20
-3.57106
11
6.88285
21
-3.56932
0
LINE
8
BLACK
6
CONTINUOUS
10
6.88285
20
-3.56932
11
6.87861
21
-3.56619
0
LINE
8
BLACK
6
CONTINUOUS
10
6.87861
20
-3.56619
11
6.87548
21
-3.56195
0
LINE
8
BLACK
6
CONTINUOUS
10
6.87548
20
-3.56195
11
6.87374
21
-3.55698
0
LINE
8
BLACK
6
CONTINUOUS
10
6.87374
20
-3.55698
11
6.87343
21
-3.55366
0
LINE
8
BLACK
6
CONTINUOUS
10
6.87343
20
-3.55366
11
6.87343
21
-3.53398
0
LINE
8
BLACK
6
CONTINUOUS
10
6.87343
20
-3.53398
11
6.87374
21
-3.53066
0
LINE
8
BLACK
6
CONTINUOUS
10
6.87374
20
-3.53066
11
6.87548
21
-3.52569
0
LINE
8
BLACK
6
CONTINUOUS
10
6.87548
20
-3.52569
11
6.87861
21
-3.52145
0
LINE
8
BLACK
6
CONTINUOUS
10
6.87861
20
-3.52145
11
6.88285
21
-3.51832
0
LINE
8
BLACK
6
CONTINUOUS
10
6.88285
20
-3.51832
11
6.88782
21
-3.51657
0
LINE
8
BLACK
6
CONTINUOUS
10
6.88782
20
-3.51657
11
6.89114
21
-3.51626
0
LINE
8
BLACK
6
CONTINUOUS
10
6.89114
20
-3.51626
11
6.92854
21
-3.51626
0
LINE
8
BLACK
6
CONTINUOUS
10
6.92854
20
-3.51626
11
6.93186
21
-3.51657
0
LINE
8
BLACK
6
CONTINUOUS
10
6.27686
20
-3.50638
11
6.28183
21
-3.50812
0
LINE
8
BLACK
6
CONTINUOUS
10
6.28183
20
-3.50812
11
6.28607
21
-3.51125
0
LINE
8
BLACK
6
CONTINUOUS
10
6.28607
20
-3.51125
11
6.2892
21
-3.51549
0
LINE
8
BLACK
6
CONTINUOUS
10
6.2892
20
-3.51549
11
6.29095
21
-3.52046
0
LINE
8
BLACK
6
CONTINUOUS
10
6.29095
20
-3.52046
11
6.29126
21
-3.52378
0
LINE
8
BLACK
6
CONTINUOUS
10
6.29126
20
-3.52378
11
6.29126
21
-3.54346
0
LINE
8
BLACK
6
CONTINUOUS
10
6.29126
20
-3.54346
11
6.29095
21
-3.54678
0
LINE
8
BLACK
6
CONTINUOUS
10
6.29095
20
-3.54678
11
6.2892
21
-3.55175
0
LINE
8
BLACK
6
CONTINUOUS
10
6.2892
20
-3.55175
11
6.28607
21
-3.55599
0
LINE
8
BLACK
6
CONTINUOUS
10
6.28607
20
-3.55599
11
6.28183
21
-3.55912
0
LINE
8
BLACK
6
CONTINUOUS
10
6.28183
20
-3.55912
11
6.27686
21
-3.56087
0
LINE
8
BLACK
6
CONTINUOUS
10
6.27686
20
-3.56087
11
6.27354
21
-3.56118
0
LINE
8
BLACK
6
CONTINUOUS
10
6.27354
20
-3.56118
11
6.23614
21
-3.56118
0
LINE
8
BLACK
6
CONTINUOUS
10
6.23614
20
-3.56118
11
6.23282
21
-3.56087
0
LINE
8
BLACK
6
CONTINUOUS
10
6.23282
20
-3.56087
11
6.22785
21
-3.55912
0
LINE
8
BLACK
6
CONTINUOUS
10
6.22785
20
-3.55912
11
6.22361
21
-3.55599
0
LINE
8
BLACK
6
CONTINUOUS
10
6.22361
20
-3.55599
11
6.22048
21
-3.55175
0
LINE
8
BLACK
6
CONTINUOUS
10
6.22048
20
-3.55175
11
6.21874
21
-3.54678
0
LINE
8
BLACK
6
CONTINUOUS
10
6.21874
20
-3.54678
11
6.21843
21
-3.54346
0
LINE
8
BLACK
6
CONTINUOUS
10
6.21843
20
-3.54346
11
6.21843
21
-3.52378
0
LINE
8
BLACK
6
CONTINUOUS
10
6.21843
20
-3.52378
11
6.21874
21
-3.52046
0
LINE
8
BLACK
6
CONTINUOUS
10
6.21874
20
-3.52046
11
6.22048
21
-3.51549
0
LINE
8
BLACK
6
CONTINUOUS
10
6.22048
20
-3.51549
11
6.22361
21
-3.51125
0
LINE
8
BLACK
6
CONTINUOUS
10
6.22361
20
-3.51125
11
6.22785
21
-3.50812
0
LINE
8
BLACK
6
CONTINUOUS
10
6.22785
20
-3.50812
11
6.23282
21
-3.50638
0
LINE
8
BLACK
6
CONTINUOUS
10
6.23282
20
-3.50638
11
6.23614
21
-3.50606
0
LINE
8
BLACK
6
CONTINUOUS
10
6.23614
20
-3.50606
11
6.27354
21
-3.50606
0
LINE
8
BLACK
6
CONTINUOUS
10
6.27354
20
-3.50606
11
6.27686
21
-3.50638
0
LINE
8
BLACK
6
CONTINUOUS
10
6.37686
20
-3.50638
11
6.38183
21
-3.50812
0
LINE
8
BLACK
6
CONTINUOUS
10
6.38183
20
-3.50812
11
6.38607
21
-3.51125
0
LINE
8
BLACK
6
CONTINUOUS
10
6.38607
20
-3.51125
11
6.3892
21
-3.51549
0
LINE
8
BLACK
6
CONTINUOUS
10
6.3892
20
-3.51549
11
6.39095
21
-3.52046
0
LINE
8
BLACK
6
CONTINUOUS
10
6.39095
20
-3.52046
11
6.39126
21
-3.52378
0
LINE
8
BLACK
6
CONTINUOUS
10
6.39126
20
-3.52378
11
6.39126
21
-3.54346
0
LINE
8
BLACK
6
CONTINUOUS
10
6.39126
20
-3.54346
11
6.39095
21
-3.54678
0
LINE
8
BLACK
6
CONTINUOUS
10
6.39095
20
-3.54678
11
6.3892
21
-3.55175
0
LINE
8
BLACK
6
CONTINUOUS
10
6.3892
20
-3.55175
11
6.38607
21
-3.55599
0
LINE
8
BLACK
6
CONTINUOUS
10
6.38607
20
-3.55599
11
6.38183
21
-3.55912
0
LINE
8
BLACK
6
CONTINUOUS
10
6.38183
20
-3.55912
11
6.37686
21
-3.56087
0
LINE
8
BLACK
6
CONTINUOUS
10
6.37686
20
-3.56087
11
6.37354
21
-3.56118
0
LINE
8
BLACK
6
CONTINUOUS
10
6.37354
20
-3.56118
11
6.33614
21
-3.56118
0
LINE
8
BLACK
6
CONTINUOUS
10
6.33614
20
-3.56118
11
6.33282
21
-3.56087
0
LINE
8
BLACK
6
CONTINUOUS
10
6.33282
20
-3.56087
11
6.32785
21
-3.55912
0
LINE
8
BLACK
6
CONTINUOUS
10
6.32785
20
-3.55912
11
6.32361
21
-3.55599
0
LINE
8
BLACK
6
CONTINUOUS
10
6.32361
20
-3.55599
11
6.32048
21
-3.55175
0
LINE
8
BLACK
6
CONTINUOUS
10
6.32048
20
-3.55175
11
6.31874
21
-3.54678
0
LINE
8
BLACK
6
CONTINUOUS
10
6.31874
20
-3.54678
11
6.31843
21
-3.54346
0
LINE
8
BLACK
6
CONTINUOUS
10
6.31843
20
-3.54346
11
6.31843
21
-3.52378
0
LINE
8
BLACK
6
CONTINUOUS
10
6.31843
20
-3.52378
11
6.31874
21
-3.52046
0
LINE
8
BLACK
6
CONTINUOUS
10
6.31874
20
-3.52046
11
6.32048
21
-3.51549
0
LINE
8
BLACK
6
CONTINUOUS
10
6.32048
20
-3.51549
11
6.32361
21
-3.51125
0
LINE
8
BLACK
6
CONTINUOUS
10
6.32361
20
-3.51125
11
6.32785
21
-3.50812
0
LINE
8
BLACK
6
CONTINUOUS
10
6.32785
20
-3.50812
11
6.33282
21
-3.50638
0
LINE
8
BLACK
6
CONTINUOUS
10
6.33282
20
-3.50638
11
6.33614
21
-3.50606
0
LINE
8
BLACK
6
CONTINUOUS
10
6.33614
20
-3.50606
11
6.37354
21
-3.50606
0
LINE
8
BLACK
6
CONTINUOUS
10
6.37354
20
-3.50606
11
6.37686
21
-3.50638
0
LINE
8
BLACK
6
CONTINUOUS
10
6.71288
20
-3.49841
11
6.71785
21
-3.50015
0
LINE
8
BLACK
6
CONTINUOUS
10
6.71785
20
-3.50015
11
6.72209
21
-3.50328
0
LINE
8
BLACK
6
CONTINUOUS
10
6.72209
20
-3.50328
11
6.72522
21
-3.50752
0
LINE
8
BLACK
6
CONTINUOUS
10
6.72522
20
-3.50752
11
6.72696
21
-3.51249
0
LINE
8
BLACK
6
CONTINUOUS
10
6.72696
20
-3.51249
11
6.72728
21
-3.51581
0
LINE
8
BLACK
6
CONTINUOUS
10
6.72728
20
-3.51581
11
6.72728
21
-3.53648
0
LINE
8
BLACK
6
CONTINUOUS
10
6.72728
20
-3.53648
11
6.72696
21
-3.5398
0
LINE
8
BLACK
6
CONTINUOUS
10
6.72696
20
-3.5398
11
6.72522
21
-3.54477
0
LINE
8
BLACK
6
CONTINUOUS
10
6.72522
20
-3.54477
11
6.72209
21
-3.54901
0
LINE
8
BLACK
6
CONTINUOUS
10
6.72209
20
-3.54901
11
6.71785
21
-3.55214
0
LINE
8
BLACK
6
CONTINUOUS
10
6.71785
20
-3.55214
11
6.71288
21
-3.55388
0
LINE
8
BLACK
6
CONTINUOUS
10
6.71288
20
-3.55388
11
6.70956
21
-3.5542
0
LINE
8
BLACK
6
CONTINUOUS
10
6.70956
20
-3.5542
11
6.67413
21
-3.5542
0
LINE
8
BLACK
6
CONTINUOUS
10
6.67413
20
-3.5542
11
6.67081
21
-3.55388
0
LINE
8
BLACK
6
CONTINUOUS
10
6.67081
20
-3.55388
11
6.66584
21
-3.55214
0
LINE
8
BLACK
6
CONTINUOUS
10
6.66584
20
-3.55214
11
6.6616
21
-3.54901
0
LINE
8
BLACK
6
CONTINUOUS
10
6.6616
20
-3.54901
11
6.65847
21
-3.54477
0
LINE
8
BLACK
6
CONTINUOUS
10
6.65847
20
-3.54477
11
6.65672
21
-3.5398
0
LINE
8
BLACK
6
CONTINUOUS
10
6.65672
20
-3.5398
11
6.65641
21
-3.53648
0
LINE
8
BLACK
6
CONTINUOUS
10
6.65641
20
-3.53648
11
6.65641
21
-3.51581
0
LINE
8
BLACK
6
CONTINUOUS
10
6.65641
20
-3.51581
11
6.65672
21
-3.51249
0
LINE
8
BLACK
6
CONTINUOUS
10
6.65672
20
-3.51249
11
6.65847
21
-3.50752
0
LINE
8
BLACK
6
CONTINUOUS
10
6.65847
20
-3.50752
11
6.6616
21
-3.50328
0
LINE
8
BLACK
6
CONTINUOUS
10
6.6616
20
-3.50328
11
6.66584
21
-3.50015
0
LINE
8
BLACK
6
CONTINUOUS
10
6.66584
20
-3.50015
11
6.67081
21
-3.49841
0
LINE
8
BLACK
6
CONTINUOUS
10
6.67081
20
-3.49841
11
6.67413
21
-3.49809
0
LINE
8
BLACK
6
CONTINUOUS
10
6.67413
20
-3.49809
11
6.70956
21
-3.49809
0
LINE
8
BLACK
6
CONTINUOUS
10
6.70956
20
-3.49809
11
6.71288
21
-3.49841
0
LINE
8
BLACK
6
CONTINUOUS
10
6.51786
20
-3.49145
11
6.52041
21
-3.49315
0
LINE
8
BLACK
6
CONTINUOUS
10
6.52041
20
-3.49315
11
6.52212
21
-3.49571
0
LINE
8
BLACK
6
CONTINUOUS
10
6.52212
20
-3.49571
11
6.52272
21
-3.49872
0
LINE
8
BLACK
6
CONTINUOUS
10
6.52272
20
-3.49872
11
6.52272
21
-3.54372
0
LINE
8
BLACK
6
CONTINUOUS
10
6.52272
20
-3.54372
11
6.52212
21
-3.54673
0
LINE
8
BLACK
6
CONTINUOUS
10
6.52212
20
-3.54673
11
6.52041
21
-3.54929
0
LINE
8
BLACK
6
CONTINUOUS
10
6.52041
20
-3.54929
11
6.51786
21
-3.551
0
LINE
8
BLACK
6
CONTINUOUS
10
6.51786
20
-3.551
11
6.51484
21
-3.55159
0
LINE
8
BLACK
6
CONTINUOUS
10
6.51484
20
-3.55159
11
6.49484
21
-3.55159
0
LINE
8
BLACK
6
CONTINUOUS
10
6.49484
20
-3.55159
11
6.49183
21
-3.551
0
LINE
8
BLACK
6
CONTINUOUS
10
6.49183
20
-3.551
11
6.48927
21
-3.54929
0
LINE
8
BLACK
6
CONTINUOUS
10
6.48927
20
-3.54929
11
6.48757
21
-3.54673
0
LINE
8
BLACK
6
CONTINUOUS
10
6.48757
20
-3.54673
11
6.48697
21
-3.54372
0
LINE
8
BLACK
6
CONTINUOUS
10
6.48697
20
-3.54372
11
6.48697
21
-3.49872
0
LINE
8
BLACK
6
CONTINUOUS
10
6.48697
20
-3.49872
11
6.48757
21
-3.49571
0
LINE
8
BLACK
6
CONTINUOUS
10
6.48757
20
-3.49571
11
6.48927
21
-3.49315
0
LINE
8
BLACK
6
CONTINUOUS
10
6.48927
20
-3.49315
11
6.49183
21
-3.49145
0
LINE
8
BLACK
6
CONTINUOUS
10
6.49183
20
-3.49145
11
6.49484
21
-3.49085
0
LINE
8
BLACK
6
CONTINUOUS
10
6.49484
20
-3.49085
11
6.51484
21
-3.49085
0
LINE
8
BLACK
6
CONTINUOUS
10
6.51484
20
-3.49085
11
6.51786
21
-3.49145
0
LINE
8
BLACK
6
CONTINUOUS
10
6.56786
20
-3.49145
11
6.57041
21
-3.49315
0
LINE
8
BLACK
6
CONTINUOUS
10
6.57041
20
-3.49315
11
6.57212
21
-3.49571
0
LINE
8
BLACK
6
CONTINUOUS
10
6.57212
20
-3.49571
11
6.57272
21
-3.49872
0
LINE
8
BLACK
6
CONTINUOUS
10
6.57272
20
-3.49872
11
6.57272
21
-3.54372
0
LINE
8
BLACK
6
CONTINUOUS
10
6.57272
20
-3.54372
11
6.57212
21
-3.54673
0
LINE
8
BLACK
6
CONTINUOUS
10
6.57212
20
-3.54673
11
6.57041
21
-3.54929
0
LINE
8
BLACK
6
CONTINUOUS
10
6.57041
20
-3.54929
11
6.56786
21
-3.551
0
LINE
8
BLACK
6
CONTINUOUS
10
6.56786
20
-3.551
11
6.56484
21
-3.55159
0
LINE
8
BLACK
6
CONTINUOUS
10
6.56484
20
-3.55159
11
6.54484
21
-3.55159
0
LINE
8
BLACK
6
CONTINUOUS
10
6.54484
20
-3.55159
11
6.54183
21
-3.551
0
LINE
8
BLACK
6
CONTINUOUS
10
6.54183
20
-3.551
11
6.53927
21
-3.54929
0
LINE
8
BLACK
6
CONTINUOUS
10
6.53927
20
-3.54929
11
6.53757
21
-3.54673
0
LINE
8
BLACK
6
CONTINUOUS
10
6.53757
20
-3.54673
11
6.53697
21
-3.54372
0
LINE
8
BLACK
6
CONTINUOUS
10
6.53697
20
-3.54372
11
6.53697
21
-3.49872
0
LINE
8
BLACK
6
CONTINUOUS
10
6.53697
20
-3.49872
11
6.53757
21
-3.49571
0
LINE
8
BLACK
6
CONTINUOUS
10
6.53757
20
-3.49571
11
6.53927
21
-3.49315
0
LINE
8
BLACK
6
CONTINUOUS
10
6.53927
20
-3.49315
11
6.54183
21
-3.49145
0
LINE
8
BLACK
6
CONTINUOUS
10
6.54183
20
-3.49145
11
6.54484
21
-3.49085
0
LINE
8
BLACK
6
CONTINUOUS
10
6.54484
20
-3.49085
11
6.56484
21
-3.49085
0
LINE
8
BLACK
6
CONTINUOUS
10
6.56484
20
-3.49085
11
6.56786
21
-3.49145
0
LINE
8
BLACK
6
CONTINUOUS
10
6.46786
20
-3.49145
11
6.47041
21
-3.49315
0
LINE
8
BLACK
6
CONTINUOUS
10
6.47041
20
-3.49315
11
6.47212
21
-3.49571
0
LINE
8
BLACK
6
CONTINUOUS
10
6.47212
20
-3.49571
11
6.47272
21
-3.49872
0
LINE
8
BLACK
6
CONTINUOUS
10
6.47272
20
-3.49872
11
6.47272
21
-3.54372
0
LINE
8
BLACK
6
CONTINUOUS
10
6.47272
20
-3.54372
11
6.47212
21
-3.54673
0
LINE
8
BLACK
6
CONTINUOUS
10
6.47212
20
-3.54673
11
6.47041
21
-3.54929
0
LINE
8
BLACK
6
CONTINUOUS
10
6.47041
20
-3.54929
11
6.46786
21
-3.551
0
LINE
8
BLACK
6
CONTINUOUS
10
6.46786
20
-3.551
11
6.46484
21
-3.55159
0
LINE
8
BLACK
6
CONTINUOUS
10
6.46484
20
-3.55159
11
6.44484
21
-3.55159
0
LINE
8
BLACK
6
CONTINUOUS
10
6.44484
20
-3.55159
11
6.44183
21
-3.551
0
LINE
8
BLACK
6
CONTINUOUS
10
6.44183
20
-3.551
11
6.43927
21
-3.54929
0
LINE
8
BLACK
6
CONTINUOUS
10
6.43927
20
-3.54929
11
6.43757
21
-3.54673
0
LINE
8
BLACK
6
CONTINUOUS
10
6.43757
20
-3.54673
11
6.43697
21
-3.54372
0
LINE
8
BLACK
6
CONTINUOUS
10
6.43697
20
-3.54372
11
6.43697
21
-3.49872
0
LINE
8
BLACK
6
CONTINUOUS
10
6.43697
20
-3.49872
11
6.43757
21
-3.49571
0
LINE
8
BLACK
6
CONTINUOUS
10
6.43757
20
-3.49571
11
6.43927
21
-3.49315
0
LINE
8
BLACK
6
CONTINUOUS
10
6.43927
20
-3.49315
11
6.44183
21
-3.49145
0
LINE
8
BLACK
6
CONTINUOUS
10
6.44183
20
-3.49145
11
6.44484
21
-3.49085
0
LINE
8
BLACK
6
CONTINUOUS
10
6.44484
20
-3.49085
11
6.46484
21
-3.49085
0
LINE
8
BLACK
6
CONTINUOUS
10
6.46484
20
-3.49085
11
6.46786
21
-3.49145
0
LINE
8
BLACK
6
CONTINUOUS
10
6.61786
20
-3.49145
11
6.62041
21
-3.49315
0
LINE
8
BLACK
6
CONTINUOUS
10
6.62041
20
-3.49315
11
6.62212
21
-3.49571
0
LINE
8
BLACK
6
CONTINUOUS
10
6.62212
20
-3.49571
11
6.62272
21
-3.49872
0
LINE
8
BLACK
6
CONTINUOUS
10
6.62272
20
-3.49872
11
6.62272
21
-3.54372
0
LINE
8
BLACK
6
CONTINUOUS
10
6.62272
20
-3.54372
11
6.62212
21
-3.54673
0
LINE
8
BLACK
6
CONTINUOUS
10
6.62212
20
-3.54673
11
6.62041
21
-3.54929
0
LINE
8
BLACK
6
CONTINUOUS
10
6.62041
20
-3.54929
11
6.61786
21
-3.551
0
LINE
8
BLACK
6
CONTINUOUS
10
6.61786
20
-3.551
11
6.61484
21
-3.55159
0
LINE
8
BLACK
6
CONTINUOUS
10
6.61484
20
-3.55159
11
6.59484
21
-3.55159
0
LINE
8
BLACK
6
CONTINUOUS
10
6.59484
20
-3.55159
11
6.59183
21
-3.551
0
LINE
8
BLACK
6
CONTINUOUS
10
6.59183
20
-3.551
11
6.58927
21
-3.54929
0
LINE
8
BLACK
6
CONTINUOUS
10
6.58927
20
-3.54929
11
6.58757
21
-3.54673
0
LINE
8
BLACK
6
CONTINUOUS
10
6.58757
20
-3.54673
11
6.58697
21
-3.54372
0
LINE
8
BLACK
6
CONTINUOUS
10
6.58697
20
-3.54372
11
6.58697
21
-3.49872
0
LINE
8
BLACK
6
CONTINUOUS
10
6.58697
20
-3.49872
11
6.58757
21
-3.49571
0
LINE
8
BLACK
6
CONTINUOUS
10
6.58757
20
-3.49571
11
6.58927
21
-3.49315
0
LINE
8
BLACK
6
CONTINUOUS
10
6.58927
20
-3.49315
11
6.59183
21
-3.49145
0
LINE
8
BLACK
6
CONTINUOUS
10
6.59183
20
-3.49145
11
6.59484
21
-3.49085
0
LINE
8
BLACK
6
CONTINUOUS
10
6.59484
20
-3.49085
11
6.61484
21
-3.49085
0
LINE
8
BLACK
6
CONTINUOUS
10
6.61484
20
-3.49085
11
6.61786
21
-3.49145
0
LINE
8
BLACK
6
CONTINUOUS
10
5.46286
20
-3.43395
11
5.46541
21
-3.43565
0
LINE
8
BLACK
6
CONTINUOUS
10
5.46541
20
-3.43565
11
5.46712
21
-3.43821
0
LINE
8
BLACK
6
CONTINUOUS
10
5.46712
20
-3.43821
11
5.46772
21
-3.44122
0
LINE
8
BLACK
6
CONTINUOUS
10
5.46772
20
-3.44122
11
5.46772
21
-3.50122
0
LINE
8
BLACK
6
CONTINUOUS
10
5.46772
20
-3.50122
11
5.46712
21
-3.50423
0
LINE
8
BLACK
6
CONTINUOUS
10
5.46712
20
-3.50423
11
5.46541
21
-3.50679
0
LINE
8
BLACK
6
CONTINUOUS
10
5.46541
20
-3.50679
11
5.46286
21
-3.5085
0
LINE
8
BLACK
6
CONTINUOUS
10
5.46286
20
-3.5085
11
5.45984
21
-3.50909
0
LINE
8
BLACK
6
CONTINUOUS
10
5.45984
20
-3.50909
11
5.39984
21
-3.50909
0
LINE
8
BLACK
6
CONTINUOUS
10
5.39984
20
-3.50909
11
5.39683
21
-3.5085
0
LINE
8
BLACK
6
CONTINUOUS
10
5.39683
20
-3.5085
11
5.39427
21
-3.50679
0
LINE
8
BLACK
6
CONTINUOUS
10
5.39427
20
-3.50679
11
5.39257
21
-3.50423
0
LINE
8
BLACK
6
CONTINUOUS
10
5.39257
20
-3.50423
11
5.39197
21
-3.50122
0
LINE
8
BLACK
6
CONTINUOUS
10
5.39197
20
-3.50122
11
5.39197
21
-3.44122
0
LINE
8
BLACK
6
CONTINUOUS
10
5.39197
20
-3.44122
11
5.39257
21
-3.43821
0
LINE
8
BLACK
6
CONTINUOUS
10
5.39257
20
-3.43821
11
5.39427
21
-3.43565
0
LINE
8
BLACK
6
CONTINUOUS
10
5.39427
20
-3.43565
11
5.39683
21
-3.43395
0
LINE
8
BLACK
6
CONTINUOUS
10
5.39683
20
-3.43395
11
5.39984
21
-3.43335
0
LINE
8
BLACK
6
CONTINUOUS
10
5.39984
20
-3.43335
11
5.45984
21
-3.43335
0
LINE
8
BLACK
6
CONTINUOUS
10
5.45984
20
-3.43335
11
5.46286
21
-3.43395
0
LINE
8
BLACK
6
CONTINUOUS
10
5.56286
20
-3.43395
11
5.56541
21
-3.43565
0
LINE
8
BLACK
6
CONTINUOUS
10
5.56541
20
-3.43565
11
5.56712
21
-3.43821
0
LINE
8
BLACK
6
CONTINUOUS
10
5.56712
20
-3.43821
11
5.56772
21
-3.44122
0
LINE
8
BLACK
6
CONTINUOUS
10
5.56772
20
-3.44122
11
5.56772
21
-3.50122
0
LINE
8
BLACK
6
CONTINUOUS
10
5.56772
20
-3.50122
11
5.56712
21
-3.50423
0
LINE
8
BLACK
6
CONTINUOUS
10
5.56712
20
-3.50423
11
5.56541
21
-3.50679
0
LINE
8
BLACK
6
CONTINUOUS
10
5.56541
20
-3.50679
11
5.56286
21
-3.5085
0
LINE
8
BLACK
6
CONTINUOUS
10
5.56286
20
-3.5085
11
5.55984
21
-3.50909
0
LINE
8
BLACK
6
CONTINUOUS
10
5.55984
20
-3.50909
11
5.49984
21
-3.50909
0
LINE
8
BLACK
6
CONTINUOUS
10
5.49984
20
-3.50909
11
5.49683
21
-3.5085
0
LINE
8
BLACK
6
CONTINUOUS
10
5.49683
20
-3.5085
11
5.49427
21
-3.50679
0
LINE
8
BLACK
6
CONTINUOUS
10
5.49427
20
-3.50679
11
5.49257
21
-3.50423
0
LINE
8
BLACK
6
CONTINUOUS
10
5.49257
20
-3.50423
11
5.49197
21
-3.50122
0
LINE
8
BLACK
6
CONTINUOUS
10
5.49197
20
-3.50122
11
5.49197
21
-3.44122
0
LINE
8
BLACK
6
CONTINUOUS
10
5.49197
20
-3.44122
11
5.49257
21
-3.43821
0
LINE
8
BLACK
6
CONTINUOUS
10
5.49257
20
-3.43821
11
5.49427
21
-3.43565
0
LINE
8
BLACK
6
CONTINUOUS
10
5.49427
20
-3.43565
11
5.49683
21
-3.43395
0
LINE
8
BLACK
6
CONTINUOUS
10
5.49683
20
-3.43395
11
5.49984
21
-3.43335
0
LINE
8
BLACK
6
CONTINUOUS
10
5.49984
20
-3.43335
11
5.55984
21
-3.43335
0
LINE
8
BLACK
6
CONTINUOUS
10
5.55984
20
-3.43335
11
5.56286
21
-3.43395
0
LINE
8
BLACK
6
CONTINUOUS
10
5.61207
20
-3.4361
11
5.61704
21
-3.43785
0
LINE
8
BLACK
6
CONTINUOUS
10
5.61704
20
-3.43785
11
5.62128
21
-3.44098
0
LINE
8
BLACK
6
CONTINUOUS
10
5.62128
20
-3.44098
11
5.62441
21
-3.44521
0
LINE
8
BLACK
6
CONTINUOUS
10
5.62441
20
-3.44521
11
5.62615
21
-3.45018
0
LINE
8
BLACK
6
CONTINUOUS
10
5.62615
20
-3.45018
11
5.62647
21
-3.4535
0
LINE
8
BLACK
6
CONTINUOUS
10
5.62647
20
-3.4535
11
5.62647
21
-3.48894
0
LINE
8
BLACK
6
CONTINUOUS
10
5.62647
20
-3.48894
11
5.62615
21
-3.49226
0
LINE
8
BLACK
6
CONTINUOUS
10
5.62615
20
-3.49226
11
5.62441
21
-3.49723
0
LINE
8
BLACK
6
CONTINUOUS
10
5.62441
20
-3.49723
11
5.62128
21
-3.50146
0
LINE
8
BLACK
6
CONTINUOUS
10
5.62128
20
-3.50146
11
5.61704
21
-3.50459
0
LINE
8
BLACK
6
CONTINUOUS
10
5.61704
20
-3.50459
11
5.61207
21
-3.50634
0
LINE
8
BLACK
6
CONTINUOUS
10
5.61207
20
-3.50634
11
5.60875
21
-3.50665
0
LINE
8
BLACK
6
CONTINUOUS
10
5.60875
20
-3.50665
11
5.58808
21
-3.50665
0
LINE
8
BLACK
6
CONTINUOUS
10
5.58808
20
-3.50665
11
5.58476
21
-3.50634
0
LINE
8
BLACK
6
CONTINUOUS
10
5.58476
20
-3.50634
11
5.57979
21
-3.50459
0
LINE
8
BLACK
6
CONTINUOUS
10
5.57979
20
-3.50459
11
5.57556
21
-3.50146
0
LINE
8
BLACK
6
CONTINUOUS
10
5.57556
20
-3.50146
11
5.57243
21
-3.49723
0
LINE
8
BLACK
6
CONTINUOUS
10
5.57243
20
-3.49723
11
5.57068
21
-3.49226
0
LINE
8
BLACK
6
CONTINUOUS
10
5.57068
20
-3.49226
11
5.57037
21
-3.48894
0
LINE
8
BLACK
6
CONTINUOUS
10
5.57037
20
-3.48894
11
5.57037
21
-3.4535
0
LINE
8
BLACK
6
CONTINUOUS
10
5.57037
20
-3.4535
11
5.57068
21
-3.45018
0
LINE
8
BLACK
6
CONTINUOUS
10
5.57068
20
-3.45018
11
5.57243
21
-3.44521
0
LINE
8
BLACK
6
CONTINUOUS
10
5.57243
20
-3.44521
11
5.57556
21
-3.44098
0
LINE
8
BLACK
6
CONTINUOUS
10
5.57556
20
-3.44098
11
5.57979
21
-3.43785
0
LINE
8
BLACK
6
CONTINUOUS
10
5.57979
20
-3.43785
11
5.58476
21
-3.4361
0
LINE
8
BLACK
6
CONTINUOUS
10
5.58476
20
-3.4361
11
5.58808
21
-3.43579
0
LINE
8
BLACK
6
CONTINUOUS
10
5.58808
20
-3.43579
11
5.60875
21
-3.43579
0
LINE
8
BLACK
6
CONTINUOUS
10
5.60875
20
-3.43579
11
5.61207
21
-3.4361
0
LINE
8
BLACK
6
CONTINUOUS
10
5.68392
20
-3.4361
11
5.68889
21
-3.43785
0
LINE
8
BLACK
6
CONTINUOUS
10
5.68889
20
-3.43785
11
5.69313
21
-3.44098
0
LINE
8
BLACK
6
CONTINUOUS
10
5.69313
20
-3.44098
11
5.69626
21
-3.44521
0
LINE
8
BLACK
6
CONTINUOUS
10
5.69626
20
-3.44521
11
5.69801
21
-3.45018
0
LINE
8
BLACK
6
CONTINUOUS
10
5.69801
20
-3.45018
11
5.69832
21
-3.4535
0
LINE
8
BLACK
6
CONTINUOUS
10
5.69832
20
-3.4535
11
5.69832
21
-3.48894
0
LINE
8
BLACK
6
CONTINUOUS
10
5.69832
20
-3.48894
11
5.69801
21
-3.49226
0
LINE
8
BLACK
6
CONTINUOUS
10
5.69801
20
-3.49226
11
5.69626
21
-3.49723
0
LINE
8
BLACK
6
CONTINUOUS
10
5.69626
20
-3.49723
11
5.69313
21
-3.50146
0
LINE
8
BLACK
6
CONTINUOUS
10
5.69313
20
-3.50146
11
5.68889
21
-3.50459
0
LINE
8
BLACK
6
CONTINUOUS
10
5.68889
20
-3.50459
11
5.68392
21
-3.50634
0
LINE
8
BLACK
6
CONTINUOUS
10
5.68392
20
-3.50634
11
5.6806
21
-3.50665
0
LINE
8
BLACK
6
CONTINUOUS
10
5.6806
20
-3.50665
11
5.65993
21
-3.50665
0
LINE
8
BLACK
6
CONTINUOUS
10
5.65993
20
-3.50665
11
5.65661
21
-3.50634
0
LINE
8
BLACK
6
CONTINUOUS
10
5.65661
20
-3.50634
11
5.65164
21
-3.50459
0
LINE
8
BLACK
6
CONTINUOUS
10
5.65164
20
-3.50459
11
5.64741
21
-3.50146
0
LINE
8
BLACK
6
CONTINUOUS
10
5.64741
20
-3.50146
11
5.64428
21
-3.49723
0
LINE
8
BLACK
6
CONTINUOUS
10
5.64428
20
-3.49723
11
5.64253
21
-3.49226
0
LINE
8
BLACK
6
CONTINUOUS
10
5.64253
20
-3.49226
11
5.64222
21
-3.48894
0
LINE
8
BLACK
6
CONTINUOUS
10
5.64222
20
-3.48894
11
5.64222
21
-3.4535
0
LINE
8
BLACK
6
CONTINUOUS
10
5.64222
20
-3.4535
11
5.64253
21
-3.45018
0
LINE
8
BLACK
6
CONTINUOUS
10
5.64253
20
-3.45018
11
5.64428
21
-3.44521
0
LINE
8
BLACK
6
CONTINUOUS
10
5.64428
20
-3.44521
11
5.64741
21
-3.44098
0
LINE
8
BLACK
6
CONTINUOUS
10
5.64741
20
-3.44098
11
5.65164
21
-3.43785
0
LINE
8
BLACK
6
CONTINUOUS
10
5.65164
20
-3.43785
11
5.65661
21
-3.4361
0
LINE
8
BLACK
6
CONTINUOUS
10
5.65661
20
-3.4361
11
5.65993
21
-3.43579
0
LINE
8
BLACK
6
CONTINUOUS
10
5.65993
20
-3.43579
11
5.6806
21
-3.43579
0
LINE
8
BLACK
6
CONTINUOUS
10
5.6806
20
-3.43579
11
5.68392
21
-3.4361
0
LINE
8
BLACK
6
CONTINUOUS
10
6.92488
20
-3.43941
11
6.92985
21
-3.44115
0
LINE
8
BLACK
6
CONTINUOUS
10
6.92985
20
-3.44115
11
6.93409
21
-3.44428
0
LINE
8
BLACK
6
CONTINUOUS
10
6.93409
20
-3.44428
11
6.93722
21
-3.44852
0
LINE
8
BLACK
6
CONTINUOUS
10
6.93722
20
-3.44852
11
6.93896
21
-3.45349
0
LINE
8
BLACK
6
CONTINUOUS
10
6.93896
20
-3.45349
11
6.93928
21
-3.45681
0
LINE
8
BLACK
6
CONTINUOUS
10
6.93928
20
-3.45681
11
6.93928
21
-3.47748
0
LINE
8
BLACK
6
CONTINUOUS
10
6.93928
20
-3.47748
11
6.93896
21
-3.4808
0
LINE
8
BLACK
6
CONTINUOUS
10
6.93896
20
-3.4808
11
6.93722
21
-3.48577
0
LINE
8
BLACK
6
CONTINUOUS
10
6.93722
20
-3.48577
11
6.93409
21
-3.49001
0
LINE
8
BLACK
6
CONTINUOUS
10
6.93409
20
-3.49001
11
6.92985
21
-3.49314
0
LINE
8
BLACK
6
CONTINUOUS
10
6.92985
20
-3.49314
11
6.92488
21
-3.49488
0
LINE
8
BLACK
6
CONTINUOUS
10
6.92488
20
-3.49488
11
6.92156
21
-3.4952
0
LINE
8
BLACK
6
CONTINUOUS
10
6.92156
20
-3.4952
11
6.88613
21
-3.4952
0
LINE
8
BLACK
6
CONTINUOUS
10
6.88613
20
-3.4952
11
6.88281
21
-3.49488
0
LINE
8
BLACK
6
CONTINUOUS
10
6.88281
20
-3.49488
11
6.87784
21
-3.49314
0
LINE
8
BLACK
6
CONTINUOUS
10
6.87784
20
-3.49314
11
6.8736
21
-3.49001
0
LINE
8
BLACK
6
CONTINUOUS
10
6.8736
20
-3.49001
11
6.87047
21
-3.48577
0
LINE
8
BLACK
6
CONTINUOUS
10
6.87047
20
-3.48577
11
6.86872
21
-3.4808
0
LINE
8
BLACK
6
CONTINUOUS
10
6.86872
20
-3.4808
11
6.86841
21
-3.47748
0
LINE
8
BLACK
6
CONTINUOUS
10
6.86841
20
-3.47748
11
6.86841
21
-3.45681
0
LINE
8
BLACK
6
CONTINUOUS
10
6.86841
20
-3.45681
11
6.86872
21
-3.45349
0
LINE
8
BLACK
6
CONTINUOUS
10
6.86872
20
-3.45349
11
6.87047
21
-3.44852
0
LINE
8
BLACK
6
CONTINUOUS
10
6.87047
20
-3.44852
11
6.8736
21
-3.44428
0
LINE
8
BLACK
6
CONTINUOUS
10
6.8736
20
-3.44428
11
6.87784
21
-3.44115
0
LINE
8
BLACK
6
CONTINUOUS
10
6.87784
20
-3.44115
11
6.88281
21
-3.43941
0
LINE
8
BLACK
6
CONTINUOUS
10
6.88281
20
-3.43941
11
6.88613
21
-3.43909
0
LINE
8
BLACK
6
CONTINUOUS
10
6.88613
20
-3.43909
11
6.92156
21
-3.43909
0
LINE
8
BLACK
6
CONTINUOUS
10
6.92156
20
-3.43909
11
6.92488
21
-3.43941
0
LINE
8
BLACK
6
CONTINUOUS
10
7.14186
20
-3.41995
11
7.14441
21
-3.42165
0
LINE
8
BLACK
6
CONTINUOUS
10
7.14441
20
-3.42165
11
7.14612
21
-3.42421
0
LINE
8
BLACK
6
CONTINUOUS
10
7.14612
20
-3.42421
11
7.14672
21
-3.42722
0
LINE
8
BLACK
6
CONTINUOUS
10
7.14672
20
-3.42722
11
7.14672
21
-3.48722
0
LINE
8
BLACK
6
CONTINUOUS
10
7.14672
20
-3.48722
11
7.14612
21
-3.49023
0
LINE
8
BLACK
6
CONTINUOUS
10
7.14612
20
-3.49023
11
7.14441
21
-3.49279
0
LINE
8
BLACK
6
CONTINUOUS
10
7.14441
20
-3.49279
11
7.14186
21
-3.4945
0
LINE
8
BLACK
6
CONTINUOUS
10
7.14186
20
-3.4945
11
7.13884
21
-3.49509
0
LINE
8
BLACK
6
CONTINUOUS
10
7.13884
20
-3.49509
11
7.07884
21
-3.49509
0
LINE
8
BLACK
6
CONTINUOUS
10
7.07884
20
-3.49509
11
7.07583
21
-3.4945
0
LINE
8
BLACK
6
CONTINUOUS
10
7.07583
20
-3.4945
11
7.07327
21
-3.49279
0
LINE
8
BLACK
6
CONTINUOUS
10
7.07327
20
-3.49279
11
7.07157
21
-3.49023
0
LINE
8
BLACK
6
CONTINUOUS
10
7.07157
20
-3.49023
11
7.07097
21
-3.48722
0
LINE
8
BLACK
6
CONTINUOUS
10
7.07097
20
-3.48722
11
7.07097
21
-3.42722
0
LINE
8
BLACK
6
CONTINUOUS
10
7.07097
20
-3.42722
11
7.07157
21
-3.42421
0
LINE
8
BLACK
6
CONTINUOUS
10
7.07157
20
-3.42421
11
7.07327
21
-3.42165
0
LINE
8
BLACK
6
CONTINUOUS
10
7.07327
20
-3.42165
11
7.07583
21
-3.41995
0
LINE
8
BLACK
6
CONTINUOUS
10
7.07583
20
-3.41995
11
7.07884
21
-3.41935
0
LINE
8
BLACK
6
CONTINUOUS
10
7.07884
20
-3.41935
11
7.13884
21
-3.41935
0
LINE
8
BLACK
6
CONTINUOUS
10
7.13884
20
-3.41935
11
7.14186
21
-3.41995
0
LINE
8
BLACK
6
CONTINUOUS
10
7.04186
20
-3.41995
11
7.04441
21
-3.42165
0
LINE
8
BLACK
6
CONTINUOUS
10
7.04441
20
-3.42165
11
7.04612
21
-3.42421
0
LINE
8
BLACK
6
CONTINUOUS
10
7.04612
20
-3.42421
11
7.04672
21
-3.42722
0
LINE
8
BLACK
6
CONTINUOUS
10
7.04672
20
-3.42722
11
7.04672
21
-3.48722
0
LINE
8
BLACK
6
CONTINUOUS
10
7.04672
20
-3.48722
11
7.04612
21
-3.49023
0
LINE
8
BLACK
6
CONTINUOUS
10
7.04612
20
-3.49023
11
7.04441
21
-3.49279
0
LINE
8
BLACK
6
CONTINUOUS
10
7.04441
20
-3.49279
11
7.04186
21
-3.4945
0
LINE
8
BLACK
6
CONTINUOUS
10
7.04186
20
-3.4945
11
7.03884
21
-3.49509
0
LINE
8
BLACK
6
CONTINUOUS
10
7.03884
20
-3.49509
11
6.97884
21
-3.49509
0
LINE
8
BLACK
6
CONTINUOUS
10
6.97884
20
-3.49509
11
6.97583
21
-3.4945
0
LINE
8
BLACK
6
CONTINUOUS
10
6.97583
20
-3.4945
11
6.97327
21
-3.49279
0
LINE
8
BLACK
6
CONTINUOUS
10
6.97327
20
-3.49279
11
6.97157
21
-3.49023
0
LINE
8
BLACK
6
CONTINUOUS
10
6.97157
20
-3.49023
11
6.97097
21
-3.48722
0
LINE
8
BLACK
6
CONTINUOUS
10
6.97097
20
-3.48722
11
6.97097
21
-3.42722
0
LINE
8
BLACK
6
CONTINUOUS
10
6.97097
20
-3.42722
11
6.97157
21
-3.42421
0
LINE
8
BLACK
6
CONTINUOUS
10
6.97157
20
-3.42421
11
6.97327
21
-3.42165
0
LINE
8
BLACK
6
CONTINUOUS
10
6.97327
20
-3.42165
11
6.97583
21
-3.41995
0
LINE
8
BLACK
6
CONTINUOUS
10
6.97583
20
-3.41995
11
6.97884
21
-3.41935
0
LINE
8
BLACK
6
CONTINUOUS
10
6.97884
20
-3.41935
11
7.03884
21
-3.41935
0
LINE
8
BLACK
6
CONTINUOUS
10
7.03884
20
-3.41935
11
7.04186
21
-3.41995
0
LINE
8
BLACK
6
CONTINUOUS
10
6.79288
20
-3.43541
11
6.79785
21
-3.43715
0
LINE
8
BLACK
6
CONTINUOUS
10
6.79785
20
-3.43715
11
6.80209
21
-3.44028
0
LINE
8
BLACK
6
CONTINUOUS
10
6.80209
20
-3.44028
11
6.80522
21
-3.44452
0
LINE
8
BLACK
6
CONTINUOUS
10
6.80522
20
-3.44452
11
6.80696
21
-3.44949
0
LINE
8
BLACK
6
CONTINUOUS
10
6.80696
20
-3.44949
11
6.80728
21
-3.45281
0
LINE
8
BLACK
6
CONTINUOUS
10
6.80728
20
-3.45281
11
6.80728
21
-3.47348
0
LINE
8
BLACK
6
CONTINUOUS
10
6.80728
20
-3.47348
11
6.80696
21
-3.4768
0
LINE
8
BLACK
6
CONTINUOUS
10
6.80696
20
-3.4768
11
6.80522
21
-3.48177
0
LINE
8
BLACK
6
CONTINUOUS
10
6.80522
20
-3.48177
11
6.80209
21
-3.48601
0
LINE
8
BLACK
6
CONTINUOUS
10
6.80209
20
-3.48601
11
6.79785
21
-3.48914
0
LINE
8
BLACK
6
CONTINUOUS
10
6.79785
20
-3.48914
11
6.79288
21
-3.49088
0
LINE
8
BLACK
6
CONTINUOUS
10
6.79288
20
-3.49088
11
6.78956
21
-3.4912
0
LINE
8
BLACK
6
CONTINUOUS
10
6.78956
20
-3.4912
11
6.75413
21
-3.4912
0
LINE
8
BLACK
6
CONTINUOUS
10
6.75413
20
-3.4912
11
6.75081
21
-3.49088
0
LINE
8
BLACK
6
CONTINUOUS
10
6.75081
20
-3.49088
11
6.74584
21
-3.48914
0
LINE
8
BLACK
6
CONTINUOUS
10
6.74584
20
-3.48914
11
6.7416
21
-3.48601
0
LINE
8
BLACK
6
CONTINUOUS
10
6.7416
20
-3.48601
11
6.73847
21
-3.48177
0
LINE
8
BLACK
6
CONTINUOUS
10
6.73847
20
-3.48177
11
6.73672
21
-3.4768
0
LINE
8
BLACK
6
CONTINUOUS
10
6.73672
20
-3.4768
11
6.73641
21
-3.47348
0
LINE
8
BLACK
6
CONTINUOUS
10
6.73641
20
-3.47348
11
6.73641
21
-3.45281
0
LINE
8
BLACK
6
CONTINUOUS
10
6.73641
20
-3.45281
11
6.73672
21
-3.44949
0
LINE
8
BLACK
6
CONTINUOUS
10
6.73672
20
-3.44949
11
6.73847
21
-3.44452
0
LINE
8
BLACK
6
CONTINUOUS
10
6.73847
20
-3.44452
11
6.7416
21
-3.44028
0
LINE
8
BLACK
6
CONTINUOUS
10
6.7416
20
-3.44028
11
6.74584
21
-3.43715
0
LINE
8
BLACK
6
CONTINUOUS
10
6.74584
20
-3.43715
11
6.75081
21
-3.43541
0
LINE
8
BLACK
6
CONTINUOUS
10
6.75081
20
-3.43541
11
6.75413
21
-3.43509
0
LINE
8
BLACK
6
CONTINUOUS
10
6.75413
20
-3.43509
11
6.78956
21
-3.43509
0
LINE
8
BLACK
6
CONTINUOUS
10
6.78956
20
-3.43509
11
6.79288
21
-3.43541
0
LINE
8
BLACK
6
CONTINUOUS
10
6.37686
20
-3.43157
11
6.38183
21
-3.43332
0
LINE
8
BLACK
6
CONTINUOUS
10
6.38183
20
-3.43332
11
6.38607
21
-3.43645
0
LINE
8
BLACK
6
CONTINUOUS
10
6.38607
20
-3.43645
11
6.3892
21
-3.44069
0
LINE
8
BLACK
6
CONTINUOUS
10
6.3892
20
-3.44069
11
6.39095
21
-3.44566
0
LINE
8
BLACK
6
CONTINUOUS
10
6.39095
20
-3.44566
11
6.39126
21
-3.44898
0
LINE
8
BLACK
6
CONTINUOUS
10
6.39126
20
-3.44898
11
6.39126
21
-3.46866
0
LINE
8
BLACK
6
CONTINUOUS
10
6.39126
20
-3.46866
11
6.39095
21
-3.47198
0
LINE
8
BLACK
6
CONTINUOUS
10
6.39095
20
-3.47198
11
6.3892
21
-3.47695
0
LINE
8
BLACK
6
CONTINUOUS
10
6.3892
20
-3.47695
11
6.38607
21
-3.48119
0
LINE
8
BLACK
6
CONTINUOUS
10
6.38607
20
-3.48119
11
6.38183
21
-3.48432
0
LINE
8
BLACK
6
CONTINUOUS
10
6.38183
20
-3.48432
11
6.37686
21
-3.48606
0
LINE
8
BLACK
6
CONTINUOUS
10
6.37686
20
-3.48606
11
6.37354
21
-3.48638
0
LINE
8
BLACK
6
CONTINUOUS
10
6.37354
20
-3.48638
11
6.33614
21
-3.48638
0
LINE
8
BLACK
6
CONTINUOUS
10
6.33614
20
-3.48638
11
6.33282
21
-3.48606
0
LINE
8
BLACK
6
CONTINUOUS
10
6.33282
20
-3.48606
11
6.32785
21
-3.48432
0
LINE
8
BLACK
6
CONTINUOUS
10
6.32785
20
-3.48432
11
6.32361
21
-3.48119
0
LINE
8
BLACK
6
CONTINUOUS
10
6.32361
20
-3.48119
11
6.32048
21
-3.47695
0
LINE
8
BLACK
6
CONTINUOUS
10
6.32048
20
-3.47695
11
6.31874
21
-3.47198
0
LINE
8
BLACK
6
CONTINUOUS
10
6.31874
20
-3.47198
11
6.31843
21
-3.46866
0
LINE
8
BLACK
6
CONTINUOUS
10
6.31843
20
-3.46866
11
6.31843
21
-3.44898
0
LINE
8
BLACK
6
CONTINUOUS
10
6.31843
20
-3.44898
11
6.31874
21
-3.44566
0
LINE
8
BLACK
6
CONTINUOUS
10
6.31874
20
-3.44566
11
6.32048
21
-3.44069
0
LINE
8
BLACK
6
CONTINUOUS
10
6.32048
20
-3.44069
11
6.32361
21
-3.43645
0
LINE
8
BLACK
6
CONTINUOUS
10
6.32361
20
-3.43645
11
6.32785
21
-3.43332
0
LINE
8
BLACK
6
CONTINUOUS
10
6.32785
20
-3.43332
11
6.33282
21
-3.43157
0
LINE
8
BLACK
6
CONTINUOUS
10
6.33282
20
-3.43157
11
6.33614
21
-3.43126
0
LINE
8
BLACK
6
CONTINUOUS
10
6.33614
20
-3.43126
11
6.37354
21
-3.43126
0
LINE
8
BLACK
6
CONTINUOUS
10
6.37354
20
-3.43126
11
6.37686
21
-3.43157
0
LINE
8
BLACK
6
CONTINUOUS
10
6.27686
20
-3.43157
11
6.28183
21
-3.43332
0
LINE
8
BLACK
6
CONTINUOUS
10
6.28183
20
-3.43332
11
6.28607
21
-3.43645
0
LINE
8
BLACK
6
CONTINUOUS
10
6.28607
20
-3.43645
11
6.2892
21
-3.44069
0
LINE
8
BLACK
6
CONTINUOUS
10
6.2892
20
-3.44069
11
6.29095
21
-3.44566
0
LINE
8
BLACK
6
CONTINUOUS
10
6.29095
20
-3.44566
11
6.29126
21
-3.44898
0
LINE
8
BLACK
6
CONTINUOUS
10
6.29126
20
-3.44898
11
6.29126
21
-3.46866
0
LINE
8
BLACK
6
CONTINUOUS
10
6.29126
20
-3.46866
11
6.29095
21
-3.47198
0
LINE
8
BLACK
6
CONTINUOUS
10
6.29095
20
-3.47198
11
6.2892
21
-3.47695
0
LINE
8
BLACK
6
CONTINUOUS
10
6.2892
20
-3.47695
11
6.28607
21
-3.48119
0
LINE
8
BLACK
6
CONTINUOUS
10
6.28607
20
-3.48119
11
6.28183
21
-3.48432
0
LINE
8
BLACK
6
CONTINUOUS
10
6.28183
20
-3.48432
11
6.27686
21
-3.48606
0
LINE
8
BLACK
6
CONTINUOUS
10
6.27686
20
-3.48606
11
6.27354
21
-3.48638
0
LINE
8
BLACK
6
CONTINUOUS
10
6.27354
20
-3.48638
11
6.23614
21
-3.48638
0
LINE
8
BLACK
6
CONTINUOUS
10
6.23614
20
-3.48638
11
6.23282
21
-3.48606
0
LINE
8
BLACK
6
CONTINUOUS
10
6.23282
20
-3.48606
11
6.22785
21
-3.48432
0
LINE
8
BLACK
6
CONTINUOUS
10
6.22785
20
-3.48432
11
6.22361
21
-3.48119
0
LINE
8
BLACK
6
CONTINUOUS
10
6.22361
20
-3.48119
11
6.22048
21
-3.47695
0
LINE
8
BLACK
6
CONTINUOUS
10
6.22048
20
-3.47695
11
6.21874
21
-3.47198
0
LINE
8
BLACK
6
CONTINUOUS
10
6.21874
20
-3.47198
11
6.21843
21
-3.46866
0
LINE
8
BLACK
6
CONTINUOUS
10
6.21843
20
-3.46866
11
6.21843
21
-3.44898
0
LINE
8
BLACK
6
CONTINUOUS
10
6.21843
20
-3.44898
11
6.21874
21
-3.44566
0
LINE
8
BLACK
6
CONTINUOUS
10
6.21874
20
-3.44566
11
6.22048
21
-3.44069
0
LINE
8
BLACK
6
CONTINUOUS
10
6.22048
20
-3.44069
11
6.22361
21
-3.43645
0
LINE
8
BLACK
6
CONTINUOUS
10
6.22361
20
-3.43645
11
6.22785
21
-3.43332
0
LINE
8
BLACK
6
CONTINUOUS
10
6.22785
20
-3.43332
11
6.23282
21
-3.43157
0
LINE
8
BLACK
6
CONTINUOUS
10
6.23282
20
-3.43157
11
6.23614
21
-3.43126
0
LINE
8
BLACK
6
CONTINUOUS
10
6.23614
20
-3.43126
11
6.27354
21
-3.43126
0
LINE
8
BLACK
6
CONTINUOUS
10
6.27354
20
-3.43126
11
6.27686
21
-3.43157
0
LINE
8
BLACK
6
CONTINUOUS
10
6.71288
20
-3.42656
11
6.71785
21
-3.4283
0
LINE
8
BLACK
6
CONTINUOUS
10
6.71785
20
-3.4283
11
6.72209
21
-3.43143
0
LINE
8
BLACK
6
CONTINUOUS
10
6.72209
20
-3.43143
11
6.72522
21
-3.43567
0
LINE
8
BLACK
6
CONTINUOUS
10
6.72522
20
-3.43567
11
6.72696
21
-3.44064
0
LINE
8
BLACK
6
CONTINUOUS
10
6.72696
20
-3.44064
11
6.72728
21
-3.44396
0
LINE
8
BLACK
6
CONTINUOUS
10
6.72728
20
-3.44396
11
6.72728
21
-3.46463
0
LINE
8
BLACK
6
CONTINUOUS
10
6.72728
20
-3.46463
11
6.72696
21
-3.46795
0
LINE
8
BLACK
6
CONTINUOUS
10
6.72696
20
-3.46795
11
6.72522
21
-3.47292
0
LINE
8
BLACK
6
CONTINUOUS
10
6.72522
20
-3.47292
11
6.72209
21
-3.47716
0
LINE
8
BLACK
6
CONTINUOUS
10
6.72209
20
-3.47716
11
6.71785
21
-3.48029
0
LINE
8
BLACK
6
CONTINUOUS
10
6.71785
20
-3.48029
11
6.71288
21
-3.48203
0
LINE
8
BLACK
6
CONTINUOUS
10
6.71288
20
-3.48203
11
6.70956
21
-3.48235
0
LINE
8
BLACK
6
CONTINUOUS
10
6.70956
20
-3.48235
11
6.67413
21
-3.48235
0
LINE
8
BLACK
6
CONTINUOUS
10
6.67413
20
-3.48235
11
6.67081
21
-3.48203
0
LINE
8
BLACK
6
CONTINUOUS
10
6.67081
20
-3.48203
11
6.66584
21
-3.48029
0
LINE
8
BLACK
6
CONTINUOUS
10
6.66584
20
-3.48029
11
6.6616
21
-3.47716
0
LINE
8
BLACK
6
CONTINUOUS
10
6.6616
20
-3.47716
11
6.65847
21
-3.47292
0
LINE
8
BLACK
6
CONTINUOUS
10
6.65847
20
-3.47292
11
6.65672
21
-3.46795
0
LINE
8
BLACK
6
CONTINUOUS
10
6.65672
20
-3.46795
11
6.65641
21
-3.46463
0
LINE
8
BLACK
6
CONTINUOUS
10
6.65641
20
-3.46463
11
6.65641
21
-3.44396
0
LINE
8
BLACK
6
CONTINUOUS
10
6.65641
20
-3.44396
11
6.65672
21
-3.44064
0
LINE
8
BLACK
6
CONTINUOUS
10
6.65672
20
-3.44064
11
6.65847
21
-3.43567
0
LINE
8
BLACK
6
CONTINUOUS
10
6.65847
20
-3.43567
11
6.6616
21
-3.43143
0
LINE
8
BLACK
6
CONTINUOUS
10
6.6616
20
-3.43143
11
6.66584
21
-3.4283
0
LINE
8
BLACK
6
CONTINUOUS
10
6.66584
20
-3.4283
11
6.67081
21
-3.42656
0
LINE
8
BLACK
6
CONTINUOUS
10
6.67081
20
-3.42656
11
6.67413
21
-3.42624
0
LINE
8
BLACK
6
CONTINUOUS
10
6.67413
20
-3.42624
11
6.70956
21
-3.42624
0
LINE
8
BLACK
6
CONTINUOUS
10
6.70956
20
-3.42624
11
6.71288
21
-3.42656
0
LINE
8
BLACK
6
CONTINUOUS
10
6.08858
20
-3.3864
11
6.09265
21
-3.38839
0
LINE
8
BLACK
6
CONTINUOUS
10
6.09265
20
-3.38839
11
6.09585
21
-3.39158
0
LINE
8
BLACK
6
CONTINUOUS
10
6.09585
20
-3.39158
11
6.09784
21
-3.39565
0
LINE
8
BLACK
6
CONTINUOUS
10
6.09784
20
-3.39565
11
6.09843
21
-3.39961
0
LINE
8
BLACK
6
CONTINUOUS
10
6.09843
20
-3.39961
11
6.09843
21
-3.44587
0
LINE
8
BLACK
6
CONTINUOUS
10
6.09843
20
-3.44587
11
6.09785
21
-3.4498
0
LINE
8
BLACK
6
CONTINUOUS
10
6.09785
20
-3.4498
11
6.09586
21
-3.45387
0
LINE
8
BLACK
6
CONTINUOUS
10
6.09586
20
-3.45387
11
6.09267
21
-3.45707
0
LINE
8
BLACK
6
CONTINUOUS
10
6.09267
20
-3.45707
11
6.08861
21
-3.45906
0
LINE
8
BLACK
6
CONTINUOUS
10
6.08861
20
-3.45906
11
6.08465
21
-3.45965
0
LINE
8
BLACK
6
CONTINUOUS
10
6.08465
20
-3.45965
11
6.07283
21
-3.45965
0
LINE
8
BLACK
6
CONTINUOUS
10
6.07283
20
-3.45965
11
6.0689
21
-3.45907
0
LINE
8
BLACK
6
CONTINUOUS
10
6.0689
20
-3.45907
11
6.06483
21
-3.45708
0
LINE
8
BLACK
6
CONTINUOUS
10
6.06483
20
-3.45708
11
6.06163
21
-3.45389
0
LINE
8
BLACK
6
CONTINUOUS
10
6.06163
20
-3.45389
11
6.05964
21
-3.44983
0
LINE
8
BLACK
6
CONTINUOUS
10
6.05964
20
-3.44983
11
6.05906
21
-3.44587
0
LINE
8
BLACK
6
CONTINUOUS
10
6.05906
20
-3.44587
11
6.05906
21
-3.39961
0
LINE
8
BLACK
6
CONTINUOUS
10
6.05906
20
-3.39961
11
6.05963
21
-3.39567
0
LINE
8
BLACK
6
CONTINUOUS
10
6.05963
20
-3.39567
11
6.06162
21
-3.3916
0
LINE
8
BLACK
6
CONTINUOUS
10
6.06162
20
-3.3916
11
6.06481
21
-3.3884
0
LINE
8
BLACK
6
CONTINUOUS
10
6.06481
20
-3.3884
11
6.06887
21
-3.38641
0
LINE
8
BLACK
6
CONTINUOUS
10
6.06887
20
-3.38641
11
6.07283
21
-3.38583
0
LINE
8
BLACK
6
CONTINUOUS
10
6.07283
20
-3.38583
11
6.08465
21
-3.38583
0
LINE
8
BLACK
6
CONTINUOUS
10
6.08465
20
-3.38583
11
6.08858
21
-3.3864
0
LINE
8
BLACK
6
CONTINUOUS
10
5.83186
20
-3.40138
11
5.83683
21
-3.40312
0
LINE
8
BLACK
6
CONTINUOUS
10
5.83683
20
-3.40312
11
5.84107
21
-3.40625
0
LINE
8
BLACK
6
CONTINUOUS
10
5.84107
20
-3.40625
11
5.8442
21
-3.41049
0
LINE
8
BLACK
6
CONTINUOUS
10
5.8442
20
-3.41049
11
5.84595
21
-3.41546
0
LINE
8
BLACK
6
CONTINUOUS
10
5.84595
20
-3.41546
11
5.84626
21
-3.41878
0
LINE
8
BLACK
6
CONTINUOUS
10
5.84626
20
-3.41878
11
5.84626
21
-3.43846
0
LINE
8
BLACK
6
CONTINUOUS
10
5.84626
20
-3.43846
11
5.84595
21
-3.44178
0
LINE
8
BLACK
6
CONTINUOUS
10
5.84595
20
-3.44178
11
5.8442
21
-3.44675
0
LINE
8
BLACK
6
CONTINUOUS
10
5.8442
20
-3.44675
11
5.84107
21
-3.45099
0
LINE
8
BLACK
6
CONTINUOUS
10
5.84107
20
-3.45099
11
5.83683
21
-3.45412
0
LINE
8
BLACK
6
CONTINUOUS
10
5.83683
20
-3.45412
11
5.83186
21
-3.45587
0
LINE
8
BLACK
6
CONTINUOUS
10
5.83186
20
-3.45587
11
5.82854
21
-3.45618
0
LINE
8
BLACK
6
CONTINUOUS
10
5.82854
20
-3.45618
11
5.79114
21
-3.45618
0
LINE
8
BLACK
6
CONTINUOUS
10
5.79114
20
-3.45618
11
5.78782
21
-3.45587
0
LINE
8
BLACK
6
CONTINUOUS
10
5.78782
20
-3.45587
11
5.78285
21
-3.45412
0
LINE
8
BLACK
6
CONTINUOUS
10
5.78285
20
-3.45412
11
5.77861
21
-3.45099
0
LINE
8
BLACK
6
CONTINUOUS
10
5.77861
20
-3.45099
11
5.77548
21
-3.44675
0
LINE
8
BLACK
6
CONTINUOUS
10
5.77548
20
-3.44675
11
5.77374
21
-3.44178
0
LINE
8
BLACK
6
CONTINUOUS
10
5.77374
20
-3.44178
11
5.77343
21
-3.43846
0
LINE
8
BLACK
6
CONTINUOUS
10
5.77343
20
-3.43846
11
5.77343
21
-3.41878
0
LINE
8
BLACK
6
CONTINUOUS
10
5.77343
20
-3.41878
11
5.77374
21
-3.41546
0
LINE
8
BLACK
6
CONTINUOUS
10
5.77374
20
-3.41546
11
5.77548
21
-3.41049
0
LINE
8
BLACK
6
CONTINUOUS
10
5.77548
20
-3.41049
11
5.77861
21
-3.40625
0
LINE
8
BLACK
6
CONTINUOUS
10
5.77861
20
-3.40625
11
5.78285
21
-3.40312
0
LINE
8
BLACK
6
CONTINUOUS
10
5.78285
20
-3.40312
11
5.78782
21
-3.40138
0
LINE
8
BLACK
6
CONTINUOUS
10
5.78782
20
-3.40138
11
5.79114
21
-3.40106
0
LINE
8
BLACK
6
CONTINUOUS
10
5.79114
20
-3.40106
11
5.82854
21
-3.40106
0
LINE
8
BLACK
6
CONTINUOUS
10
5.82854
20
-3.40106
11
5.83186
21
-3.40138
0
LINE
8
BLACK
6
CONTINUOUS
10
5.69586
20
-3.37488
11
5.70083
21
-3.37662
0
LINE
8
BLACK
6
CONTINUOUS
10
5.70083
20
-3.37662
11
5.70507
21
-3.37975
0
LINE
8
BLACK
6
CONTINUOUS
10
5.70507
20
-3.37975
11
5.7082
21
-3.38399
0
LINE
8
BLACK
6
CONTINUOUS
10
5.7082
20
-3.38399
11
5.70995
21
-3.38896
0
LINE
8
BLACK
6
CONTINUOUS
10
5.70995
20
-3.38896
11
5.71026
21
-3.39228
0
LINE
8
BLACK
6
CONTINUOUS
10
5.71026
20
-3.39228
11
5.71026
21
-3.41196
0
LINE
8
BLACK
6
CONTINUOUS
10
5.71026
20
-3.41196
11
5.70995
21
-3.41528
0
LINE
8
BLACK
6
CONTINUOUS
10
5.70995
20
-3.41528
11
5.7082
21
-3.42025
0
LINE
8
BLACK
6
CONTINUOUS
10
5.7082
20
-3.42025
11
5.70507
21
-3.42449
0
LINE
8
BLACK
6
CONTINUOUS
10
5.70507
20
-3.42449
11
5.70083
21
-3.42762
0
LINE
8
BLACK
6
CONTINUOUS
10
5.70083
20
-3.42762
11
5.69586
21
-3.42937
0
LINE
8
BLACK
6
CONTINUOUS
10
5.69586
20
-3.42937
11
5.69254
21
-3.42968
0
LINE
8
BLACK
6
CONTINUOUS
10
5.69254
20
-3.42968
11
5.65514
21
-3.42968
0
LINE
8
BLACK
6
CONTINUOUS
10
5.65514
20
-3.42968
11
5.65182
21
-3.42937
0
LINE
8
BLACK
6
CONTINUOUS
10
5.65182
20
-3.42937
11
5.64685
21
-3.42762
0
LINE
8
BLACK
6
CONTINUOUS
10
5.64685
20
-3.42762
11
5.64261
21
-3.42449
0
LINE
8
BLACK
6
CONTINUOUS
10
5.64261
20
-3.42449
11
5.63948
21
-3.42025
0
LINE
8
BLACK
6
CONTINUOUS
10
5.63948
20
-3.42025
11
5.63774
21
-3.41528
0
LINE
8
BLACK
6
CONTINUOUS
10
5.63774
20
-3.41528
11
5.63743
21
-3.41196
0
LINE
8
BLACK
6
CONTINUOUS
10
5.63743
20
-3.41196
11
5.63743
21
-3.39228
0
LINE
8
BLACK
6
CONTINUOUS
10
5.63743
20
-3.39228
11
5.63774
21
-3.38896
0
LINE
8
BLACK
6
CONTINUOUS
10
5.63774
20
-3.38896
11
5.63948
21
-3.38399
0
LINE
8
BLACK
6
CONTINUOUS
10
5.63948
20
-3.38399
11
5.64261
21
-3.37975
0
LINE
8
BLACK
6
CONTINUOUS
10
5.64261
20
-3.37975
11
5.64685
21
-3.37662
0
LINE
8
BLACK
6
CONTINUOUS
10
5.64685
20
-3.37662
11
5.65182
21
-3.37488
0
LINE
8
BLACK
6
CONTINUOUS
10
5.65182
20
-3.37488
11
5.65514
21
-3.37456
0
LINE
8
BLACK
6
CONTINUOUS
10
5.65514
20
-3.37456
11
5.69254
21
-3.37456
0
LINE
8
BLACK
6
CONTINUOUS
10
5.69254
20
-3.37456
11
5.69586
21
-3.37488
0
LINE
8
BLACK
6
CONTINUOUS
10
6.92488
20
-3.36756
11
6.92985
21
-3.3693
0
LINE
8
BLACK
6
CONTINUOUS
10
6.92985
20
-3.3693
11
6.93409
21
-3.37243
0
LINE
8
BLACK
6
CONTINUOUS
10
6.93409
20
-3.37243
11
6.93722
21
-3.37667
0
LINE
8
BLACK
6
CONTINUOUS
10
6.93722
20
-3.37667
11
6.93896
21
-3.38164
0
LINE
8
BLACK
6
CONTINUOUS
10
6.93896
20
-3.38164
11
6.93928
21
-3.38496
0
LINE
8
BLACK
6
CONTINUOUS
10
6.93928
20
-3.38496
11
6.93928
21
-3.40563
0
LINE
8
BLACK
6
CONTINUOUS
10
6.93928
20
-3.40563
11
6.93896
21
-3.40895
0
LINE
8
BLACK
6
CONTINUOUS
10
6.93896
20
-3.40895
11
6.93722
21
-3.41392
0
LINE
8
BLACK
6
CONTINUOUS
10
6.93722
20
-3.41392
11
6.93409
21
-3.41816
0
LINE
8
BLACK
6
CONTINUOUS
10
6.93409
20
-3.41816
11
6.92985
21
-3.42129
0
LINE
8
BLACK
6
CONTINUOUS
10
6.92985
20
-3.42129
11
6.92488
21
-3.42303
0
LINE
8
BLACK
6
CONTINUOUS
10
6.92488
20
-3.42303
11
6.92156
21
-3.42335
0
LINE
8
BLACK
6
CONTINUOUS
10
6.92156
20
-3.42335
11
6.88613
21
-3.42335
0
LINE
8
BLACK
6
CONTINUOUS
10
6.88613
20
-3.42335
11
6.88281
21
-3.42303
0
LINE
8
BLACK
6
CONTINUOUS
10
6.88281
20
-3.42303
11
6.87784
21
-3.42129
0
LINE
8
BLACK
6
CONTINUOUS
10
6.87784
20
-3.42129
11
6.8736
21
-3.41816
0
LINE
8
BLACK
6
CONTINUOUS
10
6.8736
20
-3.41816
11
6.87047
21
-3.41392
0
LINE
8
BLACK
6
CONTINUOUS
10
6.87047
20
-3.41392
11
6.86872
21
-3.40895
0
LINE
8
BLACK
6
CONTINUOUS
10
6.86872
20
-3.40895
11
6.86841
21
-3.40563
0
LINE
8
BLACK
6
CONTINUOUS
10
6.86841
20
-3.40563
11
6.86841
21
-3.38496
0
LINE
8
BLACK
6
CONTINUOUS
10
6.86841
20
-3.38496
11
6.86872
21
-3.38164
0
LINE
8
BLACK
6
CONTINUOUS
10
6.86872
20
-3.38164
11
6.87047
21
-3.37667
0
LINE
8
BLACK
6
CONTINUOUS
10
6.87047
20
-3.37667
11
6.8736
21
-3.37243
0
LINE
8
BLACK
6
CONTINUOUS
10
6.8736
20
-3.37243
11
6.87784
21
-3.3693
0
LINE
8
BLACK
6
CONTINUOUS
10
6.87784
20
-3.3693
11
6.88281
21
-3.36756
0
LINE
8
BLACK
6
CONTINUOUS
10
6.88281
20
-3.36756
11
6.88613
21
-3.36724
0
LINE
8
BLACK
6
CONTINUOUS
10
6.88613
20
-3.36724
11
6.92156
21
-3.36724
0
LINE
8
BLACK
6
CONTINUOUS
10
6.92156
20
-3.36724
11
6.92488
21
-3.36756
0
LINE
8
BLACK
6
CONTINUOUS
10
6.71386
20
-3.36838
11
6.71883
21
-3.37012
0
LINE
8
BLACK
6
CONTINUOUS
10
6.71883
20
-3.37012
11
6.72307
21
-3.37325
0
LINE
8
BLACK
6
CONTINUOUS
10
6.72307
20
-3.37325
11
6.7262
21
-3.37749
0
LINE
8
BLACK
6
CONTINUOUS
10
6.7262
20
-3.37749
11
6.72795
21
-3.38246
0
LINE
8
BLACK
6
CONTINUOUS
10
6.72795
20
-3.38246
11
6.72826
21
-3.38578
0
LINE
8
BLACK
6
CONTINUOUS
10
6.72826
20
-3.38578
11
6.72826
21
-3.40546
0
LINE
8
BLACK
6
CONTINUOUS
10
6.72826
20
-3.40546
11
6.72795
21
-3.40878
0
LINE
8
BLACK
6
CONTINUOUS
10
6.72795
20
-3.40878
11
6.7262
21
-3.41375
0
LINE
8
BLACK
6
CONTINUOUS
10
6.7262
20
-3.41375
11
6.72307
21
-3.41799
0
LINE
8
BLACK
6
CONTINUOUS
10
6.72307
20
-3.41799
11
6.71883
21
-3.42112
0
LINE
8
BLACK
6
CONTINUOUS
10
6.71883
20
-3.42112
11
6.71386
21
-3.42287
0
LINE
8
BLACK
6
CONTINUOUS
10
6.71386
20
-3.42287
11
6.71054
21
-3.42318
0
LINE
8
BLACK
6
CONTINUOUS
10
6.71054
20
-3.42318
11
6.67314
21
-3.42318
0
LINE
8
BLACK
6
CONTINUOUS
10
6.67314
20
-3.42318
11
6.66982
21
-3.42287
0
LINE
8
BLACK
6
CONTINUOUS
10
6.66982
20
-3.42287
11
6.66485
21
-3.42112
0
LINE
8
BLACK
6
CONTINUOUS
10
6.66485
20
-3.42112
11
6.66061
21
-3.41799
0
LINE
8
BLACK
6
CONTINUOUS
10
6.66061
20
-3.41799
11
6.65748
21
-3.41375
0
LINE
8
BLACK
6
CONTINUOUS
10
6.65748
20
-3.41375
11
6.65574
21
-3.40878
0
LINE
8
BLACK
6
CONTINUOUS
10
6.65574
20
-3.40878
11
6.65543
21
-3.40546
0
LINE
8
BLACK
6
CONTINUOUS
10
6.65543
20
-3.40546
11
6.65543
21
-3.38578
0
LINE
8
BLACK
6
CONTINUOUS
10
6.65543
20
-3.38578
11
6.65574
21
-3.38246
0
LINE
8
BLACK
6
CONTINUOUS
10
6.65574
20
-3.38246
11
6.65748
21
-3.37749
0
LINE
8
BLACK
6
CONTINUOUS
10
6.65748
20
-3.37749
11
6.66061
21
-3.37325
0
LINE
8
BLACK
6
CONTINUOUS
10
6.66061
20
-3.37325
11
6.66485
21
-3.37012
0
LINE
8
BLACK
6
CONTINUOUS
10
6.66485
20
-3.37012
11
6.66982
21
-3.36838
0
LINE
8
BLACK
6
CONTINUOUS
10
6.66982
20
-3.36838
11
6.67314
21
-3.36806
0
LINE
8
BLACK
6
CONTINUOUS
10
6.67314
20
-3.36806
11
6.71054
21
-3.36806
0
LINE
8
BLACK
6
CONTINUOUS
10
6.71054
20
-3.36806
11
6.71386
21
-3.36838
0
LINE
8
BLACK
6
CONTINUOUS
10
6.79288
20
-3.36356
11
6.79785
21
-3.3653
0
LINE
8
BLACK
6
CONTINUOUS
10
6.79785
20
-3.3653
11
6.80209
21
-3.36843
0
LINE
8
BLACK
6
CONTINUOUS
10
6.80209
20
-3.36843
11
6.80522
21
-3.37267
0
LINE
8
BLACK
6
CONTINUOUS
10
6.80522
20
-3.37267
11
6.80696
21
-3.37764
0
LINE
8
BLACK
6
CONTINUOUS
10
6.80696
20
-3.37764
11
6.80728
21
-3.38096
0
LINE
8
BLACK
6
CONTINUOUS
10
6.80728
20
-3.38096
11
6.80728
21
-3.40163
0
LINE
8
BLACK
6
CONTINUOUS
10
6.80728
20
-3.40163
11
6.80696
21
-3.40495
0
LINE
8
BLACK
6
CONTINUOUS
10
6.80696
20
-3.40495
11
6.80522
21
-3.40992
0
LINE
8
BLACK
6
CONTINUOUS
10
6.80522
20
-3.40992
11
6.80209
21
-3.41416
0
LINE
8
BLACK
6
CONTINUOUS
10
6.80209
20
-3.41416
11
6.79785
21
-3.41729
0
LINE
8
BLACK
6
CONTINUOUS
10
6.79785
20
-3.41729
11
6.79288
21
-3.41903
0
LINE
8
BLACK
6
CONTINUOUS
10
6.79288
20
-3.41903
11
6.78956
21
-3.41935
0
LINE
8
BLACK
6
CONTINUOUS
10
6.78956
20
-3.41935
11
6.75413
21
-3.41935
0
LINE
8
BLACK
6
CONTINUOUS
10
6.75413
20
-3.41935
11
6.75081
21
-3.41903
0
LINE
8
BLACK
6
CONTINUOUS
10
6.75081
20
-3.41903
11
6.74584
21
-3.41729
0
LINE
8
BLACK
6
CONTINUOUS
10
6.74584
20
-3.41729
11
6.7416
21
-3.41416
0
LINE
8
BLACK
6
CONTINUOUS
10
6.7416
20
-3.41416
11
6.73847
21
-3.40992
0
LINE
8
BLACK
6
CONTINUOUS
10
6.73847
20
-3.40992
11
6.73672
21
-3.40495
0
LINE
8
BLACK
6
CONTINUOUS
10
6.73672
20
-3.40495
11
6.73641
21
-3.40163
0
LINE
8
BLACK
6
CONTINUOUS
10
6.73641
20
-3.40163
11
6.73641
21
-3.38096
0
LINE
8
BLACK
6
CONTINUOUS
10
6.73641
20
-3.38096
11
6.73672
21
-3.37764
0
LINE
8
BLACK
6
CONTINUOUS
10
6.73672
20
-3.37764
11
6.73847
21
-3.37267
0
LINE
8
BLACK
6
CONTINUOUS
10
6.73847
20
-3.37267
11
6.7416
21
-3.36843
0
LINE
8
BLACK
6
CONTINUOUS
10
6.7416
20
-3.36843
11
6.74584
21
-3.3653
0
LINE
8
BLACK
6
CONTINUOUS
10
6.74584
20
-3.3653
11
6.75081
21
-3.36356
0
LINE
8
BLACK
6
CONTINUOUS
10
6.75081
20
-3.36356
11
6.75413
21
-3.36324
0
LINE
8
BLACK
6
CONTINUOUS
10
6.75413
20
-3.36324
11
6.78956
21
-3.36324
0
LINE
8
BLACK
6
CONTINUOUS
10
6.78956
20
-3.36324
11
6.79288
21
-3.36356
0
LINE
8
BLACK
6
CONTINUOUS
10
5.56286
20
-3.33395
11
5.56541
21
-3.33565
0
LINE
8
BLACK
6
CONTINUOUS
10
5.56541
20
-3.33565
11
5.56712
21
-3.33821
0
LINE
8
BLACK
6
CONTINUOUS
10
5.56712
20
-3.33821
11
5.56772
21
-3.34122
0
LINE
8
BLACK
6
CONTINUOUS
10
5.56772
20
-3.34122
11
5.56772
21
-3.40122
0
LINE
8
BLACK
6
CONTINUOUS
10
5.56772
20
-3.40122
11
5.56712
21
-3.40423
0
LINE
8
BLACK
6
CONTINUOUS
10
5.56712
20
-3.40423
11
5.56541
21
-3.40679
0
LINE
8
BLACK
6
CONTINUOUS
10
5.56541
20
-3.40679
11
5.56286
21
-3.4085
0
LINE
8
BLACK
6
CONTINUOUS
10
5.56286
20
-3.4085
11
5.55984
21
-3.40909
0
LINE
8
BLACK
6
CONTINUOUS
10
5.55984
20
-3.40909
11
5.49984
21
-3.40909
0
LINE
8
BLACK
6
CONTINUOUS
10
5.49984
20
-3.40909
11
5.49683
21
-3.4085
0
LINE
8
BLACK
6
CONTINUOUS
10
5.49683
20
-3.4085
11
5.49427
21
-3.40679
0
LINE
8
BLACK
6
CONTINUOUS
10
5.49427
20
-3.40679
11
5.49257
21
-3.40423
0
LINE
8
BLACK
6
CONTINUOUS
10
5.49257
20
-3.40423
11
5.49197
21
-3.40122
0
LINE
8
BLACK
6
CONTINUOUS
10
5.49197
20
-3.40122
11
5.49197
21
-3.34122
0
LINE
8
BLACK
6
CONTINUOUS
10
5.49197
20
-3.34122
11
5.49257
21
-3.33821
0
LINE
8
BLACK
6
CONTINUOUS
10
5.49257
20
-3.33821
11
5.49427
21
-3.33565
0
LINE
8
BLACK
6
CONTINUOUS
10
5.49427
20
-3.33565
11
5.49683
21
-3.33395
0
LINE
8
BLACK
6
CONTINUOUS
10
5.49683
20
-3.33395
11
5.49984
21
-3.33335
0
LINE
8
BLACK
6
CONTINUOUS
10
5.49984
20
-3.33335
11
5.55984
21
-3.33335
0
LINE
8
BLACK
6
CONTINUOUS
10
5.55984
20
-3.33335
11
5.56286
21
-3.33395
0
LINE
8
BLACK
6
CONTINUOUS
10
5.46286
20
-3.33395
11
5.46541
21
-3.33565
0
LINE
8
BLACK
6
CONTINUOUS
10
5.46541
20
-3.33565
11
5.46712
21
-3.33821
0
LINE
8
BLACK
6
CONTINUOUS
10
5.46712
20
-3.33821
11
5.46772
21
-3.34122
0
LINE
8
BLACK
6
CONTINUOUS
10
5.46772
20
-3.34122
11
5.46772
21
-3.40122
0
LINE
8
BLACK
6
CONTINUOUS
10
5.46772
20
-3.40122
11
5.46712
21
-3.40423
0
LINE
8
BLACK
6
CONTINUOUS
10
5.46712
20
-3.40423
11
5.46541
21
-3.40679
0
LINE
8
BLACK
6
CONTINUOUS
10
5.46541
20
-3.40679
11
5.46286
21
-3.4085
0
LINE
8
BLACK
6
CONTINUOUS
10
5.46286
20
-3.4085
11
5.45984
21
-3.40909
0
LINE
8
BLACK
6
CONTINUOUS
10
5.45984
20
-3.40909
11
5.39984
21
-3.40909
0
LINE
8
BLACK
6
CONTINUOUS
10
5.39984
20
-3.40909
11
5.39683
21
-3.4085
0
LINE
8
BLACK
6
CONTINUOUS
10
5.39683
20
-3.4085
11
5.39427
21
-3.40679
0
LINE
8
BLACK
6
CONTINUOUS
10
5.39427
20
-3.40679
11
5.39257
21
-3.40423
0
LINE
8
BLACK
6
CONTINUOUS
10
5.39257
20
-3.40423
11
5.39197
21
-3.40122
0
LINE
8
BLACK
6
CONTINUOUS
10
5.39197
20
-3.40122
11
5.39197
21
-3.34122
0
LINE
8
BLACK
6
CONTINUOUS
10
5.39197
20
-3.34122
11
5.39257
21
-3.33821
0
LINE
8
BLACK
6
CONTINUOUS
10
5.39257
20
-3.33821
11
5.39427
21
-3.33565
0
LINE
8
BLACK
6
CONTINUOUS
10
5.39427
20
-3.33565
11
5.39683
21
-3.33395
0
LINE
8
BLACK
6
CONTINUOUS
10
5.39683
20
-3.33395
11
5.39984
21
-3.33335
0
LINE
8
BLACK
6
CONTINUOUS
10
5.39984
20
-3.33335
11
5.45984
21
-3.33335
0
LINE
8
BLACK
6
CONTINUOUS
10
5.45984
20
-3.33335
11
5.46286
21
-3.33395
0
LINE
8
BLACK
6
CONTINUOUS
10
7.14186
20
-3.31995
11
7.14441
21
-3.32165
0
LINE
8
BLACK
6
CONTINUOUS
10
7.14441
20
-3.32165
11
7.14612
21
-3.32421
0
LINE
8
BLACK
6
CONTINUOUS
10
7.14612
20
-3.32421
11
7.14672
21
-3.32722
0
LINE
8
BLACK
6
CONTINUOUS
10
7.14672
20
-3.32722
11
7.14672
21
-3.38722
0
LINE
8
BLACK
6
CONTINUOUS
10
7.14672
20
-3.38722
11
7.14612
21
-3.39023
0
LINE
8
BLACK
6
CONTINUOUS
10
7.14612
20
-3.39023
11
7.14441
21
-3.39279
0
LINE
8
BLACK
6
CONTINUOUS
10
7.14441
20
-3.39279
11
7.14186
21
-3.3945
0
LINE
8
BLACK
6
CONTINUOUS
10
7.14186
20
-3.3945
11
7.13884
21
-3.39509
0
LINE
8
BLACK
6
CONTINUOUS
10
7.13884
20
-3.39509
11
7.07884
21
-3.39509
0
LINE
8
BLACK
6
CONTINUOUS
10
7.07884
20
-3.39509
11
7.07583
21
-3.3945
0
LINE
8
BLACK
6
CONTINUOUS
10
7.07583
20
-3.3945
11
7.07327
21
-3.39279
0
LINE
8
BLACK
6
CONTINUOUS
10
7.07327
20
-3.39279
11
7.07157
21
-3.39023
0
LINE
8
BLACK
6
CONTINUOUS
10
7.07157
20
-3.39023
11
7.07097
21
-3.38722
0
LINE
8
BLACK
6
CONTINUOUS
10
7.07097
20
-3.38722
11
7.07097
21
-3.32722
0
LINE
8
BLACK
6
CONTINUOUS
10
7.07097
20
-3.32722
11
7.07157
21
-3.32421
0
LINE
8
BLACK
6
CONTINUOUS
10
7.07157
20
-3.32421
11
7.07327
21
-3.32165
0
LINE
8
BLACK
6
CONTINUOUS
10
7.07327
20
-3.32165
11
7.07583
21
-3.31995
0
LINE
8
BLACK
6
CONTINUOUS
10
7.07583
20
-3.31995
11
7.07884
21
-3.31935
0
LINE
8
BLACK
6
CONTINUOUS
10
7.07884
20
-3.31935
11
7.13884
21
-3.31935
0
LINE
8
BLACK
6
CONTINUOUS
10
7.13884
20
-3.31935
11
7.14186
21
-3.31995
0
LINE
8
BLACK
6
CONTINUOUS
10
7.04186
20
-3.31995
11
7.04441
21
-3.32165
0
LINE
8
BLACK
6
CONTINUOUS
10
7.04441
20
-3.32165
11
7.04612
21
-3.32421
0
LINE
8
BLACK
6
CONTINUOUS
10
7.04612
20
-3.32421
11
7.04672
21
-3.32722
0
LINE
8
BLACK
6
CONTINUOUS
10
7.04672
20
-3.32722
11
7.04672
21
-3.38722
0
LINE
8
BLACK
6
CONTINUOUS
10
7.04672
20
-3.38722
11
7.04612
21
-3.39023
0
LINE
8
BLACK
6
CONTINUOUS
10
7.04612
20
-3.39023
11
7.04441
21
-3.39279
0
LINE
8
BLACK
6
CONTINUOUS
10
7.04441
20
-3.39279
11
7.04186
21
-3.3945
0
LINE
8
BLACK
6
CONTINUOUS
10
7.04186
20
-3.3945
11
7.03884
21
-3.39509
0
LINE
8
BLACK
6
CONTINUOUS
10
7.03884
20
-3.39509
11
6.97884
21
-3.39509
0
LINE
8
BLACK
6
CONTINUOUS
10
6.97884
20
-3.39509
11
6.97583
21
-3.3945
0
LINE
8
BLACK
6
CONTINUOUS
10
6.97583
20
-3.3945
11
6.97327
21
-3.39279
0
LINE
8
BLACK
6
CONTINUOUS
10
6.97327
20
-3.39279
11
6.97157
21
-3.39023
0
LINE
8
BLACK
6
CONTINUOUS
10
6.97157
20
-3.39023
11
6.97097
21
-3.38722
0
LINE
8
BLACK
6
CONTINUOUS
10
6.97097
20
-3.38722
11
6.97097
21
-3.32722
0
LINE
8
BLACK
6
CONTINUOUS
10
6.97097
20
-3.32722
11
6.97157
21
-3.32421
0
LINE
8
BLACK
6
CONTINUOUS
10
6.97157
20
-3.32421
11
6.97327
21
-3.32165
0
LINE
8
BLACK
6
CONTINUOUS
10
6.97327
20
-3.32165
11
6.97583
21
-3.31995
0
LINE
8
BLACK
6
CONTINUOUS
10
6.97583
20
-3.31995
11
6.97884
21
-3.31935
0
LINE
8
BLACK
6
CONTINUOUS
10
6.97884
20
-3.31935
11
7.03884
21
-3.31935
0
LINE
8
BLACK
6
CONTINUOUS
10
7.03884
20
-3.31935
11
7.04186
21
-3.31995
0
LINE
8
BLACK
6
CONTINUOUS
10
6.12598
20
-3.31258
11
6.13005
21
-3.31457
0
LINE
8
BLACK
6
CONTINUOUS
10
6.13005
20
-3.31457
11
6.13325
21
-3.31777
0
LINE
8
BLACK
6
CONTINUOUS
10
6.13325
20
-3.31777
11
6.13525
21
-3.32183
0
LINE
8
BLACK
6
CONTINUOUS
10
6.13525
20
-3.32183
11
6.13583
21
-3.32579
0
LINE
8
BLACK
6
CONTINUOUS
10
6.13583
20
-3.32579
11
6.13583
21
-3.37205
0
LINE
8
BLACK
6
CONTINUOUS
10
6.13583
20
-3.37205
11
6.13525
21
-3.37598
0
LINE
8
BLACK
6
CONTINUOUS
10
6.13525
20
-3.37598
11
6.13327
21
-3.38005
0
LINE
8
BLACK
6
CONTINUOUS
10
6.13327
20
-3.38005
11
6.13007
21
-3.38325
0
LINE
8
BLACK
6
CONTINUOUS
10
6.13007
20
-3.38325
11
6.12601
21
-3.38525
0
LINE
8
BLACK
6
CONTINUOUS
10
6.12601
20
-3.38525
11
6.12205
21
-3.38583
0
LINE
8
BLACK
6
CONTINUOUS
10
6.12205
20
-3.38583
11
6.11024
21
-3.38583
0
LINE
8
BLACK
6
CONTINUOUS
10
6.11024
20
-3.38583
11
6.1063
21
-3.38525
0
LINE
8
BLACK
6
CONTINUOUS
10
6.1063
20
-3.38525
11
6.10223
21
-3.38327
0
LINE
8
BLACK
6
CONTINUOUS
10
6.10223
20
-3.38327
11
6.09903
21
-3.38007
0
LINE
8
BLACK
6
CONTINUOUS
10
6.09903
20
-3.38007
11
6.09704
21
-3.37601
0
LINE
8
BLACK
6
CONTINUOUS
10
6.09704
20
-3.37601
11
6.09646
21
-3.37205
0
LINE
8
BLACK
6
CONTINUOUS
10
6.09646
20
-3.37205
11
6.09646
21
-3.32579
0
LINE
8
BLACK
6
CONTINUOUS
10
6.09646
20
-3.32579
11
6.09703
21
-3.32185
0
LINE
8
BLACK
6
CONTINUOUS
10
6.09703
20
-3.32185
11
6.09902
21
-3.31779
0
LINE
8
BLACK
6
CONTINUOUS
10
6.09902
20
-3.31779
11
6.10221
21
-3.31458
0
LINE
8
BLACK
6
CONTINUOUS
10
6.10221
20
-3.31458
11
6.10628
21
-3.31259
0
LINE
8
BLACK
6
CONTINUOUS
10
6.10628
20
-3.31259
11
6.11024
21
-3.31201
0
LINE
8
BLACK
6
CONTINUOUS
10
6.11024
20
-3.31201
11
6.12205
21
-3.31201
0
LINE
8
BLACK
6
CONTINUOUS
10
6.12205
20
-3.31201
11
6.12598
21
-3.31258
0
LINE
8
BLACK
6
CONTINUOUS
10
6.05118
20
-3.31258
11
6.05525
21
-3.31457
0
LINE
8
BLACK
6
CONTINUOUS
10
6.05525
20
-3.31457
11
6.05845
21
-3.31777
0
LINE
8
BLACK
6
CONTINUOUS
10
6.05845
20
-3.31777
11
6.06044
21
-3.32183
0
LINE
8
BLACK
6
CONTINUOUS
10
6.06044
20
-3.32183
11
6.06102
21
-3.32579
0
LINE
8
BLACK
6
CONTINUOUS
10
6.06102
20
-3.32579
11
6.06102
21
-3.37205
0
LINE
8
BLACK
6
CONTINUOUS
10
6.06102
20
-3.37205
11
6.06045
21
-3.37598
0
LINE
8
BLACK
6
CONTINUOUS
10
6.06045
20
-3.37598
11
6.05846
21
-3.38005
0
LINE
8
BLACK
6
CONTINUOUS
10
6.05846
20
-3.38005
11
6.05527
21
-3.38325
0
LINE
8
BLACK
6
CONTINUOUS
10
6.05527
20
-3.38325
11
6.0512
21
-3.38525
0
LINE
8
BLACK
6
CONTINUOUS
10
6.0512
20
-3.38525
11
6.04724
21
-3.38583
0
LINE
8
BLACK
6
CONTINUOUS
10
6.04724
20
-3.38583
11
6.03543
21
-3.38583
0
LINE
8
BLACK
6
CONTINUOUS
10
6.03543
20
-3.38583
11
6.0315
21
-3.38525
0
LINE
8
BLACK
6
CONTINUOUS
10
6.0315
20
-3.38525
11
6.02743
21
-3.38327
0
LINE
8
BLACK
6
CONTINUOUS
10
6.02743
20
-3.38327
11
6.02423
21
-3.38007
0
LINE
8
BLACK
6
CONTINUOUS
10
6.02423
20
-3.38007
11
6.02223
21
-3.37601
0
LINE
8
BLACK
6
CONTINUOUS
10
6.02223
20
-3.37601
11
6.02165
21
-3.37205
0
LINE
8
BLACK
6
CONTINUOUS
10
6.02165
20
-3.37205
11
6.02165
21
-3.32579
0
LINE
8
BLACK
6
CONTINUOUS
10
6.02165
20
-3.32579
11
6.02223
21
-3.32185
0
LINE
8
BLACK
6
CONTINUOUS
10
6.02223
20
-3.32185
11
6.02421
21
-3.31779
0
LINE
8
BLACK
6
CONTINUOUS
10
6.02421
20
-3.31779
11
6.02741
21
-3.31458
0
LINE
8
BLACK
6
CONTINUOUS
10
6.02741
20
-3.31458
11
6.03147
21
-3.31259
0
LINE
8
BLACK
6
CONTINUOUS
10
6.03147
20
-3.31259
11
6.03543
21
-3.31201
0
LINE
8
BLACK
6
CONTINUOUS
10
6.03543
20
-3.31201
11
6.04724
21
-3.31201
0
LINE
8
BLACK
6
CONTINUOUS
10
6.04724
20
-3.31201
11
6.05118
21
-3.31258
0
LINE
8
BLACK
6
CONTINUOUS
10
5.83186
20
-3.32657
11
5.83683
21
-3.32832
0
LINE
8
BLACK
6
CONTINUOUS
10
5.83683
20
-3.32832
11
5.84107
21
-3.33145
0
LINE
8
BLACK
6
CONTINUOUS
10
5.84107
20
-3.33145
11
5.8442
21
-3.33569
0
LINE
8
BLACK
6
CONTINUOUS
10
5.8442
20
-3.33569
11
5.84595
21
-3.34066
0
LINE
8
BLACK
6
CONTINUOUS
10
5.84595
20
-3.34066
11
5.84626
21
-3.34398
0
LINE
8
BLACK
6
CONTINUOUS
10
5.84626
20
-3.34398
11
5.84626
21
-3.36366
0
LINE
8
BLACK
6
CONTINUOUS
10
5.84626
20
-3.36366
11
5.84595
21
-3.36698
0
LINE
8
BLACK
6
CONTINUOUS
10
5.84595
20
-3.36698
11
5.8442
21
-3.37195
0
LINE
8
BLACK
6
CONTINUOUS
10
5.8442
20
-3.37195
11
5.84107
21
-3.37619
0
LINE
8
BLACK
6
CONTINUOUS
10
5.84107
20
-3.37619
11
5.83683
21
-3.37932
0
LINE
8
BLACK
6
CONTINUOUS
10
5.83683
20
-3.37932
11
5.83186
21
-3.38106
0
LINE
8
BLACK
6
CONTINUOUS
10
5.83186
20
-3.38106
11
5.82854
21
-3.38138
0
LINE
8
BLACK
6
CONTINUOUS
10
5.82854
20
-3.38138
11
5.79114
21
-3.38138
0
LINE
8
BLACK
6
CONTINUOUS
10
5.79114
20
-3.38138
11
5.78782
21
-3.38106
0
LINE
8
BLACK
6
CONTINUOUS
10
5.78782
20
-3.38106
11
5.78285
21
-3.37932
0
LINE
8
BLACK
6
CONTINUOUS
10
5.78285
20
-3.37932
11
5.77861
21
-3.37619
0
LINE
8
BLACK
6
CONTINUOUS
10
5.77861
20
-3.37619
11
5.77548
21
-3.37195
0
LINE
8
BLACK
6
CONTINUOUS
10
5.77548
20
-3.37195
11
5.77374
21
-3.36698
0
LINE
8
BLACK
6
CONTINUOUS
10
5.77374
20
-3.36698
11
5.77343
21
-3.36366
0
LINE
8
BLACK
6
CONTINUOUS
10
5.77343
20
-3.36366
11
5.77343
21
-3.34398
0
LINE
8
BLACK
6
CONTINUOUS
10
5.77343
20
-3.34398
11
5.77374
21
-3.34066
0
LINE
8
BLACK
6
CONTINUOUS
10
5.77374
20
-3.34066
11
5.77548
21
-3.33569
0
LINE
8
BLACK
6
CONTINUOUS
10
5.77548
20
-3.33569
11
5.77861
21
-3.33145
0
LINE
8
BLACK
6
CONTINUOUS
10
5.77861
20
-3.33145
11
5.78285
21
-3.32832
0
LINE
8
BLACK
6
CONTINUOUS
10
5.78285
20
-3.32832
11
5.78782
21
-3.32657
0
LINE
8
BLACK
6
CONTINUOUS
10
5.78782
20
-3.32657
11
5.79114
21
-3.32626
0
LINE
8
BLACK
6
CONTINUOUS
10
5.79114
20
-3.32626
11
5.82854
21
-3.32626
0
LINE
8
BLACK
6
CONTINUOUS
10
5.82854
20
-3.32626
11
5.83186
21
-3.32657
0
LINE
8
BLACK
6
CONTINUOUS
10
6.7756
20
-3.28312
11
6.78057
21
-3.28486
0
LINE
8
BLACK
6
CONTINUOUS
10
6.78057
20
-3.28486
11
6.78481
21
-3.28799
0
LINE
8
BLACK
6
CONTINUOUS
10
6.78481
20
-3.28799
11
6.78794
21
-3.29223
0
LINE
8
BLACK
6
CONTINUOUS
10
6.78794
20
-3.29223
11
6.78969
21
-3.2972
0
LINE
8
BLACK
6
CONTINUOUS
10
6.78969
20
-3.2972
11
6.79
21
-3.30052
0
LINE
8
BLACK
6
CONTINUOUS
10
6.79
20
-3.30052
11
6.79
21
-3.33792
0
LINE
8
BLACK
6
CONTINUOUS
10
6.79
20
-3.33792
11
6.78969
21
-3.34124
0
LINE
8
BLACK
6
CONTINUOUS
10
6.78969
20
-3.34124
11
6.78794
21
-3.34621
0
LINE
8
BLACK
6
CONTINUOUS
10
6.78794
20
-3.34621
11
6.78481
21
-3.35045
0
LINE
8
BLACK
6
CONTINUOUS
10
6.78481
20
-3.35045
11
6.78057
21
-3.35358
0
LINE
8
BLACK
6
CONTINUOUS
10
6.78057
20
-3.35358
11
6.7756
21
-3.35532
0
LINE
8
BLACK
6
CONTINUOUS
10
6.7756
20
-3.35532
11
6.77228
21
-3.35564
0
LINE
8
BLACK
6
CONTINUOUS
10
6.77228
20
-3.35564
11
6.7526
21
-3.35564
0
LINE
8
BLACK
6
CONTINUOUS
10
6.7526
20
-3.35564
11
6.74928
21
-3.35532
0
LINE
8
BLACK
6
CONTINUOUS
10
6.74928
20
-3.35532
11
6.74431
21
-3.35358
0
LINE
8
BLACK
6
CONTINUOUS
10
6.74431
20
-3.35358
11
6.74007
21
-3.35045
0
LINE
8
BLACK
6
CONTINUOUS
10
6.74007
20
-3.35045
11
6.73694
21
-3.34621
0
LINE
8
BLACK
6
CONTINUOUS
10
6.73694
20
-3.34621
11
6.7352
21
-3.34124
0
LINE
8
BLACK
6
CONTINUOUS
10
6.7352
20
-3.34124
11
6.73488
21
-3.33792
0
LINE
8
BLACK
6
CONTINUOUS
10
6.73488
20
-3.33792
11
6.73488
21
-3.30052
0
LINE
8
BLACK
6
CONTINUOUS
10
6.73488
20
-3.30052
11
6.7352
21
-3.2972
0
LINE
8
BLACK
6
CONTINUOUS
10
6.7352
20
-3.2972
11
6.73694
21
-3.29223
0
LINE
8
BLACK
6
CONTINUOUS
10
6.73694
20
-3.29223
11
6.74007
21
-3.28799
0
LINE
8
BLACK
6
CONTINUOUS
10
6.74007
20
-3.28799
11
6.74431
21
-3.28486
0
LINE
8
BLACK
6
CONTINUOUS
10
6.74431
20
-3.28486
11
6.74928
21
-3.28312
0
LINE
8
BLACK
6
CONTINUOUS
10
6.74928
20
-3.28312
11
6.7526
21
-3.2828
0
LINE
8
BLACK
6
CONTINUOUS
10
6.7526
20
-3.2828
11
6.77228
21
-3.2828
0
LINE
8
BLACK
6
CONTINUOUS
10
6.77228
20
-3.2828
11
6.7756
21
-3.28312
0
LINE
8
BLACK
6
CONTINUOUS
10
6.85041
20
-3.28312
11
6.85538
21
-3.28486
0
LINE
8
BLACK
6
CONTINUOUS
10
6.85538
20
-3.28486
11
6.85961
21
-3.28799
0
LINE
8
BLACK
6
CONTINUOUS
10
6.85961
20
-3.28799
11
6.86274
21
-3.29223
0
LINE
8
BLACK
6
CONTINUOUS
10
6.86274
20
-3.29223
11
6.86449
21
-3.2972
0
LINE
8
BLACK
6
CONTINUOUS
10
6.86449
20
-3.2972
11
6.8648
21
-3.30052
0
LINE
8
BLACK
6
CONTINUOUS
10
6.8648
20
-3.30052
11
6.8648
21
-3.33792
0
LINE
8
BLACK
6
CONTINUOUS
10
6.8648
20
-3.33792
11
6.86449
21
-3.34124
0
LINE
8
BLACK
6
CONTINUOUS
10
6.86449
20
-3.34124
11
6.86274
21
-3.34621
0
LINE
8
BLACK
6
CONTINUOUS
10
6.86274
20
-3.34621
11
6.85961
21
-3.35045
0
LINE
8
BLACK
6
CONTINUOUS
10
6.85961
20
-3.35045
11
6.85538
21
-3.35358
0
LINE
8
BLACK
6
CONTINUOUS
10
6.85538
20
-3.35358
11
6.85041
21
-3.35532
0
LINE
8
BLACK
6
CONTINUOUS
10
6.85041
20
-3.35532
11
6.84709
21
-3.35564
0
LINE
8
BLACK
6
CONTINUOUS
10
6.84709
20
-3.35564
11
6.8274
21
-3.35564
0
LINE
8
BLACK
6
CONTINUOUS
10
6.8274
20
-3.35564
11
6.82408
21
-3.35532
0
LINE
8
BLACK
6
CONTINUOUS
10
6.82408
20
-3.35532
11
6.81911
21
-3.35358
0
LINE
8
BLACK
6
CONTINUOUS
10
6.81911
20
-3.35358
11
6.81487
21
-3.35045
0
LINE
8
BLACK
6
CONTINUOUS
10
6.81487
20
-3.35045
11
6.81174
21
-3.34621
0
LINE
8
BLACK
6
CONTINUOUS
10
6.81174
20
-3.34621
11
6.81
21
-3.34124
0
LINE
8
BLACK
6
CONTINUOUS
10
6.81
20
-3.34124
11
6.80969
21
-3.33792
0
LINE
8
BLACK
6
CONTINUOUS
10
6.80969
20
-3.33792
11
6.80969
21
-3.30052
0
LINE
8
BLACK
6
CONTINUOUS
10
6.80969
20
-3.30052
11
6.81
21
-3.2972
0
LINE
8
BLACK
6
CONTINUOUS
10
6.81
20
-3.2972
11
6.81174
21
-3.29223
0
LINE
8
BLACK
6
CONTINUOUS
10
6.81174
20
-3.29223
11
6.81487
21
-3.28799
0
LINE
8
BLACK
6
CONTINUOUS
10
6.81487
20
-3.28799
11
6.81911
21
-3.28486
0
LINE
8
BLACK
6
CONTINUOUS
10
6.81911
20
-3.28486
11
6.82408
21
-3.28312
0
LINE
8
BLACK
6
CONTINUOUS
10
6.82408
20
-3.28312
11
6.8274
21
-3.2828
0
LINE
8
BLACK
6
CONTINUOUS
10
6.8274
20
-3.2828
11
6.84709
21
-3.2828
0
LINE
8
BLACK
6
CONTINUOUS
10
6.84709
20
-3.2828
11
6.85041
21
-3.28312
0
LINE
8
BLACK
6
CONTINUOUS
10
5.69586
20
-3.30007
11
5.70083
21
-3.30182
0
LINE
8
BLACK
6
CONTINUOUS
10
5.70083
20
-3.30182
11
5.70507
21
-3.30495
0
LINE
8
BLACK
6
CONTINUOUS
10
5.70507
20
-3.30495
11
5.7082
21
-3.30919
0
LINE
8
BLACK
6
CONTINUOUS
10
5.7082
20
-3.30919
11
5.70995
21
-3.31416
0
LINE
8
BLACK
6
CONTINUOUS
10
5.70995
20
-3.31416
11
5.71026
21
-3.31748
0
LINE
8
BLACK
6
CONTINUOUS
10
5.71026
20
-3.31748
11
5.71026
21
-3.33716
0
LINE
8
BLACK
6
CONTINUOUS
10
5.71026
20
-3.33716
11
5.70995
21
-3.34048
0
LINE
8
BLACK
6
CONTINUOUS
10
5.70995
20
-3.34048
11
5.7082
21
-3.34545
0
LINE
8
BLACK
6
CONTINUOUS
10
5.7082
20
-3.34545
11
5.70507
21
-3.34969
0
LINE
8
BLACK
6
CONTINUOUS
10
5.70507
20
-3.34969
11
5.70083
21
-3.35282
0
LINE
8
BLACK
6
CONTINUOUS
10
5.70083
20
-3.35282
11
5.69586
21
-3.35456
0
LINE
8
BLACK
6
CONTINUOUS
10
5.69586
20
-3.35456
11
5.69254
21
-3.35488
0
LINE
8
BLACK
6
CONTINUOUS
10
5.69254
20
-3.35488
11
5.65514
21
-3.35488
0
LINE
8
BLACK
6
CONTINUOUS
10
5.65514
20
-3.35488
11
5.65182
21
-3.35456
0
LINE
8
BLACK
6
CONTINUOUS
10
5.65182
20
-3.35456
11
5.64685
21
-3.35282
0
LINE
8
BLACK
6
CONTINUOUS
10
5.64685
20
-3.35282
11
5.64261
21
-3.34969
0
LINE
8
BLACK
6
CONTINUOUS
10
5.64261
20
-3.34969
11
5.63948
21
-3.34545
0
LINE
8
BLACK
6
CONTINUOUS
10
5.63948
20
-3.34545
11
5.63774
21
-3.34048
0
LINE
8
BLACK
6
CONTINUOUS
10
5.63774
20
-3.34048
11
5.63743
21
-3.33716
0
LINE
8
BLACK
6
CONTINUOUS
10
5.63743
20
-3.33716
11
5.63743
21
-3.31748
0
LINE
8
BLACK
6
CONTINUOUS
10
5.63743
20
-3.31748
11
5.63774
21
-3.31416
0
LINE
8
BLACK
6
CONTINUOUS
10
5.63774
20
-3.31416
11
5.63948
21
-3.30919
0
LINE
8
BLACK
6
CONTINUOUS
10
5.63948
20
-3.30919
11
5.64261
21
-3.30495
0
LINE
8
BLACK
6
CONTINUOUS
10
5.64261
20
-3.30495
11
5.64685
21
-3.30182
0
LINE
8
BLACK
6
CONTINUOUS
10
5.64685
20
-3.30182
11
5.65182
21
-3.30007
0
LINE
8
BLACK
6
CONTINUOUS
10
5.65182
20
-3.30007
11
5.65514
21
-3.29976
0
LINE
8
BLACK
6
CONTINUOUS
10
5.65514
20
-3.29976
11
5.69254
21
-3.29976
0
LINE
8
BLACK
6
CONTINUOUS
10
5.69254
20
-3.29976
11
5.69586
21
-3.30007
0
LINE
8
BLACK
6
CONTINUOUS
10
6.71386
20
-3.29357
11
6.71883
21
-3.29532
0
LINE
8
BLACK
6
CONTINUOUS
10
6.71883
20
-3.29532
11
6.72307
21
-3.29845
0
LINE
8
BLACK
6
CONTINUOUS
10
6.72307
20
-3.29845
11
6.7262
21
-3.30269
0
LINE
8
BLACK
6
CONTINUOUS
10
6.7262
20
-3.30269
11
6.72795
21
-3.30766
0
LINE
8
BLACK
6
CONTINUOUS
10
6.72795
20
-3.30766
11
6.72826
21
-3.31098
0
LINE
8
BLACK
6
CONTINUOUS
10
6.72826
20
-3.31098
11
6.72826
21
-3.33066
0
LINE
8
BLACK
6
CONTINUOUS
10
6.72826
20
-3.33066
11
6.72795
21
-3.33398
0
LINE
8
BLACK
6
CONTINUOUS
10
6.72795
20
-3.33398
11
6.7262
21
-3.33895
0
LINE
8
BLACK
6
CONTINUOUS
10
6.7262
20
-3.33895
11
6.72307
21
-3.34319
0
LINE
8
BLACK
6
CONTINUOUS
10
6.72307
20
-3.34319
11
6.71883
21
-3.34632
0
LINE
8
BLACK
6
CONTINUOUS
10
6.71883
20
-3.34632
11
6.71386
21
-3.34806
0
LINE
8
BLACK
6
CONTINUOUS
10
6.71386
20
-3.34806
11
6.71054
21
-3.34838
0
LINE
8
BLACK
6
CONTINUOUS
10
6.71054
20
-3.34838
11
6.67314
21
-3.34838
0
LINE
8
BLACK
6
CONTINUOUS
10
6.67314
20
-3.34838
11
6.66982
21
-3.34806
0
LINE
8
BLACK
6
CONTINUOUS
10
6.66982
20
-3.34806
11
6.66485
21
-3.34632
0
LINE
8
BLACK
6
CONTINUOUS
10
6.66485
20
-3.34632
11
6.66061
21
-3.34319
0
LINE
8
BLACK
6
CONTINUOUS
10
6.66061
20
-3.34319
11
6.65748
21
-3.33895
0
LINE
8
BLACK
6
CONTINUOUS
10
6.65748
20
-3.33895
11
6.65574
21
-3.33398
0
LINE
8
BLACK
6
CONTINUOUS
10
6.65574
20
-3.33398
11
6.65543
21
-3.33066
0
LINE
8
BLACK
6
CONTINUOUS
10
6.65543
20
-3.33066
11
6.65543
21
-3.31098
0
LINE
8
BLACK
6
CONTINUOUS
10
6.65543
20
-3.31098
11
6.65574
21
-3.30766
0
LINE
8
BLACK
6
CONTINUOUS
10
6.65574
20
-3.30766
11
6.65748
21
-3.30269
0
LINE
8
BLACK
6
CONTINUOUS
10
6.65748
20
-3.30269
11
6.66061
21
-3.29845
0
LINE
8
BLACK
6
CONTINUOUS
10
6.66061
20
-3.29845
11
6.66485
21
-3.29532
0
LINE
8
BLACK
6
CONTINUOUS
10
6.66485
20
-3.29532
11
6.66982
21
-3.29357
0
LINE
8
BLACK
6
CONTINUOUS
10
6.66982
20
-3.29357
11
6.67314
21
-3.29326
0
LINE
8
BLACK
6
CONTINUOUS
10
6.67314
20
-3.29326
11
6.71054
21
-3.29326
0
LINE
8
BLACK
6
CONTINUOUS
10
6.71054
20
-3.29326
11
6.71386
21
-3.29357
0
LINE
8
BLACK
6
CONTINUOUS
10
5.83088
20
-3.25441
11
5.83585
21
-3.25615
0
LINE
8
BLACK
6
CONTINUOUS
10
5.83585
20
-3.25615
11
5.84009
21
-3.25928
0
LINE
8
BLACK
6
CONTINUOUS
10
5.84009
20
-3.25928
11
5.84322
21
-3.26352
0
LINE
8
BLACK
6
CONTINUOUS
10
5.84322
20
-3.26352
11
5.84496
21
-3.26849
0
LINE
8
BLACK
6
CONTINUOUS
10
5.84496
20
-3.26849
11
5.84528
21
-3.27181
0
LINE
8
BLACK
6
CONTINUOUS
10
5.84528
20
-3.27181
11
5.84528
21
-3.29248
0
LINE
8
BLACK
6
CONTINUOUS
10
5.84528
20
-3.29248
11
5.84496
21
-3.2958
0
LINE
8
BLACK
6
CONTINUOUS
10
5.84496
20
-3.2958
11
5.84322
21
-3.30077
0
LINE
8
BLACK
6
CONTINUOUS
10
5.84322
20
-3.30077
11
5.84009
21
-3.30501
0
LINE
8
BLACK
6
CONTINUOUS
10
5.84009
20
-3.30501
11
5.83585
21
-3.30814
0
LINE
8
BLACK
6
CONTINUOUS
10
5.83585
20
-3.30814
11
5.83088
21
-3.30988
0
LINE
8
BLACK
6
CONTINUOUS
10
5.83088
20
-3.30988
11
5.82756
21
-3.3102
0
LINE
8
BLACK
6
CONTINUOUS
10
5.82756
20
-3.3102
11
5.79213
21
-3.3102
0
LINE
8
BLACK
6
CONTINUOUS
10
5.79213
20
-3.3102
11
5.78881
21
-3.30988
0
LINE
8
BLACK
6
CONTINUOUS
10
5.78881
20
-3.30988
11
5.78384
21
-3.30814
0
LINE
8
BLACK
6
CONTINUOUS
10
5.78384
20
-3.30814
11
5.7796
21
-3.30501
0
LINE
8
BLACK
6
CONTINUOUS
10
5.7796
20
-3.30501
11
5.77647
21
-3.30077
0
LINE
8
BLACK
6
CONTINUOUS
10
5.77647
20
-3.30077
11
5.77472
21
-3.2958
0
LINE
8
BLACK
6
CONTINUOUS
10
5.77472
20
-3.2958
11
5.77441
21
-3.29248
0
LINE
8
BLACK
6
CONTINUOUS
10
5.77441
20
-3.29248
11
5.77441
21
-3.27181
0
LINE
8
BLACK
6
CONTINUOUS
10
5.77441
20
-3.27181
11
5.77472
21
-3.26849
0
LINE
8
BLACK
6
CONTINUOUS
10
5.77472
20
-3.26849
11
5.77647
21
-3.26352
0
LINE
8
BLACK
6
CONTINUOUS
10
5.77647
20
-3.26352
11
5.7796
21
-3.25928
0
LINE
8
BLACK
6
CONTINUOUS
10
5.7796
20
-3.25928
11
5.78384
21
-3.25615
0
LINE
8
BLACK
6
CONTINUOUS
10
5.78384
20
-3.25615
11
5.78881
21
-3.25441
0
LINE
8
BLACK
6
CONTINUOUS
10
5.78881
20
-3.25441
11
5.79213
21
-3.25409
0
LINE
8
BLACK
6
CONTINUOUS
10
5.79213
20
-3.25409
11
5.82756
21
-3.25409
0
LINE
8
BLACK
6
CONTINUOUS
10
5.82756
20
-3.25409
11
5.83088
21
-3.25441
0
LINE
8
BLACK
6
CONTINUOUS
10
6.27286
20
-3.23395
11
6.27541
21
-3.23565
0
LINE
8
BLACK
6
CONTINUOUS
10
6.27541
20
-3.23565
11
6.27712
21
-3.23821
0
LINE
8
BLACK
6
CONTINUOUS
10
6.27712
20
-3.23821
11
6.27772
21
-3.24122
0
LINE
8
BLACK
6
CONTINUOUS
10
6.27772
20
-3.24122
11
6.27772
21
-3.30122
0
LINE
8
BLACK
6
CONTINUOUS
10
6.27772
20
-3.30122
11
6.27712
21
-3.30423
0
LINE
8
BLACK
6
CONTINUOUS
10
6.27712
20
-3.30423
11
6.27541
21
-3.30679
0
LINE
8
BLACK
6
CONTINUOUS
10
6.27541
20
-3.30679
11
6.27286
21
-3.3085
0
LINE
8
BLACK
6
CONTINUOUS
10
6.27286
20
-3.3085
11
6.26984
21
-3.30909
0
LINE
8
BLACK
6
CONTINUOUS
10
6.26984
20
-3.30909
11
6.20984
21
-3.30909
0
LINE
8
BLACK
6
CONTINUOUS
10
6.20984
20
-3.30909
11
6.20683
21
-3.3085
0
LINE
8
BLACK
6
CONTINUOUS
10
6.20683
20
-3.3085
11
6.20427
21
-3.30679
0
LINE
8
BLACK
6
CONTINUOUS
10
6.20427
20
-3.30679
11
6.20257
21
-3.30423
0
LINE
8
BLACK
6
CONTINUOUS
10
6.20257
20
-3.30423
11
6.20197
21
-3.30122
0
LINE
8
BLACK
6
CONTINUOUS
10
6.20197
20
-3.30122
11
6.20197
21
-3.24122
0
LINE
8
BLACK
6
CONTINUOUS
10
6.20197
20
-3.24122
11
6.20257
21
-3.23821
0
LINE
8
BLACK
6
CONTINUOUS
10
6.20257
20
-3.23821
11
6.20427
21
-3.23565
0
LINE
8
BLACK
6
CONTINUOUS
10
6.20427
20
-3.23565
11
6.20683
21
-3.23395
0
LINE
8
BLACK
6
CONTINUOUS
10
6.20683
20
-3.23395
11
6.20984
21
-3.23335
0
LINE
8
BLACK
6
CONTINUOUS
10
6.20984
20
-3.23335
11
6.26984
21
-3.23335
0
LINE
8
BLACK
6
CONTINUOUS
10
6.26984
20
-3.23335
11
6.27286
21
-3.23395
0
LINE
8
BLACK
6
CONTINUOUS
10
6.61786
20
-3.24145
11
6.62041
21
-3.24315
0
LINE
8
BLACK
6
CONTINUOUS
10
6.62041
20
-3.24315
11
6.62212
21
-3.24571
0
LINE
8
BLACK
6
CONTINUOUS
10
6.62212
20
-3.24571
11
6.62272
21
-3.24872
0
LINE
8
BLACK
6
CONTINUOUS
10
6.62272
20
-3.24872
11
6.62272
21
-3.29372
0
LINE
8
BLACK
6
CONTINUOUS
10
6.62272
20
-3.29372
11
6.62212
21
-3.29673
0
LINE
8
BLACK
6
CONTINUOUS
10
6.62212
20
-3.29673
11
6.62041
21
-3.29929
0
LINE
8
BLACK
6
CONTINUOUS
10
6.62041
20
-3.29929
11
6.61786
21
-3.301
0
LINE
8
BLACK
6
CONTINUOUS
10
6.61786
20
-3.301
11
6.61484
21
-3.30159
0
LINE
8
BLACK
6
CONTINUOUS
10
6.61484
20
-3.30159
11
6.59484
21
-3.30159
0
LINE
8
BLACK
6
CONTINUOUS
10
6.59484
20
-3.30159
11
6.59183
21
-3.301
0
LINE
8
BLACK
6
CONTINUOUS
10
6.59183
20
-3.301
11
6.58927
21
-3.29929
0
LINE
8
BLACK
6
CONTINUOUS
10
6.58927
20
-3.29929
11
6.58757
21
-3.29673
0
LINE
8
BLACK
6
CONTINUOUS
10
6.58757
20
-3.29673
11
6.58697
21
-3.29372
0
LINE
8
BLACK
6
CONTINUOUS
10
6.58697
20
-3.29372
11
6.58697
21
-3.24872
0
LINE
8
BLACK
6
CONTINUOUS
10
6.58697
20
-3.24872
11
6.58757
21
-3.24571
0
LINE
8
BLACK
6
CONTINUOUS
10
6.58757
20
-3.24571
11
6.58927
21
-3.24315
0
LINE
8
BLACK
6
CONTINUOUS
10
6.58927
20
-3.24315
11
6.59183
21
-3.24145
0
LINE
8
BLACK
6
CONTINUOUS
10
6.59183
20
-3.24145
11
6.59484
21
-3.24085
0
LINE
8
BLACK
6
CONTINUOUS
10
6.59484
20
-3.24085
11
6.61484
21
-3.24085
0
LINE
8
BLACK
6
CONTINUOUS
10
6.61484
20
-3.24085
11
6.61786
21
-3.24145
0
LINE
8
BLACK
6
CONTINUOUS
10
6.56786
20
-3.24145
11
6.57041
21
-3.24315
0
LINE
8
BLACK
6
CONTINUOUS
10
6.57041
20
-3.24315
11
6.57212
21
-3.24571
0
LINE
8
BLACK
6
CONTINUOUS
10
6.57212
20
-3.24571
11
6.57272
21
-3.24872
0
LINE
8
BLACK
6
CONTINUOUS
10
6.57272
20
-3.24872
11
6.57272
21
-3.29372
0
LINE
8
BLACK
6
CONTINUOUS
10
6.57272
20
-3.29372
11
6.57212
21
-3.29673
0
LINE
8
BLACK
6
CONTINUOUS
10
6.57212
20
-3.29673
11
6.57041
21
-3.29929
0
LINE
8
BLACK
6
CONTINUOUS
10
6.57041
20
-3.29929
11
6.56786
21
-3.301
0
LINE
8
BLACK
6
CONTINUOUS
10
6.56786
20
-3.301
11
6.56484
21
-3.30159
0
LINE
8
BLACK
6
CONTINUOUS
10
6.56484
20
-3.30159
11
6.54484
21
-3.30159
0
LINE
8
BLACK
6
CONTINUOUS
10
6.54484
20
-3.30159
11
6.54183
21
-3.301
0
LINE
8
BLACK
6
CONTINUOUS
10
6.54183
20
-3.301
11
6.53927
21
-3.29929
0
LINE
8
BLACK
6
CONTINUOUS
10
6.53927
20
-3.29929
11
6.53757
21
-3.29673
0
LINE
8
BLACK
6
CONTINUOUS
10
6.53757
20
-3.29673
11
6.53697
21
-3.29372
0
LINE
8
BLACK
6
CONTINUOUS
10
6.53697
20
-3.29372
11
6.53697
21
-3.24872
0
LINE
8
BLACK
6
CONTINUOUS
10
6.53697
20
-3.24872
11
6.53757
21
-3.24571
0
LINE
8
BLACK
6
CONTINUOUS
10
6.53757
20
-3.24571
11
6.53927
21
-3.24315
0
LINE
8
BLACK
6
CONTINUOUS
10
6.53927
20
-3.24315
11
6.54183
21
-3.24145
0
LINE
8
BLACK
6
CONTINUOUS
10
6.54183
20
-3.24145
11
6.54484
21
-3.24085
0
LINE
8
BLACK
6
CONTINUOUS
10
6.54484
20
-3.24085
11
6.56484
21
-3.24085
0
LINE
8
BLACK
6
CONTINUOUS
10
6.56484
20
-3.24085
11
6.56786
21
-3.24145
0
LINE
8
BLACK
6
CONTINUOUS
10
6.51786
20
-3.24145
11
6.52041
21
-3.24315
0
LINE
8
BLACK
6
CONTINUOUS
10
6.52041
20
-3.24315
11
6.52212
21
-3.24571
0
LINE
8
BLACK
6
CONTINUOUS
10
6.52212
20
-3.24571
11
6.52272
21
-3.24872
0
LINE
8
BLACK
6
CONTINUOUS
10
6.52272
20
-3.24872
11
6.52272
21
-3.29372
0
LINE
8
BLACK
6
CONTINUOUS
10
6.52272
20
-3.29372
11
6.52212
21
-3.29673
0
LINE
8
BLACK
6
CONTINUOUS
10
6.52212
20
-3.29673
11
6.52041
21
-3.29929
0
LINE
8
BLACK
6
CONTINUOUS
10
6.52041
20
-3.29929
11
6.51786
21
-3.301
0
LINE
8
BLACK
6
CONTINUOUS
10
6.51786
20
-3.301
11
6.51484
21
-3.30159
0
LINE
8
BLACK
6
CONTINUOUS
10
6.51484
20
-3.30159
11
6.49484
21
-3.30159
0
LINE
8
BLACK
6
CONTINUOUS
10
6.49484
20
-3.30159
11
6.49183
21
-3.301
0
LINE
8
BLACK
6
CONTINUOUS
10
6.49183
20
-3.301
11
6.48927
21
-3.29929
0
LINE
8
BLACK
6
CONTINUOUS
10
6.48927
20
-3.29929
11
6.48757
21
-3.29673
0
LINE
8
BLACK
6
CONTINUOUS
10
6.48757
20
-3.29673
11
6.48697
21
-3.29372
0
LINE
8
BLACK
6
CONTINUOUS
10
6.48697
20
-3.29372
11
6.48697
21
-3.24872
0
LINE
8
BLACK
6
CONTINUOUS
10
6.48697
20
-3.24872
11
6.48757
21
-3.24571
0
LINE
8
BLACK
6
CONTINUOUS
10
6.48757
20
-3.24571
11
6.48927
21
-3.24315
0
LINE
8
BLACK
6
CONTINUOUS
10
6.48927
20
-3.24315
11
6.49183
21
-3.24145
0
LINE
8
BLACK
6
CONTINUOUS
10
6.49183
20
-3.24145
11
6.49484
21
-3.24085
0
LINE
8
BLACK
6
CONTINUOUS
10
6.49484
20
-3.24085
11
6.51484
21
-3.24085
0
LINE
8
BLACK
6
CONTINUOUS
10
6.51484
20
-3.24085
11
6.51786
21
-3.24145
0
LINE
8
BLACK
6
CONTINUOUS
10
6.46786
20
-3.24145
11
6.47041
21
-3.24315
0
LINE
8
BLACK
6
CONTINUOUS
10
6.47041
20
-3.24315
11
6.47212
21
-3.24571
0
LINE
8
BLACK
6
CONTINUOUS
10
6.47212
20
-3.24571
11
6.47272
21
-3.24872
0
LINE
8
BLACK
6
CONTINUOUS
10
6.47272
20
-3.24872
11
6.47272
21
-3.29372
0
LINE
8
BLACK
6
CONTINUOUS
10
6.47272
20
-3.29372
11
6.47212
21
-3.29673
0
LINE
8
BLACK
6
CONTINUOUS
10
6.47212
20
-3.29673
11
6.47041
21
-3.29929
0
LINE
8
BLACK
6
CONTINUOUS
10
6.47041
20
-3.29929
11
6.46786
21
-3.301
0
LINE
8
BLACK
6
CONTINUOUS
10
6.46786
20
-3.301
11
6.46484
21
-3.30159
0
LINE
8
BLACK
6
CONTINUOUS
10
6.46484
20
-3.30159
11
6.44484
21
-3.30159
0
LINE
8
BLACK
6
CONTINUOUS
10
6.44484
20
-3.30159
11
6.44183
21
-3.301
0
LINE
8
BLACK
6
CONTINUOUS
10
6.44183
20
-3.301
11
6.43927
21
-3.29929
0
LINE
8
BLACK
6
CONTINUOUS
10
6.43927
20
-3.29929
11
6.43757
21
-3.29673
0
LINE
8
BLACK
6
CONTINUOUS
10
6.43757
20
-3.29673
11
6.43697
21
-3.29372
0
LINE
8
BLACK
6
CONTINUOUS
10
6.43697
20
-3.29372
11
6.43697
21
-3.24872
0
LINE
8
BLACK
6
CONTINUOUS
10
6.43697
20
-3.24872
11
6.43757
21
-3.24571
0
LINE
8
BLACK
6
CONTINUOUS
10
6.43757
20
-3.24571
11
6.43927
21
-3.24315
0
LINE
8
BLACK
6
CONTINUOUS
10
6.43927
20
-3.24315
11
6.44183
21
-3.24145
0
LINE
8
BLACK
6
CONTINUOUS
10
6.44183
20
-3.24145
11
6.44484
21
-3.24085
0
LINE
8
BLACK
6
CONTINUOUS
10
6.44484
20
-3.24085
11
6.46484
21
-3.24085
0
LINE
8
BLACK
6
CONTINUOUS
10
6.46484
20
-3.24085
11
6.46786
21
-3.24145
0
LINE
8
BLACK
6
CONTINUOUS
10
6.82686
20
-3.20638
11
6.83183
21
-3.20812
0
LINE
8
BLACK
6
CONTINUOUS
10
6.83183
20
-3.20812
11
6.83607
21
-3.21125
0
LINE
8
BLACK
6
CONTINUOUS
10
6.83607
20
-3.21125
11
6.8392
21
-3.21549
0
LINE
8
BLACK
6
CONTINUOUS
10
6.8392
20
-3.21549
11
6.84095
21
-3.22046
0
LINE
8
BLACK
6
CONTINUOUS
10
6.84095
20
-3.22046
11
6.84126
21
-3.22378
0
LINE
8
BLACK
6
CONTINUOUS
10
6.84126
20
-3.22378
11
6.84126
21
-3.24346
0
LINE
8
BLACK
6
CONTINUOUS
10
6.84126
20
-3.24346
11
6.84095
21
-3.24678
0
LINE
8
BLACK
6
CONTINUOUS
10
6.84095
20
-3.24678
11
6.8392
21
-3.25175
0
LINE
8
BLACK
6
CONTINUOUS
10
6.8392
20
-3.25175
11
6.83607
21
-3.25599
0
LINE
8
BLACK
6
CONTINUOUS
10
6.83607
20
-3.25599
11
6.83183
21
-3.25912
0
LINE
8
BLACK
6
CONTINUOUS
10
6.83183
20
-3.25912
11
6.82686
21
-3.26087
0
LINE
8
BLACK
6
CONTINUOUS
10
6.82686
20
-3.26087
11
6.82354
21
-3.26118
0
LINE
8
BLACK
6
CONTINUOUS
10
6.82354
20
-3.26118
11
6.78614
21
-3.26118
0
LINE
8
BLACK
6
CONTINUOUS
10
6.78614
20
-3.26118
11
6.78282
21
-3.26087
0
LINE
8
BLACK
6
CONTINUOUS
10
6.78282
20
-3.26087
11
6.77785
21
-3.25912
0
LINE
8
BLACK
6
CONTINUOUS
10
6.77785
20
-3.25912
11
6.77361
21
-3.25599
0
LINE
8
BLACK
6
CONTINUOUS
10
6.77361
20
-3.25599
11
6.77048
21
-3.25175
0
LINE
8
BLACK
6
CONTINUOUS
10
6.77048
20
-3.25175
11
6.76874
21
-3.24678
0
LINE
8
BLACK
6
CONTINUOUS
10
6.76874
20
-3.24678
11
6.76843
21
-3.24346
0
LINE
8
BLACK
6
CONTINUOUS
10
6.76843
20
-3.24346
11
6.76843
21
-3.22378
0
LINE
8
BLACK
6
CONTINUOUS
10
6.76843
20
-3.22378
11
6.76874
21
-3.22046
0
LINE
8
BLACK
6
CONTINUOUS
10
6.76874
20
-3.22046
11
6.77048
21
-3.21549
0
LINE
8
BLACK
6
CONTINUOUS
10
6.77048
20
-3.21549
11
6.77361
21
-3.21125
0
LINE
8
BLACK
6
CONTINUOUS
10
6.77361
20
-3.21125
11
6.77785
21
-3.20812
0
LINE
8
BLACK
6
CONTINUOUS
10
6.77785
20
-3.20812
11
6.78282
21
-3.20638
0
LINE
8
BLACK
6
CONTINUOUS
10
6.78282
20
-3.20638
11
6.78614
21
-3.20606
0
LINE
8
BLACK
6
CONTINUOUS
10
6.78614
20
-3.20606
11
6.82354
21
-3.20606
0
LINE
8
BLACK
6
CONTINUOUS
10
6.82354
20
-3.20606
11
6.82686
21
-3.20638
0
LINE
8
BLACK
6
CONTINUOUS
10
6.72686
20
-3.20638
11
6.73183
21
-3.20812
0
LINE
8
BLACK
6
CONTINUOUS
10
6.73183
20
-3.20812
11
6.73607
21
-3.21125
0
LINE
8
BLACK
6
CONTINUOUS
10
6.73607
20
-3.21125
11
6.7392
21
-3.21549
0
LINE
8
BLACK
6
CONTINUOUS
10
6.7392
20
-3.21549
11
6.74095
21
-3.22046
0
LINE
8
BLACK
6
CONTINUOUS
10
6.74095
20
-3.22046
11
6.74126
21
-3.22378
0
LINE
8
BLACK
6
CONTINUOUS
10
6.74126
20
-3.22378
11
6.74126
21
-3.24346
0
LINE
8
BLACK
6
CONTINUOUS
10
6.74126
20
-3.24346
11
6.74095
21
-3.24678
0
LINE
8
BLACK
6
CONTINUOUS
10
6.74095
20
-3.24678
11
6.7392
21
-3.25175
0
LINE
8
BLACK
6
CONTINUOUS
10
6.7392
20
-3.25175
11
6.73607
21
-3.25599
0
LINE
8
BLACK
6
CONTINUOUS
10
6.73607
20
-3.25599
11
6.73183
21
-3.25912
0
LINE
8
BLACK
6
CONTINUOUS
10
6.73183
20
-3.25912
11
6.72686
21
-3.26087
0
LINE
8
BLACK
6
CONTINUOUS
10
6.72686
20
-3.26087
11
6.72354
21
-3.26118
0
LINE
8
BLACK
6
CONTINUOUS
10
6.72354
20
-3.26118
11
6.68614
21
-3.26118
0
LINE
8
BLACK
6
CONTINUOUS
10
6.68614
20
-3.26118
11
6.68282
21
-3.26087
0
LINE
8
BLACK
6
CONTINUOUS
10
6.68282
20
-3.26087
11
6.67785
21
-3.25912
0
LINE
8
BLACK
6
CONTINUOUS
10
6.67785
20
-3.25912
11
6.67361
21
-3.25599
0
LINE
8
BLACK
6
CONTINUOUS
10
6.67361
20
-3.25599
11
6.67048
21
-3.25175
0
LINE
8
BLACK
6
CONTINUOUS
10
6.67048
20
-3.25175
11
6.66874
21
-3.24678
0
LINE
8
BLACK
6
CONTINUOUS
10
6.66874
20
-3.24678
11
6.66843
21
-3.24346
0
LINE
8
BLACK
6
CONTINUOUS
10
6.66843
20
-3.24346
11
6.66843
21
-3.22378
0
LINE
8
BLACK
6
CONTINUOUS
10
6.66843
20
-3.22378
11
6.66874
21
-3.22046
0
LINE
8
BLACK
6
CONTINUOUS
10
6.66874
20
-3.22046
11
6.67048
21
-3.21549
0
LINE
8
BLACK
6
CONTINUOUS
10
6.67048
20
-3.21549
11
6.67361
21
-3.21125
0
LINE
8
BLACK
6
CONTINUOUS
10
6.67361
20
-3.21125
11
6.67785
21
-3.20812
0
LINE
8
BLACK
6
CONTINUOUS
10
6.67785
20
-3.20812
11
6.68282
21
-3.20638
0
LINE
8
BLACK
6
CONTINUOUS
10
6.68282
20
-3.20638
11
6.68614
21
-3.20606
0
LINE
8
BLACK
6
CONTINUOUS
10
6.68614
20
-3.20606
11
6.72354
21
-3.20606
0
LINE
8
BLACK
6
CONTINUOUS
10
6.72354
20
-3.20606
11
6.72686
21
-3.20638
0
LINE
8
BLACK
6
CONTINUOUS
10
7.04476
20
-2.99612
11
7.05861
21
-2.99856
0
LINE
8
BLACK
6
CONTINUOUS
10
7.05861
20
-2.99856
11
7.0721
21
-3.00254
0
LINE
8
BLACK
6
CONTINUOUS
10
7.0721
20
-3.00254
11
7.08507
21
-3.00799
0
LINE
8
BLACK
6
CONTINUOUS
10
7.08507
20
-3.00799
11
7.09735
21
-3.01485
0
LINE
8
BLACK
6
CONTINUOUS
10
7.09735
20
-3.01485
11
7.10878
21
-3.02304
0
LINE
8
BLACK
6
CONTINUOUS
10
7.10878
20
-3.02304
11
7.11924
21
-3.03245
0
LINE
8
BLACK
6
CONTINUOUS
10
7.11924
20
-3.03245
11
7.12858
21
-3.04297
0
LINE
8
BLACK
6
CONTINUOUS
10
7.12858
20
-3.04297
11
7.13668
21
-3.05446
0
LINE
8
BLACK
6
CONTINUOUS
10
7.13668
20
-3.05446
11
7.14346
21
-3.06678
0
LINE
8
BLACK
6
CONTINUOUS
10
7.14346
20
-3.06678
11
7.14882
21
-3.07979
0
LINE
8
BLACK
6
CONTINUOUS
10
7.14882
20
-3.07979
11
7.1527
21
-3.09331
0
LINE
8
BLACK
6
CONTINUOUS
10
7.1527
20
-3.09331
11
7.15504
21
-3.10718
0
LINE
8
BLACK
6
CONTINUOUS
10
7.15504
20
-3.10718
11
7.15583
21
-3.12122
0
LINE
8
BLACK
6
CONTINUOUS
10
7.15583
20
-3.12122
11
7.15578
21
-3.12474
0
LINE
8
BLACK
6
CONTINUOUS
10
7.15578
20
-3.12474
11
7.1546
21
-3.13875
0
LINE
8
BLACK
6
CONTINUOUS
10
7.1546
20
-3.13875
11
7.15187
21
-3.15255
0
LINE
8
BLACK
6
CONTINUOUS
10
7.15187
20
-3.15255
11
7.14762
21
-3.16596
0
LINE
8
BLACK
6
CONTINUOUS
10
7.14762
20
-3.16596
11
7.14189
21
-3.17881
0
LINE
8
BLACK
6
CONTINUOUS
10
7.14189
20
-3.17881
11
7.13478
21
-3.19094
0
LINE
8
BLACK
6
CONTINUOUS
10
7.13478
20
-3.19094
11
7.12635
21
-3.2022
0
LINE
8
BLACK
6
CONTINUOUS
10
7.12635
20
-3.2022
11
7.11672
21
-3.21245
0
LINE
8
BLACK
6
CONTINUOUS
10
7.11672
20
-3.21245
11
7.10601
21
-3.22157
0
LINE
8
BLACK
6
CONTINUOUS
10
7.10601
20
-3.22157
11
7.09435
21
-3.22944
0
LINE
8
BLACK
6
CONTINUOUS
10
7.09435
20
-3.22944
11
7.08189
21
-3.23595
0
LINE
8
BLACK
6
CONTINUOUS
10
7.08189
20
-3.23595
11
7.06877
21
-3.24104
0
LINE
8
BLACK
6
CONTINUOUS
10
7.06877
20
-3.24104
11
7.05518
21
-3.24463
0
LINE
8
BLACK
6
CONTINUOUS
10
7.05518
20
-3.24463
11
7.04126
21
-3.24669
0
LINE
8
BLACK
6
CONTINUOUS
10
7.04126
20
-3.24669
11
7.0272
21
-3.24718
0
LINE
8
BLACK
6
CONTINUOUS
10
7.0272
20
-3.24718
11
7.01318
21
-3.2461
0
LINE
8
BLACK
6
CONTINUOUS
10
7.01318
20
-3.2461
11
6.99936
21
-3.24346
0
LINE
8
BLACK
6
CONTINUOUS
10
6.99936
20
-3.24346
11
6.98593
21
-3.2393
0
LINE
8
BLACK
6
CONTINUOUS
10
6.98593
20
-3.2393
11
6.97304
21
-3.23367
0
LINE
8
BLACK
6
CONTINUOUS
10
6.97304
20
-3.23367
11
6.96086
21
-3.22664
0
LINE
8
BLACK
6
CONTINUOUS
10
6.96086
20
-3.22664
11
6.94954
21
-3.21829
0
LINE
8
BLACK
6
CONTINUOUS
10
6.94954
20
-3.21829
11
6.93922
21
-3.20874
0
LINE
8
BLACK
6
CONTINUOUS
10
6.93922
20
-3.20874
11
6.93003
21
-3.19809
0
LINE
8
BLACK
6
CONTINUOUS
10
6.93003
20
-3.19809
11
6.92208
21
-3.18648
0
LINE
8
BLACK
6
CONTINUOUS
10
6.92208
20
-3.18648
11
6.91548
21
-3.17406
0
LINE
8
BLACK
6
CONTINUOUS
10
6.91548
20
-3.17406
11
6.9103
21
-3.16099
0
LINE
8
BLACK
6
CONTINUOUS
10
6.9103
20
-3.16099
11
6.90661
21
-3.14741
0
LINE
8
BLACK
6
CONTINUOUS
10
6.90661
20
-3.14741
11
6.90446
21
-3.13351
0
LINE
8
BLACK
6
CONTINUOUS
10
6.90446
20
-3.13351
11
6.90387
21
-3.11946
0
LINE
8
BLACK
6
CONTINUOUS
10
6.90387
20
-3.11946
11
6.90485
21
-3.10543
0
LINE
8
BLACK
6
CONTINUOUS
10
6.90485
20
-3.10543
11
6.90739
21
-3.0916
0
LINE
8
BLACK
6
CONTINUOUS
10
6.90739
20
-3.0916
11
6.91146
21
-3.07813
0
LINE
8
BLACK
6
CONTINUOUS
10
6.91146
20
-3.07813
11
6.917
21
-3.0652
0
LINE
8
BLACK
6
CONTINUOUS
10
6.917
20
-3.0652
11
6.92394
21
-3.05297
0
LINE
8
BLACK
6
CONTINUOUS
10
6.92394
20
-3.05297
11
6.93221
21
-3.04159
0
LINE
8
BLACK
6
CONTINUOUS
10
6.93221
20
-3.04159
11
6.9417
21
-3.03121
0
LINE
8
BLACK
6
CONTINUOUS
10
6.9417
20
-3.03121
11
6.95228
21
-3.02194
0
LINE
8
BLACK
6
CONTINUOUS
10
6.95228
20
-3.02194
11
6.96383
21
-3.01392
0
LINE
8
BLACK
6
CONTINUOUS
10
6.96383
20
-3.01392
11
6.9762
21
-3.00723
0
LINE
8
BLACK
6
CONTINUOUS
10
6.9762
20
-3.00723
11
6.98924
21
-3.00196
0
LINE
8
BLACK
6
CONTINUOUS
10
6.98924
20
-3.00196
11
7.00279
21
-2.99818
0
LINE
8
BLACK
6
CONTINUOUS
10
7.00279
20
-2.99818
11
7.01667
21
-2.99593
0
LINE
8
BLACK
6
CONTINUOUS
10
7.01667
20
-2.99593
11
7.03072
21
-2.99524
0
LINE
8
BLACK
6
CONTINUOUS
10
7.03072
20
-2.99524
11
7.04476
21
-2.99612
0
LINE
8
BLACK
6
CONTINUOUS
10
5.44476
20
-2.99612
11
5.45861
21
-2.99856
0
LINE
8
BLACK
6
CONTINUOUS
10
5.45861
20
-2.99856
11
5.4721
21
-3.00254
0
LINE
8
BLACK
6
CONTINUOUS
10
5.4721
20
-3.00254
11
5.48507
21
-3.00799
0
LINE
8
BLACK
6
CONTINUOUS
10
5.48507
20
-3.00799
11
5.49735
21
-3.01485
0
LINE
8
BLACK
6
CONTINUOUS
10
5.49735
20
-3.01485
11
5.50878
21
-3.02304
0
LINE
8
BLACK
6
CONTINUOUS
10
5.50878
20
-3.02304
11
5.51924
21
-3.03245
0
LINE
8
BLACK
6
CONTINUOUS
10
5.51924
20
-3.03245
11
5.52858
21
-3.04297
0
LINE
8
BLACK
6
CONTINUOUS
10
5.52858
20
-3.04297
11
5.53668
21
-3.05446
0
LINE
8
BLACK
6
CONTINUOUS
10
5.53668
20
-3.05446
11
5.54346
21
-3.06678
0
LINE
8
BLACK
6
CONTINUOUS
10
5.54346
20
-3.06678
11
5.54882
21
-3.07979
0
LINE
8
BLACK
6
CONTINUOUS
10
5.54882
20
-3.07979
11
5.5527
21
-3.09331
0
LINE
8
BLACK
6
CONTINUOUS
10
5.5527
20
-3.09331
11
5.55504
21
-3.10718
0
LINE
8
BLACK
6
CONTINUOUS
10
5.55504
20
-3.10718
11
5.55583
21
-3.12122
0
LINE
8
BLACK
6
CONTINUOUS
10
5.55583
20
-3.12122
11
5.55578
21
-3.12474
0
LINE
8
BLACK
6
CONTINUOUS
10
5.55578
20
-3.12474
11
5.5546
21
-3.13875
0
LINE
8
BLACK
6
CONTINUOUS
10
5.5546
20
-3.13875
11
5.55187
21
-3.15255
0
LINE
8
BLACK
6
CONTINUOUS
10
5.55187
20
-3.15255
11
5.54762
21
-3.16596
0
LINE
8
BLACK
6
CONTINUOUS
10
5.54762
20
-3.16596
11
5.54189
21
-3.17881
0
LINE
8
BLACK
6
CONTINUOUS
10
5.54189
20
-3.17881
11
5.53478
21
-3.19094
0
LINE
8
BLACK
6
CONTINUOUS
10
5.53478
20
-3.19094
11
5.52635
21
-3.2022
0
LINE
8
BLACK
6
CONTINUOUS
10
5.52635
20
-3.2022
11
5.51672
21
-3.21245
0
LINE
8
BLACK
6
CONTINUOUS
10
5.51672
20
-3.21245
11
5.50601
21
-3.22157
0
LINE
8
BLACK
6
CONTINUOUS
10
5.50601
20
-3.22157
11
5.49435
21
-3.22944
0
LINE
8
BLACK
6
CONTINUOUS
10
5.49435
20
-3.22944
11
5.48189
21
-3.23595
0
LINE
8
BLACK
6
CONTINUOUS
10
5.48189
20
-3.23595
11
5.46877
21
-3.24104
0
LINE
8
BLACK
6
CONTINUOUS
10
5.46877
20
-3.24104
11
5.45518
21
-3.24463
0
LINE
8
BLACK
6
CONTINUOUS
10
5.45518
20
-3.24463
11
5.44126
21
-3.24669
0
LINE
8
BLACK
6
CONTINUOUS
10
5.44126
20
-3.24669
11
5.4272
21
-3.24718
0
LINE
8
BLACK
6
CONTINUOUS
10
5.4272
20
-3.24718
11
5.41318
21
-3.2461
0
LINE
8
BLACK
6
CONTINUOUS
10
5.41318
20
-3.2461
11
5.39936
21
-3.24346
0
LINE
8
BLACK
6
CONTINUOUS
10
5.39936
20
-3.24346
11
5.38593
21
-3.2393
0
LINE
8
BLACK
6
CONTINUOUS
10
5.38593
20
-3.2393
11
5.37304
21
-3.23367
0
LINE
8
BLACK
6
CONTINUOUS
10
5.37304
20
-3.23367
11
5.36086
21
-3.22664
0
LINE
8
BLACK
6
CONTINUOUS
10
5.36086
20
-3.22664
11
5.34954
21
-3.21829
0
LINE
8
BLACK
6
CONTINUOUS
10
5.34954
20
-3.21829
11
5.33922
21
-3.20874
0
LINE
8
BLACK
6
CONTINUOUS
10
5.33922
20
-3.20874
11
5.33003
21
-3.19809
0
LINE
8
BLACK
6
CONTINUOUS
10
5.33003
20
-3.19809
11
5.32208
21
-3.18648
0
LINE
8
BLACK
6
CONTINUOUS
10
5.32208
20
-3.18648
11
5.31548
21
-3.17406
0
LINE
8
BLACK
6
CONTINUOUS
10
5.31548
20
-3.17406
11
5.3103
21
-3.16099
0
LINE
8
BLACK
6
CONTINUOUS
10
5.3103
20
-3.16099
11
5.30661
21
-3.14741
0
LINE
8
BLACK
6
CONTINUOUS
10
5.30661
20
-3.14741
11
5.30446
21
-3.13351
0
LINE
8
BLACK
6
CONTINUOUS
10
5.30446
20
-3.13351
11
5.30387
21
-3.11946
0
LINE
8
BLACK
6
CONTINUOUS
10
5.30387
20
-3.11946
11
5.30485
21
-3.10543
0
LINE
8
BLACK
6
CONTINUOUS
10
5.30485
20
-3.10543
11
5.30739
21
-3.0916
0
LINE
8
BLACK
6
CONTINUOUS
10
5.30739
20
-3.0916
11
5.31146
21
-3.07813
0
LINE
8
BLACK
6
CONTINUOUS
10
5.31146
20
-3.07813
11
5.317
21
-3.0652
0
LINE
8
BLACK
6
CONTINUOUS
10
5.317
20
-3.0652
11
5.32394
21
-3.05297
0
LINE
8
BLACK
6
CONTINUOUS
10
5.32394
20
-3.05297
11
5.33221
21
-3.04159
0
LINE
8
BLACK
6
CONTINUOUS
10
5.33221
20
-3.04159
11
5.3417
21
-3.03121
0
LINE
8
BLACK
6
CONTINUOUS
10
5.3417
20
-3.03121
11
5.35228
21
-3.02194
0
LINE
8
BLACK
6
CONTINUOUS
10
5.35228
20
-3.02194
11
5.36383
21
-3.01392
0
LINE
8
BLACK
6
CONTINUOUS
10
5.36383
20
-3.01392
11
5.3762
21
-3.00723
0
LINE
8
BLACK
6
CONTINUOUS
10
5.3762
20
-3.00723
11
5.38924
21
-3.00196
0
LINE
8
BLACK
6
CONTINUOUS
10
5.38924
20
-3.00196
11
5.40279
21
-2.99818
0
LINE
8
BLACK
6
CONTINUOUS
10
5.40279
20
-2.99818
11
5.41667
21
-2.99593
0
LINE
8
BLACK
6
CONTINUOUS
10
5.41667
20
-2.99593
11
5.43072
21
-2.99524
0
LINE
8
BLACK
6
CONTINUOUS
10
5.43072
20
-2.99524
11
5.44476
21
-2.99612
0
LINE
8
BLACK
6
CONTINUOUS
10
5.83088
20
-3.18256
11
5.83585
21
-3.1843
0
LINE
8
BLACK
6
CONTINUOUS
10
5.83585
20
-3.1843
11
5.84009
21
-3.18743
0
LINE
8
BLACK
6
CONTINUOUS
10
5.84009
20
-3.18743
11
5.84322
21
-3.19167
0
LINE
8
BLACK
6
CONTINUOUS
10
5.84322
20
-3.19167
11
5.84496
21
-3.19664
0
LINE
8
BLACK
6
CONTINUOUS
10
5.84496
20
-3.19664
11
5.84528
21
-3.19996
0
LINE
8
BLACK
6
CONTINUOUS
10
5.84528
20
-3.19996
11
5.84528
21
-3.22063
0
LINE
8
BLACK
6
CONTINUOUS
10
5.84528
20
-3.22063
11
5.84496
21
-3.22395
0
LINE
8
BLACK
6
CONTINUOUS
10
5.84496
20
-3.22395
11
5.84322
21
-3.22892
0
LINE
8
BLACK
6
CONTINUOUS
10
5.84322
20
-3.22892
11
5.84009
21
-3.23316
0
LINE
8
BLACK
6
CONTINUOUS
10
5.84009
20
-3.23316
11
5.83585
21
-3.23629
0
LINE
8
BLACK
6
CONTINUOUS
10
5.83585
20
-3.23629
11
5.83088
21
-3.23803
0
LINE
8
BLACK
6
CONTINUOUS
10
5.83088
20
-3.23803
11
5.82756
21
-3.23835
0
LINE
8
BLACK
6
CONTINUOUS
10
5.82756
20
-3.23835
11
5.79213
21
-3.23835
0
LINE
8
BLACK
6
CONTINUOUS
10
5.79213
20
-3.23835
11
5.78881
21
-3.23803
0
LINE
8
BLACK
6
CONTINUOUS
10
5.78881
20
-3.23803
11
5.78384
21
-3.23629
0
LINE
8
BLACK
6
CONTINUOUS
10
5.78384
20
-3.23629
11
5.7796
21
-3.23316
0
LINE
8
BLACK
6
CONTINUOUS
10
5.7796
20
-3.23316
11
5.77647
21
-3.22892
0
LINE
8
BLACK
6
CONTINUOUS
10
5.77647
20
-3.22892
11
5.77472
21
-3.22395
0
LINE
8
BLACK
6
CONTINUOUS
10
5.77472
20
-3.22395
11
5.77441
21
-3.22063
0
LINE
8
BLACK
6
CONTINUOUS
10
5.77441
20
-3.22063
11
5.77441
21
-3.19996
0
LINE
8
BLACK
6
CONTINUOUS
10
5.77441
20
-3.19996
11
5.77472
21
-3.19664
0
LINE
8
BLACK
6
CONTINUOUS
10
5.77472
20
-3.19664
11
5.77647
21
-3.19167
0
LINE
8
BLACK
6
CONTINUOUS
10
5.77647
20
-3.19167
11
5.7796
21
-3.18743
0
LINE
8
BLACK
6
CONTINUOUS
10
5.7796
20
-3.18743
11
5.78384
21
-3.1843
0
LINE
8
BLACK
6
CONTINUOUS
10
5.78384
20
-3.1843
11
5.78881
21
-3.18256
0
LINE
8
BLACK
6
CONTINUOUS
10
5.78881
20
-3.18256
11
5.79213
21
-3.18224
0
LINE
8
BLACK
6
CONTINUOUS
10
5.79213
20
-3.18224
11
5.82756
21
-3.18224
0
LINE
8
BLACK
6
CONTINUOUS
10
5.82756
20
-3.18224
11
5.83088
21
-3.18256
0
LINE
8
BLACK
6
CONTINUOUS
10
6.27286
20
-3.13395
11
6.27541
21
-3.13565
0
LINE
8
BLACK
6
CONTINUOUS
10
6.27541
20
-3.13565
11
6.27712
21
-3.13821
0
LINE
8
BLACK
6
CONTINUOUS
10
6.27712
20
-3.13821
11
6.27772
21
-3.14122
0
LINE
8
BLACK
6
CONTINUOUS
10
6.27772
20
-3.14122
11
6.27772
21
-3.20122
0
LINE
8
BLACK
6
CONTINUOUS
10
6.27772
20
-3.20122
11
6.27712
21
-3.20423
0
LINE
8
BLACK
6
CONTINUOUS
10
6.27712
20
-3.20423
11
6.27541
21
-3.20679
0
LINE
8
BLACK
6
CONTINUOUS
10
6.27541
20
-3.20679
11
6.27286
21
-3.2085
0
LINE
8
BLACK
6
CONTINUOUS
10
6.27286
20
-3.2085
11
6.26984
21
-3.20909
0
LINE
8
BLACK
6
CONTINUOUS
10
6.26984
20
-3.20909
11
6.20984
21
-3.20909
0
LINE
8
BLACK
6
CONTINUOUS
10
6.20984
20
-3.20909
11
6.20683
21
-3.2085
0
LINE
8
BLACK
6
CONTINUOUS
10
6.20683
20
-3.2085
11
6.20427
21
-3.20679
0
LINE
8
BLACK
6
CONTINUOUS
10
6.20427
20
-3.20679
11
6.20257
21
-3.20423
0
LINE
8
BLACK
6
CONTINUOUS
10
6.20257
20
-3.20423
11
6.20197
21
-3.20122
0
LINE
8
BLACK
6
CONTINUOUS
10
6.20197
20
-3.20122
11
6.20197
21
-3.14122
0
LINE
8
BLACK
6
CONTINUOUS
10
6.20197
20
-3.14122
11
6.20257
21
-3.13821
0
LINE
8
BLACK
6
CONTINUOUS
10
6.20257
20
-3.13821
11
6.20427
21
-3.13565
0
LINE
8
BLACK
6
CONTINUOUS
10
6.20427
20
-3.13565
11
6.20683
21
-3.13395
0
LINE
8
BLACK
6
CONTINUOUS
10
6.20683
20
-3.13395
11
6.20984
21
-3.13335
0
LINE
8
BLACK
6
CONTINUOUS
10
6.20984
20
-3.13335
11
6.26984
21
-3.13335
0
LINE
8
BLACK
6
CONTINUOUS
10
6.26984
20
-3.13335
11
6.27286
21
-3.13395
0
LINE
8
BLACK
6
CONTINUOUS
10
6.82686
20
-3.13157
11
6.83183
21
-3.13332
0
LINE
8
BLACK
6
CONTINUOUS
10
6.83183
20
-3.13332
11
6.83607
21
-3.13645
0
LINE
8
BLACK
6
CONTINUOUS
10
6.83607
20
-3.13645
11
6.8392
21
-3.14069
0
LINE
8
BLACK
6
CONTINUOUS
10
6.8392
20
-3.14069
11
6.84095
21
-3.14566
0
LINE
8
BLACK
6
CONTINUOUS
10
6.84095
20
-3.14566
11
6.84126
21
-3.14898
0
LINE
8
BLACK
6
CONTINUOUS
10
6.84126
20
-3.14898
11
6.84126
21
-3.16866
0
LINE
8
BLACK
6
CONTINUOUS
10
6.84126
20
-3.16866
11
6.84095
21
-3.17198
0
LINE
8
BLACK
6
CONTINUOUS
10
6.84095
20
-3.17198
11
6.8392
21
-3.17695
0
LINE
8
BLACK
6
CONTINUOUS
10
6.8392
20
-3.17695
11
6.83607
21
-3.18119
0
LINE
8
BLACK
6
CONTINUOUS
10
6.83607
20
-3.18119
11
6.83183
21
-3.18432
0
LINE
8
BLACK
6
CONTINUOUS
10
6.83183
20
-3.18432
11
6.82686
21
-3.18606
0
LINE
8
BLACK
6
CONTINUOUS
10
6.82686
20
-3.18606
11
6.82354
21
-3.18638
0
LINE
8
BLACK
6
CONTINUOUS
10
6.82354
20
-3.18638
11
6.78614
21
-3.18638
0
LINE
8
BLACK
6
CONTINUOUS
10
6.78614
20
-3.18638
11
6.78282
21
-3.18606
0
LINE
8
BLACK
6
CONTINUOUS
10
6.78282
20
-3.18606
11
6.77785
21
-3.18432
0
LINE
8
BLACK
6
CONTINUOUS
10
6.77785
20
-3.18432
11
6.77361
21
-3.18119
0
LINE
8
BLACK
6
CONTINUOUS
10
6.77361
20
-3.18119
11
6.77048
21
-3.17695
0
LINE
8
BLACK
6
CONTINUOUS
10
6.77048
20
-3.17695
11
6.76874
21
-3.17198
0
LINE
8
BLACK
6
CONTINUOUS
10
6.76874
20
-3.17198
11
6.76843
21
-3.16866
0
LINE
8
BLACK
6
CONTINUOUS
10
6.76843
20
-3.16866
11
6.76843
21
-3.14898
0
LINE
8
BLACK
6
CONTINUOUS
10
6.76843
20
-3.14898
11
6.76874
21
-3.14566
0
LINE
8
BLACK
6
CONTINUOUS
10
6.76874
20
-3.14566
11
6.77048
21
-3.14069
0
LINE
8
BLACK
6
CONTINUOUS
10
6.77048
20
-3.14069
11
6.77361
21
-3.13645
0
LINE
8
BLACK
6
CONTINUOUS
10
6.77361
20
-3.13645
11
6.77785
21
-3.13332
0
LINE
8
BLACK
6
CONTINUOUS
10
6.77785
20
-3.13332
11
6.78282
21
-3.13157
0
LINE
8
BLACK
6
CONTINUOUS
10
6.78282
20
-3.13157
11
6.78614
21
-3.13126
0
LINE
8
BLACK
6
CONTINUOUS
10
6.78614
20
-3.13126
11
6.82354
21
-3.13126
0
LINE
8
BLACK
6
CONTINUOUS
10
6.82354
20
-3.13126
11
6.82686
21
-3.13157
0
LINE
8
BLACK
6
CONTINUOUS
10
6.72686
20
-3.13157
11
6.73183
21
-3.13332
0
LINE
8
BLACK
6
CONTINUOUS
10
6.73183
20
-3.13332
11
6.73607
21
-3.13645
0
LINE
8
BLACK
6
CONTINUOUS
10
6.73607
20
-3.13645
11
6.7392
21
-3.14069
0
LINE
8
BLACK
6
CONTINUOUS
10
6.7392
20
-3.14069
11
6.74095
21
-3.14566
0
LINE
8
BLACK
6
CONTINUOUS
10
6.74095
20
-3.14566
11
6.74126
21
-3.14898
0
LINE
8
BLACK
6
CONTINUOUS
10
6.74126
20
-3.14898
11
6.74126
21
-3.16866
0
LINE
8
BLACK
6
CONTINUOUS
10
6.74126
20
-3.16866
11
6.74095
21
-3.17198
0
LINE
8
BLACK
6
CONTINUOUS
10
6.74095
20
-3.17198
11
6.7392
21
-3.17695
0
LINE
8
BLACK
6
CONTINUOUS
10
6.7392
20
-3.17695
11
6.73607
21
-3.18119
0
LINE
8
BLACK
6
CONTINUOUS
10
6.73607
20
-3.18119
11
6.73183
21
-3.18432
0
LINE
8
BLACK
6
CONTINUOUS
10
6.73183
20
-3.18432
11
6.72686
21
-3.18606
0
LINE
8
BLACK
6
CONTINUOUS
10
6.72686
20
-3.18606
11
6.72354
21
-3.18638
0
LINE
8
BLACK
6
CONTINUOUS
10
6.72354
20
-3.18638
11
6.68614
21
-3.18638
0
LINE
8
BLACK
6
CONTINUOUS
10
6.68614
20
-3.18638
11
6.68282
21
-3.18606
0
LINE
8
BLACK
6
CONTINUOUS
10
6.68282
20
-3.18606
11
6.67785
21
-3.18432
0
LINE
8
BLACK
6
CONTINUOUS
10
6.67785
20
-3.18432
11
6.67361
21
-3.18119
0
LINE
8
BLACK
6
CONTINUOUS
10
6.67361
20
-3.18119
11
6.67048
21
-3.17695
0
LINE
8
BLACK
6
CONTINUOUS
10
6.67048
20
-3.17695
11
6.66874
21
-3.17198
0
LINE
8
BLACK
6
CONTINUOUS
10
6.66874
20
-3.17198
11
6.66843
21
-3.16866
0
LINE
8
BLACK
6
CONTINUOUS
10
6.66843
20
-3.16866
11
6.66843
21
-3.14898
0
LINE
8
BLACK
6
CONTINUOUS
10
6.66843
20
-3.14898
11
6.66874
21
-3.14566
0
LINE
8
BLACK
6
CONTINUOUS
10
6.66874
20
-3.14566
11
6.67048
21
-3.14069
0
LINE
8
BLACK
6
CONTINUOUS
10
6.67048
20
-3.14069
11
6.67361
21
-3.13645
0
LINE
8
BLACK
6
CONTINUOUS
10
6.67361
20
-3.13645
11
6.67785
21
-3.13332
0
LINE
8
BLACK
6
CONTINUOUS
10
6.67785
20
-3.13332
11
6.68282
21
-3.13157
0
LINE
8
BLACK
6
CONTINUOUS
10
6.68282
20
-3.13157
11
6.68614
21
-3.13126
0
LINE
8
BLACK
6
CONTINUOUS
10
6.68614
20
-3.13126
11
6.72354
21
-3.13126
0
LINE
8
BLACK
6
CONTINUOUS
10
6.72354
20
-3.13126
11
6.72686
21
-3.13157
  0
ENDSEC
  0
EOF
