  0
SECTION
  2
HEADER
  9
$ANGBASE
  50
0.0
  9
$ANGDIR
  70
1
  9
$MEASUREMENT
  70
0
  0
ENDSEC
  0
SECTION
  2
TABLES
  0
TABLE
  2
LTYPE
  70
4
  0
LTYPE
  5
40F
  2
CONTINUOUS
  70
0
  3
Solid line
  72
65
  73
0
  40
0.0
  0
LTYPE
  5
410
  2
DASHDOT
 70
0
  3
Dash Dot ____ _ ____ _
 72
65
 73
4
 40
2.0
 49
1.25
 49
-0.25
 49
0.25
 49
-0.25
  0
LTYPE
  5
411
  2
DASHED
 70
0
  3
Dashed __ __ __ __ __
 72
65
 73
2
 40
0.75
 49
0.5
 49
-0.25
  0
LTYPE
  5
43B
  2
DOTTED
 70
0
  3
Dotted .  .  .  .
 72
65
 73
2
 40
0.2
 49
0.0
 49
-0.2
  0
ENDTAB
  0
TABLE
  2
STYLE
  70
4
  0
STYLE
  2
KICAD
  70
0
  40
0
  41
1
  42
1
  50
0
  71
0
  3
isocp.shx
  0
STYLE
  2
KICADB
  70
0
  40
0
  41
1
  42
1
  50
0
  71
0
  3
isocp.shx
  0
STYLE
  2
KICADI
  70
0
  40
0
  41
1
  42
1
  50
15
  71
0
  3
isocp.shx
  0
STYLE
  2
KICADBI
  70
0
  40
0
  41
1
  42
1
  50
15
  71
0
  3
isocp.shx
  0
ENDTAB
  0
TABLE
  2
LAYER
  70
1
  0
LAYER
  2
BLACK
  70
0
  62
7
  6
CONTINUOUS
  0
ENDTAB
  0
ENDSEC
  0
SECTION
  2
ENTITIES
0
LINE
8
BLACK
6
CONTINUOUS
10
-0.169177
20
0.968315
11
-0.167228
21
0.969731
0
LINE
8
BLACK
6
CONTINUOUS
10
-0.167228
20
0.969731
11
-0.166024
21
0.969921
0
LINE
8
BLACK
6
CONTINUOUS
10
-0.166024
20
0.969921
11
1.76602
21
0.969921
0
LINE
8
BLACK
6
CONTINUOUS
10
1.76602
20
0.969921
11
1.76831
21
0.969177
0
LINE
8
BLACK
6
CONTINUOUS
10
1.76831
20
0.969177
11
1.76973
21
0.967228
0
LINE
8
BLACK
6
CONTINUOUS
10
1.76973
20
0.967228
11
1.76992
21
0.966024
0
LINE
8
BLACK
6
CONTINUOUS
10
1.76992
20
0.966024
11
1.76992
21
-0.166024
0
LINE
8
BLACK
6
CONTINUOUS
10
1.76992
20
-0.166024
11
1.76918
21
-0.168315
0
LINE
8
BLACK
6
CONTINUOUS
10
1.76918
20
-0.168315
11
1.76723
21
-0.169731
0
LINE
8
BLACK
6
CONTINUOUS
10
1.76723
20
-0.169731
11
1.76602
21
-0.169921
0
LINE
8
BLACK
6
CONTINUOUS
10
1.76602
20
-0.169921
11
-0.166024
21
-0.169921
0
LINE
8
BLACK
6
CONTINUOUS
10
-0.166024
20
-0.169921
11
-0.168315
21
-0.169177
0
LINE
8
BLACK
6
CONTINUOUS
10
-0.168315
20
-0.169177
11
-0.169731
21
-0.167228
0
LINE
8
BLACK
6
CONTINUOUS
10
-0.169731
20
-0.167228
11
-0.169921
21
-0.166024
0
LINE
8
BLACK
6
CONTINUOUS
10
-0.169921
20
-0.166024
11
-0.169921
21
0.966024
0
LINE
8
BLACK
6
CONTINUOUS
10
-0.169921
20
0.966024
11
-0.169177
21
0.968315
0
LINE
8
BLACK
6
CONTINUOUS
10
0.844259
20
-0.139713
11
0.847698
21
-0.144302
0
LINE
8
BLACK
6
CONTINUOUS
10
0.847698
20
-0.144302
11
0.852287
21
-0.147741
0
LINE
8
BLACK
6
CONTINUOUS
10
0.852287
20
-0.147741
11
0.857657
21
-0.149754
0
LINE
8
BLACK
6
CONTINUOUS
10
0.857657
20
-0.149754
11
0.8579
21
-0.14978
0
LINE
8
BLACK
6
CONTINUOUS
10
0.8579
20
-0.14978
11
0.8579
21
-0.14978
0
LINE
8
BLACK
6
CONTINUOUS
10
0.8579
20
-0.14978
11
0.859316
21
-0.149934
0
LINE
8
BLACK
6
CONTINUOUS
10
0.859316
20
-0.149934
11
0.860105
21
-0.15002
0
LINE
8
BLACK
6
CONTINUOUS
10
0.860105
20
-0.15002
11
0.923895
21
-0.15002
0
LINE
8
BLACK
6
CONTINUOUS
10
0.923895
20
-0.15002
11
0.924684
21
-0.149934
0
LINE
8
BLACK
6
CONTINUOUS
10
0.924684
20
-0.149934
11
0.9261
21
-0.14978
0
LINE
8
BLACK
6
CONTINUOUS
10
0.9261
20
-0.14978
11
0.9261
21
-0.14978
0
LINE
8
BLACK
6
CONTINUOUS
10
0.9261
20
-0.14978
11
0.926343
21
-0.149754
0
LINE
8
BLACK
6
CONTINUOUS
10
0.926343
20
-0.149754
11
0.931713
21
-0.147741
0
LINE
8
BLACK
6
CONTINUOUS
10
0.931713
20
-0.147741
11
0.936302
21
-0.144302
0
LINE
8
BLACK
6
CONTINUOUS
10
0.936302
20
-0.144302
11
0.936468
21
-0.144079
0
LINE
8
BLACK
6
CONTINUOUS
10
0.936468
20
-0.144079
11
0.936468
21
-0.144079
0
LINE
8
BLACK
6
CONTINUOUS
10
0.936468
20
-0.144079
11
0.938881
21
-0.14086
0
LINE
8
BLACK
6
CONTINUOUS
10
0.938881
20
-0.14086
11
0.940851
21
-0.139473
0
LINE
8
BLACK
6
CONTINUOUS
10
0.940851
20
-0.139473
11
0.943259
21
-0.139509
0
LINE
8
BLACK
6
CONTINUOUS
10
0.943259
20
-0.139509
11
0.945119
21
-0.14086
0
LINE
8
BLACK
6
CONTINUOUS
10
0.945119
20
-0.14086
11
0.947532
21
-0.144079
0
LINE
8
BLACK
6
CONTINUOUS
10
0.947532
20
-0.144079
11
0.947532
21
-0.144079
0
LINE
8
BLACK
6
CONTINUOUS
10
0.947532
20
-0.144079
11
0.947698
21
-0.144302
0
LINE
8
BLACK
6
CONTINUOUS
10
0.947698
20
-0.144302
11
0.952287
21
-0.147741
0
LINE
8
BLACK
6
CONTINUOUS
10
0.952287
20
-0.147741
11
0.957657
21
-0.149754
0
LINE
8
BLACK
6
CONTINUOUS
10
0.957657
20
-0.149754
11
0.9579
21
-0.14978
0
LINE
8
BLACK
6
CONTINUOUS
10
0.9579
20
-0.14978
11
0.9579
21
-0.14978
0
LINE
8
BLACK
6
CONTINUOUS
10
0.9579
20
-0.14978
11
0.959316
21
-0.149934
0
LINE
8
BLACK
6
CONTINUOUS
10
0.959316
20
-0.149934
11
0.960105
21
-0.15002
0
LINE
8
BLACK
6
CONTINUOUS
10
0.960105
20
-0.15002
11
1.0239
21
-0.15002
0
LINE
8
BLACK
6
CONTINUOUS
10
1.0239
20
-0.15002
11
1.02468
21
-0.149934
0
LINE
8
BLACK
6
CONTINUOUS
10
1.02468
20
-0.149934
11
1.0261
21
-0.14978
0
LINE
8
BLACK
6
CONTINUOUS
10
1.0261
20
-0.14978
11
1.0261
21
-0.14978
0
LINE
8
BLACK
6
CONTINUOUS
10
1.0261
20
-0.14978
11
1.02634
21
-0.149754
0
LINE
8
BLACK
6
CONTINUOUS
10
1.02634
20
-0.149754
11
1.03171
21
-0.147741
0
LINE
8
BLACK
6
CONTINUOUS
10
1.03171
20
-0.147741
11
1.0363
21
-0.144302
0
LINE
8
BLACK
6
CONTINUOUS
10
1.0363
20
-0.144302
11
1.03647
21
-0.144079
0
LINE
8
BLACK
6
CONTINUOUS
10
1.03647
20
-0.144079
11
1.03647
21
-0.144079
0
LINE
8
BLACK
6
CONTINUOUS
10
1.03647
20
-0.144079
11
1.03888
21
-0.14086
0
LINE
8
BLACK
6
CONTINUOUS
10
1.03888
20
-0.14086
11
1.04085
21
-0.139473
0
LINE
8
BLACK
6
CONTINUOUS
10
1.04085
20
-0.139473
11
1.04326
21
-0.139509
0
LINE
8
BLACK
6
CONTINUOUS
10
1.04326
20
-0.139509
11
1.04512
21
-0.14086
0
LINE
8
BLACK
6
CONTINUOUS
10
1.04512
20
-0.14086
11
1.04753
21
-0.144079
0
LINE
8
BLACK
6
CONTINUOUS
10
1.04753
20
-0.144079
11
1.04753
21
-0.144079
0
LINE
8
BLACK
6
CONTINUOUS
10
1.04753
20
-0.144079
11
1.0477
21
-0.144302
0
LINE
8
BLACK
6
CONTINUOUS
10
1.0477
20
-0.144302
11
1.05229
21
-0.147741
0
LINE
8
BLACK
6
CONTINUOUS
10
1.05229
20
-0.147741
11
1.05766
21
-0.149754
0
LINE
8
BLACK
6
CONTINUOUS
10
1.05766
20
-0.149754
11
1.0579
21
-0.14978
0
LINE
8
BLACK
6
CONTINUOUS
10
1.0579
20
-0.14978
11
1.0579
21
-0.14978
0
LINE
8
BLACK
6
CONTINUOUS
10
1.0579
20
-0.14978
11
1.05932
21
-0.149934
0
LINE
8
BLACK
6
CONTINUOUS
10
1.05932
20
-0.149934
11
1.0601
21
-0.15002
0
LINE
8
BLACK
6
CONTINUOUS
10
1.0601
20
-0.15002
11
1.1239
21
-0.15002
0
LINE
8
BLACK
6
CONTINUOUS
10
1.1239
20
-0.15002
11
1.12468
21
-0.149934
0
LINE
8
BLACK
6
CONTINUOUS
10
1.12468
20
-0.149934
11
1.1261
21
-0.14978
0
LINE
8
BLACK
6
CONTINUOUS
10
1.1261
20
-0.14978
11
1.1261
21
-0.14978
0
LINE
8
BLACK
6
CONTINUOUS
10
1.1261
20
-0.14978
11
1.12634
21
-0.149754
0
LINE
8
BLACK
6
CONTINUOUS
10
1.12634
20
-0.149754
11
1.13171
21
-0.147741
0
LINE
8
BLACK
6
CONTINUOUS
10
1.13171
20
-0.147741
11
1.1363
21
-0.144302
0
LINE
8
BLACK
6
CONTINUOUS
10
1.1363
20
-0.144302
11
1.13974
21
-0.139713
0
LINE
8
BLACK
6
CONTINUOUS
10
1.13974
20
-0.139713
11
1.14175
21
-0.134343
0
LINE
8
BLACK
6
CONTINUOUS
10
1.14175
20
-0.134343
11
1.14202
21
-0.131895
0
LINE
8
BLACK
6
CONTINUOUS
10
1.14202
20
-0.131895
11
1.14202
21
-0.068105
0
LINE
8
BLACK
6
CONTINUOUS
10
1.14202
20
-0.068105
11
1.14175
21
-0.0656569
0
LINE
8
BLACK
6
CONTINUOUS
10
1.14175
20
-0.0656569
11
1.13974
21
-0.0602872
0
LINE
8
BLACK
6
CONTINUOUS
10
1.13974
20
-0.0602872
11
1.1363
21
-0.0556984
0
LINE
8
BLACK
6
CONTINUOUS
10
1.1363
20
-0.0556984
11
1.13608
21
-0.0555319
0
LINE
8
BLACK
6
CONTINUOUS
10
1.13608
20
-0.0555319
11
1.13608
21
-0.0555317
0
LINE
8
BLACK
6
CONTINUOUS
10
1.13608
20
-0.0555317
11
1.13286
21
-0.0531189
0
LINE
8
BLACK
6
CONTINUOUS
10
1.13286
20
-0.0531189
11
1.13147
21
-0.0511493
0
LINE
8
BLACK
6
CONTINUOUS
10
1.13147
20
-0.0511493
11
1.13151
21
-0.0487407
0
LINE
8
BLACK
6
CONTINUOUS
10
1.13151
20
-0.0487407
11
1.13286
21
-0.0468811
0
LINE
8
BLACK
6
CONTINUOUS
10
1.13286
20
-0.0468811
11
1.13608
21
-0.0444683
0
LINE
8
BLACK
6
CONTINUOUS
10
1.13608
20
-0.0444683
11
1.13608
21
-0.0444681
0
LINE
8
BLACK
6
CONTINUOUS
10
1.13608
20
-0.0444681
11
1.1363
21
-0.0443016
0
LINE
8
BLACK
6
CONTINUOUS
10
1.1363
20
-0.0443016
11
1.13974
21
-0.0397128
0
LINE
8
BLACK
6
CONTINUOUS
10
1.13974
20
-0.0397128
11
1.14175
21
-0.0343431
0
LINE
8
BLACK
6
CONTINUOUS
10
1.14175
20
-0.0343431
11
1.14202
21
-0.031895
0
LINE
8
BLACK
6
CONTINUOUS
10
1.14202
20
-0.031895
11
1.14202
21
0.031895
0
LINE
8
BLACK
6
CONTINUOUS
10
1.14202
20
0.031895
11
1.14175
21
0.0343431
0
LINE
8
BLACK
6
CONTINUOUS
10
1.14175
20
0.0343431
11
1.13974
21
0.0397128
0
LINE
8
BLACK
6
CONTINUOUS
10
1.13974
20
0.0397128
11
1.1363
21
0.0443016
0
LINE
8
BLACK
6
CONTINUOUS
10
1.1363
20
0.0443016
11
1.13171
21
0.0477407
0
LINE
8
BLACK
6
CONTINUOUS
10
1.13171
20
0.0477407
11
1.12634
21
0.0497537
0
LINE
8
BLACK
6
CONTINUOUS
10
1.12634
20
0.0497537
11
1.1261
21
0.0497801
0
LINE
8
BLACK
6
CONTINUOUS
10
1.1261
20
0.0497801
11
1.1261
21
0.0497802
0
LINE
8
BLACK
6
CONTINUOUS
10
1.1261
20
0.0497802
11
1.12468
21
0.049934
0
LINE
8
BLACK
6
CONTINUOUS
10
1.12468
20
0.049934
11
1.1239
21
0.0500197
0
LINE
8
BLACK
6
CONTINUOUS
10
1.1239
20
0.0500197
11
1.0601
21
0.0500197
0
LINE
8
BLACK
6
CONTINUOUS
10
1.0601
20
0.0500197
11
1.05932
21
0.049934
0
LINE
8
BLACK
6
CONTINUOUS
10
1.05932
20
0.049934
11
1.0579
21
0.0497802
0
LINE
8
BLACK
6
CONTINUOUS
10
1.0579
20
0.0497802
11
1.0579
21
0.0497801
0
LINE
8
BLACK
6
CONTINUOUS
10
1.0579
20
0.0497801
11
1.05766
21
0.0497537
0
LINE
8
BLACK
6
CONTINUOUS
10
1.05766
20
0.0497537
11
1.05229
21
0.0477407
0
LINE
8
BLACK
6
CONTINUOUS
10
1.05229
20
0.0477407
11
1.0477
21
0.0443016
0
LINE
8
BLACK
6
CONTINUOUS
10
1.0477
20
0.0443016
11
1.04753
21
0.0440794
0
LINE
8
BLACK
6
CONTINUOUS
10
1.04753
20
0.0440794
11
1.04753
21
0.0440793
0
LINE
8
BLACK
6
CONTINUOUS
10
1.04753
20
0.0440793
11
1.04512
21
0.0408599
0
LINE
8
BLACK
6
CONTINUOUS
10
1.04512
20
0.0408599
11
1.04315
21
0.0394731
0
LINE
8
BLACK
6
CONTINUOUS
10
1.04315
20
0.0394731
11
1.04074
21
0.0395088
0
LINE
8
BLACK
6
CONTINUOUS
10
1.04074
20
0.0395088
11
1.03888
21
0.0408599
0
LINE
8
BLACK
6
CONTINUOUS
10
1.03888
20
0.0408599
11
1.03647
21
0.0440793
0
LINE
8
BLACK
6
CONTINUOUS
10
1.03647
20
0.0440793
11
1.03647
21
0.0440794
0
LINE
8
BLACK
6
CONTINUOUS
10
1.03647
20
0.0440794
11
1.0363
21
0.0443016
0
LINE
8
BLACK
6
CONTINUOUS
10
1.0363
20
0.0443016
11
1.03171
21
0.0477407
0
LINE
8
BLACK
6
CONTINUOUS
10
1.03171
20
0.0477407
11
1.02634
21
0.0497537
0
LINE
8
BLACK
6
CONTINUOUS
10
1.02634
20
0.0497537
11
1.0261
21
0.0497801
0
LINE
8
BLACK
6
CONTINUOUS
10
1.0261
20
0.0497801
11
1.0261
21
0.0497802
0
LINE
8
BLACK
6
CONTINUOUS
10
1.0261
20
0.0497802
11
1.02468
21
0.049934
0
LINE
8
BLACK
6
CONTINUOUS
10
1.02468
20
0.049934
11
1.0239
21
0.0500197
0
LINE
8
BLACK
6
CONTINUOUS
10
1.0239
20
0.0500197
11
0.960105
21
0.0500197
0
LINE
8
BLACK
6
CONTINUOUS
10
0.960105
20
0.0500197
11
0.959316
21
0.049934
0
LINE
8
BLACK
6
CONTINUOUS
10
0.959316
20
0.049934
11
0.9579
21
0.0497802
0
LINE
8
BLACK
6
CONTINUOUS
10
0.9579
20
0.0497802
11
0.9579
21
0.0497801
0
LINE
8
BLACK
6
CONTINUOUS
10
0.9579
20
0.0497801
11
0.957657
21
0.0497537
0
LINE
8
BLACK
6
CONTINUOUS
10
0.957657
20
0.0497537
11
0.952287
21
0.0477407
0
LINE
8
BLACK
6
CONTINUOUS
10
0.952287
20
0.0477407
11
0.947698
21
0.0443016
0
LINE
8
BLACK
6
CONTINUOUS
10
0.947698
20
0.0443016
11
0.947532
21
0.0440794
0
LINE
8
BLACK
6
CONTINUOUS
10
0.947532
20
0.0440794
11
0.947532
21
0.0440793
0
LINE
8
BLACK
6
CONTINUOUS
10
0.947532
20
0.0440793
11
0.945119
21
0.0408599
0
LINE
8
BLACK
6
CONTINUOUS
10
0.945119
20
0.0408599
11
0.943149
21
0.0394731
0
LINE
8
BLACK
6
CONTINUOUS
10
0.943149
20
0.0394731
11
0.940741
21
0.0395088
0
LINE
8
BLACK
6
CONTINUOUS
10
0.940741
20
0.0395088
11
0.938881
21
0.0408599
0
LINE
8
BLACK
6
CONTINUOUS
10
0.938881
20
0.0408599
11
0.936468
21
0.0440793
0
LINE
8
BLACK
6
CONTINUOUS
10
0.936468
20
0.0440793
11
0.936468
21
0.0440794
0
LINE
8
BLACK
6
CONTINUOUS
10
0.936468
20
0.0440794
11
0.936302
21
0.0443016
0
LINE
8
BLACK
6
CONTINUOUS
10
0.936302
20
0.0443016
11
0.931713
21
0.0477407
0
LINE
8
BLACK
6
CONTINUOUS
10
0.931713
20
0.0477407
11
0.926343
21
0.0497537
0
LINE
8
BLACK
6
CONTINUOUS
10
0.926343
20
0.0497537
11
0.9261
21
0.0497801
0
LINE
8
BLACK
6
CONTINUOUS
10
0.9261
20
0.0497801
11
0.9261
21
0.0497802
0
LINE
8
BLACK
6
CONTINUOUS
10
0.9261
20
0.0497802
11
0.924684
21
0.049934
0
LINE
8
BLACK
6
CONTINUOUS
10
0.924684
20
0.049934
11
0.923895
21
0.0500197
0
LINE
8
BLACK
6
CONTINUOUS
10
0.923895
20
0.0500197
11
0.860105
21
0.0500197
0
LINE
8
BLACK
6
CONTINUOUS
10
0.860105
20
0.0500197
11
0.859316
21
0.049934
0
LINE
8
BLACK
6
CONTINUOUS
10
0.859316
20
0.049934
11
0.8579
21
0.0497802
0
LINE
8
BLACK
6
CONTINUOUS
10
0.8579
20
0.0497802
11
0.8579
21
0.0497801
0
LINE
8
BLACK
6
CONTINUOUS
10
0.8579
20
0.0497801
11
0.857657
21
0.0497537
0
LINE
8
BLACK
6
CONTINUOUS
10
0.857657
20
0.0497537
11
0.852287
21
0.0477407
0
LINE
8
BLACK
6
CONTINUOUS
10
0.852287
20
0.0477407
11
0.847698
21
0.0443016
0
LINE
8
BLACK
6
CONTINUOUS
10
0.847698
20
0.0443016
11
0.844259
21
0.0397128
0
LINE
8
BLACK
6
CONTINUOUS
10
0.844259
20
0.0397128
11
0.842246
21
0.0343431
0
LINE
8
BLACK
6
CONTINUOUS
10
0.842246
20
0.0343431
11
0.84198
21
0.031895
0
LINE
8
BLACK
6
CONTINUOUS
10
0.84198
20
0.031895
11
0.84198
21
-0.031895
0
LINE
8
BLACK
6
CONTINUOUS
10
0.84198
20
-0.031895
11
0.842246
21
-0.0343431
0
LINE
8
BLACK
6
CONTINUOUS
10
0.842246
20
-0.0343431
11
0.844259
21
-0.0397128
0
LINE
8
BLACK
6
CONTINUOUS
10
0.844259
20
-0.0397128
11
0.847698
21
-0.0443016
0
LINE
8
BLACK
6
CONTINUOUS
10
0.847698
20
-0.0443016
11
0.847921
21
-0.0444681
0
LINE
8
BLACK
6
CONTINUOUS
10
0.847921
20
-0.0444681
11
0.847921
21
-0.0444683
0
LINE
8
BLACK
6
CONTINUOUS
10
0.847921
20
-0.0444683
11
0.85114
21
-0.0468811
0
LINE
8
BLACK
6
CONTINUOUS
10
0.85114
20
-0.0468811
11
0.852527
21
-0.0488507
0
LINE
8
BLACK
6
CONTINUOUS
10
0.852527
20
-0.0488507
11
0.852491
21
-0.0512593
0
LINE
8
BLACK
6
CONTINUOUS
10
0.852491
20
-0.0512593
11
0.85114
21
-0.0531189
0
LINE
8
BLACK
6
CONTINUOUS
10
0.85114
20
-0.0531189
11
0.847921
21
-0.0555317
0
LINE
8
BLACK
6
CONTINUOUS
10
0.847921
20
-0.0555317
11
0.847921
21
-0.0555319
0
LINE
8
BLACK
6
CONTINUOUS
10
0.847921
20
-0.0555319
11
0.847698
21
-0.0556984
0
LINE
8
BLACK
6
CONTINUOUS
10
0.847698
20
-0.0556984
11
0.844259
21
-0.0602872
0
LINE
8
BLACK
6
CONTINUOUS
10
0.844259
20
-0.0602872
11
0.842246
21
-0.0656569
0
LINE
8
BLACK
6
CONTINUOUS
10
0.842246
20
-0.0656569
11
0.84198
21
-0.068105
0
LINE
8
BLACK
6
CONTINUOUS
10
0.84198
20
-0.068105
11
0.84198
21
-0.131895
0
LINE
8
BLACK
6
CONTINUOUS
10
0.84198
20
-0.131895
11
0.842246
21
-0.134343
0
LINE
8
BLACK
6
CONTINUOUS
10
0.842246
20
-0.134343
11
0.844259
21
-0.139713
0
LINE
8
BLACK
6
CONTINUOUS
10
1.52933
20
0.429428
11
1.53108
21
0.424754
0
LINE
8
BLACK
6
CONTINUOUS
10
1.53108
20
0.424754
11
1.53126
21
0.424287
0
LINE
8
BLACK
6
CONTINUOUS
10
1.53126
20
0.424287
11
1.5347
21
0.419698
0
LINE
8
BLACK
6
CONTINUOUS
10
1.5347
20
0.419698
11
1.53929
21
0.416259
0
LINE
8
BLACK
6
CONTINUOUS
10
1.53929
20
0.416259
11
1.54466
21
0.414246
0
LINE
8
BLACK
6
CONTINUOUS
10
1.54466
20
0.414246
11
1.5449
21
0.41422
0
LINE
8
BLACK
6
CONTINUOUS
10
1.5449
20
0.41422
11
1.5449
21
0.41422
0
LINE
8
BLACK
6
CONTINUOUS
10
1.5449
20
0.41422
11
1.54632
21
0.414066
0
LINE
8
BLACK
6
CONTINUOUS
10
1.54632
20
0.414066
11
1.5471
21
0.41398
0
LINE
8
BLACK
6
CONTINUOUS
10
1.5471
20
0.41398
11
1.6109
21
0.41398
0
LINE
8
BLACK
6
CONTINUOUS
10
1.6109
20
0.41398
11
1.61168
21
0.414066
0
LINE
8
BLACK
6
CONTINUOUS
10
1.61168
20
0.414066
11
1.6131
21
0.41422
0
LINE
8
BLACK
6
CONTINUOUS
10
1.6131
20
0.41422
11
1.6131
21
0.41422
0
LINE
8
BLACK
6
CONTINUOUS
10
1.6131
20
0.41422
11
1.61334
21
0.414246
0
LINE
8
BLACK
6
CONTINUOUS
10
1.61334
20
0.414246
11
1.61871
21
0.416259
0
LINE
8
BLACK
6
CONTINUOUS
10
1.61871
20
0.416259
11
1.6233
21
0.419698
0
LINE
8
BLACK
6
CONTINUOUS
10
1.6233
20
0.419698
11
1.62347
21
0.419921
0
LINE
8
BLACK
6
CONTINUOUS
10
1.62347
20
0.419921
11
1.62347
21
0.419921
0
LINE
8
BLACK
6
CONTINUOUS
10
1.62347
20
0.419921
11
1.62588
21
0.42314
0
LINE
8
BLACK
6
CONTINUOUS
10
1.62588
20
0.42314
11
1.62785
21
0.424527
0
LINE
8
BLACK
6
CONTINUOUS
10
1.62785
20
0.424527
11
1.63026
21
0.424491
0
LINE
8
BLACK
6
CONTINUOUS
10
1.63026
20
0.424491
11
1.63212
21
0.42314
0
LINE
8
BLACK
6
CONTINUOUS
10
1.63212
20
0.42314
11
1.63453
21
0.419921
0
LINE
8
BLACK
6
CONTINUOUS
10
1.63453
20
0.419921
11
1.63453
21
0.419921
0
LINE
8
BLACK
6
CONTINUOUS
10
1.63453
20
0.419921
11
1.6347
21
0.419698
0
LINE
8
BLACK
6
CONTINUOUS
10
1.6347
20
0.419698
11
1.63929
21
0.416259
0
LINE
8
BLACK
6
CONTINUOUS
10
1.63929
20
0.416259
11
1.64466
21
0.414246
0
LINE
8
BLACK
6
CONTINUOUS
10
1.64466
20
0.414246
11
1.6449
21
0.41422
0
LINE
8
BLACK
6
CONTINUOUS
10
1.6449
20
0.41422
11
1.6449
21
0.41422
0
LINE
8
BLACK
6
CONTINUOUS
10
1.6449
20
0.41422
11
1.64632
21
0.414066
0
LINE
8
BLACK
6
CONTINUOUS
10
1.64632
20
0.414066
11
1.6471
21
0.41398
0
LINE
8
BLACK
6
CONTINUOUS
10
1.6471
20
0.41398
11
1.7109
21
0.41398
0
LINE
8
BLACK
6
CONTINUOUS
10
1.7109
20
0.41398
11
1.71168
21
0.414066
0
LINE
8
BLACK
6
CONTINUOUS
10
1.71168
20
0.414066
11
1.7131
21
0.41422
0
LINE
8
BLACK
6
CONTINUOUS
10
1.7131
20
0.41422
11
1.7131
21
0.41422
0
LINE
8
BLACK
6
CONTINUOUS
10
1.7131
20
0.41422
11
1.71334
21
0.414246
0
LINE
8
BLACK
6
CONTINUOUS
10
1.71334
20
0.414246
11
1.71871
21
0.416259
0
LINE
8
BLACK
6
CONTINUOUS
10
1.71871
20
0.416259
11
1.7233
21
0.419698
0
LINE
8
BLACK
6
CONTINUOUS
10
1.7233
20
0.419698
11
1.72674
21
0.424287
0
LINE
8
BLACK
6
CONTINUOUS
10
1.72674
20
0.424287
11
1.72692
21
0.424754
0
LINE
8
BLACK
6
CONTINUOUS
10
1.72692
20
0.424754
11
1.72867
21
0.429428
0
LINE
8
BLACK
6
CONTINUOUS
10
1.72867
20
0.429428
11
1.72875
21
0.429657
0
LINE
8
BLACK
6
CONTINUOUS
10
1.72875
20
0.429657
11
1.72902
21
0.432105
0
LINE
8
BLACK
6
CONTINUOUS
10
1.72902
20
0.432105
11
1.72902
21
0.495895
0
LINE
8
BLACK
6
CONTINUOUS
10
1.72902
20
0.495895
11
1.72882
21
0.497741
0
LINE
8
BLACK
6
CONTINUOUS
10
1.72882
20
0.497741
11
1.72878
21
0.4981
0
LINE
8
BLACK
6
CONTINUOUS
10
1.72878
20
0.4981
11
1.72878
21
0.4981
0
LINE
8
BLACK
6
CONTINUOUS
10
1.72878
20
0.4981
11
1.72875
21
0.498343
0
LINE
8
BLACK
6
CONTINUOUS
10
1.72875
20
0.498343
11
1.72734
21
0.502127
0
LINE
8
BLACK
6
CONTINUOUS
10
1.72734
20
0.502127
11
1.72684
21
0.503453
0
LINE
8
BLACK
6
CONTINUOUS
10
1.72684
20
0.503453
11
1.72684
21
0.503453
0
LINE
8
BLACK
6
CONTINUOUS
10
1.72684
20
0.503453
11
1.72674
21
0.503713
0
LINE
8
BLACK
6
CONTINUOUS
10
1.72674
20
0.503713
11
1.7233
21
0.508302
0
LINE
8
BLACK
6
CONTINUOUS
10
1.7233
20
0.508302
11
1.71871
21
0.511741
0
LINE
8
BLACK
6
CONTINUOUS
10
1.71871
20
0.511741
11
1.71334
21
0.513754
0
LINE
8
BLACK
6
CONTINUOUS
10
1.71334
20
0.513754
11
1.7131
21
0.51378
0
LINE
8
BLACK
6
CONTINUOUS
10
1.7131
20
0.51378
11
1.7131
21
0.51378
0
LINE
8
BLACK
6
CONTINUOUS
10
1.7131
20
0.51378
11
1.71168
21
0.513934
0
LINE
8
BLACK
6
CONTINUOUS
10
1.71168
20
0.513934
11
1.7109
21
0.51402
0
LINE
8
BLACK
6
CONTINUOUS
10
1.7109
20
0.51402
11
1.6471
21
0.51402
0
LINE
8
BLACK
6
CONTINUOUS
10
1.6471
20
0.51402
11
1.64632
21
0.513934
0
LINE
8
BLACK
6
CONTINUOUS
10
1.64632
20
0.513934
11
1.6449
21
0.51378
0
LINE
8
BLACK
6
CONTINUOUS
10
1.6449
20
0.51378
11
1.6449
21
0.51378
0
LINE
8
BLACK
6
CONTINUOUS
10
1.6449
20
0.51378
11
1.64466
21
0.513754
0
LINE
8
BLACK
6
CONTINUOUS
10
1.64466
20
0.513754
11
1.63929
21
0.511741
0
LINE
8
BLACK
6
CONTINUOUS
10
1.63929
20
0.511741
11
1.6347
21
0.508302
0
LINE
8
BLACK
6
CONTINUOUS
10
1.6347
20
0.508302
11
1.63453
21
0.508079
0
LINE
8
BLACK
6
CONTINUOUS
10
1.63453
20
0.508079
11
1.63453
21
0.508079
0
LINE
8
BLACK
6
CONTINUOUS
10
1.63453
20
0.508079
11
1.63212
21
0.50486
0
LINE
8
BLACK
6
CONTINUOUS
10
1.63212
20
0.50486
11
1.63015
21
0.503473
0
LINE
8
BLACK
6
CONTINUOUS
10
1.63015
20
0.503473
11
1.62774
21
0.503509
0
LINE
8
BLACK
6
CONTINUOUS
10
1.62774
20
0.503509
11
1.62588
21
0.50486
0
LINE
8
BLACK
6
CONTINUOUS
10
1.62588
20
0.50486
11
1.62347
21
0.508079
0
LINE
8
BLACK
6
CONTINUOUS
10
1.62347
20
0.508079
11
1.62347
21
0.508079
0
LINE
8
BLACK
6
CONTINUOUS
10
1.62347
20
0.508079
11
1.6233
21
0.508302
0
LINE
8
BLACK
6
CONTINUOUS
10
1.6233
20
0.508302
11
1.61871
21
0.511741
0
LINE
8
BLACK
6
CONTINUOUS
10
1.61871
20
0.511741
11
1.61334
21
0.513754
0
LINE
8
BLACK
6
CONTINUOUS
10
1.61334
20
0.513754
11
1.6131
21
0.51378
0
LINE
8
BLACK
6
CONTINUOUS
10
1.6131
20
0.51378
11
1.6131
21
0.51378
0
LINE
8
BLACK
6
CONTINUOUS
10
1.6131
20
0.51378
11
1.61168
21
0.513934
0
LINE
8
BLACK
6
CONTINUOUS
10
1.61168
20
0.513934
11
1.6109
21
0.51402
0
LINE
8
BLACK
6
CONTINUOUS
10
1.6109
20
0.51402
11
1.5471
21
0.51402
0
LINE
8
BLACK
6
CONTINUOUS
10
1.5471
20
0.51402
11
1.54632
21
0.513934
0
LINE
8
BLACK
6
CONTINUOUS
10
1.54632
20
0.513934
11
1.5449
21
0.51378
0
LINE
8
BLACK
6
CONTINUOUS
10
1.5449
20
0.51378
11
1.5449
21
0.51378
0
LINE
8
BLACK
6
CONTINUOUS
10
1.5449
20
0.51378
11
1.54466
21
0.513754
0
LINE
8
BLACK
6
CONTINUOUS
10
1.54466
20
0.513754
11
1.53929
21
0.511741
0
LINE
8
BLACK
6
CONTINUOUS
10
1.53929
20
0.511741
11
1.5347
21
0.508302
0
LINE
8
BLACK
6
CONTINUOUS
10
1.5347
20
0.508302
11
1.53126
21
0.503713
0
LINE
8
BLACK
6
CONTINUOUS
10
1.53126
20
0.503713
11
1.53116
21
0.503453
0
LINE
8
BLACK
6
CONTINUOUS
10
1.53116
20
0.503453
11
1.53116
21
0.503453
0
LINE
8
BLACK
6
CONTINUOUS
10
1.53116
20
0.503453
11
1.53066
21
0.502127
0
LINE
8
BLACK
6
CONTINUOUS
10
1.53066
20
0.502127
11
1.52925
21
0.498343
0
LINE
8
BLACK
6
CONTINUOUS
10
1.52925
20
0.498343
11
1.52922
21
0.4981
0
LINE
8
BLACK
6
CONTINUOUS
10
1.52922
20
0.4981
11
1.52922
21
0.4981
0
LINE
8
BLACK
6
CONTINUOUS
10
1.52922
20
0.4981
11
1.52918
21
0.497741
0
LINE
8
BLACK
6
CONTINUOUS
10
1.52918
20
0.497741
11
1.52898
21
0.495895
0
LINE
8
BLACK
6
CONTINUOUS
10
1.52898
20
0.495895
11
1.52898
21
0.432105
0
LINE
8
BLACK
6
CONTINUOUS
10
1.52898
20
0.432105
11
1.52925
21
0.429657
0
LINE
8
BLACK
6
CONTINUOUS
10
1.52925
20
0.429657
11
1.52933
21
0.429428
0
LINE
8
BLACK
6
CONTINUOUS
10
0.527259
20
0.335287
11
0.530698
21
0.330698
0
LINE
8
BLACK
6
CONTINUOUS
10
0.530698
20
0.330698
11
0.535287
21
0.327259
0
LINE
8
BLACK
6
CONTINUOUS
10
0.535287
20
0.327259
11
0.540657
21
0.325246
0
LINE
8
BLACK
6
CONTINUOUS
10
0.540657
20
0.325246
11
0.5409
21
0.32522
0
LINE
8
BLACK
6
CONTINUOUS
10
0.5409
20
0.32522
11
0.5409
21
0.32522
0
LINE
8
BLACK
6
CONTINUOUS
10
0.5409
20
0.32522
11
0.542316
21
0.325066
0
LINE
8
BLACK
6
CONTINUOUS
10
0.542316
20
0.325066
11
0.543105
21
0.32498
0
LINE
8
BLACK
6
CONTINUOUS
10
0.543105
20
0.32498
11
0.606895
21
0.32498
0
LINE
8
BLACK
6
CONTINUOUS
10
0.606895
20
0.32498
11
0.607684
21
0.325066
0
LINE
8
BLACK
6
CONTINUOUS
10
0.607684
20
0.325066
11
0.6091
21
0.32522
0
LINE
8
BLACK
6
CONTINUOUS
10
0.6091
20
0.32522
11
0.6091
21
0.32522
0
LINE
8
BLACK
6
CONTINUOUS
10
0.6091
20
0.32522
11
0.609343
21
0.325246
0
LINE
8
BLACK
6
CONTINUOUS
10
0.609343
20
0.325246
11
0.614713
21
0.327259
0
LINE
8
BLACK
6
CONTINUOUS
10
0.614713
20
0.327259
11
0.619302
21
0.330698
0
LINE
8
BLACK
6
CONTINUOUS
10
0.619302
20
0.330698
11
0.622741
21
0.335287
0
LINE
8
BLACK
6
CONTINUOUS
10
0.622741
20
0.335287
11
0.624754
21
0.340657
0
LINE
8
BLACK
6
CONTINUOUS
10
0.624754
20
0.340657
11
0.62502
21
0.343105
0
LINE
8
BLACK
6
CONTINUOUS
10
0.62502
20
0.343105
11
0.62502
21
0.406895
0
LINE
8
BLACK
6
CONTINUOUS
10
0.62502
20
0.406895
11
0.624754
21
0.409343
0
LINE
8
BLACK
6
CONTINUOUS
10
0.624754
20
0.409343
11
0.622926
21
0.41422
0
LINE
8
BLACK
6
CONTINUOUS
10
0.622926
20
0.41422
11
0.622838
21
0.414453
0
LINE
8
BLACK
6
CONTINUOUS
10
0.622838
20
0.414453
11
0.622838
21
0.414453
0
LINE
8
BLACK
6
CONTINUOUS
10
0.622838
20
0.414453
11
0.622741
21
0.414713
0
LINE
8
BLACK
6
CONTINUOUS
10
0.622741
20
0.414713
11
0.619302
21
0.419302
0
LINE
8
BLACK
6
CONTINUOUS
10
0.619302
20
0.419302
11
0.614713
21
0.422741
0
LINE
8
BLACK
6
CONTINUOUS
10
0.614713
20
0.422741
11
0.609343
21
0.424754
0
LINE
8
BLACK
6
CONTINUOUS
10
0.609343
20
0.424754
11
0.6091
21
0.42478
0
LINE
8
BLACK
6
CONTINUOUS
10
0.6091
20
0.42478
11
0.6091
21
0.42478
0
LINE
8
BLACK
6
CONTINUOUS
10
0.6091
20
0.42478
11
0.607684
21
0.424934
0
LINE
8
BLACK
6
CONTINUOUS
10
0.607684
20
0.424934
11
0.606895
21
0.42502
0
LINE
8
BLACK
6
CONTINUOUS
10
0.606895
20
0.42502
11
0.543105
21
0.42502
0
LINE
8
BLACK
6
CONTINUOUS
10
0.543105
20
0.42502
11
0.542316
21
0.424934
0
LINE
8
BLACK
6
CONTINUOUS
10
0.542316
20
0.424934
11
0.5409
21
0.42478
0
LINE
8
BLACK
6
CONTINUOUS
10
0.5409
20
0.42478
11
0.5409
21
0.42478
0
LINE
8
BLACK
6
CONTINUOUS
10
0.5409
20
0.42478
11
0.540657
21
0.424754
0
LINE
8
BLACK
6
CONTINUOUS
10
0.540657
20
0.424754
11
0.535287
21
0.422741
0
LINE
8
BLACK
6
CONTINUOUS
10
0.535287
20
0.422741
11
0.530698
21
0.419302
0
LINE
8
BLACK
6
CONTINUOUS
10
0.530698
20
0.419302
11
0.527259
21
0.414713
0
LINE
8
BLACK
6
CONTINUOUS
10
0.527259
20
0.414713
11
0.527162
21
0.414453
0
LINE
8
BLACK
6
CONTINUOUS
10
0.527162
20
0.414453
11
0.527162
21
0.414453
0
LINE
8
BLACK
6
CONTINUOUS
10
0.527162
20
0.414453
11
0.527074
21
0.41422
0
LINE
8
BLACK
6
CONTINUOUS
10
0.527074
20
0.41422
11
0.525246
21
0.409343
0
LINE
8
BLACK
6
CONTINUOUS
10
0.525246
20
0.409343
11
0.52498
21
0.406895
0
LINE
8
BLACK
6
CONTINUOUS
10
0.52498
20
0.406895
11
0.52498
21
0.343105
0
LINE
8
BLACK
6
CONTINUOUS
10
0.52498
20
0.343105
11
0.525246
21
0.340657
0
LINE
8
BLACK
6
CONTINUOUS
10
0.525246
20
0.340657
11
0.527259
21
0.335287
0
LINE
8
BLACK
6
CONTINUOUS
10
0.578886
20
0.213668
11
0.578939
21
0.213039
0
LINE
8
BLACK
6
CONTINUOUS
10
0.578939
20
0.213039
11
0.580967
21
0.205966
0
LINE
8
BLACK
6
CONTINUOUS
10
0.580967
20
0.205966
11
0.584331
21
0.199422
0
LINE
8
BLACK
6
CONTINUOUS
10
0.584331
20
0.199422
11
0.588901
21
0.193656
0
LINE
8
BLACK
6
CONTINUOUS
10
0.588901
20
0.193656
11
0.589046
21
0.193532
0
LINE
8
BLACK
6
CONTINUOUS
10
0.589046
20
0.193532
11
0.589046
21
0.193532
0
LINE
8
BLACK
6
CONTINUOUS
10
0.589046
20
0.193532
11
0.590346
21
0.192426
0
LINE
8
BLACK
6
CONTINUOUS
10
0.590346
20
0.192426
11
0.594504
21
0.188887
0
LINE
8
BLACK
6
CONTINUOUS
10
0.594504
20
0.188887
11
0.594671
21
0.188794
0
LINE
8
BLACK
6
CONTINUOUS
10
0.594671
20
0.188794
11
0.594671
21
0.188794
0
LINE
8
BLACK
6
CONTINUOUS
10
0.594671
20
0.188794
11
0.596068
21
0.188013
0
LINE
8
BLACK
6
CONTINUOUS
10
0.596068
20
0.188013
11
0.600927
21
0.185297
0
LINE
8
BLACK
6
CONTINUOUS
10
0.600927
20
0.185297
11
0.601108
21
0.185238
0
LINE
8
BLACK
6
CONTINUOUS
10
0.601108
20
0.185238
11
0.607744
21
0.183082
0
LINE
8
BLACK
6
CONTINUOUS
10
0.607744
20
0.183082
11
0.607744
21
0.183082
0
LINE
8
BLACK
6
CONTINUOUS
10
0.607744
20
0.183082
11
0.607925
21
0.183024
0
LINE
8
BLACK
6
CONTINUOUS
10
0.607925
20
0.183024
11
0.615231
21
0.182152
0
LINE
8
BLACK
6
CONTINUOUS
10
0.615231
20
0.182152
11
0.615421
21
0.182167
0
LINE
8
BLACK
6
CONTINUOUS
10
0.615421
20
0.182167
11
0.615421
21
0.182167
0
LINE
8
BLACK
6
CONTINUOUS
10
0.615421
20
0.182167
11
0.617823
21
0.182352
0
LINE
8
BLACK
6
CONTINUOUS
10
0.617823
20
0.182352
11
0.622568
21
0.182717
0
LINE
8
BLACK
6
CONTINUOUS
10
0.622568
20
0.182717
11
0.629655
21
0.184695
0
LINE
8
BLACK
6
CONTINUOUS
10
0.629655
20
0.184695
11
0.629825
21
0.184781
0
LINE
8
BLACK
6
CONTINUOUS
10
0.629825
20
0.184781
11
0.636052
21
0.187927
0
LINE
8
BLACK
6
CONTINUOUS
10
0.636052
20
0.187927
11
0.636052
21
0.187927
0
LINE
8
BLACK
6
CONTINUOUS
10
0.636052
20
0.187927
11
0.636222
21
0.188013
0
LINE
8
BLACK
6
CONTINUOUS
10
0.636222
20
0.188013
11
0.64202
21
0.192543
0
LINE
8
BLACK
6
CONTINUOUS
10
0.64202
20
0.192543
11
0.642145
21
0.192687
0
LINE
8
BLACK
6
CONTINUOUS
10
0.642145
20
0.192687
11
0.642145
21
0.192687
0
LINE
8
BLACK
6
CONTINUOUS
10
0.642145
20
0.192687
11
0.646704
21
0.197969
0
LINE
8
BLACK
6
CONTINUOUS
10
0.646704
20
0.197969
11
0.646828
21
0.198113
0
LINE
8
BLACK
6
CONTINUOUS
10
0.646828
20
0.198113
11
0.647487
21
0.199273
0
LINE
8
BLACK
6
CONTINUOUS
10
0.647487
20
0.199273
11
0.650369
21
0.204345
0
LINE
8
BLACK
6
CONTINUOUS
10
0.650369
20
0.204345
11
0.650369
21
0.204345
0
LINE
8
BLACK
6
CONTINUOUS
10
0.650369
20
0.204345
11
0.650463
21
0.204511
0
LINE
8
BLACK
6
CONTINUOUS
10
0.650463
20
0.204511
11
0.652785
21
0.211493
0
LINE
8
BLACK
6
CONTINUOUS
10
0.652785
20
0.211493
11
0.652878
21
0.212229
0
LINE
8
BLACK
6
CONTINUOUS
10
0.652878
20
0.212229
11
0.653904
21
0.214408
0
LINE
8
BLACK
6
CONTINUOUS
10
0.653904
20
0.214408
11
0.656015
21
0.215569
0
LINE
8
BLACK
6
CONTINUOUS
10
0.656015
20
0.215569
11
0.656745
21
0.215638
0
LINE
8
BLACK
6
CONTINUOUS
10
0.656745
20
0.215638
11
0.760761
21
0.215638
0
LINE
8
BLACK
6
CONTINUOUS
10
0.760761
20
0.215638
11
0.763052
21
0.214893
0
LINE
8
BLACK
6
CONTINUOUS
10
0.763052
20
0.214893
11
0.763287
21
0.214708
0
LINE
8
BLACK
6
CONTINUOUS
10
0.763287
20
0.214708
11
0.763483
21
0.214542
0
LINE
8
BLACK
6
CONTINUOUS
10
0.763483
20
0.214542
11
0.76365
21
0.214449
0
LINE
8
BLACK
6
CONTINUOUS
10
0.76365
20
0.214449
11
0.76365
21
0.214449
0
LINE
8
BLACK
6
CONTINUOUS
10
0.76365
20
0.214449
11
0.766499
21
0.212856
0
LINE
8
BLACK
6
CONTINUOUS
10
0.766499
20
0.212856
11
0.769906
21
0.210952
0
LINE
8
BLACK
6
CONTINUOUS
10
0.769906
20
0.210952
11
0.770087
21
0.210893
0
LINE
8
BLACK
6
CONTINUOUS
10
0.770087
20
0.210893
11
0.776723
21
0.208737
0
LINE
8
BLACK
6
CONTINUOUS
10
0.776723
20
0.208737
11
0.776723
21
0.208737
0
LINE
8
BLACK
6
CONTINUOUS
10
0.776723
20
0.208737
11
0.776904
21
0.208678
0
LINE
8
BLACK
6
CONTINUOUS
10
0.776904
20
0.208678
11
0.78421
21
0.207807
0
LINE
8
BLACK
6
CONTINUOUS
10
0.78421
20
0.207807
11
0.7844
21
0.207822
0
LINE
8
BLACK
6
CONTINUOUS
10
0.7844
20
0.207822
11
0.7844
21
0.207822
0
LINE
8
BLACK
6
CONTINUOUS
10
0.7844
20
0.207822
11
0.786802
21
0.208006
0
LINE
8
BLACK
6
CONTINUOUS
10
0.786802
20
0.208006
11
0.791547
21
0.208372
0
LINE
8
BLACK
6
CONTINUOUS
10
0.791547
20
0.208372
11
0.798634
21
0.21035
0
LINE
8
BLACK
6
CONTINUOUS
10
0.798634
20
0.21035
11
0.798804
21
0.210436
0
LINE
8
BLACK
6
CONTINUOUS
10
0.798804
20
0.210436
11
0.805031
21
0.213582
0
LINE
8
BLACK
6
CONTINUOUS
10
0.805031
20
0.213582
11
0.805031
21
0.213582
0
LINE
8
BLACK
6
CONTINUOUS
10
0.805031
20
0.213582
11
0.805201
21
0.213668
0
LINE
8
BLACK
6
CONTINUOUS
10
0.805201
20
0.213668
11
0.810999
21
0.218198
0
LINE
8
BLACK
6
CONTINUOUS
10
0.810999
20
0.218198
11
0.811124
21
0.218342
0
LINE
8
BLACK
6
CONTINUOUS
10
0.811124
20
0.218342
11
0.811124
21
0.218342
0
LINE
8
BLACK
6
CONTINUOUS
10
0.811124
20
0.218342
11
0.815683
21
0.223624
0
LINE
8
BLACK
6
CONTINUOUS
10
0.815683
20
0.223624
11
0.815807
21
0.223768
0
LINE
8
BLACK
6
CONTINUOUS
10
0.815807
20
0.223768
11
0.817924
21
0.227494
0
LINE
8
BLACK
6
CONTINUOUS
10
0.817924
20
0.227494
11
0.819348
21
0.23
0
LINE
8
BLACK
6
CONTINUOUS
10
0.819348
20
0.23
11
0.819348
21
0.23
0
LINE
8
BLACK
6
CONTINUOUS
10
0.819348
20
0.23
11
0.819442
21
0.230166
0
LINE
8
BLACK
6
CONTINUOUS
10
0.819442
20
0.230166
11
0.820889
21
0.234516
0
LINE
8
BLACK
6
CONTINUOUS
10
0.820889
20
0.234516
11
0.821704
21
0.236967
0
LINE
8
BLACK
6
CONTINUOUS
10
0.821704
20
0.236967
11
0.821704
21
0.236967
0
LINE
8
BLACK
6
CONTINUOUS
10
0.821704
20
0.236967
11
0.821764
21
0.237147
0
LINE
8
BLACK
6
CONTINUOUS
10
0.821764
20
0.237147
11
0.822687
21
0.244447
0
LINE
8
BLACK
6
CONTINUOUS
10
0.822687
20
0.244447
11
0.822701
21
0.2455
0
LINE
8
BLACK
6
CONTINUOUS
10
0.822701
20
0.2455
11
0.821983
21
0.252823
0
LINE
8
BLACK
6
CONTINUOUS
10
0.821983
20
0.252823
11
0.819856
21
0.259867
0
LINE
8
BLACK
6
CONTINUOUS
10
0.819856
20
0.259867
11
0.816402
21
0.266364
0
LINE
8
BLACK
6
CONTINUOUS
10
0.816402
20
0.266364
11
0.811752
21
0.272066
0
LINE
8
BLACK
6
CONTINUOUS
10
0.811752
20
0.272066
11
0.811518
21
0.272259
0
LINE
8
BLACK
6
CONTINUOUS
10
0.811518
20
0.272259
11
0.806229
21
0.276634
0
LINE
8
BLACK
6
CONTINUOUS
10
0.806229
20
0.276634
11
0.806229
21
0.276634
0
LINE
8
BLACK
6
CONTINUOUS
10
0.806229
20
0.276634
11
0.806082
21
0.276756
0
LINE
8
BLACK
6
CONTINUOUS
10
0.806082
20
0.276756
11
0.79961
21
0.280255
0
LINE
8
BLACK
6
CONTINUOUS
10
0.79961
20
0.280255
11
0.792581
21
0.282431
0
LINE
8
BLACK
6
CONTINUOUS
10
0.792581
20
0.282431
11
0.792391
21
0.282451
0
LINE
8
BLACK
6
CONTINUOUS
10
0.792391
20
0.282451
11
0.792391
21
0.282451
0
LINE
8
BLACK
6
CONTINUOUS
10
0.792391
20
0.282451
11
0.785453
21
0.28318
0
LINE
8
BLACK
6
CONTINUOUS
10
0.785453
20
0.28318
11
0.785453
21
0.28318
0
LINE
8
BLACK
6
CONTINUOUS
10
0.785453
20
0.28318
11
0.785263
21
0.2832
0
LINE
8
BLACK
6
CONTINUOUS
10
0.785263
20
0.2832
11
0.782905
21
0.282986
0
LINE
8
BLACK
6
CONTINUOUS
10
0.782905
20
0.282986
11
0.778125
21
0.282551
0
LINE
8
BLACK
6
CONTINUOUS
10
0.778125
20
0.282551
11
0.778125
21
0.282551
0
LINE
8
BLACK
6
CONTINUOUS
10
0.778125
20
0.282551
11
0.777936
21
0.282533
0
LINE
8
BLACK
6
CONTINUOUS
10
0.777936
20
0.282533
11
0.777753
21
0.28248
0
LINE
8
BLACK
6
CONTINUOUS
10
0.777753
20
0.28248
11
0.777753
21
0.28248
0
LINE
8
BLACK
6
CONTINUOUS
10
0.777753
20
0.28248
11
0.77106
21
0.28051
0
LINE
8
BLACK
6
CONTINUOUS
10
0.77106
20
0.28051
11
0.77106
21
0.28051
0
LINE
8
BLACK
6
CONTINUOUS
10
0.77106
20
0.28051
11
0.770877
21
0.280456
0
LINE
8
BLACK
6
CONTINUOUS
10
0.770877
20
0.280456
11
0.764356
21
0.277047
0
LINE
8
BLACK
6
CONTINUOUS
10
0.764356
20
0.277047
11
0.764208
21
0.276928
0
LINE
8
BLACK
6
CONTINUOUS
10
0.764208
20
0.276928
11
0.764207
21
0.276927
0
LINE
8
BLACK
6
CONTINUOUS
10
0.764207
20
0.276927
11
0.76333
21
0.276222
0
LINE
8
BLACK
6
CONTINUOUS
10
0.76333
20
0.276222
11
0.760888
21
0.275362
0
LINE
8
BLACK
6
CONTINUOUS
10
0.760888
20
0.275362
11
0.644236
21
0.275362
0
LINE
8
BLACK
6
CONTINUOUS
10
0.644236
20
0.275362
11
0.643649
21
0.275407
0
LINE
8
BLACK
6
CONTINUOUS
10
0.643649
20
0.275407
11
0.642949
21
0.275513
0
LINE
8
BLACK
6
CONTINUOUS
10
0.642949
20
0.275513
11
0.642949
21
0.275513
0
LINE
8
BLACK
6
CONTINUOUS
10
0.642949
20
0.275513
11
0.642725
21
0.275547
0
LINE
8
BLACK
6
CONTINUOUS
10
0.642725
20
0.275547
11
0.640684
21
0.275381
0
LINE
8
BLACK
6
CONTINUOUS
10
0.640684
20
0.275381
11
0.640609
21
0.275375
0
LINE
8
BLACK
6
CONTINUOUS
10
0.640609
20
0.275375
11
0.640293
21
0.275362
0
LINE
8
BLACK
6
CONTINUOUS
10
0.640293
20
0.275362
11
0.639932
21
0.275362
0
LINE
8
BLACK
6
CONTINUOUS
10
0.639932
20
0.275362
11
0.63982
21
0.275349
0
LINE
8
BLACK
6
CONTINUOUS
10
0.63982
20
0.275349
11
0.63982
21
0.275349
0
LINE
8
BLACK
6
CONTINUOUS
10
0.63982
20
0.275349
11
0.638802
21
0.275231
0
LINE
8
BLACK
6
CONTINUOUS
10
0.638802
20
0.275231
11
0.638667
21
0.275217
0
LINE
8
BLACK
6
CONTINUOUS
10
0.638667
20
0.275217
11
0.63601
21
0.275001
0
LINE
8
BLACK
6
CONTINUOUS
10
0.63601
20
0.275001
11
0.63601
21
0.275001
0
LINE
8
BLACK
6
CONTINUOUS
10
0.63601
20
0.275001
11
0.635784
21
0.274983
0
LINE
8
BLACK
6
CONTINUOUS
10
0.635784
20
0.274983
11
0.635569
21
0.274913
0
LINE
8
BLACK
6
CONTINUOUS
10
0.635569
20
0.274913
11
0.635347
21
0.274869
0
LINE
8
BLACK
6
CONTINUOUS
10
0.635347
20
0.274869
11
0.635346
21
0.274873
0
LINE
8
BLACK
6
CONTINUOUS
10
0.635346
20
0.274873
11
0.635203
21
0.274842
0
LINE
8
BLACK
6
CONTINUOUS
10
0.635203
20
0.274842
11
0.635204
21
0.274837
0
LINE
8
BLACK
6
CONTINUOUS
10
0.635204
20
0.274837
11
0.634984
21
0.274785
0
LINE
8
BLACK
6
CONTINUOUS
10
0.634984
20
0.274785
11
0.634759
21
0.274759
0
LINE
8
BLACK
6
CONTINUOUS
10
0.634759
20
0.274759
11
0.634546
21
0.274682
0
LINE
8
BLACK
6
CONTINUOUS
10
0.634546
20
0.274682
11
0.63204
21
0.273772
0
LINE
8
BLACK
6
CONTINUOUS
10
0.63204
20
0.273772
11
0.631912
21
0.273728
0
LINE
8
BLACK
6
CONTINUOUS
10
0.631912
20
0.273728
11
0.629831
21
0.273054
0
LINE
8
BLACK
6
CONTINUOUS
10
0.629831
20
0.273054
11
0.62916
21
0.272837
0
LINE
8
BLACK
6
CONTINUOUS
10
0.62916
20
0.272837
11
0.628966
21
0.272719
0
LINE
8
BLACK
6
CONTINUOUS
10
0.628966
20
0.272719
11
0.62876
21
0.272625
0
LINE
8
BLACK
6
CONTINUOUS
10
0.62876
20
0.272625
11
0.628759
21
0.272629
0
LINE
8
BLACK
6
CONTINUOUS
10
0.628759
20
0.272629
11
0.628627
21
0.272566
0
LINE
8
BLACK
6
CONTINUOUS
10
0.628627
20
0.272566
11
0.628629
21
0.272562
0
LINE
8
BLACK
6
CONTINUOUS
10
0.628629
20
0.272562
11
0.628427
21
0.272461
0
LINE
8
BLACK
6
CONTINUOUS
10
0.628427
20
0.272461
11
0.628214
21
0.272383
0
LINE
8
BLACK
6
CONTINUOUS
10
0.628214
20
0.272383
11
0.628024
21
0.272259
0
LINE
8
BLACK
6
CONTINUOUS
10
0.628024
20
0.272259
11
0.628024
21
0.272259
0
LINE
8
BLACK
6
CONTINUOUS
10
0.628024
20
0.272259
11
0.625796
21
0.270798
0
LINE
8
BLACK
6
CONTINUOUS
10
0.625796
20
0.270798
11
0.625681
21
0.270725
0
LINE
8
BLACK
6
CONTINUOUS
10
0.625681
20
0.270725
11
0.623355
21
0.269314
0
LINE
8
BLACK
6
CONTINUOUS
10
0.623355
20
0.269314
11
0.623355
21
0.269314
0
LINE
8
BLACK
6
CONTINUOUS
10
0.623355
20
0.269314
11
0.623207
21
0.269224
0
LINE
8
BLACK
6
CONTINUOUS
10
0.623207
20
0.269224
11
0.622877
21
0.268933
0
LINE
8
BLACK
6
CONTINUOUS
10
0.622877
20
0.268933
11
0.622872
21
0.268938
0
LINE
8
BLACK
6
CONTINUOUS
10
0.622872
20
0.268938
11
0.622748
21
0.268841
0
LINE
8
BLACK
6
CONTINUOUS
10
0.622748
20
0.268841
11
0.622753
21
0.268835
0
LINE
8
BLACK
6
CONTINUOUS
10
0.622753
20
0.268835
11
0.622579
21
0.268689
0
LINE
8
BLACK
6
CONTINUOUS
10
0.622579
20
0.268689
11
0.62239
21
0.268565
0
LINE
8
BLACK
6
CONTINUOUS
10
0.62239
20
0.268565
11
0.622235
21
0.268401
0
LINE
8
BLACK
6
CONTINUOUS
10
0.622235
20
0.268401
11
0.620284
21
0.266342
0
LINE
8
BLACK
6
CONTINUOUS
10
0.620284
20
0.266342
11
0.620211
21
0.266267
0
LINE
8
BLACK
6
CONTINUOUS
10
0.620211
20
0.266267
11
0.612007
21
0.258063
0
LINE
8
BLACK
6
CONTINUOUS
10
0.612007
20
0.258063
11
0.609861
21
0.25697
0
LINE
8
BLACK
6
CONTINUOUS
10
0.609861
20
0.25697
11
0.609604
21
0.256938
0
LINE
8
BLACK
6
CONTINUOUS
10
0.609604
20
0.256938
11
0.609146
21
0.256896
0
LINE
8
BLACK
6
CONTINUOUS
10
0.609146
20
0.256896
11
0.609146
21
0.256896
0
LINE
8
BLACK
6
CONTINUOUS
10
0.609146
20
0.256896
11
0.608956
21
0.256879
0
LINE
8
BLACK
6
CONTINUOUS
10
0.608956
20
0.256879
11
0.606226
21
0.256075
0
LINE
8
BLACK
6
CONTINUOUS
10
0.606226
20
0.256075
11
0.602081
21
0.254855
0
LINE
8
BLACK
6
CONTINUOUS
10
0.602081
20
0.254855
11
0.602081
21
0.254855
0
LINE
8
BLACK
6
CONTINUOUS
10
0.602081
20
0.254855
11
0.601898
21
0.254801
0
LINE
8
BLACK
6
CONTINUOUS
10
0.601898
20
0.254801
11
0.595377
21
0.251392
0
LINE
8
BLACK
6
CONTINUOUS
10
0.595377
20
0.251392
11
0.595228
21
0.251273
0
LINE
8
BLACK
6
CONTINUOUS
10
0.595228
20
0.251273
11
0.595228
21
0.251273
0
LINE
8
BLACK
6
CONTINUOUS
10
0.595228
20
0.251273
11
0.589791
21
0.246901
0
LINE
8
BLACK
6
CONTINUOUS
10
0.589791
20
0.246901
11
0.589643
21
0.246782
0
LINE
8
BLACK
6
CONTINUOUS
10
0.589643
20
0.246782
11
0.58952
21
0.246636
0
LINE
8
BLACK
6
CONTINUOUS
10
0.58952
20
0.246636
11
0.58952
21
0.246636
0
LINE
8
BLACK
6
CONTINUOUS
10
0.58952
20
0.246636
11
0.588658
21
0.245609
0
LINE
8
BLACK
6
CONTINUOUS
10
0.588658
20
0.245609
11
0.584913
21
0.241145
0
LINE
8
BLACK
6
CONTINUOUS
10
0.584913
20
0.241145
11
0.584821
21
0.240978
0
LINE
8
BLACK
6
CONTINUOUS
10
0.584821
20
0.240978
11
0.584821
21
0.240978
0
LINE
8
BLACK
6
CONTINUOUS
10
0.584821
20
0.240978
11
0.582616
21
0.236967
0
LINE
8
BLACK
6
CONTINUOUS
10
0.582616
20
0.236967
11
0.581368
21
0.234697
0
LINE
8
BLACK
6
CONTINUOUS
10
0.581368
20
0.234697
11
0.581311
21
0.234516
0
LINE
8
BLACK
6
CONTINUOUS
10
0.581311
20
0.234516
11
0.581311
21
0.234516
0
LINE
8
BLACK
6
CONTINUOUS
10
0.581311
20
0.234516
11
0.579201
21
0.227866
0
LINE
8
BLACK
6
CONTINUOUS
10
0.579201
20
0.227866
11
0.579201
21
0.227865
0
LINE
8
BLACK
6
CONTINUOUS
10
0.579201
20
0.227865
11
0.579144
21
0.227684
0
LINE
8
BLACK
6
CONTINUOUS
10
0.579144
20
0.227684
11
0.578323
21
0.220372
0
LINE
8
BLACK
6
CONTINUOUS
10
0.578323
20
0.220372
11
0.578339
21
0.220182
0
LINE
8
BLACK
6
CONTINUOUS
10
0.578339
20
0.220182
11
0.578886
21
0.213668
0
LINE
8
BLACK
6
CONTINUOUS
10
-0.0498086
20
0.416162
11
-0.0497537
21
0.415657
0
LINE
8
BLACK
6
CONTINUOUS
10
-0.0497537
20
0.415657
11
-0.0477407
21
0.410287
0
LINE
8
BLACK
6
CONTINUOUS
10
-0.0477407
20
0.410287
11
-0.0443016
21
0.405698
0
LINE
8
BLACK
6
CONTINUOUS
10
-0.0443016
20
0.405698
11
-0.0397128
21
0.402259
0
LINE
8
BLACK
6
CONTINUOUS
10
-0.0397128
20
0.402259
11
-0.0343431
21
0.400246
0
LINE
8
BLACK
6
CONTINUOUS
10
-0.0343431
20
0.400246
11
-0.0341002
21
0.40022
0
LINE
8
BLACK
6
CONTINUOUS
10
-0.0341002
20
0.40022
11
-0.0341001
21
0.40022
0
LINE
8
BLACK
6
CONTINUOUS
10
-0.0341001
20
0.40022
11
-0.0326836
21
0.400066
0
LINE
8
BLACK
6
CONTINUOUS
10
-0.0326836
20
0.400066
11
-0.031895
21
0.39998
0
LINE
8
BLACK
6
CONTINUOUS
10
-0.031895
20
0.39998
11
0.031895
21
0.39998
0
LINE
8
BLACK
6
CONTINUOUS
10
0.031895
20
0.39998
11
0.0326836
21
0.400066
0
LINE
8
BLACK
6
CONTINUOUS
10
0.0326836
20
0.400066
11
0.0341001
21
0.40022
0
LINE
8
BLACK
6
CONTINUOUS
10
0.0341001
20
0.40022
11
0.0341002
21
0.40022
0
LINE
8
BLACK
6
CONTINUOUS
10
0.0341002
20
0.40022
11
0.0343431
21
0.400246
0
LINE
8
BLACK
6
CONTINUOUS
10
0.0343431
20
0.400246
11
0.0397128
21
0.402259
0
LINE
8
BLACK
6
CONTINUOUS
10
0.0397128
20
0.402259
11
0.0443016
21
0.405698
0
LINE
8
BLACK
6
CONTINUOUS
10
0.0443016
20
0.405698
11
0.0444681
21
0.405921
0
LINE
8
BLACK
6
CONTINUOUS
10
0.0444681
20
0.405921
11
0.0444683
21
0.405921
0
LINE
8
BLACK
6
CONTINUOUS
10
0.0444683
20
0.405921
11
0.0468811
21
0.40914
0
LINE
8
BLACK
6
CONTINUOUS
10
0.0468811
20
0.40914
11
0.0488507
21
0.410527
0
LINE
8
BLACK
6
CONTINUOUS
10
0.0488507
20
0.410527
11
0.0512593
21
0.410491
0
LINE
8
BLACK
6
CONTINUOUS
10
0.0512593
20
0.410491
11
0.0531189
21
0.40914
0
LINE
8
BLACK
6
CONTINUOUS
10
0.0531189
20
0.40914
11
0.0555317
21
0.405921
0
LINE
8
BLACK
6
CONTINUOUS
10
0.0555317
20
0.405921
11
0.0555319
21
0.405921
0
LINE
8
BLACK
6
CONTINUOUS
10
0.0555319
20
0.405921
11
0.0556984
21
0.405698
0
LINE
8
BLACK
6
CONTINUOUS
10
0.0556984
20
0.405698
11
0.0602872
21
0.402259
0
LINE
8
BLACK
6
CONTINUOUS
10
0.0602872
20
0.402259
11
0.0656569
21
0.400246
0
LINE
8
BLACK
6
CONTINUOUS
10
0.0656569
20
0.400246
11
0.0658998
21
0.40022
0
LINE
8
BLACK
6
CONTINUOUS
10
0.0658998
20
0.40022
11
0.0658999
21
0.40022
0
LINE
8
BLACK
6
CONTINUOUS
10
0.0658999
20
0.40022
11
0.0673164
21
0.400066
0
LINE
8
BLACK
6
CONTINUOUS
10
0.0673164
20
0.400066
11
0.068105
21
0.39998
0
LINE
8
BLACK
6
CONTINUOUS
10
0.068105
20
0.39998
11
0.131895
21
0.39998
0
LINE
8
BLACK
6
CONTINUOUS
10
0.131895
20
0.39998
11
0.132684
21
0.400066
0
LINE
8
BLACK
6
CONTINUOUS
10
0.132684
20
0.400066
11
0.1341
21
0.40022
0
LINE
8
BLACK
6
CONTINUOUS
10
0.1341
20
0.40022
11
0.1341
21
0.40022
0
LINE
8
BLACK
6
CONTINUOUS
10
0.1341
20
0.40022
11
0.134343
21
0.400246
0
LINE
8
BLACK
6
CONTINUOUS
10
0.134343
20
0.400246
11
0.139713
21
0.402259
0
LINE
8
BLACK
6
CONTINUOUS
10
0.139713
20
0.402259
11
0.144302
21
0.405698
0
LINE
8
BLACK
6
CONTINUOUS
10
0.144302
20
0.405698
11
0.147741
21
0.410287
0
LINE
8
BLACK
6
CONTINUOUS
10
0.147741
20
0.410287
11
0.149754
21
0.415657
0
LINE
8
BLACK
6
CONTINUOUS
10
0.149754
20
0.415657
11
0.149809
21
0.416162
0
LINE
8
BLACK
6
CONTINUOUS
10
0.149809
20
0.416162
11
0.150008
21
0.418
0
LINE
8
BLACK
6
CONTINUOUS
10
0.150008
20
0.418
11
0.15002
21
0.418105
0
LINE
8
BLACK
6
CONTINUOUS
10
0.15002
20
0.418105
11
0.15002
21
0.481895
0
LINE
8
BLACK
6
CONTINUOUS
10
0.15002
20
0.481895
11
0.149754
21
0.484343
0
LINE
8
BLACK
6
CONTINUOUS
10
0.149754
20
0.484343
11
0.147741
21
0.489713
0
LINE
8
BLACK
6
CONTINUOUS
10
0.147741
20
0.489713
11
0.144302
21
0.494302
0
LINE
8
BLACK
6
CONTINUOUS
10
0.144302
20
0.494302
11
0.139713
21
0.497741
0
LINE
8
BLACK
6
CONTINUOUS
10
0.139713
20
0.497741
11
0.134343
21
0.499754
0
LINE
8
BLACK
6
CONTINUOUS
10
0.134343
20
0.499754
11
0.1341
21
0.49978
0
LINE
8
BLACK
6
CONTINUOUS
10
0.1341
20
0.49978
11
0.1341
21
0.49978
0
LINE
8
BLACK
6
CONTINUOUS
10
0.1341
20
0.49978
11
0.132684
21
0.499934
0
LINE
8
BLACK
6
CONTINUOUS
10
0.132684
20
0.499934
11
0.131895
21
0.50002
0
LINE
8
BLACK
6
CONTINUOUS
10
0.131895
20
0.50002
11
0.068105
21
0.50002
0
LINE
8
BLACK
6
CONTINUOUS
10
0.068105
20
0.50002
11
0.0673164
21
0.499934
0
LINE
8
BLACK
6
CONTINUOUS
10
0.0673164
20
0.499934
11
0.0658999
21
0.49978
0
LINE
8
BLACK
6
CONTINUOUS
10
0.0658999
20
0.49978
11
0.0658998
21
0.49978
0
LINE
8
BLACK
6
CONTINUOUS
10
0.0658998
20
0.49978
11
0.0656569
21
0.499754
0
LINE
8
BLACK
6
CONTINUOUS
10
0.0656569
20
0.499754
11
0.0602872
21
0.497741
0
LINE
8
BLACK
6
CONTINUOUS
10
0.0602872
20
0.497741
11
0.0556984
21
0.494302
0
LINE
8
BLACK
6
CONTINUOUS
10
0.0556984
20
0.494302
11
0.0555319
21
0.494079
0
LINE
8
BLACK
6
CONTINUOUS
10
0.0555319
20
0.494079
11
0.0555317
21
0.494079
0
LINE
8
BLACK
6
CONTINUOUS
10
0.0555317
20
0.494079
11
0.0531189
21
0.49086
0
LINE
8
BLACK
6
CONTINUOUS
10
0.0531189
20
0.49086
11
0.0511493
21
0.489473
0
LINE
8
BLACK
6
CONTINUOUS
10
0.0511493
20
0.489473
11
0.0487407
21
0.489509
0
LINE
8
BLACK
6
CONTINUOUS
10
0.0487407
20
0.489509
11
0.0468811
21
0.49086
0
LINE
8
BLACK
6
CONTINUOUS
10
0.0468811
20
0.49086
11
0.0444683
21
0.494079
0
LINE
8
BLACK
6
CONTINUOUS
10
0.0444683
20
0.494079
11
0.0444681
21
0.494079
0
LINE
8
BLACK
6
CONTINUOUS
10
0.0444681
20
0.494079
11
0.0443016
21
0.494302
0
LINE
8
BLACK
6
CONTINUOUS
10
0.0443016
20
0.494302
11
0.0397128
21
0.497741
0
LINE
8
BLACK
6
CONTINUOUS
10
0.0397128
20
0.497741
11
0.0343431
21
0.499754
0
LINE
8
BLACK
6
CONTINUOUS
10
0.0343431
20
0.499754
11
0.0341002
21
0.49978
0
LINE
8
BLACK
6
CONTINUOUS
10
0.0341002
20
0.49978
11
0.0341001
21
0.49978
0
LINE
8
BLACK
6
CONTINUOUS
10
0.0341001
20
0.49978
11
0.0326836
21
0.499934
0
LINE
8
BLACK
6
CONTINUOUS
10
0.0326836
20
0.499934
11
0.031895
21
0.50002
0
LINE
8
BLACK
6
CONTINUOUS
10
0.031895
20
0.50002
11
-0.031895
21
0.50002
0
LINE
8
BLACK
6
CONTINUOUS
10
-0.031895
20
0.50002
11
-0.0326836
21
0.499934
0
LINE
8
BLACK
6
CONTINUOUS
10
-0.0326836
20
0.499934
11
-0.0341001
21
0.49978
0
LINE
8
BLACK
6
CONTINUOUS
10
-0.0341001
20
0.49978
11
-0.0341002
21
0.49978
0
LINE
8
BLACK
6
CONTINUOUS
10
-0.0341002
20
0.49978
11
-0.0343431
21
0.499754
0
LINE
8
BLACK
6
CONTINUOUS
10
-0.0343431
20
0.499754
11
-0.0397128
21
0.497741
0
LINE
8
BLACK
6
CONTINUOUS
10
-0.0397128
20
0.497741
11
-0.0443016
21
0.494302
0
LINE
8
BLACK
6
CONTINUOUS
10
-0.0443016
20
0.494302
11
-0.0477407
21
0.489713
0
LINE
8
BLACK
6
CONTINUOUS
10
-0.0477407
20
0.489713
11
-0.0497537
21
0.484343
0
LINE
8
BLACK
6
CONTINUOUS
10
-0.0497537
20
0.484343
11
-0.0500197
21
0.481895
0
LINE
8
BLACK
6
CONTINUOUS
10
-0.0500197
20
0.481895
11
-0.0500197
21
0.418105
0
LINE
8
BLACK
6
CONTINUOUS
10
-0.0500197
20
0.418105
11
-0.0500083
21
0.418
0
LINE
8
BLACK
6
CONTINUOUS
10
-0.0500083
20
0.418
11
-0.0498086
21
0.416162
0
LINE
8
BLACK
6
CONTINUOUS
10
0.327259
20
0.335287
11
0.330698
21
0.330698
0
LINE
8
BLACK
6
CONTINUOUS
10
0.330698
20
0.330698
11
0.335287
21
0.327259
0
LINE
8
BLACK
6
CONTINUOUS
10
0.335287
20
0.327259
11
0.340657
21
0.325246
0
LINE
8
BLACK
6
CONTINUOUS
10
0.340657
20
0.325246
11
0.3409
21
0.32522
0
LINE
8
BLACK
6
CONTINUOUS
10
0.3409
20
0.32522
11
0.3409
21
0.32522
0
LINE
8
BLACK
6
CONTINUOUS
10
0.3409
20
0.32522
11
0.342316
21
0.325066
0
LINE
8
BLACK
6
CONTINUOUS
10
0.342316
20
0.325066
11
0.343105
21
0.32498
0
LINE
8
BLACK
6
CONTINUOUS
10
0.343105
20
0.32498
11
0.406895
21
0.32498
0
LINE
8
BLACK
6
CONTINUOUS
10
0.406895
20
0.32498
11
0.407684
21
0.325066
0
LINE
8
BLACK
6
CONTINUOUS
10
0.407684
20
0.325066
11
0.4091
21
0.32522
0
LINE
8
BLACK
6
CONTINUOUS
10
0.4091
20
0.32522
11
0.4091
21
0.32522
0
LINE
8
BLACK
6
CONTINUOUS
10
0.4091
20
0.32522
11
0.409343
21
0.325246
0
LINE
8
BLACK
6
CONTINUOUS
10
0.409343
20
0.325246
11
0.414713
21
0.327259
0
LINE
8
BLACK
6
CONTINUOUS
10
0.414713
20
0.327259
11
0.419302
21
0.330698
0
LINE
8
BLACK
6
CONTINUOUS
10
0.419302
20
0.330698
11
0.422741
21
0.335287
0
LINE
8
BLACK
6
CONTINUOUS
10
0.422741
20
0.335287
11
0.424754
21
0.340657
0
LINE
8
BLACK
6
CONTINUOUS
10
0.424754
20
0.340657
11
0.42502
21
0.343105
0
LINE
8
BLACK
6
CONTINUOUS
10
0.42502
20
0.343105
11
0.42502
21
0.406895
0
LINE
8
BLACK
6
CONTINUOUS
10
0.42502
20
0.406895
11
0.424754
21
0.409343
0
LINE
8
BLACK
6
CONTINUOUS
10
0.424754
20
0.409343
11
0.422926
21
0.41422
0
LINE
8
BLACK
6
CONTINUOUS
10
0.422926
20
0.41422
11
0.422838
21
0.414453
0
LINE
8
BLACK
6
CONTINUOUS
10
0.422838
20
0.414453
11
0.422838
21
0.414453
0
LINE
8
BLACK
6
CONTINUOUS
10
0.422838
20
0.414453
11
0.422741
21
0.414713
0
LINE
8
BLACK
6
CONTINUOUS
10
0.422741
20
0.414713
11
0.419302
21
0.419302
0
LINE
8
BLACK
6
CONTINUOUS
10
0.419302
20
0.419302
11
0.414713
21
0.422741
0
LINE
8
BLACK
6
CONTINUOUS
10
0.414713
20
0.422741
11
0.409343
21
0.424754
0
LINE
8
BLACK
6
CONTINUOUS
10
0.409343
20
0.424754
11
0.4091
21
0.42478
0
LINE
8
BLACK
6
CONTINUOUS
10
0.4091
20
0.42478
11
0.4091
21
0.42478
0
LINE
8
BLACK
6
CONTINUOUS
10
0.4091
20
0.42478
11
0.407684
21
0.424934
0
LINE
8
BLACK
6
CONTINUOUS
10
0.407684
20
0.424934
11
0.406895
21
0.42502
0
LINE
8
BLACK
6
CONTINUOUS
10
0.406895
20
0.42502
11
0.343105
21
0.42502
0
LINE
8
BLACK
6
CONTINUOUS
10
0.343105
20
0.42502
11
0.342316
21
0.424934
0
LINE
8
BLACK
6
CONTINUOUS
10
0.342316
20
0.424934
11
0.3409
21
0.42478
0
LINE
8
BLACK
6
CONTINUOUS
10
0.3409
20
0.42478
11
0.3409
21
0.42478
0
LINE
8
BLACK
6
CONTINUOUS
10
0.3409
20
0.42478
11
0.340657
21
0.424754
0
LINE
8
BLACK
6
CONTINUOUS
10
0.340657
20
0.424754
11
0.335287
21
0.422741
0
LINE
8
BLACK
6
CONTINUOUS
10
0.335287
20
0.422741
11
0.330698
21
0.419302
0
LINE
8
BLACK
6
CONTINUOUS
10
0.330698
20
0.419302
11
0.327259
21
0.414713
0
LINE
8
BLACK
6
CONTINUOUS
10
0.327259
20
0.414713
11
0.327162
21
0.414453
0
LINE
8
BLACK
6
CONTINUOUS
10
0.327162
20
0.414453
11
0.327162
21
0.414453
0
LINE
8
BLACK
6
CONTINUOUS
10
0.327162
20
0.414453
11
0.327074
21
0.41422
0
LINE
8
BLACK
6
CONTINUOUS
10
0.327074
20
0.41422
11
0.325246
21
0.409343
0
LINE
8
BLACK
6
CONTINUOUS
10
0.325246
20
0.409343
11
0.32498
21
0.406895
0
LINE
8
BLACK
6
CONTINUOUS
10
0.32498
20
0.406895
11
0.32498
21
0.343105
0
LINE
8
BLACK
6
CONTINUOUS
10
0.32498
20
0.343105
11
0.325246
21
0.340657
0
LINE
8
BLACK
6
CONTINUOUS
10
0.325246
20
0.340657
11
0.327259
21
0.335287
0
LINE
8
BLACK
6
CONTINUOUS
10
0.651946
20
0.519121
11
0.65531
21
0.512577
0
LINE
8
BLACK
6
CONTINUOUS
10
0.65531
20
0.512577
11
0.655428
21
0.512427
0
LINE
8
BLACK
6
CONTINUOUS
10
0.655428
20
0.512427
11
0.655428
21
0.512427
0
LINE
8
BLACK
6
CONTINUOUS
10
0.655428
20
0.512427
11
0.656295
21
0.511334
0
LINE
8
BLACK
6
CONTINUOUS
10
0.656295
20
0.511334
11
0.657138
21
0.508913
0
LINE
8
BLACK
6
CONTINUOUS
10
0.657138
20
0.508913
11
0.657138
21
0.465565
0
LINE
8
BLACK
6
CONTINUOUS
10
0.657138
20
0.465565
11
0.657093
21
0.464979
0
LINE
8
BLACK
6
CONTINUOUS
10
0.657093
20
0.464979
11
0.656953
21
0.464055
0
LINE
8
BLACK
6
CONTINUOUS
10
0.656953
20
0.464055
11
0.656971
21
0.463829
0
LINE
8
BLACK
6
CONTINUOUS
10
0.656971
20
0.463829
11
0.657125
21
0.461938
0
LINE
8
BLACK
6
CONTINUOUS
10
0.657125
20
0.461938
11
0.657138
21
0.461622
0
LINE
8
BLACK
6
CONTINUOUS
10
0.657138
20
0.461622
11
0.657138
21
0.461262
0
LINE
8
BLACK
6
CONTINUOUS
10
0.657138
20
0.461262
11
0.657151
21
0.46115
0
LINE
8
BLACK
6
CONTINUOUS
10
0.657151
20
0.46115
11
0.657151
21
0.461149
0
LINE
8
BLACK
6
CONTINUOUS
10
0.657151
20
0.461149
11
0.657269
21
0.460132
0
LINE
8
BLACK
6
CONTINUOUS
10
0.657269
20
0.460132
11
0.657283
21
0.459997
0
LINE
8
BLACK
6
CONTINUOUS
10
0.657283
20
0.459997
11
0.657517
21
0.457114
0
LINE
8
BLACK
6
CONTINUOUS
10
0.657517
20
0.457114
11
0.657587
21
0.456899
0
LINE
8
BLACK
6
CONTINUOUS
10
0.657587
20
0.456899
11
0.657631
21
0.456677
0
LINE
8
BLACK
6
CONTINUOUS
10
0.657631
20
0.456677
11
0.657627
21
0.456676
0
LINE
8
BLACK
6
CONTINUOUS
10
0.657627
20
0.456676
11
0.657658
21
0.456533
0
LINE
8
BLACK
6
CONTINUOUS
10
0.657658
20
0.456533
11
0.657663
21
0.456534
0
LINE
8
BLACK
6
CONTINUOUS
10
0.657663
20
0.456534
11
0.657715
21
0.456314
0
LINE
8
BLACK
6
CONTINUOUS
10
0.657715
20
0.456314
11
0.657741
21
0.456089
0
LINE
8
BLACK
6
CONTINUOUS
10
0.657741
20
0.456089
11
0.657818
21
0.455876
0
LINE
8
BLACK
6
CONTINUOUS
10
0.657818
20
0.455876
11
0.658728
21
0.45337
0
LINE
8
BLACK
6
CONTINUOUS
10
0.658728
20
0.45337
11
0.658772
21
0.453241
0
LINE
8
BLACK
6
CONTINUOUS
10
0.658772
20
0.453241
11
0.659663
21
0.45049
0
LINE
8
BLACK
6
CONTINUOUS
10
0.659663
20
0.45049
11
0.659781
21
0.450296
0
LINE
8
BLACK
6
CONTINUOUS
10
0.659781
20
0.450296
11
0.659875
21
0.45009
0
LINE
8
BLACK
6
CONTINUOUS
10
0.659875
20
0.45009
11
0.659871
21
0.450088
0
LINE
8
BLACK
6
CONTINUOUS
10
0.659871
20
0.450088
11
0.659934
21
0.449957
0
LINE
8
BLACK
6
CONTINUOUS
10
0.659934
20
0.449957
11
0.659938
21
0.449959
0
LINE
8
BLACK
6
CONTINUOUS
10
0.659938
20
0.449959
11
0.660039
21
0.449756
0
LINE
8
BLACK
6
CONTINUOUS
10
0.660039
20
0.449756
11
0.660117
21
0.449543
0
LINE
8
BLACK
6
CONTINUOUS
10
0.660117
20
0.449543
11
0.660241
21
0.449354
0
LINE
8
BLACK
6
CONTINUOUS
10
0.660241
20
0.449354
11
0.661703
21
0.447125
0
LINE
8
BLACK
6
CONTINUOUS
10
0.661703
20
0.447125
11
0.661775
21
0.44701
0
LINE
8
BLACK
6
CONTINUOUS
10
0.661775
20
0.44701
11
0.663276
21
0.444537
0
LINE
8
BLACK
6
CONTINUOUS
10
0.663276
20
0.444537
11
0.663391
21
0.444406
0
LINE
8
BLACK
6
CONTINUOUS
10
0.663391
20
0.444406
11
0.663567
21
0.444207
0
LINE
8
BLACK
6
CONTINUOUS
10
0.663567
20
0.444207
11
0.663561
21
0.444202
0
LINE
8
BLACK
6
CONTINUOUS
10
0.663561
20
0.444202
11
0.663659
21
0.444077
0
LINE
8
BLACK
6
CONTINUOUS
10
0.663659
20
0.444077
11
0.663665
21
0.444083
0
LINE
8
BLACK
6
CONTINUOUS
10
0.663665
20
0.444083
11
0.663811
21
0.443909
0
LINE
8
BLACK
6
CONTINUOUS
10
0.663811
20
0.443909
11
0.663935
21
0.44372
0
LINE
8
BLACK
6
CONTINUOUS
10
0.663935
20
0.44372
11
0.664099
21
0.443564
0
LINE
8
BLACK
6
CONTINUOUS
10
0.664099
20
0.443564
11
0.666158
21
0.441614
0
LINE
8
BLACK
6
CONTINUOUS
10
0.666158
20
0.441614
11
0.666233
21
0.44154
0
LINE
8
BLACK
6
CONTINUOUS
10
0.666233
20
0.44154
11
0.736972
21
0.370802
0
LINE
8
BLACK
6
CONTINUOUS
10
0.736972
20
0.370802
11
0.738066
21
0.368655
0
LINE
8
BLACK
6
CONTINUOUS
10
0.738066
20
0.368655
11
0.7381
21
0.368372
0
LINE
8
BLACK
6
CONTINUOUS
10
0.7381
20
0.368372
11
0.738133
21
0.367985
0
LINE
8
BLACK
6
CONTINUOUS
10
0.738133
20
0.367985
11
0.740161
21
0.360912
0
LINE
8
BLACK
6
CONTINUOUS
10
0.740161
20
0.360912
11
0.743524
21
0.354368
0
LINE
8
BLACK
6
CONTINUOUS
10
0.743524
20
0.354368
11
0.748094
21
0.348601
0
LINE
8
BLACK
6
CONTINUOUS
10
0.748094
20
0.348601
11
0.748239
21
0.348478
0
LINE
8
BLACK
6
CONTINUOUS
10
0.748239
20
0.348478
11
0.748239
21
0.348478
0
LINE
8
BLACK
6
CONTINUOUS
10
0.748239
20
0.348478
11
0.74954
21
0.347371
0
LINE
8
BLACK
6
CONTINUOUS
10
0.74954
20
0.347371
11
0.753698
21
0.343833
0
LINE
8
BLACK
6
CONTINUOUS
10
0.753698
20
0.343833
11
0.753864
21
0.34374
0
LINE
8
BLACK
6
CONTINUOUS
10
0.753864
20
0.34374
11
0.753864
21
0.34374
0
LINE
8
BLACK
6
CONTINUOUS
10
0.753864
20
0.34374
11
0.755261
21
0.342959
0
LINE
8
BLACK
6
CONTINUOUS
10
0.755261
20
0.342959
11
0.760121
21
0.340243
0
LINE
8
BLACK
6
CONTINUOUS
10
0.760121
20
0.340243
11
0.760302
21
0.340184
0
LINE
8
BLACK
6
CONTINUOUS
10
0.760302
20
0.340184
11
0.766937
21
0.338028
0
LINE
8
BLACK
6
CONTINUOUS
10
0.766937
20
0.338028
11
0.766937
21
0.338028
0
LINE
8
BLACK
6
CONTINUOUS
10
0.766937
20
0.338028
11
0.767119
21
0.337969
0
LINE
8
BLACK
6
CONTINUOUS
10
0.767119
20
0.337969
11
0.774425
21
0.337098
0
LINE
8
BLACK
6
CONTINUOUS
10
0.774425
20
0.337098
11
0.774615
21
0.337113
0
LINE
8
BLACK
6
CONTINUOUS
10
0.774615
20
0.337113
11
0.774615
21
0.337113
0
LINE
8
BLACK
6
CONTINUOUS
10
0.774615
20
0.337113
11
0.777016
21
0.337297
0
LINE
8
BLACK
6
CONTINUOUS
10
0.777016
20
0.337297
11
0.781761
21
0.337662
0
LINE
8
BLACK
6
CONTINUOUS
10
0.781761
20
0.337662
11
0.788848
21
0.339641
0
LINE
8
BLACK
6
CONTINUOUS
10
0.788848
20
0.339641
11
0.789018
21
0.339727
0
LINE
8
BLACK
6
CONTINUOUS
10
0.789018
20
0.339727
11
0.795246
21
0.342873
0
LINE
8
BLACK
6
CONTINUOUS
10
0.795246
20
0.342873
11
0.795246
21
0.342873
0
LINE
8
BLACK
6
CONTINUOUS
10
0.795246
20
0.342873
11
0.795416
21
0.342959
0
LINE
8
BLACK
6
CONTINUOUS
10
0.795416
20
0.342959
11
0.801214
21
0.347489
0
LINE
8
BLACK
6
CONTINUOUS
10
0.801214
20
0.347489
11
0.801338
21
0.347633
0
LINE
8
BLACK
6
CONTINUOUS
10
0.801338
20
0.347633
11
0.801339
21
0.347633
0
LINE
8
BLACK
6
CONTINUOUS
10
0.801339
20
0.347633
11
0.805897
21
0.352914
0
LINE
8
BLACK
6
CONTINUOUS
10
0.805897
20
0.352914
11
0.806022
21
0.353059
0
LINE
8
BLACK
6
CONTINUOUS
10
0.806022
20
0.353059
11
0.806681
21
0.354218
0
LINE
8
BLACK
6
CONTINUOUS
10
0.806681
20
0.354218
11
0.809562
21
0.359291
0
LINE
8
BLACK
6
CONTINUOUS
10
0.809562
20
0.359291
11
0.809562
21
0.359291
0
LINE
8
BLACK
6
CONTINUOUS
10
0.809562
20
0.359291
11
0.809656
21
0.359456
0
LINE
8
BLACK
6
CONTINUOUS
10
0.809656
20
0.359456
11
0.810201
21
0.361096
0
LINE
8
BLACK
6
CONTINUOUS
10
0.810201
20
0.361096
11
0.811919
21
0.366258
0
LINE
8
BLACK
6
CONTINUOUS
10
0.811919
20
0.366258
11
0.811919
21
0.366258
0
LINE
8
BLACK
6
CONTINUOUS
10
0.811919
20
0.366258
11
0.811979
21
0.366438
0
LINE
8
BLACK
6
CONTINUOUS
10
0.811979
20
0.366438
11
0.812198
21
0.368175
0
LINE
8
BLACK
6
CONTINUOUS
10
0.812198
20
0.368175
11
0.812887
21
0.37363
0
LINE
8
BLACK
6
CONTINUOUS
10
0.812887
20
0.37363
11
0.812901
21
0.373738
0
LINE
8
BLACK
6
CONTINUOUS
10
0.812901
20
0.373738
11
0.812916
21
0.374791
0
LINE
8
BLACK
6
CONTINUOUS
10
0.812916
20
0.374791
11
0.812198
21
0.382114
0
LINE
8
BLACK
6
CONTINUOUS
10
0.812198
20
0.382114
11
0.810071
21
0.389158
0
LINE
8
BLACK
6
CONTINUOUS
10
0.810071
20
0.389158
11
0.806617
21
0.395654
0
LINE
8
BLACK
6
CONTINUOUS
10
0.806617
20
0.395654
11
0.801966
21
0.401356
0
LINE
8
BLACK
6
CONTINUOUS
10
0.801966
20
0.401356
11
0.796718
21
0.405698
0
LINE
8
BLACK
6
CONTINUOUS
10
0.796718
20
0.405698
11
0.796443
21
0.405925
0
LINE
8
BLACK
6
CONTINUOUS
10
0.796443
20
0.405925
11
0.796443
21
0.405925
0
LINE
8
BLACK
6
CONTINUOUS
10
0.796443
20
0.405925
11
0.796297
21
0.406047
0
LINE
8
BLACK
6
CONTINUOUS
10
0.796297
20
0.406047
11
0.790575
21
0.40914
0
LINE
8
BLACK
6
CONTINUOUS
10
0.790575
20
0.40914
11
0.789992
21
0.409456
0
LINE
8
BLACK
6
CONTINUOUS
10
0.789992
20
0.409456
11
0.789992
21
0.409456
0
LINE
8
BLACK
6
CONTINUOUS
10
0.789992
20
0.409456
11
0.789824
21
0.409546
0
LINE
8
BLACK
6
CONTINUOUS
10
0.789824
20
0.409546
11
0.786772
21
0.410491
0
LINE
8
BLACK
6
CONTINUOUS
10
0.786772
20
0.410491
11
0.782977
21
0.411666
0
LINE
8
BLACK
6
CONTINUOUS
10
0.782977
20
0.411666
11
0.782977
21
0.411666
0
LINE
8
BLACK
6
CONTINUOUS
10
0.782977
20
0.411666
11
0.782795
21
0.411722
0
LINE
8
BLACK
6
CONTINUOUS
10
0.782795
20
0.411722
11
0.782606
21
0.411742
0
LINE
8
BLACK
6
CONTINUOUS
10
0.782606
20
0.411742
11
0.782606
21
0.411742
0
LINE
8
BLACK
6
CONTINUOUS
10
0.782606
20
0.411742
11
0.782176
21
0.411787
0
LINE
8
BLACK
6
CONTINUOUS
10
0.782176
20
0.411787
11
0.78162
21
0.411846
0
LINE
8
BLACK
6
CONTINUOUS
10
0.78162
20
0.411846
11
0.779271
21
0.412966
0
LINE
8
BLACK
6
CONTINUOUS
10
0.779271
20
0.412966
11
0.718004
21
0.474233
0
LINE
8
BLACK
6
CONTINUOUS
10
0.718004
20
0.474233
11
0.71691
21
0.476379
0
LINE
8
BLACK
6
CONTINUOUS
10
0.71691
20
0.476379
11
0.716862
21
0.476989
0
LINE
8
BLACK
6
CONTINUOUS
10
0.716862
20
0.476989
11
0.716862
21
0.499371
0
LINE
8
BLACK
6
CONTINUOUS
10
0.716862
20
0.499371
11
0.717607
21
0.501662
0
LINE
8
BLACK
6
CONTINUOUS
10
0.717607
20
0.501662
11
0.719555
21
0.503077
0
LINE
8
BLACK
6
CONTINUOUS
10
0.719555
20
0.503077
11
0.721964
21
0.503077
0
LINE
8
BLACK
6
CONTINUOUS
10
0.721964
20
0.503077
11
0.723516
21
0.502127
0
LINE
8
BLACK
6
CONTINUOUS
10
0.723516
20
0.502127
11
0.839632
21
0.386011
0
LINE
8
BLACK
6
CONTINUOUS
10
0.839632
20
0.386011
11
0.840725
21
0.383864
0
LINE
8
BLACK
6
CONTINUOUS
10
0.840725
20
0.383864
11
0.84076
21
0.383581
0
LINE
8
BLACK
6
CONTINUOUS
10
0.84076
20
0.383581
11
0.840792
21
0.383194
0
LINE
8
BLACK
6
CONTINUOUS
10
0.840792
20
0.383194
11
0.84282
21
0.376121
0
LINE
8
BLACK
6
CONTINUOUS
10
0.84282
20
0.376121
11
0.846184
21
0.369577
0
LINE
8
BLACK
6
CONTINUOUS
10
0.846184
20
0.369577
11
0.846302
21
0.369427
0
LINE
8
BLACK
6
CONTINUOUS
10
0.846302
20
0.369427
11
0.846302
21
0.369427
0
LINE
8
BLACK
6
CONTINUOUS
10
0.846302
20
0.369427
11
0.847169
21
0.368334
0
LINE
8
BLACK
6
CONTINUOUS
10
0.847169
20
0.368334
11
0.848012
21
0.365913
0
LINE
8
BLACK
6
CONTINUOUS
10
0.848012
20
0.365913
11
0.848012
21
0.211364
0
LINE
8
BLACK
6
CONTINUOUS
10
0.848012
20
0.211364
11
0.847268
21
0.209073
0
LINE
8
BLACK
6
CONTINUOUS
10
0.847268
20
0.209073
11
0.84592
21
0.20791
0
LINE
8
BLACK
6
CONTINUOUS
10
0.84592
20
0.20791
11
0.842525
21
0.206136
0
LINE
8
BLACK
6
CONTINUOUS
10
0.842525
20
0.206136
11
0.842525
21
0.206135
0
LINE
8
BLACK
6
CONTINUOUS
10
0.842525
20
0.206135
11
0.842356
21
0.206047
0
LINE
8
BLACK
6
CONTINUOUS
10
0.842356
20
0.206047
11
0.842208
21
0.205928
0
LINE
8
BLACK
6
CONTINUOUS
10
0.842208
20
0.205928
11
0.842207
21
0.205927
0
LINE
8
BLACK
6
CONTINUOUS
10
0.842207
20
0.205927
11
0.83677
21
0.201556
0
LINE
8
BLACK
6
CONTINUOUS
10
0.83677
20
0.201556
11
0.836622
21
0.201436
0
LINE
8
BLACK
6
CONTINUOUS
10
0.836622
20
0.201436
11
0.836499
21
0.201291
0
LINE
8
BLACK
6
CONTINUOUS
10
0.836499
20
0.201291
11
0.836499
21
0.201291
0
LINE
8
BLACK
6
CONTINUOUS
10
0.836499
20
0.201291
11
0.835074
21
0.199592
0
LINE
8
BLACK
6
CONTINUOUS
10
0.835074
20
0.199592
11
0.831892
21
0.1958
0
LINE
8
BLACK
6
CONTINUOUS
10
0.831892
20
0.1958
11
0.8318
21
0.195633
0
LINE
8
BLACK
6
CONTINUOUS
10
0.8318
20
0.195633
11
0.8318
21
0.195633
0
LINE
8
BLACK
6
CONTINUOUS
10
0.8318
20
0.195633
11
0.828603
21
0.189817
0
LINE
8
BLACK
6
CONTINUOUS
10
0.828603
20
0.189817
11
0.828347
21
0.189352
0
LINE
8
BLACK
6
CONTINUOUS
10
0.828347
20
0.189352
11
0.82829
21
0.18917
0
LINE
8
BLACK
6
CONTINUOUS
10
0.82829
20
0.18917
11
0.82829
21
0.18917
0
LINE
8
BLACK
6
CONTINUOUS
10
0.82829
20
0.18917
11
0.82618
21
0.18252
0
LINE
8
BLACK
6
CONTINUOUS
10
0.82618
20
0.18252
11
0.82618
21
0.18252
0
LINE
8
BLACK
6
CONTINUOUS
10
0.82618
20
0.18252
11
0.826123
21
0.182339
0
LINE
8
BLACK
6
CONTINUOUS
10
0.826123
20
0.182339
11
0.826101
21
0.182149
0
LINE
8
BLACK
6
CONTINUOUS
10
0.826101
20
0.182149
11
0.825785
21
0.179325
0
LINE
8
BLACK
6
CONTINUOUS
10
0.825785
20
0.179325
11
0.825302
21
0.175026
0
LINE
8
BLACK
6
CONTINUOUS
10
0.825302
20
0.175026
11
0.825318
21
0.174837
0
LINE
8
BLACK
6
CONTINUOUS
10
0.825318
20
0.174837
11
0.825862
21
0.168359
0
LINE
8
BLACK
6
CONTINUOUS
10
0.825862
20
0.168359
11
0.825918
21
0.167694
0
LINE
8
BLACK
6
CONTINUOUS
10
0.825918
20
0.167694
11
0.827946
21
0.160621
0
LINE
8
BLACK
6
CONTINUOUS
10
0.827946
20
0.160621
11
0.83131
21
0.154077
0
LINE
8
BLACK
6
CONTINUOUS
10
0.83131
20
0.154077
11
0.83588
21
0.148311
0
LINE
8
BLACK
6
CONTINUOUS
10
0.83588
20
0.148311
11
0.836025
21
0.148187
0
LINE
8
BLACK
6
CONTINUOUS
10
0.836025
20
0.148187
11
0.836025
21
0.148187
0
LINE
8
BLACK
6
CONTINUOUS
10
0.836025
20
0.148187
11
0.837325
21
0.14708
0
LINE
8
BLACK
6
CONTINUOUS
10
0.837325
20
0.14708
11
0.841483
21
0.143542
0
LINE
8
BLACK
6
CONTINUOUS
10
0.841483
20
0.143542
11
0.84165
21
0.143449
0
LINE
8
BLACK
6
CONTINUOUS
10
0.84165
20
0.143449
11
0.84165
21
0.143449
0
LINE
8
BLACK
6
CONTINUOUS
10
0.84165
20
0.143449
11
0.843047
21
0.142668
0
LINE
8
BLACK
6
CONTINUOUS
10
0.843047
20
0.142668
11
0.847906
21
0.139952
0
LINE
8
BLACK
6
CONTINUOUS
10
0.847906
20
0.139952
11
0.848087
21
0.139893
0
LINE
8
BLACK
6
CONTINUOUS
10
0.848087
20
0.139893
11
0.854723
21
0.137737
0
LINE
8
BLACK
6
CONTINUOUS
10
0.854723
20
0.137737
11
0.854723
21
0.137737
0
LINE
8
BLACK
6
CONTINUOUS
10
0.854723
20
0.137737
11
0.854904
21
0.137678
0
LINE
8
BLACK
6
CONTINUOUS
10
0.854904
20
0.137678
11
0.86221
21
0.136807
0
LINE
8
BLACK
6
CONTINUOUS
10
0.86221
20
0.136807
11
0.8624
21
0.136822
0
LINE
8
BLACK
6
CONTINUOUS
10
0.8624
20
0.136822
11
0.8624
21
0.136822
0
LINE
8
BLACK
6
CONTINUOUS
10
0.8624
20
0.136822
11
0.864802
21
0.137006
0
LINE
8
BLACK
6
CONTINUOUS
10
0.864802
20
0.137006
11
0.869547
21
0.137372
0
LINE
8
BLACK
6
CONTINUOUS
10
0.869547
20
0.137372
11
0.876634
21
0.13935
0
LINE
8
BLACK
6
CONTINUOUS
10
0.876634
20
0.13935
11
0.876804
21
0.139436
0
LINE
8
BLACK
6
CONTINUOUS
10
0.876804
20
0.139436
11
0.883031
21
0.142582
0
LINE
8
BLACK
6
CONTINUOUS
10
0.883031
20
0.142582
11
0.883031
21
0.142582
0
LINE
8
BLACK
6
CONTINUOUS
10
0.883031
20
0.142582
11
0.883201
21
0.142668
0
LINE
8
BLACK
6
CONTINUOUS
10
0.883201
20
0.142668
11
0.888999
21
0.147198
0
LINE
8
BLACK
6
CONTINUOUS
10
0.888999
20
0.147198
11
0.889124
21
0.147342
0
LINE
8
BLACK
6
CONTINUOUS
10
0.889124
20
0.147342
11
0.889124
21
0.147342
0
LINE
8
BLACK
6
CONTINUOUS
10
0.889124
20
0.147342
11
0.893683
21
0.152624
0
LINE
8
BLACK
6
CONTINUOUS
10
0.893683
20
0.152624
11
0.893807
21
0.152768
0
LINE
8
BLACK
6
CONTINUOUS
10
0.893807
20
0.152768
11
0.894466
21
0.153928
0
LINE
8
BLACK
6
CONTINUOUS
10
0.894466
20
0.153928
11
0.897348
21
0.159
0
LINE
8
BLACK
6
CONTINUOUS
10
0.897348
20
0.159
11
0.897348
21
0.159
0
LINE
8
BLACK
6
CONTINUOUS
10
0.897348
20
0.159
11
0.897442
21
0.159166
0
LINE
8
BLACK
6
CONTINUOUS
10
0.897442
20
0.159166
11
0.899764
21
0.166147
0
LINE
8
BLACK
6
CONTINUOUS
10
0.899764
20
0.166147
11
0.899788
21
0.166336
0
LINE
8
BLACK
6
CONTINUOUS
10
0.899788
20
0.166336
11
0.900044
21
0.168359
0
LINE
8
BLACK
6
CONTINUOUS
10
0.900044
20
0.168359
11
0.900854
21
0.170289
0
LINE
8
BLACK
6
CONTINUOUS
10
0.900854
20
0.170289
11
0.900929
21
0.170384
0
LINE
8
BLACK
6
CONTINUOUS
10
0.900929
20
0.170384
11
0.901013
21
0.170487
0
LINE
8
BLACK
6
CONTINUOUS
10
0.901013
20
0.170487
11
0.902887
21
0.172692
0
LINE
8
BLACK
6
CONTINUOUS
10
0.902887
20
0.172692
11
0.90299
21
0.172894
0
LINE
8
BLACK
6
CONTINUOUS
10
0.90299
20
0.172894
11
0.903116
21
0.173083
0
LINE
8
BLACK
6
CONTINUOUS
10
0.903116
20
0.173083
11
0.90312
21
0.17308
0
LINE
8
BLACK
6
CONTINUOUS
10
0.90312
20
0.17308
11
0.903198
21
0.173203
0
LINE
8
BLACK
6
CONTINUOUS
10
0.903198
20
0.173203
11
0.903195
21
0.173205
0
LINE
8
BLACK
6
CONTINUOUS
10
0.903195
20
0.173205
11
0.903314
21
0.173398
0
LINE
8
BLACK
6
CONTINUOUS
10
0.903314
20
0.173398
11
0.903454
21
0.173576
0
LINE
8
BLACK
6
CONTINUOUS
10
0.903454
20
0.173576
11
0.904132
21
0.175026
0
LINE
8
BLACK
6
CONTINUOUS
10
0.904132
20
0.175026
11
0.904679
21
0.176196
0
LINE
8
BLACK
6
CONTINUOUS
10
0.904679
20
0.176196
11
0.904739
21
0.176318
0
LINE
8
BLACK
6
CONTINUOUS
10
0.904739
20
0.176318
11
0.90489
21
0.176614
0
LINE
8
BLACK
6
CONTINUOUS
10
0.90489
20
0.176614
11
0.906054
21
0.178894
0
LINE
8
BLACK
6
CONTINUOUS
10
0.906054
20
0.178894
11
0.906108
21
0.179114
0
LINE
8
BLACK
6
CONTINUOUS
10
0.906108
20
0.179114
11
0.906187
21
0.179326
0
LINE
8
BLACK
6
CONTINUOUS
10
0.906187
20
0.179326
11
0.906191
21
0.179325
0
LINE
8
BLACK
6
CONTINUOUS
10
0.906191
20
0.179325
11
0.906239
21
0.179463
0
LINE
8
BLACK
6
CONTINUOUS
10
0.906239
20
0.179463
11
0.906235
21
0.179464
0
LINE
8
BLACK
6
CONTINUOUS
10
0.906235
20
0.179464
11
0.906307
21
0.179679
0
LINE
8
BLACK
6
CONTINUOUS
10
0.906307
20
0.179679
11
0.906403
21
0.179884
0
LINE
8
BLACK
6
CONTINUOUS
10
0.906403
20
0.179884
11
0.906992
21
0.182717
0
LINE
8
BLACK
6
CONTINUOUS
10
0.906992
20
0.182717
11
0.907021
21
0.182846
0
LINE
8
BLACK
6
CONTINUOUS
10
0.907021
20
0.182846
11
0.907709
21
0.185658
0
LINE
8
BLACK
6
CONTINUOUS
10
0.907709
20
0.185658
11
0.907736
21
0.186097
0
LINE
8
BLACK
6
CONTINUOUS
10
0.907736
20
0.186097
11
0.907745
21
0.186097
0
LINE
8
BLACK
6
CONTINUOUS
10
0.907745
20
0.186097
11
0.907764
21
0.186253
0
LINE
8
BLACK
6
CONTINUOUS
10
0.907764
20
0.186253
11
0.907754
21
0.186254
0
LINE
8
BLACK
6
CONTINUOUS
10
0.907754
20
0.186254
11
0.907774
21
0.18648
0
LINE
8
BLACK
6
CONTINUOUS
10
0.907774
20
0.18648
11
0.907821
21
0.186701
0
LINE
8
BLACK
6
CONTINUOUS
10
0.907821
20
0.186701
11
0.907738
21
0.189764
0
LINE
8
BLACK
6
CONTINUOUS
10
0.907738
20
0.189764
11
0.907736
21
0.18987
0
LINE
8
BLACK
6
CONTINUOUS
10
0.907736
20
0.18987
11
0.907736
21
0.365724
0
LINE
8
BLACK
6
CONTINUOUS
10
0.907736
20
0.365724
11
0.908449
21
0.367971
0
LINE
8
BLACK
6
CONTINUOUS
10
0.908449
20
0.367971
11
0.908557
21
0.368123
0
LINE
8
BLACK
6
CONTINUOUS
10
0.908557
20
0.368123
11
0.908681
21
0.368268
0
LINE
8
BLACK
6
CONTINUOUS
10
0.908681
20
0.368268
11
0.908776
21
0.368434
0
LINE
8
BLACK
6
CONTINUOUS
10
0.908776
20
0.368434
11
0.912222
21
0.3745
0
LINE
8
BLACK
6
CONTINUOUS
10
0.912222
20
0.3745
11
0.912222
21
0.3745
0
LINE
8
BLACK
6
CONTINUOUS
10
0.912222
20
0.3745
11
0.912316
21
0.374666
0
LINE
8
BLACK
6
CONTINUOUS
10
0.912316
20
0.374666
11
0.912861
21
0.376305
0
LINE
8
BLACK
6
CONTINUOUS
10
0.912861
20
0.376305
11
0.914578
21
0.381467
0
LINE
8
BLACK
6
CONTINUOUS
10
0.914578
20
0.381467
11
0.914578
21
0.381467
0
LINE
8
BLACK
6
CONTINUOUS
10
0.914578
20
0.381467
11
0.914638
21
0.381647
0
LINE
8
BLACK
6
CONTINUOUS
10
0.914638
20
0.381647
11
0.914858
21
0.383384
0
LINE
8
BLACK
6
CONTINUOUS
10
0.914858
20
0.383384
11
0.915547
21
0.388839
0
LINE
8
BLACK
6
CONTINUOUS
10
0.915547
20
0.388839
11
0.915561
21
0.388947
0
LINE
8
BLACK
6
CONTINUOUS
10
0.915561
20
0.388947
11
0.915575
21
0.39
0
LINE
8
BLACK
6
CONTINUOUS
10
0.915575
20
0.39
11
0.914857
21
0.397323
0
LINE
8
BLACK
6
CONTINUOUS
10
0.914857
20
0.397323
11
0.912731
21
0.404367
0
LINE
8
BLACK
6
CONTINUOUS
10
0.912731
20
0.404367
11
0.909276
21
0.410864
0
LINE
8
BLACK
6
CONTINUOUS
10
0.909276
20
0.410864
11
0.904626
21
0.416566
0
LINE
8
BLACK
6
CONTINUOUS
10
0.904626
20
0.416566
11
0.901587
21
0.419079
0
LINE
8
BLACK
6
CONTINUOUS
10
0.901587
20
0.419079
11
0.899103
21
0.421134
0
LINE
8
BLACK
6
CONTINUOUS
10
0.899103
20
0.421134
11
0.899103
21
0.421134
0
LINE
8
BLACK
6
CONTINUOUS
10
0.899103
20
0.421134
11
0.898956
21
0.421256
0
LINE
8
BLACK
6
CONTINUOUS
10
0.898956
20
0.421256
11
0.892906
21
0.424527
0
LINE
8
BLACK
6
CONTINUOUS
10
0.892906
20
0.424527
11
0.892651
21
0.424665
0
LINE
8
BLACK
6
CONTINUOUS
10
0.892651
20
0.424665
11
0.892651
21
0.424665
0
LINE
8
BLACK
6
CONTINUOUS
10
0.892651
20
0.424665
11
0.892484
21
0.424755
0
LINE
8
BLACK
6
CONTINUOUS
10
0.892484
20
0.424755
11
0.890194
21
0.425464
0
LINE
8
BLACK
6
CONTINUOUS
10
0.890194
20
0.425464
11
0.885637
21
0.426875
0
LINE
8
BLACK
6
CONTINUOUS
10
0.885637
20
0.426875
11
0.885637
21
0.426875
0
LINE
8
BLACK
6
CONTINUOUS
10
0.885637
20
0.426875
11
0.885455
21
0.426931
0
LINE
8
BLACK
6
CONTINUOUS
10
0.885455
20
0.426931
11
0.885266
21
0.426951
0
LINE
8
BLACK
6
CONTINUOUS
10
0.885266
20
0.426951
11
0.885266
21
0.426951
0
LINE
8
BLACK
6
CONTINUOUS
10
0.885266
20
0.426951
11
0.884835
21
0.426996
0
LINE
8
BLACK
6
CONTINUOUS
10
0.884835
20
0.426996
11
0.884279
21
0.427055
0
LINE
8
BLACK
6
CONTINUOUS
10
0.884279
20
0.427055
11
0.881931
21
0.428175
0
LINE
8
BLACK
6
CONTINUOUS
10
0.881931
20
0.428175
11
0.760193
21
0.549913
0
LINE
8
BLACK
6
CONTINUOUS
10
0.760193
20
0.549913
11
0.759099
21
0.552059
0
LINE
8
BLACK
6
CONTINUOUS
10
0.759099
20
0.552059
11
0.759051
21
0.552669
0
LINE
8
BLACK
6
CONTINUOUS
10
0.759051
20
0.552669
11
0.759051
21
0.583535
0
LINE
8
BLACK
6
CONTINUOUS
10
0.759051
20
0.583535
11
0.759764
21
0.585782
0
LINE
8
BLACK
6
CONTINUOUS
10
0.759764
20
0.585782
11
0.759872
21
0.585934
0
LINE
8
BLACK
6
CONTINUOUS
10
0.759872
20
0.585934
11
0.759996
21
0.586079
0
LINE
8
BLACK
6
CONTINUOUS
10
0.759996
20
0.586079
11
0.763631
21
0.592477
0
LINE
8
BLACK
6
CONTINUOUS
10
0.763631
20
0.592477
11
0.765953
21
0.599458
0
LINE
8
BLACK
6
CONTINUOUS
10
0.765953
20
0.599458
11
0.76602
21
0.599436
0
LINE
8
BLACK
6
CONTINUOUS
10
0.76602
20
0.599436
11
0.767106
21
0.601259
0
LINE
8
BLACK
6
CONTINUOUS
10
0.767106
20
0.601259
11
0.76932
21
0.602208
0
LINE
8
BLACK
6
CONTINUOUS
10
0.76932
20
0.602208
11
0.771042
21
0.601976
0
LINE
8
BLACK
6
CONTINUOUS
10
0.771042
20
0.601976
11
0.775428
21
0.600332
0
LINE
8
BLACK
6
CONTINUOUS
10
0.775428
20
0.600332
11
0.775657
21
0.600246
0
LINE
8
BLACK
6
CONTINUOUS
10
0.775657
20
0.600246
11
0.7759
21
0.60022
0
LINE
8
BLACK
6
CONTINUOUS
10
0.7759
20
0.60022
11
0.7759
21
0.60022
0
LINE
8
BLACK
6
CONTINUOUS
10
0.7759
20
0.60022
11
0.777316
21
0.600066
0
LINE
8
BLACK
6
CONTINUOUS
10
0.777316
20
0.600066
11
0.778105
21
0.59998
0
LINE
8
BLACK
6
CONTINUOUS
10
0.778105
20
0.59998
11
0.841895
21
0.59998
0
LINE
8
BLACK
6
CONTINUOUS
10
0.841895
20
0.59998
11
0.842684
21
0.600066
0
LINE
8
BLACK
6
CONTINUOUS
10
0.842684
20
0.600066
11
0.8441
21
0.60022
0
LINE
8
BLACK
6
CONTINUOUS
10
0.8441
20
0.60022
11
0.8441
21
0.60022
0
LINE
8
BLACK
6
CONTINUOUS
10
0.8441
20
0.60022
11
0.844343
21
0.600246
0
LINE
8
BLACK
6
CONTINUOUS
10
0.844343
20
0.600246
11
0.849713
21
0.602259
0
LINE
8
BLACK
6
CONTINUOUS
10
0.849713
20
0.602259
11
0.854302
21
0.605698
0
LINE
8
BLACK
6
CONTINUOUS
10
0.854302
20
0.605698
11
0.857741
21
0.610287
0
LINE
8
BLACK
6
CONTINUOUS
10
0.857741
20
0.610287
11
0.859754
21
0.615657
0
LINE
8
BLACK
6
CONTINUOUS
10
0.859754
20
0.615657
11
0.86002
21
0.618105
0
LINE
8
BLACK
6
CONTINUOUS
10
0.86002
20
0.618105
11
0.86002
21
0.681895
0
LINE
8
BLACK
6
CONTINUOUS
10
0.86002
20
0.681895
11
0.859754
21
0.684343
0
LINE
8
BLACK
6
CONTINUOUS
10
0.859754
20
0.684343
11
0.857741
21
0.689713
0
LINE
8
BLACK
6
CONTINUOUS
10
0.857741
20
0.689713
11
0.854302
21
0.694302
0
LINE
8
BLACK
6
CONTINUOUS
10
0.854302
20
0.694302
11
0.854079
21
0.694468
0
LINE
8
BLACK
6
CONTINUOUS
10
0.854079
20
0.694468
11
0.854079
21
0.694468
0
LINE
8
BLACK
6
CONTINUOUS
10
0.854079
20
0.694468
11
0.85086
21
0.696881
0
LINE
8
BLACK
6
CONTINUOUS
10
0.85086
20
0.696881
11
0.849473
21
0.698851
0
LINE
8
BLACK
6
CONTINUOUS
10
0.849473
20
0.698851
11
0.849509
21
0.701259
0
LINE
8
BLACK
6
CONTINUOUS
10
0.849509
20
0.701259
11
0.85086
21
0.703119
0
LINE
8
BLACK
6
CONTINUOUS
10
0.85086
20
0.703119
11
0.854079
21
0.705532
0
LINE
8
BLACK
6
CONTINUOUS
10
0.854079
20
0.705532
11
0.854079
21
0.705532
0
LINE
8
BLACK
6
CONTINUOUS
10
0.854079
20
0.705532
11
0.854302
21
0.705698
0
LINE
8
BLACK
6
CONTINUOUS
10
0.854302
20
0.705698
11
0.857741
21
0.710287
0
LINE
8
BLACK
6
CONTINUOUS
10
0.857741
20
0.710287
11
0.859754
21
0.715657
0
LINE
8
BLACK
6
CONTINUOUS
10
0.859754
20
0.715657
11
0.859863
21
0.716661
0
LINE
8
BLACK
6
CONTINUOUS
10
0.859863
20
0.716661
11
0.86085
21
0.718858
0
LINE
8
BLACK
6
CONTINUOUS
10
0.86085
20
0.718858
11
0.862941
21
0.720055
0
LINE
8
BLACK
6
CONTINUOUS
10
0.862941
20
0.720055
11
0.863738
21
0.720138
0
LINE
8
BLACK
6
CONTINUOUS
10
0.863738
20
0.720138
11
1.0896
21
0.720138
0
LINE
8
BLACK
6
CONTINUOUS
10
1.0896
20
0.720138
11
1.09189
21
0.719393
0
LINE
8
BLACK
6
CONTINUOUS
10
1.09189
20
0.719393
11
1.09235
21
0.718996
0
LINE
8
BLACK
6
CONTINUOUS
10
1.09235
20
0.718996
11
1.09294
21
0.718412
0
LINE
8
BLACK
6
CONTINUOUS
10
1.09294
20
0.718412
11
1.09403
21
0.716266
0
LINE
8
BLACK
6
CONTINUOUS
10
1.09403
20
0.716266
11
1.09407
21
0.715982
0
LINE
8
BLACK
6
CONTINUOUS
10
1.09407
20
0.715982
11
1.0941
21
0.715596
0
LINE
8
BLACK
6
CONTINUOUS
10
1.0941
20
0.715596
11
1.09613
21
0.708523
0
LINE
8
BLACK
6
CONTINUOUS
10
1.09613
20
0.708523
11
1.09696
21
0.706902
0
LINE
8
BLACK
6
CONTINUOUS
10
1.09696
20
0.706902
11
1.0989
21
0.703119
0
LINE
8
BLACK
6
CONTINUOUS
10
1.0989
20
0.703119
11
1.09949
21
0.701979
0
LINE
8
BLACK
6
CONTINUOUS
10
1.09949
20
0.701979
11
1.10406
21
0.696212
0
LINE
8
BLACK
6
CONTINUOUS
10
1.10406
20
0.696212
11
1.10421
21
0.696089
0
LINE
8
BLACK
6
CONTINUOUS
10
1.10421
20
0.696089
11
1.10421
21
0.696089
0
LINE
8
BLACK
6
CONTINUOUS
10
1.10421
20
0.696089
11
1.10657
21
0.694079
0
LINE
8
BLACK
6
CONTINUOUS
10
1.10657
20
0.694079
11
1.10966
21
0.691443
0
LINE
8
BLACK
6
CONTINUOUS
10
1.10966
20
0.691443
11
1.10983
21
0.69135
0
LINE
8
BLACK
6
CONTINUOUS
10
1.10983
20
0.69135
11
1.10983
21
0.69135
0
LINE
8
BLACK
6
CONTINUOUS
10
1.10983
20
0.69135
11
1.11394
21
0.689053
0
LINE
8
BLACK
6
CONTINUOUS
10
1.11394
20
0.689053
11
1.11609
21
0.687854
0
LINE
8
BLACK
6
CONTINUOUS
10
1.11609
20
0.687854
11
1.11627
21
0.687795
0
LINE
8
BLACK
6
CONTINUOUS
10
1.11627
20
0.687795
11
1.1229
21
0.685639
0
LINE
8
BLACK
6
CONTINUOUS
10
1.1229
20
0.685639
11
1.1229
21
0.685639
0
LINE
8
BLACK
6
CONTINUOUS
10
1.1229
20
0.685639
11
1.12309
21
0.68558
0
LINE
8
BLACK
6
CONTINUOUS
10
1.12309
20
0.68558
11
1.13039
21
0.684709
0
LINE
8
BLACK
6
CONTINUOUS
10
1.13039
20
0.684709
11
1.13058
21
0.684723
0
LINE
8
BLACK
6
CONTINUOUS
10
1.13058
20
0.684723
11
1.13058
21
0.684723
0
LINE
8
BLACK
6
CONTINUOUS
10
1.13058
20
0.684723
11
1.13298
21
0.684908
0
LINE
8
BLACK
6
CONTINUOUS
10
1.13298
20
0.684908
11
1.13773
21
0.685273
0
LINE
8
BLACK
6
CONTINUOUS
10
1.13773
20
0.685273
11
1.14481
21
0.687252
0
LINE
8
BLACK
6
CONTINUOUS
10
1.14481
20
0.687252
11
1.14498
21
0.687338
0
LINE
8
BLACK
6
CONTINUOUS
10
1.14498
20
0.687338
11
1.15121
21
0.690483
0
LINE
8
BLACK
6
CONTINUOUS
10
1.15121
20
0.690483
11
1.15121
21
0.690483
0
LINE
8
BLACK
6
CONTINUOUS
10
1.15121
20
0.690483
11
1.15138
21
0.690569
0
LINE
8
BLACK
6
CONTINUOUS
10
1.15138
20
0.690569
11
1.15718
21
0.695099
0
LINE
8
BLACK
6
CONTINUOUS
10
1.15718
20
0.695099
11
1.15731
21
0.695244
0
LINE
8
BLACK
6
CONTINUOUS
10
1.15731
20
0.695244
11
1.15731
21
0.695244
0
LINE
8
BLACK
6
CONTINUOUS
10
1.15731
20
0.695244
11
1.16186
21
0.700525
0
LINE
8
BLACK
6
CONTINUOUS
10
1.16186
20
0.700525
11
1.16199
21
0.700669
0
LINE
8
BLACK
6
CONTINUOUS
10
1.16199
20
0.700669
11
1.16265
21
0.701829
0
LINE
8
BLACK
6
CONTINUOUS
10
1.16265
20
0.701829
11
1.16553
21
0.706902
0
LINE
8
BLACK
6
CONTINUOUS
10
1.16553
20
0.706902
11
1.16553
21
0.706902
0
LINE
8
BLACK
6
CONTINUOUS
10
1.16553
20
0.706902
11
1.16562
21
0.707067
0
LINE
8
BLACK
6
CONTINUOUS
10
1.16562
20
0.707067
11
1.16617
21
0.708706
0
LINE
8
BLACK
6
CONTINUOUS
10
1.16617
20
0.708706
11
1.16789
21
0.713868
0
LINE
8
BLACK
6
CONTINUOUS
10
1.16789
20
0.713868
11
1.16789
21
0.713868
0
LINE
8
BLACK
6
CONTINUOUS
10
1.16789
20
0.713868
11
1.16795
21
0.714049
0
LINE
8
BLACK
6
CONTINUOUS
10
1.16795
20
0.714049
11
1.16815
21
0.715657
0
LINE
8
BLACK
6
CONTINUOUS
10
1.16815
20
0.715657
11
1.16862
21
0.719393
0
LINE
8
BLACK
6
CONTINUOUS
10
1.16862
20
0.719393
11
1.16887
21
0.721349
0
LINE
8
BLACK
6
CONTINUOUS
10
1.16887
20
0.721349
11
1.16888
21
0.722402
0
LINE
8
BLACK
6
CONTINUOUS
10
1.16888
20
0.722402
11
1.16816
21
0.729724
0
LINE
8
BLACK
6
CONTINUOUS
10
1.16816
20
0.729724
11
1.16604
21
0.736768
0
LINE
8
BLACK
6
CONTINUOUS
10
1.16604
20
0.736768
11
1.16258
21
0.743265
0
LINE
8
BLACK
6
CONTINUOUS
10
1.16258
20
0.743265
11
1.15793
21
0.748967
0
LINE
8
BLACK
6
CONTINUOUS
10
1.15793
20
0.748967
11
1.15226
21
0.753657
0
LINE
8
BLACK
6
CONTINUOUS
10
1.15226
20
0.753657
11
1.14579
21
0.757157
0
LINE
8
BLACK
6
CONTINUOUS
10
1.14579
20
0.757157
11
1.1435
21
0.757866
0
LINE
8
BLACK
6
CONTINUOUS
10
1.1435
20
0.757866
11
1.13894
21
0.759276
0
LINE
8
BLACK
6
CONTINUOUS
10
1.13894
20
0.759276
11
1.13894
21
0.759276
0
LINE
8
BLACK
6
CONTINUOUS
10
1.13894
20
0.759276
11
1.13876
21
0.759333
0
LINE
8
BLACK
6
CONTINUOUS
10
1.13876
20
0.759333
11
1.13857
21
0.759353
0
LINE
8
BLACK
6
CONTINUOUS
10
1.13857
20
0.759353
11
1.13857
21
0.759353
0
LINE
8
BLACK
6
CONTINUOUS
10
1.13857
20
0.759353
11
1.13814
21
0.759398
0
LINE
8
BLACK
6
CONTINUOUS
10
1.13814
20
0.759398
11
1.13759
21
0.759456
0
LINE
8
BLACK
6
CONTINUOUS
10
1.13759
20
0.759456
11
1.13524
21
0.760577
0
LINE
8
BLACK
6
CONTINUOUS
10
1.13524
20
0.760577
11
1.12651
21
0.769306
0
LINE
8
BLACK
6
CONTINUOUS
10
1.12651
20
0.769306
11
1.12613
21
0.769751
0
LINE
8
BLACK
6
CONTINUOUS
10
1.12613
20
0.769751
11
1.12571
21
0.770322
0
LINE
8
BLACK
6
CONTINUOUS
10
1.12571
20
0.770322
11
1.12571
21
0.770322
0
LINE
8
BLACK
6
CONTINUOUS
10
1.12571
20
0.770322
11
1.12557
21
0.770505
0
LINE
8
BLACK
6
CONTINUOUS
10
1.12557
20
0.770505
11
1.1254
21
0.770651
0
LINE
8
BLACK
6
CONTINUOUS
10
1.1254
20
0.770651
11
1.1254
21
0.770651
0
LINE
8
BLACK
6
CONTINUOUS
10
1.1254
20
0.770651
11
1.12395
21
0.771879
0
LINE
8
BLACK
6
CONTINUOUS
10
1.12395
20
0.771879
11
1.12372
21
0.772094
0
LINE
8
BLACK
6
CONTINUOUS
10
1.12372
20
0.772094
11
1.12347
21
0.772349
0
LINE
8
BLACK
6
CONTINUOUS
10
1.12347
20
0.772349
11
1.12257
21
0.773055
0
LINE
8
BLACK
6
CONTINUOUS
10
1.12257
20
0.773055
11
1.12247
21
0.77314
0
LINE
8
BLACK
6
CONTINUOUS
10
1.12247
20
0.77314
11
1.12026
21
0.775013
0
LINE
8
BLACK
6
CONTINUOUS
10
1.12026
20
0.775013
11
1.12006
21
0.775116
0
LINE
8
BLACK
6
CONTINUOUS
10
1.12006
20
0.775116
11
1.11987
21
0.775242
0
LINE
8
BLACK
6
CONTINUOUS
10
1.11987
20
0.775242
11
1.11988
21
0.775245
0
LINE
8
BLACK
6
CONTINUOUS
10
1.11988
20
0.775245
11
1.11975
21
0.775324
0
LINE
8
BLACK
6
CONTINUOUS
10
1.11975
20
0.775324
11
1.11975
21
0.775321
0
LINE
8
BLACK
6
CONTINUOUS
10
1.11975
20
0.775321
11
1.11956
21
0.77544
0
LINE
8
BLACK
6
CONTINUOUS
10
1.11956
20
0.77544
11
1.11938
21
0.77558
0
LINE
8
BLACK
6
CONTINUOUS
10
1.11938
20
0.77558
11
1.11918
21
0.775676
0
LINE
8
BLACK
6
CONTINUOUS
10
1.11918
20
0.775676
11
1.11918
21
0.775676
0
LINE
8
BLACK
6
CONTINUOUS
10
1.11918
20
0.775676
11
1.11676
21
0.776805
0
LINE
8
BLACK
6
CONTINUOUS
10
1.11676
20
0.776805
11
1.11664
21
0.776865
0
LINE
8
BLACK
6
CONTINUOUS
10
1.11664
20
0.776865
11
1.11634
21
0.777016
0
LINE
8
BLACK
6
CONTINUOUS
10
1.11634
20
0.777016
11
1.11406
21
0.77818
0
LINE
8
BLACK
6
CONTINUOUS
10
1.11406
20
0.77818
11
1.11384
21
0.778234
0
LINE
8
BLACK
6
CONTINUOUS
10
1.11384
20
0.778234
11
1.11363
21
0.778313
0
LINE
8
BLACK
6
CONTINUOUS
10
1.11363
20
0.778313
11
1.11363
21
0.778317
0
LINE
8
BLACK
6
CONTINUOUS
10
1.11363
20
0.778317
11
1.11349
21
0.778365
0
LINE
8
BLACK
6
CONTINUOUS
10
1.11349
20
0.778365
11
1.11349
21
0.778361
0
LINE
8
BLACK
6
CONTINUOUS
10
1.11349
20
0.778361
11
1.11328
21
0.778433
0
LINE
8
BLACK
6
CONTINUOUS
10
1.11328
20
0.778433
11
1.11307
21
0.778528
0
LINE
8
BLACK
6
CONTINUOUS
10
1.11307
20
0.778528
11
1.11285
21
0.778575
0
LINE
8
BLACK
6
CONTINUOUS
10
1.11285
20
0.778575
11
1.11285
21
0.778575
0
LINE
8
BLACK
6
CONTINUOUS
10
1.11285
20
0.778575
11
1.11024
21
0.779117
0
LINE
8
BLACK
6
CONTINUOUS
10
1.11024
20
0.779117
11
1.11011
21
0.779147
0
LINE
8
BLACK
6
CONTINUOUS
10
1.11011
20
0.779147
11
1.10747
21
0.779794
0
LINE
8
BLACK
6
CONTINUOUS
10
1.10747
20
0.779794
11
1.1073
21
0.779835
0
LINE
8
BLACK
6
CONTINUOUS
10
1.1073
20
0.779835
11
1.10686
21
0.779862
0
LINE
8
BLACK
6
CONTINUOUS
10
1.10686
20
0.779862
11
1.10686
21
0.779871
0
LINE
8
BLACK
6
CONTINUOUS
10
1.10686
20
0.779871
11
1.1067
21
0.77989
0
LINE
8
BLACK
6
CONTINUOUS
10
1.1067
20
0.77989
11
1.1067
21
0.77988
0
LINE
8
BLACK
6
CONTINUOUS
10
1.1067
20
0.77988
11
1.10648
21
0.7799
0
LINE
8
BLACK
6
CONTINUOUS
10
1.10648
20
0.7799
11
1.10626
21
0.779946
0
LINE
8
BLACK
6
CONTINUOUS
10
1.10626
20
0.779946
11
1.10603
21
0.77994
0
LINE
8
BLACK
6
CONTINUOUS
10
1.10603
20
0.77994
11
1.10603
21
0.77994
0
LINE
8
BLACK
6
CONTINUOUS
10
1.10603
20
0.77994
11
1.10319
21
0.779864
0
LINE
8
BLACK
6
CONTINUOUS
10
1.10319
20
0.779864
11
1.10309
21
0.779862
0
LINE
8
BLACK
6
CONTINUOUS
10
1.10309
20
0.779862
11
0.863738
21
0.779862
0
LINE
8
BLACK
6
CONTINUOUS
10
0.863738
20
0.779862
11
0.861447
21
0.780607
0
LINE
8
BLACK
6
CONTINUOUS
10
0.861447
20
0.780607
11
0.860031
21
0.782555
0
LINE
8
BLACK
6
CONTINUOUS
10
0.860031
20
0.782555
11
0.859863
21
0.783339
0
LINE
8
BLACK
6
CONTINUOUS
10
0.859863
20
0.783339
11
0.85978
21
0.7841
0
LINE
8
BLACK
6
CONTINUOUS
10
0.85978
20
0.7841
11
0.85978
21
0.7841
0
LINE
8
BLACK
6
CONTINUOUS
10
0.85978
20
0.7841
11
0.859754
21
0.784343
0
LINE
8
BLACK
6
CONTINUOUS
10
0.859754
20
0.784343
11
0.857741
21
0.789713
0
LINE
8
BLACK
6
CONTINUOUS
10
0.857741
20
0.789713
11
0.854302
21
0.794302
0
LINE
8
BLACK
6
CONTINUOUS
10
0.854302
20
0.794302
11
0.849713
21
0.797741
0
LINE
8
BLACK
6
CONTINUOUS
10
0.849713
20
0.797741
11
0.844343
21
0.799754
0
LINE
8
BLACK
6
CONTINUOUS
10
0.844343
20
0.799754
11
0.8441
21
0.79978
0
LINE
8
BLACK
6
CONTINUOUS
10
0.8441
20
0.79978
11
0.8441
21
0.79978
0
LINE
8
BLACK
6
CONTINUOUS
10
0.8441
20
0.79978
11
0.842684
21
0.799934
0
LINE
8
BLACK
6
CONTINUOUS
10
0.842684
20
0.799934
11
0.841895
21
0.80002
0
LINE
8
BLACK
6
CONTINUOUS
10
0.841895
20
0.80002
11
0.778105
21
0.80002
0
LINE
8
BLACK
6
CONTINUOUS
10
0.778105
20
0.80002
11
0.777316
21
0.799934
0
LINE
8
BLACK
6
CONTINUOUS
10
0.777316
20
0.799934
11
0.7759
21
0.79978
0
LINE
8
BLACK
6
CONTINUOUS
10
0.7759
20
0.79978
11
0.7759
21
0.79978
0
LINE
8
BLACK
6
CONTINUOUS
10
0.7759
20
0.79978
11
0.775657
21
0.799754
0
LINE
8
BLACK
6
CONTINUOUS
10
0.775657
20
0.799754
11
0.770287
21
0.797741
0
LINE
8
BLACK
6
CONTINUOUS
10
0.770287
20
0.797741
11
0.765698
21
0.794302
0
LINE
8
BLACK
6
CONTINUOUS
10
0.765698
20
0.794302
11
0.762259
21
0.789713
0
LINE
8
BLACK
6
CONTINUOUS
10
0.762259
20
0.789713
11
0.760246
21
0.784343
0
LINE
8
BLACK
6
CONTINUOUS
10
0.760246
20
0.784343
11
0.75998
21
0.781895
0
LINE
8
BLACK
6
CONTINUOUS
10
0.75998
20
0.781895
11
0.75998
21
0.778623
0
LINE
8
BLACK
6
CONTINUOUS
10
0.75998
20
0.778623
11
0.759236
21
0.776332
0
LINE
8
BLACK
6
CONTINUOUS
10
0.759236
20
0.776332
11
0.758219
21
0.775363
0
LINE
8
BLACK
6
CONTINUOUS
10
0.758219
20
0.775363
11
0.758119
21
0.775297
0
LINE
8
BLACK
6
CONTINUOUS
10
0.758119
20
0.775297
11
0.758004
21
0.775225
0
LINE
8
BLACK
6
CONTINUOUS
10
0.758004
20
0.775225
11
0.75568
21
0.773814
0
LINE
8
BLACK
6
CONTINUOUS
10
0.75568
20
0.773814
11
0.75568
21
0.773814
0
LINE
8
BLACK
6
CONTINUOUS
10
0.75568
20
0.773814
11
0.755531
21
0.773724
0
LINE
8
BLACK
6
CONTINUOUS
10
0.755531
20
0.773724
11
0.755201
21
0.773433
0
LINE
8
BLACK
6
CONTINUOUS
10
0.755201
20
0.773433
11
0.755197
21
0.773438
0
LINE
8
BLACK
6
CONTINUOUS
10
0.755197
20
0.773438
11
0.755072
21
0.773341
0
LINE
8
BLACK
6
CONTINUOUS
10
0.755072
20
0.773341
11
0.755078
21
0.773335
0
LINE
8
BLACK
6
CONTINUOUS
10
0.755078
20
0.773335
11
0.754904
21
0.773189
0
LINE
8
BLACK
6
CONTINUOUS
10
0.754904
20
0.773189
11
0.754714
21
0.773065
0
LINE
8
BLACK
6
CONTINUOUS
10
0.754714
20
0.773065
11
0.753591
21
0.771879
0
LINE
8
BLACK
6
CONTINUOUS
10
0.753591
20
0.771879
11
0.752609
21
0.770842
0
LINE
8
BLACK
6
CONTINUOUS
10
0.752609
20
0.770842
11
0.752535
21
0.770767
0
LINE
8
BLACK
6
CONTINUOUS
10
0.752535
20
0.770767
11
0.667694
21
0.685926
0
LINE
8
BLACK
6
CONTINUOUS
10
0.667694
20
0.685926
11
0.667249
21
0.685543
0
LINE
8
BLACK
6
CONTINUOUS
10
0.667249
20
0.685543
11
0.666678
21
0.685123
0
LINE
8
BLACK
6
CONTINUOUS
10
0.666678
20
0.685123
11
0.666678
21
0.685123
0
LINE
8
BLACK
6
CONTINUOUS
10
0.666678
20
0.685123
11
0.666495
21
0.684989
0
LINE
8
BLACK
6
CONTINUOUS
10
0.666495
20
0.684989
11
0.666349
21
0.684816
0
LINE
8
BLACK
6
CONTINUOUS
10
0.666349
20
0.684816
11
0.666349
21
0.684816
0
LINE
8
BLACK
6
CONTINUOUS
10
0.666349
20
0.684816
11
0.665121
21
0.68337
0
LINE
8
BLACK
6
CONTINUOUS
10
0.665121
20
0.68337
11
0.664906
21
0.683138
0
LINE
8
BLACK
6
CONTINUOUS
10
0.664906
20
0.683138
11
0.664651
21
0.682883
0
LINE
8
BLACK
6
CONTINUOUS
10
0.664651
20
0.682883
11
0.664581
21
0.682794
0
LINE
8
BLACK
6
CONTINUOUS
10
0.664581
20
0.682794
11
0.664581
21
0.682794
0
LINE
8
BLACK
6
CONTINUOUS
10
0.664581
20
0.682794
11
0.663946
21
0.681991
0
LINE
8
BLACK
6
CONTINUOUS
10
0.663946
20
0.681991
11
0.66386
21
0.681887
0
LINE
8
BLACK
6
CONTINUOUS
10
0.66386
20
0.681887
11
0.661987
21
0.679682
0
LINE
8
BLACK
6
CONTINUOUS
10
0.661987
20
0.679682
11
0.661884
21
0.67948
0
LINE
8
BLACK
6
CONTINUOUS
10
0.661884
20
0.67948
11
0.661758
21
0.679292
0
LINE
8
BLACK
6
CONTINUOUS
10
0.661758
20
0.679292
11
0.661755
21
0.679294
0
LINE
8
BLACK
6
CONTINUOUS
10
0.661755
20
0.679294
11
0.661676
21
0.679171
0
LINE
8
BLACK
6
CONTINUOUS
10
0.661676
20
0.679171
11
0.661679
21
0.679169
0
LINE
8
BLACK
6
CONTINUOUS
10
0.661679
20
0.679169
11
0.66156
21
0.678976
0
LINE
8
BLACK
6
CONTINUOUS
10
0.66156
20
0.678976
11
0.66142
21
0.678799
0
LINE
8
BLACK
6
CONTINUOUS
10
0.66142
20
0.678799
11
0.661324
21
0.678594
0
LINE
8
BLACK
6
CONTINUOUS
10
0.661324
20
0.678594
11
0.661324
21
0.678594
0
LINE
8
BLACK
6
CONTINUOUS
10
0.661324
20
0.678594
11
0.660195
21
0.676178
0
LINE
8
BLACK
6
CONTINUOUS
10
0.660195
20
0.676178
11
0.660135
21
0.676056
0
LINE
8
BLACK
6
CONTINUOUS
10
0.660135
20
0.676056
11
0.65882
21
0.67348
0
LINE
8
BLACK
6
CONTINUOUS
10
0.65882
20
0.67348
11
0.658766
21
0.67326
0
LINE
8
BLACK
6
CONTINUOUS
10
0.658766
20
0.67326
11
0.658687
21
0.673048
0
LINE
8
BLACK
6
CONTINUOUS
10
0.658687
20
0.673048
11
0.658683
21
0.673049
0
LINE
8
BLACK
6
CONTINUOUS
10
0.658683
20
0.673049
11
0.658635
21
0.672911
0
LINE
8
BLACK
6
CONTINUOUS
10
0.658635
20
0.672911
11
0.658639
21
0.67291
0
LINE
8
BLACK
6
CONTINUOUS
10
0.658639
20
0.67291
11
0.658567
21
0.672695
0
LINE
8
BLACK
6
CONTINUOUS
10
0.658567
20
0.672695
11
0.658472
21
0.67249
0
LINE
8
BLACK
6
CONTINUOUS
10
0.658472
20
0.67249
11
0.658425
21
0.672269
0
LINE
8
BLACK
6
CONTINUOUS
10
0.658425
20
0.672269
11
0.658425
21
0.672268
0
LINE
8
BLACK
6
CONTINUOUS
10
0.658425
20
0.672268
11
0.657883
21
0.669659
0
LINE
8
BLACK
6
CONTINUOUS
10
0.657883
20
0.669659
11
0.657853
21
0.669526
0
LINE
8
BLACK
6
CONTINUOUS
10
0.657853
20
0.669526
11
0.657165
21
0.666716
0
LINE
8
BLACK
6
CONTINUOUS
10
0.657165
20
0.666716
11
0.657138
21
0.666277
0
LINE
8
BLACK
6
CONTINUOUS
10
0.657138
20
0.666277
11
0.657129
21
0.666278
0
LINE
8
BLACK
6
CONTINUOUS
10
0.657129
20
0.666278
11
0.65711
21
0.666121
0
LINE
8
BLACK
6
CONTINUOUS
10
0.65711
20
0.666121
11
0.65712
21
0.66612
0
LINE
8
BLACK
6
CONTINUOUS
10
0.65712
20
0.66612
11
0.6571
21
0.665894
0
LINE
8
BLACK
6
CONTINUOUS
10
0.6571
20
0.665894
11
0.657054
21
0.665673
0
LINE
8
BLACK
6
CONTINUOUS
10
0.657054
20
0.665673
11
0.65706
21
0.665447
0
LINE
8
BLACK
6
CONTINUOUS
10
0.65706
20
0.665447
11
0.65706
21
0.665446
0
LINE
8
BLACK
6
CONTINUOUS
10
0.65706
20
0.665446
11
0.657136
21
0.662611
0
LINE
8
BLACK
6
CONTINUOUS
10
0.657136
20
0.662611
11
0.657138
21
0.662505
0
LINE
8
BLACK
6
CONTINUOUS
10
0.657138
20
0.662505
11
0.657138
21
0.557203
0
LINE
8
BLACK
6
CONTINUOUS
10
0.657138
20
0.557203
11
0.656393
21
0.554912
0
LINE
8
BLACK
6
CONTINUOUS
10
0.656393
20
0.554912
11
0.656226
21
0.554698
0
LINE
8
BLACK
6
CONTINUOUS
10
0.656226
20
0.554698
11
0.656015
21
0.554446
0
LINE
8
BLACK
6
CONTINUOUS
10
0.656015
20
0.554446
11
0.656015
21
0.554446
0
LINE
8
BLACK
6
CONTINUOUS
10
0.656015
20
0.554446
11
0.655892
21
0.5543
0
LINE
8
BLACK
6
CONTINUOUS
10
0.655892
20
0.5543
11
0.652347
21
0.547852
0
LINE
8
BLACK
6
CONTINUOUS
10
0.652347
20
0.547852
11
0.65229
21
0.54767
0
LINE
8
BLACK
6
CONTINUOUS
10
0.65229
20
0.54767
11
0.65229
21
0.54767
0
LINE
8
BLACK
6
CONTINUOUS
10
0.65229
20
0.54767
11
0.65018
21
0.54102
0
LINE
8
BLACK
6
CONTINUOUS
10
0.65018
20
0.54102
11
0.65018
21
0.54102
0
LINE
8
BLACK
6
CONTINUOUS
10
0.65018
20
0.54102
11
0.650123
21
0.540839
0
LINE
8
BLACK
6
CONTINUOUS
10
0.650123
20
0.540839
11
0.649302
21
0.533526
0
LINE
8
BLACK
6
CONTINUOUS
10
0.649302
20
0.533526
11
0.649918
21
0.526194
0
LINE
8
BLACK
6
CONTINUOUS
10
0.649918
20
0.526194
11
0.651946
21
0.519121
0
LINE
8
BLACK
6
CONTINUOUS
10
0.922
20
-0.13
11
0.862
21
-0.13
0
LINE
8
BLACK
6
CONTINUOUS
10
0.862
20
-0.13
11
0.862
21
-0.07
0
LINE
8
BLACK
6
CONTINUOUS
10
0.862
20
-0.07
11
0.922
21
-0.07
0
LINE
8
BLACK
6
CONTINUOUS
10
0.922
20
-0.07
11
0.922
21
-0.13
0
LINE
8
BLACK
6
CONTINUOUS
10
1.022
20
-0.13
11
0.962
21
-0.13
0
LINE
8
BLACK
6
CONTINUOUS
10
0.962
20
-0.13
11
0.962
21
-0.07
0
LINE
8
BLACK
6
CONTINUOUS
10
0.962
20
-0.07
11
1.022
21
-0.07
0
LINE
8
BLACK
6
CONTINUOUS
10
1.022
20
-0.07
11
1.022
21
-0.13
0
LINE
8
BLACK
6
CONTINUOUS
10
1.122
20
-0.13
11
1.062
21
-0.13
0
LINE
8
BLACK
6
CONTINUOUS
10
1.062
20
-0.13
11
1.062
21
-0.07
0
LINE
8
BLACK
6
CONTINUOUS
10
1.062
20
-0.07
11
1.122
21
-0.07
0
LINE
8
BLACK
6
CONTINUOUS
10
1.122
20
-0.07
11
1.122
21
-0.13
0
LINE
8
BLACK
6
CONTINUOUS
10
1.122
20
-0.03
11
1.062
21
-0.03
0
LINE
8
BLACK
6
CONTINUOUS
10
1.062
20
-0.03
11
1.062
21
0.03
0
LINE
8
BLACK
6
CONTINUOUS
10
1.062
20
0.03
11
1.122
21
0.03
0
LINE
8
BLACK
6
CONTINUOUS
10
1.122
20
0.03
11
1.122
21
-0.03
0
LINE
8
BLACK
6
CONTINUOUS
10
1.022
20
-0.03
11
0.962
21
-0.03
0
LINE
8
BLACK
6
CONTINUOUS
10
0.962
20
-0.03
11
0.962
21
0.03
0
LINE
8
BLACK
6
CONTINUOUS
10
0.962
20
0.03
11
1.022
21
0.03
0
LINE
8
BLACK
6
CONTINUOUS
10
1.022
20
0.03
11
1.022
21
-0.03
0
LINE
8
BLACK
6
CONTINUOUS
10
0.922
20
-0.03
11
0.862
21
-0.03
0
LINE
8
BLACK
6
CONTINUOUS
10
0.862
20
-0.03
11
0.862
21
0.03
0
LINE
8
BLACK
6
CONTINUOUS
10
0.862
20
0.03
11
0.922
21
0.03
0
LINE
8
BLACK
6
CONTINUOUS
10
0.922
20
0.03
11
0.922
21
-0.03
0
LINE
8
BLACK
6
CONTINUOUS
10
0.787587
20
0.262808
11
0.79234
21
0.261386
0
LINE
8
BLACK
6
CONTINUOUS
10
0.79234
20
0.261386
11
0.796504
21
0.258687
0
LINE
8
BLACK
6
CONTINUOUS
10
0.796504
20
0.258687
11
0.799743
21
0.254929
0
LINE
8
BLACK
6
CONTINUOUS
10
0.799743
20
0.254929
11
0.801797
21
0.250412
0
LINE
8
BLACK
6
CONTINUOUS
10
0.801797
20
0.250412
11
0.8025
21
0.2455
0
LINE
8
BLACK
6
CONTINUOUS
10
0.8025
20
0.2455
11
0.802495
21
0.245072
0
LINE
8
BLACK
6
CONTINUOUS
10
0.802495
20
0.245072
11
0.801672
21
0.240179
0
LINE
8
BLACK
6
CONTINUOUS
10
0.801672
20
0.240179
11
0.799508
21
0.235714
0
LINE
8
BLACK
6
CONTINUOUS
10
0.799508
20
0.235714
11
0.796178
21
0.232036
0
LINE
8
BLACK
6
CONTINUOUS
10
0.796178
20
0.232036
11
0.79195
21
0.229439
0
LINE
8
BLACK
6
CONTINUOUS
10
0.79195
20
0.229439
11
0.787163
21
0.228134
0
LINE
8
BLACK
6
CONTINUOUS
10
0.787163
20
0.228134
11
0.782202
21
0.228225
0
LINE
8
BLACK
6
CONTINUOUS
10
0.782202
20
0.228225
11
0.777466
21
0.229705
0
LINE
8
BLACK
6
CONTINUOUS
10
0.777466
20
0.229705
11
0.773336
21
0.232454
0
LINE
8
BLACK
6
CONTINUOUS
10
0.773336
20
0.232454
11
0.770643
21
0.235657
0
LINE
8
BLACK
6
CONTINUOUS
10
0.770643
20
0.235657
11
0.645753
21
0.235657
0
LINE
8
BLACK
6
CONTINUOUS
10
0.645753
20
0.235657
11
0.633072
21
0.222977
0
LINE
8
BLACK
6
CONTINUOUS
10
0.633072
20
0.222977
11
0.633521
21
0.219845
0
LINE
8
BLACK
6
CONTINUOUS
10
0.633521
20
0.219845
11
0.633516
21
0.219418
0
LINE
8
BLACK
6
CONTINUOUS
10
0.633516
20
0.219418
11
0.632692
21
0.214525
0
LINE
8
BLACK
6
CONTINUOUS
10
0.632692
20
0.214525
11
0.630529
21
0.210059
0
LINE
8
BLACK
6
CONTINUOUS
10
0.630529
20
0.210059
11
0.627199
21
0.206381
0
LINE
8
BLACK
6
CONTINUOUS
10
0.627199
20
0.206381
11
0.622971
21
0.203785
0
LINE
8
BLACK
6
CONTINUOUS
10
0.622971
20
0.203785
11
0.618184
21
0.202479
0
LINE
8
BLACK
6
CONTINUOUS
10
0.618184
20
0.202479
11
0.613223
21
0.20257
0
LINE
8
BLACK
6
CONTINUOUS
10
0.613223
20
0.20257
11
0.608487
21
0.20405
0
LINE
8
BLACK
6
CONTINUOUS
10
0.608487
20
0.20405
11
0.604357
21
0.206799
0
LINE
8
BLACK
6
CONTINUOUS
10
0.604357
20
0.206799
11
0.601164
21
0.210598
0
LINE
8
BLACK
6
CONTINUOUS
10
0.601164
20
0.210598
11
0.599166
21
0.215139
0
LINE
8
BLACK
6
CONTINUOUS
10
0.599166
20
0.215139
11
0.598522
21
0.220059
0
LINE
8
BLACK
6
CONTINUOUS
10
0.598522
20
0.220059
11
0.599286
21
0.224962
0
LINE
8
BLACK
6
CONTINUOUS
10
0.599286
20
0.224962
11
0.601394
21
0.229453
0
LINE
8
BLACK
6
CONTINUOUS
10
0.601394
20
0.229453
11
0.604679
21
0.233172
0
LINE
8
BLACK
6
CONTINUOUS
10
0.604679
20
0.233172
11
0.608875
21
0.23582
0
LINE
8
BLACK
6
CONTINUOUS
10
0.608875
20
0.23582
11
0.613646
21
0.237183
0
LINE
8
BLACK
6
CONTINUOUS
10
0.613646
20
0.237183
11
0.618608
21
0.237153
0
LINE
8
BLACK
6
CONTINUOUS
10
0.618608
20
0.237153
11
0.619225
21
0.236968
0
LINE
8
BLACK
6
CONTINUOUS
10
0.619225
20
0.236968
11
0.634716
21
0.25246
0
LINE
8
BLACK
6
CONTINUOUS
10
0.634716
20
0.25246
11
0.634716
21
0.25246
0
LINE
8
BLACK
6
CONTINUOUS
10
0.634716
20
0.25246
11
0.637909
21
0.254593
0
LINE
8
BLACK
6
CONTINUOUS
10
0.637909
20
0.254593
11
0.641676
21
0.255343
0
LINE
8
BLACK
6
CONTINUOUS
10
0.641676
20
0.255343
11
0.770581
21
0.255343
0
LINE
8
BLACK
6
CONTINUOUS
10
0.770581
20
0.255343
11
0.773658
21
0.258827
0
LINE
8
BLACK
6
CONTINUOUS
10
0.773658
20
0.258827
11
0.777854
21
0.261475
0
LINE
8
BLACK
6
CONTINUOUS
10
0.777854
20
0.261475
11
0.782625
21
0.262838
0
LINE
8
BLACK
6
CONTINUOUS
10
0.782625
20
0.262838
11
0.787587
21
0.262808
0
LINE
8
BLACK
6
CONTINUOUS
10
1.609
20
0.434
11
1.549
21
0.434
0
LINE
8
BLACK
6
CONTINUOUS
10
1.549
20
0.434
11
1.549
21
0.494
0
LINE
8
BLACK
6
CONTINUOUS
10
1.549
20
0.494
11
1.609
21
0.494
0
LINE
8
BLACK
6
CONTINUOUS
10
1.609
20
0.494
11
1.609
21
0.434
0
LINE
8
BLACK
6
CONTINUOUS
10
1.709
20
0.434
11
1.649
21
0.434
0
LINE
8
BLACK
6
CONTINUOUS
10
1.649
20
0.434
11
1.649
21
0.494
0
LINE
8
BLACK
6
CONTINUOUS
10
1.649
20
0.494
11
1.709
21
0.494
0
LINE
8
BLACK
6
CONTINUOUS
10
1.709
20
0.494
11
1.709
21
0.434
0
LINE
8
BLACK
6
CONTINUOUS
10
0.605
20
0.345
11
0.545
21
0.345
0
LINE
8
BLACK
6
CONTINUOUS
10
0.545
20
0.345
11
0.545
21
0.405
0
LINE
8
BLACK
6
CONTINUOUS
10
0.545
20
0.405
11
0.605
21
0.405
0
LINE
8
BLACK
6
CONTINUOUS
10
0.605
20
0.405
11
0.605
21
0.345
0
LINE
8
BLACK
6
CONTINUOUS
10
0.03
20
0.42
11
-0.03
21
0.42
0
LINE
8
BLACK
6
CONTINUOUS
10
-0.03
20
0.42
11
-0.03
21
0.48
0
LINE
8
BLACK
6
CONTINUOUS
10
-0.03
20
0.48
11
0.03
21
0.48
0
LINE
8
BLACK
6
CONTINUOUS
10
0.03
20
0.48
11
0.03
21
0.42
0
LINE
8
BLACK
6
CONTINUOUS
10
0.13
20
0.42
11
0.07
21
0.42
0
LINE
8
BLACK
6
CONTINUOUS
10
0.07
20
0.42
11
0.07
21
0.48
0
LINE
8
BLACK
6
CONTINUOUS
10
0.07
20
0.48
11
0.13
21
0.48
0
LINE
8
BLACK
6
CONTINUOUS
10
0.13
20
0.48
11
0.13
21
0.42
0
LINE
8
BLACK
6
CONTINUOUS
10
0.405
20
0.345
11
0.345
21
0.345
0
LINE
8
BLACK
6
CONTINUOUS
10
0.345
20
0.345
11
0.345
21
0.405
0
LINE
8
BLACK
6
CONTINUOUS
10
0.345
20
0.405
11
0.405
21
0.405
0
LINE
8
BLACK
6
CONTINUOUS
10
0.405
20
0.405
11
0.405
21
0.345
0
LINE
8
BLACK
6
CONTINUOUS
10
0.731776
20
0.625119
11
0.736529
21
0.623697
0
LINE
8
BLACK
6
CONTINUOUS
10
0.736529
20
0.623697
11
0.740693
21
0.620998
0
LINE
8
BLACK
6
CONTINUOUS
10
0.740693
20
0.620998
11
0.743932
21
0.61724
0
LINE
8
BLACK
6
CONTINUOUS
10
0.743932
20
0.61724
11
0.745986
21
0.612723
0
LINE
8
BLACK
6
CONTINUOUS
10
0.745986
20
0.612723
11
0.746689
21
0.607811
0
LINE
8
BLACK
6
CONTINUOUS
10
0.746689
20
0.607811
11
0.746684
21
0.607383
0
LINE
8
BLACK
6
CONTINUOUS
10
0.746684
20
0.607383
11
0.745861
21
0.60249
0
LINE
8
BLACK
6
CONTINUOUS
10
0.745861
20
0.60249
11
0.743697
21
0.598025
0
LINE
8
BLACK
6
CONTINUOUS
10
0.743697
20
0.598025
11
0.740367
21
0.594347
0
LINE
8
BLACK
6
CONTINUOUS
10
0.740367
20
0.594347
11
0.739031
21
0.593526
0
LINE
8
BLACK
6
CONTINUOUS
10
0.739031
20
0.593526
11
0.739031
21
0.542762
0
LINE
8
BLACK
6
CONTINUOUS
10
0.739031
20
0.542762
11
0.874687
21
0.407106
0
LINE
8
BLACK
6
CONTINUOUS
10
0.874687
20
0.407106
11
0.875499
21
0.407338
0
LINE
8
BLACK
6
CONTINUOUS
10
0.875499
20
0.407338
11
0.880461
21
0.407308
0
LINE
8
BLACK
6
CONTINUOUS
10
0.880461
20
0.407308
11
0.885214
21
0.405886
0
LINE
8
BLACK
6
CONTINUOUS
10
0.885214
20
0.405886
11
0.889378
21
0.403187
0
LINE
8
BLACK
6
CONTINUOUS
10
0.889378
20
0.403187
11
0.892617
21
0.399429
0
LINE
8
BLACK
6
CONTINUOUS
10
0.892617
20
0.399429
11
0.894671
21
0.394912
0
LINE
8
BLACK
6
CONTINUOUS
10
0.894671
20
0.394912
11
0.895374
21
0.39
0
LINE
8
BLACK
6
CONTINUOUS
10
0.895374
20
0.39
11
0.895369
21
0.389572
0
LINE
8
BLACK
6
CONTINUOUS
10
0.895369
20
0.389572
11
0.894546
21
0.384679
0
LINE
8
BLACK
6
CONTINUOUS
10
0.894546
20
0.384679
11
0.892382
21
0.380214
0
LINE
8
BLACK
6
CONTINUOUS
10
0.892382
20
0.380214
11
0.889053
21
0.376536
0
LINE
8
BLACK
6
CONTINUOUS
10
0.889053
20
0.376536
11
0.887717
21
0.375715
0
LINE
8
BLACK
6
CONTINUOUS
10
0.887717
20
0.375715
11
0.887717
21
0.189374
0
LINE
8
BLACK
6
CONTINUOUS
10
0.887717
20
0.189374
11
0.887717
21
0.189374
0
LINE
8
BLACK
6
CONTINUOUS
10
0.887717
20
0.189374
11
0.887065
21
0.186097
0
LINE
8
BLACK
6
CONTINUOUS
10
0.887065
20
0.186097
11
0.886967
21
0.185608
0
LINE
8
BLACK
6
CONTINUOUS
10
0.886967
20
0.185608
11
0.884834
21
0.182414
0
LINE
8
BLACK
6
CONTINUOUS
10
0.884834
20
0.182414
11
0.884834
21
0.182414
0
LINE
8
BLACK
6
CONTINUOUS
10
0.884834
20
0.182414
11
0.880051
21
0.177632
0
LINE
8
BLACK
6
CONTINUOUS
10
0.880051
20
0.177632
11
0.8805
21
0.1745
0
LINE
8
BLACK
6
CONTINUOUS
10
0.8805
20
0.1745
11
0.880495
21
0.174072
0
LINE
8
BLACK
6
CONTINUOUS
10
0.880495
20
0.174072
11
0.879672
21
0.169179
0
LINE
8
BLACK
6
CONTINUOUS
10
0.879672
20
0.169179
11
0.877508
21
0.164714
0
LINE
8
BLACK
6
CONTINUOUS
10
0.877508
20
0.164714
11
0.874178
21
0.161036
0
LINE
8
BLACK
6
CONTINUOUS
10
0.874178
20
0.161036
11
0.86995
21
0.158439
0
LINE
8
BLACK
6
CONTINUOUS
10
0.86995
20
0.158439
11
0.865163
21
0.157134
0
LINE
8
BLACK
6
CONTINUOUS
10
0.865163
20
0.157134
11
0.860202
21
0.157225
0
LINE
8
BLACK
6
CONTINUOUS
10
0.860202
20
0.157225
11
0.855466
21
0.158705
0
LINE
8
BLACK
6
CONTINUOUS
10
0.855466
20
0.158705
11
0.851336
21
0.161454
0
LINE
8
BLACK
6
CONTINUOUS
10
0.851336
20
0.161454
11
0.848143
21
0.165252
0
LINE
8
BLACK
6
CONTINUOUS
10
0.848143
20
0.165252
11
0.846145
21
0.169794
0
LINE
8
BLACK
6
CONTINUOUS
10
0.846145
20
0.169794
11
0.845501
21
0.174714
0
LINE
8
BLACK
6
CONTINUOUS
10
0.845501
20
0.174714
11
0.846265
21
0.179616
0
LINE
8
BLACK
6
CONTINUOUS
10
0.846265
20
0.179616
11
0.848373
21
0.184108
0
LINE
8
BLACK
6
CONTINUOUS
10
0.848373
20
0.184108
11
0.851658
21
0.187827
0
LINE
8
BLACK
6
CONTINUOUS
10
0.851658
20
0.187827
11
0.855854
21
0.190475
0
LINE
8
BLACK
6
CONTINUOUS
10
0.855854
20
0.190475
11
0.860625
21
0.191838
0
LINE
8
BLACK
6
CONTINUOUS
10
0.860625
20
0.191838
11
0.865587
21
0.191808
0
LINE
8
BLACK
6
CONTINUOUS
10
0.865587
20
0.191808
11
0.866204
21
0.191623
0
LINE
8
BLACK
6
CONTINUOUS
10
0.866204
20
0.191623
11
0.868032
21
0.193451
0
LINE
8
BLACK
6
CONTINUOUS
10
0.868032
20
0.193451
11
0.868032
21
0.375741
0
LINE
8
BLACK
6
CONTINUOUS
10
0.868032
20
0.375741
11
0.86621
21
0.376954
0
LINE
8
BLACK
6
CONTINUOUS
10
0.86621
20
0.376954
11
0.863017
21
0.380752
0
LINE
8
BLACK
6
CONTINUOUS
10
0.863017
20
0.380752
11
0.861019
21
0.385294
0
LINE
8
BLACK
6
CONTINUOUS
10
0.861019
20
0.385294
11
0.860375
21
0.390214
0
LINE
8
BLACK
6
CONTINUOUS
10
0.860375
20
0.390214
11
0.860829
21
0.393126
0
LINE
8
BLACK
6
CONTINUOUS
10
0.860829
20
0.393126
11
0.722229
21
0.531725
0
LINE
8
BLACK
6
CONTINUOUS
10
0.722229
20
0.531725
11
0.720096
21
0.534919
0
LINE
8
BLACK
6
CONTINUOUS
10
0.720096
20
0.534919
11
0.719346
21
0.538685
0
LINE
8
BLACK
6
CONTINUOUS
10
0.719346
20
0.538685
11
0.719346
21
0.593553
0
LINE
8
BLACK
6
CONTINUOUS
10
0.719346
20
0.593553
11
0.717525
21
0.594765
0
LINE
8
BLACK
6
CONTINUOUS
10
0.717525
20
0.594765
11
0.714332
21
0.598563
0
LINE
8
BLACK
6
CONTINUOUS
10
0.714332
20
0.598563
11
0.712334
21
0.603105
0
LINE
8
BLACK
6
CONTINUOUS
10
0.712334
20
0.603105
11
0.71169
21
0.608025
0
LINE
8
BLACK
6
CONTINUOUS
10
0.71169
20
0.608025
11
0.712454
21
0.612928
0
LINE
8
BLACK
6
CONTINUOUS
10
0.712454
20
0.612928
11
0.714562
21
0.617419
0
LINE
8
BLACK
6
CONTINUOUS
10
0.714562
20
0.617419
11
0.717847
21
0.621138
0
LINE
8
BLACK
6
CONTINUOUS
10
0.717847
20
0.621138
11
0.722043
21
0.623786
0
LINE
8
BLACK
6
CONTINUOUS
10
0.722043
20
0.623786
11
0.726814
21
0.625149
0
LINE
8
BLACK
6
CONTINUOUS
10
0.726814
20
0.625149
11
0.731776
21
0.625119
0
LINE
8
BLACK
6
CONTINUOUS
10
1.10735
20
0.759093
11
1.11054
21
0.75696
0
LINE
8
BLACK
6
CONTINUOUS
10
1.11054
20
0.75696
11
1.12799
21
0.739508
0
LINE
8
BLACK
6
CONTINUOUS
10
1.12799
20
0.739508
11
1.12881
21
0.73974
0
LINE
8
BLACK
6
CONTINUOUS
10
1.12881
20
0.73974
11
1.13377
21
0.739709
0
LINE
8
BLACK
6
CONTINUOUS
10
1.13377
20
0.739709
11
1.13852
21
0.738288
0
LINE
8
BLACK
6
CONTINUOUS
10
1.13852
20
0.738288
11
1.14269
21
0.735589
0
LINE
8
BLACK
6
CONTINUOUS
10
1.14269
20
0.735589
11
1.14592
21
0.73183
0
LINE
8
BLACK
6
CONTINUOUS
10
1.14592
20
0.73183
11
1.14798
21
0.727313
0
LINE
8
BLACK
6
CONTINUOUS
10
1.14798
20
0.727313
11
1.14868
21
0.722402
0
LINE
8
BLACK
6
CONTINUOUS
10
1.14868
20
0.722402
11
1.14868
21
0.721974
0
LINE
8
BLACK
6
CONTINUOUS
10
1.14868
20
0.721974
11
1.14785
21
0.717081
0
LINE
8
BLACK
6
CONTINUOUS
10
1.14785
20
0.717081
11
1.14569
21
0.712616
0
LINE
8
BLACK
6
CONTINUOUS
10
1.14569
20
0.712616
11
1.14236
21
0.708937
0
LINE
8
BLACK
6
CONTINUOUS
10
1.14236
20
0.708937
11
1.13813
21
0.706341
0
LINE
8
BLACK
6
CONTINUOUS
10
1.13813
20
0.706341
11
1.13334
21
0.705036
0
LINE
8
BLACK
6
CONTINUOUS
10
1.13334
20
0.705036
11
1.12838
21
0.705127
0
LINE
8
BLACK
6
CONTINUOUS
10
1.12838
20
0.705127
11
1.12365
21
0.706606
0
LINE
8
BLACK
6
CONTINUOUS
10
1.12365
20
0.706606
11
1.11952
21
0.709356
0
LINE
8
BLACK
6
CONTINUOUS
10
1.11952
20
0.709356
11
1.11632
21
0.713154
0
LINE
8
BLACK
6
CONTINUOUS
10
1.11632
20
0.713154
11
1.11433
21
0.717695
0
LINE
8
BLACK
6
CONTINUOUS
10
1.11433
20
0.717695
11
1.11368
21
0.722615
0
LINE
8
BLACK
6
CONTINUOUS
10
1.11368
20
0.722615
11
1.11414
21
0.725527
0
LINE
8
BLACK
6
CONTINUOUS
10
1.11414
20
0.725527
11
1.09951
21
0.740157
0
LINE
8
BLACK
6
CONTINUOUS
10
1.09951
20
0.740157
11
0.84
21
0.740157
0
LINE
8
BLACK
6
CONTINUOUS
10
0.84
20
0.740157
11
0.84
21
0.72
0
LINE
8
BLACK
6
CONTINUOUS
10
0.84
20
0.72
11
0.78
21
0.72
0
LINE
8
BLACK
6
CONTINUOUS
10
0.78
20
0.72
11
0.78
21
0.740157
0
LINE
8
BLACK
6
CONTINUOUS
10
0.78
20
0.740157
11
0.778077
21
0.740157
0
LINE
8
BLACK
6
CONTINUOUS
10
0.778077
20
0.740157
11
0.706743
21
0.668824
0
LINE
8
BLACK
6
CONTINUOUS
10
0.706743
20
0.668824
11
0.696843
21
0.658923
0
LINE
8
BLACK
6
CONTINUOUS
10
0.696843
20
0.658923
11
0.696843
21
0.547264
0
LINE
8
BLACK
6
CONTINUOUS
10
0.696843
20
0.547264
11
0.698504
21
0.546187
0
LINE
8
BLACK
6
CONTINUOUS
10
0.698504
20
0.546187
11
0.701743
21
0.542429
0
LINE
8
BLACK
6
CONTINUOUS
10
0.701743
20
0.542429
11
0.703797
21
0.537912
0
LINE
8
BLACK
6
CONTINUOUS
10
0.703797
20
0.537912
11
0.7045
21
0.533
0
LINE
8
BLACK
6
CONTINUOUS
10
0.7045
20
0.533
11
0.704495
21
0.532572
0
LINE
8
BLACK
6
CONTINUOUS
10
0.704495
20
0.532572
11
0.703672
21
0.527679
0
LINE
8
BLACK
6
CONTINUOUS
10
0.703672
20
0.527679
11
0.701508
21
0.523214
0
LINE
8
BLACK
6
CONTINUOUS
10
0.701508
20
0.523214
11
0.698178
21
0.519536
0
LINE
8
BLACK
6
CONTINUOUS
10
0.698178
20
0.519536
11
0.696843
21
0.518715
0
LINE
8
BLACK
6
CONTINUOUS
10
0.696843
20
0.518715
11
0.696843
21
0.467082
0
LINE
8
BLACK
6
CONTINUOUS
10
0.696843
20
0.467082
11
0.705799
21
0.458126
0
LINE
8
BLACK
6
CONTINUOUS
10
0.705799
20
0.458126
11
0.772028
21
0.391897
0
LINE
8
BLACK
6
CONTINUOUS
10
0.772028
20
0.391897
11
0.772839
21
0.392129
0
LINE
8
BLACK
6
CONTINUOUS
10
0.772839
20
0.392129
11
0.777801
21
0.392099
0
LINE
8
BLACK
6
CONTINUOUS
10
0.777801
20
0.392099
11
0.782555
21
0.390677
0
LINE
8
BLACK
6
CONTINUOUS
10
0.782555
20
0.390677
11
0.786719
21
0.387978
0
LINE
8
BLACK
6
CONTINUOUS
10
0.786719
20
0.387978
11
0.789957
21
0.384219
0
LINE
8
BLACK
6
CONTINUOUS
10
0.789957
20
0.384219
11
0.792011
21
0.379703
0
LINE
8
BLACK
6
CONTINUOUS
10
0.792011
20
0.379703
11
0.792714
21
0.374791
0
LINE
8
BLACK
6
CONTINUOUS
10
0.792714
20
0.374791
11
0.792709
21
0.374363
0
LINE
8
BLACK
6
CONTINUOUS
10
0.792709
20
0.374363
11
0.791886
21
0.36947
0
LINE
8
BLACK
6
CONTINUOUS
10
0.791886
20
0.36947
11
0.789723
21
0.365005
0
LINE
8
BLACK
6
CONTINUOUS
10
0.789723
20
0.365005
11
0.786393
21
0.361326
0
LINE
8
BLACK
6
CONTINUOUS
10
0.786393
20
0.361326
11
0.782165
21
0.35873
0
LINE
8
BLACK
6
CONTINUOUS
10
0.782165
20
0.35873
11
0.777377
21
0.357425
0
LINE
8
BLACK
6
CONTINUOUS
10
0.777377
20
0.357425
11
0.772417
21
0.357516
0
LINE
8
BLACK
6
CONTINUOUS
10
0.772417
20
0.357516
11
0.767681
21
0.358996
0
LINE
8
BLACK
6
CONTINUOUS
10
0.767681
20
0.358996
11
0.76355
21
0.361745
0
LINE
8
BLACK
6
CONTINUOUS
10
0.76355
20
0.361745
11
0.760357
21
0.365543
0
LINE
8
BLACK
6
CONTINUOUS
10
0.760357
20
0.365543
11
0.758359
21
0.370085
0
LINE
8
BLACK
6
CONTINUOUS
10
0.758359
20
0.370085
11
0.757716
21
0.375005
0
LINE
8
BLACK
6
CONTINUOUS
10
0.757716
20
0.375005
11
0.758169
21
0.377917
0
LINE
8
BLACK
6
CONTINUOUS
10
0.758169
20
0.377917
11
0.69188
21
0.444206
0
LINE
8
BLACK
6
CONTINUOUS
10
0.69188
20
0.444206
11
0.68004
21
0.456046
0
LINE
8
BLACK
6
CONTINUOUS
10
0.68004
20
0.456046
11
0.677907
21
0.459239
0
LINE
8
BLACK
6
CONTINUOUS
10
0.677907
20
0.459239
11
0.677157
21
0.463005
0
LINE
8
BLACK
6
CONTINUOUS
10
0.677157
20
0.463005
11
0.677157
21
0.518741
0
LINE
8
BLACK
6
CONTINUOUS
10
0.677157
20
0.518741
11
0.675336
21
0.519954
0
LINE
8
BLACK
6
CONTINUOUS
10
0.675336
20
0.519954
11
0.672143
21
0.523752
0
LINE
8
BLACK
6
CONTINUOUS
10
0.672143
20
0.523752
11
0.670145
21
0.528294
0
LINE
8
BLACK
6
CONTINUOUS
10
0.670145
20
0.528294
11
0.669501
21
0.533214
0
LINE
8
BLACK
6
CONTINUOUS
10
0.669501
20
0.533214
11
0.670265
21
0.538116
0
LINE
8
BLACK
6
CONTINUOUS
10
0.670265
20
0.538116
11
0.672373
21
0.542608
0
LINE
8
BLACK
6
CONTINUOUS
10
0.672373
20
0.542608
11
0.675658
21
0.546327
0
LINE
8
BLACK
6
CONTINUOUS
10
0.675658
20
0.546327
11
0.677157
21
0.547273
0
LINE
8
BLACK
6
CONTINUOUS
10
0.677157
20
0.547273
11
0.677157
21
0.663
0
LINE
8
BLACK
6
CONTINUOUS
10
0.677157
20
0.663
11
0.677907
21
0.666767
0
LINE
8
BLACK
6
CONTINUOUS
10
0.677907
20
0.666767
11
0.68004
21
0.66996
0
LINE
8
BLACK
6
CONTINUOUS
10
0.68004
20
0.66996
11
0.692824
21
0.682743
0
LINE
8
BLACK
6
CONTINUOUS
10
0.692824
20
0.682743
11
0.76704
21
0.75696
0
LINE
8
BLACK
6
CONTINUOUS
10
0.76704
20
0.75696
11
0.76704
21
0.75696
0
LINE
8
BLACK
6
CONTINUOUS
10
0.76704
20
0.75696
11
0.770233
21
0.759093
0
LINE
8
BLACK
6
CONTINUOUS
10
0.770233
20
0.759093
11
0.774
21
0.759843
0
LINE
8
BLACK
6
CONTINUOUS
10
0.774
20
0.759843
11
0.78
21
0.759843
0
LINE
8
BLACK
6
CONTINUOUS
10
0.78
20
0.759843
11
0.78
21
0.78
0
LINE
8
BLACK
6
CONTINUOUS
10
0.78
20
0.78
11
0.84
21
0.78
0
LINE
8
BLACK
6
CONTINUOUS
10
0.84
20
0.78
11
0.84
21
0.759843
0
LINE
8
BLACK
6
CONTINUOUS
10
0.84
20
0.759843
11
1.10358
21
0.759843
0
LINE
8
BLACK
6
CONTINUOUS
10
1.10358
20
0.759843
11
1.10735
21
0.759093
0
LINE
8
BLACK
6
CONTINUOUS
10
0.84
20
0.62
11
0.78
21
0.62
0
LINE
8
BLACK
6
CONTINUOUS
10
0.78
20
0.62
11
0.78
21
0.68
0
LINE
8
BLACK
6
CONTINUOUS
10
0.78
20
0.68
11
0.84
21
0.68
0
LINE
8
BLACK
6
CONTINUOUS
10
0.84
20
0.68
11
0.84
21
0.62
0
CIRCLE
8
BLACK
10
0.974
20
0.65
40
0.0125
0
CIRCLE
8
BLACK
10
0.671
20
0.882
40
0.0125
0
CIRCLE
8
BLACK
10
1.29
20
0.859
40
0.0125
0
CIRCLE
8
BLACK
10
1.093
20
0.878
40
0.0125
0
CIRCLE
8
BLACK
10
0.975
20
0.55
40
0.0125
0
CIRCLE
8
BLACK
10
0.866
20
0.52
40
0.0125
0
CIRCLE
8
BLACK
10
0.916
20
0.136
40
0.0125
0
CIRCLE
8
BLACK
10
-0.086
20
0.626
40
0.0125
0
CIRCLE
8
BLACK
10
-0.086
20
0.19
40
0.0125
0
CIRCLE
8
BLACK
10
1.126
20
0.482
40
0.0125
0
CIRCLE
8
BLACK
10
1.314
20
0.147
40
0.0125
0
CIRCLE
8
BLACK
10
0.0504724
20
0.196811
40
0.0125
0
CIRCLE
8
BLACK
10
1.458
20
0.201
40
0.0125
0
CIRCLE
8
BLACK
10
1.0825
20
0.1275
40
0.0125
0
CIRCLE
8
BLACK
10
0.907
20
0.874
40
0.0125
0
CIRCLE
8
BLACK
10
0.481
20
0.899
40
0.0125
0
CIRCLE
8
BLACK
10
0.169
20
0.729
40
0.0125
0
CIRCLE
8
BLACK
10
0.775214
20
0.374791
40
0.0125
0
CIRCLE
8
BLACK
10
0.687
20
0.533
40
0.0125
0
CIRCLE
8
BLACK
10
1.13118
20
0.722402
40
0.0125
0
CIRCLE
8
BLACK
10
0.785
20
0.2455
40
0.0125
0
CIRCLE
8
BLACK
10
0.616021
20
0.219845
40
0.0125
0
CIRCLE
8
BLACK
10
0.863
20
0.1745
40
0.0125
0
CIRCLE
8
BLACK
10
0.877874
20
0.39
40
0.0125
0
CIRCLE
8
BLACK
10
0.729189
20
0.607811
40
0.0125
  0
ENDSEC
  0
EOF
