  0
SECTION
  2
HEADER
  9
$ANGBASE
  50
0.0
  9
$ANGDIR
  70
1
  9
$MEASUREMENT
  70
0
  0
ENDSEC
  0
SECTION
  2
TABLES
  0
TABLE
  2
LTYPE
  70
4
  0
LTYPE
  5
40F
  2
CONTINUOUS
  70
0
  3
Solid line
  72
65
  73
0
  40
0.0
  0
LTYPE
  5
410
  2
DASHDOT
 70
0
  3
Dash Dot ____ _ ____ _
 72
65
 73
4
 40
2.0
 49
1.25
 49
-0.25
 49
0.25
 49
-0.25
  0
LTYPE
  5
411
  2
DASHED
 70
0
  3
Dashed __ __ __ __ __
 72
65
 73
2
 40
0.75
 49
0.5
 49
-0.25
  0
LTYPE
  5
43B
  2
DOTTED
 70
0
  3
Dotted .  .  .  .
 72
65
 73
2
 40
0.2
 49
0.0
 49
-0.2
  0
ENDTAB
  0
TABLE
  2
STYLE
  70
4
  0
STYLE
  2
KICAD
  70
0
  40
0
  41
1
  42
1
  50
0
  71
0
  3
isocp.shx
  0
STYLE
  2
KICADB
  70
0
  40
0
  41
1
  42
1
  50
0
  71
0
  3
isocp.shx
  0
STYLE
  2
KICADI
  70
0
  40
0
  41
1
  42
1
  50
15
  71
0
  3
isocp.shx
  0
STYLE
  2
KICADBI
  70
0
  40
0
  41
1
  42
1
  50
15
  71
0
  3
isocp.shx
  0
ENDTAB
  0
TABLE
  2
LAYER
  70
1
  0
LAYER
  2
BLACK
  70
0
  62
7
  6
CONTINUOUS
  0
ENDTAB
  0
ENDSEC
  0
SECTION
  2
ENTITIES
0
LINE
8
BLACK
6
CONTINUOUS
10
0.825013
20
-0.0627254
11
0.827568
21
-0.0644322
0
LINE
8
BLACK
6
CONTINUOUS
10
0.827568
20
-0.0644322
11
0.829275
21
-0.0669867
0
LINE
8
BLACK
6
CONTINUOUS
10
0.829275
20
-0.0669867
11
0.829874
21
-0.07
0
LINE
8
BLACK
6
CONTINUOUS
10
0.829874
20
-0.07
11
0.829874
21
-0.13
0
LINE
8
BLACK
6
CONTINUOUS
10
0.829874
20
-0.13
11
0.829275
21
-0.133013
0
LINE
8
BLACK
6
CONTINUOUS
10
0.829275
20
-0.133013
11
0.827568
21
-0.135568
0
LINE
8
BLACK
6
CONTINUOUS
10
0.827568
20
-0.135568
11
0.825013
21
-0.137275
0
LINE
8
BLACK
6
CONTINUOUS
10
0.825013
20
-0.137275
11
0.822
21
-0.137874
0
LINE
8
BLACK
6
CONTINUOUS
10
0.822
20
-0.137874
11
0.762
21
-0.137874
0
LINE
8
BLACK
6
CONTINUOUS
10
0.762
20
-0.137874
11
0.758987
21
-0.137275
0
LINE
8
BLACK
6
CONTINUOUS
10
0.758987
20
-0.137275
11
0.756432
21
-0.135568
0
LINE
8
BLACK
6
CONTINUOUS
10
0.756432
20
-0.135568
11
0.754725
21
-0.133013
0
LINE
8
BLACK
6
CONTINUOUS
10
0.754725
20
-0.133013
11
0.754126
21
-0.13
0
LINE
8
BLACK
6
CONTINUOUS
10
0.754126
20
-0.13
11
0.754126
21
-0.07
0
LINE
8
BLACK
6
CONTINUOUS
10
0.754126
20
-0.07
11
0.754725
21
-0.0669867
0
LINE
8
BLACK
6
CONTINUOUS
10
0.754725
20
-0.0669867
11
0.756432
21
-0.0644322
0
LINE
8
BLACK
6
CONTINUOUS
10
0.756432
20
-0.0644322
11
0.758987
21
-0.0627254
0
LINE
8
BLACK
6
CONTINUOUS
10
0.758987
20
-0.0627254
11
0.762
21
-0.062126
0
LINE
8
BLACK
6
CONTINUOUS
10
0.762
20
-0.062126
11
0.822
21
-0.062126
0
LINE
8
BLACK
6
CONTINUOUS
10
0.822
20
-0.062126
11
0.825013
21
-0.0627254
0
LINE
8
BLACK
6
CONTINUOUS
10
0.925013
20
-0.0627254
11
0.927568
21
-0.0644322
0
LINE
8
BLACK
6
CONTINUOUS
10
0.927568
20
-0.0644322
11
0.929275
21
-0.0669867
0
LINE
8
BLACK
6
CONTINUOUS
10
0.929275
20
-0.0669867
11
0.929874
21
-0.07
0
LINE
8
BLACK
6
CONTINUOUS
10
0.929874
20
-0.07
11
0.929874
21
-0.13
0
LINE
8
BLACK
6
CONTINUOUS
10
0.929874
20
-0.13
11
0.929275
21
-0.133013
0
LINE
8
BLACK
6
CONTINUOUS
10
0.929275
20
-0.133013
11
0.927568
21
-0.135568
0
LINE
8
BLACK
6
CONTINUOUS
10
0.927568
20
-0.135568
11
0.925013
21
-0.137275
0
LINE
8
BLACK
6
CONTINUOUS
10
0.925013
20
-0.137275
11
0.922
21
-0.137874
0
LINE
8
BLACK
6
CONTINUOUS
10
0.922
20
-0.137874
11
0.862
21
-0.137874
0
LINE
8
BLACK
6
CONTINUOUS
10
0.862
20
-0.137874
11
0.858987
21
-0.137275
0
LINE
8
BLACK
6
CONTINUOUS
10
0.858987
20
-0.137275
11
0.856432
21
-0.135568
0
LINE
8
BLACK
6
CONTINUOUS
10
0.856432
20
-0.135568
11
0.854725
21
-0.133013
0
LINE
8
BLACK
6
CONTINUOUS
10
0.854725
20
-0.133013
11
0.854126
21
-0.13
0
LINE
8
BLACK
6
CONTINUOUS
10
0.854126
20
-0.13
11
0.854126
21
-0.07
0
LINE
8
BLACK
6
CONTINUOUS
10
0.854126
20
-0.07
11
0.854725
21
-0.0669867
0
LINE
8
BLACK
6
CONTINUOUS
10
0.854725
20
-0.0669867
11
0.856432
21
-0.0644322
0
LINE
8
BLACK
6
CONTINUOUS
10
0.856432
20
-0.0644322
11
0.858987
21
-0.0627254
0
LINE
8
BLACK
6
CONTINUOUS
10
0.858987
20
-0.0627254
11
0.862
21
-0.062126
0
LINE
8
BLACK
6
CONTINUOUS
10
0.862
20
-0.062126
11
0.922
21
-0.062126
0
LINE
8
BLACK
6
CONTINUOUS
10
0.922
20
-0.062126
11
0.925013
21
-0.0627254
0
LINE
8
BLACK
6
CONTINUOUS
10
1.02501
20
-0.0627254
11
1.02757
21
-0.0644322
0
LINE
8
BLACK
6
CONTINUOUS
10
1.02757
20
-0.0644322
11
1.02927
21
-0.0669867
0
LINE
8
BLACK
6
CONTINUOUS
10
1.02927
20
-0.0669867
11
1.02987
21
-0.07
0
LINE
8
BLACK
6
CONTINUOUS
10
1.02987
20
-0.07
11
1.02987
21
-0.13
0
LINE
8
BLACK
6
CONTINUOUS
10
1.02987
20
-0.13
11
1.02927
21
-0.133013
0
LINE
8
BLACK
6
CONTINUOUS
10
1.02927
20
-0.133013
11
1.02757
21
-0.135568
0
LINE
8
BLACK
6
CONTINUOUS
10
1.02757
20
-0.135568
11
1.02501
21
-0.137275
0
LINE
8
BLACK
6
CONTINUOUS
10
1.02501
20
-0.137275
11
1.022
21
-0.137874
0
LINE
8
BLACK
6
CONTINUOUS
10
1.022
20
-0.137874
11
0.962
21
-0.137874
0
LINE
8
BLACK
6
CONTINUOUS
10
0.962
20
-0.137874
11
0.958987
21
-0.137275
0
LINE
8
BLACK
6
CONTINUOUS
10
0.958987
20
-0.137275
11
0.956432
21
-0.135568
0
LINE
8
BLACK
6
CONTINUOUS
10
0.956432
20
-0.135568
11
0.954725
21
-0.133013
0
LINE
8
BLACK
6
CONTINUOUS
10
0.954725
20
-0.133013
11
0.954126
21
-0.13
0
LINE
8
BLACK
6
CONTINUOUS
10
0.954126
20
-0.13
11
0.954126
21
-0.07
0
LINE
8
BLACK
6
CONTINUOUS
10
0.954126
20
-0.07
11
0.954725
21
-0.0669867
0
LINE
8
BLACK
6
CONTINUOUS
10
0.954725
20
-0.0669867
11
0.956432
21
-0.0644322
0
LINE
8
BLACK
6
CONTINUOUS
10
0.956432
20
-0.0644322
11
0.958987
21
-0.0627254
0
LINE
8
BLACK
6
CONTINUOUS
10
0.958987
20
-0.0627254
11
0.962
21
-0.062126
0
LINE
8
BLACK
6
CONTINUOUS
10
0.962
20
-0.062126
11
1.022
21
-0.062126
0
LINE
8
BLACK
6
CONTINUOUS
10
1.022
20
-0.062126
11
1.02501
21
-0.0627254
0
LINE
8
BLACK
6
CONTINUOUS
10
1.12501
20
-0.0627254
11
1.12757
21
-0.0644322
0
LINE
8
BLACK
6
CONTINUOUS
10
1.12757
20
-0.0644322
11
1.12927
21
-0.0669867
0
LINE
8
BLACK
6
CONTINUOUS
10
1.12927
20
-0.0669867
11
1.12987
21
-0.07
0
LINE
8
BLACK
6
CONTINUOUS
10
1.12987
20
-0.07
11
1.12987
21
-0.13
0
LINE
8
BLACK
6
CONTINUOUS
10
1.12987
20
-0.13
11
1.12927
21
-0.133013
0
LINE
8
BLACK
6
CONTINUOUS
10
1.12927
20
-0.133013
11
1.12757
21
-0.135568
0
LINE
8
BLACK
6
CONTINUOUS
10
1.12757
20
-0.135568
11
1.12501
21
-0.137275
0
LINE
8
BLACK
6
CONTINUOUS
10
1.12501
20
-0.137275
11
1.122
21
-0.137874
0
LINE
8
BLACK
6
CONTINUOUS
10
1.122
20
-0.137874
11
1.062
21
-0.137874
0
LINE
8
BLACK
6
CONTINUOUS
10
1.062
20
-0.137874
11
1.05899
21
-0.137275
0
LINE
8
BLACK
6
CONTINUOUS
10
1.05899
20
-0.137275
11
1.05643
21
-0.135568
0
LINE
8
BLACK
6
CONTINUOUS
10
1.05643
20
-0.135568
11
1.05473
21
-0.133013
0
LINE
8
BLACK
6
CONTINUOUS
10
1.05473
20
-0.133013
11
1.05413
21
-0.13
0
LINE
8
BLACK
6
CONTINUOUS
10
1.05413
20
-0.13
11
1.05413
21
-0.07
0
LINE
8
BLACK
6
CONTINUOUS
10
1.05413
20
-0.07
11
1.05473
21
-0.0669867
0
LINE
8
BLACK
6
CONTINUOUS
10
1.05473
20
-0.0669867
11
1.05643
21
-0.0644322
0
LINE
8
BLACK
6
CONTINUOUS
10
1.05643
20
-0.0644322
11
1.05899
21
-0.0627254
0
LINE
8
BLACK
6
CONTINUOUS
10
1.05899
20
-0.0627254
11
1.062
21
-0.062126
0
LINE
8
BLACK
6
CONTINUOUS
10
1.062
20
-0.062126
11
1.122
21
-0.062126
0
LINE
8
BLACK
6
CONTINUOUS
10
1.122
20
-0.062126
11
1.12501
21
-0.0627254
0
LINE
8
BLACK
6
CONTINUOUS
10
1.22501
20
-0.0627254
11
1.22757
21
-0.0644322
0
LINE
8
BLACK
6
CONTINUOUS
10
1.22757
20
-0.0644322
11
1.22927
21
-0.0669867
0
LINE
8
BLACK
6
CONTINUOUS
10
1.22927
20
-0.0669867
11
1.22987
21
-0.07
0
LINE
8
BLACK
6
CONTINUOUS
10
1.22987
20
-0.07
11
1.22987
21
-0.13
0
LINE
8
BLACK
6
CONTINUOUS
10
1.22987
20
-0.13
11
1.22927
21
-0.133013
0
LINE
8
BLACK
6
CONTINUOUS
10
1.22927
20
-0.133013
11
1.22757
21
-0.135568
0
LINE
8
BLACK
6
CONTINUOUS
10
1.22757
20
-0.135568
11
1.22501
21
-0.137275
0
LINE
8
BLACK
6
CONTINUOUS
10
1.22501
20
-0.137275
11
1.222
21
-0.137874
0
LINE
8
BLACK
6
CONTINUOUS
10
1.222
20
-0.137874
11
1.162
21
-0.137874
0
LINE
8
BLACK
6
CONTINUOUS
10
1.162
20
-0.137874
11
1.15899
21
-0.137275
0
LINE
8
BLACK
6
CONTINUOUS
10
1.15899
20
-0.137275
11
1.15643
21
-0.135568
0
LINE
8
BLACK
6
CONTINUOUS
10
1.15643
20
-0.135568
11
1.15473
21
-0.133013
0
LINE
8
BLACK
6
CONTINUOUS
10
1.15473
20
-0.133013
11
1.15413
21
-0.13
0
LINE
8
BLACK
6
CONTINUOUS
10
1.15413
20
-0.13
11
1.15413
21
-0.07
0
LINE
8
BLACK
6
CONTINUOUS
10
1.15413
20
-0.07
11
1.15473
21
-0.0669867
0
LINE
8
BLACK
6
CONTINUOUS
10
1.15473
20
-0.0669867
11
1.15643
21
-0.0644322
0
LINE
8
BLACK
6
CONTINUOUS
10
1.15643
20
-0.0644322
11
1.15899
21
-0.0627254
0
LINE
8
BLACK
6
CONTINUOUS
10
1.15899
20
-0.0627254
11
1.162
21
-0.062126
0
LINE
8
BLACK
6
CONTINUOUS
10
1.162
20
-0.062126
11
1.222
21
-0.062126
0
LINE
8
BLACK
6
CONTINUOUS
10
1.222
20
-0.062126
11
1.22501
21
-0.0627254
0
LINE
8
BLACK
6
CONTINUOUS
10
0.0141057
20
0.125192
11
0.0280341
21
0.122826
0
LINE
8
BLACK
6
CONTINUOUS
10
0.0280341
20
0.122826
11
0.04161
21
0.118914
0
LINE
8
BLACK
6
CONTINUOUS
10
0.04161
20
0.118914
11
0.0546625
21
0.113508
0
LINE
8
BLACK
6
CONTINUOUS
10
0.0546625
20
0.113508
11
0.0670277
21
0.106674
0
LINE
8
BLACK
6
CONTINUOUS
10
0.0670277
20
0.106674
11
0.0785499
21
0.0984985
0
LINE
8
BLACK
6
CONTINUOUS
10
0.0785499
20
0.0984985
11
0.0890843
21
0.0890843
0
LINE
8
BLACK
6
CONTINUOUS
10
0.0890843
20
0.0890843
11
0.0984985
21
0.0785499
0
LINE
8
BLACK
6
CONTINUOUS
10
0.0984985
20
0.0785499
11
0.106674
21
0.0670277
0
LINE
8
BLACK
6
CONTINUOUS
10
0.106674
20
0.0670277
11
0.113508
21
0.0546625
0
LINE
8
BLACK
6
CONTINUOUS
10
0.113508
20
0.0546625
11
0.118914
21
0.04161
0
LINE
8
BLACK
6
CONTINUOUS
10
0.118914
20
0.04161
11
0.122826
21
0.0280341
0
LINE
8
BLACK
6
CONTINUOUS
10
0.122826
20
0.0280341
11
0.125192
21
0.0141057
0
LINE
8
BLACK
6
CONTINUOUS
10
0.125192
20
0.0141057
11
0.125984
21
0
0
LINE
8
BLACK
6
CONTINUOUS
10
0.125984
20
0
11
0.125192
21
-0.0141057
0
LINE
8
BLACK
6
CONTINUOUS
10
0.125192
20
-0.0141057
11
0.122826
21
-0.0280341
0
LINE
8
BLACK
6
CONTINUOUS
10
0.122826
20
-0.0280341
11
0.118914
21
-0.04161
0
LINE
8
BLACK
6
CONTINUOUS
10
0.118914
20
-0.04161
11
0.113508
21
-0.0546625
0
LINE
8
BLACK
6
CONTINUOUS
10
0.113508
20
-0.0546625
11
0.106674
21
-0.0670277
0
LINE
8
BLACK
6
CONTINUOUS
10
0.106674
20
-0.0670277
11
0.0984985
21
-0.0785499
0
LINE
8
BLACK
6
CONTINUOUS
10
0.0984985
20
-0.0785499
11
0.0890843
21
-0.0890843
0
LINE
8
BLACK
6
CONTINUOUS
10
0.0890843
20
-0.0890843
11
0.0785499
21
-0.0984985
0
LINE
8
BLACK
6
CONTINUOUS
10
0.0785499
20
-0.0984985
11
0.0670277
21
-0.106674
0
LINE
8
BLACK
6
CONTINUOUS
10
0.0670277
20
-0.106674
11
0.0546625
21
-0.113508
0
LINE
8
BLACK
6
CONTINUOUS
10
0.0546625
20
-0.113508
11
0.04161
21
-0.118914
0
LINE
8
BLACK
6
CONTINUOUS
10
0.04161
20
-0.118914
11
0.0280341
21
-0.122826
0
LINE
8
BLACK
6
CONTINUOUS
10
0.0280341
20
-0.122826
11
0.0141057
21
-0.125192
0
LINE
8
BLACK
6
CONTINUOUS
10
0.0141057
20
-0.125192
11
0
21
-0.125984
0
LINE
8
BLACK
6
CONTINUOUS
10
0
20
-0.125984
11
-0.0141057
21
-0.125192
0
LINE
8
BLACK
6
CONTINUOUS
10
-0.0141057
20
-0.125192
11
-0.0280341
21
-0.122826
0
LINE
8
BLACK
6
CONTINUOUS
10
-0.0280341
20
-0.122826
11
-0.04161
21
-0.118914
0
LINE
8
BLACK
6
CONTINUOUS
10
-0.04161
20
-0.118914
11
-0.0546625
21
-0.113508
0
LINE
8
BLACK
6
CONTINUOUS
10
-0.0546625
20
-0.113508
11
-0.0670277
21
-0.106674
0
LINE
8
BLACK
6
CONTINUOUS
10
-0.0670277
20
-0.106674
11
-0.0785499
21
-0.0984985
0
LINE
8
BLACK
6
CONTINUOUS
10
-0.0785499
20
-0.0984985
11
-0.0890843
21
-0.0890843
0
LINE
8
BLACK
6
CONTINUOUS
10
-0.0890843
20
-0.0890843
11
-0.0984985
21
-0.0785499
0
LINE
8
BLACK
6
CONTINUOUS
10
-0.0984985
20
-0.0785499
11
-0.106674
21
-0.0670277
0
LINE
8
BLACK
6
CONTINUOUS
10
-0.106674
20
-0.0670277
11
-0.113508
21
-0.0546625
0
LINE
8
BLACK
6
CONTINUOUS
10
-0.113508
20
-0.0546625
11
-0.118914
21
-0.04161
0
LINE
8
BLACK
6
CONTINUOUS
10
-0.118914
20
-0.04161
11
-0.122826
21
-0.0280341
0
LINE
8
BLACK
6
CONTINUOUS
10
-0.122826
20
-0.0280341
11
-0.125192
21
-0.0141057
0
LINE
8
BLACK
6
CONTINUOUS
10
-0.125192
20
-0.0141057
11
-0.125984
21
0
0
LINE
8
BLACK
6
CONTINUOUS
10
-0.125984
20
0
11
-0.125192
21
0.0141057
0
LINE
8
BLACK
6
CONTINUOUS
10
-0.125192
20
0.0141057
11
-0.122826
21
0.0280341
0
LINE
8
BLACK
6
CONTINUOUS
10
-0.122826
20
0.0280341
11
-0.118914
21
0.04161
0
LINE
8
BLACK
6
CONTINUOUS
10
-0.118914
20
0.04161
11
-0.113508
21
0.0546625
0
LINE
8
BLACK
6
CONTINUOUS
10
-0.113508
20
0.0546625
11
-0.106674
21
0.0670277
0
LINE
8
BLACK
6
CONTINUOUS
10
-0.106674
20
0.0670277
11
-0.0984985
21
0.0785499
0
LINE
8
BLACK
6
CONTINUOUS
10
-0.0984985
20
0.0785499
11
-0.0890843
21
0.0890843
0
LINE
8
BLACK
6
CONTINUOUS
10
-0.0890843
20
0.0890843
11
-0.0785499
21
0.0984985
0
LINE
8
BLACK
6
CONTINUOUS
10
-0.0785499
20
0.0984985
11
-0.0670277
21
0.106674
0
LINE
8
BLACK
6
CONTINUOUS
10
-0.0670277
20
0.106674
11
-0.0546625
21
0.113508
0
LINE
8
BLACK
6
CONTINUOUS
10
-0.0546625
20
0.113508
11
-0.04161
21
0.118914
0
LINE
8
BLACK
6
CONTINUOUS
10
-0.04161
20
0.118914
11
-0.0280341
21
0.122826
0
LINE
8
BLACK
6
CONTINUOUS
10
-0.0280341
20
0.122826
11
-0.0141057
21
0.125192
0
LINE
8
BLACK
6
CONTINUOUS
10
-0.0141057
20
0.125192
11
0
21
0.125984
0
LINE
8
BLACK
6
CONTINUOUS
10
0
20
0.125984
11
0.0141057
21
0.125192
0
LINE
8
BLACK
6
CONTINUOUS
10
1.61411
20
0.125192
11
1.62803
21
0.122826
0
LINE
8
BLACK
6
CONTINUOUS
10
1.62803
20
0.122826
11
1.64161
21
0.118914
0
LINE
8
BLACK
6
CONTINUOUS
10
1.64161
20
0.118914
11
1.65466
21
0.113508
0
LINE
8
BLACK
6
CONTINUOUS
10
1.65466
20
0.113508
11
1.66703
21
0.106674
0
LINE
8
BLACK
6
CONTINUOUS
10
1.66703
20
0.106674
11
1.67855
21
0.0984985
0
LINE
8
BLACK
6
CONTINUOUS
10
1.67855
20
0.0984985
11
1.68908
21
0.0890843
0
LINE
8
BLACK
6
CONTINUOUS
10
1.68908
20
0.0890843
11
1.6985
21
0.0785499
0
LINE
8
BLACK
6
CONTINUOUS
10
1.6985
20
0.0785499
11
1.70667
21
0.0670277
0
LINE
8
BLACK
6
CONTINUOUS
10
1.70667
20
0.0670277
11
1.71351
21
0.0546625
0
LINE
8
BLACK
6
CONTINUOUS
10
1.71351
20
0.0546625
11
1.71891
21
0.04161
0
LINE
8
BLACK
6
CONTINUOUS
10
1.71891
20
0.04161
11
1.72283
21
0.0280341
0
LINE
8
BLACK
6
CONTINUOUS
10
1.72283
20
0.0280341
11
1.72519
21
0.0141057
0
LINE
8
BLACK
6
CONTINUOUS
10
1.72519
20
0.0141057
11
1.72598
21
0
0
LINE
8
BLACK
6
CONTINUOUS
10
1.72598
20
0
11
1.72519
21
-0.0141057
0
LINE
8
BLACK
6
CONTINUOUS
10
1.72519
20
-0.0141057
11
1.72283
21
-0.0280341
0
LINE
8
BLACK
6
CONTINUOUS
10
1.72283
20
-0.0280341
11
1.71891
21
-0.04161
0
LINE
8
BLACK
6
CONTINUOUS
10
1.71891
20
-0.04161
11
1.71351
21
-0.0546625
0
LINE
8
BLACK
6
CONTINUOUS
10
1.71351
20
-0.0546625
11
1.70667
21
-0.0670277
0
LINE
8
BLACK
6
CONTINUOUS
10
1.70667
20
-0.0670277
11
1.6985
21
-0.0785499
0
LINE
8
BLACK
6
CONTINUOUS
10
1.6985
20
-0.0785499
11
1.68908
21
-0.0890843
0
LINE
8
BLACK
6
CONTINUOUS
10
1.68908
20
-0.0890843
11
1.67855
21
-0.0984985
0
LINE
8
BLACK
6
CONTINUOUS
10
1.67855
20
-0.0984985
11
1.66703
21
-0.106674
0
LINE
8
BLACK
6
CONTINUOUS
10
1.66703
20
-0.106674
11
1.65466
21
-0.113508
0
LINE
8
BLACK
6
CONTINUOUS
10
1.65466
20
-0.113508
11
1.64161
21
-0.118914
0
LINE
8
BLACK
6
CONTINUOUS
10
1.64161
20
-0.118914
11
1.62803
21
-0.122826
0
LINE
8
BLACK
6
CONTINUOUS
10
1.62803
20
-0.122826
11
1.61411
21
-0.125192
0
LINE
8
BLACK
6
CONTINUOUS
10
1.61411
20
-0.125192
11
1.6
21
-0.125984
0
LINE
8
BLACK
6
CONTINUOUS
10
1.6
20
-0.125984
11
1.58589
21
-0.125192
0
LINE
8
BLACK
6
CONTINUOUS
10
1.58589
20
-0.125192
11
1.57197
21
-0.122826
0
LINE
8
BLACK
6
CONTINUOUS
10
1.57197
20
-0.122826
11
1.55839
21
-0.118914
0
LINE
8
BLACK
6
CONTINUOUS
10
1.55839
20
-0.118914
11
1.54534
21
-0.113508
0
LINE
8
BLACK
6
CONTINUOUS
10
1.54534
20
-0.113508
11
1.53297
21
-0.106674
0
LINE
8
BLACK
6
CONTINUOUS
10
1.53297
20
-0.106674
11
1.52145
21
-0.0984985
0
LINE
8
BLACK
6
CONTINUOUS
10
1.52145
20
-0.0984985
11
1.51092
21
-0.0890843
0
LINE
8
BLACK
6
CONTINUOUS
10
1.51092
20
-0.0890843
11
1.5015
21
-0.0785499
0
LINE
8
BLACK
6
CONTINUOUS
10
1.5015
20
-0.0785499
11
1.49333
21
-0.0670277
0
LINE
8
BLACK
6
CONTINUOUS
10
1.49333
20
-0.0670277
11
1.48649
21
-0.0546625
0
LINE
8
BLACK
6
CONTINUOUS
10
1.48649
20
-0.0546625
11
1.48109
21
-0.04161
0
LINE
8
BLACK
6
CONTINUOUS
10
1.48109
20
-0.04161
11
1.47717
21
-0.0280341
0
LINE
8
BLACK
6
CONTINUOUS
10
1.47717
20
-0.0280341
11
1.47481
21
-0.0141057
0
LINE
8
BLACK
6
CONTINUOUS
10
1.47481
20
-0.0141057
11
1.47402
21
0
0
LINE
8
BLACK
6
CONTINUOUS
10
1.47402
20
0
11
1.47481
21
0.0141057
0
LINE
8
BLACK
6
CONTINUOUS
10
1.47481
20
0.0141057
11
1.47717
21
0.0280341
0
LINE
8
BLACK
6
CONTINUOUS
10
1.47717
20
0.0280341
11
1.48109
21
0.04161
0
LINE
8
BLACK
6
CONTINUOUS
10
1.48109
20
0.04161
11
1.48649
21
0.0546625
0
LINE
8
BLACK
6
CONTINUOUS
10
1.48649
20
0.0546625
11
1.49333
21
0.0670277
0
LINE
8
BLACK
6
CONTINUOUS
10
1.49333
20
0.0670277
11
1.5015
21
0.0785499
0
LINE
8
BLACK
6
CONTINUOUS
10
1.5015
20
0.0785499
11
1.51092
21
0.0890843
0
LINE
8
BLACK
6
CONTINUOUS
10
1.51092
20
0.0890843
11
1.52145
21
0.0984985
0
LINE
8
BLACK
6
CONTINUOUS
10
1.52145
20
0.0984985
11
1.53297
21
0.106674
0
LINE
8
BLACK
6
CONTINUOUS
10
1.53297
20
0.106674
11
1.54534
21
0.113508
0
LINE
8
BLACK
6
CONTINUOUS
10
1.54534
20
0.113508
11
1.55839
21
0.118914
0
LINE
8
BLACK
6
CONTINUOUS
10
1.55839
20
0.118914
11
1.57197
21
0.122826
0
LINE
8
BLACK
6
CONTINUOUS
10
1.57197
20
0.122826
11
1.58589
21
0.125192
0
LINE
8
BLACK
6
CONTINUOUS
10
1.58589
20
0.125192
11
1.6
21
0.125984
0
LINE
8
BLACK
6
CONTINUOUS
10
1.6
20
0.125984
11
1.61411
21
0.125192
0
LINE
8
BLACK
6
CONTINUOUS
10
0.825013
20
0.0372746
11
0.827568
21
0.0355678
0
LINE
8
BLACK
6
CONTINUOUS
10
0.827568
20
0.0355678
11
0.829275
21
0.0330133
0
LINE
8
BLACK
6
CONTINUOUS
10
0.829275
20
0.0330133
11
0.829874
21
0.03
0
LINE
8
BLACK
6
CONTINUOUS
10
0.829874
20
0.03
11
0.829874
21
-0.03
0
LINE
8
BLACK
6
CONTINUOUS
10
0.829874
20
-0.03
11
0.829275
21
-0.0330133
0
LINE
8
BLACK
6
CONTINUOUS
10
0.829275
20
-0.0330133
11
0.827568
21
-0.0355678
0
LINE
8
BLACK
6
CONTINUOUS
10
0.827568
20
-0.0355678
11
0.825013
21
-0.0372746
0
LINE
8
BLACK
6
CONTINUOUS
10
0.825013
20
-0.0372746
11
0.822
21
-0.037874
0
LINE
8
BLACK
6
CONTINUOUS
10
0.822
20
-0.037874
11
0.762
21
-0.037874
0
LINE
8
BLACK
6
CONTINUOUS
10
0.762
20
-0.037874
11
0.758987
21
-0.0372746
0
LINE
8
BLACK
6
CONTINUOUS
10
0.758987
20
-0.0372746
11
0.756432
21
-0.0355678
0
LINE
8
BLACK
6
CONTINUOUS
10
0.756432
20
-0.0355678
11
0.754725
21
-0.0330133
0
LINE
8
BLACK
6
CONTINUOUS
10
0.754725
20
-0.0330133
11
0.754126
21
-0.03
0
LINE
8
BLACK
6
CONTINUOUS
10
0.754126
20
-0.03
11
0.754126
21
0.03
0
LINE
8
BLACK
6
CONTINUOUS
10
0.754126
20
0.03
11
0.754725
21
0.0330133
0
LINE
8
BLACK
6
CONTINUOUS
10
0.754725
20
0.0330133
11
0.756432
21
0.0355678
0
LINE
8
BLACK
6
CONTINUOUS
10
0.756432
20
0.0355678
11
0.758987
21
0.0372746
0
LINE
8
BLACK
6
CONTINUOUS
10
0.758987
20
0.0372746
11
0.762
21
0.037874
0
LINE
8
BLACK
6
CONTINUOUS
10
0.762
20
0.037874
11
0.822
21
0.037874
0
LINE
8
BLACK
6
CONTINUOUS
10
0.822
20
0.037874
11
0.825013
21
0.0372746
0
LINE
8
BLACK
6
CONTINUOUS
10
0.925013
20
0.0372746
11
0.927568
21
0.0355678
0
LINE
8
BLACK
6
CONTINUOUS
10
0.927568
20
0.0355678
11
0.929275
21
0.0330133
0
LINE
8
BLACK
6
CONTINUOUS
10
0.929275
20
0.0330133
11
0.929874
21
0.03
0
LINE
8
BLACK
6
CONTINUOUS
10
0.929874
20
0.03
11
0.929874
21
-0.03
0
LINE
8
BLACK
6
CONTINUOUS
10
0.929874
20
-0.03
11
0.929275
21
-0.0330133
0
LINE
8
BLACK
6
CONTINUOUS
10
0.929275
20
-0.0330133
11
0.927568
21
-0.0355678
0
LINE
8
BLACK
6
CONTINUOUS
10
0.927568
20
-0.0355678
11
0.925013
21
-0.0372746
0
LINE
8
BLACK
6
CONTINUOUS
10
0.925013
20
-0.0372746
11
0.922
21
-0.037874
0
LINE
8
BLACK
6
CONTINUOUS
10
0.922
20
-0.037874
11
0.862
21
-0.037874
0
LINE
8
BLACK
6
CONTINUOUS
10
0.862
20
-0.037874
11
0.858987
21
-0.0372746
0
LINE
8
BLACK
6
CONTINUOUS
10
0.858987
20
-0.0372746
11
0.856432
21
-0.0355678
0
LINE
8
BLACK
6
CONTINUOUS
10
0.856432
20
-0.0355678
11
0.854725
21
-0.0330133
0
LINE
8
BLACK
6
CONTINUOUS
10
0.854725
20
-0.0330133
11
0.854126
21
-0.03
0
LINE
8
BLACK
6
CONTINUOUS
10
0.854126
20
-0.03
11
0.854126
21
0.03
0
LINE
8
BLACK
6
CONTINUOUS
10
0.854126
20
0.03
11
0.854725
21
0.0330133
0
LINE
8
BLACK
6
CONTINUOUS
10
0.854725
20
0.0330133
11
0.856432
21
0.0355678
0
LINE
8
BLACK
6
CONTINUOUS
10
0.856432
20
0.0355678
11
0.858987
21
0.0372746
0
LINE
8
BLACK
6
CONTINUOUS
10
0.858987
20
0.0372746
11
0.862
21
0.037874
0
LINE
8
BLACK
6
CONTINUOUS
10
0.862
20
0.037874
11
0.922
21
0.037874
0
LINE
8
BLACK
6
CONTINUOUS
10
0.922
20
0.037874
11
0.925013
21
0.0372746
0
LINE
8
BLACK
6
CONTINUOUS
10
1.02501
20
0.0372746
11
1.02757
21
0.0355678
0
LINE
8
BLACK
6
CONTINUOUS
10
1.02757
20
0.0355678
11
1.02927
21
0.0330133
0
LINE
8
BLACK
6
CONTINUOUS
10
1.02927
20
0.0330133
11
1.02987
21
0.03
0
LINE
8
BLACK
6
CONTINUOUS
10
1.02987
20
0.03
11
1.02987
21
-0.03
0
LINE
8
BLACK
6
CONTINUOUS
10
1.02987
20
-0.03
11
1.02927
21
-0.0330133
0
LINE
8
BLACK
6
CONTINUOUS
10
1.02927
20
-0.0330133
11
1.02757
21
-0.0355678
0
LINE
8
BLACK
6
CONTINUOUS
10
1.02757
20
-0.0355678
11
1.02501
21
-0.0372746
0
LINE
8
BLACK
6
CONTINUOUS
10
1.02501
20
-0.0372746
11
1.022
21
-0.037874
0
LINE
8
BLACK
6
CONTINUOUS
10
1.022
20
-0.037874
11
0.962
21
-0.037874
0
LINE
8
BLACK
6
CONTINUOUS
10
0.962
20
-0.037874
11
0.958987
21
-0.0372746
0
LINE
8
BLACK
6
CONTINUOUS
10
0.958987
20
-0.0372746
11
0.956432
21
-0.0355678
0
LINE
8
BLACK
6
CONTINUOUS
10
0.956432
20
-0.0355678
11
0.954725
21
-0.0330133
0
LINE
8
BLACK
6
CONTINUOUS
10
0.954725
20
-0.0330133
11
0.954126
21
-0.03
0
LINE
8
BLACK
6
CONTINUOUS
10
0.954126
20
-0.03
11
0.954126
21
0.03
0
LINE
8
BLACK
6
CONTINUOUS
10
0.954126
20
0.03
11
0.954725
21
0.0330133
0
LINE
8
BLACK
6
CONTINUOUS
10
0.954725
20
0.0330133
11
0.956432
21
0.0355678
0
LINE
8
BLACK
6
CONTINUOUS
10
0.956432
20
0.0355678
11
0.958987
21
0.0372746
0
LINE
8
BLACK
6
CONTINUOUS
10
0.958987
20
0.0372746
11
0.962
21
0.037874
0
LINE
8
BLACK
6
CONTINUOUS
10
0.962
20
0.037874
11
1.022
21
0.037874
0
LINE
8
BLACK
6
CONTINUOUS
10
1.022
20
0.037874
11
1.02501
21
0.0372746
0
LINE
8
BLACK
6
CONTINUOUS
10
1.12501
20
0.0372746
11
1.12757
21
0.0355678
0
LINE
8
BLACK
6
CONTINUOUS
10
1.12757
20
0.0355678
11
1.12927
21
0.0330133
0
LINE
8
BLACK
6
CONTINUOUS
10
1.12927
20
0.0330133
11
1.12987
21
0.03
0
LINE
8
BLACK
6
CONTINUOUS
10
1.12987
20
0.03
11
1.12987
21
-0.03
0
LINE
8
BLACK
6
CONTINUOUS
10
1.12987
20
-0.03
11
1.12927
21
-0.0330133
0
LINE
8
BLACK
6
CONTINUOUS
10
1.12927
20
-0.0330133
11
1.12757
21
-0.0355678
0
LINE
8
BLACK
6
CONTINUOUS
10
1.12757
20
-0.0355678
11
1.12501
21
-0.0372746
0
LINE
8
BLACK
6
CONTINUOUS
10
1.12501
20
-0.0372746
11
1.122
21
-0.037874
0
LINE
8
BLACK
6
CONTINUOUS
10
1.122
20
-0.037874
11
1.062
21
-0.037874
0
LINE
8
BLACK
6
CONTINUOUS
10
1.062
20
-0.037874
11
1.05899
21
-0.0372746
0
LINE
8
BLACK
6
CONTINUOUS
10
1.05899
20
-0.0372746
11
1.05643
21
-0.0355678
0
LINE
8
BLACK
6
CONTINUOUS
10
1.05643
20
-0.0355678
11
1.05473
21
-0.0330133
0
LINE
8
BLACK
6
CONTINUOUS
10
1.05473
20
-0.0330133
11
1.05413
21
-0.03
0
LINE
8
BLACK
6
CONTINUOUS
10
1.05413
20
-0.03
11
1.05413
21
0.03
0
LINE
8
BLACK
6
CONTINUOUS
10
1.05413
20
0.03
11
1.05473
21
0.0330133
0
LINE
8
BLACK
6
CONTINUOUS
10
1.05473
20
0.0330133
11
1.05643
21
0.0355678
0
LINE
8
BLACK
6
CONTINUOUS
10
1.05643
20
0.0355678
11
1.05899
21
0.0372746
0
LINE
8
BLACK
6
CONTINUOUS
10
1.05899
20
0.0372746
11
1.062
21
0.037874
0
LINE
8
BLACK
6
CONTINUOUS
10
1.062
20
0.037874
11
1.122
21
0.037874
0
LINE
8
BLACK
6
CONTINUOUS
10
1.122
20
0.037874
11
1.12501
21
0.0372746
0
LINE
8
BLACK
6
CONTINUOUS
10
1.22501
20
0.0372746
11
1.22757
21
0.0355678
0
LINE
8
BLACK
6
CONTINUOUS
10
1.22757
20
0.0355678
11
1.22927
21
0.0330133
0
LINE
8
BLACK
6
CONTINUOUS
10
1.22927
20
0.0330133
11
1.22987
21
0.03
0
LINE
8
BLACK
6
CONTINUOUS
10
1.22987
20
0.03
11
1.22987
21
-0.03
0
LINE
8
BLACK
6
CONTINUOUS
10
1.22987
20
-0.03
11
1.22927
21
-0.0330133
0
LINE
8
BLACK
6
CONTINUOUS
10
1.22927
20
-0.0330133
11
1.22757
21
-0.0355678
0
LINE
8
BLACK
6
CONTINUOUS
10
1.22757
20
-0.0355678
11
1.22501
21
-0.0372746
0
LINE
8
BLACK
6
CONTINUOUS
10
1.22501
20
-0.0372746
11
1.222
21
-0.037874
0
LINE
8
BLACK
6
CONTINUOUS
10
1.222
20
-0.037874
11
1.162
21
-0.037874
0
LINE
8
BLACK
6
CONTINUOUS
10
1.162
20
-0.037874
11
1.15899
21
-0.0372746
0
LINE
8
BLACK
6
CONTINUOUS
10
1.15899
20
-0.0372746
11
1.15643
21
-0.0355678
0
LINE
8
BLACK
6
CONTINUOUS
10
1.15643
20
-0.0355678
11
1.15473
21
-0.0330133
0
LINE
8
BLACK
6
CONTINUOUS
10
1.15473
20
-0.0330133
11
1.15413
21
-0.03
0
LINE
8
BLACK
6
CONTINUOUS
10
1.15413
20
-0.03
11
1.15413
21
0.03
0
LINE
8
BLACK
6
CONTINUOUS
10
1.15413
20
0.03
11
1.15473
21
0.0330133
0
LINE
8
BLACK
6
CONTINUOUS
10
1.15473
20
0.0330133
11
1.15643
21
0.0355678
0
LINE
8
BLACK
6
CONTINUOUS
10
1.15643
20
0.0355678
11
1.15899
21
0.0372746
0
LINE
8
BLACK
6
CONTINUOUS
10
1.15899
20
0.0372746
11
1.162
21
0.037874
0
LINE
8
BLACK
6
CONTINUOUS
10
1.162
20
0.037874
11
1.222
21
0.037874
0
LINE
8
BLACK
6
CONTINUOUS
10
1.222
20
0.037874
11
1.22501
21
0.0372746
0
LINE
8
BLACK
6
CONTINUOUS
10
0.771994
20
0.114849
11
0.776979
21
0.113104
0
LINE
8
BLACK
6
CONTINUOUS
10
0.776979
20
0.113104
11
0.781228
21
0.109968
0
LINE
8
BLACK
6
CONTINUOUS
10
0.781228
20
0.109968
11
0.784364
21
0.105719
0
LINE
8
BLACK
6
CONTINUOUS
10
0.784364
20
0.105719
11
0.786108
21
0.100735
0
LINE
8
BLACK
6
CONTINUOUS
10
0.786108
20
0.100735
11
0.786417
21
0.0974409
0
LINE
8
BLACK
6
CONTINUOUS
10
0.786417
20
0.0974409
11
0.786417
21
0.0777559
0
LINE
8
BLACK
6
CONTINUOUS
10
0.786417
20
0.0777559
11
0.786108
21
0.0744622
0
LINE
8
BLACK
6
CONTINUOUS
10
0.786108
20
0.0744622
11
0.784364
21
0.0694775
0
LINE
8
BLACK
6
CONTINUOUS
10
0.784364
20
0.0694775
11
0.781228
21
0.0652284
0
LINE
8
BLACK
6
CONTINUOUS
10
0.781228
20
0.0652284
11
0.776979
21
0.0620924
0
LINE
8
BLACK
6
CONTINUOUS
10
0.776979
20
0.0620924
11
0.771994
21
0.0603482
0
LINE
8
BLACK
6
CONTINUOUS
10
0.771994
20
0.0603482
11
0.768701
21
0.0600394
0
LINE
8
BLACK
6
CONTINUOUS
10
0.768701
20
0.0600394
11
0.731299
21
0.0600394
0
LINE
8
BLACK
6
CONTINUOUS
10
0.731299
20
0.0600394
11
0.728006
21
0.0603482
0
LINE
8
BLACK
6
CONTINUOUS
10
0.728006
20
0.0603482
11
0.723021
21
0.0620924
0
LINE
8
BLACK
6
CONTINUOUS
10
0.723021
20
0.0620924
11
0.718772
21
0.0652284
0
LINE
8
BLACK
6
CONTINUOUS
10
0.718772
20
0.0652284
11
0.715636
21
0.0694775
0
LINE
8
BLACK
6
CONTINUOUS
10
0.715636
20
0.0694775
11
0.713892
21
0.0744622
0
LINE
8
BLACK
6
CONTINUOUS
10
0.713892
20
0.0744622
11
0.713583
21
0.0777559
0
LINE
8
BLACK
6
CONTINUOUS
10
0.713583
20
0.0777559
11
0.713583
21
0.0974409
0
LINE
8
BLACK
6
CONTINUOUS
10
0.713583
20
0.0974409
11
0.713892
21
0.100735
0
LINE
8
BLACK
6
CONTINUOUS
10
0.713892
20
0.100735
11
0.715636
21
0.105719
0
LINE
8
BLACK
6
CONTINUOUS
10
0.715636
20
0.105719
11
0.718772
21
0.109968
0
LINE
8
BLACK
6
CONTINUOUS
10
0.718772
20
0.109968
11
0.723021
21
0.113104
0
LINE
8
BLACK
6
CONTINUOUS
10
0.723021
20
0.113104
11
0.728006
21
0.114849
0
LINE
8
BLACK
6
CONTINUOUS
10
0.728006
20
0.114849
11
0.731299
21
0.115157
0
LINE
8
BLACK
6
CONTINUOUS
10
0.731299
20
0.115157
11
0.768701
21
0.115157
0
LINE
8
BLACK
6
CONTINUOUS
10
0.768701
20
0.115157
11
0.771994
21
0.114849
0
LINE
8
BLACK
6
CONTINUOUS
10
0.69601
20
0.116817
11
0.700995
21
0.115073
0
LINE
8
BLACK
6
CONTINUOUS
10
0.700995
20
0.115073
11
0.705244
21
0.111937
0
LINE
8
BLACK
6
CONTINUOUS
10
0.705244
20
0.111937
11
0.70838
21
0.107688
0
LINE
8
BLACK
6
CONTINUOUS
10
0.70838
20
0.107688
11
0.710124
21
0.102703
0
LINE
8
BLACK
6
CONTINUOUS
10
0.710124
20
0.102703
11
0.710433
21
0.0994094
0
LINE
8
BLACK
6
CONTINUOUS
10
0.710433
20
0.0994094
11
0.710433
21
0.0787402
0
LINE
8
BLACK
6
CONTINUOUS
10
0.710433
20
0.0787402
11
0.710124
21
0.0754465
0
LINE
8
BLACK
6
CONTINUOUS
10
0.710124
20
0.0754465
11
0.70838
21
0.0704618
0
LINE
8
BLACK
6
CONTINUOUS
10
0.70838
20
0.0704618
11
0.705244
21
0.0662127
0
LINE
8
BLACK
6
CONTINUOUS
10
0.705244
20
0.0662127
11
0.700995
21
0.0630767
0
LINE
8
BLACK
6
CONTINUOUS
10
0.700995
20
0.0630767
11
0.69601
21
0.0613325
0
LINE
8
BLACK
6
CONTINUOUS
10
0.69601
20
0.0613325
11
0.692717
21
0.0610236
0
LINE
8
BLACK
6
CONTINUOUS
10
0.692717
20
0.0610236
11
0.657283
21
0.0610236
0
LINE
8
BLACK
6
CONTINUOUS
10
0.657283
20
0.0610236
11
0.65399
21
0.0613325
0
LINE
8
BLACK
6
CONTINUOUS
10
0.65399
20
0.0613325
11
0.649005
21
0.0630767
0
LINE
8
BLACK
6
CONTINUOUS
10
0.649005
20
0.0630767
11
0.644756
21
0.0662127
0
LINE
8
BLACK
6
CONTINUOUS
10
0.644756
20
0.0662127
11
0.64162
21
0.0704618
0
LINE
8
BLACK
6
CONTINUOUS
10
0.64162
20
0.0704618
11
0.639876
21
0.0754465
0
LINE
8
BLACK
6
CONTINUOUS
10
0.639876
20
0.0754465
11
0.639567
21
0.0787402
0
LINE
8
BLACK
6
CONTINUOUS
10
0.639567
20
0.0787402
11
0.639567
21
0.0994094
0
LINE
8
BLACK
6
CONTINUOUS
10
0.639567
20
0.0994094
11
0.639876
21
0.102703
0
LINE
8
BLACK
6
CONTINUOUS
10
0.639876
20
0.102703
11
0.64162
21
0.107688
0
LINE
8
BLACK
6
CONTINUOUS
10
0.64162
20
0.107688
11
0.644756
21
0.111937
0
LINE
8
BLACK
6
CONTINUOUS
10
0.644756
20
0.111937
11
0.649005
21
0.115073
0
LINE
8
BLACK
6
CONTINUOUS
10
0.649005
20
0.115073
11
0.65399
21
0.116817
0
LINE
8
BLACK
6
CONTINUOUS
10
0.65399
20
0.116817
11
0.657283
21
0.117126
0
LINE
8
BLACK
6
CONTINUOUS
10
0.657283
20
0.117126
11
0.692717
21
0.117126
0
LINE
8
BLACK
6
CONTINUOUS
10
0.692717
20
0.117126
11
0.69601
21
0.116817
0
LINE
8
BLACK
6
CONTINUOUS
10
0.874735
20
0.138108
11
0.879719
21
0.136364
0
LINE
8
BLACK
6
CONTINUOUS
10
0.879719
20
0.136364
11
0.883968
21
0.133228
0
LINE
8
BLACK
6
CONTINUOUS
10
0.883968
20
0.133228
11
0.887104
21
0.128979
0
LINE
8
BLACK
6
CONTINUOUS
10
0.887104
20
0.128979
11
0.888849
21
0.123994
0
LINE
8
BLACK
6
CONTINUOUS
10
0.888849
20
0.123994
11
0.889157
21
0.120701
0
LINE
8
BLACK
6
CONTINUOUS
10
0.889157
20
0.120701
11
0.889157
21
0.0832992
0
LINE
8
BLACK
6
CONTINUOUS
10
0.889157
20
0.0832992
11
0.888849
21
0.0800055
0
LINE
8
BLACK
6
CONTINUOUS
10
0.888849
20
0.0800055
11
0.887104
21
0.0750208
0
LINE
8
BLACK
6
CONTINUOUS
10
0.887104
20
0.0750208
11
0.883968
21
0.0707717
0
LINE
8
BLACK
6
CONTINUOUS
10
0.883968
20
0.0707717
11
0.879719
21
0.0676357
0
LINE
8
BLACK
6
CONTINUOUS
10
0.879719
20
0.0676357
11
0.874735
21
0.0658915
0
LINE
8
BLACK
6
CONTINUOUS
10
0.874735
20
0.0658915
11
0.871441
21
0.0655827
0
LINE
8
BLACK
6
CONTINUOUS
10
0.871441
20
0.0655827
11
0.851756
21
0.0655827
0
LINE
8
BLACK
6
CONTINUOUS
10
0.851756
20
0.0655827
11
0.848462
21
0.0658915
0
LINE
8
BLACK
6
CONTINUOUS
10
0.848462
20
0.0658915
11
0.843478
21
0.0676357
0
LINE
8
BLACK
6
CONTINUOUS
10
0.843478
20
0.0676357
11
0.839228
21
0.0707717
0
LINE
8
BLACK
6
CONTINUOUS
10
0.839228
20
0.0707717
11
0.836092
21
0.0750208
0
LINE
8
BLACK
6
CONTINUOUS
10
0.836092
20
0.0750208
11
0.834348
21
0.0800055
0
LINE
8
BLACK
6
CONTINUOUS
10
0.834348
20
0.0800055
11
0.834039
21
0.0832992
0
LINE
8
BLACK
6
CONTINUOUS
10
0.834039
20
0.0832992
11
0.834039
21
0.120701
0
LINE
8
BLACK
6
CONTINUOUS
10
0.834039
20
0.120701
11
0.834348
21
0.123994
0
LINE
8
BLACK
6
CONTINUOUS
10
0.834348
20
0.123994
11
0.836092
21
0.128979
0
LINE
8
BLACK
6
CONTINUOUS
10
0.836092
20
0.128979
11
0.839228
21
0.133228
0
LINE
8
BLACK
6
CONTINUOUS
10
0.839228
20
0.133228
11
0.843478
21
0.136364
0
LINE
8
BLACK
6
CONTINUOUS
10
0.843478
20
0.136364
11
0.848462
21
0.138108
0
LINE
8
BLACK
6
CONTINUOUS
10
0.848462
20
0.138108
11
0.851756
21
0.138417
0
LINE
8
BLACK
6
CONTINUOUS
10
0.851756
20
0.138417
11
0.871441
21
0.138417
0
LINE
8
BLACK
6
CONTINUOUS
10
0.871441
20
0.138417
11
0.874735
21
0.138108
0
LINE
8
BLACK
6
CONTINUOUS
10
0.949538
20
0.138108
11
0.954522
21
0.136364
0
LINE
8
BLACK
6
CONTINUOUS
10
0.954522
20
0.136364
11
0.958772
21
0.133228
0
LINE
8
BLACK
6
CONTINUOUS
10
0.958772
20
0.133228
11
0.961908
21
0.128979
0
LINE
8
BLACK
6
CONTINUOUS
10
0.961908
20
0.128979
11
0.963652
21
0.123994
0
LINE
8
BLACK
6
CONTINUOUS
10
0.963652
20
0.123994
11
0.963961
21
0.120701
0
LINE
8
BLACK
6
CONTINUOUS
10
0.963961
20
0.120701
11
0.963961
21
0.0832992
0
LINE
8
BLACK
6
CONTINUOUS
10
0.963961
20
0.0832992
11
0.963652
21
0.0800055
0
LINE
8
BLACK
6
CONTINUOUS
10
0.963652
20
0.0800055
11
0.961908
21
0.0750208
0
LINE
8
BLACK
6
CONTINUOUS
10
0.961908
20
0.0750208
11
0.958772
21
0.0707717
0
LINE
8
BLACK
6
CONTINUOUS
10
0.958772
20
0.0707717
11
0.954522
21
0.0676357
0
LINE
8
BLACK
6
CONTINUOUS
10
0.954522
20
0.0676357
11
0.949538
21
0.0658915
0
LINE
8
BLACK
6
CONTINUOUS
10
0.949538
20
0.0658915
11
0.946244
21
0.0655827
0
LINE
8
BLACK
6
CONTINUOUS
10
0.946244
20
0.0655827
11
0.926559
21
0.0655827
0
LINE
8
BLACK
6
CONTINUOUS
10
0.926559
20
0.0655827
11
0.923265
21
0.0658915
0
LINE
8
BLACK
6
CONTINUOUS
10
0.923265
20
0.0658915
11
0.918281
21
0.0676357
0
LINE
8
BLACK
6
CONTINUOUS
10
0.918281
20
0.0676357
11
0.914032
21
0.0707717
0
LINE
8
BLACK
6
CONTINUOUS
10
0.914032
20
0.0707717
11
0.910896
21
0.0750208
0
LINE
8
BLACK
6
CONTINUOUS
10
0.910896
20
0.0750208
11
0.909151
21
0.0800055
0
LINE
8
BLACK
6
CONTINUOUS
10
0.909151
20
0.0800055
11
0.908843
21
0.0832992
0
LINE
8
BLACK
6
CONTINUOUS
10
0.908843
20
0.0832992
11
0.908843
21
0.120701
0
LINE
8
BLACK
6
CONTINUOUS
10
0.908843
20
0.120701
11
0.909151
21
0.123994
0
LINE
8
BLACK
6
CONTINUOUS
10
0.909151
20
0.123994
11
0.910896
21
0.128979
0
LINE
8
BLACK
6
CONTINUOUS
10
0.910896
20
0.128979
11
0.914032
21
0.133228
0
LINE
8
BLACK
6
CONTINUOUS
10
0.914032
20
0.133228
11
0.918281
21
0.136364
0
LINE
8
BLACK
6
CONTINUOUS
10
0.918281
20
0.136364
11
0.923265
21
0.138108
0
LINE
8
BLACK
6
CONTINUOUS
10
0.923265
20
0.138108
11
0.926559
21
0.138417
0
LINE
8
BLACK
6
CONTINUOUS
10
0.926559
20
0.138417
11
0.946244
21
0.138417
0
LINE
8
BLACK
6
CONTINUOUS
10
0.946244
20
0.138417
11
0.949538
21
0.138108
0
LINE
8
BLACK
6
CONTINUOUS
10
0.69601
20
0.188668
11
0.700995
21
0.186923
0
LINE
8
BLACK
6
CONTINUOUS
10
0.700995
20
0.186923
11
0.705244
21
0.183787
0
LINE
8
BLACK
6
CONTINUOUS
10
0.705244
20
0.183787
11
0.70838
21
0.179538
0
LINE
8
BLACK
6
CONTINUOUS
10
0.70838
20
0.179538
11
0.710124
21
0.174554
0
LINE
8
BLACK
6
CONTINUOUS
10
0.710124
20
0.174554
11
0.710433
21
0.17126
0
LINE
8
BLACK
6
CONTINUOUS
10
0.710433
20
0.17126
11
0.710433
21
0.150591
0
LINE
8
BLACK
6
CONTINUOUS
10
0.710433
20
0.150591
11
0.710124
21
0.147297
0
LINE
8
BLACK
6
CONTINUOUS
10
0.710124
20
0.147297
11
0.70838
21
0.142312
0
LINE
8
BLACK
6
CONTINUOUS
10
0.70838
20
0.142312
11
0.705244
21
0.138063
0
LINE
8
BLACK
6
CONTINUOUS
10
0.705244
20
0.138063
11
0.700995
21
0.134927
0
LINE
8
BLACK
6
CONTINUOUS
10
0.700995
20
0.134927
11
0.69601
21
0.133183
0
LINE
8
BLACK
6
CONTINUOUS
10
0.69601
20
0.133183
11
0.692717
21
0.132874
0
LINE
8
BLACK
6
CONTINUOUS
10
0.692717
20
0.132874
11
0.657283
21
0.132874
0
LINE
8
BLACK
6
CONTINUOUS
10
0.657283
20
0.132874
11
0.65399
21
0.133183
0
LINE
8
BLACK
6
CONTINUOUS
10
0.65399
20
0.133183
11
0.649005
21
0.134927
0
LINE
8
BLACK
6
CONTINUOUS
10
0.649005
20
0.134927
11
0.644756
21
0.138063
0
LINE
8
BLACK
6
CONTINUOUS
10
0.644756
20
0.138063
11
0.64162
21
0.142312
0
LINE
8
BLACK
6
CONTINUOUS
10
0.64162
20
0.142312
11
0.639876
21
0.147297
0
LINE
8
BLACK
6
CONTINUOUS
10
0.639876
20
0.147297
11
0.639567
21
0.150591
0
LINE
8
BLACK
6
CONTINUOUS
10
0.639567
20
0.150591
11
0.639567
21
0.17126
0
LINE
8
BLACK
6
CONTINUOUS
10
0.639567
20
0.17126
11
0.639876
21
0.174554
0
LINE
8
BLACK
6
CONTINUOUS
10
0.639876
20
0.174554
11
0.64162
21
0.179538
0
LINE
8
BLACK
6
CONTINUOUS
10
0.64162
20
0.179538
11
0.644756
21
0.183787
0
LINE
8
BLACK
6
CONTINUOUS
10
0.644756
20
0.183787
11
0.649005
21
0.186923
0
LINE
8
BLACK
6
CONTINUOUS
10
0.649005
20
0.186923
11
0.65399
21
0.188668
0
LINE
8
BLACK
6
CONTINUOUS
10
0.65399
20
0.188668
11
0.657283
21
0.188976
0
LINE
8
BLACK
6
CONTINUOUS
10
0.657283
20
0.188976
11
0.692717
21
0.188976
0
LINE
8
BLACK
6
CONTINUOUS
10
0.692717
20
0.188976
11
0.69601
21
0.188668
0
LINE
8
BLACK
6
CONTINUOUS
10
0.771994
20
0.189652
11
0.776979
21
0.187908
0
LINE
8
BLACK
6
CONTINUOUS
10
0.776979
20
0.187908
11
0.781228
21
0.184772
0
LINE
8
BLACK
6
CONTINUOUS
10
0.781228
20
0.184772
11
0.784364
21
0.180522
0
LINE
8
BLACK
6
CONTINUOUS
10
0.784364
20
0.180522
11
0.786108
21
0.175538
0
LINE
8
BLACK
6
CONTINUOUS
10
0.786108
20
0.175538
11
0.786417
21
0.172244
0
LINE
8
BLACK
6
CONTINUOUS
10
0.786417
20
0.172244
11
0.786417
21
0.152559
0
LINE
8
BLACK
6
CONTINUOUS
10
0.786417
20
0.152559
11
0.786108
21
0.149265
0
LINE
8
BLACK
6
CONTINUOUS
10
0.786108
20
0.149265
11
0.784364
21
0.144281
0
LINE
8
BLACK
6
CONTINUOUS
10
0.784364
20
0.144281
11
0.781228
21
0.140032
0
LINE
8
BLACK
6
CONTINUOUS
10
0.781228
20
0.140032
11
0.776979
21
0.136896
0
LINE
8
BLACK
6
CONTINUOUS
10
0.776979
20
0.136896
11
0.771994
21
0.135151
0
LINE
8
BLACK
6
CONTINUOUS
10
0.771994
20
0.135151
11
0.768701
21
0.134843
0
LINE
8
BLACK
6
CONTINUOUS
10
0.768701
20
0.134843
11
0.731299
21
0.134843
0
LINE
8
BLACK
6
CONTINUOUS
10
0.731299
20
0.134843
11
0.728006
21
0.135151
0
LINE
8
BLACK
6
CONTINUOUS
10
0.728006
20
0.135151
11
0.723021
21
0.136896
0
LINE
8
BLACK
6
CONTINUOUS
10
0.723021
20
0.136896
11
0.718772
21
0.140032
0
LINE
8
BLACK
6
CONTINUOUS
10
0.718772
20
0.140032
11
0.715636
21
0.144281
0
LINE
8
BLACK
6
CONTINUOUS
10
0.715636
20
0.144281
11
0.713892
21
0.149265
0
LINE
8
BLACK
6
CONTINUOUS
10
0.713892
20
0.149265
11
0.713583
21
0.152559
0
LINE
8
BLACK
6
CONTINUOUS
10
0.713583
20
0.152559
11
0.713583
21
0.172244
0
LINE
8
BLACK
6
CONTINUOUS
10
0.713583
20
0.172244
11
0.713892
21
0.175538
0
LINE
8
BLACK
6
CONTINUOUS
10
0.713892
20
0.175538
11
0.715636
21
0.180522
0
LINE
8
BLACK
6
CONTINUOUS
10
0.715636
20
0.180522
11
0.718772
21
0.184772
0
LINE
8
BLACK
6
CONTINUOUS
10
0.718772
20
0.184772
11
0.723021
21
0.187908
0
LINE
8
BLACK
6
CONTINUOUS
10
0.723021
20
0.187908
11
0.728006
21
0.189652
0
LINE
8
BLACK
6
CONTINUOUS
10
0.728006
20
0.189652
11
0.731299
21
0.189961
0
LINE
8
BLACK
6
CONTINUOUS
10
0.731299
20
0.189961
11
0.768701
21
0.189961
0
LINE
8
BLACK
6
CONTINUOUS
10
0.768701
20
0.189961
11
0.771994
21
0.189652
0
LINE
8
BLACK
6
CONTINUOUS
10
0.875735
20
0.211108
11
0.880719
21
0.209364
0
LINE
8
BLACK
6
CONTINUOUS
10
0.880719
20
0.209364
11
0.884968
21
0.206228
0
LINE
8
BLACK
6
CONTINUOUS
10
0.884968
20
0.206228
11
0.888104
21
0.201979
0
LINE
8
BLACK
6
CONTINUOUS
10
0.888104
20
0.201979
11
0.889849
21
0.196994
0
LINE
8
BLACK
6
CONTINUOUS
10
0.889849
20
0.196994
11
0.890157
21
0.193701
0
LINE
8
BLACK
6
CONTINUOUS
10
0.890157
20
0.193701
11
0.890157
21
0.156299
0
LINE
8
BLACK
6
CONTINUOUS
10
0.890157
20
0.156299
11
0.889849
21
0.153006
0
LINE
8
BLACK
6
CONTINUOUS
10
0.889849
20
0.153006
11
0.888104
21
0.148021
0
LINE
8
BLACK
6
CONTINUOUS
10
0.888104
20
0.148021
11
0.884968
21
0.143772
0
LINE
8
BLACK
6
CONTINUOUS
10
0.884968
20
0.143772
11
0.880719
21
0.140636
0
LINE
8
BLACK
6
CONTINUOUS
10
0.880719
20
0.140636
11
0.875735
21
0.138892
0
LINE
8
BLACK
6
CONTINUOUS
10
0.875735
20
0.138892
11
0.872441
21
0.138583
0
LINE
8
BLACK
6
CONTINUOUS
10
0.872441
20
0.138583
11
0.852756
21
0.138583
0
LINE
8
BLACK
6
CONTINUOUS
10
0.852756
20
0.138583
11
0.849462
21
0.138892
0
LINE
8
BLACK
6
CONTINUOUS
10
0.849462
20
0.138892
11
0.844478
21
0.140636
0
LINE
8
BLACK
6
CONTINUOUS
10
0.844478
20
0.140636
11
0.840228
21
0.143772
0
LINE
8
BLACK
6
CONTINUOUS
10
0.840228
20
0.143772
11
0.837092
21
0.148021
0
LINE
8
BLACK
6
CONTINUOUS
10
0.837092
20
0.148021
11
0.835348
21
0.153006
0
LINE
8
BLACK
6
CONTINUOUS
10
0.835348
20
0.153006
11
0.835039
21
0.156299
0
LINE
8
BLACK
6
CONTINUOUS
10
0.835039
20
0.156299
11
0.835039
21
0.193701
0
LINE
8
BLACK
6
CONTINUOUS
10
0.835039
20
0.193701
11
0.835348
21
0.196994
0
LINE
8
BLACK
6
CONTINUOUS
10
0.835348
20
0.196994
11
0.837092
21
0.201979
0
LINE
8
BLACK
6
CONTINUOUS
10
0.837092
20
0.201979
11
0.840228
21
0.206228
0
LINE
8
BLACK
6
CONTINUOUS
10
0.840228
20
0.206228
11
0.844478
21
0.209364
0
LINE
8
BLACK
6
CONTINUOUS
10
0.844478
20
0.209364
11
0.849462
21
0.211108
0
LINE
8
BLACK
6
CONTINUOUS
10
0.849462
20
0.211108
11
0.852756
21
0.211417
0
LINE
8
BLACK
6
CONTINUOUS
10
0.852756
20
0.211417
11
0.872441
21
0.211417
0
LINE
8
BLACK
6
CONTINUOUS
10
0.872441
20
0.211417
11
0.875735
21
0.211108
0
LINE
8
BLACK
6
CONTINUOUS
10
0.950538
20
0.211108
11
0.955522
21
0.209364
0
LINE
8
BLACK
6
CONTINUOUS
10
0.955522
20
0.209364
11
0.959772
21
0.206228
0
LINE
8
BLACK
6
CONTINUOUS
10
0.959772
20
0.206228
11
0.962908
21
0.201979
0
LINE
8
BLACK
6
CONTINUOUS
10
0.962908
20
0.201979
11
0.964652
21
0.196994
0
LINE
8
BLACK
6
CONTINUOUS
10
0.964652
20
0.196994
11
0.964961
21
0.193701
0
LINE
8
BLACK
6
CONTINUOUS
10
0.964961
20
0.193701
11
0.964961
21
0.156299
0
LINE
8
BLACK
6
CONTINUOUS
10
0.964961
20
0.156299
11
0.964652
21
0.153006
0
LINE
8
BLACK
6
CONTINUOUS
10
0.964652
20
0.153006
11
0.962908
21
0.148021
0
LINE
8
BLACK
6
CONTINUOUS
10
0.962908
20
0.148021
11
0.959772
21
0.143772
0
LINE
8
BLACK
6
CONTINUOUS
10
0.959772
20
0.143772
11
0.955522
21
0.140636
0
LINE
8
BLACK
6
CONTINUOUS
10
0.955522
20
0.140636
11
0.950538
21
0.138892
0
LINE
8
BLACK
6
CONTINUOUS
10
0.950538
20
0.138892
11
0.947244
21
0.138583
0
LINE
8
BLACK
6
CONTINUOUS
10
0.947244
20
0.138583
11
0.927559
21
0.138583
0
LINE
8
BLACK
6
CONTINUOUS
10
0.927559
20
0.138583
11
0.924265
21
0.138892
0
LINE
8
BLACK
6
CONTINUOUS
10
0.924265
20
0.138892
11
0.919281
21
0.140636
0
LINE
8
BLACK
6
CONTINUOUS
10
0.919281
20
0.140636
11
0.915032
21
0.143772
0
LINE
8
BLACK
6
CONTINUOUS
10
0.915032
20
0.143772
11
0.911896
21
0.148021
0
LINE
8
BLACK
6
CONTINUOUS
10
0.911896
20
0.148021
11
0.910151
21
0.153006
0
LINE
8
BLACK
6
CONTINUOUS
10
0.910151
20
0.153006
11
0.909843
21
0.156299
0
LINE
8
BLACK
6
CONTINUOUS
10
0.909843
20
0.156299
11
0.909843
21
0.193701
0
LINE
8
BLACK
6
CONTINUOUS
10
0.909843
20
0.193701
11
0.910151
21
0.196994
0
LINE
8
BLACK
6
CONTINUOUS
10
0.910151
20
0.196994
11
0.911896
21
0.201979
0
LINE
8
BLACK
6
CONTINUOUS
10
0.911896
20
0.201979
11
0.915032
21
0.206228
0
LINE
8
BLACK
6
CONTINUOUS
10
0.915032
20
0.206228
11
0.919281
21
0.209364
0
LINE
8
BLACK
6
CONTINUOUS
10
0.919281
20
0.209364
11
0.924265
21
0.211108
0
LINE
8
BLACK
6
CONTINUOUS
10
0.924265
20
0.211108
11
0.927559
21
0.211417
0
LINE
8
BLACK
6
CONTINUOUS
10
0.927559
20
0.211417
11
0.947244
21
0.211417
0
LINE
8
BLACK
6
CONTINUOUS
10
0.947244
20
0.211417
11
0.950538
21
0.211108
0
LINE
8
BLACK
6
CONTINUOUS
10
0.508985
20
0.232523
11
0.51397
21
0.230779
0
LINE
8
BLACK
6
CONTINUOUS
10
0.51397
20
0.230779
11
0.518219
21
0.227643
0
LINE
8
BLACK
6
CONTINUOUS
10
0.518219
20
0.227643
11
0.521355
21
0.223394
0
LINE
8
BLACK
6
CONTINUOUS
10
0.521355
20
0.223394
11
0.523099
21
0.218409
0
LINE
8
BLACK
6
CONTINUOUS
10
0.523099
20
0.218409
11
0.523408
21
0.215115
0
LINE
8
BLACK
6
CONTINUOUS
10
0.523408
20
0.215115
11
0.523408
21
0.19543
0
LINE
8
BLACK
6
CONTINUOUS
10
0.523408
20
0.19543
11
0.523099
21
0.192137
0
LINE
8
BLACK
6
CONTINUOUS
10
0.523099
20
0.192137
11
0.521355
21
0.187152
0
LINE
8
BLACK
6
CONTINUOUS
10
0.521355
20
0.187152
11
0.518219
21
0.182903
0
LINE
8
BLACK
6
CONTINUOUS
10
0.518219
20
0.182903
11
0.51397
21
0.179767
0
LINE
8
BLACK
6
CONTINUOUS
10
0.51397
20
0.179767
11
0.508985
21
0.178023
0
LINE
8
BLACK
6
CONTINUOUS
10
0.508985
20
0.178023
11
0.505692
21
0.177714
0
LINE
8
BLACK
6
CONTINUOUS
10
0.505692
20
0.177714
11
0.46829
21
0.177714
0
LINE
8
BLACK
6
CONTINUOUS
10
0.46829
20
0.177714
11
0.464996
21
0.178023
0
LINE
8
BLACK
6
CONTINUOUS
10
0.464996
20
0.178023
11
0.460012
21
0.179767
0
LINE
8
BLACK
6
CONTINUOUS
10
0.460012
20
0.179767
11
0.455763
21
0.182903
0
LINE
8
BLACK
6
CONTINUOUS
10
0.455763
20
0.182903
11
0.452627
21
0.187152
0
LINE
8
BLACK
6
CONTINUOUS
10
0.452627
20
0.187152
11
0.450882
21
0.192137
0
LINE
8
BLACK
6
CONTINUOUS
10
0.450882
20
0.192137
11
0.450574
21
0.19543
0
LINE
8
BLACK
6
CONTINUOUS
10
0.450574
20
0.19543
11
0.450574
21
0.215115
0
LINE
8
BLACK
6
CONTINUOUS
10
0.450574
20
0.215115
11
0.450882
21
0.218409
0
LINE
8
BLACK
6
CONTINUOUS
10
0.450882
20
0.218409
11
0.452627
21
0.223394
0
LINE
8
BLACK
6
CONTINUOUS
10
0.452627
20
0.223394
11
0.455763
21
0.227643
0
LINE
8
BLACK
6
CONTINUOUS
10
0.455763
20
0.227643
11
0.460012
21
0.230779
0
LINE
8
BLACK
6
CONTINUOUS
10
0.460012
20
0.230779
11
0.464996
21
0.232523
0
LINE
8
BLACK
6
CONTINUOUS
10
0.464996
20
0.232523
11
0.46829
21
0.232832
0
LINE
8
BLACK
6
CONTINUOUS
10
0.46829
20
0.232832
11
0.505692
21
0.232832
0
LINE
8
BLACK
6
CONTINUOUS
10
0.505692
20
0.232832
11
0.508985
21
0.232523
0
LINE
8
BLACK
6
CONTINUOUS
10
0.595521
20
0.236657
11
0.600506
21
0.234913
0
LINE
8
BLACK
6
CONTINUOUS
10
0.600506
20
0.234913
11
0.604755
21
0.231777
0
LINE
8
BLACK
6
CONTINUOUS
10
0.604755
20
0.231777
11
0.607891
21
0.227528
0
LINE
8
BLACK
6
CONTINUOUS
10
0.607891
20
0.227528
11
0.609635
21
0.222543
0
LINE
8
BLACK
6
CONTINUOUS
10
0.609635
20
0.222543
11
0.609944
21
0.219249
0
LINE
8
BLACK
6
CONTINUOUS
10
0.609944
20
0.219249
11
0.609944
21
0.19858
0
LINE
8
BLACK
6
CONTINUOUS
10
0.609944
20
0.19858
11
0.609635
21
0.195286
0
LINE
8
BLACK
6
CONTINUOUS
10
0.609635
20
0.195286
11
0.607891
21
0.190302
0
LINE
8
BLACK
6
CONTINUOUS
10
0.607891
20
0.190302
11
0.604755
21
0.186052
0
LINE
8
BLACK
6
CONTINUOUS
10
0.604755
20
0.186052
11
0.600506
21
0.182916
0
LINE
8
BLACK
6
CONTINUOUS
10
0.600506
20
0.182916
11
0.595521
21
0.181172
0
LINE
8
BLACK
6
CONTINUOUS
10
0.595521
20
0.181172
11
0.592227
21
0.180863
0
LINE
8
BLACK
6
CONTINUOUS
10
0.592227
20
0.180863
11
0.556794
21
0.180863
0
LINE
8
BLACK
6
CONTINUOUS
10
0.556794
20
0.180863
11
0.5535
21
0.181172
0
LINE
8
BLACK
6
CONTINUOUS
10
0.5535
20
0.181172
11
0.548516
21
0.182916
0
LINE
8
BLACK
6
CONTINUOUS
10
0.548516
20
0.182916
11
0.544267
21
0.186052
0
LINE
8
BLACK
6
CONTINUOUS
10
0.544267
20
0.186052
11
0.541131
21
0.190302
0
LINE
8
BLACK
6
CONTINUOUS
10
0.541131
20
0.190302
11
0.539386
21
0.195286
0
LINE
8
BLACK
6
CONTINUOUS
10
0.539386
20
0.195286
11
0.539078
21
0.19858
0
LINE
8
BLACK
6
CONTINUOUS
10
0.539078
20
0.19858
11
0.539078
21
0.219249
0
LINE
8
BLACK
6
CONTINUOUS
10
0.539078
20
0.219249
11
0.539386
21
0.222543
0
LINE
8
BLACK
6
CONTINUOUS
10
0.539386
20
0.222543
11
0.541131
21
0.227528
0
LINE
8
BLACK
6
CONTINUOUS
10
0.541131
20
0.227528
11
0.544267
21
0.231777
0
LINE
8
BLACK
6
CONTINUOUS
10
0.544267
20
0.231777
11
0.548516
21
0.234913
0
LINE
8
BLACK
6
CONTINUOUS
10
0.548516
20
0.234913
11
0.5535
21
0.236657
0
LINE
8
BLACK
6
CONTINUOUS
10
0.5535
20
0.236657
11
0.556794
21
0.236966
0
LINE
8
BLACK
6
CONTINUOUS
10
0.556794
20
0.236966
11
0.592227
21
0.236966
0
LINE
8
BLACK
6
CONTINUOUS
10
0.592227
20
0.236966
11
0.595521
21
0.236657
0
LINE
8
BLACK
6
CONTINUOUS
10
1.04101
20
0.241817
11
1.04599
21
0.240073
0
LINE
8
BLACK
6
CONTINUOUS
10
1.04599
20
0.240073
11
1.05024
21
0.236937
0
LINE
8
BLACK
6
CONTINUOUS
10
1.05024
20
0.236937
11
1.05338
21
0.232688
0
LINE
8
BLACK
6
CONTINUOUS
10
1.05338
20
0.232688
11
1.05512
21
0.227703
0
LINE
8
BLACK
6
CONTINUOUS
10
1.05512
20
0.227703
11
1.05543
21
0.224409
0
LINE
8
BLACK
6
CONTINUOUS
10
1.05543
20
0.224409
11
1.05543
21
0.20374
0
LINE
8
BLACK
6
CONTINUOUS
10
1.05543
20
0.20374
11
1.05512
21
0.200446
0
LINE
8
BLACK
6
CONTINUOUS
10
1.05512
20
0.200446
11
1.05338
21
0.195462
0
LINE
8
BLACK
6
CONTINUOUS
10
1.05338
20
0.195462
11
1.05024
21
0.191213
0
LINE
8
BLACK
6
CONTINUOUS
10
1.05024
20
0.191213
11
1.04599
21
0.188077
0
LINE
8
BLACK
6
CONTINUOUS
10
1.04599
20
0.188077
11
1.04101
21
0.186332
0
LINE
8
BLACK
6
CONTINUOUS
10
1.04101
20
0.186332
11
1.03772
21
0.186024
0
LINE
8
BLACK
6
CONTINUOUS
10
1.03772
20
0.186024
11
1.00228
21
0.186024
0
LINE
8
BLACK
6
CONTINUOUS
10
1.00228
20
0.186024
11
0.99899
21
0.186332
0
LINE
8
BLACK
6
CONTINUOUS
10
0.99899
20
0.186332
11
0.994005
21
0.188077
0
LINE
8
BLACK
6
CONTINUOUS
10
0.994005
20
0.188077
11
0.989756
21
0.191213
0
LINE
8
BLACK
6
CONTINUOUS
10
0.989756
20
0.191213
11
0.98662
21
0.195462
0
LINE
8
BLACK
6
CONTINUOUS
10
0.98662
20
0.195462
11
0.984876
21
0.200446
0
LINE
8
BLACK
6
CONTINUOUS
10
0.984876
20
0.200446
11
0.984567
21
0.20374
0
LINE
8
BLACK
6
CONTINUOUS
10
0.984567
20
0.20374
11
0.984567
21
0.224409
0
LINE
8
BLACK
6
CONTINUOUS
10
0.984567
20
0.224409
11
0.984876
21
0.227703
0
LINE
8
BLACK
6
CONTINUOUS
10
0.984876
20
0.227703
11
0.98662
21
0.232688
0
LINE
8
BLACK
6
CONTINUOUS
10
0.98662
20
0.232688
11
0.989756
21
0.236937
0
LINE
8
BLACK
6
CONTINUOUS
10
0.989756
20
0.236937
11
0.994005
21
0.240073
0
LINE
8
BLACK
6
CONTINUOUS
10
0.994005
20
0.240073
11
0.99899
21
0.241817
0
LINE
8
BLACK
6
CONTINUOUS
10
0.99899
20
0.241817
11
1.00228
21
0.242126
0
LINE
8
BLACK
6
CONTINUOUS
10
1.00228
20
0.242126
11
1.03772
21
0.242126
0
LINE
8
BLACK
6
CONTINUOUS
10
1.03772
20
0.242126
11
1.04101
21
0.241817
0
LINE
8
BLACK
6
CONTINUOUS
10
1.13601
20
0.241817
11
1.14099
21
0.240073
0
LINE
8
BLACK
6
CONTINUOUS
10
1.14099
20
0.240073
11
1.14524
21
0.236937
0
LINE
8
BLACK
6
CONTINUOUS
10
1.14524
20
0.236937
11
1.14838
21
0.232688
0
LINE
8
BLACK
6
CONTINUOUS
10
1.14838
20
0.232688
11
1.15012
21
0.227703
0
LINE
8
BLACK
6
CONTINUOUS
10
1.15012
20
0.227703
11
1.15043
21
0.224409
0
LINE
8
BLACK
6
CONTINUOUS
10
1.15043
20
0.224409
11
1.15043
21
0.20374
0
LINE
8
BLACK
6
CONTINUOUS
10
1.15043
20
0.20374
11
1.15012
21
0.200446
0
LINE
8
BLACK
6
CONTINUOUS
10
1.15012
20
0.200446
11
1.14838
21
0.195462
0
LINE
8
BLACK
6
CONTINUOUS
10
1.14838
20
0.195462
11
1.14524
21
0.191213
0
LINE
8
BLACK
6
CONTINUOUS
10
1.14524
20
0.191213
11
1.14099
21
0.188077
0
LINE
8
BLACK
6
CONTINUOUS
10
1.14099
20
0.188077
11
1.13601
21
0.186332
0
LINE
8
BLACK
6
CONTINUOUS
10
1.13601
20
0.186332
11
1.13272
21
0.186024
0
LINE
8
BLACK
6
CONTINUOUS
10
1.13272
20
0.186024
11
1.09728
21
0.186024
0
LINE
8
BLACK
6
CONTINUOUS
10
1.09728
20
0.186024
11
1.09399
21
0.186332
0
LINE
8
BLACK
6
CONTINUOUS
10
1.09399
20
0.186332
11
1.08901
21
0.188077
0
LINE
8
BLACK
6
CONTINUOUS
10
1.08901
20
0.188077
11
1.08476
21
0.191213
0
LINE
8
BLACK
6
CONTINUOUS
10
1.08476
20
0.191213
11
1.08162
21
0.195462
0
LINE
8
BLACK
6
CONTINUOUS
10
1.08162
20
0.195462
11
1.07988
21
0.200446
0
LINE
8
BLACK
6
CONTINUOUS
10
1.07988
20
0.200446
11
1.07957
21
0.20374
0
LINE
8
BLACK
6
CONTINUOUS
10
1.07957
20
0.20374
11
1.07957
21
0.224409
0
LINE
8
BLACK
6
CONTINUOUS
10
1.07957
20
0.224409
11
1.07988
21
0.227703
0
LINE
8
BLACK
6
CONTINUOUS
10
1.07988
20
0.227703
11
1.08162
21
0.232688
0
LINE
8
BLACK
6
CONTINUOUS
10
1.08162
20
0.232688
11
1.08476
21
0.236937
0
LINE
8
BLACK
6
CONTINUOUS
10
1.08476
20
0.236937
11
1.08901
21
0.240073
0
LINE
8
BLACK
6
CONTINUOUS
10
1.08901
20
0.240073
11
1.09399
21
0.241817
0
LINE
8
BLACK
6
CONTINUOUS
10
1.09399
20
0.241817
11
1.09728
21
0.242126
0
LINE
8
BLACK
6
CONTINUOUS
10
1.09728
20
0.242126
11
1.13272
21
0.242126
0
LINE
8
BLACK
6
CONTINUOUS
10
1.13272
20
0.242126
11
1.13601
21
0.241817
0
LINE
8
BLACK
6
CONTINUOUS
10
1.23699
20
0.244849
11
1.24198
21
0.243104
0
LINE
8
BLACK
6
CONTINUOUS
10
1.24198
20
0.243104
11
1.24623
21
0.239968
0
LINE
8
BLACK
6
CONTINUOUS
10
1.24623
20
0.239968
11
1.24936
21
0.235719
0
LINE
8
BLACK
6
CONTINUOUS
10
1.24936
20
0.235719
11
1.25111
21
0.230735
0
LINE
8
BLACK
6
CONTINUOUS
10
1.25111
20
0.230735
11
1.25142
21
0.227441
0
LINE
8
BLACK
6
CONTINUOUS
10
1.25142
20
0.227441
11
1.25142
21
0.207756
0
LINE
8
BLACK
6
CONTINUOUS
10
1.25142
20
0.207756
11
1.25111
21
0.204462
0
LINE
8
BLACK
6
CONTINUOUS
10
1.25111
20
0.204462
11
1.24936
21
0.199478
0
LINE
8
BLACK
6
CONTINUOUS
10
1.24936
20
0.199478
11
1.24623
21
0.195228
0
LINE
8
BLACK
6
CONTINUOUS
10
1.24623
20
0.195228
11
1.24198
21
0.192092
0
LINE
8
BLACK
6
CONTINUOUS
10
1.24198
20
0.192092
11
1.23699
21
0.190348
0
LINE
8
BLACK
6
CONTINUOUS
10
1.23699
20
0.190348
11
1.2337
21
0.190039
0
LINE
8
BLACK
6
CONTINUOUS
10
1.2337
20
0.190039
11
1.1963
21
0.190039
0
LINE
8
BLACK
6
CONTINUOUS
10
1.1963
20
0.190039
11
1.19301
21
0.190348
0
LINE
8
BLACK
6
CONTINUOUS
10
1.19301
20
0.190348
11
1.18802
21
0.192092
0
LINE
8
BLACK
6
CONTINUOUS
10
1.18802
20
0.192092
11
1.18377
21
0.195228
0
LINE
8
BLACK
6
CONTINUOUS
10
1.18377
20
0.195228
11
1.18064
21
0.199478
0
LINE
8
BLACK
6
CONTINUOUS
10
1.18064
20
0.199478
11
1.17889
21
0.204462
0
LINE
8
BLACK
6
CONTINUOUS
10
1.17889
20
0.204462
11
1.17858
21
0.207756
0
LINE
8
BLACK
6
CONTINUOUS
10
1.17858
20
0.207756
11
1.17858
21
0.227441
0
LINE
8
BLACK
6
CONTINUOUS
10
1.17858
20
0.227441
11
1.17889
21
0.230735
0
LINE
8
BLACK
6
CONTINUOUS
10
1.17889
20
0.230735
11
1.18064
21
0.235719
0
LINE
8
BLACK
6
CONTINUOUS
10
1.18064
20
0.235719
11
1.18377
21
0.239968
0
LINE
8
BLACK
6
CONTINUOUS
10
1.18377
20
0.239968
11
1.18802
21
0.243104
0
LINE
8
BLACK
6
CONTINUOUS
10
1.18802
20
0.243104
11
1.19301
21
0.244849
0
LINE
8
BLACK
6
CONTINUOUS
10
1.19301
20
0.244849
11
1.1963
21
0.245157
0
LINE
8
BLACK
6
CONTINUOUS
10
1.1963
20
0.245157
11
1.2337
21
0.245157
0
LINE
8
BLACK
6
CONTINUOUS
10
1.2337
20
0.245157
11
1.23699
21
0.244849
0
LINE
8
BLACK
6
CONTINUOUS
10
1.33101
20
0.246817
11
1.33599
21
0.245073
0
LINE
8
BLACK
6
CONTINUOUS
10
1.33599
20
0.245073
11
1.34024
21
0.241937
0
LINE
8
BLACK
6
CONTINUOUS
10
1.34024
20
0.241937
11
1.34338
21
0.237688
0
LINE
8
BLACK
6
CONTINUOUS
10
1.34338
20
0.237688
11
1.34512
21
0.232703
0
LINE
8
BLACK
6
CONTINUOUS
10
1.34512
20
0.232703
11
1.34543
21
0.229409
0
LINE
8
BLACK
6
CONTINUOUS
10
1.34543
20
0.229409
11
1.34543
21
0.20874
0
LINE
8
BLACK
6
CONTINUOUS
10
1.34543
20
0.20874
11
1.34512
21
0.205446
0
LINE
8
BLACK
6
CONTINUOUS
10
1.34512
20
0.205446
11
1.34338
21
0.200462
0
LINE
8
BLACK
6
CONTINUOUS
10
1.34338
20
0.200462
11
1.34024
21
0.196213
0
LINE
8
BLACK
6
CONTINUOUS
10
1.34024
20
0.196213
11
1.33599
21
0.193077
0
LINE
8
BLACK
6
CONTINUOUS
10
1.33599
20
0.193077
11
1.33101
21
0.191332
0
LINE
8
BLACK
6
CONTINUOUS
10
1.33101
20
0.191332
11
1.32772
21
0.191024
0
LINE
8
BLACK
6
CONTINUOUS
10
1.32772
20
0.191024
11
1.29228
21
0.191024
0
LINE
8
BLACK
6
CONTINUOUS
10
1.29228
20
0.191024
11
1.28899
21
0.191332
0
LINE
8
BLACK
6
CONTINUOUS
10
1.28899
20
0.191332
11
1.28401
21
0.193077
0
LINE
8
BLACK
6
CONTINUOUS
10
1.28401
20
0.193077
11
1.27976
21
0.196213
0
LINE
8
BLACK
6
CONTINUOUS
10
1.27976
20
0.196213
11
1.27662
21
0.200462
0
LINE
8
BLACK
6
CONTINUOUS
10
1.27662
20
0.200462
11
1.27488
21
0.205446
0
LINE
8
BLACK
6
CONTINUOUS
10
1.27488
20
0.205446
11
1.27457
21
0.20874
0
LINE
8
BLACK
6
CONTINUOUS
10
1.27457
20
0.20874
11
1.27457
21
0.229409
0
LINE
8
BLACK
6
CONTINUOUS
10
1.27457
20
0.229409
11
1.27488
21
0.232703
0
LINE
8
BLACK
6
CONTINUOUS
10
1.27488
20
0.232703
11
1.27662
21
0.237688
0
LINE
8
BLACK
6
CONTINUOUS
10
1.27662
20
0.237688
11
1.27976
21
0.241937
0
LINE
8
BLACK
6
CONTINUOUS
10
1.27976
20
0.241937
11
1.28401
21
0.245073
0
LINE
8
BLACK
6
CONTINUOUS
10
1.28401
20
0.245073
11
1.28899
21
0.246817
0
LINE
8
BLACK
6
CONTINUOUS
10
1.28899
20
0.246817
11
1.29228
21
0.247126
0
LINE
8
BLACK
6
CONTINUOUS
10
1.29228
20
0.247126
11
1.32772
21
0.247126
0
LINE
8
BLACK
6
CONTINUOUS
10
1.32772
20
0.247126
11
1.33101
21
0.246817
0
LINE
8
BLACK
6
CONTINUOUS
10
0.695356
20
0.271975
11
0.69791
21
0.270268
0
LINE
8
BLACK
6
CONTINUOUS
10
0.69791
20
0.270268
11
0.699617
21
0.267713
0
LINE
8
BLACK
6
CONTINUOUS
10
0.699617
20
0.267713
11
0.700217
21
0.2647
0
LINE
8
BLACK
6
CONTINUOUS
10
0.700217
20
0.2647
11
0.700217
21
0.2253
0
LINE
8
BLACK
6
CONTINUOUS
10
0.700217
20
0.2253
11
0.699617
21
0.222287
0
LINE
8
BLACK
6
CONTINUOUS
10
0.699617
20
0.222287
11
0.69791
21
0.219732
0
LINE
8
BLACK
6
CONTINUOUS
10
0.69791
20
0.219732
11
0.695356
21
0.218025
0
LINE
8
BLACK
6
CONTINUOUS
10
0.695356
20
0.218025
11
0.692343
21
0.217426
0
LINE
8
BLACK
6
CONTINUOUS
10
0.692343
20
0.217426
11
0.672657
21
0.217426
0
LINE
8
BLACK
6
CONTINUOUS
10
0.672657
20
0.217426
11
0.669644
21
0.218025
0
LINE
8
BLACK
6
CONTINUOUS
10
0.669644
20
0.218025
11
0.66709
21
0.219732
0
LINE
8
BLACK
6
CONTINUOUS
10
0.66709
20
0.219732
11
0.665383
21
0.222287
0
LINE
8
BLACK
6
CONTINUOUS
10
0.665383
20
0.222287
11
0.664783
21
0.2253
0
LINE
8
BLACK
6
CONTINUOUS
10
0.664783
20
0.2253
11
0.664783
21
0.2647
0
LINE
8
BLACK
6
CONTINUOUS
10
0.664783
20
0.2647
11
0.665383
21
0.267713
0
LINE
8
BLACK
6
CONTINUOUS
10
0.665383
20
0.267713
11
0.66709
21
0.270268
0
LINE
8
BLACK
6
CONTINUOUS
10
0.66709
20
0.270268
11
0.669644
21
0.271975
0
LINE
8
BLACK
6
CONTINUOUS
10
0.669644
20
0.271975
11
0.672657
21
0.272574
0
LINE
8
BLACK
6
CONTINUOUS
10
0.672657
20
0.272574
11
0.692343
21
0.272574
0
LINE
8
BLACK
6
CONTINUOUS
10
0.692343
20
0.272574
11
0.695356
21
0.271975
0
LINE
8
BLACK
6
CONTINUOUS
10
0.732856
20
0.271975
11
0.73541
21
0.270268
0
LINE
8
BLACK
6
CONTINUOUS
10
0.73541
20
0.270268
11
0.737117
21
0.267713
0
LINE
8
BLACK
6
CONTINUOUS
10
0.737117
20
0.267713
11
0.737717
21
0.2647
0
LINE
8
BLACK
6
CONTINUOUS
10
0.737717
20
0.2647
11
0.737717
21
0.2253
0
LINE
8
BLACK
6
CONTINUOUS
10
0.737717
20
0.2253
11
0.737117
21
0.222287
0
LINE
8
BLACK
6
CONTINUOUS
10
0.737117
20
0.222287
11
0.73541
21
0.219732
0
LINE
8
BLACK
6
CONTINUOUS
10
0.73541
20
0.219732
11
0.732856
21
0.218025
0
LINE
8
BLACK
6
CONTINUOUS
10
0.732856
20
0.218025
11
0.729843
21
0.217426
0
LINE
8
BLACK
6
CONTINUOUS
10
0.729843
20
0.217426
11
0.710157
21
0.217426
0
LINE
8
BLACK
6
CONTINUOUS
10
0.710157
20
0.217426
11
0.707144
21
0.218025
0
LINE
8
BLACK
6
CONTINUOUS
10
0.707144
20
0.218025
11
0.70459
21
0.219732
0
LINE
8
BLACK
6
CONTINUOUS
10
0.70459
20
0.219732
11
0.702883
21
0.222287
0
LINE
8
BLACK
6
CONTINUOUS
10
0.702883
20
0.222287
11
0.702283
21
0.2253
0
LINE
8
BLACK
6
CONTINUOUS
10
0.702283
20
0.2253
11
0.702283
21
0.2647
0
LINE
8
BLACK
6
CONTINUOUS
10
0.702283
20
0.2647
11
0.702883
21
0.267713
0
LINE
8
BLACK
6
CONTINUOUS
10
0.702883
20
0.267713
11
0.70459
21
0.270268
0
LINE
8
BLACK
6
CONTINUOUS
10
0.70459
20
0.270268
11
0.707144
21
0.271975
0
LINE
8
BLACK
6
CONTINUOUS
10
0.707144
20
0.271975
11
0.710157
21
0.272574
0
LINE
8
BLACK
6
CONTINUOUS
10
0.710157
20
0.272574
11
0.729843
21
0.272574
0
LINE
8
BLACK
6
CONTINUOUS
10
0.729843
20
0.272574
11
0.732856
21
0.271975
0
LINE
8
BLACK
6
CONTINUOUS
10
0.770356
20
0.271975
11
0.77291
21
0.270268
0
LINE
8
BLACK
6
CONTINUOUS
10
0.77291
20
0.270268
11
0.774617
21
0.267713
0
LINE
8
BLACK
6
CONTINUOUS
10
0.774617
20
0.267713
11
0.775217
21
0.2647
0
LINE
8
BLACK
6
CONTINUOUS
10
0.775217
20
0.2647
11
0.775217
21
0.2253
0
LINE
8
BLACK
6
CONTINUOUS
10
0.775217
20
0.2253
11
0.774617
21
0.222287
0
LINE
8
BLACK
6
CONTINUOUS
10
0.774617
20
0.222287
11
0.77291
21
0.219732
0
LINE
8
BLACK
6
CONTINUOUS
10
0.77291
20
0.219732
11
0.770356
21
0.218025
0
LINE
8
BLACK
6
CONTINUOUS
10
0.770356
20
0.218025
11
0.767343
21
0.217426
0
LINE
8
BLACK
6
CONTINUOUS
10
0.767343
20
0.217426
11
0.747657
21
0.217426
0
LINE
8
BLACK
6
CONTINUOUS
10
0.747657
20
0.217426
11
0.744644
21
0.218025
0
LINE
8
BLACK
6
CONTINUOUS
10
0.744644
20
0.218025
11
0.74209
21
0.219732
0
LINE
8
BLACK
6
CONTINUOUS
10
0.74209
20
0.219732
11
0.740383
21
0.222287
0
LINE
8
BLACK
6
CONTINUOUS
10
0.740383
20
0.222287
11
0.739783
21
0.2253
0
LINE
8
BLACK
6
CONTINUOUS
10
0.739783
20
0.2253
11
0.739783
21
0.2647
0
LINE
8
BLACK
6
CONTINUOUS
10
0.739783
20
0.2647
11
0.740383
21
0.267713
0
LINE
8
BLACK
6
CONTINUOUS
10
0.740383
20
0.267713
11
0.74209
21
0.270268
0
LINE
8
BLACK
6
CONTINUOUS
10
0.74209
20
0.270268
11
0.744644
21
0.271975
0
LINE
8
BLACK
6
CONTINUOUS
10
0.744644
20
0.271975
11
0.747657
21
0.272574
0
LINE
8
BLACK
6
CONTINUOUS
10
0.747657
20
0.272574
11
0.767343
21
0.272574
0
LINE
8
BLACK
6
CONTINUOUS
10
0.767343
20
0.272574
11
0.770356
21
0.271975
0
LINE
8
BLACK
6
CONTINUOUS
10
0.508985
20
0.307326
11
0.51397
21
0.305582
0
LINE
8
BLACK
6
CONTINUOUS
10
0.51397
20
0.305582
11
0.518219
21
0.302446
0
LINE
8
BLACK
6
CONTINUOUS
10
0.518219
20
0.302446
11
0.521355
21
0.298197
0
LINE
8
BLACK
6
CONTINUOUS
10
0.521355
20
0.298197
11
0.523099
21
0.293212
0
LINE
8
BLACK
6
CONTINUOUS
10
0.523099
20
0.293212
11
0.523408
21
0.289919
0
LINE
8
BLACK
6
CONTINUOUS
10
0.523408
20
0.289919
11
0.523408
21
0.270234
0
LINE
8
BLACK
6
CONTINUOUS
10
0.523408
20
0.270234
11
0.523099
21
0.26694
0
LINE
8
BLACK
6
CONTINUOUS
10
0.523099
20
0.26694
11
0.521355
21
0.261955
0
LINE
8
BLACK
6
CONTINUOUS
10
0.521355
20
0.261955
11
0.518219
21
0.257706
0
LINE
8
BLACK
6
CONTINUOUS
10
0.518219
20
0.257706
11
0.51397
21
0.25457
0
LINE
8
BLACK
6
CONTINUOUS
10
0.51397
20
0.25457
11
0.508985
21
0.252826
0
LINE
8
BLACK
6
CONTINUOUS
10
0.508985
20
0.252826
11
0.505692
21
0.252517
0
LINE
8
BLACK
6
CONTINUOUS
10
0.505692
20
0.252517
11
0.46829
21
0.252517
0
LINE
8
BLACK
6
CONTINUOUS
10
0.46829
20
0.252517
11
0.464996
21
0.252826
0
LINE
8
BLACK
6
CONTINUOUS
10
0.464996
20
0.252826
11
0.460012
21
0.25457
0
LINE
8
BLACK
6
CONTINUOUS
10
0.460012
20
0.25457
11
0.455763
21
0.257706
0
LINE
8
BLACK
6
CONTINUOUS
10
0.455763
20
0.257706
11
0.452627
21
0.261955
0
LINE
8
BLACK
6
CONTINUOUS
10
0.452627
20
0.261955
11
0.450882
21
0.26694
0
LINE
8
BLACK
6
CONTINUOUS
10
0.450882
20
0.26694
11
0.450574
21
0.270234
0
LINE
8
BLACK
6
CONTINUOUS
10
0.450574
20
0.270234
11
0.450574
21
0.289919
0
LINE
8
BLACK
6
CONTINUOUS
10
0.450574
20
0.289919
11
0.450882
21
0.293212
0
LINE
8
BLACK
6
CONTINUOUS
10
0.450882
20
0.293212
11
0.452627
21
0.298197
0
LINE
8
BLACK
6
CONTINUOUS
10
0.452627
20
0.298197
11
0.455763
21
0.302446
0
LINE
8
BLACK
6
CONTINUOUS
10
0.455763
20
0.302446
11
0.460012
21
0.305582
0
LINE
8
BLACK
6
CONTINUOUS
10
0.460012
20
0.305582
11
0.464996
21
0.307326
0
LINE
8
BLACK
6
CONTINUOUS
10
0.464996
20
0.307326
11
0.46829
21
0.307635
0
LINE
8
BLACK
6
CONTINUOUS
10
0.46829
20
0.307635
11
0.505692
21
0.307635
0
LINE
8
BLACK
6
CONTINUOUS
10
0.505692
20
0.307635
11
0.508985
21
0.307326
0
LINE
8
BLACK
6
CONTINUOUS
10
0.595521
20
0.308507
11
0.600506
21
0.306763
0
LINE
8
BLACK
6
CONTINUOUS
10
0.600506
20
0.306763
11
0.604755
21
0.303627
0
LINE
8
BLACK
6
CONTINUOUS
10
0.604755
20
0.303627
11
0.607891
21
0.299378
0
LINE
8
BLACK
6
CONTINUOUS
10
0.607891
20
0.299378
11
0.609635
21
0.294393
0
LINE
8
BLACK
6
CONTINUOUS
10
0.609635
20
0.294393
11
0.609944
21
0.2911
0
LINE
8
BLACK
6
CONTINUOUS
10
0.609944
20
0.2911
11
0.609944
21
0.27043
0
LINE
8
BLACK
6
CONTINUOUS
10
0.609944
20
0.27043
11
0.609635
21
0.267137
0
LINE
8
BLACK
6
CONTINUOUS
10
0.609635
20
0.267137
11
0.607891
21
0.262152
0
LINE
8
BLACK
6
CONTINUOUS
10
0.607891
20
0.262152
11
0.604755
21
0.257903
0
LINE
8
BLACK
6
CONTINUOUS
10
0.604755
20
0.257903
11
0.600506
21
0.254767
0
LINE
8
BLACK
6
CONTINUOUS
10
0.600506
20
0.254767
11
0.595521
21
0.253023
0
LINE
8
BLACK
6
CONTINUOUS
10
0.595521
20
0.253023
11
0.592227
21
0.252714
0
LINE
8
BLACK
6
CONTINUOUS
10
0.592227
20
0.252714
11
0.556794
21
0.252714
0
LINE
8
BLACK
6
CONTINUOUS
10
0.556794
20
0.252714
11
0.5535
21
0.253023
0
LINE
8
BLACK
6
CONTINUOUS
10
0.5535
20
0.253023
11
0.548516
21
0.254767
0
LINE
8
BLACK
6
CONTINUOUS
10
0.548516
20
0.254767
11
0.544267
21
0.257903
0
LINE
8
BLACK
6
CONTINUOUS
10
0.544267
20
0.257903
11
0.541131
21
0.262152
0
LINE
8
BLACK
6
CONTINUOUS
10
0.541131
20
0.262152
11
0.539386
21
0.267137
0
LINE
8
BLACK
6
CONTINUOUS
10
0.539386
20
0.267137
11
0.539078
21
0.27043
0
LINE
8
BLACK
6
CONTINUOUS
10
0.539078
20
0.27043
11
0.539078
21
0.2911
0
LINE
8
BLACK
6
CONTINUOUS
10
0.539078
20
0.2911
11
0.539386
21
0.294393
0
LINE
8
BLACK
6
CONTINUOUS
10
0.539386
20
0.294393
11
0.541131
21
0.299378
0
LINE
8
BLACK
6
CONTINUOUS
10
0.541131
20
0.299378
11
0.544267
21
0.303627
0
LINE
8
BLACK
6
CONTINUOUS
10
0.544267
20
0.303627
11
0.548516
21
0.306763
0
LINE
8
BLACK
6
CONTINUOUS
10
0.548516
20
0.306763
11
0.5535
21
0.308507
0
LINE
8
BLACK
6
CONTINUOUS
10
0.5535
20
0.308507
11
0.556794
21
0.308816
0
LINE
8
BLACK
6
CONTINUOUS
10
0.556794
20
0.308816
11
0.592227
21
0.308816
0
LINE
8
BLACK
6
CONTINUOUS
10
0.592227
20
0.308816
11
0.595521
21
0.308507
0
LINE
8
BLACK
6
CONTINUOUS
10
1.04101
20
0.313668
11
1.04599
21
0.311923
0
LINE
8
BLACK
6
CONTINUOUS
10
1.04599
20
0.311923
11
1.05024
21
0.308787
0
LINE
8
BLACK
6
CONTINUOUS
10
1.05024
20
0.308787
11
1.05338
21
0.304538
0
LINE
8
BLACK
6
CONTINUOUS
10
1.05338
20
0.304538
11
1.05512
21
0.299554
0
LINE
8
BLACK
6
CONTINUOUS
10
1.05512
20
0.299554
11
1.05543
21
0.29626
0
LINE
8
BLACK
6
CONTINUOUS
10
1.05543
20
0.29626
11
1.05543
21
0.275591
0
LINE
8
BLACK
6
CONTINUOUS
10
1.05543
20
0.275591
11
1.05512
21
0.272297
0
LINE
8
BLACK
6
CONTINUOUS
10
1.05512
20
0.272297
11
1.05338
21
0.267312
0
LINE
8
BLACK
6
CONTINUOUS
10
1.05338
20
0.267312
11
1.05024
21
0.263063
0
LINE
8
BLACK
6
CONTINUOUS
10
1.05024
20
0.263063
11
1.04599
21
0.259927
0
LINE
8
BLACK
6
CONTINUOUS
10
1.04599
20
0.259927
11
1.04101
21
0.258183
0
LINE
8
BLACK
6
CONTINUOUS
10
1.04101
20
0.258183
11
1.03772
21
0.257874
0
LINE
8
BLACK
6
CONTINUOUS
10
1.03772
20
0.257874
11
1.00228
21
0.257874
0
LINE
8
BLACK
6
CONTINUOUS
10
1.00228
20
0.257874
11
0.99899
21
0.258183
0
LINE
8
BLACK
6
CONTINUOUS
10
0.99899
20
0.258183
11
0.994005
21
0.259927
0
LINE
8
BLACK
6
CONTINUOUS
10
0.994005
20
0.259927
11
0.989756
21
0.263063
0
LINE
8
BLACK
6
CONTINUOUS
10
0.989756
20
0.263063
11
0.98662
21
0.267312
0
LINE
8
BLACK
6
CONTINUOUS
10
0.98662
20
0.267312
11
0.984876
21
0.272297
0
LINE
8
BLACK
6
CONTINUOUS
10
0.984876
20
0.272297
11
0.984567
21
0.275591
0
LINE
8
BLACK
6
CONTINUOUS
10
0.984567
20
0.275591
11
0.984567
21
0.29626
0
LINE
8
BLACK
6
CONTINUOUS
10
0.984567
20
0.29626
11
0.984876
21
0.299554
0
LINE
8
BLACK
6
CONTINUOUS
10
0.984876
20
0.299554
11
0.98662
21
0.304538
0
LINE
8
BLACK
6
CONTINUOUS
10
0.98662
20
0.304538
11
0.989756
21
0.308787
0
LINE
8
BLACK
6
CONTINUOUS
10
0.989756
20
0.308787
11
0.994005
21
0.311923
0
LINE
8
BLACK
6
CONTINUOUS
10
0.994005
20
0.311923
11
0.99899
21
0.313668
0
LINE
8
BLACK
6
CONTINUOUS
10
0.99899
20
0.313668
11
1.00228
21
0.313976
0
LINE
8
BLACK
6
CONTINUOUS
10
1.00228
20
0.313976
11
1.03772
21
0.313976
0
LINE
8
BLACK
6
CONTINUOUS
10
1.03772
20
0.313976
11
1.04101
21
0.313668
0
LINE
8
BLACK
6
CONTINUOUS
10
1.13601
20
0.313668
11
1.14099
21
0.311923
0
LINE
8
BLACK
6
CONTINUOUS
10
1.14099
20
0.311923
11
1.14524
21
0.308787
0
LINE
8
BLACK
6
CONTINUOUS
10
1.14524
20
0.308787
11
1.14838
21
0.304538
0
LINE
8
BLACK
6
CONTINUOUS
10
1.14838
20
0.304538
11
1.15012
21
0.299554
0
LINE
8
BLACK
6
CONTINUOUS
10
1.15012
20
0.299554
11
1.15043
21
0.29626
0
LINE
8
BLACK
6
CONTINUOUS
10
1.15043
20
0.29626
11
1.15043
21
0.275591
0
LINE
8
BLACK
6
CONTINUOUS
10
1.15043
20
0.275591
11
1.15012
21
0.272297
0
LINE
8
BLACK
6
CONTINUOUS
10
1.15012
20
0.272297
11
1.14838
21
0.267312
0
LINE
8
BLACK
6
CONTINUOUS
10
1.14838
20
0.267312
11
1.14524
21
0.263063
0
LINE
8
BLACK
6
CONTINUOUS
10
1.14524
20
0.263063
11
1.14099
21
0.259927
0
LINE
8
BLACK
6
CONTINUOUS
10
1.14099
20
0.259927
11
1.13601
21
0.258183
0
LINE
8
BLACK
6
CONTINUOUS
10
1.13601
20
0.258183
11
1.13272
21
0.257874
0
LINE
8
BLACK
6
CONTINUOUS
10
1.13272
20
0.257874
11
1.09728
21
0.257874
0
LINE
8
BLACK
6
CONTINUOUS
10
1.09728
20
0.257874
11
1.09399
21
0.258183
0
LINE
8
BLACK
6
CONTINUOUS
10
1.09399
20
0.258183
11
1.08901
21
0.259927
0
LINE
8
BLACK
6
CONTINUOUS
10
1.08901
20
0.259927
11
1.08476
21
0.263063
0
LINE
8
BLACK
6
CONTINUOUS
10
1.08476
20
0.263063
11
1.08162
21
0.267312
0
LINE
8
BLACK
6
CONTINUOUS
10
1.08162
20
0.267312
11
1.07988
21
0.272297
0
LINE
8
BLACK
6
CONTINUOUS
10
1.07988
20
0.272297
11
1.07957
21
0.275591
0
LINE
8
BLACK
6
CONTINUOUS
10
1.07957
20
0.275591
11
1.07957
21
0.29626
0
LINE
8
BLACK
6
CONTINUOUS
10
1.07957
20
0.29626
11
1.07988
21
0.299554
0
LINE
8
BLACK
6
CONTINUOUS
10
1.07988
20
0.299554
11
1.08162
21
0.304538
0
LINE
8
BLACK
6
CONTINUOUS
10
1.08162
20
0.304538
11
1.08476
21
0.308787
0
LINE
8
BLACK
6
CONTINUOUS
10
1.08476
20
0.308787
11
1.08901
21
0.311923
0
LINE
8
BLACK
6
CONTINUOUS
10
1.08901
20
0.311923
11
1.09399
21
0.313668
0
LINE
8
BLACK
6
CONTINUOUS
10
1.09399
20
0.313668
11
1.09728
21
0.313976
0
LINE
8
BLACK
6
CONTINUOUS
10
1.09728
20
0.313976
11
1.13272
21
0.313976
0
LINE
8
BLACK
6
CONTINUOUS
10
1.13272
20
0.313976
11
1.13601
21
0.313668
0
LINE
8
BLACK
6
CONTINUOUS
10
0.850735
20
0.331108
11
0.855719
21
0.329364
0
LINE
8
BLACK
6
CONTINUOUS
10
0.855719
20
0.329364
11
0.859968
21
0.326228
0
LINE
8
BLACK
6
CONTINUOUS
10
0.859968
20
0.326228
11
0.863104
21
0.321979
0
LINE
8
BLACK
6
CONTINUOUS
10
0.863104
20
0.321979
11
0.864849
21
0.316994
0
LINE
8
BLACK
6
CONTINUOUS
10
0.864849
20
0.316994
11
0.865157
21
0.313701
0
LINE
8
BLACK
6
CONTINUOUS
10
0.865157
20
0.313701
11
0.865157
21
0.276299
0
LINE
8
BLACK
6
CONTINUOUS
10
0.865157
20
0.276299
11
0.864849
21
0.273006
0
LINE
8
BLACK
6
CONTINUOUS
10
0.864849
20
0.273006
11
0.863104
21
0.268021
0
LINE
8
BLACK
6
CONTINUOUS
10
0.863104
20
0.268021
11
0.859968
21
0.263772
0
LINE
8
BLACK
6
CONTINUOUS
10
0.859968
20
0.263772
11
0.855719
21
0.260636
0
LINE
8
BLACK
6
CONTINUOUS
10
0.855719
20
0.260636
11
0.850735
21
0.258892
0
LINE
8
BLACK
6
CONTINUOUS
10
0.850735
20
0.258892
11
0.847441
21
0.258583
0
LINE
8
BLACK
6
CONTINUOUS
10
0.847441
20
0.258583
11
0.827756
21
0.258583
0
LINE
8
BLACK
6
CONTINUOUS
10
0.827756
20
0.258583
11
0.824462
21
0.258892
0
LINE
8
BLACK
6
CONTINUOUS
10
0.824462
20
0.258892
11
0.819478
21
0.260636
0
LINE
8
BLACK
6
CONTINUOUS
10
0.819478
20
0.260636
11
0.815228
21
0.263772
0
LINE
8
BLACK
6
CONTINUOUS
10
0.815228
20
0.263772
11
0.812092
21
0.268021
0
LINE
8
BLACK
6
CONTINUOUS
10
0.812092
20
0.268021
11
0.810348
21
0.273006
0
LINE
8
BLACK
6
CONTINUOUS
10
0.810348
20
0.273006
11
0.810039
21
0.276299
0
LINE
8
BLACK
6
CONTINUOUS
10
0.810039
20
0.276299
11
0.810039
21
0.313701
0
LINE
8
BLACK
6
CONTINUOUS
10
0.810039
20
0.313701
11
0.810348
21
0.316994
0
LINE
8
BLACK
6
CONTINUOUS
10
0.810348
20
0.316994
11
0.812092
21
0.321979
0
LINE
8
BLACK
6
CONTINUOUS
10
0.812092
20
0.321979
11
0.815228
21
0.326228
0
LINE
8
BLACK
6
CONTINUOUS
10
0.815228
20
0.326228
11
0.819478
21
0.329364
0
LINE
8
BLACK
6
CONTINUOUS
10
0.819478
20
0.329364
11
0.824462
21
0.331108
0
LINE
8
BLACK
6
CONTINUOUS
10
0.824462
20
0.331108
11
0.827756
21
0.331417
0
LINE
8
BLACK
6
CONTINUOUS
10
0.827756
20
0.331417
11
0.847441
21
0.331417
0
LINE
8
BLACK
6
CONTINUOUS
10
0.847441
20
0.331417
11
0.850735
21
0.331108
0
LINE
8
BLACK
6
CONTINUOUS
10
0.925538
20
0.331108
11
0.930522
21
0.329364
0
LINE
8
BLACK
6
CONTINUOUS
10
0.930522
20
0.329364
11
0.934772
21
0.326228
0
LINE
8
BLACK
6
CONTINUOUS
10
0.934772
20
0.326228
11
0.937908
21
0.321979
0
LINE
8
BLACK
6
CONTINUOUS
10
0.937908
20
0.321979
11
0.939652
21
0.316994
0
LINE
8
BLACK
6
CONTINUOUS
10
0.939652
20
0.316994
11
0.939961
21
0.313701
0
LINE
8
BLACK
6
CONTINUOUS
10
0.939961
20
0.313701
11
0.939961
21
0.276299
0
LINE
8
BLACK
6
CONTINUOUS
10
0.939961
20
0.276299
11
0.939652
21
0.273006
0
LINE
8
BLACK
6
CONTINUOUS
10
0.939652
20
0.273006
11
0.937908
21
0.268021
0
LINE
8
BLACK
6
CONTINUOUS
10
0.937908
20
0.268021
11
0.934772
21
0.263772
0
LINE
8
BLACK
6
CONTINUOUS
10
0.934772
20
0.263772
11
0.930522
21
0.260636
0
LINE
8
BLACK
6
CONTINUOUS
10
0.930522
20
0.260636
11
0.925538
21
0.258892
0
LINE
8
BLACK
6
CONTINUOUS
10
0.925538
20
0.258892
11
0.922244
21
0.258583
0
LINE
8
BLACK
6
CONTINUOUS
10
0.922244
20
0.258583
11
0.902559
21
0.258583
0
LINE
8
BLACK
6
CONTINUOUS
10
0.902559
20
0.258583
11
0.899265
21
0.258892
0
LINE
8
BLACK
6
CONTINUOUS
10
0.899265
20
0.258892
11
0.894281
21
0.260636
0
LINE
8
BLACK
6
CONTINUOUS
10
0.894281
20
0.260636
11
0.890032
21
0.263772
0
LINE
8
BLACK
6
CONTINUOUS
10
0.890032
20
0.263772
11
0.886896
21
0.268021
0
LINE
8
BLACK
6
CONTINUOUS
10
0.886896
20
0.268021
11
0.885151
21
0.273006
0
LINE
8
BLACK
6
CONTINUOUS
10
0.885151
20
0.273006
11
0.884843
21
0.276299
0
LINE
8
BLACK
6
CONTINUOUS
10
0.884843
20
0.276299
11
0.884843
21
0.313701
0
LINE
8
BLACK
6
CONTINUOUS
10
0.884843
20
0.313701
11
0.885151
21
0.316994
0
LINE
8
BLACK
6
CONTINUOUS
10
0.885151
20
0.316994
11
0.886896
21
0.321979
0
LINE
8
BLACK
6
CONTINUOUS
10
0.886896
20
0.321979
11
0.890032
21
0.326228
0
LINE
8
BLACK
6
CONTINUOUS
10
0.890032
20
0.326228
11
0.894281
21
0.329364
0
LINE
8
BLACK
6
CONTINUOUS
10
0.894281
20
0.329364
11
0.899265
21
0.331108
0
LINE
8
BLACK
6
CONTINUOUS
10
0.899265
20
0.331108
11
0.902559
21
0.331417
0
LINE
8
BLACK
6
CONTINUOUS
10
0.902559
20
0.331417
11
0.922244
21
0.331417
0
LINE
8
BLACK
6
CONTINUOUS
10
0.922244
20
0.331417
11
0.925538
21
0.331108
0
LINE
8
BLACK
6
CONTINUOUS
10
1.33101
20
0.318668
11
1.33599
21
0.316923
0
LINE
8
BLACK
6
CONTINUOUS
10
1.33599
20
0.316923
11
1.34024
21
0.313787
0
LINE
8
BLACK
6
CONTINUOUS
10
1.34024
20
0.313787
11
1.34338
21
0.309538
0
LINE
8
BLACK
6
CONTINUOUS
10
1.34338
20
0.309538
11
1.34512
21
0.304554
0
LINE
8
BLACK
6
CONTINUOUS
10
1.34512
20
0.304554
11
1.34543
21
0.30126
0
LINE
8
BLACK
6
CONTINUOUS
10
1.34543
20
0.30126
11
1.34543
21
0.280591
0
LINE
8
BLACK
6
CONTINUOUS
10
1.34543
20
0.280591
11
1.34512
21
0.277297
0
LINE
8
BLACK
6
CONTINUOUS
10
1.34512
20
0.277297
11
1.34338
21
0.272312
0
LINE
8
BLACK
6
CONTINUOUS
10
1.34338
20
0.272312
11
1.34024
21
0.268063
0
LINE
8
BLACK
6
CONTINUOUS
10
1.34024
20
0.268063
11
1.33599
21
0.264927
0
LINE
8
BLACK
6
CONTINUOUS
10
1.33599
20
0.264927
11
1.33101
21
0.263183
0
LINE
8
BLACK
6
CONTINUOUS
10
1.33101
20
0.263183
11
1.32772
21
0.262874
0
LINE
8
BLACK
6
CONTINUOUS
10
1.32772
20
0.262874
11
1.29228
21
0.262874
0
LINE
8
BLACK
6
CONTINUOUS
10
1.29228
20
0.262874
11
1.28899
21
0.263183
0
LINE
8
BLACK
6
CONTINUOUS
10
1.28899
20
0.263183
11
1.28401
21
0.264927
0
LINE
8
BLACK
6
CONTINUOUS
10
1.28401
20
0.264927
11
1.27976
21
0.268063
0
LINE
8
BLACK
6
CONTINUOUS
10
1.27976
20
0.268063
11
1.27662
21
0.272312
0
LINE
8
BLACK
6
CONTINUOUS
10
1.27662
20
0.272312
11
1.27488
21
0.277297
0
LINE
8
BLACK
6
CONTINUOUS
10
1.27488
20
0.277297
11
1.27457
21
0.280591
0
LINE
8
BLACK
6
CONTINUOUS
10
1.27457
20
0.280591
11
1.27457
21
0.30126
0
LINE
8
BLACK
6
CONTINUOUS
10
1.27457
20
0.30126
11
1.27488
21
0.304554
0
LINE
8
BLACK
6
CONTINUOUS
10
1.27488
20
0.304554
11
1.27662
21
0.309538
0
LINE
8
BLACK
6
CONTINUOUS
10
1.27662
20
0.309538
11
1.27976
21
0.313787
0
LINE
8
BLACK
6
CONTINUOUS
10
1.27976
20
0.313787
11
1.28401
21
0.316923
0
LINE
8
BLACK
6
CONTINUOUS
10
1.28401
20
0.316923
11
1.28899
21
0.318668
0
LINE
8
BLACK
6
CONTINUOUS
10
1.28899
20
0.318668
11
1.29228
21
0.318976
0
LINE
8
BLACK
6
CONTINUOUS
10
1.29228
20
0.318976
11
1.32772
21
0.318976
0
LINE
8
BLACK
6
CONTINUOUS
10
1.32772
20
0.318976
11
1.33101
21
0.318668
0
LINE
8
BLACK
6
CONTINUOUS
10
1.23699
20
0.319652
11
1.24198
21
0.317908
0
LINE
8
BLACK
6
CONTINUOUS
10
1.24198
20
0.317908
11
1.24623
21
0.314772
0
LINE
8
BLACK
6
CONTINUOUS
10
1.24623
20
0.314772
11
1.24936
21
0.310522
0
LINE
8
BLACK
6
CONTINUOUS
10
1.24936
20
0.310522
11
1.25111
21
0.305538
0
LINE
8
BLACK
6
CONTINUOUS
10
1.25111
20
0.305538
11
1.25142
21
0.302244
0
LINE
8
BLACK
6
CONTINUOUS
10
1.25142
20
0.302244
11
1.25142
21
0.282559
0
LINE
8
BLACK
6
CONTINUOUS
10
1.25142
20
0.282559
11
1.25111
21
0.279265
0
LINE
8
BLACK
6
CONTINUOUS
10
1.25111
20
0.279265
11
1.24936
21
0.274281
0
LINE
8
BLACK
6
CONTINUOUS
10
1.24936
20
0.274281
11
1.24623
21
0.270032
0
LINE
8
BLACK
6
CONTINUOUS
10
1.24623
20
0.270032
11
1.24198
21
0.266896
0
LINE
8
BLACK
6
CONTINUOUS
10
1.24198
20
0.266896
11
1.23699
21
0.265151
0
LINE
8
BLACK
6
CONTINUOUS
10
1.23699
20
0.265151
11
1.2337
21
0.264843
0
LINE
8
BLACK
6
CONTINUOUS
10
1.2337
20
0.264843
11
1.1963
21
0.264843
0
LINE
8
BLACK
6
CONTINUOUS
10
1.1963
20
0.264843
11
1.19301
21
0.265151
0
LINE
8
BLACK
6
CONTINUOUS
10
1.19301
20
0.265151
11
1.18802
21
0.266896
0
LINE
8
BLACK
6
CONTINUOUS
10
1.18802
20
0.266896
11
1.18377
21
0.270032
0
LINE
8
BLACK
6
CONTINUOUS
10
1.18377
20
0.270032
11
1.18064
21
0.274281
0
LINE
8
BLACK
6
CONTINUOUS
10
1.18064
20
0.274281
11
1.17889
21
0.279265
0
LINE
8
BLACK
6
CONTINUOUS
10
1.17889
20
0.279265
11
1.17858
21
0.282559
0
LINE
8
BLACK
6
CONTINUOUS
10
1.17858
20
0.282559
11
1.17858
21
0.302244
0
LINE
8
BLACK
6
CONTINUOUS
10
1.17858
20
0.302244
11
1.17889
21
0.305538
0
LINE
8
BLACK
6
CONTINUOUS
10
1.17889
20
0.305538
11
1.18064
21
0.310522
0
LINE
8
BLACK
6
CONTINUOUS
10
1.18064
20
0.310522
11
1.18377
21
0.314772
0
LINE
8
BLACK
6
CONTINUOUS
10
1.18377
20
0.314772
11
1.18802
21
0.317908
0
LINE
8
BLACK
6
CONTINUOUS
10
1.18802
20
0.317908
11
1.19301
21
0.319652
0
LINE
8
BLACK
6
CONTINUOUS
10
1.19301
20
0.319652
11
1.1963
21
0.319961
0
LINE
8
BLACK
6
CONTINUOUS
10
1.1963
20
0.319961
11
1.2337
21
0.319961
0
LINE
8
BLACK
6
CONTINUOUS
10
1.2337
20
0.319961
11
1.23699
21
0.319652
0
LINE
8
BLACK
6
CONTINUOUS
10
1.50199
20
0.329849
11
1.50698
21
0.328104
0
LINE
8
BLACK
6
CONTINUOUS
10
1.50698
20
0.328104
11
1.51123
21
0.324968
0
LINE
8
BLACK
6
CONTINUOUS
10
1.51123
20
0.324968
11
1.51436
21
0.320719
0
LINE
8
BLACK
6
CONTINUOUS
10
1.51436
20
0.320719
11
1.51611
21
0.315735
0
LINE
8
BLACK
6
CONTINUOUS
10
1.51611
20
0.315735
11
1.51642
21
0.312441
0
LINE
8
BLACK
6
CONTINUOUS
10
1.51642
20
0.312441
11
1.51642
21
0.292756
0
LINE
8
BLACK
6
CONTINUOUS
10
1.51642
20
0.292756
11
1.51611
21
0.289462
0
LINE
8
BLACK
6
CONTINUOUS
10
1.51611
20
0.289462
11
1.51436
21
0.284478
0
LINE
8
BLACK
6
CONTINUOUS
10
1.51436
20
0.284478
11
1.51123
21
0.280228
0
LINE
8
BLACK
6
CONTINUOUS
10
1.51123
20
0.280228
11
1.50698
21
0.277092
0
LINE
8
BLACK
6
CONTINUOUS
10
1.50698
20
0.277092
11
1.50199
21
0.275348
0
LINE
8
BLACK
6
CONTINUOUS
10
1.50199
20
0.275348
11
1.4987
21
0.275039
0
LINE
8
BLACK
6
CONTINUOUS
10
1.4987
20
0.275039
11
1.4613
21
0.275039
0
LINE
8
BLACK
6
CONTINUOUS
10
1.4613
20
0.275039
11
1.45801
21
0.275348
0
LINE
8
BLACK
6
CONTINUOUS
10
1.45801
20
0.275348
11
1.45302
21
0.277092
0
LINE
8
BLACK
6
CONTINUOUS
10
1.45302
20
0.277092
11
1.44877
21
0.280228
0
LINE
8
BLACK
6
CONTINUOUS
10
1.44877
20
0.280228
11
1.44564
21
0.284478
0
LINE
8
BLACK
6
CONTINUOUS
10
1.44564
20
0.284478
11
1.44389
21
0.289462
0
LINE
8
BLACK
6
CONTINUOUS
10
1.44389
20
0.289462
11
1.44358
21
0.292756
0
LINE
8
BLACK
6
CONTINUOUS
10
1.44358
20
0.292756
11
1.44358
21
0.312441
0
LINE
8
BLACK
6
CONTINUOUS
10
1.44358
20
0.312441
11
1.44389
21
0.315735
0
LINE
8
BLACK
6
CONTINUOUS
10
1.44389
20
0.315735
11
1.44564
21
0.320719
0
LINE
8
BLACK
6
CONTINUOUS
10
1.44564
20
0.320719
11
1.44877
21
0.324968
0
LINE
8
BLACK
6
CONTINUOUS
10
1.44877
20
0.324968
11
1.45302
21
0.328104
0
LINE
8
BLACK
6
CONTINUOUS
10
1.45302
20
0.328104
11
1.45801
21
0.329849
0
LINE
8
BLACK
6
CONTINUOUS
10
1.45801
20
0.329849
11
1.4613
21
0.330157
0
LINE
8
BLACK
6
CONTINUOUS
10
1.4613
20
0.330157
11
1.4987
21
0.330157
0
LINE
8
BLACK
6
CONTINUOUS
10
1.4987
20
0.330157
11
1.50199
21
0.329849
0
LINE
8
BLACK
6
CONTINUOUS
10
1.41101
20
0.331817
11
1.41599
21
0.330073
0
LINE
8
BLACK
6
CONTINUOUS
10
1.41599
20
0.330073
11
1.42024
21
0.326937
0
LINE
8
BLACK
6
CONTINUOUS
10
1.42024
20
0.326937
11
1.42338
21
0.322688
0
LINE
8
BLACK
6
CONTINUOUS
10
1.42338
20
0.322688
11
1.42512
21
0.317703
0
LINE
8
BLACK
6
CONTINUOUS
10
1.42512
20
0.317703
11
1.42543
21
0.314409
0
LINE
8
BLACK
6
CONTINUOUS
10
1.42543
20
0.314409
11
1.42543
21
0.29374
0
LINE
8
BLACK
6
CONTINUOUS
10
1.42543
20
0.29374
11
1.42512
21
0.290446
0
LINE
8
BLACK
6
CONTINUOUS
10
1.42512
20
0.290446
11
1.42338
21
0.285462
0
LINE
8
BLACK
6
CONTINUOUS
10
1.42338
20
0.285462
11
1.42024
21
0.281213
0
LINE
8
BLACK
6
CONTINUOUS
10
1.42024
20
0.281213
11
1.41599
21
0.278077
0
LINE
8
BLACK
6
CONTINUOUS
10
1.41599
20
0.278077
11
1.41101
21
0.276332
0
LINE
8
BLACK
6
CONTINUOUS
10
1.41101
20
0.276332
11
1.40772
21
0.276024
0
LINE
8
BLACK
6
CONTINUOUS
10
1.40772
20
0.276024
11
1.37228
21
0.276024
0
LINE
8
BLACK
6
CONTINUOUS
10
1.37228
20
0.276024
11
1.36899
21
0.276332
0
LINE
8
BLACK
6
CONTINUOUS
10
1.36899
20
0.276332
11
1.36401
21
0.278077
0
LINE
8
BLACK
6
CONTINUOUS
10
1.36401
20
0.278077
11
1.35976
21
0.281213
0
LINE
8
BLACK
6
CONTINUOUS
10
1.35976
20
0.281213
11
1.35662
21
0.285462
0
LINE
8
BLACK
6
CONTINUOUS
10
1.35662
20
0.285462
11
1.35488
21
0.290446
0
LINE
8
BLACK
6
CONTINUOUS
10
1.35488
20
0.290446
11
1.35457
21
0.29374
0
LINE
8
BLACK
6
CONTINUOUS
10
1.35457
20
0.29374
11
1.35457
21
0.314409
0
LINE
8
BLACK
6
CONTINUOUS
10
1.35457
20
0.314409
11
1.35488
21
0.317703
0
LINE
8
BLACK
6
CONTINUOUS
10
1.35488
20
0.317703
11
1.35662
21
0.322688
0
LINE
8
BLACK
6
CONTINUOUS
10
1.35662
20
0.322688
11
1.35976
21
0.326937
0
LINE
8
BLACK
6
CONTINUOUS
10
1.35976
20
0.326937
11
1.36401
21
0.330073
0
LINE
8
BLACK
6
CONTINUOUS
10
1.36401
20
0.330073
11
1.36899
21
0.331817
0
LINE
8
BLACK
6
CONTINUOUS
10
1.36899
20
0.331817
11
1.37228
21
0.332126
0
LINE
8
BLACK
6
CONTINUOUS
10
1.37228
20
0.332126
11
1.40772
21
0.332126
0
LINE
8
BLACK
6
CONTINUOUS
10
1.40772
20
0.332126
11
1.41101
21
0.331817
0
LINE
8
BLACK
6
CONTINUOUS
10
0.0330133
20
0.387275
11
0.0355678
21
0.385568
0
LINE
8
BLACK
6
CONTINUOUS
10
0.0355678
20
0.385568
11
0.0372746
21
0.383013
0
LINE
8
BLACK
6
CONTINUOUS
10
0.0372746
20
0.383013
11
0.037874
21
0.38
0
LINE
8
BLACK
6
CONTINUOUS
10
0.037874
20
0.38
11
0.037874
21
0.32
0
LINE
8
BLACK
6
CONTINUOUS
10
0.037874
20
0.32
11
0.0372746
21
0.316987
0
LINE
8
BLACK
6
CONTINUOUS
10
0.0372746
20
0.316987
11
0.0355678
21
0.314432
0
LINE
8
BLACK
6
CONTINUOUS
10
0.0355678
20
0.314432
11
0.0330133
21
0.312725
0
LINE
8
BLACK
6
CONTINUOUS
10
0.0330133
20
0.312725
11
0.03
21
0.312126
0
LINE
8
BLACK
6
CONTINUOUS
10
0.03
20
0.312126
11
-0.03
21
0.312126
0
LINE
8
BLACK
6
CONTINUOUS
10
-0.03
20
0.312126
11
-0.0330133
21
0.312725
0
LINE
8
BLACK
6
CONTINUOUS
10
-0.0330133
20
0.312725
11
-0.0355678
21
0.314432
0
LINE
8
BLACK
6
CONTINUOUS
10
-0.0355678
20
0.314432
11
-0.0372746
21
0.316987
0
LINE
8
BLACK
6
CONTINUOUS
10
-0.0372746
20
0.316987
11
-0.037874
21
0.32
0
LINE
8
BLACK
6
CONTINUOUS
10
-0.037874
20
0.32
11
-0.037874
21
0.38
0
LINE
8
BLACK
6
CONTINUOUS
10
-0.037874
20
0.38
11
-0.0372746
21
0.383013
0
LINE
8
BLACK
6
CONTINUOUS
10
-0.0372746
20
0.383013
11
-0.0355678
21
0.385568
0
LINE
8
BLACK
6
CONTINUOUS
10
-0.0355678
20
0.385568
11
-0.0330133
21
0.387275
0
LINE
8
BLACK
6
CONTINUOUS
10
-0.0330133
20
0.387275
11
-0.03
21
0.387874
0
LINE
8
BLACK
6
CONTINUOUS
10
-0.03
20
0.387874
11
0.03
21
0.387874
0
LINE
8
BLACK
6
CONTINUOUS
10
0.03
20
0.387874
11
0.0330133
21
0.387275
0
LINE
8
BLACK
6
CONTINUOUS
10
0.133013
20
0.387275
11
0.135568
21
0.385568
0
LINE
8
BLACK
6
CONTINUOUS
10
0.135568
20
0.385568
11
0.137275
21
0.383013
0
LINE
8
BLACK
6
CONTINUOUS
10
0.137275
20
0.383013
11
0.137874
21
0.38
0
LINE
8
BLACK
6
CONTINUOUS
10
0.137874
20
0.38
11
0.137874
21
0.32
0
LINE
8
BLACK
6
CONTINUOUS
10
0.137874
20
0.32
11
0.137275
21
0.316987
0
LINE
8
BLACK
6
CONTINUOUS
10
0.137275
20
0.316987
11
0.135568
21
0.314432
0
LINE
8
BLACK
6
CONTINUOUS
10
0.135568
20
0.314432
11
0.133013
21
0.312725
0
LINE
8
BLACK
6
CONTINUOUS
10
0.133013
20
0.312725
11
0.13
21
0.312126
0
LINE
8
BLACK
6
CONTINUOUS
10
0.13
20
0.312126
11
0.07
21
0.312126
0
LINE
8
BLACK
6
CONTINUOUS
10
0.07
20
0.312126
11
0.0669867
21
0.312725
0
LINE
8
BLACK
6
CONTINUOUS
10
0.0669867
20
0.312725
11
0.0644322
21
0.314432
0
LINE
8
BLACK
6
CONTINUOUS
10
0.0644322
20
0.314432
11
0.0627254
21
0.316987
0
LINE
8
BLACK
6
CONTINUOUS
10
0.0627254
20
0.316987
11
0.062126
21
0.32
0
LINE
8
BLACK
6
CONTINUOUS
10
0.062126
20
0.32
11
0.062126
21
0.38
0
LINE
8
BLACK
6
CONTINUOUS
10
0.062126
20
0.38
11
0.0627254
21
0.383013
0
LINE
8
BLACK
6
CONTINUOUS
10
0.0627254
20
0.383013
11
0.0644322
21
0.385568
0
LINE
8
BLACK
6
CONTINUOUS
10
0.0644322
20
0.385568
11
0.0669867
21
0.387275
0
LINE
8
BLACK
6
CONTINUOUS
10
0.0669867
20
0.387275
11
0.07
21
0.387874
0
LINE
8
BLACK
6
CONTINUOUS
10
0.07
20
0.387874
11
0.13
21
0.387874
0
LINE
8
BLACK
6
CONTINUOUS
10
0.13
20
0.387874
11
0.133013
21
0.387275
0
LINE
8
BLACK
6
CONTINUOUS
10
0.695376
20
0.371975
11
0.697931
21
0.370268
0
LINE
8
BLACK
6
CONTINUOUS
10
0.697931
20
0.370268
11
0.699638
21
0.367713
0
LINE
8
BLACK
6
CONTINUOUS
10
0.699638
20
0.367713
11
0.700237
21
0.3647
0
LINE
8
BLACK
6
CONTINUOUS
10
0.700237
20
0.3647
11
0.700237
21
0.3253
0
LINE
8
BLACK
6
CONTINUOUS
10
0.700237
20
0.3253
11
0.699638
21
0.322287
0
LINE
8
BLACK
6
CONTINUOUS
10
0.699638
20
0.322287
11
0.697931
21
0.319732
0
LINE
8
BLACK
6
CONTINUOUS
10
0.697931
20
0.319732
11
0.695376
21
0.318025
0
LINE
8
BLACK
6
CONTINUOUS
10
0.695376
20
0.318025
11
0.692363
21
0.317426
0
LINE
8
BLACK
6
CONTINUOUS
10
0.692363
20
0.317426
11
0.672637
21
0.317426
0
LINE
8
BLACK
6
CONTINUOUS
10
0.672637
20
0.317426
11
0.669624
21
0.318025
0
LINE
8
BLACK
6
CONTINUOUS
10
0.669624
20
0.318025
11
0.667069
21
0.319732
0
LINE
8
BLACK
6
CONTINUOUS
10
0.667069
20
0.319732
11
0.665362
21
0.322287
0
LINE
8
BLACK
6
CONTINUOUS
10
0.665362
20
0.322287
11
0.664763
21
0.3253
0
LINE
8
BLACK
6
CONTINUOUS
10
0.664763
20
0.3253
11
0.664763
21
0.3647
0
LINE
8
BLACK
6
CONTINUOUS
10
0.664763
20
0.3647
11
0.665362
21
0.367713
0
LINE
8
BLACK
6
CONTINUOUS
10
0.665362
20
0.367713
11
0.667069
21
0.370268
0
LINE
8
BLACK
6
CONTINUOUS
10
0.667069
20
0.370268
11
0.669624
21
0.371975
0
LINE
8
BLACK
6
CONTINUOUS
10
0.669624
20
0.371975
11
0.672637
21
0.372574
0
LINE
8
BLACK
6
CONTINUOUS
10
0.672637
20
0.372574
11
0.692363
21
0.372574
0
LINE
8
BLACK
6
CONTINUOUS
10
0.692363
20
0.372574
11
0.695376
21
0.371975
0
LINE
8
BLACK
6
CONTINUOUS
10
0.732856
20
0.371975
11
0.73541
21
0.370268
0
LINE
8
BLACK
6
CONTINUOUS
10
0.73541
20
0.370268
11
0.737117
21
0.367713
0
LINE
8
BLACK
6
CONTINUOUS
10
0.737117
20
0.367713
11
0.737717
21
0.3647
0
LINE
8
BLACK
6
CONTINUOUS
10
0.737717
20
0.3647
11
0.737717
21
0.3253
0
LINE
8
BLACK
6
CONTINUOUS
10
0.737717
20
0.3253
11
0.737117
21
0.322287
0
LINE
8
BLACK
6
CONTINUOUS
10
0.737117
20
0.322287
11
0.73541
21
0.319732
0
LINE
8
BLACK
6
CONTINUOUS
10
0.73541
20
0.319732
11
0.732856
21
0.318025
0
LINE
8
BLACK
6
CONTINUOUS
10
0.732856
20
0.318025
11
0.729843
21
0.317426
0
LINE
8
BLACK
6
CONTINUOUS
10
0.729843
20
0.317426
11
0.710157
21
0.317426
0
LINE
8
BLACK
6
CONTINUOUS
10
0.710157
20
0.317426
11
0.707144
21
0.318025
0
LINE
8
BLACK
6
CONTINUOUS
10
0.707144
20
0.318025
11
0.70459
21
0.319732
0
LINE
8
BLACK
6
CONTINUOUS
10
0.70459
20
0.319732
11
0.702883
21
0.322287
0
LINE
8
BLACK
6
CONTINUOUS
10
0.702883
20
0.322287
11
0.702283
21
0.3253
0
LINE
8
BLACK
6
CONTINUOUS
10
0.702283
20
0.3253
11
0.702283
21
0.3647
0
LINE
8
BLACK
6
CONTINUOUS
10
0.702283
20
0.3647
11
0.702883
21
0.367713
0
LINE
8
BLACK
6
CONTINUOUS
10
0.702883
20
0.367713
11
0.70459
21
0.370268
0
LINE
8
BLACK
6
CONTINUOUS
10
0.70459
20
0.370268
11
0.707144
21
0.371975
0
LINE
8
BLACK
6
CONTINUOUS
10
0.707144
20
0.371975
11
0.710157
21
0.372574
0
LINE
8
BLACK
6
CONTINUOUS
10
0.710157
20
0.372574
11
0.729843
21
0.372574
0
LINE
8
BLACK
6
CONTINUOUS
10
0.729843
20
0.372574
11
0.732856
21
0.371975
0
LINE
8
BLACK
6
CONTINUOUS
10
0.770356
20
0.371975
11
0.77291
21
0.370268
0
LINE
8
BLACK
6
CONTINUOUS
10
0.77291
20
0.370268
11
0.774617
21
0.367713
0
LINE
8
BLACK
6
CONTINUOUS
10
0.774617
20
0.367713
11
0.775217
21
0.3647
0
LINE
8
BLACK
6
CONTINUOUS
10
0.775217
20
0.3647
11
0.775217
21
0.3253
0
LINE
8
BLACK
6
CONTINUOUS
10
0.775217
20
0.3253
11
0.774617
21
0.322287
0
LINE
8
BLACK
6
CONTINUOUS
10
0.774617
20
0.322287
11
0.77291
21
0.319732
0
LINE
8
BLACK
6
CONTINUOUS
10
0.77291
20
0.319732
11
0.770356
21
0.318025
0
LINE
8
BLACK
6
CONTINUOUS
10
0.770356
20
0.318025
11
0.767343
21
0.317426
0
LINE
8
BLACK
6
CONTINUOUS
10
0.767343
20
0.317426
11
0.747657
21
0.317426
0
LINE
8
BLACK
6
CONTINUOUS
10
0.747657
20
0.317426
11
0.744644
21
0.318025
0
LINE
8
BLACK
6
CONTINUOUS
10
0.744644
20
0.318025
11
0.74209
21
0.319732
0
LINE
8
BLACK
6
CONTINUOUS
10
0.74209
20
0.319732
11
0.740383
21
0.322287
0
LINE
8
BLACK
6
CONTINUOUS
10
0.740383
20
0.322287
11
0.739783
21
0.3253
0
LINE
8
BLACK
6
CONTINUOUS
10
0.739783
20
0.3253
11
0.739783
21
0.3647
0
LINE
8
BLACK
6
CONTINUOUS
10
0.739783
20
0.3647
11
0.740383
21
0.367713
0
LINE
8
BLACK
6
CONTINUOUS
10
0.740383
20
0.367713
11
0.74209
21
0.370268
0
LINE
8
BLACK
6
CONTINUOUS
10
0.74209
20
0.370268
11
0.744644
21
0.371975
0
LINE
8
BLACK
6
CONTINUOUS
10
0.744644
20
0.371975
11
0.747657
21
0.372574
0
LINE
8
BLACK
6
CONTINUOUS
10
0.747657
20
0.372574
11
0.767343
21
0.372574
0
LINE
8
BLACK
6
CONTINUOUS
10
0.767343
20
0.372574
11
0.770356
21
0.371975
0
LINE
8
BLACK
6
CONTINUOUS
10
1.61201
20
0.401275
11
1.61457
21
0.399568
0
LINE
8
BLACK
6
CONTINUOUS
10
1.61457
20
0.399568
11
1.61627
21
0.397013
0
LINE
8
BLACK
6
CONTINUOUS
10
1.61627
20
0.397013
11
1.61687
21
0.394
0
LINE
8
BLACK
6
CONTINUOUS
10
1.61687
20
0.394
11
1.61687
21
0.334
0
LINE
8
BLACK
6
CONTINUOUS
10
1.61687
20
0.334
11
1.61627
21
0.330987
0
LINE
8
BLACK
6
CONTINUOUS
10
1.61627
20
0.330987
11
1.61457
21
0.328432
0
LINE
8
BLACK
6
CONTINUOUS
10
1.61457
20
0.328432
11
1.61201
21
0.326725
0
LINE
8
BLACK
6
CONTINUOUS
10
1.61201
20
0.326725
11
1.609
21
0.326126
0
LINE
8
BLACK
6
CONTINUOUS
10
1.609
20
0.326126
11
1.549
21
0.326126
0
LINE
8
BLACK
6
CONTINUOUS
10
1.549
20
0.326126
11
1.54599
21
0.326725
0
LINE
8
BLACK
6
CONTINUOUS
10
1.54599
20
0.326725
11
1.54343
21
0.328432
0
LINE
8
BLACK
6
CONTINUOUS
10
1.54343
20
0.328432
11
1.54173
21
0.330987
0
LINE
8
BLACK
6
CONTINUOUS
10
1.54173
20
0.330987
11
1.54113
21
0.334
0
LINE
8
BLACK
6
CONTINUOUS
10
1.54113
20
0.334
11
1.54113
21
0.394
0
LINE
8
BLACK
6
CONTINUOUS
10
1.54113
20
0.394
11
1.54173
21
0.397013
0
LINE
8
BLACK
6
CONTINUOUS
10
1.54173
20
0.397013
11
1.54343
21
0.399568
0
LINE
8
BLACK
6
CONTINUOUS
10
1.54343
20
0.399568
11
1.54599
21
0.401275
0
LINE
8
BLACK
6
CONTINUOUS
10
1.54599
20
0.401275
11
1.549
21
0.401874
0
LINE
8
BLACK
6
CONTINUOUS
10
1.549
20
0.401874
11
1.609
21
0.401874
0
LINE
8
BLACK
6
CONTINUOUS
10
1.609
20
0.401874
11
1.61201
21
0.401275
0
LINE
8
BLACK
6
CONTINUOUS
10
1.71201
20
0.401275
11
1.71457
21
0.399568
0
LINE
8
BLACK
6
CONTINUOUS
10
1.71457
20
0.399568
11
1.71627
21
0.397013
0
LINE
8
BLACK
6
CONTINUOUS
10
1.71627
20
0.397013
11
1.71687
21
0.394
0
LINE
8
BLACK
6
CONTINUOUS
10
1.71687
20
0.394
11
1.71687
21
0.334
0
LINE
8
BLACK
6
CONTINUOUS
10
1.71687
20
0.334
11
1.71627
21
0.330987
0
LINE
8
BLACK
6
CONTINUOUS
10
1.71627
20
0.330987
11
1.71457
21
0.328432
0
LINE
8
BLACK
6
CONTINUOUS
10
1.71457
20
0.328432
11
1.71201
21
0.326725
0
LINE
8
BLACK
6
CONTINUOUS
10
1.71201
20
0.326725
11
1.709
21
0.326126
0
LINE
8
BLACK
6
CONTINUOUS
10
1.709
20
0.326126
11
1.649
21
0.326126
0
LINE
8
BLACK
6
CONTINUOUS
10
1.649
20
0.326126
11
1.64599
21
0.326725
0
LINE
8
BLACK
6
CONTINUOUS
10
1.64599
20
0.326725
11
1.64343
21
0.328432
0
LINE
8
BLACK
6
CONTINUOUS
10
1.64343
20
0.328432
11
1.64173
21
0.330987
0
LINE
8
BLACK
6
CONTINUOUS
10
1.64173
20
0.330987
11
1.64113
21
0.334
0
LINE
8
BLACK
6
CONTINUOUS
10
1.64113
20
0.334
11
1.64113
21
0.394
0
LINE
8
BLACK
6
CONTINUOUS
10
1.64113
20
0.394
11
1.64173
21
0.397013
0
LINE
8
BLACK
6
CONTINUOUS
10
1.64173
20
0.397013
11
1.64343
21
0.399568
0
LINE
8
BLACK
6
CONTINUOUS
10
1.64343
20
0.399568
11
1.64599
21
0.401275
0
LINE
8
BLACK
6
CONTINUOUS
10
1.64599
20
0.401275
11
1.649
21
0.401874
0
LINE
8
BLACK
6
CONTINUOUS
10
1.649
20
0.401874
11
1.709
21
0.401874
0
LINE
8
BLACK
6
CONTINUOUS
10
1.709
20
0.401874
11
1.71201
21
0.401275
0
LINE
8
BLACK
6
CONTINUOUS
10
0.210183
20
0.397821
11
0.215168
21
0.396077
0
LINE
8
BLACK
6
CONTINUOUS
10
0.215168
20
0.396077
11
0.219417
21
0.392941
0
LINE
8
BLACK
6
CONTINUOUS
10
0.219417
20
0.392941
11
0.222553
21
0.388692
0
LINE
8
BLACK
6
CONTINUOUS
10
0.222553
20
0.388692
11
0.224297
21
0.383707
0
LINE
8
BLACK
6
CONTINUOUS
10
0.224297
20
0.383707
11
0.224606
21
0.380413
0
LINE
8
BLACK
6
CONTINUOUS
10
0.224606
20
0.380413
11
0.224606
21
0.34498
0
LINE
8
BLACK
6
CONTINUOUS
10
0.224606
20
0.34498
11
0.224297
21
0.341687
0
LINE
8
BLACK
6
CONTINUOUS
10
0.224297
20
0.341687
11
0.222553
21
0.336702
0
LINE
8
BLACK
6
CONTINUOUS
10
0.222553
20
0.336702
11
0.219417
21
0.332453
0
LINE
8
BLACK
6
CONTINUOUS
10
0.219417
20
0.332453
11
0.215168
21
0.329317
0
LINE
8
BLACK
6
CONTINUOUS
10
0.215168
20
0.329317
11
0.210183
21
0.327573
0
LINE
8
BLACK
6
CONTINUOUS
10
0.210183
20
0.327573
11
0.20689
21
0.327264
0
LINE
8
BLACK
6
CONTINUOUS
10
0.20689
20
0.327264
11
0.18622
21
0.327264
0
LINE
8
BLACK
6
CONTINUOUS
10
0.18622
20
0.327264
11
0.182927
21
0.327573
0
LINE
8
BLACK
6
CONTINUOUS
10
0.182927
20
0.327573
11
0.177942
21
0.329317
0
LINE
8
BLACK
6
CONTINUOUS
10
0.177942
20
0.329317
11
0.173693
21
0.332453
0
LINE
8
BLACK
6
CONTINUOUS
10
0.173693
20
0.332453
11
0.170557
21
0.336702
0
LINE
8
BLACK
6
CONTINUOUS
10
0.170557
20
0.336702
11
0.168813
21
0.341687
0
LINE
8
BLACK
6
CONTINUOUS
10
0.168813
20
0.341687
11
0.168504
21
0.34498
0
LINE
8
BLACK
6
CONTINUOUS
10
0.168504
20
0.34498
11
0.168504
21
0.380413
0
LINE
8
BLACK
6
CONTINUOUS
10
0.168504
20
0.380413
11
0.168813
21
0.383707
0
LINE
8
BLACK
6
CONTINUOUS
10
0.168813
20
0.383707
11
0.170557
21
0.388692
0
LINE
8
BLACK
6
CONTINUOUS
10
0.170557
20
0.388692
11
0.173693
21
0.392941
0
LINE
8
BLACK
6
CONTINUOUS
10
0.173693
20
0.392941
11
0.177942
21
0.396077
0
LINE
8
BLACK
6
CONTINUOUS
10
0.177942
20
0.396077
11
0.182927
21
0.397821
0
LINE
8
BLACK
6
CONTINUOUS
10
0.182927
20
0.397821
11
0.18622
21
0.39813
0
LINE
8
BLACK
6
CONTINUOUS
10
0.18622
20
0.39813
11
0.20689
21
0.39813
0
LINE
8
BLACK
6
CONTINUOUS
10
0.20689
20
0.39813
11
0.210183
21
0.397821
0
LINE
8
BLACK
6
CONTINUOUS
10
0.282034
20
0.397821
11
0.287019
21
0.396077
0
LINE
8
BLACK
6
CONTINUOUS
10
0.287019
20
0.396077
11
0.291268
21
0.392941
0
LINE
8
BLACK
6
CONTINUOUS
10
0.291268
20
0.392941
11
0.294404
21
0.388692
0
LINE
8
BLACK
6
CONTINUOUS
10
0.294404
20
0.388692
11
0.296148
21
0.383707
0
LINE
8
BLACK
6
CONTINUOUS
10
0.296148
20
0.383707
11
0.296457
21
0.380413
0
LINE
8
BLACK
6
CONTINUOUS
10
0.296457
20
0.380413
11
0.296457
21
0.34498
0
LINE
8
BLACK
6
CONTINUOUS
10
0.296457
20
0.34498
11
0.296148
21
0.341687
0
LINE
8
BLACK
6
CONTINUOUS
10
0.296148
20
0.341687
11
0.294404
21
0.336702
0
LINE
8
BLACK
6
CONTINUOUS
10
0.294404
20
0.336702
11
0.291268
21
0.332453
0
LINE
8
BLACK
6
CONTINUOUS
10
0.291268
20
0.332453
11
0.287019
21
0.329317
0
LINE
8
BLACK
6
CONTINUOUS
10
0.287019
20
0.329317
11
0.282034
21
0.327573
0
LINE
8
BLACK
6
CONTINUOUS
10
0.282034
20
0.327573
11
0.27874
21
0.327264
0
LINE
8
BLACK
6
CONTINUOUS
10
0.27874
20
0.327264
11
0.258071
21
0.327264
0
LINE
8
BLACK
6
CONTINUOUS
10
0.258071
20
0.327264
11
0.254777
21
0.327573
0
LINE
8
BLACK
6
CONTINUOUS
10
0.254777
20
0.327573
11
0.249792
21
0.329317
0
LINE
8
BLACK
6
CONTINUOUS
10
0.249792
20
0.329317
11
0.245543
21
0.332453
0
LINE
8
BLACK
6
CONTINUOUS
10
0.245543
20
0.332453
11
0.242407
21
0.336702
0
LINE
8
BLACK
6
CONTINUOUS
10
0.242407
20
0.336702
11
0.240663
21
0.341687
0
LINE
8
BLACK
6
CONTINUOUS
10
0.240663
20
0.341687
11
0.240354
21
0.34498
0
LINE
8
BLACK
6
CONTINUOUS
10
0.240354
20
0.34498
11
0.240354
21
0.380413
0
LINE
8
BLACK
6
CONTINUOUS
10
0.240354
20
0.380413
11
0.240663
21
0.383707
0
LINE
8
BLACK
6
CONTINUOUS
10
0.240663
20
0.383707
11
0.242407
21
0.388692
0
LINE
8
BLACK
6
CONTINUOUS
10
0.242407
20
0.388692
11
0.245543
21
0.392941
0
LINE
8
BLACK
6
CONTINUOUS
10
0.245543
20
0.392941
11
0.249792
21
0.396077
0
LINE
8
BLACK
6
CONTINUOUS
10
0.249792
20
0.396077
11
0.254777
21
0.397821
0
LINE
8
BLACK
6
CONTINUOUS
10
0.254777
20
0.397821
11
0.258071
21
0.39813
0
LINE
8
BLACK
6
CONTINUOUS
10
0.258071
20
0.39813
11
0.27874
21
0.39813
0
LINE
8
BLACK
6
CONTINUOUS
10
0.27874
20
0.39813
11
0.282034
21
0.397821
0
LINE
8
BLACK
6
CONTINUOUS
10
0.408013
20
0.412275
11
0.410568
21
0.410568
0
LINE
8
BLACK
6
CONTINUOUS
10
0.410568
20
0.410568
11
0.412275
21
0.408013
0
LINE
8
BLACK
6
CONTINUOUS
10
0.412275
20
0.408013
11
0.412874
21
0.405
0
LINE
8
BLACK
6
CONTINUOUS
10
0.412874
20
0.405
11
0.412874
21
0.345
0
LINE
8
BLACK
6
CONTINUOUS
10
0.412874
20
0.345
11
0.412275
21
0.341987
0
LINE
8
BLACK
6
CONTINUOUS
10
0.412275
20
0.341987
11
0.410568
21
0.339432
0
LINE
8
BLACK
6
CONTINUOUS
10
0.410568
20
0.339432
11
0.408013
21
0.337725
0
LINE
8
BLACK
6
CONTINUOUS
10
0.408013
20
0.337725
11
0.405
21
0.337126
0
LINE
8
BLACK
6
CONTINUOUS
10
0.405
20
0.337126
11
0.345
21
0.337126
0
LINE
8
BLACK
6
CONTINUOUS
10
0.345
20
0.337126
11
0.341987
21
0.337725
0
LINE
8
BLACK
6
CONTINUOUS
10
0.341987
20
0.337725
11
0.339432
21
0.339432
0
LINE
8
BLACK
6
CONTINUOUS
10
0.339432
20
0.339432
11
0.337725
21
0.341987
0
LINE
8
BLACK
6
CONTINUOUS
10
0.337725
20
0.341987
11
0.337126
21
0.345
0
LINE
8
BLACK
6
CONTINUOUS
10
0.337126
20
0.345
11
0.337126
21
0.405
0
LINE
8
BLACK
6
CONTINUOUS
10
0.337126
20
0.405
11
0.337725
21
0.408013
0
LINE
8
BLACK
6
CONTINUOUS
10
0.337725
20
0.408013
11
0.339432
21
0.410568
0
LINE
8
BLACK
6
CONTINUOUS
10
0.339432
20
0.410568
11
0.341987
21
0.412275
0
LINE
8
BLACK
6
CONTINUOUS
10
0.341987
20
0.412275
11
0.345
21
0.412874
0
LINE
8
BLACK
6
CONTINUOUS
10
0.345
20
0.412874
11
0.405
21
0.412874
0
LINE
8
BLACK
6
CONTINUOUS
10
0.405
20
0.412874
11
0.408013
21
0.412275
0
LINE
8
BLACK
6
CONTINUOUS
10
0.508013
20
0.412275
11
0.510568
21
0.410568
0
LINE
8
BLACK
6
CONTINUOUS
10
0.510568
20
0.410568
11
0.512275
21
0.408013
0
LINE
8
BLACK
6
CONTINUOUS
10
0.512275
20
0.408013
11
0.512874
21
0.405
0
LINE
8
BLACK
6
CONTINUOUS
10
0.512874
20
0.405
11
0.512874
21
0.345
0
LINE
8
BLACK
6
CONTINUOUS
10
0.512874
20
0.345
11
0.512275
21
0.341987
0
LINE
8
BLACK
6
CONTINUOUS
10
0.512275
20
0.341987
11
0.510568
21
0.339432
0
LINE
8
BLACK
6
CONTINUOUS
10
0.510568
20
0.339432
11
0.508013
21
0.337725
0
LINE
8
BLACK
6
CONTINUOUS
10
0.508013
20
0.337725
11
0.505
21
0.337126
0
LINE
8
BLACK
6
CONTINUOUS
10
0.505
20
0.337126
11
0.445
21
0.337126
0
LINE
8
BLACK
6
CONTINUOUS
10
0.445
20
0.337126
11
0.441987
21
0.337725
0
LINE
8
BLACK
6
CONTINUOUS
10
0.441987
20
0.337725
11
0.439432
21
0.339432
0
LINE
8
BLACK
6
CONTINUOUS
10
0.439432
20
0.339432
11
0.437725
21
0.341987
0
LINE
8
BLACK
6
CONTINUOUS
10
0.437725
20
0.341987
11
0.437126
21
0.345
0
LINE
8
BLACK
6
CONTINUOUS
10
0.437126
20
0.345
11
0.437126
21
0.405
0
LINE
8
BLACK
6
CONTINUOUS
10
0.437126
20
0.405
11
0.437725
21
0.408013
0
LINE
8
BLACK
6
CONTINUOUS
10
0.437725
20
0.408013
11
0.439432
21
0.410568
0
LINE
8
BLACK
6
CONTINUOUS
10
0.439432
20
0.410568
11
0.441987
21
0.412275
0
LINE
8
BLACK
6
CONTINUOUS
10
0.441987
20
0.412275
11
0.445
21
0.412874
0
LINE
8
BLACK
6
CONTINUOUS
10
0.445
20
0.412874
11
0.505
21
0.412874
0
LINE
8
BLACK
6
CONTINUOUS
10
0.505
20
0.412874
11
0.508013
21
0.412275
0
LINE
8
BLACK
6
CONTINUOUS
10
0.608013
20
0.412275
11
0.610568
21
0.410568
0
LINE
8
BLACK
6
CONTINUOUS
10
0.610568
20
0.410568
11
0.612275
21
0.408013
0
LINE
8
BLACK
6
CONTINUOUS
10
0.612275
20
0.408013
11
0.612874
21
0.405
0
LINE
8
BLACK
6
CONTINUOUS
10
0.612874
20
0.405
11
0.612874
21
0.345
0
LINE
8
BLACK
6
CONTINUOUS
10
0.612874
20
0.345
11
0.612275
21
0.341987
0
LINE
8
BLACK
6
CONTINUOUS
10
0.612275
20
0.341987
11
0.610568
21
0.339432
0
LINE
8
BLACK
6
CONTINUOUS
10
0.610568
20
0.339432
11
0.608013
21
0.337725
0
LINE
8
BLACK
6
CONTINUOUS
10
0.608013
20
0.337725
11
0.605
21
0.337126
0
LINE
8
BLACK
6
CONTINUOUS
10
0.605
20
0.337126
11
0.545
21
0.337126
0
LINE
8
BLACK
6
CONTINUOUS
10
0.545
20
0.337126
11
0.541987
21
0.337725
0
LINE
8
BLACK
6
CONTINUOUS
10
0.541987
20
0.337725
11
0.539432
21
0.339432
0
LINE
8
BLACK
6
CONTINUOUS
10
0.539432
20
0.339432
11
0.537725
21
0.341987
0
LINE
8
BLACK
6
CONTINUOUS
10
0.537725
20
0.341987
11
0.537126
21
0.345
0
LINE
8
BLACK
6
CONTINUOUS
10
0.537126
20
0.345
11
0.537126
21
0.405
0
LINE
8
BLACK
6
CONTINUOUS
10
0.537126
20
0.405
11
0.537725
21
0.408013
0
LINE
8
BLACK
6
CONTINUOUS
10
0.537725
20
0.408013
11
0.539432
21
0.410568
0
LINE
8
BLACK
6
CONTINUOUS
10
0.539432
20
0.410568
11
0.541987
21
0.412275
0
LINE
8
BLACK
6
CONTINUOUS
10
0.541987
20
0.412275
11
0.545
21
0.412874
0
LINE
8
BLACK
6
CONTINUOUS
10
0.545
20
0.412874
11
0.605
21
0.412874
0
LINE
8
BLACK
6
CONTINUOUS
10
0.605
20
0.412874
11
0.608013
21
0.412275
0
LINE
8
BLACK
6
CONTINUOUS
10
1.41101
20
0.403668
11
1.41599
21
0.401923
0
LINE
8
BLACK
6
CONTINUOUS
10
1.41599
20
0.401923
11
1.42024
21
0.398787
0
LINE
8
BLACK
6
CONTINUOUS
10
1.42024
20
0.398787
11
1.42338
21
0.394538
0
LINE
8
BLACK
6
CONTINUOUS
10
1.42338
20
0.394538
11
1.42512
21
0.389554
0
LINE
8
BLACK
6
CONTINUOUS
10
1.42512
20
0.389554
11
1.42543
21
0.38626
0
LINE
8
BLACK
6
CONTINUOUS
10
1.42543
20
0.38626
11
1.42543
21
0.365591
0
LINE
8
BLACK
6
CONTINUOUS
10
1.42543
20
0.365591
11
1.42512
21
0.362297
0
LINE
8
BLACK
6
CONTINUOUS
10
1.42512
20
0.362297
11
1.42338
21
0.357312
0
LINE
8
BLACK
6
CONTINUOUS
10
1.42338
20
0.357312
11
1.42024
21
0.353063
0
LINE
8
BLACK
6
CONTINUOUS
10
1.42024
20
0.353063
11
1.41599
21
0.349927
0
LINE
8
BLACK
6
CONTINUOUS
10
1.41599
20
0.349927
11
1.41101
21
0.348183
0
LINE
8
BLACK
6
CONTINUOUS
10
1.41101
20
0.348183
11
1.40772
21
0.347874
0
LINE
8
BLACK
6
CONTINUOUS
10
1.40772
20
0.347874
11
1.37228
21
0.347874
0
LINE
8
BLACK
6
CONTINUOUS
10
1.37228
20
0.347874
11
1.36899
21
0.348183
0
LINE
8
BLACK
6
CONTINUOUS
10
1.36899
20
0.348183
11
1.36401
21
0.349927
0
LINE
8
BLACK
6
CONTINUOUS
10
1.36401
20
0.349927
11
1.35976
21
0.353063
0
LINE
8
BLACK
6
CONTINUOUS
10
1.35976
20
0.353063
11
1.35662
21
0.357312
0
LINE
8
BLACK
6
CONTINUOUS
10
1.35662
20
0.357312
11
1.35488
21
0.362297
0
LINE
8
BLACK
6
CONTINUOUS
10
1.35488
20
0.362297
11
1.35457
21
0.365591
0
LINE
8
BLACK
6
CONTINUOUS
10
1.35457
20
0.365591
11
1.35457
21
0.38626
0
LINE
8
BLACK
6
CONTINUOUS
10
1.35457
20
0.38626
11
1.35488
21
0.389554
0
LINE
8
BLACK
6
CONTINUOUS
10
1.35488
20
0.389554
11
1.35662
21
0.394538
0
LINE
8
BLACK
6
CONTINUOUS
10
1.35662
20
0.394538
11
1.35976
21
0.398787
0
LINE
8
BLACK
6
CONTINUOUS
10
1.35976
20
0.398787
11
1.36401
21
0.401923
0
LINE
8
BLACK
6
CONTINUOUS
10
1.36401
20
0.401923
11
1.36899
21
0.403668
0
LINE
8
BLACK
6
CONTINUOUS
10
1.36899
20
0.403668
11
1.37228
21
0.403976
0
LINE
8
BLACK
6
CONTINUOUS
10
1.37228
20
0.403976
11
1.40772
21
0.403976
0
LINE
8
BLACK
6
CONTINUOUS
10
1.40772
20
0.403976
11
1.41101
21
0.403668
0
LINE
8
BLACK
6
CONTINUOUS
10
1.50199
20
0.404652
11
1.50698
21
0.402908
0
LINE
8
BLACK
6
CONTINUOUS
10
1.50698
20
0.402908
11
1.51123
21
0.399772
0
LINE
8
BLACK
6
CONTINUOUS
10
1.51123
20
0.399772
11
1.51436
21
0.395522
0
LINE
8
BLACK
6
CONTINUOUS
10
1.51436
20
0.395522
11
1.51611
21
0.390538
0
LINE
8
BLACK
6
CONTINUOUS
10
1.51611
20
0.390538
11
1.51642
21
0.387244
0
LINE
8
BLACK
6
CONTINUOUS
10
1.51642
20
0.387244
11
1.51642
21
0.367559
0
LINE
8
BLACK
6
CONTINUOUS
10
1.51642
20
0.367559
11
1.51611
21
0.364265
0
LINE
8
BLACK
6
CONTINUOUS
10
1.51611
20
0.364265
11
1.51436
21
0.359281
0
LINE
8
BLACK
6
CONTINUOUS
10
1.51436
20
0.359281
11
1.51123
21
0.355032
0
LINE
8
BLACK
6
CONTINUOUS
10
1.51123
20
0.355032
11
1.50698
21
0.351896
0
LINE
8
BLACK
6
CONTINUOUS
10
1.50698
20
0.351896
11
1.50199
21
0.350151
0
LINE
8
BLACK
6
CONTINUOUS
10
1.50199
20
0.350151
11
1.4987
21
0.349843
0
LINE
8
BLACK
6
CONTINUOUS
10
1.4987
20
0.349843
11
1.4613
21
0.349843
0
LINE
8
BLACK
6
CONTINUOUS
10
1.4613
20
0.349843
11
1.45801
21
0.350151
0
LINE
8
BLACK
6
CONTINUOUS
10
1.45801
20
0.350151
11
1.45302
21
0.351896
0
LINE
8
BLACK
6
CONTINUOUS
10
1.45302
20
0.351896
11
1.44877
21
0.355032
0
LINE
8
BLACK
6
CONTINUOUS
10
1.44877
20
0.355032
11
1.44564
21
0.359281
0
LINE
8
BLACK
6
CONTINUOUS
10
1.44564
20
0.359281
11
1.44389
21
0.364265
0
LINE
8
BLACK
6
CONTINUOUS
10
1.44389
20
0.364265
11
1.44358
21
0.367559
0
LINE
8
BLACK
6
CONTINUOUS
10
1.44358
20
0.367559
11
1.44358
21
0.387244
0
LINE
8
BLACK
6
CONTINUOUS
10
1.44358
20
0.387244
11
1.44389
21
0.390538
0
LINE
8
BLACK
6
CONTINUOUS
10
1.44389
20
0.390538
11
1.44564
21
0.395522
0
LINE
8
BLACK
6
CONTINUOUS
10
1.44564
20
0.395522
11
1.44877
21
0.399772
0
LINE
8
BLACK
6
CONTINUOUS
10
1.44877
20
0.399772
11
1.45302
21
0.402908
0
LINE
8
BLACK
6
CONTINUOUS
10
1.45302
20
0.402908
11
1.45801
21
0.404652
0
LINE
8
BLACK
6
CONTINUOUS
10
1.45801
20
0.404652
11
1.4613
21
0.404961
0
LINE
8
BLACK
6
CONTINUOUS
10
1.4613
20
0.404961
11
1.4987
21
0.404961
0
LINE
8
BLACK
6
CONTINUOUS
10
1.4987
20
0.404961
11
1.50199
21
0.404652
0
LINE
8
BLACK
6
CONTINUOUS
10
0.846994
20
0.414849
11
0.851979
21
0.413104
0
LINE
8
BLACK
6
CONTINUOUS
10
0.851979
20
0.413104
11
0.856228
21
0.409968
0
LINE
8
BLACK
6
CONTINUOUS
10
0.856228
20
0.409968
11
0.859364
21
0.405719
0
LINE
8
BLACK
6
CONTINUOUS
10
0.859364
20
0.405719
11
0.861108
21
0.400735
0
LINE
8
BLACK
6
CONTINUOUS
10
0.861108
20
0.400735
11
0.861417
21
0.397441
0
LINE
8
BLACK
6
CONTINUOUS
10
0.861417
20
0.397441
11
0.861417
21
0.377756
0
LINE
8
BLACK
6
CONTINUOUS
10
0.861417
20
0.377756
11
0.861108
21
0.374462
0
LINE
8
BLACK
6
CONTINUOUS
10
0.861108
20
0.374462
11
0.859364
21
0.369478
0
LINE
8
BLACK
6
CONTINUOUS
10
0.859364
20
0.369478
11
0.856228
21
0.365228
0
LINE
8
BLACK
6
CONTINUOUS
10
0.856228
20
0.365228
11
0.851979
21
0.362092
0
LINE
8
BLACK
6
CONTINUOUS
10
0.851979
20
0.362092
11
0.846994
21
0.360348
0
LINE
8
BLACK
6
CONTINUOUS
10
0.846994
20
0.360348
11
0.843701
21
0.360039
0
LINE
8
BLACK
6
CONTINUOUS
10
0.843701
20
0.360039
11
0.806299
21
0.360039
0
LINE
8
BLACK
6
CONTINUOUS
10
0.806299
20
0.360039
11
0.803006
21
0.360348
0
LINE
8
BLACK
6
CONTINUOUS
10
0.803006
20
0.360348
11
0.798021
21
0.362092
0
LINE
8
BLACK
6
CONTINUOUS
10
0.798021
20
0.362092
11
0.793772
21
0.365228
0
LINE
8
BLACK
6
CONTINUOUS
10
0.793772
20
0.365228
11
0.790636
21
0.369478
0
LINE
8
BLACK
6
CONTINUOUS
10
0.790636
20
0.369478
11
0.788892
21
0.374462
0
LINE
8
BLACK
6
CONTINUOUS
10
0.788892
20
0.374462
11
0.788583
21
0.377756
0
LINE
8
BLACK
6
CONTINUOUS
10
0.788583
20
0.377756
11
0.788583
21
0.397441
0
LINE
8
BLACK
6
CONTINUOUS
10
0.788583
20
0.397441
11
0.788892
21
0.400735
0
LINE
8
BLACK
6
CONTINUOUS
10
0.788892
20
0.400735
11
0.790636
21
0.405719
0
LINE
8
BLACK
6
CONTINUOUS
10
0.790636
20
0.405719
11
0.793772
21
0.409968
0
LINE
8
BLACK
6
CONTINUOUS
10
0.793772
20
0.409968
11
0.798021
21
0.413104
0
LINE
8
BLACK
6
CONTINUOUS
10
0.798021
20
0.413104
11
0.803006
21
0.414849
0
LINE
8
BLACK
6
CONTINUOUS
10
0.803006
20
0.414849
11
0.806299
21
0.415157
0
LINE
8
BLACK
6
CONTINUOUS
10
0.806299
20
0.415157
11
0.843701
21
0.415157
0
LINE
8
BLACK
6
CONTINUOUS
10
0.843701
20
0.415157
11
0.846994
21
0.414849
0
LINE
8
BLACK
6
CONTINUOUS
10
0.946994
20
0.414849
11
0.951979
21
0.413104
0
LINE
8
BLACK
6
CONTINUOUS
10
0.951979
20
0.413104
11
0.956228
21
0.409968
0
LINE
8
BLACK
6
CONTINUOUS
10
0.956228
20
0.409968
11
0.959364
21
0.405719
0
LINE
8
BLACK
6
CONTINUOUS
10
0.959364
20
0.405719
11
0.961108
21
0.400735
0
LINE
8
BLACK
6
CONTINUOUS
10
0.961108
20
0.400735
11
0.961417
21
0.397441
0
LINE
8
BLACK
6
CONTINUOUS
10
0.961417
20
0.397441
11
0.961417
21
0.377756
0
LINE
8
BLACK
6
CONTINUOUS
10
0.961417
20
0.377756
11
0.961108
21
0.374462
0
LINE
8
BLACK
6
CONTINUOUS
10
0.961108
20
0.374462
11
0.959364
21
0.369478
0
LINE
8
BLACK
6
CONTINUOUS
10
0.959364
20
0.369478
11
0.956228
21
0.365228
0
LINE
8
BLACK
6
CONTINUOUS
10
0.956228
20
0.365228
11
0.951979
21
0.362092
0
LINE
8
BLACK
6
CONTINUOUS
10
0.951979
20
0.362092
11
0.946994
21
0.360348
0
LINE
8
BLACK
6
CONTINUOUS
10
0.946994
20
0.360348
11
0.943701
21
0.360039
0
LINE
8
BLACK
6
CONTINUOUS
10
0.943701
20
0.360039
11
0.906299
21
0.360039
0
LINE
8
BLACK
6
CONTINUOUS
10
0.906299
20
0.360039
11
0.903006
21
0.360348
0
LINE
8
BLACK
6
CONTINUOUS
10
0.903006
20
0.360348
11
0.898021
21
0.362092
0
LINE
8
BLACK
6
CONTINUOUS
10
0.898021
20
0.362092
11
0.893772
21
0.365228
0
LINE
8
BLACK
6
CONTINUOUS
10
0.893772
20
0.365228
11
0.890636
21
0.369478
0
LINE
8
BLACK
6
CONTINUOUS
10
0.890636
20
0.369478
11
0.888892
21
0.374462
0
LINE
8
BLACK
6
CONTINUOUS
10
0.888892
20
0.374462
11
0.888583
21
0.377756
0
LINE
8
BLACK
6
CONTINUOUS
10
0.888583
20
0.377756
11
0.888583
21
0.397441
0
LINE
8
BLACK
6
CONTINUOUS
10
0.888583
20
0.397441
11
0.888892
21
0.400735
0
LINE
8
BLACK
6
CONTINUOUS
10
0.888892
20
0.400735
11
0.890636
21
0.405719
0
LINE
8
BLACK
6
CONTINUOUS
10
0.890636
20
0.405719
11
0.893772
21
0.409968
0
LINE
8
BLACK
6
CONTINUOUS
10
0.893772
20
0.409968
11
0.898021
21
0.413104
0
LINE
8
BLACK
6
CONTINUOUS
10
0.898021
20
0.413104
11
0.903006
21
0.414849
0
LINE
8
BLACK
6
CONTINUOUS
10
0.903006
20
0.414849
11
0.906299
21
0.415157
0
LINE
8
BLACK
6
CONTINUOUS
10
0.906299
20
0.415157
11
0.943701
21
0.415157
0
LINE
8
BLACK
6
CONTINUOUS
10
0.943701
20
0.415157
11
0.946994
21
0.414849
0
LINE
8
BLACK
6
CONTINUOUS
10
1.28301
20
0.422817
11
1.28799
21
0.421073
0
LINE
8
BLACK
6
CONTINUOUS
10
1.28799
20
0.421073
11
1.29224
21
0.417937
0
LINE
8
BLACK
6
CONTINUOUS
10
1.29224
20
0.417937
11
1.29538
21
0.413688
0
LINE
8
BLACK
6
CONTINUOUS
10
1.29538
20
0.413688
11
1.29712
21
0.408703
0
LINE
8
BLACK
6
CONTINUOUS
10
1.29712
20
0.408703
11
1.29743
21
0.405409
0
LINE
8
BLACK
6
CONTINUOUS
10
1.29743
20
0.405409
11
1.29743
21
0.38474
0
LINE
8
BLACK
6
CONTINUOUS
10
1.29743
20
0.38474
11
1.29712
21
0.381446
0
LINE
8
BLACK
6
CONTINUOUS
10
1.29712
20
0.381446
11
1.29538
21
0.376462
0
LINE
8
BLACK
6
CONTINUOUS
10
1.29538
20
0.376462
11
1.29224
21
0.372213
0
LINE
8
BLACK
6
CONTINUOUS
10
1.29224
20
0.372213
11
1.28799
21
0.369077
0
LINE
8
BLACK
6
CONTINUOUS
10
1.28799
20
0.369077
11
1.28301
21
0.367332
0
LINE
8
BLACK
6
CONTINUOUS
10
1.28301
20
0.367332
11
1.27972
21
0.367024
0
LINE
8
BLACK
6
CONTINUOUS
10
1.27972
20
0.367024
11
1.24428
21
0.367024
0
LINE
8
BLACK
6
CONTINUOUS
10
1.24428
20
0.367024
11
1.24099
21
0.367332
0
LINE
8
BLACK
6
CONTINUOUS
10
1.24099
20
0.367332
11
1.23601
21
0.369077
0
LINE
8
BLACK
6
CONTINUOUS
10
1.23601
20
0.369077
11
1.23176
21
0.372213
0
LINE
8
BLACK
6
CONTINUOUS
10
1.23176
20
0.372213
11
1.22862
21
0.376462
0
LINE
8
BLACK
6
CONTINUOUS
10
1.22862
20
0.376462
11
1.22688
21
0.381446
0
LINE
8
BLACK
6
CONTINUOUS
10
1.22688
20
0.381446
11
1.22657
21
0.38474
0
LINE
8
BLACK
6
CONTINUOUS
10
1.22657
20
0.38474
11
1.22657
21
0.405409
0
LINE
8
BLACK
6
CONTINUOUS
10
1.22657
20
0.405409
11
1.22688
21
0.408703
0
LINE
8
BLACK
6
CONTINUOUS
10
1.22688
20
0.408703
11
1.22862
21
0.413688
0
LINE
8
BLACK
6
CONTINUOUS
10
1.22862
20
0.413688
11
1.23176
21
0.417937
0
LINE
8
BLACK
6
CONTINUOUS
10
1.23176
20
0.417937
11
1.23601
21
0.421073
0
LINE
8
BLACK
6
CONTINUOUS
10
1.23601
20
0.421073
11
1.24099
21
0.422817
0
LINE
8
BLACK
6
CONTINUOUS
10
1.24099
20
0.422817
11
1.24428
21
0.423126
0
LINE
8
BLACK
6
CONTINUOUS
10
1.24428
20
0.423126
11
1.27972
21
0.423126
0
LINE
8
BLACK
6
CONTINUOUS
10
1.27972
20
0.423126
11
1.28301
21
0.422817
0
LINE
8
BLACK
6
CONTINUOUS
10
1.03801
20
0.429775
11
1.04057
21
0.428068
0
LINE
8
BLACK
6
CONTINUOUS
10
1.04057
20
0.428068
11
1.04227
21
0.425513
0
LINE
8
BLACK
6
CONTINUOUS
10
1.04227
20
0.425513
11
1.04287
21
0.4225
0
LINE
8
BLACK
6
CONTINUOUS
10
1.04287
20
0.4225
11
1.04287
21
0.3775
0
LINE
8
BLACK
6
CONTINUOUS
10
1.04287
20
0.3775
11
1.04227
21
0.374487
0
LINE
8
BLACK
6
CONTINUOUS
10
1.04227
20
0.374487
11
1.04057
21
0.371932
0
LINE
8
BLACK
6
CONTINUOUS
10
1.04057
20
0.371932
11
1.03801
21
0.370225
0
LINE
8
BLACK
6
CONTINUOUS
10
1.03801
20
0.370225
11
1.035
21
0.369626
0
LINE
8
BLACK
6
CONTINUOUS
10
1.035
20
0.369626
11
1.015
21
0.369626
0
LINE
8
BLACK
6
CONTINUOUS
10
1.015
20
0.369626
11
1.01199
21
0.370225
0
LINE
8
BLACK
6
CONTINUOUS
10
1.01199
20
0.370225
11
1.00943
21
0.371932
0
LINE
8
BLACK
6
CONTINUOUS
10
1.00943
20
0.371932
11
1.00773
21
0.374487
0
LINE
8
BLACK
6
CONTINUOUS
10
1.00773
20
0.374487
11
1.00713
21
0.3775
0
LINE
8
BLACK
6
CONTINUOUS
10
1.00713
20
0.3775
11
1.00713
21
0.4225
0
LINE
8
BLACK
6
CONTINUOUS
10
1.00713
20
0.4225
11
1.00773
21
0.425513
0
LINE
8
BLACK
6
CONTINUOUS
10
1.00773
20
0.425513
11
1.00943
21
0.428068
0
LINE
8
BLACK
6
CONTINUOUS
10
1.00943
20
0.428068
11
1.01199
21
0.429775
0
LINE
8
BLACK
6
CONTINUOUS
10
1.01199
20
0.429775
11
1.015
21
0.430374
0
LINE
8
BLACK
6
CONTINUOUS
10
1.015
20
0.430374
11
1.035
21
0.430374
0
LINE
8
BLACK
6
CONTINUOUS
10
1.035
20
0.430374
11
1.03801
21
0.429775
0
LINE
8
BLACK
6
CONTINUOUS
10
1.08801
20
0.429775
11
1.09057
21
0.428068
0
LINE
8
BLACK
6
CONTINUOUS
10
1.09057
20
0.428068
11
1.09227
21
0.425513
0
LINE
8
BLACK
6
CONTINUOUS
10
1.09227
20
0.425513
11
1.09287
21
0.4225
0
LINE
8
BLACK
6
CONTINUOUS
10
1.09287
20
0.4225
11
1.09287
21
0.3775
0
LINE
8
BLACK
6
CONTINUOUS
10
1.09287
20
0.3775
11
1.09227
21
0.374487
0
LINE
8
BLACK
6
CONTINUOUS
10
1.09227
20
0.374487
11
1.09057
21
0.371932
0
LINE
8
BLACK
6
CONTINUOUS
10
1.09057
20
0.371932
11
1.08801
21
0.370225
0
LINE
8
BLACK
6
CONTINUOUS
10
1.08801
20
0.370225
11
1.085
21
0.369626
0
LINE
8
BLACK
6
CONTINUOUS
10
1.085
20
0.369626
11
1.065
21
0.369626
0
LINE
8
BLACK
6
CONTINUOUS
10
1.065
20
0.369626
11
1.06199
21
0.370225
0
LINE
8
BLACK
6
CONTINUOUS
10
1.06199
20
0.370225
11
1.05943
21
0.371932
0
LINE
8
BLACK
6
CONTINUOUS
10
1.05943
20
0.371932
11
1.05773
21
0.374487
0
LINE
8
BLACK
6
CONTINUOUS
10
1.05773
20
0.374487
11
1.05713
21
0.3775
0
LINE
8
BLACK
6
CONTINUOUS
10
1.05713
20
0.3775
11
1.05713
21
0.4225
0
LINE
8
BLACK
6
CONTINUOUS
10
1.05713
20
0.4225
11
1.05773
21
0.425513
0
LINE
8
BLACK
6
CONTINUOUS
10
1.05773
20
0.425513
11
1.05943
21
0.428068
0
LINE
8
BLACK
6
CONTINUOUS
10
1.05943
20
0.428068
11
1.06199
21
0.429775
0
LINE
8
BLACK
6
CONTINUOUS
10
1.06199
20
0.429775
11
1.065
21
0.430374
0
LINE
8
BLACK
6
CONTINUOUS
10
1.065
20
0.430374
11
1.085
21
0.430374
0
LINE
8
BLACK
6
CONTINUOUS
10
1.085
20
0.430374
11
1.08801
21
0.429775
0
LINE
8
BLACK
6
CONTINUOUS
10
1.13801
20
0.429775
11
1.14057
21
0.428068
0
LINE
8
BLACK
6
CONTINUOUS
10
1.14057
20
0.428068
11
1.14227
21
0.425513
0
LINE
8
BLACK
6
CONTINUOUS
10
1.14227
20
0.425513
11
1.14287
21
0.4225
0
LINE
8
BLACK
6
CONTINUOUS
10
1.14287
20
0.4225
11
1.14287
21
0.3775
0
LINE
8
BLACK
6
CONTINUOUS
10
1.14287
20
0.3775
11
1.14227
21
0.374487
0
LINE
8
BLACK
6
CONTINUOUS
10
1.14227
20
0.374487
11
1.14057
21
0.371932
0
LINE
8
BLACK
6
CONTINUOUS
10
1.14057
20
0.371932
11
1.13801
21
0.370225
0
LINE
8
BLACK
6
CONTINUOUS
10
1.13801
20
0.370225
11
1.135
21
0.369626
0
LINE
8
BLACK
6
CONTINUOUS
10
1.135
20
0.369626
11
1.115
21
0.369626
0
LINE
8
BLACK
6
CONTINUOUS
10
1.115
20
0.369626
11
1.11199
21
0.370225
0
LINE
8
BLACK
6
CONTINUOUS
10
1.11199
20
0.370225
11
1.10943
21
0.371932
0
LINE
8
BLACK
6
CONTINUOUS
10
1.10943
20
0.371932
11
1.10773
21
0.374487
0
LINE
8
BLACK
6
CONTINUOUS
10
1.10773
20
0.374487
11
1.10713
21
0.3775
0
LINE
8
BLACK
6
CONTINUOUS
10
1.10713
20
0.3775
11
1.10713
21
0.4225
0
LINE
8
BLACK
6
CONTINUOUS
10
1.10713
20
0.4225
11
1.10773
21
0.425513
0
LINE
8
BLACK
6
CONTINUOUS
10
1.10773
20
0.425513
11
1.10943
21
0.428068
0
LINE
8
BLACK
6
CONTINUOUS
10
1.10943
20
0.428068
11
1.11199
21
0.429775
0
LINE
8
BLACK
6
CONTINUOUS
10
1.11199
20
0.429775
11
1.115
21
0.430374
0
LINE
8
BLACK
6
CONTINUOUS
10
1.115
20
0.430374
11
1.135
21
0.430374
0
LINE
8
BLACK
6
CONTINUOUS
10
1.135
20
0.430374
11
1.13801
21
0.429775
0
LINE
8
BLACK
6
CONTINUOUS
10
1.18801
20
0.429775
11
1.19057
21
0.428068
0
LINE
8
BLACK
6
CONTINUOUS
10
1.19057
20
0.428068
11
1.19227
21
0.425513
0
LINE
8
BLACK
6
CONTINUOUS
10
1.19227
20
0.425513
11
1.19287
21
0.4225
0
LINE
8
BLACK
6
CONTINUOUS
10
1.19287
20
0.4225
11
1.19287
21
0.3775
0
LINE
8
BLACK
6
CONTINUOUS
10
1.19287
20
0.3775
11
1.19227
21
0.374487
0
LINE
8
BLACK
6
CONTINUOUS
10
1.19227
20
0.374487
11
1.19057
21
0.371932
0
LINE
8
BLACK
6
CONTINUOUS
10
1.19057
20
0.371932
11
1.18801
21
0.370225
0
LINE
8
BLACK
6
CONTINUOUS
10
1.18801
20
0.370225
11
1.185
21
0.369626
0
LINE
8
BLACK
6
CONTINUOUS
10
1.185
20
0.369626
11
1.165
21
0.369626
0
LINE
8
BLACK
6
CONTINUOUS
10
1.165
20
0.369626
11
1.16199
21
0.370225
0
LINE
8
BLACK
6
CONTINUOUS
10
1.16199
20
0.370225
11
1.15943
21
0.371932
0
LINE
8
BLACK
6
CONTINUOUS
10
1.15943
20
0.371932
11
1.15773
21
0.374487
0
LINE
8
BLACK
6
CONTINUOUS
10
1.15773
20
0.374487
11
1.15713
21
0.3775
0
LINE
8
BLACK
6
CONTINUOUS
10
1.15713
20
0.3775
11
1.15713
21
0.4225
0
LINE
8
BLACK
6
CONTINUOUS
10
1.15713
20
0.4225
11
1.15773
21
0.425513
0
LINE
8
BLACK
6
CONTINUOUS
10
1.15773
20
0.425513
11
1.15943
21
0.428068
0
LINE
8
BLACK
6
CONTINUOUS
10
1.15943
20
0.428068
11
1.16199
21
0.429775
0
LINE
8
BLACK
6
CONTINUOUS
10
1.16199
20
0.429775
11
1.165
21
0.430374
0
LINE
8
BLACK
6
CONTINUOUS
10
1.165
20
0.430374
11
1.185
21
0.430374
0
LINE
8
BLACK
6
CONTINUOUS
10
1.185
20
0.430374
11
1.18801
21
0.429775
0
LINE
8
BLACK
6
CONTINUOUS
10
0.0330133
20
0.487275
11
0.0355678
21
0.485568
0
LINE
8
BLACK
6
CONTINUOUS
10
0.0355678
20
0.485568
11
0.0372746
21
0.483013
0
LINE
8
BLACK
6
CONTINUOUS
10
0.0372746
20
0.483013
11
0.037874
21
0.48
0
LINE
8
BLACK
6
CONTINUOUS
10
0.037874
20
0.48
11
0.037874
21
0.42
0
LINE
8
BLACK
6
CONTINUOUS
10
0.037874
20
0.42
11
0.0372746
21
0.416987
0
LINE
8
BLACK
6
CONTINUOUS
10
0.0372746
20
0.416987
11
0.0355678
21
0.414432
0
LINE
8
BLACK
6
CONTINUOUS
10
0.0355678
20
0.414432
11
0.0330133
21
0.412725
0
LINE
8
BLACK
6
CONTINUOUS
10
0.0330133
20
0.412725
11
0.03
21
0.412126
0
LINE
8
BLACK
6
CONTINUOUS
10
0.03
20
0.412126
11
-0.03
21
0.412126
0
LINE
8
BLACK
6
CONTINUOUS
10
-0.03
20
0.412126
11
-0.0330133
21
0.412725
0
LINE
8
BLACK
6
CONTINUOUS
10
-0.0330133
20
0.412725
11
-0.0355678
21
0.414432
0
LINE
8
BLACK
6
CONTINUOUS
10
-0.0355678
20
0.414432
11
-0.0372746
21
0.416987
0
LINE
8
BLACK
6
CONTINUOUS
10
-0.0372746
20
0.416987
11
-0.037874
21
0.42
0
LINE
8
BLACK
6
CONTINUOUS
10
-0.037874
20
0.42
11
-0.037874
21
0.48
0
LINE
8
BLACK
6
CONTINUOUS
10
-0.037874
20
0.48
11
-0.0372746
21
0.483013
0
LINE
8
BLACK
6
CONTINUOUS
10
-0.0372746
20
0.483013
11
-0.0355678
21
0.485568
0
LINE
8
BLACK
6
CONTINUOUS
10
-0.0355678
20
0.485568
11
-0.0330133
21
0.487275
0
LINE
8
BLACK
6
CONTINUOUS
10
-0.0330133
20
0.487275
11
-0.03
21
0.487874
0
LINE
8
BLACK
6
CONTINUOUS
10
-0.03
20
0.487874
11
0.03
21
0.487874
0
LINE
8
BLACK
6
CONTINUOUS
10
0.03
20
0.487874
11
0.0330133
21
0.487275
0
LINE
8
BLACK
6
CONTINUOUS
10
0.133013
20
0.487275
11
0.135568
21
0.485568
0
LINE
8
BLACK
6
CONTINUOUS
10
0.135568
20
0.485568
11
0.137275
21
0.483013
0
LINE
8
BLACK
6
CONTINUOUS
10
0.137275
20
0.483013
11
0.137874
21
0.48
0
LINE
8
BLACK
6
CONTINUOUS
10
0.137874
20
0.48
11
0.137874
21
0.42
0
LINE
8
BLACK
6
CONTINUOUS
10
0.137874
20
0.42
11
0.137275
21
0.416987
0
LINE
8
BLACK
6
CONTINUOUS
10
0.137275
20
0.416987
11
0.135568
21
0.414432
0
LINE
8
BLACK
6
CONTINUOUS
10
0.135568
20
0.414432
11
0.133013
21
0.412725
0
LINE
8
BLACK
6
CONTINUOUS
10
0.133013
20
0.412725
11
0.13
21
0.412126
0
LINE
8
BLACK
6
CONTINUOUS
10
0.13
20
0.412126
11
0.07
21
0.412126
0
LINE
8
BLACK
6
CONTINUOUS
10
0.07
20
0.412126
11
0.0669867
21
0.412725
0
LINE
8
BLACK
6
CONTINUOUS
10
0.0669867
20
0.412725
11
0.0644322
21
0.414432
0
LINE
8
BLACK
6
CONTINUOUS
10
0.0644322
20
0.414432
11
0.0627254
21
0.416987
0
LINE
8
BLACK
6
CONTINUOUS
10
0.0627254
20
0.416987
11
0.062126
21
0.42
0
LINE
8
BLACK
6
CONTINUOUS
10
0.062126
20
0.42
11
0.062126
21
0.48
0
LINE
8
BLACK
6
CONTINUOUS
10
0.062126
20
0.48
11
0.0627254
21
0.483013
0
LINE
8
BLACK
6
CONTINUOUS
10
0.0627254
20
0.483013
11
0.0644322
21
0.485568
0
LINE
8
BLACK
6
CONTINUOUS
10
0.0644322
20
0.485568
11
0.0669867
21
0.487275
0
LINE
8
BLACK
6
CONTINUOUS
10
0.0669867
20
0.487275
11
0.07
21
0.487874
0
LINE
8
BLACK
6
CONTINUOUS
10
0.07
20
0.487874
11
0.13
21
0.487874
0
LINE
8
BLACK
6
CONTINUOUS
10
0.13
20
0.487874
11
0.133013
21
0.487275
0
LINE
8
BLACK
6
CONTINUOUS
10
0.182203
20
0.485124
11
0.187188
21
0.48338
0
LINE
8
BLACK
6
CONTINUOUS
10
0.187188
20
0.48338
11
0.191437
21
0.480244
0
LINE
8
BLACK
6
CONTINUOUS
10
0.191437
20
0.480244
11
0.194573
21
0.475995
0
LINE
8
BLACK
6
CONTINUOUS
10
0.194573
20
0.475995
11
0.196317
21
0.47101
0
LINE
8
BLACK
6
CONTINUOUS
10
0.196317
20
0.47101
11
0.196626
21
0.467717
0
LINE
8
BLACK
6
CONTINUOUS
10
0.196626
20
0.467717
11
0.196626
21
0.432283
0
LINE
8
BLACK
6
CONTINUOUS
10
0.196626
20
0.432283
11
0.196317
21
0.42899
0
LINE
8
BLACK
6
CONTINUOUS
10
0.196317
20
0.42899
11
0.194573
21
0.424005
0
LINE
8
BLACK
6
CONTINUOUS
10
0.194573
20
0.424005
11
0.191437
21
0.419756
0
LINE
8
BLACK
6
CONTINUOUS
10
0.191437
20
0.419756
11
0.187188
21
0.41662
0
LINE
8
BLACK
6
CONTINUOUS
10
0.187188
20
0.41662
11
0.182203
21
0.414876
0
LINE
8
BLACK
6
CONTINUOUS
10
0.182203
20
0.414876
11
0.178909
21
0.414567
0
LINE
8
BLACK
6
CONTINUOUS
10
0.178909
20
0.414567
11
0.15824
21
0.414567
0
LINE
8
BLACK
6
CONTINUOUS
10
0.15824
20
0.414567
11
0.154946
21
0.414876
0
LINE
8
BLACK
6
CONTINUOUS
10
0.154946
20
0.414876
11
0.149962
21
0.41662
0
LINE
8
BLACK
6
CONTINUOUS
10
0.149962
20
0.41662
11
0.145713
21
0.419756
0
LINE
8
BLACK
6
CONTINUOUS
10
0.145713
20
0.419756
11
0.142577
21
0.424005
0
LINE
8
BLACK
6
CONTINUOUS
10
0.142577
20
0.424005
11
0.140832
21
0.42899
0
LINE
8
BLACK
6
CONTINUOUS
10
0.140832
20
0.42899
11
0.140524
21
0.432283
0
LINE
8
BLACK
6
CONTINUOUS
10
0.140524
20
0.432283
11
0.140524
21
0.467717
0
LINE
8
BLACK
6
CONTINUOUS
10
0.140524
20
0.467717
11
0.140832
21
0.47101
0
LINE
8
BLACK
6
CONTINUOUS
10
0.140832
20
0.47101
11
0.142577
21
0.475995
0
LINE
8
BLACK
6
CONTINUOUS
10
0.142577
20
0.475995
11
0.145713
21
0.480244
0
LINE
8
BLACK
6
CONTINUOUS
10
0.145713
20
0.480244
11
0.149962
21
0.48338
0
LINE
8
BLACK
6
CONTINUOUS
10
0.149962
20
0.48338
11
0.154946
21
0.485124
0
LINE
8
BLACK
6
CONTINUOUS
10
0.154946
20
0.485124
11
0.15824
21
0.485433
0
LINE
8
BLACK
6
CONTINUOUS
10
0.15824
20
0.485433
11
0.178909
21
0.485433
0
LINE
8
BLACK
6
CONTINUOUS
10
0.178909
20
0.485433
11
0.182203
21
0.485124
0
LINE
8
BLACK
6
CONTINUOUS
10
0.254054
20
0.485124
11
0.259038
21
0.48338
0
LINE
8
BLACK
6
CONTINUOUS
10
0.259038
20
0.48338
11
0.263287
21
0.480244
0
LINE
8
BLACK
6
CONTINUOUS
10
0.263287
20
0.480244
11
0.266423
21
0.475995
0
LINE
8
BLACK
6
CONTINUOUS
10
0.266423
20
0.475995
11
0.268168
21
0.47101
0
LINE
8
BLACK
6
CONTINUOUS
10
0.268168
20
0.47101
11
0.268476
21
0.467717
0
LINE
8
BLACK
6
CONTINUOUS
10
0.268476
20
0.467717
11
0.268476
21
0.432283
0
LINE
8
BLACK
6
CONTINUOUS
10
0.268476
20
0.432283
11
0.268168
21
0.42899
0
LINE
8
BLACK
6
CONTINUOUS
10
0.268168
20
0.42899
11
0.266423
21
0.424005
0
LINE
8
BLACK
6
CONTINUOUS
10
0.266423
20
0.424005
11
0.263287
21
0.419756
0
LINE
8
BLACK
6
CONTINUOUS
10
0.263287
20
0.419756
11
0.259038
21
0.41662
0
LINE
8
BLACK
6
CONTINUOUS
10
0.259038
20
0.41662
11
0.254054
21
0.414876
0
LINE
8
BLACK
6
CONTINUOUS
10
0.254054
20
0.414876
11
0.25076
21
0.414567
0
LINE
8
BLACK
6
CONTINUOUS
10
0.25076
20
0.414567
11
0.230091
21
0.414567
0
LINE
8
BLACK
6
CONTINUOUS
10
0.230091
20
0.414567
11
0.226797
21
0.414876
0
LINE
8
BLACK
6
CONTINUOUS
10
0.226797
20
0.414876
11
0.221812
21
0.41662
0
LINE
8
BLACK
6
CONTINUOUS
10
0.221812
20
0.41662
11
0.217563
21
0.419756
0
LINE
8
BLACK
6
CONTINUOUS
10
0.217563
20
0.419756
11
0.214427
21
0.424005
0
LINE
8
BLACK
6
CONTINUOUS
10
0.214427
20
0.424005
11
0.212683
21
0.42899
0
LINE
8
BLACK
6
CONTINUOUS
10
0.212683
20
0.42899
11
0.212374
21
0.432283
0
LINE
8
BLACK
6
CONTINUOUS
10
0.212374
20
0.432283
11
0.212374
21
0.467717
0
LINE
8
BLACK
6
CONTINUOUS
10
0.212374
20
0.467717
11
0.212683
21
0.47101
0
LINE
8
BLACK
6
CONTINUOUS
10
0.212683
20
0.47101
11
0.214427
21
0.475995
0
LINE
8
BLACK
6
CONTINUOUS
10
0.214427
20
0.475995
11
0.217563
21
0.480244
0
LINE
8
BLACK
6
CONTINUOUS
10
0.217563
20
0.480244
11
0.221812
21
0.48338
0
LINE
8
BLACK
6
CONTINUOUS
10
0.221812
20
0.48338
11
0.226797
21
0.485124
0
LINE
8
BLACK
6
CONTINUOUS
10
0.226797
20
0.485124
11
0.230091
21
0.485433
0
LINE
8
BLACK
6
CONTINUOUS
10
0.230091
20
0.485433
11
0.25076
21
0.485433
0
LINE
8
BLACK
6
CONTINUOUS
10
0.25076
20
0.485433
11
0.254054
21
0.485124
0
LINE
8
BLACK
6
CONTINUOUS
10
1.49501
20
0.481817
11
1.49999
21
0.480073
0
LINE
8
BLACK
6
CONTINUOUS
10
1.49999
20
0.480073
11
1.50424
21
0.476937
0
LINE
8
BLACK
6
CONTINUOUS
10
1.50424
20
0.476937
11
1.50738
21
0.472688
0
LINE
8
BLACK
6
CONTINUOUS
10
1.50738
20
0.472688
11
1.50912
21
0.467703
0
LINE
8
BLACK
6
CONTINUOUS
10
1.50912
20
0.467703
11
1.50943
21
0.464409
0
LINE
8
BLACK
6
CONTINUOUS
10
1.50943
20
0.464409
11
1.50943
21
0.44374
0
LINE
8
BLACK
6
CONTINUOUS
10
1.50943
20
0.44374
11
1.50912
21
0.440446
0
LINE
8
BLACK
6
CONTINUOUS
10
1.50912
20
0.440446
11
1.50738
21
0.435462
0
LINE
8
BLACK
6
CONTINUOUS
10
1.50738
20
0.435462
11
1.50424
21
0.431213
0
LINE
8
BLACK
6
CONTINUOUS
10
1.50424
20
0.431213
11
1.49999
21
0.428077
0
LINE
8
BLACK
6
CONTINUOUS
10
1.49999
20
0.428077
11
1.49501
21
0.426332
0
LINE
8
BLACK
6
CONTINUOUS
10
1.49501
20
0.426332
11
1.49172
21
0.426024
0
LINE
8
BLACK
6
CONTINUOUS
10
1.49172
20
0.426024
11
1.45628
21
0.426024
0
LINE
8
BLACK
6
CONTINUOUS
10
1.45628
20
0.426024
11
1.45299
21
0.426332
0
LINE
8
BLACK
6
CONTINUOUS
10
1.45299
20
0.426332
11
1.44801
21
0.428077
0
LINE
8
BLACK
6
CONTINUOUS
10
1.44801
20
0.428077
11
1.44376
21
0.431213
0
LINE
8
BLACK
6
CONTINUOUS
10
1.44376
20
0.431213
11
1.44062
21
0.435462
0
LINE
8
BLACK
6
CONTINUOUS
10
1.44062
20
0.435462
11
1.43888
21
0.440446
0
LINE
8
BLACK
6
CONTINUOUS
10
1.43888
20
0.440446
11
1.43857
21
0.44374
0
LINE
8
BLACK
6
CONTINUOUS
10
1.43857
20
0.44374
11
1.43857
21
0.464409
0
LINE
8
BLACK
6
CONTINUOUS
10
1.43857
20
0.464409
11
1.43888
21
0.467703
0
LINE
8
BLACK
6
CONTINUOUS
10
1.43888
20
0.467703
11
1.44062
21
0.472688
0
LINE
8
BLACK
6
CONTINUOUS
10
1.44062
20
0.472688
11
1.44376
21
0.476937
0
LINE
8
BLACK
6
CONTINUOUS
10
1.44376
20
0.476937
11
1.44801
21
0.480073
0
LINE
8
BLACK
6
CONTINUOUS
10
1.44801
20
0.480073
11
1.45299
21
0.481817
0
LINE
8
BLACK
6
CONTINUOUS
10
1.45299
20
0.481817
11
1.45628
21
0.482126
0
LINE
8
BLACK
6
CONTINUOUS
10
1.45628
20
0.482126
11
1.49172
21
0.482126
0
LINE
8
BLACK
6
CONTINUOUS
10
1.49172
20
0.482126
11
1.49501
21
0.481817
0
LINE
8
BLACK
6
CONTINUOUS
10
1.61201
20
0.501275
11
1.61457
21
0.499568
0
LINE
8
BLACK
6
CONTINUOUS
10
1.61457
20
0.499568
11
1.61627
21
0.497013
0
LINE
8
BLACK
6
CONTINUOUS
10
1.61627
20
0.497013
11
1.61687
21
0.494
0
LINE
8
BLACK
6
CONTINUOUS
10
1.61687
20
0.494
11
1.61687
21
0.434
0
LINE
8
BLACK
6
CONTINUOUS
10
1.61687
20
0.434
11
1.61627
21
0.430987
0
LINE
8
BLACK
6
CONTINUOUS
10
1.61627
20
0.430987
11
1.61457
21
0.428432
0
LINE
8
BLACK
6
CONTINUOUS
10
1.61457
20
0.428432
11
1.61201
21
0.426725
0
LINE
8
BLACK
6
CONTINUOUS
10
1.61201
20
0.426725
11
1.609
21
0.426126
0
LINE
8
BLACK
6
CONTINUOUS
10
1.609
20
0.426126
11
1.549
21
0.426126
0
LINE
8
BLACK
6
CONTINUOUS
10
1.549
20
0.426126
11
1.54599
21
0.426725
0
LINE
8
BLACK
6
CONTINUOUS
10
1.54599
20
0.426725
11
1.54343
21
0.428432
0
LINE
8
BLACK
6
CONTINUOUS
10
1.54343
20
0.428432
11
1.54173
21
0.430987
0
LINE
8
BLACK
6
CONTINUOUS
10
1.54173
20
0.430987
11
1.54113
21
0.434
0
LINE
8
BLACK
6
CONTINUOUS
10
1.54113
20
0.434
11
1.54113
21
0.494
0
LINE
8
BLACK
6
CONTINUOUS
10
1.54113
20
0.494
11
1.54173
21
0.497013
0
LINE
8
BLACK
6
CONTINUOUS
10
1.54173
20
0.497013
11
1.54343
21
0.499568
0
LINE
8
BLACK
6
CONTINUOUS
10
1.54343
20
0.499568
11
1.54599
21
0.501275
0
LINE
8
BLACK
6
CONTINUOUS
10
1.54599
20
0.501275
11
1.549
21
0.501874
0
LINE
8
BLACK
6
CONTINUOUS
10
1.549
20
0.501874
11
1.609
21
0.501874
0
LINE
8
BLACK
6
CONTINUOUS
10
1.609
20
0.501874
11
1.61201
21
0.501275
0
LINE
8
BLACK
6
CONTINUOUS
10
1.71201
20
0.501275
11
1.71457
21
0.499568
0
LINE
8
BLACK
6
CONTINUOUS
10
1.71457
20
0.499568
11
1.71627
21
0.497013
0
LINE
8
BLACK
6
CONTINUOUS
10
1.71627
20
0.497013
11
1.71687
21
0.494
0
LINE
8
BLACK
6
CONTINUOUS
10
1.71687
20
0.494
11
1.71687
21
0.434
0
LINE
8
BLACK
6
CONTINUOUS
10
1.71687
20
0.434
11
1.71627
21
0.430987
0
LINE
8
BLACK
6
CONTINUOUS
10
1.71627
20
0.430987
11
1.71457
21
0.428432
0
LINE
8
BLACK
6
CONTINUOUS
10
1.71457
20
0.428432
11
1.71201
21
0.426725
0
LINE
8
BLACK
6
CONTINUOUS
10
1.71201
20
0.426725
11
1.709
21
0.426126
0
LINE
8
BLACK
6
CONTINUOUS
10
1.709
20
0.426126
11
1.649
21
0.426126
0
LINE
8
BLACK
6
CONTINUOUS
10
1.649
20
0.426126
11
1.64599
21
0.426725
0
LINE
8
BLACK
6
CONTINUOUS
10
1.64599
20
0.426725
11
1.64343
21
0.428432
0
LINE
8
BLACK
6
CONTINUOUS
10
1.64343
20
0.428432
11
1.64173
21
0.430987
0
LINE
8
BLACK
6
CONTINUOUS
10
1.64173
20
0.430987
11
1.64113
21
0.434
0
LINE
8
BLACK
6
CONTINUOUS
10
1.64113
20
0.434
11
1.64113
21
0.494
0
LINE
8
BLACK
6
CONTINUOUS
10
1.64113
20
0.494
11
1.64173
21
0.497013
0
LINE
8
BLACK
6
CONTINUOUS
10
1.64173
20
0.497013
11
1.64343
21
0.499568
0
LINE
8
BLACK
6
CONTINUOUS
10
1.64343
20
0.499568
11
1.64599
21
0.501275
0
LINE
8
BLACK
6
CONTINUOUS
10
1.64599
20
0.501275
11
1.649
21
0.501874
0
LINE
8
BLACK
6
CONTINUOUS
10
1.649
20
0.501874
11
1.709
21
0.501874
0
LINE
8
BLACK
6
CONTINUOUS
10
1.709
20
0.501874
11
1.71201
21
0.501275
0
LINE
8
BLACK
6
CONTINUOUS
10
1.36301
20
0.485817
11
1.36799
21
0.484073
0
LINE
8
BLACK
6
CONTINUOUS
10
1.36799
20
0.484073
11
1.37224
21
0.480937
0
LINE
8
BLACK
6
CONTINUOUS
10
1.37224
20
0.480937
11
1.37538
21
0.476688
0
LINE
8
BLACK
6
CONTINUOUS
10
1.37538
20
0.476688
11
1.37712
21
0.471703
0
LINE
8
BLACK
6
CONTINUOUS
10
1.37712
20
0.471703
11
1.37743
21
0.468409
0
LINE
8
BLACK
6
CONTINUOUS
10
1.37743
20
0.468409
11
1.37743
21
0.44774
0
LINE
8
BLACK
6
CONTINUOUS
10
1.37743
20
0.44774
11
1.37712
21
0.444446
0
LINE
8
BLACK
6
CONTINUOUS
10
1.37712
20
0.444446
11
1.37538
21
0.439462
0
LINE
8
BLACK
6
CONTINUOUS
10
1.37538
20
0.439462
11
1.37224
21
0.435213
0
LINE
8
BLACK
6
CONTINUOUS
10
1.37224
20
0.435213
11
1.36799
21
0.432077
0
LINE
8
BLACK
6
CONTINUOUS
10
1.36799
20
0.432077
11
1.36301
21
0.430332
0
LINE
8
BLACK
6
CONTINUOUS
10
1.36301
20
0.430332
11
1.35972
21
0.430024
0
LINE
8
BLACK
6
CONTINUOUS
10
1.35972
20
0.430024
11
1.32428
21
0.430024
0
LINE
8
BLACK
6
CONTINUOUS
10
1.32428
20
0.430024
11
1.32099
21
0.430332
0
LINE
8
BLACK
6
CONTINUOUS
10
1.32099
20
0.430332
11
1.31601
21
0.432077
0
LINE
8
BLACK
6
CONTINUOUS
10
1.31601
20
0.432077
11
1.31176
21
0.435213
0
LINE
8
BLACK
6
CONTINUOUS
10
1.31176
20
0.435213
11
1.30862
21
0.439462
0
LINE
8
BLACK
6
CONTINUOUS
10
1.30862
20
0.439462
11
1.30688
21
0.444446
0
LINE
8
BLACK
6
CONTINUOUS
10
1.30688
20
0.444446
11
1.30657
21
0.44774
0
LINE
8
BLACK
6
CONTINUOUS
10
1.30657
20
0.44774
11
1.30657
21
0.468409
0
LINE
8
BLACK
6
CONTINUOUS
10
1.30657
20
0.468409
11
1.30688
21
0.471703
0
LINE
8
BLACK
6
CONTINUOUS
10
1.30688
20
0.471703
11
1.30862
21
0.476688
0
LINE
8
BLACK
6
CONTINUOUS
10
1.30862
20
0.476688
11
1.31176
21
0.480937
0
LINE
8
BLACK
6
CONTINUOUS
10
1.31176
20
0.480937
11
1.31601
21
0.484073
0
LINE
8
BLACK
6
CONTINUOUS
10
1.31601
20
0.484073
11
1.32099
21
0.485817
0
LINE
8
BLACK
6
CONTINUOUS
10
1.32099
20
0.485817
11
1.32428
21
0.486126
0
LINE
8
BLACK
6
CONTINUOUS
10
1.32428
20
0.486126
11
1.35972
21
0.486126
0
LINE
8
BLACK
6
CONTINUOUS
10
1.35972
20
0.486126
11
1.36301
21
0.485817
0
LINE
8
BLACK
6
CONTINUOUS
10
0.846994
20
0.489652
11
0.851979
21
0.487908
0
LINE
8
BLACK
6
CONTINUOUS
10
0.851979
20
0.487908
11
0.856228
21
0.484772
0
LINE
8
BLACK
6
CONTINUOUS
10
0.856228
20
0.484772
11
0.859364
21
0.480522
0
LINE
8
BLACK
6
CONTINUOUS
10
0.859364
20
0.480522
11
0.861108
21
0.475538
0
LINE
8
BLACK
6
CONTINUOUS
10
0.861108
20
0.475538
11
0.861417
21
0.472244
0
LINE
8
BLACK
6
CONTINUOUS
10
0.861417
20
0.472244
11
0.861417
21
0.452559
0
LINE
8
BLACK
6
CONTINUOUS
10
0.861417
20
0.452559
11
0.861108
21
0.449265
0
LINE
8
BLACK
6
CONTINUOUS
10
0.861108
20
0.449265
11
0.859364
21
0.444281
0
LINE
8
BLACK
6
CONTINUOUS
10
0.859364
20
0.444281
11
0.856228
21
0.440032
0
LINE
8
BLACK
6
CONTINUOUS
10
0.856228
20
0.440032
11
0.851979
21
0.436896
0
LINE
8
BLACK
6
CONTINUOUS
10
0.851979
20
0.436896
11
0.846994
21
0.435151
0
LINE
8
BLACK
6
CONTINUOUS
10
0.846994
20
0.435151
11
0.843701
21
0.434843
0
LINE
8
BLACK
6
CONTINUOUS
10
0.843701
20
0.434843
11
0.806299
21
0.434843
0
LINE
8
BLACK
6
CONTINUOUS
10
0.806299
20
0.434843
11
0.803006
21
0.435151
0
LINE
8
BLACK
6
CONTINUOUS
10
0.803006
20
0.435151
11
0.798021
21
0.436896
0
LINE
8
BLACK
6
CONTINUOUS
10
0.798021
20
0.436896
11
0.793772
21
0.440032
0
LINE
8
BLACK
6
CONTINUOUS
10
0.793772
20
0.440032
11
0.790636
21
0.444281
0
LINE
8
BLACK
6
CONTINUOUS
10
0.790636
20
0.444281
11
0.788892
21
0.449265
0
LINE
8
BLACK
6
CONTINUOUS
10
0.788892
20
0.449265
11
0.788583
21
0.452559
0
LINE
8
BLACK
6
CONTINUOUS
10
0.788583
20
0.452559
11
0.788583
21
0.472244
0
LINE
8
BLACK
6
CONTINUOUS
10
0.788583
20
0.472244
11
0.788892
21
0.475538
0
LINE
8
BLACK
6
CONTINUOUS
10
0.788892
20
0.475538
11
0.790636
21
0.480522
0
LINE
8
BLACK
6
CONTINUOUS
10
0.790636
20
0.480522
11
0.793772
21
0.484772
0
LINE
8
BLACK
6
CONTINUOUS
10
0.793772
20
0.484772
11
0.798021
21
0.487908
0
LINE
8
BLACK
6
CONTINUOUS
10
0.798021
20
0.487908
11
0.803006
21
0.489652
0
LINE
8
BLACK
6
CONTINUOUS
10
0.803006
20
0.489652
11
0.806299
21
0.489961
0
LINE
8
BLACK
6
CONTINUOUS
10
0.806299
20
0.489961
11
0.843701
21
0.489961
0
LINE
8
BLACK
6
CONTINUOUS
10
0.843701
20
0.489961
11
0.846994
21
0.489652
0
LINE
8
BLACK
6
CONTINUOUS
10
0.946994
20
0.489652
11
0.951979
21
0.487908
0
LINE
8
BLACK
6
CONTINUOUS
10
0.951979
20
0.487908
11
0.956228
21
0.484772
0
LINE
8
BLACK
6
CONTINUOUS
10
0.956228
20
0.484772
11
0.959364
21
0.480522
0
LINE
8
BLACK
6
CONTINUOUS
10
0.959364
20
0.480522
11
0.961108
21
0.475538
0
LINE
8
BLACK
6
CONTINUOUS
10
0.961108
20
0.475538
11
0.961417
21
0.472244
0
LINE
8
BLACK
6
CONTINUOUS
10
0.961417
20
0.472244
11
0.961417
21
0.452559
0
LINE
8
BLACK
6
CONTINUOUS
10
0.961417
20
0.452559
11
0.961108
21
0.449265
0
LINE
8
BLACK
6
CONTINUOUS
10
0.961108
20
0.449265
11
0.959364
21
0.444281
0
LINE
8
BLACK
6
CONTINUOUS
10
0.959364
20
0.444281
11
0.956228
21
0.440032
0
LINE
8
BLACK
6
CONTINUOUS
10
0.956228
20
0.440032
11
0.951979
21
0.436896
0
LINE
8
BLACK
6
CONTINUOUS
10
0.951979
20
0.436896
11
0.946994
21
0.435151
0
LINE
8
BLACK
6
CONTINUOUS
10
0.946994
20
0.435151
11
0.943701
21
0.434843
0
LINE
8
BLACK
6
CONTINUOUS
10
0.943701
20
0.434843
11
0.906299
21
0.434843
0
LINE
8
BLACK
6
CONTINUOUS
10
0.906299
20
0.434843
11
0.903006
21
0.435151
0
LINE
8
BLACK
6
CONTINUOUS
10
0.903006
20
0.435151
11
0.898021
21
0.436896
0
LINE
8
BLACK
6
CONTINUOUS
10
0.898021
20
0.436896
11
0.893772
21
0.440032
0
LINE
8
BLACK
6
CONTINUOUS
10
0.893772
20
0.440032
11
0.890636
21
0.444281
0
LINE
8
BLACK
6
CONTINUOUS
10
0.890636
20
0.444281
11
0.888892
21
0.449265
0
LINE
8
BLACK
6
CONTINUOUS
10
0.888892
20
0.449265
11
0.888583
21
0.452559
0
LINE
8
BLACK
6
CONTINUOUS
10
0.888583
20
0.452559
11
0.888583
21
0.472244
0
LINE
8
BLACK
6
CONTINUOUS
10
0.888583
20
0.472244
11
0.888892
21
0.475538
0
LINE
8
BLACK
6
CONTINUOUS
10
0.888892
20
0.475538
11
0.890636
21
0.480522
0
LINE
8
BLACK
6
CONTINUOUS
10
0.890636
20
0.480522
11
0.893772
21
0.484772
0
LINE
8
BLACK
6
CONTINUOUS
10
0.893772
20
0.484772
11
0.898021
21
0.487908
0
LINE
8
BLACK
6
CONTINUOUS
10
0.898021
20
0.487908
11
0.903006
21
0.489652
0
LINE
8
BLACK
6
CONTINUOUS
10
0.903006
20
0.489652
11
0.906299
21
0.489961
0
LINE
8
BLACK
6
CONTINUOUS
10
0.906299
20
0.489961
11
0.943701
21
0.489961
0
LINE
8
BLACK
6
CONTINUOUS
10
0.943701
20
0.489961
11
0.946994
21
0.489652
0
LINE
8
BLACK
6
CONTINUOUS
10
1.28301
20
0.494668
11
1.28799
21
0.492923
0
LINE
8
BLACK
6
CONTINUOUS
10
1.28799
20
0.492923
11
1.29224
21
0.489787
0
LINE
8
BLACK
6
CONTINUOUS
10
1.29224
20
0.489787
11
1.29538
21
0.485538
0
LINE
8
BLACK
6
CONTINUOUS
10
1.29538
20
0.485538
11
1.29712
21
0.480554
0
LINE
8
BLACK
6
CONTINUOUS
10
1.29712
20
0.480554
11
1.29743
21
0.47726
0
LINE
8
BLACK
6
CONTINUOUS
10
1.29743
20
0.47726
11
1.29743
21
0.456591
0
LINE
8
BLACK
6
CONTINUOUS
10
1.29743
20
0.456591
11
1.29712
21
0.453297
0
LINE
8
BLACK
6
CONTINUOUS
10
1.29712
20
0.453297
11
1.29538
21
0.448312
0
LINE
8
BLACK
6
CONTINUOUS
10
1.29538
20
0.448312
11
1.29224
21
0.444063
0
LINE
8
BLACK
6
CONTINUOUS
10
1.29224
20
0.444063
11
1.28799
21
0.440927
0
LINE
8
BLACK
6
CONTINUOUS
10
1.28799
20
0.440927
11
1.28301
21
0.439183
0
LINE
8
BLACK
6
CONTINUOUS
10
1.28301
20
0.439183
11
1.27972
21
0.438874
0
LINE
8
BLACK
6
CONTINUOUS
10
1.27972
20
0.438874
11
1.24428
21
0.438874
0
LINE
8
BLACK
6
CONTINUOUS
10
1.24428
20
0.438874
11
1.24099
21
0.439183
0
LINE
8
BLACK
6
CONTINUOUS
10
1.24099
20
0.439183
11
1.23601
21
0.440927
0
LINE
8
BLACK
6
CONTINUOUS
10
1.23601
20
0.440927
11
1.23176
21
0.444063
0
LINE
8
BLACK
6
CONTINUOUS
10
1.23176
20
0.444063
11
1.22862
21
0.448312
0
LINE
8
BLACK
6
CONTINUOUS
10
1.22862
20
0.448312
11
1.22688
21
0.453297
0
LINE
8
BLACK
6
CONTINUOUS
10
1.22688
20
0.453297
11
1.22657
21
0.456591
0
LINE
8
BLACK
6
CONTINUOUS
10
1.22657
20
0.456591
11
1.22657
21
0.47726
0
LINE
8
BLACK
6
CONTINUOUS
10
1.22657
20
0.47726
11
1.22688
21
0.480554
0
LINE
8
BLACK
6
CONTINUOUS
10
1.22688
20
0.480554
11
1.22862
21
0.485538
0
LINE
8
BLACK
6
CONTINUOUS
10
1.22862
20
0.485538
11
1.23176
21
0.489787
0
LINE
8
BLACK
6
CONTINUOUS
10
1.23176
20
0.489787
11
1.23601
21
0.492923
0
LINE
8
BLACK
6
CONTINUOUS
10
1.23601
20
0.492923
11
1.24099
21
0.494668
0
LINE
8
BLACK
6
CONTINUOUS
10
1.24099
20
0.494668
11
1.24428
21
0.494976
0
LINE
8
BLACK
6
CONTINUOUS
10
1.24428
20
0.494976
11
1.27972
21
0.494976
0
LINE
8
BLACK
6
CONTINUOUS
10
1.27972
20
0.494976
11
1.28301
21
0.494668
0
LINE
8
BLACK
6
CONTINUOUS
10
0.658735
20
0.534821
11
0.66281
21
0.532829
0
LINE
8
BLACK
6
CONTINUOUS
10
0.66281
20
0.532829
11
0.666018
21
0.529621
0
LINE
8
BLACK
6
CONTINUOUS
10
0.666018
20
0.529621
11
0.66801
21
0.525546
0
LINE
8
BLACK
6
CONTINUOUS
10
0.66801
20
0.525546
11
0.668583
21
0.521614
0
LINE
8
BLACK
6
CONTINUOUS
10
0.668583
20
0.521614
11
0.668583
21
0.475354
0
LINE
8
BLACK
6
CONTINUOUS
10
0.668583
20
0.475354
11
0.66801
21
0.471423
0
LINE
8
BLACK
6
CONTINUOUS
10
0.66801
20
0.471423
11
0.666018
21
0.467347
0
LINE
8
BLACK
6
CONTINUOUS
10
0.666018
20
0.467347
11
0.66281
21
0.46414
0
LINE
8
BLACK
6
CONTINUOUS
10
0.66281
20
0.46414
11
0.658735
21
0.462148
0
LINE
8
BLACK
6
CONTINUOUS
10
0.658735
20
0.462148
11
0.654803
21
0.461575
0
LINE
8
BLACK
6
CONTINUOUS
10
0.654803
20
0.461575
11
0.642992
21
0.461575
0
LINE
8
BLACK
6
CONTINUOUS
10
0.642992
20
0.461575
11
0.63906
21
0.462148
0
LINE
8
BLACK
6
CONTINUOUS
10
0.63906
20
0.462148
11
0.634985
21
0.46414
0
LINE
8
BLACK
6
CONTINUOUS
10
0.634985
20
0.46414
11
0.631778
21
0.467347
0
LINE
8
BLACK
6
CONTINUOUS
10
0.631778
20
0.467347
11
0.629785
21
0.471423
0
LINE
8
BLACK
6
CONTINUOUS
10
0.629785
20
0.471423
11
0.629213
21
0.475354
0
LINE
8
BLACK
6
CONTINUOUS
10
0.629213
20
0.475354
11
0.629213
21
0.521614
0
LINE
8
BLACK
6
CONTINUOUS
10
0.629213
20
0.521614
11
0.629785
21
0.525546
0
LINE
8
BLACK
6
CONTINUOUS
10
0.629785
20
0.525546
11
0.631778
21
0.529621
0
LINE
8
BLACK
6
CONTINUOUS
10
0.631778
20
0.529621
11
0.634985
21
0.532829
0
LINE
8
BLACK
6
CONTINUOUS
10
0.634985
20
0.532829
11
0.63906
21
0.534821
0
LINE
8
BLACK
6
CONTINUOUS
10
0.63906
20
0.534821
11
0.642992
21
0.535394
0
LINE
8
BLACK
6
CONTINUOUS
10
0.642992
20
0.535394
11
0.654803
21
0.535394
0
LINE
8
BLACK
6
CONTINUOUS
10
0.654803
20
0.535394
11
0.658735
21
0.534821
0
LINE
8
BLACK
6
CONTINUOUS
10
0.401994
20
0.519849
11
0.406979
21
0.518104
0
LINE
8
BLACK
6
CONTINUOUS
10
0.406979
20
0.518104
11
0.411228
21
0.514968
0
LINE
8
BLACK
6
CONTINUOUS
10
0.411228
20
0.514968
11
0.414364
21
0.510719
0
LINE
8
BLACK
6
CONTINUOUS
10
0.414364
20
0.510719
11
0.416108
21
0.505735
0
LINE
8
BLACK
6
CONTINUOUS
10
0.416108
20
0.505735
11
0.416417
21
0.502441
0
LINE
8
BLACK
6
CONTINUOUS
10
0.416417
20
0.502441
11
0.416417
21
0.482756
0
LINE
8
BLACK
6
CONTINUOUS
10
0.416417
20
0.482756
11
0.416108
21
0.479462
0
LINE
8
BLACK
6
CONTINUOUS
10
0.416108
20
0.479462
11
0.414364
21
0.474478
0
LINE
8
BLACK
6
CONTINUOUS
10
0.414364
20
0.474478
11
0.411228
21
0.470228
0
LINE
8
BLACK
6
CONTINUOUS
10
0.411228
20
0.470228
11
0.406979
21
0.467092
0
LINE
8
BLACK
6
CONTINUOUS
10
0.406979
20
0.467092
11
0.401994
21
0.465348
0
LINE
8
BLACK
6
CONTINUOUS
10
0.401994
20
0.465348
11
0.398701
21
0.465039
0
LINE
8
BLACK
6
CONTINUOUS
10
0.398701
20
0.465039
11
0.361299
21
0.465039
0
LINE
8
BLACK
6
CONTINUOUS
10
0.361299
20
0.465039
11
0.358006
21
0.465348
0
LINE
8
BLACK
6
CONTINUOUS
10
0.358006
20
0.465348
11
0.353021
21
0.467092
0
LINE
8
BLACK
6
CONTINUOUS
10
0.353021
20
0.467092
11
0.348772
21
0.470228
0
LINE
8
BLACK
6
CONTINUOUS
10
0.348772
20
0.470228
11
0.345636
21
0.474478
0
LINE
8
BLACK
6
CONTINUOUS
10
0.345636
20
0.474478
11
0.343892
21
0.479462
0
LINE
8
BLACK
6
CONTINUOUS
10
0.343892
20
0.479462
11
0.343583
21
0.482756
0
LINE
8
BLACK
6
CONTINUOUS
10
0.343583
20
0.482756
11
0.343583
21
0.502441
0
LINE
8
BLACK
6
CONTINUOUS
10
0.343583
20
0.502441
11
0.343892
21
0.505735
0
LINE
8
BLACK
6
CONTINUOUS
10
0.343892
20
0.505735
11
0.345636
21
0.510719
0
LINE
8
BLACK
6
CONTINUOUS
10
0.345636
20
0.510719
11
0.348772
21
0.514968
0
LINE
8
BLACK
6
CONTINUOUS
10
0.348772
20
0.514968
11
0.353021
21
0.518104
0
LINE
8
BLACK
6
CONTINUOUS
10
0.353021
20
0.518104
11
0.358006
21
0.519849
0
LINE
8
BLACK
6
CONTINUOUS
10
0.358006
20
0.519849
11
0.361299
21
0.520157
0
LINE
8
BLACK
6
CONTINUOUS
10
0.361299
20
0.520157
11
0.398701
21
0.520157
0
LINE
8
BLACK
6
CONTINUOUS
10
0.398701
20
0.520157
11
0.401994
21
0.519849
0
LINE
8
BLACK
6
CONTINUOUS
10
0.265994
20
0.546349
11
0.270979
21
0.544604
0
LINE
8
BLACK
6
CONTINUOUS
10
0.270979
20
0.544604
11
0.275228
21
0.541468
0
LINE
8
BLACK
6
CONTINUOUS
10
0.275228
20
0.541468
11
0.278364
21
0.537219
0
LINE
8
BLACK
6
CONTINUOUS
10
0.278364
20
0.537219
11
0.280108
21
0.532235
0
LINE
8
BLACK
6
CONTINUOUS
10
0.280108
20
0.532235
11
0.280417
21
0.528941
0
LINE
8
BLACK
6
CONTINUOUS
10
0.280417
20
0.528941
11
0.280417
21
0.509256
0
LINE
8
BLACK
6
CONTINUOUS
10
0.280417
20
0.509256
11
0.280108
21
0.505962
0
LINE
8
BLACK
6
CONTINUOUS
10
0.280108
20
0.505962
11
0.278364
21
0.500978
0
LINE
8
BLACK
6
CONTINUOUS
10
0.278364
20
0.500978
11
0.275228
21
0.496728
0
LINE
8
BLACK
6
CONTINUOUS
10
0.275228
20
0.496728
11
0.270979
21
0.493592
0
LINE
8
BLACK
6
CONTINUOUS
10
0.270979
20
0.493592
11
0.265994
21
0.491848
0
LINE
8
BLACK
6
CONTINUOUS
10
0.265994
20
0.491848
11
0.262701
21
0.491539
0
LINE
8
BLACK
6
CONTINUOUS
10
0.262701
20
0.491539
11
0.225299
21
0.491539
0
LINE
8
BLACK
6
CONTINUOUS
10
0.225299
20
0.491539
11
0.222006
21
0.491848
0
LINE
8
BLACK
6
CONTINUOUS
10
0.222006
20
0.491848
11
0.217021
21
0.493592
0
LINE
8
BLACK
6
CONTINUOUS
10
0.217021
20
0.493592
11
0.212772
21
0.496728
0
LINE
8
BLACK
6
CONTINUOUS
10
0.212772
20
0.496728
11
0.209636
21
0.500978
0
LINE
8
BLACK
6
CONTINUOUS
10
0.209636
20
0.500978
11
0.207892
21
0.505962
0
LINE
8
BLACK
6
CONTINUOUS
10
0.207892
20
0.505962
11
0.207583
21
0.509256
0
LINE
8
BLACK
6
CONTINUOUS
10
0.207583
20
0.509256
11
0.207583
21
0.528941
0
LINE
8
BLACK
6
CONTINUOUS
10
0.207583
20
0.528941
11
0.207892
21
0.532235
0
LINE
8
BLACK
6
CONTINUOUS
10
0.207892
20
0.532235
11
0.209636
21
0.537219
0
LINE
8
BLACK
6
CONTINUOUS
10
0.209636
20
0.537219
11
0.212772
21
0.541468
0
LINE
8
BLACK
6
CONTINUOUS
10
0.212772
20
0.541468
11
0.217021
21
0.544604
0
LINE
8
BLACK
6
CONTINUOUS
10
0.217021
20
0.544604
11
0.222006
21
0.546349
0
LINE
8
BLACK
6
CONTINUOUS
10
0.222006
20
0.546349
11
0.225299
21
0.546657
0
LINE
8
BLACK
6
CONTINUOUS
10
0.225299
20
0.546657
11
0.262701
21
0.546657
0
LINE
8
BLACK
6
CONTINUOUS
10
0.262701
20
0.546657
11
0.265994
21
0.546349
0
LINE
8
BLACK
6
CONTINUOUS
10
1.49501
20
0.553668
11
1.49999
21
0.551923
0
LINE
8
BLACK
6
CONTINUOUS
10
1.49999
20
0.551923
11
1.50424
21
0.548787
0
LINE
8
BLACK
6
CONTINUOUS
10
1.50424
20
0.548787
11
1.50738
21
0.544538
0
LINE
8
BLACK
6
CONTINUOUS
10
1.50738
20
0.544538
11
1.50912
21
0.539554
0
LINE
8
BLACK
6
CONTINUOUS
10
1.50912
20
0.539554
11
1.50943
21
0.53626
0
LINE
8
BLACK
6
CONTINUOUS
10
1.50943
20
0.53626
11
1.50943
21
0.515591
0
LINE
8
BLACK
6
CONTINUOUS
10
1.50943
20
0.515591
11
1.50912
21
0.512297
0
LINE
8
BLACK
6
CONTINUOUS
10
1.50912
20
0.512297
11
1.50738
21
0.507312
0
LINE
8
BLACK
6
CONTINUOUS
10
1.50738
20
0.507312
11
1.50424
21
0.503063
0
LINE
8
BLACK
6
CONTINUOUS
10
1.50424
20
0.503063
11
1.49999
21
0.499927
0
LINE
8
BLACK
6
CONTINUOUS
10
1.49999
20
0.499927
11
1.49501
21
0.498183
0
LINE
8
BLACK
6
CONTINUOUS
10
1.49501
20
0.498183
11
1.49172
21
0.497874
0
LINE
8
BLACK
6
CONTINUOUS
10
1.49172
20
0.497874
11
1.45628
21
0.497874
0
LINE
8
BLACK
6
CONTINUOUS
10
1.45628
20
0.497874
11
1.45299
21
0.498183
0
LINE
8
BLACK
6
CONTINUOUS
10
1.45299
20
0.498183
11
1.44801
21
0.499927
0
LINE
8
BLACK
6
CONTINUOUS
10
1.44801
20
0.499927
11
1.44376
21
0.503063
0
LINE
8
BLACK
6
CONTINUOUS
10
1.44376
20
0.503063
11
1.44062
21
0.507312
0
LINE
8
BLACK
6
CONTINUOUS
10
1.44062
20
0.507312
11
1.43888
21
0.512297
0
LINE
8
BLACK
6
CONTINUOUS
10
1.43888
20
0.512297
11
1.43857
21
0.515591
0
LINE
8
BLACK
6
CONTINUOUS
10
1.43857
20
0.515591
11
1.43857
21
0.53626
0
LINE
8
BLACK
6
CONTINUOUS
10
1.43857
20
0.53626
11
1.43888
21
0.539554
0
LINE
8
BLACK
6
CONTINUOUS
10
1.43888
20
0.539554
11
1.44062
21
0.544538
0
LINE
8
BLACK
6
CONTINUOUS
10
1.44062
20
0.544538
11
1.44376
21
0.548787
0
LINE
8
BLACK
6
CONTINUOUS
10
1.44376
20
0.548787
11
1.44801
21
0.551923
0
LINE
8
BLACK
6
CONTINUOUS
10
1.44801
20
0.551923
11
1.45299
21
0.553668
0
LINE
8
BLACK
6
CONTINUOUS
10
1.45299
20
0.553668
11
1.45628
21
0.553976
0
LINE
8
BLACK
6
CONTINUOUS
10
1.45628
20
0.553976
11
1.49172
21
0.553976
0
LINE
8
BLACK
6
CONTINUOUS
10
1.49172
20
0.553976
11
1.49501
21
0.553668
0
LINE
8
BLACK
6
CONTINUOUS
10
1.28399
20
0.552849
11
1.28898
21
0.551104
0
LINE
8
BLACK
6
CONTINUOUS
10
1.28898
20
0.551104
11
1.29323
21
0.547968
0
LINE
8
BLACK
6
CONTINUOUS
10
1.29323
20
0.547968
11
1.29636
21
0.543719
0
LINE
8
BLACK
6
CONTINUOUS
10
1.29636
20
0.543719
11
1.29811
21
0.538735
0
LINE
8
BLACK
6
CONTINUOUS
10
1.29811
20
0.538735
11
1.29842
21
0.535441
0
LINE
8
BLACK
6
CONTINUOUS
10
1.29842
20
0.535441
11
1.29842
21
0.515756
0
LINE
8
BLACK
6
CONTINUOUS
10
1.29842
20
0.515756
11
1.29811
21
0.512462
0
LINE
8
BLACK
6
CONTINUOUS
10
1.29811
20
0.512462
11
1.29636
21
0.507478
0
LINE
8
BLACK
6
CONTINUOUS
10
1.29636
20
0.507478
11
1.29323
21
0.503228
0
LINE
8
BLACK
6
CONTINUOUS
10
1.29323
20
0.503228
11
1.28898
21
0.500092
0
LINE
8
BLACK
6
CONTINUOUS
10
1.28898
20
0.500092
11
1.28399
21
0.498348
0
LINE
8
BLACK
6
CONTINUOUS
10
1.28399
20
0.498348
11
1.2807
21
0.498039
0
LINE
8
BLACK
6
CONTINUOUS
10
1.2807
20
0.498039
11
1.2433
21
0.498039
0
LINE
8
BLACK
6
CONTINUOUS
10
1.2433
20
0.498039
11
1.24001
21
0.498348
0
LINE
8
BLACK
6
CONTINUOUS
10
1.24001
20
0.498348
11
1.23502
21
0.500092
0
LINE
8
BLACK
6
CONTINUOUS
10
1.23502
20
0.500092
11
1.23077
21
0.503228
0
LINE
8
BLACK
6
CONTINUOUS
10
1.23077
20
0.503228
11
1.22764
21
0.507478
0
LINE
8
BLACK
6
CONTINUOUS
10
1.22764
20
0.507478
11
1.22589
21
0.512462
0
LINE
8
BLACK
6
CONTINUOUS
10
1.22589
20
0.512462
11
1.22558
21
0.515756
0
LINE
8
BLACK
6
CONTINUOUS
10
1.22558
20
0.515756
11
1.22558
21
0.535441
0
LINE
8
BLACK
6
CONTINUOUS
10
1.22558
20
0.535441
11
1.22589
21
0.538735
0
LINE
8
BLACK
6
CONTINUOUS
10
1.22589
20
0.538735
11
1.22764
21
0.543719
0
LINE
8
BLACK
6
CONTINUOUS
10
1.22764
20
0.543719
11
1.23077
21
0.547968
0
LINE
8
BLACK
6
CONTINUOUS
10
1.23077
20
0.547968
11
1.23502
21
0.551104
0
LINE
8
BLACK
6
CONTINUOUS
10
1.23502
20
0.551104
11
1.24001
21
0.552849
0
LINE
8
BLACK
6
CONTINUOUS
10
1.24001
20
0.552849
11
1.2433
21
0.553157
0
LINE
8
BLACK
6
CONTINUOUS
10
1.2433
20
0.553157
11
1.2807
21
0.553157
0
LINE
8
BLACK
6
CONTINUOUS
10
1.2807
20
0.553157
11
1.28399
21
0.552849
0
LINE
8
BLACK
6
CONTINUOUS
10
1.36301
20
0.557668
11
1.36799
21
0.555923
0
LINE
8
BLACK
6
CONTINUOUS
10
1.36799
20
0.555923
11
1.37224
21
0.552787
0
LINE
8
BLACK
6
CONTINUOUS
10
1.37224
20
0.552787
11
1.37538
21
0.548538
0
LINE
8
BLACK
6
CONTINUOUS
10
1.37538
20
0.548538
11
1.37712
21
0.543554
0
LINE
8
BLACK
6
CONTINUOUS
10
1.37712
20
0.543554
11
1.37743
21
0.54026
0
LINE
8
BLACK
6
CONTINUOUS
10
1.37743
20
0.54026
11
1.37743
21
0.519591
0
LINE
8
BLACK
6
CONTINUOUS
10
1.37743
20
0.519591
11
1.37712
21
0.516297
0
LINE
8
BLACK
6
CONTINUOUS
10
1.37712
20
0.516297
11
1.37538
21
0.511312
0
LINE
8
BLACK
6
CONTINUOUS
10
1.37538
20
0.511312
11
1.37224
21
0.507063
0
LINE
8
BLACK
6
CONTINUOUS
10
1.37224
20
0.507063
11
1.36799
21
0.503927
0
LINE
8
BLACK
6
CONTINUOUS
10
1.36799
20
0.503927
11
1.36301
21
0.502183
0
LINE
8
BLACK
6
CONTINUOUS
10
1.36301
20
0.502183
11
1.35972
21
0.501874
0
LINE
8
BLACK
6
CONTINUOUS
10
1.35972
20
0.501874
11
1.32428
21
0.501874
0
LINE
8
BLACK
6
CONTINUOUS
10
1.32428
20
0.501874
11
1.32099
21
0.502183
0
LINE
8
BLACK
6
CONTINUOUS
10
1.32099
20
0.502183
11
1.31601
21
0.503927
0
LINE
8
BLACK
6
CONTINUOUS
10
1.31601
20
0.503927
11
1.31176
21
0.507063
0
LINE
8
BLACK
6
CONTINUOUS
10
1.31176
20
0.507063
11
1.30862
21
0.511312
0
LINE
8
BLACK
6
CONTINUOUS
10
1.30862
20
0.511312
11
1.30688
21
0.516297
0
LINE
8
BLACK
6
CONTINUOUS
10
1.30688
20
0.516297
11
1.30657
21
0.519591
0
LINE
8
BLACK
6
CONTINUOUS
10
1.30657
20
0.519591
11
1.30657
21
0.54026
0
LINE
8
BLACK
6
CONTINUOUS
10
1.30657
20
0.54026
11
1.30688
21
0.543554
0
LINE
8
BLACK
6
CONTINUOUS
10
1.30688
20
0.543554
11
1.30862
21
0.548538
0
LINE
8
BLACK
6
CONTINUOUS
10
1.30862
20
0.548538
11
1.31176
21
0.552787
0
LINE
8
BLACK
6
CONTINUOUS
10
1.31176
20
0.552787
11
1.31601
21
0.555923
0
LINE
8
BLACK
6
CONTINUOUS
10
1.31601
20
0.555923
11
1.32099
21
0.557668
0
LINE
8
BLACK
6
CONTINUOUS
10
1.32099
20
0.557668
11
1.32428
21
0.557976
0
LINE
8
BLACK
6
CONTINUOUS
10
1.32428
20
0.557976
11
1.35972
21
0.557976
0
LINE
8
BLACK
6
CONTINUOUS
10
1.35972
20
0.557976
11
1.36301
21
0.557668
0
LINE
8
BLACK
6
CONTINUOUS
10
0.0330133
20
0.587275
11
0.0355678
21
0.585568
0
LINE
8
BLACK
6
CONTINUOUS
10
0.0355678
20
0.585568
11
0.0372746
21
0.583013
0
LINE
8
BLACK
6
CONTINUOUS
10
0.0372746
20
0.583013
11
0.037874
21
0.58
0
LINE
8
BLACK
6
CONTINUOUS
10
0.037874
20
0.58
11
0.037874
21
0.52
0
LINE
8
BLACK
6
CONTINUOUS
10
0.037874
20
0.52
11
0.0372746
21
0.516987
0
LINE
8
BLACK
6
CONTINUOUS
10
0.0372746
20
0.516987
11
0.0355678
21
0.514432
0
LINE
8
BLACK
6
CONTINUOUS
10
0.0355678
20
0.514432
11
0.0330133
21
0.512725
0
LINE
8
BLACK
6
CONTINUOUS
10
0.0330133
20
0.512725
11
0.03
21
0.512126
0
LINE
8
BLACK
6
CONTINUOUS
10
0.03
20
0.512126
11
-0.03
21
0.512126
0
LINE
8
BLACK
6
CONTINUOUS
10
-0.03
20
0.512126
11
-0.0330133
21
0.512725
0
LINE
8
BLACK
6
CONTINUOUS
10
-0.0330133
20
0.512725
11
-0.0355678
21
0.514432
0
LINE
8
BLACK
6
CONTINUOUS
10
-0.0355678
20
0.514432
11
-0.0372746
21
0.516987
0
LINE
8
BLACK
6
CONTINUOUS
10
-0.0372746
20
0.516987
11
-0.037874
21
0.52
0
LINE
8
BLACK
6
CONTINUOUS
10
-0.037874
20
0.52
11
-0.037874
21
0.58
0
LINE
8
BLACK
6
CONTINUOUS
10
-0.037874
20
0.58
11
-0.0372746
21
0.583013
0
LINE
8
BLACK
6
CONTINUOUS
10
-0.0372746
20
0.583013
11
-0.0355678
21
0.585568
0
LINE
8
BLACK
6
CONTINUOUS
10
-0.0355678
20
0.585568
11
-0.0330133
21
0.587275
0
LINE
8
BLACK
6
CONTINUOUS
10
-0.0330133
20
0.587275
11
-0.03
21
0.587874
0
LINE
8
BLACK
6
CONTINUOUS
10
-0.03
20
0.587874
11
0.03
21
0.587874
0
LINE
8
BLACK
6
CONTINUOUS
10
0.03
20
0.587874
11
0.0330133
21
0.587275
0
LINE
8
BLACK
6
CONTINUOUS
10
0.133013
20
0.587275
11
0.135568
21
0.585568
0
LINE
8
BLACK
6
CONTINUOUS
10
0.135568
20
0.585568
11
0.137275
21
0.583013
0
LINE
8
BLACK
6
CONTINUOUS
10
0.137275
20
0.583013
11
0.137874
21
0.58
0
LINE
8
BLACK
6
CONTINUOUS
10
0.137874
20
0.58
11
0.137874
21
0.52
0
LINE
8
BLACK
6
CONTINUOUS
10
0.137874
20
0.52
11
0.137275
21
0.516987
0
LINE
8
BLACK
6
CONTINUOUS
10
0.137275
20
0.516987
11
0.135568
21
0.514432
0
LINE
8
BLACK
6
CONTINUOUS
10
0.135568
20
0.514432
11
0.133013
21
0.512725
0
LINE
8
BLACK
6
CONTINUOUS
10
0.133013
20
0.512725
11
0.13
21
0.512126
0
LINE
8
BLACK
6
CONTINUOUS
10
0.13
20
0.512126
11
0.07
21
0.512126
0
LINE
8
BLACK
6
CONTINUOUS
10
0.07
20
0.512126
11
0.0669867
21
0.512725
0
LINE
8
BLACK
6
CONTINUOUS
10
0.0669867
20
0.512725
11
0.0644322
21
0.514432
0
LINE
8
BLACK
6
CONTINUOUS
10
0.0644322
20
0.514432
11
0.0627254
21
0.516987
0
LINE
8
BLACK
6
CONTINUOUS
10
0.0627254
20
0.516987
11
0.062126
21
0.52
0
LINE
8
BLACK
6
CONTINUOUS
10
0.062126
20
0.52
11
0.062126
21
0.58
0
LINE
8
BLACK
6
CONTINUOUS
10
0.062126
20
0.58
11
0.0627254
21
0.583013
0
LINE
8
BLACK
6
CONTINUOUS
10
0.0627254
20
0.583013
11
0.0644322
21
0.585568
0
LINE
8
BLACK
6
CONTINUOUS
10
0.0644322
20
0.585568
11
0.0669867
21
0.587275
0
LINE
8
BLACK
6
CONTINUOUS
10
0.0669867
20
0.587275
11
0.07
21
0.587874
0
LINE
8
BLACK
6
CONTINUOUS
10
0.07
20
0.587874
11
0.13
21
0.587874
0
LINE
8
BLACK
6
CONTINUOUS
10
0.13
20
0.587874
11
0.133013
21
0.587275
0
LINE
8
BLACK
6
CONTINUOUS
10
1.61201
20
0.601275
11
1.61457
21
0.599568
0
LINE
8
BLACK
6
CONTINUOUS
10
1.61457
20
0.599568
11
1.61627
21
0.597013
0
LINE
8
BLACK
6
CONTINUOUS
10
1.61627
20
0.597013
11
1.61687
21
0.594
0
LINE
8
BLACK
6
CONTINUOUS
10
1.61687
20
0.594
11
1.61687
21
0.534
0
LINE
8
BLACK
6
CONTINUOUS
10
1.61687
20
0.534
11
1.61627
21
0.530987
0
LINE
8
BLACK
6
CONTINUOUS
10
1.61627
20
0.530987
11
1.61457
21
0.528432
0
LINE
8
BLACK
6
CONTINUOUS
10
1.61457
20
0.528432
11
1.61201
21
0.526725
0
LINE
8
BLACK
6
CONTINUOUS
10
1.61201
20
0.526725
11
1.609
21
0.526126
0
LINE
8
BLACK
6
CONTINUOUS
10
1.609
20
0.526126
11
1.549
21
0.526126
0
LINE
8
BLACK
6
CONTINUOUS
10
1.549
20
0.526126
11
1.54599
21
0.526725
0
LINE
8
BLACK
6
CONTINUOUS
10
1.54599
20
0.526725
11
1.54343
21
0.528432
0
LINE
8
BLACK
6
CONTINUOUS
10
1.54343
20
0.528432
11
1.54173
21
0.530987
0
LINE
8
BLACK
6
CONTINUOUS
10
1.54173
20
0.530987
11
1.54113
21
0.534
0
LINE
8
BLACK
6
CONTINUOUS
10
1.54113
20
0.534
11
1.54113
21
0.594
0
LINE
8
BLACK
6
CONTINUOUS
10
1.54113
20
0.594
11
1.54173
21
0.597013
0
LINE
8
BLACK
6
CONTINUOUS
10
1.54173
20
0.597013
11
1.54343
21
0.599568
0
LINE
8
BLACK
6
CONTINUOUS
10
1.54343
20
0.599568
11
1.54599
21
0.601275
0
LINE
8
BLACK
6
CONTINUOUS
10
1.54599
20
0.601275
11
1.549
21
0.601874
0
LINE
8
BLACK
6
CONTINUOUS
10
1.549
20
0.601874
11
1.609
21
0.601874
0
LINE
8
BLACK
6
CONTINUOUS
10
1.609
20
0.601874
11
1.61201
21
0.601275
0
LINE
8
BLACK
6
CONTINUOUS
10
1.71201
20
0.601275
11
1.71457
21
0.599568
0
LINE
8
BLACK
6
CONTINUOUS
10
1.71457
20
0.599568
11
1.71627
21
0.597013
0
LINE
8
BLACK
6
CONTINUOUS
10
1.71627
20
0.597013
11
1.71687
21
0.594
0
LINE
8
BLACK
6
CONTINUOUS
10
1.71687
20
0.594
11
1.71687
21
0.534
0
LINE
8
BLACK
6
CONTINUOUS
10
1.71687
20
0.534
11
1.71627
21
0.530987
0
LINE
8
BLACK
6
CONTINUOUS
10
1.71627
20
0.530987
11
1.71457
21
0.528432
0
LINE
8
BLACK
6
CONTINUOUS
10
1.71457
20
0.528432
11
1.71201
21
0.526725
0
LINE
8
BLACK
6
CONTINUOUS
10
1.71201
20
0.526725
11
1.709
21
0.526126
0
LINE
8
BLACK
6
CONTINUOUS
10
1.709
20
0.526126
11
1.649
21
0.526126
0
LINE
8
BLACK
6
CONTINUOUS
10
1.649
20
0.526126
11
1.64599
21
0.526725
0
LINE
8
BLACK
6
CONTINUOUS
10
1.64599
20
0.526725
11
1.64343
21
0.528432
0
LINE
8
BLACK
6
CONTINUOUS
10
1.64343
20
0.528432
11
1.64173
21
0.530987
0
LINE
8
BLACK
6
CONTINUOUS
10
1.64173
20
0.530987
11
1.64113
21
0.534
0
LINE
8
BLACK
6
CONTINUOUS
10
1.64113
20
0.534
11
1.64113
21
0.594
0
LINE
8
BLACK
6
CONTINUOUS
10
1.64113
20
0.594
11
1.64173
21
0.597013
0
LINE
8
BLACK
6
CONTINUOUS
10
1.64173
20
0.597013
11
1.64343
21
0.599568
0
LINE
8
BLACK
6
CONTINUOUS
10
1.64343
20
0.599568
11
1.64599
21
0.601275
0
LINE
8
BLACK
6
CONTINUOUS
10
1.64599
20
0.601275
11
1.649
21
0.601874
0
LINE
8
BLACK
6
CONTINUOUS
10
1.649
20
0.601874
11
1.709
21
0.601874
0
LINE
8
BLACK
6
CONTINUOUS
10
1.709
20
0.601874
11
1.71201
21
0.601275
0
LINE
8
BLACK
6
CONTINUOUS
10
0.621333
20
0.60864
11
0.625409
21
0.606648
0
LINE
8
BLACK
6
CONTINUOUS
10
0.625409
20
0.606648
11
0.628616
21
0.60344
0
LINE
8
BLACK
6
CONTINUOUS
10
0.628616
20
0.60344
11
0.630608
21
0.599365
0
LINE
8
BLACK
6
CONTINUOUS
10
0.630608
20
0.599365
11
0.631181
21
0.595433
0
LINE
8
BLACK
6
CONTINUOUS
10
0.631181
20
0.595433
11
0.631181
21
0.549173
0
LINE
8
BLACK
6
CONTINUOUS
10
0.631181
20
0.549173
11
0.630608
21
0.545241
0
LINE
8
BLACK
6
CONTINUOUS
10
0.630608
20
0.545241
11
0.628616
21
0.541166
0
LINE
8
BLACK
6
CONTINUOUS
10
0.628616
20
0.541166
11
0.625409
21
0.537959
0
LINE
8
BLACK
6
CONTINUOUS
10
0.625409
20
0.537959
11
0.621333
21
0.535967
0
LINE
8
BLACK
6
CONTINUOUS
10
0.621333
20
0.535967
11
0.617402
21
0.535394
0
LINE
8
BLACK
6
CONTINUOUS
10
0.617402
20
0.535394
11
0.605591
21
0.535394
0
LINE
8
BLACK
6
CONTINUOUS
10
0.605591
20
0.535394
11
0.601659
21
0.535967
0
LINE
8
BLACK
6
CONTINUOUS
10
0.601659
20
0.535967
11
0.597584
21
0.537959
0
LINE
8
BLACK
6
CONTINUOUS
10
0.597584
20
0.537959
11
0.594376
21
0.541166
0
LINE
8
BLACK
6
CONTINUOUS
10
0.594376
20
0.541166
11
0.592384
21
0.545241
0
LINE
8
BLACK
6
CONTINUOUS
10
0.592384
20
0.545241
11
0.591811
21
0.549173
0
LINE
8
BLACK
6
CONTINUOUS
10
0.591811
20
0.549173
11
0.591811
21
0.595433
0
LINE
8
BLACK
6
CONTINUOUS
10
0.591811
20
0.595433
11
0.592384
21
0.599365
0
LINE
8
BLACK
6
CONTINUOUS
10
0.592384
20
0.599365
11
0.594376
21
0.60344
0
LINE
8
BLACK
6
CONTINUOUS
10
0.594376
20
0.60344
11
0.597584
21
0.606648
0
LINE
8
BLACK
6
CONTINUOUS
10
0.597584
20
0.606648
11
0.601659
21
0.60864
0
LINE
8
BLACK
6
CONTINUOUS
10
0.601659
20
0.60864
11
0.605591
21
0.609213
0
LINE
8
BLACK
6
CONTINUOUS
10
0.605591
20
0.609213
11
0.617402
21
0.609213
0
LINE
8
BLACK
6
CONTINUOUS
10
0.617402
20
0.609213
11
0.621333
21
0.60864
0
LINE
8
BLACK
6
CONTINUOUS
10
0.696137
20
0.60864
11
0.700212
21
0.606648
0
LINE
8
BLACK
6
CONTINUOUS
10
0.700212
20
0.606648
11
0.703419
21
0.60344
0
LINE
8
BLACK
6
CONTINUOUS
10
0.703419
20
0.60344
11
0.705411
21
0.599365
0
LINE
8
BLACK
6
CONTINUOUS
10
0.705411
20
0.599365
11
0.705984
21
0.595433
0
LINE
8
BLACK
6
CONTINUOUS
10
0.705984
20
0.595433
11
0.705984
21
0.549173
0
LINE
8
BLACK
6
CONTINUOUS
10
0.705984
20
0.549173
11
0.705411
21
0.545241
0
LINE
8
BLACK
6
CONTINUOUS
10
0.705411
20
0.545241
11
0.703419
21
0.541166
0
LINE
8
BLACK
6
CONTINUOUS
10
0.703419
20
0.541166
11
0.700212
21
0.537959
0
LINE
8
BLACK
6
CONTINUOUS
10
0.700212
20
0.537959
11
0.696137
21
0.535967
0
LINE
8
BLACK
6
CONTINUOUS
10
0.696137
20
0.535967
11
0.692205
21
0.535394
0
LINE
8
BLACK
6
CONTINUOUS
10
0.692205
20
0.535394
11
0.680394
21
0.535394
0
LINE
8
BLACK
6
CONTINUOUS
10
0.680394
20
0.535394
11
0.676462
21
0.535967
0
LINE
8
BLACK
6
CONTINUOUS
10
0.676462
20
0.535967
11
0.672387
21
0.537959
0
LINE
8
BLACK
6
CONTINUOUS
10
0.672387
20
0.537959
11
0.669179
21
0.541166
0
LINE
8
BLACK
6
CONTINUOUS
10
0.669179
20
0.541166
11
0.667187
21
0.545241
0
LINE
8
BLACK
6
CONTINUOUS
10
0.667187
20
0.545241
11
0.666614
21
0.549173
0
LINE
8
BLACK
6
CONTINUOUS
10
0.666614
20
0.549173
11
0.666614
21
0.595433
0
LINE
8
BLACK
6
CONTINUOUS
10
0.666614
20
0.595433
11
0.667187
21
0.599365
0
LINE
8
BLACK
6
CONTINUOUS
10
0.667187
20
0.599365
11
0.669179
21
0.60344
0
LINE
8
BLACK
6
CONTINUOUS
10
0.669179
20
0.60344
11
0.672387
21
0.606648
0
LINE
8
BLACK
6
CONTINUOUS
10
0.672387
20
0.606648
11
0.676462
21
0.60864
0
LINE
8
BLACK
6
CONTINUOUS
10
0.676462
20
0.60864
11
0.680394
21
0.609213
0
LINE
8
BLACK
6
CONTINUOUS
10
0.680394
20
0.609213
11
0.692205
21
0.609213
0
LINE
8
BLACK
6
CONTINUOUS
10
0.692205
20
0.609213
11
0.696137
21
0.60864
0
LINE
8
BLACK
6
CONTINUOUS
10
0.401994
20
0.594652
11
0.406979
21
0.592908
0
LINE
8
BLACK
6
CONTINUOUS
10
0.406979
20
0.592908
11
0.411228
21
0.589772
0
LINE
8
BLACK
6
CONTINUOUS
10
0.411228
20
0.589772
11
0.414364
21
0.585522
0
LINE
8
BLACK
6
CONTINUOUS
10
0.414364
20
0.585522
11
0.416108
21
0.580538
0
LINE
8
BLACK
6
CONTINUOUS
10
0.416108
20
0.580538
11
0.416417
21
0.577244
0
LINE
8
BLACK
6
CONTINUOUS
10
0.416417
20
0.577244
11
0.416417
21
0.557559
0
LINE
8
BLACK
6
CONTINUOUS
10
0.416417
20
0.557559
11
0.416108
21
0.554265
0
LINE
8
BLACK
6
CONTINUOUS
10
0.416108
20
0.554265
11
0.414364
21
0.549281
0
LINE
8
BLACK
6
CONTINUOUS
10
0.414364
20
0.549281
11
0.411228
21
0.545032
0
LINE
8
BLACK
6
CONTINUOUS
10
0.411228
20
0.545032
11
0.406979
21
0.541896
0
LINE
8
BLACK
6
CONTINUOUS
10
0.406979
20
0.541896
11
0.401994
21
0.540151
0
LINE
8
BLACK
6
CONTINUOUS
10
0.401994
20
0.540151
11
0.398701
21
0.539843
0
LINE
8
BLACK
6
CONTINUOUS
10
0.398701
20
0.539843
11
0.361299
21
0.539843
0
LINE
8
BLACK
6
CONTINUOUS
10
0.361299
20
0.539843
11
0.358006
21
0.540151
0
LINE
8
BLACK
6
CONTINUOUS
10
0.358006
20
0.540151
11
0.353021
21
0.541896
0
LINE
8
BLACK
6
CONTINUOUS
10
0.353021
20
0.541896
11
0.348772
21
0.545032
0
LINE
8
BLACK
6
CONTINUOUS
10
0.348772
20
0.545032
11
0.345636
21
0.549281
0
LINE
8
BLACK
6
CONTINUOUS
10
0.345636
20
0.549281
11
0.343892
21
0.554265
0
LINE
8
BLACK
6
CONTINUOUS
10
0.343892
20
0.554265
11
0.343583
21
0.557559
0
LINE
8
BLACK
6
CONTINUOUS
10
0.343583
20
0.557559
11
0.343583
21
0.577244
0
LINE
8
BLACK
6
CONTINUOUS
10
0.343583
20
0.577244
11
0.343892
21
0.580538
0
LINE
8
BLACK
6
CONTINUOUS
10
0.343892
20
0.580538
11
0.345636
21
0.585522
0
LINE
8
BLACK
6
CONTINUOUS
10
0.345636
20
0.585522
11
0.348772
21
0.589772
0
LINE
8
BLACK
6
CONTINUOUS
10
0.348772
20
0.589772
11
0.353021
21
0.592908
0
LINE
8
BLACK
6
CONTINUOUS
10
0.353021
20
0.592908
11
0.358006
21
0.594652
0
LINE
8
BLACK
6
CONTINUOUS
10
0.358006
20
0.594652
11
0.361299
21
0.594961
0
LINE
8
BLACK
6
CONTINUOUS
10
0.361299
20
0.594961
11
0.398701
21
0.594961
0
LINE
8
BLACK
6
CONTINUOUS
10
0.398701
20
0.594961
11
0.401994
21
0.594652
0
LINE
8
BLACK
6
CONTINUOUS
10
1.34573
20
0.638108
11
1.35072
21
0.636364
0
LINE
8
BLACK
6
CONTINUOUS
10
1.35072
20
0.636364
11
1.35497
21
0.633228
0
LINE
8
BLACK
6
CONTINUOUS
10
1.35497
20
0.633228
11
1.3581
21
0.628979
0
LINE
8
BLACK
6
CONTINUOUS
10
1.3581
20
0.628979
11
1.35985
21
0.623994
0
LINE
8
BLACK
6
CONTINUOUS
10
1.35985
20
0.623994
11
1.36016
21
0.620701
0
LINE
8
BLACK
6
CONTINUOUS
10
1.36016
20
0.620701
11
1.36016
21
0.583299
0
LINE
8
BLACK
6
CONTINUOUS
10
1.36016
20
0.583299
11
1.35985
21
0.580006
0
LINE
8
BLACK
6
CONTINUOUS
10
1.35985
20
0.580006
11
1.3581
21
0.575021
0
LINE
8
BLACK
6
CONTINUOUS
10
1.3581
20
0.575021
11
1.35497
21
0.570772
0
LINE
8
BLACK
6
CONTINUOUS
10
1.35497
20
0.570772
11
1.35072
21
0.567636
0
LINE
8
BLACK
6
CONTINUOUS
10
1.35072
20
0.567636
11
1.34573
21
0.565892
0
LINE
8
BLACK
6
CONTINUOUS
10
1.34573
20
0.565892
11
1.34244
21
0.565583
0
LINE
8
BLACK
6
CONTINUOUS
10
1.34244
20
0.565583
11
1.32276
21
0.565583
0
LINE
8
BLACK
6
CONTINUOUS
10
1.32276
20
0.565583
11
1.31946
21
0.565892
0
LINE
8
BLACK
6
CONTINUOUS
10
1.31946
20
0.565892
11
1.31448
21
0.567636
0
LINE
8
BLACK
6
CONTINUOUS
10
1.31448
20
0.567636
11
1.31023
21
0.570772
0
LINE
8
BLACK
6
CONTINUOUS
10
1.31023
20
0.570772
11
1.30709
21
0.575021
0
LINE
8
BLACK
6
CONTINUOUS
10
1.30709
20
0.575021
11
1.30535
21
0.580006
0
LINE
8
BLACK
6
CONTINUOUS
10
1.30535
20
0.580006
11
1.30504
21
0.583299
0
LINE
8
BLACK
6
CONTINUOUS
10
1.30504
20
0.583299
11
1.30504
21
0.620701
0
LINE
8
BLACK
6
CONTINUOUS
10
1.30504
20
0.620701
11
1.30535
21
0.623994
0
LINE
8
BLACK
6
CONTINUOUS
10
1.30535
20
0.623994
11
1.30709
21
0.628979
0
LINE
8
BLACK
6
CONTINUOUS
10
1.30709
20
0.628979
11
1.31023
21
0.633228
0
LINE
8
BLACK
6
CONTINUOUS
10
1.31023
20
0.633228
11
1.31448
21
0.636364
0
LINE
8
BLACK
6
CONTINUOUS
10
1.31448
20
0.636364
11
1.31946
21
0.638108
0
LINE
8
BLACK
6
CONTINUOUS
10
1.31946
20
0.638108
11
1.32276
21
0.638417
0
LINE
8
BLACK
6
CONTINUOUS
10
1.32276
20
0.638417
11
1.34244
21
0.638417
0
LINE
8
BLACK
6
CONTINUOUS
10
1.34244
20
0.638417
11
1.34573
21
0.638108
0
LINE
8
BLACK
6
CONTINUOUS
10
1.42054
20
0.638108
11
1.42552
21
0.636364
0
LINE
8
BLACK
6
CONTINUOUS
10
1.42552
20
0.636364
11
1.42977
21
0.633228
0
LINE
8
BLACK
6
CONTINUOUS
10
1.42977
20
0.633228
11
1.43291
21
0.628979
0
LINE
8
BLACK
6
CONTINUOUS
10
1.43291
20
0.628979
11
1.43465
21
0.623994
0
LINE
8
BLACK
6
CONTINUOUS
10
1.43465
20
0.623994
11
1.43496
21
0.620701
0
LINE
8
BLACK
6
CONTINUOUS
10
1.43496
20
0.620701
11
1.43496
21
0.583299
0
LINE
8
BLACK
6
CONTINUOUS
10
1.43496
20
0.583299
11
1.43465
21
0.580006
0
LINE
8
BLACK
6
CONTINUOUS
10
1.43465
20
0.580006
11
1.43291
21
0.575021
0
LINE
8
BLACK
6
CONTINUOUS
10
1.43291
20
0.575021
11
1.42977
21
0.570772
0
LINE
8
BLACK
6
CONTINUOUS
10
1.42977
20
0.570772
11
1.42552
21
0.567636
0
LINE
8
BLACK
6
CONTINUOUS
10
1.42552
20
0.567636
11
1.42054
21
0.565892
0
LINE
8
BLACK
6
CONTINUOUS
10
1.42054
20
0.565892
11
1.41724
21
0.565583
0
LINE
8
BLACK
6
CONTINUOUS
10
1.41724
20
0.565583
11
1.39756
21
0.565583
0
LINE
8
BLACK
6
CONTINUOUS
10
1.39756
20
0.565583
11
1.39427
21
0.565892
0
LINE
8
BLACK
6
CONTINUOUS
10
1.39427
20
0.565892
11
1.38928
21
0.567636
0
LINE
8
BLACK
6
CONTINUOUS
10
1.38928
20
0.567636
11
1.38503
21
0.570772
0
LINE
8
BLACK
6
CONTINUOUS
10
1.38503
20
0.570772
11
1.3819
21
0.575021
0
LINE
8
BLACK
6
CONTINUOUS
10
1.3819
20
0.575021
11
1.38015
21
0.580006
0
LINE
8
BLACK
6
CONTINUOUS
10
1.38015
20
0.580006
11
1.37984
21
0.583299
0
LINE
8
BLACK
6
CONTINUOUS
10
1.37984
20
0.583299
11
1.37984
21
0.620701
0
LINE
8
BLACK
6
CONTINUOUS
10
1.37984
20
0.620701
11
1.38015
21
0.623994
0
LINE
8
BLACK
6
CONTINUOUS
10
1.38015
20
0.623994
11
1.3819
21
0.628979
0
LINE
8
BLACK
6
CONTINUOUS
10
1.3819
20
0.628979
11
1.38503
21
0.633228
0
LINE
8
BLACK
6
CONTINUOUS
10
1.38503
20
0.633228
11
1.38928
21
0.636364
0
LINE
8
BLACK
6
CONTINUOUS
10
1.38928
20
0.636364
11
1.39427
21
0.638108
0
LINE
8
BLACK
6
CONTINUOUS
10
1.39427
20
0.638108
11
1.39756
21
0.638417
0
LINE
8
BLACK
6
CONTINUOUS
10
1.39756
20
0.638417
11
1.41724
21
0.638417
0
LINE
8
BLACK
6
CONTINUOUS
10
1.41724
20
0.638417
11
1.42054
21
0.638108
0
LINE
8
BLACK
6
CONTINUOUS
10
0.265994
20
0.621152
11
0.270979
21
0.619408
0
LINE
8
BLACK
6
CONTINUOUS
10
0.270979
20
0.619408
11
0.275228
21
0.616272
0
LINE
8
BLACK
6
CONTINUOUS
10
0.275228
20
0.616272
11
0.278364
21
0.612022
0
LINE
8
BLACK
6
CONTINUOUS
10
0.278364
20
0.612022
11
0.280108
21
0.607038
0
LINE
8
BLACK
6
CONTINUOUS
10
0.280108
20
0.607038
11
0.280417
21
0.603744
0
LINE
8
BLACK
6
CONTINUOUS
10
0.280417
20
0.603744
11
0.280417
21
0.584059
0
LINE
8
BLACK
6
CONTINUOUS
10
0.280417
20
0.584059
11
0.280108
21
0.580765
0
LINE
8
BLACK
6
CONTINUOUS
10
0.280108
20
0.580765
11
0.278364
21
0.575781
0
LINE
8
BLACK
6
CONTINUOUS
10
0.278364
20
0.575781
11
0.275228
21
0.571532
0
LINE
8
BLACK
6
CONTINUOUS
10
0.275228
20
0.571532
11
0.270979
21
0.568396
0
LINE
8
BLACK
6
CONTINUOUS
10
0.270979
20
0.568396
11
0.265994
21
0.566651
0
LINE
8
BLACK
6
CONTINUOUS
10
0.265994
20
0.566651
11
0.262701
21
0.566343
0
LINE
8
BLACK
6
CONTINUOUS
10
0.262701
20
0.566343
11
0.225299
21
0.566343
0
LINE
8
BLACK
6
CONTINUOUS
10
0.225299
20
0.566343
11
0.222006
21
0.566651
0
LINE
8
BLACK
6
CONTINUOUS
10
0.222006
20
0.566651
11
0.217021
21
0.568396
0
LINE
8
BLACK
6
CONTINUOUS
10
0.217021
20
0.568396
11
0.212772
21
0.571532
0
LINE
8
BLACK
6
CONTINUOUS
10
0.212772
20
0.571532
11
0.209636
21
0.575781
0
LINE
8
BLACK
6
CONTINUOUS
10
0.209636
20
0.575781
11
0.207892
21
0.580765
0
LINE
8
BLACK
6
CONTINUOUS
10
0.207892
20
0.580765
11
0.207583
21
0.584059
0
LINE
8
BLACK
6
CONTINUOUS
10
0.207583
20
0.584059
11
0.207583
21
0.603744
0
LINE
8
BLACK
6
CONTINUOUS
10
0.207583
20
0.603744
11
0.207892
21
0.607038
0
LINE
8
BLACK
6
CONTINUOUS
10
0.207892
20
0.607038
11
0.209636
21
0.612022
0
LINE
8
BLACK
6
CONTINUOUS
10
0.209636
20
0.612022
11
0.212772
21
0.616272
0
LINE
8
BLACK
6
CONTINUOUS
10
0.212772
20
0.616272
11
0.217021
21
0.619408
0
LINE
8
BLACK
6
CONTINUOUS
10
0.217021
20
0.619408
11
0.222006
21
0.621152
0
LINE
8
BLACK
6
CONTINUOUS
10
0.222006
20
0.621152
11
0.225299
21
0.621461
0
LINE
8
BLACK
6
CONTINUOUS
10
0.225299
20
0.621461
11
0.262701
21
0.621461
0
LINE
8
BLACK
6
CONTINUOUS
10
0.262701
20
0.621461
11
0.265994
21
0.621152
0
LINE
8
BLACK
6
CONTINUOUS
10
1.28399
20
0.627652
11
1.28898
21
0.625908
0
LINE
8
BLACK
6
CONTINUOUS
10
1.28898
20
0.625908
11
1.29323
21
0.622772
0
LINE
8
BLACK
6
CONTINUOUS
10
1.29323
20
0.622772
11
1.29636
21
0.618522
0
LINE
8
BLACK
6
CONTINUOUS
10
1.29636
20
0.618522
11
1.29811
21
0.613538
0
LINE
8
BLACK
6
CONTINUOUS
10
1.29811
20
0.613538
11
1.29842
21
0.610244
0
LINE
8
BLACK
6
CONTINUOUS
10
1.29842
20
0.610244
11
1.29842
21
0.590559
0
LINE
8
BLACK
6
CONTINUOUS
10
1.29842
20
0.590559
11
1.29811
21
0.587265
0
LINE
8
BLACK
6
CONTINUOUS
10
1.29811
20
0.587265
11
1.29636
21
0.582281
0
LINE
8
BLACK
6
CONTINUOUS
10
1.29636
20
0.582281
11
1.29323
21
0.578032
0
LINE
8
BLACK
6
CONTINUOUS
10
1.29323
20
0.578032
11
1.28898
21
0.574896
0
LINE
8
BLACK
6
CONTINUOUS
10
1.28898
20
0.574896
11
1.28399
21
0.573151
0
LINE
8
BLACK
6
CONTINUOUS
10
1.28399
20
0.573151
11
1.2807
21
0.572843
0
LINE
8
BLACK
6
CONTINUOUS
10
1.2807
20
0.572843
11
1.2433
21
0.572843
0
LINE
8
BLACK
6
CONTINUOUS
10
1.2433
20
0.572843
11
1.24001
21
0.573151
0
LINE
8
BLACK
6
CONTINUOUS
10
1.24001
20
0.573151
11
1.23502
21
0.574896
0
LINE
8
BLACK
6
CONTINUOUS
10
1.23502
20
0.574896
11
1.23077
21
0.578032
0
LINE
8
BLACK
6
CONTINUOUS
10
1.23077
20
0.578032
11
1.22764
21
0.582281
0
LINE
8
BLACK
6
CONTINUOUS
10
1.22764
20
0.582281
11
1.22589
21
0.587265
0
LINE
8
BLACK
6
CONTINUOUS
10
1.22589
20
0.587265
11
1.22558
21
0.590559
0
LINE
8
BLACK
6
CONTINUOUS
10
1.22558
20
0.590559
11
1.22558
21
0.610244
0
LINE
8
BLACK
6
CONTINUOUS
10
1.22558
20
0.610244
11
1.22589
21
0.613538
0
LINE
8
BLACK
6
CONTINUOUS
10
1.22589
20
0.613538
11
1.22764
21
0.618522
0
LINE
8
BLACK
6
CONTINUOUS
10
1.22764
20
0.618522
11
1.23077
21
0.622772
0
LINE
8
BLACK
6
CONTINUOUS
10
1.23077
20
0.622772
11
1.23502
21
0.625908
0
LINE
8
BLACK
6
CONTINUOUS
10
1.23502
20
0.625908
11
1.24001
21
0.627652
0
LINE
8
BLACK
6
CONTINUOUS
10
1.24001
20
0.627652
11
1.2433
21
0.627961
0
LINE
8
BLACK
6
CONTINUOUS
10
1.2433
20
0.627961
11
1.2807
21
0.627961
0
LINE
8
BLACK
6
CONTINUOUS
10
1.2807
20
0.627961
11
1.28399
21
0.627652
0
LINE
8
BLACK
6
CONTINUOUS
10
0.40101
20
0.666817
11
0.405995
21
0.665073
0
LINE
8
BLACK
6
CONTINUOUS
10
0.405995
20
0.665073
11
0.410244
21
0.661937
0
LINE
8
BLACK
6
CONTINUOUS
10
0.410244
20
0.661937
11
0.41338
21
0.657688
0
LINE
8
BLACK
6
CONTINUOUS
10
0.41338
20
0.657688
11
0.415124
21
0.652703
0
LINE
8
BLACK
6
CONTINUOUS
10
0.415124
20
0.652703
11
0.415433
21
0.649409
0
LINE
8
BLACK
6
CONTINUOUS
10
0.415433
20
0.649409
11
0.415433
21
0.62874
0
LINE
8
BLACK
6
CONTINUOUS
10
0.415433
20
0.62874
11
0.415124
21
0.625446
0
LINE
8
BLACK
6
CONTINUOUS
10
0.415124
20
0.625446
11
0.41338
21
0.620462
0
LINE
8
BLACK
6
CONTINUOUS
10
0.41338
20
0.620462
11
0.410244
21
0.616213
0
LINE
8
BLACK
6
CONTINUOUS
10
0.410244
20
0.616213
11
0.405995
21
0.613077
0
LINE
8
BLACK
6
CONTINUOUS
10
0.405995
20
0.613077
11
0.40101
21
0.611332
0
LINE
8
BLACK
6
CONTINUOUS
10
0.40101
20
0.611332
11
0.397717
21
0.611024
0
LINE
8
BLACK
6
CONTINUOUS
10
0.397717
20
0.611024
11
0.362283
21
0.611024
0
LINE
8
BLACK
6
CONTINUOUS
10
0.362283
20
0.611024
11
0.35899
21
0.611332
0
LINE
8
BLACK
6
CONTINUOUS
10
0.35899
20
0.611332
11
0.354005
21
0.613077
0
LINE
8
BLACK
6
CONTINUOUS
10
0.354005
20
0.613077
11
0.349756
21
0.616213
0
LINE
8
BLACK
6
CONTINUOUS
10
0.349756
20
0.616213
11
0.34662
21
0.620462
0
LINE
8
BLACK
6
CONTINUOUS
10
0.34662
20
0.620462
11
0.344876
21
0.625446
0
LINE
8
BLACK
6
CONTINUOUS
10
0.344876
20
0.625446
11
0.344567
21
0.62874
0
LINE
8
BLACK
6
CONTINUOUS
10
0.344567
20
0.62874
11
0.344567
21
0.649409
0
LINE
8
BLACK
6
CONTINUOUS
10
0.344567
20
0.649409
11
0.344876
21
0.652703
0
LINE
8
BLACK
6
CONTINUOUS
10
0.344876
20
0.652703
11
0.34662
21
0.657688
0
LINE
8
BLACK
6
CONTINUOUS
10
0.34662
20
0.657688
11
0.349756
21
0.661937
0
LINE
8
BLACK
6
CONTINUOUS
10
0.349756
20
0.661937
11
0.354005
21
0.665073
0
LINE
8
BLACK
6
CONTINUOUS
10
0.354005
20
0.665073
11
0.35899
21
0.666817
0
LINE
8
BLACK
6
CONTINUOUS
10
0.35899
20
0.666817
11
0.362283
21
0.667126
0
LINE
8
BLACK
6
CONTINUOUS
10
0.362283
20
0.667126
11
0.397717
21
0.667126
0
LINE
8
BLACK
6
CONTINUOUS
10
0.397717
20
0.667126
11
0.40101
21
0.666817
0
LINE
8
BLACK
6
CONTINUOUS
10
0.843013
20
0.687275
11
0.845568
21
0.685568
0
LINE
8
BLACK
6
CONTINUOUS
10
0.845568
20
0.685568
11
0.847275
21
0.683013
0
LINE
8
BLACK
6
CONTINUOUS
10
0.847275
20
0.683013
11
0.847874
21
0.68
0
LINE
8
BLACK
6
CONTINUOUS
10
0.847874
20
0.68
11
0.847874
21
0.62
0
LINE
8
BLACK
6
CONTINUOUS
10
0.847874
20
0.62
11
0.847275
21
0.616987
0
LINE
8
BLACK
6
CONTINUOUS
10
0.847275
20
0.616987
11
0.845568
21
0.614432
0
LINE
8
BLACK
6
CONTINUOUS
10
0.845568
20
0.614432
11
0.843013
21
0.612725
0
LINE
8
BLACK
6
CONTINUOUS
10
0.843013
20
0.612725
11
0.84
21
0.612126
0
LINE
8
BLACK
6
CONTINUOUS
10
0.84
20
0.612126
11
0.78
21
0.612126
0
LINE
8
BLACK
6
CONTINUOUS
10
0.78
20
0.612126
11
0.776987
21
0.612725
0
LINE
8
BLACK
6
CONTINUOUS
10
0.776987
20
0.612725
11
0.774432
21
0.614432
0
LINE
8
BLACK
6
CONTINUOUS
10
0.774432
20
0.614432
11
0.772725
21
0.616987
0
LINE
8
BLACK
6
CONTINUOUS
10
0.772725
20
0.616987
11
0.772126
21
0.62
0
LINE
8
BLACK
6
CONTINUOUS
10
0.772126
20
0.62
11
0.772126
21
0.68
0
LINE
8
BLACK
6
CONTINUOUS
10
0.772126
20
0.68
11
0.772725
21
0.683013
0
LINE
8
BLACK
6
CONTINUOUS
10
0.772725
20
0.683013
11
0.774432
21
0.685568
0
LINE
8
BLACK
6
CONTINUOUS
10
0.774432
20
0.685568
11
0.776987
21
0.687275
0
LINE
8
BLACK
6
CONTINUOUS
10
0.776987
20
0.687275
11
0.78
21
0.687874
0
LINE
8
BLACK
6
CONTINUOUS
10
0.78
20
0.687874
11
0.84
21
0.687874
0
LINE
8
BLACK
6
CONTINUOUS
10
0.84
20
0.687874
11
0.843013
21
0.687275
0
LINE
8
BLACK
6
CONTINUOUS
10
1.03801
20
0.679775
11
1.04057
21
0.678068
0
LINE
8
BLACK
6
CONTINUOUS
10
1.04057
20
0.678068
11
1.04227
21
0.675513
0
LINE
8
BLACK
6
CONTINUOUS
10
1.04227
20
0.675513
11
1.04287
21
0.6725
0
LINE
8
BLACK
6
CONTINUOUS
10
1.04287
20
0.6725
11
1.04287
21
0.6275
0
LINE
8
BLACK
6
CONTINUOUS
10
1.04287
20
0.6275
11
1.04227
21
0.624487
0
LINE
8
BLACK
6
CONTINUOUS
10
1.04227
20
0.624487
11
1.04057
21
0.621932
0
LINE
8
BLACK
6
CONTINUOUS
10
1.04057
20
0.621932
11
1.03801
21
0.620225
0
LINE
8
BLACK
6
CONTINUOUS
10
1.03801
20
0.620225
11
1.035
21
0.619626
0
LINE
8
BLACK
6
CONTINUOUS
10
1.035
20
0.619626
11
1.015
21
0.619626
0
LINE
8
BLACK
6
CONTINUOUS
10
1.015
20
0.619626
11
1.01199
21
0.620225
0
LINE
8
BLACK
6
CONTINUOUS
10
1.01199
20
0.620225
11
1.00943
21
0.621932
0
LINE
8
BLACK
6
CONTINUOUS
10
1.00943
20
0.621932
11
1.00773
21
0.624487
0
LINE
8
BLACK
6
CONTINUOUS
10
1.00773
20
0.624487
11
1.00713
21
0.6275
0
LINE
8
BLACK
6
CONTINUOUS
10
1.00713
20
0.6275
11
1.00713
21
0.6725
0
LINE
8
BLACK
6
CONTINUOUS
10
1.00713
20
0.6725
11
1.00773
21
0.675513
0
LINE
8
BLACK
6
CONTINUOUS
10
1.00773
20
0.675513
11
1.00943
21
0.678068
0
LINE
8
BLACK
6
CONTINUOUS
10
1.00943
20
0.678068
11
1.01199
21
0.679775
0
LINE
8
BLACK
6
CONTINUOUS
10
1.01199
20
0.679775
11
1.015
21
0.680374
0
LINE
8
BLACK
6
CONTINUOUS
10
1.015
20
0.680374
11
1.035
21
0.680374
0
LINE
8
BLACK
6
CONTINUOUS
10
1.035
20
0.680374
11
1.03801
21
0.679775
0
LINE
8
BLACK
6
CONTINUOUS
10
1.08801
20
0.679775
11
1.09057
21
0.678068
0
LINE
8
BLACK
6
CONTINUOUS
10
1.09057
20
0.678068
11
1.09227
21
0.675513
0
LINE
8
BLACK
6
CONTINUOUS
10
1.09227
20
0.675513
11
1.09287
21
0.6725
0
LINE
8
BLACK
6
CONTINUOUS
10
1.09287
20
0.6725
11
1.09287
21
0.6275
0
LINE
8
BLACK
6
CONTINUOUS
10
1.09287
20
0.6275
11
1.09227
21
0.624487
0
LINE
8
BLACK
6
CONTINUOUS
10
1.09227
20
0.624487
11
1.09057
21
0.621932
0
LINE
8
BLACK
6
CONTINUOUS
10
1.09057
20
0.621932
11
1.08801
21
0.620225
0
LINE
8
BLACK
6
CONTINUOUS
10
1.08801
20
0.620225
11
1.085
21
0.619626
0
LINE
8
BLACK
6
CONTINUOUS
10
1.085
20
0.619626
11
1.065
21
0.619626
0
LINE
8
BLACK
6
CONTINUOUS
10
1.065
20
0.619626
11
1.06199
21
0.620225
0
LINE
8
BLACK
6
CONTINUOUS
10
1.06199
20
0.620225
11
1.05943
21
0.621932
0
LINE
8
BLACK
6
CONTINUOUS
10
1.05943
20
0.621932
11
1.05773
21
0.624487
0
LINE
8
BLACK
6
CONTINUOUS
10
1.05773
20
0.624487
11
1.05713
21
0.6275
0
LINE
8
BLACK
6
CONTINUOUS
10
1.05713
20
0.6275
11
1.05713
21
0.6725
0
LINE
8
BLACK
6
CONTINUOUS
10
1.05713
20
0.6725
11
1.05773
21
0.675513
0
LINE
8
BLACK
6
CONTINUOUS
10
1.05773
20
0.675513
11
1.05943
21
0.678068
0
LINE
8
BLACK
6
CONTINUOUS
10
1.05943
20
0.678068
11
1.06199
21
0.679775
0
LINE
8
BLACK
6
CONTINUOUS
10
1.06199
20
0.679775
11
1.065
21
0.680374
0
LINE
8
BLACK
6
CONTINUOUS
10
1.065
20
0.680374
11
1.085
21
0.680374
0
LINE
8
BLACK
6
CONTINUOUS
10
1.085
20
0.680374
11
1.08801
21
0.679775
0
LINE
8
BLACK
6
CONTINUOUS
10
1.13801
20
0.679775
11
1.14057
21
0.678068
0
LINE
8
BLACK
6
CONTINUOUS
10
1.14057
20
0.678068
11
1.14227
21
0.675513
0
LINE
8
BLACK
6
CONTINUOUS
10
1.14227
20
0.675513
11
1.14287
21
0.6725
0
LINE
8
BLACK
6
CONTINUOUS
10
1.14287
20
0.6725
11
1.14287
21
0.6275
0
LINE
8
BLACK
6
CONTINUOUS
10
1.14287
20
0.6275
11
1.14227
21
0.624487
0
LINE
8
BLACK
6
CONTINUOUS
10
1.14227
20
0.624487
11
1.14057
21
0.621932
0
LINE
8
BLACK
6
CONTINUOUS
10
1.14057
20
0.621932
11
1.13801
21
0.620225
0
LINE
8
BLACK
6
CONTINUOUS
10
1.13801
20
0.620225
11
1.135
21
0.619626
0
LINE
8
BLACK
6
CONTINUOUS
10
1.135
20
0.619626
11
1.115
21
0.619626
0
LINE
8
BLACK
6
CONTINUOUS
10
1.115
20
0.619626
11
1.11199
21
0.620225
0
LINE
8
BLACK
6
CONTINUOUS
10
1.11199
20
0.620225
11
1.10943
21
0.621932
0
LINE
8
BLACK
6
CONTINUOUS
10
1.10943
20
0.621932
11
1.10773
21
0.624487
0
LINE
8
BLACK
6
CONTINUOUS
10
1.10773
20
0.624487
11
1.10713
21
0.6275
0
LINE
8
BLACK
6
CONTINUOUS
10
1.10713
20
0.6275
11
1.10713
21
0.6725
0
LINE
8
BLACK
6
CONTINUOUS
10
1.10713
20
0.6725
11
1.10773
21
0.675513
0
LINE
8
BLACK
6
CONTINUOUS
10
1.10773
20
0.675513
11
1.10943
21
0.678068
0
LINE
8
BLACK
6
CONTINUOUS
10
1.10943
20
0.678068
11
1.11199
21
0.679775
0
LINE
8
BLACK
6
CONTINUOUS
10
1.11199
20
0.679775
11
1.115
21
0.680374
0
LINE
8
BLACK
6
CONTINUOUS
10
1.115
20
0.680374
11
1.135
21
0.680374
0
LINE
8
BLACK
6
CONTINUOUS
10
1.135
20
0.680374
11
1.13801
21
0.679775
0
LINE
8
BLACK
6
CONTINUOUS
10
1.18801
20
0.679775
11
1.19057
21
0.678068
0
LINE
8
BLACK
6
CONTINUOUS
10
1.19057
20
0.678068
11
1.19227
21
0.675513
0
LINE
8
BLACK
6
CONTINUOUS
10
1.19227
20
0.675513
11
1.19287
21
0.6725
0
LINE
8
BLACK
6
CONTINUOUS
10
1.19287
20
0.6725
11
1.19287
21
0.6275
0
LINE
8
BLACK
6
CONTINUOUS
10
1.19287
20
0.6275
11
1.19227
21
0.624487
0
LINE
8
BLACK
6
CONTINUOUS
10
1.19227
20
0.624487
11
1.19057
21
0.621932
0
LINE
8
BLACK
6
CONTINUOUS
10
1.19057
20
0.621932
11
1.18801
21
0.620225
0
LINE
8
BLACK
6
CONTINUOUS
10
1.18801
20
0.620225
11
1.185
21
0.619626
0
LINE
8
BLACK
6
CONTINUOUS
10
1.185
20
0.619626
11
1.165
21
0.619626
0
LINE
8
BLACK
6
CONTINUOUS
10
1.165
20
0.619626
11
1.16199
21
0.620225
0
LINE
8
BLACK
6
CONTINUOUS
10
1.16199
20
0.620225
11
1.15943
21
0.621932
0
LINE
8
BLACK
6
CONTINUOUS
10
1.15943
20
0.621932
11
1.15773
21
0.624487
0
LINE
8
BLACK
6
CONTINUOUS
10
1.15773
20
0.624487
11
1.15713
21
0.6275
0
LINE
8
BLACK
6
CONTINUOUS
10
1.15713
20
0.6275
11
1.15713
21
0.6725
0
LINE
8
BLACK
6
CONTINUOUS
10
1.15713
20
0.6725
11
1.15773
21
0.675513
0
LINE
8
BLACK
6
CONTINUOUS
10
1.15773
20
0.675513
11
1.15943
21
0.678068
0
LINE
8
BLACK
6
CONTINUOUS
10
1.15943
20
0.678068
11
1.16199
21
0.679775
0
LINE
8
BLACK
6
CONTINUOUS
10
1.16199
20
0.679775
11
1.165
21
0.680374
0
LINE
8
BLACK
6
CONTINUOUS
10
1.165
20
0.680374
11
1.185
21
0.680374
0
LINE
8
BLACK
6
CONTINUOUS
10
1.185
20
0.680374
11
1.18801
21
0.679775
0
LINE
8
BLACK
6
CONTINUOUS
10
1.29699
20
0.714849
11
1.30198
21
0.713104
0
LINE
8
BLACK
6
CONTINUOUS
10
1.30198
20
0.713104
11
1.30623
21
0.709968
0
LINE
8
BLACK
6
CONTINUOUS
10
1.30623
20
0.709968
11
1.30936
21
0.705719
0
LINE
8
BLACK
6
CONTINUOUS
10
1.30936
20
0.705719
11
1.31111
21
0.700735
0
LINE
8
BLACK
6
CONTINUOUS
10
1.31111
20
0.700735
11
1.31142
21
0.697441
0
LINE
8
BLACK
6
CONTINUOUS
10
1.31142
20
0.697441
11
1.31142
21
0.677756
0
LINE
8
BLACK
6
CONTINUOUS
10
1.31142
20
0.677756
11
1.31111
21
0.674462
0
LINE
8
BLACK
6
CONTINUOUS
10
1.31111
20
0.674462
11
1.30936
21
0.669478
0
LINE
8
BLACK
6
CONTINUOUS
10
1.30936
20
0.669478
11
1.30623
21
0.665228
0
LINE
8
BLACK
6
CONTINUOUS
10
1.30623
20
0.665228
11
1.30198
21
0.662092
0
LINE
8
BLACK
6
CONTINUOUS
10
1.30198
20
0.662092
11
1.29699
21
0.660348
0
LINE
8
BLACK
6
CONTINUOUS
10
1.29699
20
0.660348
11
1.2937
21
0.660039
0
LINE
8
BLACK
6
CONTINUOUS
10
1.2937
20
0.660039
11
1.2563
21
0.660039
0
LINE
8
BLACK
6
CONTINUOUS
10
1.2563
20
0.660039
11
1.25301
21
0.660348
0
LINE
8
BLACK
6
CONTINUOUS
10
1.25301
20
0.660348
11
1.24802
21
0.662092
0
LINE
8
BLACK
6
CONTINUOUS
10
1.24802
20
0.662092
11
1.24377
21
0.665228
0
LINE
8
BLACK
6
CONTINUOUS
10
1.24377
20
0.665228
11
1.24064
21
0.669478
0
LINE
8
BLACK
6
CONTINUOUS
10
1.24064
20
0.669478
11
1.23889
21
0.674462
0
LINE
8
BLACK
6
CONTINUOUS
10
1.23889
20
0.674462
11
1.23858
21
0.677756
0
LINE
8
BLACK
6
CONTINUOUS
10
1.23858
20
0.677756
11
1.23858
21
0.697441
0
LINE
8
BLACK
6
CONTINUOUS
10
1.23858
20
0.697441
11
1.23889
21
0.700735
0
LINE
8
BLACK
6
CONTINUOUS
10
1.23889
20
0.700735
11
1.24064
21
0.705719
0
LINE
8
BLACK
6
CONTINUOUS
10
1.24064
20
0.705719
11
1.24377
21
0.709968
0
LINE
8
BLACK
6
CONTINUOUS
10
1.24377
20
0.709968
11
1.24802
21
0.713104
0
LINE
8
BLACK
6
CONTINUOUS
10
1.24802
20
0.713104
11
1.25301
21
0.714849
0
LINE
8
BLACK
6
CONTINUOUS
10
1.25301
20
0.714849
11
1.2563
21
0.715157
0
LINE
8
BLACK
6
CONTINUOUS
10
1.2563
20
0.715157
11
1.2937
21
0.715157
0
LINE
8
BLACK
6
CONTINUOUS
10
1.2937
20
0.715157
11
1.29699
21
0.714849
0
LINE
8
BLACK
6
CONTINUOUS
10
1.39699
20
0.714849
11
1.40198
21
0.713104
0
LINE
8
BLACK
6
CONTINUOUS
10
1.40198
20
0.713104
11
1.40623
21
0.709968
0
LINE
8
BLACK
6
CONTINUOUS
10
1.40623
20
0.709968
11
1.40936
21
0.705719
0
LINE
8
BLACK
6
CONTINUOUS
10
1.40936
20
0.705719
11
1.41111
21
0.700735
0
LINE
8
BLACK
6
CONTINUOUS
10
1.41111
20
0.700735
11
1.41142
21
0.697441
0
LINE
8
BLACK
6
CONTINUOUS
10
1.41142
20
0.697441
11
1.41142
21
0.677756
0
LINE
8
BLACK
6
CONTINUOUS
10
1.41142
20
0.677756
11
1.41111
21
0.674462
0
LINE
8
BLACK
6
CONTINUOUS
10
1.41111
20
0.674462
11
1.40936
21
0.669478
0
LINE
8
BLACK
6
CONTINUOUS
10
1.40936
20
0.669478
11
1.40623
21
0.665228
0
LINE
8
BLACK
6
CONTINUOUS
10
1.40623
20
0.665228
11
1.40198
21
0.662092
0
LINE
8
BLACK
6
CONTINUOUS
10
1.40198
20
0.662092
11
1.39699
21
0.660348
0
LINE
8
BLACK
6
CONTINUOUS
10
1.39699
20
0.660348
11
1.3937
21
0.660039
0
LINE
8
BLACK
6
CONTINUOUS
10
1.3937
20
0.660039
11
1.3563
21
0.660039
0
LINE
8
BLACK
6
CONTINUOUS
10
1.3563
20
0.660039
11
1.35301
21
0.660348
0
LINE
8
BLACK
6
CONTINUOUS
10
1.35301
20
0.660348
11
1.34802
21
0.662092
0
LINE
8
BLACK
6
CONTINUOUS
10
1.34802
20
0.662092
11
1.34377
21
0.665228
0
LINE
8
BLACK
6
CONTINUOUS
10
1.34377
20
0.665228
11
1.34064
21
0.669478
0
LINE
8
BLACK
6
CONTINUOUS
10
1.34064
20
0.669478
11
1.33889
21
0.674462
0
LINE
8
BLACK
6
CONTINUOUS
10
1.33889
20
0.674462
11
1.33858
21
0.677756
0
LINE
8
BLACK
6
CONTINUOUS
10
1.33858
20
0.677756
11
1.33858
21
0.697441
0
LINE
8
BLACK
6
CONTINUOUS
10
1.33858
20
0.697441
11
1.33889
21
0.700735
0
LINE
8
BLACK
6
CONTINUOUS
10
1.33889
20
0.700735
11
1.34064
21
0.705719
0
LINE
8
BLACK
6
CONTINUOUS
10
1.34064
20
0.705719
11
1.34377
21
0.709968
0
LINE
8
BLACK
6
CONTINUOUS
10
1.34377
20
0.709968
11
1.34802
21
0.713104
0
LINE
8
BLACK
6
CONTINUOUS
10
1.34802
20
0.713104
11
1.35301
21
0.714849
0
LINE
8
BLACK
6
CONTINUOUS
10
1.35301
20
0.714849
11
1.3563
21
0.715157
0
LINE
8
BLACK
6
CONTINUOUS
10
1.3563
20
0.715157
11
1.3937
21
0.715157
0
LINE
8
BLACK
6
CONTINUOUS
10
1.3937
20
0.715157
11
1.39699
21
0.714849
0
LINE
8
BLACK
6
CONTINUOUS
10
0.0141057
20
0.925192
11
0.0280341
21
0.922826
0
LINE
8
BLACK
6
CONTINUOUS
10
0.0280341
20
0.922826
11
0.04161
21
0.918914
0
LINE
8
BLACK
6
CONTINUOUS
10
0.04161
20
0.918914
11
0.0546625
21
0.913508
0
LINE
8
BLACK
6
CONTINUOUS
10
0.0546625
20
0.913508
11
0.0670277
21
0.906674
0
LINE
8
BLACK
6
CONTINUOUS
10
0.0670277
20
0.906674
11
0.0785499
21
0.898498
0
LINE
8
BLACK
6
CONTINUOUS
10
0.0785499
20
0.898498
11
0.0890843
21
0.889084
0
LINE
8
BLACK
6
CONTINUOUS
10
0.0890843
20
0.889084
11
0.0984985
21
0.87855
0
LINE
8
BLACK
6
CONTINUOUS
10
0.0984985
20
0.87855
11
0.106674
21
0.867028
0
LINE
8
BLACK
6
CONTINUOUS
10
0.106674
20
0.867028
11
0.113508
21
0.854663
0
LINE
8
BLACK
6
CONTINUOUS
10
0.113508
20
0.854663
11
0.118914
21
0.84161
0
LINE
8
BLACK
6
CONTINUOUS
10
0.118914
20
0.84161
11
0.122826
21
0.828034
0
LINE
8
BLACK
6
CONTINUOUS
10
0.122826
20
0.828034
11
0.125192
21
0.814106
0
LINE
8
BLACK
6
CONTINUOUS
10
0.125192
20
0.814106
11
0.125984
21
0.8
0
LINE
8
BLACK
6
CONTINUOUS
10
0.125984
20
0.8
11
0.125192
21
0.785894
0
LINE
8
BLACK
6
CONTINUOUS
10
0.125192
20
0.785894
11
0.122826
21
0.771966
0
LINE
8
BLACK
6
CONTINUOUS
10
0.122826
20
0.771966
11
0.118914
21
0.75839
0
LINE
8
BLACK
6
CONTINUOUS
10
0.118914
20
0.75839
11
0.113508
21
0.745337
0
LINE
8
BLACK
6
CONTINUOUS
10
0.113508
20
0.745337
11
0.106674
21
0.732972
0
LINE
8
BLACK
6
CONTINUOUS
10
0.106674
20
0.732972
11
0.0984985
21
0.72145
0
LINE
8
BLACK
6
CONTINUOUS
10
0.0984985
20
0.72145
11
0.0890843
21
0.710916
0
LINE
8
BLACK
6
CONTINUOUS
10
0.0890843
20
0.710916
11
0.0785499
21
0.701502
0
LINE
8
BLACK
6
CONTINUOUS
10
0.0785499
20
0.701502
11
0.0670277
21
0.693326
0
LINE
8
BLACK
6
CONTINUOUS
10
0.0670277
20
0.693326
11
0.0546625
21
0.686492
0
LINE
8
BLACK
6
CONTINUOUS
10
0.0546625
20
0.686492
11
0.04161
21
0.681086
0
LINE
8
BLACK
6
CONTINUOUS
10
0.04161
20
0.681086
11
0.0280341
21
0.677174
0
LINE
8
BLACK
6
CONTINUOUS
10
0.0280341
20
0.677174
11
0.0141057
21
0.674808
0
LINE
8
BLACK
6
CONTINUOUS
10
0.0141057
20
0.674808
11
0
21
0.674016
0
LINE
8
BLACK
6
CONTINUOUS
10
0
20
0.674016
11
-0.0141057
21
0.674808
0
LINE
8
BLACK
6
CONTINUOUS
10
-0.0141057
20
0.674808
11
-0.0280341
21
0.677174
0
LINE
8
BLACK
6
CONTINUOUS
10
-0.0280341
20
0.677174
11
-0.04161
21
0.681086
0
LINE
8
BLACK
6
CONTINUOUS
10
-0.04161
20
0.681086
11
-0.0546625
21
0.686492
0
LINE
8
BLACK
6
CONTINUOUS
10
-0.0546625
20
0.686492
11
-0.0670277
21
0.693326
0
LINE
8
BLACK
6
CONTINUOUS
10
-0.0670277
20
0.693326
11
-0.0785499
21
0.701502
0
LINE
8
BLACK
6
CONTINUOUS
10
-0.0785499
20
0.701502
11
-0.0890843
21
0.710916
0
LINE
8
BLACK
6
CONTINUOUS
10
-0.0890843
20
0.710916
11
-0.0984985
21
0.72145
0
LINE
8
BLACK
6
CONTINUOUS
10
-0.0984985
20
0.72145
11
-0.106674
21
0.732972
0
LINE
8
BLACK
6
CONTINUOUS
10
-0.106674
20
0.732972
11
-0.113508
21
0.745337
0
LINE
8
BLACK
6
CONTINUOUS
10
-0.113508
20
0.745337
11
-0.118914
21
0.75839
0
LINE
8
BLACK
6
CONTINUOUS
10
-0.118914
20
0.75839
11
-0.122826
21
0.771966
0
LINE
8
BLACK
6
CONTINUOUS
10
-0.122826
20
0.771966
11
-0.125192
21
0.785894
0
LINE
8
BLACK
6
CONTINUOUS
10
-0.125192
20
0.785894
11
-0.125984
21
0.8
0
LINE
8
BLACK
6
CONTINUOUS
10
-0.125984
20
0.8
11
-0.125192
21
0.814106
0
LINE
8
BLACK
6
CONTINUOUS
10
-0.125192
20
0.814106
11
-0.122826
21
0.828034
0
LINE
8
BLACK
6
CONTINUOUS
10
-0.122826
20
0.828034
11
-0.118914
21
0.84161
0
LINE
8
BLACK
6
CONTINUOUS
10
-0.118914
20
0.84161
11
-0.113508
21
0.854663
0
LINE
8
BLACK
6
CONTINUOUS
10
-0.113508
20
0.854663
11
-0.106674
21
0.867028
0
LINE
8
BLACK
6
CONTINUOUS
10
-0.106674
20
0.867028
11
-0.0984985
21
0.87855
0
LINE
8
BLACK
6
CONTINUOUS
10
-0.0984985
20
0.87855
11
-0.0890843
21
0.889084
0
LINE
8
BLACK
6
CONTINUOUS
10
-0.0890843
20
0.889084
11
-0.0785499
21
0.898498
0
LINE
8
BLACK
6
CONTINUOUS
10
-0.0785499
20
0.898498
11
-0.0670277
21
0.906674
0
LINE
8
BLACK
6
CONTINUOUS
10
-0.0670277
20
0.906674
11
-0.0546625
21
0.913508
0
LINE
8
BLACK
6
CONTINUOUS
10
-0.0546625
20
0.913508
11
-0.04161
21
0.918914
0
LINE
8
BLACK
6
CONTINUOUS
10
-0.04161
20
0.918914
11
-0.0280341
21
0.922826
0
LINE
8
BLACK
6
CONTINUOUS
10
-0.0280341
20
0.922826
11
-0.0141057
21
0.925192
0
LINE
8
BLACK
6
CONTINUOUS
10
-0.0141057
20
0.925192
11
0
21
0.925984
0
LINE
8
BLACK
6
CONTINUOUS
10
0
20
0.925984
11
0.0141057
21
0.925192
0
LINE
8
BLACK
6
CONTINUOUS
10
1.61411
20
0.925192
11
1.62803
21
0.922826
0
LINE
8
BLACK
6
CONTINUOUS
10
1.62803
20
0.922826
11
1.64161
21
0.918914
0
LINE
8
BLACK
6
CONTINUOUS
10
1.64161
20
0.918914
11
1.65466
21
0.913508
0
LINE
8
BLACK
6
CONTINUOUS
10
1.65466
20
0.913508
11
1.66703
21
0.906674
0
LINE
8
BLACK
6
CONTINUOUS
10
1.66703
20
0.906674
11
1.67855
21
0.898498
0
LINE
8
BLACK
6
CONTINUOUS
10
1.67855
20
0.898498
11
1.68908
21
0.889084
0
LINE
8
BLACK
6
CONTINUOUS
10
1.68908
20
0.889084
11
1.6985
21
0.87855
0
LINE
8
BLACK
6
CONTINUOUS
10
1.6985
20
0.87855
11
1.70667
21
0.867028
0
LINE
8
BLACK
6
CONTINUOUS
10
1.70667
20
0.867028
11
1.71351
21
0.854663
0
LINE
8
BLACK
6
CONTINUOUS
10
1.71351
20
0.854663
11
1.71891
21
0.84161
0
LINE
8
BLACK
6
CONTINUOUS
10
1.71891
20
0.84161
11
1.72283
21
0.828034
0
LINE
8
BLACK
6
CONTINUOUS
10
1.72283
20
0.828034
11
1.72519
21
0.814106
0
LINE
8
BLACK
6
CONTINUOUS
10
1.72519
20
0.814106
11
1.72598
21
0.8
0
LINE
8
BLACK
6
CONTINUOUS
10
1.72598
20
0.8
11
1.72519
21
0.785894
0
LINE
8
BLACK
6
CONTINUOUS
10
1.72519
20
0.785894
11
1.72283
21
0.771966
0
LINE
8
BLACK
6
CONTINUOUS
10
1.72283
20
0.771966
11
1.71891
21
0.75839
0
LINE
8
BLACK
6
CONTINUOUS
10
1.71891
20
0.75839
11
1.71351
21
0.745337
0
LINE
8
BLACK
6
CONTINUOUS
10
1.71351
20
0.745337
11
1.70667
21
0.732972
0
LINE
8
BLACK
6
CONTINUOUS
10
1.70667
20
0.732972
11
1.6985
21
0.72145
0
LINE
8
BLACK
6
CONTINUOUS
10
1.6985
20
0.72145
11
1.68908
21
0.710916
0
LINE
8
BLACK
6
CONTINUOUS
10
1.68908
20
0.710916
11
1.67855
21
0.701502
0
LINE
8
BLACK
6
CONTINUOUS
10
1.67855
20
0.701502
11
1.66703
21
0.693326
0
LINE
8
BLACK
6
CONTINUOUS
10
1.66703
20
0.693326
11
1.65466
21
0.686492
0
LINE
8
BLACK
6
CONTINUOUS
10
1.65466
20
0.686492
11
1.64161
21
0.681086
0
LINE
8
BLACK
6
CONTINUOUS
10
1.64161
20
0.681086
11
1.62803
21
0.677174
0
LINE
8
BLACK
6
CONTINUOUS
10
1.62803
20
0.677174
11
1.61411
21
0.674808
0
LINE
8
BLACK
6
CONTINUOUS
10
1.61411
20
0.674808
11
1.6
21
0.674016
0
LINE
8
BLACK
6
CONTINUOUS
10
1.6
20
0.674016
11
1.58589
21
0.674808
0
LINE
8
BLACK
6
CONTINUOUS
10
1.58589
20
0.674808
11
1.57197
21
0.677174
0
LINE
8
BLACK
6
CONTINUOUS
10
1.57197
20
0.677174
11
1.55839
21
0.681086
0
LINE
8
BLACK
6
CONTINUOUS
10
1.55839
20
0.681086
11
1.54534
21
0.686492
0
LINE
8
BLACK
6
CONTINUOUS
10
1.54534
20
0.686492
11
1.53297
21
0.693326
0
LINE
8
BLACK
6
CONTINUOUS
10
1.53297
20
0.693326
11
1.52145
21
0.701502
0
LINE
8
BLACK
6
CONTINUOUS
10
1.52145
20
0.701502
11
1.51092
21
0.710916
0
LINE
8
BLACK
6
CONTINUOUS
10
1.51092
20
0.710916
11
1.5015
21
0.72145
0
LINE
8
BLACK
6
CONTINUOUS
10
1.5015
20
0.72145
11
1.49333
21
0.732972
0
LINE
8
BLACK
6
CONTINUOUS
10
1.49333
20
0.732972
11
1.48649
21
0.745337
0
LINE
8
BLACK
6
CONTINUOUS
10
1.48649
20
0.745337
11
1.48109
21
0.75839
0
LINE
8
BLACK
6
CONTINUOUS
10
1.48109
20
0.75839
11
1.47717
21
0.771966
0
LINE
8
BLACK
6
CONTINUOUS
10
1.47717
20
0.771966
11
1.47481
21
0.785894
0
LINE
8
BLACK
6
CONTINUOUS
10
1.47481
20
0.785894
11
1.47402
21
0.8
0
LINE
8
BLACK
6
CONTINUOUS
10
1.47402
20
0.8
11
1.47481
21
0.814106
0
LINE
8
BLACK
6
CONTINUOUS
10
1.47481
20
0.814106
11
1.47717
21
0.828034
0
LINE
8
BLACK
6
CONTINUOUS
10
1.47717
20
0.828034
11
1.48109
21
0.84161
0
LINE
8
BLACK
6
CONTINUOUS
10
1.48109
20
0.84161
11
1.48649
21
0.854663
0
LINE
8
BLACK
6
CONTINUOUS
10
1.48649
20
0.854663
11
1.49333
21
0.867028
0
LINE
8
BLACK
6
CONTINUOUS
10
1.49333
20
0.867028
11
1.5015
21
0.87855
0
LINE
8
BLACK
6
CONTINUOUS
10
1.5015
20
0.87855
11
1.51092
21
0.889084
0
LINE
8
BLACK
6
CONTINUOUS
10
1.51092
20
0.889084
11
1.52145
21
0.898498
0
LINE
8
BLACK
6
CONTINUOUS
10
1.52145
20
0.898498
11
1.53297
21
0.906674
0
LINE
8
BLACK
6
CONTINUOUS
10
1.53297
20
0.906674
11
1.54534
21
0.913508
0
LINE
8
BLACK
6
CONTINUOUS
10
1.54534
20
0.913508
11
1.55839
21
0.918914
0
LINE
8
BLACK
6
CONTINUOUS
10
1.55839
20
0.918914
11
1.57197
21
0.922826
0
LINE
8
BLACK
6
CONTINUOUS
10
1.57197
20
0.922826
11
1.58589
21
0.925192
0
LINE
8
BLACK
6
CONTINUOUS
10
1.58589
20
0.925192
11
1.6
21
0.925984
0
LINE
8
BLACK
6
CONTINUOUS
10
1.6
20
0.925984
11
1.61411
21
0.925192
0
LINE
8
BLACK
6
CONTINUOUS
10
0.40101
20
0.738668
11
0.405995
21
0.736923
0
LINE
8
BLACK
6
CONTINUOUS
10
0.405995
20
0.736923
11
0.410244
21
0.733787
0
LINE
8
BLACK
6
CONTINUOUS
10
0.410244
20
0.733787
11
0.41338
21
0.729538
0
LINE
8
BLACK
6
CONTINUOUS
10
0.41338
20
0.729538
11
0.415124
21
0.724554
0
LINE
8
BLACK
6
CONTINUOUS
10
0.415124
20
0.724554
11
0.415433
21
0.72126
0
LINE
8
BLACK
6
CONTINUOUS
10
0.415433
20
0.72126
11
0.415433
21
0.700591
0
LINE
8
BLACK
6
CONTINUOUS
10
0.415433
20
0.700591
11
0.415124
21
0.697297
0
LINE
8
BLACK
6
CONTINUOUS
10
0.415124
20
0.697297
11
0.41338
21
0.692312
0
LINE
8
BLACK
6
CONTINUOUS
10
0.41338
20
0.692312
11
0.410244
21
0.688063
0
LINE
8
BLACK
6
CONTINUOUS
10
0.410244
20
0.688063
11
0.405995
21
0.684927
0
LINE
8
BLACK
6
CONTINUOUS
10
0.405995
20
0.684927
11
0.40101
21
0.683183
0
LINE
8
BLACK
6
CONTINUOUS
10
0.40101
20
0.683183
11
0.397717
21
0.682874
0
LINE
8
BLACK
6
CONTINUOUS
10
0.397717
20
0.682874
11
0.362283
21
0.682874
0
LINE
8
BLACK
6
CONTINUOUS
10
0.362283
20
0.682874
11
0.35899
21
0.683183
0
LINE
8
BLACK
6
CONTINUOUS
10
0.35899
20
0.683183
11
0.354005
21
0.684927
0
LINE
8
BLACK
6
CONTINUOUS
10
0.354005
20
0.684927
11
0.349756
21
0.688063
0
LINE
8
BLACK
6
CONTINUOUS
10
0.349756
20
0.688063
11
0.34662
21
0.692312
0
LINE
8
BLACK
6
CONTINUOUS
10
0.34662
20
0.692312
11
0.344876
21
0.697297
0
LINE
8
BLACK
6
CONTINUOUS
10
0.344876
20
0.697297
11
0.344567
21
0.700591
0
LINE
8
BLACK
6
CONTINUOUS
10
0.344567
20
0.700591
11
0.344567
21
0.72126
0
LINE
8
BLACK
6
CONTINUOUS
10
0.344567
20
0.72126
11
0.344876
21
0.724554
0
LINE
8
BLACK
6
CONTINUOUS
10
0.344876
20
0.724554
11
0.34662
21
0.729538
0
LINE
8
BLACK
6
CONTINUOUS
10
0.34662
20
0.729538
11
0.349756
21
0.733787
0
LINE
8
BLACK
6
CONTINUOUS
10
0.349756
20
0.733787
11
0.354005
21
0.736923
0
LINE
8
BLACK
6
CONTINUOUS
10
0.354005
20
0.736923
11
0.35899
21
0.738668
0
LINE
8
BLACK
6
CONTINUOUS
10
0.35899
20
0.738668
11
0.362283
21
0.738976
0
LINE
8
BLACK
6
CONTINUOUS
10
0.362283
20
0.738976
11
0.397717
21
0.738976
0
LINE
8
BLACK
6
CONTINUOUS
10
0.397717
20
0.738976
11
0.40101
21
0.738668
0
LINE
8
BLACK
6
CONTINUOUS
10
0.843013
20
0.787275
11
0.845568
21
0.785568
0
LINE
8
BLACK
6
CONTINUOUS
10
0.845568
20
0.785568
11
0.847275
21
0.783013
0
LINE
8
BLACK
6
CONTINUOUS
10
0.847275
20
0.783013
11
0.847874
21
0.78
0
LINE
8
BLACK
6
CONTINUOUS
10
0.847874
20
0.78
11
0.847874
21
0.72
0
LINE
8
BLACK
6
CONTINUOUS
10
0.847874
20
0.72
11
0.847275
21
0.716987
0
LINE
8
BLACK
6
CONTINUOUS
10
0.847275
20
0.716987
11
0.845568
21
0.714432
0
LINE
8
BLACK
6
CONTINUOUS
10
0.845568
20
0.714432
11
0.843013
21
0.712725
0
LINE
8
BLACK
6
CONTINUOUS
10
0.843013
20
0.712725
11
0.84
21
0.712126
0
LINE
8
BLACK
6
CONTINUOUS
10
0.84
20
0.712126
11
0.78
21
0.712126
0
LINE
8
BLACK
6
CONTINUOUS
10
0.78
20
0.712126
11
0.776987
21
0.712725
0
LINE
8
BLACK
6
CONTINUOUS
10
0.776987
20
0.712725
11
0.774432
21
0.714432
0
LINE
8
BLACK
6
CONTINUOUS
10
0.774432
20
0.714432
11
0.772725
21
0.716987
0
LINE
8
BLACK
6
CONTINUOUS
10
0.772725
20
0.716987
11
0.772126
21
0.72
0
LINE
8
BLACK
6
CONTINUOUS
10
0.772126
20
0.72
11
0.772126
21
0.78
0
LINE
8
BLACK
6
CONTINUOUS
10
0.772126
20
0.78
11
0.772725
21
0.783013
0
LINE
8
BLACK
6
CONTINUOUS
10
0.772725
20
0.783013
11
0.774432
21
0.785568
0
LINE
8
BLACK
6
CONTINUOUS
10
0.774432
20
0.785568
11
0.776987
21
0.787275
0
LINE
8
BLACK
6
CONTINUOUS
10
0.776987
20
0.787275
11
0.78
21
0.787874
0
LINE
8
BLACK
6
CONTINUOUS
10
0.78
20
0.787874
11
0.84
21
0.787874
0
LINE
8
BLACK
6
CONTINUOUS
10
0.84
20
0.787874
11
0.843013
21
0.787275
0
LINE
8
BLACK
6
CONTINUOUS
10
1.29699
20
0.789652
11
1.30198
21
0.787908
0
LINE
8
BLACK
6
CONTINUOUS
10
1.30198
20
0.787908
11
1.30623
21
0.784772
0
LINE
8
BLACK
6
CONTINUOUS
10
1.30623
20
0.784772
11
1.30936
21
0.780522
0
LINE
8
BLACK
6
CONTINUOUS
10
1.30936
20
0.780522
11
1.31111
21
0.775538
0
LINE
8
BLACK
6
CONTINUOUS
10
1.31111
20
0.775538
11
1.31142
21
0.772244
0
LINE
8
BLACK
6
CONTINUOUS
10
1.31142
20
0.772244
11
1.31142
21
0.752559
0
LINE
8
BLACK
6
CONTINUOUS
10
1.31142
20
0.752559
11
1.31111
21
0.749265
0
LINE
8
BLACK
6
CONTINUOUS
10
1.31111
20
0.749265
11
1.30936
21
0.744281
0
LINE
8
BLACK
6
CONTINUOUS
10
1.30936
20
0.744281
11
1.30623
21
0.740032
0
LINE
8
BLACK
6
CONTINUOUS
10
1.30623
20
0.740032
11
1.30198
21
0.736896
0
LINE
8
BLACK
6
CONTINUOUS
10
1.30198
20
0.736896
11
1.29699
21
0.735151
0
LINE
8
BLACK
6
CONTINUOUS
10
1.29699
20
0.735151
11
1.2937
21
0.734843
0
LINE
8
BLACK
6
CONTINUOUS
10
1.2937
20
0.734843
11
1.2563
21
0.734843
0
LINE
8
BLACK
6
CONTINUOUS
10
1.2563
20
0.734843
11
1.25301
21
0.735151
0
LINE
8
BLACK
6
CONTINUOUS
10
1.25301
20
0.735151
11
1.24802
21
0.736896
0
LINE
8
BLACK
6
CONTINUOUS
10
1.24802
20
0.736896
11
1.24377
21
0.740032
0
LINE
8
BLACK
6
CONTINUOUS
10
1.24377
20
0.740032
11
1.24064
21
0.744281
0
LINE
8
BLACK
6
CONTINUOUS
10
1.24064
20
0.744281
11
1.23889
21
0.749265
0
LINE
8
BLACK
6
CONTINUOUS
10
1.23889
20
0.749265
11
1.23858
21
0.752559
0
LINE
8
BLACK
6
CONTINUOUS
10
1.23858
20
0.752559
11
1.23858
21
0.772244
0
LINE
8
BLACK
6
CONTINUOUS
10
1.23858
20
0.772244
11
1.23889
21
0.775538
0
LINE
8
BLACK
6
CONTINUOUS
10
1.23889
20
0.775538
11
1.24064
21
0.780522
0
LINE
8
BLACK
6
CONTINUOUS
10
1.24064
20
0.780522
11
1.24377
21
0.784772
0
LINE
8
BLACK
6
CONTINUOUS
10
1.24377
20
0.784772
11
1.24802
21
0.787908
0
LINE
8
BLACK
6
CONTINUOUS
10
1.24802
20
0.787908
11
1.25301
21
0.789652
0
LINE
8
BLACK
6
CONTINUOUS
10
1.25301
20
0.789652
11
1.2563
21
0.789961
0
LINE
8
BLACK
6
CONTINUOUS
10
1.2563
20
0.789961
11
1.2937
21
0.789961
0
LINE
8
BLACK
6
CONTINUOUS
10
1.2937
20
0.789961
11
1.29699
21
0.789652
0
LINE
8
BLACK
6
CONTINUOUS
10
1.39699
20
0.789652
11
1.40198
21
0.787908
0
LINE
8
BLACK
6
CONTINUOUS
10
1.40198
20
0.787908
11
1.40623
21
0.784772
0
LINE
8
BLACK
6
CONTINUOUS
10
1.40623
20
0.784772
11
1.40936
21
0.780522
0
LINE
8
BLACK
6
CONTINUOUS
10
1.40936
20
0.780522
11
1.41111
21
0.775538
0
LINE
8
BLACK
6
CONTINUOUS
10
1.41111
20
0.775538
11
1.41142
21
0.772244
0
LINE
8
BLACK
6
CONTINUOUS
10
1.41142
20
0.772244
11
1.41142
21
0.752559
0
LINE
8
BLACK
6
CONTINUOUS
10
1.41142
20
0.752559
11
1.41111
21
0.749265
0
LINE
8
BLACK
6
CONTINUOUS
10
1.41111
20
0.749265
11
1.40936
21
0.744281
0
LINE
8
BLACK
6
CONTINUOUS
10
1.40936
20
0.744281
11
1.40623
21
0.740032
0
LINE
8
BLACK
6
CONTINUOUS
10
1.40623
20
0.740032
11
1.40198
21
0.736896
0
LINE
8
BLACK
6
CONTINUOUS
10
1.40198
20
0.736896
11
1.39699
21
0.735151
0
LINE
8
BLACK
6
CONTINUOUS
10
1.39699
20
0.735151
11
1.3937
21
0.734843
0
LINE
8
BLACK
6
CONTINUOUS
10
1.3937
20
0.734843
11
1.3563
21
0.734843
0
LINE
8
BLACK
6
CONTINUOUS
10
1.3563
20
0.734843
11
1.35301
21
0.735151
0
LINE
8
BLACK
6
CONTINUOUS
10
1.35301
20
0.735151
11
1.34802
21
0.736896
0
LINE
8
BLACK
6
CONTINUOUS
10
1.34802
20
0.736896
11
1.34377
21
0.740032
0
LINE
8
BLACK
6
CONTINUOUS
10
1.34377
20
0.740032
11
1.34064
21
0.744281
0
LINE
8
BLACK
6
CONTINUOUS
10
1.34064
20
0.744281
11
1.33889
21
0.749265
0
LINE
8
BLACK
6
CONTINUOUS
10
1.33889
20
0.749265
11
1.33858
21
0.752559
0
LINE
8
BLACK
6
CONTINUOUS
10
1.33858
20
0.752559
11
1.33858
21
0.772244
0
LINE
8
BLACK
6
CONTINUOUS
10
1.33858
20
0.772244
11
1.33889
21
0.775538
0
LINE
8
BLACK
6
CONTINUOUS
10
1.33889
20
0.775538
11
1.34064
21
0.780522
0
LINE
8
BLACK
6
CONTINUOUS
10
1.34064
20
0.780522
11
1.34377
21
0.784772
0
LINE
8
BLACK
6
CONTINUOUS
10
1.34377
20
0.784772
11
1.34802
21
0.787908
0
LINE
8
BLACK
6
CONTINUOUS
10
1.34802
20
0.787908
11
1.35301
21
0.789652
0
LINE
8
BLACK
6
CONTINUOUS
10
1.35301
20
0.789652
11
1.3563
21
0.789961
0
LINE
8
BLACK
6
CONTINUOUS
10
1.3563
20
0.789961
11
1.3937
21
0.789961
0
LINE
8
BLACK
6
CONTINUOUS
10
1.3937
20
0.789961
11
1.39699
21
0.789652
  0
ENDSEC
  0
EOF
