  0
SECTION
  2
HEADER
  9
$ANGBASE
  50
0.0
  9
$ANGDIR
  70
1
  9
$MEASUREMENT
  70
0
  0
ENDSEC
  0
SECTION
  2
TABLES
  0
TABLE
  2
LTYPE
  70
4
  0
LTYPE
  5
40F
  2
CONTINUOUS
  70
0
  3
Solid line
  72
65
  73
0
  40
0.0
  0
LTYPE
  5
410
  2
DASHDOT
 70
0
  3
Dash Dot ____ _ ____ _
 72
65
 73
4
 40
2.0
 49
1.25
 49
-0.25
 49
0.25
 49
-0.25
  0
LTYPE
  5
411
  2
DASHED
 70
0
  3
Dashed __ __ __ __ __
 72
65
 73
2
 40
0.75
 49
0.5
 49
-0.25
  0
LTYPE
  5
43B
  2
DOTTED
 70
0
  3
Dotted .  .  .  .
 72
65
 73
2
 40
0.2
 49
0.0
 49
-0.2
  0
ENDTAB
  0
TABLE
  2
STYLE
  70
4
  0
STYLE
  2
KICAD
  70
0
  40
0
  41
1
  42
1
  50
0
  71
0
  3
isocp.shx
  0
STYLE
  2
KICADB
  70
0
  40
0
  41
1
  42
1
  50
0
  71
0
  3
isocp.shx
  0
STYLE
  2
KICADI
  70
0
  40
0
  41
1
  42
1
  50
15
  71
0
  3
isocp.shx
  0
STYLE
  2
KICADBI
  70
0
  40
0
  41
1
  42
1
  50
15
  71
0
  3
isocp.shx
  0
ENDTAB
  0
TABLE
  2
LAYER
  70
1
  0
LAYER
  2
BLACK
  70
0
  62
7
  6
CONTINUOUS
  0
ENDTAB
  0
ENDSEC
  0
SECTION
  2
ENTITIES
0
LINE
8
BLACK
6
CONTINUOUS
10
0.788583
20
0.192913
11
0.789279
21
0.192625
0
LINE
8
BLACK
6
CONTINUOUS
10
0.789279
20
0.192625
11
0.789567
21
0.191929
0
LINE
8
BLACK
6
CONTINUOUS
10
0.789567
20
0.191929
11
0.789567
21
0.0580709
0
LINE
8
BLACK
6
CONTINUOUS
10
0.789567
20
0.0580709
11
0.789279
21
0.0573749
0
LINE
8
BLACK
6
CONTINUOUS
10
0.789279
20
0.0573749
11
0.788583
21
0.0570866
0
LINE
8
BLACK
6
CONTINUOUS
10
0.788583
20
0.0570866
11
0.711417
21
0.0570866
0
LINE
8
BLACK
6
CONTINUOUS
10
0.711417
20
0.0570866
11
0.710721
21
0.0573749
0
LINE
8
BLACK
6
CONTINUOUS
10
0.710721
20
0.0573749
11
0.710515
21
0.057874
0
LINE
8
BLACK
6
CONTINUOUS
10
0.710515
20
0.057874
11
0.637598
21
0.057874
0
LINE
8
BLACK
6
CONTINUOUS
10
0.637598
20
0.057874
11
0.636902
21
0.0581623
0
LINE
8
BLACK
6
CONTINUOUS
10
0.636902
20
0.0581623
11
0.636614
21
0.0588583
0
LINE
8
BLACK
6
CONTINUOUS
10
0.636614
20
0.0588583
11
0.636614
21
0.191142
0
LINE
8
BLACK
6
CONTINUOUS
10
0.636614
20
0.191142
11
0.636902
21
0.191838
0
LINE
8
BLACK
6
CONTINUOUS
10
0.636902
20
0.191838
11
0.637598
21
0.192126
0
LINE
8
BLACK
6
CONTINUOUS
10
0.637598
20
0.192126
11
0.710515
21
0.192126
0
LINE
8
BLACK
6
CONTINUOUS
10
0.710515
20
0.192126
11
0.710721
21
0.192625
0
LINE
8
BLACK
6
CONTINUOUS
10
0.710721
20
0.192625
11
0.711417
21
0.192913
0
LINE
8
BLACK
6
CONTINUOUS
10
0.711417
20
0.192913
11
0.788583
21
0.192913
0
LINE
8
BLACK
6
CONTINUOUS
10
0.713386
20
0.190945
11
0.713386
21
0.0590551
0
LINE
8
BLACK
6
CONTINUOUS
10
0.713386
20
0.0590551
11
0.787598
21
0.0590551
0
LINE
8
BLACK
6
CONTINUOUS
10
0.787598
20
0.0590551
11
0.787598
21
0.190945
0
LINE
8
BLACK
6
CONTINUOUS
10
0.787598
20
0.190945
11
0.713386
21
0.190945
0
LINE
8
BLACK
6
CONTINUOUS
10
0.638583
20
0.190157
11
0.638583
21
0.0598425
0
LINE
8
BLACK
6
CONTINUOUS
10
0.638583
20
0.0598425
11
0.710433
21
0.0598425
0
LINE
8
BLACK
6
CONTINUOUS
10
0.710433
20
0.0598425
11
0.710433
21
0.190157
0
LINE
8
BLACK
6
CONTINUOUS
10
0.710433
20
0.190157
11
0.638583
21
0.190157
0
LINE
8
BLACK
6
CONTINUOUS
10
0.966929
20
0.214567
11
0.967625
21
0.214279
0
LINE
8
BLACK
6
CONTINUOUS
10
0.967625
20
0.214279
11
0.967913
21
0.213583
0
LINE
8
BLACK
6
CONTINUOUS
10
0.967913
20
0.213583
11
0.967913
21
0.136417
0
LINE
8
BLACK
6
CONTINUOUS
10
0.967913
20
0.136417
11
0.967625
21
0.135721
0
LINE
8
BLACK
6
CONTINUOUS
10
0.967625
20
0.135721
11
0.966929
21
0.135433
0
LINE
8
BLACK
6
CONTINUOUS
10
0.966929
20
0.135433
11
0.966913
21
0.135433
0
LINE
8
BLACK
6
CONTINUOUS
10
0.966913
20
0.135433
11
0.966913
21
0.0634173
0
LINE
8
BLACK
6
CONTINUOUS
10
0.966913
20
0.0634173
11
0.966625
21
0.0627213
0
LINE
8
BLACK
6
CONTINUOUS
10
0.966625
20
0.0627213
11
0.965929
21
0.0624331
0
LINE
8
BLACK
6
CONTINUOUS
10
0.965929
20
0.0624331
11
0.832071
21
0.0624331
0
LINE
8
BLACK
6
CONTINUOUS
10
0.832071
20
0.0624331
11
0.831375
21
0.0627213
0
LINE
8
BLACK
6
CONTINUOUS
10
0.831375
20
0.0627213
11
0.831087
21
0.0634173
0
LINE
8
BLACK
6
CONTINUOUS
10
0.831087
20
0.0634173
11
0.831087
21
0.140583
0
LINE
8
BLACK
6
CONTINUOUS
10
0.831087
20
0.140583
11
0.831375
21
0.141279
0
LINE
8
BLACK
6
CONTINUOUS
10
0.831375
20
0.141279
11
0.832071
21
0.141567
0
LINE
8
BLACK
6
CONTINUOUS
10
0.832071
20
0.141567
11
0.832087
21
0.141567
0
LINE
8
BLACK
6
CONTINUOUS
10
0.832087
20
0.141567
11
0.832087
21
0.213583
0
LINE
8
BLACK
6
CONTINUOUS
10
0.832087
20
0.213583
11
0.832375
21
0.214279
0
LINE
8
BLACK
6
CONTINUOUS
10
0.832375
20
0.214279
11
0.833071
21
0.214567
0
LINE
8
BLACK
6
CONTINUOUS
10
0.833071
20
0.214567
11
0.966929
21
0.214567
0
LINE
8
BLACK
6
CONTINUOUS
10
0.833055
20
0.0644016
11
0.964945
21
0.0644016
0
LINE
8
BLACK
6
CONTINUOUS
10
0.964945
20
0.0644016
11
0.964945
21
0.135433
0
LINE
8
BLACK
6
CONTINUOUS
10
0.964945
20
0.135433
11
0.833071
21
0.135433
0
LINE
8
BLACK
6
CONTINUOUS
10
0.833071
20
0.135433
11
0.833055
21
0.13544
0
LINE
8
BLACK
6
CONTINUOUS
10
0.833055
20
0.13544
11
0.833055
21
0.0644016
0
LINE
8
BLACK
6
CONTINUOUS
10
0.834055
20
0.139598
11
0.834055
21
0.137402
0
LINE
8
BLACK
6
CONTINUOUS
10
0.834055
20
0.137402
11
0.964945
21
0.137402
0
LINE
8
BLACK
6
CONTINUOUS
10
0.964945
20
0.137402
11
0.964945
21
0.139598
0
LINE
8
BLACK
6
CONTINUOUS
10
0.964945
20
0.139598
11
0.834055
21
0.139598
0
LINE
8
BLACK
6
CONTINUOUS
10
0.834055
20
0.212598
11
0.834055
21
0.141567
0
LINE
8
BLACK
6
CONTINUOUS
10
0.834055
20
0.141567
11
0.965929
21
0.141567
0
LINE
8
BLACK
6
CONTINUOUS
10
0.965929
20
0.141567
11
0.965945
21
0.14156
0
LINE
8
BLACK
6
CONTINUOUS
10
0.965945
20
0.14156
11
0.965945
21
0.212598
0
LINE
8
BLACK
6
CONTINUOUS
10
0.965945
20
0.212598
11
0.834055
21
0.212598
0
LINE
8
BLACK
6
CONTINUOUS
10
0.525574
20
0.310588
11
0.52627
21
0.3103
0
LINE
8
BLACK
6
CONTINUOUS
10
0.52627
20
0.3103
11
0.526558
21
0.309604
0
LINE
8
BLACK
6
CONTINUOUS
10
0.526558
20
0.309604
11
0.526558
21
0.175745
0
LINE
8
BLACK
6
CONTINUOUS
10
0.526558
20
0.175745
11
0.52627
21
0.175049
0
LINE
8
BLACK
6
CONTINUOUS
10
0.52627
20
0.175049
11
0.525574
21
0.174761
0
LINE
8
BLACK
6
CONTINUOUS
10
0.525574
20
0.174761
11
0.448408
21
0.174761
0
LINE
8
BLACK
6
CONTINUOUS
10
0.448408
20
0.174761
11
0.447712
21
0.175049
0
LINE
8
BLACK
6
CONTINUOUS
10
0.447712
20
0.175049
11
0.447424
21
0.175745
0
LINE
8
BLACK
6
CONTINUOUS
10
0.447424
20
0.175745
11
0.447424
21
0.309604
0
LINE
8
BLACK
6
CONTINUOUS
10
0.447424
20
0.309604
11
0.447712
21
0.3103
0
LINE
8
BLACK
6
CONTINUOUS
10
0.447712
20
0.3103
11
0.448408
21
0.310588
0
LINE
8
BLACK
6
CONTINUOUS
10
0.448408
20
0.310588
11
0.525574
21
0.310588
0
LINE
8
BLACK
6
CONTINUOUS
10
0.449392
20
0.308619
11
0.449392
21
0.17673
0
LINE
8
BLACK
6
CONTINUOUS
10
0.449392
20
0.17673
11
0.524589
21
0.17673
0
LINE
8
BLACK
6
CONTINUOUS
10
0.524589
20
0.17673
11
0.524589
21
0.308619
0
LINE
8
BLACK
6
CONTINUOUS
10
0.524589
20
0.308619
11
0.449392
21
0.308619
0
LINE
8
BLACK
6
CONTINUOUS
10
0.611912
20
0.311966
11
0.612608
21
0.311678
0
LINE
8
BLACK
6
CONTINUOUS
10
0.612608
20
0.311678
11
0.612896
21
0.310982
0
LINE
8
BLACK
6
CONTINUOUS
10
0.612896
20
0.310982
11
0.612896
21
0.178698
0
LINE
8
BLACK
6
CONTINUOUS
10
0.612896
20
0.178698
11
0.612608
21
0.178002
0
LINE
8
BLACK
6
CONTINUOUS
10
0.612608
20
0.178002
11
0.611912
21
0.177714
0
LINE
8
BLACK
6
CONTINUOUS
10
0.611912
20
0.177714
11
0.537109
21
0.177714
0
LINE
8
BLACK
6
CONTINUOUS
10
0.537109
20
0.177714
11
0.536413
21
0.178002
0
LINE
8
BLACK
6
CONTINUOUS
10
0.536413
20
0.178002
11
0.536125
21
0.178698
0
LINE
8
BLACK
6
CONTINUOUS
10
0.536125
20
0.178698
11
0.536125
21
0.178698
0
LINE
8
BLACK
6
CONTINUOUS
10
0.536125
20
0.178698
11
0.536125
21
0.310982
0
LINE
8
BLACK
6
CONTINUOUS
10
0.536125
20
0.310982
11
0.536413
21
0.311678
0
LINE
8
BLACK
6
CONTINUOUS
10
0.536413
20
0.311678
11
0.537109
21
0.311966
0
LINE
8
BLACK
6
CONTINUOUS
10
0.537109
20
0.311966
11
0.611912
21
0.311966
0
LINE
8
BLACK
6
CONTINUOUS
10
0.538093
20
0.309997
11
0.538093
21
0.179682
0
LINE
8
BLACK
6
CONTINUOUS
10
0.538093
20
0.179682
11
0.610928
21
0.179682
0
LINE
8
BLACK
6
CONTINUOUS
10
0.610928
20
0.179682
11
0.610928
21
0.309997
0
LINE
8
BLACK
6
CONTINUOUS
10
0.610928
20
0.309997
11
0.538093
21
0.309997
0
LINE
8
BLACK
6
CONTINUOUS
10
1.0574
20
0.317126
11
1.0581
21
0.316838
0
LINE
8
BLACK
6
CONTINUOUS
10
1.0581
20
0.316838
11
1.05839
21
0.316142
0
LINE
8
BLACK
6
CONTINUOUS
10
1.05839
20
0.316142
11
1.05839
21
0.183858
0
LINE
8
BLACK
6
CONTINUOUS
10
1.05839
20
0.183858
11
1.0581
21
0.183162
0
LINE
8
BLACK
6
CONTINUOUS
10
1.0581
20
0.183162
11
1.0574
21
0.182874
0
LINE
8
BLACK
6
CONTINUOUS
10
1.0574
20
0.182874
11
0.982598
21
0.182874
0
LINE
8
BLACK
6
CONTINUOUS
10
0.982598
20
0.182874
11
0.981902
21
0.183162
0
LINE
8
BLACK
6
CONTINUOUS
10
0.981902
20
0.183162
11
0.981614
21
0.183858
0
LINE
8
BLACK
6
CONTINUOUS
10
0.981614
20
0.183858
11
0.981614
21
0.316142
0
LINE
8
BLACK
6
CONTINUOUS
10
0.981614
20
0.316142
11
0.981902
21
0.316838
0
LINE
8
BLACK
6
CONTINUOUS
10
0.981902
20
0.316838
11
0.982598
21
0.317126
0
LINE
8
BLACK
6
CONTINUOUS
10
0.982598
20
0.317126
11
1.0574
21
0.317126
0
LINE
8
BLACK
6
CONTINUOUS
10
0.983583
20
0.315157
11
0.983583
21
0.184843
0
LINE
8
BLACK
6
CONTINUOUS
10
0.983583
20
0.184843
11
1.05642
21
0.184843
0
LINE
8
BLACK
6
CONTINUOUS
10
1.05642
20
0.184843
11
1.05642
21
0.315157
0
LINE
8
BLACK
6
CONTINUOUS
10
1.05642
20
0.315157
11
0.983583
21
0.315157
0
LINE
8
BLACK
6
CONTINUOUS
10
1.1524
20
0.317126
11
1.1531
21
0.316838
0
LINE
8
BLACK
6
CONTINUOUS
10
1.1531
20
0.316838
11
1.15339
21
0.316142
0
LINE
8
BLACK
6
CONTINUOUS
10
1.15339
20
0.316142
11
1.15339
21
0.183858
0
LINE
8
BLACK
6
CONTINUOUS
10
1.15339
20
0.183858
11
1.1531
21
0.183162
0
LINE
8
BLACK
6
CONTINUOUS
10
1.1531
20
0.183162
11
1.1524
21
0.182874
0
LINE
8
BLACK
6
CONTINUOUS
10
1.1524
20
0.182874
11
1.0776
21
0.182874
0
LINE
8
BLACK
6
CONTINUOUS
10
1.0776
20
0.182874
11
1.0769
21
0.183162
0
LINE
8
BLACK
6
CONTINUOUS
10
1.0769
20
0.183162
11
1.07661
21
0.183858
0
LINE
8
BLACK
6
CONTINUOUS
10
1.07661
20
0.183858
11
1.07661
21
0.316142
0
LINE
8
BLACK
6
CONTINUOUS
10
1.07661
20
0.316142
11
1.0769
21
0.316838
0
LINE
8
BLACK
6
CONTINUOUS
10
1.0769
20
0.316838
11
1.0776
21
0.317126
0
LINE
8
BLACK
6
CONTINUOUS
10
1.0776
20
0.317126
11
1.1524
21
0.317126
0
LINE
8
BLACK
6
CONTINUOUS
10
1.07858
20
0.315157
11
1.07858
21
0.184843
0
LINE
8
BLACK
6
CONTINUOUS
10
1.07858
20
0.184843
11
1.15142
21
0.184843
0
LINE
8
BLACK
6
CONTINUOUS
10
1.15142
20
0.184843
11
1.15142
21
0.315157
0
LINE
8
BLACK
6
CONTINUOUS
10
1.15142
20
0.315157
11
1.07858
21
0.315157
0
LINE
8
BLACK
6
CONTINUOUS
10
1.25358
20
0.322913
11
1.25428
21
0.322625
0
LINE
8
BLACK
6
CONTINUOUS
10
1.25428
20
0.322625
11
1.25457
21
0.321929
0
LINE
8
BLACK
6
CONTINUOUS
10
1.25457
20
0.321929
11
1.25457
21
0.188071
0
LINE
8
BLACK
6
CONTINUOUS
10
1.25457
20
0.188071
11
1.25428
21
0.187375
0
LINE
8
BLACK
6
CONTINUOUS
10
1.25428
20
0.187375
11
1.25358
21
0.187087
0
LINE
8
BLACK
6
CONTINUOUS
10
1.25358
20
0.187087
11
1.17642
21
0.187087
0
LINE
8
BLACK
6
CONTINUOUS
10
1.17642
20
0.187087
11
1.17572
21
0.187375
0
LINE
8
BLACK
6
CONTINUOUS
10
1.17572
20
0.187375
11
1.17543
21
0.188071
0
LINE
8
BLACK
6
CONTINUOUS
10
1.17543
20
0.188071
11
1.17543
21
0.321929
0
LINE
8
BLACK
6
CONTINUOUS
10
1.17543
20
0.321929
11
1.17572
21
0.322625
0
LINE
8
BLACK
6
CONTINUOUS
10
1.17572
20
0.322625
11
1.17642
21
0.322913
0
LINE
8
BLACK
6
CONTINUOUS
10
1.17642
20
0.322913
11
1.25358
21
0.322913
0
LINE
8
BLACK
6
CONTINUOUS
10
1.1774
20
0.320945
11
1.1774
21
0.189055
0
LINE
8
BLACK
6
CONTINUOUS
10
1.1774
20
0.189055
11
1.2526
21
0.189055
0
LINE
8
BLACK
6
CONTINUOUS
10
1.2526
20
0.189055
11
1.2526
21
0.320945
0
LINE
8
BLACK
6
CONTINUOUS
10
1.2526
20
0.320945
11
1.1774
21
0.320945
0
LINE
8
BLACK
6
CONTINUOUS
10
1.3474
20
0.322126
11
1.3481
21
0.321838
0
LINE
8
BLACK
6
CONTINUOUS
10
1.3481
20
0.321838
11
1.34839
21
0.321142
0
LINE
8
BLACK
6
CONTINUOUS
10
1.34839
20
0.321142
11
1.34839
21
0.188858
0
LINE
8
BLACK
6
CONTINUOUS
10
1.34839
20
0.188858
11
1.3481
21
0.188162
0
LINE
8
BLACK
6
CONTINUOUS
10
1.3481
20
0.188162
11
1.3474
21
0.187874
0
LINE
8
BLACK
6
CONTINUOUS
10
1.3474
20
0.187874
11
1.2726
21
0.187874
0
LINE
8
BLACK
6
CONTINUOUS
10
1.2726
20
0.187874
11
1.2719
21
0.188162
0
LINE
8
BLACK
6
CONTINUOUS
10
1.2719
20
0.188162
11
1.27161
21
0.188858
0
LINE
8
BLACK
6
CONTINUOUS
10
1.27161
20
0.188858
11
1.27161
21
0.321142
0
LINE
8
BLACK
6
CONTINUOUS
10
1.27161
20
0.321142
11
1.2719
21
0.321838
0
LINE
8
BLACK
6
CONTINUOUS
10
1.2719
20
0.321838
11
1.2726
21
0.322126
0
LINE
8
BLACK
6
CONTINUOUS
10
1.2726
20
0.322126
11
1.3474
21
0.322126
0
LINE
8
BLACK
6
CONTINUOUS
10
1.27358
20
0.320157
11
1.27358
21
0.189843
0
LINE
8
BLACK
6
CONTINUOUS
10
1.27358
20
0.189843
11
1.34642
21
0.189843
0
LINE
8
BLACK
6
CONTINUOUS
10
1.34642
20
0.189843
11
1.34642
21
0.320157
0
LINE
8
BLACK
6
CONTINUOUS
10
1.34642
20
0.320157
11
1.27358
21
0.320157
0
LINE
8
BLACK
6
CONTINUOUS
10
0.941929
20
0.334567
11
0.942625
21
0.334279
0
LINE
8
BLACK
6
CONTINUOUS
10
0.942625
20
0.334279
11
0.942913
21
0.333583
0
LINE
8
BLACK
6
CONTINUOUS
10
0.942913
20
0.333583
11
0.942913
21
0.256417
0
LINE
8
BLACK
6
CONTINUOUS
10
0.942913
20
0.256417
11
0.942625
21
0.255721
0
LINE
8
BLACK
6
CONTINUOUS
10
0.942625
20
0.255721
11
0.941929
21
0.255433
0
LINE
8
BLACK
6
CONTINUOUS
10
0.941929
20
0.255433
11
0.808071
21
0.255433
0
LINE
8
BLACK
6
CONTINUOUS
10
0.808071
20
0.255433
11
0.807375
21
0.255721
0
LINE
8
BLACK
6
CONTINUOUS
10
0.807375
20
0.255721
11
0.807087
21
0.256417
0
LINE
8
BLACK
6
CONTINUOUS
10
0.807087
20
0.256417
11
0.807087
21
0.333583
0
LINE
8
BLACK
6
CONTINUOUS
10
0.807087
20
0.333583
11
0.807375
21
0.334279
0
LINE
8
BLACK
6
CONTINUOUS
10
0.807375
20
0.334279
11
0.808071
21
0.334567
0
LINE
8
BLACK
6
CONTINUOUS
10
0.808071
20
0.334567
11
0.941929
21
0.334567
0
LINE
8
BLACK
6
CONTINUOUS
10
0.809055
20
0.332598
11
0.809055
21
0.257402
0
LINE
8
BLACK
6
CONTINUOUS
10
0.809055
20
0.257402
11
0.940945
21
0.257402
0
LINE
8
BLACK
6
CONTINUOUS
10
0.940945
20
0.257402
11
0.940945
21
0.332598
0
LINE
8
BLACK
6
CONTINUOUS
10
0.940945
20
0.332598
11
0.809055
21
0.332598
0
LINE
8
BLACK
6
CONTINUOUS
10
1.51858
20
0.407913
11
1.51928
21
0.407625
0
LINE
8
BLACK
6
CONTINUOUS
10
1.51928
20
0.407625
11
1.51957
21
0.406929
0
LINE
8
BLACK
6
CONTINUOUS
10
1.51957
20
0.406929
11
1.51957
21
0.273071
0
LINE
8
BLACK
6
CONTINUOUS
10
1.51957
20
0.273071
11
1.51928
21
0.272375
0
LINE
8
BLACK
6
CONTINUOUS
10
1.51928
20
0.272375
11
1.51858
21
0.272087
0
LINE
8
BLACK
6
CONTINUOUS
10
1.51858
20
0.272087
11
1.44142
21
0.272087
0
LINE
8
BLACK
6
CONTINUOUS
10
1.44142
20
0.272087
11
1.44072
21
0.272375
0
LINE
8
BLACK
6
CONTINUOUS
10
1.44072
20
0.272375
11
1.44043
21
0.273071
0
LINE
8
BLACK
6
CONTINUOUS
10
1.44043
20
0.273071
11
1.44043
21
0.273071
0
LINE
8
BLACK
6
CONTINUOUS
10
1.44043
20
0.273071
11
1.44043
21
0.406929
0
LINE
8
BLACK
6
CONTINUOUS
10
1.44043
20
0.406929
11
1.44072
21
0.407625
0
LINE
8
BLACK
6
CONTINUOUS
10
1.44072
20
0.407625
11
1.44142
21
0.407913
0
LINE
8
BLACK
6
CONTINUOUS
10
1.44142
20
0.407913
11
1.51858
21
0.407913
0
LINE
8
BLACK
6
CONTINUOUS
10
1.4424
20
0.405945
11
1.4424
21
0.274055
0
LINE
8
BLACK
6
CONTINUOUS
10
1.4424
20
0.274055
11
1.5176
21
0.274055
0
LINE
8
BLACK
6
CONTINUOUS
10
1.5176
20
0.274055
11
1.5176
21
0.405945
0
LINE
8
BLACK
6
CONTINUOUS
10
1.5176
20
0.405945
11
1.4424
21
0.405945
0
LINE
8
BLACK
6
CONTINUOUS
10
1.4274
20
0.407126
11
1.4281
21
0.406838
0
LINE
8
BLACK
6
CONTINUOUS
10
1.4281
20
0.406838
11
1.42839
21
0.406142
0
LINE
8
BLACK
6
CONTINUOUS
10
1.42839
20
0.406142
11
1.42839
21
0.273858
0
LINE
8
BLACK
6
CONTINUOUS
10
1.42839
20
0.273858
11
1.4281
21
0.273162
0
LINE
8
BLACK
6
CONTINUOUS
10
1.4281
20
0.273162
11
1.4274
21
0.272874
0
LINE
8
BLACK
6
CONTINUOUS
10
1.4274
20
0.272874
11
1.3526
21
0.272874
0
LINE
8
BLACK
6
CONTINUOUS
10
1.3526
20
0.272874
11
1.3519
21
0.273162
0
LINE
8
BLACK
6
CONTINUOUS
10
1.3519
20
0.273162
11
1.35161
21
0.273858
0
LINE
8
BLACK
6
CONTINUOUS
10
1.35161
20
0.273858
11
1.35161
21
0.406142
0
LINE
8
BLACK
6
CONTINUOUS
10
1.35161
20
0.406142
11
1.3519
21
0.406838
0
LINE
8
BLACK
6
CONTINUOUS
10
1.3519
20
0.406838
11
1.3526
21
0.407126
0
LINE
8
BLACK
6
CONTINUOUS
10
1.3526
20
0.407126
11
1.4274
21
0.407126
0
LINE
8
BLACK
6
CONTINUOUS
10
1.35358
20
0.405157
11
1.35358
21
0.274843
0
LINE
8
BLACK
6
CONTINUOUS
10
1.35358
20
0.274843
11
1.42642
21
0.274843
0
LINE
8
BLACK
6
CONTINUOUS
10
1.42642
20
0.274843
11
1.42642
21
0.405157
0
LINE
8
BLACK
6
CONTINUOUS
10
1.42642
20
0.405157
11
1.35358
21
0.405157
0
LINE
8
BLACK
6
CONTINUOUS
10
0.298622
20
0.401083
11
0.299318
21
0.400794
0
LINE
8
BLACK
6
CONTINUOUS
10
0.299318
20
0.400794
11
0.299606
21
0.400098
0
LINE
8
BLACK
6
CONTINUOUS
10
0.299606
20
0.400098
11
0.299606
21
0.325295
0
LINE
8
BLACK
6
CONTINUOUS
10
0.299606
20
0.325295
11
0.299318
21
0.324599
0
LINE
8
BLACK
6
CONTINUOUS
10
0.299318
20
0.324599
11
0.298622
21
0.324311
0
LINE
8
BLACK
6
CONTINUOUS
10
0.298622
20
0.324311
11
0.166339
21
0.324311
0
LINE
8
BLACK
6
CONTINUOUS
10
0.166339
20
0.324311
11
0.165643
21
0.324599
0
LINE
8
BLACK
6
CONTINUOUS
10
0.165643
20
0.324599
11
0.165354
21
0.325295
0
LINE
8
BLACK
6
CONTINUOUS
10
0.165354
20
0.325295
11
0.165354
21
0.400098
0
LINE
8
BLACK
6
CONTINUOUS
10
0.165354
20
0.400098
11
0.165643
21
0.400794
0
LINE
8
BLACK
6
CONTINUOUS
10
0.165643
20
0.400794
11
0.166339
21
0.401083
0
LINE
8
BLACK
6
CONTINUOUS
10
0.166339
20
0.401083
11
0.298622
21
0.401083
0
LINE
8
BLACK
6
CONTINUOUS
10
0.167323
20
0.399114
11
0.167323
21
0.32628
0
LINE
8
BLACK
6
CONTINUOUS
10
0.167323
20
0.32628
11
0.297638
21
0.32628
0
LINE
8
BLACK
6
CONTINUOUS
10
0.297638
20
0.32628
11
0.297638
21
0.399114
0
LINE
8
BLACK
6
CONTINUOUS
10
0.297638
20
0.399114
11
0.167323
21
0.399114
0
LINE
8
BLACK
6
CONTINUOUS
10
0.863583
20
0.492913
11
0.864279
21
0.492625
0
LINE
8
BLACK
6
CONTINUOUS
10
0.864279
20
0.492625
11
0.864567
21
0.491929
0
LINE
8
BLACK
6
CONTINUOUS
10
0.864567
20
0.491929
11
0.864567
21
0.358071
0
LINE
8
BLACK
6
CONTINUOUS
10
0.864567
20
0.358071
11
0.864279
21
0.357375
0
LINE
8
BLACK
6
CONTINUOUS
10
0.864279
20
0.357375
11
0.863583
21
0.357087
0
LINE
8
BLACK
6
CONTINUOUS
10
0.863583
20
0.357087
11
0.786417
21
0.357087
0
LINE
8
BLACK
6
CONTINUOUS
10
0.786417
20
0.357087
11
0.785721
21
0.357375
0
LINE
8
BLACK
6
CONTINUOUS
10
0.785721
20
0.357375
11
0.785433
21
0.358071
0
LINE
8
BLACK
6
CONTINUOUS
10
0.785433
20
0.358071
11
0.785433
21
0.491929
0
LINE
8
BLACK
6
CONTINUOUS
10
0.785433
20
0.491929
11
0.785721
21
0.492625
0
LINE
8
BLACK
6
CONTINUOUS
10
0.785721
20
0.492625
11
0.786417
21
0.492913
0
LINE
8
BLACK
6
CONTINUOUS
10
0.786417
20
0.492913
11
0.863583
21
0.492913
0
LINE
8
BLACK
6
CONTINUOUS
10
0.787402
20
0.490945
11
0.787402
21
0.359055
0
LINE
8
BLACK
6
CONTINUOUS
10
0.787402
20
0.359055
11
0.862598
21
0.359055
0
LINE
8
BLACK
6
CONTINUOUS
10
0.862598
20
0.359055
11
0.862598
21
0.490945
0
LINE
8
BLACK
6
CONTINUOUS
10
0.862598
20
0.490945
11
0.787402
21
0.490945
0
LINE
8
BLACK
6
CONTINUOUS
10
0.963583
20
0.492913
11
0.964279
21
0.492625
0
LINE
8
BLACK
6
CONTINUOUS
10
0.964279
20
0.492625
11
0.964567
21
0.491929
0
LINE
8
BLACK
6
CONTINUOUS
10
0.964567
20
0.491929
11
0.964567
21
0.358071
0
LINE
8
BLACK
6
CONTINUOUS
10
0.964567
20
0.358071
11
0.964279
21
0.357375
0
LINE
8
BLACK
6
CONTINUOUS
10
0.964279
20
0.357375
11
0.963583
21
0.357087
0
LINE
8
BLACK
6
CONTINUOUS
10
0.963583
20
0.357087
11
0.886417
21
0.357087
0
LINE
8
BLACK
6
CONTINUOUS
10
0.886417
20
0.357087
11
0.885721
21
0.357375
0
LINE
8
BLACK
6
CONTINUOUS
10
0.885721
20
0.357375
11
0.885433
21
0.358071
0
LINE
8
BLACK
6
CONTINUOUS
10
0.885433
20
0.358071
11
0.885433
21
0.491929
0
LINE
8
BLACK
6
CONTINUOUS
10
0.885433
20
0.491929
11
0.885721
21
0.492625
0
LINE
8
BLACK
6
CONTINUOUS
10
0.885721
20
0.492625
11
0.886417
21
0.492913
0
LINE
8
BLACK
6
CONTINUOUS
10
0.886417
20
0.492913
11
0.963583
21
0.492913
0
LINE
8
BLACK
6
CONTINUOUS
10
0.887402
20
0.490945
11
0.887402
21
0.359055
0
LINE
8
BLACK
6
CONTINUOUS
10
0.887402
20
0.359055
11
0.962598
21
0.359055
0
LINE
8
BLACK
6
CONTINUOUS
10
0.962598
20
0.359055
11
0.962598
21
0.490945
0
LINE
8
BLACK
6
CONTINUOUS
10
0.962598
20
0.490945
11
0.887402
21
0.490945
0
LINE
8
BLACK
6
CONTINUOUS
10
1.30058
20
0.630913
11
1.30128
21
0.630625
0
LINE
8
BLACK
6
CONTINUOUS
10
1.30128
20
0.630625
11
1.30157
21
0.629929
0
LINE
8
BLACK
6
CONTINUOUS
10
1.30157
20
0.629929
11
1.30157
21
0.496071
0
LINE
8
BLACK
6
CONTINUOUS
10
1.30157
20
0.496071
11
1.30128
21
0.495375
0
LINE
8
BLACK
6
CONTINUOUS
10
1.30128
20
0.495375
11
1.30058
21
0.495087
0
LINE
8
BLACK
6
CONTINUOUS
10
1.30058
20
0.495087
11
1.30039
21
0.495087
0
LINE
8
BLACK
6
CONTINUOUS
10
1.30039
20
0.495087
11
1.30039
21
0.364858
0
LINE
8
BLACK
6
CONTINUOUS
10
1.30039
20
0.364858
11
1.3001
21
0.364162
0
LINE
8
BLACK
6
CONTINUOUS
10
1.3001
20
0.364162
11
1.2994
21
0.363874
0
LINE
8
BLACK
6
CONTINUOUS
10
1.2994
20
0.363874
11
1.2246
21
0.363874
0
LINE
8
BLACK
6
CONTINUOUS
10
1.2246
20
0.363874
11
1.2239
21
0.364162
0
LINE
8
BLACK
6
CONTINUOUS
10
1.2239
20
0.364162
11
1.22361
21
0.364858
0
LINE
8
BLACK
6
CONTINUOUS
10
1.22361
20
0.364858
11
1.22361
21
0.495087
0
LINE
8
BLACK
6
CONTINUOUS
10
1.22361
20
0.495087
11
1.22342
21
0.495087
0
LINE
8
BLACK
6
CONTINUOUS
10
1.22342
20
0.495087
11
1.22272
21
0.495375
0
LINE
8
BLACK
6
CONTINUOUS
10
1.22272
20
0.495375
11
1.22243
21
0.496071
0
LINE
8
BLACK
6
CONTINUOUS
10
1.22243
20
0.496071
11
1.22243
21
0.629929
0
LINE
8
BLACK
6
CONTINUOUS
10
1.22243
20
0.629929
11
1.22272
21
0.630625
0
LINE
8
BLACK
6
CONTINUOUS
10
1.22272
20
0.630625
11
1.22342
21
0.630913
0
LINE
8
BLACK
6
CONTINUOUS
10
1.22342
20
0.630913
11
1.30058
21
0.630913
0
LINE
8
BLACK
6
CONTINUOUS
10
1.22558
20
0.495087
11
1.22558
21
0.365843
0
LINE
8
BLACK
6
CONTINUOUS
10
1.22558
20
0.365843
11
1.29842
21
0.365843
0
LINE
8
BLACK
6
CONTINUOUS
10
1.29842
20
0.365843
11
1.29842
21
0.495087
0
LINE
8
BLACK
6
CONTINUOUS
10
1.29842
20
0.495087
11
1.22558
21
0.495087
0
LINE
8
BLACK
6
CONTINUOUS
10
1.2244
20
0.628945
11
1.2244
21
0.498044
0
LINE
8
BLACK
6
CONTINUOUS
10
1.2244
20
0.498044
11
1.2246
21
0.498126
0
LINE
8
BLACK
6
CONTINUOUS
10
1.2246
20
0.498126
11
1.2994
21
0.498126
0
LINE
8
BLACK
6
CONTINUOUS
10
1.2994
20
0.498126
11
1.2996
21
0.498044
0
LINE
8
BLACK
6
CONTINUOUS
10
1.2996
20
0.498044
11
1.2996
21
0.628945
0
LINE
8
BLACK
6
CONTINUOUS
10
1.2996
20
0.628945
11
1.2244
21
0.628945
0
LINE
8
BLACK
6
CONTINUOUS
10
0.270642
20
0.488386
11
0.271338
21
0.488098
0
LINE
8
BLACK
6
CONTINUOUS
10
0.271338
20
0.488098
11
0.271626
21
0.487402
0
LINE
8
BLACK
6
CONTINUOUS
10
0.271626
20
0.487402
11
0.271626
21
0.412598
0
LINE
8
BLACK
6
CONTINUOUS
10
0.271626
20
0.412598
11
0.271338
21
0.411902
0
LINE
8
BLACK
6
CONTINUOUS
10
0.271338
20
0.411902
11
0.270642
21
0.411614
0
LINE
8
BLACK
6
CONTINUOUS
10
0.270642
20
0.411614
11
0.138358
21
0.411614
0
LINE
8
BLACK
6
CONTINUOUS
10
0.138358
20
0.411614
11
0.137662
21
0.411902
0
LINE
8
BLACK
6
CONTINUOUS
10
0.137662
20
0.411902
11
0.137374
21
0.412598
0
LINE
8
BLACK
6
CONTINUOUS
10
0.137374
20
0.412598
11
0.137374
21
0.487402
0
LINE
8
BLACK
6
CONTINUOUS
10
0.137374
20
0.487402
11
0.137662
21
0.488098
0
LINE
8
BLACK
6
CONTINUOUS
10
0.137662
20
0.488098
11
0.138358
21
0.488386
0
LINE
8
BLACK
6
CONTINUOUS
10
0.138358
20
0.488386
11
0.270642
21
0.488386
0
LINE
8
BLACK
6
CONTINUOUS
10
0.139343
20
0.486417
11
0.139343
21
0.413583
0
LINE
8
BLACK
6
CONTINUOUS
10
0.139343
20
0.413583
11
0.269657
21
0.413583
0
LINE
8
BLACK
6
CONTINUOUS
10
0.269657
20
0.413583
11
0.269657
21
0.486417
0
LINE
8
BLACK
6
CONTINUOUS
10
0.269657
20
0.486417
11
0.139343
21
0.486417
0
LINE
8
BLACK
6
CONTINUOUS
10
1.5114
20
0.557126
11
1.5121
21
0.556838
0
LINE
8
BLACK
6
CONTINUOUS
10
1.5121
20
0.556838
11
1.51239
21
0.556142
0
LINE
8
BLACK
6
CONTINUOUS
10
1.51239
20
0.556142
11
1.51239
21
0.423858
0
LINE
8
BLACK
6
CONTINUOUS
10
1.51239
20
0.423858
11
1.5121
21
0.423162
0
LINE
8
BLACK
6
CONTINUOUS
10
1.5121
20
0.423162
11
1.5114
21
0.422874
0
LINE
8
BLACK
6
CONTINUOUS
10
1.5114
20
0.422874
11
1.4366
21
0.422874
0
LINE
8
BLACK
6
CONTINUOUS
10
1.4366
20
0.422874
11
1.4359
21
0.423162
0
LINE
8
BLACK
6
CONTINUOUS
10
1.4359
20
0.423162
11
1.43561
21
0.423858
0
LINE
8
BLACK
6
CONTINUOUS
10
1.43561
20
0.423858
11
1.43561
21
0.556142
0
LINE
8
BLACK
6
CONTINUOUS
10
1.43561
20
0.556142
11
1.4359
21
0.556838
0
LINE
8
BLACK
6
CONTINUOUS
10
1.4359
20
0.556838
11
1.4366
21
0.557126
0
LINE
8
BLACK
6
CONTINUOUS
10
1.4366
20
0.557126
11
1.5114
21
0.557126
0
LINE
8
BLACK
6
CONTINUOUS
10
1.43758
20
0.555157
11
1.43758
21
0.424843
0
LINE
8
BLACK
6
CONTINUOUS
10
1.43758
20
0.424843
11
1.51042
21
0.424843
0
LINE
8
BLACK
6
CONTINUOUS
10
1.51042
20
0.424843
11
1.51042
21
0.555157
0
LINE
8
BLACK
6
CONTINUOUS
10
1.51042
20
0.555157
11
1.43758
21
0.555157
0
LINE
8
BLACK
6
CONTINUOUS
10
1.3794
20
0.561126
11
1.3801
21
0.560838
0
LINE
8
BLACK
6
CONTINUOUS
10
1.3801
20
0.560838
11
1.38039
21
0.560142
0
LINE
8
BLACK
6
CONTINUOUS
10
1.38039
20
0.560142
11
1.38039
21
0.427858
0
LINE
8
BLACK
6
CONTINUOUS
10
1.38039
20
0.427858
11
1.3801
21
0.427162
0
LINE
8
BLACK
6
CONTINUOUS
10
1.3801
20
0.427162
11
1.3794
21
0.426874
0
LINE
8
BLACK
6
CONTINUOUS
10
1.3794
20
0.426874
11
1.3046
21
0.426874
0
LINE
8
BLACK
6
CONTINUOUS
10
1.3046
20
0.426874
11
1.3039
21
0.427162
0
LINE
8
BLACK
6
CONTINUOUS
10
1.3039
20
0.427162
11
1.30361
21
0.427858
0
LINE
8
BLACK
6
CONTINUOUS
10
1.30361
20
0.427858
11
1.30361
21
0.560142
0
LINE
8
BLACK
6
CONTINUOUS
10
1.30361
20
0.560142
11
1.3039
21
0.560838
0
LINE
8
BLACK
6
CONTINUOUS
10
1.3039
20
0.560838
11
1.3046
21
0.561126
0
LINE
8
BLACK
6
CONTINUOUS
10
1.3046
20
0.561126
11
1.3794
21
0.561126
0
LINE
8
BLACK
6
CONTINUOUS
10
1.30558
20
0.559157
11
1.30558
21
0.428843
0
LINE
8
BLACK
6
CONTINUOUS
10
1.30558
20
0.428843
11
1.37842
21
0.428843
0
LINE
8
BLACK
6
CONTINUOUS
10
1.37842
20
0.428843
11
1.37842
21
0.559157
0
LINE
8
BLACK
6
CONTINUOUS
10
1.37842
20
0.559157
11
1.30558
21
0.559157
0
LINE
8
BLACK
6
CONTINUOUS
10
0.715827
20
0.611969
11
0.716523
21
0.61168
0
LINE
8
BLACK
6
CONTINUOUS
10
0.716523
20
0.61168
11
0.716811
21
0.610984
0
LINE
8
BLACK
6
CONTINUOUS
10
0.716811
20
0.610984
11
0.716811
21
0.459803
0
LINE
8
BLACK
6
CONTINUOUS
10
0.716811
20
0.459803
11
0.716523
21
0.459107
0
LINE
8
BLACK
6
CONTINUOUS
10
0.716523
20
0.459107
11
0.715827
21
0.458819
0
LINE
8
BLACK
6
CONTINUOUS
10
0.715827
20
0.458819
11
0.581969
21
0.458819
0
LINE
8
BLACK
6
CONTINUOUS
10
0.581969
20
0.458819
11
0.581273
21
0.459107
0
LINE
8
BLACK
6
CONTINUOUS
10
0.581273
20
0.459107
11
0.580984
21
0.459803
0
LINE
8
BLACK
6
CONTINUOUS
10
0.580984
20
0.459803
11
0.580984
21
0.610984
0
LINE
8
BLACK
6
CONTINUOUS
10
0.580984
20
0.610984
11
0.581273
21
0.61168
0
LINE
8
BLACK
6
CONTINUOUS
10
0.581273
20
0.61168
11
0.581969
21
0.611969
0
LINE
8
BLACK
6
CONTINUOUS
10
0.581969
20
0.611969
11
0.715827
21
0.611969
0
LINE
8
BLACK
6
CONTINUOUS
10
0.582953
20
0.61
11
0.582953
21
0.460787
0
LINE
8
BLACK
6
CONTINUOUS
10
0.582953
20
0.460787
11
0.714843
21
0.460787
0
LINE
8
BLACK
6
CONTINUOUS
10
0.714843
20
0.460787
11
0.714843
21
0.61
0
LINE
8
BLACK
6
CONTINUOUS
10
0.714843
20
0.61
11
0.582953
21
0.61
0
LINE
8
BLACK
6
CONTINUOUS
10
0.418583
20
0.597913
11
0.419279
21
0.597625
0
LINE
8
BLACK
6
CONTINUOUS
10
0.419279
20
0.597625
11
0.419567
21
0.596929
0
LINE
8
BLACK
6
CONTINUOUS
10
0.419567
20
0.596929
11
0.419567
21
0.463071
0
LINE
8
BLACK
6
CONTINUOUS
10
0.419567
20
0.463071
11
0.419279
21
0.462375
0
LINE
8
BLACK
6
CONTINUOUS
10
0.419279
20
0.462375
11
0.418583
21
0.462087
0
LINE
8
BLACK
6
CONTINUOUS
10
0.418583
20
0.462087
11
0.341417
21
0.462087
0
LINE
8
BLACK
6
CONTINUOUS
10
0.341417
20
0.462087
11
0.340721
21
0.462375
0
LINE
8
BLACK
6
CONTINUOUS
10
0.340721
20
0.462375
11
0.340433
21
0.463071
0
LINE
8
BLACK
6
CONTINUOUS
10
0.340433
20
0.463071
11
0.340433
21
0.596929
0
LINE
8
BLACK
6
CONTINUOUS
10
0.340433
20
0.596929
11
0.340721
21
0.597625
0
LINE
8
BLACK
6
CONTINUOUS
10
0.340721
20
0.597625
11
0.341417
21
0.597913
0
LINE
8
BLACK
6
CONTINUOUS
10
0.341417
20
0.597913
11
0.418583
21
0.597913
0
LINE
8
BLACK
6
CONTINUOUS
10
0.342402
20
0.595945
11
0.342402
21
0.464055
0
LINE
8
BLACK
6
CONTINUOUS
10
0.342402
20
0.464055
11
0.417598
21
0.464055
0
LINE
8
BLACK
6
CONTINUOUS
10
0.417598
20
0.464055
11
0.417598
21
0.595945
0
LINE
8
BLACK
6
CONTINUOUS
10
0.417598
20
0.595945
11
0.342402
21
0.595945
0
LINE
8
BLACK
6
CONTINUOUS
10
0.282583
20
0.624413
11
0.283279
21
0.624125
0
LINE
8
BLACK
6
CONTINUOUS
10
0.283279
20
0.624125
11
0.283567
21
0.623429
0
LINE
8
BLACK
6
CONTINUOUS
10
0.283567
20
0.623429
11
0.283567
21
0.489571
0
LINE
8
BLACK
6
CONTINUOUS
10
0.283567
20
0.489571
11
0.283279
21
0.488875
0
LINE
8
BLACK
6
CONTINUOUS
10
0.283279
20
0.488875
11
0.282583
21
0.488587
0
LINE
8
BLACK
6
CONTINUOUS
10
0.282583
20
0.488587
11
0.205417
21
0.488587
0
LINE
8
BLACK
6
CONTINUOUS
10
0.205417
20
0.488587
11
0.204721
21
0.488875
0
LINE
8
BLACK
6
CONTINUOUS
10
0.204721
20
0.488875
11
0.204433
21
0.489571
0
LINE
8
BLACK
6
CONTINUOUS
10
0.204433
20
0.489571
11
0.204433
21
0.489571
0
LINE
8
BLACK
6
CONTINUOUS
10
0.204433
20
0.489571
11
0.204433
21
0.623429
0
LINE
8
BLACK
6
CONTINUOUS
10
0.204433
20
0.623429
11
0.204721
21
0.624125
0
LINE
8
BLACK
6
CONTINUOUS
10
0.204721
20
0.624125
11
0.205417
21
0.624413
0
LINE
8
BLACK
6
CONTINUOUS
10
0.205417
20
0.624413
11
0.282583
21
0.624413
0
LINE
8
BLACK
6
CONTINUOUS
10
0.206402
20
0.622445
11
0.206402
21
0.490555
0
LINE
8
BLACK
6
CONTINUOUS
10
0.206402
20
0.490555
11
0.281598
21
0.490555
0
LINE
8
BLACK
6
CONTINUOUS
10
0.281598
20
0.490555
11
0.281598
21
0.622445
0
LINE
8
BLACK
6
CONTINUOUS
10
0.281598
20
0.622445
11
0.206402
21
0.622445
0
LINE
8
BLACK
6
CONTINUOUS
10
1.43693
20
0.641567
11
1.43763
21
0.641279
0
LINE
8
BLACK
6
CONTINUOUS
10
1.43763
20
0.641279
11
1.43791
21
0.640583
0
LINE
8
BLACK
6
CONTINUOUS
10
1.43791
20
0.640583
11
1.43791
21
0.563417
0
LINE
8
BLACK
6
CONTINUOUS
10
1.43791
20
0.563417
11
1.43763
21
0.562721
0
LINE
8
BLACK
6
CONTINUOUS
10
1.43763
20
0.562721
11
1.43693
21
0.562433
0
LINE
8
BLACK
6
CONTINUOUS
10
1.43693
20
0.562433
11
1.30307
21
0.562433
0
LINE
8
BLACK
6
CONTINUOUS
10
1.30307
20
0.562433
11
1.30237
21
0.562721
0
LINE
8
BLACK
6
CONTINUOUS
10
1.30237
20
0.562721
11
1.30209
21
0.563417
0
LINE
8
BLACK
6
CONTINUOUS
10
1.30209
20
0.563417
11
1.30209
21
0.640583
0
LINE
8
BLACK
6
CONTINUOUS
10
1.30209
20
0.640583
11
1.30237
21
0.641279
0
LINE
8
BLACK
6
CONTINUOUS
10
1.30237
20
0.641279
11
1.30307
21
0.641567
0
LINE
8
BLACK
6
CONTINUOUS
10
1.30307
20
0.641567
11
1.43693
21
0.641567
0
LINE
8
BLACK
6
CONTINUOUS
10
1.30406
20
0.639598
11
1.30406
21
0.564402
0
LINE
8
BLACK
6
CONTINUOUS
10
1.30406
20
0.564402
11
1.43594
21
0.564402
0
LINE
8
BLACK
6
CONTINUOUS
10
1.43594
20
0.564402
11
1.43594
21
0.639598
0
LINE
8
BLACK
6
CONTINUOUS
10
1.43594
20
0.639598
11
1.30406
21
0.639598
0
LINE
8
BLACK
6
CONTINUOUS
10
0.417402
20
0.742126
11
0.418098
21
0.741838
0
LINE
8
BLACK
6
CONTINUOUS
10
0.418098
20
0.741838
11
0.418386
21
0.741142
0
LINE
8
BLACK
6
CONTINUOUS
10
0.418386
20
0.741142
11
0.418386
21
0.608858
0
LINE
8
BLACK
6
CONTINUOUS
10
0.418386
20
0.608858
11
0.418098
21
0.608162
0
LINE
8
BLACK
6
CONTINUOUS
10
0.418098
20
0.608162
11
0.417402
21
0.607874
0
LINE
8
BLACK
6
CONTINUOUS
10
0.417402
20
0.607874
11
0.342598
21
0.607874
0
LINE
8
BLACK
6
CONTINUOUS
10
0.342598
20
0.607874
11
0.341902
21
0.608162
0
LINE
8
BLACK
6
CONTINUOUS
10
0.341902
20
0.608162
11
0.341614
21
0.608858
0
LINE
8
BLACK
6
CONTINUOUS
10
0.341614
20
0.608858
11
0.341614
21
0.741142
0
LINE
8
BLACK
6
CONTINUOUS
10
0.341614
20
0.741142
11
0.341902
21
0.741838
0
LINE
8
BLACK
6
CONTINUOUS
10
0.341902
20
0.741838
11
0.342598
21
0.742126
0
LINE
8
BLACK
6
CONTINUOUS
10
0.342598
20
0.742126
11
0.417402
21
0.742126
0
LINE
8
BLACK
6
CONTINUOUS
10
0.343583
20
0.740157
11
0.343583
21
0.609843
0
LINE
8
BLACK
6
CONTINUOUS
10
0.343583
20
0.609843
11
0.416417
21
0.609843
0
LINE
8
BLACK
6
CONTINUOUS
10
0.416417
20
0.609843
11
0.416417
21
0.740157
0
LINE
8
BLACK
6
CONTINUOUS
10
0.416417
20
0.740157
11
0.343583
21
0.740157
0
LINE
8
BLACK
6
CONTINUOUS
10
1.31358
20
0.792913
11
1.31428
21
0.792625
0
LINE
8
BLACK
6
CONTINUOUS
10
1.31428
20
0.792625
11
1.31457
21
0.791929
0
LINE
8
BLACK
6
CONTINUOUS
10
1.31457
20
0.791929
11
1.31457
21
0.658071
0
LINE
8
BLACK
6
CONTINUOUS
10
1.31457
20
0.658071
11
1.31428
21
0.657375
0
LINE
8
BLACK
6
CONTINUOUS
10
1.31428
20
0.657375
11
1.31358
21
0.657087
0
LINE
8
BLACK
6
CONTINUOUS
10
1.31358
20
0.657087
11
1.23642
21
0.657087
0
LINE
8
BLACK
6
CONTINUOUS
10
1.23642
20
0.657087
11
1.23572
21
0.657375
0
LINE
8
BLACK
6
CONTINUOUS
10
1.23572
20
0.657375
11
1.23543
21
0.658071
0
LINE
8
BLACK
6
CONTINUOUS
10
1.23543
20
0.658071
11
1.23543
21
0.791929
0
LINE
8
BLACK
6
CONTINUOUS
10
1.23543
20
0.791929
11
1.23572
21
0.792625
0
LINE
8
BLACK
6
CONTINUOUS
10
1.23572
20
0.792625
11
1.23642
21
0.792913
0
LINE
8
BLACK
6
CONTINUOUS
10
1.23642
20
0.792913
11
1.31358
21
0.792913
0
LINE
8
BLACK
6
CONTINUOUS
10
1.2374
20
0.790945
11
1.2374
21
0.659055
0
LINE
8
BLACK
6
CONTINUOUS
10
1.2374
20
0.659055
11
1.3126
21
0.659055
0
LINE
8
BLACK
6
CONTINUOUS
10
1.3126
20
0.659055
11
1.3126
21
0.790945
0
LINE
8
BLACK
6
CONTINUOUS
10
1.3126
20
0.790945
11
1.2374
21
0.790945
0
LINE
8
BLACK
6
CONTINUOUS
10
1.41358
20
0.792913
11
1.41428
21
0.792625
0
LINE
8
BLACK
6
CONTINUOUS
10
1.41428
20
0.792625
11
1.41457
21
0.791929
0
LINE
8
BLACK
6
CONTINUOUS
10
1.41457
20
0.791929
11
1.41457
21
0.658071
0
LINE
8
BLACK
6
CONTINUOUS
10
1.41457
20
0.658071
11
1.41428
21
0.657375
0
LINE
8
BLACK
6
CONTINUOUS
10
1.41428
20
0.657375
11
1.41358
21
0.657087
0
LINE
8
BLACK
6
CONTINUOUS
10
1.41358
20
0.657087
11
1.33642
21
0.657087
0
LINE
8
BLACK
6
CONTINUOUS
10
1.33642
20
0.657087
11
1.33572
21
0.657375
0
LINE
8
BLACK
6
CONTINUOUS
10
1.33572
20
0.657375
11
1.33543
21
0.658071
0
LINE
8
BLACK
6
CONTINUOUS
10
1.33543
20
0.658071
11
1.33543
21
0.791929
0
LINE
8
BLACK
6
CONTINUOUS
10
1.33543
20
0.791929
11
1.33572
21
0.792625
0
LINE
8
BLACK
6
CONTINUOUS
10
1.33572
20
0.792625
11
1.33642
21
0.792913
0
LINE
8
BLACK
6
CONTINUOUS
10
1.33642
20
0.792913
11
1.41358
21
0.792913
0
LINE
8
BLACK
6
CONTINUOUS
10
1.3374
20
0.790945
11
1.3374
21
0.659055
0
LINE
8
BLACK
6
CONTINUOUS
10
1.3374
20
0.659055
11
1.4126
21
0.659055
0
LINE
8
BLACK
6
CONTINUOUS
10
1.4126
20
0.659055
11
1.4126
21
0.790945
0
LINE
8
BLACK
6
CONTINUOUS
10
1.4126
20
0.790945
11
1.3374
21
0.790945
  0
ENDSEC
  0
EOF
