  0
SECTION
  2
HEADER
  9
$ANGBASE
  50
0.0
  9
$ANGDIR
  70
1
  9
$MEASUREMENT
  70
0
  0
ENDSEC
  0
SECTION
  2
TABLES
  0
TABLE
  2
LTYPE
  70
4
  0
LTYPE
  5
40F
  2
CONTINUOUS
  70
0
  3
Solid line
  72
65
  73
0
  40
0.0
  0
LTYPE
  5
410
  2
DASHDOT
 70
0
  3
Dash Dot ____ _ ____ _
 72
65
 73
4
 40
2.0
 49
1.25
 49
-0.25
 49
0.25
 49
-0.25
  0
LTYPE
  5
411
  2
DASHED
 70
0
  3
Dashed __ __ __ __ __
 72
65
 73
2
 40
0.75
 49
0.5
 49
-0.25
  0
LTYPE
  5
43B
  2
DOTTED
 70
0
  3
Dotted .  .  .  .
 72
65
 73
2
 40
0.2
 49
0.0
 49
-0.2
  0
ENDTAB
  0
TABLE
  2
STYLE
  70
4
  0
STYLE
  2
KICAD
  70
0
  40
0
  41
1
  42
1
  50
0
  71
0
  3
isocp.shx
  0
STYLE
  2
KICADB
  70
0
  40
0
  41
1
  42
1
  50
0
  71
0
  3
isocp.shx
  0
STYLE
  2
KICADI
  70
0
  40
0
  41
1
  42
1
  50
15
  71
0
  3
isocp.shx
  0
STYLE
  2
KICADBI
  70
0
  40
0
  41
1
  42
1
  50
15
  71
0
  3
isocp.shx
  0
ENDTAB
  0
TABLE
  2
LAYER
  70
1
  0
LAYER
  2
BLACK
  70
0
  62
7
  6
CONTINUOUS
  0
ENDTAB
  0
ENDSEC
  0
SECTION
  2
ENTITIES
0
LINE
8
BLACK
6
CONTINUOUS
10
6.13234
20
-3.85122
11
6.07734
21
-3.85122
0
LINE
8
BLACK
6
CONTINUOUS
10
6.07734
20
-3.85122
11
6.07734
21
-3.81622
0
LINE
8
BLACK
6
CONTINUOUS
10
6.07734
20
-3.81622
11
6.13234
21
-3.81622
0
LINE
8
BLACK
6
CONTINUOUS
10
6.13234
20
-3.81622
11
6.13234
21
-3.85122
0
LINE
8
BLACK
6
CONTINUOUS
10
6.20734
20
-3.85122
11
6.15234
21
-3.85122
0
LINE
8
BLACK
6
CONTINUOUS
10
6.15234
20
-3.85122
11
6.15234
21
-3.81622
0
LINE
8
BLACK
6
CONTINUOUS
10
6.15234
20
-3.81622
11
6.20734
21
-3.81622
0
LINE
8
BLACK
6
CONTINUOUS
10
6.20734
20
-3.81622
11
6.20734
21
-3.85122
0
LINE
8
BLACK
6
CONTINUOUS
10
6.38384
20
-3.84672
11
6.34884
21
-3.84672
0
LINE
8
BLACK
6
CONTINUOUS
10
6.34884
20
-3.84672
11
6.34884
21
-3.79172
0
LINE
8
BLACK
6
CONTINUOUS
10
6.34884
20
-3.79172
11
6.38384
21
-3.79172
0
LINE
8
BLACK
6
CONTINUOUS
10
6.38384
20
-3.79172
11
6.38384
21
-3.84672
0
LINE
8
BLACK
6
CONTINUOUS
10
6.30884
20
-3.84672
11
6.27384
21
-3.84672
0
LINE
8
BLACK
6
CONTINUOUS
10
6.27384
20
-3.84672
11
6.27384
21
-3.79172
0
LINE
8
BLACK
6
CONTINUOUS
10
6.27384
20
-3.79172
11
6.30884
21
-3.79172
0
LINE
8
BLACK
6
CONTINUOUS
10
6.30884
20
-3.79172
11
6.30884
21
-3.84672
0
LINE
8
BLACK
6
CONTINUOUS
10
6.20734
20
-3.77622
11
6.15234
21
-3.77622
0
LINE
8
BLACK
6
CONTINUOUS
10
6.15234
20
-3.77622
11
6.15234
21
-3.74122
0
LINE
8
BLACK
6
CONTINUOUS
10
6.15234
20
-3.74122
11
6.20734
21
-3.74122
0
LINE
8
BLACK
6
CONTINUOUS
10
6.20734
20
-3.74122
11
6.20734
21
-3.77622
0
LINE
8
BLACK
6
CONTINUOUS
10
6.13234
20
-3.77622
11
6.07734
21
-3.77622
0
LINE
8
BLACK
6
CONTINUOUS
10
6.07734
20
-3.77622
11
6.07734
21
-3.74122
0
LINE
8
BLACK
6
CONTINUOUS
10
6.07734
20
-3.74122
11
6.13234
21
-3.74122
0
LINE
8
BLACK
6
CONTINUOUS
10
6.13234
20
-3.74122
11
6.13234
21
-3.77622
0
LINE
8
BLACK
6
CONTINUOUS
10
6.38484
20
-3.77372
11
6.34984
21
-3.77372
0
LINE
8
BLACK
6
CONTINUOUS
10
6.34984
20
-3.77372
11
6.34984
21
-3.71872
0
LINE
8
BLACK
6
CONTINUOUS
10
6.34984
20
-3.71872
11
6.38484
21
-3.71872
0
LINE
8
BLACK
6
CONTINUOUS
10
6.38484
20
-3.71872
11
6.38484
21
-3.77372
0
LINE
8
BLACK
6
CONTINUOUS
10
6.30984
20
-3.77372
11
6.27484
21
-3.77372
0
LINE
8
BLACK
6
CONTINUOUS
10
6.27484
20
-3.77372
11
6.27484
21
-3.71872
0
LINE
8
BLACK
6
CONTINUOUS
10
6.27484
20
-3.71872
11
6.30984
21
-3.71872
0
LINE
8
BLACK
6
CONTINUOUS
10
6.30984
20
-3.71872
11
6.30984
21
-3.77372
0
LINE
8
BLACK
6
CONTINUOUS
10
6.47734
20
-3.72622
11
6.42234
21
-3.72622
0
LINE
8
BLACK
6
CONTINUOUS
10
6.42234
20
-3.72622
11
6.42234
21
-3.69122
0
LINE
8
BLACK
6
CONTINUOUS
10
6.42234
20
-3.69122
11
6.47734
21
-3.69122
0
LINE
8
BLACK
6
CONTINUOUS
10
6.47734
20
-3.69122
11
6.47734
21
-3.72622
0
LINE
8
BLACK
6
CONTINUOUS
10
6.57234
20
-3.72622
11
6.51734
21
-3.72622
0
LINE
8
BLACK
6
CONTINUOUS
10
6.51734
20
-3.72622
11
6.51734
21
-3.69122
0
LINE
8
BLACK
6
CONTINUOUS
10
6.51734
20
-3.69122
11
6.57234
21
-3.69122
0
LINE
8
BLACK
6
CONTINUOUS
10
6.57234
20
-3.69122
11
6.57234
21
-3.72622
0
LINE
8
BLACK
6
CONTINUOUS
10
6.67234
20
-3.72122
11
6.61734
21
-3.72122
0
LINE
8
BLACK
6
CONTINUOUS
10
6.61734
20
-3.72122
11
6.61734
21
-3.68622
0
LINE
8
BLACK
6
CONTINUOUS
10
6.61734
20
-3.68622
11
6.67234
21
-3.68622
0
LINE
8
BLACK
6
CONTINUOUS
10
6.67234
20
-3.68622
11
6.67234
21
-3.72122
0
LINE
8
BLACK
6
CONTINUOUS
10
6.76734
20
-3.72122
11
6.71234
21
-3.72122
0
LINE
8
BLACK
6
CONTINUOUS
10
6.71234
20
-3.72122
11
6.71234
21
-3.68622
0
LINE
8
BLACK
6
CONTINUOUS
10
6.71234
20
-3.68622
11
6.76734
21
-3.68622
0
LINE
8
BLACK
6
CONTINUOUS
10
6.76734
20
-3.68622
11
6.76734
21
-3.72122
0
LINE
8
BLACK
6
CONTINUOUS
10
6.03234
20
-3.71622
11
5.97734
21
-3.71622
0
LINE
8
BLACK
6
CONTINUOUS
10
5.97734
20
-3.71622
11
5.97734
21
-3.68122
0
LINE
8
BLACK
6
CONTINUOUS
10
5.97734
20
-3.68122
11
6.03234
21
-3.68122
0
LINE
8
BLACK
6
CONTINUOUS
10
6.03234
20
-3.68122
11
6.03234
21
-3.71622
0
LINE
8
BLACK
6
CONTINUOUS
10
6.12219
20
-3.69592
11
6.1025
21
-3.69592
0
LINE
8
BLACK
6
CONTINUOUS
10
6.1025
20
-3.69592
11
6.1025
21
-3.65652
0
LINE
8
BLACK
6
CONTINUOUS
10
6.1025
20
-3.65652
11
6.12219
21
-3.65652
0
LINE
8
BLACK
6
CONTINUOUS
10
6.12219
20
-3.65652
11
6.12219
21
-3.69592
0
LINE
8
BLACK
6
CONTINUOUS
10
6.15969
20
-3.69592
11
6.14
21
-3.69592
0
LINE
8
BLACK
6
CONTINUOUS
10
6.14
20
-3.69592
11
6.14
21
-3.65652
0
LINE
8
BLACK
6
CONTINUOUS
10
6.14
20
-3.65652
11
6.15969
21
-3.65652
0
LINE
8
BLACK
6
CONTINUOUS
10
6.15969
20
-3.65652
11
6.15969
21
-3.69592
0
LINE
8
BLACK
6
CONTINUOUS
10
6.19719
20
-3.69592
11
6.1775
21
-3.69592
0
LINE
8
BLACK
6
CONTINUOUS
10
6.1775
20
-3.69592
11
6.1775
21
-3.65652
0
LINE
8
BLACK
6
CONTINUOUS
10
6.1775
20
-3.65652
11
6.19719
21
-3.65652
0
LINE
8
BLACK
6
CONTINUOUS
10
6.19719
20
-3.65652
11
6.19719
21
-3.69592
0
LINE
8
BLACK
6
CONTINUOUS
10
6.28484
20
-3.65372
11
6.24984
21
-3.65372
0
LINE
8
BLACK
6
CONTINUOUS
10
6.24984
20
-3.65372
11
6.24984
21
-3.59872
0
LINE
8
BLACK
6
CONTINUOUS
10
6.24984
20
-3.59872
11
6.28484
21
-3.59872
0
LINE
8
BLACK
6
CONTINUOUS
10
6.28484
20
-3.59872
11
6.28484
21
-3.65372
0
LINE
8
BLACK
6
CONTINUOUS
10
6.35984
20
-3.65372
11
6.32484
21
-3.65372
0
LINE
8
BLACK
6
CONTINUOUS
10
6.32484
20
-3.65372
11
6.32484
21
-3.59872
0
LINE
8
BLACK
6
CONTINUOUS
10
6.32484
20
-3.59872
11
6.35984
21
-3.59872
0
LINE
8
BLACK
6
CONTINUOUS
10
6.35984
20
-3.59872
11
6.35984
21
-3.65372
0
LINE
8
BLACK
6
CONTINUOUS
10
6.47734
20
-3.65122
11
6.42234
21
-3.65122
0
LINE
8
BLACK
6
CONTINUOUS
10
6.42234
20
-3.65122
11
6.42234
21
-3.61622
0
LINE
8
BLACK
6
CONTINUOUS
10
6.42234
20
-3.61622
11
6.47734
21
-3.61622
0
LINE
8
BLACK
6
CONTINUOUS
10
6.47734
20
-3.61622
11
6.47734
21
-3.65122
0
LINE
8
BLACK
6
CONTINUOUS
10
6.57234
20
-3.65122
11
6.51734
21
-3.65122
0
LINE
8
BLACK
6
CONTINUOUS
10
6.51734
20
-3.65122
11
6.51734
21
-3.61622
0
LINE
8
BLACK
6
CONTINUOUS
10
6.51734
20
-3.61622
11
6.57234
21
-3.61622
0
LINE
8
BLACK
6
CONTINUOUS
10
6.57234
20
-3.61622
11
6.57234
21
-3.65122
0
LINE
8
BLACK
6
CONTINUOUS
10
6.76734
20
-3.64622
11
6.71234
21
-3.64622
0
LINE
8
BLACK
6
CONTINUOUS
10
6.71234
20
-3.64622
11
6.71234
21
-3.61122
0
LINE
8
BLACK
6
CONTINUOUS
10
6.71234
20
-3.61122
11
6.76734
21
-3.61122
0
LINE
8
BLACK
6
CONTINUOUS
10
6.76734
20
-3.61122
11
6.76734
21
-3.64622
0
LINE
8
BLACK
6
CONTINUOUS
10
6.67234
20
-3.64622
11
6.61734
21
-3.64622
0
LINE
8
BLACK
6
CONTINUOUS
10
6.61734
20
-3.64622
11
6.61734
21
-3.61122
0
LINE
8
BLACK
6
CONTINUOUS
10
6.61734
20
-3.61122
11
6.67234
21
-3.61122
0
LINE
8
BLACK
6
CONTINUOUS
10
6.67234
20
-3.61122
11
6.67234
21
-3.64622
0
LINE
8
BLACK
6
CONTINUOUS
10
6.03234
20
-3.64122
11
5.97734
21
-3.64122
0
LINE
8
BLACK
6
CONTINUOUS
10
5.97734
20
-3.64122
11
5.97734
21
-3.60622
0
LINE
8
BLACK
6
CONTINUOUS
10
5.97734
20
-3.60622
11
6.03234
21
-3.60622
0
LINE
8
BLACK
6
CONTINUOUS
10
6.03234
20
-3.60622
11
6.03234
21
-3.64122
0
LINE
8
BLACK
6
CONTINUOUS
10
6.93734
20
-3.63622
11
6.88234
21
-3.63622
0
LINE
8
BLACK
6
CONTINUOUS
10
6.88234
20
-3.63622
11
6.88234
21
-3.60122
0
LINE
8
BLACK
6
CONTINUOUS
10
6.88234
20
-3.60122
11
6.93734
21
-3.60122
0
LINE
8
BLACK
6
CONTINUOUS
10
6.93734
20
-3.60122
11
6.93734
21
-3.63622
0
LINE
8
BLACK
6
CONTINUOUS
10
6.84734
20
-3.63622
11
6.79234
21
-3.63622
0
LINE
8
BLACK
6
CONTINUOUS
10
6.79234
20
-3.63622
11
6.79234
21
-3.60122
0
LINE
8
BLACK
6
CONTINUOUS
10
6.79234
20
-3.60122
11
6.84734
21
-3.60122
0
LINE
8
BLACK
6
CONTINUOUS
10
6.84734
20
-3.60122
11
6.84734
21
-3.63622
0
LINE
8
BLACK
6
CONTINUOUS
10
6.19719
20
-3.59592
11
6.1775
21
-3.59592
0
LINE
8
BLACK
6
CONTINUOUS
10
6.1775
20
-3.59592
11
6.1775
21
-3.55652
0
LINE
8
BLACK
6
CONTINUOUS
10
6.1775
20
-3.55652
11
6.19719
21
-3.55652
0
LINE
8
BLACK
6
CONTINUOUS
10
6.19719
20
-3.55652
11
6.19719
21
-3.59592
0
LINE
8
BLACK
6
CONTINUOUS
10
6.12221
20
-3.59592
11
6.10248
21
-3.59592
0
LINE
8
BLACK
6
CONTINUOUS
10
6.10248
20
-3.59592
11
6.10248
21
-3.55652
0
LINE
8
BLACK
6
CONTINUOUS
10
6.10248
20
-3.55652
11
6.12221
21
-3.55652
0
LINE
8
BLACK
6
CONTINUOUS
10
6.12221
20
-3.55652
11
6.12221
21
-3.59592
0
LINE
8
BLACK
6
CONTINUOUS
10
6.15969
20
-3.59592
11
6.14
21
-3.59592
0
LINE
8
BLACK
6
CONTINUOUS
10
6.14
20
-3.59592
11
6.14
21
-3.55652
0
LINE
8
BLACK
6
CONTINUOUS
10
6.14
20
-3.55652
11
6.15969
21
-3.55652
0
LINE
8
BLACK
6
CONTINUOUS
10
6.15969
20
-3.55652
11
6.15969
21
-3.59592
0
LINE
8
BLACK
6
CONTINUOUS
10
5.72984
20
-3.57372
11
5.69484
21
-3.57372
0
LINE
8
BLACK
6
CONTINUOUS
10
5.69484
20
-3.57372
11
5.69484
21
-3.51872
0
LINE
8
BLACK
6
CONTINUOUS
10
5.69484
20
-3.51872
11
5.72984
21
-3.51872
0
LINE
8
BLACK
6
CONTINUOUS
10
5.72984
20
-3.51872
11
5.72984
21
-3.57372
0
LINE
8
BLACK
6
CONTINUOUS
10
5.65484
20
-3.57372
11
5.61984
21
-3.57372
0
LINE
8
BLACK
6
CONTINUOUS
10
5.61984
20
-3.57372
11
5.61984
21
-3.51872
0
LINE
8
BLACK
6
CONTINUOUS
10
5.61984
20
-3.51872
11
5.65484
21
-3.51872
0
LINE
8
BLACK
6
CONTINUOUS
10
5.65484
20
-3.51872
11
5.65484
21
-3.57372
0
LINE
8
BLACK
6
CONTINUOUS
10
6.93734
20
-3.56122
11
6.88234
21
-3.56122
0
LINE
8
BLACK
6
CONTINUOUS
10
6.88234
20
-3.56122
11
6.88234
21
-3.52622
0
LINE
8
BLACK
6
CONTINUOUS
10
6.88234
20
-3.52622
11
6.93734
21
-3.52622
0
LINE
8
BLACK
6
CONTINUOUS
10
6.93734
20
-3.52622
11
6.93734
21
-3.56122
0
LINE
8
BLACK
6
CONTINUOUS
10
6.84734
20
-3.56122
11
6.79234
21
-3.56122
0
LINE
8
BLACK
6
CONTINUOUS
10
6.79234
20
-3.56122
11
6.79234
21
-3.52622
0
LINE
8
BLACK
6
CONTINUOUS
10
6.79234
20
-3.52622
11
6.84734
21
-3.52622
0
LINE
8
BLACK
6
CONTINUOUS
10
6.84734
20
-3.52622
11
6.84734
21
-3.56122
0
LINE
8
BLACK
6
CONTINUOUS
10
6.38234
20
-3.55122
11
6.32734
21
-3.55122
0
LINE
8
BLACK
6
CONTINUOUS
10
6.32734
20
-3.55122
11
6.32734
21
-3.51622
0
LINE
8
BLACK
6
CONTINUOUS
10
6.32734
20
-3.51622
11
6.38234
21
-3.51622
0
LINE
8
BLACK
6
CONTINUOUS
10
6.38234
20
-3.51622
11
6.38234
21
-3.55122
0
LINE
8
BLACK
6
CONTINUOUS
10
6.28234
20
-3.55122
11
6.22734
21
-3.55122
0
LINE
8
BLACK
6
CONTINUOUS
10
6.22734
20
-3.55122
11
6.22734
21
-3.51622
0
LINE
8
BLACK
6
CONTINUOUS
10
6.22734
20
-3.51622
11
6.28234
21
-3.51622
0
LINE
8
BLACK
6
CONTINUOUS
10
6.28234
20
-3.51622
11
6.28234
21
-3.55122
0
LINE
8
BLACK
6
CONTINUOUS
10
6.71934
20
-3.54522
11
6.66434
21
-3.54522
0
LINE
8
BLACK
6
CONTINUOUS
10
6.66434
20
-3.54522
11
6.66434
21
-3.51022
0
LINE
8
BLACK
6
CONTINUOUS
10
6.66434
20
-3.51022
11
6.71934
21
-3.51022
0
LINE
8
BLACK
6
CONTINUOUS
10
6.71934
20
-3.51022
11
6.71934
21
-3.54522
0
LINE
8
BLACK
6
CONTINUOUS
10
6.56484
20
-3.54372
11
6.54484
21
-3.54372
0
LINE
8
BLACK
6
CONTINUOUS
10
6.54484
20
-3.54372
11
6.54484
21
-3.49872
0
LINE
8
BLACK
6
CONTINUOUS
10
6.54484
20
-3.49872
11
6.56484
21
-3.49872
0
LINE
8
BLACK
6
CONTINUOUS
10
6.56484
20
-3.49872
11
6.56484
21
-3.54372
0
LINE
8
BLACK
6
CONTINUOUS
10
6.61484
20
-3.54372
11
6.59484
21
-3.54372
0
LINE
8
BLACK
6
CONTINUOUS
10
6.59484
20
-3.54372
11
6.59484
21
-3.49872
0
LINE
8
BLACK
6
CONTINUOUS
10
6.59484
20
-3.49872
11
6.61484
21
-3.49872
0
LINE
8
BLACK
6
CONTINUOUS
10
6.61484
20
-3.49872
11
6.61484
21
-3.54372
0
LINE
8
BLACK
6
CONTINUOUS
10
6.51484
20
-3.54372
11
6.49484
21
-3.54372
0
LINE
8
BLACK
6
CONTINUOUS
10
6.49484
20
-3.54372
11
6.49484
21
-3.49872
0
LINE
8
BLACK
6
CONTINUOUS
10
6.49484
20
-3.49872
11
6.51484
21
-3.49872
0
LINE
8
BLACK
6
CONTINUOUS
10
6.51484
20
-3.49872
11
6.51484
21
-3.54372
0
LINE
8
BLACK
6
CONTINUOUS
10
6.46484
20
-3.54372
11
6.44484
21
-3.54372
0
LINE
8
BLACK
6
CONTINUOUS
10
6.44484
20
-3.54372
11
6.44484
21
-3.49872
0
LINE
8
BLACK
6
CONTINUOUS
10
6.44484
20
-3.49872
11
6.46484
21
-3.49872
0
LINE
8
BLACK
6
CONTINUOUS
10
6.46484
20
-3.49872
11
6.46484
21
-3.54372
0
LINE
8
BLACK
6
CONTINUOUS
10
6.09559
20
-3.53422
11
6.06409
21
-3.53422
0
LINE
8
BLACK
6
CONTINUOUS
10
6.06409
20
-3.53422
11
6.06409
21
-3.49482
0
LINE
8
BLACK
6
CONTINUOUS
10
6.06409
20
-3.49482
11
6.09559
21
-3.49482
0
LINE
8
BLACK
6
CONTINUOUS
10
6.09559
20
-3.49482
11
6.09559
21
-3.53422
0
LINE
8
BLACK
6
CONTINUOUS
10
5.68934
20
-3.49872
11
5.65434
21
-3.49872
0
LINE
8
BLACK
6
CONTINUOUS
10
5.65434
20
-3.49872
11
5.65434
21
-3.44372
0
LINE
8
BLACK
6
CONTINUOUS
10
5.65434
20
-3.44372
11
5.68934
21
-3.44372
0
LINE
8
BLACK
6
CONTINUOUS
10
5.68934
20
-3.44372
11
5.68934
21
-3.49872
0
LINE
8
BLACK
6
CONTINUOUS
10
5.61434
20
-3.49872
11
5.57934
21
-3.49872
0
LINE
8
BLACK
6
CONTINUOUS
10
5.57934
20
-3.49872
11
5.57934
21
-3.44372
0
LINE
8
BLACK
6
CONTINUOUS
10
5.57934
20
-3.44372
11
5.61434
21
-3.44372
0
LINE
8
BLACK
6
CONTINUOUS
10
5.61434
20
-3.44372
11
5.61434
21
-3.49872
0
LINE
8
BLACK
6
CONTINUOUS
10
6.93134
20
-3.48622
11
6.87634
21
-3.48622
0
LINE
8
BLACK
6
CONTINUOUS
10
6.87634
20
-3.48622
11
6.87634
21
-3.45122
0
LINE
8
BLACK
6
CONTINUOUS
10
6.87634
20
-3.45122
11
6.93134
21
-3.45122
0
LINE
8
BLACK
6
CONTINUOUS
10
6.93134
20
-3.45122
11
6.93134
21
-3.48622
0
LINE
8
BLACK
6
CONTINUOUS
10
6.79934
20
-3.48222
11
6.74434
21
-3.48222
0
LINE
8
BLACK
6
CONTINUOUS
10
6.74434
20
-3.48222
11
6.74434
21
-3.44722
0
LINE
8
BLACK
6
CONTINUOUS
10
6.74434
20
-3.44722
11
6.79934
21
-3.44722
0
LINE
8
BLACK
6
CONTINUOUS
10
6.79934
20
-3.44722
11
6.79934
21
-3.48222
0
LINE
8
BLACK
6
CONTINUOUS
10
6.38234
20
-3.47622
11
6.32734
21
-3.47622
0
LINE
8
BLACK
6
CONTINUOUS
10
6.32734
20
-3.47622
11
6.32734
21
-3.44122
0
LINE
8
BLACK
6
CONTINUOUS
10
6.32734
20
-3.44122
11
6.38234
21
-3.44122
0
LINE
8
BLACK
6
CONTINUOUS
10
6.38234
20
-3.44122
11
6.38234
21
-3.47622
0
LINE
8
BLACK
6
CONTINUOUS
10
6.28234
20
-3.47622
11
6.22734
21
-3.47622
0
LINE
8
BLACK
6
CONTINUOUS
10
6.22734
20
-3.47622
11
6.22734
21
-3.44122
0
LINE
8
BLACK
6
CONTINUOUS
10
6.22734
20
-3.44122
11
6.28234
21
-3.44122
0
LINE
8
BLACK
6
CONTINUOUS
10
6.28234
20
-3.44122
11
6.28234
21
-3.47622
0
LINE
8
BLACK
6
CONTINUOUS
10
6.71934
20
-3.47022
11
6.66434
21
-3.47022
0
LINE
8
BLACK
6
CONTINUOUS
10
6.66434
20
-3.47022
11
6.66434
21
-3.43522
0
LINE
8
BLACK
6
CONTINUOUS
10
6.66434
20
-3.43522
11
6.71934
21
-3.43522
0
LINE
8
BLACK
6
CONTINUOUS
10
6.71934
20
-3.43522
11
6.71934
21
-3.47022
0
LINE
8
BLACK
6
CONTINUOUS
10
6.13309
20
-3.44762
11
6.10159
21
-3.44762
0
LINE
8
BLACK
6
CONTINUOUS
10
6.10159
20
-3.44762
11
6.10159
21
-3.40822
0
LINE
8
BLACK
6
CONTINUOUS
10
6.10159
20
-3.40822
11
6.13309
21
-3.40822
0
LINE
8
BLACK
6
CONTINUOUS
10
6.13309
20
-3.40822
11
6.13309
21
-3.44762
0
LINE
8
BLACK
6
CONTINUOUS
10
6.05809
20
-3.44762
11
6.02659
21
-3.44762
0
LINE
8
BLACK
6
CONTINUOUS
10
6.02659
20
-3.44762
11
6.02659
21
-3.40822
0
LINE
8
BLACK
6
CONTINUOUS
10
6.02659
20
-3.40822
11
6.05809
21
-3.40822
0
LINE
8
BLACK
6
CONTINUOUS
10
6.05809
20
-3.40822
11
6.05809
21
-3.44762
0
LINE
8
BLACK
6
CONTINUOUS
10
5.83734
20
-3.44622
11
5.78234
21
-3.44622
0
LINE
8
BLACK
6
CONTINUOUS
10
5.78234
20
-3.44622
11
5.78234
21
-3.41122
0
LINE
8
BLACK
6
CONTINUOUS
10
5.78234
20
-3.41122
11
5.83734
21
-3.41122
0
LINE
8
BLACK
6
CONTINUOUS
10
5.83734
20
-3.41122
11
5.83734
21
-3.44622
0
LINE
8
BLACK
6
CONTINUOUS
10
5.70134
20
-3.41972
11
5.64634
21
-3.41972
0
LINE
8
BLACK
6
CONTINUOUS
10
5.64634
20
-3.41972
11
5.64634
21
-3.38472
0
LINE
8
BLACK
6
CONTINUOUS
10
5.64634
20
-3.38472
11
5.70134
21
-3.38472
0
LINE
8
BLACK
6
CONTINUOUS
10
5.70134
20
-3.38472
11
5.70134
21
-3.41972
0
LINE
8
BLACK
6
CONTINUOUS
10
6.71934
20
-3.41322
11
6.66434
21
-3.41322
0
LINE
8
BLACK
6
CONTINUOUS
10
6.66434
20
-3.41322
11
6.66434
21
-3.37822
0
LINE
8
BLACK
6
CONTINUOUS
10
6.66434
20
-3.37822
11
6.71934
21
-3.37822
0
LINE
8
BLACK
6
CONTINUOUS
10
6.71934
20
-3.37822
11
6.71934
21
-3.41322
0
LINE
8
BLACK
6
CONTINUOUS
10
6.93134
20
-3.41122
11
6.87634
21
-3.41122
0
LINE
8
BLACK
6
CONTINUOUS
10
6.87634
20
-3.41122
11
6.87634
21
-3.37622
0
LINE
8
BLACK
6
CONTINUOUS
10
6.87634
20
-3.37622
11
6.93134
21
-3.37622
0
LINE
8
BLACK
6
CONTINUOUS
10
6.93134
20
-3.37622
11
6.93134
21
-3.41122
0
LINE
8
BLACK
6
CONTINUOUS
10
6.79934
20
-3.40722
11
6.74434
21
-3.40722
0
LINE
8
BLACK
6
CONTINUOUS
10
6.74434
20
-3.40722
11
6.74434
21
-3.37222
0
LINE
8
BLACK
6
CONTINUOUS
10
6.74434
20
-3.37222
11
6.79934
21
-3.37222
0
LINE
8
BLACK
6
CONTINUOUS
10
6.79934
20
-3.37222
11
6.79934
21
-3.40722
0
LINE
8
BLACK
6
CONTINUOUS
10
5.83734
20
-3.37122
11
5.78234
21
-3.37122
0
LINE
8
BLACK
6
CONTINUOUS
10
5.78234
20
-3.37122
11
5.78234
21
-3.33622
0
LINE
8
BLACK
6
CONTINUOUS
10
5.78234
20
-3.33622
11
5.83734
21
-3.33622
0
LINE
8
BLACK
6
CONTINUOUS
10
5.83734
20
-3.33622
11
5.83734
21
-3.37122
0
LINE
8
BLACK
6
CONTINUOUS
10
6.77984
20
-3.34672
11
6.74484
21
-3.34672
0
LINE
8
BLACK
6
CONTINUOUS
10
6.74484
20
-3.34672
11
6.74484
21
-3.29172
0
LINE
8
BLACK
6
CONTINUOUS
10
6.74484
20
-3.29172
11
6.77984
21
-3.29172
0
LINE
8
BLACK
6
CONTINUOUS
10
6.77984
20
-3.29172
11
6.77984
21
-3.34672
0
LINE
8
BLACK
6
CONTINUOUS
10
6.85484
20
-3.34672
11
6.81984
21
-3.34672
0
LINE
8
BLACK
6
CONTINUOUS
10
6.81984
20
-3.34672
11
6.81984
21
-3.29172
0
LINE
8
BLACK
6
CONTINUOUS
10
6.81984
20
-3.29172
11
6.85484
21
-3.29172
0
LINE
8
BLACK
6
CONTINUOUS
10
6.85484
20
-3.29172
11
6.85484
21
-3.34672
0
LINE
8
BLACK
6
CONTINUOUS
10
5.70134
20
-3.34472
11
5.64634
21
-3.34472
0
LINE
8
BLACK
6
CONTINUOUS
10
5.64634
20
-3.34472
11
5.64634
21
-3.30972
0
LINE
8
BLACK
6
CONTINUOUS
10
5.64634
20
-3.30972
11
5.70134
21
-3.30972
0
LINE
8
BLACK
6
CONTINUOUS
10
5.70134
20
-3.30972
11
5.70134
21
-3.34472
0
LINE
8
BLACK
6
CONTINUOUS
10
6.71934
20
-3.33822
11
6.66434
21
-3.33822
0
LINE
8
BLACK
6
CONTINUOUS
10
6.66434
20
-3.33822
11
6.66434
21
-3.30322
0
LINE
8
BLACK
6
CONTINUOUS
10
6.66434
20
-3.30322
11
6.71934
21
-3.30322
0
LINE
8
BLACK
6
CONTINUOUS
10
6.71934
20
-3.30322
11
6.71934
21
-3.33822
0
LINE
8
BLACK
6
CONTINUOUS
10
5.83734
20
-3.30122
11
5.78234
21
-3.30122
0
LINE
8
BLACK
6
CONTINUOUS
10
5.78234
20
-3.30122
11
5.78234
21
-3.26622
0
LINE
8
BLACK
6
CONTINUOUS
10
5.78234
20
-3.26622
11
5.83734
21
-3.26622
0
LINE
8
BLACK
6
CONTINUOUS
10
5.83734
20
-3.26622
11
5.83734
21
-3.30122
0
LINE
8
BLACK
6
CONTINUOUS
10
6.56484
20
-3.29372
11
6.54484
21
-3.29372
0
LINE
8
BLACK
6
CONTINUOUS
10
6.54484
20
-3.29372
11
6.54484
21
-3.24872
0
LINE
8
BLACK
6
CONTINUOUS
10
6.54484
20
-3.24872
11
6.56484
21
-3.24872
0
LINE
8
BLACK
6
CONTINUOUS
10
6.56484
20
-3.24872
11
6.56484
21
-3.29372
0
LINE
8
BLACK
6
CONTINUOUS
10
6.46484
20
-3.29372
11
6.44484
21
-3.29372
0
LINE
8
BLACK
6
CONTINUOUS
10
6.44484
20
-3.29372
11
6.44484
21
-3.24872
0
LINE
8
BLACK
6
CONTINUOUS
10
6.44484
20
-3.24872
11
6.46484
21
-3.24872
0
LINE
8
BLACK
6
CONTINUOUS
10
6.46484
20
-3.24872
11
6.46484
21
-3.29372
0
LINE
8
BLACK
6
CONTINUOUS
10
6.51484
20
-3.29372
11
6.49484
21
-3.29372
0
LINE
8
BLACK
6
CONTINUOUS
10
6.49484
20
-3.29372
11
6.49484
21
-3.24872
0
LINE
8
BLACK
6
CONTINUOUS
10
6.49484
20
-3.24872
11
6.51484
21
-3.24872
0
LINE
8
BLACK
6
CONTINUOUS
10
6.51484
20
-3.24872
11
6.51484
21
-3.29372
0
LINE
8
BLACK
6
CONTINUOUS
10
6.61484
20
-3.29372
11
6.59484
21
-3.29372
0
LINE
8
BLACK
6
CONTINUOUS
10
6.59484
20
-3.29372
11
6.59484
21
-3.24872
0
LINE
8
BLACK
6
CONTINUOUS
10
6.59484
20
-3.24872
11
6.61484
21
-3.24872
0
LINE
8
BLACK
6
CONTINUOUS
10
6.61484
20
-3.24872
11
6.61484
21
-3.29372
0
LINE
8
BLACK
6
CONTINUOUS
10
6.73234
20
-3.25122
11
6.67734
21
-3.25122
0
LINE
8
BLACK
6
CONTINUOUS
10
6.67734
20
-3.25122
11
6.67734
21
-3.21622
0
LINE
8
BLACK
6
CONTINUOUS
10
6.67734
20
-3.21622
11
6.73234
21
-3.21622
0
LINE
8
BLACK
6
CONTINUOUS
10
6.73234
20
-3.21622
11
6.73234
21
-3.25122
0
LINE
8
BLACK
6
CONTINUOUS
10
6.83234
20
-3.25122
11
6.77734
21
-3.25122
0
LINE
8
BLACK
6
CONTINUOUS
10
6.77734
20
-3.25122
11
6.77734
21
-3.21622
0
LINE
8
BLACK
6
CONTINUOUS
10
6.77734
20
-3.21622
11
6.83234
21
-3.21622
0
LINE
8
BLACK
6
CONTINUOUS
10
6.83234
20
-3.21622
11
6.83234
21
-3.25122
0
LINE
8
BLACK
6
CONTINUOUS
10
5.83734
20
-3.22622
11
5.78234
21
-3.22622
0
LINE
8
BLACK
6
CONTINUOUS
10
5.78234
20
-3.22622
11
5.78234
21
-3.19122
0
LINE
8
BLACK
6
CONTINUOUS
10
5.78234
20
-3.19122
11
5.83734
21
-3.19122
0
LINE
8
BLACK
6
CONTINUOUS
10
5.83734
20
-3.19122
11
5.83734
21
-3.22622
0
LINE
8
BLACK
6
CONTINUOUS
10
6.73234
20
-3.17622
11
6.67734
21
-3.17622
0
LINE
8
BLACK
6
CONTINUOUS
10
6.67734
20
-3.17622
11
6.67734
21
-3.14122
0
LINE
8
BLACK
6
CONTINUOUS
10
6.67734
20
-3.14122
11
6.73234
21
-3.14122
0
LINE
8
BLACK
6
CONTINUOUS
10
6.73234
20
-3.14122
11
6.73234
21
-3.17622
0
LINE
8
BLACK
6
CONTINUOUS
10
6.83234
20
-3.17622
11
6.77734
21
-3.17622
0
LINE
8
BLACK
6
CONTINUOUS
10
6.77734
20
-3.17622
11
6.77734
21
-3.14122
0
LINE
8
BLACK
6
CONTINUOUS
10
6.77734
20
-3.14122
11
6.83234
21
-3.14122
0
LINE
8
BLACK
6
CONTINUOUS
10
6.83234
20
-3.14122
11
6.83234
21
-3.17622
  0
ENDSEC
  0
EOF
