  0
SECTION
  2
HEADER
  9
$ANGBASE
  50
0.0
  9
$ANGDIR
  70
1
  9
$MEASUREMENT
  70
0
  0
ENDSEC
  0
SECTION
  2
TABLES
  0
TABLE
  2
LTYPE
  70
4
  0
LTYPE
  5
40F
  2
CONTINUOUS
  70
0
  3
Solid line
  72
65
  73
0
  40
0.0
  0
LTYPE
  5
410
  2
DASHDOT
 70
0
  3
Dash Dot ____ _ ____ _
 72
65
 73
4
 40
2.0
 49
1.25
 49
-0.25
 49
0.25
 49
-0.25
  0
LTYPE
  5
411
  2
DASHED
 70
0
  3
Dashed __ __ __ __ __
 72
65
 73
2
 40
0.75
 49
0.5
 49
-0.25
  0
LTYPE
  5
43B
  2
DOTTED
 70
0
  3
Dotted .  .  .  .
 72
65
 73
2
 40
0.2
 49
0.0
 49
-0.2
  0
ENDTAB
  0
TABLE
  2
STYLE
  70
4
  0
STYLE
  2
KICAD
  70
0
  40
0
  41
1
  42
1
  50
0
  71
0
  3
isocp.shx
  0
STYLE
  2
KICADB
  70
0
  40
0
  41
1
  42
1
  50
0
  71
0
  3
isocp.shx
  0
STYLE
  2
KICADI
  70
0
  40
0
  41
1
  42
1
  50
15
  71
0
  3
isocp.shx
  0
STYLE
  2
KICADBI
  70
0
  40
0
  41
1
  42
1
  50
15
  71
0
  3
isocp.shx
  0
ENDTAB
  0
TABLE
  2
LAYER
  70
1
  0
LAYER
  2
BLACK
  70
0
  62
7
  6
CONTINUOUS
  0
ENDTAB
  0
ENDSEC
  0
SECTION
  2
ENTITIES
0
LINE
8
BLACK
6
CONTINUOUS
10
6.14056
20
-3.86385
11
6.14036
21
-3.86335
0
LINE
8
BLACK
6
CONTINUOUS
10
6.14036
20
-3.86335
11
6.06744
21
-3.86335
0
LINE
8
BLACK
6
CONTINUOUS
10
6.06744
20
-3.86335
11
6.06674
21
-3.86306
0
LINE
8
BLACK
6
CONTINUOUS
10
6.06674
20
-3.86306
11
6.06646
21
-3.86236
0
LINE
8
BLACK
6
CONTINUOUS
10
6.06646
20
-3.86236
11
6.06646
21
-3.73008
0
LINE
8
BLACK
6
CONTINUOUS
10
6.06646
20
-3.73008
11
6.06674
21
-3.72938
0
LINE
8
BLACK
6
CONTINUOUS
10
6.06674
20
-3.72938
11
6.06744
21
-3.72909
0
LINE
8
BLACK
6
CONTINUOUS
10
6.06744
20
-3.72909
11
6.14036
21
-3.72909
0
LINE
8
BLACK
6
CONTINUOUS
10
6.14036
20
-3.72909
11
6.14056
21
-3.7286
0
LINE
8
BLACK
6
CONTINUOUS
10
6.14056
20
-3.7286
11
6.14126
21
-3.72831
0
LINE
8
BLACK
6
CONTINUOUS
10
6.14126
20
-3.72831
11
6.21843
21
-3.72831
0
LINE
8
BLACK
6
CONTINUOUS
10
6.21843
20
-3.72831
11
6.21912
21
-3.7286
0
LINE
8
BLACK
6
CONTINUOUS
10
6.21912
20
-3.7286
11
6.21941
21
-3.72929
0
LINE
8
BLACK
6
CONTINUOUS
10
6.21941
20
-3.72929
11
6.21941
21
-3.86315
0
LINE
8
BLACK
6
CONTINUOUS
10
6.21941
20
-3.86315
11
6.21912
21
-3.86385
0
LINE
8
BLACK
6
CONTINUOUS
10
6.21912
20
-3.86385
11
6.21843
21
-3.86413
0
LINE
8
BLACK
6
CONTINUOUS
10
6.21843
20
-3.86413
11
6.14126
21
-3.86413
0
LINE
8
BLACK
6
CONTINUOUS
10
6.14126
20
-3.86413
11
6.14056
21
-3.86385
0
LINE
8
BLACK
6
CONTINUOUS
10
6.14323
20
-3.73028
11
6.14323
21
-3.86217
0
LINE
8
BLACK
6
CONTINUOUS
10
6.14323
20
-3.86217
11
6.21744
21
-3.86217
0
LINE
8
BLACK
6
CONTINUOUS
10
6.21744
20
-3.86217
11
6.21744
21
-3.73028
0
LINE
8
BLACK
6
CONTINUOUS
10
6.21744
20
-3.73028
11
6.14323
21
-3.73028
0
LINE
8
BLACK
6
CONTINUOUS
10
6.06843
20
-3.73106
11
6.06843
21
-3.86138
0
LINE
8
BLACK
6
CONTINUOUS
10
6.06843
20
-3.86138
11
6.14028
21
-3.86138
0
LINE
8
BLACK
6
CONTINUOUS
10
6.14028
20
-3.86138
11
6.14028
21
-3.73106
0
LINE
8
BLACK
6
CONTINUOUS
10
6.14028
20
-3.73106
11
6.06843
21
-3.73106
0
LINE
8
BLACK
6
CONTINUOUS
10
6.39676
20
-3.8578
11
6.39647
21
-3.8585
0
LINE
8
BLACK
6
CONTINUOUS
10
6.39647
20
-3.8585
11
6.39577
21
-3.85879
0
LINE
8
BLACK
6
CONTINUOUS
10
6.39577
20
-3.85879
11
6.26191
21
-3.85879
0
LINE
8
BLACK
6
CONTINUOUS
10
6.26191
20
-3.85879
11
6.26122
21
-3.8585
0
LINE
8
BLACK
6
CONTINUOUS
10
6.26122
20
-3.8585
11
6.26093
21
-3.8578
0
LINE
8
BLACK
6
CONTINUOUS
10
6.26093
20
-3.8578
11
6.26093
21
-3.78064
0
LINE
8
BLACK
6
CONTINUOUS
10
6.26093
20
-3.78064
11
6.26122
21
-3.77994
0
LINE
8
BLACK
6
CONTINUOUS
10
6.26122
20
-3.77994
11
6.26191
21
-3.77965
0
LINE
8
BLACK
6
CONTINUOUS
10
6.26191
20
-3.77965
11
6.26193
21
-3.77965
0
LINE
8
BLACK
6
CONTINUOUS
10
6.26193
20
-3.77965
11
6.26193
21
-3.70764
0
LINE
8
BLACK
6
CONTINUOUS
10
6.26193
20
-3.70764
11
6.26222
21
-3.70694
0
LINE
8
BLACK
6
CONTINUOUS
10
6.26222
20
-3.70694
11
6.26291
21
-3.70665
0
LINE
8
BLACK
6
CONTINUOUS
10
6.26291
20
-3.70665
11
6.39677
21
-3.70665
0
LINE
8
BLACK
6
CONTINUOUS
10
6.39677
20
-3.70665
11
6.39747
21
-3.70694
0
LINE
8
BLACK
6
CONTINUOUS
10
6.39747
20
-3.70694
11
6.39776
21
-3.70764
0
LINE
8
BLACK
6
CONTINUOUS
10
6.39776
20
-3.70764
11
6.39776
21
-3.7848
0
LINE
8
BLACK
6
CONTINUOUS
10
6.39776
20
-3.7848
11
6.39747
21
-3.7855
0
LINE
8
BLACK
6
CONTINUOUS
10
6.39747
20
-3.7855
11
6.39677
21
-3.78579
0
LINE
8
BLACK
6
CONTINUOUS
10
6.39677
20
-3.78579
11
6.39676
21
-3.78579
0
LINE
8
BLACK
6
CONTINUOUS
10
6.39676
20
-3.78579
11
6.39676
21
-3.8578
0
LINE
8
BLACK
6
CONTINUOUS
10
6.2629
20
-3.85682
11
6.39479
21
-3.85682
0
LINE
8
BLACK
6
CONTINUOUS
10
6.39479
20
-3.85682
11
6.39479
21
-3.78579
0
LINE
8
BLACK
6
CONTINUOUS
10
6.39479
20
-3.78579
11
6.26291
21
-3.78579
0
LINE
8
BLACK
6
CONTINUOUS
10
6.26291
20
-3.78579
11
6.2629
21
-3.78578
0
LINE
8
BLACK
6
CONTINUOUS
10
6.2629
20
-3.78578
11
6.2629
21
-3.85682
0
LINE
8
BLACK
6
CONTINUOUS
10
6.2639
20
-3.78162
11
6.2639
21
-3.78382
0
LINE
8
BLACK
6
CONTINUOUS
10
6.2639
20
-3.78382
11
6.39479
21
-3.78382
0
LINE
8
BLACK
6
CONTINUOUS
10
6.39479
20
-3.78382
11
6.39479
21
-3.78162
0
LINE
8
BLACK
6
CONTINUOUS
10
6.39479
20
-3.78162
11
6.2639
21
-3.78162
0
LINE
8
BLACK
6
CONTINUOUS
10
6.39579
20
-3.70862
11
6.2639
21
-3.70862
0
LINE
8
BLACK
6
CONTINUOUS
10
6.2639
20
-3.70862
11
6.2639
21
-3.77965
0
LINE
8
BLACK
6
CONTINUOUS
10
6.2639
20
-3.77965
11
6.39577
21
-3.77965
0
LINE
8
BLACK
6
CONTINUOUS
10
6.39577
20
-3.77965
11
6.39579
21
-3.77966
0
LINE
8
BLACK
6
CONTINUOUS
10
6.39579
20
-3.77966
11
6.39579
21
-3.70862
0
LINE
8
BLACK
6
CONTINUOUS
10
5.87755
20
-3.74617
11
5.87727
21
-3.74548
0
LINE
8
BLACK
6
CONTINUOUS
10
5.87727
20
-3.74548
11
5.87727
21
-3.61162
0
LINE
8
BLACK
6
CONTINUOUS
10
5.87727
20
-3.61162
11
5.87755
21
-3.61092
0
LINE
8
BLACK
6
CONTINUOUS
10
5.87755
20
-3.61092
11
5.87825
21
-3.61063
0
LINE
8
BLACK
6
CONTINUOUS
10
5.87825
20
-3.61063
11
5.95542
21
-3.61063
0
LINE
8
BLACK
6
CONTINUOUS
10
5.95542
20
-3.61063
11
5.95611
21
-3.61092
0
LINE
8
BLACK
6
CONTINUOUS
10
5.95611
20
-3.61092
11
5.9564
21
-3.61162
0
LINE
8
BLACK
6
CONTINUOUS
10
5.9564
20
-3.61162
11
5.9564
21
-3.74548
0
LINE
8
BLACK
6
CONTINUOUS
10
5.9564
20
-3.74548
11
5.95611
21
-3.74617
0
LINE
8
BLACK
6
CONTINUOUS
10
5.95611
20
-3.74617
11
5.95542
21
-3.74646
0
LINE
8
BLACK
6
CONTINUOUS
10
5.95542
20
-3.74646
11
5.87825
21
-3.74646
0
LINE
8
BLACK
6
CONTINUOUS
10
5.87825
20
-3.74646
11
5.87755
21
-3.74617
0
LINE
8
BLACK
6
CONTINUOUS
10
5.87923
20
-3.6126
11
5.87923
21
-3.74449
0
LINE
8
BLACK
6
CONTINUOUS
10
5.87923
20
-3.74449
11
5.95443
21
-3.74449
0
LINE
8
BLACK
6
CONTINUOUS
10
5.95443
20
-3.74449
11
5.95443
21
-3.6126
0
LINE
8
BLACK
6
CONTINUOUS
10
5.95443
20
-3.6126
11
5.87923
21
-3.6126
0
LINE
8
BLACK
6
CONTINUOUS
10
5.96626
20
-3.74322
11
5.96597
21
-3.74252
0
LINE
8
BLACK
6
CONTINUOUS
10
5.96597
20
-3.74252
11
5.96597
21
-3.61024
0
LINE
8
BLACK
6
CONTINUOUS
10
5.96597
20
-3.61024
11
5.96626
21
-3.60954
0
LINE
8
BLACK
6
CONTINUOUS
10
5.96626
20
-3.60954
11
5.96695
21
-3.60925
0
LINE
8
BLACK
6
CONTINUOUS
10
5.96695
20
-3.60925
11
6.04175
21
-3.60925
0
LINE
8
BLACK
6
CONTINUOUS
10
6.04175
20
-3.60925
11
6.04245
21
-3.60954
0
LINE
8
BLACK
6
CONTINUOUS
10
6.04245
20
-3.60954
11
6.04274
21
-3.61024
0
LINE
8
BLACK
6
CONTINUOUS
10
6.04274
20
-3.61024
11
6.04274
21
-3.74252
0
LINE
8
BLACK
6
CONTINUOUS
10
6.04274
20
-3.74252
11
6.04245
21
-3.74322
0
LINE
8
BLACK
6
CONTINUOUS
10
6.04245
20
-3.74322
11
6.04175
21
-3.74351
0
LINE
8
BLACK
6
CONTINUOUS
10
6.04175
20
-3.74351
11
5.96695
21
-3.74351
0
LINE
8
BLACK
6
CONTINUOUS
10
5.96695
20
-3.74351
11
5.96626
21
-3.74322
0
LINE
8
BLACK
6
CONTINUOUS
10
5.96794
20
-3.61122
11
5.96794
21
-3.74154
0
LINE
8
BLACK
6
CONTINUOUS
10
5.96794
20
-3.74154
11
6.04077
21
-3.74154
0
LINE
8
BLACK
6
CONTINUOUS
10
6.04077
20
-3.74154
11
6.04077
21
-3.61122
0
LINE
8
BLACK
6
CONTINUOUS
10
6.04077
20
-3.61122
11
5.96794
21
-3.61122
0
LINE
8
BLACK
6
CONTINUOUS
10
6.41174
20
-3.73806
11
6.41146
21
-3.73736
0
LINE
8
BLACK
6
CONTINUOUS
10
6.41146
20
-3.73736
11
6.41146
21
-3.60508
0
LINE
8
BLACK
6
CONTINUOUS
10
6.41146
20
-3.60508
11
6.41174
21
-3.60438
0
LINE
8
BLACK
6
CONTINUOUS
10
6.41174
20
-3.60438
11
6.41244
21
-3.60409
0
LINE
8
BLACK
6
CONTINUOUS
10
6.41244
20
-3.60409
11
6.48724
21
-3.60409
0
LINE
8
BLACK
6
CONTINUOUS
10
6.48724
20
-3.60409
11
6.48794
21
-3.60438
0
LINE
8
BLACK
6
CONTINUOUS
10
6.48794
20
-3.60438
11
6.48823
21
-3.60508
0
LINE
8
BLACK
6
CONTINUOUS
10
6.48823
20
-3.60508
11
6.48823
21
-3.73736
0
LINE
8
BLACK
6
CONTINUOUS
10
6.48823
20
-3.73736
11
6.48794
21
-3.73806
0
LINE
8
BLACK
6
CONTINUOUS
10
6.48794
20
-3.73806
11
6.48724
21
-3.73835
0
LINE
8
BLACK
6
CONTINUOUS
10
6.48724
20
-3.73835
11
6.41244
21
-3.73835
0
LINE
8
BLACK
6
CONTINUOUS
10
6.41244
20
-3.73835
11
6.41174
21
-3.73806
0
LINE
8
BLACK
6
CONTINUOUS
10
6.41343
20
-3.60606
11
6.41343
21
-3.73638
0
LINE
8
BLACK
6
CONTINUOUS
10
6.41343
20
-3.73638
11
6.48626
21
-3.73638
0
LINE
8
BLACK
6
CONTINUOUS
10
6.48626
20
-3.73638
11
6.48626
21
-3.60606
0
LINE
8
BLACK
6
CONTINUOUS
10
6.48626
20
-3.60606
11
6.41343
21
-3.60606
0
LINE
8
BLACK
6
CONTINUOUS
10
6.50674
20
-3.73806
11
6.50646
21
-3.73736
0
LINE
8
BLACK
6
CONTINUOUS
10
6.50646
20
-3.73736
11
6.50646
21
-3.60508
0
LINE
8
BLACK
6
CONTINUOUS
10
6.50646
20
-3.60508
11
6.50674
21
-3.60438
0
LINE
8
BLACK
6
CONTINUOUS
10
6.50674
20
-3.60438
11
6.50744
21
-3.60409
0
LINE
8
BLACK
6
CONTINUOUS
10
6.50744
20
-3.60409
11
6.58224
21
-3.60409
0
LINE
8
BLACK
6
CONTINUOUS
10
6.58224
20
-3.60409
11
6.58294
21
-3.60438
0
LINE
8
BLACK
6
CONTINUOUS
10
6.58294
20
-3.60438
11
6.58323
21
-3.60508
0
LINE
8
BLACK
6
CONTINUOUS
10
6.58323
20
-3.60508
11
6.58323
21
-3.73736
0
LINE
8
BLACK
6
CONTINUOUS
10
6.58323
20
-3.73736
11
6.58294
21
-3.73806
0
LINE
8
BLACK
6
CONTINUOUS
10
6.58294
20
-3.73806
11
6.58224
21
-3.73835
0
LINE
8
BLACK
6
CONTINUOUS
10
6.58224
20
-3.73835
11
6.50744
21
-3.73835
0
LINE
8
BLACK
6
CONTINUOUS
10
6.50744
20
-3.73835
11
6.50674
21
-3.73806
0
LINE
8
BLACK
6
CONTINUOUS
10
6.50843
20
-3.60606
11
6.50843
21
-3.73638
0
LINE
8
BLACK
6
CONTINUOUS
10
6.50843
20
-3.73638
11
6.58126
21
-3.73638
0
LINE
8
BLACK
6
CONTINUOUS
10
6.58126
20
-3.73638
11
6.58126
21
-3.60606
0
LINE
8
BLACK
6
CONTINUOUS
10
6.58126
20
-3.60606
11
6.50843
21
-3.60606
0
LINE
8
BLACK
6
CONTINUOUS
10
6.60556
20
-3.73385
11
6.60528
21
-3.73315
0
LINE
8
BLACK
6
CONTINUOUS
10
6.60528
20
-3.73315
11
6.60528
21
-3.59929
0
LINE
8
BLACK
6
CONTINUOUS
10
6.60528
20
-3.59929
11
6.60556
21
-3.5986
0
LINE
8
BLACK
6
CONTINUOUS
10
6.60556
20
-3.5986
11
6.60626
21
-3.59831
0
LINE
8
BLACK
6
CONTINUOUS
10
6.60626
20
-3.59831
11
6.68343
21
-3.59831
0
LINE
8
BLACK
6
CONTINUOUS
10
6.68343
20
-3.59831
11
6.68412
21
-3.5986
0
LINE
8
BLACK
6
CONTINUOUS
10
6.68412
20
-3.5986
11
6.68441
21
-3.59929
0
LINE
8
BLACK
6
CONTINUOUS
10
6.68441
20
-3.59929
11
6.68441
21
-3.73315
0
LINE
8
BLACK
6
CONTINUOUS
10
6.68441
20
-3.73315
11
6.68412
21
-3.73385
0
LINE
8
BLACK
6
CONTINUOUS
10
6.68412
20
-3.73385
11
6.68343
21
-3.73413
0
LINE
8
BLACK
6
CONTINUOUS
10
6.68343
20
-3.73413
11
6.60626
21
-3.73413
0
LINE
8
BLACK
6
CONTINUOUS
10
6.60626
20
-3.73413
11
6.60556
21
-3.73385
0
LINE
8
BLACK
6
CONTINUOUS
10
6.60724
20
-3.60028
11
6.60724
21
-3.73217
0
LINE
8
BLACK
6
CONTINUOUS
10
6.60724
20
-3.73217
11
6.68244
21
-3.73217
0
LINE
8
BLACK
6
CONTINUOUS
10
6.68244
20
-3.73217
11
6.68244
21
-3.60028
0
LINE
8
BLACK
6
CONTINUOUS
10
6.68244
20
-3.60028
11
6.60724
21
-3.60028
0
LINE
8
BLACK
6
CONTINUOUS
10
6.70174
20
-3.73306
11
6.70146
21
-3.73236
0
LINE
8
BLACK
6
CONTINUOUS
10
6.70146
20
-3.73236
11
6.70146
21
-3.60008
0
LINE
8
BLACK
6
CONTINUOUS
10
6.70146
20
-3.60008
11
6.70174
21
-3.59938
0
LINE
8
BLACK
6
CONTINUOUS
10
6.70174
20
-3.59938
11
6.70244
21
-3.59909
0
LINE
8
BLACK
6
CONTINUOUS
10
6.70244
20
-3.59909
11
6.77724
21
-3.59909
0
LINE
8
BLACK
6
CONTINUOUS
10
6.77724
20
-3.59909
11
6.77794
21
-3.59938
0
LINE
8
BLACK
6
CONTINUOUS
10
6.77794
20
-3.59938
11
6.77823
21
-3.60008
0
LINE
8
BLACK
6
CONTINUOUS
10
6.77823
20
-3.60008
11
6.77823
21
-3.73236
0
LINE
8
BLACK
6
CONTINUOUS
10
6.77823
20
-3.73236
11
6.77794
21
-3.73306
0
LINE
8
BLACK
6
CONTINUOUS
10
6.77794
20
-3.73306
11
6.77724
21
-3.73335
0
LINE
8
BLACK
6
CONTINUOUS
10
6.77724
20
-3.73335
11
6.70244
21
-3.73335
0
LINE
8
BLACK
6
CONTINUOUS
10
6.70244
20
-3.73335
11
6.70174
21
-3.73306
0
LINE
8
BLACK
6
CONTINUOUS
10
6.70343
20
-3.60106
11
6.70343
21
-3.73138
0
LINE
8
BLACK
6
CONTINUOUS
10
6.70343
20
-3.73138
11
6.77626
21
-3.73138
0
LINE
8
BLACK
6
CONTINUOUS
10
6.77626
20
-3.73138
11
6.77626
21
-3.60106
0
LINE
8
BLACK
6
CONTINUOUS
10
6.77626
20
-3.60106
11
6.70343
21
-3.60106
0
LINE
8
BLACK
6
CONTINUOUS
10
6.23722
20
-3.6655
11
6.23693
21
-3.6648
0
LINE
8
BLACK
6
CONTINUOUS
10
6.23693
20
-3.6648
11
6.23693
21
-3.58764
0
LINE
8
BLACK
6
CONTINUOUS
10
6.23693
20
-3.58764
11
6.23722
21
-3.58694
0
LINE
8
BLACK
6
CONTINUOUS
10
6.23722
20
-3.58694
11
6.23791
21
-3.58665
0
LINE
8
BLACK
6
CONTINUOUS
10
6.23791
20
-3.58665
11
6.37177
21
-3.58665
0
LINE
8
BLACK
6
CONTINUOUS
10
6.37177
20
-3.58665
11
6.37247
21
-3.58694
0
LINE
8
BLACK
6
CONTINUOUS
10
6.37247
20
-3.58694
11
6.37276
21
-3.58764
0
LINE
8
BLACK
6
CONTINUOUS
10
6.37276
20
-3.58764
11
6.37276
21
-3.6648
0
LINE
8
BLACK
6
CONTINUOUS
10
6.37276
20
-3.6648
11
6.37247
21
-3.6655
0
LINE
8
BLACK
6
CONTINUOUS
10
6.37247
20
-3.6655
11
6.37177
21
-3.66579
0
LINE
8
BLACK
6
CONTINUOUS
10
6.37177
20
-3.66579
11
6.23791
21
-3.66579
0
LINE
8
BLACK
6
CONTINUOUS
10
6.23791
20
-3.66579
11
6.23722
21
-3.6655
0
LINE
8
BLACK
6
CONTINUOUS
10
6.2389
20
-3.58862
11
6.2389
21
-3.66382
0
LINE
8
BLACK
6
CONTINUOUS
10
6.2389
20
-3.66382
11
6.37079
21
-3.66382
0
LINE
8
BLACK
6
CONTINUOUS
10
6.37079
20
-3.66382
11
6.37079
21
-3.58862
0
LINE
8
BLACK
6
CONTINUOUS
10
6.37079
20
-3.58862
11
6.2389
21
-3.58862
0
LINE
8
BLACK
6
CONTINUOUS
10
6.87056
20
-3.64885
11
6.87028
21
-3.64815
0
LINE
8
BLACK
6
CONTINUOUS
10
6.87028
20
-3.64815
11
6.87028
21
-3.51429
0
LINE
8
BLACK
6
CONTINUOUS
10
6.87028
20
-3.51429
11
6.87056
21
-3.5136
0
LINE
8
BLACK
6
CONTINUOUS
10
6.87056
20
-3.5136
11
6.87126
21
-3.51331
0
LINE
8
BLACK
6
CONTINUOUS
10
6.87126
20
-3.51331
11
6.94843
21
-3.51331
0
LINE
8
BLACK
6
CONTINUOUS
10
6.94843
20
-3.51331
11
6.94912
21
-3.5136
0
LINE
8
BLACK
6
CONTINUOUS
10
6.94912
20
-3.5136
11
6.94941
21
-3.51429
0
LINE
8
BLACK
6
CONTINUOUS
10
6.94941
20
-3.51429
11
6.94941
21
-3.64815
0
LINE
8
BLACK
6
CONTINUOUS
10
6.94941
20
-3.64815
11
6.94912
21
-3.64885
0
LINE
8
BLACK
6
CONTINUOUS
10
6.94912
20
-3.64885
11
6.94843
21
-3.64913
0
LINE
8
BLACK
6
CONTINUOUS
10
6.94843
20
-3.64913
11
6.87126
21
-3.64913
0
LINE
8
BLACK
6
CONTINUOUS
10
6.87126
20
-3.64913
11
6.87056
21
-3.64885
0
LINE
8
BLACK
6
CONTINUOUS
10
6.87224
20
-3.51528
11
6.87224
21
-3.64717
0
LINE
8
BLACK
6
CONTINUOUS
10
6.87224
20
-3.64717
11
6.94744
21
-3.64717
0
LINE
8
BLACK
6
CONTINUOUS
10
6.94744
20
-3.64717
11
6.94744
21
-3.51528
0
LINE
8
BLACK
6
CONTINUOUS
10
6.94744
20
-3.51528
11
6.87224
21
-3.51528
0
LINE
8
BLACK
6
CONTINUOUS
10
6.78174
20
-3.64806
11
6.78146
21
-3.64736
0
LINE
8
BLACK
6
CONTINUOUS
10
6.78146
20
-3.64736
11
6.78146
21
-3.51508
0
LINE
8
BLACK
6
CONTINUOUS
10
6.78146
20
-3.51508
11
6.78174
21
-3.51438
0
LINE
8
BLACK
6
CONTINUOUS
10
6.78174
20
-3.51438
11
6.78244
21
-3.51409
0
LINE
8
BLACK
6
CONTINUOUS
10
6.78244
20
-3.51409
11
6.85724
21
-3.51409
0
LINE
8
BLACK
6
CONTINUOUS
10
6.85724
20
-3.51409
11
6.85794
21
-3.51438
0
LINE
8
BLACK
6
CONTINUOUS
10
6.85794
20
-3.51438
11
6.85823
21
-3.51508
0
LINE
8
BLACK
6
CONTINUOUS
10
6.85823
20
-3.51508
11
6.85823
21
-3.64736
0
LINE
8
BLACK
6
CONTINUOUS
10
6.85823
20
-3.64736
11
6.85794
21
-3.64806
0
LINE
8
BLACK
6
CONTINUOUS
10
6.85794
20
-3.64806
11
6.85724
21
-3.64835
0
LINE
8
BLACK
6
CONTINUOUS
10
6.85724
20
-3.64835
11
6.78244
21
-3.64835
0
LINE
8
BLACK
6
CONTINUOUS
10
6.78244
20
-3.64835
11
6.78174
21
-3.64806
0
LINE
8
BLACK
6
CONTINUOUS
10
6.78343
20
-3.51606
11
6.78343
21
-3.64638
0
LINE
8
BLACK
6
CONTINUOUS
10
6.78343
20
-3.64638
11
6.85626
21
-3.64638
0
LINE
8
BLACK
6
CONTINUOUS
10
6.85626
20
-3.64638
11
6.85626
21
-3.51606
0
LINE
8
BLACK
6
CONTINUOUS
10
6.85626
20
-3.51606
11
6.78343
21
-3.51606
0
LINE
8
BLACK
6
CONTINUOUS
10
5.59549
20
-3.59662
11
5.5952
21
-3.59593
0
LINE
8
BLACK
6
CONTINUOUS
10
5.5952
20
-3.59593
11
5.5952
21
-3.52112
0
LINE
8
BLACK
6
CONTINUOUS
10
5.5952
20
-3.52112
11
5.59549
21
-3.52043
0
LINE
8
BLACK
6
CONTINUOUS
10
5.59549
20
-3.52043
11
5.59618
21
-3.52014
0
LINE
8
BLACK
6
CONTINUOUS
10
5.59618
20
-3.52014
11
5.72846
21
-3.52014
0
LINE
8
BLACK
6
CONTINUOUS
10
5.72846
20
-3.52014
11
5.72916
21
-3.52043
0
LINE
8
BLACK
6
CONTINUOUS
10
5.72916
20
-3.52043
11
5.72945
21
-3.52112
0
LINE
8
BLACK
6
CONTINUOUS
10
5.72945
20
-3.52112
11
5.72945
21
-3.59593
0
LINE
8
BLACK
6
CONTINUOUS
10
5.72945
20
-3.59593
11
5.72916
21
-3.59662
0
LINE
8
BLACK
6
CONTINUOUS
10
5.72916
20
-3.59662
11
5.72846
21
-3.59691
0
LINE
8
BLACK
6
CONTINUOUS
10
5.72846
20
-3.59691
11
5.59618
21
-3.59691
0
LINE
8
BLACK
6
CONTINUOUS
10
5.59618
20
-3.59691
11
5.59549
21
-3.59662
0
LINE
8
BLACK
6
CONTINUOUS
10
5.59717
20
-3.52211
11
5.59717
21
-3.59494
0
LINE
8
BLACK
6
CONTINUOUS
10
5.59717
20
-3.59494
11
5.72748
21
-3.59494
0
LINE
8
BLACK
6
CONTINUOUS
10
5.72748
20
-3.59494
11
5.72748
21
-3.52211
0
LINE
8
BLACK
6
CONTINUOUS
10
5.72748
20
-3.52211
11
5.59717
21
-3.52211
0
LINE
8
BLACK
6
CONTINUOUS
10
6.21556
20
-3.56385
11
6.21528
21
-3.56315
0
LINE
8
BLACK
6
CONTINUOUS
10
6.21528
20
-3.56315
11
6.21528
21
-3.42929
0
LINE
8
BLACK
6
CONTINUOUS
10
6.21528
20
-3.42929
11
6.21556
21
-3.4286
0
LINE
8
BLACK
6
CONTINUOUS
10
6.21556
20
-3.4286
11
6.21626
21
-3.42831
0
LINE
8
BLACK
6
CONTINUOUS
10
6.21626
20
-3.42831
11
6.29343
21
-3.42831
0
LINE
8
BLACK
6
CONTINUOUS
10
6.29343
20
-3.42831
11
6.29412
21
-3.4286
0
LINE
8
BLACK
6
CONTINUOUS
10
6.29412
20
-3.4286
11
6.29441
21
-3.42929
0
LINE
8
BLACK
6
CONTINUOUS
10
6.29441
20
-3.42929
11
6.29441
21
-3.56315
0
LINE
8
BLACK
6
CONTINUOUS
10
6.29441
20
-3.56315
11
6.29412
21
-3.56385
0
LINE
8
BLACK
6
CONTINUOUS
10
6.29412
20
-3.56385
11
6.29343
21
-3.56413
0
LINE
8
BLACK
6
CONTINUOUS
10
6.29343
20
-3.56413
11
6.21626
21
-3.56413
0
LINE
8
BLACK
6
CONTINUOUS
10
6.21626
20
-3.56413
11
6.21556
21
-3.56385
0
LINE
8
BLACK
6
CONTINUOUS
10
6.21724
20
-3.43028
11
6.21724
21
-3.56217
0
LINE
8
BLACK
6
CONTINUOUS
10
6.21724
20
-3.56217
11
6.29244
21
-3.56217
0
LINE
8
BLACK
6
CONTINUOUS
10
6.29244
20
-3.56217
11
6.29244
21
-3.43028
0
LINE
8
BLACK
6
CONTINUOUS
10
6.29244
20
-3.43028
11
6.21724
21
-3.43028
0
LINE
8
BLACK
6
CONTINUOUS
10
6.31556
20
-3.56385
11
6.31528
21
-3.56315
0
LINE
8
BLACK
6
CONTINUOUS
10
6.31528
20
-3.56315
11
6.31528
21
-3.42929
0
LINE
8
BLACK
6
CONTINUOUS
10
6.31528
20
-3.42929
11
6.31556
21
-3.4286
0
LINE
8
BLACK
6
CONTINUOUS
10
6.31556
20
-3.4286
11
6.31626
21
-3.42831
0
LINE
8
BLACK
6
CONTINUOUS
10
6.31626
20
-3.42831
11
6.39343
21
-3.42831
0
LINE
8
BLACK
6
CONTINUOUS
10
6.39343
20
-3.42831
11
6.39412
21
-3.4286
0
LINE
8
BLACK
6
CONTINUOUS
10
6.39412
20
-3.4286
11
6.39441
21
-3.42929
0
LINE
8
BLACK
6
CONTINUOUS
10
6.39441
20
-3.42929
11
6.39441
21
-3.56315
0
LINE
8
BLACK
6
CONTINUOUS
10
6.39441
20
-3.56315
11
6.39412
21
-3.56385
0
LINE
8
BLACK
6
CONTINUOUS
10
6.39412
20
-3.56385
11
6.39343
21
-3.56413
0
LINE
8
BLACK
6
CONTINUOUS
10
6.39343
20
-3.56413
11
6.31626
21
-3.56413
0
LINE
8
BLACK
6
CONTINUOUS
10
6.31626
20
-3.56413
11
6.31556
21
-3.56385
0
LINE
8
BLACK
6
CONTINUOUS
10
6.31724
20
-3.43028
11
6.31724
21
-3.56217
0
LINE
8
BLACK
6
CONTINUOUS
10
6.31724
20
-3.56217
11
6.39244
21
-3.56217
0
LINE
8
BLACK
6
CONTINUOUS
10
6.39244
20
-3.56217
11
6.39244
21
-3.43028
0
LINE
8
BLACK
6
CONTINUOUS
10
6.39244
20
-3.43028
11
6.31724
21
-3.43028
0
LINE
8
BLACK
6
CONTINUOUS
10
6.73023
20
-3.55636
11
6.72994
21
-3.55706
0
LINE
8
BLACK
6
CONTINUOUS
10
6.72994
20
-3.55706
11
6.72924
21
-3.55735
0
LINE
8
BLACK
6
CONTINUOUS
10
6.72924
20
-3.55735
11
6.65444
21
-3.55735
0
LINE
8
BLACK
6
CONTINUOUS
10
6.65444
20
-3.55735
11
6.65374
21
-3.55706
0
LINE
8
BLACK
6
CONTINUOUS
10
6.65374
20
-3.55706
11
6.65346
21
-3.55636
0
LINE
8
BLACK
6
CONTINUOUS
10
6.65346
20
-3.55636
11
6.65346
21
-3.42613
0
LINE
8
BLACK
6
CONTINUOUS
10
6.65346
20
-3.42613
11
6.65326
21
-3.42613
0
LINE
8
BLACK
6
CONTINUOUS
10
6.65326
20
-3.42613
11
6.65256
21
-3.42585
0
LINE
8
BLACK
6
CONTINUOUS
10
6.65256
20
-3.42585
11
6.65228
21
-3.42515
0
LINE
8
BLACK
6
CONTINUOUS
10
6.65228
20
-3.42515
11
6.65228
21
-3.29129
0
LINE
8
BLACK
6
CONTINUOUS
10
6.65228
20
-3.29129
11
6.65256
21
-3.2906
0
LINE
8
BLACK
6
CONTINUOUS
10
6.65256
20
-3.2906
11
6.65326
21
-3.29031
0
LINE
8
BLACK
6
CONTINUOUS
10
6.65326
20
-3.29031
11
6.73043
21
-3.29031
0
LINE
8
BLACK
6
CONTINUOUS
10
6.73043
20
-3.29031
11
6.73112
21
-3.2906
0
LINE
8
BLACK
6
CONTINUOUS
10
6.73112
20
-3.2906
11
6.73141
21
-3.29129
0
LINE
8
BLACK
6
CONTINUOUS
10
6.73141
20
-3.29129
11
6.73141
21
-3.42515
0
LINE
8
BLACK
6
CONTINUOUS
10
6.73141
20
-3.42515
11
6.73112
21
-3.42585
0
LINE
8
BLACK
6
CONTINUOUS
10
6.73112
20
-3.42585
11
6.73043
21
-3.42613
0
LINE
8
BLACK
6
CONTINUOUS
10
6.73043
20
-3.42613
11
6.73023
21
-3.42613
0
LINE
8
BLACK
6
CONTINUOUS
10
6.73023
20
-3.42613
11
6.73023
21
-3.55636
0
LINE
8
BLACK
6
CONTINUOUS
10
6.65543
20
-3.42613
11
6.65543
21
-3.55538
0
LINE
8
BLACK
6
CONTINUOUS
10
6.65543
20
-3.55538
11
6.72826
21
-3.55538
0
LINE
8
BLACK
6
CONTINUOUS
10
6.72826
20
-3.55538
11
6.72826
21
-3.42613
0
LINE
8
BLACK
6
CONTINUOUS
10
6.72826
20
-3.42613
11
6.65543
21
-3.42613
0
LINE
8
BLACK
6
CONTINUOUS
10
6.72944
20
-3.29228
11
6.65424
21
-3.29228
0
LINE
8
BLACK
6
CONTINUOUS
10
6.65424
20
-3.29228
11
6.65424
21
-3.42318
0
LINE
8
BLACK
6
CONTINUOUS
10
6.65424
20
-3.42318
11
6.65444
21
-3.42309
0
LINE
8
BLACK
6
CONTINUOUS
10
6.65444
20
-3.42309
11
6.72924
21
-3.42309
0
LINE
8
BLACK
6
CONTINUOUS
10
6.72924
20
-3.42309
11
6.72944
21
-3.42318
0
LINE
8
BLACK
6
CONTINUOUS
10
6.72944
20
-3.42318
11
6.72944
21
-3.29228
0
LINE
8
BLACK
6
CONTINUOUS
10
5.5675
20
-3.50932
11
5.56722
21
-3.50862
0
LINE
8
BLACK
6
CONTINUOUS
10
5.56722
20
-3.50862
11
5.56722
21
-3.43382
0
LINE
8
BLACK
6
CONTINUOUS
10
5.56722
20
-3.43382
11
5.5675
21
-3.43312
0
LINE
8
BLACK
6
CONTINUOUS
10
5.5675
20
-3.43312
11
5.5682
21
-3.43283
0
LINE
8
BLACK
6
CONTINUOUS
10
5.5682
20
-3.43283
11
5.70048
21
-3.43283
0
LINE
8
BLACK
6
CONTINUOUS
10
5.70048
20
-3.43283
11
5.70118
21
-3.43312
0
LINE
8
BLACK
6
CONTINUOUS
10
5.70118
20
-3.43312
11
5.70147
21
-3.43382
0
LINE
8
BLACK
6
CONTINUOUS
10
5.70147
20
-3.43382
11
5.70147
21
-3.50862
0
LINE
8
BLACK
6
CONTINUOUS
10
5.70147
20
-3.50862
11
5.70118
21
-3.50932
0
LINE
8
BLACK
6
CONTINUOUS
10
5.70118
20
-3.50932
11
5.70048
21
-3.50961
0
LINE
8
BLACK
6
CONTINUOUS
10
5.70048
20
-3.50961
11
5.5682
21
-3.50961
0
LINE
8
BLACK
6
CONTINUOUS
10
5.5682
20
-3.50961
11
5.5675
21
-3.50932
0
LINE
8
BLACK
6
CONTINUOUS
10
5.56919
20
-3.4348
11
5.56919
21
-3.50764
0
LINE
8
BLACK
6
CONTINUOUS
10
5.56919
20
-3.50764
11
5.6995
21
-3.50764
0
LINE
8
BLACK
6
CONTINUOUS
10
5.6995
20
-3.50764
11
5.6995
21
-3.4348
0
LINE
8
BLACK
6
CONTINUOUS
10
5.6995
20
-3.4348
11
5.56919
21
-3.4348
0
LINE
8
BLACK
6
CONTINUOUS
10
6.86574
20
-3.49806
11
6.86546
21
-3.49736
0
LINE
8
BLACK
6
CONTINUOUS
10
6.86546
20
-3.49736
11
6.86546
21
-3.36508
0
LINE
8
BLACK
6
CONTINUOUS
10
6.86546
20
-3.36508
11
6.86574
21
-3.36438
0
LINE
8
BLACK
6
CONTINUOUS
10
6.86574
20
-3.36438
11
6.86644
21
-3.36409
0
LINE
8
BLACK
6
CONTINUOUS
10
6.86644
20
-3.36409
11
6.94124
21
-3.36409
0
LINE
8
BLACK
6
CONTINUOUS
10
6.94124
20
-3.36409
11
6.94194
21
-3.36438
0
LINE
8
BLACK
6
CONTINUOUS
10
6.94194
20
-3.36438
11
6.94223
21
-3.36508
0
LINE
8
BLACK
6
CONTINUOUS
10
6.94223
20
-3.36508
11
6.94223
21
-3.49736
0
LINE
8
BLACK
6
CONTINUOUS
10
6.94223
20
-3.49736
11
6.94194
21
-3.49806
0
LINE
8
BLACK
6
CONTINUOUS
10
6.94194
20
-3.49806
11
6.94124
21
-3.49835
0
LINE
8
BLACK
6
CONTINUOUS
10
6.94124
20
-3.49835
11
6.86644
21
-3.49835
0
LINE
8
BLACK
6
CONTINUOUS
10
6.86644
20
-3.49835
11
6.86574
21
-3.49806
0
LINE
8
BLACK
6
CONTINUOUS
10
6.86743
20
-3.36606
11
6.86743
21
-3.49638
0
LINE
8
BLACK
6
CONTINUOUS
10
6.86743
20
-3.49638
11
6.94026
21
-3.49638
0
LINE
8
BLACK
6
CONTINUOUS
10
6.94026
20
-3.49638
11
6.94026
21
-3.36606
0
LINE
8
BLACK
6
CONTINUOUS
10
6.94026
20
-3.36606
11
6.86743
21
-3.36606
0
LINE
8
BLACK
6
CONTINUOUS
10
6.73374
20
-3.49406
11
6.73346
21
-3.49336
0
LINE
8
BLACK
6
CONTINUOUS
10
6.73346
20
-3.49336
11
6.73346
21
-3.36108
0
LINE
8
BLACK
6
CONTINUOUS
10
6.73346
20
-3.36108
11
6.73374
21
-3.36038
0
LINE
8
BLACK
6
CONTINUOUS
10
6.73374
20
-3.36038
11
6.73444
21
-3.36009
0
LINE
8
BLACK
6
CONTINUOUS
10
6.73444
20
-3.36009
11
6.80924
21
-3.36009
0
LINE
8
BLACK
6
CONTINUOUS
10
6.80924
20
-3.36009
11
6.80994
21
-3.36038
0
LINE
8
BLACK
6
CONTINUOUS
10
6.80994
20
-3.36038
11
6.81023
21
-3.36108
0
LINE
8
BLACK
6
CONTINUOUS
10
6.81023
20
-3.36108
11
6.81023
21
-3.49336
0
LINE
8
BLACK
6
CONTINUOUS
10
6.81023
20
-3.49336
11
6.80994
21
-3.49406
0
LINE
8
BLACK
6
CONTINUOUS
10
6.80994
20
-3.49406
11
6.80924
21
-3.49435
0
LINE
8
BLACK
6
CONTINUOUS
10
6.80924
20
-3.49435
11
6.73444
21
-3.49435
0
LINE
8
BLACK
6
CONTINUOUS
10
6.73444
20
-3.49435
11
6.73374
21
-3.49406
0
LINE
8
BLACK
6
CONTINUOUS
10
6.73543
20
-3.36206
11
6.73543
21
-3.49238
0
LINE
8
BLACK
6
CONTINUOUS
10
6.73543
20
-3.49238
11
6.80826
21
-3.49238
0
LINE
8
BLACK
6
CONTINUOUS
10
6.80826
20
-3.49238
11
6.80826
21
-3.36206
0
LINE
8
BLACK
6
CONTINUOUS
10
6.80826
20
-3.36206
11
6.73543
21
-3.36206
0
LINE
8
BLACK
6
CONTINUOUS
10
6.01112
20
-3.46211
11
6.01083
21
-3.46142
0
LINE
8
BLACK
6
CONTINUOUS
10
6.01083
20
-3.46142
11
6.01083
21
-3.31024
0
LINE
8
BLACK
6
CONTINUOUS
10
6.01083
20
-3.31024
11
6.01112
21
-3.30954
0
LINE
8
BLACK
6
CONTINUOUS
10
6.01112
20
-3.30954
11
6.01181
21
-3.30925
0
LINE
8
BLACK
6
CONTINUOUS
10
6.01181
20
-3.30925
11
6.14567
21
-3.30925
0
LINE
8
BLACK
6
CONTINUOUS
10
6.14567
20
-3.30925
11
6.14637
21
-3.30954
0
LINE
8
BLACK
6
CONTINUOUS
10
6.14637
20
-3.30954
11
6.14665
21
-3.31024
0
LINE
8
BLACK
6
CONTINUOUS
10
6.14665
20
-3.31024
11
6.14665
21
-3.46142
0
LINE
8
BLACK
6
CONTINUOUS
10
6.14665
20
-3.46142
11
6.14637
21
-3.46211
0
LINE
8
BLACK
6
CONTINUOUS
10
6.14637
20
-3.46211
11
6.14567
21
-3.4624
0
LINE
8
BLACK
6
CONTINUOUS
10
6.14567
20
-3.4624
11
6.01181
21
-3.4624
0
LINE
8
BLACK
6
CONTINUOUS
10
6.01181
20
-3.4624
11
6.01112
21
-3.46211
0
LINE
8
BLACK
6
CONTINUOUS
10
6.0128
20
-3.31122
11
6.0128
21
-3.46043
0
LINE
8
BLACK
6
CONTINUOUS
10
6.0128
20
-3.46043
11
6.14469
21
-3.46043
0
LINE
8
BLACK
6
CONTINUOUS
10
6.14469
20
-3.46043
11
6.14469
21
-3.31122
0
LINE
8
BLACK
6
CONTINUOUS
10
6.14469
20
-3.31122
11
6.0128
21
-3.31122
0
LINE
8
BLACK
6
CONTINUOUS
10
5.77056
20
-3.45885
11
5.77028
21
-3.45815
0
LINE
8
BLACK
6
CONTINUOUS
10
5.77028
20
-3.45815
11
5.77028
21
-3.32429
0
LINE
8
BLACK
6
CONTINUOUS
10
5.77028
20
-3.32429
11
5.77056
21
-3.3236
0
LINE
8
BLACK
6
CONTINUOUS
10
5.77056
20
-3.3236
11
5.77126
21
-3.32331
0
LINE
8
BLACK
6
CONTINUOUS
10
5.77126
20
-3.32331
11
5.84843
21
-3.32331
0
LINE
8
BLACK
6
CONTINUOUS
10
5.84843
20
-3.32331
11
5.84912
21
-3.3236
0
LINE
8
BLACK
6
CONTINUOUS
10
5.84912
20
-3.3236
11
5.84941
21
-3.32429
0
LINE
8
BLACK
6
CONTINUOUS
10
5.84941
20
-3.32429
11
5.84941
21
-3.45815
0
LINE
8
BLACK
6
CONTINUOUS
10
5.84941
20
-3.45815
11
5.84912
21
-3.45885
0
LINE
8
BLACK
6
CONTINUOUS
10
5.84912
20
-3.45885
11
5.84843
21
-3.45913
0
LINE
8
BLACK
6
CONTINUOUS
10
5.84843
20
-3.45913
11
5.77126
21
-3.45913
0
LINE
8
BLACK
6
CONTINUOUS
10
5.77126
20
-3.45913
11
5.77056
21
-3.45885
0
LINE
8
BLACK
6
CONTINUOUS
10
5.77224
20
-3.32528
11
5.77224
21
-3.45717
0
LINE
8
BLACK
6
CONTINUOUS
10
5.77224
20
-3.45717
11
5.84744
21
-3.45717
0
LINE
8
BLACK
6
CONTINUOUS
10
5.84744
20
-3.45717
11
5.84744
21
-3.32528
0
LINE
8
BLACK
6
CONTINUOUS
10
5.84744
20
-3.32528
11
5.77224
21
-3.32528
0
LINE
8
BLACK
6
CONTINUOUS
10
5.63456
20
-3.43235
11
5.63428
21
-3.43165
0
LINE
8
BLACK
6
CONTINUOUS
10
5.63428
20
-3.43165
11
5.63428
21
-3.29779
0
LINE
8
BLACK
6
CONTINUOUS
10
5.63428
20
-3.29779
11
5.63456
21
-3.2971
0
LINE
8
BLACK
6
CONTINUOUS
10
5.63456
20
-3.2971
11
5.63526
21
-3.29681
0
LINE
8
BLACK
6
CONTINUOUS
10
5.63526
20
-3.29681
11
5.71243
21
-3.29681
0
LINE
8
BLACK
6
CONTINUOUS
10
5.71243
20
-3.29681
11
5.71312
21
-3.2971
0
LINE
8
BLACK
6
CONTINUOUS
10
5.71312
20
-3.2971
11
5.71341
21
-3.29779
0
LINE
8
BLACK
6
CONTINUOUS
10
5.71341
20
-3.29779
11
5.71341
21
-3.43165
0
LINE
8
BLACK
6
CONTINUOUS
10
5.71341
20
-3.43165
11
5.71312
21
-3.43235
0
LINE
8
BLACK
6
CONTINUOUS
10
5.71312
20
-3.43235
11
5.71243
21
-3.43263
0
LINE
8
BLACK
6
CONTINUOUS
10
5.71243
20
-3.43263
11
5.63526
21
-3.43263
0
LINE
8
BLACK
6
CONTINUOUS
10
5.63526
20
-3.43263
11
5.63456
21
-3.43235
0
LINE
8
BLACK
6
CONTINUOUS
10
5.63624
20
-3.29878
11
5.63624
21
-3.43067
0
LINE
8
BLACK
6
CONTINUOUS
10
5.63624
20
-3.43067
11
5.71144
21
-3.43067
0
LINE
8
BLACK
6
CONTINUOUS
10
5.71144
20
-3.43067
11
5.71144
21
-3.29878
0
LINE
8
BLACK
6
CONTINUOUS
10
5.71144
20
-3.29878
11
5.63624
21
-3.29878
0
LINE
8
BLACK
6
CONTINUOUS
10
6.73222
20
-3.3585
11
6.73193
21
-3.3578
0
LINE
8
BLACK
6
CONTINUOUS
10
6.73193
20
-3.3578
11
6.73193
21
-3.28064
0
LINE
8
BLACK
6
CONTINUOUS
10
6.73193
20
-3.28064
11
6.73222
21
-3.27994
0
LINE
8
BLACK
6
CONTINUOUS
10
6.73222
20
-3.27994
11
6.73291
21
-3.27965
0
LINE
8
BLACK
6
CONTINUOUS
10
6.73291
20
-3.27965
11
6.86677
21
-3.27965
0
LINE
8
BLACK
6
CONTINUOUS
10
6.86677
20
-3.27965
11
6.86747
21
-3.27994
0
LINE
8
BLACK
6
CONTINUOUS
10
6.86747
20
-3.27994
11
6.86776
21
-3.28064
0
LINE
8
BLACK
6
CONTINUOUS
10
6.86776
20
-3.28064
11
6.86776
21
-3.3578
0
LINE
8
BLACK
6
CONTINUOUS
10
6.86776
20
-3.3578
11
6.86747
21
-3.3585
0
LINE
8
BLACK
6
CONTINUOUS
10
6.86747
20
-3.3585
11
6.86677
21
-3.35879
0
LINE
8
BLACK
6
CONTINUOUS
10
6.86677
20
-3.35879
11
6.73291
21
-3.35879
0
LINE
8
BLACK
6
CONTINUOUS
10
6.73291
20
-3.35879
11
6.73222
21
-3.3585
0
LINE
8
BLACK
6
CONTINUOUS
10
6.7339
20
-3.28162
11
6.7339
21
-3.35682
0
LINE
8
BLACK
6
CONTINUOUS
10
6.7339
20
-3.35682
11
6.86579
21
-3.35682
0
LINE
8
BLACK
6
CONTINUOUS
10
6.86579
20
-3.35682
11
6.86579
21
-3.28162
0
LINE
8
BLACK
6
CONTINUOUS
10
6.86579
20
-3.28162
11
6.7339
21
-3.28162
0
LINE
8
BLACK
6
CONTINUOUS
10
5.77174
20
-3.31306
11
5.77146
21
-3.31236
0
LINE
8
BLACK
6
CONTINUOUS
10
5.77146
20
-3.31236
11
5.77146
21
-3.18008
0
LINE
8
BLACK
6
CONTINUOUS
10
5.77146
20
-3.18008
11
5.77174
21
-3.17938
0
LINE
8
BLACK
6
CONTINUOUS
10
5.77174
20
-3.17938
11
5.77244
21
-3.17909
0
LINE
8
BLACK
6
CONTINUOUS
10
5.77244
20
-3.17909
11
5.84724
21
-3.17909
0
LINE
8
BLACK
6
CONTINUOUS
10
5.84724
20
-3.17909
11
5.84794
21
-3.17938
0
LINE
8
BLACK
6
CONTINUOUS
10
5.84794
20
-3.17938
11
5.84823
21
-3.18008
0
LINE
8
BLACK
6
CONTINUOUS
10
5.84823
20
-3.18008
11
5.84823
21
-3.31236
0
LINE
8
BLACK
6
CONTINUOUS
10
5.84823
20
-3.31236
11
5.84794
21
-3.31306
0
LINE
8
BLACK
6
CONTINUOUS
10
5.84794
20
-3.31306
11
5.84724
21
-3.31335
0
LINE
8
BLACK
6
CONTINUOUS
10
5.84724
20
-3.31335
11
5.77244
21
-3.31335
0
LINE
8
BLACK
6
CONTINUOUS
10
5.77244
20
-3.31335
11
5.77174
21
-3.31306
0
LINE
8
BLACK
6
CONTINUOUS
10
5.77343
20
-3.18106
11
5.77343
21
-3.31138
0
LINE
8
BLACK
6
CONTINUOUS
10
5.77343
20
-3.31138
11
5.84626
21
-3.31138
0
LINE
8
BLACK
6
CONTINUOUS
10
5.84626
20
-3.31138
11
5.84626
21
-3.18106
0
LINE
8
BLACK
6
CONTINUOUS
10
5.84626
20
-3.18106
11
5.77343
21
-3.18106
0
LINE
8
BLACK
6
CONTINUOUS
10
6.76556
20
-3.26385
11
6.76528
21
-3.26315
0
LINE
8
BLACK
6
CONTINUOUS
10
6.76528
20
-3.26315
11
6.76528
21
-3.12929
0
LINE
8
BLACK
6
CONTINUOUS
10
6.76528
20
-3.12929
11
6.76556
21
-3.1286
0
LINE
8
BLACK
6
CONTINUOUS
10
6.76556
20
-3.1286
11
6.76626
21
-3.12831
0
LINE
8
BLACK
6
CONTINUOUS
10
6.76626
20
-3.12831
11
6.84343
21
-3.12831
0
LINE
8
BLACK
6
CONTINUOUS
10
6.84343
20
-3.12831
11
6.84412
21
-3.1286
0
LINE
8
BLACK
6
CONTINUOUS
10
6.84412
20
-3.1286
11
6.84441
21
-3.12929
0
LINE
8
BLACK
6
CONTINUOUS
10
6.84441
20
-3.12929
11
6.84441
21
-3.26315
0
LINE
8
BLACK
6
CONTINUOUS
10
6.84441
20
-3.26315
11
6.84412
21
-3.26385
0
LINE
8
BLACK
6
CONTINUOUS
10
6.84412
20
-3.26385
11
6.84343
21
-3.26413
0
LINE
8
BLACK
6
CONTINUOUS
10
6.84343
20
-3.26413
11
6.76626
21
-3.26413
0
LINE
8
BLACK
6
CONTINUOUS
10
6.76626
20
-3.26413
11
6.76556
21
-3.26385
0
LINE
8
BLACK
6
CONTINUOUS
10
6.76724
20
-3.13028
11
6.76724
21
-3.26217
0
LINE
8
BLACK
6
CONTINUOUS
10
6.76724
20
-3.26217
11
6.84244
21
-3.26217
0
LINE
8
BLACK
6
CONTINUOUS
10
6.84244
20
-3.26217
11
6.84244
21
-3.13028
0
LINE
8
BLACK
6
CONTINUOUS
10
6.84244
20
-3.13028
11
6.76724
21
-3.13028
0
LINE
8
BLACK
6
CONTINUOUS
10
6.66556
20
-3.26385
11
6.66528
21
-3.26315
0
LINE
8
BLACK
6
CONTINUOUS
10
6.66528
20
-3.26315
11
6.66528
21
-3.12929
0
LINE
8
BLACK
6
CONTINUOUS
10
6.66528
20
-3.12929
11
6.66556
21
-3.1286
0
LINE
8
BLACK
6
CONTINUOUS
10
6.66556
20
-3.1286
11
6.66626
21
-3.12831
0
LINE
8
BLACK
6
CONTINUOUS
10
6.66626
20
-3.12831
11
6.74343
21
-3.12831
0
LINE
8
BLACK
6
CONTINUOUS
10
6.74343
20
-3.12831
11
6.74412
21
-3.1286
0
LINE
8
BLACK
6
CONTINUOUS
10
6.74412
20
-3.1286
11
6.74441
21
-3.12929
0
LINE
8
BLACK
6
CONTINUOUS
10
6.74441
20
-3.12929
11
6.74441
21
-3.26315
0
LINE
8
BLACK
6
CONTINUOUS
10
6.74441
20
-3.26315
11
6.74412
21
-3.26385
0
LINE
8
BLACK
6
CONTINUOUS
10
6.74412
20
-3.26385
11
6.74343
21
-3.26413
0
LINE
8
BLACK
6
CONTINUOUS
10
6.74343
20
-3.26413
11
6.66626
21
-3.26413
0
LINE
8
BLACK
6
CONTINUOUS
10
6.66626
20
-3.26413
11
6.66556
21
-3.26385
0
LINE
8
BLACK
6
CONTINUOUS
10
6.66724
20
-3.13028
11
6.66724
21
-3.26217
0
LINE
8
BLACK
6
CONTINUOUS
10
6.66724
20
-3.26217
11
6.74244
21
-3.26217
0
LINE
8
BLACK
6
CONTINUOUS
10
6.74244
20
-3.26217
11
6.74244
21
-3.13028
0
LINE
8
BLACK
6
CONTINUOUS
10
6.74244
20
-3.13028
11
6.66724
21
-3.13028
  0
ENDSEC
  0
EOF
