  0
SECTION
  2
HEADER
  9
$ANGBASE
  50
0.0
  9
$ANGDIR
  70
1
  9
$MEASUREMENT
  70
0
  0
ENDSEC
  0
SECTION
  2
TABLES
  0
TABLE
  2
LTYPE
  70
4
  0
LTYPE
  5
40F
  2
CONTINUOUS
  70
0
  3
Solid line
  72
65
  73
0
  40
0.0
  0
LTYPE
  5
410
  2
DASHDOT
 70
0
  3
Dash Dot ____ _ ____ _
 72
65
 73
4
 40
2.0
 49
1.25
 49
-0.25
 49
0.25
 49
-0.25
  0
LTYPE
  5
411
  2
DASHED
 70
0
  3
Dashed __ __ __ __ __
 72
65
 73
2
 40
0.75
 49
0.5
 49
-0.25
  0
LTYPE
  5
43B
  2
DOTTED
 70
0
  3
Dotted .  .  .  .
 72
65
 73
2
 40
0.2
 49
0.0
 49
-0.2
  0
ENDTAB
  0
TABLE
  2
STYLE
  70
4
  0
STYLE
  2
KICAD
  70
0
  40
0
  41
1
  42
1
  50
0
  71
0
  3
isocp.shx
  0
STYLE
  2
KICADB
  70
0
  40
0
  41
1
  42
1
  50
0
  71
0
  3
isocp.shx
  0
STYLE
  2
KICADI
  70
0
  40
0
  41
1
  42
1
  50
15
  71
0
  3
isocp.shx
  0
STYLE
  2
KICADBI
  70
0
  40
0
  41
1
  42
1
  50
15
  71
0
  3
isocp.shx
  0
ENDTAB
  0
TABLE
  2
LAYER
  70
1
  0
LAYER
  2
BLACK
  70
0
  62
7
  6
CONTINUOUS
  0
ENDTAB
  0
ENDSEC
  0
SECTION
  2
ENTITIES
0
LINE
8
BLACK
6
CONTINUOUS
10
0.825013
20
-0.0627254
11
0.827568
21
-0.0644322
0
LINE
8
BLACK
6
CONTINUOUS
10
0.827568
20
-0.0644322
11
0.829275
21
-0.0669867
0
LINE
8
BLACK
6
CONTINUOUS
10
0.829275
20
-0.0669867
11
0.829874
21
-0.07
0
LINE
8
BLACK
6
CONTINUOUS
10
0.829874
20
-0.07
11
0.829874
21
-0.13
0
LINE
8
BLACK
6
CONTINUOUS
10
0.829874
20
-0.13
11
0.829275
21
-0.133013
0
LINE
8
BLACK
6
CONTINUOUS
10
0.829275
20
-0.133013
11
0.827568
21
-0.135568
0
LINE
8
BLACK
6
CONTINUOUS
10
0.827568
20
-0.135568
11
0.825013
21
-0.137275
0
LINE
8
BLACK
6
CONTINUOUS
10
0.825013
20
-0.137275
11
0.822
21
-0.137874
0
LINE
8
BLACK
6
CONTINUOUS
10
0.822
20
-0.137874
11
0.762
21
-0.137874
0
LINE
8
BLACK
6
CONTINUOUS
10
0.762
20
-0.137874
11
0.758987
21
-0.137275
0
LINE
8
BLACK
6
CONTINUOUS
10
0.758987
20
-0.137275
11
0.756432
21
-0.135568
0
LINE
8
BLACK
6
CONTINUOUS
10
0.756432
20
-0.135568
11
0.754725
21
-0.133013
0
LINE
8
BLACK
6
CONTINUOUS
10
0.754725
20
-0.133013
11
0.754126
21
-0.13
0
LINE
8
BLACK
6
CONTINUOUS
10
0.754126
20
-0.13
11
0.754126
21
-0.07
0
LINE
8
BLACK
6
CONTINUOUS
10
0.754126
20
-0.07
11
0.754725
21
-0.0669867
0
LINE
8
BLACK
6
CONTINUOUS
10
0.754725
20
-0.0669867
11
0.756432
21
-0.0644322
0
LINE
8
BLACK
6
CONTINUOUS
10
0.756432
20
-0.0644322
11
0.758987
21
-0.0627254
0
LINE
8
BLACK
6
CONTINUOUS
10
0.758987
20
-0.0627254
11
0.762
21
-0.062126
0
LINE
8
BLACK
6
CONTINUOUS
10
0.762
20
-0.062126
11
0.822
21
-0.062126
0
LINE
8
BLACK
6
CONTINUOUS
10
0.822
20
-0.062126
11
0.825013
21
-0.0627254
0
LINE
8
BLACK
6
CONTINUOUS
10
0.925013
20
-0.0627254
11
0.927568
21
-0.0644322
0
LINE
8
BLACK
6
CONTINUOUS
10
0.927568
20
-0.0644322
11
0.929275
21
-0.0669867
0
LINE
8
BLACK
6
CONTINUOUS
10
0.929275
20
-0.0669867
11
0.929874
21
-0.07
0
LINE
8
BLACK
6
CONTINUOUS
10
0.929874
20
-0.07
11
0.929874
21
-0.13
0
LINE
8
BLACK
6
CONTINUOUS
10
0.929874
20
-0.13
11
0.929275
21
-0.133013
0
LINE
8
BLACK
6
CONTINUOUS
10
0.929275
20
-0.133013
11
0.927568
21
-0.135568
0
LINE
8
BLACK
6
CONTINUOUS
10
0.927568
20
-0.135568
11
0.925013
21
-0.137275
0
LINE
8
BLACK
6
CONTINUOUS
10
0.925013
20
-0.137275
11
0.922
21
-0.137874
0
LINE
8
BLACK
6
CONTINUOUS
10
0.922
20
-0.137874
11
0.862
21
-0.137874
0
LINE
8
BLACK
6
CONTINUOUS
10
0.862
20
-0.137874
11
0.858987
21
-0.137275
0
LINE
8
BLACK
6
CONTINUOUS
10
0.858987
20
-0.137275
11
0.856432
21
-0.135568
0
LINE
8
BLACK
6
CONTINUOUS
10
0.856432
20
-0.135568
11
0.854725
21
-0.133013
0
LINE
8
BLACK
6
CONTINUOUS
10
0.854725
20
-0.133013
11
0.854126
21
-0.13
0
LINE
8
BLACK
6
CONTINUOUS
10
0.854126
20
-0.13
11
0.854126
21
-0.07
0
LINE
8
BLACK
6
CONTINUOUS
10
0.854126
20
-0.07
11
0.854725
21
-0.0669867
0
LINE
8
BLACK
6
CONTINUOUS
10
0.854725
20
-0.0669867
11
0.856432
21
-0.0644322
0
LINE
8
BLACK
6
CONTINUOUS
10
0.856432
20
-0.0644322
11
0.858987
21
-0.0627254
0
LINE
8
BLACK
6
CONTINUOUS
10
0.858987
20
-0.0627254
11
0.862
21
-0.062126
0
LINE
8
BLACK
6
CONTINUOUS
10
0.862
20
-0.062126
11
0.922
21
-0.062126
0
LINE
8
BLACK
6
CONTINUOUS
10
0.922
20
-0.062126
11
0.925013
21
-0.0627254
0
LINE
8
BLACK
6
CONTINUOUS
10
1.02501
20
-0.0627254
11
1.02757
21
-0.0644322
0
LINE
8
BLACK
6
CONTINUOUS
10
1.02757
20
-0.0644322
11
1.02927
21
-0.0669867
0
LINE
8
BLACK
6
CONTINUOUS
10
1.02927
20
-0.0669867
11
1.02987
21
-0.07
0
LINE
8
BLACK
6
CONTINUOUS
10
1.02987
20
-0.07
11
1.02987
21
-0.13
0
LINE
8
BLACK
6
CONTINUOUS
10
1.02987
20
-0.13
11
1.02927
21
-0.133013
0
LINE
8
BLACK
6
CONTINUOUS
10
1.02927
20
-0.133013
11
1.02757
21
-0.135568
0
LINE
8
BLACK
6
CONTINUOUS
10
1.02757
20
-0.135568
11
1.02501
21
-0.137275
0
LINE
8
BLACK
6
CONTINUOUS
10
1.02501
20
-0.137275
11
1.022
21
-0.137874
0
LINE
8
BLACK
6
CONTINUOUS
10
1.022
20
-0.137874
11
0.962
21
-0.137874
0
LINE
8
BLACK
6
CONTINUOUS
10
0.962
20
-0.137874
11
0.958987
21
-0.137275
0
LINE
8
BLACK
6
CONTINUOUS
10
0.958987
20
-0.137275
11
0.956432
21
-0.135568
0
LINE
8
BLACK
6
CONTINUOUS
10
0.956432
20
-0.135568
11
0.954725
21
-0.133013
0
LINE
8
BLACK
6
CONTINUOUS
10
0.954725
20
-0.133013
11
0.954126
21
-0.13
0
LINE
8
BLACK
6
CONTINUOUS
10
0.954126
20
-0.13
11
0.954126
21
-0.07
0
LINE
8
BLACK
6
CONTINUOUS
10
0.954126
20
-0.07
11
0.954725
21
-0.0669867
0
LINE
8
BLACK
6
CONTINUOUS
10
0.954725
20
-0.0669867
11
0.956432
21
-0.0644322
0
LINE
8
BLACK
6
CONTINUOUS
10
0.956432
20
-0.0644322
11
0.958987
21
-0.0627254
0
LINE
8
BLACK
6
CONTINUOUS
10
0.958987
20
-0.0627254
11
0.962
21
-0.062126
0
LINE
8
BLACK
6
CONTINUOUS
10
0.962
20
-0.062126
11
1.022
21
-0.062126
0
LINE
8
BLACK
6
CONTINUOUS
10
1.022
20
-0.062126
11
1.02501
21
-0.0627254
0
LINE
8
BLACK
6
CONTINUOUS
10
1.12501
20
-0.0627254
11
1.12757
21
-0.0644322
0
LINE
8
BLACK
6
CONTINUOUS
10
1.12757
20
-0.0644322
11
1.12927
21
-0.0669867
0
LINE
8
BLACK
6
CONTINUOUS
10
1.12927
20
-0.0669867
11
1.12987
21
-0.07
0
LINE
8
BLACK
6
CONTINUOUS
10
1.12987
20
-0.07
11
1.12987
21
-0.13
0
LINE
8
BLACK
6
CONTINUOUS
10
1.12987
20
-0.13
11
1.12927
21
-0.133013
0
LINE
8
BLACK
6
CONTINUOUS
10
1.12927
20
-0.133013
11
1.12757
21
-0.135568
0
LINE
8
BLACK
6
CONTINUOUS
10
1.12757
20
-0.135568
11
1.12501
21
-0.137275
0
LINE
8
BLACK
6
CONTINUOUS
10
1.12501
20
-0.137275
11
1.122
21
-0.137874
0
LINE
8
BLACK
6
CONTINUOUS
10
1.122
20
-0.137874
11
1.062
21
-0.137874
0
LINE
8
BLACK
6
CONTINUOUS
10
1.062
20
-0.137874
11
1.05899
21
-0.137275
0
LINE
8
BLACK
6
CONTINUOUS
10
1.05899
20
-0.137275
11
1.05643
21
-0.135568
0
LINE
8
BLACK
6
CONTINUOUS
10
1.05643
20
-0.135568
11
1.05473
21
-0.133013
0
LINE
8
BLACK
6
CONTINUOUS
10
1.05473
20
-0.133013
11
1.05413
21
-0.13
0
LINE
8
BLACK
6
CONTINUOUS
10
1.05413
20
-0.13
11
1.05413
21
-0.07
0
LINE
8
BLACK
6
CONTINUOUS
10
1.05413
20
-0.07
11
1.05473
21
-0.0669867
0
LINE
8
BLACK
6
CONTINUOUS
10
1.05473
20
-0.0669867
11
1.05643
21
-0.0644322
0
LINE
8
BLACK
6
CONTINUOUS
10
1.05643
20
-0.0644322
11
1.05899
21
-0.0627254
0
LINE
8
BLACK
6
CONTINUOUS
10
1.05899
20
-0.0627254
11
1.062
21
-0.062126
0
LINE
8
BLACK
6
CONTINUOUS
10
1.062
20
-0.062126
11
1.122
21
-0.062126
0
LINE
8
BLACK
6
CONTINUOUS
10
1.122
20
-0.062126
11
1.12501
21
-0.0627254
0
LINE
8
BLACK
6
CONTINUOUS
10
1.22501
20
-0.0627254
11
1.22757
21
-0.0644322
0
LINE
8
BLACK
6
CONTINUOUS
10
1.22757
20
-0.0644322
11
1.22927
21
-0.0669867
0
LINE
8
BLACK
6
CONTINUOUS
10
1.22927
20
-0.0669867
11
1.22987
21
-0.07
0
LINE
8
BLACK
6
CONTINUOUS
10
1.22987
20
-0.07
11
1.22987
21
-0.13
0
LINE
8
BLACK
6
CONTINUOUS
10
1.22987
20
-0.13
11
1.22927
21
-0.133013
0
LINE
8
BLACK
6
CONTINUOUS
10
1.22927
20
-0.133013
11
1.22757
21
-0.135568
0
LINE
8
BLACK
6
CONTINUOUS
10
1.22757
20
-0.135568
11
1.22501
21
-0.137275
0
LINE
8
BLACK
6
CONTINUOUS
10
1.22501
20
-0.137275
11
1.222
21
-0.137874
0
LINE
8
BLACK
6
CONTINUOUS
10
1.222
20
-0.137874
11
1.162
21
-0.137874
0
LINE
8
BLACK
6
CONTINUOUS
10
1.162
20
-0.137874
11
1.15899
21
-0.137275
0
LINE
8
BLACK
6
CONTINUOUS
10
1.15899
20
-0.137275
11
1.15643
21
-0.135568
0
LINE
8
BLACK
6
CONTINUOUS
10
1.15643
20
-0.135568
11
1.15473
21
-0.133013
0
LINE
8
BLACK
6
CONTINUOUS
10
1.15473
20
-0.133013
11
1.15413
21
-0.13
0
LINE
8
BLACK
6
CONTINUOUS
10
1.15413
20
-0.13
11
1.15413
21
-0.07
0
LINE
8
BLACK
6
CONTINUOUS
10
1.15413
20
-0.07
11
1.15473
21
-0.0669867
0
LINE
8
BLACK
6
CONTINUOUS
10
1.15473
20
-0.0669867
11
1.15643
21
-0.0644322
0
LINE
8
BLACK
6
CONTINUOUS
10
1.15643
20
-0.0644322
11
1.15899
21
-0.0627254
0
LINE
8
BLACK
6
CONTINUOUS
10
1.15899
20
-0.0627254
11
1.162
21
-0.062126
0
LINE
8
BLACK
6
CONTINUOUS
10
1.162
20
-0.062126
11
1.222
21
-0.062126
0
LINE
8
BLACK
6
CONTINUOUS
10
1.222
20
-0.062126
11
1.22501
21
-0.0627254
0
LINE
8
BLACK
6
CONTINUOUS
10
0.0141057
20
0.125192
11
0.0280341
21
0.122826
0
LINE
8
BLACK
6
CONTINUOUS
10
0.0280341
20
0.122826
11
0.04161
21
0.118914
0
LINE
8
BLACK
6
CONTINUOUS
10
0.04161
20
0.118914
11
0.0546625
21
0.113508
0
LINE
8
BLACK
6
CONTINUOUS
10
0.0546625
20
0.113508
11
0.0670277
21
0.106674
0
LINE
8
BLACK
6
CONTINUOUS
10
0.0670277
20
0.106674
11
0.0785499
21
0.0984985
0
LINE
8
BLACK
6
CONTINUOUS
10
0.0785499
20
0.0984985
11
0.0890843
21
0.0890843
0
LINE
8
BLACK
6
CONTINUOUS
10
0.0890843
20
0.0890843
11
0.0984985
21
0.0785499
0
LINE
8
BLACK
6
CONTINUOUS
10
0.0984985
20
0.0785499
11
0.106674
21
0.0670277
0
LINE
8
BLACK
6
CONTINUOUS
10
0.106674
20
0.0670277
11
0.113508
21
0.0546625
0
LINE
8
BLACK
6
CONTINUOUS
10
0.113508
20
0.0546625
11
0.118914
21
0.04161
0
LINE
8
BLACK
6
CONTINUOUS
10
0.118914
20
0.04161
11
0.122826
21
0.0280341
0
LINE
8
BLACK
6
CONTINUOUS
10
0.122826
20
0.0280341
11
0.125192
21
0.0141057
0
LINE
8
BLACK
6
CONTINUOUS
10
0.125192
20
0.0141057
11
0.125984
21
0
0
LINE
8
BLACK
6
CONTINUOUS
10
0.125984
20
0
11
0.125192
21
-0.0141057
0
LINE
8
BLACK
6
CONTINUOUS
10
0.125192
20
-0.0141057
11
0.122826
21
-0.0280341
0
LINE
8
BLACK
6
CONTINUOUS
10
0.122826
20
-0.0280341
11
0.118914
21
-0.04161
0
LINE
8
BLACK
6
CONTINUOUS
10
0.118914
20
-0.04161
11
0.113508
21
-0.0546625
0
LINE
8
BLACK
6
CONTINUOUS
10
0.113508
20
-0.0546625
11
0.106674
21
-0.0670277
0
LINE
8
BLACK
6
CONTINUOUS
10
0.106674
20
-0.0670277
11
0.0984985
21
-0.0785499
0
LINE
8
BLACK
6
CONTINUOUS
10
0.0984985
20
-0.0785499
11
0.0890843
21
-0.0890843
0
LINE
8
BLACK
6
CONTINUOUS
10
0.0890843
20
-0.0890843
11
0.0785499
21
-0.0984985
0
LINE
8
BLACK
6
CONTINUOUS
10
0.0785499
20
-0.0984985
11
0.0670277
21
-0.106674
0
LINE
8
BLACK
6
CONTINUOUS
10
0.0670277
20
-0.106674
11
0.0546625
21
-0.113508
0
LINE
8
BLACK
6
CONTINUOUS
10
0.0546625
20
-0.113508
11
0.04161
21
-0.118914
0
LINE
8
BLACK
6
CONTINUOUS
10
0.04161
20
-0.118914
11
0.0280341
21
-0.122826
0
LINE
8
BLACK
6
CONTINUOUS
10
0.0280341
20
-0.122826
11
0.0141057
21
-0.125192
0
LINE
8
BLACK
6
CONTINUOUS
10
0.0141057
20
-0.125192
11
0
21
-0.125984
0
LINE
8
BLACK
6
CONTINUOUS
10
0
20
-0.125984
11
-0.0141057
21
-0.125192
0
LINE
8
BLACK
6
CONTINUOUS
10
-0.0141057
20
-0.125192
11
-0.0280341
21
-0.122826
0
LINE
8
BLACK
6
CONTINUOUS
10
-0.0280341
20
-0.122826
11
-0.04161
21
-0.118914
0
LINE
8
BLACK
6
CONTINUOUS
10
-0.04161
20
-0.118914
11
-0.0546625
21
-0.113508
0
LINE
8
BLACK
6
CONTINUOUS
10
-0.0546625
20
-0.113508
11
-0.0670277
21
-0.106674
0
LINE
8
BLACK
6
CONTINUOUS
10
-0.0670277
20
-0.106674
11
-0.0785499
21
-0.0984985
0
LINE
8
BLACK
6
CONTINUOUS
10
-0.0785499
20
-0.0984985
11
-0.0890843
21
-0.0890843
0
LINE
8
BLACK
6
CONTINUOUS
10
-0.0890843
20
-0.0890843
11
-0.0984985
21
-0.0785499
0
LINE
8
BLACK
6
CONTINUOUS
10
-0.0984985
20
-0.0785499
11
-0.106674
21
-0.0670277
0
LINE
8
BLACK
6
CONTINUOUS
10
-0.106674
20
-0.0670277
11
-0.113508
21
-0.0546625
0
LINE
8
BLACK
6
CONTINUOUS
10
-0.113508
20
-0.0546625
11
-0.118914
21
-0.04161
0
LINE
8
BLACK
6
CONTINUOUS
10
-0.118914
20
-0.04161
11
-0.122826
21
-0.0280341
0
LINE
8
BLACK
6
CONTINUOUS
10
-0.122826
20
-0.0280341
11
-0.125192
21
-0.0141057
0
LINE
8
BLACK
6
CONTINUOUS
10
-0.125192
20
-0.0141057
11
-0.125984
21
0
0
LINE
8
BLACK
6
CONTINUOUS
10
-0.125984
20
0
11
-0.125192
21
0.0141057
0
LINE
8
BLACK
6
CONTINUOUS
10
-0.125192
20
0.0141057
11
-0.122826
21
0.0280341
0
LINE
8
BLACK
6
CONTINUOUS
10
-0.122826
20
0.0280341
11
-0.118914
21
0.04161
0
LINE
8
BLACK
6
CONTINUOUS
10
-0.118914
20
0.04161
11
-0.113508
21
0.0546625
0
LINE
8
BLACK
6
CONTINUOUS
10
-0.113508
20
0.0546625
11
-0.106674
21
0.0670277
0
LINE
8
BLACK
6
CONTINUOUS
10
-0.106674
20
0.0670277
11
-0.0984985
21
0.0785499
0
LINE
8
BLACK
6
CONTINUOUS
10
-0.0984985
20
0.0785499
11
-0.0890843
21
0.0890843
0
LINE
8
BLACK
6
CONTINUOUS
10
-0.0890843
20
0.0890843
11
-0.0785499
21
0.0984985
0
LINE
8
BLACK
6
CONTINUOUS
10
-0.0785499
20
0.0984985
11
-0.0670277
21
0.106674
0
LINE
8
BLACK
6
CONTINUOUS
10
-0.0670277
20
0.106674
11
-0.0546625
21
0.113508
0
LINE
8
BLACK
6
CONTINUOUS
10
-0.0546625
20
0.113508
11
-0.04161
21
0.118914
0
LINE
8
BLACK
6
CONTINUOUS
10
-0.04161
20
0.118914
11
-0.0280341
21
0.122826
0
LINE
8
BLACK
6
CONTINUOUS
10
-0.0280341
20
0.122826
11
-0.0141057
21
0.125192
0
LINE
8
BLACK
6
CONTINUOUS
10
-0.0141057
20
0.125192
11
0
21
0.125984
0
LINE
8
BLACK
6
CONTINUOUS
10
0
20
0.125984
11
0.0141057
21
0.125192
0
LINE
8
BLACK
6
CONTINUOUS
10
1.61411
20
0.125192
11
1.62803
21
0.122826
0
LINE
8
BLACK
6
CONTINUOUS
10
1.62803
20
0.122826
11
1.64161
21
0.118914
0
LINE
8
BLACK
6
CONTINUOUS
10
1.64161
20
0.118914
11
1.65466
21
0.113508
0
LINE
8
BLACK
6
CONTINUOUS
10
1.65466
20
0.113508
11
1.66703
21
0.106674
0
LINE
8
BLACK
6
CONTINUOUS
10
1.66703
20
0.106674
11
1.67855
21
0.0984985
0
LINE
8
BLACK
6
CONTINUOUS
10
1.67855
20
0.0984985
11
1.68908
21
0.0890843
0
LINE
8
BLACK
6
CONTINUOUS
10
1.68908
20
0.0890843
11
1.6985
21
0.0785499
0
LINE
8
BLACK
6
CONTINUOUS
10
1.6985
20
0.0785499
11
1.70667
21
0.0670277
0
LINE
8
BLACK
6
CONTINUOUS
10
1.70667
20
0.0670277
11
1.71351
21
0.0546625
0
LINE
8
BLACK
6
CONTINUOUS
10
1.71351
20
0.0546625
11
1.71891
21
0.04161
0
LINE
8
BLACK
6
CONTINUOUS
10
1.71891
20
0.04161
11
1.72283
21
0.0280341
0
LINE
8
BLACK
6
CONTINUOUS
10
1.72283
20
0.0280341
11
1.72519
21
0.0141057
0
LINE
8
BLACK
6
CONTINUOUS
10
1.72519
20
0.0141057
11
1.72598
21
0
0
LINE
8
BLACK
6
CONTINUOUS
10
1.72598
20
0
11
1.72519
21
-0.0141057
0
LINE
8
BLACK
6
CONTINUOUS
10
1.72519
20
-0.0141057
11
1.72283
21
-0.0280341
0
LINE
8
BLACK
6
CONTINUOUS
10
1.72283
20
-0.0280341
11
1.71891
21
-0.04161
0
LINE
8
BLACK
6
CONTINUOUS
10
1.71891
20
-0.04161
11
1.71351
21
-0.0546625
0
LINE
8
BLACK
6
CONTINUOUS
10
1.71351
20
-0.0546625
11
1.70667
21
-0.0670277
0
LINE
8
BLACK
6
CONTINUOUS
10
1.70667
20
-0.0670277
11
1.6985
21
-0.0785499
0
LINE
8
BLACK
6
CONTINUOUS
10
1.6985
20
-0.0785499
11
1.68908
21
-0.0890843
0
LINE
8
BLACK
6
CONTINUOUS
10
1.68908
20
-0.0890843
11
1.67855
21
-0.0984985
0
LINE
8
BLACK
6
CONTINUOUS
10
1.67855
20
-0.0984985
11
1.66703
21
-0.106674
0
LINE
8
BLACK
6
CONTINUOUS
10
1.66703
20
-0.106674
11
1.65466
21
-0.113508
0
LINE
8
BLACK
6
CONTINUOUS
10
1.65466
20
-0.113508
11
1.64161
21
-0.118914
0
LINE
8
BLACK
6
CONTINUOUS
10
1.64161
20
-0.118914
11
1.62803
21
-0.122826
0
LINE
8
BLACK
6
CONTINUOUS
10
1.62803
20
-0.122826
11
1.61411
21
-0.125192
0
LINE
8
BLACK
6
CONTINUOUS
10
1.61411
20
-0.125192
11
1.6
21
-0.125984
0
LINE
8
BLACK
6
CONTINUOUS
10
1.6
20
-0.125984
11
1.58589
21
-0.125192
0
LINE
8
BLACK
6
CONTINUOUS
10
1.58589
20
-0.125192
11
1.57197
21
-0.122826
0
LINE
8
BLACK
6
CONTINUOUS
10
1.57197
20
-0.122826
11
1.55839
21
-0.118914
0
LINE
8
BLACK
6
CONTINUOUS
10
1.55839
20
-0.118914
11
1.54534
21
-0.113508
0
LINE
8
BLACK
6
CONTINUOUS
10
1.54534
20
-0.113508
11
1.53297
21
-0.106674
0
LINE
8
BLACK
6
CONTINUOUS
10
1.53297
20
-0.106674
11
1.52145
21
-0.0984985
0
LINE
8
BLACK
6
CONTINUOUS
10
1.52145
20
-0.0984985
11
1.51092
21
-0.0890843
0
LINE
8
BLACK
6
CONTINUOUS
10
1.51092
20
-0.0890843
11
1.5015
21
-0.0785499
0
LINE
8
BLACK
6
CONTINUOUS
10
1.5015
20
-0.0785499
11
1.49333
21
-0.0670277
0
LINE
8
BLACK
6
CONTINUOUS
10
1.49333
20
-0.0670277
11
1.48649
21
-0.0546625
0
LINE
8
BLACK
6
CONTINUOUS
10
1.48649
20
-0.0546625
11
1.48109
21
-0.04161
0
LINE
8
BLACK
6
CONTINUOUS
10
1.48109
20
-0.04161
11
1.47717
21
-0.0280341
0
LINE
8
BLACK
6
CONTINUOUS
10
1.47717
20
-0.0280341
11
1.47481
21
-0.0141057
0
LINE
8
BLACK
6
CONTINUOUS
10
1.47481
20
-0.0141057
11
1.47402
21
0
0
LINE
8
BLACK
6
CONTINUOUS
10
1.47402
20
0
11
1.47481
21
0.0141057
0
LINE
8
BLACK
6
CONTINUOUS
10
1.47481
20
0.0141057
11
1.47717
21
0.0280341
0
LINE
8
BLACK
6
CONTINUOUS
10
1.47717
20
0.0280341
11
1.48109
21
0.04161
0
LINE
8
BLACK
6
CONTINUOUS
10
1.48109
20
0.04161
11
1.48649
21
0.0546625
0
LINE
8
BLACK
6
CONTINUOUS
10
1.48649
20
0.0546625
11
1.49333
21
0.0670277
0
LINE
8
BLACK
6
CONTINUOUS
10
1.49333
20
0.0670277
11
1.5015
21
0.0785499
0
LINE
8
BLACK
6
CONTINUOUS
10
1.5015
20
0.0785499
11
1.51092
21
0.0890843
0
LINE
8
BLACK
6
CONTINUOUS
10
1.51092
20
0.0890843
11
1.52145
21
0.0984985
0
LINE
8
BLACK
6
CONTINUOUS
10
1.52145
20
0.0984985
11
1.53297
21
0.106674
0
LINE
8
BLACK
6
CONTINUOUS
10
1.53297
20
0.106674
11
1.54534
21
0.113508
0
LINE
8
BLACK
6
CONTINUOUS
10
1.54534
20
0.113508
11
1.55839
21
0.118914
0
LINE
8
BLACK
6
CONTINUOUS
10
1.55839
20
0.118914
11
1.57197
21
0.122826
0
LINE
8
BLACK
6
CONTINUOUS
10
1.57197
20
0.122826
11
1.58589
21
0.125192
0
LINE
8
BLACK
6
CONTINUOUS
10
1.58589
20
0.125192
11
1.6
21
0.125984
0
LINE
8
BLACK
6
CONTINUOUS
10
1.6
20
0.125984
11
1.61411
21
0.125192
0
LINE
8
BLACK
6
CONTINUOUS
10
0.825013
20
0.0372746
11
0.827568
21
0.0355678
0
LINE
8
BLACK
6
CONTINUOUS
10
0.827568
20
0.0355678
11
0.829275
21
0.0330133
0
LINE
8
BLACK
6
CONTINUOUS
10
0.829275
20
0.0330133
11
0.829874
21
0.03
0
LINE
8
BLACK
6
CONTINUOUS
10
0.829874
20
0.03
11
0.829874
21
-0.03
0
LINE
8
BLACK
6
CONTINUOUS
10
0.829874
20
-0.03
11
0.829275
21
-0.0330133
0
LINE
8
BLACK
6
CONTINUOUS
10
0.829275
20
-0.0330133
11
0.827568
21
-0.0355678
0
LINE
8
BLACK
6
CONTINUOUS
10
0.827568
20
-0.0355678
11
0.825013
21
-0.0372746
0
LINE
8
BLACK
6
CONTINUOUS
10
0.825013
20
-0.0372746
11
0.822
21
-0.037874
0
LINE
8
BLACK
6
CONTINUOUS
10
0.822
20
-0.037874
11
0.762
21
-0.037874
0
LINE
8
BLACK
6
CONTINUOUS
10
0.762
20
-0.037874
11
0.758987
21
-0.0372746
0
LINE
8
BLACK
6
CONTINUOUS
10
0.758987
20
-0.0372746
11
0.756432
21
-0.0355678
0
LINE
8
BLACK
6
CONTINUOUS
10
0.756432
20
-0.0355678
11
0.754725
21
-0.0330133
0
LINE
8
BLACK
6
CONTINUOUS
10
0.754725
20
-0.0330133
11
0.754126
21
-0.03
0
LINE
8
BLACK
6
CONTINUOUS
10
0.754126
20
-0.03
11
0.754126
21
0.03
0
LINE
8
BLACK
6
CONTINUOUS
10
0.754126
20
0.03
11
0.754725
21
0.0330133
0
LINE
8
BLACK
6
CONTINUOUS
10
0.754725
20
0.0330133
11
0.756432
21
0.0355678
0
LINE
8
BLACK
6
CONTINUOUS
10
0.756432
20
0.0355678
11
0.758987
21
0.0372746
0
LINE
8
BLACK
6
CONTINUOUS
10
0.758987
20
0.0372746
11
0.762
21
0.037874
0
LINE
8
BLACK
6
CONTINUOUS
10
0.762
20
0.037874
11
0.822
21
0.037874
0
LINE
8
BLACK
6
CONTINUOUS
10
0.822
20
0.037874
11
0.825013
21
0.0372746
0
LINE
8
BLACK
6
CONTINUOUS
10
0.925013
20
0.0372746
11
0.927568
21
0.0355678
0
LINE
8
BLACK
6
CONTINUOUS
10
0.927568
20
0.0355678
11
0.929275
21
0.0330133
0
LINE
8
BLACK
6
CONTINUOUS
10
0.929275
20
0.0330133
11
0.929874
21
0.03
0
LINE
8
BLACK
6
CONTINUOUS
10
0.929874
20
0.03
11
0.929874
21
-0.03
0
LINE
8
BLACK
6
CONTINUOUS
10
0.929874
20
-0.03
11
0.929275
21
-0.0330133
0
LINE
8
BLACK
6
CONTINUOUS
10
0.929275
20
-0.0330133
11
0.927568
21
-0.0355678
0
LINE
8
BLACK
6
CONTINUOUS
10
0.927568
20
-0.0355678
11
0.925013
21
-0.0372746
0
LINE
8
BLACK
6
CONTINUOUS
10
0.925013
20
-0.0372746
11
0.922
21
-0.037874
0
LINE
8
BLACK
6
CONTINUOUS
10
0.922
20
-0.037874
11
0.862
21
-0.037874
0
LINE
8
BLACK
6
CONTINUOUS
10
0.862
20
-0.037874
11
0.858987
21
-0.0372746
0
LINE
8
BLACK
6
CONTINUOUS
10
0.858987
20
-0.0372746
11
0.856432
21
-0.0355678
0
LINE
8
BLACK
6
CONTINUOUS
10
0.856432
20
-0.0355678
11
0.854725
21
-0.0330133
0
LINE
8
BLACK
6
CONTINUOUS
10
0.854725
20
-0.0330133
11
0.854126
21
-0.03
0
LINE
8
BLACK
6
CONTINUOUS
10
0.854126
20
-0.03
11
0.854126
21
0.03
0
LINE
8
BLACK
6
CONTINUOUS
10
0.854126
20
0.03
11
0.854725
21
0.0330133
0
LINE
8
BLACK
6
CONTINUOUS
10
0.854725
20
0.0330133
11
0.856432
21
0.0355678
0
LINE
8
BLACK
6
CONTINUOUS
10
0.856432
20
0.0355678
11
0.858987
21
0.0372746
0
LINE
8
BLACK
6
CONTINUOUS
10
0.858987
20
0.0372746
11
0.862
21
0.037874
0
LINE
8
BLACK
6
CONTINUOUS
10
0.862
20
0.037874
11
0.922
21
0.037874
0
LINE
8
BLACK
6
CONTINUOUS
10
0.922
20
0.037874
11
0.925013
21
0.0372746
0
LINE
8
BLACK
6
CONTINUOUS
10
1.02501
20
0.0372746
11
1.02757
21
0.0355678
0
LINE
8
BLACK
6
CONTINUOUS
10
1.02757
20
0.0355678
11
1.02927
21
0.0330133
0
LINE
8
BLACK
6
CONTINUOUS
10
1.02927
20
0.0330133
11
1.02987
21
0.03
0
LINE
8
BLACK
6
CONTINUOUS
10
1.02987
20
0.03
11
1.02987
21
-0.03
0
LINE
8
BLACK
6
CONTINUOUS
10
1.02987
20
-0.03
11
1.02927
21
-0.0330133
0
LINE
8
BLACK
6
CONTINUOUS
10
1.02927
20
-0.0330133
11
1.02757
21
-0.0355678
0
LINE
8
BLACK
6
CONTINUOUS
10
1.02757
20
-0.0355678
11
1.02501
21
-0.0372746
0
LINE
8
BLACK
6
CONTINUOUS
10
1.02501
20
-0.0372746
11
1.022
21
-0.037874
0
LINE
8
BLACK
6
CONTINUOUS
10
1.022
20
-0.037874
11
0.962
21
-0.037874
0
LINE
8
BLACK
6
CONTINUOUS
10
0.962
20
-0.037874
11
0.958987
21
-0.0372746
0
LINE
8
BLACK
6
CONTINUOUS
10
0.958987
20
-0.0372746
11
0.956432
21
-0.0355678
0
LINE
8
BLACK
6
CONTINUOUS
10
0.956432
20
-0.0355678
11
0.954725
21
-0.0330133
0
LINE
8
BLACK
6
CONTINUOUS
10
0.954725
20
-0.0330133
11
0.954126
21
-0.03
0
LINE
8
BLACK
6
CONTINUOUS
10
0.954126
20
-0.03
11
0.954126
21
0.03
0
LINE
8
BLACK
6
CONTINUOUS
10
0.954126
20
0.03
11
0.954725
21
0.0330133
0
LINE
8
BLACK
6
CONTINUOUS
10
0.954725
20
0.0330133
11
0.956432
21
0.0355678
0
LINE
8
BLACK
6
CONTINUOUS
10
0.956432
20
0.0355678
11
0.958987
21
0.0372746
0
LINE
8
BLACK
6
CONTINUOUS
10
0.958987
20
0.0372746
11
0.962
21
0.037874
0
LINE
8
BLACK
6
CONTINUOUS
10
0.962
20
0.037874
11
1.022
21
0.037874
0
LINE
8
BLACK
6
CONTINUOUS
10
1.022
20
0.037874
11
1.02501
21
0.0372746
0
LINE
8
BLACK
6
CONTINUOUS
10
1.12501
20
0.0372746
11
1.12757
21
0.0355678
0
LINE
8
BLACK
6
CONTINUOUS
10
1.12757
20
0.0355678
11
1.12927
21
0.0330133
0
LINE
8
BLACK
6
CONTINUOUS
10
1.12927
20
0.0330133
11
1.12987
21
0.03
0
LINE
8
BLACK
6
CONTINUOUS
10
1.12987
20
0.03
11
1.12987
21
-0.03
0
LINE
8
BLACK
6
CONTINUOUS
10
1.12987
20
-0.03
11
1.12927
21
-0.0330133
0
LINE
8
BLACK
6
CONTINUOUS
10
1.12927
20
-0.0330133
11
1.12757
21
-0.0355678
0
LINE
8
BLACK
6
CONTINUOUS
10
1.12757
20
-0.0355678
11
1.12501
21
-0.0372746
0
LINE
8
BLACK
6
CONTINUOUS
10
1.12501
20
-0.0372746
11
1.122
21
-0.037874
0
LINE
8
BLACK
6
CONTINUOUS
10
1.122
20
-0.037874
11
1.062
21
-0.037874
0
LINE
8
BLACK
6
CONTINUOUS
10
1.062
20
-0.037874
11
1.05899
21
-0.0372746
0
LINE
8
BLACK
6
CONTINUOUS
10
1.05899
20
-0.0372746
11
1.05643
21
-0.0355678
0
LINE
8
BLACK
6
CONTINUOUS
10
1.05643
20
-0.0355678
11
1.05473
21
-0.0330133
0
LINE
8
BLACK
6
CONTINUOUS
10
1.05473
20
-0.0330133
11
1.05413
21
-0.03
0
LINE
8
BLACK
6
CONTINUOUS
10
1.05413
20
-0.03
11
1.05413
21
0.03
0
LINE
8
BLACK
6
CONTINUOUS
10
1.05413
20
0.03
11
1.05473
21
0.0330133
0
LINE
8
BLACK
6
CONTINUOUS
10
1.05473
20
0.0330133
11
1.05643
21
0.0355678
0
LINE
8
BLACK
6
CONTINUOUS
10
1.05643
20
0.0355678
11
1.05899
21
0.0372746
0
LINE
8
BLACK
6
CONTINUOUS
10
1.05899
20
0.0372746
11
1.062
21
0.037874
0
LINE
8
BLACK
6
CONTINUOUS
10
1.062
20
0.037874
11
1.122
21
0.037874
0
LINE
8
BLACK
6
CONTINUOUS
10
1.122
20
0.037874
11
1.12501
21
0.0372746
0
LINE
8
BLACK
6
CONTINUOUS
10
1.22501
20
0.0372746
11
1.22757
21
0.0355678
0
LINE
8
BLACK
6
CONTINUOUS
10
1.22757
20
0.0355678
11
1.22927
21
0.0330133
0
LINE
8
BLACK
6
CONTINUOUS
10
1.22927
20
0.0330133
11
1.22987
21
0.03
0
LINE
8
BLACK
6
CONTINUOUS
10
1.22987
20
0.03
11
1.22987
21
-0.03
0
LINE
8
BLACK
6
CONTINUOUS
10
1.22987
20
-0.03
11
1.22927
21
-0.0330133
0
LINE
8
BLACK
6
CONTINUOUS
10
1.22927
20
-0.0330133
11
1.22757
21
-0.0355678
0
LINE
8
BLACK
6
CONTINUOUS
10
1.22757
20
-0.0355678
11
1.22501
21
-0.0372746
0
LINE
8
BLACK
6
CONTINUOUS
10
1.22501
20
-0.0372746
11
1.222
21
-0.037874
0
LINE
8
BLACK
6
CONTINUOUS
10
1.222
20
-0.037874
11
1.162
21
-0.037874
0
LINE
8
BLACK
6
CONTINUOUS
10
1.162
20
-0.037874
11
1.15899
21
-0.0372746
0
LINE
8
BLACK
6
CONTINUOUS
10
1.15899
20
-0.0372746
11
1.15643
21
-0.0355678
0
LINE
8
BLACK
6
CONTINUOUS
10
1.15643
20
-0.0355678
11
1.15473
21
-0.0330133
0
LINE
8
BLACK
6
CONTINUOUS
10
1.15473
20
-0.0330133
11
1.15413
21
-0.03
0
LINE
8
BLACK
6
CONTINUOUS
10
1.15413
20
-0.03
11
1.15413
21
0.03
0
LINE
8
BLACK
6
CONTINUOUS
10
1.15413
20
0.03
11
1.15473
21
0.0330133
0
LINE
8
BLACK
6
CONTINUOUS
10
1.15473
20
0.0330133
11
1.15643
21
0.0355678
0
LINE
8
BLACK
6
CONTINUOUS
10
1.15643
20
0.0355678
11
1.15899
21
0.0372746
0
LINE
8
BLACK
6
CONTINUOUS
10
1.15899
20
0.0372746
11
1.162
21
0.037874
0
LINE
8
BLACK
6
CONTINUOUS
10
1.162
20
0.037874
11
1.222
21
0.037874
0
LINE
8
BLACK
6
CONTINUOUS
10
1.222
20
0.037874
11
1.22501
21
0.0372746
0
LINE
8
BLACK
6
CONTINUOUS
10
0.0330133
20
0.387275
11
0.0355678
21
0.385568
0
LINE
8
BLACK
6
CONTINUOUS
10
0.0355678
20
0.385568
11
0.0372746
21
0.383013
0
LINE
8
BLACK
6
CONTINUOUS
10
0.0372746
20
0.383013
11
0.037874
21
0.38
0
LINE
8
BLACK
6
CONTINUOUS
10
0.037874
20
0.38
11
0.037874
21
0.32
0
LINE
8
BLACK
6
CONTINUOUS
10
0.037874
20
0.32
11
0.0372746
21
0.316987
0
LINE
8
BLACK
6
CONTINUOUS
10
0.0372746
20
0.316987
11
0.0355678
21
0.314432
0
LINE
8
BLACK
6
CONTINUOUS
10
0.0355678
20
0.314432
11
0.0330133
21
0.312725
0
LINE
8
BLACK
6
CONTINUOUS
10
0.0330133
20
0.312725
11
0.03
21
0.312126
0
LINE
8
BLACK
6
CONTINUOUS
10
0.03
20
0.312126
11
-0.03
21
0.312126
0
LINE
8
BLACK
6
CONTINUOUS
10
-0.03
20
0.312126
11
-0.0330133
21
0.312725
0
LINE
8
BLACK
6
CONTINUOUS
10
-0.0330133
20
0.312725
11
-0.0355678
21
0.314432
0
LINE
8
BLACK
6
CONTINUOUS
10
-0.0355678
20
0.314432
11
-0.0372746
21
0.316987
0
LINE
8
BLACK
6
CONTINUOUS
10
-0.0372746
20
0.316987
11
-0.037874
21
0.32
0
LINE
8
BLACK
6
CONTINUOUS
10
-0.037874
20
0.32
11
-0.037874
21
0.38
0
LINE
8
BLACK
6
CONTINUOUS
10
-0.037874
20
0.38
11
-0.0372746
21
0.383013
0
LINE
8
BLACK
6
CONTINUOUS
10
-0.0372746
20
0.383013
11
-0.0355678
21
0.385568
0
LINE
8
BLACK
6
CONTINUOUS
10
-0.0355678
20
0.385568
11
-0.0330133
21
0.387275
0
LINE
8
BLACK
6
CONTINUOUS
10
-0.0330133
20
0.387275
11
-0.03
21
0.387874
0
LINE
8
BLACK
6
CONTINUOUS
10
-0.03
20
0.387874
11
0.03
21
0.387874
0
LINE
8
BLACK
6
CONTINUOUS
10
0.03
20
0.387874
11
0.0330133
21
0.387275
0
LINE
8
BLACK
6
CONTINUOUS
10
0.133013
20
0.387275
11
0.135568
21
0.385568
0
LINE
8
BLACK
6
CONTINUOUS
10
0.135568
20
0.385568
11
0.137275
21
0.383013
0
LINE
8
BLACK
6
CONTINUOUS
10
0.137275
20
0.383013
11
0.137874
21
0.38
0
LINE
8
BLACK
6
CONTINUOUS
10
0.137874
20
0.38
11
0.137874
21
0.32
0
LINE
8
BLACK
6
CONTINUOUS
10
0.137874
20
0.32
11
0.137275
21
0.316987
0
LINE
8
BLACK
6
CONTINUOUS
10
0.137275
20
0.316987
11
0.135568
21
0.314432
0
LINE
8
BLACK
6
CONTINUOUS
10
0.135568
20
0.314432
11
0.133013
21
0.312725
0
LINE
8
BLACK
6
CONTINUOUS
10
0.133013
20
0.312725
11
0.13
21
0.312126
0
LINE
8
BLACK
6
CONTINUOUS
10
0.13
20
0.312126
11
0.07
21
0.312126
0
LINE
8
BLACK
6
CONTINUOUS
10
0.07
20
0.312126
11
0.0669867
21
0.312725
0
LINE
8
BLACK
6
CONTINUOUS
10
0.0669867
20
0.312725
11
0.0644322
21
0.314432
0
LINE
8
BLACK
6
CONTINUOUS
10
0.0644322
20
0.314432
11
0.0627254
21
0.316987
0
LINE
8
BLACK
6
CONTINUOUS
10
0.0627254
20
0.316987
11
0.062126
21
0.32
0
LINE
8
BLACK
6
CONTINUOUS
10
0.062126
20
0.32
11
0.062126
21
0.38
0
LINE
8
BLACK
6
CONTINUOUS
10
0.062126
20
0.38
11
0.0627254
21
0.383013
0
LINE
8
BLACK
6
CONTINUOUS
10
0.0627254
20
0.383013
11
0.0644322
21
0.385568
0
LINE
8
BLACK
6
CONTINUOUS
10
0.0644322
20
0.385568
11
0.0669867
21
0.387275
0
LINE
8
BLACK
6
CONTINUOUS
10
0.0669867
20
0.387275
11
0.07
21
0.387874
0
LINE
8
BLACK
6
CONTINUOUS
10
0.07
20
0.387874
11
0.13
21
0.387874
0
LINE
8
BLACK
6
CONTINUOUS
10
0.13
20
0.387874
11
0.133013
21
0.387275
0
LINE
8
BLACK
6
CONTINUOUS
10
1.61201
20
0.401275
11
1.61457
21
0.399568
0
LINE
8
BLACK
6
CONTINUOUS
10
1.61457
20
0.399568
11
1.61627
21
0.397013
0
LINE
8
BLACK
6
CONTINUOUS
10
1.61627
20
0.397013
11
1.61687
21
0.394
0
LINE
8
BLACK
6
CONTINUOUS
10
1.61687
20
0.394
11
1.61687
21
0.334
0
LINE
8
BLACK
6
CONTINUOUS
10
1.61687
20
0.334
11
1.61627
21
0.330987
0
LINE
8
BLACK
6
CONTINUOUS
10
1.61627
20
0.330987
11
1.61457
21
0.328432
0
LINE
8
BLACK
6
CONTINUOUS
10
1.61457
20
0.328432
11
1.61201
21
0.326725
0
LINE
8
BLACK
6
CONTINUOUS
10
1.61201
20
0.326725
11
1.609
21
0.326126
0
LINE
8
BLACK
6
CONTINUOUS
10
1.609
20
0.326126
11
1.549
21
0.326126
0
LINE
8
BLACK
6
CONTINUOUS
10
1.549
20
0.326126
11
1.54599
21
0.326725
0
LINE
8
BLACK
6
CONTINUOUS
10
1.54599
20
0.326725
11
1.54343
21
0.328432
0
LINE
8
BLACK
6
CONTINUOUS
10
1.54343
20
0.328432
11
1.54173
21
0.330987
0
LINE
8
BLACK
6
CONTINUOUS
10
1.54173
20
0.330987
11
1.54113
21
0.334
0
LINE
8
BLACK
6
CONTINUOUS
10
1.54113
20
0.334
11
1.54113
21
0.394
0
LINE
8
BLACK
6
CONTINUOUS
10
1.54113
20
0.394
11
1.54173
21
0.397013
0
LINE
8
BLACK
6
CONTINUOUS
10
1.54173
20
0.397013
11
1.54343
21
0.399568
0
LINE
8
BLACK
6
CONTINUOUS
10
1.54343
20
0.399568
11
1.54599
21
0.401275
0
LINE
8
BLACK
6
CONTINUOUS
10
1.54599
20
0.401275
11
1.549
21
0.401874
0
LINE
8
BLACK
6
CONTINUOUS
10
1.549
20
0.401874
11
1.609
21
0.401874
0
LINE
8
BLACK
6
CONTINUOUS
10
1.609
20
0.401874
11
1.61201
21
0.401275
0
LINE
8
BLACK
6
CONTINUOUS
10
1.71201
20
0.401275
11
1.71457
21
0.399568
0
LINE
8
BLACK
6
CONTINUOUS
10
1.71457
20
0.399568
11
1.71627
21
0.397013
0
LINE
8
BLACK
6
CONTINUOUS
10
1.71627
20
0.397013
11
1.71687
21
0.394
0
LINE
8
BLACK
6
CONTINUOUS
10
1.71687
20
0.394
11
1.71687
21
0.334
0
LINE
8
BLACK
6
CONTINUOUS
10
1.71687
20
0.334
11
1.71627
21
0.330987
0
LINE
8
BLACK
6
CONTINUOUS
10
1.71627
20
0.330987
11
1.71457
21
0.328432
0
LINE
8
BLACK
6
CONTINUOUS
10
1.71457
20
0.328432
11
1.71201
21
0.326725
0
LINE
8
BLACK
6
CONTINUOUS
10
1.71201
20
0.326725
11
1.709
21
0.326126
0
LINE
8
BLACK
6
CONTINUOUS
10
1.709
20
0.326126
11
1.649
21
0.326126
0
LINE
8
BLACK
6
CONTINUOUS
10
1.649
20
0.326126
11
1.64599
21
0.326725
0
LINE
8
BLACK
6
CONTINUOUS
10
1.64599
20
0.326725
11
1.64343
21
0.328432
0
LINE
8
BLACK
6
CONTINUOUS
10
1.64343
20
0.328432
11
1.64173
21
0.330987
0
LINE
8
BLACK
6
CONTINUOUS
10
1.64173
20
0.330987
11
1.64113
21
0.334
0
LINE
8
BLACK
6
CONTINUOUS
10
1.64113
20
0.334
11
1.64113
21
0.394
0
LINE
8
BLACK
6
CONTINUOUS
10
1.64113
20
0.394
11
1.64173
21
0.397013
0
LINE
8
BLACK
6
CONTINUOUS
10
1.64173
20
0.397013
11
1.64343
21
0.399568
0
LINE
8
BLACK
6
CONTINUOUS
10
1.64343
20
0.399568
11
1.64599
21
0.401275
0
LINE
8
BLACK
6
CONTINUOUS
10
1.64599
20
0.401275
11
1.649
21
0.401874
0
LINE
8
BLACK
6
CONTINUOUS
10
1.649
20
0.401874
11
1.709
21
0.401874
0
LINE
8
BLACK
6
CONTINUOUS
10
1.709
20
0.401874
11
1.71201
21
0.401275
0
LINE
8
BLACK
6
CONTINUOUS
10
0.408013
20
0.412275
11
0.410568
21
0.410568
0
LINE
8
BLACK
6
CONTINUOUS
10
0.410568
20
0.410568
11
0.412275
21
0.408013
0
LINE
8
BLACK
6
CONTINUOUS
10
0.412275
20
0.408013
11
0.412874
21
0.405
0
LINE
8
BLACK
6
CONTINUOUS
10
0.412874
20
0.405
11
0.412874
21
0.345
0
LINE
8
BLACK
6
CONTINUOUS
10
0.412874
20
0.345
11
0.412275
21
0.341987
0
LINE
8
BLACK
6
CONTINUOUS
10
0.412275
20
0.341987
11
0.410568
21
0.339432
0
LINE
8
BLACK
6
CONTINUOUS
10
0.410568
20
0.339432
11
0.408013
21
0.337725
0
LINE
8
BLACK
6
CONTINUOUS
10
0.408013
20
0.337725
11
0.405
21
0.337126
0
LINE
8
BLACK
6
CONTINUOUS
10
0.405
20
0.337126
11
0.345
21
0.337126
0
LINE
8
BLACK
6
CONTINUOUS
10
0.345
20
0.337126
11
0.341987
21
0.337725
0
LINE
8
BLACK
6
CONTINUOUS
10
0.341987
20
0.337725
11
0.339432
21
0.339432
0
LINE
8
BLACK
6
CONTINUOUS
10
0.339432
20
0.339432
11
0.337725
21
0.341987
0
LINE
8
BLACK
6
CONTINUOUS
10
0.337725
20
0.341987
11
0.337126
21
0.345
0
LINE
8
BLACK
6
CONTINUOUS
10
0.337126
20
0.345
11
0.337126
21
0.405
0
LINE
8
BLACK
6
CONTINUOUS
10
0.337126
20
0.405
11
0.337725
21
0.408013
0
LINE
8
BLACK
6
CONTINUOUS
10
0.337725
20
0.408013
11
0.339432
21
0.410568
0
LINE
8
BLACK
6
CONTINUOUS
10
0.339432
20
0.410568
11
0.341987
21
0.412275
0
LINE
8
BLACK
6
CONTINUOUS
10
0.341987
20
0.412275
11
0.345
21
0.412874
0
LINE
8
BLACK
6
CONTINUOUS
10
0.345
20
0.412874
11
0.405
21
0.412874
0
LINE
8
BLACK
6
CONTINUOUS
10
0.405
20
0.412874
11
0.408013
21
0.412275
0
LINE
8
BLACK
6
CONTINUOUS
10
0.508013
20
0.412275
11
0.510568
21
0.410568
0
LINE
8
BLACK
6
CONTINUOUS
10
0.510568
20
0.410568
11
0.512275
21
0.408013
0
LINE
8
BLACK
6
CONTINUOUS
10
0.512275
20
0.408013
11
0.512874
21
0.405
0
LINE
8
BLACK
6
CONTINUOUS
10
0.512874
20
0.405
11
0.512874
21
0.345
0
LINE
8
BLACK
6
CONTINUOUS
10
0.512874
20
0.345
11
0.512275
21
0.341987
0
LINE
8
BLACK
6
CONTINUOUS
10
0.512275
20
0.341987
11
0.510568
21
0.339432
0
LINE
8
BLACK
6
CONTINUOUS
10
0.510568
20
0.339432
11
0.508013
21
0.337725
0
LINE
8
BLACK
6
CONTINUOUS
10
0.508013
20
0.337725
11
0.505
21
0.337126
0
LINE
8
BLACK
6
CONTINUOUS
10
0.505
20
0.337126
11
0.445
21
0.337126
0
LINE
8
BLACK
6
CONTINUOUS
10
0.445
20
0.337126
11
0.441987
21
0.337725
0
LINE
8
BLACK
6
CONTINUOUS
10
0.441987
20
0.337725
11
0.439432
21
0.339432
0
LINE
8
BLACK
6
CONTINUOUS
10
0.439432
20
0.339432
11
0.437725
21
0.341987
0
LINE
8
BLACK
6
CONTINUOUS
10
0.437725
20
0.341987
11
0.437126
21
0.345
0
LINE
8
BLACK
6
CONTINUOUS
10
0.437126
20
0.345
11
0.437126
21
0.405
0
LINE
8
BLACK
6
CONTINUOUS
10
0.437126
20
0.405
11
0.437725
21
0.408013
0
LINE
8
BLACK
6
CONTINUOUS
10
0.437725
20
0.408013
11
0.439432
21
0.410568
0
LINE
8
BLACK
6
CONTINUOUS
10
0.439432
20
0.410568
11
0.441987
21
0.412275
0
LINE
8
BLACK
6
CONTINUOUS
10
0.441987
20
0.412275
11
0.445
21
0.412874
0
LINE
8
BLACK
6
CONTINUOUS
10
0.445
20
0.412874
11
0.505
21
0.412874
0
LINE
8
BLACK
6
CONTINUOUS
10
0.505
20
0.412874
11
0.508013
21
0.412275
0
LINE
8
BLACK
6
CONTINUOUS
10
0.608013
20
0.412275
11
0.610568
21
0.410568
0
LINE
8
BLACK
6
CONTINUOUS
10
0.610568
20
0.410568
11
0.612275
21
0.408013
0
LINE
8
BLACK
6
CONTINUOUS
10
0.612275
20
0.408013
11
0.612874
21
0.405
0
LINE
8
BLACK
6
CONTINUOUS
10
0.612874
20
0.405
11
0.612874
21
0.345
0
LINE
8
BLACK
6
CONTINUOUS
10
0.612874
20
0.345
11
0.612275
21
0.341987
0
LINE
8
BLACK
6
CONTINUOUS
10
0.612275
20
0.341987
11
0.610568
21
0.339432
0
LINE
8
BLACK
6
CONTINUOUS
10
0.610568
20
0.339432
11
0.608013
21
0.337725
0
LINE
8
BLACK
6
CONTINUOUS
10
0.608013
20
0.337725
11
0.605
21
0.337126
0
LINE
8
BLACK
6
CONTINUOUS
10
0.605
20
0.337126
11
0.545
21
0.337126
0
LINE
8
BLACK
6
CONTINUOUS
10
0.545
20
0.337126
11
0.541987
21
0.337725
0
LINE
8
BLACK
6
CONTINUOUS
10
0.541987
20
0.337725
11
0.539432
21
0.339432
0
LINE
8
BLACK
6
CONTINUOUS
10
0.539432
20
0.339432
11
0.537725
21
0.341987
0
LINE
8
BLACK
6
CONTINUOUS
10
0.537725
20
0.341987
11
0.537126
21
0.345
0
LINE
8
BLACK
6
CONTINUOUS
10
0.537126
20
0.345
11
0.537126
21
0.405
0
LINE
8
BLACK
6
CONTINUOUS
10
0.537126
20
0.405
11
0.537725
21
0.408013
0
LINE
8
BLACK
6
CONTINUOUS
10
0.537725
20
0.408013
11
0.539432
21
0.410568
0
LINE
8
BLACK
6
CONTINUOUS
10
0.539432
20
0.410568
11
0.541987
21
0.412275
0
LINE
8
BLACK
6
CONTINUOUS
10
0.541987
20
0.412275
11
0.545
21
0.412874
0
LINE
8
BLACK
6
CONTINUOUS
10
0.545
20
0.412874
11
0.605
21
0.412874
0
LINE
8
BLACK
6
CONTINUOUS
10
0.605
20
0.412874
11
0.608013
21
0.412275
0
LINE
8
BLACK
6
CONTINUOUS
10
0.0330133
20
0.487275
11
0.0355678
21
0.485568
0
LINE
8
BLACK
6
CONTINUOUS
10
0.0355678
20
0.485568
11
0.0372746
21
0.483013
0
LINE
8
BLACK
6
CONTINUOUS
10
0.0372746
20
0.483013
11
0.037874
21
0.48
0
LINE
8
BLACK
6
CONTINUOUS
10
0.037874
20
0.48
11
0.037874
21
0.42
0
LINE
8
BLACK
6
CONTINUOUS
10
0.037874
20
0.42
11
0.0372746
21
0.416987
0
LINE
8
BLACK
6
CONTINUOUS
10
0.0372746
20
0.416987
11
0.0355678
21
0.414432
0
LINE
8
BLACK
6
CONTINUOUS
10
0.0355678
20
0.414432
11
0.0330133
21
0.412725
0
LINE
8
BLACK
6
CONTINUOUS
10
0.0330133
20
0.412725
11
0.03
21
0.412126
0
LINE
8
BLACK
6
CONTINUOUS
10
0.03
20
0.412126
11
-0.03
21
0.412126
0
LINE
8
BLACK
6
CONTINUOUS
10
-0.03
20
0.412126
11
-0.0330133
21
0.412725
0
LINE
8
BLACK
6
CONTINUOUS
10
-0.0330133
20
0.412725
11
-0.0355678
21
0.414432
0
LINE
8
BLACK
6
CONTINUOUS
10
-0.0355678
20
0.414432
11
-0.0372746
21
0.416987
0
LINE
8
BLACK
6
CONTINUOUS
10
-0.0372746
20
0.416987
11
-0.037874
21
0.42
0
LINE
8
BLACK
6
CONTINUOUS
10
-0.037874
20
0.42
11
-0.037874
21
0.48
0
LINE
8
BLACK
6
CONTINUOUS
10
-0.037874
20
0.48
11
-0.0372746
21
0.483013
0
LINE
8
BLACK
6
CONTINUOUS
10
-0.0372746
20
0.483013
11
-0.0355678
21
0.485568
0
LINE
8
BLACK
6
CONTINUOUS
10
-0.0355678
20
0.485568
11
-0.0330133
21
0.487275
0
LINE
8
BLACK
6
CONTINUOUS
10
-0.0330133
20
0.487275
11
-0.03
21
0.487874
0
LINE
8
BLACK
6
CONTINUOUS
10
-0.03
20
0.487874
11
0.03
21
0.487874
0
LINE
8
BLACK
6
CONTINUOUS
10
0.03
20
0.487874
11
0.0330133
21
0.487275
0
LINE
8
BLACK
6
CONTINUOUS
10
0.133013
20
0.487275
11
0.135568
21
0.485568
0
LINE
8
BLACK
6
CONTINUOUS
10
0.135568
20
0.485568
11
0.137275
21
0.483013
0
LINE
8
BLACK
6
CONTINUOUS
10
0.137275
20
0.483013
11
0.137874
21
0.48
0
LINE
8
BLACK
6
CONTINUOUS
10
0.137874
20
0.48
11
0.137874
21
0.42
0
LINE
8
BLACK
6
CONTINUOUS
10
0.137874
20
0.42
11
0.137275
21
0.416987
0
LINE
8
BLACK
6
CONTINUOUS
10
0.137275
20
0.416987
11
0.135568
21
0.414432
0
LINE
8
BLACK
6
CONTINUOUS
10
0.135568
20
0.414432
11
0.133013
21
0.412725
0
LINE
8
BLACK
6
CONTINUOUS
10
0.133013
20
0.412725
11
0.13
21
0.412126
0
LINE
8
BLACK
6
CONTINUOUS
10
0.13
20
0.412126
11
0.07
21
0.412126
0
LINE
8
BLACK
6
CONTINUOUS
10
0.07
20
0.412126
11
0.0669867
21
0.412725
0
LINE
8
BLACK
6
CONTINUOUS
10
0.0669867
20
0.412725
11
0.0644322
21
0.414432
0
LINE
8
BLACK
6
CONTINUOUS
10
0.0644322
20
0.414432
11
0.0627254
21
0.416987
0
LINE
8
BLACK
6
CONTINUOUS
10
0.0627254
20
0.416987
11
0.062126
21
0.42
0
LINE
8
BLACK
6
CONTINUOUS
10
0.062126
20
0.42
11
0.062126
21
0.48
0
LINE
8
BLACK
6
CONTINUOUS
10
0.062126
20
0.48
11
0.0627254
21
0.483013
0
LINE
8
BLACK
6
CONTINUOUS
10
0.0627254
20
0.483013
11
0.0644322
21
0.485568
0
LINE
8
BLACK
6
CONTINUOUS
10
0.0644322
20
0.485568
11
0.0669867
21
0.487275
0
LINE
8
BLACK
6
CONTINUOUS
10
0.0669867
20
0.487275
11
0.07
21
0.487874
0
LINE
8
BLACK
6
CONTINUOUS
10
0.07
20
0.487874
11
0.13
21
0.487874
0
LINE
8
BLACK
6
CONTINUOUS
10
0.13
20
0.487874
11
0.133013
21
0.487275
0
LINE
8
BLACK
6
CONTINUOUS
10
1.61201
20
0.501275
11
1.61457
21
0.499568
0
LINE
8
BLACK
6
CONTINUOUS
10
1.61457
20
0.499568
11
1.61627
21
0.497013
0
LINE
8
BLACK
6
CONTINUOUS
10
1.61627
20
0.497013
11
1.61687
21
0.494
0
LINE
8
BLACK
6
CONTINUOUS
10
1.61687
20
0.494
11
1.61687
21
0.434
0
LINE
8
BLACK
6
CONTINUOUS
10
1.61687
20
0.434
11
1.61627
21
0.430987
0
LINE
8
BLACK
6
CONTINUOUS
10
1.61627
20
0.430987
11
1.61457
21
0.428432
0
LINE
8
BLACK
6
CONTINUOUS
10
1.61457
20
0.428432
11
1.61201
21
0.426725
0
LINE
8
BLACK
6
CONTINUOUS
10
1.61201
20
0.426725
11
1.609
21
0.426126
0
LINE
8
BLACK
6
CONTINUOUS
10
1.609
20
0.426126
11
1.549
21
0.426126
0
LINE
8
BLACK
6
CONTINUOUS
10
1.549
20
0.426126
11
1.54599
21
0.426725
0
LINE
8
BLACK
6
CONTINUOUS
10
1.54599
20
0.426725
11
1.54343
21
0.428432
0
LINE
8
BLACK
6
CONTINUOUS
10
1.54343
20
0.428432
11
1.54173
21
0.430987
0
LINE
8
BLACK
6
CONTINUOUS
10
1.54173
20
0.430987
11
1.54113
21
0.434
0
LINE
8
BLACK
6
CONTINUOUS
10
1.54113
20
0.434
11
1.54113
21
0.494
0
LINE
8
BLACK
6
CONTINUOUS
10
1.54113
20
0.494
11
1.54173
21
0.497013
0
LINE
8
BLACK
6
CONTINUOUS
10
1.54173
20
0.497013
11
1.54343
21
0.499568
0
LINE
8
BLACK
6
CONTINUOUS
10
1.54343
20
0.499568
11
1.54599
21
0.501275
0
LINE
8
BLACK
6
CONTINUOUS
10
1.54599
20
0.501275
11
1.549
21
0.501874
0
LINE
8
BLACK
6
CONTINUOUS
10
1.549
20
0.501874
11
1.609
21
0.501874
0
LINE
8
BLACK
6
CONTINUOUS
10
1.609
20
0.501874
11
1.61201
21
0.501275
0
LINE
8
BLACK
6
CONTINUOUS
10
1.71201
20
0.501275
11
1.71457
21
0.499568
0
LINE
8
BLACK
6
CONTINUOUS
10
1.71457
20
0.499568
11
1.71627
21
0.497013
0
LINE
8
BLACK
6
CONTINUOUS
10
1.71627
20
0.497013
11
1.71687
21
0.494
0
LINE
8
BLACK
6
CONTINUOUS
10
1.71687
20
0.494
11
1.71687
21
0.434
0
LINE
8
BLACK
6
CONTINUOUS
10
1.71687
20
0.434
11
1.71627
21
0.430987
0
LINE
8
BLACK
6
CONTINUOUS
10
1.71627
20
0.430987
11
1.71457
21
0.428432
0
LINE
8
BLACK
6
CONTINUOUS
10
1.71457
20
0.428432
11
1.71201
21
0.426725
0
LINE
8
BLACK
6
CONTINUOUS
10
1.71201
20
0.426725
11
1.709
21
0.426126
0
LINE
8
BLACK
6
CONTINUOUS
10
1.709
20
0.426126
11
1.649
21
0.426126
0
LINE
8
BLACK
6
CONTINUOUS
10
1.649
20
0.426126
11
1.64599
21
0.426725
0
LINE
8
BLACK
6
CONTINUOUS
10
1.64599
20
0.426725
11
1.64343
21
0.428432
0
LINE
8
BLACK
6
CONTINUOUS
10
1.64343
20
0.428432
11
1.64173
21
0.430987
0
LINE
8
BLACK
6
CONTINUOUS
10
1.64173
20
0.430987
11
1.64113
21
0.434
0
LINE
8
BLACK
6
CONTINUOUS
10
1.64113
20
0.434
11
1.64113
21
0.494
0
LINE
8
BLACK
6
CONTINUOUS
10
1.64113
20
0.494
11
1.64173
21
0.497013
0
LINE
8
BLACK
6
CONTINUOUS
10
1.64173
20
0.497013
11
1.64343
21
0.499568
0
LINE
8
BLACK
6
CONTINUOUS
10
1.64343
20
0.499568
11
1.64599
21
0.501275
0
LINE
8
BLACK
6
CONTINUOUS
10
1.64599
20
0.501275
11
1.649
21
0.501874
0
LINE
8
BLACK
6
CONTINUOUS
10
1.649
20
0.501874
11
1.709
21
0.501874
0
LINE
8
BLACK
6
CONTINUOUS
10
1.709
20
0.501874
11
1.71201
21
0.501275
0
LINE
8
BLACK
6
CONTINUOUS
10
0.0330133
20
0.587275
11
0.0355678
21
0.585568
0
LINE
8
BLACK
6
CONTINUOUS
10
0.0355678
20
0.585568
11
0.0372746
21
0.583013
0
LINE
8
BLACK
6
CONTINUOUS
10
0.0372746
20
0.583013
11
0.037874
21
0.58
0
LINE
8
BLACK
6
CONTINUOUS
10
0.037874
20
0.58
11
0.037874
21
0.52
0
LINE
8
BLACK
6
CONTINUOUS
10
0.037874
20
0.52
11
0.0372746
21
0.516987
0
LINE
8
BLACK
6
CONTINUOUS
10
0.0372746
20
0.516987
11
0.0355678
21
0.514432
0
LINE
8
BLACK
6
CONTINUOUS
10
0.0355678
20
0.514432
11
0.0330133
21
0.512725
0
LINE
8
BLACK
6
CONTINUOUS
10
0.0330133
20
0.512725
11
0.03
21
0.512126
0
LINE
8
BLACK
6
CONTINUOUS
10
0.03
20
0.512126
11
-0.03
21
0.512126
0
LINE
8
BLACK
6
CONTINUOUS
10
-0.03
20
0.512126
11
-0.0330133
21
0.512725
0
LINE
8
BLACK
6
CONTINUOUS
10
-0.0330133
20
0.512725
11
-0.0355678
21
0.514432
0
LINE
8
BLACK
6
CONTINUOUS
10
-0.0355678
20
0.514432
11
-0.0372746
21
0.516987
0
LINE
8
BLACK
6
CONTINUOUS
10
-0.0372746
20
0.516987
11
-0.037874
21
0.52
0
LINE
8
BLACK
6
CONTINUOUS
10
-0.037874
20
0.52
11
-0.037874
21
0.58
0
LINE
8
BLACK
6
CONTINUOUS
10
-0.037874
20
0.58
11
-0.0372746
21
0.583013
0
LINE
8
BLACK
6
CONTINUOUS
10
-0.0372746
20
0.583013
11
-0.0355678
21
0.585568
0
LINE
8
BLACK
6
CONTINUOUS
10
-0.0355678
20
0.585568
11
-0.0330133
21
0.587275
0
LINE
8
BLACK
6
CONTINUOUS
10
-0.0330133
20
0.587275
11
-0.03
21
0.587874
0
LINE
8
BLACK
6
CONTINUOUS
10
-0.03
20
0.587874
11
0.03
21
0.587874
0
LINE
8
BLACK
6
CONTINUOUS
10
0.03
20
0.587874
11
0.0330133
21
0.587275
0
LINE
8
BLACK
6
CONTINUOUS
10
0.133013
20
0.587275
11
0.135568
21
0.585568
0
LINE
8
BLACK
6
CONTINUOUS
10
0.135568
20
0.585568
11
0.137275
21
0.583013
0
LINE
8
BLACK
6
CONTINUOUS
10
0.137275
20
0.583013
11
0.137874
21
0.58
0
LINE
8
BLACK
6
CONTINUOUS
10
0.137874
20
0.58
11
0.137874
21
0.52
0
LINE
8
BLACK
6
CONTINUOUS
10
0.137874
20
0.52
11
0.137275
21
0.516987
0
LINE
8
BLACK
6
CONTINUOUS
10
0.137275
20
0.516987
11
0.135568
21
0.514432
0
LINE
8
BLACK
6
CONTINUOUS
10
0.135568
20
0.514432
11
0.133013
21
0.512725
0
LINE
8
BLACK
6
CONTINUOUS
10
0.133013
20
0.512725
11
0.13
21
0.512126
0
LINE
8
BLACK
6
CONTINUOUS
10
0.13
20
0.512126
11
0.07
21
0.512126
0
LINE
8
BLACK
6
CONTINUOUS
10
0.07
20
0.512126
11
0.0669867
21
0.512725
0
LINE
8
BLACK
6
CONTINUOUS
10
0.0669867
20
0.512725
11
0.0644322
21
0.514432
0
LINE
8
BLACK
6
CONTINUOUS
10
0.0644322
20
0.514432
11
0.0627254
21
0.516987
0
LINE
8
BLACK
6
CONTINUOUS
10
0.0627254
20
0.516987
11
0.062126
21
0.52
0
LINE
8
BLACK
6
CONTINUOUS
10
0.062126
20
0.52
11
0.062126
21
0.58
0
LINE
8
BLACK
6
CONTINUOUS
10
0.062126
20
0.58
11
0.0627254
21
0.583013
0
LINE
8
BLACK
6
CONTINUOUS
10
0.0627254
20
0.583013
11
0.0644322
21
0.585568
0
LINE
8
BLACK
6
CONTINUOUS
10
0.0644322
20
0.585568
11
0.0669867
21
0.587275
0
LINE
8
BLACK
6
CONTINUOUS
10
0.0669867
20
0.587275
11
0.07
21
0.587874
0
LINE
8
BLACK
6
CONTINUOUS
10
0.07
20
0.587874
11
0.13
21
0.587874
0
LINE
8
BLACK
6
CONTINUOUS
10
0.13
20
0.587874
11
0.133013
21
0.587275
0
LINE
8
BLACK
6
CONTINUOUS
10
1.61201
20
0.601275
11
1.61457
21
0.599568
0
LINE
8
BLACK
6
CONTINUOUS
10
1.61457
20
0.599568
11
1.61627
21
0.597013
0
LINE
8
BLACK
6
CONTINUOUS
10
1.61627
20
0.597013
11
1.61687
21
0.594
0
LINE
8
BLACK
6
CONTINUOUS
10
1.61687
20
0.594
11
1.61687
21
0.534
0
LINE
8
BLACK
6
CONTINUOUS
10
1.61687
20
0.534
11
1.61627
21
0.530987
0
LINE
8
BLACK
6
CONTINUOUS
10
1.61627
20
0.530987
11
1.61457
21
0.528432
0
LINE
8
BLACK
6
CONTINUOUS
10
1.61457
20
0.528432
11
1.61201
21
0.526725
0
LINE
8
BLACK
6
CONTINUOUS
10
1.61201
20
0.526725
11
1.609
21
0.526126
0
LINE
8
BLACK
6
CONTINUOUS
10
1.609
20
0.526126
11
1.549
21
0.526126
0
LINE
8
BLACK
6
CONTINUOUS
10
1.549
20
0.526126
11
1.54599
21
0.526725
0
LINE
8
BLACK
6
CONTINUOUS
10
1.54599
20
0.526725
11
1.54343
21
0.528432
0
LINE
8
BLACK
6
CONTINUOUS
10
1.54343
20
0.528432
11
1.54173
21
0.530987
0
LINE
8
BLACK
6
CONTINUOUS
10
1.54173
20
0.530987
11
1.54113
21
0.534
0
LINE
8
BLACK
6
CONTINUOUS
10
1.54113
20
0.534
11
1.54113
21
0.594
0
LINE
8
BLACK
6
CONTINUOUS
10
1.54113
20
0.594
11
1.54173
21
0.597013
0
LINE
8
BLACK
6
CONTINUOUS
10
1.54173
20
0.597013
11
1.54343
21
0.599568
0
LINE
8
BLACK
6
CONTINUOUS
10
1.54343
20
0.599568
11
1.54599
21
0.601275
0
LINE
8
BLACK
6
CONTINUOUS
10
1.54599
20
0.601275
11
1.549
21
0.601874
0
LINE
8
BLACK
6
CONTINUOUS
10
1.549
20
0.601874
11
1.609
21
0.601874
0
LINE
8
BLACK
6
CONTINUOUS
10
1.609
20
0.601874
11
1.61201
21
0.601275
0
LINE
8
BLACK
6
CONTINUOUS
10
1.71201
20
0.601275
11
1.71457
21
0.599568
0
LINE
8
BLACK
6
CONTINUOUS
10
1.71457
20
0.599568
11
1.71627
21
0.597013
0
LINE
8
BLACK
6
CONTINUOUS
10
1.71627
20
0.597013
11
1.71687
21
0.594
0
LINE
8
BLACK
6
CONTINUOUS
10
1.71687
20
0.594
11
1.71687
21
0.534
0
LINE
8
BLACK
6
CONTINUOUS
10
1.71687
20
0.534
11
1.71627
21
0.530987
0
LINE
8
BLACK
6
CONTINUOUS
10
1.71627
20
0.530987
11
1.71457
21
0.528432
0
LINE
8
BLACK
6
CONTINUOUS
10
1.71457
20
0.528432
11
1.71201
21
0.526725
0
LINE
8
BLACK
6
CONTINUOUS
10
1.71201
20
0.526725
11
1.709
21
0.526126
0
LINE
8
BLACK
6
CONTINUOUS
10
1.709
20
0.526126
11
1.649
21
0.526126
0
LINE
8
BLACK
6
CONTINUOUS
10
1.649
20
0.526126
11
1.64599
21
0.526725
0
LINE
8
BLACK
6
CONTINUOUS
10
1.64599
20
0.526725
11
1.64343
21
0.528432
0
LINE
8
BLACK
6
CONTINUOUS
10
1.64343
20
0.528432
11
1.64173
21
0.530987
0
LINE
8
BLACK
6
CONTINUOUS
10
1.64173
20
0.530987
11
1.64113
21
0.534
0
LINE
8
BLACK
6
CONTINUOUS
10
1.64113
20
0.534
11
1.64113
21
0.594
0
LINE
8
BLACK
6
CONTINUOUS
10
1.64113
20
0.594
11
1.64173
21
0.597013
0
LINE
8
BLACK
6
CONTINUOUS
10
1.64173
20
0.597013
11
1.64343
21
0.599568
0
LINE
8
BLACK
6
CONTINUOUS
10
1.64343
20
0.599568
11
1.64599
21
0.601275
0
LINE
8
BLACK
6
CONTINUOUS
10
1.64599
20
0.601275
11
1.649
21
0.601874
0
LINE
8
BLACK
6
CONTINUOUS
10
1.649
20
0.601874
11
1.709
21
0.601874
0
LINE
8
BLACK
6
CONTINUOUS
10
1.709
20
0.601874
11
1.71201
21
0.601275
0
LINE
8
BLACK
6
CONTINUOUS
10
0.843013
20
0.687275
11
0.845568
21
0.685568
0
LINE
8
BLACK
6
CONTINUOUS
10
0.845568
20
0.685568
11
0.847275
21
0.683013
0
LINE
8
BLACK
6
CONTINUOUS
10
0.847275
20
0.683013
11
0.847874
21
0.68
0
LINE
8
BLACK
6
CONTINUOUS
10
0.847874
20
0.68
11
0.847874
21
0.62
0
LINE
8
BLACK
6
CONTINUOUS
10
0.847874
20
0.62
11
0.847275
21
0.616987
0
LINE
8
BLACK
6
CONTINUOUS
10
0.847275
20
0.616987
11
0.845568
21
0.614432
0
LINE
8
BLACK
6
CONTINUOUS
10
0.845568
20
0.614432
11
0.843013
21
0.612725
0
LINE
8
BLACK
6
CONTINUOUS
10
0.843013
20
0.612725
11
0.84
21
0.612126
0
LINE
8
BLACK
6
CONTINUOUS
10
0.84
20
0.612126
11
0.78
21
0.612126
0
LINE
8
BLACK
6
CONTINUOUS
10
0.78
20
0.612126
11
0.776987
21
0.612725
0
LINE
8
BLACK
6
CONTINUOUS
10
0.776987
20
0.612725
11
0.774432
21
0.614432
0
LINE
8
BLACK
6
CONTINUOUS
10
0.774432
20
0.614432
11
0.772725
21
0.616987
0
LINE
8
BLACK
6
CONTINUOUS
10
0.772725
20
0.616987
11
0.772126
21
0.62
0
LINE
8
BLACK
6
CONTINUOUS
10
0.772126
20
0.62
11
0.772126
21
0.68
0
LINE
8
BLACK
6
CONTINUOUS
10
0.772126
20
0.68
11
0.772725
21
0.683013
0
LINE
8
BLACK
6
CONTINUOUS
10
0.772725
20
0.683013
11
0.774432
21
0.685568
0
LINE
8
BLACK
6
CONTINUOUS
10
0.774432
20
0.685568
11
0.776987
21
0.687275
0
LINE
8
BLACK
6
CONTINUOUS
10
0.776987
20
0.687275
11
0.78
21
0.687874
0
LINE
8
BLACK
6
CONTINUOUS
10
0.78
20
0.687874
11
0.84
21
0.687874
0
LINE
8
BLACK
6
CONTINUOUS
10
0.84
20
0.687874
11
0.843013
21
0.687275
0
LINE
8
BLACK
6
CONTINUOUS
10
0.0141057
20
0.925192
11
0.0280341
21
0.922826
0
LINE
8
BLACK
6
CONTINUOUS
10
0.0280341
20
0.922826
11
0.04161
21
0.918914
0
LINE
8
BLACK
6
CONTINUOUS
10
0.04161
20
0.918914
11
0.0546625
21
0.913508
0
LINE
8
BLACK
6
CONTINUOUS
10
0.0546625
20
0.913508
11
0.0670277
21
0.906674
0
LINE
8
BLACK
6
CONTINUOUS
10
0.0670277
20
0.906674
11
0.0785499
21
0.898498
0
LINE
8
BLACK
6
CONTINUOUS
10
0.0785499
20
0.898498
11
0.0890843
21
0.889084
0
LINE
8
BLACK
6
CONTINUOUS
10
0.0890843
20
0.889084
11
0.0984985
21
0.87855
0
LINE
8
BLACK
6
CONTINUOUS
10
0.0984985
20
0.87855
11
0.106674
21
0.867028
0
LINE
8
BLACK
6
CONTINUOUS
10
0.106674
20
0.867028
11
0.113508
21
0.854663
0
LINE
8
BLACK
6
CONTINUOUS
10
0.113508
20
0.854663
11
0.118914
21
0.84161
0
LINE
8
BLACK
6
CONTINUOUS
10
0.118914
20
0.84161
11
0.122826
21
0.828034
0
LINE
8
BLACK
6
CONTINUOUS
10
0.122826
20
0.828034
11
0.125192
21
0.814106
0
LINE
8
BLACK
6
CONTINUOUS
10
0.125192
20
0.814106
11
0.125984
21
0.8
0
LINE
8
BLACK
6
CONTINUOUS
10
0.125984
20
0.8
11
0.125192
21
0.785894
0
LINE
8
BLACK
6
CONTINUOUS
10
0.125192
20
0.785894
11
0.122826
21
0.771966
0
LINE
8
BLACK
6
CONTINUOUS
10
0.122826
20
0.771966
11
0.118914
21
0.75839
0
LINE
8
BLACK
6
CONTINUOUS
10
0.118914
20
0.75839
11
0.113508
21
0.745337
0
LINE
8
BLACK
6
CONTINUOUS
10
0.113508
20
0.745337
11
0.106674
21
0.732972
0
LINE
8
BLACK
6
CONTINUOUS
10
0.106674
20
0.732972
11
0.0984985
21
0.72145
0
LINE
8
BLACK
6
CONTINUOUS
10
0.0984985
20
0.72145
11
0.0890843
21
0.710916
0
LINE
8
BLACK
6
CONTINUOUS
10
0.0890843
20
0.710916
11
0.0785499
21
0.701502
0
LINE
8
BLACK
6
CONTINUOUS
10
0.0785499
20
0.701502
11
0.0670277
21
0.693326
0
LINE
8
BLACK
6
CONTINUOUS
10
0.0670277
20
0.693326
11
0.0546625
21
0.686492
0
LINE
8
BLACK
6
CONTINUOUS
10
0.0546625
20
0.686492
11
0.04161
21
0.681086
0
LINE
8
BLACK
6
CONTINUOUS
10
0.04161
20
0.681086
11
0.0280341
21
0.677174
0
LINE
8
BLACK
6
CONTINUOUS
10
0.0280341
20
0.677174
11
0.0141057
21
0.674808
0
LINE
8
BLACK
6
CONTINUOUS
10
0.0141057
20
0.674808
11
0
21
0.674016
0
LINE
8
BLACK
6
CONTINUOUS
10
0
20
0.674016
11
-0.0141057
21
0.674808
0
LINE
8
BLACK
6
CONTINUOUS
10
-0.0141057
20
0.674808
11
-0.0280341
21
0.677174
0
LINE
8
BLACK
6
CONTINUOUS
10
-0.0280341
20
0.677174
11
-0.04161
21
0.681086
0
LINE
8
BLACK
6
CONTINUOUS
10
-0.04161
20
0.681086
11
-0.0546625
21
0.686492
0
LINE
8
BLACK
6
CONTINUOUS
10
-0.0546625
20
0.686492
11
-0.0670277
21
0.693326
0
LINE
8
BLACK
6
CONTINUOUS
10
-0.0670277
20
0.693326
11
-0.0785499
21
0.701502
0
LINE
8
BLACK
6
CONTINUOUS
10
-0.0785499
20
0.701502
11
-0.0890843
21
0.710916
0
LINE
8
BLACK
6
CONTINUOUS
10
-0.0890843
20
0.710916
11
-0.0984985
21
0.72145
0
LINE
8
BLACK
6
CONTINUOUS
10
-0.0984985
20
0.72145
11
-0.106674
21
0.732972
0
LINE
8
BLACK
6
CONTINUOUS
10
-0.106674
20
0.732972
11
-0.113508
21
0.745337
0
LINE
8
BLACK
6
CONTINUOUS
10
-0.113508
20
0.745337
11
-0.118914
21
0.75839
0
LINE
8
BLACK
6
CONTINUOUS
10
-0.118914
20
0.75839
11
-0.122826
21
0.771966
0
LINE
8
BLACK
6
CONTINUOUS
10
-0.122826
20
0.771966
11
-0.125192
21
0.785894
0
LINE
8
BLACK
6
CONTINUOUS
10
-0.125192
20
0.785894
11
-0.125984
21
0.8
0
LINE
8
BLACK
6
CONTINUOUS
10
-0.125984
20
0.8
11
-0.125192
21
0.814106
0
LINE
8
BLACK
6
CONTINUOUS
10
-0.125192
20
0.814106
11
-0.122826
21
0.828034
0
LINE
8
BLACK
6
CONTINUOUS
10
-0.122826
20
0.828034
11
-0.118914
21
0.84161
0
LINE
8
BLACK
6
CONTINUOUS
10
-0.118914
20
0.84161
11
-0.113508
21
0.854663
0
LINE
8
BLACK
6
CONTINUOUS
10
-0.113508
20
0.854663
11
-0.106674
21
0.867028
0
LINE
8
BLACK
6
CONTINUOUS
10
-0.106674
20
0.867028
11
-0.0984985
21
0.87855
0
LINE
8
BLACK
6
CONTINUOUS
10
-0.0984985
20
0.87855
11
-0.0890843
21
0.889084
0
LINE
8
BLACK
6
CONTINUOUS
10
-0.0890843
20
0.889084
11
-0.0785499
21
0.898498
0
LINE
8
BLACK
6
CONTINUOUS
10
-0.0785499
20
0.898498
11
-0.0670277
21
0.906674
0
LINE
8
BLACK
6
CONTINUOUS
10
-0.0670277
20
0.906674
11
-0.0546625
21
0.913508
0
LINE
8
BLACK
6
CONTINUOUS
10
-0.0546625
20
0.913508
11
-0.04161
21
0.918914
0
LINE
8
BLACK
6
CONTINUOUS
10
-0.04161
20
0.918914
11
-0.0280341
21
0.922826
0
LINE
8
BLACK
6
CONTINUOUS
10
-0.0280341
20
0.922826
11
-0.0141057
21
0.925192
0
LINE
8
BLACK
6
CONTINUOUS
10
-0.0141057
20
0.925192
11
0
21
0.925984
0
LINE
8
BLACK
6
CONTINUOUS
10
0
20
0.925984
11
0.0141057
21
0.925192
0
LINE
8
BLACK
6
CONTINUOUS
10
1.61411
20
0.925192
11
1.62803
21
0.922826
0
LINE
8
BLACK
6
CONTINUOUS
10
1.62803
20
0.922826
11
1.64161
21
0.918914
0
LINE
8
BLACK
6
CONTINUOUS
10
1.64161
20
0.918914
11
1.65466
21
0.913508
0
LINE
8
BLACK
6
CONTINUOUS
10
1.65466
20
0.913508
11
1.66703
21
0.906674
0
LINE
8
BLACK
6
CONTINUOUS
10
1.66703
20
0.906674
11
1.67855
21
0.898498
0
LINE
8
BLACK
6
CONTINUOUS
10
1.67855
20
0.898498
11
1.68908
21
0.889084
0
LINE
8
BLACK
6
CONTINUOUS
10
1.68908
20
0.889084
11
1.6985
21
0.87855
0
LINE
8
BLACK
6
CONTINUOUS
10
1.6985
20
0.87855
11
1.70667
21
0.867028
0
LINE
8
BLACK
6
CONTINUOUS
10
1.70667
20
0.867028
11
1.71351
21
0.854663
0
LINE
8
BLACK
6
CONTINUOUS
10
1.71351
20
0.854663
11
1.71891
21
0.84161
0
LINE
8
BLACK
6
CONTINUOUS
10
1.71891
20
0.84161
11
1.72283
21
0.828034
0
LINE
8
BLACK
6
CONTINUOUS
10
1.72283
20
0.828034
11
1.72519
21
0.814106
0
LINE
8
BLACK
6
CONTINUOUS
10
1.72519
20
0.814106
11
1.72598
21
0.8
0
LINE
8
BLACK
6
CONTINUOUS
10
1.72598
20
0.8
11
1.72519
21
0.785894
0
LINE
8
BLACK
6
CONTINUOUS
10
1.72519
20
0.785894
11
1.72283
21
0.771966
0
LINE
8
BLACK
6
CONTINUOUS
10
1.72283
20
0.771966
11
1.71891
21
0.75839
0
LINE
8
BLACK
6
CONTINUOUS
10
1.71891
20
0.75839
11
1.71351
21
0.745337
0
LINE
8
BLACK
6
CONTINUOUS
10
1.71351
20
0.745337
11
1.70667
21
0.732972
0
LINE
8
BLACK
6
CONTINUOUS
10
1.70667
20
0.732972
11
1.6985
21
0.72145
0
LINE
8
BLACK
6
CONTINUOUS
10
1.6985
20
0.72145
11
1.68908
21
0.710916
0
LINE
8
BLACK
6
CONTINUOUS
10
1.68908
20
0.710916
11
1.67855
21
0.701502
0
LINE
8
BLACK
6
CONTINUOUS
10
1.67855
20
0.701502
11
1.66703
21
0.693326
0
LINE
8
BLACK
6
CONTINUOUS
10
1.66703
20
0.693326
11
1.65466
21
0.686492
0
LINE
8
BLACK
6
CONTINUOUS
10
1.65466
20
0.686492
11
1.64161
21
0.681086
0
LINE
8
BLACK
6
CONTINUOUS
10
1.64161
20
0.681086
11
1.62803
21
0.677174
0
LINE
8
BLACK
6
CONTINUOUS
10
1.62803
20
0.677174
11
1.61411
21
0.674808
0
LINE
8
BLACK
6
CONTINUOUS
10
1.61411
20
0.674808
11
1.6
21
0.674016
0
LINE
8
BLACK
6
CONTINUOUS
10
1.6
20
0.674016
11
1.58589
21
0.674808
0
LINE
8
BLACK
6
CONTINUOUS
10
1.58589
20
0.674808
11
1.57197
21
0.677174
0
LINE
8
BLACK
6
CONTINUOUS
10
1.57197
20
0.677174
11
1.55839
21
0.681086
0
LINE
8
BLACK
6
CONTINUOUS
10
1.55839
20
0.681086
11
1.54534
21
0.686492
0
LINE
8
BLACK
6
CONTINUOUS
10
1.54534
20
0.686492
11
1.53297
21
0.693326
0
LINE
8
BLACK
6
CONTINUOUS
10
1.53297
20
0.693326
11
1.52145
21
0.701502
0
LINE
8
BLACK
6
CONTINUOUS
10
1.52145
20
0.701502
11
1.51092
21
0.710916
0
LINE
8
BLACK
6
CONTINUOUS
10
1.51092
20
0.710916
11
1.5015
21
0.72145
0
LINE
8
BLACK
6
CONTINUOUS
10
1.5015
20
0.72145
11
1.49333
21
0.732972
0
LINE
8
BLACK
6
CONTINUOUS
10
1.49333
20
0.732972
11
1.48649
21
0.745337
0
LINE
8
BLACK
6
CONTINUOUS
10
1.48649
20
0.745337
11
1.48109
21
0.75839
0
LINE
8
BLACK
6
CONTINUOUS
10
1.48109
20
0.75839
11
1.47717
21
0.771966
0
LINE
8
BLACK
6
CONTINUOUS
10
1.47717
20
0.771966
11
1.47481
21
0.785894
0
LINE
8
BLACK
6
CONTINUOUS
10
1.47481
20
0.785894
11
1.47402
21
0.8
0
LINE
8
BLACK
6
CONTINUOUS
10
1.47402
20
0.8
11
1.47481
21
0.814106
0
LINE
8
BLACK
6
CONTINUOUS
10
1.47481
20
0.814106
11
1.47717
21
0.828034
0
LINE
8
BLACK
6
CONTINUOUS
10
1.47717
20
0.828034
11
1.48109
21
0.84161
0
LINE
8
BLACK
6
CONTINUOUS
10
1.48109
20
0.84161
11
1.48649
21
0.854663
0
LINE
8
BLACK
6
CONTINUOUS
10
1.48649
20
0.854663
11
1.49333
21
0.867028
0
LINE
8
BLACK
6
CONTINUOUS
10
1.49333
20
0.867028
11
1.5015
21
0.87855
0
LINE
8
BLACK
6
CONTINUOUS
10
1.5015
20
0.87855
11
1.51092
21
0.889084
0
LINE
8
BLACK
6
CONTINUOUS
10
1.51092
20
0.889084
11
1.52145
21
0.898498
0
LINE
8
BLACK
6
CONTINUOUS
10
1.52145
20
0.898498
11
1.53297
21
0.906674
0
LINE
8
BLACK
6
CONTINUOUS
10
1.53297
20
0.906674
11
1.54534
21
0.913508
0
LINE
8
BLACK
6
CONTINUOUS
10
1.54534
20
0.913508
11
1.55839
21
0.918914
0
LINE
8
BLACK
6
CONTINUOUS
10
1.55839
20
0.918914
11
1.57197
21
0.922826
0
LINE
8
BLACK
6
CONTINUOUS
10
1.57197
20
0.922826
11
1.58589
21
0.925192
0
LINE
8
BLACK
6
CONTINUOUS
10
1.58589
20
0.925192
11
1.6
21
0.925984
0
LINE
8
BLACK
6
CONTINUOUS
10
1.6
20
0.925984
11
1.61411
21
0.925192
0
LINE
8
BLACK
6
CONTINUOUS
10
0.843013
20
0.787275
11
0.845568
21
0.785568
0
LINE
8
BLACK
6
CONTINUOUS
10
0.845568
20
0.785568
11
0.847275
21
0.783013
0
LINE
8
BLACK
6
CONTINUOUS
10
0.847275
20
0.783013
11
0.847874
21
0.78
0
LINE
8
BLACK
6
CONTINUOUS
10
0.847874
20
0.78
11
0.847874
21
0.72
0
LINE
8
BLACK
6
CONTINUOUS
10
0.847874
20
0.72
11
0.847275
21
0.716987
0
LINE
8
BLACK
6
CONTINUOUS
10
0.847275
20
0.716987
11
0.845568
21
0.714432
0
LINE
8
BLACK
6
CONTINUOUS
10
0.845568
20
0.714432
11
0.843013
21
0.712725
0
LINE
8
BLACK
6
CONTINUOUS
10
0.843013
20
0.712725
11
0.84
21
0.712126
0
LINE
8
BLACK
6
CONTINUOUS
10
0.84
20
0.712126
11
0.78
21
0.712126
0
LINE
8
BLACK
6
CONTINUOUS
10
0.78
20
0.712126
11
0.776987
21
0.712725
0
LINE
8
BLACK
6
CONTINUOUS
10
0.776987
20
0.712725
11
0.774432
21
0.714432
0
LINE
8
BLACK
6
CONTINUOUS
10
0.774432
20
0.714432
11
0.772725
21
0.716987
0
LINE
8
BLACK
6
CONTINUOUS
10
0.772725
20
0.716987
11
0.772126
21
0.72
0
LINE
8
BLACK
6
CONTINUOUS
10
0.772126
20
0.72
11
0.772126
21
0.78
0
LINE
8
BLACK
6
CONTINUOUS
10
0.772126
20
0.78
11
0.772725
21
0.783013
0
LINE
8
BLACK
6
CONTINUOUS
10
0.772725
20
0.783013
11
0.774432
21
0.785568
0
LINE
8
BLACK
6
CONTINUOUS
10
0.774432
20
0.785568
11
0.776987
21
0.787275
0
LINE
8
BLACK
6
CONTINUOUS
10
0.776987
20
0.787275
11
0.78
21
0.787874
0
LINE
8
BLACK
6
CONTINUOUS
10
0.78
20
0.787874
11
0.84
21
0.787874
0
LINE
8
BLACK
6
CONTINUOUS
10
0.84
20
0.787874
11
0.843013
21
0.787275
  0
ENDSEC
  0
EOF
