  0
SECTION
  2
HEADER
  9
$ANGBASE
  50
0.0
  9
$ANGDIR
  70
1
  9
$MEASUREMENT
  70
0
  0
ENDSEC
  0
SECTION
  2
TABLES
  0
TABLE
  2
LTYPE
  70
4
  0
LTYPE
  5
40F
  2
CONTINUOUS
  70
0
  3
Solid line
  72
65
  73
0
  40
0.0
  0
LTYPE
  5
410
  2
DASHDOT
 70
0
  3
Dash Dot ____ _ ____ _
 72
65
 73
4
 40
2.0
 49
1.25
 49
-0.25
 49
0.25
 49
-0.25
  0
LTYPE
  5
411
  2
DASHED
 70
0
  3
Dashed __ __ __ __ __
 72
65
 73
2
 40
0.75
 49
0.5
 49
-0.25
  0
LTYPE
  5
43B
  2
DOTTED
 70
0
  3
Dotted .  .  .  .
 72
65
 73
2
 40
0.2
 49
0.0
 49
-0.2
  0
ENDTAB
  0
TABLE
  2
STYLE
  70
4
  0
STYLE
  2
KICAD
  70
0
  40
0
  41
1
  42
1
  50
0
  71
0
  3
isocp.shx
  0
STYLE
  2
KICADB
  70
0
  40
0
  41
1
  42
1
  50
0
  71
0
  3
isocp.shx
  0
STYLE
  2
KICADI
  70
0
  40
0
  41
1
  42
1
  50
15
  71
0
  3
isocp.shx
  0
STYLE
  2
KICADBI
  70
0
  40
0
  41
1
  42
1
  50
15
  71
0
  3
isocp.shx
  0
ENDTAB
  0
TABLE
  2
LAYER
  70
1
  0
LAYER
  2
BLACK
  70
0
  62
7
  6
CONTINUOUS
  0
ENDTAB
  0
ENDSEC
  0
SECTION
  2
ENTITIES
0
LINE
8
BLACK
6
CONTINUOUS
10
0.772467
20
0.106534
11
0.775661
21
0.104401
0
LINE
8
BLACK
6
CONTINUOUS
10
0.775661
20
0.104401
11
0.777794
21
0.101208
0
LINE
8
BLACK
6
CONTINUOUS
10
0.777794
20
0.101208
11
0.778543
21
0.0974409
0
LINE
8
BLACK
6
CONTINUOUS
10
0.778543
20
0.0974409
11
0.778543
21
0.0777559
0
LINE
8
BLACK
6
CONTINUOUS
10
0.778543
20
0.0777559
11
0.777794
21
0.0739893
0
LINE
8
BLACK
6
CONTINUOUS
10
0.777794
20
0.0739893
11
0.775661
21
0.0707962
0
LINE
8
BLACK
6
CONTINUOUS
10
0.775661
20
0.0707962
11
0.772467
21
0.0686626
0
LINE
8
BLACK
6
CONTINUOUS
10
0.772467
20
0.0686626
11
0.768701
21
0.0679134
0
LINE
8
BLACK
6
CONTINUOUS
10
0.768701
20
0.0679134
11
0.731299
21
0.0679134
0
LINE
8
BLACK
6
CONTINUOUS
10
0.731299
20
0.0679134
11
0.727533
21
0.0686626
0
LINE
8
BLACK
6
CONTINUOUS
10
0.727533
20
0.0686626
11
0.724339
21
0.0707962
0
LINE
8
BLACK
6
CONTINUOUS
10
0.724339
20
0.0707962
11
0.722206
21
0.0739893
0
LINE
8
BLACK
6
CONTINUOUS
10
0.722206
20
0.0739893
11
0.721457
21
0.0777559
0
LINE
8
BLACK
6
CONTINUOUS
10
0.721457
20
0.0777559
11
0.721457
21
0.0974409
0
LINE
8
BLACK
6
CONTINUOUS
10
0.721457
20
0.0974409
11
0.722206
21
0.101208
0
LINE
8
BLACK
6
CONTINUOUS
10
0.722206
20
0.101208
11
0.724339
21
0.104401
0
LINE
8
BLACK
6
CONTINUOUS
10
0.724339
20
0.104401
11
0.727533
21
0.106534
0
LINE
8
BLACK
6
CONTINUOUS
10
0.727533
20
0.106534
11
0.731299
21
0.107283
0
LINE
8
BLACK
6
CONTINUOUS
10
0.731299
20
0.107283
11
0.768701
21
0.107283
0
LINE
8
BLACK
6
CONTINUOUS
10
0.768701
20
0.107283
11
0.772467
21
0.106534
0
LINE
8
BLACK
6
CONTINUOUS
10
0.696483
20
0.108503
11
0.699676
21
0.106369
0
LINE
8
BLACK
6
CONTINUOUS
10
0.699676
20
0.106369
11
0.70181
21
0.103176
0
LINE
8
BLACK
6
CONTINUOUS
10
0.70181
20
0.103176
11
0.702559
21
0.0994094
0
LINE
8
BLACK
6
CONTINUOUS
10
0.702559
20
0.0994094
11
0.702559
21
0.0787402
0
LINE
8
BLACK
6
CONTINUOUS
10
0.702559
20
0.0787402
11
0.70181
21
0.0749736
0
LINE
8
BLACK
6
CONTINUOUS
10
0.70181
20
0.0749736
11
0.699676
21
0.0717804
0
LINE
8
BLACK
6
CONTINUOUS
10
0.699676
20
0.0717804
11
0.696483
21
0.0696469
0
LINE
8
BLACK
6
CONTINUOUS
10
0.696483
20
0.0696469
11
0.692717
21
0.0688976
0
LINE
8
BLACK
6
CONTINUOUS
10
0.692717
20
0.0688976
11
0.657283
21
0.0688976
0
LINE
8
BLACK
6
CONTINUOUS
10
0.657283
20
0.0688976
11
0.653517
21
0.0696469
0
LINE
8
BLACK
6
CONTINUOUS
10
0.653517
20
0.0696469
11
0.650324
21
0.0717804
0
LINE
8
BLACK
6
CONTINUOUS
10
0.650324
20
0.0717804
11
0.64819
21
0.0749736
0
LINE
8
BLACK
6
CONTINUOUS
10
0.64819
20
0.0749736
11
0.647441
21
0.0787402
0
LINE
8
BLACK
6
CONTINUOUS
10
0.647441
20
0.0787402
11
0.647441
21
0.0994094
0
LINE
8
BLACK
6
CONTINUOUS
10
0.647441
20
0.0994094
11
0.64819
21
0.103176
0
LINE
8
BLACK
6
CONTINUOUS
10
0.64819
20
0.103176
11
0.650324
21
0.106369
0
LINE
8
BLACK
6
CONTINUOUS
10
0.650324
20
0.106369
11
0.653517
21
0.108503
0
LINE
8
BLACK
6
CONTINUOUS
10
0.653517
20
0.108503
11
0.657283
21
0.109252
0
LINE
8
BLACK
6
CONTINUOUS
10
0.657283
20
0.109252
11
0.692717
21
0.109252
0
LINE
8
BLACK
6
CONTINUOUS
10
0.692717
20
0.109252
11
0.696483
21
0.108503
0
LINE
8
BLACK
6
CONTINUOUS
10
0.875208
20
0.129794
11
0.878401
21
0.127661
0
LINE
8
BLACK
6
CONTINUOUS
10
0.878401
20
0.127661
11
0.880534
21
0.124467
0
LINE
8
BLACK
6
CONTINUOUS
10
0.880534
20
0.124467
11
0.881283
21
0.120701
0
LINE
8
BLACK
6
CONTINUOUS
10
0.881283
20
0.120701
11
0.881283
21
0.0832992
0
LINE
8
BLACK
6
CONTINUOUS
10
0.881283
20
0.0832992
11
0.880534
21
0.0795326
0
LINE
8
BLACK
6
CONTINUOUS
10
0.880534
20
0.0795326
11
0.878401
21
0.0763395
0
LINE
8
BLACK
6
CONTINUOUS
10
0.878401
20
0.0763395
11
0.875208
21
0.0742059
0
LINE
8
BLACK
6
CONTINUOUS
10
0.875208
20
0.0742059
11
0.871441
21
0.0734567
0
LINE
8
BLACK
6
CONTINUOUS
10
0.871441
20
0.0734567
11
0.851756
21
0.0734567
0
LINE
8
BLACK
6
CONTINUOUS
10
0.851756
20
0.0734567
11
0.847989
21
0.0742059
0
LINE
8
BLACK
6
CONTINUOUS
10
0.847989
20
0.0742059
11
0.844796
21
0.0763395
0
LINE
8
BLACK
6
CONTINUOUS
10
0.844796
20
0.0763395
11
0.842663
21
0.0795326
0
LINE
8
BLACK
6
CONTINUOUS
10
0.842663
20
0.0795326
11
0.841913
21
0.0832992
0
LINE
8
BLACK
6
CONTINUOUS
10
0.841913
20
0.0832992
11
0.841913
21
0.120701
0
LINE
8
BLACK
6
CONTINUOUS
10
0.841913
20
0.120701
11
0.842663
21
0.124467
0
LINE
8
BLACK
6
CONTINUOUS
10
0.842663
20
0.124467
11
0.844796
21
0.127661
0
LINE
8
BLACK
6
CONTINUOUS
10
0.844796
20
0.127661
11
0.847989
21
0.129794
0
LINE
8
BLACK
6
CONTINUOUS
10
0.847989
20
0.129794
11
0.851756
21
0.130543
0
LINE
8
BLACK
6
CONTINUOUS
10
0.851756
20
0.130543
11
0.871441
21
0.130543
0
LINE
8
BLACK
6
CONTINUOUS
10
0.871441
20
0.130543
11
0.875208
21
0.129794
0
LINE
8
BLACK
6
CONTINUOUS
10
0.950011
20
0.129794
11
0.953204
21
0.127661
0
LINE
8
BLACK
6
CONTINUOUS
10
0.953204
20
0.127661
11
0.955337
21
0.124467
0
LINE
8
BLACK
6
CONTINUOUS
10
0.955337
20
0.124467
11
0.956087
21
0.120701
0
LINE
8
BLACK
6
CONTINUOUS
10
0.956087
20
0.120701
11
0.956087
21
0.0832992
0
LINE
8
BLACK
6
CONTINUOUS
10
0.956087
20
0.0832992
11
0.955337
21
0.0795326
0
LINE
8
BLACK
6
CONTINUOUS
10
0.955337
20
0.0795326
11
0.953204
21
0.0763395
0
LINE
8
BLACK
6
CONTINUOUS
10
0.953204
20
0.0763395
11
0.950011
21
0.0742059
0
LINE
8
BLACK
6
CONTINUOUS
10
0.950011
20
0.0742059
11
0.946244
21
0.0734567
0
LINE
8
BLACK
6
CONTINUOUS
10
0.946244
20
0.0734567
11
0.926559
21
0.0734567
0
LINE
8
BLACK
6
CONTINUOUS
10
0.926559
20
0.0734567
11
0.922792
21
0.0742059
0
LINE
8
BLACK
6
CONTINUOUS
10
0.922792
20
0.0742059
11
0.919599
21
0.0763395
0
LINE
8
BLACK
6
CONTINUOUS
10
0.919599
20
0.0763395
11
0.917466
21
0.0795326
0
LINE
8
BLACK
6
CONTINUOUS
10
0.917466
20
0.0795326
11
0.916717
21
0.0832992
0
LINE
8
BLACK
6
CONTINUOUS
10
0.916717
20
0.0832992
11
0.916717
21
0.120701
0
LINE
8
BLACK
6
CONTINUOUS
10
0.916717
20
0.120701
11
0.917466
21
0.124467
0
LINE
8
BLACK
6
CONTINUOUS
10
0.917466
20
0.124467
11
0.919599
21
0.127661
0
LINE
8
BLACK
6
CONTINUOUS
10
0.919599
20
0.127661
11
0.922792
21
0.129794
0
LINE
8
BLACK
6
CONTINUOUS
10
0.922792
20
0.129794
11
0.926559
21
0.130543
0
LINE
8
BLACK
6
CONTINUOUS
10
0.926559
20
0.130543
11
0.946244
21
0.130543
0
LINE
8
BLACK
6
CONTINUOUS
10
0.946244
20
0.130543
11
0.950011
21
0.129794
0
LINE
8
BLACK
6
CONTINUOUS
10
0.696483
20
0.180353
11
0.699676
21
0.17822
0
LINE
8
BLACK
6
CONTINUOUS
10
0.699676
20
0.17822
11
0.70181
21
0.175026
0
LINE
8
BLACK
6
CONTINUOUS
10
0.70181
20
0.175026
11
0.702559
21
0.17126
0
LINE
8
BLACK
6
CONTINUOUS
10
0.702559
20
0.17126
11
0.702559
21
0.150591
0
LINE
8
BLACK
6
CONTINUOUS
10
0.702559
20
0.150591
11
0.70181
21
0.146824
0
LINE
8
BLACK
6
CONTINUOUS
10
0.70181
20
0.146824
11
0.699676
21
0.143631
0
LINE
8
BLACK
6
CONTINUOUS
10
0.699676
20
0.143631
11
0.696483
21
0.141497
0
LINE
8
BLACK
6
CONTINUOUS
10
0.696483
20
0.141497
11
0.692717
21
0.140748
0
LINE
8
BLACK
6
CONTINUOUS
10
0.692717
20
0.140748
11
0.657283
21
0.140748
0
LINE
8
BLACK
6
CONTINUOUS
10
0.657283
20
0.140748
11
0.653517
21
0.141497
0
LINE
8
BLACK
6
CONTINUOUS
10
0.653517
20
0.141497
11
0.650324
21
0.143631
0
LINE
8
BLACK
6
CONTINUOUS
10
0.650324
20
0.143631
11
0.64819
21
0.146824
0
LINE
8
BLACK
6
CONTINUOUS
10
0.64819
20
0.146824
11
0.647441
21
0.150591
0
LINE
8
BLACK
6
CONTINUOUS
10
0.647441
20
0.150591
11
0.647441
21
0.17126
0
LINE
8
BLACK
6
CONTINUOUS
10
0.647441
20
0.17126
11
0.64819
21
0.175026
0
LINE
8
BLACK
6
CONTINUOUS
10
0.64819
20
0.175026
11
0.650324
21
0.17822
0
LINE
8
BLACK
6
CONTINUOUS
10
0.650324
20
0.17822
11
0.653517
21
0.180353
0
LINE
8
BLACK
6
CONTINUOUS
10
0.653517
20
0.180353
11
0.657283
21
0.181102
0
LINE
8
BLACK
6
CONTINUOUS
10
0.657283
20
0.181102
11
0.692717
21
0.181102
0
LINE
8
BLACK
6
CONTINUOUS
10
0.692717
20
0.181102
11
0.696483
21
0.180353
0
LINE
8
BLACK
6
CONTINUOUS
10
0.772467
20
0.181337
11
0.775661
21
0.179204
0
LINE
8
BLACK
6
CONTINUOUS
10
0.775661
20
0.179204
11
0.777794
21
0.176011
0
LINE
8
BLACK
6
CONTINUOUS
10
0.777794
20
0.176011
11
0.778543
21
0.172244
0
LINE
8
BLACK
6
CONTINUOUS
10
0.778543
20
0.172244
11
0.778543
21
0.152559
0
LINE
8
BLACK
6
CONTINUOUS
10
0.778543
20
0.152559
11
0.777794
21
0.148792
0
LINE
8
BLACK
6
CONTINUOUS
10
0.777794
20
0.148792
11
0.775661
21
0.145599
0
LINE
8
BLACK
6
CONTINUOUS
10
0.775661
20
0.145599
11
0.772467
21
0.143466
0
LINE
8
BLACK
6
CONTINUOUS
10
0.772467
20
0.143466
11
0.768701
21
0.142717
0
LINE
8
BLACK
6
CONTINUOUS
10
0.768701
20
0.142717
11
0.731299
21
0.142717
0
LINE
8
BLACK
6
CONTINUOUS
10
0.731299
20
0.142717
11
0.727533
21
0.143466
0
LINE
8
BLACK
6
CONTINUOUS
10
0.727533
20
0.143466
11
0.724339
21
0.145599
0
LINE
8
BLACK
6
CONTINUOUS
10
0.724339
20
0.145599
11
0.722206
21
0.148792
0
LINE
8
BLACK
6
CONTINUOUS
10
0.722206
20
0.148792
11
0.721457
21
0.152559
0
LINE
8
BLACK
6
CONTINUOUS
10
0.721457
20
0.152559
11
0.721457
21
0.172244
0
LINE
8
BLACK
6
CONTINUOUS
10
0.721457
20
0.172244
11
0.722206
21
0.176011
0
LINE
8
BLACK
6
CONTINUOUS
10
0.722206
20
0.176011
11
0.724339
21
0.179204
0
LINE
8
BLACK
6
CONTINUOUS
10
0.724339
20
0.179204
11
0.727533
21
0.181337
0
LINE
8
BLACK
6
CONTINUOUS
10
0.727533
20
0.181337
11
0.731299
21
0.182087
0
LINE
8
BLACK
6
CONTINUOUS
10
0.731299
20
0.182087
11
0.768701
21
0.182087
0
LINE
8
BLACK
6
CONTINUOUS
10
0.768701
20
0.182087
11
0.772467
21
0.181337
0
LINE
8
BLACK
6
CONTINUOUS
10
0.876208
20
0.202794
11
0.879401
21
0.200661
0
LINE
8
BLACK
6
CONTINUOUS
10
0.879401
20
0.200661
11
0.881534
21
0.197467
0
LINE
8
BLACK
6
CONTINUOUS
10
0.881534
20
0.197467
11
0.882283
21
0.193701
0
LINE
8
BLACK
6
CONTINUOUS
10
0.882283
20
0.193701
11
0.882283
21
0.156299
0
LINE
8
BLACK
6
CONTINUOUS
10
0.882283
20
0.156299
11
0.881534
21
0.152533
0
LINE
8
BLACK
6
CONTINUOUS
10
0.881534
20
0.152533
11
0.879401
21
0.149339
0
LINE
8
BLACK
6
CONTINUOUS
10
0.879401
20
0.149339
11
0.876208
21
0.147206
0
LINE
8
BLACK
6
CONTINUOUS
10
0.876208
20
0.147206
11
0.872441
21
0.146457
0
LINE
8
BLACK
6
CONTINUOUS
10
0.872441
20
0.146457
11
0.852756
21
0.146457
0
LINE
8
BLACK
6
CONTINUOUS
10
0.852756
20
0.146457
11
0.848989
21
0.147206
0
LINE
8
BLACK
6
CONTINUOUS
10
0.848989
20
0.147206
11
0.845796
21
0.149339
0
LINE
8
BLACK
6
CONTINUOUS
10
0.845796
20
0.149339
11
0.843663
21
0.152533
0
LINE
8
BLACK
6
CONTINUOUS
10
0.843663
20
0.152533
11
0.842913
21
0.156299
0
LINE
8
BLACK
6
CONTINUOUS
10
0.842913
20
0.156299
11
0.842913
21
0.193701
0
LINE
8
BLACK
6
CONTINUOUS
10
0.842913
20
0.193701
11
0.843663
21
0.197467
0
LINE
8
BLACK
6
CONTINUOUS
10
0.843663
20
0.197467
11
0.845796
21
0.200661
0
LINE
8
BLACK
6
CONTINUOUS
10
0.845796
20
0.200661
11
0.848989
21
0.202794
0
LINE
8
BLACK
6
CONTINUOUS
10
0.848989
20
0.202794
11
0.852756
21
0.203543
0
LINE
8
BLACK
6
CONTINUOUS
10
0.852756
20
0.203543
11
0.872441
21
0.203543
0
LINE
8
BLACK
6
CONTINUOUS
10
0.872441
20
0.203543
11
0.876208
21
0.202794
0
LINE
8
BLACK
6
CONTINUOUS
10
0.951011
20
0.202794
11
0.954204
21
0.200661
0
LINE
8
BLACK
6
CONTINUOUS
10
0.954204
20
0.200661
11
0.956337
21
0.197467
0
LINE
8
BLACK
6
CONTINUOUS
10
0.956337
20
0.197467
11
0.957087
21
0.193701
0
LINE
8
BLACK
6
CONTINUOUS
10
0.957087
20
0.193701
11
0.957087
21
0.156299
0
LINE
8
BLACK
6
CONTINUOUS
10
0.957087
20
0.156299
11
0.956337
21
0.152533
0
LINE
8
BLACK
6
CONTINUOUS
10
0.956337
20
0.152533
11
0.954204
21
0.149339
0
LINE
8
BLACK
6
CONTINUOUS
10
0.954204
20
0.149339
11
0.951011
21
0.147206
0
LINE
8
BLACK
6
CONTINUOUS
10
0.951011
20
0.147206
11
0.947244
21
0.146457
0
LINE
8
BLACK
6
CONTINUOUS
10
0.947244
20
0.146457
11
0.927559
21
0.146457
0
LINE
8
BLACK
6
CONTINUOUS
10
0.927559
20
0.146457
11
0.923792
21
0.147206
0
LINE
8
BLACK
6
CONTINUOUS
10
0.923792
20
0.147206
11
0.920599
21
0.149339
0
LINE
8
BLACK
6
CONTINUOUS
10
0.920599
20
0.149339
11
0.918466
21
0.152533
0
LINE
8
BLACK
6
CONTINUOUS
10
0.918466
20
0.152533
11
0.917717
21
0.156299
0
LINE
8
BLACK
6
CONTINUOUS
10
0.917717
20
0.156299
11
0.917717
21
0.193701
0
LINE
8
BLACK
6
CONTINUOUS
10
0.917717
20
0.193701
11
0.918466
21
0.197467
0
LINE
8
BLACK
6
CONTINUOUS
10
0.918466
20
0.197467
11
0.920599
21
0.200661
0
LINE
8
BLACK
6
CONTINUOUS
10
0.920599
20
0.200661
11
0.923792
21
0.202794
0
LINE
8
BLACK
6
CONTINUOUS
10
0.923792
20
0.202794
11
0.927559
21
0.203543
0
LINE
8
BLACK
6
CONTINUOUS
10
0.927559
20
0.203543
11
0.947244
21
0.203543
0
LINE
8
BLACK
6
CONTINUOUS
10
0.947244
20
0.203543
11
0.951011
21
0.202794
0
LINE
8
BLACK
6
CONTINUOUS
10
0.509458
20
0.224209
11
0.512651
21
0.222075
0
LINE
8
BLACK
6
CONTINUOUS
10
0.512651
20
0.222075
11
0.514785
21
0.218882
0
LINE
8
BLACK
6
CONTINUOUS
10
0.514785
20
0.218882
11
0.515534
21
0.215115
0
LINE
8
BLACK
6
CONTINUOUS
10
0.515534
20
0.215115
11
0.515534
21
0.19543
0
LINE
8
BLACK
6
CONTINUOUS
10
0.515534
20
0.19543
11
0.514785
21
0.191664
0
LINE
8
BLACK
6
CONTINUOUS
10
0.514785
20
0.191664
11
0.512651
21
0.188471
0
LINE
8
BLACK
6
CONTINUOUS
10
0.512651
20
0.188471
11
0.509458
21
0.186337
0
LINE
8
BLACK
6
CONTINUOUS
10
0.509458
20
0.186337
11
0.505692
21
0.185588
0
LINE
8
BLACK
6
CONTINUOUS
10
0.505692
20
0.185588
11
0.46829
21
0.185588
0
LINE
8
BLACK
6
CONTINUOUS
10
0.46829
20
0.185588
11
0.464524
21
0.186337
0
LINE
8
BLACK
6
CONTINUOUS
10
0.464524
20
0.186337
11
0.46133
21
0.188471
0
LINE
8
BLACK
6
CONTINUOUS
10
0.46133
20
0.188471
11
0.459197
21
0.191664
0
LINE
8
BLACK
6
CONTINUOUS
10
0.459197
20
0.191664
11
0.458448
21
0.19543
0
LINE
8
BLACK
6
CONTINUOUS
10
0.458448
20
0.19543
11
0.458448
21
0.215115
0
LINE
8
BLACK
6
CONTINUOUS
10
0.458448
20
0.215115
11
0.459197
21
0.218882
0
LINE
8
BLACK
6
CONTINUOUS
10
0.459197
20
0.218882
11
0.46133
21
0.222075
0
LINE
8
BLACK
6
CONTINUOUS
10
0.46133
20
0.222075
11
0.464524
21
0.224209
0
LINE
8
BLACK
6
CONTINUOUS
10
0.464524
20
0.224209
11
0.46829
21
0.224958
0
LINE
8
BLACK
6
CONTINUOUS
10
0.46829
20
0.224958
11
0.505692
21
0.224958
0
LINE
8
BLACK
6
CONTINUOUS
10
0.505692
20
0.224958
11
0.509458
21
0.224209
0
LINE
8
BLACK
6
CONTINUOUS
10
0.595994
20
0.228343
11
0.599187
21
0.226209
0
LINE
8
BLACK
6
CONTINUOUS
10
0.599187
20
0.226209
11
0.60132
21
0.223016
0
LINE
8
BLACK
6
CONTINUOUS
10
0.60132
20
0.223016
11
0.60207
21
0.219249
0
LINE
8
BLACK
6
CONTINUOUS
10
0.60207
20
0.219249
11
0.60207
21
0.19858
0
LINE
8
BLACK
6
CONTINUOUS
10
0.60207
20
0.19858
11
0.60132
21
0.194813
0
LINE
8
BLACK
6
CONTINUOUS
10
0.60132
20
0.194813
11
0.599187
21
0.19162
0
LINE
8
BLACK
6
CONTINUOUS
10
0.599187
20
0.19162
11
0.595994
21
0.189487
0
LINE
8
BLACK
6
CONTINUOUS
10
0.595994
20
0.189487
11
0.592227
21
0.188737
0
LINE
8
BLACK
6
CONTINUOUS
10
0.592227
20
0.188737
11
0.556794
21
0.188737
0
LINE
8
BLACK
6
CONTINUOUS
10
0.556794
20
0.188737
11
0.553027
21
0.189487
0
LINE
8
BLACK
6
CONTINUOUS
10
0.553027
20
0.189487
11
0.549834
21
0.19162
0
LINE
8
BLACK
6
CONTINUOUS
10
0.549834
20
0.19162
11
0.547701
21
0.194813
0
LINE
8
BLACK
6
CONTINUOUS
10
0.547701
20
0.194813
11
0.546952
21
0.19858
0
LINE
8
BLACK
6
CONTINUOUS
10
0.546952
20
0.19858
11
0.546952
21
0.219249
0
LINE
8
BLACK
6
CONTINUOUS
10
0.546952
20
0.219249
11
0.547701
21
0.223016
0
LINE
8
BLACK
6
CONTINUOUS
10
0.547701
20
0.223016
11
0.549834
21
0.226209
0
LINE
8
BLACK
6
CONTINUOUS
10
0.549834
20
0.226209
11
0.553027
21
0.228343
0
LINE
8
BLACK
6
CONTINUOUS
10
0.553027
20
0.228343
11
0.556794
21
0.229092
0
LINE
8
BLACK
6
CONTINUOUS
10
0.556794
20
0.229092
11
0.592227
21
0.229092
0
LINE
8
BLACK
6
CONTINUOUS
10
0.592227
20
0.229092
11
0.595994
21
0.228343
0
LINE
8
BLACK
6
CONTINUOUS
10
1.04148
20
0.233503
11
1.04468
21
0.231369
0
LINE
8
BLACK
6
CONTINUOUS
10
1.04468
20
0.231369
11
1.04681
21
0.228176
0
LINE
8
BLACK
6
CONTINUOUS
10
1.04681
20
0.228176
11
1.04756
21
0.224409
0
LINE
8
BLACK
6
CONTINUOUS
10
1.04756
20
0.224409
11
1.04756
21
0.20374
0
LINE
8
BLACK
6
CONTINUOUS
10
1.04756
20
0.20374
11
1.04681
21
0.199974
0
LINE
8
BLACK
6
CONTINUOUS
10
1.04681
20
0.199974
11
1.04468
21
0.19678
0
LINE
8
BLACK
6
CONTINUOUS
10
1.04468
20
0.19678
11
1.04148
21
0.194647
0
LINE
8
BLACK
6
CONTINUOUS
10
1.04148
20
0.194647
11
1.03772
21
0.193898
0
LINE
8
BLACK
6
CONTINUOUS
10
1.03772
20
0.193898
11
1.00228
21
0.193898
0
LINE
8
BLACK
6
CONTINUOUS
10
1.00228
20
0.193898
11
0.998517
21
0.194647
0
LINE
8
BLACK
6
CONTINUOUS
10
0.998517
20
0.194647
11
0.995324
21
0.19678
0
LINE
8
BLACK
6
CONTINUOUS
10
0.995324
20
0.19678
11
0.99319
21
0.199974
0
LINE
8
BLACK
6
CONTINUOUS
10
0.99319
20
0.199974
11
0.992441
21
0.20374
0
LINE
8
BLACK
6
CONTINUOUS
10
0.992441
20
0.20374
11
0.992441
21
0.224409
0
LINE
8
BLACK
6
CONTINUOUS
10
0.992441
20
0.224409
11
0.99319
21
0.228176
0
LINE
8
BLACK
6
CONTINUOUS
10
0.99319
20
0.228176
11
0.995324
21
0.231369
0
LINE
8
BLACK
6
CONTINUOUS
10
0.995324
20
0.231369
11
0.998517
21
0.233503
0
LINE
8
BLACK
6
CONTINUOUS
10
0.998517
20
0.233503
11
1.00228
21
0.234252
0
LINE
8
BLACK
6
CONTINUOUS
10
1.00228
20
0.234252
11
1.03772
21
0.234252
0
LINE
8
BLACK
6
CONTINUOUS
10
1.03772
20
0.234252
11
1.04148
21
0.233503
0
LINE
8
BLACK
6
CONTINUOUS
10
1.13648
20
0.233503
11
1.13968
21
0.231369
0
LINE
8
BLACK
6
CONTINUOUS
10
1.13968
20
0.231369
11
1.14181
21
0.228176
0
LINE
8
BLACK
6
CONTINUOUS
10
1.14181
20
0.228176
11
1.14256
21
0.224409
0
LINE
8
BLACK
6
CONTINUOUS
10
1.14256
20
0.224409
11
1.14256
21
0.20374
0
LINE
8
BLACK
6
CONTINUOUS
10
1.14256
20
0.20374
11
1.14181
21
0.199974
0
LINE
8
BLACK
6
CONTINUOUS
10
1.14181
20
0.199974
11
1.13968
21
0.19678
0
LINE
8
BLACK
6
CONTINUOUS
10
1.13968
20
0.19678
11
1.13648
21
0.194647
0
LINE
8
BLACK
6
CONTINUOUS
10
1.13648
20
0.194647
11
1.13272
21
0.193898
0
LINE
8
BLACK
6
CONTINUOUS
10
1.13272
20
0.193898
11
1.09728
21
0.193898
0
LINE
8
BLACK
6
CONTINUOUS
10
1.09728
20
0.193898
11
1.09352
21
0.194647
0
LINE
8
BLACK
6
CONTINUOUS
10
1.09352
20
0.194647
11
1.09032
21
0.19678
0
LINE
8
BLACK
6
CONTINUOUS
10
1.09032
20
0.19678
11
1.08819
21
0.199974
0
LINE
8
BLACK
6
CONTINUOUS
10
1.08819
20
0.199974
11
1.08744
21
0.20374
0
LINE
8
BLACK
6
CONTINUOUS
10
1.08744
20
0.20374
11
1.08744
21
0.224409
0
LINE
8
BLACK
6
CONTINUOUS
10
1.08744
20
0.224409
11
1.08819
21
0.228176
0
LINE
8
BLACK
6
CONTINUOUS
10
1.08819
20
0.228176
11
1.09032
21
0.231369
0
LINE
8
BLACK
6
CONTINUOUS
10
1.09032
20
0.231369
11
1.09352
21
0.233503
0
LINE
8
BLACK
6
CONTINUOUS
10
1.09352
20
0.233503
11
1.09728
21
0.234252
0
LINE
8
BLACK
6
CONTINUOUS
10
1.09728
20
0.234252
11
1.13272
21
0.234252
0
LINE
8
BLACK
6
CONTINUOUS
10
1.13272
20
0.234252
11
1.13648
21
0.233503
0
LINE
8
BLACK
6
CONTINUOUS
10
1.23747
20
0.236534
11
1.24066
21
0.234401
0
LINE
8
BLACK
6
CONTINUOUS
10
1.24066
20
0.234401
11
1.24279
21
0.231208
0
LINE
8
BLACK
6
CONTINUOUS
10
1.24279
20
0.231208
11
1.24354
21
0.227441
0
LINE
8
BLACK
6
CONTINUOUS
10
1.24354
20
0.227441
11
1.24354
21
0.207756
0
LINE
8
BLACK
6
CONTINUOUS
10
1.24354
20
0.207756
11
1.24279
21
0.203989
0
LINE
8
BLACK
6
CONTINUOUS
10
1.24279
20
0.203989
11
1.24066
21
0.200796
0
LINE
8
BLACK
6
CONTINUOUS
10
1.24066
20
0.200796
11
1.23747
21
0.198663
0
LINE
8
BLACK
6
CONTINUOUS
10
1.23747
20
0.198663
11
1.2337
21
0.197913
0
LINE
8
BLACK
6
CONTINUOUS
10
1.2337
20
0.197913
11
1.1963
21
0.197913
0
LINE
8
BLACK
6
CONTINUOUS
10
1.1963
20
0.197913
11
1.19253
21
0.198663
0
LINE
8
BLACK
6
CONTINUOUS
10
1.19253
20
0.198663
11
1.18934
21
0.200796
0
LINE
8
BLACK
6
CONTINUOUS
10
1.18934
20
0.200796
11
1.18721
21
0.203989
0
LINE
8
BLACK
6
CONTINUOUS
10
1.18721
20
0.203989
11
1.18646
21
0.207756
0
LINE
8
BLACK
6
CONTINUOUS
10
1.18646
20
0.207756
11
1.18646
21
0.227441
0
LINE
8
BLACK
6
CONTINUOUS
10
1.18646
20
0.227441
11
1.18721
21
0.231208
0
LINE
8
BLACK
6
CONTINUOUS
10
1.18721
20
0.231208
11
1.18934
21
0.234401
0
LINE
8
BLACK
6
CONTINUOUS
10
1.18934
20
0.234401
11
1.19253
21
0.236534
0
LINE
8
BLACK
6
CONTINUOUS
10
1.19253
20
0.236534
11
1.1963
21
0.237283
0
LINE
8
BLACK
6
CONTINUOUS
10
1.1963
20
0.237283
11
1.2337
21
0.237283
0
LINE
8
BLACK
6
CONTINUOUS
10
1.2337
20
0.237283
11
1.23747
21
0.236534
0
LINE
8
BLACK
6
CONTINUOUS
10
1.33148
20
0.238503
11
1.33468
21
0.236369
0
LINE
8
BLACK
6
CONTINUOUS
10
1.33468
20
0.236369
11
1.33681
21
0.233176
0
LINE
8
BLACK
6
CONTINUOUS
10
1.33681
20
0.233176
11
1.33756
21
0.229409
0
LINE
8
BLACK
6
CONTINUOUS
10
1.33756
20
0.229409
11
1.33756
21
0.20874
0
LINE
8
BLACK
6
CONTINUOUS
10
1.33756
20
0.20874
11
1.33681
21
0.204974
0
LINE
8
BLACK
6
CONTINUOUS
10
1.33681
20
0.204974
11
1.33468
21
0.20178
0
LINE
8
BLACK
6
CONTINUOUS
10
1.33468
20
0.20178
11
1.33148
21
0.199647
0
LINE
8
BLACK
6
CONTINUOUS
10
1.33148
20
0.199647
11
1.32772
21
0.198898
0
LINE
8
BLACK
6
CONTINUOUS
10
1.32772
20
0.198898
11
1.29228
21
0.198898
0
LINE
8
BLACK
6
CONTINUOUS
10
1.29228
20
0.198898
11
1.28852
21
0.199647
0
LINE
8
BLACK
6
CONTINUOUS
10
1.28852
20
0.199647
11
1.28532
21
0.20178
0
LINE
8
BLACK
6
CONTINUOUS
10
1.28532
20
0.20178
11
1.28319
21
0.204974
0
LINE
8
BLACK
6
CONTINUOUS
10
1.28319
20
0.204974
11
1.28244
21
0.20874
0
LINE
8
BLACK
6
CONTINUOUS
10
1.28244
20
0.20874
11
1.28244
21
0.229409
0
LINE
8
BLACK
6
CONTINUOUS
10
1.28244
20
0.229409
11
1.28319
21
0.233176
0
LINE
8
BLACK
6
CONTINUOUS
10
1.28319
20
0.233176
11
1.28532
21
0.236369
0
LINE
8
BLACK
6
CONTINUOUS
10
1.28532
20
0.236369
11
1.28852
21
0.238503
0
LINE
8
BLACK
6
CONTINUOUS
10
1.28852
20
0.238503
11
1.29228
21
0.239252
0
LINE
8
BLACK
6
CONTINUOUS
10
1.29228
20
0.239252
11
1.32772
21
0.239252
0
LINE
8
BLACK
6
CONTINUOUS
10
1.32772
20
0.239252
11
1.33148
21
0.238503
0
LINE
8
BLACK
6
CONTINUOUS
10
0.692343
20
0.2253
11
0.672657
21
0.2253
0
LINE
8
BLACK
6
CONTINUOUS
10
0.672657
20
0.2253
11
0.672657
21
0.2647
0
LINE
8
BLACK
6
CONTINUOUS
10
0.672657
20
0.2647
11
0.692343
21
0.2647
0
LINE
8
BLACK
6
CONTINUOUS
10
0.692343
20
0.2647
11
0.692343
21
0.2253
0
LINE
8
BLACK
6
CONTINUOUS
10
0.729843
20
0.2253
11
0.710157
21
0.2253
0
LINE
8
BLACK
6
CONTINUOUS
10
0.710157
20
0.2253
11
0.710157
21
0.2647
0
LINE
8
BLACK
6
CONTINUOUS
10
0.710157
20
0.2647
11
0.729843
21
0.2647
0
LINE
8
BLACK
6
CONTINUOUS
10
0.729843
20
0.2647
11
0.729843
21
0.2253
0
LINE
8
BLACK
6
CONTINUOUS
10
0.767343
20
0.2253
11
0.747657
21
0.2253
0
LINE
8
BLACK
6
CONTINUOUS
10
0.747657
20
0.2253
11
0.747657
21
0.2647
0
LINE
8
BLACK
6
CONTINUOUS
10
0.747657
20
0.2647
11
0.767343
21
0.2647
0
LINE
8
BLACK
6
CONTINUOUS
10
0.767343
20
0.2647
11
0.767343
21
0.2253
0
LINE
8
BLACK
6
CONTINUOUS
10
0.509458
20
0.299012
11
0.512651
21
0.296878
0
LINE
8
BLACK
6
CONTINUOUS
10
0.512651
20
0.296878
11
0.514785
21
0.293685
0
LINE
8
BLACK
6
CONTINUOUS
10
0.514785
20
0.293685
11
0.515534
21
0.289919
0
LINE
8
BLACK
6
CONTINUOUS
10
0.515534
20
0.289919
11
0.515534
21
0.270234
0
LINE
8
BLACK
6
CONTINUOUS
10
0.515534
20
0.270234
11
0.514785
21
0.266467
0
LINE
8
BLACK
6
CONTINUOUS
10
0.514785
20
0.266467
11
0.512651
21
0.263274
0
LINE
8
BLACK
6
CONTINUOUS
10
0.512651
20
0.263274
11
0.509458
21
0.26114
0
LINE
8
BLACK
6
CONTINUOUS
10
0.509458
20
0.26114
11
0.505692
21
0.260391
0
LINE
8
BLACK
6
CONTINUOUS
10
0.505692
20
0.260391
11
0.46829
21
0.260391
0
LINE
8
BLACK
6
CONTINUOUS
10
0.46829
20
0.260391
11
0.464524
21
0.26114
0
LINE
8
BLACK
6
CONTINUOUS
10
0.464524
20
0.26114
11
0.46133
21
0.263274
0
LINE
8
BLACK
6
CONTINUOUS
10
0.46133
20
0.263274
11
0.459197
21
0.266467
0
LINE
8
BLACK
6
CONTINUOUS
10
0.459197
20
0.266467
11
0.458448
21
0.270234
0
LINE
8
BLACK
6
CONTINUOUS
10
0.458448
20
0.270234
11
0.458448
21
0.289919
0
LINE
8
BLACK
6
CONTINUOUS
10
0.458448
20
0.289919
11
0.459197
21
0.293685
0
LINE
8
BLACK
6
CONTINUOUS
10
0.459197
20
0.293685
11
0.46133
21
0.296878
0
LINE
8
BLACK
6
CONTINUOUS
10
0.46133
20
0.296878
11
0.464524
21
0.299012
0
LINE
8
BLACK
6
CONTINUOUS
10
0.464524
20
0.299012
11
0.46829
21
0.299761
0
LINE
8
BLACK
6
CONTINUOUS
10
0.46829
20
0.299761
11
0.505692
21
0.299761
0
LINE
8
BLACK
6
CONTINUOUS
10
0.505692
20
0.299761
11
0.509458
21
0.299012
0
LINE
8
BLACK
6
CONTINUOUS
10
0.595994
20
0.300193
11
0.599187
21
0.298059
0
LINE
8
BLACK
6
CONTINUOUS
10
0.599187
20
0.298059
11
0.60132
21
0.294866
0
LINE
8
BLACK
6
CONTINUOUS
10
0.60132
20
0.294866
11
0.60207
21
0.2911
0
LINE
8
BLACK
6
CONTINUOUS
10
0.60207
20
0.2911
11
0.60207
21
0.27043
0
LINE
8
BLACK
6
CONTINUOUS
10
0.60207
20
0.27043
11
0.60132
21
0.266664
0
LINE
8
BLACK
6
CONTINUOUS
10
0.60132
20
0.266664
11
0.599187
21
0.263471
0
LINE
8
BLACK
6
CONTINUOUS
10
0.599187
20
0.263471
11
0.595994
21
0.261337
0
LINE
8
BLACK
6
CONTINUOUS
10
0.595994
20
0.261337
11
0.592227
21
0.260588
0
LINE
8
BLACK
6
CONTINUOUS
10
0.592227
20
0.260588
11
0.556794
21
0.260588
0
LINE
8
BLACK
6
CONTINUOUS
10
0.556794
20
0.260588
11
0.553027
21
0.261337
0
LINE
8
BLACK
6
CONTINUOUS
10
0.553027
20
0.261337
11
0.549834
21
0.263471
0
LINE
8
BLACK
6
CONTINUOUS
10
0.549834
20
0.263471
11
0.547701
21
0.266664
0
LINE
8
BLACK
6
CONTINUOUS
10
0.547701
20
0.266664
11
0.546952
21
0.27043
0
LINE
8
BLACK
6
CONTINUOUS
10
0.546952
20
0.27043
11
0.546952
21
0.2911
0
LINE
8
BLACK
6
CONTINUOUS
10
0.546952
20
0.2911
11
0.547701
21
0.294866
0
LINE
8
BLACK
6
CONTINUOUS
10
0.547701
20
0.294866
11
0.549834
21
0.298059
0
LINE
8
BLACK
6
CONTINUOUS
10
0.549834
20
0.298059
11
0.553027
21
0.300193
0
LINE
8
BLACK
6
CONTINUOUS
10
0.553027
20
0.300193
11
0.556794
21
0.300942
0
LINE
8
BLACK
6
CONTINUOUS
10
0.556794
20
0.300942
11
0.592227
21
0.300942
0
LINE
8
BLACK
6
CONTINUOUS
10
0.592227
20
0.300942
11
0.595994
21
0.300193
0
LINE
8
BLACK
6
CONTINUOUS
10
1.04148
20
0.305353
11
1.04468
21
0.30322
0
LINE
8
BLACK
6
CONTINUOUS
10
1.04468
20
0.30322
11
1.04681
21
0.300026
0
LINE
8
BLACK
6
CONTINUOUS
10
1.04681
20
0.300026
11
1.04756
21
0.29626
0
LINE
8
BLACK
6
CONTINUOUS
10
1.04756
20
0.29626
11
1.04756
21
0.275591
0
LINE
8
BLACK
6
CONTINUOUS
10
1.04756
20
0.275591
11
1.04681
21
0.271824
0
LINE
8
BLACK
6
CONTINUOUS
10
1.04681
20
0.271824
11
1.04468
21
0.268631
0
LINE
8
BLACK
6
CONTINUOUS
10
1.04468
20
0.268631
11
1.04148
21
0.266497
0
LINE
8
BLACK
6
CONTINUOUS
10
1.04148
20
0.266497
11
1.03772
21
0.265748
0
LINE
8
BLACK
6
CONTINUOUS
10
1.03772
20
0.265748
11
1.00228
21
0.265748
0
LINE
8
BLACK
6
CONTINUOUS
10
1.00228
20
0.265748
11
0.998517
21
0.266497
0
LINE
8
BLACK
6
CONTINUOUS
10
0.998517
20
0.266497
11
0.995324
21
0.268631
0
LINE
8
BLACK
6
CONTINUOUS
10
0.995324
20
0.268631
11
0.99319
21
0.271824
0
LINE
8
BLACK
6
CONTINUOUS
10
0.99319
20
0.271824
11
0.992441
21
0.275591
0
LINE
8
BLACK
6
CONTINUOUS
10
0.992441
20
0.275591
11
0.992441
21
0.29626
0
LINE
8
BLACK
6
CONTINUOUS
10
0.992441
20
0.29626
11
0.99319
21
0.300026
0
LINE
8
BLACK
6
CONTINUOUS
10
0.99319
20
0.300026
11
0.995324
21
0.30322
0
LINE
8
BLACK
6
CONTINUOUS
10
0.995324
20
0.30322
11
0.998517
21
0.305353
0
LINE
8
BLACK
6
CONTINUOUS
10
0.998517
20
0.305353
11
1.00228
21
0.306102
0
LINE
8
BLACK
6
CONTINUOUS
10
1.00228
20
0.306102
11
1.03772
21
0.306102
0
LINE
8
BLACK
6
CONTINUOUS
10
1.03772
20
0.306102
11
1.04148
21
0.305353
0
LINE
8
BLACK
6
CONTINUOUS
10
1.13648
20
0.305353
11
1.13968
21
0.30322
0
LINE
8
BLACK
6
CONTINUOUS
10
1.13968
20
0.30322
11
1.14181
21
0.300026
0
LINE
8
BLACK
6
CONTINUOUS
10
1.14181
20
0.300026
11
1.14256
21
0.29626
0
LINE
8
BLACK
6
CONTINUOUS
10
1.14256
20
0.29626
11
1.14256
21
0.275591
0
LINE
8
BLACK
6
CONTINUOUS
10
1.14256
20
0.275591
11
1.14181
21
0.271824
0
LINE
8
BLACK
6
CONTINUOUS
10
1.14181
20
0.271824
11
1.13968
21
0.268631
0
LINE
8
BLACK
6
CONTINUOUS
10
1.13968
20
0.268631
11
1.13648
21
0.266497
0
LINE
8
BLACK
6
CONTINUOUS
10
1.13648
20
0.266497
11
1.13272
21
0.265748
0
LINE
8
BLACK
6
CONTINUOUS
10
1.13272
20
0.265748
11
1.09728
21
0.265748
0
LINE
8
BLACK
6
CONTINUOUS
10
1.09728
20
0.265748
11
1.09352
21
0.266497
0
LINE
8
BLACK
6
CONTINUOUS
10
1.09352
20
0.266497
11
1.09032
21
0.268631
0
LINE
8
BLACK
6
CONTINUOUS
10
1.09032
20
0.268631
11
1.08819
21
0.271824
0
LINE
8
BLACK
6
CONTINUOUS
10
1.08819
20
0.271824
11
1.08744
21
0.275591
0
LINE
8
BLACK
6
CONTINUOUS
10
1.08744
20
0.275591
11
1.08744
21
0.29626
0
LINE
8
BLACK
6
CONTINUOUS
10
1.08744
20
0.29626
11
1.08819
21
0.300026
0
LINE
8
BLACK
6
CONTINUOUS
10
1.08819
20
0.300026
11
1.09032
21
0.30322
0
LINE
8
BLACK
6
CONTINUOUS
10
1.09032
20
0.30322
11
1.09352
21
0.305353
0
LINE
8
BLACK
6
CONTINUOUS
10
1.09352
20
0.305353
11
1.09728
21
0.306102
0
LINE
8
BLACK
6
CONTINUOUS
10
1.09728
20
0.306102
11
1.13272
21
0.306102
0
LINE
8
BLACK
6
CONTINUOUS
10
1.13272
20
0.306102
11
1.13648
21
0.305353
0
LINE
8
BLACK
6
CONTINUOUS
10
0.851208
20
0.322794
11
0.854401
21
0.320661
0
LINE
8
BLACK
6
CONTINUOUS
10
0.854401
20
0.320661
11
0.856534
21
0.317467
0
LINE
8
BLACK
6
CONTINUOUS
10
0.856534
20
0.317467
11
0.857283
21
0.313701
0
LINE
8
BLACK
6
CONTINUOUS
10
0.857283
20
0.313701
11
0.857283
21
0.276299
0
LINE
8
BLACK
6
CONTINUOUS
10
0.857283
20
0.276299
11
0.856534
21
0.272533
0
LINE
8
BLACK
6
CONTINUOUS
10
0.856534
20
0.272533
11
0.854401
21
0.269339
0
LINE
8
BLACK
6
CONTINUOUS
10
0.854401
20
0.269339
11
0.851208
21
0.267206
0
LINE
8
BLACK
6
CONTINUOUS
10
0.851208
20
0.267206
11
0.847441
21
0.266457
0
LINE
8
BLACK
6
CONTINUOUS
10
0.847441
20
0.266457
11
0.827756
21
0.266457
0
LINE
8
BLACK
6
CONTINUOUS
10
0.827756
20
0.266457
11
0.823989
21
0.267206
0
LINE
8
BLACK
6
CONTINUOUS
10
0.823989
20
0.267206
11
0.820796
21
0.269339
0
LINE
8
BLACK
6
CONTINUOUS
10
0.820796
20
0.269339
11
0.818663
21
0.272533
0
LINE
8
BLACK
6
CONTINUOUS
10
0.818663
20
0.272533
11
0.817913
21
0.276299
0
LINE
8
BLACK
6
CONTINUOUS
10
0.817913
20
0.276299
11
0.817913
21
0.313701
0
LINE
8
BLACK
6
CONTINUOUS
10
0.817913
20
0.313701
11
0.818663
21
0.317467
0
LINE
8
BLACK
6
CONTINUOUS
10
0.818663
20
0.317467
11
0.820796
21
0.320661
0
LINE
8
BLACK
6
CONTINUOUS
10
0.820796
20
0.320661
11
0.823989
21
0.322794
0
LINE
8
BLACK
6
CONTINUOUS
10
0.823989
20
0.322794
11
0.827756
21
0.323543
0
LINE
8
BLACK
6
CONTINUOUS
10
0.827756
20
0.323543
11
0.847441
21
0.323543
0
LINE
8
BLACK
6
CONTINUOUS
10
0.847441
20
0.323543
11
0.851208
21
0.322794
0
LINE
8
BLACK
6
CONTINUOUS
10
0.926011
20
0.322794
11
0.929204
21
0.320661
0
LINE
8
BLACK
6
CONTINUOUS
10
0.929204
20
0.320661
11
0.931337
21
0.317467
0
LINE
8
BLACK
6
CONTINUOUS
10
0.931337
20
0.317467
11
0.932087
21
0.313701
0
LINE
8
BLACK
6
CONTINUOUS
10
0.932087
20
0.313701
11
0.932087
21
0.276299
0
LINE
8
BLACK
6
CONTINUOUS
10
0.932087
20
0.276299
11
0.931337
21
0.272533
0
LINE
8
BLACK
6
CONTINUOUS
10
0.931337
20
0.272533
11
0.929204
21
0.269339
0
LINE
8
BLACK
6
CONTINUOUS
10
0.929204
20
0.269339
11
0.926011
21
0.267206
0
LINE
8
BLACK
6
CONTINUOUS
10
0.926011
20
0.267206
11
0.922244
21
0.266457
0
LINE
8
BLACK
6
CONTINUOUS
10
0.922244
20
0.266457
11
0.902559
21
0.266457
0
LINE
8
BLACK
6
CONTINUOUS
10
0.902559
20
0.266457
11
0.898792
21
0.267206
0
LINE
8
BLACK
6
CONTINUOUS
10
0.898792
20
0.267206
11
0.895599
21
0.269339
0
LINE
8
BLACK
6
CONTINUOUS
10
0.895599
20
0.269339
11
0.893466
21
0.272533
0
LINE
8
BLACK
6
CONTINUOUS
10
0.893466
20
0.272533
11
0.892717
21
0.276299
0
LINE
8
BLACK
6
CONTINUOUS
10
0.892717
20
0.276299
11
0.892717
21
0.313701
0
LINE
8
BLACK
6
CONTINUOUS
10
0.892717
20
0.313701
11
0.893466
21
0.317467
0
LINE
8
BLACK
6
CONTINUOUS
10
0.893466
20
0.317467
11
0.895599
21
0.320661
0
LINE
8
BLACK
6
CONTINUOUS
10
0.895599
20
0.320661
11
0.898792
21
0.322794
0
LINE
8
BLACK
6
CONTINUOUS
10
0.898792
20
0.322794
11
0.902559
21
0.323543
0
LINE
8
BLACK
6
CONTINUOUS
10
0.902559
20
0.323543
11
0.922244
21
0.323543
0
LINE
8
BLACK
6
CONTINUOUS
10
0.922244
20
0.323543
11
0.926011
21
0.322794
0
LINE
8
BLACK
6
CONTINUOUS
10
1.33148
20
0.310353
11
1.33468
21
0.30822
0
LINE
8
BLACK
6
CONTINUOUS
10
1.33468
20
0.30822
11
1.33681
21
0.305026
0
LINE
8
BLACK
6
CONTINUOUS
10
1.33681
20
0.305026
11
1.33756
21
0.30126
0
LINE
8
BLACK
6
CONTINUOUS
10
1.33756
20
0.30126
11
1.33756
21
0.280591
0
LINE
8
BLACK
6
CONTINUOUS
10
1.33756
20
0.280591
11
1.33681
21
0.276824
0
LINE
8
BLACK
6
CONTINUOUS
10
1.33681
20
0.276824
11
1.33468
21
0.273631
0
LINE
8
BLACK
6
CONTINUOUS
10
1.33468
20
0.273631
11
1.33148
21
0.271497
0
LINE
8
BLACK
6
CONTINUOUS
10
1.33148
20
0.271497
11
1.32772
21
0.270748
0
LINE
8
BLACK
6
CONTINUOUS
10
1.32772
20
0.270748
11
1.29228
21
0.270748
0
LINE
8
BLACK
6
CONTINUOUS
10
1.29228
20
0.270748
11
1.28852
21
0.271497
0
LINE
8
BLACK
6
CONTINUOUS
10
1.28852
20
0.271497
11
1.28532
21
0.273631
0
LINE
8
BLACK
6
CONTINUOUS
10
1.28532
20
0.273631
11
1.28319
21
0.276824
0
LINE
8
BLACK
6
CONTINUOUS
10
1.28319
20
0.276824
11
1.28244
21
0.280591
0
LINE
8
BLACK
6
CONTINUOUS
10
1.28244
20
0.280591
11
1.28244
21
0.30126
0
LINE
8
BLACK
6
CONTINUOUS
10
1.28244
20
0.30126
11
1.28319
21
0.305026
0
LINE
8
BLACK
6
CONTINUOUS
10
1.28319
20
0.305026
11
1.28532
21
0.30822
0
LINE
8
BLACK
6
CONTINUOUS
10
1.28532
20
0.30822
11
1.28852
21
0.310353
0
LINE
8
BLACK
6
CONTINUOUS
10
1.28852
20
0.310353
11
1.29228
21
0.311102
0
LINE
8
BLACK
6
CONTINUOUS
10
1.29228
20
0.311102
11
1.32772
21
0.311102
0
LINE
8
BLACK
6
CONTINUOUS
10
1.32772
20
0.311102
11
1.33148
21
0.310353
0
LINE
8
BLACK
6
CONTINUOUS
10
1.23747
20
0.311337
11
1.24066
21
0.309204
0
LINE
8
BLACK
6
CONTINUOUS
10
1.24066
20
0.309204
11
1.24279
21
0.306011
0
LINE
8
BLACK
6
CONTINUOUS
10
1.24279
20
0.306011
11
1.24354
21
0.302244
0
LINE
8
BLACK
6
CONTINUOUS
10
1.24354
20
0.302244
11
1.24354
21
0.282559
0
LINE
8
BLACK
6
CONTINUOUS
10
1.24354
20
0.282559
11
1.24279
21
0.278792
0
LINE
8
BLACK
6
CONTINUOUS
10
1.24279
20
0.278792
11
1.24066
21
0.275599
0
LINE
8
BLACK
6
CONTINUOUS
10
1.24066
20
0.275599
11
1.23747
21
0.273466
0
LINE
8
BLACK
6
CONTINUOUS
10
1.23747
20
0.273466
11
1.2337
21
0.272717
0
LINE
8
BLACK
6
CONTINUOUS
10
1.2337
20
0.272717
11
1.1963
21
0.272717
0
LINE
8
BLACK
6
CONTINUOUS
10
1.1963
20
0.272717
11
1.19253
21
0.273466
0
LINE
8
BLACK
6
CONTINUOUS
10
1.19253
20
0.273466
11
1.18934
21
0.275599
0
LINE
8
BLACK
6
CONTINUOUS
10
1.18934
20
0.275599
11
1.18721
21
0.278792
0
LINE
8
BLACK
6
CONTINUOUS
10
1.18721
20
0.278792
11
1.18646
21
0.282559
0
LINE
8
BLACK
6
CONTINUOUS
10
1.18646
20
0.282559
11
1.18646
21
0.302244
0
LINE
8
BLACK
6
CONTINUOUS
10
1.18646
20
0.302244
11
1.18721
21
0.306011
0
LINE
8
BLACK
6
CONTINUOUS
10
1.18721
20
0.306011
11
1.18934
21
0.309204
0
LINE
8
BLACK
6
CONTINUOUS
10
1.18934
20
0.309204
11
1.19253
21
0.311337
0
LINE
8
BLACK
6
CONTINUOUS
10
1.19253
20
0.311337
11
1.1963
21
0.312087
0
LINE
8
BLACK
6
CONTINUOUS
10
1.1963
20
0.312087
11
1.2337
21
0.312087
0
LINE
8
BLACK
6
CONTINUOUS
10
1.2337
20
0.312087
11
1.23747
21
0.311337
0
LINE
8
BLACK
6
CONTINUOUS
10
1.50247
20
0.321534
11
1.50566
21
0.319401
0
LINE
8
BLACK
6
CONTINUOUS
10
1.50566
20
0.319401
11
1.50779
21
0.316208
0
LINE
8
BLACK
6
CONTINUOUS
10
1.50779
20
0.316208
11
1.50854
21
0.312441
0
LINE
8
BLACK
6
CONTINUOUS
10
1.50854
20
0.312441
11
1.50854
21
0.292756
0
LINE
8
BLACK
6
CONTINUOUS
10
1.50854
20
0.292756
11
1.50779
21
0.288989
0
LINE
8
BLACK
6
CONTINUOUS
10
1.50779
20
0.288989
11
1.50566
21
0.285796
0
LINE
8
BLACK
6
CONTINUOUS
10
1.50566
20
0.285796
11
1.50247
21
0.283663
0
LINE
8
BLACK
6
CONTINUOUS
10
1.50247
20
0.283663
11
1.4987
21
0.282913
0
LINE
8
BLACK
6
CONTINUOUS
10
1.4987
20
0.282913
11
1.4613
21
0.282913
0
LINE
8
BLACK
6
CONTINUOUS
10
1.4613
20
0.282913
11
1.45753
21
0.283663
0
LINE
8
BLACK
6
CONTINUOUS
10
1.45753
20
0.283663
11
1.45434
21
0.285796
0
LINE
8
BLACK
6
CONTINUOUS
10
1.45434
20
0.285796
11
1.45221
21
0.288989
0
LINE
8
BLACK
6
CONTINUOUS
10
1.45221
20
0.288989
11
1.45146
21
0.292756
0
LINE
8
BLACK
6
CONTINUOUS
10
1.45146
20
0.292756
11
1.45146
21
0.312441
0
LINE
8
BLACK
6
CONTINUOUS
10
1.45146
20
0.312441
11
1.45221
21
0.316208
0
LINE
8
BLACK
6
CONTINUOUS
10
1.45221
20
0.316208
11
1.45434
21
0.319401
0
LINE
8
BLACK
6
CONTINUOUS
10
1.45434
20
0.319401
11
1.45753
21
0.321534
0
LINE
8
BLACK
6
CONTINUOUS
10
1.45753
20
0.321534
11
1.4613
21
0.322283
0
LINE
8
BLACK
6
CONTINUOUS
10
1.4613
20
0.322283
11
1.4987
21
0.322283
0
LINE
8
BLACK
6
CONTINUOUS
10
1.4987
20
0.322283
11
1.50247
21
0.321534
0
LINE
8
BLACK
6
CONTINUOUS
10
1.41148
20
0.323503
11
1.41468
21
0.321369
0
LINE
8
BLACK
6
CONTINUOUS
10
1.41468
20
0.321369
11
1.41681
21
0.318176
0
LINE
8
BLACK
6
CONTINUOUS
10
1.41681
20
0.318176
11
1.41756
21
0.314409
0
LINE
8
BLACK
6
CONTINUOUS
10
1.41756
20
0.314409
11
1.41756
21
0.29374
0
LINE
8
BLACK
6
CONTINUOUS
10
1.41756
20
0.29374
11
1.41681
21
0.289974
0
LINE
8
BLACK
6
CONTINUOUS
10
1.41681
20
0.289974
11
1.41468
21
0.28678
0
LINE
8
BLACK
6
CONTINUOUS
10
1.41468
20
0.28678
11
1.41148
21
0.284647
0
LINE
8
BLACK
6
CONTINUOUS
10
1.41148
20
0.284647
11
1.40772
21
0.283898
0
LINE
8
BLACK
6
CONTINUOUS
10
1.40772
20
0.283898
11
1.37228
21
0.283898
0
LINE
8
BLACK
6
CONTINUOUS
10
1.37228
20
0.283898
11
1.36852
21
0.284647
0
LINE
8
BLACK
6
CONTINUOUS
10
1.36852
20
0.284647
11
1.36532
21
0.28678
0
LINE
8
BLACK
6
CONTINUOUS
10
1.36532
20
0.28678
11
1.36319
21
0.289974
0
LINE
8
BLACK
6
CONTINUOUS
10
1.36319
20
0.289974
11
1.36244
21
0.29374
0
LINE
8
BLACK
6
CONTINUOUS
10
1.36244
20
0.29374
11
1.36244
21
0.314409
0
LINE
8
BLACK
6
CONTINUOUS
10
1.36244
20
0.314409
11
1.36319
21
0.318176
0
LINE
8
BLACK
6
CONTINUOUS
10
1.36319
20
0.318176
11
1.36532
21
0.321369
0
LINE
8
BLACK
6
CONTINUOUS
10
1.36532
20
0.321369
11
1.36852
21
0.323503
0
LINE
8
BLACK
6
CONTINUOUS
10
1.36852
20
0.323503
11
1.37228
21
0.324252
0
LINE
8
BLACK
6
CONTINUOUS
10
1.37228
20
0.324252
11
1.40772
21
0.324252
0
LINE
8
BLACK
6
CONTINUOUS
10
1.40772
20
0.324252
11
1.41148
21
0.323503
0
LINE
8
BLACK
6
CONTINUOUS
10
0.692363
20
0.3253
11
0.672637
21
0.3253
0
LINE
8
BLACK
6
CONTINUOUS
10
0.672637
20
0.3253
11
0.672637
21
0.3647
0
LINE
8
BLACK
6
CONTINUOUS
10
0.672637
20
0.3647
11
0.692363
21
0.3647
0
LINE
8
BLACK
6
CONTINUOUS
10
0.692363
20
0.3647
11
0.692363
21
0.3253
0
LINE
8
BLACK
6
CONTINUOUS
10
0.729843
20
0.3253
11
0.710157
21
0.3253
0
LINE
8
BLACK
6
CONTINUOUS
10
0.710157
20
0.3253
11
0.710157
21
0.3647
0
LINE
8
BLACK
6
CONTINUOUS
10
0.710157
20
0.3647
11
0.729843
21
0.3647
0
LINE
8
BLACK
6
CONTINUOUS
10
0.729843
20
0.3647
11
0.729843
21
0.3253
0
LINE
8
BLACK
6
CONTINUOUS
10
0.767343
20
0.3253
11
0.747657
21
0.3253
0
LINE
8
BLACK
6
CONTINUOUS
10
0.747657
20
0.3253
11
0.747657
21
0.3647
0
LINE
8
BLACK
6
CONTINUOUS
10
0.747657
20
0.3647
11
0.767343
21
0.3647
0
LINE
8
BLACK
6
CONTINUOUS
10
0.767343
20
0.3647
11
0.767343
21
0.3253
0
LINE
8
BLACK
6
CONTINUOUS
10
0.210656
20
0.389507
11
0.213849
21
0.387373
0
LINE
8
BLACK
6
CONTINUOUS
10
0.213849
20
0.387373
11
0.215983
21
0.38418
0
LINE
8
BLACK
6
CONTINUOUS
10
0.215983
20
0.38418
11
0.216732
21
0.380413
0
LINE
8
BLACK
6
CONTINUOUS
10
0.216732
20
0.380413
11
0.216732
21
0.34498
0
LINE
8
BLACK
6
CONTINUOUS
10
0.216732
20
0.34498
11
0.215983
21
0.341214
0
LINE
8
BLACK
6
CONTINUOUS
10
0.215983
20
0.341214
11
0.213849
21
0.338021
0
LINE
8
BLACK
6
CONTINUOUS
10
0.213849
20
0.338021
11
0.210656
21
0.335887
0
LINE
8
BLACK
6
CONTINUOUS
10
0.210656
20
0.335887
11
0.20689
21
0.335138
0
LINE
8
BLACK
6
CONTINUOUS
10
0.20689
20
0.335138
11
0.18622
21
0.335138
0
LINE
8
BLACK
6
CONTINUOUS
10
0.18622
20
0.335138
11
0.182454
21
0.335887
0
LINE
8
BLACK
6
CONTINUOUS
10
0.182454
20
0.335887
11
0.179261
21
0.338021
0
LINE
8
BLACK
6
CONTINUOUS
10
0.179261
20
0.338021
11
0.177127
21
0.341214
0
LINE
8
BLACK
6
CONTINUOUS
10
0.177127
20
0.341214
11
0.176378
21
0.34498
0
LINE
8
BLACK
6
CONTINUOUS
10
0.176378
20
0.34498
11
0.176378
21
0.380413
0
LINE
8
BLACK
6
CONTINUOUS
10
0.176378
20
0.380413
11
0.177127
21
0.38418
0
LINE
8
BLACK
6
CONTINUOUS
10
0.177127
20
0.38418
11
0.179261
21
0.387373
0
LINE
8
BLACK
6
CONTINUOUS
10
0.179261
20
0.387373
11
0.182454
21
0.389507
0
LINE
8
BLACK
6
CONTINUOUS
10
0.182454
20
0.389507
11
0.18622
21
0.390256
0
LINE
8
BLACK
6
CONTINUOUS
10
0.18622
20
0.390256
11
0.20689
21
0.390256
0
LINE
8
BLACK
6
CONTINUOUS
10
0.20689
20
0.390256
11
0.210656
21
0.389507
0
LINE
8
BLACK
6
CONTINUOUS
10
0.282507
20
0.389507
11
0.2857
21
0.387373
0
LINE
8
BLACK
6
CONTINUOUS
10
0.2857
20
0.387373
11
0.287833
21
0.38418
0
LINE
8
BLACK
6
CONTINUOUS
10
0.287833
20
0.38418
11
0.288583
21
0.380413
0
LINE
8
BLACK
6
CONTINUOUS
10
0.288583
20
0.380413
11
0.288583
21
0.34498
0
LINE
8
BLACK
6
CONTINUOUS
10
0.288583
20
0.34498
11
0.287833
21
0.341214
0
LINE
8
BLACK
6
CONTINUOUS
10
0.287833
20
0.341214
11
0.2857
21
0.338021
0
LINE
8
BLACK
6
CONTINUOUS
10
0.2857
20
0.338021
11
0.282507
21
0.335887
0
LINE
8
BLACK
6
CONTINUOUS
10
0.282507
20
0.335887
11
0.27874
21
0.335138
0
LINE
8
BLACK
6
CONTINUOUS
10
0.27874
20
0.335138
11
0.258071
21
0.335138
0
LINE
8
BLACK
6
CONTINUOUS
10
0.258071
20
0.335138
11
0.254304
21
0.335887
0
LINE
8
BLACK
6
CONTINUOUS
10
0.254304
20
0.335887
11
0.251111
21
0.338021
0
LINE
8
BLACK
6
CONTINUOUS
10
0.251111
20
0.338021
11
0.248978
21
0.341214
0
LINE
8
BLACK
6
CONTINUOUS
10
0.248978
20
0.341214
11
0.248228
21
0.34498
0
LINE
8
BLACK
6
CONTINUOUS
10
0.248228
20
0.34498
11
0.248228
21
0.380413
0
LINE
8
BLACK
6
CONTINUOUS
10
0.248228
20
0.380413
11
0.248978
21
0.38418
0
LINE
8
BLACK
6
CONTINUOUS
10
0.248978
20
0.38418
11
0.251111
21
0.387373
0
LINE
8
BLACK
6
CONTINUOUS
10
0.251111
20
0.387373
11
0.254304
21
0.389507
0
LINE
8
BLACK
6
CONTINUOUS
10
0.254304
20
0.389507
11
0.258071
21
0.390256
0
LINE
8
BLACK
6
CONTINUOUS
10
0.258071
20
0.390256
11
0.27874
21
0.390256
0
LINE
8
BLACK
6
CONTINUOUS
10
0.27874
20
0.390256
11
0.282507
21
0.389507
0
LINE
8
BLACK
6
CONTINUOUS
10
1.41148
20
0.395353
11
1.41468
21
0.39322
0
LINE
8
BLACK
6
CONTINUOUS
10
1.41468
20
0.39322
11
1.41681
21
0.390026
0
LINE
8
BLACK
6
CONTINUOUS
10
1.41681
20
0.390026
11
1.41756
21
0.38626
0
LINE
8
BLACK
6
CONTINUOUS
10
1.41756
20
0.38626
11
1.41756
21
0.365591
0
LINE
8
BLACK
6
CONTINUOUS
10
1.41756
20
0.365591
11
1.41681
21
0.361824
0
LINE
8
BLACK
6
CONTINUOUS
10
1.41681
20
0.361824
11
1.41468
21
0.358631
0
LINE
8
BLACK
6
CONTINUOUS
10
1.41468
20
0.358631
11
1.41148
21
0.356497
0
LINE
8
BLACK
6
CONTINUOUS
10
1.41148
20
0.356497
11
1.40772
21
0.355748
0
LINE
8
BLACK
6
CONTINUOUS
10
1.40772
20
0.355748
11
1.37228
21
0.355748
0
LINE
8
BLACK
6
CONTINUOUS
10
1.37228
20
0.355748
11
1.36852
21
0.356497
0
LINE
8
BLACK
6
CONTINUOUS
10
1.36852
20
0.356497
11
1.36532
21
0.358631
0
LINE
8
BLACK
6
CONTINUOUS
10
1.36532
20
0.358631
11
1.36319
21
0.361824
0
LINE
8
BLACK
6
CONTINUOUS
10
1.36319
20
0.361824
11
1.36244
21
0.365591
0
LINE
8
BLACK
6
CONTINUOUS
10
1.36244
20
0.365591
11
1.36244
21
0.38626
0
LINE
8
BLACK
6
CONTINUOUS
10
1.36244
20
0.38626
11
1.36319
21
0.390026
0
LINE
8
BLACK
6
CONTINUOUS
10
1.36319
20
0.390026
11
1.36532
21
0.39322
0
LINE
8
BLACK
6
CONTINUOUS
10
1.36532
20
0.39322
11
1.36852
21
0.395353
0
LINE
8
BLACK
6
CONTINUOUS
10
1.36852
20
0.395353
11
1.37228
21
0.396102
0
LINE
8
BLACK
6
CONTINUOUS
10
1.37228
20
0.396102
11
1.40772
21
0.396102
0
LINE
8
BLACK
6
CONTINUOUS
10
1.40772
20
0.396102
11
1.41148
21
0.395353
0
LINE
8
BLACK
6
CONTINUOUS
10
1.50247
20
0.396337
11
1.50566
21
0.394204
0
LINE
8
BLACK
6
CONTINUOUS
10
1.50566
20
0.394204
11
1.50779
21
0.391011
0
LINE
8
BLACK
6
CONTINUOUS
10
1.50779
20
0.391011
11
1.50854
21
0.387244
0
LINE
8
BLACK
6
CONTINUOUS
10
1.50854
20
0.387244
11
1.50854
21
0.367559
0
LINE
8
BLACK
6
CONTINUOUS
10
1.50854
20
0.367559
11
1.50779
21
0.363792
0
LINE
8
BLACK
6
CONTINUOUS
10
1.50779
20
0.363792
11
1.50566
21
0.360599
0
LINE
8
BLACK
6
CONTINUOUS
10
1.50566
20
0.360599
11
1.50247
21
0.358466
0
LINE
8
BLACK
6
CONTINUOUS
10
1.50247
20
0.358466
11
1.4987
21
0.357717
0
LINE
8
BLACK
6
CONTINUOUS
10
1.4987
20
0.357717
11
1.4613
21
0.357717
0
LINE
8
BLACK
6
CONTINUOUS
10
1.4613
20
0.357717
11
1.45753
21
0.358466
0
LINE
8
BLACK
6
CONTINUOUS
10
1.45753
20
0.358466
11
1.45434
21
0.360599
0
LINE
8
BLACK
6
CONTINUOUS
10
1.45434
20
0.360599
11
1.45221
21
0.363792
0
LINE
8
BLACK
6
CONTINUOUS
10
1.45221
20
0.363792
11
1.45146
21
0.367559
0
LINE
8
BLACK
6
CONTINUOUS
10
1.45146
20
0.367559
11
1.45146
21
0.387244
0
LINE
8
BLACK
6
CONTINUOUS
10
1.45146
20
0.387244
11
1.45221
21
0.391011
0
LINE
8
BLACK
6
CONTINUOUS
10
1.45221
20
0.391011
11
1.45434
21
0.394204
0
LINE
8
BLACK
6
CONTINUOUS
10
1.45434
20
0.394204
11
1.45753
21
0.396337
0
LINE
8
BLACK
6
CONTINUOUS
10
1.45753
20
0.396337
11
1.4613
21
0.397087
0
LINE
8
BLACK
6
CONTINUOUS
10
1.4613
20
0.397087
11
1.4987
21
0.397087
0
LINE
8
BLACK
6
CONTINUOUS
10
1.4987
20
0.397087
11
1.50247
21
0.396337
0
LINE
8
BLACK
6
CONTINUOUS
10
0.847467
20
0.406534
11
0.850661
21
0.404401
0
LINE
8
BLACK
6
CONTINUOUS
10
0.850661
20
0.404401
11
0.852794
21
0.401208
0
LINE
8
BLACK
6
CONTINUOUS
10
0.852794
20
0.401208
11
0.853543
21
0.397441
0
LINE
8
BLACK
6
CONTINUOUS
10
0.853543
20
0.397441
11
0.853543
21
0.377756
0
LINE
8
BLACK
6
CONTINUOUS
10
0.853543
20
0.377756
11
0.852794
21
0.373989
0
LINE
8
BLACK
6
CONTINUOUS
10
0.852794
20
0.373989
11
0.850661
21
0.370796
0
LINE
8
BLACK
6
CONTINUOUS
10
0.850661
20
0.370796
11
0.847467
21
0.368663
0
LINE
8
BLACK
6
CONTINUOUS
10
0.847467
20
0.368663
11
0.843701
21
0.367913
0
LINE
8
BLACK
6
CONTINUOUS
10
0.843701
20
0.367913
11
0.806299
21
0.367913
0
LINE
8
BLACK
6
CONTINUOUS
10
0.806299
20
0.367913
11
0.802533
21
0.368663
0
LINE
8
BLACK
6
CONTINUOUS
10
0.802533
20
0.368663
11
0.799339
21
0.370796
0
LINE
8
BLACK
6
CONTINUOUS
10
0.799339
20
0.370796
11
0.797206
21
0.373989
0
LINE
8
BLACK
6
CONTINUOUS
10
0.797206
20
0.373989
11
0.796457
21
0.377756
0
LINE
8
BLACK
6
CONTINUOUS
10
0.796457
20
0.377756
11
0.796457
21
0.397441
0
LINE
8
BLACK
6
CONTINUOUS
10
0.796457
20
0.397441
11
0.797206
21
0.401208
0
LINE
8
BLACK
6
CONTINUOUS
10
0.797206
20
0.401208
11
0.799339
21
0.404401
0
LINE
8
BLACK
6
CONTINUOUS
10
0.799339
20
0.404401
11
0.802533
21
0.406534
0
LINE
8
BLACK
6
CONTINUOUS
10
0.802533
20
0.406534
11
0.806299
21
0.407283
0
LINE
8
BLACK
6
CONTINUOUS
10
0.806299
20
0.407283
11
0.843701
21
0.407283
0
LINE
8
BLACK
6
CONTINUOUS
10
0.843701
20
0.407283
11
0.847467
21
0.406534
0
LINE
8
BLACK
6
CONTINUOUS
10
0.947467
20
0.406534
11
0.950661
21
0.404401
0
LINE
8
BLACK
6
CONTINUOUS
10
0.950661
20
0.404401
11
0.952794
21
0.401208
0
LINE
8
BLACK
6
CONTINUOUS
10
0.952794
20
0.401208
11
0.953543
21
0.397441
0
LINE
8
BLACK
6
CONTINUOUS
10
0.953543
20
0.397441
11
0.953543
21
0.377756
0
LINE
8
BLACK
6
CONTINUOUS
10
0.953543
20
0.377756
11
0.952794
21
0.373989
0
LINE
8
BLACK
6
CONTINUOUS
10
0.952794
20
0.373989
11
0.950661
21
0.370796
0
LINE
8
BLACK
6
CONTINUOUS
10
0.950661
20
0.370796
11
0.947467
21
0.368663
0
LINE
8
BLACK
6
CONTINUOUS
10
0.947467
20
0.368663
11
0.943701
21
0.367913
0
LINE
8
BLACK
6
CONTINUOUS
10
0.943701
20
0.367913
11
0.906299
21
0.367913
0
LINE
8
BLACK
6
CONTINUOUS
10
0.906299
20
0.367913
11
0.902533
21
0.368663
0
LINE
8
BLACK
6
CONTINUOUS
10
0.902533
20
0.368663
11
0.899339
21
0.370796
0
LINE
8
BLACK
6
CONTINUOUS
10
0.899339
20
0.370796
11
0.897206
21
0.373989
0
LINE
8
BLACK
6
CONTINUOUS
10
0.897206
20
0.373989
11
0.896457
21
0.377756
0
LINE
8
BLACK
6
CONTINUOUS
10
0.896457
20
0.377756
11
0.896457
21
0.397441
0
LINE
8
BLACK
6
CONTINUOUS
10
0.896457
20
0.397441
11
0.897206
21
0.401208
0
LINE
8
BLACK
6
CONTINUOUS
10
0.897206
20
0.401208
11
0.899339
21
0.404401
0
LINE
8
BLACK
6
CONTINUOUS
10
0.899339
20
0.404401
11
0.902533
21
0.406534
0
LINE
8
BLACK
6
CONTINUOUS
10
0.902533
20
0.406534
11
0.906299
21
0.407283
0
LINE
8
BLACK
6
CONTINUOUS
10
0.906299
20
0.407283
11
0.943701
21
0.407283
0
LINE
8
BLACK
6
CONTINUOUS
10
0.943701
20
0.407283
11
0.947467
21
0.406534
0
LINE
8
BLACK
6
CONTINUOUS
10
1.28348
20
0.414503
11
1.28668
21
0.412369
0
LINE
8
BLACK
6
CONTINUOUS
10
1.28668
20
0.412369
11
1.28881
21
0.409176
0
LINE
8
BLACK
6
CONTINUOUS
10
1.28881
20
0.409176
11
1.28956
21
0.405409
0
LINE
8
BLACK
6
CONTINUOUS
10
1.28956
20
0.405409
11
1.28956
21
0.38474
0
LINE
8
BLACK
6
CONTINUOUS
10
1.28956
20
0.38474
11
1.28881
21
0.380974
0
LINE
8
BLACK
6
CONTINUOUS
10
1.28881
20
0.380974
11
1.28668
21
0.37778
0
LINE
8
BLACK
6
CONTINUOUS
10
1.28668
20
0.37778
11
1.28348
21
0.375647
0
LINE
8
BLACK
6
CONTINUOUS
10
1.28348
20
0.375647
11
1.27972
21
0.374898
0
LINE
8
BLACK
6
CONTINUOUS
10
1.27972
20
0.374898
11
1.24428
21
0.374898
0
LINE
8
BLACK
6
CONTINUOUS
10
1.24428
20
0.374898
11
1.24052
21
0.375647
0
LINE
8
BLACK
6
CONTINUOUS
10
1.24052
20
0.375647
11
1.23732
21
0.37778
0
LINE
8
BLACK
6
CONTINUOUS
10
1.23732
20
0.37778
11
1.23519
21
0.380974
0
LINE
8
BLACK
6
CONTINUOUS
10
1.23519
20
0.380974
11
1.23444
21
0.38474
0
LINE
8
BLACK
6
CONTINUOUS
10
1.23444
20
0.38474
11
1.23444
21
0.405409
0
LINE
8
BLACK
6
CONTINUOUS
10
1.23444
20
0.405409
11
1.23519
21
0.409176
0
LINE
8
BLACK
6
CONTINUOUS
10
1.23519
20
0.409176
11
1.23732
21
0.412369
0
LINE
8
BLACK
6
CONTINUOUS
10
1.23732
20
0.412369
11
1.24052
21
0.414503
0
LINE
8
BLACK
6
CONTINUOUS
10
1.24052
20
0.414503
11
1.24428
21
0.415252
0
LINE
8
BLACK
6
CONTINUOUS
10
1.24428
20
0.415252
11
1.27972
21
0.415252
0
LINE
8
BLACK
6
CONTINUOUS
10
1.27972
20
0.415252
11
1.28348
21
0.414503
0
LINE
8
BLACK
6
CONTINUOUS
10
1.035
20
0.3775
11
1.015
21
0.3775
0
LINE
8
BLACK
6
CONTINUOUS
10
1.015
20
0.3775
11
1.015
21
0.4225
0
LINE
8
BLACK
6
CONTINUOUS
10
1.015
20
0.4225
11
1.035
21
0.4225
0
LINE
8
BLACK
6
CONTINUOUS
10
1.035
20
0.4225
11
1.035
21
0.3775
0
LINE
8
BLACK
6
CONTINUOUS
10
1.085
20
0.3775
11
1.065
21
0.3775
0
LINE
8
BLACK
6
CONTINUOUS
10
1.065
20
0.3775
11
1.065
21
0.4225
0
LINE
8
BLACK
6
CONTINUOUS
10
1.065
20
0.4225
11
1.085
21
0.4225
0
LINE
8
BLACK
6
CONTINUOUS
10
1.085
20
0.4225
11
1.085
21
0.3775
0
LINE
8
BLACK
6
CONTINUOUS
10
1.135
20
0.3775
11
1.115
21
0.3775
0
LINE
8
BLACK
6
CONTINUOUS
10
1.115
20
0.3775
11
1.115
21
0.4225
0
LINE
8
BLACK
6
CONTINUOUS
10
1.115
20
0.4225
11
1.135
21
0.4225
0
LINE
8
BLACK
6
CONTINUOUS
10
1.135
20
0.4225
11
1.135
21
0.3775
0
LINE
8
BLACK
6
CONTINUOUS
10
1.185
20
0.3775
11
1.165
21
0.3775
0
LINE
8
BLACK
6
CONTINUOUS
10
1.165
20
0.3775
11
1.165
21
0.4225
0
LINE
8
BLACK
6
CONTINUOUS
10
1.165
20
0.4225
11
1.185
21
0.4225
0
LINE
8
BLACK
6
CONTINUOUS
10
1.185
20
0.4225
11
1.185
21
0.3775
0
LINE
8
BLACK
6
CONTINUOUS
10
0.182676
20
0.47681
11
0.185869
21
0.474676
0
LINE
8
BLACK
6
CONTINUOUS
10
0.185869
20
0.474676
11
0.188003
21
0.471483
0
LINE
8
BLACK
6
CONTINUOUS
10
0.188003
20
0.471483
11
0.188752
21
0.467717
0
LINE
8
BLACK
6
CONTINUOUS
10
0.188752
20
0.467717
11
0.188752
21
0.432283
0
LINE
8
BLACK
6
CONTINUOUS
10
0.188752
20
0.432283
11
0.188003
21
0.428517
0
LINE
8
BLACK
6
CONTINUOUS
10
0.188003
20
0.428517
11
0.185869
21
0.425324
0
LINE
8
BLACK
6
CONTINUOUS
10
0.185869
20
0.425324
11
0.182676
21
0.42319
0
LINE
8
BLACK
6
CONTINUOUS
10
0.182676
20
0.42319
11
0.178909
21
0.422441
0
LINE
8
BLACK
6
CONTINUOUS
10
0.178909
20
0.422441
11
0.15824
21
0.422441
0
LINE
8
BLACK
6
CONTINUOUS
10
0.15824
20
0.422441
11
0.154474
21
0.42319
0
LINE
8
BLACK
6
CONTINUOUS
10
0.154474
20
0.42319
11
0.15128
21
0.425324
0
LINE
8
BLACK
6
CONTINUOUS
10
0.15128
20
0.425324
11
0.149147
21
0.428517
0
LINE
8
BLACK
6
CONTINUOUS
10
0.149147
20
0.428517
11
0.148398
21
0.432283
0
LINE
8
BLACK
6
CONTINUOUS
10
0.148398
20
0.432283
11
0.148398
21
0.467717
0
LINE
8
BLACK
6
CONTINUOUS
10
0.148398
20
0.467717
11
0.149147
21
0.471483
0
LINE
8
BLACK
6
CONTINUOUS
10
0.149147
20
0.471483
11
0.15128
21
0.474676
0
LINE
8
BLACK
6
CONTINUOUS
10
0.15128
20
0.474676
11
0.154474
21
0.47681
0
LINE
8
BLACK
6
CONTINUOUS
10
0.154474
20
0.47681
11
0.15824
21
0.477559
0
LINE
8
BLACK
6
CONTINUOUS
10
0.15824
20
0.477559
11
0.178909
21
0.477559
0
LINE
8
BLACK
6
CONTINUOUS
10
0.178909
20
0.477559
11
0.182676
21
0.47681
0
LINE
8
BLACK
6
CONTINUOUS
10
0.254526
20
0.47681
11
0.25772
21
0.474676
0
LINE
8
BLACK
6
CONTINUOUS
10
0.25772
20
0.474676
11
0.259853
21
0.471483
0
LINE
8
BLACK
6
CONTINUOUS
10
0.259853
20
0.471483
11
0.260602
21
0.467717
0
LINE
8
BLACK
6
CONTINUOUS
10
0.260602
20
0.467717
11
0.260602
21
0.432283
0
LINE
8
BLACK
6
CONTINUOUS
10
0.260602
20
0.432283
11
0.259853
21
0.428517
0
LINE
8
BLACK
6
CONTINUOUS
10
0.259853
20
0.428517
11
0.25772
21
0.425324
0
LINE
8
BLACK
6
CONTINUOUS
10
0.25772
20
0.425324
11
0.254526
21
0.42319
0
LINE
8
BLACK
6
CONTINUOUS
10
0.254526
20
0.42319
11
0.25076
21
0.422441
0
LINE
8
BLACK
6
CONTINUOUS
10
0.25076
20
0.422441
11
0.230091
21
0.422441
0
LINE
8
BLACK
6
CONTINUOUS
10
0.230091
20
0.422441
11
0.226324
21
0.42319
0
LINE
8
BLACK
6
CONTINUOUS
10
0.226324
20
0.42319
11
0.223131
21
0.425324
0
LINE
8
BLACK
6
CONTINUOUS
10
0.223131
20
0.425324
11
0.220997
21
0.428517
0
LINE
8
BLACK
6
CONTINUOUS
10
0.220997
20
0.428517
11
0.220248
21
0.432283
0
LINE
8
BLACK
6
CONTINUOUS
10
0.220248
20
0.432283
11
0.220248
21
0.467717
0
LINE
8
BLACK
6
CONTINUOUS
10
0.220248
20
0.467717
11
0.220997
21
0.471483
0
LINE
8
BLACK
6
CONTINUOUS
10
0.220997
20
0.471483
11
0.223131
21
0.474676
0
LINE
8
BLACK
6
CONTINUOUS
10
0.223131
20
0.474676
11
0.226324
21
0.47681
0
LINE
8
BLACK
6
CONTINUOUS
10
0.226324
20
0.47681
11
0.230091
21
0.477559
0
LINE
8
BLACK
6
CONTINUOUS
10
0.230091
20
0.477559
11
0.25076
21
0.477559
0
LINE
8
BLACK
6
CONTINUOUS
10
0.25076
20
0.477559
11
0.254526
21
0.47681
0
LINE
8
BLACK
6
CONTINUOUS
10
1.49548
20
0.473503
11
1.49868
21
0.471369
0
LINE
8
BLACK
6
CONTINUOUS
10
1.49868
20
0.471369
11
1.50081
21
0.468176
0
LINE
8
BLACK
6
CONTINUOUS
10
1.50081
20
0.468176
11
1.50156
21
0.464409
0
LINE
8
BLACK
6
CONTINUOUS
10
1.50156
20
0.464409
11
1.50156
21
0.44374
0
LINE
8
BLACK
6
CONTINUOUS
10
1.50156
20
0.44374
11
1.50081
21
0.439974
0
LINE
8
BLACK
6
CONTINUOUS
10
1.50081
20
0.439974
11
1.49868
21
0.43678
0
LINE
8
BLACK
6
CONTINUOUS
10
1.49868
20
0.43678
11
1.49548
21
0.434647
0
LINE
8
BLACK
6
CONTINUOUS
10
1.49548
20
0.434647
11
1.49172
21
0.433898
0
LINE
8
BLACK
6
CONTINUOUS
10
1.49172
20
0.433898
11
1.45628
21
0.433898
0
LINE
8
BLACK
6
CONTINUOUS
10
1.45628
20
0.433898
11
1.45252
21
0.434647
0
LINE
8
BLACK
6
CONTINUOUS
10
1.45252
20
0.434647
11
1.44932
21
0.43678
0
LINE
8
BLACK
6
CONTINUOUS
10
1.44932
20
0.43678
11
1.44719
21
0.439974
0
LINE
8
BLACK
6
CONTINUOUS
10
1.44719
20
0.439974
11
1.44644
21
0.44374
0
LINE
8
BLACK
6
CONTINUOUS
10
1.44644
20
0.44374
11
1.44644
21
0.464409
0
LINE
8
BLACK
6
CONTINUOUS
10
1.44644
20
0.464409
11
1.44719
21
0.468176
0
LINE
8
BLACK
6
CONTINUOUS
10
1.44719
20
0.468176
11
1.44932
21
0.471369
0
LINE
8
BLACK
6
CONTINUOUS
10
1.44932
20
0.471369
11
1.45252
21
0.473503
0
LINE
8
BLACK
6
CONTINUOUS
10
1.45252
20
0.473503
11
1.45628
21
0.474252
0
LINE
8
BLACK
6
CONTINUOUS
10
1.45628
20
0.474252
11
1.49172
21
0.474252
0
LINE
8
BLACK
6
CONTINUOUS
10
1.49172
20
0.474252
11
1.49548
21
0.473503
0
LINE
8
BLACK
6
CONTINUOUS
10
1.36348
20
0.477503
11
1.36668
21
0.475369
0
LINE
8
BLACK
6
CONTINUOUS
10
1.36668
20
0.475369
11
1.36881
21
0.472176
0
LINE
8
BLACK
6
CONTINUOUS
10
1.36881
20
0.472176
11
1.36956
21
0.468409
0
LINE
8
BLACK
6
CONTINUOUS
10
1.36956
20
0.468409
11
1.36956
21
0.44774
0
LINE
8
BLACK
6
CONTINUOUS
10
1.36956
20
0.44774
11
1.36881
21
0.443974
0
LINE
8
BLACK
6
CONTINUOUS
10
1.36881
20
0.443974
11
1.36668
21
0.44078
0
LINE
8
BLACK
6
CONTINUOUS
10
1.36668
20
0.44078
11
1.36348
21
0.438647
0
LINE
8
BLACK
6
CONTINUOUS
10
1.36348
20
0.438647
11
1.35972
21
0.437898
0
LINE
8
BLACK
6
CONTINUOUS
10
1.35972
20
0.437898
11
1.32428
21
0.437898
0
LINE
8
BLACK
6
CONTINUOUS
10
1.32428
20
0.437898
11
1.32052
21
0.438647
0
LINE
8
BLACK
6
CONTINUOUS
10
1.32052
20
0.438647
11
1.31732
21
0.44078
0
LINE
8
BLACK
6
CONTINUOUS
10
1.31732
20
0.44078
11
1.31519
21
0.443974
0
LINE
8
BLACK
6
CONTINUOUS
10
1.31519
20
0.443974
11
1.31444
21
0.44774
0
LINE
8
BLACK
6
CONTINUOUS
10
1.31444
20
0.44774
11
1.31444
21
0.468409
0
LINE
8
BLACK
6
CONTINUOUS
10
1.31444
20
0.468409
11
1.31519
21
0.472176
0
LINE
8
BLACK
6
CONTINUOUS
10
1.31519
20
0.472176
11
1.31732
21
0.475369
0
LINE
8
BLACK
6
CONTINUOUS
10
1.31732
20
0.475369
11
1.32052
21
0.477503
0
LINE
8
BLACK
6
CONTINUOUS
10
1.32052
20
0.477503
11
1.32428
21
0.478252
0
LINE
8
BLACK
6
CONTINUOUS
10
1.32428
20
0.478252
11
1.35972
21
0.478252
0
LINE
8
BLACK
6
CONTINUOUS
10
1.35972
20
0.478252
11
1.36348
21
0.477503
0
LINE
8
BLACK
6
CONTINUOUS
10
0.847467
20
0.481337
11
0.850661
21
0.479204
0
LINE
8
BLACK
6
CONTINUOUS
10
0.850661
20
0.479204
11
0.852794
21
0.476011
0
LINE
8
BLACK
6
CONTINUOUS
10
0.852794
20
0.476011
11
0.853543
21
0.472244
0
LINE
8
BLACK
6
CONTINUOUS
10
0.853543
20
0.472244
11
0.853543
21
0.452559
0
LINE
8
BLACK
6
CONTINUOUS
10
0.853543
20
0.452559
11
0.852794
21
0.448792
0
LINE
8
BLACK
6
CONTINUOUS
10
0.852794
20
0.448792
11
0.850661
21
0.445599
0
LINE
8
BLACK
6
CONTINUOUS
10
0.850661
20
0.445599
11
0.847467
21
0.443466
0
LINE
8
BLACK
6
CONTINUOUS
10
0.847467
20
0.443466
11
0.843701
21
0.442717
0
LINE
8
BLACK
6
CONTINUOUS
10
0.843701
20
0.442717
11
0.806299
21
0.442717
0
LINE
8
BLACK
6
CONTINUOUS
10
0.806299
20
0.442717
11
0.802533
21
0.443466
0
LINE
8
BLACK
6
CONTINUOUS
10
0.802533
20
0.443466
11
0.799339
21
0.445599
0
LINE
8
BLACK
6
CONTINUOUS
10
0.799339
20
0.445599
11
0.797206
21
0.448792
0
LINE
8
BLACK
6
CONTINUOUS
10
0.797206
20
0.448792
11
0.796457
21
0.452559
0
LINE
8
BLACK
6
CONTINUOUS
10
0.796457
20
0.452559
11
0.796457
21
0.472244
0
LINE
8
BLACK
6
CONTINUOUS
10
0.796457
20
0.472244
11
0.797206
21
0.476011
0
LINE
8
BLACK
6
CONTINUOUS
10
0.797206
20
0.476011
11
0.799339
21
0.479204
0
LINE
8
BLACK
6
CONTINUOUS
10
0.799339
20
0.479204
11
0.802533
21
0.481337
0
LINE
8
BLACK
6
CONTINUOUS
10
0.802533
20
0.481337
11
0.806299
21
0.482087
0
LINE
8
BLACK
6
CONTINUOUS
10
0.806299
20
0.482087
11
0.843701
21
0.482087
0
LINE
8
BLACK
6
CONTINUOUS
10
0.843701
20
0.482087
11
0.847467
21
0.481337
0
LINE
8
BLACK
6
CONTINUOUS
10
0.947467
20
0.481337
11
0.950661
21
0.479204
0
LINE
8
BLACK
6
CONTINUOUS
10
0.950661
20
0.479204
11
0.952794
21
0.476011
0
LINE
8
BLACK
6
CONTINUOUS
10
0.952794
20
0.476011
11
0.953543
21
0.472244
0
LINE
8
BLACK
6
CONTINUOUS
10
0.953543
20
0.472244
11
0.953543
21
0.452559
0
LINE
8
BLACK
6
CONTINUOUS
10
0.953543
20
0.452559
11
0.952794
21
0.448792
0
LINE
8
BLACK
6
CONTINUOUS
10
0.952794
20
0.448792
11
0.950661
21
0.445599
0
LINE
8
BLACK
6
CONTINUOUS
10
0.950661
20
0.445599
11
0.947467
21
0.443466
0
LINE
8
BLACK
6
CONTINUOUS
10
0.947467
20
0.443466
11
0.943701
21
0.442717
0
LINE
8
BLACK
6
CONTINUOUS
10
0.943701
20
0.442717
11
0.906299
21
0.442717
0
LINE
8
BLACK
6
CONTINUOUS
10
0.906299
20
0.442717
11
0.902533
21
0.443466
0
LINE
8
BLACK
6
CONTINUOUS
10
0.902533
20
0.443466
11
0.899339
21
0.445599
0
LINE
8
BLACK
6
CONTINUOUS
10
0.899339
20
0.445599
11
0.897206
21
0.448792
0
LINE
8
BLACK
6
CONTINUOUS
10
0.897206
20
0.448792
11
0.896457
21
0.452559
0
LINE
8
BLACK
6
CONTINUOUS
10
0.896457
20
0.452559
11
0.896457
21
0.472244
0
LINE
8
BLACK
6
CONTINUOUS
10
0.896457
20
0.472244
11
0.897206
21
0.476011
0
LINE
8
BLACK
6
CONTINUOUS
10
0.897206
20
0.476011
11
0.899339
21
0.479204
0
LINE
8
BLACK
6
CONTINUOUS
10
0.899339
20
0.479204
11
0.902533
21
0.481337
0
LINE
8
BLACK
6
CONTINUOUS
10
0.902533
20
0.481337
11
0.906299
21
0.482087
0
LINE
8
BLACK
6
CONTINUOUS
10
0.906299
20
0.482087
11
0.943701
21
0.482087
0
LINE
8
BLACK
6
CONTINUOUS
10
0.943701
20
0.482087
11
0.947467
21
0.481337
0
LINE
8
BLACK
6
CONTINUOUS
10
1.28348
20
0.486353
11
1.28668
21
0.48422
0
LINE
8
BLACK
6
CONTINUOUS
10
1.28668
20
0.48422
11
1.28881
21
0.481026
0
LINE
8
BLACK
6
CONTINUOUS
10
1.28881
20
0.481026
11
1.28956
21
0.47726
0
LINE
8
BLACK
6
CONTINUOUS
10
1.28956
20
0.47726
11
1.28956
21
0.456591
0
LINE
8
BLACK
6
CONTINUOUS
10
1.28956
20
0.456591
11
1.28881
21
0.452824
0
LINE
8
BLACK
6
CONTINUOUS
10
1.28881
20
0.452824
11
1.28668
21
0.449631
0
LINE
8
BLACK
6
CONTINUOUS
10
1.28668
20
0.449631
11
1.28348
21
0.447497
0
LINE
8
BLACK
6
CONTINUOUS
10
1.28348
20
0.447497
11
1.27972
21
0.446748
0
LINE
8
BLACK
6
CONTINUOUS
10
1.27972
20
0.446748
11
1.24428
21
0.446748
0
LINE
8
BLACK
6
CONTINUOUS
10
1.24428
20
0.446748
11
1.24052
21
0.447497
0
LINE
8
BLACK
6
CONTINUOUS
10
1.24052
20
0.447497
11
1.23732
21
0.449631
0
LINE
8
BLACK
6
CONTINUOUS
10
1.23732
20
0.449631
11
1.23519
21
0.452824
0
LINE
8
BLACK
6
CONTINUOUS
10
1.23519
20
0.452824
11
1.23444
21
0.456591
0
LINE
8
BLACK
6
CONTINUOUS
10
1.23444
20
0.456591
11
1.23444
21
0.47726
0
LINE
8
BLACK
6
CONTINUOUS
10
1.23444
20
0.47726
11
1.23519
21
0.481026
0
LINE
8
BLACK
6
CONTINUOUS
10
1.23519
20
0.481026
11
1.23732
21
0.48422
0
LINE
8
BLACK
6
CONTINUOUS
10
1.23732
20
0.48422
11
1.24052
21
0.486353
0
LINE
8
BLACK
6
CONTINUOUS
10
1.24052
20
0.486353
11
1.24428
21
0.487102
0
LINE
8
BLACK
6
CONTINUOUS
10
1.24428
20
0.487102
11
1.27972
21
0.487102
0
LINE
8
BLACK
6
CONTINUOUS
10
1.27972
20
0.487102
11
1.28348
21
0.486353
0
LINE
8
BLACK
6
CONTINUOUS
10
0.657063
20
0.52707
11
0.658979
21
0.52579
0
LINE
8
BLACK
6
CONTINUOUS
10
0.658979
20
0.52579
11
0.660259
21
0.523874
0
LINE
8
BLACK
6
CONTINUOUS
10
0.660259
20
0.523874
11
0.660709
21
0.521614
0
LINE
8
BLACK
6
CONTINUOUS
10
0.660709
20
0.521614
11
0.660709
21
0.475354
0
LINE
8
BLACK
6
CONTINUOUS
10
0.660709
20
0.475354
11
0.660259
21
0.473094
0
LINE
8
BLACK
6
CONTINUOUS
10
0.660259
20
0.473094
11
0.658979
21
0.471179
0
LINE
8
BLACK
6
CONTINUOUS
10
0.658979
20
0.471179
11
0.657063
21
0.469898
0
LINE
8
BLACK
6
CONTINUOUS
10
0.657063
20
0.469898
11
0.654803
21
0.469449
0
LINE
8
BLACK
6
CONTINUOUS
10
0.654803
20
0.469449
11
0.642992
21
0.469449
0
LINE
8
BLACK
6
CONTINUOUS
10
0.642992
20
0.469449
11
0.640732
21
0.469898
0
LINE
8
BLACK
6
CONTINUOUS
10
0.640732
20
0.469898
11
0.638816
21
0.471179
0
LINE
8
BLACK
6
CONTINUOUS
10
0.638816
20
0.471179
11
0.637536
21
0.473094
0
LINE
8
BLACK
6
CONTINUOUS
10
0.637536
20
0.473094
11
0.637087
21
0.475354
0
LINE
8
BLACK
6
CONTINUOUS
10
0.637087
20
0.475354
11
0.637087
21
0.521614
0
LINE
8
BLACK
6
CONTINUOUS
10
0.637087
20
0.521614
11
0.637536
21
0.523874
0
LINE
8
BLACK
6
CONTINUOUS
10
0.637536
20
0.523874
11
0.638816
21
0.52579
0
LINE
8
BLACK
6
CONTINUOUS
10
0.638816
20
0.52579
11
0.640732
21
0.52707
0
LINE
8
BLACK
6
CONTINUOUS
10
0.640732
20
0.52707
11
0.642992
21
0.52752
0
LINE
8
BLACK
6
CONTINUOUS
10
0.642992
20
0.52752
11
0.654803
21
0.52752
0
LINE
8
BLACK
6
CONTINUOUS
10
0.654803
20
0.52752
11
0.657063
21
0.52707
0
LINE
8
BLACK
6
CONTINUOUS
10
0.402467
20
0.511534
11
0.405661
21
0.509401
0
LINE
8
BLACK
6
CONTINUOUS
10
0.405661
20
0.509401
11
0.407794
21
0.506208
0
LINE
8
BLACK
6
CONTINUOUS
10
0.407794
20
0.506208
11
0.408543
21
0.502441
0
LINE
8
BLACK
6
CONTINUOUS
10
0.408543
20
0.502441
11
0.408543
21
0.482756
0
LINE
8
BLACK
6
CONTINUOUS
10
0.408543
20
0.482756
11
0.407794
21
0.478989
0
LINE
8
BLACK
6
CONTINUOUS
10
0.407794
20
0.478989
11
0.405661
21
0.475796
0
LINE
8
BLACK
6
CONTINUOUS
10
0.405661
20
0.475796
11
0.402467
21
0.473663
0
LINE
8
BLACK
6
CONTINUOUS
10
0.402467
20
0.473663
11
0.398701
21
0.472913
0
LINE
8
BLACK
6
CONTINUOUS
10
0.398701
20
0.472913
11
0.361299
21
0.472913
0
LINE
8
BLACK
6
CONTINUOUS
10
0.361299
20
0.472913
11
0.357533
21
0.473663
0
LINE
8
BLACK
6
CONTINUOUS
10
0.357533
20
0.473663
11
0.354339
21
0.475796
0
LINE
8
BLACK
6
CONTINUOUS
10
0.354339
20
0.475796
11
0.352206
21
0.478989
0
LINE
8
BLACK
6
CONTINUOUS
10
0.352206
20
0.478989
11
0.351457
21
0.482756
0
LINE
8
BLACK
6
CONTINUOUS
10
0.351457
20
0.482756
11
0.351457
21
0.502441
0
LINE
8
BLACK
6
CONTINUOUS
10
0.351457
20
0.502441
11
0.352206
21
0.506208
0
LINE
8
BLACK
6
CONTINUOUS
10
0.352206
20
0.506208
11
0.354339
21
0.509401
0
LINE
8
BLACK
6
CONTINUOUS
10
0.354339
20
0.509401
11
0.357533
21
0.511534
0
LINE
8
BLACK
6
CONTINUOUS
10
0.357533
20
0.511534
11
0.361299
21
0.512283
0
LINE
8
BLACK
6
CONTINUOUS
10
0.361299
20
0.512283
11
0.398701
21
0.512283
0
LINE
8
BLACK
6
CONTINUOUS
10
0.398701
20
0.512283
11
0.402467
21
0.511534
0
LINE
8
BLACK
6
CONTINUOUS
10
0.266467
20
0.538034
11
0.269661
21
0.535901
0
LINE
8
BLACK
6
CONTINUOUS
10
0.269661
20
0.535901
11
0.271794
21
0.532708
0
LINE
8
BLACK
6
CONTINUOUS
10
0.271794
20
0.532708
11
0.272543
21
0.528941
0
LINE
8
BLACK
6
CONTINUOUS
10
0.272543
20
0.528941
11
0.272543
21
0.509256
0
LINE
8
BLACK
6
CONTINUOUS
10
0.272543
20
0.509256
11
0.271794
21
0.505489
0
LINE
8
BLACK
6
CONTINUOUS
10
0.271794
20
0.505489
11
0.269661
21
0.502296
0
LINE
8
BLACK
6
CONTINUOUS
10
0.269661
20
0.502296
11
0.266467
21
0.500163
0
LINE
8
BLACK
6
CONTINUOUS
10
0.266467
20
0.500163
11
0.262701
21
0.499413
0
LINE
8
BLACK
6
CONTINUOUS
10
0.262701
20
0.499413
11
0.225299
21
0.499413
0
LINE
8
BLACK
6
CONTINUOUS
10
0.225299
20
0.499413
11
0.221533
21
0.500163
0
LINE
8
BLACK
6
CONTINUOUS
10
0.221533
20
0.500163
11
0.218339
21
0.502296
0
LINE
8
BLACK
6
CONTINUOUS
10
0.218339
20
0.502296
11
0.216206
21
0.505489
0
LINE
8
BLACK
6
CONTINUOUS
10
0.216206
20
0.505489
11
0.215457
21
0.509256
0
LINE
8
BLACK
6
CONTINUOUS
10
0.215457
20
0.509256
11
0.215457
21
0.528941
0
LINE
8
BLACK
6
CONTINUOUS
10
0.215457
20
0.528941
11
0.216206
21
0.532708
0
LINE
8
BLACK
6
CONTINUOUS
10
0.216206
20
0.532708
11
0.218339
21
0.535901
0
LINE
8
BLACK
6
CONTINUOUS
10
0.218339
20
0.535901
11
0.221533
21
0.538034
0
LINE
8
BLACK
6
CONTINUOUS
10
0.221533
20
0.538034
11
0.225299
21
0.538783
0
LINE
8
BLACK
6
CONTINUOUS
10
0.225299
20
0.538783
11
0.262701
21
0.538783
0
LINE
8
BLACK
6
CONTINUOUS
10
0.262701
20
0.538783
11
0.266467
21
0.538034
0
LINE
8
BLACK
6
CONTINUOUS
10
1.49548
20
0.545353
11
1.49868
21
0.54322
0
LINE
8
BLACK
6
CONTINUOUS
10
1.49868
20
0.54322
11
1.50081
21
0.540026
0
LINE
8
BLACK
6
CONTINUOUS
10
1.50081
20
0.540026
11
1.50156
21
0.53626
0
LINE
8
BLACK
6
CONTINUOUS
10
1.50156
20
0.53626
11
1.50156
21
0.515591
0
LINE
8
BLACK
6
CONTINUOUS
10
1.50156
20
0.515591
11
1.50081
21
0.511824
0
LINE
8
BLACK
6
CONTINUOUS
10
1.50081
20
0.511824
11
1.49868
21
0.508631
0
LINE
8
BLACK
6
CONTINUOUS
10
1.49868
20
0.508631
11
1.49548
21
0.506497
0
LINE
8
BLACK
6
CONTINUOUS
10
1.49548
20
0.506497
11
1.49172
21
0.505748
0
LINE
8
BLACK
6
CONTINUOUS
10
1.49172
20
0.505748
11
1.45628
21
0.505748
0
LINE
8
BLACK
6
CONTINUOUS
10
1.45628
20
0.505748
11
1.45252
21
0.506497
0
LINE
8
BLACK
6
CONTINUOUS
10
1.45252
20
0.506497
11
1.44932
21
0.508631
0
LINE
8
BLACK
6
CONTINUOUS
10
1.44932
20
0.508631
11
1.44719
21
0.511824
0
LINE
8
BLACK
6
CONTINUOUS
10
1.44719
20
0.511824
11
1.44644
21
0.515591
0
LINE
8
BLACK
6
CONTINUOUS
10
1.44644
20
0.515591
11
1.44644
21
0.53626
0
LINE
8
BLACK
6
CONTINUOUS
10
1.44644
20
0.53626
11
1.44719
21
0.540026
0
LINE
8
BLACK
6
CONTINUOUS
10
1.44719
20
0.540026
11
1.44932
21
0.54322
0
LINE
8
BLACK
6
CONTINUOUS
10
1.44932
20
0.54322
11
1.45252
21
0.545353
0
LINE
8
BLACK
6
CONTINUOUS
10
1.45252
20
0.545353
11
1.45628
21
0.546102
0
LINE
8
BLACK
6
CONTINUOUS
10
1.45628
20
0.546102
11
1.49172
21
0.546102
0
LINE
8
BLACK
6
CONTINUOUS
10
1.49172
20
0.546102
11
1.49548
21
0.545353
0
LINE
8
BLACK
6
CONTINUOUS
10
1.28447
20
0.544534
11
1.28766
21
0.542401
0
LINE
8
BLACK
6
CONTINUOUS
10
1.28766
20
0.542401
11
1.28979
21
0.539208
0
LINE
8
BLACK
6
CONTINUOUS
10
1.28979
20
0.539208
11
1.29054
21
0.535441
0
LINE
8
BLACK
6
CONTINUOUS
10
1.29054
20
0.535441
11
1.29054
21
0.515756
0
LINE
8
BLACK
6
CONTINUOUS
10
1.29054
20
0.515756
11
1.28979
21
0.511989
0
LINE
8
BLACK
6
CONTINUOUS
10
1.28979
20
0.511989
11
1.28766
21
0.508796
0
LINE
8
BLACK
6
CONTINUOUS
10
1.28766
20
0.508796
11
1.28447
21
0.506663
0
LINE
8
BLACK
6
CONTINUOUS
10
1.28447
20
0.506663
11
1.2807
21
0.505913
0
LINE
8
BLACK
6
CONTINUOUS
10
1.2807
20
0.505913
11
1.2433
21
0.505913
0
LINE
8
BLACK
6
CONTINUOUS
10
1.2433
20
0.505913
11
1.23953
21
0.506663
0
LINE
8
BLACK
6
CONTINUOUS
10
1.23953
20
0.506663
11
1.23634
21
0.508796
0
LINE
8
BLACK
6
CONTINUOUS
10
1.23634
20
0.508796
11
1.23421
21
0.511989
0
LINE
8
BLACK
6
CONTINUOUS
10
1.23421
20
0.511989
11
1.23346
21
0.515756
0
LINE
8
BLACK
6
CONTINUOUS
10
1.23346
20
0.515756
11
1.23346
21
0.535441
0
LINE
8
BLACK
6
CONTINUOUS
10
1.23346
20
0.535441
11
1.23421
21
0.539208
0
LINE
8
BLACK
6
CONTINUOUS
10
1.23421
20
0.539208
11
1.23634
21
0.542401
0
LINE
8
BLACK
6
CONTINUOUS
10
1.23634
20
0.542401
11
1.23953
21
0.544534
0
LINE
8
BLACK
6
CONTINUOUS
10
1.23953
20
0.544534
11
1.2433
21
0.545283
0
LINE
8
BLACK
6
CONTINUOUS
10
1.2433
20
0.545283
11
1.2807
21
0.545283
0
LINE
8
BLACK
6
CONTINUOUS
10
1.2807
20
0.545283
11
1.28447
21
0.544534
0
LINE
8
BLACK
6
CONTINUOUS
10
1.36348
20
0.549353
11
1.36668
21
0.54722
0
LINE
8
BLACK
6
CONTINUOUS
10
1.36668
20
0.54722
11
1.36881
21
0.544026
0
LINE
8
BLACK
6
CONTINUOUS
10
1.36881
20
0.544026
11
1.36956
21
0.54026
0
LINE
8
BLACK
6
CONTINUOUS
10
1.36956
20
0.54026
11
1.36956
21
0.519591
0
LINE
8
BLACK
6
CONTINUOUS
10
1.36956
20
0.519591
11
1.36881
21
0.515824
0
LINE
8
BLACK
6
CONTINUOUS
10
1.36881
20
0.515824
11
1.36668
21
0.512631
0
LINE
8
BLACK
6
CONTINUOUS
10
1.36668
20
0.512631
11
1.36348
21
0.510497
0
LINE
8
BLACK
6
CONTINUOUS
10
1.36348
20
0.510497
11
1.35972
21
0.509748
0
LINE
8
BLACK
6
CONTINUOUS
10
1.35972
20
0.509748
11
1.32428
21
0.509748
0
LINE
8
BLACK
6
CONTINUOUS
10
1.32428
20
0.509748
11
1.32052
21
0.510497
0
LINE
8
BLACK
6
CONTINUOUS
10
1.32052
20
0.510497
11
1.31732
21
0.512631
0
LINE
8
BLACK
6
CONTINUOUS
10
1.31732
20
0.512631
11
1.31519
21
0.515824
0
LINE
8
BLACK
6
CONTINUOUS
10
1.31519
20
0.515824
11
1.31444
21
0.519591
0
LINE
8
BLACK
6
CONTINUOUS
10
1.31444
20
0.519591
11
1.31444
21
0.54026
0
LINE
8
BLACK
6
CONTINUOUS
10
1.31444
20
0.54026
11
1.31519
21
0.544026
0
LINE
8
BLACK
6
CONTINUOUS
10
1.31519
20
0.544026
11
1.31732
21
0.54722
0
LINE
8
BLACK
6
CONTINUOUS
10
1.31732
20
0.54722
11
1.32052
21
0.549353
0
LINE
8
BLACK
6
CONTINUOUS
10
1.32052
20
0.549353
11
1.32428
21
0.550102
0
LINE
8
BLACK
6
CONTINUOUS
10
1.32428
20
0.550102
11
1.35972
21
0.550102
0
LINE
8
BLACK
6
CONTINUOUS
10
1.35972
20
0.550102
11
1.36348
21
0.549353
0
LINE
8
BLACK
6
CONTINUOUS
10
0.619662
20
0.600889
11
0.621577
21
0.599609
0
LINE
8
BLACK
6
CONTINUOUS
10
0.621577
20
0.599609
11
0.622858
21
0.597693
0
LINE
8
BLACK
6
CONTINUOUS
10
0.622858
20
0.597693
11
0.623307
21
0.595433
0
LINE
8
BLACK
6
CONTINUOUS
10
0.623307
20
0.595433
11
0.623307
21
0.549173
0
LINE
8
BLACK
6
CONTINUOUS
10
0.623307
20
0.549173
11
0.622858
21
0.546913
0
LINE
8
BLACK
6
CONTINUOUS
10
0.622858
20
0.546913
11
0.621577
21
0.544997
0
LINE
8
BLACK
6
CONTINUOUS
10
0.621577
20
0.544997
11
0.619662
21
0.543717
0
LINE
8
BLACK
6
CONTINUOUS
10
0.619662
20
0.543717
11
0.617402
21
0.543268
0
LINE
8
BLACK
6
CONTINUOUS
10
0.617402
20
0.543268
11
0.605591
21
0.543268
0
LINE
8
BLACK
6
CONTINUOUS
10
0.605591
20
0.543268
11
0.603331
21
0.543717
0
LINE
8
BLACK
6
CONTINUOUS
10
0.603331
20
0.543717
11
0.601415
21
0.544997
0
LINE
8
BLACK
6
CONTINUOUS
10
0.601415
20
0.544997
11
0.600135
21
0.546913
0
LINE
8
BLACK
6
CONTINUOUS
10
0.600135
20
0.546913
11
0.599685
21
0.549173
0
LINE
8
BLACK
6
CONTINUOUS
10
0.599685
20
0.549173
11
0.599685
21
0.595433
0
LINE
8
BLACK
6
CONTINUOUS
10
0.599685
20
0.595433
11
0.600135
21
0.597693
0
LINE
8
BLACK
6
CONTINUOUS
10
0.600135
20
0.597693
11
0.601415
21
0.599609
0
LINE
8
BLACK
6
CONTINUOUS
10
0.601415
20
0.599609
11
0.603331
21
0.600889
0
LINE
8
BLACK
6
CONTINUOUS
10
0.603331
20
0.600889
11
0.605591
21
0.601339
0
LINE
8
BLACK
6
CONTINUOUS
10
0.605591
20
0.601339
11
0.617402
21
0.601339
0
LINE
8
BLACK
6
CONTINUOUS
10
0.617402
20
0.601339
11
0.619662
21
0.600889
0
LINE
8
BLACK
6
CONTINUOUS
10
0.694465
20
0.600889
11
0.696381
21
0.599609
0
LINE
8
BLACK
6
CONTINUOUS
10
0.696381
20
0.599609
11
0.697661
21
0.597693
0
LINE
8
BLACK
6
CONTINUOUS
10
0.697661
20
0.597693
11
0.69811
21
0.595433
0
LINE
8
BLACK
6
CONTINUOUS
10
0.69811
20
0.595433
11
0.69811
21
0.549173
0
LINE
8
BLACK
6
CONTINUOUS
10
0.69811
20
0.549173
11
0.697661
21
0.546913
0
LINE
8
BLACK
6
CONTINUOUS
10
0.697661
20
0.546913
11
0.696381
21
0.544997
0
LINE
8
BLACK
6
CONTINUOUS
10
0.696381
20
0.544997
11
0.694465
21
0.543717
0
LINE
8
BLACK
6
CONTINUOUS
10
0.694465
20
0.543717
11
0.692205
21
0.543268
0
LINE
8
BLACK
6
CONTINUOUS
10
0.692205
20
0.543268
11
0.680394
21
0.543268
0
LINE
8
BLACK
6
CONTINUOUS
10
0.680394
20
0.543268
11
0.678134
21
0.543717
0
LINE
8
BLACK
6
CONTINUOUS
10
0.678134
20
0.543717
11
0.676218
21
0.544997
0
LINE
8
BLACK
6
CONTINUOUS
10
0.676218
20
0.544997
11
0.674938
21
0.546913
0
LINE
8
BLACK
6
CONTINUOUS
10
0.674938
20
0.546913
11
0.674488
21
0.549173
0
LINE
8
BLACK
6
CONTINUOUS
10
0.674488
20
0.549173
11
0.674488
21
0.595433
0
LINE
8
BLACK
6
CONTINUOUS
10
0.674488
20
0.595433
11
0.674938
21
0.597693
0
LINE
8
BLACK
6
CONTINUOUS
10
0.674938
20
0.597693
11
0.676218
21
0.599609
0
LINE
8
BLACK
6
CONTINUOUS
10
0.676218
20
0.599609
11
0.678134
21
0.600889
0
LINE
8
BLACK
6
CONTINUOUS
10
0.678134
20
0.600889
11
0.680394
21
0.601339
0
LINE
8
BLACK
6
CONTINUOUS
10
0.680394
20
0.601339
11
0.692205
21
0.601339
0
LINE
8
BLACK
6
CONTINUOUS
10
0.692205
20
0.601339
11
0.694465
21
0.600889
0
LINE
8
BLACK
6
CONTINUOUS
10
0.402467
20
0.586337
11
0.405661
21
0.584204
0
LINE
8
BLACK
6
CONTINUOUS
10
0.405661
20
0.584204
11
0.407794
21
0.581011
0
LINE
8
BLACK
6
CONTINUOUS
10
0.407794
20
0.581011
11
0.408543
21
0.577244
0
LINE
8
BLACK
6
CONTINUOUS
10
0.408543
20
0.577244
11
0.408543
21
0.557559
0
LINE
8
BLACK
6
CONTINUOUS
10
0.408543
20
0.557559
11
0.407794
21
0.553792
0
LINE
8
BLACK
6
CONTINUOUS
10
0.407794
20
0.553792
11
0.405661
21
0.550599
0
LINE
8
BLACK
6
CONTINUOUS
10
0.405661
20
0.550599
11
0.402467
21
0.548466
0
LINE
8
BLACK
6
CONTINUOUS
10
0.402467
20
0.548466
11
0.398701
21
0.547717
0
LINE
8
BLACK
6
CONTINUOUS
10
0.398701
20
0.547717
11
0.361299
21
0.547717
0
LINE
8
BLACK
6
CONTINUOUS
10
0.361299
20
0.547717
11
0.357533
21
0.548466
0
LINE
8
BLACK
6
CONTINUOUS
10
0.357533
20
0.548466
11
0.354339
21
0.550599
0
LINE
8
BLACK
6
CONTINUOUS
10
0.354339
20
0.550599
11
0.352206
21
0.553792
0
LINE
8
BLACK
6
CONTINUOUS
10
0.352206
20
0.553792
11
0.351457
21
0.557559
0
LINE
8
BLACK
6
CONTINUOUS
10
0.351457
20
0.557559
11
0.351457
21
0.577244
0
LINE
8
BLACK
6
CONTINUOUS
10
0.351457
20
0.577244
11
0.352206
21
0.581011
0
LINE
8
BLACK
6
CONTINUOUS
10
0.352206
20
0.581011
11
0.354339
21
0.584204
0
LINE
8
BLACK
6
CONTINUOUS
10
0.354339
20
0.584204
11
0.357533
21
0.586337
0
LINE
8
BLACK
6
CONTINUOUS
10
0.357533
20
0.586337
11
0.361299
21
0.587087
0
LINE
8
BLACK
6
CONTINUOUS
10
0.361299
20
0.587087
11
0.398701
21
0.587087
0
LINE
8
BLACK
6
CONTINUOUS
10
0.398701
20
0.587087
11
0.402467
21
0.586337
0
LINE
8
BLACK
6
CONTINUOUS
10
1.34621
20
0.629794
11
1.3494
21
0.627661
0
LINE
8
BLACK
6
CONTINUOUS
10
1.3494
20
0.627661
11
1.35153
21
0.624467
0
LINE
8
BLACK
6
CONTINUOUS
10
1.35153
20
0.624467
11
1.35228
21
0.620701
0
LINE
8
BLACK
6
CONTINUOUS
10
1.35228
20
0.620701
11
1.35228
21
0.583299
0
LINE
8
BLACK
6
CONTINUOUS
10
1.35228
20
0.583299
11
1.35153
21
0.579533
0
LINE
8
BLACK
6
CONTINUOUS
10
1.35153
20
0.579533
11
1.3494
21
0.576339
0
LINE
8
BLACK
6
CONTINUOUS
10
1.3494
20
0.576339
11
1.34621
21
0.574206
0
LINE
8
BLACK
6
CONTINUOUS
10
1.34621
20
0.574206
11
1.34244
21
0.573457
0
LINE
8
BLACK
6
CONTINUOUS
10
1.34244
20
0.573457
11
1.32276
21
0.573457
0
LINE
8
BLACK
6
CONTINUOUS
10
1.32276
20
0.573457
11
1.31899
21
0.574206
0
LINE
8
BLACK
6
CONTINUOUS
10
1.31899
20
0.574206
11
1.3158
21
0.576339
0
LINE
8
BLACK
6
CONTINUOUS
10
1.3158
20
0.576339
11
1.31366
21
0.579533
0
LINE
8
BLACK
6
CONTINUOUS
10
1.31366
20
0.579533
11
1.31291
21
0.583299
0
LINE
8
BLACK
6
CONTINUOUS
10
1.31291
20
0.583299
11
1.31291
21
0.620701
0
LINE
8
BLACK
6
CONTINUOUS
10
1.31291
20
0.620701
11
1.31366
21
0.624467
0
LINE
8
BLACK
6
CONTINUOUS
10
1.31366
20
0.624467
11
1.3158
21
0.627661
0
LINE
8
BLACK
6
CONTINUOUS
10
1.3158
20
0.627661
11
1.31899
21
0.629794
0
LINE
8
BLACK
6
CONTINUOUS
10
1.31899
20
0.629794
11
1.32276
21
0.630543
0
LINE
8
BLACK
6
CONTINUOUS
10
1.32276
20
0.630543
11
1.34244
21
0.630543
0
LINE
8
BLACK
6
CONTINUOUS
10
1.34244
20
0.630543
11
1.34621
21
0.629794
0
LINE
8
BLACK
6
CONTINUOUS
10
1.42101
20
0.629794
11
1.4242
21
0.627661
0
LINE
8
BLACK
6
CONTINUOUS
10
1.4242
20
0.627661
11
1.42634
21
0.624467
0
LINE
8
BLACK
6
CONTINUOUS
10
1.42634
20
0.624467
11
1.42709
21
0.620701
0
LINE
8
BLACK
6
CONTINUOUS
10
1.42709
20
0.620701
11
1.42709
21
0.583299
0
LINE
8
BLACK
6
CONTINUOUS
10
1.42709
20
0.583299
11
1.42634
21
0.579533
0
LINE
8
BLACK
6
CONTINUOUS
10
1.42634
20
0.579533
11
1.4242
21
0.576339
0
LINE
8
BLACK
6
CONTINUOUS
10
1.4242
20
0.576339
11
1.42101
21
0.574206
0
LINE
8
BLACK
6
CONTINUOUS
10
1.42101
20
0.574206
11
1.41724
21
0.573457
0
LINE
8
BLACK
6
CONTINUOUS
10
1.41724
20
0.573457
11
1.39756
21
0.573457
0
LINE
8
BLACK
6
CONTINUOUS
10
1.39756
20
0.573457
11
1.39379
21
0.574206
0
LINE
8
BLACK
6
CONTINUOUS
10
1.39379
20
0.574206
11
1.3906
21
0.576339
0
LINE
8
BLACK
6
CONTINUOUS
10
1.3906
20
0.576339
11
1.38847
21
0.579533
0
LINE
8
BLACK
6
CONTINUOUS
10
1.38847
20
0.579533
11
1.38772
21
0.583299
0
LINE
8
BLACK
6
CONTINUOUS
10
1.38772
20
0.583299
11
1.38772
21
0.620701
0
LINE
8
BLACK
6
CONTINUOUS
10
1.38772
20
0.620701
11
1.38847
21
0.624467
0
LINE
8
BLACK
6
CONTINUOUS
10
1.38847
20
0.624467
11
1.3906
21
0.627661
0
LINE
8
BLACK
6
CONTINUOUS
10
1.3906
20
0.627661
11
1.39379
21
0.629794
0
LINE
8
BLACK
6
CONTINUOUS
10
1.39379
20
0.629794
11
1.39756
21
0.630543
0
LINE
8
BLACK
6
CONTINUOUS
10
1.39756
20
0.630543
11
1.41724
21
0.630543
0
LINE
8
BLACK
6
CONTINUOUS
10
1.41724
20
0.630543
11
1.42101
21
0.629794
0
LINE
8
BLACK
6
CONTINUOUS
10
0.266467
20
0.612837
11
0.269661
21
0.610704
0
LINE
8
BLACK
6
CONTINUOUS
10
0.269661
20
0.610704
11
0.271794
21
0.607511
0
LINE
8
BLACK
6
CONTINUOUS
10
0.271794
20
0.607511
11
0.272543
21
0.603744
0
LINE
8
BLACK
6
CONTINUOUS
10
0.272543
20
0.603744
11
0.272543
21
0.584059
0
LINE
8
BLACK
6
CONTINUOUS
10
0.272543
20
0.584059
11
0.271794
21
0.580292
0
LINE
8
BLACK
6
CONTINUOUS
10
0.271794
20
0.580292
11
0.269661
21
0.577099
0
LINE
8
BLACK
6
CONTINUOUS
10
0.269661
20
0.577099
11
0.266467
21
0.574966
0
LINE
8
BLACK
6
CONTINUOUS
10
0.266467
20
0.574966
11
0.262701
21
0.574217
0
LINE
8
BLACK
6
CONTINUOUS
10
0.262701
20
0.574217
11
0.225299
21
0.574217
0
LINE
8
BLACK
6
CONTINUOUS
10
0.225299
20
0.574217
11
0.221533
21
0.574966
0
LINE
8
BLACK
6
CONTINUOUS
10
0.221533
20
0.574966
11
0.218339
21
0.577099
0
LINE
8
BLACK
6
CONTINUOUS
10
0.218339
20
0.577099
11
0.216206
21
0.580292
0
LINE
8
BLACK
6
CONTINUOUS
10
0.216206
20
0.580292
11
0.215457
21
0.584059
0
LINE
8
BLACK
6
CONTINUOUS
10
0.215457
20
0.584059
11
0.215457
21
0.603744
0
LINE
8
BLACK
6
CONTINUOUS
10
0.215457
20
0.603744
11
0.216206
21
0.607511
0
LINE
8
BLACK
6
CONTINUOUS
10
0.216206
20
0.607511
11
0.218339
21
0.610704
0
LINE
8
BLACK
6
CONTINUOUS
10
0.218339
20
0.610704
11
0.221533
21
0.612837
0
LINE
8
BLACK
6
CONTINUOUS
10
0.221533
20
0.612837
11
0.225299
21
0.613587
0
LINE
8
BLACK
6
CONTINUOUS
10
0.225299
20
0.613587
11
0.262701
21
0.613587
0
LINE
8
BLACK
6
CONTINUOUS
10
0.262701
20
0.613587
11
0.266467
21
0.612837
0
LINE
8
BLACK
6
CONTINUOUS
10
1.28447
20
0.619337
11
1.28766
21
0.617204
0
LINE
8
BLACK
6
CONTINUOUS
10
1.28766
20
0.617204
11
1.28979
21
0.614011
0
LINE
8
BLACK
6
CONTINUOUS
10
1.28979
20
0.614011
11
1.29054
21
0.610244
0
LINE
8
BLACK
6
CONTINUOUS
10
1.29054
20
0.610244
11
1.29054
21
0.590559
0
LINE
8
BLACK
6
CONTINUOUS
10
1.29054
20
0.590559
11
1.28979
21
0.586792
0
LINE
8
BLACK
6
CONTINUOUS
10
1.28979
20
0.586792
11
1.28766
21
0.583599
0
LINE
8
BLACK
6
CONTINUOUS
10
1.28766
20
0.583599
11
1.28447
21
0.581466
0
LINE
8
BLACK
6
CONTINUOUS
10
1.28447
20
0.581466
11
1.2807
21
0.580717
0
LINE
8
BLACK
6
CONTINUOUS
10
1.2807
20
0.580717
11
1.2433
21
0.580717
0
LINE
8
BLACK
6
CONTINUOUS
10
1.2433
20
0.580717
11
1.23953
21
0.581466
0
LINE
8
BLACK
6
CONTINUOUS
10
1.23953
20
0.581466
11
1.23634
21
0.583599
0
LINE
8
BLACK
6
CONTINUOUS
10
1.23634
20
0.583599
11
1.23421
21
0.586792
0
LINE
8
BLACK
6
CONTINUOUS
10
1.23421
20
0.586792
11
1.23346
21
0.590559
0
LINE
8
BLACK
6
CONTINUOUS
10
1.23346
20
0.590559
11
1.23346
21
0.610244
0
LINE
8
BLACK
6
CONTINUOUS
10
1.23346
20
0.610244
11
1.23421
21
0.614011
0
LINE
8
BLACK
6
CONTINUOUS
10
1.23421
20
0.614011
11
1.23634
21
0.617204
0
LINE
8
BLACK
6
CONTINUOUS
10
1.23634
20
0.617204
11
1.23953
21
0.619337
0
LINE
8
BLACK
6
CONTINUOUS
10
1.23953
20
0.619337
11
1.2433
21
0.620087
0
LINE
8
BLACK
6
CONTINUOUS
10
1.2433
20
0.620087
11
1.2807
21
0.620087
0
LINE
8
BLACK
6
CONTINUOUS
10
1.2807
20
0.620087
11
1.28447
21
0.619337
0
LINE
8
BLACK
6
CONTINUOUS
10
0.401483
20
0.658503
11
0.404676
21
0.656369
0
LINE
8
BLACK
6
CONTINUOUS
10
0.404676
20
0.656369
11
0.40681
21
0.653176
0
LINE
8
BLACK
6
CONTINUOUS
10
0.40681
20
0.653176
11
0.407559
21
0.649409
0
LINE
8
BLACK
6
CONTINUOUS
10
0.407559
20
0.649409
11
0.407559
21
0.62874
0
LINE
8
BLACK
6
CONTINUOUS
10
0.407559
20
0.62874
11
0.40681
21
0.624974
0
LINE
8
BLACK
6
CONTINUOUS
10
0.40681
20
0.624974
11
0.404676
21
0.62178
0
LINE
8
BLACK
6
CONTINUOUS
10
0.404676
20
0.62178
11
0.401483
21
0.619647
0
LINE
8
BLACK
6
CONTINUOUS
10
0.401483
20
0.619647
11
0.397717
21
0.618898
0
LINE
8
BLACK
6
CONTINUOUS
10
0.397717
20
0.618898
11
0.362283
21
0.618898
0
LINE
8
BLACK
6
CONTINUOUS
10
0.362283
20
0.618898
11
0.358517
21
0.619647
0
LINE
8
BLACK
6
CONTINUOUS
10
0.358517
20
0.619647
11
0.355324
21
0.62178
0
LINE
8
BLACK
6
CONTINUOUS
10
0.355324
20
0.62178
11
0.35319
21
0.624974
0
LINE
8
BLACK
6
CONTINUOUS
10
0.35319
20
0.624974
11
0.352441
21
0.62874
0
LINE
8
BLACK
6
CONTINUOUS
10
0.352441
20
0.62874
11
0.352441
21
0.649409
0
LINE
8
BLACK
6
CONTINUOUS
10
0.352441
20
0.649409
11
0.35319
21
0.653176
0
LINE
8
BLACK
6
CONTINUOUS
10
0.35319
20
0.653176
11
0.355324
21
0.656369
0
LINE
8
BLACK
6
CONTINUOUS
10
0.355324
20
0.656369
11
0.358517
21
0.658503
0
LINE
8
BLACK
6
CONTINUOUS
10
0.358517
20
0.658503
11
0.362283
21
0.659252
0
LINE
8
BLACK
6
CONTINUOUS
10
0.362283
20
0.659252
11
0.397717
21
0.659252
0
LINE
8
BLACK
6
CONTINUOUS
10
0.397717
20
0.659252
11
0.401483
21
0.658503
0
LINE
8
BLACK
6
CONTINUOUS
10
1.035
20
0.6275
11
1.015
21
0.6275
0
LINE
8
BLACK
6
CONTINUOUS
10
1.015
20
0.6275
11
1.015
21
0.6725
0
LINE
8
BLACK
6
CONTINUOUS
10
1.015
20
0.6725
11
1.035
21
0.6725
0
LINE
8
BLACK
6
CONTINUOUS
10
1.035
20
0.6725
11
1.035
21
0.6275
0
LINE
8
BLACK
6
CONTINUOUS
10
1.085
20
0.6275
11
1.065
21
0.6275
0
LINE
8
BLACK
6
CONTINUOUS
10
1.065
20
0.6275
11
1.065
21
0.6725
0
LINE
8
BLACK
6
CONTINUOUS
10
1.065
20
0.6725
11
1.085
21
0.6725
0
LINE
8
BLACK
6
CONTINUOUS
10
1.085
20
0.6725
11
1.085
21
0.6275
0
LINE
8
BLACK
6
CONTINUOUS
10
1.135
20
0.6275
11
1.115
21
0.6275
0
LINE
8
BLACK
6
CONTINUOUS
10
1.115
20
0.6275
11
1.115
21
0.6725
0
LINE
8
BLACK
6
CONTINUOUS
10
1.115
20
0.6725
11
1.135
21
0.6725
0
LINE
8
BLACK
6
CONTINUOUS
10
1.135
20
0.6725
11
1.135
21
0.6275
0
LINE
8
BLACK
6
CONTINUOUS
10
1.185
20
0.6275
11
1.165
21
0.6275
0
LINE
8
BLACK
6
CONTINUOUS
10
1.165
20
0.6275
11
1.165
21
0.6725
0
LINE
8
BLACK
6
CONTINUOUS
10
1.165
20
0.6725
11
1.185
21
0.6725
0
LINE
8
BLACK
6
CONTINUOUS
10
1.185
20
0.6725
11
1.185
21
0.6275
0
LINE
8
BLACK
6
CONTINUOUS
10
1.29747
20
0.706534
11
1.30066
21
0.704401
0
LINE
8
BLACK
6
CONTINUOUS
10
1.30066
20
0.704401
11
1.30279
21
0.701208
0
LINE
8
BLACK
6
CONTINUOUS
10
1.30279
20
0.701208
11
1.30354
21
0.697441
0
LINE
8
BLACK
6
CONTINUOUS
10
1.30354
20
0.697441
11
1.30354
21
0.677756
0
LINE
8
BLACK
6
CONTINUOUS
10
1.30354
20
0.677756
11
1.30279
21
0.673989
0
LINE
8
BLACK
6
CONTINUOUS
10
1.30279
20
0.673989
11
1.30066
21
0.670796
0
LINE
8
BLACK
6
CONTINUOUS
10
1.30066
20
0.670796
11
1.29747
21
0.668663
0
LINE
8
BLACK
6
CONTINUOUS
10
1.29747
20
0.668663
11
1.2937
21
0.667913
0
LINE
8
BLACK
6
CONTINUOUS
10
1.2937
20
0.667913
11
1.2563
21
0.667913
0
LINE
8
BLACK
6
CONTINUOUS
10
1.2563
20
0.667913
11
1.25253
21
0.668663
0
LINE
8
BLACK
6
CONTINUOUS
10
1.25253
20
0.668663
11
1.24934
21
0.670796
0
LINE
8
BLACK
6
CONTINUOUS
10
1.24934
20
0.670796
11
1.24721
21
0.673989
0
LINE
8
BLACK
6
CONTINUOUS
10
1.24721
20
0.673989
11
1.24646
21
0.677756
0
LINE
8
BLACK
6
CONTINUOUS
10
1.24646
20
0.677756
11
1.24646
21
0.697441
0
LINE
8
BLACK
6
CONTINUOUS
10
1.24646
20
0.697441
11
1.24721
21
0.701208
0
LINE
8
BLACK
6
CONTINUOUS
10
1.24721
20
0.701208
11
1.24934
21
0.704401
0
LINE
8
BLACK
6
CONTINUOUS
10
1.24934
20
0.704401
11
1.25253
21
0.706534
0
LINE
8
BLACK
6
CONTINUOUS
10
1.25253
20
0.706534
11
1.2563
21
0.707283
0
LINE
8
BLACK
6
CONTINUOUS
10
1.2563
20
0.707283
11
1.2937
21
0.707283
0
LINE
8
BLACK
6
CONTINUOUS
10
1.2937
20
0.707283
11
1.29747
21
0.706534
0
LINE
8
BLACK
6
CONTINUOUS
10
1.39747
20
0.706534
11
1.40066
21
0.704401
0
LINE
8
BLACK
6
CONTINUOUS
10
1.40066
20
0.704401
11
1.40279
21
0.701208
0
LINE
8
BLACK
6
CONTINUOUS
10
1.40279
20
0.701208
11
1.40354
21
0.697441
0
LINE
8
BLACK
6
CONTINUOUS
10
1.40354
20
0.697441
11
1.40354
21
0.677756
0
LINE
8
BLACK
6
CONTINUOUS
10
1.40354
20
0.677756
11
1.40279
21
0.673989
0
LINE
8
BLACK
6
CONTINUOUS
10
1.40279
20
0.673989
11
1.40066
21
0.670796
0
LINE
8
BLACK
6
CONTINUOUS
10
1.40066
20
0.670796
11
1.39747
21
0.668663
0
LINE
8
BLACK
6
CONTINUOUS
10
1.39747
20
0.668663
11
1.3937
21
0.667913
0
LINE
8
BLACK
6
CONTINUOUS
10
1.3937
20
0.667913
11
1.3563
21
0.667913
0
LINE
8
BLACK
6
CONTINUOUS
10
1.3563
20
0.667913
11
1.35253
21
0.668663
0
LINE
8
BLACK
6
CONTINUOUS
10
1.35253
20
0.668663
11
1.34934
21
0.670796
0
LINE
8
BLACK
6
CONTINUOUS
10
1.34934
20
0.670796
11
1.34721
21
0.673989
0
LINE
8
BLACK
6
CONTINUOUS
10
1.34721
20
0.673989
11
1.34646
21
0.677756
0
LINE
8
BLACK
6
CONTINUOUS
10
1.34646
20
0.677756
11
1.34646
21
0.697441
0
LINE
8
BLACK
6
CONTINUOUS
10
1.34646
20
0.697441
11
1.34721
21
0.701208
0
LINE
8
BLACK
6
CONTINUOUS
10
1.34721
20
0.701208
11
1.34934
21
0.704401
0
LINE
8
BLACK
6
CONTINUOUS
10
1.34934
20
0.704401
11
1.35253
21
0.706534
0
LINE
8
BLACK
6
CONTINUOUS
10
1.35253
20
0.706534
11
1.3563
21
0.707283
0
LINE
8
BLACK
6
CONTINUOUS
10
1.3563
20
0.707283
11
1.3937
21
0.707283
0
LINE
8
BLACK
6
CONTINUOUS
10
1.3937
20
0.707283
11
1.39747
21
0.706534
0
LINE
8
BLACK
6
CONTINUOUS
10
0.401483
20
0.730353
11
0.404676
21
0.72822
0
LINE
8
BLACK
6
CONTINUOUS
10
0.404676
20
0.72822
11
0.40681
21
0.725026
0
LINE
8
BLACK
6
CONTINUOUS
10
0.40681
20
0.725026
11
0.407559
21
0.72126
0
LINE
8
BLACK
6
CONTINUOUS
10
0.407559
20
0.72126
11
0.407559
21
0.700591
0
LINE
8
BLACK
6
CONTINUOUS
10
0.407559
20
0.700591
11
0.40681
21
0.696824
0
LINE
8
BLACK
6
CONTINUOUS
10
0.40681
20
0.696824
11
0.404676
21
0.693631
0
LINE
8
BLACK
6
CONTINUOUS
10
0.404676
20
0.693631
11
0.401483
21
0.691497
0
LINE
8
BLACK
6
CONTINUOUS
10
0.401483
20
0.691497
11
0.397717
21
0.690748
0
LINE
8
BLACK
6
CONTINUOUS
10
0.397717
20
0.690748
11
0.362283
21
0.690748
0
LINE
8
BLACK
6
CONTINUOUS
10
0.362283
20
0.690748
11
0.358517
21
0.691497
0
LINE
8
BLACK
6
CONTINUOUS
10
0.358517
20
0.691497
11
0.355324
21
0.693631
0
LINE
8
BLACK
6
CONTINUOUS
10
0.355324
20
0.693631
11
0.35319
21
0.696824
0
LINE
8
BLACK
6
CONTINUOUS
10
0.35319
20
0.696824
11
0.352441
21
0.700591
0
LINE
8
BLACK
6
CONTINUOUS
10
0.352441
20
0.700591
11
0.352441
21
0.72126
0
LINE
8
BLACK
6
CONTINUOUS
10
0.352441
20
0.72126
11
0.35319
21
0.725026
0
LINE
8
BLACK
6
CONTINUOUS
10
0.35319
20
0.725026
11
0.355324
21
0.72822
0
LINE
8
BLACK
6
CONTINUOUS
10
0.355324
20
0.72822
11
0.358517
21
0.730353
0
LINE
8
BLACK
6
CONTINUOUS
10
0.358517
20
0.730353
11
0.362283
21
0.731102
0
LINE
8
BLACK
6
CONTINUOUS
10
0.362283
20
0.731102
11
0.397717
21
0.731102
0
LINE
8
BLACK
6
CONTINUOUS
10
0.397717
20
0.731102
11
0.401483
21
0.730353
0
LINE
8
BLACK
6
CONTINUOUS
10
1.29747
20
0.781337
11
1.30066
21
0.779204
0
LINE
8
BLACK
6
CONTINUOUS
10
1.30066
20
0.779204
11
1.30279
21
0.776011
0
LINE
8
BLACK
6
CONTINUOUS
10
1.30279
20
0.776011
11
1.30354
21
0.772244
0
LINE
8
BLACK
6
CONTINUOUS
10
1.30354
20
0.772244
11
1.30354
21
0.752559
0
LINE
8
BLACK
6
CONTINUOUS
10
1.30354
20
0.752559
11
1.30279
21
0.748792
0
LINE
8
BLACK
6
CONTINUOUS
10
1.30279
20
0.748792
11
1.30066
21
0.745599
0
LINE
8
BLACK
6
CONTINUOUS
10
1.30066
20
0.745599
11
1.29747
21
0.743466
0
LINE
8
BLACK
6
CONTINUOUS
10
1.29747
20
0.743466
11
1.2937
21
0.742717
0
LINE
8
BLACK
6
CONTINUOUS
10
1.2937
20
0.742717
11
1.2563
21
0.742717
0
LINE
8
BLACK
6
CONTINUOUS
10
1.2563
20
0.742717
11
1.25253
21
0.743466
0
LINE
8
BLACK
6
CONTINUOUS
10
1.25253
20
0.743466
11
1.24934
21
0.745599
0
LINE
8
BLACK
6
CONTINUOUS
10
1.24934
20
0.745599
11
1.24721
21
0.748792
0
LINE
8
BLACK
6
CONTINUOUS
10
1.24721
20
0.748792
11
1.24646
21
0.752559
0
LINE
8
BLACK
6
CONTINUOUS
10
1.24646
20
0.752559
11
1.24646
21
0.772244
0
LINE
8
BLACK
6
CONTINUOUS
10
1.24646
20
0.772244
11
1.24721
21
0.776011
0
LINE
8
BLACK
6
CONTINUOUS
10
1.24721
20
0.776011
11
1.24934
21
0.779204
0
LINE
8
BLACK
6
CONTINUOUS
10
1.24934
20
0.779204
11
1.25253
21
0.781337
0
LINE
8
BLACK
6
CONTINUOUS
10
1.25253
20
0.781337
11
1.2563
21
0.782087
0
LINE
8
BLACK
6
CONTINUOUS
10
1.2563
20
0.782087
11
1.2937
21
0.782087
0
LINE
8
BLACK
6
CONTINUOUS
10
1.2937
20
0.782087
11
1.29747
21
0.781337
0
LINE
8
BLACK
6
CONTINUOUS
10
1.39747
20
0.781337
11
1.40066
21
0.779204
0
LINE
8
BLACK
6
CONTINUOUS
10
1.40066
20
0.779204
11
1.40279
21
0.776011
0
LINE
8
BLACK
6
CONTINUOUS
10
1.40279
20
0.776011
11
1.40354
21
0.772244
0
LINE
8
BLACK
6
CONTINUOUS
10
1.40354
20
0.772244
11
1.40354
21
0.752559
0
LINE
8
BLACK
6
CONTINUOUS
10
1.40354
20
0.752559
11
1.40279
21
0.748792
0
LINE
8
BLACK
6
CONTINUOUS
10
1.40279
20
0.748792
11
1.40066
21
0.745599
0
LINE
8
BLACK
6
CONTINUOUS
10
1.40066
20
0.745599
11
1.39747
21
0.743466
0
LINE
8
BLACK
6
CONTINUOUS
10
1.39747
20
0.743466
11
1.3937
21
0.742717
0
LINE
8
BLACK
6
CONTINUOUS
10
1.3937
20
0.742717
11
1.3563
21
0.742717
0
LINE
8
BLACK
6
CONTINUOUS
10
1.3563
20
0.742717
11
1.35253
21
0.743466
0
LINE
8
BLACK
6
CONTINUOUS
10
1.35253
20
0.743466
11
1.34934
21
0.745599
0
LINE
8
BLACK
6
CONTINUOUS
10
1.34934
20
0.745599
11
1.34721
21
0.748792
0
LINE
8
BLACK
6
CONTINUOUS
10
1.34721
20
0.748792
11
1.34646
21
0.752559
0
LINE
8
BLACK
6
CONTINUOUS
10
1.34646
20
0.752559
11
1.34646
21
0.772244
0
LINE
8
BLACK
6
CONTINUOUS
10
1.34646
20
0.772244
11
1.34721
21
0.776011
0
LINE
8
BLACK
6
CONTINUOUS
10
1.34721
20
0.776011
11
1.34934
21
0.779204
0
LINE
8
BLACK
6
CONTINUOUS
10
1.34934
20
0.779204
11
1.35253
21
0.781337
0
LINE
8
BLACK
6
CONTINUOUS
10
1.35253
20
0.781337
11
1.3563
21
0.782087
0
LINE
8
BLACK
6
CONTINUOUS
10
1.3563
20
0.782087
11
1.3937
21
0.782087
0
LINE
8
BLACK
6
CONTINUOUS
10
1.3937
20
0.782087
11
1.39747
21
0.781337
  0
ENDSEC
  0
EOF
