  0
SECTION
  2
HEADER
  9
$ANGBASE
  50
0.0
  9
$ANGDIR
  70
1
  9
$MEASUREMENT
  70
0
  0
ENDSEC
  0
SECTION
  2
TABLES
  0
TABLE
  2
LTYPE
  70
4
  0
LTYPE
  5
40F
  2
CONTINUOUS
  70
0
  3
Solid line
  72
65
  73
0
  40
0.0
  0
LTYPE
  5
410
  2
DASHDOT
 70
0
  3
Dash Dot ____ _ ____ _
 72
65
 73
4
 40
2.0
 49
1.25
 49
-0.25
 49
0.25
 49
-0.25
  0
LTYPE
  5
411
  2
DASHED
 70
0
  3
Dashed __ __ __ __ __
 72
65
 73
2
 40
0.75
 49
0.5
 49
-0.25
  0
LTYPE
  5
43B
  2
DOTTED
 70
0
  3
Dotted .  .  .  .
 72
65
 73
2
 40
0.2
 49
0.0
 49
-0.2
  0
ENDTAB
  0
TABLE
  2
STYLE
  70
4
  0
STYLE
  2
KICAD
  70
0
  40
0
  41
1
  42
1
  50
0
  71
0
  3
isocp.shx
  0
STYLE
  2
KICADB
  70
0
  40
0
  41
1
  42
1
  50
0
  71
0
  3
isocp.shx
  0
STYLE
  2
KICADI
  70
0
  40
0
  41
1
  42
1
  50
15
  71
0
  3
isocp.shx
  0
STYLE
  2
KICADBI
  70
0
  40
0
  41
1
  42
1
  50
15
  71
0
  3
isocp.shx
  0
ENDTAB
  0
TABLE
  2
LAYER
  70
1
  0
LAYER
  2
BLACK
  70
0
  62
7
  6
CONTINUOUS
  0
ENDTAB
  0
ENDSEC
  0
SECTION
  2
ENTITIES
0
LINE
8
BLACK
6
CONTINUOUS
10
5.58023
20
-3.31834
11
5.58036
21
-3.31831
0
LINE
8
BLACK
6
CONTINUOUS
10
5.58036
20
-3.31831
11
5.58047
21
-3.31838
0
LINE
8
BLACK
6
CONTINUOUS
10
5.58047
20
-3.31838
11
5.58085
21
-3.31845
0
LINE
8
BLACK
6
CONTINUOUS
10
5.58085
20
-3.31845
11
5.58144
21
-3.31894
0
LINE
8
BLACK
6
CONTINUOUS
10
5.58144
20
-3.31894
11
5.5821
21
-3.31932
0
LINE
8
BLACK
6
CONTINUOUS
10
5.5821
20
-3.31932
11
5.5822
21
-3.31957
0
LINE
8
BLACK
6
CONTINUOUS
10
5.5822
20
-3.31957
11
5.5824
21
-3.31974
0
LINE
8
BLACK
6
CONTINUOUS
10
5.5824
20
-3.31974
11
5.58253
21
-3.3205
0
LINE
8
BLACK
6
CONTINUOUS
10
5.58253
20
-3.3205
11
5.5828
21
-3.32122
0
LINE
8
BLACK
6
CONTINUOUS
10
5.5828
20
-3.32122
11
5.5828
21
-3.62122
0
LINE
8
BLACK
6
CONTINUOUS
10
5.5828
20
-3.62122
11
5.58273
21
-3.6216
0
LINE
8
BLACK
6
CONTINUOUS
10
5.58273
20
-3.6216
11
5.58275
21
-3.62173
0
LINE
8
BLACK
6
CONTINUOUS
10
5.58275
20
-3.62173
11
5.58268
21
-3.62185
0
LINE
8
BLACK
6
CONTINUOUS
10
5.58268
20
-3.62185
11
5.58262
21
-3.62223
0
LINE
8
BLACK
6
CONTINUOUS
10
5.58262
20
-3.62223
11
5.58212
21
-3.62282
0
LINE
8
BLACK
6
CONTINUOUS
10
5.58212
20
-3.62282
11
5.58174
21
-3.62348
0
LINE
8
BLACK
6
CONTINUOUS
10
5.58174
20
-3.62348
11
5.58149
21
-3.62357
0
LINE
8
BLACK
6
CONTINUOUS
10
5.58149
20
-3.62357
11
5.58132
21
-3.62378
0
LINE
8
BLACK
6
CONTINUOUS
10
5.58132
20
-3.62378
11
5.58056
21
-3.62391
0
LINE
8
BLACK
6
CONTINUOUS
10
5.58056
20
-3.62391
11
5.57984
21
-3.62417
0
LINE
8
BLACK
6
CONTINUOUS
10
5.57984
20
-3.62417
11
5.37984
21
-3.62417
0
LINE
8
BLACK
6
CONTINUOUS
10
5.37984
20
-3.62417
11
5.37946
21
-3.62411
0
LINE
8
BLACK
6
CONTINUOUS
10
5.37946
20
-3.62411
11
5.37933
21
-3.62413
0
LINE
8
BLACK
6
CONTINUOUS
10
5.37933
20
-3.62413
11
5.37922
21
-3.62406
0
LINE
8
BLACK
6
CONTINUOUS
10
5.37922
20
-3.62406
11
5.37883
21
-3.624
0
LINE
8
BLACK
6
CONTINUOUS
10
5.37883
20
-3.624
11
5.37824
21
-3.6235
0
LINE
8
BLACK
6
CONTINUOUS
10
5.37824
20
-3.6235
11
5.37758
21
-3.62312
0
LINE
8
BLACK
6
CONTINUOUS
10
5.37758
20
-3.62312
11
5.37749
21
-3.62287
0
LINE
8
BLACK
6
CONTINUOUS
10
5.37749
20
-3.62287
11
5.37729
21
-3.6227
0
LINE
8
BLACK
6
CONTINUOUS
10
5.37729
20
-3.6227
11
5.37715
21
-3.62194
0
LINE
8
BLACK
6
CONTINUOUS
10
5.37715
20
-3.62194
11
5.37689
21
-3.62122
0
LINE
8
BLACK
6
CONTINUOUS
10
5.37689
20
-3.62122
11
5.37689
21
-3.32122
0
LINE
8
BLACK
6
CONTINUOUS
10
5.37689
20
-3.32122
11
5.37696
21
-3.32084
0
LINE
8
BLACK
6
CONTINUOUS
10
5.37696
20
-3.32084
11
5.37693
21
-3.32071
0
LINE
8
BLACK
6
CONTINUOUS
10
5.37693
20
-3.32071
11
5.377
21
-3.32059
0
LINE
8
BLACK
6
CONTINUOUS
10
5.377
20
-3.32059
11
5.37707
21
-3.32021
0
LINE
8
BLACK
6
CONTINUOUS
10
5.37707
20
-3.32021
11
5.37756
21
-3.31962
0
LINE
8
BLACK
6
CONTINUOUS
10
5.37756
20
-3.31962
11
5.37794
21
-3.31896
0
LINE
8
BLACK
6
CONTINUOUS
10
5.37794
20
-3.31896
11
5.37819
21
-3.31887
0
LINE
8
BLACK
6
CONTINUOUS
10
5.37819
20
-3.31887
11
5.37837
21
-3.31866
0
LINE
8
BLACK
6
CONTINUOUS
10
5.37837
20
-3.31866
11
5.37912
21
-3.31853
0
LINE
8
BLACK
6
CONTINUOUS
10
5.37912
20
-3.31853
11
5.37984
21
-3.31827
0
LINE
8
BLACK
6
CONTINUOUS
10
5.37984
20
-3.31827
11
5.57984
21
-3.31827
0
LINE
8
BLACK
6
CONTINUOUS
10
5.57984
20
-3.31827
11
5.58023
21
-3.31834
0
LINE
8
BLACK
6
CONTINUOUS
10
5.3828
20
-3.32417
11
5.3828
21
-3.61827
0
LINE
8
BLACK
6
CONTINUOUS
10
5.3828
20
-3.61827
11
5.57689
21
-3.61827
0
LINE
8
BLACK
6
CONTINUOUS
10
5.57689
20
-3.61827
11
5.57689
21
-3.32417
0
LINE
8
BLACK
6
CONTINUOUS
10
5.57689
20
-3.32417
11
5.3828
21
-3.32417
0
LINE
8
BLACK
6
CONTINUOUS
10
7.15923
20
-3.30434
11
7.15936
21
-3.30431
0
LINE
8
BLACK
6
CONTINUOUS
10
7.15936
20
-3.30431
11
7.15947
21
-3.30438
0
LINE
8
BLACK
6
CONTINUOUS
10
7.15947
20
-3.30438
11
7.15985
21
-3.30445
0
LINE
8
BLACK
6
CONTINUOUS
10
7.15985
20
-3.30445
11
7.16044
21
-3.30494
0
LINE
8
BLACK
6
CONTINUOUS
10
7.16044
20
-3.30494
11
7.1611
21
-3.30532
0
LINE
8
BLACK
6
CONTINUOUS
10
7.1611
20
-3.30532
11
7.1612
21
-3.30557
0
LINE
8
BLACK
6
CONTINUOUS
10
7.1612
20
-3.30557
11
7.1614
21
-3.30574
0
LINE
8
BLACK
6
CONTINUOUS
10
7.1614
20
-3.30574
11
7.16153
21
-3.3065
0
LINE
8
BLACK
6
CONTINUOUS
10
7.16153
20
-3.3065
11
7.1618
21
-3.30722
0
LINE
8
BLACK
6
CONTINUOUS
10
7.1618
20
-3.30722
11
7.1618
21
-3.60722
0
LINE
8
BLACK
6
CONTINUOUS
10
7.1618
20
-3.60722
11
7.16173
21
-3.6076
0
LINE
8
BLACK
6
CONTINUOUS
10
7.16173
20
-3.6076
11
7.16175
21
-3.60773
0
LINE
8
BLACK
6
CONTINUOUS
10
7.16175
20
-3.60773
11
7.16168
21
-3.60785
0
LINE
8
BLACK
6
CONTINUOUS
10
7.16168
20
-3.60785
11
7.16162
21
-3.60823
0
LINE
8
BLACK
6
CONTINUOUS
10
7.16162
20
-3.60823
11
7.16112
21
-3.60882
0
LINE
8
BLACK
6
CONTINUOUS
10
7.16112
20
-3.60882
11
7.16074
21
-3.60948
0
LINE
8
BLACK
6
CONTINUOUS
10
7.16074
20
-3.60948
11
7.16049
21
-3.60957
0
LINE
8
BLACK
6
CONTINUOUS
10
7.16049
20
-3.60957
11
7.16032
21
-3.60978
0
LINE
8
BLACK
6
CONTINUOUS
10
7.16032
20
-3.60978
11
7.15956
21
-3.60991
0
LINE
8
BLACK
6
CONTINUOUS
10
7.15956
20
-3.60991
11
7.15884
21
-3.61017
0
LINE
8
BLACK
6
CONTINUOUS
10
7.15884
20
-3.61017
11
6.95884
21
-3.61017
0
LINE
8
BLACK
6
CONTINUOUS
10
6.95884
20
-3.61017
11
6.95846
21
-3.61011
0
LINE
8
BLACK
6
CONTINUOUS
10
6.95846
20
-3.61011
11
6.95833
21
-3.61013
0
LINE
8
BLACK
6
CONTINUOUS
10
6.95833
20
-3.61013
11
6.95822
21
-3.61006
0
LINE
8
BLACK
6
CONTINUOUS
10
6.95822
20
-3.61006
11
6.95783
21
-3.61
0
LINE
8
BLACK
6
CONTINUOUS
10
6.95783
20
-3.61
11
6.95724
21
-3.6095
0
LINE
8
BLACK
6
CONTINUOUS
10
6.95724
20
-3.6095
11
6.95658
21
-3.60912
0
LINE
8
BLACK
6
CONTINUOUS
10
6.95658
20
-3.60912
11
6.95649
21
-3.60887
0
LINE
8
BLACK
6
CONTINUOUS
10
6.95649
20
-3.60887
11
6.95629
21
-3.6087
0
LINE
8
BLACK
6
CONTINUOUS
10
6.95629
20
-3.6087
11
6.95615
21
-3.60794
0
LINE
8
BLACK
6
CONTINUOUS
10
6.95615
20
-3.60794
11
6.95589
21
-3.60722
0
LINE
8
BLACK
6
CONTINUOUS
10
6.95589
20
-3.60722
11
6.95589
21
-3.30722
0
LINE
8
BLACK
6
CONTINUOUS
10
6.95589
20
-3.30722
11
6.95596
21
-3.30684
0
LINE
8
BLACK
6
CONTINUOUS
10
6.95596
20
-3.30684
11
6.95593
21
-3.30671
0
LINE
8
BLACK
6
CONTINUOUS
10
6.95593
20
-3.30671
11
6.956
21
-3.30659
0
LINE
8
BLACK
6
CONTINUOUS
10
6.956
20
-3.30659
11
6.95607
21
-3.30621
0
LINE
8
BLACK
6
CONTINUOUS
10
6.95607
20
-3.30621
11
6.95656
21
-3.30562
0
LINE
8
BLACK
6
CONTINUOUS
10
6.95656
20
-3.30562
11
6.95694
21
-3.30496
0
LINE
8
BLACK
6
CONTINUOUS
10
6.95694
20
-3.30496
11
6.95719
21
-3.30487
0
LINE
8
BLACK
6
CONTINUOUS
10
6.95719
20
-3.30487
11
6.95737
21
-3.30466
0
LINE
8
BLACK
6
CONTINUOUS
10
6.95737
20
-3.30466
11
6.95812
21
-3.30453
0
LINE
8
BLACK
6
CONTINUOUS
10
6.95812
20
-3.30453
11
6.95884
21
-3.30427
0
LINE
8
BLACK
6
CONTINUOUS
10
6.95884
20
-3.30427
11
7.15884
21
-3.30427
0
LINE
8
BLACK
6
CONTINUOUS
10
7.15884
20
-3.30427
11
7.15923
21
-3.30434
0
LINE
8
BLACK
6
CONTINUOUS
10
6.9618
20
-3.31017
11
6.9618
21
-3.60427
0
LINE
8
BLACK
6
CONTINUOUS
10
6.9618
20
-3.60427
11
7.15589
21
-3.60427
0
LINE
8
BLACK
6
CONTINUOUS
10
7.15589
20
-3.60427
11
7.15589
21
-3.31017
0
LINE
8
BLACK
6
CONTINUOUS
10
7.15589
20
-3.31017
11
6.9618
21
-3.31017
  0
ENDSEC
  0
EOF
