  0
SECTION
  2
HEADER
  9
$ANGBASE
  50
0.0
  9
$ANGDIR
  70
1
  9
$MEASUREMENT
  70
0
  0
ENDSEC
  0
SECTION
  2
TABLES
  0
TABLE
  2
LTYPE
  70
4
  0
LTYPE
  5
40F
  2
CONTINUOUS
  70
0
  3
Solid line
  72
65
  73
0
  40
0.0
  0
LTYPE
  5
410
  2
DASHDOT
 70
0
  3
Dash Dot ____ _ ____ _
 72
65
 73
4
 40
2.0
 49
1.25
 49
-0.25
 49
0.25
 49
-0.25
  0
LTYPE
  5
411
  2
DASHED
 70
0
  3
Dashed __ __ __ __ __
 72
65
 73
2
 40
0.75
 49
0.5
 49
-0.25
  0
LTYPE
  5
43B
  2
DOTTED
 70
0
  3
Dotted .  .  .  .
 72
65
 73
2
 40
0.2
 49
0.0
 49
-0.2
  0
ENDTAB
  0
TABLE
  2
STYLE
  70
4
  0
STYLE
  2
KICAD
  70
0
  40
0
  41
1
  42
1
  50
0
  71
0
  3
isocp.shx
  0
STYLE
  2
KICADB
  70
0
  40
0
  41
1
  42
1
  50
0
  71
0
  3
isocp.shx
  0
STYLE
  2
KICADI
  70
0
  40
0
  41
1
  42
1
  50
15
  71
0
  3
isocp.shx
  0
STYLE
  2
KICADBI
  70
0
  40
0
  41
1
  42
1
  50
15
  71
0
  3
isocp.shx
  0
ENDTAB
  0
TABLE
  2
LAYER
  70
1
  0
LAYER
  2
BLACK
  70
0
  62
7
  6
CONTINUOUS
  0
ENDTAB
  0
ENDSEC
  0
SECTION
  2
ENTITIES
0
LINE
8
BLACK
6
CONTINUOUS
10
6.65434
20
-4.05372
11
6.58934
21
-4.05372
0
LINE
8
BLACK
6
CONTINUOUS
10
6.58934
20
-4.05372
11
6.58934
21
-3.98872
0
LINE
8
BLACK
6
CONTINUOUS
10
6.58934
20
-3.98872
11
6.65434
21
-3.98872
0
LINE
8
BLACK
6
CONTINUOUS
10
6.65434
20
-3.98872
11
6.65434
21
-4.05372
0
LINE
8
BLACK
6
CONTINUOUS
10
6.55434
20
-4.05372
11
6.48934
21
-4.05372
0
LINE
8
BLACK
6
CONTINUOUS
10
6.48934
20
-4.05372
11
6.48934
21
-3.98872
0
LINE
8
BLACK
6
CONTINUOUS
10
6.48934
20
-3.98872
11
6.55434
21
-3.98872
0
LINE
8
BLACK
6
CONTINUOUS
10
6.55434
20
-3.98872
11
6.55434
21
-4.05372
0
LINE
8
BLACK
6
CONTINUOUS
10
6.45434
20
-4.05372
11
6.38934
21
-4.05372
0
LINE
8
BLACK
6
CONTINUOUS
10
6.38934
20
-4.05372
11
6.38934
21
-3.98872
0
LINE
8
BLACK
6
CONTINUOUS
10
6.38934
20
-3.98872
11
6.45434
21
-3.98872
0
LINE
8
BLACK
6
CONTINUOUS
10
6.45434
20
-3.98872
11
6.45434
21
-4.05372
0
LINE
8
BLACK
6
CONTINUOUS
10
6.35434
20
-4.05372
11
6.28934
21
-4.05372
0
LINE
8
BLACK
6
CONTINUOUS
10
6.28934
20
-4.05372
11
6.28934
21
-3.98872
0
LINE
8
BLACK
6
CONTINUOUS
10
6.28934
20
-3.98872
11
6.35434
21
-3.98872
0
LINE
8
BLACK
6
CONTINUOUS
10
6.35434
20
-3.98872
11
6.35434
21
-4.05372
0
LINE
8
BLACK
6
CONTINUOUS
10
6.25434
20
-4.05372
11
6.18934
21
-4.05372
0
LINE
8
BLACK
6
CONTINUOUS
10
6.18934
20
-4.05372
11
6.18934
21
-3.98872
0
LINE
8
BLACK
6
CONTINUOUS
10
6.18934
20
-3.98872
11
6.25434
21
-3.98872
0
LINE
8
BLACK
6
CONTINUOUS
10
6.25434
20
-3.98872
11
6.25434
21
-4.05372
0
LINE
8
BLACK
6
CONTINUOUS
10
7.03849
20
-3.80343
11
7.05197
21
-3.8052
0
LINE
8
BLACK
6
CONTINUOUS
10
7.05197
20
-3.8052
11
7.06516
21
-3.80851
0
LINE
8
BLACK
6
CONTINUOUS
10
7.06516
20
-3.80851
11
7.07788
21
-3.81332
0
LINE
8
BLACK
6
CONTINUOUS
10
7.07788
20
-3.81332
11
7.08997
21
-3.81956
0
LINE
8
BLACK
6
CONTINUOUS
10
7.08997
20
-3.81956
11
7.10125
21
-3.82714
0
LINE
8
BLACK
6
CONTINUOUS
10
7.10125
20
-3.82714
11
7.11159
21
-3.83597
0
LINE
8
BLACK
6
CONTINUOUS
10
7.11159
20
-3.83597
11
7.12085
21
-3.84593
0
LINE
8
BLACK
6
CONTINUOUS
10
7.12085
20
-3.84593
11
7.1289
21
-3.85689
0
LINE
8
BLACK
6
CONTINUOUS
10
7.1289
20
-3.85689
11
7.13564
21
-3.8687
0
LINE
8
BLACK
6
CONTINUOUS
10
7.13564
20
-3.8687
11
7.14097
21
-3.88121
0
LINE
8
BLACK
6
CONTINUOUS
10
7.14097
20
-3.88121
11
7.14483
21
-3.89425
0
LINE
8
BLACK
6
CONTINUOUS
10
7.14483
20
-3.89425
11
7.14717
21
-3.90765
0
LINE
8
BLACK
6
CONTINUOUS
10
7.14717
20
-3.90765
11
7.14795
21
-3.92122
0
LINE
8
BLACK
6
CONTINUOUS
10
7.14795
20
-3.92122
11
7.14772
21
-3.92864
0
LINE
8
BLACK
6
CONTINUOUS
10
7.14772
20
-3.92864
11
7.14609
21
-3.94214
0
LINE
8
BLACK
6
CONTINUOUS
10
7.14609
20
-3.94214
11
7.14291
21
-3.95536
0
LINE
8
BLACK
6
CONTINUOUS
10
7.14291
20
-3.95536
11
7.13824
21
-3.96813
0
LINE
8
BLACK
6
CONTINUOUS
10
7.13824
20
-3.96813
11
7.13213
21
-3.98028
0
LINE
8
BLACK
6
CONTINUOUS
10
7.13213
20
-3.98028
11
7.12466
21
-3.99164
0
LINE
8
BLACK
6
CONTINUOUS
10
7.12466
20
-3.99164
11
7.11594
21
-4.00207
0
LINE
8
BLACK
6
CONTINUOUS
10
7.11594
20
-4.00207
11
7.10608
21
-4.01143
0
LINE
8
BLACK
6
CONTINUOUS
10
7.10608
20
-4.01143
11
7.0952
21
-4.0196
0
LINE
8
BLACK
6
CONTINUOUS
10
7.0952
20
-4.0196
11
7.08346
21
-4.02646
0
LINE
8
BLACK
6
CONTINUOUS
10
7.08346
20
-4.02646
11
7.07101
21
-4.03192
0
LINE
8
BLACK
6
CONTINUOUS
10
7.07101
20
-4.03192
11
7.05802
21
-4.03592
0
LINE
8
BLACK
6
CONTINUOUS
10
7.05802
20
-4.03592
11
7.04465
21
-4.0384
0
LINE
8
BLACK
6
CONTINUOUS
10
7.04465
20
-4.0384
11
7.03108
21
-4.03932
0
LINE
8
BLACK
6
CONTINUOUS
10
7.03108
20
-4.03932
11
7.0175
21
-4.03868
0
LINE
8
BLACK
6
CONTINUOUS
10
7.0175
20
-4.03868
11
7.00408
21
-4.03649
0
LINE
8
BLACK
6
CONTINUOUS
10
7.00408
20
-4.03649
11
6.991
21
-4.03276
0
LINE
8
BLACK
6
CONTINUOUS
10
6.991
20
-4.03276
11
6.97844
21
-4.02756
0
LINE
8
BLACK
6
CONTINUOUS
10
6.97844
20
-4.02756
11
6.96656
21
-4.02094
0
LINE
8
BLACK
6
CONTINUOUS
10
6.96656
20
-4.02094
11
6.95551
21
-4.01301
0
LINE
8
BLACK
6
CONTINUOUS
10
6.95551
20
-4.01301
11
6.94546
21
-4.00386
0
LINE
8
BLACK
6
CONTINUOUS
10
6.94546
20
-4.00386
11
6.93652
21
-3.99361
0
LINE
8
BLACK
6
CONTINUOUS
10
6.93652
20
-3.99361
11
6.92882
21
-3.9824
0
LINE
8
BLACK
6
CONTINUOUS
10
6.92882
20
-3.9824
11
6.92245
21
-3.97039
0
LINE
8
BLACK
6
CONTINUOUS
10
6.92245
20
-3.97039
11
6.91751
21
-3.95772
0
LINE
8
BLACK
6
CONTINUOUS
10
6.91751
20
-3.95772
11
6.91406
21
-3.94457
0
LINE
8
BLACK
6
CONTINUOUS
10
6.91406
20
-3.94457
11
6.91215
21
-3.9311
0
LINE
8
BLACK
6
CONTINUOUS
10
6.91215
20
-3.9311
11
6.91179
21
-3.91751
0
LINE
8
BLACK
6
CONTINUOUS
10
6.91179
20
-3.91751
11
6.913
21
-3.90397
0
LINE
8
BLACK
6
CONTINUOUS
10
6.913
20
-3.90397
11
6.91576
21
-3.89065
0
LINE
8
BLACK
6
CONTINUOUS
10
6.91576
20
-3.89065
11
6.92003
21
-3.87774
0
LINE
8
BLACK
6
CONTINUOUS
10
6.92003
20
-3.87774
11
6.92575
21
-3.86541
0
LINE
8
BLACK
6
CONTINUOUS
10
6.92575
20
-3.86541
11
6.93286
21
-3.85381
0
LINE
8
BLACK
6
CONTINUOUS
10
6.93286
20
-3.85381
11
6.94125
21
-3.84311
0
LINE
8
BLACK
6
CONTINUOUS
10
6.94125
20
-3.84311
11
6.95081
21
-3.83345
0
LINE
8
BLACK
6
CONTINUOUS
10
6.95081
20
-3.83345
11
6.96142
21
-3.82495
0
LINE
8
BLACK
6
CONTINUOUS
10
6.96142
20
-3.82495
11
6.97294
21
-3.81772
0
LINE
8
BLACK
6
CONTINUOUS
10
6.97294
20
-3.81772
11
6.98522
21
-3.81187
0
LINE
8
BLACK
6
CONTINUOUS
10
6.98522
20
-3.81187
11
6.99808
21
-3.80746
0
LINE
8
BLACK
6
CONTINUOUS
10
6.99808
20
-3.80746
11
7.01137
21
-3.80456
0
LINE
8
BLACK
6
CONTINUOUS
10
7.01137
20
-3.80456
11
7.0249
21
-3.80321
0
LINE
8
BLACK
6
CONTINUOUS
10
7.0249
20
-3.80321
11
7.03849
21
-3.80343
0
LINE
8
BLACK
6
CONTINUOUS
10
5.43849
20
-3.80343
11
5.45197
21
-3.8052
0
LINE
8
BLACK
6
CONTINUOUS
10
5.45197
20
-3.8052
11
5.46516
21
-3.80851
0
LINE
8
BLACK
6
CONTINUOUS
10
5.46516
20
-3.80851
11
5.47788
21
-3.81332
0
LINE
8
BLACK
6
CONTINUOUS
10
5.47788
20
-3.81332
11
5.48997
21
-3.81956
0
LINE
8
BLACK
6
CONTINUOUS
10
5.48997
20
-3.81956
11
5.50125
21
-3.82714
0
LINE
8
BLACK
6
CONTINUOUS
10
5.50125
20
-3.82714
11
5.51159
21
-3.83597
0
LINE
8
BLACK
6
CONTINUOUS
10
5.51159
20
-3.83597
11
5.52085
21
-3.84593
0
LINE
8
BLACK
6
CONTINUOUS
10
5.52085
20
-3.84593
11
5.5289
21
-3.85689
0
LINE
8
BLACK
6
CONTINUOUS
10
5.5289
20
-3.85689
11
5.53564
21
-3.8687
0
LINE
8
BLACK
6
CONTINUOUS
10
5.53564
20
-3.8687
11
5.54097
21
-3.88121
0
LINE
8
BLACK
6
CONTINUOUS
10
5.54097
20
-3.88121
11
5.54483
21
-3.89425
0
LINE
8
BLACK
6
CONTINUOUS
10
5.54483
20
-3.89425
11
5.54717
21
-3.90765
0
LINE
8
BLACK
6
CONTINUOUS
10
5.54717
20
-3.90765
11
5.54795
21
-3.92122
0
LINE
8
BLACK
6
CONTINUOUS
10
5.54795
20
-3.92122
11
5.54772
21
-3.92864
0
LINE
8
BLACK
6
CONTINUOUS
10
5.54772
20
-3.92864
11
5.54609
21
-3.94214
0
LINE
8
BLACK
6
CONTINUOUS
10
5.54609
20
-3.94214
11
5.54291
21
-3.95536
0
LINE
8
BLACK
6
CONTINUOUS
10
5.54291
20
-3.95536
11
5.53824
21
-3.96813
0
LINE
8
BLACK
6
CONTINUOUS
10
5.53824
20
-3.96813
11
5.53213
21
-3.98028
0
LINE
8
BLACK
6
CONTINUOUS
10
5.53213
20
-3.98028
11
5.52466
21
-3.99164
0
LINE
8
BLACK
6
CONTINUOUS
10
5.52466
20
-3.99164
11
5.51594
21
-4.00207
0
LINE
8
BLACK
6
CONTINUOUS
10
5.51594
20
-4.00207
11
5.50608
21
-4.01143
0
LINE
8
BLACK
6
CONTINUOUS
10
5.50608
20
-4.01143
11
5.4952
21
-4.0196
0
LINE
8
BLACK
6
CONTINUOUS
10
5.4952
20
-4.0196
11
5.48346
21
-4.02646
0
LINE
8
BLACK
6
CONTINUOUS
10
5.48346
20
-4.02646
11
5.47101
21
-4.03192
0
LINE
8
BLACK
6
CONTINUOUS
10
5.47101
20
-4.03192
11
5.45802
21
-4.03592
0
LINE
8
BLACK
6
CONTINUOUS
10
5.45802
20
-4.03592
11
5.44465
21
-4.0384
0
LINE
8
BLACK
6
CONTINUOUS
10
5.44465
20
-4.0384
11
5.43108
21
-4.03932
0
LINE
8
BLACK
6
CONTINUOUS
10
5.43108
20
-4.03932
11
5.4175
21
-4.03868
0
LINE
8
BLACK
6
CONTINUOUS
10
5.4175
20
-4.03868
11
5.40408
21
-4.03649
0
LINE
8
BLACK
6
CONTINUOUS
10
5.40408
20
-4.03649
11
5.391
21
-4.03276
0
LINE
8
BLACK
6
CONTINUOUS
10
5.391
20
-4.03276
11
5.37844
21
-4.02756
0
LINE
8
BLACK
6
CONTINUOUS
10
5.37844
20
-4.02756
11
5.36656
21
-4.02094
0
LINE
8
BLACK
6
CONTINUOUS
10
5.36656
20
-4.02094
11
5.35551
21
-4.01301
0
LINE
8
BLACK
6
CONTINUOUS
10
5.35551
20
-4.01301
11
5.34546
21
-4.00386
0
LINE
8
BLACK
6
CONTINUOUS
10
5.34546
20
-4.00386
11
5.33652
21
-3.99361
0
LINE
8
BLACK
6
CONTINUOUS
10
5.33652
20
-3.99361
11
5.32882
21
-3.9824
0
LINE
8
BLACK
6
CONTINUOUS
10
5.32882
20
-3.9824
11
5.32245
21
-3.97039
0
LINE
8
BLACK
6
CONTINUOUS
10
5.32245
20
-3.97039
11
5.31751
21
-3.95772
0
LINE
8
BLACK
6
CONTINUOUS
10
5.31751
20
-3.95772
11
5.31406
21
-3.94457
0
LINE
8
BLACK
6
CONTINUOUS
10
5.31406
20
-3.94457
11
5.31215
21
-3.9311
0
LINE
8
BLACK
6
CONTINUOUS
10
5.31215
20
-3.9311
11
5.31179
21
-3.91751
0
LINE
8
BLACK
6
CONTINUOUS
10
5.31179
20
-3.91751
11
5.313
21
-3.90397
0
LINE
8
BLACK
6
CONTINUOUS
10
5.313
20
-3.90397
11
5.31576
21
-3.89065
0
LINE
8
BLACK
6
CONTINUOUS
10
5.31576
20
-3.89065
11
5.32003
21
-3.87774
0
LINE
8
BLACK
6
CONTINUOUS
10
5.32003
20
-3.87774
11
5.32575
21
-3.86541
0
LINE
8
BLACK
6
CONTINUOUS
10
5.32575
20
-3.86541
11
5.33286
21
-3.85381
0
LINE
8
BLACK
6
CONTINUOUS
10
5.33286
20
-3.85381
11
5.34125
21
-3.84311
0
LINE
8
BLACK
6
CONTINUOUS
10
5.34125
20
-3.84311
11
5.35081
21
-3.83345
0
LINE
8
BLACK
6
CONTINUOUS
10
5.35081
20
-3.83345
11
5.36142
21
-3.82495
0
LINE
8
BLACK
6
CONTINUOUS
10
5.36142
20
-3.82495
11
5.37294
21
-3.81772
0
LINE
8
BLACK
6
CONTINUOUS
10
5.37294
20
-3.81772
11
5.38522
21
-3.81187
0
LINE
8
BLACK
6
CONTINUOUS
10
5.38522
20
-3.81187
11
5.39808
21
-3.80746
0
LINE
8
BLACK
6
CONTINUOUS
10
5.39808
20
-3.80746
11
5.41137
21
-3.80456
0
LINE
8
BLACK
6
CONTINUOUS
10
5.41137
20
-3.80456
11
5.4249
21
-3.80321
0
LINE
8
BLACK
6
CONTINUOUS
10
5.4249
20
-3.80321
11
5.43849
21
-3.80343
0
LINE
8
BLACK
6
CONTINUOUS
10
6.65434
20
-3.95372
11
6.58934
21
-3.95372
0
LINE
8
BLACK
6
CONTINUOUS
10
6.58934
20
-3.95372
11
6.58934
21
-3.88872
0
LINE
8
BLACK
6
CONTINUOUS
10
6.58934
20
-3.88872
11
6.65434
21
-3.88872
0
LINE
8
BLACK
6
CONTINUOUS
10
6.65434
20
-3.88872
11
6.65434
21
-3.95372
0
LINE
8
BLACK
6
CONTINUOUS
10
6.55434
20
-3.95372
11
6.48934
21
-3.95372
0
LINE
8
BLACK
6
CONTINUOUS
10
6.48934
20
-3.95372
11
6.48934
21
-3.88872
0
LINE
8
BLACK
6
CONTINUOUS
10
6.48934
20
-3.88872
11
6.55434
21
-3.88872
0
LINE
8
BLACK
6
CONTINUOUS
10
6.55434
20
-3.88872
11
6.55434
21
-3.95372
0
LINE
8
BLACK
6
CONTINUOUS
10
6.45434
20
-3.95372
11
6.38934
21
-3.95372
0
LINE
8
BLACK
6
CONTINUOUS
10
6.38934
20
-3.95372
11
6.38934
21
-3.88872
0
LINE
8
BLACK
6
CONTINUOUS
10
6.38934
20
-3.88872
11
6.45434
21
-3.88872
0
LINE
8
BLACK
6
CONTINUOUS
10
6.45434
20
-3.88872
11
6.45434
21
-3.95372
0
LINE
8
BLACK
6
CONTINUOUS
10
6.35434
20
-3.95372
11
6.28934
21
-3.95372
0
LINE
8
BLACK
6
CONTINUOUS
10
6.28934
20
-3.95372
11
6.28934
21
-3.88872
0
LINE
8
BLACK
6
CONTINUOUS
10
6.28934
20
-3.88872
11
6.35434
21
-3.88872
0
LINE
8
BLACK
6
CONTINUOUS
10
6.35434
20
-3.88872
11
6.35434
21
-3.95372
0
LINE
8
BLACK
6
CONTINUOUS
10
6.25434
20
-3.95372
11
6.18934
21
-3.95372
0
LINE
8
BLACK
6
CONTINUOUS
10
6.18934
20
-3.95372
11
6.18934
21
-3.88872
0
LINE
8
BLACK
6
CONTINUOUS
10
6.18934
20
-3.88872
11
6.25434
21
-3.88872
0
LINE
8
BLACK
6
CONTINUOUS
10
6.25434
20
-3.88872
11
6.25434
21
-3.95372
0
LINE
8
BLACK
6
CONTINUOUS
10
6.13234
20
-3.85122
11
6.07734
21
-3.85122
0
LINE
8
BLACK
6
CONTINUOUS
10
6.07734
20
-3.85122
11
6.07734
21
-3.81622
0
LINE
8
BLACK
6
CONTINUOUS
10
6.07734
20
-3.81622
11
6.13234
21
-3.81622
0
LINE
8
BLACK
6
CONTINUOUS
10
6.13234
20
-3.81622
11
6.13234
21
-3.85122
0
LINE
8
BLACK
6
CONTINUOUS
10
6.20734
20
-3.85122
11
6.15234
21
-3.85122
0
LINE
8
BLACK
6
CONTINUOUS
10
6.15234
20
-3.85122
11
6.15234
21
-3.81622
0
LINE
8
BLACK
6
CONTINUOUS
10
6.15234
20
-3.81622
11
6.20734
21
-3.81622
0
LINE
8
BLACK
6
CONTINUOUS
10
6.20734
20
-3.81622
11
6.20734
21
-3.85122
0
LINE
8
BLACK
6
CONTINUOUS
10
6.38384
20
-3.84672
11
6.34884
21
-3.84672
0
LINE
8
BLACK
6
CONTINUOUS
10
6.34884
20
-3.84672
11
6.34884
21
-3.79172
0
LINE
8
BLACK
6
CONTINUOUS
10
6.34884
20
-3.79172
11
6.38384
21
-3.79172
0
LINE
8
BLACK
6
CONTINUOUS
10
6.38384
20
-3.79172
11
6.38384
21
-3.84672
0
LINE
8
BLACK
6
CONTINUOUS
10
6.30884
20
-3.84672
11
6.27384
21
-3.84672
0
LINE
8
BLACK
6
CONTINUOUS
10
6.27384
20
-3.84672
11
6.27384
21
-3.79172
0
LINE
8
BLACK
6
CONTINUOUS
10
6.27384
20
-3.79172
11
6.30884
21
-3.79172
0
LINE
8
BLACK
6
CONTINUOUS
10
6.30884
20
-3.79172
11
6.30884
21
-3.84672
0
LINE
8
BLACK
6
CONTINUOUS
10
6.20734
20
-3.77622
11
6.15234
21
-3.77622
0
LINE
8
BLACK
6
CONTINUOUS
10
6.15234
20
-3.77622
11
6.15234
21
-3.74122
0
LINE
8
BLACK
6
CONTINUOUS
10
6.15234
20
-3.74122
11
6.20734
21
-3.74122
0
LINE
8
BLACK
6
CONTINUOUS
10
6.20734
20
-3.74122
11
6.20734
21
-3.77622
0
LINE
8
BLACK
6
CONTINUOUS
10
6.13234
20
-3.77622
11
6.07734
21
-3.77622
0
LINE
8
BLACK
6
CONTINUOUS
10
6.07734
20
-3.77622
11
6.07734
21
-3.74122
0
LINE
8
BLACK
6
CONTINUOUS
10
6.07734
20
-3.74122
11
6.13234
21
-3.74122
0
LINE
8
BLACK
6
CONTINUOUS
10
6.13234
20
-3.74122
11
6.13234
21
-3.77622
0
LINE
8
BLACK
6
CONTINUOUS
10
6.30984
20
-3.77372
11
6.27484
21
-3.77372
0
LINE
8
BLACK
6
CONTINUOUS
10
6.27484
20
-3.77372
11
6.27484
21
-3.71872
0
LINE
8
BLACK
6
CONTINUOUS
10
6.27484
20
-3.71872
11
6.30984
21
-3.71872
0
LINE
8
BLACK
6
CONTINUOUS
10
6.30984
20
-3.71872
11
6.30984
21
-3.77372
0
LINE
8
BLACK
6
CONTINUOUS
10
6.38484
20
-3.77372
11
6.34984
21
-3.77372
0
LINE
8
BLACK
6
CONTINUOUS
10
6.34984
20
-3.77372
11
6.34984
21
-3.71872
0
LINE
8
BLACK
6
CONTINUOUS
10
6.34984
20
-3.71872
11
6.38484
21
-3.71872
0
LINE
8
BLACK
6
CONTINUOUS
10
6.38484
20
-3.71872
11
6.38484
21
-3.77372
0
LINE
8
BLACK
6
CONTINUOUS
10
6.47734
20
-3.72622
11
6.42234
21
-3.72622
0
LINE
8
BLACK
6
CONTINUOUS
10
6.42234
20
-3.72622
11
6.42234
21
-3.69122
0
LINE
8
BLACK
6
CONTINUOUS
10
6.42234
20
-3.69122
11
6.47734
21
-3.69122
0
LINE
8
BLACK
6
CONTINUOUS
10
6.47734
20
-3.69122
11
6.47734
21
-3.72622
0
LINE
8
BLACK
6
CONTINUOUS
10
6.57234
20
-3.72622
11
6.51734
21
-3.72622
0
LINE
8
BLACK
6
CONTINUOUS
10
6.51734
20
-3.72622
11
6.51734
21
-3.69122
0
LINE
8
BLACK
6
CONTINUOUS
10
6.51734
20
-3.69122
11
6.57234
21
-3.69122
0
LINE
8
BLACK
6
CONTINUOUS
10
6.57234
20
-3.69122
11
6.57234
21
-3.72622
0
LINE
8
BLACK
6
CONTINUOUS
10
6.67234
20
-3.72122
11
6.61734
21
-3.72122
0
LINE
8
BLACK
6
CONTINUOUS
10
6.61734
20
-3.72122
11
6.61734
21
-3.68622
0
LINE
8
BLACK
6
CONTINUOUS
10
6.61734
20
-3.68622
11
6.67234
21
-3.68622
0
LINE
8
BLACK
6
CONTINUOUS
10
6.67234
20
-3.68622
11
6.67234
21
-3.72122
0
LINE
8
BLACK
6
CONTINUOUS
10
6.76734
20
-3.72122
11
6.71234
21
-3.72122
0
LINE
8
BLACK
6
CONTINUOUS
10
6.71234
20
-3.72122
11
6.71234
21
-3.68622
0
LINE
8
BLACK
6
CONTINUOUS
10
6.71234
20
-3.68622
11
6.76734
21
-3.68622
0
LINE
8
BLACK
6
CONTINUOUS
10
6.76734
20
-3.68622
11
6.76734
21
-3.72122
0
LINE
8
BLACK
6
CONTINUOUS
10
6.03234
20
-3.71622
11
5.97734
21
-3.71622
0
LINE
8
BLACK
6
CONTINUOUS
10
5.97734
20
-3.71622
11
5.97734
21
-3.68122
0
LINE
8
BLACK
6
CONTINUOUS
10
5.97734
20
-3.68122
11
6.03234
21
-3.68122
0
LINE
8
BLACK
6
CONTINUOUS
10
6.03234
20
-3.68122
11
6.03234
21
-3.71622
0
LINE
8
BLACK
6
CONTINUOUS
10
6.19719
20
-3.69592
11
6.1775
21
-3.69592
0
LINE
8
BLACK
6
CONTINUOUS
10
6.1775
20
-3.69592
11
6.1775
21
-3.65652
0
LINE
8
BLACK
6
CONTINUOUS
10
6.1775
20
-3.65652
11
6.19719
21
-3.65652
0
LINE
8
BLACK
6
CONTINUOUS
10
6.19719
20
-3.65652
11
6.19719
21
-3.69592
0
LINE
8
BLACK
6
CONTINUOUS
10
6.12219
20
-3.69592
11
6.1025
21
-3.69592
0
LINE
8
BLACK
6
CONTINUOUS
10
6.1025
20
-3.69592
11
6.1025
21
-3.65652
0
LINE
8
BLACK
6
CONTINUOUS
10
6.1025
20
-3.65652
11
6.12219
21
-3.65652
0
LINE
8
BLACK
6
CONTINUOUS
10
6.12219
20
-3.65652
11
6.12219
21
-3.69592
0
LINE
8
BLACK
6
CONTINUOUS
10
6.15969
20
-3.69592
11
6.14
21
-3.69592
0
LINE
8
BLACK
6
CONTINUOUS
10
6.14
20
-3.69592
11
6.14
21
-3.65652
0
LINE
8
BLACK
6
CONTINUOUS
10
6.14
20
-3.65652
11
6.15969
21
-3.65652
0
LINE
8
BLACK
6
CONTINUOUS
10
6.15969
20
-3.65652
11
6.15969
21
-3.69592
0
LINE
8
BLACK
6
CONTINUOUS
10
6.35984
20
-3.65372
11
6.32484
21
-3.65372
0
LINE
8
BLACK
6
CONTINUOUS
10
6.32484
20
-3.65372
11
6.32484
21
-3.59872
0
LINE
8
BLACK
6
CONTINUOUS
10
6.32484
20
-3.59872
11
6.35984
21
-3.59872
0
LINE
8
BLACK
6
CONTINUOUS
10
6.35984
20
-3.59872
11
6.35984
21
-3.65372
0
LINE
8
BLACK
6
CONTINUOUS
10
6.28484
20
-3.65372
11
6.24984
21
-3.65372
0
LINE
8
BLACK
6
CONTINUOUS
10
6.24984
20
-3.65372
11
6.24984
21
-3.59872
0
LINE
8
BLACK
6
CONTINUOUS
10
6.24984
20
-3.59872
11
6.28484
21
-3.59872
0
LINE
8
BLACK
6
CONTINUOUS
10
6.28484
20
-3.59872
11
6.28484
21
-3.65372
0
LINE
8
BLACK
6
CONTINUOUS
10
6.57234
20
-3.65122
11
6.51734
21
-3.65122
0
LINE
8
BLACK
6
CONTINUOUS
10
6.51734
20
-3.65122
11
6.51734
21
-3.61622
0
LINE
8
BLACK
6
CONTINUOUS
10
6.51734
20
-3.61622
11
6.57234
21
-3.61622
0
LINE
8
BLACK
6
CONTINUOUS
10
6.57234
20
-3.61622
11
6.57234
21
-3.65122
0
LINE
8
BLACK
6
CONTINUOUS
10
6.47734
20
-3.65122
11
6.42234
21
-3.65122
0
LINE
8
BLACK
6
CONTINUOUS
10
6.42234
20
-3.65122
11
6.42234
21
-3.61622
0
LINE
8
BLACK
6
CONTINUOUS
10
6.42234
20
-3.61622
11
6.47734
21
-3.61622
0
LINE
8
BLACK
6
CONTINUOUS
10
6.47734
20
-3.61622
11
6.47734
21
-3.65122
0
LINE
8
BLACK
6
CONTINUOUS
10
6.67234
20
-3.64622
11
6.61734
21
-3.64622
0
LINE
8
BLACK
6
CONTINUOUS
10
6.61734
20
-3.64622
11
6.61734
21
-3.61122
0
LINE
8
BLACK
6
CONTINUOUS
10
6.61734
20
-3.61122
11
6.67234
21
-3.61122
0
LINE
8
BLACK
6
CONTINUOUS
10
6.67234
20
-3.61122
11
6.67234
21
-3.64622
0
LINE
8
BLACK
6
CONTINUOUS
10
6.76734
20
-3.64622
11
6.71234
21
-3.64622
0
LINE
8
BLACK
6
CONTINUOUS
10
6.71234
20
-3.64622
11
6.71234
21
-3.61122
0
LINE
8
BLACK
6
CONTINUOUS
10
6.71234
20
-3.61122
11
6.76734
21
-3.61122
0
LINE
8
BLACK
6
CONTINUOUS
10
6.76734
20
-3.61122
11
6.76734
21
-3.64622
0
LINE
8
BLACK
6
CONTINUOUS
10
6.03234
20
-3.64122
11
5.97734
21
-3.64122
0
LINE
8
BLACK
6
CONTINUOUS
10
5.97734
20
-3.64122
11
5.97734
21
-3.60622
0
LINE
8
BLACK
6
CONTINUOUS
10
5.97734
20
-3.60622
11
6.03234
21
-3.60622
0
LINE
8
BLACK
6
CONTINUOUS
10
6.03234
20
-3.60622
11
6.03234
21
-3.64122
0
LINE
8
BLACK
6
CONTINUOUS
10
6.84734
20
-3.63622
11
6.79234
21
-3.63622
0
LINE
8
BLACK
6
CONTINUOUS
10
6.79234
20
-3.63622
11
6.79234
21
-3.60122
0
LINE
8
BLACK
6
CONTINUOUS
10
6.79234
20
-3.60122
11
6.84734
21
-3.60122
0
LINE
8
BLACK
6
CONTINUOUS
10
6.84734
20
-3.60122
11
6.84734
21
-3.63622
0
LINE
8
BLACK
6
CONTINUOUS
10
6.93734
20
-3.63622
11
6.88234
21
-3.63622
0
LINE
8
BLACK
6
CONTINUOUS
10
6.88234
20
-3.63622
11
6.88234
21
-3.60122
0
LINE
8
BLACK
6
CONTINUOUS
10
6.88234
20
-3.60122
11
6.93734
21
-3.60122
0
LINE
8
BLACK
6
CONTINUOUS
10
6.93734
20
-3.60122
11
6.93734
21
-3.63622
0
LINE
8
BLACK
6
CONTINUOUS
10
5.56234
20
-3.60372
11
5.49734
21
-3.60372
0
LINE
8
BLACK
6
CONTINUOUS
10
5.49734
20
-3.60372
11
5.49734
21
-3.53872
0
LINE
8
BLACK
6
CONTINUOUS
10
5.49734
20
-3.53872
11
5.56234
21
-3.53872
0
LINE
8
BLACK
6
CONTINUOUS
10
5.56234
20
-3.53872
11
5.56234
21
-3.60372
0
LINE
8
BLACK
6
CONTINUOUS
10
5.46234
20
-3.60372
11
5.39734
21
-3.60372
0
LINE
8
BLACK
6
CONTINUOUS
10
5.39734
20
-3.60372
11
5.39734
21
-3.53872
0
LINE
8
BLACK
6
CONTINUOUS
10
5.39734
20
-3.53872
11
5.46234
21
-3.53872
0
LINE
8
BLACK
6
CONTINUOUS
10
5.46234
20
-3.53872
11
5.46234
21
-3.60372
0
LINE
8
BLACK
6
CONTINUOUS
10
6.12221
20
-3.59592
11
6.10248
21
-3.59592
0
LINE
8
BLACK
6
CONTINUOUS
10
6.10248
20
-3.59592
11
6.10248
21
-3.55652
0
LINE
8
BLACK
6
CONTINUOUS
10
6.10248
20
-3.55652
11
6.12221
21
-3.55652
0
LINE
8
BLACK
6
CONTINUOUS
10
6.12221
20
-3.55652
11
6.12221
21
-3.59592
0
LINE
8
BLACK
6
CONTINUOUS
10
6.19719
20
-3.59592
11
6.1775
21
-3.59592
0
LINE
8
BLACK
6
CONTINUOUS
10
6.1775
20
-3.59592
11
6.1775
21
-3.55652
0
LINE
8
BLACK
6
CONTINUOUS
10
6.1775
20
-3.55652
11
6.19719
21
-3.55652
0
LINE
8
BLACK
6
CONTINUOUS
10
6.19719
20
-3.55652
11
6.19719
21
-3.59592
0
LINE
8
BLACK
6
CONTINUOUS
10
6.15969
20
-3.59592
11
6.14
21
-3.59592
0
LINE
8
BLACK
6
CONTINUOUS
10
6.14
20
-3.59592
11
6.14
21
-3.55652
0
LINE
8
BLACK
6
CONTINUOUS
10
6.14
20
-3.55652
11
6.15969
21
-3.55652
0
LINE
8
BLACK
6
CONTINUOUS
10
6.15969
20
-3.55652
11
6.15969
21
-3.59592
0
LINE
8
BLACK
6
CONTINUOUS
10
7.14134
20
-3.58972
11
7.07634
21
-3.58972
0
LINE
8
BLACK
6
CONTINUOUS
10
7.07634
20
-3.58972
11
7.07634
21
-3.52472
0
LINE
8
BLACK
6
CONTINUOUS
10
7.07634
20
-3.52472
11
7.14134
21
-3.52472
0
LINE
8
BLACK
6
CONTINUOUS
10
7.14134
20
-3.52472
11
7.14134
21
-3.58972
0
LINE
8
BLACK
6
CONTINUOUS
10
7.04134
20
-3.58972
11
6.97634
21
-3.58972
0
LINE
8
BLACK
6
CONTINUOUS
10
6.97634
20
-3.58972
11
6.97634
21
-3.52472
0
LINE
8
BLACK
6
CONTINUOUS
10
6.97634
20
-3.52472
11
7.04134
21
-3.52472
0
LINE
8
BLACK
6
CONTINUOUS
10
7.04134
20
-3.52472
11
7.04134
21
-3.58972
0
LINE
8
BLACK
6
CONTINUOUS
10
5.83734
20
-3.57872
11
5.77234
21
-3.57872
0
LINE
8
BLACK
6
CONTINUOUS
10
5.77234
20
-3.57872
11
5.77234
21
-3.51372
0
LINE
8
BLACK
6
CONTINUOUS
10
5.77234
20
-3.51372
11
5.83734
21
-3.51372
0
LINE
8
BLACK
6
CONTINUOUS
10
5.83734
20
-3.51372
11
5.83734
21
-3.57872
0
LINE
8
BLACK
6
CONTINUOUS
10
6.03734
20
-3.57872
11
5.97234
21
-3.57872
0
LINE
8
BLACK
6
CONTINUOUS
10
5.97234
20
-3.57872
11
5.97234
21
-3.51372
0
LINE
8
BLACK
6
CONTINUOUS
10
5.97234
20
-3.51372
11
6.03734
21
-3.51372
0
LINE
8
BLACK
6
CONTINUOUS
10
6.03734
20
-3.51372
11
6.03734
21
-3.57872
0
LINE
8
BLACK
6
CONTINUOUS
10
5.72984
20
-3.57372
11
5.69484
21
-3.57372
0
LINE
8
BLACK
6
CONTINUOUS
10
5.69484
20
-3.57372
11
5.69484
21
-3.51872
0
LINE
8
BLACK
6
CONTINUOUS
10
5.69484
20
-3.51872
11
5.72984
21
-3.51872
0
LINE
8
BLACK
6
CONTINUOUS
10
5.72984
20
-3.51872
11
5.72984
21
-3.57372
0
LINE
8
BLACK
6
CONTINUOUS
10
5.65484
20
-3.57372
11
5.61984
21
-3.57372
0
LINE
8
BLACK
6
CONTINUOUS
10
5.61984
20
-3.57372
11
5.61984
21
-3.51872
0
LINE
8
BLACK
6
CONTINUOUS
10
5.61984
20
-3.51872
11
5.65484
21
-3.51872
0
LINE
8
BLACK
6
CONTINUOUS
10
5.65484
20
-3.51872
11
5.65484
21
-3.57372
0
LINE
8
BLACK
6
CONTINUOUS
10
6.93734
20
-3.56122
11
6.88234
21
-3.56122
0
LINE
8
BLACK
6
CONTINUOUS
10
6.88234
20
-3.56122
11
6.88234
21
-3.52622
0
LINE
8
BLACK
6
CONTINUOUS
10
6.88234
20
-3.52622
11
6.93734
21
-3.52622
0
LINE
8
BLACK
6
CONTINUOUS
10
6.93734
20
-3.52622
11
6.93734
21
-3.56122
0
LINE
8
BLACK
6
CONTINUOUS
10
6.84734
20
-3.56122
11
6.79234
21
-3.56122
0
LINE
8
BLACK
6
CONTINUOUS
10
6.79234
20
-3.56122
11
6.79234
21
-3.52622
0
LINE
8
BLACK
6
CONTINUOUS
10
6.79234
20
-3.52622
11
6.84734
21
-3.52622
0
LINE
8
BLACK
6
CONTINUOUS
10
6.84734
20
-3.52622
11
6.84734
21
-3.56122
0
LINE
8
BLACK
6
CONTINUOUS
10
6.38234
20
-3.55122
11
6.32734
21
-3.55122
0
LINE
8
BLACK
6
CONTINUOUS
10
6.32734
20
-3.55122
11
6.32734
21
-3.51622
0
LINE
8
BLACK
6
CONTINUOUS
10
6.32734
20
-3.51622
11
6.38234
21
-3.51622
0
LINE
8
BLACK
6
CONTINUOUS
10
6.38234
20
-3.51622
11
6.38234
21
-3.55122
0
LINE
8
BLACK
6
CONTINUOUS
10
6.28234
20
-3.55122
11
6.22734
21
-3.55122
0
LINE
8
BLACK
6
CONTINUOUS
10
6.22734
20
-3.55122
11
6.22734
21
-3.51622
0
LINE
8
BLACK
6
CONTINUOUS
10
6.22734
20
-3.51622
11
6.28234
21
-3.51622
0
LINE
8
BLACK
6
CONTINUOUS
10
6.28234
20
-3.51622
11
6.28234
21
-3.55122
0
LINE
8
BLACK
6
CONTINUOUS
10
6.71934
20
-3.54522
11
6.66434
21
-3.54522
0
LINE
8
BLACK
6
CONTINUOUS
10
6.66434
20
-3.54522
11
6.66434
21
-3.51022
0
LINE
8
BLACK
6
CONTINUOUS
10
6.66434
20
-3.51022
11
6.71934
21
-3.51022
0
LINE
8
BLACK
6
CONTINUOUS
10
6.71934
20
-3.51022
11
6.71934
21
-3.54522
0
LINE
8
BLACK
6
CONTINUOUS
10
6.61484
20
-3.54372
11
6.59484
21
-3.54372
0
LINE
8
BLACK
6
CONTINUOUS
10
6.59484
20
-3.54372
11
6.59484
21
-3.49872
0
LINE
8
BLACK
6
CONTINUOUS
10
6.59484
20
-3.49872
11
6.61484
21
-3.49872
0
LINE
8
BLACK
6
CONTINUOUS
10
6.61484
20
-3.49872
11
6.61484
21
-3.54372
0
LINE
8
BLACK
6
CONTINUOUS
10
6.56484
20
-3.54372
11
6.54484
21
-3.54372
0
LINE
8
BLACK
6
CONTINUOUS
10
6.54484
20
-3.54372
11
6.54484
21
-3.49872
0
LINE
8
BLACK
6
CONTINUOUS
10
6.54484
20
-3.49872
11
6.56484
21
-3.49872
0
LINE
8
BLACK
6
CONTINUOUS
10
6.56484
20
-3.49872
11
6.56484
21
-3.54372
0
LINE
8
BLACK
6
CONTINUOUS
10
6.51484
20
-3.54372
11
6.49484
21
-3.54372
0
LINE
8
BLACK
6
CONTINUOUS
10
6.49484
20
-3.54372
11
6.49484
21
-3.49872
0
LINE
8
BLACK
6
CONTINUOUS
10
6.49484
20
-3.49872
11
6.51484
21
-3.49872
0
LINE
8
BLACK
6
CONTINUOUS
10
6.51484
20
-3.49872
11
6.51484
21
-3.54372
0
LINE
8
BLACK
6
CONTINUOUS
10
6.46484
20
-3.54372
11
6.44484
21
-3.54372
0
LINE
8
BLACK
6
CONTINUOUS
10
6.44484
20
-3.54372
11
6.44484
21
-3.49872
0
LINE
8
BLACK
6
CONTINUOUS
10
6.44484
20
-3.49872
11
6.46484
21
-3.49872
0
LINE
8
BLACK
6
CONTINUOUS
10
6.46484
20
-3.49872
11
6.46484
21
-3.54372
0
LINE
8
BLACK
6
CONTINUOUS
10
6.09559
20
-3.53422
11
6.06409
21
-3.53422
0
LINE
8
BLACK
6
CONTINUOUS
10
6.06409
20
-3.53422
11
6.06409
21
-3.49482
0
LINE
8
BLACK
6
CONTINUOUS
10
6.06409
20
-3.49482
11
6.09559
21
-3.49482
0
LINE
8
BLACK
6
CONTINUOUS
10
6.09559
20
-3.49482
11
6.09559
21
-3.53422
0
LINE
8
BLACK
6
CONTINUOUS
10
5.46234
20
-3.50372
11
5.39734
21
-3.50372
0
LINE
8
BLACK
6
CONTINUOUS
10
5.39734
20
-3.50372
11
5.39734
21
-3.43872
0
LINE
8
BLACK
6
CONTINUOUS
10
5.39734
20
-3.43872
11
5.46234
21
-3.43872
0
LINE
8
BLACK
6
CONTINUOUS
10
5.46234
20
-3.43872
11
5.46234
21
-3.50372
0
LINE
8
BLACK
6
CONTINUOUS
10
5.56234
20
-3.50372
11
5.49734
21
-3.50372
0
LINE
8
BLACK
6
CONTINUOUS
10
5.49734
20
-3.50372
11
5.49734
21
-3.43872
0
LINE
8
BLACK
6
CONTINUOUS
10
5.49734
20
-3.43872
11
5.56234
21
-3.43872
0
LINE
8
BLACK
6
CONTINUOUS
10
5.56234
20
-3.43872
11
5.56234
21
-3.50372
0
LINE
8
BLACK
6
CONTINUOUS
10
5.61434
20
-3.49872
11
5.57934
21
-3.49872
0
LINE
8
BLACK
6
CONTINUOUS
10
5.57934
20
-3.49872
11
5.57934
21
-3.44372
0
LINE
8
BLACK
6
CONTINUOUS
10
5.57934
20
-3.44372
11
5.61434
21
-3.44372
0
LINE
8
BLACK
6
CONTINUOUS
10
5.61434
20
-3.44372
11
5.61434
21
-3.49872
0
LINE
8
BLACK
6
CONTINUOUS
10
5.68934
20
-3.49872
11
5.65434
21
-3.49872
0
LINE
8
BLACK
6
CONTINUOUS
10
5.65434
20
-3.49872
11
5.65434
21
-3.44372
0
LINE
8
BLACK
6
CONTINUOUS
10
5.65434
20
-3.44372
11
5.68934
21
-3.44372
0
LINE
8
BLACK
6
CONTINUOUS
10
5.68934
20
-3.44372
11
5.68934
21
-3.49872
0
LINE
8
BLACK
6
CONTINUOUS
10
7.04134
20
-3.48972
11
6.97634
21
-3.48972
0
LINE
8
BLACK
6
CONTINUOUS
10
6.97634
20
-3.48972
11
6.97634
21
-3.42472
0
LINE
8
BLACK
6
CONTINUOUS
10
6.97634
20
-3.42472
11
7.04134
21
-3.42472
0
LINE
8
BLACK
6
CONTINUOUS
10
7.04134
20
-3.42472
11
7.04134
21
-3.48972
0
LINE
8
BLACK
6
CONTINUOUS
10
7.14134
20
-3.48972
11
7.07634
21
-3.48972
0
LINE
8
BLACK
6
CONTINUOUS
10
7.07634
20
-3.48972
11
7.07634
21
-3.42472
0
LINE
8
BLACK
6
CONTINUOUS
10
7.07634
20
-3.42472
11
7.14134
21
-3.42472
0
LINE
8
BLACK
6
CONTINUOUS
10
7.14134
20
-3.42472
11
7.14134
21
-3.48972
0
LINE
8
BLACK
6
CONTINUOUS
10
6.93134
20
-3.48622
11
6.87634
21
-3.48622
0
LINE
8
BLACK
6
CONTINUOUS
10
6.87634
20
-3.48622
11
6.87634
21
-3.45122
0
LINE
8
BLACK
6
CONTINUOUS
10
6.87634
20
-3.45122
11
6.93134
21
-3.45122
0
LINE
8
BLACK
6
CONTINUOUS
10
6.93134
20
-3.45122
11
6.93134
21
-3.48622
0
LINE
8
BLACK
6
CONTINUOUS
10
6.79934
20
-3.48222
11
6.74434
21
-3.48222
0
LINE
8
BLACK
6
CONTINUOUS
10
6.74434
20
-3.48222
11
6.74434
21
-3.44722
0
LINE
8
BLACK
6
CONTINUOUS
10
6.74434
20
-3.44722
11
6.79934
21
-3.44722
0
LINE
8
BLACK
6
CONTINUOUS
10
6.79934
20
-3.44722
11
6.79934
21
-3.48222
0
LINE
8
BLACK
6
CONTINUOUS
10
6.38234
20
-3.47622
11
6.32734
21
-3.47622
0
LINE
8
BLACK
6
CONTINUOUS
10
6.32734
20
-3.47622
11
6.32734
21
-3.44122
0
LINE
8
BLACK
6
CONTINUOUS
10
6.32734
20
-3.44122
11
6.38234
21
-3.44122
0
LINE
8
BLACK
6
CONTINUOUS
10
6.38234
20
-3.44122
11
6.38234
21
-3.47622
0
LINE
8
BLACK
6
CONTINUOUS
10
6.28234
20
-3.47622
11
6.22734
21
-3.47622
0
LINE
8
BLACK
6
CONTINUOUS
10
6.22734
20
-3.47622
11
6.22734
21
-3.44122
0
LINE
8
BLACK
6
CONTINUOUS
10
6.22734
20
-3.44122
11
6.28234
21
-3.44122
0
LINE
8
BLACK
6
CONTINUOUS
10
6.28234
20
-3.44122
11
6.28234
21
-3.47622
0
LINE
8
BLACK
6
CONTINUOUS
10
6.71934
20
-3.47022
11
6.66434
21
-3.47022
0
LINE
8
BLACK
6
CONTINUOUS
10
6.66434
20
-3.47022
11
6.66434
21
-3.43522
0
LINE
8
BLACK
6
CONTINUOUS
10
6.66434
20
-3.43522
11
6.71934
21
-3.43522
0
LINE
8
BLACK
6
CONTINUOUS
10
6.71934
20
-3.43522
11
6.71934
21
-3.47022
0
LINE
8
BLACK
6
CONTINUOUS
10
6.05809
20
-3.44762
11
6.02659
21
-3.44762
0
LINE
8
BLACK
6
CONTINUOUS
10
6.02659
20
-3.44762
11
6.02659
21
-3.40822
0
LINE
8
BLACK
6
CONTINUOUS
10
6.02659
20
-3.40822
11
6.05809
21
-3.40822
0
LINE
8
BLACK
6
CONTINUOUS
10
6.05809
20
-3.40822
11
6.05809
21
-3.44762
0
LINE
8
BLACK
6
CONTINUOUS
10
6.13309
20
-3.44762
11
6.10159
21
-3.44762
0
LINE
8
BLACK
6
CONTINUOUS
10
6.10159
20
-3.44762
11
6.10159
21
-3.40822
0
LINE
8
BLACK
6
CONTINUOUS
10
6.10159
20
-3.40822
11
6.13309
21
-3.40822
0
LINE
8
BLACK
6
CONTINUOUS
10
6.13309
20
-3.40822
11
6.13309
21
-3.44762
0
LINE
8
BLACK
6
CONTINUOUS
10
5.83734
20
-3.44622
11
5.78234
21
-3.44622
0
LINE
8
BLACK
6
CONTINUOUS
10
5.78234
20
-3.44622
11
5.78234
21
-3.41122
0
LINE
8
BLACK
6
CONTINUOUS
10
5.78234
20
-3.41122
11
5.83734
21
-3.41122
0
LINE
8
BLACK
6
CONTINUOUS
10
5.83734
20
-3.41122
11
5.83734
21
-3.44622
0
LINE
8
BLACK
6
CONTINUOUS
10
5.70134
20
-3.41972
11
5.64634
21
-3.41972
0
LINE
8
BLACK
6
CONTINUOUS
10
5.64634
20
-3.41972
11
5.64634
21
-3.38472
0
LINE
8
BLACK
6
CONTINUOUS
10
5.64634
20
-3.38472
11
5.70134
21
-3.38472
0
LINE
8
BLACK
6
CONTINUOUS
10
5.70134
20
-3.38472
11
5.70134
21
-3.41972
0
LINE
8
BLACK
6
CONTINUOUS
10
6.71934
20
-3.41322
11
6.66434
21
-3.41322
0
LINE
8
BLACK
6
CONTINUOUS
10
6.66434
20
-3.41322
11
6.66434
21
-3.37822
0
LINE
8
BLACK
6
CONTINUOUS
10
6.66434
20
-3.37822
11
6.71934
21
-3.37822
0
LINE
8
BLACK
6
CONTINUOUS
10
6.71934
20
-3.37822
11
6.71934
21
-3.41322
0
LINE
8
BLACK
6
CONTINUOUS
10
6.93134
20
-3.41122
11
6.87634
21
-3.41122
0
LINE
8
BLACK
6
CONTINUOUS
10
6.87634
20
-3.41122
11
6.87634
21
-3.37622
0
LINE
8
BLACK
6
CONTINUOUS
10
6.87634
20
-3.37622
11
6.93134
21
-3.37622
0
LINE
8
BLACK
6
CONTINUOUS
10
6.93134
20
-3.37622
11
6.93134
21
-3.41122
0
LINE
8
BLACK
6
CONTINUOUS
10
6.79934
20
-3.40722
11
6.74434
21
-3.40722
0
LINE
8
BLACK
6
CONTINUOUS
10
6.74434
20
-3.40722
11
6.74434
21
-3.37222
0
LINE
8
BLACK
6
CONTINUOUS
10
6.74434
20
-3.37222
11
6.79934
21
-3.37222
0
LINE
8
BLACK
6
CONTINUOUS
10
6.79934
20
-3.37222
11
6.79934
21
-3.40722
0
LINE
8
BLACK
6
CONTINUOUS
10
5.46234
20
-3.40372
11
5.39734
21
-3.40372
0
LINE
8
BLACK
6
CONTINUOUS
10
5.39734
20
-3.40372
11
5.39734
21
-3.33872
0
LINE
8
BLACK
6
CONTINUOUS
10
5.39734
20
-3.33872
11
5.46234
21
-3.33872
0
LINE
8
BLACK
6
CONTINUOUS
10
5.46234
20
-3.33872
11
5.46234
21
-3.40372
0
LINE
8
BLACK
6
CONTINUOUS
10
5.56234
20
-3.40372
11
5.49734
21
-3.40372
0
LINE
8
BLACK
6
CONTINUOUS
10
5.49734
20
-3.40372
11
5.49734
21
-3.33872
0
LINE
8
BLACK
6
CONTINUOUS
10
5.49734
20
-3.33872
11
5.56234
21
-3.33872
0
LINE
8
BLACK
6
CONTINUOUS
10
5.56234
20
-3.33872
11
5.56234
21
-3.40372
0
LINE
8
BLACK
6
CONTINUOUS
10
7.14134
20
-3.38972
11
7.07634
21
-3.38972
0
LINE
8
BLACK
6
CONTINUOUS
10
7.07634
20
-3.38972
11
7.07634
21
-3.32472
0
LINE
8
BLACK
6
CONTINUOUS
10
7.07634
20
-3.32472
11
7.14134
21
-3.32472
0
LINE
8
BLACK
6
CONTINUOUS
10
7.14134
20
-3.32472
11
7.14134
21
-3.38972
0
LINE
8
BLACK
6
CONTINUOUS
10
7.04134
20
-3.38972
11
6.97634
21
-3.38972
0
LINE
8
BLACK
6
CONTINUOUS
10
6.97634
20
-3.38972
11
6.97634
21
-3.32472
0
LINE
8
BLACK
6
CONTINUOUS
10
6.97634
20
-3.32472
11
7.04134
21
-3.32472
0
LINE
8
BLACK
6
CONTINUOUS
10
7.04134
20
-3.32472
11
7.04134
21
-3.38972
0
LINE
8
BLACK
6
CONTINUOUS
10
5.83734
20
-3.37122
11
5.78234
21
-3.37122
0
LINE
8
BLACK
6
CONTINUOUS
10
5.78234
20
-3.37122
11
5.78234
21
-3.33622
0
LINE
8
BLACK
6
CONTINUOUS
10
5.78234
20
-3.33622
11
5.83734
21
-3.33622
0
LINE
8
BLACK
6
CONTINUOUS
10
5.83734
20
-3.33622
11
5.83734
21
-3.37122
0
LINE
8
BLACK
6
CONTINUOUS
10
6.77984
20
-3.34672
11
6.74484
21
-3.34672
0
LINE
8
BLACK
6
CONTINUOUS
10
6.74484
20
-3.34672
11
6.74484
21
-3.29172
0
LINE
8
BLACK
6
CONTINUOUS
10
6.74484
20
-3.29172
11
6.77984
21
-3.29172
0
LINE
8
BLACK
6
CONTINUOUS
10
6.77984
20
-3.29172
11
6.77984
21
-3.34672
0
LINE
8
BLACK
6
CONTINUOUS
10
6.85484
20
-3.34672
11
6.81984
21
-3.34672
0
LINE
8
BLACK
6
CONTINUOUS
10
6.81984
20
-3.34672
11
6.81984
21
-3.29172
0
LINE
8
BLACK
6
CONTINUOUS
10
6.81984
20
-3.29172
11
6.85484
21
-3.29172
0
LINE
8
BLACK
6
CONTINUOUS
10
6.85484
20
-3.29172
11
6.85484
21
-3.34672
0
LINE
8
BLACK
6
CONTINUOUS
10
5.70134
20
-3.34472
11
5.64634
21
-3.34472
0
LINE
8
BLACK
6
CONTINUOUS
10
5.64634
20
-3.34472
11
5.64634
21
-3.30972
0
LINE
8
BLACK
6
CONTINUOUS
10
5.64634
20
-3.30972
11
5.70134
21
-3.30972
0
LINE
8
BLACK
6
CONTINUOUS
10
5.70134
20
-3.30972
11
5.70134
21
-3.34472
0
LINE
8
BLACK
6
CONTINUOUS
10
6.71934
20
-3.33822
11
6.66434
21
-3.33822
0
LINE
8
BLACK
6
CONTINUOUS
10
6.66434
20
-3.33822
11
6.66434
21
-3.30322
0
LINE
8
BLACK
6
CONTINUOUS
10
6.66434
20
-3.30322
11
6.71934
21
-3.30322
0
LINE
8
BLACK
6
CONTINUOUS
10
6.71934
20
-3.30322
11
6.71934
21
-3.33822
0
LINE
8
BLACK
6
CONTINUOUS
10
6.27734
20
-3.30372
11
6.21234
21
-3.30372
0
LINE
8
BLACK
6
CONTINUOUS
10
6.21234
20
-3.30372
11
6.21234
21
-3.23872
0
LINE
8
BLACK
6
CONTINUOUS
10
6.21234
20
-3.23872
11
6.27734
21
-3.23872
0
LINE
8
BLACK
6
CONTINUOUS
10
6.27734
20
-3.23872
11
6.27734
21
-3.30372
0
LINE
8
BLACK
6
CONTINUOUS
10
5.83734
20
-3.30122
11
5.78234
21
-3.30122
0
LINE
8
BLACK
6
CONTINUOUS
10
5.78234
20
-3.30122
11
5.78234
21
-3.26622
0
LINE
8
BLACK
6
CONTINUOUS
10
5.78234
20
-3.26622
11
5.83734
21
-3.26622
0
LINE
8
BLACK
6
CONTINUOUS
10
5.83734
20
-3.26622
11
5.83734
21
-3.30122
0
LINE
8
BLACK
6
CONTINUOUS
10
6.61484
20
-3.29372
11
6.59484
21
-3.29372
0
LINE
8
BLACK
6
CONTINUOUS
10
6.59484
20
-3.29372
11
6.59484
21
-3.24872
0
LINE
8
BLACK
6
CONTINUOUS
10
6.59484
20
-3.24872
11
6.61484
21
-3.24872
0
LINE
8
BLACK
6
CONTINUOUS
10
6.61484
20
-3.24872
11
6.61484
21
-3.29372
0
LINE
8
BLACK
6
CONTINUOUS
10
6.56484
20
-3.29372
11
6.54484
21
-3.29372
0
LINE
8
BLACK
6
CONTINUOUS
10
6.54484
20
-3.29372
11
6.54484
21
-3.24872
0
LINE
8
BLACK
6
CONTINUOUS
10
6.54484
20
-3.24872
11
6.56484
21
-3.24872
0
LINE
8
BLACK
6
CONTINUOUS
10
6.56484
20
-3.24872
11
6.56484
21
-3.29372
0
LINE
8
BLACK
6
CONTINUOUS
10
6.51484
20
-3.29372
11
6.49484
21
-3.29372
0
LINE
8
BLACK
6
CONTINUOUS
10
6.49484
20
-3.29372
11
6.49484
21
-3.24872
0
LINE
8
BLACK
6
CONTINUOUS
10
6.49484
20
-3.24872
11
6.51484
21
-3.24872
0
LINE
8
BLACK
6
CONTINUOUS
10
6.51484
20
-3.24872
11
6.51484
21
-3.29372
0
LINE
8
BLACK
6
CONTINUOUS
10
6.46484
20
-3.29372
11
6.44484
21
-3.29372
0
LINE
8
BLACK
6
CONTINUOUS
10
6.44484
20
-3.29372
11
6.44484
21
-3.24872
0
LINE
8
BLACK
6
CONTINUOUS
10
6.44484
20
-3.24872
11
6.46484
21
-3.24872
0
LINE
8
BLACK
6
CONTINUOUS
10
6.46484
20
-3.24872
11
6.46484
21
-3.29372
0
LINE
8
BLACK
6
CONTINUOUS
10
6.83234
20
-3.25122
11
6.77734
21
-3.25122
0
LINE
8
BLACK
6
CONTINUOUS
10
6.77734
20
-3.25122
11
6.77734
21
-3.21622
0
LINE
8
BLACK
6
CONTINUOUS
10
6.77734
20
-3.21622
11
6.83234
21
-3.21622
0
LINE
8
BLACK
6
CONTINUOUS
10
6.83234
20
-3.21622
11
6.83234
21
-3.25122
0
LINE
8
BLACK
6
CONTINUOUS
10
6.73234
20
-3.25122
11
6.67734
21
-3.25122
0
LINE
8
BLACK
6
CONTINUOUS
10
6.67734
20
-3.25122
11
6.67734
21
-3.21622
0
LINE
8
BLACK
6
CONTINUOUS
10
6.67734
20
-3.21622
11
6.73234
21
-3.21622
0
LINE
8
BLACK
6
CONTINUOUS
10
6.73234
20
-3.21622
11
6.73234
21
-3.25122
0
LINE
8
BLACK
6
CONTINUOUS
10
7.03849
20
-3.00343
11
7.05197
21
-3.0052
0
LINE
8
BLACK
6
CONTINUOUS
10
7.05197
20
-3.0052
11
7.06516
21
-3.00851
0
LINE
8
BLACK
6
CONTINUOUS
10
7.06516
20
-3.00851
11
7.07788
21
-3.01332
0
LINE
8
BLACK
6
CONTINUOUS
10
7.07788
20
-3.01332
11
7.08997
21
-3.01956
0
LINE
8
BLACK
6
CONTINUOUS
10
7.08997
20
-3.01956
11
7.10125
21
-3.02714
0
LINE
8
BLACK
6
CONTINUOUS
10
7.10125
20
-3.02714
11
7.11159
21
-3.03597
0
LINE
8
BLACK
6
CONTINUOUS
10
7.11159
20
-3.03597
11
7.12085
21
-3.04593
0
LINE
8
BLACK
6
CONTINUOUS
10
7.12085
20
-3.04593
11
7.1289
21
-3.05689
0
LINE
8
BLACK
6
CONTINUOUS
10
7.1289
20
-3.05689
11
7.13564
21
-3.0687
0
LINE
8
BLACK
6
CONTINUOUS
10
7.13564
20
-3.0687
11
7.14097
21
-3.08121
0
LINE
8
BLACK
6
CONTINUOUS
10
7.14097
20
-3.08121
11
7.14483
21
-3.09425
0
LINE
8
BLACK
6
CONTINUOUS
10
7.14483
20
-3.09425
11
7.14717
21
-3.10765
0
LINE
8
BLACK
6
CONTINUOUS
10
7.14717
20
-3.10765
11
7.14795
21
-3.12122
0
LINE
8
BLACK
6
CONTINUOUS
10
7.14795
20
-3.12122
11
7.14772
21
-3.12864
0
LINE
8
BLACK
6
CONTINUOUS
10
7.14772
20
-3.12864
11
7.14609
21
-3.14214
0
LINE
8
BLACK
6
CONTINUOUS
10
7.14609
20
-3.14214
11
7.14291
21
-3.15536
0
LINE
8
BLACK
6
CONTINUOUS
10
7.14291
20
-3.15536
11
7.13824
21
-3.16813
0
LINE
8
BLACK
6
CONTINUOUS
10
7.13824
20
-3.16813
11
7.13213
21
-3.18028
0
LINE
8
BLACK
6
CONTINUOUS
10
7.13213
20
-3.18028
11
7.12466
21
-3.19164
0
LINE
8
BLACK
6
CONTINUOUS
10
7.12466
20
-3.19164
11
7.11594
21
-3.20207
0
LINE
8
BLACK
6
CONTINUOUS
10
7.11594
20
-3.20207
11
7.10608
21
-3.21143
0
LINE
8
BLACK
6
CONTINUOUS
10
7.10608
20
-3.21143
11
7.0952
21
-3.2196
0
LINE
8
BLACK
6
CONTINUOUS
10
7.0952
20
-3.2196
11
7.08346
21
-3.22646
0
LINE
8
BLACK
6
CONTINUOUS
10
7.08346
20
-3.22646
11
7.07101
21
-3.23192
0
LINE
8
BLACK
6
CONTINUOUS
10
7.07101
20
-3.23192
11
7.05802
21
-3.23592
0
LINE
8
BLACK
6
CONTINUOUS
10
7.05802
20
-3.23592
11
7.04465
21
-3.2384
0
LINE
8
BLACK
6
CONTINUOUS
10
7.04465
20
-3.2384
11
7.03108
21
-3.23932
0
LINE
8
BLACK
6
CONTINUOUS
10
7.03108
20
-3.23932
11
7.0175
21
-3.23868
0
LINE
8
BLACK
6
CONTINUOUS
10
7.0175
20
-3.23868
11
7.00408
21
-3.23649
0
LINE
8
BLACK
6
CONTINUOUS
10
7.00408
20
-3.23649
11
6.991
21
-3.23276
0
LINE
8
BLACK
6
CONTINUOUS
10
6.991
20
-3.23276
11
6.97844
21
-3.22756
0
LINE
8
BLACK
6
CONTINUOUS
10
6.97844
20
-3.22756
11
6.96656
21
-3.22094
0
LINE
8
BLACK
6
CONTINUOUS
10
6.96656
20
-3.22094
11
6.95551
21
-3.21301
0
LINE
8
BLACK
6
CONTINUOUS
10
6.95551
20
-3.21301
11
6.94546
21
-3.20386
0
LINE
8
BLACK
6
CONTINUOUS
10
6.94546
20
-3.20386
11
6.93652
21
-3.19361
0
LINE
8
BLACK
6
CONTINUOUS
10
6.93652
20
-3.19361
11
6.92882
21
-3.1824
0
LINE
8
BLACK
6
CONTINUOUS
10
6.92882
20
-3.1824
11
6.92245
21
-3.17039
0
LINE
8
BLACK
6
CONTINUOUS
10
6.92245
20
-3.17039
11
6.91751
21
-3.15772
0
LINE
8
BLACK
6
CONTINUOUS
10
6.91751
20
-3.15772
11
6.91406
21
-3.14457
0
LINE
8
BLACK
6
CONTINUOUS
10
6.91406
20
-3.14457
11
6.91215
21
-3.1311
0
LINE
8
BLACK
6
CONTINUOUS
10
6.91215
20
-3.1311
11
6.91179
21
-3.11751
0
LINE
8
BLACK
6
CONTINUOUS
10
6.91179
20
-3.11751
11
6.913
21
-3.10397
0
LINE
8
BLACK
6
CONTINUOUS
10
6.913
20
-3.10397
11
6.91576
21
-3.09065
0
LINE
8
BLACK
6
CONTINUOUS
10
6.91576
20
-3.09065
11
6.92003
21
-3.07774
0
LINE
8
BLACK
6
CONTINUOUS
10
6.92003
20
-3.07774
11
6.92575
21
-3.06541
0
LINE
8
BLACK
6
CONTINUOUS
10
6.92575
20
-3.06541
11
6.93286
21
-3.05381
0
LINE
8
BLACK
6
CONTINUOUS
10
6.93286
20
-3.05381
11
6.94125
21
-3.04311
0
LINE
8
BLACK
6
CONTINUOUS
10
6.94125
20
-3.04311
11
6.95081
21
-3.03345
0
LINE
8
BLACK
6
CONTINUOUS
10
6.95081
20
-3.03345
11
6.96142
21
-3.02495
0
LINE
8
BLACK
6
CONTINUOUS
10
6.96142
20
-3.02495
11
6.97294
21
-3.01772
0
LINE
8
BLACK
6
CONTINUOUS
10
6.97294
20
-3.01772
11
6.98522
21
-3.01187
0
LINE
8
BLACK
6
CONTINUOUS
10
6.98522
20
-3.01187
11
6.99808
21
-3.00746
0
LINE
8
BLACK
6
CONTINUOUS
10
6.99808
20
-3.00746
11
7.01137
21
-3.00456
0
LINE
8
BLACK
6
CONTINUOUS
10
7.01137
20
-3.00456
11
7.0249
21
-3.00321
0
LINE
8
BLACK
6
CONTINUOUS
10
7.0249
20
-3.00321
11
7.03849
21
-3.00343
0
LINE
8
BLACK
6
CONTINUOUS
10
5.43849
20
-3.00343
11
5.45197
21
-3.0052
0
LINE
8
BLACK
6
CONTINUOUS
10
5.45197
20
-3.0052
11
5.46516
21
-3.00851
0
LINE
8
BLACK
6
CONTINUOUS
10
5.46516
20
-3.00851
11
5.47788
21
-3.01332
0
LINE
8
BLACK
6
CONTINUOUS
10
5.47788
20
-3.01332
11
5.48997
21
-3.01956
0
LINE
8
BLACK
6
CONTINUOUS
10
5.48997
20
-3.01956
11
5.50125
21
-3.02714
0
LINE
8
BLACK
6
CONTINUOUS
10
5.50125
20
-3.02714
11
5.51159
21
-3.03597
0
LINE
8
BLACK
6
CONTINUOUS
10
5.51159
20
-3.03597
11
5.52085
21
-3.04593
0
LINE
8
BLACK
6
CONTINUOUS
10
5.52085
20
-3.04593
11
5.5289
21
-3.05689
0
LINE
8
BLACK
6
CONTINUOUS
10
5.5289
20
-3.05689
11
5.53564
21
-3.0687
0
LINE
8
BLACK
6
CONTINUOUS
10
5.53564
20
-3.0687
11
5.54097
21
-3.08121
0
LINE
8
BLACK
6
CONTINUOUS
10
5.54097
20
-3.08121
11
5.54483
21
-3.09425
0
LINE
8
BLACK
6
CONTINUOUS
10
5.54483
20
-3.09425
11
5.54717
21
-3.10765
0
LINE
8
BLACK
6
CONTINUOUS
10
5.54717
20
-3.10765
11
5.54795
21
-3.12122
0
LINE
8
BLACK
6
CONTINUOUS
10
5.54795
20
-3.12122
11
5.54772
21
-3.12864
0
LINE
8
BLACK
6
CONTINUOUS
10
5.54772
20
-3.12864
11
5.54609
21
-3.14214
0
LINE
8
BLACK
6
CONTINUOUS
10
5.54609
20
-3.14214
11
5.54291
21
-3.15536
0
LINE
8
BLACK
6
CONTINUOUS
10
5.54291
20
-3.15536
11
5.53824
21
-3.16813
0
LINE
8
BLACK
6
CONTINUOUS
10
5.53824
20
-3.16813
11
5.53213
21
-3.18028
0
LINE
8
BLACK
6
CONTINUOUS
10
5.53213
20
-3.18028
11
5.52466
21
-3.19164
0
LINE
8
BLACK
6
CONTINUOUS
10
5.52466
20
-3.19164
11
5.51594
21
-3.20207
0
LINE
8
BLACK
6
CONTINUOUS
10
5.51594
20
-3.20207
11
5.50608
21
-3.21143
0
LINE
8
BLACK
6
CONTINUOUS
10
5.50608
20
-3.21143
11
5.4952
21
-3.2196
0
LINE
8
BLACK
6
CONTINUOUS
10
5.4952
20
-3.2196
11
5.48346
21
-3.22646
0
LINE
8
BLACK
6
CONTINUOUS
10
5.48346
20
-3.22646
11
5.47101
21
-3.23192
0
LINE
8
BLACK
6
CONTINUOUS
10
5.47101
20
-3.23192
11
5.45802
21
-3.23592
0
LINE
8
BLACK
6
CONTINUOUS
10
5.45802
20
-3.23592
11
5.44465
21
-3.2384
0
LINE
8
BLACK
6
CONTINUOUS
10
5.44465
20
-3.2384
11
5.43108
21
-3.23932
0
LINE
8
BLACK
6
CONTINUOUS
10
5.43108
20
-3.23932
11
5.4175
21
-3.23868
0
LINE
8
BLACK
6
CONTINUOUS
10
5.4175
20
-3.23868
11
5.40408
21
-3.23649
0
LINE
8
BLACK
6
CONTINUOUS
10
5.40408
20
-3.23649
11
5.391
21
-3.23276
0
LINE
8
BLACK
6
CONTINUOUS
10
5.391
20
-3.23276
11
5.37844
21
-3.22756
0
LINE
8
BLACK
6
CONTINUOUS
10
5.37844
20
-3.22756
11
5.36656
21
-3.22094
0
LINE
8
BLACK
6
CONTINUOUS
10
5.36656
20
-3.22094
11
5.35551
21
-3.21301
0
LINE
8
BLACK
6
CONTINUOUS
10
5.35551
20
-3.21301
11
5.34546
21
-3.20386
0
LINE
8
BLACK
6
CONTINUOUS
10
5.34546
20
-3.20386
11
5.33652
21
-3.19361
0
LINE
8
BLACK
6
CONTINUOUS
10
5.33652
20
-3.19361
11
5.32882
21
-3.1824
0
LINE
8
BLACK
6
CONTINUOUS
10
5.32882
20
-3.1824
11
5.32245
21
-3.17039
0
LINE
8
BLACK
6
CONTINUOUS
10
5.32245
20
-3.17039
11
5.31751
21
-3.15772
0
LINE
8
BLACK
6
CONTINUOUS
10
5.31751
20
-3.15772
11
5.31406
21
-3.14457
0
LINE
8
BLACK
6
CONTINUOUS
10
5.31406
20
-3.14457
11
5.31215
21
-3.1311
0
LINE
8
BLACK
6
CONTINUOUS
10
5.31215
20
-3.1311
11
5.31179
21
-3.11751
0
LINE
8
BLACK
6
CONTINUOUS
10
5.31179
20
-3.11751
11
5.313
21
-3.10397
0
LINE
8
BLACK
6
CONTINUOUS
10
5.313
20
-3.10397
11
5.31576
21
-3.09065
0
LINE
8
BLACK
6
CONTINUOUS
10
5.31576
20
-3.09065
11
5.32003
21
-3.07774
0
LINE
8
BLACK
6
CONTINUOUS
10
5.32003
20
-3.07774
11
5.32575
21
-3.06541
0
LINE
8
BLACK
6
CONTINUOUS
10
5.32575
20
-3.06541
11
5.33286
21
-3.05381
0
LINE
8
BLACK
6
CONTINUOUS
10
5.33286
20
-3.05381
11
5.34125
21
-3.04311
0
LINE
8
BLACK
6
CONTINUOUS
10
5.34125
20
-3.04311
11
5.35081
21
-3.03345
0
LINE
8
BLACK
6
CONTINUOUS
10
5.35081
20
-3.03345
11
5.36142
21
-3.02495
0
LINE
8
BLACK
6
CONTINUOUS
10
5.36142
20
-3.02495
11
5.37294
21
-3.01772
0
LINE
8
BLACK
6
CONTINUOUS
10
5.37294
20
-3.01772
11
5.38522
21
-3.01187
0
LINE
8
BLACK
6
CONTINUOUS
10
5.38522
20
-3.01187
11
5.39808
21
-3.00746
0
LINE
8
BLACK
6
CONTINUOUS
10
5.39808
20
-3.00746
11
5.41137
21
-3.00456
0
LINE
8
BLACK
6
CONTINUOUS
10
5.41137
20
-3.00456
11
5.4249
21
-3.00321
0
LINE
8
BLACK
6
CONTINUOUS
10
5.4249
20
-3.00321
11
5.43849
21
-3.00343
0
LINE
8
BLACK
6
CONTINUOUS
10
5.83734
20
-3.22622
11
5.78234
21
-3.22622
0
LINE
8
BLACK
6
CONTINUOUS
10
5.78234
20
-3.22622
11
5.78234
21
-3.19122
0
LINE
8
BLACK
6
CONTINUOUS
10
5.78234
20
-3.19122
11
5.83734
21
-3.19122
0
LINE
8
BLACK
6
CONTINUOUS
10
5.83734
20
-3.19122
11
5.83734
21
-3.22622
0
LINE
8
BLACK
6
CONTINUOUS
10
6.27734
20
-3.20372
11
6.21234
21
-3.20372
0
LINE
8
BLACK
6
CONTINUOUS
10
6.21234
20
-3.20372
11
6.21234
21
-3.13872
0
LINE
8
BLACK
6
CONTINUOUS
10
6.21234
20
-3.13872
11
6.27734
21
-3.13872
0
LINE
8
BLACK
6
CONTINUOUS
10
6.27734
20
-3.13872
11
6.27734
21
-3.20372
0
LINE
8
BLACK
6
CONTINUOUS
10
6.83234
20
-3.17622
11
6.77734
21
-3.17622
0
LINE
8
BLACK
6
CONTINUOUS
10
6.77734
20
-3.17622
11
6.77734
21
-3.14122
0
LINE
8
BLACK
6
CONTINUOUS
10
6.77734
20
-3.14122
11
6.83234
21
-3.14122
0
LINE
8
BLACK
6
CONTINUOUS
10
6.83234
20
-3.14122
11
6.83234
21
-3.17622
0
LINE
8
BLACK
6
CONTINUOUS
10
6.73234
20
-3.17622
11
6.67734
21
-3.17622
0
LINE
8
BLACK
6
CONTINUOUS
10
6.67734
20
-3.17622
11
6.67734
21
-3.14122
0
LINE
8
BLACK
6
CONTINUOUS
10
6.67734
20
-3.14122
11
6.73234
21
-3.14122
0
LINE
8
BLACK
6
CONTINUOUS
10
6.73234
20
-3.14122
11
6.73234
21
-3.17622
  0
ENDSEC
  0
EOF
