%TF.GenerationSoftware,KiCad,Pcbnew,6.0.11+dfsg-1~bpo11+1*%
%TF.CreationDate,2023-05-28T00:39:37+00:00*%
%TF.ProjectId,PCRD01,50435244-3031-42e6-9b69-6361645f7063,01A*%
%TF.SameCoordinates,Original*%
%TF.FileFunction,Legend,Bot*%
%TF.FilePolarity,Positive*%
%FSLAX46Y46*%
G04 Gerber Fmt 4.6, Leading zero omitted, Abs format (unit mm)*
G04 Created by KiCad (PCBNEW 6.0.11+dfsg-1~bpo11+1) date 2023-05-28 00:39:37*
%MOMM*%
%LPD*%
G01*
G04 APERTURE LIST*
%ADD10C,0.150000*%
%ADD11C,0.050000*%
%ADD12C,0.076200*%
%ADD13C,0.120000*%
G04 APERTURE END LIST*
D10*
%TO.C,C1*%
X8329142Y13628667D02*
X8376761Y13676286D01*
X8424380Y13819143D01*
X8424380Y13914381D01*
X8376761Y14057239D01*
X8281523Y14152477D01*
X8186285Y14200096D01*
X7995809Y14247715D01*
X7852952Y14247715D01*
X7662476Y14200096D01*
X7567238Y14152477D01*
X7472000Y14057239D01*
X7424380Y13914381D01*
X7424380Y13819143D01*
X7472000Y13676286D01*
X7519619Y13628667D01*
X8424380Y12676286D02*
X8424380Y13247715D01*
X8424380Y12962000D02*
X7424380Y12962000D01*
X7567238Y13057239D01*
X7662476Y13152477D01*
X7710095Y13247715D01*
%TO.C,C2*%
X17727142Y3341667D02*
X17774761Y3389286D01*
X17822380Y3532143D01*
X17822380Y3627381D01*
X17774761Y3770239D01*
X17679523Y3865477D01*
X17584285Y3913096D01*
X17393809Y3960715D01*
X17250952Y3960715D01*
X17060476Y3913096D01*
X16965238Y3865477D01*
X16870000Y3770239D01*
X16822380Y3627381D01*
X16822380Y3532143D01*
X16870000Y3389286D01*
X16917619Y3341667D01*
X16917619Y2960715D02*
X16870000Y2913096D01*
X16822380Y2817858D01*
X16822380Y2579762D01*
X16870000Y2484524D01*
X16917619Y2436905D01*
X17012857Y2389286D01*
X17108095Y2389286D01*
X17250952Y2436905D01*
X17822380Y3008334D01*
X17822380Y2389286D01*
%TO.C,C3*%
X22992142Y10961667D02*
X23039761Y11009286D01*
X23087380Y11152143D01*
X23087380Y11247381D01*
X23039761Y11390239D01*
X22944523Y11485477D01*
X22849285Y11533096D01*
X22658809Y11580715D01*
X22515952Y11580715D01*
X22325476Y11533096D01*
X22230238Y11485477D01*
X22135000Y11390239D01*
X22087380Y11247381D01*
X22087380Y11152143D01*
X22135000Y11009286D01*
X22182619Y10961667D01*
X22087380Y10628334D02*
X22087380Y10009286D01*
X22468333Y10342620D01*
X22468333Y10199762D01*
X22515952Y10104524D01*
X22563571Y10056905D01*
X22658809Y10009286D01*
X22896904Y10009286D01*
X22992142Y10056905D01*
X23039761Y10104524D01*
X23087380Y10199762D01*
X23087380Y10485477D01*
X23039761Y10580715D01*
X22992142Y10628334D01*
%TO.C,C5*%
X36962142Y18581667D02*
X37009761Y18629286D01*
X37057380Y18772143D01*
X37057380Y18867381D01*
X37009761Y19010239D01*
X36914523Y19105477D01*
X36819285Y19153096D01*
X36628809Y19200715D01*
X36485952Y19200715D01*
X36295476Y19153096D01*
X36200238Y19105477D01*
X36105000Y19010239D01*
X36057380Y18867381D01*
X36057380Y18772143D01*
X36105000Y18629286D01*
X36152619Y18581667D01*
X36057380Y17676905D02*
X36057380Y18153096D01*
X36533571Y18200715D01*
X36485952Y18153096D01*
X36438333Y18057858D01*
X36438333Y17819762D01*
X36485952Y17724524D01*
X36533571Y17676905D01*
X36628809Y17629286D01*
X36866904Y17629286D01*
X36962142Y17676905D01*
X37009761Y17724524D01*
X37057380Y17819762D01*
X37057380Y18057858D01*
X37009761Y18153096D01*
X36962142Y18200715D01*
%TO.C,C6*%
X34422142Y18581667D02*
X34469761Y18629286D01*
X34517380Y18772143D01*
X34517380Y18867381D01*
X34469761Y19010239D01*
X34374523Y19105477D01*
X34279285Y19153096D01*
X34088809Y19200715D01*
X33945952Y19200715D01*
X33755476Y19153096D01*
X33660238Y19105477D01*
X33565000Y19010239D01*
X33517380Y18867381D01*
X33517380Y18772143D01*
X33565000Y18629286D01*
X33612619Y18581667D01*
X33517380Y17724524D02*
X33517380Y17915000D01*
X33565000Y18010239D01*
X33612619Y18057858D01*
X33755476Y18153096D01*
X33945952Y18200715D01*
X34326904Y18200715D01*
X34422142Y18153096D01*
X34469761Y18105477D01*
X34517380Y18010239D01*
X34517380Y17819762D01*
X34469761Y17724524D01*
X34422142Y17676905D01*
X34326904Y17629286D01*
X34088809Y17629286D01*
X33993571Y17676905D01*
X33945952Y17724524D01*
X33898333Y17819762D01*
X33898333Y18010239D01*
X33945952Y18105477D01*
X33993571Y18153096D01*
X34088809Y18200715D01*
%TO.C,C10*%
X23477457Y553658D02*
X23525076Y506039D01*
X23667933Y458420D01*
X23763171Y458420D01*
X23906028Y506039D01*
X24001266Y601277D01*
X24048885Y696515D01*
X24096504Y886991D01*
X24096504Y1029848D01*
X24048885Y1220324D01*
X24001266Y1315562D01*
X23906028Y1410800D01*
X23763171Y1458420D01*
X23667933Y1458420D01*
X23525076Y1410800D01*
X23477457Y1363181D01*
X22525076Y458420D02*
X23096504Y458420D01*
X22810790Y458420D02*
X22810790Y1458420D01*
X22906028Y1315562D01*
X23001266Y1220324D01*
X23096504Y1172705D01*
X21906028Y1458420D02*
X21810790Y1458420D01*
X21715552Y1410800D01*
X21667933Y1363181D01*
X21620314Y1267943D01*
X21572695Y1077467D01*
X21572695Y839372D01*
X21620314Y648896D01*
X21667933Y553658D01*
X21715552Y506039D01*
X21810790Y458420D01*
X21906028Y458420D01*
X22001266Y506039D01*
X22048885Y553658D01*
X22096504Y648896D01*
X22144123Y839372D01*
X22144123Y1077467D01*
X22096504Y1267943D01*
X22048885Y1363181D01*
X22001266Y1410800D01*
X21906028Y1458420D01*
%TO.C,C12*%
X39629142Y9278858D02*
X39676761Y9326477D01*
X39724380Y9469334D01*
X39724380Y9564572D01*
X39676761Y9707429D01*
X39581523Y9802667D01*
X39486285Y9850286D01*
X39295809Y9897905D01*
X39152952Y9897905D01*
X38962476Y9850286D01*
X38867238Y9802667D01*
X38772000Y9707429D01*
X38724380Y9564572D01*
X38724380Y9469334D01*
X38772000Y9326477D01*
X38819619Y9278858D01*
X39724380Y8326477D02*
X39724380Y8897905D01*
X39724380Y8612191D02*
X38724380Y8612191D01*
X38867238Y8707429D01*
X38962476Y8802667D01*
X39010095Y8897905D01*
X38819619Y7945524D02*
X38772000Y7897905D01*
X38724380Y7802667D01*
X38724380Y7564572D01*
X38772000Y7469334D01*
X38819619Y7421715D01*
X38914857Y7374096D01*
X39010095Y7374096D01*
X39152952Y7421715D01*
X39724380Y7993143D01*
X39724380Y7374096D01*
%TO.C,C14*%
X35440857Y13253658D02*
X35488476Y13206039D01*
X35631333Y13158420D01*
X35726571Y13158420D01*
X35869428Y13206039D01*
X35964666Y13301277D01*
X36012285Y13396515D01*
X36059904Y13586991D01*
X36059904Y13729848D01*
X36012285Y13920324D01*
X35964666Y14015562D01*
X35869428Y14110800D01*
X35726571Y14158420D01*
X35631333Y14158420D01*
X35488476Y14110800D01*
X35440857Y14063181D01*
X34488476Y13158420D02*
X35059904Y13158420D01*
X34774190Y13158420D02*
X34774190Y14158420D01*
X34869428Y14015562D01*
X34964666Y13920324D01*
X35059904Y13872705D01*
X33631333Y13825086D02*
X33631333Y13158420D01*
X33869428Y14206039D02*
X34107523Y13491753D01*
X33488476Y13491753D01*
%TO.C,R1*%
X11754380Y17311667D02*
X11278190Y17645000D01*
X11754380Y17883096D02*
X10754380Y17883096D01*
X10754380Y17502143D01*
X10802000Y17406905D01*
X10849619Y17359286D01*
X10944857Y17311667D01*
X11087714Y17311667D01*
X11182952Y17359286D01*
X11230571Y17406905D01*
X11278190Y17502143D01*
X11278190Y17883096D01*
X11754380Y16359286D02*
X11754380Y16930715D01*
X11754380Y16645000D02*
X10754380Y16645000D01*
X10897238Y16740239D01*
X10992476Y16835477D01*
X11040095Y16930715D01*
%TO.C,R2*%
X5360966Y12627620D02*
X5694300Y13103810D01*
X5932395Y12627620D02*
X5932395Y13627620D01*
X5551442Y13627620D01*
X5456204Y13580000D01*
X5408585Y13532381D01*
X5360966Y13437143D01*
X5360966Y13294286D01*
X5408585Y13199048D01*
X5456204Y13151429D01*
X5551442Y13103810D01*
X5932395Y13103810D01*
X4980014Y13532381D02*
X4932395Y13580000D01*
X4837157Y13627620D01*
X4599061Y13627620D01*
X4503823Y13580000D01*
X4456204Y13532381D01*
X4408585Y13437143D01*
X4408585Y13341905D01*
X4456204Y13199048D01*
X5027633Y12627620D01*
X4408585Y12627620D01*
%TO.C,R5*%
X28010380Y6516667D02*
X27534190Y6850000D01*
X28010380Y7088096D02*
X27010380Y7088096D01*
X27010380Y6707143D01*
X27058000Y6611905D01*
X27105619Y6564286D01*
X27200857Y6516667D01*
X27343714Y6516667D01*
X27438952Y6564286D01*
X27486571Y6611905D01*
X27534190Y6707143D01*
X27534190Y7088096D01*
X27010380Y5611905D02*
X27010380Y6088096D01*
X27486571Y6135715D01*
X27438952Y6088096D01*
X27391333Y5992858D01*
X27391333Y5754762D01*
X27438952Y5659524D01*
X27486571Y5611905D01*
X27581809Y5564286D01*
X27819904Y5564286D01*
X27915142Y5611905D01*
X27962761Y5659524D01*
X28010380Y5754762D01*
X28010380Y5992858D01*
X27962761Y6088096D01*
X27915142Y6135715D01*
%TO.C,R6*%
X35376380Y6643667D02*
X34900190Y6977000D01*
X35376380Y7215096D02*
X34376380Y7215096D01*
X34376380Y6834143D01*
X34424000Y6738905D01*
X34471619Y6691286D01*
X34566857Y6643667D01*
X34709714Y6643667D01*
X34804952Y6691286D01*
X34852571Y6738905D01*
X34900190Y6834143D01*
X34900190Y7215096D01*
X34376380Y5786524D02*
X34376380Y5977000D01*
X34424000Y6072239D01*
X34471619Y6119858D01*
X34614476Y6215096D01*
X34804952Y6262715D01*
X35185904Y6262715D01*
X35281142Y6215096D01*
X35328761Y6167477D01*
X35376380Y6072239D01*
X35376380Y5881762D01*
X35328761Y5786524D01*
X35281142Y5738905D01*
X35185904Y5691286D01*
X34947809Y5691286D01*
X34852571Y5738905D01*
X34804952Y5786524D01*
X34757333Y5881762D01*
X34757333Y6072239D01*
X34804952Y6167477D01*
X34852571Y6215096D01*
X34947809Y6262715D01*
%TO.C,R7*%
X30423380Y6516667D02*
X29947190Y6850000D01*
X30423380Y7088096D02*
X29423380Y7088096D01*
X29423380Y6707143D01*
X29471000Y6611905D01*
X29518619Y6564286D01*
X29613857Y6516667D01*
X29756714Y6516667D01*
X29851952Y6564286D01*
X29899571Y6611905D01*
X29947190Y6707143D01*
X29947190Y7088096D01*
X29423380Y6183334D02*
X29423380Y5516667D01*
X30423380Y5945239D01*
%TO.C,R8*%
X37408380Y8802667D02*
X36932190Y9136000D01*
X37408380Y9374096D02*
X36408380Y9374096D01*
X36408380Y8993143D01*
X36456000Y8897905D01*
X36503619Y8850286D01*
X36598857Y8802667D01*
X36741714Y8802667D01*
X36836952Y8850286D01*
X36884571Y8897905D01*
X36932190Y8993143D01*
X36932190Y9374096D01*
X36836952Y8231239D02*
X36789333Y8326477D01*
X36741714Y8374096D01*
X36646476Y8421715D01*
X36598857Y8421715D01*
X36503619Y8374096D01*
X36456000Y8326477D01*
X36408380Y8231239D01*
X36408380Y8040762D01*
X36456000Y7945524D01*
X36503619Y7897905D01*
X36598857Y7850286D01*
X36646476Y7850286D01*
X36741714Y7897905D01*
X36789333Y7945524D01*
X36836952Y8040762D01*
X36836952Y8231239D01*
X36884571Y8326477D01*
X36932190Y8374096D01*
X37027428Y8421715D01*
X37217904Y8421715D01*
X37313142Y8374096D01*
X37360761Y8326477D01*
X37408380Y8231239D01*
X37408380Y8040762D01*
X37360761Y7945524D01*
X37313142Y7897905D01*
X37217904Y7850286D01*
X37027428Y7850286D01*
X36932190Y7897905D01*
X36884571Y7945524D01*
X36836952Y8040762D01*
%TO.C,R9*%
X34157180Y11114067D02*
X33680990Y11447400D01*
X34157180Y11685496D02*
X33157180Y11685496D01*
X33157180Y11304543D01*
X33204800Y11209305D01*
X33252419Y11161686D01*
X33347657Y11114067D01*
X33490514Y11114067D01*
X33585752Y11161686D01*
X33633371Y11209305D01*
X33680990Y11304543D01*
X33680990Y11685496D01*
X34157180Y10637877D02*
X34157180Y10447400D01*
X34109561Y10352162D01*
X34061942Y10304543D01*
X33919085Y10209305D01*
X33728609Y10161686D01*
X33347657Y10161686D01*
X33252419Y10209305D01*
X33204800Y10256924D01*
X33157180Y10352162D01*
X33157180Y10542639D01*
X33204800Y10637877D01*
X33252419Y10685496D01*
X33347657Y10733115D01*
X33585752Y10733115D01*
X33680990Y10685496D01*
X33728609Y10637877D01*
X33776228Y10542639D01*
X33776228Y10352162D01*
X33728609Y10256924D01*
X33680990Y10209305D01*
X33585752Y10161686D01*
%TO.C,R11*%
X36241980Y13088858D02*
X35765790Y13422191D01*
X36241980Y13660286D02*
X35241980Y13660286D01*
X35241980Y13279334D01*
X35289600Y13184096D01*
X35337219Y13136477D01*
X35432457Y13088858D01*
X35575314Y13088858D01*
X35670552Y13136477D01*
X35718171Y13184096D01*
X35765790Y13279334D01*
X35765790Y13660286D01*
X36241980Y12136477D02*
X36241980Y12707905D01*
X36241980Y12422191D02*
X35241980Y12422191D01*
X35384838Y12517429D01*
X35480076Y12612667D01*
X35527695Y12707905D01*
X36241980Y11184096D02*
X36241980Y11755524D01*
X36241980Y11469810D02*
X35241980Y11469810D01*
X35384838Y11565048D01*
X35480076Y11660286D01*
X35527695Y11755524D01*
%TO.C,C11*%
X32898142Y7119858D02*
X32945761Y7167477D01*
X32993380Y7310334D01*
X32993380Y7405572D01*
X32945761Y7548429D01*
X32850523Y7643667D01*
X32755285Y7691286D01*
X32564809Y7738905D01*
X32421952Y7738905D01*
X32231476Y7691286D01*
X32136238Y7643667D01*
X32041000Y7548429D01*
X31993380Y7405572D01*
X31993380Y7310334D01*
X32041000Y7167477D01*
X32088619Y7119858D01*
X32993380Y6167477D02*
X32993380Y6738905D01*
X32993380Y6453191D02*
X31993380Y6453191D01*
X32136238Y6548429D01*
X32231476Y6643667D01*
X32279095Y6738905D01*
X32993380Y5215096D02*
X32993380Y5786524D01*
X32993380Y5500810D02*
X31993380Y5500810D01*
X32136238Y5596048D01*
X32231476Y5691286D01*
X32279095Y5786524D01*
%TO.C,C4*%
X14406711Y6330598D02*
X14454330Y6378217D01*
X14501949Y6521074D01*
X14501949Y6616312D01*
X14454330Y6759170D01*
X14359092Y6854408D01*
X14263854Y6902027D01*
X14073378Y6949646D01*
X13930521Y6949646D01*
X13740045Y6902027D01*
X13644807Y6854408D01*
X13549569Y6759170D01*
X13501949Y6616312D01*
X13501949Y6521074D01*
X13549569Y6378217D01*
X13597188Y6330598D01*
X13835283Y5473455D02*
X14501949Y5473455D01*
X13454330Y5711551D02*
X14168616Y5949646D01*
X14168616Y5330598D01*
D11*
%TO.C,J3*%
X9751190Y11306953D02*
X9251190Y11306953D01*
X9751190Y11021239D02*
X9465476Y11235524D01*
X9251190Y11021239D02*
X9536904Y11306953D01*
D10*
%TO.C,C9*%
X25532142Y10961667D02*
X25579761Y11009286D01*
X25627380Y11152143D01*
X25627380Y11247381D01*
X25579761Y11390239D01*
X25484523Y11485477D01*
X25389285Y11533096D01*
X25198809Y11580715D01*
X25055952Y11580715D01*
X24865476Y11533096D01*
X24770238Y11485477D01*
X24675000Y11390239D01*
X24627380Y11247381D01*
X24627380Y11152143D01*
X24675000Y11009286D01*
X24722619Y10961667D01*
X25627380Y10485477D02*
X25627380Y10295000D01*
X25579761Y10199762D01*
X25532142Y10152143D01*
X25389285Y10056905D01*
X25198809Y10009286D01*
X24817857Y10009286D01*
X24722619Y10056905D01*
X24675000Y10104524D01*
X24627380Y10199762D01*
X24627380Y10390239D01*
X24675000Y10485477D01*
X24722619Y10533096D01*
X24817857Y10580715D01*
X25055952Y10580715D01*
X25151190Y10533096D01*
X25198809Y10485477D01*
X25246428Y10390239D01*
X25246428Y10199762D01*
X25198809Y10104524D01*
X25151190Y10056905D01*
X25055952Y10009286D01*
%TO.C,C8*%
X22391666Y8815858D02*
X22439285Y8768239D01*
X22582142Y8720620D01*
X22677380Y8720620D01*
X22820238Y8768239D01*
X22915476Y8863477D01*
X22963095Y8958715D01*
X23010714Y9149191D01*
X23010714Y9292048D01*
X22963095Y9482524D01*
X22915476Y9577762D01*
X22820238Y9673000D01*
X22677380Y9720620D01*
X22582142Y9720620D01*
X22439285Y9673000D01*
X22391666Y9625381D01*
X21820238Y9292048D02*
X21915476Y9339667D01*
X21963095Y9387286D01*
X22010714Y9482524D01*
X22010714Y9530143D01*
X21963095Y9625381D01*
X21915476Y9673000D01*
X21820238Y9720620D01*
X21629761Y9720620D01*
X21534523Y9673000D01*
X21486904Y9625381D01*
X21439285Y9530143D01*
X21439285Y9482524D01*
X21486904Y9387286D01*
X21534523Y9339667D01*
X21629761Y9292048D01*
X21820238Y9292048D01*
X21915476Y9244429D01*
X21963095Y9196810D01*
X22010714Y9101572D01*
X22010714Y8911096D01*
X21963095Y8815858D01*
X21915476Y8768239D01*
X21820238Y8720620D01*
X21629761Y8720620D01*
X21534523Y8768239D01*
X21486904Y8815858D01*
X21439285Y8911096D01*
X21439285Y9101572D01*
X21486904Y9196810D01*
X21534523Y9244429D01*
X21629761Y9292048D01*
%TO.C,C13*%
X34091942Y14943058D02*
X34139561Y14990677D01*
X34187180Y15133534D01*
X34187180Y15228772D01*
X34139561Y15371629D01*
X34044323Y15466867D01*
X33949085Y15514486D01*
X33758609Y15562105D01*
X33615752Y15562105D01*
X33425276Y15514486D01*
X33330038Y15466867D01*
X33234800Y15371629D01*
X33187180Y15228772D01*
X33187180Y15133534D01*
X33234800Y14990677D01*
X33282419Y14943058D01*
X34187180Y13990677D02*
X34187180Y14562105D01*
X34187180Y14276391D02*
X33187180Y14276391D01*
X33330038Y14371629D01*
X33425276Y14466867D01*
X33472895Y14562105D01*
X33187180Y13657343D02*
X33187180Y13038296D01*
X33568133Y13371629D01*
X33568133Y13228772D01*
X33615752Y13133534D01*
X33663371Y13085915D01*
X33758609Y13038296D01*
X33996704Y13038296D01*
X34091942Y13085915D01*
X34139561Y13133534D01*
X34187180Y13228772D01*
X34187180Y13514486D01*
X34139561Y13609724D01*
X34091942Y13657343D01*
%TO.C,R10*%
X36189180Y13190458D02*
X35712990Y13523791D01*
X36189180Y13761886D02*
X35189180Y13761886D01*
X35189180Y13380934D01*
X35236800Y13285696D01*
X35284419Y13238077D01*
X35379657Y13190458D01*
X35522514Y13190458D01*
X35617752Y13238077D01*
X35665371Y13285696D01*
X35712990Y13380934D01*
X35712990Y13761886D01*
X36189180Y12238077D02*
X36189180Y12809505D01*
X36189180Y12523791D02*
X35189180Y12523791D01*
X35332038Y12619029D01*
X35427276Y12714267D01*
X35474895Y12809505D01*
X35189180Y11619029D02*
X35189180Y11523791D01*
X35236800Y11428553D01*
X35284419Y11380934D01*
X35379657Y11333315D01*
X35570133Y11285696D01*
X35808228Y11285696D01*
X35998704Y11333315D01*
X36093942Y11380934D01*
X36141561Y11428553D01*
X36189180Y11523791D01*
X36189180Y11619029D01*
X36141561Y11714267D01*
X36093942Y11761886D01*
X35998704Y11809505D01*
X35808228Y11857124D01*
X35570133Y11857124D01*
X35379657Y11809505D01*
X35284419Y11761886D01*
X35236800Y11714267D01*
X35189180Y11619029D01*
%TO.C,C7*%
X23026666Y2407858D02*
X23074285Y2360239D01*
X23217142Y2312620D01*
X23312380Y2312620D01*
X23455238Y2360239D01*
X23550476Y2455477D01*
X23598095Y2550715D01*
X23645714Y2741191D01*
X23645714Y2884048D01*
X23598095Y3074524D01*
X23550476Y3169762D01*
X23455238Y3265000D01*
X23312380Y3312620D01*
X23217142Y3312620D01*
X23074285Y3265000D01*
X23026666Y3217381D01*
X22693333Y3312620D02*
X22026666Y3312620D01*
X22455238Y2312620D01*
%TO.C,U2*%
X28701904Y15152620D02*
X28701904Y14343096D01*
X28654285Y14247858D01*
X28606666Y14200239D01*
X28511428Y14152620D01*
X28320952Y14152620D01*
X28225714Y14200239D01*
X28178095Y14247858D01*
X28130476Y14343096D01*
X28130476Y15152620D01*
X27701904Y15057381D02*
X27654285Y15105000D01*
X27559047Y15152620D01*
X27320952Y15152620D01*
X27225714Y15105000D01*
X27178095Y15057381D01*
X27130476Y14962143D01*
X27130476Y14866905D01*
X27178095Y14724048D01*
X27749523Y14152620D01*
X27130476Y14152620D01*
X30582857Y11898334D02*
X30106666Y11898334D01*
X30678095Y11612620D02*
X30344761Y12612620D01*
X30011428Y11612620D01*
X29678095Y11612620D02*
X29678095Y12612620D01*
X29440000Y12612620D01*
X29297142Y12565000D01*
X29201904Y12469762D01*
X29154285Y12374524D01*
X29106666Y12184048D01*
X29106666Y12041191D01*
X29154285Y11850715D01*
X29201904Y11755477D01*
X29297142Y11660239D01*
X29440000Y11612620D01*
X29678095Y11612620D01*
X28535238Y12184048D02*
X28630476Y12231667D01*
X28678095Y12279286D01*
X28725714Y12374524D01*
X28725714Y12422143D01*
X28678095Y12517381D01*
X28630476Y12565000D01*
X28535238Y12612620D01*
X28344761Y12612620D01*
X28249523Y12565000D01*
X28201904Y12517381D01*
X28154285Y12422143D01*
X28154285Y12374524D01*
X28201904Y12279286D01*
X28249523Y12231667D01*
X28344761Y12184048D01*
X28535238Y12184048D01*
X28630476Y12136429D01*
X28678095Y12088810D01*
X28725714Y11993572D01*
X28725714Y11803096D01*
X28678095Y11707858D01*
X28630476Y11660239D01*
X28535238Y11612620D01*
X28344761Y11612620D01*
X28249523Y11660239D01*
X28201904Y11707858D01*
X28154285Y11803096D01*
X28154285Y11993572D01*
X28201904Y12088810D01*
X28249523Y12136429D01*
X28344761Y12184048D01*
X27297142Y12612620D02*
X27487619Y12612620D01*
X27582857Y12565000D01*
X27630476Y12517381D01*
X27725714Y12374524D01*
X27773333Y12184048D01*
X27773333Y11803096D01*
X27725714Y11707858D01*
X27678095Y11660239D01*
X27582857Y11612620D01*
X27392380Y11612620D01*
X27297142Y11660239D01*
X27249523Y11707858D01*
X27201904Y11803096D01*
X27201904Y12041191D01*
X27249523Y12136429D01*
X27297142Y12184048D01*
X27392380Y12231667D01*
X27582857Y12231667D01*
X27678095Y12184048D01*
X27725714Y12136429D01*
X27773333Y12041191D01*
X26725714Y11612620D02*
X26535238Y11612620D01*
X26440000Y11660239D01*
X26392380Y11707858D01*
X26297142Y11850715D01*
X26249523Y12041191D01*
X26249523Y12422143D01*
X26297142Y12517381D01*
X26344761Y12565000D01*
X26440000Y12612620D01*
X26630476Y12612620D01*
X26725714Y12565000D01*
X26773333Y12517381D01*
X26820952Y12422143D01*
X26820952Y12184048D01*
X26773333Y12088810D01*
X26725714Y12041191D01*
X26630476Y11993572D01*
X26440000Y11993572D01*
X26344761Y12041191D01*
X26297142Y12088810D01*
X26249523Y12184048D01*
X25868571Y12517381D02*
X25820952Y12565000D01*
X25725714Y12612620D01*
X25487619Y12612620D01*
X25392380Y12565000D01*
X25344761Y12517381D01*
X25297142Y12422143D01*
X25297142Y12326905D01*
X25344761Y12184048D01*
X25916190Y11612620D01*
X25297142Y11612620D01*
D12*
%TO.C,U1*%
X16014714Y7829572D02*
X16631571Y7829572D01*
X16704142Y7793286D01*
X16740428Y7757000D01*
X16776714Y7684429D01*
X16776714Y7539286D01*
X16740428Y7466715D01*
X16704142Y7430429D01*
X16631571Y7394143D01*
X16014714Y7394143D01*
X16776714Y6632143D02*
X16776714Y7067572D01*
X16776714Y6849858D02*
X16014714Y6849858D01*
X16123571Y6922429D01*
X16196142Y6995000D01*
X16232428Y7067572D01*
X19904622Y8422638D02*
X19904622Y8923018D01*
X19737829Y8565604D01*
X19571036Y8923018D01*
X19571036Y8422638D01*
X19356587Y8565604D02*
X19118311Y8565604D01*
X19404242Y8422638D02*
X19237449Y8923018D01*
X19070656Y8422638D01*
X18951518Y8923018D02*
X18617931Y8422638D01*
X18617931Y8923018D02*
X18951518Y8422638D01*
X18212861Y8756225D02*
X18212861Y8422638D01*
X18332000Y8946846D02*
X18451138Y8589431D01*
X18141379Y8589431D01*
X17736309Y8756225D02*
X17736309Y8422638D01*
X17855447Y8946846D02*
X17974585Y8589431D01*
X17664826Y8589431D01*
X17521860Y8923018D02*
X17188274Y8923018D01*
X17402722Y8422638D01*
X16759377Y8923018D02*
X16997653Y8923018D01*
X17021480Y8684742D01*
X16997653Y8708570D01*
X16949998Y8732397D01*
X16830860Y8732397D01*
X16783204Y8708570D01*
X16759377Y8684742D01*
X16735549Y8637087D01*
X16735549Y8517949D01*
X16759377Y8470293D01*
X16783204Y8446466D01*
X16830860Y8422638D01*
X16949998Y8422638D01*
X16997653Y8446466D01*
X17021480Y8470293D01*
D10*
%TO.C,R3*%
X19247380Y3341667D02*
X18771190Y3675000D01*
X19247380Y3913096D02*
X18247380Y3913096D01*
X18247380Y3532143D01*
X18295000Y3436905D01*
X18342619Y3389286D01*
X18437857Y3341667D01*
X18580714Y3341667D01*
X18675952Y3389286D01*
X18723571Y3436905D01*
X18771190Y3532143D01*
X18771190Y3913096D01*
X18247380Y3008334D02*
X18247380Y2389286D01*
X18628333Y2722620D01*
X18628333Y2579762D01*
X18675952Y2484524D01*
X18723571Y2436905D01*
X18818809Y2389286D01*
X19056904Y2389286D01*
X19152142Y2436905D01*
X19199761Y2484524D01*
X19247380Y2579762D01*
X19247380Y2865477D01*
X19199761Y2960715D01*
X19152142Y3008334D01*
%TO.C,Q1*%
X14629619Y13694239D02*
X14582000Y13789477D01*
X14486761Y13884715D01*
X14343904Y14027572D01*
X14296285Y14122810D01*
X14296285Y14218048D01*
X14534380Y14170429D02*
X14486761Y14265667D01*
X14391523Y14360905D01*
X14201047Y14408524D01*
X13867714Y14408524D01*
X13677238Y14360905D01*
X13582000Y14265667D01*
X13534380Y14170429D01*
X13534380Y13979953D01*
X13582000Y13884715D01*
X13677238Y13789477D01*
X13867714Y13741858D01*
X14201047Y13741858D01*
X14391523Y13789477D01*
X14486761Y13884715D01*
X14534380Y13979953D01*
X14534380Y14170429D01*
X14534380Y12789477D02*
X14534380Y13360905D01*
X14534380Y13075191D02*
X13534380Y13075191D01*
X13677238Y13170429D01*
X13772476Y13265667D01*
X13820095Y13360905D01*
%TO.C,R4*%
X16694949Y6385598D02*
X16218759Y6718931D01*
X16694949Y6957027D02*
X15694949Y6957027D01*
X15694949Y6576074D01*
X15742569Y6480836D01*
X15790188Y6433217D01*
X15885426Y6385598D01*
X16028283Y6385598D01*
X16123521Y6433217D01*
X16171140Y6480836D01*
X16218759Y6576074D01*
X16218759Y6957027D01*
X16028283Y5528455D02*
X16694949Y5528455D01*
X15647330Y5766551D02*
X16361616Y6004646D01*
X16361616Y5385598D01*
%TO.C,R12*%
X6547857Y10410120D02*
X6881190Y10886310D01*
X7119285Y10410120D02*
X7119285Y11410120D01*
X6738333Y11410120D01*
X6643095Y11362500D01*
X6595476Y11314881D01*
X6547857Y11219643D01*
X6547857Y11076786D01*
X6595476Y10981548D01*
X6643095Y10933929D01*
X6738333Y10886310D01*
X7119285Y10886310D01*
X5595476Y10410120D02*
X6166904Y10410120D01*
X5881190Y10410120D02*
X5881190Y11410120D01*
X5976428Y11267262D01*
X6071666Y11172024D01*
X6166904Y11124405D01*
X5214523Y11314881D02*
X5166904Y11362500D01*
X5071666Y11410120D01*
X4833571Y11410120D01*
X4738333Y11362500D01*
X4690714Y11314881D01*
X4643095Y11219643D01*
X4643095Y11124405D01*
X4690714Y10981548D01*
X5262142Y10410120D01*
X4643095Y10410120D01*
%TO.C,C15*%
X8234742Y14777958D02*
X8282361Y14825577D01*
X8329980Y14968434D01*
X8329980Y15063672D01*
X8282361Y15206529D01*
X8187123Y15301767D01*
X8091885Y15349386D01*
X7901409Y15397005D01*
X7758552Y15397005D01*
X7568076Y15349386D01*
X7472838Y15301767D01*
X7377600Y15206529D01*
X7329980Y15063672D01*
X7329980Y14968434D01*
X7377600Y14825577D01*
X7425219Y14777958D01*
X8329980Y13825577D02*
X8329980Y14397005D01*
X8329980Y14111291D02*
X7329980Y14111291D01*
X7472838Y14206529D01*
X7568076Y14301767D01*
X7615695Y14397005D01*
X7329980Y12920815D02*
X7329980Y13397005D01*
X7806171Y13444624D01*
X7758552Y13397005D01*
X7710933Y13301767D01*
X7710933Y13063672D01*
X7758552Y12968434D01*
X7806171Y12920815D01*
X7901409Y12873196D01*
X8139504Y12873196D01*
X8234742Y12920815D01*
X8282361Y12968434D01*
X8329980Y13063672D01*
X8329980Y13301767D01*
X8282361Y13397005D01*
X8234742Y13444624D01*
D13*
%TO.C,C1*%
X8917000Y13723252D02*
X8917000Y13200748D01*
X10387000Y13723252D02*
X10387000Y13200748D01*
%TO.C,C2*%
X19785000Y3436252D02*
X19785000Y2913748D01*
X18315000Y3436252D02*
X18315000Y2913748D01*
%TO.C,C3*%
X21690000Y10533748D02*
X21690000Y11056252D01*
X20220000Y10533748D02*
X20220000Y11056252D01*
%TO.C,C5*%
X34190000Y18153748D02*
X34190000Y18676252D01*
X35660000Y18153748D02*
X35660000Y18676252D01*
%TO.C,C6*%
X33120000Y18153748D02*
X33120000Y18676252D01*
X31650000Y18153748D02*
X31650000Y18676252D01*
%TO.C,C10*%
X22573348Y1855800D02*
X23095852Y1855800D01*
X22573348Y3325800D02*
X23095852Y3325800D01*
%TO.C,C12*%
X38327000Y8374748D02*
X38327000Y8897252D01*
X36857000Y8374748D02*
X36857000Y8897252D01*
%TO.C,C14*%
X34536748Y14555800D02*
X35059252Y14555800D01*
X34536748Y16025800D02*
X35059252Y16025800D01*
%TO.C,R1*%
X8917000Y16917936D02*
X8917000Y17372064D01*
X10387000Y16917936D02*
X10387000Y17372064D01*
%TO.C,R2*%
X5421364Y10695000D02*
X4967236Y10695000D01*
X5421364Y12165000D02*
X4967236Y12165000D01*
%TO.C,R5*%
X26643000Y6122936D02*
X26643000Y6577064D01*
X25173000Y6122936D02*
X25173000Y6577064D01*
%TO.C,R6*%
X32539000Y6249936D02*
X32539000Y6704064D01*
X34009000Y6249936D02*
X34009000Y6704064D01*
%TO.C,R7*%
X29056000Y6122936D02*
X29056000Y6577064D01*
X27586000Y6122936D02*
X27586000Y6577064D01*
%TO.C,R8*%
X34571000Y8408936D02*
X34571000Y8863064D01*
X36041000Y8408936D02*
X36041000Y8863064D01*
%TO.C,R9*%
X32789800Y10720336D02*
X32789800Y11174464D01*
X31319800Y10720336D02*
X31319800Y11174464D01*
%TO.C,R11*%
X38174600Y12673064D02*
X38174600Y12218936D01*
X36704600Y12673064D02*
X36704600Y12218936D01*
%TO.C,C11*%
X31596000Y6215748D02*
X31596000Y6738252D01*
X30126000Y6215748D02*
X30126000Y6738252D01*
%TO.C,C4*%
X11634569Y5902679D02*
X11634569Y6425183D01*
X13104569Y5902679D02*
X13104569Y6425183D01*
D10*
%TO.C,J3*%
X15875000Y8255000D02*
X15875000Y10795000D01*
X8255000Y8255000D02*
X15875000Y8255000D01*
X15875000Y10795000D02*
X8255000Y10795000D01*
X8255000Y10795000D02*
X8255000Y8255000D01*
D13*
%TO.C,C9*%
X24230000Y10533748D02*
X24230000Y11056252D01*
X22760000Y10533748D02*
X22760000Y11056252D01*
%TO.C,C8*%
X22486252Y6758000D02*
X21963748Y6758000D01*
X22486252Y8228000D02*
X21963748Y8228000D01*
%TO.C,C13*%
X31319800Y14038948D02*
X31319800Y14561452D01*
X32789800Y14038948D02*
X32789800Y14561452D01*
%TO.C,R10*%
X33351800Y12320536D02*
X33351800Y12774664D01*
X34821800Y12320536D02*
X34821800Y12774664D01*
%TO.C,C7*%
X22598748Y5180000D02*
X23121252Y5180000D01*
X22598748Y3710000D02*
X23121252Y3710000D01*
D10*
%TO.C,U2*%
X30480000Y11049000D02*
X30480000Y15621000D01*
X30480000Y15621000D02*
X25400000Y15621000D01*
X25400000Y15621000D02*
X25400000Y11049000D01*
X29972000Y14097000D02*
X29972000Y12827000D01*
X30480000Y14097000D02*
X29972000Y14097000D01*
X29972000Y12827000D02*
X30480000Y12827000D01*
X25400000Y11049000D02*
X30480000Y11049000D01*
%TO.C,U1*%
X18796000Y6731000D02*
X19558000Y7239000D01*
X17018000Y6731000D02*
X19621500Y6731000D01*
X19621500Y6731000D02*
X19621500Y8255000D01*
X19621500Y8255000D02*
X17018000Y8255000D01*
X17018000Y8255000D02*
X17018000Y6731000D01*
D13*
%TO.C,R3*%
X17880000Y2947936D02*
X17880000Y3402064D01*
X16410000Y2947936D02*
X16410000Y3402064D01*
%TO.C,Q1*%
X18042000Y13599000D02*
X18042000Y14249000D01*
X14922000Y13599000D02*
X14922000Y15274000D01*
X14922000Y13599000D02*
X14922000Y12949000D01*
X18042000Y13599000D02*
X18042000Y12949000D01*
%TO.C,R4*%
X13857569Y5991867D02*
X13857569Y6445995D01*
X15327569Y5991867D02*
X15327569Y6445995D01*
%TO.C,R12*%
X6132064Y9947500D02*
X5677936Y9947500D01*
X6132064Y8477500D02*
X5677936Y8477500D01*
%TO.C,C15*%
X5462600Y13873848D02*
X5462600Y14396352D01*
X6932600Y13873848D02*
X6932600Y14396352D01*
%TD*%
M02*
