<?xml version='1.0' encoding='ASCII' standalone='yes'?>
<svg xmlns:svg="http://www.w3.org/2000/svg" xmlns="http://www.w3.org/2000/svg" xmlns:xlink="http://www.w3.org/1999/xlink" version="1.1" width="29.700220cm" height="21.000720cm" viewBox="0 0 2970022 2100072">
<title>SVG Picture created as PCRD01-B_Fab.svg date 2023/04/12 13:17:53 </title>
  <desc>Picture generated by PCBNEW </desc>
<g style="fill:#000084; fill-opacity:1.000000;stroke:#000084; stroke-opacity:1.000000; stroke-linecap:round; stroke-linejoin:round;" transform="translate(0 0) scale(1 1)">
</g>
<g style="fill:#000084; fill-opacity:0.0;  stroke:#000084; stroke-width:0.000000; stroke-opacity:1;  stroke-linecap:round; stroke-linejoin:round;">
</g>
<g style="fill:#000084; fill-opacity:0.01;  stroke:#000084; stroke-width:6437.711360; stroke-opacity:1;  stroke-linecap:round; stroke-linejoin:round;">
<g transform="rotate(-90.000000 837497.030841 855407.507740)">
<text x="837497.030841" y="870154.358181" transform="scale(-1 1) translate(-1674994.061681 0)" textLength="57582.858419" font-size="39324.914861" lengthAdjust="spacingAndGlyphs" text-anchor="middle" opacity="0.01" style="font-family:monospace">C1</text>
</g>
<g class="stroked-text"><desc>C1</desc>
<path d="M848030 850491 L849434 849087 L850839 844873 L850839 842065 L849434 837851 L846626 835042 L843817 833638 L838199 832233 L833985 832233 L828368 833638 L825559 835042 L822750 837851 L821345 842065 L821345 844873 L822750 849087 L824154 850491 "/>
<path d="M850839 878581 L850839 861727 "/>
<path d="M850839 870154 L821345 870154 L825559 867345 L828368 864536 L829772 861727 "/>
</g><g transform="rotate(-90.000000 878668.440700 862893.218623)">
<text x="878668.440700" y="877640.069064" transform="scale(-1 1) translate(-1757336.881400 0)" textLength="74494.258157" font-size="39324.914861" lengthAdjust="spacingAndGlyphs" text-anchor="middle" opacity="0.01" style="font-family:monospace">4u7</text>
</g>
<g class="stroked-text"><desc>4u7</desc>
<path d="M872348 841124 L892010 841124 "/>
<path d="M861112 834101 L882179 827079 L882179 845337 "/>
<path d="M872348 869213 L892010 869213 "/>
<path d="M872348 856573 L887797 856573 L890606 857977 L892010 860786 L892010 864999 L890606 867808 L889201 869213 "/>
<path d="M862517 880448 L862517 900111 L892010 887471 "/>
</g><g transform="rotate(-90.000000 1391439.636223 1461750.089307)">
<text x="1391439.636223" y="1476496.939748" transform="scale(-1 1) translate(-2782879.272446 0)" textLength="49213.892593" font-size="39324.914861" lengthAdjust="spacingAndGlyphs" text-anchor="middle" opacity="0.01" style="font-family:monospace">C2</text>
</g>
<g class="stroked-text"><desc>C2</desc>
<path d="M1401973 1456834 L1403377 1455429 L1404782 1451216 L1404782 1448407 L1403377 1444194 L1400568 1441385 L1397759 1439980 L1392141 1438576 L1387928 1438576 L1382310 1439980 L1379501 1441385 L1376692 1444194 L1375288 1448407 L1375288 1451216 L1376692 1455429 L1378097 1456834 "/>
<path d="M1378097 1468070 L1376692 1469474 L1375288 1472283 L1375288 1479305 L1376692 1482114 L1378097 1483519 L1380906 1484923 L1383715 1484923 L1387928 1483519 L1404782 1466665 L1404782 1484923 "/>
</g><g transform="rotate(-90.000000 1432611.046082 1469235.800191)">
<text x="1432611.046082" y="1483982.650631" transform="scale(-1 1) translate(-2865222.092165 0)" textLength="74494.258157" font-size="39324.914861" lengthAdjust="spacingAndGlyphs" text-anchor="middle" opacity="0.01" style="font-family:monospace">12p</text>
</g>
<g class="stroked-text"><desc>12p</desc>
<path d="M1445953 1450275 L1445953 1433421 "/>
<path d="M1445953 1441848 L1416459 1441848 L1420673 1439039 L1423482 1436230 L1424886 1433421 "/>
<path d="M1419268 1461511 L1417864 1462915 L1416459 1465724 L1416459 1472746 L1417864 1475555 L1419268 1476960 L1422077 1478364 L1424886 1478364 L1429099 1476960 L1445953 1460106 L1445953 1478364 "/>
<path d="M1426290 1491004 L1455784 1491004 "/>
<path d="M1427695 1491004 L1426290 1493813 L1426290 1499431 L1427695 1502240 L1429099 1503645 L1431908 1505049 L1440335 1505049 L1443144 1503645 L1444548 1502240 L1445953 1499431 L1445953 1493813 L1444548 1491004 "/>
</g><g transform="rotate(-90.000000 1541153.853894 1012607.436294)">
<text x="1541153.853894" y="1027354.286735" transform="scale(-1 1) translate(-3082307.707788 0)" textLength="49213.892593" font-size="39324.914861" lengthAdjust="spacingAndGlyphs" text-anchor="middle" opacity="0.01" style="font-family:monospace">C3</text>
</g>
<g class="stroked-text"><desc>C3</desc>
<path d="M1551687 1007691 L1553091 1006287 L1554496 1002073 L1554496 999265 L1553091 995051 L1550282 992242 L1547473 990838 L1541856 989433 L1537642 989433 L1532024 990838 L1529215 992242 L1526407 995051 L1525002 999265 L1525002 1002073 L1526407 1006287 L1527811 1007691 "/>
<path d="M1525002 1017523 L1525002 1035781 L1536238 1025949 L1536238 1030163 L1537642 1032972 L1539047 1034376 L1541856 1035781 L1548878 1035781 L1551687 1034376 L1553091 1032972 L1554496 1030163 L1554496 1021736 L1553091 1018927 L1551687 1017523 "/>
</g><g transform="rotate(-90.000000 1499982.444034 1005121.725411)">
<text x="1499982.444034" y="1019868.575851" transform="scale(-1 1) translate(-2999964.888069 0)" textLength="127863.781257" font-size="39324.914861" lengthAdjust="spacingAndGlyphs" text-anchor="middle" opacity="0.01" style="font-family:monospace">100nF</text>
</g>
<g class="stroked-text"><desc>100nF</desc>
<path d="M1513324 959476 L1513324 942623 "/>
<path d="M1513324 951049 L1483831 951049 L1488044 948240 L1490853 945432 L1492257 942623 "/>
<path d="M1483831 977734 L1483831 980543 L1485235 983352 L1486640 984756 L1489448 986161 L1495066 987565 L1502089 987565 L1507706 986161 L1510515 984756 L1511920 983352 L1513324 980543 L1513324 977734 L1511920 974925 L1510515 973521 L1507706 972116 L1502089 970712 L1495066 970712 L1489448 972116 L1486640 973521 L1485235 974925 L1483831 977734 "/>
<path d="M1483831 1005823 L1483831 1008632 L1485235 1011441 L1486640 1012846 L1489448 1014250 L1495066 1015655 L1502089 1015655 L1507706 1014250 L1510515 1012846 L1511920 1011441 L1513324 1008632 L1513324 1005823 L1511920 1003014 L1510515 1001610 L1507706 1000206 L1502089 998801 L1495066 998801 L1489448 1000206 L1486640 1001610 L1485235 1003014 L1483831 1005823 "/>
<path d="M1493662 1028295 L1513324 1028295 "/>
<path d="M1496471 1028295 L1495066 1029699 L1493662 1032508 L1493662 1036722 L1495066 1039531 L1497875 1040935 L1513324 1040935 "/>
<path d="M1497875 1064811 L1497875 1054980 "/>
<path d="M1513324 1054980 L1483831 1054980 L1483831 1069024 "/>
</g><g transform="rotate(-90.000000 2364582.051084 563464.783282)">
<text x="2364582.051084" y="578211.633722" transform="scale(-1 1) translate(-4729164.102167 0)" textLength="49213.892593" font-size="39324.914861" lengthAdjust="spacingAndGlyphs" text-anchor="middle" opacity="0.01" style="font-family:monospace">C5</text>
</g>
<g class="stroked-text"><desc>C5</desc>
<path d="M2375115 558549 L2376519 557144 L2377924 552931 L2377924 550122 L2376519 545908 L2373711 543100 L2370902 541695 L2365284 540291 L2361070 540291 L2355453 541695 L2352644 543100 L2349835 545908 L2348430 550122 L2348430 552931 L2349835 557144 L2351239 558549 "/>
<path d="M2348430 585233 L2348430 571189 L2362475 569784 L2361070 571189 L2359666 573998 L2359666 581020 L2361070 583829 L2362475 585233 L2365284 586638 L2372306 586638 L2375115 585233 L2376519 583829 L2377924 581020 L2377924 573998 L2376519 571189 L2375115 569784 "/>
</g><g transform="rotate(-90.000000 2323410.641224 555979.072398)">
<text x="2323410.641224" y="570725.922839" transform="scale(-1 1) translate(-4646821.282448 0)" textLength="127863.781257" font-size="39324.914861" lengthAdjust="spacingAndGlyphs" text-anchor="middle" opacity="0.01" style="font-family:monospace">100nF</text>
</g>
<g class="stroked-text"><desc>100nF</desc>
<path d="M2336753 510334 L2336753 493480 "/>
<path d="M2336753 501907 L2307259 501907 L2311472 499098 L2314281 496289 L2315686 493480 "/>
<path d="M2307259 528592 L2307259 531400 L2308663 534209 L2310068 535614 L2312877 537018 L2318495 538423 L2325517 538423 L2331135 537018 L2333944 535614 L2335348 534209 L2336753 531400 L2336753 528592 L2335348 525783 L2333944 524378 L2331135 522974 L2325517 521569 L2318495 521569 L2312877 522974 L2310068 524378 L2308663 525783 L2307259 528592 "/>
<path d="M2307259 556681 L2307259 559490 L2308663 562299 L2310068 563703 L2312877 565108 L2318495 566512 L2325517 566512 L2331135 565108 L2333944 563703 L2335348 562299 L2336753 559490 L2336753 556681 L2335348 553872 L2333944 552467 L2331135 551063 L2325517 549658 L2318495 549658 L2312877 551063 L2310068 552467 L2308663 553872 L2307259 556681 "/>
<path d="M2317090 579152 L2336753 579152 "/>
<path d="M2319899 579152 L2318495 580557 L2317090 583366 L2317090 587579 L2318495 590388 L2321303 591792 L2336753 591792 "/>
<path d="M2321303 615668 L2321303 605837 "/>
<path d="M2336753 605837 L2307259 605837 L2307259 619882 "/>
</g><g transform="rotate(-90.000000 2214867.833413 563464.783282)">
<text x="2214867.833413" y="578211.633722" transform="scale(-1 1) translate(-4429735.666825 0)" textLength="49213.892593" font-size="39324.914861" lengthAdjust="spacingAndGlyphs" text-anchor="middle" opacity="0.01" style="font-family:monospace">C6</text>
</g>
<g class="stroked-text"><desc>C6</desc>
<path d="M2225401 558549 L2226805 557144 L2228210 552931 L2228210 550122 L2226805 545908 L2223996 543100 L2221187 541695 L2215570 540291 L2211356 540291 L2205738 541695 L2202929 543100 L2200120 545908 L2198716 550122 L2198716 552931 L2200120 557144 L2201525 558549 "/>
<path d="M2198716 583829 L2198716 578211 L2200120 575402 L2201525 573998 L2205738 571189 L2211356 569784 L2222592 569784 L2225401 571189 L2226805 572593 L2228210 575402 L2228210 581020 L2226805 583829 L2225401 585233 L2222592 586638 L2215570 586638 L2212761 585233 L2211356 583829 L2209952 581020 L2209952 575402 L2211356 572593 L2212761 571189 L2215570 569784 "/>
</g><g transform="rotate(-90.000000 2173696.423553 555979.072398)">
<text x="2173696.423553" y="570725.922839" transform="scale(-1 1) translate(-4347392.847106 0)" textLength="99774.564777" font-size="39324.914861" lengthAdjust="spacingAndGlyphs" text-anchor="middle" opacity="0.01" style="font-family:monospace">10uF</text>
</g>
<g class="stroked-text"><desc>10uF</desc>
<path d="M2187038 524378 L2187038 507525 "/>
<path d="M2187038 515951 L2157545 515951 L2161758 513142 L2164567 510334 L2165971 507525 "/>
<path d="M2157545 542636 L2157545 545445 L2158949 548254 L2160353 549658 L2163162 551063 L2168780 552467 L2175803 552467 L2181420 551063 L2184229 549658 L2185634 548254 L2187038 545445 L2187038 542636 L2185634 539827 L2184229 538423 L2181420 537018 L2175803 535614 L2168780 535614 L2163162 537018 L2160353 538423 L2158949 539827 L2157545 542636 "/>
<path d="M2167376 577748 L2187038 577748 "/>
<path d="M2167376 565108 L2182825 565108 L2185634 566512 L2187038 569321 L2187038 573534 L2185634 576343 L2184229 577748 "/>
<path d="M2171589 601624 L2171589 591792 "/>
<path d="M2187038 591792 L2157545 591792 L2157545 605837 "/>
</g><text x="1633228.097761" y="1529645.487021" transform="scale(-1 1) translate(-3266456.195523 0)" textLength="77303.168016" font-size="39324.914861" lengthAdjust="spacingAndGlyphs" text-anchor="middle" opacity="0.01" style="font-family:monospace">C10</text>
<g class="stroked-text"><desc>C10</desc>
<path d="M1652188 1525432 L1653592 1526836 L1657806 1528241 L1660615 1528241 L1664828 1526836 L1667637 1524027 L1669041 1521218 L1670446 1515600 L1670446 1511387 L1669041 1505769 L1667637 1502960 L1664828 1500151 L1660615 1498747 L1657806 1498747 L1653592 1500151 L1652188 1501556 "/>
<path d="M1624099 1528241 L1640952 1528241 "/>
<path d="M1632525 1528241 L1632525 1498747 L1635334 1502960 L1638143 1505769 L1640952 1507174 "/>
<path d="M1605841 1498747 L1603032 1498747 L1600223 1500151 L1598818 1501556 L1597414 1504365 L1596009 1509983 L1596009 1517005 L1597414 1522623 L1598818 1525432 L1600223 1526836 L1603032 1528241 L1605841 1528241 L1608649 1526836 L1610054 1525432 L1611458 1522623 L1612863 1517005 L1612863 1509983 L1611458 1504365 L1610054 1501556 L1608649 1500151 L1605841 1498747 "/>
</g><text x="1640713.808645" y="1488474.077161" transform="scale(-1 1) translate(-3281427.617290 0)" textLength="99774.564777" font-size="39324.914861" lengthAdjust="spacingAndGlyphs" text-anchor="middle" opacity="0.01" style="font-family:monospace">10uF</text>
<g class="stroked-text"><desc>10uF</desc>
<path d="M1672314 1487069 L1689167 1487069 "/>
<path d="M1680740 1487069 L1680740 1457575 L1683549 1461789 L1686358 1464598 L1689167 1466002 "/>
<path d="M1654056 1457575 L1651247 1457575 L1648438 1458980 L1647033 1460384 L1645629 1463193 L1644224 1468811 L1644224 1475833 L1645629 1481451 L1647033 1484260 L1648438 1485665 L1651247 1487069 L1654056 1487069 L1656865 1485665 L1658269 1484260 L1659673 1481451 L1661078 1475833 L1661078 1468811 L1659673 1463193 L1658269 1460384 L1656865 1458980 L1654056 1457575 "/>
<path d="M1618944 1467407 L1618944 1487069 "/>
<path d="M1631584 1467407 L1631584 1482856 L1630180 1485665 L1627371 1487069 L1623157 1487069 L1620349 1485665 L1618944 1484260 "/>
<path d="M1595068 1471620 L1604899 1471620 "/>
<path d="M1604899 1487069 L1604899 1457575 L1590855 1457575 "/>
</g><g transform="rotate(-90.000000 2521781.979638 1139864.521315)">
<text x="2521781.979638" y="1154611.371755" transform="scale(-1 1) translate(-5043563.959276 0)" textLength="77303.168016" font-size="39324.914861" lengthAdjust="spacingAndGlyphs" text-anchor="middle" opacity="0.01" style="font-family:monospace">C12</text>
</g>
<g class="stroked-text"><desc>C12</desc>
<path d="M2532315 1120904 L2533719 1119499 L2535124 1115286 L2535124 1112477 L2533719 1108264 L2530910 1105455 L2528102 1104050 L2522484 1102646 L2518270 1102646 L2512652 1104050 L2509844 1105455 L2507035 1108264 L2505630 1112477 L2505630 1115286 L2507035 1119499 L2508439 1120904 "/>
<path d="M2535124 1148993 L2535124 1132139 "/>
<path d="M2535124 1140566 L2505630 1140566 L2509844 1137757 L2512652 1134948 L2514057 1132139 "/>
<path d="M2508439 1160229 L2507035 1161633 L2505630 1164442 L2505630 1171464 L2507035 1174273 L2508439 1175678 L2511248 1177082 L2514057 1177082 L2518270 1175678 L2535124 1158824 L2535124 1177082 "/>
</g><g transform="rotate(-90.000000 2480610.569779 1132378.810431)">
<text x="2480610.569779" y="1147125.660872" transform="scale(-1 1) translate(-4961221.139557 0)" textLength="127863.781257" font-size="39324.914861" lengthAdjust="spacingAndGlyphs" text-anchor="middle" opacity="0.01" style="font-family:monospace">560pF</text>
</g>
<g class="stroked-text"><desc>560pF</desc>
<path d="M2464459 1085329 L2464459 1071284 L2478503 1069880 L2477099 1071284 L2475694 1074093 L2475694 1081115 L2477099 1083924 L2478503 1085329 L2481312 1086733 L2488335 1086733 L2491144 1085329 L2492548 1083924 L2493952 1081115 L2493952 1074093 L2492548 1071284 L2491144 1069880 "/>
<path d="M2464459 1112014 L2464459 1106396 L2465863 1103587 L2467268 1102182 L2471481 1099373 L2477099 1097969 L2488335 1097969 L2491144 1099373 L2492548 1100778 L2493952 1103587 L2493952 1109205 L2492548 1112014 L2491144 1113418 L2488335 1114822 L2481312 1114822 L2478503 1113418 L2477099 1112014 L2475694 1109205 L2475694 1103587 L2477099 1100778 L2478503 1099373 L2481312 1097969 "/>
<path d="M2464459 1133080 L2464459 1135889 L2465863 1138698 L2467268 1140103 L2470077 1141507 L2475694 1142912 L2482717 1142912 L2488335 1141507 L2491144 1140103 L2492548 1138698 L2493952 1135889 L2493952 1133080 L2492548 1130272 L2491144 1128867 L2488335 1127463 L2482717 1126058 L2475694 1126058 L2470077 1127463 L2467268 1128867 L2465863 1130272 L2464459 1133080 "/>
<path d="M2474290 1155552 L2503784 1155552 "/>
<path d="M2475694 1155552 L2474290 1158361 L2474290 1163979 L2475694 1166788 L2477099 1168192 L2479908 1169596 L2488335 1169596 L2491144 1168192 L2492548 1166788 L2493952 1163979 L2493952 1158361 L2492548 1155552 "/>
<path d="M2478503 1192068 L2478503 1182237 "/>
<path d="M2493952 1182237 L2464459 1182237 L2464459 1196281 "/>
</g><g transform="rotate(-90.000000 874925.585258 638321.892117)">
<text x="874925.585258" y="653068.742558" transform="scale(-1 1) translate(-1749851.170517 0)" textLength="49213.892593" font-size="39324.914861" lengthAdjust="spacingAndGlyphs" text-anchor="middle" opacity="0.01" style="font-family:monospace">R1</text>
</g>
<g class="stroked-text"><desc>R1</desc>
<path d="M888267 633406 L874223 623575 "/>
<path d="M888267 616552 L858774 616552 L858774 627788 L860178 630597 L861583 632001 L864392 633406 L868605 633406 L871414 632001 L872818 630597 L874223 627788 L874223 616552 "/>
<path d="M888267 661495 L888267 644641 "/>
<path d="M888267 653068 L858774 653068 L862987 650259 L865796 647450 L867201 644641 "/>
</g><g transform="rotate(-90.000000 833754.175399 630836.181234)">
<text x="833754.175399" y="645583.031674" transform="scale(-1 1) translate(-1667508.350798 0)" textLength="71685.289355" font-size="39324.914861" lengthAdjust="spacingAndGlyphs" text-anchor="middle" opacity="0.01" style="font-family:monospace">4k7</text>
</g>
<g class="stroked-text"><desc>4k7</desc>
<path d="M827434 610471 L847096 610471 "/>
<path d="M816198 603449 L837265 596426 L837265 614684 "/>
<path d="M847096 625920 L817602 625920 "/>
<path d="M835860 628729 L847096 637156 "/>
<path d="M827434 637156 L838669 625920 "/>
<path d="M817602 646987 L817602 666649 L847096 654009 "/>
</g><text x="593462.856037" y="971211.455108" transform="scale(-1 1) translate(-1186925.712074 0)" textLength="49213.892593" font-size="39324.914861" lengthAdjust="spacingAndGlyphs" text-anchor="middle" opacity="0.01" style="font-family:monospace">R2</text>
<g class="stroked-text"><desc>R2</desc>
<path d="M598378 969806 L608209 955762 "/>
<path d="M615232 969806 L615232 940313 L603996 940313 L601187 941717 L599782 943122 L598378 945931 L598378 950144 L599782 952953 L601187 954357 L603996 955762 L615232 955762 "/>
<path d="M587142 943122 L585738 941717 L582929 940313 L575907 940313 L573098 941717 L571693 943122 L570289 945931 L570289 948740 L571693 952953 L588547 969806 L570289 969806 "/>
</g><text x="585977.145154" y="1012382.864968" transform="scale(-1 1) translate(-1171954.290307 0)" textLength="71685.289355" font-size="39324.914861" lengthAdjust="spacingAndGlyphs" text-anchor="middle" opacity="0.01" style="font-family:monospace">4k7</text>
<g class="stroked-text"><desc>4k7</desc>
<path d="M606341 991315 L606341 1010978 "/>
<path d="M613364 980080 L620386 1001147 L602128 1001147 "/>
<path d="M590892 1010978 L590892 981484 "/>
<path d="M588083 999742 L579657 1010978 "/>
<path d="M579657 991315 L590892 1002551 "/>
<path d="M569825 981484 L550163 981484 L562803 1010978 "/>
</g><g transform="rotate(-90.000000 1833096.578352 1274607.317218)">
<text x="1833096.578352" y="1289354.167659" transform="scale(-1 1) translate(-3666193.156704 0)" textLength="49213.892593" font-size="39324.914861" lengthAdjust="spacingAndGlyphs" text-anchor="middle" opacity="0.01" style="font-family:monospace">R5</text>
</g>
<g class="stroked-text"><desc>R5</desc>
<path d="M1846438 1269691 L1832394 1259860 "/>
<path d="M1846438 1252838 L1816945 1252838 L1816945 1264073 L1818349 1266882 L1819754 1268287 L1822563 1269691 L1826776 1269691 L1829585 1268287 L1830989 1266882 L1832394 1264073 L1832394 1252838 "/>
<path d="M1816945 1296376 L1816945 1282331 L1830989 1280927 L1829585 1282331 L1828180 1285140 L1828180 1292163 L1829585 1294971 L1830989 1296376 L1833798 1297780 L1840821 1297780 L1843630 1296376 L1845034 1294971 L1846438 1292163 L1846438 1285140 L1845034 1282331 L1843630 1280927 "/>
</g><g transform="rotate(-90.000000 1791925.168492 1267121.606335)">
<text x="1791925.168492" y="1281868.456775" transform="scale(-1 1) translate(-3583850.336985 0)" textLength="71685.289355" font-size="39324.914861" lengthAdjust="spacingAndGlyphs" text-anchor="middle" opacity="0.01" style="font-family:monospace">3k3</text>
</g>
<g class="stroked-text"><desc>3k3</desc>
<path d="M1775773 1231307 L1775773 1249565 L1787009 1239734 L1787009 1243947 L1788413 1246756 L1789818 1248161 L1792627 1249565 L1799649 1249565 L1802458 1248161 L1803863 1246756 L1805267 1243947 L1805267 1235521 L1803863 1232712 L1802458 1231307 "/>
<path d="M1805267 1262205 L1775773 1262205 "/>
<path d="M1794031 1265014 L1805267 1273441 "/>
<path d="M1785605 1273441 L1796840 1262205 "/>
<path d="M1775773 1283272 L1775773 1301530 L1787009 1291699 L1787009 1295913 L1788413 1298721 L1789818 1300126 L1792627 1301530 L1799649 1301530 L1802458 1300126 L1803863 1298721 L1805267 1295913 L1805267 1287486 L1803863 1284677 L1802458 1283272 "/>
</g><g transform="rotate(-90.000000 2267267.809598 1267121.606335)">
<text x="2267267.809598" y="1281868.456775" transform="scale(-1 1) translate(-4534535.619195 0)" textLength="49213.892593" font-size="39324.914861" lengthAdjust="spacingAndGlyphs" text-anchor="middle" opacity="0.01" style="font-family:monospace">R6</text>
</g>
<g class="stroked-text"><desc>R6</desc>
<path d="M2280610 1262205 L2266565 1252374 "/>
<path d="M2280610 1245352 L2251116 1245352 L2251116 1256588 L2252520 1259397 L2253925 1260801 L2256734 1262205 L2260947 1262205 L2263756 1260801 L2265161 1259397 L2266565 1256588 L2266565 1245352 "/>
<path d="M2251116 1287486 L2251116 1281868 L2252520 1279059 L2253925 1277655 L2258138 1274846 L2263756 1273441 L2274992 1273441 L2277801 1274846 L2279205 1276250 L2280610 1279059 L2280610 1284677 L2279205 1287486 L2277801 1288890 L2274992 1290295 L2267969 1290295 L2265161 1288890 L2263756 1287486 L2262352 1284677 L2262352 1279059 L2263756 1276250 L2265161 1274846 L2267969 1273441 "/>
</g><g transform="rotate(-90.000000 2226096.399738 1259635.895451)">
<text x="2226096.399738" y="1274382.745892" transform="scale(-1 1) translate(-4452192.799476 0)" textLength="71685.289355" font-size="39324.914861" lengthAdjust="spacingAndGlyphs" text-anchor="middle" opacity="0.01" style="font-family:monospace">10k</text>
</g>
<g class="stroked-text"><desc>10k</desc>
<path d="M2239438 1242080 L2239438 1225226 "/>
<path d="M2239438 1233653 L2209945 1233653 L2214158 1230844 L2216967 1228035 L2218371 1225226 "/>
<path d="M2209945 1260338 L2209945 1263147 L2211349 1265955 L2212753 1267360 L2215562 1268764 L2221180 1270169 L2228203 1270169 L2233820 1268764 L2236629 1267360 L2238034 1265955 L2239438 1263147 L2239438 1260338 L2238034 1257529 L2236629 1256124 L2233820 1254720 L2228203 1253315 L2221180 1253315 L2215562 1254720 L2212753 1256124 L2211349 1257529 L2209945 1260338 "/>
<path d="M2239438 1282809 L2209945 1282809 "/>
<path d="M2228203 1285618 L2239438 1294045 "/>
<path d="M2219776 1294045 L2231011 1282809 "/>
</g><g transform="rotate(-90.000000 1975325.085139 1274607.317218)">
<text x="1975325.085139" y="1289354.167659" transform="scale(-1 1) translate(-3950650.170279 0)" textLength="49213.892593" font-size="39324.914861" lengthAdjust="spacingAndGlyphs" text-anchor="middle" opacity="0.01" style="font-family:monospace">R7</text>
</g>
<g class="stroked-text"><desc>R7</desc>
<path d="M1988667 1269691 L1974622 1259860 "/>
<path d="M1988667 1252838 L1959173 1252838 L1959173 1264073 L1960578 1266882 L1961982 1268287 L1964791 1269691 L1969004 1269691 L1971813 1268287 L1973218 1266882 L1974622 1264073 L1974622 1252838 "/>
<path d="M1959173 1279522 L1959173 1299185 L1988667 1286545 "/>
</g><g transform="rotate(-90.000000 1934153.675280 1267121.606335)">
<text x="1934153.675280" y="1281868.456775" transform="scale(-1 1) translate(-3868307.350560 0)" textLength="71685.289355" font-size="39324.914861" lengthAdjust="spacingAndGlyphs" text-anchor="middle" opacity="0.01" style="font-family:monospace">1k5</text>
</g>
<g class="stroked-text"><desc>1k5</desc>
<path d="M1947496 1249565 L1947496 1232712 "/>
<path d="M1947496 1241139 L1918002 1241139 L1922215 1238330 L1925024 1235521 L1926429 1232712 "/>
<path d="M1947496 1262205 L1918002 1262205 "/>
<path d="M1936260 1265014 L1947496 1273441 "/>
<path d="M1927833 1273441 L1939069 1262205 "/>
<path d="M1918002 1300126 L1918002 1286081 L1932046 1284677 L1930642 1286081 L1929238 1288890 L1929238 1295913 L1930642 1298721 L1932046 1300126 L1934855 1301530 L1941878 1301530 L1944687 1300126 L1946091 1298721 L1947496 1295913 L1947496 1288890 L1946091 1286081 L1944687 1284677 "/>
</g><g transform="rotate(-90.000000 2387039.183734 1139864.521315)">
<text x="2387039.183734" y="1154611.371755" transform="scale(-1 1) translate(-4774078.367468 0)" textLength="49213.892593" font-size="39324.914861" lengthAdjust="spacingAndGlyphs" text-anchor="middle" opacity="0.01" style="font-family:monospace">R8</text>
</g>
<g class="stroked-text"><desc>R8</desc>
<path d="M2400381 1134948 L2386336 1125117 "/>
<path d="M2400381 1118095 L2370887 1118095 L2370887 1129331 L2372292 1132139 L2373696 1133544 L2376505 1134948 L2380719 1134948 L2383527 1133544 L2384932 1132139 L2386336 1129331 L2386336 1118095 "/>
<path d="M2383527 1151802 L2382123 1148993 L2380719 1147589 L2377910 1146184 L2376505 1146184 L2373696 1147589 L2372292 1148993 L2370887 1151802 L2370887 1157420 L2372292 1160229 L2373696 1161633 L2376505 1163038 L2377910 1163038 L2380719 1161633 L2382123 1160229 L2383527 1157420 L2383527 1151802 L2384932 1148993 L2386336 1147589 L2389145 1146184 L2394763 1146184 L2397572 1147589 L2398977 1148993 L2400381 1151802 L2400381 1157420 L2398977 1160229 L2397572 1161633 L2394763 1163038 L2389145 1163038 L2386336 1161633 L2384932 1160229 L2383527 1157420 "/>
</g><g transform="rotate(-90.000000 2345867.773875 1132378.810431)">
<text x="2345867.773875" y="1147125.660872" transform="scale(-1 1) translate(-4691735.547749 0)" textLength="43596.072874" font-size="39324.914861" lengthAdjust="spacingAndGlyphs" text-anchor="middle" opacity="0.01" style="font-family:monospace">2k</text>
</g>
<g class="stroked-text"><desc>2k</desc>
<path d="M2332525 1112014 L2331120 1113418 L2329716 1116227 L2329716 1123249 L2331120 1126058 L2332525 1127463 L2335334 1128867 L2338143 1128867 L2342356 1127463 L2359210 1110609 L2359210 1128867 "/>
<path d="M2359210 1141507 L2329716 1141507 "/>
<path d="M2347974 1144316 L2359210 1152743 "/>
<path d="M2339547 1152743 L2350783 1141507 "/>
</g><g transform="rotate(-90.000000 2195404.985116 1003624.583234)">
<text x="2195404.985116" y="1018371.433675" transform="scale(-1 1) translate(-4390809.970231 0)" textLength="49213.892593" font-size="39324.914861" lengthAdjust="spacingAndGlyphs" text-anchor="middle" opacity="0.01" style="font-family:monospace">R9</text>
</g>
<g class="stroked-text"><desc>R9</desc>
<path d="M2208747 998708 L2194702 988877 "/>
<path d="M2208747 981855 L2179253 981855 L2179253 993091 L2180658 995900 L2182062 997304 L2184871 998708 L2189084 998708 L2191893 997304 L2193298 995900 L2194702 993091 L2194702 981855 "/>
<path d="M2208747 1012753 L2208747 1018371 L2207342 1021180 L2205938 1022584 L2201725 1025393 L2196107 1026798 L2184871 1026798 L2182062 1025393 L2180658 1023989 L2179253 1021180 L2179253 1015562 L2180658 1012753 L2182062 1011349 L2184871 1009944 L2191893 1009944 L2194702 1011349 L2196107 1012753 L2197511 1015562 L2197511 1021180 L2196107 1023989 L2194702 1025393 L2191893 1026798 "/>
</g><g transform="rotate(-90.000000 2154233.575256 996138.872351)">
<text x="2154233.575256" y="1010885.722791" transform="scale(-1 1) translate(-4308467.150512 0)" textLength="43596.072874" font-size="39324.914861" lengthAdjust="spacingAndGlyphs" text-anchor="middle" opacity="0.01" style="font-family:monospace">2k</text>
</g>
<g class="stroked-text"><desc>2k</desc>
<path d="M2140891 975774 L2139486 977178 L2138082 979987 L2138082 987009 L2139486 989818 L2140891 991223 L2143700 992627 L2146509 992627 L2150722 991223 L2167575 974369 L2167575 992627 "/>
<path d="M2167575 1005267 L2138082 1005267 "/>
<path d="M2156340 1008076 L2167575 1016503 "/>
<path d="M2147913 1016503 L2159149 1005267 "/>
</g><g transform="rotate(-90.000000 2475370.572160 915293.194808)">
<text x="2475370.572160" y="930040.045249" transform="scale(-1 1) translate(-4950741.144320 0)" textLength="77303.168016" font-size="39324.914861" lengthAdjust="spacingAndGlyphs" text-anchor="middle" opacity="0.01" style="font-family:monospace">R11</text>
</g>
<g class="stroked-text"><desc>R11</desc>
<path d="M2488712 896332 L2474668 886501 "/>
<path d="M2488712 879479 L2459219 879479 L2459219 890715 L2460623 893523 L2462028 894928 L2464837 896332 L2469050 896332 L2471859 894928 L2473263 893523 L2474668 890715 L2474668 879479 "/>
<path d="M2488712 924422 L2488712 907568 "/>
<path d="M2488712 915995 L2459219 915995 L2463432 913186 L2466241 910377 L2467646 907568 "/>
<path d="M2488712 952511 L2488712 935657 "/>
<path d="M2488712 944084 L2459219 944084 L2463432 941275 L2466241 938466 L2467646 935657 "/>
</g><g transform="rotate(-90.000000 2516541.982020 922778.905692)">
<text x="2516541.982020" y="937525.756132" transform="scale(-1 1) translate(-5033083.964039 0)" textLength="71685.289355" font-size="39324.914861" lengthAdjust="spacingAndGlyphs" text-anchor="middle" opacity="0.01" style="font-family:monospace">10k</text>
</g>
<g class="stroked-text"><desc>10k</desc>
<path d="M2529884 905223 L2529884 888369 "/>
<path d="M2529884 896796 L2500390 896796 L2504604 893987 L2507412 891178 L2508817 888369 "/>
<path d="M2500390 923481 L2500390 926290 L2501795 929098 L2503199 930503 L2506008 931907 L2511626 933312 L2518648 933312 L2524266 931907 L2527075 930503 L2528479 929098 L2529884 926290 L2529884 923481 L2528479 920672 L2527075 919267 L2524266 917863 L2518648 916458 L2511626 916458 L2506008 917863 L2503199 919267 L2501795 920672 L2500390 923481 "/>
<path d="M2529884 945952 L2500390 945952 "/>
<path d="M2518648 948761 L2529884 957188 "/>
<path d="M2510221 957188 L2521457 945952 "/>
</g><g transform="rotate(-90.000000 2125039.302810 1267121.606335)">
<text x="2125039.302810" y="1281868.456775" transform="scale(-1 1) translate(-4250078.605620 0)" textLength="77303.168016" font-size="39324.914861" lengthAdjust="spacingAndGlyphs" text-anchor="middle" opacity="0.01" style="font-family:monospace">C11</text>
</g>
<g class="stroked-text"><desc>C11</desc>
<path d="M2135572 1248161 L2136977 1246756 L2138381 1242543 L2138381 1239734 L2136977 1235521 L2134168 1232712 L2131359 1231307 L2125741 1229903 L2121528 1229903 L2115910 1231307 L2113101 1232712 L2110292 1235521 L2108887 1239734 L2108887 1242543 L2110292 1246756 L2111696 1248161 "/>
<path d="M2138381 1276250 L2138381 1259397 "/>
<path d="M2138381 1267823 L2108887 1267823 L2113101 1265014 L2115910 1262205 L2117314 1259397 "/>
<path d="M2138381 1304339 L2138381 1287486 "/>
<path d="M2138381 1295913 L2108887 1295913 L2113101 1293104 L2115910 1290295 L2117314 1287486 "/>
</g><g transform="rotate(-90.000000 2083867.892951 1259635.895451)">
<text x="2083867.892951" y="1274382.745892" transform="scale(-1 1) translate(-4167735.785901 0)" textLength="127863.781257" font-size="39324.914861" lengthAdjust="spacingAndGlyphs" text-anchor="middle" opacity="0.01" style="font-family:monospace">510pF</text>
</g>
<g class="stroked-text"><desc>510pF</desc>
<path d="M2067716 1212586 L2067716 1198541 L2081761 1197137 L2080356 1198541 L2078952 1201350 L2078952 1208372 L2080356 1211181 L2081761 1212586 L2084570 1213990 L2091592 1213990 L2094401 1212586 L2095805 1211181 L2097210 1208372 L2097210 1201350 L2095805 1198541 L2094401 1197137 "/>
<path d="M2097210 1242080 L2097210 1225226 "/>
<path d="M2097210 1233653 L2067716 1233653 L2071929 1230844 L2074738 1228035 L2076143 1225226 "/>
<path d="M2067716 1260338 L2067716 1263147 L2069121 1265955 L2070525 1267360 L2073334 1268764 L2078952 1270169 L2085974 1270169 L2091592 1268764 L2094401 1267360 L2095805 1265955 L2097210 1263147 L2097210 1260338 L2095805 1257529 L2094401 1256124 L2091592 1254720 L2085974 1253315 L2078952 1253315 L2073334 1254720 L2070525 1256124 L2069121 1257529 L2067716 1260338 "/>
<path d="M2077547 1282809 L2107041 1282809 "/>
<path d="M2078952 1282809 L2077547 1285618 L2077547 1291236 L2078952 1294045 L2080356 1295449 L2083165 1296854 L2091592 1296854 L2094401 1295449 L2095805 1294045 L2097210 1291236 L2097210 1285618 L2095805 1282809 "/>
<path d="M2081761 1319325 L2081761 1309494 "/>
<path d="M2097210 1309494 L2067716 1309494 L2067716 1323538 "/>
</g><g transform="rotate(-90.000000 1690868.071565 1012607.436294)">
<text x="1690868.071565" y="1027354.286735" transform="scale(-1 1) translate(-3381736.143129 0)" textLength="49213.892593" font-size="39324.914861" lengthAdjust="spacingAndGlyphs" text-anchor="middle" opacity="0.01" style="font-family:monospace">C9</text>
</g>
<g class="stroked-text"><desc>C9</desc>
<path d="M1701401 1007691 L1702805 1006287 L1704210 1002073 L1704210 999265 L1702805 995051 L1699997 992242 L1697188 990838 L1691570 989433 L1687356 989433 L1681739 990838 L1678930 992242 L1676121 995051 L1674716 999265 L1674716 1002073 L1676121 1006287 L1677525 1007691 "/>
<path d="M1704210 1021736 L1704210 1027354 L1702805 1030163 L1701401 1031567 L1697188 1034376 L1691570 1035781 L1680334 1035781 L1677525 1034376 L1676121 1032972 L1674716 1030163 L1674716 1024545 L1676121 1021736 L1677525 1020331 L1680334 1018927 L1687356 1018927 L1690165 1020331 L1691570 1021736 L1692974 1024545 L1692974 1030163 L1691570 1032972 L1690165 1034376 L1687356 1035781 "/>
</g><g transform="rotate(-90.000000 1649696.661705 1005121.725411)">
<text x="1649696.661705" y="1019868.575851" transform="scale(-1 1) translate(-3299393.323410 0)" textLength="127863.781257" font-size="39324.914861" lengthAdjust="spacingAndGlyphs" text-anchor="middle" opacity="0.01" style="font-family:monospace">100nF</text>
</g>
<g class="stroked-text"><desc>100nF</desc>
<path d="M1663039 959476 L1663039 942623 "/>
<path d="M1663039 951049 L1633545 951049 L1637758 948240 L1640567 945432 L1641972 942623 "/>
<path d="M1633545 977734 L1633545 980543 L1634949 983352 L1636354 984756 L1639163 986161 L1644781 987565 L1651803 987565 L1657421 986161 L1660230 984756 L1661634 983352 L1663039 980543 L1663039 977734 L1661634 974925 L1660230 973521 L1657421 972116 L1651803 970712 L1644781 970712 L1639163 972116 L1636354 973521 L1634949 974925 L1633545 977734 "/>
<path d="M1633545 1005823 L1633545 1008632 L1634949 1011441 L1636354 1012846 L1639163 1014250 L1644781 1015655 L1651803 1015655 L1657421 1014250 L1660230 1012846 L1661634 1011441 L1663039 1008632 L1663039 1005823 L1661634 1003014 L1660230 1001610 L1657421 1000206 L1651803 998801 L1644781 998801 L1639163 1000206 L1636354 1001610 L1634949 1003014 L1633545 1005823 "/>
<path d="M1643376 1028295 L1663039 1028295 "/>
<path d="M1646185 1028295 L1644781 1029699 L1643376 1032508 L1643376 1036722 L1644781 1039531 L1647589 1040935 L1663039 1040935 "/>
<path d="M1647589 1064811 L1647589 1054980 "/>
<path d="M1663039 1054980 L1633545 1054980 L1633545 1069024 "/>
</g><text x="1597296.685520" y="1203268.492498" transform="scale(-1 1) translate(-3194593.371041 0)" textLength="49213.892593" font-size="39324.914861" lengthAdjust="spacingAndGlyphs" text-anchor="middle" opacity="0.01" style="font-family:monospace">C8</text>
<g class="stroked-text"><desc>C8</desc>
<path d="M1602212 1199055 L1603616 1200459 L1607830 1201864 L1610639 1201864 L1614852 1200459 L1617661 1197650 L1619065 1194841 L1620470 1189223 L1620470 1185010 L1619065 1179392 L1617661 1176583 L1614852 1173774 L1610639 1172370 L1607830 1172370 L1603616 1173774 L1602212 1175179 "/>
<path d="M1585358 1185010 L1588167 1183606 L1589572 1182201 L1590976 1179392 L1590976 1177988 L1589572 1175179 L1588167 1173774 L1585358 1172370 L1579740 1172370 L1576931 1173774 L1575527 1175179 L1574123 1177988 L1574123 1179392 L1575527 1182201 L1576931 1183606 L1579740 1185010 L1585358 1185010 L1588167 1186414 L1589572 1187819 L1590976 1190628 L1590976 1196246 L1589572 1199055 L1588167 1200459 L1585358 1201864 L1579740 1201864 L1576931 1200459 L1575527 1199055 L1574123 1196246 L1574123 1190628 L1575527 1187819 L1576931 1186414 L1579740 1185010 "/>
</g><text x="1589810.974637" y="1244439.902358" transform="scale(-1 1) translate(-3179621.949274 0)" textLength="127863.781257" font-size="39324.914861" lengthAdjust="spacingAndGlyphs" text-anchor="middle" opacity="0.01" style="font-family:monospace">330nF</text>
<g class="stroked-text"><desc>330nF</desc>
<path d="M1653713 1213541 L1635455 1213541 L1645287 1224777 L1641073 1224777 L1638264 1226181 L1636860 1227586 L1635455 1230395 L1635455 1237417 L1636860 1240226 L1638264 1241630 L1641073 1243035 L1649500 1243035 L1652309 1241630 L1653713 1240226 "/>
<path d="M1625624 1213541 L1607366 1213541 L1617197 1224777 L1612984 1224777 L1610175 1226181 L1608771 1227586 L1607366 1230395 L1607366 1237417 L1608771 1240226 L1610175 1241630 L1612984 1243035 L1621411 1243035 L1624220 1241630 L1625624 1240226 "/>
<path d="M1589108 1213541 L1586299 1213541 L1583490 1214946 L1582086 1216350 L1580681 1219159 L1579277 1224777 L1579277 1231799 L1580681 1237417 L1582086 1240226 L1583490 1241630 L1586299 1243035 L1589108 1243035 L1591917 1241630 L1593322 1240226 L1594726 1237417 L1596131 1231799 L1596131 1224777 L1594726 1219159 L1593322 1216350 L1591917 1214946 L1589108 1213541 "/>
<path d="M1566637 1223372 L1566637 1243035 "/>
<path d="M1566637 1226181 L1565232 1224777 L1562423 1223372 L1558210 1223372 L1555401 1224777 L1553997 1227586 L1553997 1243035 "/>
<path d="M1530121 1227586 L1539952 1227586 "/>
<path d="M1539952 1243035 L1539952 1213541 L1525907 1213541 "/>
</g><g transform="rotate(-90.000000 2195404.985116 806001.815909)">
<text x="2195404.985116" y="820748.666349" transform="scale(-1 1) translate(-4390809.970231 0)" textLength="77303.168016" font-size="39324.914861" lengthAdjust="spacingAndGlyphs" text-anchor="middle" opacity="0.01" style="font-family:monospace">C13</text>
</g>
<g class="stroked-text"><desc>C13</desc>
<path d="M2205938 787041 L2207342 785637 L2208747 781423 L2208747 778614 L2207342 774401 L2204533 771592 L2201725 770187 L2196107 768783 L2191893 768783 L2186275 770187 L2183467 771592 L2180658 774401 L2179253 778614 L2179253 781423 L2180658 785637 L2182062 787041 "/>
<path d="M2208747 815130 L2208747 798277 "/>
<path d="M2208747 806703 L2179253 806703 L2183467 803895 L2186275 801086 L2187680 798277 "/>
<path d="M2179253 824962 L2179253 843220 L2190489 833388 L2190489 837602 L2191893 840411 L2193298 841815 L2196107 843220 L2203129 843220 L2205938 841815 L2207342 840411 L2208747 837602 L2208747 829175 L2207342 826366 L2205938 824962 "/>
</g><g transform="rotate(-90.000000 2154233.575256 798516.105025)">
<text x="2154233.575256" y="813262.955466" transform="scale(-1 1) translate(-4308467.150512 0)" textLength="127863.781257" font-size="39324.914861" lengthAdjust="spacingAndGlyphs" text-anchor="middle" opacity="0.01" style="font-family:monospace">150pF</text>
</g>
<g class="stroked-text"><desc>150pF</desc>
<path d="M2167575 752871 L2167575 736017 "/>
<path d="M2167575 744444 L2138082 744444 L2142295 741635 L2145104 738826 L2146509 736017 "/>
<path d="M2138082 779555 L2138082 765511 L2152126 764106 L2150722 765511 L2149317 768320 L2149317 775342 L2150722 778151 L2152126 779555 L2154935 780960 L2161958 780960 L2164767 779555 L2166171 778151 L2167575 775342 L2167575 768320 L2166171 765511 L2164767 764106 "/>
<path d="M2138082 799218 L2138082 802027 L2139486 804836 L2140891 806240 L2143700 807645 L2149317 809049 L2156340 809049 L2161958 807645 L2164767 806240 L2166171 804836 L2167575 802027 L2167575 799218 L2166171 796409 L2164767 795004 L2161958 793600 L2156340 792195 L2149317 792195 L2143700 793600 L2140891 795004 L2139486 796409 L2138082 799218 "/>
<path d="M2147913 821689 L2177407 821689 "/>
<path d="M2149317 821689 L2147913 824498 L2147913 830116 L2149317 832925 L2150722 834329 L2153531 835734 L2161958 835734 L2164767 834329 L2166171 832925 L2167575 830116 L2167575 824498 L2166171 821689 "/>
<path d="M2152126 858205 L2152126 848374 "/>
<path d="M2167575 848374 L2138082 848374 L2138082 862419 "/>
</g><g transform="rotate(-90.000000 2315176.359252 909304.626101)">
<text x="2315176.359252" y="924051.476542" transform="scale(-1 1) translate(-4630352.718504 0)" textLength="77303.168016" font-size="39324.914861" lengthAdjust="spacingAndGlyphs" text-anchor="middle" opacity="0.01" style="font-family:monospace">R10</text>
</g>
<g class="stroked-text"><desc>R10</desc>
<path d="M2328518 890344 L2314474 880513 "/>
<path d="M2328518 873490 L2299025 873490 L2299025 884726 L2300429 887535 L2301833 888939 L2304642 890344 L2308856 890344 L2311665 888939 L2313069 887535 L2314474 884726 L2314474 873490 "/>
<path d="M2328518 918433 L2328518 901580 "/>
<path d="M2328518 910006 L2299025 910006 L2303238 907197 L2306047 904388 L2307451 901580 "/>
<path d="M2299025 936691 L2299025 939500 L2300429 942309 L2301833 943713 L2304642 945118 L2310260 946522 L2317283 946522 L2322900 945118 L2325709 943713 L2327114 942309 L2328518 939500 L2328518 936691 L2327114 933882 L2325709 932478 L2322900 931073 L2317283 929669 L2310260 929669 L2304642 931073 L2301833 932478 L2300429 933882 L2299025 936691 "/>
</g><g transform="rotate(-90.000000 2274004.949393 901818.915218)">
<text x="2274004.949393" y="916565.765658" transform="scale(-1 1) translate(-4548009.898785 0)" textLength="71685.289355" font-size="39324.914861" lengthAdjust="spacingAndGlyphs" text-anchor="middle" opacity="0.01" style="font-family:monospace">3k9</text>
</g>
<g class="stroked-text"><desc>3k9</desc>
<path d="M2257853 866005 L2257853 884263 L2269089 874431 L2269089 878645 L2270493 881454 L2271898 882858 L2274707 884263 L2281729 884263 L2284538 882858 L2285942 881454 L2287347 878645 L2287347 870218 L2285942 867409 L2284538 866005 "/>
<path d="M2287347 896903 L2257853 896903 "/>
<path d="M2276111 899712 L2287347 908138 "/>
<path d="M2267684 908138 L2278920 896903 "/>
<path d="M2287347 922183 L2287347 927801 L2285942 930610 L2284538 932014 L2280325 934823 L2274707 936228 L2263471 936228 L2260662 934823 L2259258 933419 L2257853 930610 L2257853 924992 L2259258 922183 L2260662 920779 L2263471 919374 L2270493 919374 L2273302 920779 L2274707 922183 L2276111 924992 L2276111 930610 L2274707 933419 L2273302 934823 L2270493 936228 "/>
</g><text x="1634725.239938" y="1420354.108121" transform="scale(-1 1) translate(-3269450.479876 0)" textLength="49213.892593" font-size="39324.914861" lengthAdjust="spacingAndGlyphs" text-anchor="middle" opacity="0.01" style="font-family:monospace">C7</text>
<g class="stroked-text"><desc>C7</desc>
<path d="M1639640 1416140 L1641045 1417545 L1645258 1418949 L1648067 1418949 L1652281 1417545 L1655089 1414736 L1656494 1411927 L1657898 1406309 L1657898 1402096 L1656494 1396478 L1655089 1393669 L1652281 1390860 L1648067 1389455 L1645258 1389455 L1641045 1390860 L1639640 1392264 "/>
<path d="M1629809 1389455 L1610147 1389455 L1622787 1418949 "/>
</g><text x="1642210.950822" y="1379182.698261" transform="scale(-1 1) translate(-3284421.901643 0)" textLength="127863.781257" font-size="39324.914861" lengthAdjust="spacingAndGlyphs" text-anchor="middle" opacity="0.01" style="font-family:monospace">100nF</text>
<g class="stroked-text"><desc>100nF</desc>
<path d="M1687855 1377778 L1704709 1377778 "/>
<path d="M1696282 1377778 L1696282 1348284 L1699091 1352497 L1701900 1355306 L1704709 1356711 "/>
<path d="M1669597 1348284 L1666789 1348284 L1663980 1349688 L1662575 1351093 L1661171 1353902 L1659766 1359520 L1659766 1366542 L1661171 1372160 L1662575 1374969 L1663980 1376373 L1666789 1377778 L1669597 1377778 L1672406 1376373 L1673811 1374969 L1675215 1372160 L1676620 1366542 L1676620 1359520 L1675215 1353902 L1673811 1351093 L1672406 1349688 L1669597 1348284 "/>
<path d="M1641508 1348284 L1638699 1348284 L1635890 1349688 L1634486 1351093 L1633081 1353902 L1631677 1359520 L1631677 1366542 L1633081 1372160 L1634486 1374969 L1635890 1376373 L1638699 1377778 L1641508 1377778 L1644317 1376373 L1645722 1374969 L1647126 1372160 L1648531 1366542 L1648531 1359520 L1647126 1353902 L1645722 1351093 L1644317 1349688 L1641508 1348284 "/>
<path d="M1619037 1358115 L1619037 1377778 "/>
<path d="M1619037 1360924 L1617632 1359520 L1614823 1358115 L1610610 1358115 L1607801 1359520 L1606397 1362329 L1606397 1377778 "/>
<path d="M1582521 1362329 L1592352 1362329 "/>
<path d="M1592352 1377778 L1592352 1348284 L1578307 1348284 "/>
</g><g transform="rotate(-90.000000 1316582.527387 1461750.089307)">
<text x="1316582.527387" y="1476496.939748" transform="scale(-1 1) translate(-2633165.054775 0)" textLength="49213.892593" font-size="39324.914861" lengthAdjust="spacingAndGlyphs" text-anchor="middle" opacity="0.01" style="font-family:monospace">R3</text>
</g>
<g class="stroked-text"><desc>R3</desc>
<path d="M1329924 1456834 L1315880 1447003 "/>
<path d="M1329924 1439980 L1300431 1439980 L1300431 1451216 L1301835 1454025 L1303240 1455429 L1306049 1456834 L1310262 1456834 L1313071 1455429 L1314475 1454025 L1315880 1451216 L1315880 1439980 "/>
<path d="M1300431 1466665 L1300431 1484923 L1311666 1475092 L1311666 1479305 L1313071 1482114 L1314475 1483519 L1317284 1484923 L1324307 1484923 L1327115 1483519 L1328520 1482114 L1329924 1479305 L1329924 1470879 L1328520 1468070 L1327115 1466665 "/>
</g><g transform="rotate(-90.000000 1275411.117528 1454264.378423)">
<text x="1275411.117528" y="1469011.228864" transform="scale(-1 1) translate(-2550822.235056 0)" textLength="53427.286854" font-size="39324.914861" lengthAdjust="spacingAndGlyphs" text-anchor="middle" opacity="0.01" style="font-family:monospace">2M</text>
</g>
<g class="stroked-text"><desc>2M</desc>
<path d="M1262068 1428984 L1260664 1430388 L1259259 1433197 L1259259 1440219 L1260664 1443028 L1262068 1444433 L1264877 1445837 L1267686 1445837 L1271899 1444433 L1288753 1427579 L1288753 1445837 "/>
<path d="M1288753 1458477 L1259259 1458477 L1280326 1468308 L1259259 1478140 L1288753 1478140 "/>
</g><g transform="rotate(-90.000000 1166868.309717 1259635.895451)">
<text x="1166868.309717" y="1274382.745892" transform="scale(-1 1) translate(-2333736.619433 0)" textLength="49213.892593" font-size="39324.914861" lengthAdjust="spacingAndGlyphs" text-anchor="middle" opacity="0.01" style="font-family:monospace">R4</text>
</g>
<g class="stroked-text"><desc>R4</desc>
<path d="M1180210 1254720 L1166166 1244889 "/>
<path d="M1180210 1237866 L1150716 1237866 L1150716 1249102 L1152121 1251911 L1153525 1253315 L1156334 1254720 L1160548 1254720 L1163357 1253315 L1164761 1251911 L1166166 1249102 L1166166 1237866 "/>
<path d="M1160548 1280000 L1180210 1280000 "/>
<path d="M1149312 1272978 L1170379 1265955 L1170379 1284213 "/>
</g><g transform="rotate(-90.000000 1125696.899857 1252150.184568)">
<text x="1125696.899857" y="1266897.035008" transform="scale(-1 1) translate(-2251393.799714 0)" textLength="53427.286854" font-size="39324.914861" lengthAdjust="spacingAndGlyphs" text-anchor="middle" opacity="0.01" style="font-family:monospace">2M</text>
</g>
<g class="stroked-text"><desc>2M</desc>
<path d="M1112354 1226869 L1110950 1228274 L1109545 1231083 L1109545 1238105 L1110950 1240914 L1112354 1242318 L1115163 1243723 L1117972 1243723 L1122185 1242318 L1139039 1225465 L1139039 1243723 "/>
<path d="M1139039 1256363 L1109545 1256363 L1130612 1266194 L1109545 1276026 L1139039 1276026 "/>
</g></g>
<g style="fill:#000084; fill-opacity:0.0;  stroke:#000084; stroke-width:8841.390807; stroke-opacity:1;  stroke-linecap:round; stroke-linejoin:round;">
<path d="M811297 885350 L811297 945236 "/>
<path d="M901125 945236 L901125 885350 "/>
<path d="M811297 765578 L811297 825464 "/>
<path d="M901125 825464 L901125 765578 "/>
<path d="M901125 765578 L811297 765578 "/>
<path d="M811297 945236 L901125 945236 "/>
<path d="M1365239 1371921 L1365239 1431807 "/>
<path d="M1365239 1551578 L1455068 1551578 "/>
<path d="M1455068 1551578 L1455068 1491692 "/>
<path d="M1365239 1491692 L1365239 1551578 "/>
<path d="M1455068 1431807 L1455068 1371921 "/>
<path d="M1455068 1371921 L1365239 1371921 "/>
<path d="M1567353 1102435 L1567353 1042550 "/>
<path d="M1477525 922778 L1477525 982664 "/>
<path d="M1477525 1042550 L1477525 1102435 "/>
<path d="M1567353 922778 L1477525 922778 "/>
<path d="M1477525 1102435 L1567353 1102435 "/>
<path d="M1567353 982664 L1567353 922778 "/>
<path d="M2300953 593407 L2300953 653293 "/>
<path d="M2390782 473636 L2300953 473636 "/>
<path d="M2390782 533521 L2390782 473636 "/>
<path d="M2390782 653293 L2390782 593407 "/>
<path d="M2300953 653293 L2390782 653293 "/>
<path d="M2300953 473636 L2300953 533521 "/>
<path d="M2151239 653293 L2241067 653293 "/>
<path d="M2151239 473636 L2151239 533521 "/>
<path d="M2241067 653293 L2241067 593407 "/>
<path d="M2241067 473636 L2151239 473636 "/>
<path d="M2241067 533521 L2241067 473636 "/>
<path d="M2151239 593407 L2151239 653293 "/>
<path d="M1663170 1541098 L1723056 1541098 "/>
<path d="M1723056 1451270 L1663170 1451270 "/>
<path d="M1603285 1451270 L1543399 1451270 "/>
<path d="M1723056 1541098 L1723056 1451270 "/>
<path d="M1543399 1451270 L1543399 1541098 "/>
<path d="M1543399 1541098 L1603285 1541098 "/>
<path d="M2458153 1050035 L2458153 1109921 "/>
<path d="M2458153 1229693 L2547981 1229693 "/>
<path d="M2547981 1229693 L2547981 1169807 "/>
<path d="M2547981 1050035 L2458153 1050035 "/>
<path d="M2547981 1109921 L2547981 1050035 "/>
<path d="M2458153 1169807 L2458153 1229693 "/>
<path d="M811297 668264 L811297 728150 "/>
<path d="M901125 608379 L901125 548493 "/>
<path d="M811297 728150 L901125 728150 "/>
<path d="M811297 548493 L811297 608379 "/>
<path d="M901125 548493 L811297 548493 "/>
<path d="M901125 728150 L901125 668264 "/>
<path d="M503634 1020093 L563520 1020093 "/>
<path d="M563520 930264 L503634 930264 "/>
<path d="M503634 930264 L503634 1020093 "/>
<path d="M623405 1020093 L683291 1020093 "/>
<path d="M683291 930264 L623405 930264 "/>
<path d="M683291 1020093 L683291 930264 "/>
<path d="M1769468 1304550 L1769468 1364435 "/>
<path d="M1859296 1244664 L1859296 1184778 "/>
<path d="M1859296 1364435 L1859296 1304550 "/>
<path d="M1769468 1364435 L1859296 1364435 "/>
<path d="M1859296 1184778 L1769468 1184778 "/>
<path d="M1769468 1184778 L1769468 1244664 "/>
<path d="M2293467 1356950 L2293467 1297064 "/>
<path d="M2293467 1177293 L2203639 1177293 "/>
<path d="M2203639 1177293 L2203639 1237178 "/>
<path d="M2293467 1237178 L2293467 1177293 "/>
<path d="M2203639 1356950 L2293467 1356950 "/>
<path d="M2203639 1297064 L2203639 1356950 "/>
<path d="M1911696 1304550 L1911696 1364435 "/>
<path d="M1911696 1364435 L2001525 1364435 "/>
<path d="M2001525 1364435 L2001525 1304550 "/>
<path d="M1911696 1184778 L1911696 1244664 "/>
<path d="M2001525 1184778 L1911696 1184778 "/>
<path d="M2001525 1244664 L2001525 1184778 "/>
<path d="M2323410 1050035 L2323410 1109921 "/>
<path d="M2413239 1050035 L2323410 1050035 "/>
<path d="M2323410 1229693 L2413239 1229693 "/>
<path d="M2323410 1169807 L2323410 1229693 "/>
<path d="M2413239 1109921 L2413239 1050035 "/>
<path d="M2413239 1229693 L2413239 1169807 "/>
<path d="M2221604 1093453 L2221604 1033567 "/>
<path d="M2221604 913796 L2131776 913796 "/>
<path d="M2131776 1033567 L2131776 1093453 "/>
<path d="M2131776 1093453 L2221604 1093453 "/>
<path d="M2131776 913796 L2131776 973681 "/>
<path d="M2221604 973681 L2221604 913796 "/>
<path d="M2538999 885350 L2538999 825464 "/>
<path d="M2449170 1005121 L2538999 1005121 "/>
<path d="M2538999 825464 L2449170 825464 "/>
<path d="M2449170 945236 L2449170 1005121 "/>
<path d="M2538999 1005121 L2538999 945236 "/>
<path d="M2449170 825464 L2449170 885350 "/>
<path d="M2151239 1356950 L2151239 1297064 "/>
<path d="M2061410 1356950 L2151239 1356950 "/>
<path d="M2061410 1297064 L2061410 1356950 "/>
<path d="M2151239 1177293 L2061410 1177293 "/>
<path d="M2061410 1177293 L2061410 1237178 "/>
<path d="M2151239 1237178 L2151239 1177293 "/>
<path d="M1717068 982664 L1717068 922778 "/>
<path d="M1627239 922778 L1627239 982664 "/>
<path d="M1717068 922778 L1627239 922778 "/>
<path d="M1717068 1102435 L1717068 1042550 "/>
<path d="M1627239 1102435 L1717068 1102435 "/>
<path d="M1627239 1042550 L1627239 1102435 "/>
<path d="M1687125 1252150 L1687125 1162321 "/>
<path d="M1507468 1162321 L1507468 1252150 "/>
<path d="M1687125 1162321 L1627239 1162321 "/>
<path d="M1627239 1252150 L1687125 1252150 "/>
<path d="M1567353 1162321 L1507468 1162321 "/>
<path d="M1507468 1252150 L1567353 1252150 "/>
<path d="M2221604 716173 L2131776 716173 "/>
<path d="M2131776 895830 L2221604 895830 "/>
<path d="M2131776 835944 L2131776 895830 "/>
<path d="M2221604 776058 L2221604 716173 "/>
<path d="M2221604 895830 L2221604 835944 "/>
<path d="M2131776 716173 L2131776 776058 "/>
<path d="M2341376 879361 L2341376 819476 "/>
<path d="M2341376 819476 L2251547 819476 "/>
<path d="M2251547 939247 L2251547 999133 "/>
<path d="M2251547 999133 L2341376 999133 "/>
<path d="M2341376 999133 L2341376 939247 "/>
<path d="M2251547 819476 L2251547 879361 "/>
<path d="M1664668 1431807 L1724553 1431807 "/>
<path d="M1724553 1431807 L1724553 1341978 "/>
<path d="M1544896 1341978 L1544896 1431807 "/>
<path d="M1544896 1431807 L1604782 1431807 "/>
<path d="M1724553 1341978 L1664668 1341978 "/>
<path d="M1604782 1341978 L1544896 1341978 "/>
<path d="M1342782 1551578 L1342782 1491692 "/>
<path d="M1252953 1491692 L1252953 1551578 "/>
<path d="M1342782 1431807 L1342782 1371921 "/>
<path d="M1342782 1371921 L1252953 1371921 "/>
<path d="M1252953 1371921 L1252953 1431807 "/>
<path d="M1252953 1551578 L1342782 1551578 "/>
<path d="M1103239 1289578 L1103239 1349464 "/>
<path d="M1103239 1169807 L1103239 1229693 "/>
<path d="M1193068 1229693 L1193068 1169807 "/>
<path d="M1193068 1349464 L1193068 1289578 "/>
<path d="M1103239 1349464 L1193068 1349464 "/>
<path d="M1193068 1169807 L1103239 1169807 "/>
<g>
</g>
<g>
</g>
<g>
</g>
<g>
</g>
<g>
</g>
<g>
</g>
<g>
</g>
<g>
</g>
<g>
</g>
<g>
</g>
<g>
</g>
<g>
</g>
<g>
</g>
<g>
</g>
<g>
</g>
<g>
</g>
<g>
</g>
<g>
</g>
<g>
</g>
<g>
</g>
<g>
</g>
<g>
</g>
<g>
</g>
<g>
</g>
<g>
</g>
<g>
</g>
<g>
</g>
<g>
</g>
<g>
</g>
<g>
</g>
<g>
</g>
<g>
</g>
<g>
</g>
<g>
</g>
<g>
</g>
<g>
</g>
<g>
</g>
<g>
</g>
<g>
</g>
<g>
</g>
<g>
</g>
<g>
</g>
</g> 
<svg:g><svg:g><svg:title>SVG Picture created as PCRD01-Edge_Cuts.svg date 2023/04/12 13:17:53 </svg:title>
  <svg:desc>Picture generated by PCBNEW </svg:desc>
<svg:g style="fill:#C2C200; fill-opacity:1.000000;stroke:#C2C200; stroke-opacity:1.000000; stroke-linecap:round; stroke-linejoin:round;" transform="translate(0 0) scale(1 1)">
</svg:g>
<svg:g style="fill:#C2C200; fill-opacity:0.0;  stroke:#C2C200; stroke-width:0.000000; stroke-opacity:1;  stroke-linecap:round; stroke-linejoin:round;">
</svg:g>
<svg:g style="fill:#C2C200; fill-opacity:0.0;  stroke:#C2C200; stroke-width:5894.260538; stroke-opacity:1;  stroke-linecap:round; stroke-linejoin:round;">
<svg:path d="M2967063 166839 L2967063 1933231 "/>
<svg:path d="M2958 1933231 L2958 166839 "/>
<svg:path d="M2958 1933231 L2967063 1933231 "/>
<svg:path d="M2958 166839 L2967063 166839 "/>
<svg:g>
</svg:g>
<svg:g>
</svg:g>
<svg:g>
</svg:g>
<svg:g>
</svg:g>
<svg:g>
</svg:g>
<svg:g>
</svg:g>
<svg:g>
</svg:g>
<svg:g>
</svg:g>
<svg:g>
</svg:g>
<svg:g>
</svg:g>
<svg:g>
</svg:g>
<svg:g>
</svg:g>
<svg:g>
</svg:g>
<svg:g>
</svg:g>
<svg:g>
</svg:g>
<svg:g>
</svg:g>
<svg:g>
</svg:g>
<svg:g>
</svg:g>
<svg:g>
</svg:g>
<svg:g>
</svg:g>
<svg:g>
</svg:g>
<svg:g>
</svg:g>
<svg:g>
</svg:g>
<svg:g>
</svg:g>
<svg:g>
</svg:g>
<svg:g>
</svg:g>
<svg:g>
</svg:g>
<svg:g>
</svg:g>
<svg:g>
</svg:g>
<svg:g>
</svg:g>
<svg:g>
</svg:g>
<svg:g>
</svg:g>
<svg:g>
</svg:g>
<svg:g>
</svg:g>
<svg:g>
</svg:g>
<svg:g>
</svg:g>
<svg:g>
</svg:g>
<svg:g>
</svg:g>
<svg:g>
</svg:g>
<svg:g>
</svg:g>
<svg:g>
</svg:g>
<svg:g>
</svg:g>
</svg:g> 
</svg:g></svg:g></svg>
