<?xml version='1.0' encoding='ASCII' standalone='yes'?>
<svg xmlns:svg="http://www.w3.org/2000/svg" xmlns="http://www.w3.org/2000/svg" xmlns:xlink="http://www.w3.org/1999/xlink" version="1.1" width="29.700220cm" height="21.000720cm" viewBox="0 0 2970022 2100072">
<title>SVG Picture created as PCRD01-B_Fab.svg date 2023/04/13 08:43:30 </title>
  <desc>Picture generated by PCBNEW </desc>
<g style="fill:#000084; fill-opacity:1.000000;stroke:#000084; stroke-opacity:1.000000; stroke-linecap:round; stroke-linejoin:round;" transform="translate(0 0) scale(1 1)">
</g>
<g style="fill:#000084; fill-opacity:0.0;  stroke:#000084; stroke-width:0.000000; stroke-opacity:1;  stroke-linecap:round; stroke-linejoin:round;">
</g>
<g style="fill:#000084; fill-opacity:0.0;  stroke:#000084; stroke-width:8841.390807; stroke-opacity:1;  stroke-linecap:round; stroke-linejoin:round;">
<g transform="rotate(-90.000000 955234.885092 855407.507740)">
<text x="955234.885092" y="884878.810431" transform="scale(-1 1) translate(-1910469.770183 0)" textLength="159470.633484" font-size="78590.120862" lengthAdjust="spacingAndGlyphs" text-anchor="middle" opacity="0.01" style="font-family:monospace">4u7</text>
</g>
<g class="stroked-text"><desc>4u7</desc>
<path d="M942604 811902 L981899 811902 "/>
<path d="M920149 797868 L962251 783834 L962251 820322 "/>
<path d="M942604 868038 L981899 868038 "/>
<path d="M942604 842776 L973478 842776 L979092 845583 L981899 851197 L981899 859617 L979092 865231 L976285 868038 "/>
<path d="M922956 890492 L922956 929787 L981899 904526 "/>
</g></g>
<g style="fill:#000084; fill-opacity:0.0;  stroke:#000084; stroke-width:4715.408431; stroke-opacity:1;  stroke-linecap:round; stroke-linejoin:round;">
<g transform="rotate(-90.000000 856211.308050 855407.507740)">
<text x="856211.308050" y="870143.159085" transform="scale(-1 1) translate(-1712422.616099 0)" textLength="46045.373899" font-size="39295.030960" lengthAdjust="spacingAndGlyphs" text-anchor="middle" opacity="0.01" style="font-family:monospace">C1</text>
</g>
<g class="stroked-text"><desc>C1</desc>
<path d="M866736 850495 L868140 849092 L869543 844882 L869543 842075 L868140 837865 L865333 835058 L862526 833654 L856912 832251 L852702 832251 L847089 833654 L844282 835058 L841475 837865 L840072 842075 L840072 844882 L841475 849092 L842879 850495 "/>
<path d="M869543 878563 L869543 861722 "/>
<path d="M869543 870143 L840072 870143 L844282 867336 L847089 864529 L848492 861722 "/>
</g></g>
<g style="fill:#000084; fill-opacity:0.0;  stroke:#000084; stroke-width:8841.390807; stroke-opacity:1;  stroke-linecap:round; stroke-linejoin:round;">
<g transform="rotate(-90.000000 1509177.490474 1461750.089307)">
<text x="1509177.490474" y="1491221.391998" transform="scale(-1 1) translate(-3018354.980948 0)" textLength="159470.633484" font-size="78590.120862" lengthAdjust="spacingAndGlyphs" text-anchor="middle" opacity="0.01" style="font-family:monospace">12p</text>
</g>
<g class="stroked-text"><desc>12p</desc>
<path d="M1535841 1423858 L1535841 1390176 "/>
<path d="M1535841 1407017 L1476899 1407017 L1485319 1401404 L1490933 1395790 L1493740 1390176 "/>
<path d="M1482512 1446312 L1479706 1449119 L1476899 1454733 L1476899 1468767 L1479706 1474380 L1482512 1477187 L1488126 1479994 L1493740 1479994 L1502160 1477187 L1535841 1443505 L1535841 1479994 "/>
<path d="M1496546 1505255 L1555489 1505255 "/>
<path d="M1499353 1505255 L1496546 1510868 L1496546 1522096 L1499353 1527709 L1502160 1530516 L1507774 1533323 L1524614 1533323 L1530228 1530516 L1533035 1527709 L1535841 1522096 L1535841 1510868 L1533035 1505255 "/>
</g></g>
<g style="fill:#000084; fill-opacity:0.0;  stroke:#000084; stroke-width:4715.408431; stroke-opacity:1;  stroke-linecap:round; stroke-linejoin:round;">
<g transform="rotate(-90.000000 1410153.913432 1461750.089307)">
<text x="1410153.913432" y="1476485.740653" transform="scale(-1 1) translate(-2820307.826864 0)" textLength="46045.373899" font-size="39295.030960" lengthAdjust="spacingAndGlyphs" text-anchor="middle" opacity="0.01" style="font-family:monospace">C2</text>
</g>
<g class="stroked-text"><desc>C2</desc>
<path d="M1420679 1456838 L1422082 1455434 L1423486 1451224 L1423486 1448417 L1422082 1444207 L1419275 1441400 L1416469 1439997 L1410855 1438594 L1406645 1438594 L1401031 1439997 L1398225 1441400 L1395418 1444207 L1394014 1448417 L1394014 1451224 L1395418 1455434 L1396821 1456838 "/>
<path d="M1396821 1468065 L1395418 1469468 L1394014 1472275 L1394014 1479292 L1395418 1482099 L1396821 1483502 L1399628 1484906 L1402435 1484906 L1406645 1483502 L1423486 1466661 L1423486 1484906 "/>
</g></g>
<g style="fill:#000084; fill-opacity:0.0;  stroke:#000084; stroke-width:8841.390807; stroke-opacity:1;  stroke-linecap:round; stroke-linejoin:round;">
<g transform="rotate(-90.000000 1423415.999643 1012607.436294)">
<text x="1423415.999643" y="1042078.738985" transform="scale(-1 1) translate(-2846831.999286 0)" textLength="266128.692546" font-size="78590.120862" lengthAdjust="spacingAndGlyphs" text-anchor="middle" opacity="0.01" style="font-family:monospace">100nF</text>
</g>
<g class="stroked-text"><desc>100nF</desc>
<path d="M1450080 921386 L1450080 887705 "/>
<path d="M1450080 904545 L1391137 904545 L1399558 898932 L1405171 893318 L1407978 887705 "/>
<path d="M1391137 957874 L1391137 963488 L1393944 969102 L1396751 971908 L1402365 974715 L1413592 977522 L1427626 977522 L1438853 974715 L1444466 971908 L1447273 969102 L1450080 963488 L1450080 957874 L1447273 952261 L1444466 949454 L1438853 946647 L1427626 943841 L1413592 943841 L1402365 946647 L1396751 949454 L1393944 952261 L1391137 957874 "/>
<path d="M1391137 1014010 L1391137 1019624 L1393944 1025237 L1396751 1028044 L1402365 1030851 L1413592 1033658 L1427626 1033658 L1438853 1030851 L1444466 1028044 L1447273 1025237 L1450080 1019624 L1450080 1014010 L1447273 1008397 L1444466 1005590 L1438853 1002783 L1427626 999976 L1413592 999976 L1402365 1002783 L1396751 1005590 L1393944 1008397 L1391137 1014010 "/>
<path d="M1410785 1058919 L1450080 1058919 "/>
<path d="M1416399 1058919 L1413592 1061726 L1410785 1067339 L1410785 1075760 L1413592 1081373 L1419205 1084180 L1450080 1084180 "/>
<path d="M1419205 1131896 L1419205 1112248 "/>
<path d="M1450080 1112248 L1391137 1112248 L1391137 1140316 "/>
</g></g>
<g style="fill:#000084; fill-opacity:0.0;  stroke:#000084; stroke-width:4715.408431; stroke-opacity:1;  stroke-linecap:round; stroke-linejoin:round;">
<g transform="rotate(-90.000000 1522439.576685 1012607.436294)">
<text x="1522439.576685" y="1027343.087640" transform="scale(-1 1) translate(-3044879.153370 0)" textLength="46045.373899" font-size="39295.030960" lengthAdjust="spacingAndGlyphs" text-anchor="middle" opacity="0.01" style="font-family:monospace">C3</text>
</g>
<g class="stroked-text"><desc>C3</desc>
<path d="M1532965 1007695 L1534368 1006292 L1535771 1002081 L1535771 999275 L1534368 995064 L1531561 992258 L1528754 990854 L1523141 989451 L1518931 989451 L1513317 990854 L1510510 992258 L1507703 995064 L1506300 999275 L1506300 1002081 L1507703 1006292 L1509107 1007695 "/>
<path d="M1506300 1017519 L1506300 1035763 L1517527 1025939 L1517527 1030149 L1518931 1032956 L1520334 1034360 L1523141 1035763 L1530158 1035763 L1532965 1034360 L1534368 1032956 L1535771 1030149 L1535771 1021729 L1534368 1018922 L1532965 1017519 "/>
</g></g>
<g style="fill:#000084; fill-opacity:0.0;  stroke:#000084; stroke-width:8841.390807; stroke-opacity:1;  stroke-linecap:round; stroke-linejoin:round;">
<g transform="rotate(-90.000000 2246844.196833 563464.783282)">
<text x="2246844.196833" y="592936.085973" transform="scale(-1 1) translate(-4493688.393665 0)" textLength="266128.692546" font-size="78590.120862" lengthAdjust="spacingAndGlyphs" text-anchor="middle" opacity="0.01" style="font-family:monospace">100nF</text>
</g>
<g class="stroked-text"><desc>100nF</desc>
<path d="M2273508 472244 L2273508 438562 "/>
<path d="M2273508 455403 L2214566 455403 L2222986 449789 L2228600 444176 L2231406 438562 "/>
<path d="M2214566 508732 L2214566 514345 L2217372 519959 L2220179 522766 L2225793 525573 L2237020 528379 L2251054 528379 L2262281 525573 L2267895 522766 L2270701 519959 L2273508 514345 L2273508 508732 L2270701 503118 L2267895 500311 L2262281 497505 L2251054 494698 L2237020 494698 L2225793 497505 L2220179 500311 L2217372 503118 L2214566 508732 "/>
<path d="M2214566 564868 L2214566 570481 L2217372 576095 L2220179 578902 L2225793 581708 L2237020 584515 L2251054 584515 L2262281 581708 L2267895 578902 L2270701 576095 L2273508 570481 L2273508 564868 L2270701 559254 L2267895 556447 L2262281 553640 L2251054 550834 L2237020 550834 L2225793 553640 L2220179 556447 L2217372 559254 L2214566 564868 "/>
<path d="M2234213 609776 L2273508 609776 "/>
<path d="M2239827 609776 L2237020 612583 L2234213 618197 L2234213 626617 L2237020 632231 L2242633 635037 L2273508 635037 "/>
<path d="M2242633 682753 L2242633 663105 "/>
<path d="M2273508 663105 L2214566 663105 L2214566 691173 "/>
</g></g>
<g style="fill:#000084; fill-opacity:0.0;  stroke:#000084; stroke-width:4715.408431; stroke-opacity:1;  stroke-linecap:round; stroke-linejoin:round;">
<g transform="rotate(-90.000000 2345867.773875 563464.783282)">
<text x="2345867.773875" y="578200.434627" transform="scale(-1 1) translate(-4691735.547749 0)" textLength="46045.373899" font-size="39295.030960" lengthAdjust="spacingAndGlyphs" text-anchor="middle" opacity="0.01" style="font-family:monospace">C5</text>
</g>
<g class="stroked-text"><desc>C5</desc>
<path d="M2356393 558552 L2357796 557149 L2359200 552939 L2359200 550132 L2357796 545922 L2354989 543115 L2352183 541712 L2346569 540308 L2342359 540308 L2336745 541712 L2333938 543115 L2331132 545922 L2329728 550132 L2329728 552939 L2331132 557149 L2332535 558552 "/>
<path d="M2329728 585217 L2329728 571183 L2343762 569780 L2342359 571183 L2340955 573990 L2340955 581007 L2342359 583814 L2343762 585217 L2346569 586620 L2353586 586620 L2356393 585217 L2357796 583814 L2359200 581007 L2359200 573990 L2357796 571183 L2356393 569780 "/>
</g></g>
<g style="fill:#000084; fill-opacity:0.0;  stroke:#000084; stroke-width:8841.390807; stroke-opacity:1;  stroke-linecap:round; stroke-linejoin:round;">
<g transform="rotate(-90.000000 2097129.979162 563464.783282)">
<text x="2097129.979162" y="592936.085973" transform="scale(-1 1) translate(-4194259.958323 0)" textLength="209992.875089" font-size="78590.120862" lengthAdjust="spacingAndGlyphs" text-anchor="middle" opacity="0.01" style="font-family:monospace">10uF</text>
</g>
<g class="stroked-text"><desc>10uF</desc>
<path d="M2123794 500311 L2123794 466630 "/>
<path d="M2123794 483471 L2064851 483471 L2073272 477857 L2078885 472244 L2081692 466630 "/>
<path d="M2064851 536800 L2064851 542413 L2067658 548027 L2070465 550834 L2076079 553640 L2087306 556447 L2101340 556447 L2112567 553640 L2118180 550834 L2120987 548027 L2123794 542413 L2123794 536800 L2120987 531186 L2118180 528379 L2112567 525573 L2101340 522766 L2087306 522766 L2076079 525573 L2070465 528379 L2067658 531186 L2064851 536800 "/>
<path d="M2084499 606970 L2123794 606970 "/>
<path d="M2084499 581708 L2115374 581708 L2120987 584515 L2123794 590129 L2123794 598549 L2120987 604163 L2118180 606970 "/>
<path d="M2092919 654685 L2092919 635037 "/>
<path d="M2123794 635037 L2064851 635037 L2064851 663105 "/>
</g></g>
<g style="fill:#000084; fill-opacity:0.0;  stroke:#000084; stroke-width:4715.408431; stroke-opacity:1;  stroke-linecap:round; stroke-linejoin:round;">
<g transform="rotate(-90.000000 2196153.556204 563464.783282)">
<text x="2196153.556204" y="578200.434627" transform="scale(-1 1) translate(-4392307.112408 0)" textLength="46045.373899" font-size="39295.030960" lengthAdjust="spacingAndGlyphs" text-anchor="middle" opacity="0.01" style="font-family:monospace">C6</text>
</g>
<g class="stroked-text"><desc>C6</desc>
<path d="M2206678 558552 L2208082 557149 L2209485 552939 L2209485 550132 L2208082 545922 L2205275 543115 L2202468 541712 L2196855 540308 L2192645 540308 L2187031 541712 L2184224 543115 L2181417 545922 L2180014 550132 L2180014 552939 L2181417 557149 L2182821 558552 "/>
<path d="M2180014 583814 L2180014 578200 L2181417 575393 L2182821 573990 L2187031 571183 L2192645 569780 L2203872 569780 L2206678 571183 L2208082 572586 L2209485 575393 L2209485 581007 L2208082 583814 L2206678 585217 L2203872 586620 L2196855 586620 L2194048 585217 L2192645 583814 L2191241 581007 L2191241 575393 L2192645 572586 L2194048 571183 L2196855 569780 "/>
</g></g>
<g style="fill:#000084; fill-opacity:0.01;  stroke:#000084; stroke-width:8841.390807; stroke-opacity:1;  stroke-linecap:round; stroke-linejoin:round;">
<text x="1633228.097761" y="1426632.085020" transform="scale(-1 1) translate(-3266456.195523 0)" textLength="209992.875089" font-size="78590.120862" lengthAdjust="spacingAndGlyphs" text-anchor="middle" opacity="0.01" style="font-family:monospace">10uF</text>
<g class="stroked-text"><desc>10uF</desc>
<path d="M1696380 1423825 L1730062 1423825 "/>
<path d="M1713221 1423825 L1713221 1364882 L1718835 1373303 L1724448 1378916 L1730062 1381723 "/>
<path d="M1659892 1364882 L1654278 1364882 L1648665 1367689 L1645858 1370496 L1643051 1376109 L1640245 1387336 L1640245 1401370 L1643051 1412598 L1645858 1418211 L1648665 1421018 L1654278 1423825 L1659892 1423825 L1665506 1421018 L1668312 1418211 L1671119 1412598 L1673926 1401370 L1673926 1387336 L1671119 1376109 L1668312 1370496 L1665506 1367689 L1659892 1364882 "/>
<path d="M1589722 1384530 L1589722 1423825 "/>
<path d="M1614983 1384530 L1614983 1415404 L1612177 1421018 L1606563 1423825 L1598143 1423825 L1592529 1421018 L1589722 1418211 "/>
<path d="M1542007 1392950 L1561654 1392950 "/>
<path d="M1561654 1423825 L1561654 1364882 L1533586 1364882 "/>
</g></g>
<g style="fill:#000084; fill-opacity:0.01;  stroke:#000084; stroke-width:4715.408431; stroke-opacity:1;  stroke-linecap:round; stroke-linejoin:round;">
<text x="1633228.097761" y="1510920.010717" transform="scale(-1 1) translate(-3266456.195523 0)" textLength="74113.312098" font-size="39295.030960" lengthAdjust="spacingAndGlyphs" text-anchor="middle" opacity="0.01" style="font-family:monospace">C10</text>
<g class="stroked-text"><desc>C10</desc>
<path d="M1652173 1506709 L1653577 1508113 L1657787 1509516 L1660594 1509516 L1664804 1508113 L1667611 1505306 L1669014 1502499 L1670418 1496886 L1670418 1492675 L1669014 1487062 L1667611 1484255 L1664804 1481448 L1660594 1480045 L1657787 1480045 L1653577 1481448 L1652173 1482852 "/>
<path d="M1624106 1509516 L1640946 1509516 "/>
<path d="M1632526 1509516 L1632526 1480045 L1635333 1484255 L1638139 1487062 L1640946 1488465 "/>
<path d="M1605861 1480045 L1603055 1480045 L1600248 1481448 L1598844 1482852 L1597441 1485658 L1596038 1491272 L1596038 1498289 L1597441 1503903 L1598844 1506709 L1600248 1508113 L1603055 1509516 L1605861 1509516 L1608668 1508113 L1610072 1506709 L1611475 1503903 L1612878 1498289 L1612878 1491272 L1611475 1485658 L1610072 1482852 L1608668 1481448 L1605861 1480045 "/>
</g></g>
<g style="fill:#000084; fill-opacity:0.0;  stroke:#000084; stroke-width:8841.390807; stroke-opacity:1;  stroke-linecap:round; stroke-linejoin:round;">
<g transform="rotate(-90.000000 2404044.125387 1139864.521315)">
<text x="2404044.125387" y="1169335.824006" transform="scale(-1 1) translate(-4808088.250774 0)" textLength="266128.692546" font-size="78590.120862" lengthAdjust="spacingAndGlyphs" text-anchor="middle" opacity="0.01" style="font-family:monospace">560pF</text>
</g>
<g class="stroked-text"><desc>560pF</desc>
<path d="M2371765 1045836 L2371765 1017769 L2399833 1014962 L2397027 1017769 L2394220 1023382 L2394220 1037416 L2397027 1043030 L2399833 1045836 L2405447 1048643 L2419481 1048643 L2425095 1045836 L2427901 1043030 L2430708 1037416 L2430708 1023382 L2427901 1017769 L2425095 1014962 "/>
<path d="M2371765 1099166 L2371765 1087938 L2374572 1082325 L2377379 1079518 L2385799 1073904 L2397027 1071098 L2419481 1071098 L2425095 1073904 L2427901 1076711 L2430708 1082325 L2430708 1093552 L2427901 1099166 L2425095 1101972 L2419481 1104779 L2405447 1104779 L2399833 1101972 L2397027 1099166 L2394220 1093552 L2394220 1082325 L2397027 1076711 L2399833 1073904 L2405447 1071098 "/>
<path d="M2371765 1141267 L2371765 1146881 L2374572 1152495 L2377379 1155301 L2382993 1158108 L2394220 1160915 L2408254 1160915 L2419481 1158108 L2425095 1155301 L2427901 1152495 L2430708 1146881 L2430708 1141267 L2427901 1135654 L2425095 1132847 L2419481 1130040 L2408254 1127233 L2394220 1127233 L2382993 1130040 L2377379 1132847 L2374572 1135654 L2371765 1141267 "/>
<path d="M2391413 1186176 L2450356 1186176 "/>
<path d="M2394220 1186176 L2391413 1191790 L2391413 1203017 L2394220 1208630 L2397027 1211437 L2402640 1214244 L2419481 1214244 L2425095 1211437 L2427901 1208630 L2430708 1203017 L2430708 1191790 L2427901 1186176 "/>
<path d="M2399833 1259153 L2399833 1239505 "/>
<path d="M2430708 1239505 L2371765 1239505 L2371765 1267573 "/>
</g></g>
<g style="fill:#000084; fill-opacity:0.0;  stroke:#000084; stroke-width:4715.408431; stroke-opacity:1;  stroke-linecap:round; stroke-linejoin:round;">
<g transform="rotate(-90.000000 2503067.702429 1139864.521315)">
<text x="2503067.702429" y="1154600.172660" transform="scale(-1 1) translate(-5006135.404858 0)" textLength="74113.312098" font-size="39295.030960" lengthAdjust="spacingAndGlyphs" text-anchor="middle" opacity="0.01" style="font-family:monospace">C12</text>
</g>
<g class="stroked-text"><desc>C12</desc>
<path d="M2513593 1120918 L2514996 1119515 L2516399 1115305 L2516399 1112498 L2514996 1108288 L2512189 1105481 L2509382 1104077 L2503769 1102674 L2499559 1102674 L2493945 1104077 L2491138 1105481 L2488332 1108288 L2486928 1112498 L2486928 1115305 L2488332 1119515 L2489735 1120918 "/>
<path d="M2516399 1148986 L2516399 1132145 "/>
<path d="M2516399 1140566 L2486928 1140566 L2491138 1137759 L2493945 1134952 L2495348 1132145 "/>
<path d="M2489735 1160213 L2488332 1161617 L2486928 1164423 L2486928 1171440 L2488332 1174247 L2489735 1175651 L2492542 1177054 L2495348 1177054 L2499559 1175651 L2516399 1158810 L2516399 1177054 "/>
</g></g>
<g style="fill:#000084; fill-opacity:0.01;  stroke:#000084; stroke-width:8841.390807; stroke-opacity:1;  stroke-linecap:round; stroke-linejoin:round;">
<text x="2338382.062991" y="678060.996666" transform="scale(-1 1) translate(-4676764.125982 0)" textLength="266128.692546" font-size="78590.120862" lengthAdjust="spacingAndGlyphs" text-anchor="middle" opacity="0.01" style="font-family:monospace">330nF</text>
<g class="stroked-text"><desc>330nF</desc>
<path d="M2466091 616311 L2429602 616311 L2449250 638765 L2440829 638765 L2435216 641572 L2432409 644379 L2429602 649993 L2429602 664026 L2432409 669640 L2435216 672447 L2440829 675254 L2457670 675254 L2463284 672447 L2466091 669640 "/>
<path d="M2409955 616311 L2373466 616311 L2393114 638765 L2384694 638765 L2379080 641572 L2376273 644379 L2373466 649993 L2373466 664026 L2376273 669640 L2379080 672447 L2384694 675254 L2401534 675254 L2407148 672447 L2409955 669640 "/>
<path d="M2336978 616311 L2331365 616311 L2325751 619118 L2322944 621925 L2320137 627538 L2317331 638765 L2317331 652799 L2320137 664026 L2322944 669640 L2325751 672447 L2331365 675254 L2336978 675254 L2342592 672447 L2345399 669640 L2348205 664026 L2351012 652799 L2351012 638765 L2348205 627538 L2345399 621925 L2342592 619118 L2336978 616311 "/>
<path d="M2292069 635959 L2292069 675254 "/>
<path d="M2292069 641572 L2289263 638765 L2283649 635959 L2275229 635959 L2269615 638765 L2266808 644379 L2266808 675254 "/>
<path d="M2219093 644379 L2238740 644379 "/>
<path d="M2238740 675254 L2238740 616311 L2210673 616311 "/>
</g></g>
<g style="fill:#000084; fill-opacity:0.01;  stroke:#000084; stroke-width:4715.408431; stroke-opacity:1;  stroke-linecap:round; stroke-linejoin:round;">
<text x="2338382.062991" y="762348.922362" transform="scale(-1 1) translate(-4676764.125982 0)" textLength="74113.312098" font-size="39295.030960" lengthAdjust="spacingAndGlyphs" text-anchor="middle" opacity="0.01" style="font-family:monospace">C14</text>
<g class="stroked-text"><desc>C14</desc>
<path d="M2357327 758138 L2358731 759542 L2362941 760945 L2365748 760945 L2369958 759542 L2372765 756735 L2374168 753928 L2375572 748314 L2375572 744104 L2374168 738491 L2372765 735684 L2369958 732877 L2365748 731474 L2362941 731474 L2358731 732877 L2357327 734280 "/>
<path d="M2329259 760945 L2346100 760945 "/>
<path d="M2337680 760945 L2337680 731474 L2340487 735684 L2343293 738491 L2346100 739894 "/>
<path d="M2303998 741297 L2303998 760945 "/>
<path d="M2311015 730070 L2318032 751121 L2299788 751121 "/>
</g></g>
<g style="fill:#000084; fill-opacity:0.0;  stroke:#000084; stroke-width:8841.390807; stroke-opacity:1;  stroke-linecap:round; stroke-linejoin:round;">
<g transform="rotate(-90.000000 758956.009169 638321.892117)">
<text x="758956.009169" y="667793.194808" transform="scale(-1 1) translate(-1517912.018338 0)" textLength="153857.057633" font-size="78590.120862" lengthAdjust="spacingAndGlyphs" text-anchor="middle" opacity="0.01" style="font-family:monospace">4k7</text>
</g>
<g class="stroked-text"><desc>4k7</desc>
<path d="M746325 597623 L785620 597623 "/>
<path d="M723871 583589 L765972 569555 L765972 606043 "/>
<path d="M785620 628498 L726677 628498 "/>
<path d="M763166 634111 L785620 650952 "/>
<path d="M746325 650952 L768779 628498 "/>
<path d="M726677 670599 L726677 709895 L785620 684633 "/>
</g></g>
<g style="fill:#000084; fill-opacity:0.0;  stroke:#000084; stroke-width:4715.408431; stroke-opacity:1;  stroke-linecap:round; stroke-linejoin:round;">
<g transform="rotate(-90.000000 856211.308050 638321.892117)">
<text x="856211.308050" y="653057.543463" transform="scale(-1 1) translate(-1712422.616099 0)" textLength="46045.373899" font-size="39295.030960" lengthAdjust="spacingAndGlyphs" text-anchor="middle" opacity="0.01" style="font-family:monospace">R1</text>
</g>
<g class="stroked-text"><desc>R1</desc>
<path d="M869543 633409 L855509 623586 "/>
<path d="M869543 616569 L840072 616569 L840072 627796 L841475 630603 L842879 632006 L845685 633409 L849896 633409 L852702 632006 L854106 630603 L855509 627796 L855509 616569 "/>
<path d="M869543 661477 L869543 644637 "/>
<path d="M869543 653057 L840072 653057 L844282 650250 L847089 647443 L848492 644637 "/>
</g></g>
<g style="fill:#000084; fill-opacity:0.01;  stroke:#000084; stroke-width:8841.390807; stroke-opacity:1;  stroke-linecap:round; stroke-linejoin:round;">
<text x="593462.856037" y="1101905.483448" transform="scale(-1 1) translate(-1186925.712074 0)" textLength="153857.057633" font-size="78590.120862" lengthAdjust="spacingAndGlyphs" text-anchor="middle" opacity="0.01" style="font-family:monospace">4k7</text>
<g class="stroked-text"><desc>4k7</desc>
<path d="M634161 1059803 L634161 1099098 "/>
<path d="M648195 1037349 L662229 1079451 L625740 1079451 "/>
<path d="M603286 1099098 L603286 1040156 "/>
<path d="M597673 1076644 L580832 1099098 "/>
<path d="M580832 1059803 L603286 1082257 "/>
<path d="M561184 1040156 L521889 1040156 L547150 1099098 "/>
</g></g>
<g style="fill:#000084; fill-opacity:0.01;  stroke:#000084; stroke-width:4715.408431; stroke-opacity:1;  stroke-linecap:round; stroke-linejoin:round;">
<text x="593462.856037" y="989914.533222" transform="scale(-1 1) translate(-1186925.712074 0)" textLength="46045.373899" font-size="39295.030960" lengthAdjust="spacingAndGlyphs" text-anchor="middle" opacity="0.01" style="font-family:monospace">R2</text>
<g class="stroked-text"><desc>R2</desc>
<path d="M598374 988511 L608198 974477 "/>
<path d="M615215 988511 L615215 959039 L603988 959039 L601181 960443 L599778 961846 L598374 964653 L598374 968863 L599778 971670 L601181 973073 L603988 974477 L615215 974477 "/>
<path d="M587147 961846 L585744 960443 L582937 959039 L575920 959039 L573113 960443 L571710 961846 L570306 964653 L570306 967460 L571710 971670 L588550 988511 L570306 988511 "/>
</g></g>
<g style="fill:#000084; fill-opacity:0.0;  stroke:#000084; stroke-width:8841.390807; stroke-opacity:1;  stroke-linecap:round; stroke-linejoin:round;">
<g transform="rotate(-90.000000 1717127.002262 1274607.317218)">
<text x="1717127.002262" y="1304078.619910" transform="scale(-1 1) translate(-3434254.004525 0)" textLength="153857.057633" font-size="78590.120862" lengthAdjust="spacingAndGlyphs" text-anchor="middle" opacity="0.01" style="font-family:monospace">3k3</text>
</g>
<g class="stroked-text"><desc>3k3</desc>
<path d="M1684848 1203034 L1684848 1239522 L1707303 1219874 L1707303 1228295 L1710110 1233908 L1712916 1236715 L1718530 1239522 L1732564 1239522 L1738177 1236715 L1740984 1233908 L1743791 1228295 L1743791 1211454 L1740984 1205840 L1738177 1203034 "/>
<path d="M1743791 1264783 L1684848 1264783 "/>
<path d="M1721337 1270397 L1743791 1287237 "/>
<path d="M1704496 1287237 L1726950 1264783 "/>
<path d="M1684848 1306885 L1684848 1343373 L1707303 1323726 L1707303 1332146 L1710110 1337760 L1712916 1340566 L1718530 1343373 L1732564 1343373 L1738177 1340566 L1740984 1337760 L1743791 1332146 L1743791 1315305 L1740984 1309692 L1738177 1306885 "/>
</g></g>
<g style="fill:#000084; fill-opacity:0.0;  stroke:#000084; stroke-width:4715.408431; stroke-opacity:1;  stroke-linecap:round; stroke-linejoin:round;">
<g transform="rotate(-90.000000 1814382.301143 1274607.317218)">
<text x="1814382.301143" y="1289342.968564" transform="scale(-1 1) translate(-3628764.602286 0)" textLength="46045.373899" font-size="39295.030960" lengthAdjust="spacingAndGlyphs" text-anchor="middle" opacity="0.01" style="font-family:monospace">R5</text>
</g>
<g class="stroked-text"><desc>R5</desc>
<path d="M1827714 1269695 L1813680 1259871 "/>
<path d="M1827714 1252854 L1798243 1252854 L1798243 1264081 L1799646 1266888 L1801050 1268292 L1803856 1269695 L1808067 1269695 L1810873 1268292 L1812277 1266888 L1813680 1264081 L1813680 1252854 "/>
<path d="M1798243 1296359 L1798243 1282325 L1812277 1280922 L1810873 1282325 L1809470 1285132 L1809470 1292149 L1810873 1294956 L1812277 1296359 L1815083 1297763 L1822100 1297763 L1824907 1296359 L1826311 1294956 L1827714 1292149 L1827714 1285132 L1826311 1282325 L1824907 1280922 "/>
</g></g>
<g style="fill:#000084; fill-opacity:0.0;  stroke:#000084; stroke-width:8841.390807; stroke-opacity:1;  stroke-linecap:round; stroke-linejoin:round;">
<g transform="rotate(-90.000000 2151298.233508 1267121.606335)">
<text x="2151298.233508" y="1296592.909026" transform="scale(-1 1) translate(-4302596.467016 0)" textLength="153857.057633" font-size="78590.120862" lengthAdjust="spacingAndGlyphs" text-anchor="middle" opacity="0.01" style="font-family:monospace">10k</text>
</g>
<g class="stroked-text"><desc>10k</desc>
<path d="M2177962 1232036 L2177962 1198355 "/>
<path d="M2177962 1215195 L2119020 1215195 L2127440 1209582 L2133054 1203968 L2135860 1198355 "/>
<path d="M2119020 1268524 L2119020 1274138 L2121826 1279752 L2124633 1282558 L2130247 1285365 L2141474 1288172 L2155508 1288172 L2166735 1285365 L2172349 1282558 L2175155 1279752 L2177962 1274138 L2177962 1268524 L2175155 1262911 L2172349 1260104 L2166735 1257297 L2155508 1254491 L2141474 1254491 L2130247 1257297 L2124633 1260104 L2121826 1262911 L2119020 1268524 "/>
<path d="M2177962 1313433 L2119020 1313433 "/>
<path d="M2155508 1319047 L2177962 1335887 "/>
<path d="M2138667 1335887 L2161121 1313433 "/>
</g></g>
<g style="fill:#000084; fill-opacity:0.0;  stroke:#000084; stroke-width:4715.408431; stroke-opacity:1;  stroke-linecap:round; stroke-linejoin:round;">
<g transform="rotate(-90.000000 2248553.532389 1267121.606335)">
<text x="2248553.532389" y="1281857.257680" transform="scale(-1 1) translate(-4497107.064777 0)" textLength="46045.373899" font-size="39295.030960" lengthAdjust="spacingAndGlyphs" text-anchor="middle" opacity="0.01" style="font-family:monospace">R6</text>
</g>
<g class="stroked-text"><desc>R6</desc>
<path d="M2261885 1262209 L2247851 1252385 "/>
<path d="M2261885 1245368 L2232414 1245368 L2232414 1256596 L2233817 1259402 L2235221 1260806 L2238028 1262209 L2242238 1262209 L2245045 1260806 L2246448 1259402 L2247851 1256596 L2247851 1245368 "/>
<path d="M2232414 1287470 L2232414 1281857 L2233817 1279050 L2235221 1277647 L2239431 1274840 L2245045 1273436 L2256272 1273436 L2259078 1274840 L2260482 1276243 L2261885 1279050 L2261885 1284664 L2260482 1287470 L2259078 1288874 L2256272 1290277 L2249255 1290277 L2246448 1288874 L2245045 1287470 L2243641 1284664 L2243641 1279050 L2245045 1276243 L2246448 1274840 L2249255 1273436 "/>
</g></g>
<g style="fill:#000084; fill-opacity:0.0;  stroke:#000084; stroke-width:8841.390807; stroke-opacity:1;  stroke-linecap:round; stroke-linejoin:round;">
<g transform="rotate(-90.000000 1859355.509050 1274607.317218)">
<text x="1859355.509050" y="1304078.619910" transform="scale(-1 1) translate(-3718711.018100 0)" textLength="153857.057633" font-size="78590.120862" lengthAdjust="spacingAndGlyphs" text-anchor="middle" opacity="0.01" style="font-family:monospace">1k5</text>
</g>
<g class="stroked-text"><desc>1k5</desc>
<path d="M1886019 1239522 L1886019 1205840 "/>
<path d="M1886019 1222681 L1827077 1222681 L1835497 1217068 L1841111 1211454 L1843918 1205840 "/>
<path d="M1886019 1264783 L1827077 1264783 "/>
<path d="M1863565 1270397 L1886019 1287237 "/>
<path d="M1846724 1287237 L1869179 1264783 "/>
<path d="M1827077 1340566 L1827077 1312498 L1855145 1309692 L1852338 1312498 L1849531 1318112 L1849531 1332146 L1852338 1337760 L1855145 1340566 L1860758 1343373 L1874792 1343373 L1880406 1340566 L1883213 1337760 L1886019 1332146 L1886019 1318112 L1883213 1312498 L1880406 1309692 "/>
</g></g>
<g style="fill:#000084; fill-opacity:0.0;  stroke:#000084; stroke-width:4715.408431; stroke-opacity:1;  stroke-linecap:round; stroke-linejoin:round;">
<g transform="rotate(-90.000000 1956610.807930 1274607.317218)">
<text x="1956610.807930" y="1289342.968564" transform="scale(-1 1) translate(-3913221.615861 0)" textLength="46045.373899" font-size="39295.030960" lengthAdjust="spacingAndGlyphs" text-anchor="middle" opacity="0.01" style="font-family:monospace">R7</text>
</g>
<g class="stroked-text"><desc>R7</desc>
<path d="M1969943 1269695 L1955909 1259871 "/>
<path d="M1969943 1252854 L1940471 1252854 L1940471 1264081 L1941875 1266888 L1943278 1268292 L1946085 1269695 L1950295 1269695 L1953102 1268292 L1954505 1266888 L1955909 1264081 L1955909 1252854 "/>
<path d="M1940471 1279519 L1940471 1299166 L1969943 1286536 "/>
</g></g>
<g style="fill:#000084; fill-opacity:0.0;  stroke:#000084; stroke-width:8841.390807; stroke-opacity:1;  stroke-linecap:round; stroke-linejoin:round;">
<g transform="rotate(-90.000000 2271069.607645 1139864.521315)">
<text x="2271069.607645" y="1169335.824006" transform="scale(-1 1) translate(-4542139.215289 0)" textLength="97721.240176" font-size="78590.120862" lengthAdjust="spacingAndGlyphs" text-anchor="middle" opacity="0.01" style="font-family:monospace">2k</text>
</g>
<g class="stroked-text"><desc>2k</desc>
<path d="M2244405 1099166 L2241598 1101972 L2238791 1107586 L2238791 1121620 L2241598 1127233 L2244405 1130040 L2250018 1132847 L2255632 1132847 L2264052 1130040 L2297734 1096359 L2297734 1132847 "/>
<path d="M2297734 1158108 L2238791 1158108 "/>
<path d="M2275279 1163722 L2297734 1180562 "/>
<path d="M2258439 1180562 L2280893 1158108 "/>
</g></g>
<g style="fill:#000084; fill-opacity:0.0;  stroke:#000084; stroke-width:4715.408431; stroke-opacity:1;  stroke-linecap:round; stroke-linejoin:round;">
<g transform="rotate(-90.000000 2368324.906525 1139864.521315)">
<text x="2368324.906525" y="1154600.172660" transform="scale(-1 1) translate(-4736649.813051 0)" textLength="46045.373899" font-size="39295.030960" lengthAdjust="spacingAndGlyphs" text-anchor="middle" opacity="0.01" style="font-family:monospace">R8</text>
</g>
<g class="stroked-text"><desc>R8</desc>
<path d="M2381657 1134952 L2367623 1125128 "/>
<path d="M2381657 1118111 L2352185 1118111 L2352185 1129339 L2353589 1132145 L2354992 1133549 L2357799 1134952 L2362009 1134952 L2364816 1133549 L2366219 1132145 L2367623 1129339 L2367623 1118111 "/>
<path d="M2364816 1151793 L2363412 1148986 L2362009 1147583 L2359202 1146179 L2357799 1146179 L2354992 1147583 L2353589 1148986 L2352185 1151793 L2352185 1157406 L2353589 1160213 L2354992 1161617 L2357799 1163020 L2359202 1163020 L2362009 1161617 L2363412 1160213 L2364816 1157406 L2364816 1151793 L2366219 1148986 L2367623 1147583 L2370429 1146179 L2376043 1146179 L2378850 1147583 L2380253 1148986 L2381657 1151793 L2381657 1157406 L2380253 1160213 L2378850 1161617 L2376043 1163020 L2370429 1163020 L2367623 1161617 L2366219 1160213 L2364816 1157406 "/>
</g></g>
<g style="fill:#000084; fill-opacity:0.0;  stroke:#000084; stroke-width:8841.390807; stroke-opacity:1;  stroke-linecap:round; stroke-linejoin:round;">
<g transform="rotate(-90.000000 2079435.409026 1003624.583234)">
<text x="2079435.409026" y="1033095.885925" transform="scale(-1 1) translate(-4158870.818052 0)" textLength="97721.240176" font-size="78590.120862" lengthAdjust="spacingAndGlyphs" text-anchor="middle" opacity="0.01" style="font-family:monospace">2k</text>
</g>
<g class="stroked-text"><desc>2k</desc>
<path d="M2052770 962926 L2049964 965732 L2047157 971346 L2047157 985380 L2049964 990994 L2052770 993800 L2058384 996607 L2063998 996607 L2072418 993800 L2106099 960119 L2106099 996607 "/>
<path d="M2106099 1021868 L2047157 1021868 "/>
<path d="M2083645 1027482 L2106099 1044323 "/>
<path d="M2066804 1044323 L2089259 1021868 "/>
</g></g>
<g style="fill:#000084; fill-opacity:0.0;  stroke:#000084; stroke-width:4715.408431; stroke-opacity:1;  stroke-linecap:round; stroke-linejoin:round;">
<g transform="rotate(-90.000000 2176690.707907 1003624.583234)">
<text x="2176690.707907" y="1018360.234580" transform="scale(-1 1) translate(-4353381.415813 0)" textLength="46045.373899" font-size="39295.030960" lengthAdjust="spacingAndGlyphs" text-anchor="middle" opacity="0.01" style="font-family:monospace">R9</text>
</g>
<g class="stroked-text"><desc>R9</desc>
<path d="M2190022 998712 L2175988 988888 "/>
<path d="M2190022 981871 L2160551 981871 L2160551 993099 L2161955 995905 L2163358 997309 L2166165 998712 L2170375 998712 L2173182 997309 L2174585 995905 L2175988 993099 L2175988 981871 "/>
<path d="M2190022 1012746 L2190022 1018360 L2188619 1021167 L2187216 1022570 L2183005 1025377 L2177392 1026780 L2166165 1026780 L2163358 1025377 L2161955 1023973 L2160551 1021167 L2160551 1015553 L2161955 1012746 L2163358 1011343 L2166165 1009939 L2173182 1009939 L2175988 1011343 L2177392 1012746 L2178795 1015553 L2178795 1021167 L2177392 1023973 L2175988 1025377 L2173182 1026780 "/>
</g></g>
<g style="fill:#000084; fill-opacity:0.0;  stroke:#000084; stroke-width:8841.390807; stroke-opacity:1;  stroke-linecap:round; stroke-linejoin:round;">
<g transform="rotate(-90.000000 2591340.148250 915293.194808)">
<text x="2591340.148250" y="944764.497499" transform="scale(-1 1) translate(-5182680.296499 0)" textLength="153857.057633" font-size="78590.120862" lengthAdjust="spacingAndGlyphs" text-anchor="middle" opacity="0.01" style="font-family:monospace">10k</text>
</g>
<g class="stroked-text"><desc>10k</desc>
<path d="M2618004 880208 L2618004 846526 "/>
<path d="M2618004 863367 L2559061 863367 L2567482 857753 L2573095 852140 L2575902 846526 "/>
<path d="M2559061 916696 L2559061 922310 L2561868 927923 L2564675 930730 L2570289 933537 L2581516 936344 L2595550 936344 L2606777 933537 L2612391 930730 L2615197 927923 L2618004 922310 L2618004 916696 L2615197 911082 L2612391 908276 L2606777 905469 L2595550 902662 L2581516 902662 L2570289 905469 L2564675 908276 L2561868 911082 L2559061 916696 "/>
<path d="M2618004 961605 L2559061 961605 "/>
<path d="M2595550 967218 L2618004 984059 "/>
<path d="M2578709 984059 L2601163 961605 "/>
</g></g>
<g style="fill:#000084; fill-opacity:0.0;  stroke:#000084; stroke-width:4715.408431; stroke-opacity:1;  stroke-linecap:round; stroke-linejoin:round;">
<g transform="rotate(-90.000000 2494084.849369 915293.194808)">
<text x="2494084.849369" y="930028.846154" transform="scale(-1 1) translate(-4988169.698738 0)" textLength="74113.312098" font-size="39295.030960" lengthAdjust="spacingAndGlyphs" text-anchor="middle" opacity="0.01" style="font-family:monospace">R11</text>
</g>
<g class="stroked-text"><desc>R11</desc>
<path d="M2507417 896347 L2493383 886523 "/>
<path d="M2507417 879506 L2477945 879506 L2477945 890733 L2479349 893540 L2480752 894943 L2483559 896347 L2487769 896347 L2490576 894943 L2491979 893540 L2493383 890733 L2493383 879506 "/>
<path d="M2507417 924415 L2507417 907574 "/>
<path d="M2507417 915994 L2477945 915994 L2482155 913188 L2484962 910381 L2486366 907574 "/>
<path d="M2507417 952483 L2507417 935642 "/>
<path d="M2507417 944062 L2477945 944062 L2482155 941255 L2484962 938449 L2486366 935642 "/>
</g></g>
<g style="fill:#000084; fill-opacity:0.0;  stroke:#000084; stroke-width:8841.390807; stroke-opacity:1;  stroke-linecap:round; stroke-linejoin:round;">
<g transform="rotate(-90.000000 2007301.448559 1267121.606335)">
<text x="2007301.448559" y="1296592.909026" transform="scale(-1 1) translate(-4014602.897118 0)" textLength="266128.692546" font-size="78590.120862" lengthAdjust="spacingAndGlyphs" text-anchor="middle" opacity="0.01" style="font-family:monospace">510pF</text>
</g>
<g class="stroked-text"><desc>510pF</desc>
<path d="M1975023 1173094 L1975023 1145026 L2003091 1142219 L2000284 1145026 L1997477 1150639 L1997477 1164673 L2000284 1170287 L2003091 1173094 L2008704 1175900 L2022738 1175900 L2028352 1173094 L2031159 1170287 L2033965 1164673 L2033965 1150639 L2031159 1145026 L2028352 1142219 "/>
<path d="M2033965 1232036 L2033965 1198355 "/>
<path d="M2033965 1215195 L1975023 1215195 L1983443 1209582 L1989057 1203968 L1991864 1198355 "/>
<path d="M1975023 1268524 L1975023 1274138 L1977830 1279752 L1980636 1282558 L1986250 1285365 L1997477 1288172 L2011511 1288172 L2022738 1285365 L2028352 1282558 L2031159 1279752 L2033965 1274138 L2033965 1268524 L2031159 1262911 L2028352 1260104 L2022738 1257297 L2011511 1254491 L1997477 1254491 L1986250 1257297 L1980636 1260104 L1977830 1262911 L1975023 1268524 "/>
<path d="M1994670 1313433 L2053613 1313433 "/>
<path d="M1997477 1313433 L1994670 1319047 L1994670 1330274 L1997477 1335887 L2000284 1338694 L2005898 1341501 L2022738 1341501 L2028352 1338694 L2031159 1335887 L2033965 1330274 L2033965 1319047 L2031159 1313433 "/>
<path d="M2003091 1386410 L2003091 1366762 "/>
<path d="M2033965 1366762 L1975023 1366762 L1975023 1394830 "/>
</g></g>
<g style="fill:#000084; fill-opacity:0.0;  stroke:#000084; stroke-width:4715.408431; stroke-opacity:1;  stroke-linecap:round; stroke-linejoin:round;">
<g transform="rotate(-90.000000 2106325.025601 1267121.606335)">
<text x="2106325.025601" y="1281857.257680" transform="scale(-1 1) translate(-4212650.051203 0)" textLength="74113.312098" font-size="39295.030960" lengthAdjust="spacingAndGlyphs" text-anchor="middle" opacity="0.01" style="font-family:monospace">C11</text>
</g>
<g class="stroked-text"><desc>C11</desc>
<path d="M2116850 1248175 L2118253 1246772 L2119657 1242562 L2119657 1239755 L2118253 1235545 L2115447 1232738 L2112640 1231335 L2107026 1229931 L2102816 1229931 L2097202 1231335 L2094396 1232738 L2091589 1235545 L2090185 1239755 L2090185 1242562 L2091589 1246772 L2092992 1248175 "/>
<path d="M2119657 1276243 L2119657 1259402 "/>
<path d="M2119657 1267823 L2090185 1267823 L2094396 1265016 L2097202 1262209 L2098606 1259402 "/>
<path d="M2119657 1304311 L2119657 1287470 "/>
<path d="M2119657 1295891 L2090185 1295891 L2094396 1293084 L2097202 1290277 L2098606 1287470 "/>
</g></g>
<g style="fill:#000084; fill-opacity:0.0;  stroke:#000084; stroke-width:8841.390807; stroke-opacity:1;  stroke-linecap:round; stroke-linejoin:round;">
<g transform="rotate(-90.000000 917368.328173 1285574.708859)">
<text x="917368.328173" y="1315046.011550" transform="scale(-1 1) translate(-1834736.656347 0)" textLength="1214823.954513" font-size="78590.120862" lengthAdjust="spacingAndGlyphs" text-anchor="middle" opacity="0.01" style="font-family:monospace">1pF/NP0 251R15S1R0AV4E</text>
</g>
<g class="stroked-text"><desc>1pF/NP0 251R15S1R0AV4E</desc>
<path d="M944032 720006 L944032 686324 "/>
<path d="M944032 703165 L885090 703165 L893510 697552 L899124 691938 L901930 686324 "/>
<path d="M904737 745267 L963680 745267 "/>
<path d="M907544 745267 L904737 750881 L904737 762108 L907544 767721 L910351 770528 L915964 773335 L932805 773335 L938419 770528 L941225 767721 L944032 762108 L944032 750881 L941225 745267 "/>
<path d="M913158 818244 L913158 798596 "/>
<path d="M944032 798596 L885090 798596 L885090 826664 "/>
<path d="M882283 891220 L958066 840698 "/>
<path d="M944032 910868 L885090 910868 L944032 944549 L885090 944549 "/>
<path d="M944032 972617 L885090 972617 L885090 995071 L887897 1000685 L890703 1003492 L896317 1006298 L904737 1006298 L910351 1003492 L913158 1000685 L915964 995071 L915964 972617 "/>
<path d="M885090 1042787 L885090 1048400 L887897 1054014 L890703 1056821 L896317 1059628 L907544 1062434 L921578 1062434 L932805 1059628 L938419 1056821 L941225 1054014 L944032 1048400 L944032 1042787 L941225 1037173 L938419 1034366 L932805 1031560 L921578 1028753 L907544 1028753 L896317 1031560 L890703 1034366 L887897 1037173 L885090 1042787 "/>
<path d="M890703 1129797 L887897 1132604 L885090 1138218 L885090 1152252 L887897 1157865 L890703 1160672 L896317 1163479 L901930 1163479 L910351 1160672 L944032 1126990 L944032 1163479 "/>
<path d="M885090 1216808 L885090 1188740 L913158 1185933 L910351 1188740 L907544 1194353 L907544 1208387 L910351 1214001 L913158 1216808 L918771 1219615 L932805 1219615 L938419 1216808 L941225 1214001 L944032 1208387 L944032 1194353 L941225 1188740 L938419 1185933 "/>
<path d="M944032 1275750 L944032 1242069 "/>
<path d="M944032 1258910 L885090 1258910 L893510 1253296 L899124 1247682 L901930 1242069 "/>
<path d="M944032 1334693 L915964 1315046 "/>
<path d="M944032 1301012 L885090 1301012 L885090 1323466 L887897 1329079 L890703 1331886 L896317 1334693 L904737 1334693 L910351 1331886 L913158 1329079 L915964 1323466 L915964 1301012 "/>
<path d="M944032 1390829 L944032 1357147 "/>
<path d="M944032 1373988 L885090 1373988 L893510 1368374 L899124 1362761 L901930 1357147 "/>
<path d="M885090 1444158 L885090 1416090 L913158 1413283 L910351 1416090 L907544 1421704 L907544 1435738 L910351 1441351 L913158 1444158 L918771 1446965 L932805 1446965 L938419 1444158 L941225 1441351 L944032 1435738 L944032 1421704 L941225 1416090 L938419 1413283 "/>
<path d="M941225 1469419 L944032 1477839 L944032 1491873 L941225 1497487 L938419 1500294 L932805 1503100 L927192 1503100 L921578 1500294 L918771 1497487 L915964 1491873 L913158 1480646 L910351 1475033 L907544 1472226 L901930 1469419 L896317 1469419 L890703 1472226 L887897 1475033 L885090 1480646 L885090 1494680 L887897 1503100 "/>
<path d="M944032 1559236 L944032 1525555 "/>
<path d="M944032 1542396 L885090 1542396 L893510 1536782 L899124 1531168 L901930 1525555 "/>
<path d="M944032 1618179 L915964 1598531 "/>
<path d="M944032 1584497 L885090 1584497 L885090 1606952 L887897 1612565 L890703 1615372 L896317 1618179 L904737 1618179 L910351 1615372 L913158 1612565 L915964 1606952 L915964 1584497 "/>
<path d="M885090 1654667 L885090 1660281 L887897 1665894 L890703 1668701 L896317 1671508 L907544 1674315 L921578 1674315 L932805 1671508 L938419 1668701 L941225 1665894 L944032 1660281 L944032 1654667 L941225 1649054 L938419 1646247 L932805 1643440 L921578 1640633 L907544 1640633 L896317 1643440 L890703 1646247 L887897 1649054 L885090 1654667 "/>
<path d="M927192 1696769 L927192 1724837 "/>
<path d="M944032 1691155 L885090 1710803 L944032 1730451 "/>
<path d="M885090 1741678 L944032 1761325 L885090 1780973 "/>
<path d="M904737 1825881 L944032 1825881 "/>
<path d="M882283 1811847 L924385 1797814 L924385 1834302 "/>
<path d="M913158 1856756 L913158 1876404 "/>
<path d="M944032 1884824 L944032 1856756 L885090 1856756 L885090 1884824 "/>
</g></g>
<g style="fill:#000084; fill-opacity:0.0;  stroke:#000084; stroke-width:4715.408431; stroke-opacity:1;  stroke-linecap:round; stroke-linejoin:round;">
<g transform="rotate(-90.000000 1016391.905216 1285574.708859)">
<text x="1016391.905216" y="1300310.360205" transform="scale(-1 1) translate(-2032783.810431 0)" textLength="46045.373899" font-size="39295.030960" lengthAdjust="spacingAndGlyphs" text-anchor="middle" opacity="0.01" style="font-family:monospace">C4</text>
</g>
<g class="stroked-text"><desc>C4</desc>
<path d="M1026917 1280662 L1028320 1279259 L1029724 1275049 L1029724 1272242 L1028320 1268032 L1025513 1265225 L1022707 1263822 L1017093 1262418 L1012883 1262418 L1007269 1263822 L1004463 1265225 L1001656 1268032 L1000252 1272242 L1000252 1275049 L1001656 1279259 L1003059 1280662 "/>
<path d="M1010076 1305923 L1029724 1305923 "/>
<path d="M998849 1298906 L1019900 1291889 L1019900 1310134 "/>
</g></g>
<g style="fill:#000084; fill-opacity:0.0;  stroke:#000084; stroke-width:8841.390807; stroke-opacity:1;  stroke-linecap:round; stroke-linejoin:round;">
<g transform="rotate(-90.000000 1573130.217314 1012607.436294)">
<text x="1573130.217314" y="1042078.738985" transform="scale(-1 1) translate(-3146260.434627 0)" textLength="266128.692546" font-size="78590.120862" lengthAdjust="spacingAndGlyphs" text-anchor="middle" opacity="0.01" style="font-family:monospace">100nF</text>
</g>
<g class="stroked-text"><desc>100nF</desc>
<path d="M1599794 921386 L1599794 887705 "/>
<path d="M1599794 904545 L1540852 904545 L1549272 898932 L1554886 893318 L1557692 887705 "/>
<path d="M1540852 957874 L1540852 963488 L1543658 969102 L1546465 971908 L1552079 974715 L1563306 977522 L1577340 977522 L1588567 974715 L1594181 971908 L1596987 969102 L1599794 963488 L1599794 957874 L1596987 952261 L1594181 949454 L1588567 946647 L1577340 943841 L1563306 943841 L1552079 946647 L1546465 949454 L1543658 952261 L1540852 957874 "/>
<path d="M1540852 1014010 L1540852 1019624 L1543658 1025237 L1546465 1028044 L1552079 1030851 L1563306 1033658 L1577340 1033658 L1588567 1030851 L1594181 1028044 L1596987 1025237 L1599794 1019624 L1599794 1014010 L1596987 1008397 L1594181 1005590 L1588567 1002783 L1577340 999976 L1563306 999976 L1552079 1002783 L1546465 1005590 L1543658 1008397 L1540852 1014010 "/>
<path d="M1560499 1058919 L1599794 1058919 "/>
<path d="M1566113 1058919 L1563306 1061726 L1560499 1067339 L1560499 1075760 L1563306 1081373 L1568920 1084180 L1599794 1084180 "/>
<path d="M1568920 1131896 L1568920 1112248 "/>
<path d="M1599794 1112248 L1540852 1112248 L1540852 1140316 "/>
</g></g>
<g style="fill:#000084; fill-opacity:0.0;  stroke:#000084; stroke-width:4715.408431; stroke-opacity:1;  stroke-linecap:round; stroke-linejoin:round;">
<g transform="rotate(-90.000000 1672153.794356 1012607.436294)">
<text x="1672153.794356" y="1027343.087640" transform="scale(-1 1) translate(-3344307.588712 0)" textLength="46045.373899" font-size="39295.030960" lengthAdjust="spacingAndGlyphs" text-anchor="middle" opacity="0.01" style="font-family:monospace">C9</text>
</g>
<g class="stroked-text"><desc>C9</desc>
<path d="M1682679 1007695 L1684082 1006292 L1685486 1002081 L1685486 999275 L1684082 995064 L1681275 992258 L1678469 990854 L1672855 989451 L1668645 989451 L1663031 990854 L1660224 992258 L1657418 995064 L1656014 999275 L1656014 1002081 L1657418 1006292 L1658821 1007695 "/>
<path d="M1685486 1021729 L1685486 1027343 L1684082 1030149 L1682679 1031553 L1678469 1034360 L1672855 1035763 L1661628 1035763 L1658821 1034360 L1657418 1032956 L1656014 1030149 L1656014 1024536 L1657418 1021729 L1658821 1020326 L1661628 1018922 L1668645 1018922 L1671452 1020326 L1672855 1021729 L1674258 1024536 L1674258 1030149 L1672855 1032956 L1671452 1034360 L1668645 1035763 "/>
</g></g>
<g style="fill:#000084; fill-opacity:0.01;  stroke:#000084; stroke-width:8841.390807; stroke-opacity:1;  stroke-linecap:round; stroke-linejoin:round;">
<text x="1597296.685520" y="1335730.799000" transform="scale(-1 1) translate(-3194593.371041 0)" textLength="266128.692546" font-size="78590.120862" lengthAdjust="spacingAndGlyphs" text-anchor="middle" opacity="0.01" style="font-family:monospace">330nF</text>
<g class="stroked-text"><desc>330nF</desc>
<path d="M1725005 1273981 L1688517 1273981 L1708164 1296435 L1699744 1296435 L1694130 1299242 L1691324 1302049 L1688517 1307662 L1688517 1321696 L1691324 1327310 L1694130 1330117 L1699744 1332923 L1716585 1332923 L1722198 1330117 L1725005 1327310 "/>
<path d="M1668869 1273981 L1632381 1273981 L1652029 1296435 L1643608 1296435 L1637995 1299242 L1635188 1302049 L1632381 1307662 L1632381 1321696 L1635188 1327310 L1637995 1330117 L1643608 1332923 L1660449 1332923 L1666063 1330117 L1668869 1327310 "/>
<path d="M1595893 1273981 L1590279 1273981 L1584666 1276788 L1581859 1279594 L1579052 1285208 L1576245 1296435 L1576245 1310469 L1579052 1321696 L1581859 1327310 L1584666 1330117 L1590279 1332923 L1595893 1332923 L1601506 1330117 L1604313 1327310 L1607120 1321696 L1609927 1310469 L1609927 1296435 L1607120 1285208 L1604313 1279594 L1601506 1276788 L1595893 1273981 "/>
<path d="M1550984 1293628 L1550984 1332923 "/>
<path d="M1550984 1299242 L1548177 1296435 L1542564 1293628 L1534143 1293628 L1528530 1296435 L1525723 1302049 L1525723 1332923 "/>
<path d="M1478008 1302049 L1497655 1302049 "/>
<path d="M1497655 1332923 L1497655 1273981 L1469587 1273981 "/>
</g></g>
<g style="fill:#000084; fill-opacity:0.01;  stroke:#000084; stroke-width:4715.408431; stroke-opacity:1;  stroke-linecap:round; stroke-linejoin:round;">
<text x="1597296.685520" y="1221971.570612" transform="scale(-1 1) translate(-3194593.371041 0)" textLength="46045.373899" font-size="39295.030960" lengthAdjust="spacingAndGlyphs" text-anchor="middle" opacity="0.01" style="font-family:monospace">C8</text>
<g class="stroked-text"><desc>C8</desc>
<path d="M1602208 1217761 L1603611 1219164 L1607822 1220568 L1610628 1220568 L1614839 1219164 L1617645 1216357 L1619049 1213551 L1620452 1207937 L1620452 1203727 L1619049 1198113 L1617645 1195307 L1614839 1192500 L1610628 1191096 L1607822 1191096 L1603611 1192500 L1602208 1193903 "/>
<path d="M1585367 1203727 L1588174 1202323 L1589577 1200920 L1590981 1198113 L1590981 1196710 L1589577 1193903 L1588174 1192500 L1585367 1191096 L1579754 1191096 L1576947 1192500 L1575544 1193903 L1574140 1196710 L1574140 1198113 L1575544 1200920 L1576947 1202323 L1579754 1203727 L1585367 1203727 L1588174 1205130 L1589577 1206534 L1590981 1209340 L1590981 1214954 L1589577 1217761 L1588174 1219164 L1585367 1220568 L1579754 1220568 L1576947 1219164 L1575544 1217761 L1574140 1214954 L1574140 1209340 L1575544 1206534 L1576947 1205130 L1579754 1203727 "/>
</g></g>
<g style="fill:#000084; fill-opacity:0.0;  stroke:#000084; stroke-width:8841.390807; stroke-opacity:1;  stroke-linecap:round; stroke-linejoin:round;">
<g transform="rotate(-90.000000 2077667.130864 806001.815909)">
<text x="2077667.130864" y="835473.118600" transform="scale(-1 1) translate(-4155334.261729 0)" textLength="266128.692546" font-size="78590.120862" lengthAdjust="spacingAndGlyphs" text-anchor="middle" opacity="0.01" style="font-family:monospace">150pF</text>
</g>
<g class="stroked-text"><desc>150pF</desc>
<path d="M2104331 714781 L2104331 681099 "/>
<path d="M2104331 697940 L2045388 697940 L2053809 692326 L2059422 686713 L2062229 681099 "/>
<path d="M2045388 768110 L2045388 740042 L2073456 737235 L2070650 740042 L2067843 745655 L2067843 759689 L2070650 765303 L2073456 768110 L2079070 770916 L2093104 770916 L2098718 768110 L2101524 765303 L2104331 759689 L2104331 745655 L2101524 740042 L2098718 737235 "/>
<path d="M2045388 807405 L2045388 813018 L2048195 818632 L2051002 821439 L2056616 824245 L2067843 827052 L2081877 827052 L2093104 824245 L2098718 821439 L2101524 818632 L2104331 813018 L2104331 807405 L2101524 801791 L2098718 798984 L2093104 796178 L2081877 793371 L2067843 793371 L2056616 796178 L2051002 798984 L2048195 801791 L2045388 807405 "/>
<path d="M2065036 852313 L2123979 852313 "/>
<path d="M2067843 852313 L2065036 857927 L2065036 869154 L2067843 874768 L2070650 877574 L2076263 880381 L2093104 880381 L2098718 877574 L2101524 874768 L2104331 869154 L2104331 857927 L2101524 852313 "/>
<path d="M2073456 925290 L2073456 905642 "/>
<path d="M2104331 905642 L2045388 905642 L2045388 933710 "/>
</g></g>
<g style="fill:#000084; fill-opacity:0.0;  stroke:#000084; stroke-width:4715.408431; stroke-opacity:1;  stroke-linecap:round; stroke-linejoin:round;">
<g transform="rotate(-90.000000 2176690.707907 806001.815909)">
<text x="2176690.707907" y="820737.467254" transform="scale(-1 1) translate(-4353381.415813 0)" textLength="74113.312098" font-size="39295.030960" lengthAdjust="spacingAndGlyphs" text-anchor="middle" opacity="0.01" style="font-family:monospace">C13</text>
</g>
<g class="stroked-text"><desc>C13</desc>
<path d="M2187216 787055 L2188619 785652 L2190022 781442 L2190022 778635 L2188619 774425 L2185812 771618 L2183005 770215 L2177392 768811 L2173182 768811 L2167568 770215 L2164761 771618 L2161955 774425 L2160551 778635 L2160551 781442 L2161955 785652 L2163358 787055 "/>
<path d="M2190022 815123 L2190022 798283 "/>
<path d="M2190022 806703 L2160551 806703 L2164761 803896 L2167568 801089 L2168971 798283 "/>
<path d="M2160551 824947 L2160551 843191 L2171778 833367 L2171778 837578 L2173182 840384 L2174585 841788 L2177392 843191 L2184409 843191 L2187216 841788 L2188619 840384 L2190022 837578 L2190022 829157 L2188619 826351 L2187216 824947 "/>
</g></g>
<g style="fill:#000084; fill-opacity:0.0;  stroke:#000084; stroke-width:8841.390807; stroke-opacity:1;  stroke-linecap:round; stroke-linejoin:round;">
<g transform="rotate(-90.000000 2199206.783163 909304.626101)">
<text x="2199206.783163" y="938775.928793" transform="scale(-1 1) translate(-4398413.566325 0)" textLength="153857.057633" font-size="78590.120862" lengthAdjust="spacingAndGlyphs" text-anchor="middle" opacity="0.01" style="font-family:monospace">3k9</text>
</g>
<g class="stroked-text"><desc>3k9</desc>
<path d="M2166928 837731 L2166928 874219 L2189382 854572 L2189382 862992 L2192189 868606 L2194996 871412 L2200610 874219 L2214644 874219 L2220257 871412 L2223064 868606 L2225871 862992 L2225871 846151 L2223064 840538 L2220257 837731 "/>
<path d="M2225871 899480 L2166928 899480 "/>
<path d="M2203416 905094 L2225871 921935 "/>
<path d="M2186576 921935 L2209030 899480 "/>
<path d="M2225871 950003 L2225871 961230 L2223064 966843 L2220257 969650 L2211837 975264 L2200610 978070 L2178155 978070 L2172542 975264 L2169735 972457 L2166928 966843 L2166928 955616 L2169735 950003 L2172542 947196 L2178155 944389 L2192189 944389 L2197803 947196 L2200610 950003 L2203416 955616 L2203416 966843 L2200610 972457 L2197803 975264 L2192189 978070 "/>
</g></g>
<g style="fill:#000084; fill-opacity:0.0;  stroke:#000084; stroke-width:4715.408431; stroke-opacity:1;  stroke-linecap:round; stroke-linejoin:round;">
<g transform="rotate(-90.000000 2296462.082043 909304.626101)">
<text x="2296462.082043" y="924040.277447" transform="scale(-1 1) translate(-4592924.164087 0)" textLength="74113.312098" font-size="39295.030960" lengthAdjust="spacingAndGlyphs" text-anchor="middle" opacity="0.01" style="font-family:monospace">R10</text>
</g>
<g class="stroked-text"><desc>R10</desc>
<path d="M2309794 890358 L2295760 880534 "/>
<path d="M2309794 873518 L2280323 873518 L2280323 884745 L2281726 887551 L2283129 888955 L2285936 890358 L2290146 890358 L2292953 888955 L2294356 887551 L2295760 884745 L2295760 873518 "/>
<path d="M2309794 918426 L2309794 901585 "/>
<path d="M2309794 910006 L2280323 910006 L2284533 907199 L2287340 904392 L2288743 901585 "/>
<path d="M2280323 936670 L2280323 939477 L2281726 942284 L2283129 943687 L2285936 945091 L2291550 946494 L2298567 946494 L2304180 945091 L2306987 943687 L2308390 942284 L2309794 939477 L2309794 936670 L2308390 933864 L2306987 932460 L2304180 931057 L2298567 929653 L2291550 929653 L2285936 931057 L2283129 932460 L2281726 933864 L2280323 936670 "/>
</g></g>
<g style="fill:#000084; fill-opacity:0.01;  stroke:#000084; stroke-width:8841.390807; stroke-opacity:1;  stroke-linecap:round; stroke-linejoin:round;">
<text x="1634725.239938" y="1317340.706121" transform="scale(-1 1) translate(-3269450.479876 0)" textLength="266128.692546" font-size="78590.120862" lengthAdjust="spacingAndGlyphs" text-anchor="middle" opacity="0.01" style="font-family:monospace">100nF</text>
<g class="stroked-text"><desc>100nF</desc>
<path d="M1725945 1314533 L1759627 1314533 "/>
<path d="M1742786 1314533 L1742786 1255591 L1748400 1264011 L1754013 1269625 L1759627 1272432 "/>
<path d="M1689457 1255591 L1683844 1255591 L1678230 1258398 L1675423 1261204 L1672616 1266818 L1669810 1278045 L1669810 1292079 L1672616 1303306 L1675423 1308920 L1678230 1311727 L1683844 1314533 L1689457 1314533 L1695071 1311727 L1697877 1308920 L1700684 1303306 L1703491 1292079 L1703491 1278045 L1700684 1266818 L1697877 1261204 L1695071 1258398 L1689457 1255591 "/>
<path d="M1633321 1255591 L1627708 1255591 L1622094 1258398 L1619287 1261204 L1616481 1266818 L1613674 1278045 L1613674 1292079 L1616481 1303306 L1619287 1308920 L1622094 1311727 L1627708 1314533 L1633321 1314533 L1638935 1311727 L1641742 1308920 L1644548 1303306 L1647355 1292079 L1647355 1278045 L1644548 1266818 L1641742 1261204 L1638935 1258398 L1633321 1255591 "/>
<path d="M1588413 1275238 L1588413 1314533 "/>
<path d="M1588413 1280852 L1585606 1278045 L1579992 1275238 L1571572 1275238 L1565958 1278045 L1563152 1283659 L1563152 1314533 "/>
<path d="M1515436 1283659 L1535084 1283659 "/>
<path d="M1535084 1314533 L1535084 1255591 L1507016 1255591 "/>
</g></g>
<g style="fill:#000084; fill-opacity:0.01;  stroke:#000084; stroke-width:4715.408431; stroke-opacity:1;  stroke-linecap:round; stroke-linejoin:round;">
<text x="1634725.239938" y="1401628.631817" transform="scale(-1 1) translate(-3269450.479876 0)" textLength="46045.373899" font-size="39295.030960" lengthAdjust="spacingAndGlyphs" text-anchor="middle" opacity="0.01" style="font-family:monospace">C7</text>
<g class="stroked-text"><desc>C7</desc>
<path d="M1639637 1397418 L1641040 1398821 L1645250 1400225 L1648057 1400225 L1652267 1398821 L1655074 1396014 L1656477 1393208 L1657881 1387594 L1657881 1383384 L1656477 1377770 L1655074 1374964 L1652267 1372157 L1648057 1370753 L1645250 1370753 L1641040 1372157 L1639637 1373560 "/>
<path d="M1629813 1370753 L1610165 1370753 L1622796 1400225 "/>
</g></g>
<g style="fill:#000084; fill-opacity:0.0;  stroke:#000084; stroke-width:8841.390807; stroke-opacity:1;  stroke-linecap:round; stroke-linejoin:round;">
<g transform="rotate(-90.000000 1200612.951298 1461750.089307)">
<text x="1200612.951298" y="1491221.391998" transform="scale(-1 1) translate(-2401225.902596 0)" textLength="117368.755656" font-size="78590.120862" lengthAdjust="spacingAndGlyphs" text-anchor="middle" opacity="0.01" style="font-family:monospace">2M</text>
</g>
<g class="stroked-text"><desc>2M</desc>
<path d="M1173948 1411227 L1171141 1414034 L1168334 1419648 L1168334 1433682 L1171141 1439295 L1173948 1442102 L1179562 1444909 L1185175 1444909 L1193595 1442102 L1227277 1408421 L1227277 1444909 "/>
<path d="M1227277 1470170 L1168334 1470170 L1210436 1489817 L1168334 1509465 L1227277 1509465 "/>
</g></g>
<g style="fill:#000084; fill-opacity:0.0;  stroke:#000084; stroke-width:4715.408431; stroke-opacity:1;  stroke-linecap:round; stroke-linejoin:round;">
<g transform="rotate(-90.000000 1297868.250179 1461750.089307)">
<text x="1297868.250179" y="1476485.740653" transform="scale(-1 1) translate(-2595736.500357 0)" textLength="46045.373899" font-size="39295.030960" lengthAdjust="spacingAndGlyphs" text-anchor="middle" opacity="0.01" style="font-family:monospace">R3</text>
</g>
<g class="stroked-text"><desc>R3</desc>
<path d="M1311200 1456838 L1297166 1447014 "/>
<path d="M1311200 1439997 L1281729 1439997 L1281729 1451224 L1283132 1454031 L1284535 1455434 L1287342 1456838 L1291552 1456838 L1294359 1455434 L1295763 1454031 L1297166 1451224 L1297166 1439997 "/>
<path d="M1281729 1466661 L1281729 1484906 L1292956 1475082 L1292956 1479292 L1294359 1482099 L1295763 1483502 L1298569 1484906 L1305586 1484906 L1308393 1483502 L1309797 1482099 L1311200 1479292 L1311200 1470872 L1309797 1468065 L1308393 1466661 "/>
</g></g>
<g style="fill:#000084; fill-opacity:0.0;  stroke:#000084; stroke-width:8841.390807; stroke-opacity:1;  stroke-linecap:round; stroke-linejoin:round;">
<g transform="rotate(-90.000000 1400251.555728 847332.370803)">
<text x="1400251.555728" y="876803.673494" transform="scale(-1 1) translate(-2800503.111455 0)" textLength="518739.841629" font-size="78590.120862" lengthAdjust="spacingAndGlyphs" text-anchor="middle" opacity="0.01" style="font-family:monospace">2SK2394-6</text>
</g>
<g class="stroked-text"><desc>2SK2394-6</desc>
<path d="M1373587 596124 L1370780 598931 L1367973 604544 L1367973 618578 L1370780 624192 L1373587 626999 L1379200 629806 L1384814 629806 L1393234 626999 L1426916 593317 L1426916 629806 "/>
<path d="M1424109 652260 L1426916 660680 L1426916 674714 L1424109 680328 L1421302 683135 L1415688 685941 L1410075 685941 L1404461 683135 L1401654 680328 L1398848 674714 L1396041 663487 L1393234 657873 L1390427 655067 L1384814 652260 L1379200 652260 L1373587 655067 L1370780 657873 L1367973 663487 L1367973 677521 L1370780 685941 "/>
<path d="M1426916 711203 L1367973 711203 "/>
<path d="M1426916 744884 L1393234 719623 "/>
<path d="M1367973 744884 L1401654 711203 "/>
<path d="M1373587 767338 L1370780 770145 L1367973 775759 L1367973 789793 L1370780 795406 L1373587 798213 L1379200 801020 L1384814 801020 L1393234 798213 L1426916 764532 L1426916 801020 "/>
<path d="M1367973 820667 L1367973 857156 L1390427 837508 L1390427 845928 L1393234 851542 L1396041 854349 L1401654 857156 L1415688 857156 L1421302 854349 L1424109 851542 L1426916 845928 L1426916 829088 L1424109 823474 L1421302 820667 "/>
<path d="M1426916 885224 L1426916 896451 L1424109 902064 L1421302 904871 L1412882 910485 L1401654 913291 L1379200 913291 L1373587 910485 L1370780 907678 L1367973 902064 L1367973 890837 L1370780 885224 L1373587 882417 L1379200 879610 L1393234 879610 L1398848 882417 L1401654 885224 L1404461 890837 L1404461 902064 L1401654 907678 L1398848 910485 L1393234 913291 "/>
<path d="M1387620 963814 L1426916 963814 "/>
<path d="M1365166 949780 L1407268 935746 L1407268 972234 "/>
<path d="M1404461 994688 L1404461 1039597 "/>
<path d="M1367973 1092926 L1367973 1081699 L1370780 1076085 L1373587 1073279 L1382007 1067665 L1393234 1064858 L1415688 1064858 L1421302 1067665 L1424109 1070472 L1426916 1076085 L1426916 1087312 L1424109 1092926 L1421302 1095733 L1415688 1098540 L1401654 1098540 L1396041 1095733 L1393234 1092926 L1390427 1087312 L1390427 1076085 L1393234 1070472 L1396041 1067665 L1401654 1064858 "/>
</g></g>
<g style="fill:#000084; fill-opacity:0.0;  stroke:#000084; stroke-width:2947.130269; stroke-opacity:1;  stroke-linecap:round; stroke-linejoin:round;">
<g transform="rotate(-90.000000 1258789.302810 847332.370803)">
<text x="1258789.302810" y="856763.187664" transform="scale(-1 1) translate(-2517578.605620 0)" textLength="26229.459395" font-size="25148.805668" lengthAdjust="spacingAndGlyphs" text-anchor="middle" opacity="0.01" style="font-family:monospace">Q1</text>
</g>
<g class="stroked-text"><desc>Q1</desc>
<path d="M1269118 845535 L1268220 843739 L1266423 841943 L1263729 839248 L1262831 837452 L1262831 835656 "/>
<path d="M1267321 836554 L1266423 834757 L1264627 832961 L1261034 832063 L1254747 832063 L1251154 832961 L1249358 834757 L1248460 836554 L1248460 840146 L1249358 841943 L1251154 843739 L1254747 844637 L1261034 844637 L1264627 843739 L1266423 841943 L1267321 840146 L1267321 836554 "/>
<path d="M1267321 862601 L1267321 851823 "/>
<path d="M1267321 857212 L1248460 857212 L1251154 855415 L1252951 853619 L1253849 851823 "/>
</g></g>
<g style="fill:#000084; fill-opacity:0.0;  stroke:#000084; stroke-width:8841.390807; stroke-opacity:1;  stroke-linecap:round; stroke-linejoin:round;">
<g transform="rotate(-90.000000 1050166.018100 1282332.865563)">
<text x="1050166.018100" y="1311804.168254" transform="scale(-1 1) translate(-2100332.036199 0)" textLength="119667.517266" font-size="78590.120862" lengthAdjust="spacingAndGlyphs" text-anchor="middle" opacity="0.01" style="font-family:monospace">2M</text>
</g>
<g class="stroked-text"><desc>2M</desc>
<path d="M1023501 1231810 L1020694 1234617 L1017887 1240230 L1017887 1254264 L1020694 1259878 L1023501 1262685 L1029115 1265492 L1034728 1265492 L1043149 1262685 L1076830 1229003 L1076830 1265492 "/>
<path d="M1076830 1290753 L1017887 1290753 L1059989 1310400 L1017887 1330048 L1076830 1330048 "/>
</g></g>
<g style="fill:#000084; fill-opacity:0.0;  stroke:#000084; stroke-width:4715.408431; stroke-opacity:1;  stroke-linecap:round; stroke-linejoin:round;">
<g transform="rotate(-90.000000 1147421.316980 1282332.865563)">
<text x="1147421.316980" y="1297068.516909" transform="scale(-1 1) translate(-2294842.633960 0)" textLength="46045.373899" font-size="39295.030960" lengthAdjust="spacingAndGlyphs" text-anchor="middle" opacity="0.01" style="font-family:monospace">R4</text>
</g>
<g class="stroked-text"><desc>R4</desc>
<path d="M1160753 1277420 L1146719 1267597 "/>
<path d="M1160753 1260580 L1131282 1260580 L1131282 1271807 L1132685 1274614 L1134089 1276017 L1136895 1277420 L1141106 1277420 L1143912 1276017 L1145316 1274614 L1146719 1271807 L1146719 1260580 "/>
<path d="M1141106 1302682 L1160753 1302682 "/>
<path d="M1129878 1295665 L1150929 1288648 L1150929 1306892 "/>
</g></g>
<g style="fill:#000084; fill-opacity:0.01;  stroke:#000084; stroke-width:8841.390807; stroke-opacity:1;  stroke-linecap:round; stroke-linejoin:round;">
<text x="635353.365682" y="1232610.710884" transform="scale(-1 1) translate(-1270706.731365 0)" textLength="153857.057633" font-size="78590.120862" lengthAdjust="spacingAndGlyphs" text-anchor="middle" opacity="0.01" style="font-family:monospace">4k7</text>
<g class="stroked-text"><desc>4k7</desc>
<path d="M676051 1190508 L676051 1229803 "/>
<path d="M690085 1168054 L704119 1210156 L667631 1210156 "/>
<path d="M645177 1229803 L645177 1170861 "/>
<path d="M639563 1207349 L622722 1229803 "/>
<path d="M622722 1190508 L645177 1212963 "/>
<path d="M603075 1170861 L563780 1170861 L589041 1229803 "/>
</g></g>
<g style="fill:#000084; fill-opacity:0.01;  stroke:#000084; stroke-width:4715.408431; stroke-opacity:1;  stroke-linecap:round; stroke-linejoin:round;">
<text x="635353.365682" y="1120619.760657" transform="scale(-1 1) translate(-1270706.731365 0)" textLength="74113.312098" font-size="39295.030960" lengthAdjust="spacingAndGlyphs" text-anchor="middle" opacity="0.01" style="font-family:monospace">R12</text>
<g class="stroked-text"><desc>R12</desc>
<path d="M654299 1119216 L664122 1105182 "/>
<path d="M671139 1119216 L671139 1089745 L659912 1089745 L657105 1091148 L655702 1092551 L654299 1095358 L654299 1099568 L655702 1102375 L657105 1103778 L659912 1105182 L671139 1105182 "/>
<path d="M626231 1119216 L643072 1119216 "/>
<path d="M634651 1119216 L634651 1089745 L637458 1093955 L640265 1096762 L643072 1098165 "/>
<path d="M615004 1092551 L613600 1091148 L610793 1089745 L603776 1089745 L600970 1091148 L599566 1092551 L598163 1095358 L598163 1098165 L599566 1102375 L616407 1119216 L598163 1119216 "/>
</g></g>
<g style="fill:#000084; fill-opacity:0.0;  stroke:#000084; stroke-width:8841.390807; stroke-opacity:1;  stroke-linecap:round; stroke-linejoin:round;">
<g transform="rotate(-90.000000 553576.394975 815733.240057)">
<text x="553576.394975" y="845204.542748" transform="scale(-1 1) translate(-1107152.789950 0)" textLength="103334.816028" font-size="78590.120862" lengthAdjust="spacingAndGlyphs" text-anchor="middle" opacity="0.01" style="font-family:monospace">1u</text>
</g>
<g class="stroked-text"><desc>1u</desc>
<path d="M580240 805909 L580240 772227 "/>
<path d="M580240 789068 L521298 789068 L529718 783455 L535332 777841 L538139 772227 "/>
<path d="M540945 856431 L580240 856431 "/>
<path d="M540945 831170 L571820 831170 L577434 833977 L580240 839590 L580240 848011 L577434 853624 L574627 856431 "/>
</g></g>
<g style="fill:#000084; fill-opacity:0.0;  stroke:#000084; stroke-width:4715.408431; stroke-opacity:1;  stroke-linecap:round; stroke-linejoin:round;">
<g transform="rotate(-90.000000 652599.972017 815733.240057)">
<text x="652599.972017" y="830468.891403" transform="scale(-1 1) translate(-1305199.944034 0)" textLength="74113.312098" font-size="39295.030960" lengthAdjust="spacingAndGlyphs" text-anchor="middle" opacity="0.01" style="font-family:monospace">C15</text>
</g>
<g class="stroked-text"><desc>C15</desc>
<path d="M663125 796787 L664528 795383 L665932 791173 L665932 788367 L664528 784156 L661721 781350 L658915 779946 L653301 778543 L649091 778543 L643477 779946 L640671 781350 L637864 784156 L636460 788367 L636460 791173 L637864 795383 L639267 796787 "/>
<path d="M665932 824855 L665932 808014 "/>
<path d="M665932 816434 L636460 816434 L640671 813628 L643477 810821 L644881 808014 "/>
<path d="M636460 851519 L636460 837485 L650494 836082 L649091 837485 L647688 840292 L647688 847309 L649091 850116 L650494 851519 L653301 852923 L660318 852923 L663125 851519 L664528 850116 L665932 847309 L665932 840292 L664528 837485 L663125 836082 "/>
</g></g>
<g style="fill:#000084; fill-opacity:0.0;  stroke:#000084; stroke-width:5894.260538; stroke-opacity:1;  stroke-linecap:round; stroke-linejoin:round;">
<path d="M819372 914350 L893050 914350 "/>
<path d="M893050 914350 L893050 796464 "/>
<path d="M819372 796464 L819372 914350 "/>
<path d="M893050 796464 L819372 796464 "/>
<path d="M1446993 1520692 L1446993 1402807 "/>
<path d="M1373314 1402807 L1373314 1520692 "/>
<path d="M1373314 1520692 L1446993 1520692 "/>
<path d="M1446993 1402807 L1373314 1402807 "/>
<path d="M1485600 953664 L1485600 1071550 "/>
<path d="M1485600 1071550 L1559278 1071550 "/>
<path d="M1559278 953664 L1485600 953664 "/>
<path d="M1559278 1071550 L1559278 953664 "/>
<path d="M2382706 622407 L2382706 504522 "/>
<path d="M2309028 504522 L2309028 622407 "/>
<path d="M2309028 622407 L2382706 622407 "/>
<path d="M2382706 504522 L2309028 504522 "/>
<path d="M2232992 504522 L2159314 504522 "/>
<path d="M2232992 622407 L2232992 504522 "/>
<path d="M2159314 622407 L2232992 622407 "/>
<path d="M2159314 504522 L2159314 622407 "/>
<path d="M1574285 1459345 L1574285 1533023 "/>
<path d="M1574285 1533023 L1692170 1533023 "/>
<path d="M1692170 1533023 L1692170 1459345 "/>
<path d="M1692170 1459345 L1574285 1459345 "/>
<path d="M2539906 1080921 L2466228 1080921 "/>
<path d="M2466228 1080921 L2466228 1198807 "/>
<path d="M2466228 1198807 L2539906 1198807 "/>
<path d="M2539906 1198807 L2539906 1080921 "/>
<path d="M2279439 710774 L2279439 784452 "/>
<path d="M2397324 784452 L2397324 710774 "/>
<path d="M2397324 710774 L2279439 710774 "/>
<path d="M2279439 784452 L2397324 784452 "/>
<path d="M819372 579379 L819372 697264 "/>
<path d="M893050 697264 L893050 579379 "/>
<path d="M893050 579379 L819372 579379 "/>
<path d="M819372 697264 L893050 697264 "/>
<path d="M652405 938339 L534520 938339 "/>
<path d="M534520 938339 L534520 1012018 "/>
<path d="M652405 1012018 L652405 938339 "/>
<path d="M534520 1012018 L652405 1012018 "/>
<path d="M1777543 1215664 L1777543 1333549 "/>
<path d="M1777543 1333549 L1851221 1333549 "/>
<path d="M1851221 1333549 L1851221 1215664 "/>
<path d="M1851221 1215664 L1777543 1215664 "/>
<path d="M2285392 1326064 L2285392 1208179 "/>
<path d="M2211714 1326064 L2285392 1326064 "/>
<path d="M2285392 1208179 L2211714 1208179 "/>
<path d="M2211714 1208179 L2211714 1326064 "/>
<path d="M1919771 1333549 L1993449 1333549 "/>
<path d="M1919771 1215664 L1919771 1333549 "/>
<path d="M1993449 1215664 L1919771 1215664 "/>
<path d="M1993449 1333549 L1993449 1215664 "/>
<path d="M2405164 1080921 L2331485 1080921 "/>
<path d="M2331485 1198807 L2405164 1198807 "/>
<path d="M2331485 1080921 L2331485 1198807 "/>
<path d="M2405164 1198807 L2405164 1080921 "/>
<path d="M2213529 944681 L2139851 944681 "/>
<path d="M2139851 944681 L2139851 1062567 "/>
<path d="M2213529 1062567 L2213529 944681 "/>
<path d="M2139851 1062567 L2213529 1062567 "/>
<path d="M2457245 974235 L2530923 974235 "/>
<path d="M2457245 856350 L2457245 974235 "/>
<path d="M2530923 974235 L2530923 856350 "/>
<path d="M2530923 856350 L2457245 856350 "/>
<path d="M2143164 1326064 L2143164 1208179 "/>
<path d="M2069485 1208179 L2069485 1326064 "/>
<path d="M2069485 1326064 L2143164 1326064 "/>
<path d="M2143164 1208179 L2069485 1208179 "/>
<path d="M1053231 1226632 L979552 1226632 "/>
<path d="M1053231 1344517 L1053231 1226632 "/>
<path d="M979552 1226632 L979552 1344517 "/>
<path d="M979552 1344517 L1053231 1344517 "/>
</g>
<g style="fill:#000084; fill-opacity:0.0;  stroke:#000084; stroke-width:8841.390807; stroke-opacity:1;  stroke-linecap:round; stroke-linejoin:round;">
<path d="M773868 1162321 L1223011 1162321 "/>
<path d="M773868 1012607 L773868 1162321 "/>
<path d="M1223011 1162321 L1223011 1012607 "/>
<path d="M1223011 1012607 L773868 1012607 "/>
</g>
<g style="fill:#000084; fill-opacity:0.0;  stroke:#000084; stroke-width:5894.260538; stroke-opacity:1;  stroke-linecap:round; stroke-linejoin:round;">
<path d="M1635314 1071550 L1708992 1071550 "/>
<path d="M1635314 953664 L1635314 1071550 "/>
<path d="M1708992 1071550 L1708992 953664 "/>
<path d="M1708992 953664 L1635314 953664 "/>
<path d="M1538354 1170396 L1538354 1244075 "/>
<path d="M1538354 1244075 L1656239 1244075 "/>
<path d="M1656239 1244075 L1656239 1170396 "/>
<path d="M1656239 1170396 L1538354 1170396 "/>
<path d="M2139851 864944 L2213529 864944 "/>
<path d="M2213529 747059 L2139851 747059 "/>
<path d="M2213529 864944 L2213529 747059 "/>
<path d="M2139851 747059 L2139851 864944 "/>
<path d="M2259622 850362 L2259622 968247 "/>
<path d="M2333301 850362 L2259622 850362 "/>
<path d="M2333301 968247 L2333301 850362 "/>
<path d="M2259622 968247 L2333301 968247 "/>
<path d="M1575782 1350053 L1575782 1423732 "/>
<path d="M1693667 1423732 L1693667 1350053 "/>
<path d="M1693667 1350053 L1575782 1350053 "/>
<path d="M1575782 1423732 L1693667 1423732 "/>
<path d="M1261029 1402807 L1261029 1520692 "/>
<path d="M1334707 1520692 L1334707 1402807 "/>
<path d="M1261029 1520692 L1334707 1520692 "/>
<path d="M1334707 1402807 L1261029 1402807 "/>
<path d="M1192478 809019 L1173322 828176 "/>
<path d="M1173322 828176 L1173322 885645 "/>
<path d="M1344256 885645 L1344256 809019 "/>
<path d="M1173322 885645 L1344256 885645 "/>
<path d="M1344256 809019 L1192478 809019 "/>
<path d="M1184260 1223390 L1110582 1223390 "/>
<path d="M1110582 1223390 L1110582 1341275 "/>
<path d="M1184260 1341275 L1184260 1223390 "/>
<path d="M1110582 1341275 L1184260 1341275 "/>
<path d="M576410 1142723 L694295 1142723 "/>
<path d="M576410 1069044 L576410 1142723 "/>
<path d="M694295 1069044 L576410 1069044 "/>
<path d="M694295 1142723 L694295 1069044 "/>
<path d="M689439 874675 L689439 756790 "/>
<path d="M615760 756790 L615760 874675 "/>
<path d="M615760 874675 L689439 874675 "/>
<path d="M689439 756790 L615760 756790 "/>
<g>
</g>
<g>
</g>
<g>
</g>
<g>
</g>
<g>
</g>
<g>
</g>
<g>
</g>
<g>
</g>
<g>
</g>
<g>
</g>
<g>
</g>
<g>
</g>
<g>
</g>
<g>
</g>
<g>
</g>
<g>
</g>
<g>
</g>
<g>
</g>
<g>
</g>
<g>
</g>
<g>
</g>
<g>
</g>
<g>
</g>
<g>
</g>
<g>
</g>
<g>
</g>
<g>
</g>
<g>
</g>
<g>
</g>
<g>
</g>
<g>
</g>
<g>
</g>
<g>
</g>
<g>
</g>
<g>
</g>
<g>
</g>
<g>
</g>
<g>
</g>
<g>
</g>
<g>
</g>
<g>
</g>
<g>
</g>
</g> 
<svg:g><svg:g><svg:title>SVG Picture created as PCRD01-Edge_Cuts.svg date 2023/04/13 08:43:30 </svg:title>
  <svg:desc>Picture generated by PCBNEW </svg:desc>
<svg:g style="fill:#C2C200; fill-opacity:1.000000;stroke:#C2C200; stroke-opacity:1.000000; stroke-linecap:round; stroke-linejoin:round;" transform="translate(0 0) scale(1 1)">
</svg:g>
<svg:g style="fill:#C2C200; fill-opacity:0.0;  stroke:#C2C200; stroke-width:0.000000; stroke-opacity:1;  stroke-linecap:round; stroke-linejoin:round;">
</svg:g>
<svg:g style="fill:#C2C200; fill-opacity:0.0;  stroke:#C2C200; stroke-width:5894.260538; stroke-opacity:1;  stroke-linecap:round; stroke-linejoin:round;">
<svg:path d="M2967063 166839 L2967063 1933231 "/>
<svg:path d="M2958 1933231 L2958 166839 "/>
<svg:path d="M2958 1933231 L2967063 1933231 "/>
<svg:path d="M2958 166839 L2967063 166839 "/>
<svg:g>
</svg:g>
<svg:g>
</svg:g>
<svg:g>
</svg:g>
<svg:g>
</svg:g>
<svg:g>
</svg:g>
<svg:g>
</svg:g>
<svg:g>
</svg:g>
<svg:g>
</svg:g>
<svg:g>
</svg:g>
<svg:g>
</svg:g>
<svg:g>
</svg:g>
<svg:g>
</svg:g>
<svg:g>
</svg:g>
<svg:g>
</svg:g>
<svg:g>
</svg:g>
<svg:g>
</svg:g>
<svg:g>
</svg:g>
<svg:g>
</svg:g>
<svg:g>
</svg:g>
<svg:g>
</svg:g>
<svg:g>
</svg:g>
<svg:g>
</svg:g>
<svg:g>
</svg:g>
<svg:g>
</svg:g>
<svg:g>
</svg:g>
<svg:g>
</svg:g>
<svg:g>
</svg:g>
<svg:g>
</svg:g>
<svg:g>
</svg:g>
<svg:g>
</svg:g>
<svg:g>
</svg:g>
<svg:g>
</svg:g>
<svg:g>
</svg:g>
<svg:g>
</svg:g>
<svg:g>
</svg:g>
<svg:g>
</svg:g>
<svg:g>
</svg:g>
<svg:g>
</svg:g>
<svg:g>
</svg:g>
<svg:g>
</svg:g>
<svg:g>
</svg:g>
<svg:g>
</svg:g>
</svg:g> 
</svg:g></svg:g></svg>
