<?xml version='1.0' encoding='ASCII' standalone='yes'?>
<svg xmlns:svg="http://www.w3.org/2000/svg" xmlns="http://www.w3.org/2000/svg" xmlns:xlink="http://www.w3.org/1999/xlink" version="1.1" width="29.700220cm" height="21.000720cm" viewBox="0 0 2970022 2100072">
<title>SVG Picture created as PCRD01-B_Fab.svg date 2023/05/26 00:38:13 </title>
  <desc>Picture generated by PCBNEW </desc>
<g style="fill:#000084; fill-opacity:1.000000;stroke:#000084; stroke-opacity:1.000000; stroke-linecap:round; stroke-linejoin:round;" transform="translate(0 0) scale(1 1)">
</g>
<g style="fill:#000084; fill-opacity:0.0;  stroke:#000084; stroke-width:0.000000; stroke-opacity:1;  stroke-linecap:round; stroke-linejoin:round;">
</g>
<g style="fill:#000084; fill-opacity:0.0;  stroke:#000084; stroke-width:8840.688998; stroke-opacity:1;  stroke-linecap:round; stroke-linejoin:round;">
<g transform="rotate(-90.000000 955276.936617 855422.945706)">
<text x="955276.936617" y="884891.909033" transform="scale(-1 1) translate(-1910553.873234 0)" textLength="165587.460510" font-size="78583.882561" lengthAdjust="spacingAndGlyphs" text-anchor="middle" opacity="0.01" style="font-family:monospace">4u7</text>
</g>
<g class="stroked-text"><desc>4u7</desc>
<path d="M942647 811921 L981939 811921 "/>
<path d="M920194 797888 L962293 783855 L962293 820340 "/>
<path d="M942647 868052 L981939 868052 "/>
<path d="M942647 842793 L973519 842793 L979132 845599 L981939 851213 L981939 859632 L979132 865245 L976326 868052 "/>
<path d="M923001 890505 L923001 929796 L981939 904537 "/>
</g></g>
<g style="fill:#000084; fill-opacity:0.0;  stroke:#000084; stroke-width:4715.034132; stroke-opacity:1;  stroke-linecap:round; stroke-linejoin:round;">
<g transform="rotate(-90.000000 856261.219836 855422.945706)">
<text x="856261.219836" y="870157.427369" transform="scale(-1 1) translate(-1712522.439673 0)" textLength="46041.718924" font-size="39291.911811" lengthAdjust="spacingAndGlyphs" text-anchor="middle" opacity="0.01" style="font-family:monospace">C1</text>
</g>
<g class="stroked-text"><desc>C1</desc>
<path d="M866785 850511 L868189 849108 L869592 844898 L869592 842091 L868189 837881 L865382 835075 L862575 833672 L856962 832268 L852752 832268 L847139 833672 L844333 835075 L841526 837881 L840123 842091 L840123 844898 L841526 849108 L842929 850511 "/>
<path d="M869592 878577 L869592 861737 "/>
<path d="M869592 870157 L840123 870157 L844333 867350 L847139 864544 L848543 861737 "/>
</g></g>
<g style="fill:#000084; fill-opacity:0.0;  stroke:#000084; stroke-width:8840.688998; stroke-opacity:1;  stroke-linecap:round; stroke-linejoin:round;">
<g transform="rotate(-90.000000 1509175.571321 1461717.397206)">
<text x="1509175.571321" y="1491186.360533" transform="scale(-1 1) translate(-3018351.142642 0)" textLength="159457.975075" font-size="78583.882561" lengthAdjust="spacingAndGlyphs" text-anchor="middle" opacity="0.01" style="font-family:monospace">12p</text>
</g>
<g class="stroked-text"><desc>12p</desc>
<path d="M1535837 1423828 L1535837 1390149 "/>
<path d="M1535837 1406989 L1476899 1406989 L1485319 1401376 L1490932 1395763 L1493739 1390149 "/>
<path d="M1482513 1446281 L1479706 1449087 L1476899 1454700 L1476899 1468733 L1479706 1474346 L1482513 1477153 L1488126 1479960 L1493739 1479960 L1502159 1477153 L1535837 1443474 L1535837 1479960 "/>
<path d="M1496545 1505219 L1555483 1505219 "/>
<path d="M1499352 1505219 L1496545 1510832 L1496545 1522058 L1499352 1527671 L1502159 1530478 L1507772 1533284 L1524611 1533284 L1530224 1530478 L1533031 1527671 L1535837 1522058 L1535837 1510832 L1533031 1505219 "/>
</g></g>
<g style="fill:#000084; fill-opacity:0.0;  stroke:#000084; stroke-width:4715.034132; stroke-opacity:1;  stroke-linecap:round; stroke-linejoin:round;">
<g transform="rotate(-90.000000 1410159.854540 1461717.397206)">
<text x="1410159.854540" y="1476451.878870" transform="scale(-1 1) translate(-2820319.709081 0)" textLength="46041.718924" font-size="39291.911811" lengthAdjust="spacingAndGlyphs" text-anchor="middle" opacity="0.01" style="font-family:monospace">C2</text>
</g>
<g class="stroked-text"><desc>C2</desc>
<path d="M1420684 1456805 L1422087 1455402 L1423491 1451192 L1423491 1448386 L1422087 1444176 L1419281 1441369 L1416474 1439966 L1410861 1438563 L1406651 1438563 L1401038 1439966 L1398231 1441369 L1395425 1444176 L1394022 1448386 L1394022 1451192 L1395425 1455402 L1396828 1456805 "/>
<path d="M1396828 1468032 L1395425 1469435 L1394022 1472242 L1394022 1479258 L1395425 1482065 L1396828 1483468 L1399635 1484871 L1402441 1484871 L1406651 1483468 L1423491 1466628 L1423491 1484871 "/>
</g></g>
<g style="fill:#000084; fill-opacity:0.0;  stroke:#000084; stroke-width:8840.688998; stroke-opacity:1;  stroke-linecap:round; stroke-linejoin:round;">
<g transform="rotate(-90.000000 1423420.888038 1012610.396095)">
<text x="1423420.888038" y="1042079.359422" transform="scale(-1 1) translate(-2846841.776076 0)" textLength="266107.567868" font-size="78583.882561" lengthAdjust="spacingAndGlyphs" text-anchor="middle" opacity="0.01" style="font-family:monospace">100nF</text>
</g>
<g class="stroked-text"><desc>100nF</desc>
<path d="M1450083 921396 L1450083 887718 "/>
<path d="M1450083 904557 L1391145 904557 L1399565 898944 L1405178 893331 L1407984 887718 "/>
<path d="M1391145 957882 L1391145 963495 L1393951 969108 L1396758 971915 L1402371 974721 L1413597 977528 L1427630 977528 L1438856 974721 L1444470 971915 L1447276 969108 L1450083 963495 L1450083 957882 L1447276 952269 L1444470 949462 L1438856 946656 L1427630 943849 L1413597 943849 L1402371 946656 L1396758 949462 L1393951 952269 L1391145 957882 "/>
<path d="M1391145 1014013 L1391145 1019626 L1393951 1025239 L1396758 1028046 L1402371 1030853 L1413597 1033659 L1427630 1033659 L1438856 1030853 L1444470 1028046 L1447276 1025239 L1450083 1019626 L1450083 1014013 L1447276 1008400 L1444470 1005593 L1438856 1002787 L1427630 999980 L1413597 999980 L1402371 1002787 L1396758 1005593 L1393951 1008400 L1391145 1014013 "/>
<path d="M1410791 1058918 L1450083 1058918 "/>
<path d="M1416404 1058918 L1413597 1061725 L1410791 1067338 L1410791 1075758 L1413597 1081371 L1419211 1084177 L1450083 1084177 "/>
<path d="M1419211 1131889 L1419211 1112243 "/>
<path d="M1450083 1112243 L1391145 1112243 L1391145 1140309 "/>
</g></g>
<g style="fill:#000084; fill-opacity:0.0;  stroke:#000084; stroke-width:4715.034132; stroke-opacity:1;  stroke-linecap:round; stroke-linejoin:round;">
<g transform="rotate(-90.000000 1522436.604818 1012610.396095)">
<text x="1522436.604818" y="1027344.877758" transform="scale(-1 1) translate(-3044873.209636 0)" textLength="46041.718924" font-size="39291.911811" lengthAdjust="spacingAndGlyphs" text-anchor="middle" opacity="0.01" style="font-family:monospace">C3</text>
</g>
<g class="stroked-text"><desc>C3</desc>
<path d="M1532961 1007698 L1534364 1006295 L1535767 1002085 L1535767 999279 L1534364 995069 L1531557 992262 L1528751 990859 L1523138 989456 L1518928 989456 L1513315 990859 L1510508 992262 L1507702 995069 L1506298 999279 L1506298 1002085 L1507702 1006295 L1509105 1007698 "/>
<path d="M1506298 1017521 L1506298 1035764 L1517525 1025941 L1517525 1030151 L1518928 1032958 L1520331 1034361 L1523138 1035764 L1530154 1035764 L1532961 1034361 L1534364 1032958 L1535767 1030151 L1535767 1021731 L1534364 1018925 L1532961 1017521 "/>
</g></g>
<g style="fill:#000084; fill-opacity:0.0;  stroke:#000084; stroke-width:8840.688998; stroke-opacity:1;  stroke-linecap:round; stroke-linejoin:round;">
<g transform="rotate(-90.000000 2246783.723408 563503.394983)">
<text x="2246783.723408" y="592972.358311" transform="scale(-1 1) translate(-4493567.446817 0)" textLength="266107.567868" font-size="78583.882561" lengthAdjust="spacingAndGlyphs" text-anchor="middle" opacity="0.01" style="font-family:monospace">100nF</text>
</g>
<g class="stroked-text"><desc>100nF</desc>
<path d="M2273446 472289 L2273446 438611 "/>
<path d="M2273446 455450 L2214508 455450 L2222927 449837 L2228541 444224 L2231347 438611 "/>
<path d="M2214508 508775 L2214508 514388 L2217314 520001 L2220121 522808 L2225734 525614 L2236960 528421 L2250993 528421 L2262219 525614 L2267832 522808 L2270639 520001 L2273446 514388 L2273446 508775 L2270639 503162 L2267832 500355 L2262219 497549 L2250993 494742 L2236960 494742 L2225734 497549 L2220121 500355 L2217314 503162 L2214508 508775 "/>
<path d="M2214508 564906 L2214508 570519 L2217314 576132 L2220121 578939 L2225734 581746 L2236960 584552 L2250993 584552 L2262219 581746 L2267832 578939 L2270639 576132 L2273446 570519 L2273446 564906 L2270639 559293 L2267832 556486 L2262219 553680 L2250993 550873 L2236960 550873 L2225734 553680 L2220121 556486 L2217314 559293 L2214508 564906 "/>
<path d="M2234154 609811 L2273446 609811 "/>
<path d="M2239767 609811 L2236960 612618 L2234154 618231 L2234154 626651 L2236960 632264 L2242573 635070 L2273446 635070 "/>
<path d="M2242573 682782 L2242573 663136 "/>
<path d="M2273446 663136 L2214508 663136 L2214508 691202 "/>
</g></g>
<g style="fill:#000084; fill-opacity:0.0;  stroke:#000084; stroke-width:4715.034132; stroke-opacity:1;  stroke-linecap:round; stroke-linejoin:round;">
<g transform="rotate(-90.000000 2345799.440189 563503.394983)">
<text x="2345799.440189" y="578237.876647" transform="scale(-1 1) translate(-4691598.880378 0)" textLength="46041.718924" font-size="39291.911811" lengthAdjust="spacingAndGlyphs" text-anchor="middle" opacity="0.01" style="font-family:monospace">C5</text>
</g>
<g class="stroked-text"><desc>C5</desc>
<path d="M2356324 558591 L2357727 557188 L2359130 552978 L2359130 550172 L2357727 545962 L2354920 543155 L2352114 541752 L2346501 540349 L2342291 540349 L2336678 541752 L2333871 543155 L2331064 545962 L2329661 550172 L2329661 552978 L2331064 557188 L2332468 558591 "/>
<path d="M2329661 585254 L2329661 571221 L2343694 569818 L2342291 571221 L2340887 574027 L2340887 581044 L2342291 583851 L2343694 585254 L2346501 586657 L2353517 586657 L2356324 585254 L2357727 583851 L2359130 581044 L2359130 574027 L2357727 571221 L2356324 569818 "/>
</g></g>
<g style="fill:#000084; fill-opacity:0.0;  stroke:#000084; stroke-width:8840.688998; stroke-opacity:1;  stroke-linecap:round; stroke-linejoin:round;">
<g transform="rotate(-90.000000 2097081.389705 563503.394983)">
<text x="2097081.389705" y="592972.358311" transform="scale(-1 1) translate(-4194162.779409 0)" textLength="209976.206342" font-size="78583.882561" lengthAdjust="spacingAndGlyphs" text-anchor="middle" opacity="0.01" style="font-family:monospace">10uF</text>
</g>
<g class="stroked-text"><desc>10uF</desc>
<path d="M2123743 500355 L2123743 466676 "/>
<path d="M2123743 483516 L2064805 483516 L2073225 477903 L2078838 472289 L2081645 466676 "/>
<path d="M2064805 536840 L2064805 542454 L2067612 548067 L2070418 550873 L2076032 553680 L2087258 556486 L2101291 556486 L2112517 553680 L2118130 550873 L2120937 548067 L2123743 542454 L2123743 536840 L2120937 531227 L2118130 528421 L2112517 525614 L2101291 522808 L2087258 522808 L2076032 525614 L2070418 528421 L2067612 531227 L2064805 536840 "/>
<path d="M2084451 607005 L2123743 607005 "/>
<path d="M2084451 581746 L2115324 581746 L2120937 584552 L2123743 590165 L2123743 598585 L2120937 604198 L2118130 607005 "/>
<path d="M2092871 654716 L2092871 635070 "/>
<path d="M2123743 635070 L2064805 635070 L2064805 663136 "/>
</g></g>
<g style="fill:#000084; fill-opacity:0.0;  stroke:#000084; stroke-width:4715.034132; stroke-opacity:1;  stroke-linecap:round; stroke-linejoin:round;">
<g transform="rotate(-90.000000 2196097.106485 563503.394983)">
<text x="2196097.106485" y="578237.876647" transform="scale(-1 1) translate(-4392194.212970 0)" textLength="46041.718924" font-size="39291.911811" lengthAdjust="spacingAndGlyphs" text-anchor="middle" opacity="0.01" style="font-family:monospace">C6</text>
</g>
<g class="stroked-text"><desc>C6</desc>
<path d="M2206621 558591 L2208024 557188 L2209428 552978 L2209428 550172 L2208024 545962 L2205218 543155 L2202411 541752 L2196798 540349 L2192588 540349 L2186975 541752 L2184169 543155 L2181362 545962 L2179959 550172 L2179959 552978 L2181362 557188 L2182765 558591 "/>
<path d="M2179959 583851 L2179959 578237 L2181362 575431 L2182765 574027 L2186975 571221 L2192588 569818 L2203815 569818 L2206621 571221 L2208024 572624 L2209428 575431 L2209428 581044 L2208024 583851 L2206621 585254 L2203815 586657 L2196798 586657 L2193992 585254 L2192588 583851 L2191185 581044 L2191185 575431 L2192588 572624 L2193992 571221 L2196798 569818 "/>
</g></g>
<g style="fill:#000084; fill-opacity:0.01;  stroke:#000084; stroke-width:8840.688998; stroke-opacity:1;  stroke-linecap:round; stroke-linejoin:round;">
<text x="1633216.331759" y="1426602.180505" transform="scale(-1 1) translate(-3266432.663518 0)" textLength="209976.206342" font-size="78583.882561" lengthAdjust="spacingAndGlyphs" text-anchor="middle" opacity="0.01" style="font-family:monospace">10uF</text>
<g class="stroked-text"><desc>10uF</desc>
<path d="M1696364 1423795 L1730042 1423795 "/>
<path d="M1713203 1423795 L1713203 1364857 L1718816 1373277 L1724429 1378890 L1730042 1381697 "/>
<path d="M1659878 1364857 L1654265 1364857 L1648652 1367664 L1645845 1370470 L1643039 1376083 L1640232 1387310 L1640232 1401343 L1643039 1412569 L1645845 1418182 L1648652 1420988 L1654265 1423795 L1659878 1423795 L1665491 1420988 L1668298 1418182 L1671104 1412569 L1673911 1401343 L1673911 1387310 L1671104 1376083 L1668298 1370470 L1665491 1367664 L1659878 1364857 "/>
<path d="M1589714 1384503 L1589714 1423795 "/>
<path d="M1614973 1384503 L1614973 1415375 L1612167 1420988 L1606553 1423795 L1598134 1423795 L1592521 1420988 L1589714 1418182 "/>
<path d="M1542002 1392923 L1561648 1392923 "/>
<path d="M1561648 1423795 L1561648 1364857 L1533583 1364857 "/>
</g></g>
<g style="fill:#000084; fill-opacity:0.01;  stroke:#000084; stroke-width:4715.034132; stroke-opacity:1;  stroke-linecap:round; stroke-linejoin:round;">
<text x="1633216.331759" y="1510883.415622" transform="scale(-1 1) translate(-3266432.663518 0)" textLength="74107.429155" font-size="39291.911811" lengthAdjust="spacingAndGlyphs" text-anchor="middle" opacity="0.01" style="font-family:monospace">C10</text>
<g class="stroked-text"><desc>C10</desc>
<path d="M1652160 1506673 L1653563 1508076 L1657773 1509480 L1660580 1509480 L1664790 1508076 L1667596 1505270 L1669000 1502463 L1670403 1496850 L1670403 1492640 L1669000 1487027 L1667596 1484221 L1664790 1481414 L1660580 1480011 L1657773 1480011 L1653563 1481414 L1652160 1482817 "/>
<path d="M1624094 1509480 L1640934 1509480 "/>
<path d="M1632514 1509480 L1632514 1480011 L1635321 1484221 L1638127 1487027 L1640934 1488430 "/>
<path d="M1605852 1480011 L1603045 1480011 L1600239 1481414 L1598835 1482817 L1597432 1485624 L1596029 1491237 L1596029 1498253 L1597432 1503866 L1598835 1506673 L1600239 1508076 L1603045 1509480 L1605852 1509480 L1608658 1508076 L1610062 1506673 L1611465 1503866 L1612868 1498253 L1612868 1491237 L1611465 1485624 L1610062 1482817 L1608658 1481414 L1605852 1480011 "/>
</g></g>
<g style="fill:#000084; fill-opacity:0.0;  stroke:#000084; stroke-width:8840.688998; stroke-opacity:1;  stroke-linecap:round; stroke-linejoin:round;">
<g transform="rotate(-90.000000 2403971.173797 1139857.379743)">
<text x="2403971.173797" y="1169326.343070" transform="scale(-1 1) translate(-4807942.347595 0)" textLength="266107.567868" font-size="78583.882561" lengthAdjust="spacingAndGlyphs" text-anchor="middle" opacity="0.01" style="font-family:monospace">560pF</text>
</g>
<g class="stroked-text"><desc>560pF</desc>
<path d="M2371695 1045837 L2371695 1017771 L2399761 1014965 L2396954 1017771 L2394148 1023384 L2394148 1037417 L2396954 1043030 L2399761 1045837 L2405374 1048643 L2419407 1048643 L2425020 1045837 L2427826 1043030 L2430633 1037417 L2430633 1023384 L2427826 1017771 L2425020 1014965 "/>
<path d="M2371695 1099162 L2371695 1087935 L2374502 1082322 L2377308 1079516 L2385728 1073903 L2396954 1071096 L2419407 1071096 L2425020 1073903 L2427826 1076709 L2430633 1082322 L2430633 1093548 L2427826 1099162 L2425020 1101968 L2419407 1104775 L2405374 1104775 L2399761 1101968 L2396954 1099162 L2394148 1093548 L2394148 1082322 L2396954 1076709 L2399761 1073903 L2405374 1071096 "/>
<path d="M2371695 1141260 L2371695 1146873 L2374502 1152486 L2377308 1155293 L2382921 1158100 L2394148 1160906 L2408180 1160906 L2419407 1158100 L2425020 1155293 L2427826 1152486 L2430633 1146873 L2430633 1141260 L2427826 1135647 L2425020 1132840 L2419407 1130034 L2408180 1127227 L2394148 1127227 L2382921 1130034 L2377308 1132840 L2374502 1135647 L2371695 1141260 "/>
<path d="M2391341 1186165 L2450279 1186165 "/>
<path d="M2394148 1186165 L2391341 1191778 L2391341 1203005 L2394148 1208618 L2396954 1211424 L2402567 1214231 L2419407 1214231 L2425020 1211424 L2427826 1208618 L2430633 1203005 L2430633 1191778 L2427826 1186165 "/>
<path d="M2399761 1259136 L2399761 1239490 "/>
<path d="M2430633 1239490 L2371695 1239490 L2371695 1267556 "/>
</g></g>
<g style="fill:#000084; fill-opacity:0.0;  stroke:#000084; stroke-width:4715.034132; stroke-opacity:1;  stroke-linecap:round; stroke-linejoin:round;">
<g transform="rotate(-90.000000 2502986.890578 1139857.379743)">
<text x="2502986.890578" y="1154591.861407" transform="scale(-1 1) translate(-5005973.781156 0)" textLength="74107.429155" font-size="39291.911811" lengthAdjust="spacingAndGlyphs" text-anchor="middle" opacity="0.01" style="font-family:monospace">C12</text>
</g>
<g class="stroked-text"><desc>C12</desc>
<path d="M2513511 1120913 L2514914 1119509 L2516318 1115299 L2516318 1112493 L2514914 1108283 L2512108 1105476 L2509301 1104073 L2503688 1102670 L2499478 1102670 L2493865 1104073 L2491058 1105476 L2488252 1108283 L2486849 1112493 L2486849 1115299 L2488252 1119509 L2489655 1120913 "/>
<path d="M2516318 1148978 L2516318 1132139 "/>
<path d="M2516318 1140558 L2486849 1140558 L2491058 1137752 L2493865 1134945 L2495268 1132139 "/>
<path d="M2489655 1160204 L2488252 1161608 L2486849 1164414 L2486849 1171431 L2488252 1174237 L2489655 1175641 L2492462 1177044 L2495268 1177044 L2499478 1175641 L2516318 1158801 L2516318 1177044 "/>
</g></g>
<g style="fill:#000084; fill-opacity:0.01;  stroke:#000084; stroke-width:8840.688998; stroke-opacity:1;  stroke-linecap:round; stroke-linejoin:round;">
<text x="2338314.323504" y="678090.511986" transform="scale(-1 1) translate(-4676628.647007 0)" textLength="266107.567868" font-size="78583.882561" lengthAdjust="spacingAndGlyphs" text-anchor="middle" opacity="0.01" style="font-family:monospace">330nF</text>
<g class="stroked-text"><desc>330nF</desc>
<path d="M2466013 616345 L2429527 616345 L2449173 638798 L2440754 638798 L2435140 641605 L2432334 644411 L2429527 650024 L2429527 664057 L2432334 669670 L2435140 672477 L2440754 675283 L2457593 675283 L2463206 672477 L2466013 669670 "/>
<path d="M2409881 616345 L2373396 616345 L2393042 638798 L2384622 638798 L2379009 641605 L2376202 644411 L2373396 650024 L2373396 664057 L2376202 669670 L2379009 672477 L2384622 675283 L2401462 675283 L2407075 672477 L2409881 669670 "/>
<path d="M2336911 616345 L2331297 616345 L2325684 619152 L2322878 621959 L2320071 627572 L2317265 638798 L2317265 652831 L2320071 664057 L2322878 669670 L2325684 672477 L2331297 675283 L2336911 675283 L2342524 672477 L2345330 669670 L2348137 664057 L2350943 652831 L2350943 638798 L2348137 627572 L2345330 621959 L2342524 619152 L2336911 616345 "/>
<path d="M2292005 635991 L2292005 675283 "/>
<path d="M2292005 641605 L2289199 638798 L2283586 635991 L2275166 635991 L2269553 638798 L2266746 644411 L2266746 675283 "/>
<path d="M2219035 644411 L2238681 644411 "/>
<path d="M2238681 675283 L2238681 616345 L2210615 616345 "/>
</g></g>
<g style="fill:#000084; fill-opacity:0.01;  stroke:#000084; stroke-width:4715.034132; stroke-opacity:1;  stroke-linecap:round; stroke-linejoin:round;">
<text x="2338314.323504" y="762371.747103" transform="scale(-1 1) translate(-4676628.647007 0)" textLength="74107.429155" font-size="39291.911811" lengthAdjust="spacingAndGlyphs" text-anchor="middle" opacity="0.01" style="font-family:monospace">C14</text>
<g class="stroked-text"><desc>C14</desc>
<path d="M2357258 758161 L2358661 759565 L2362871 760968 L2365678 760968 L2369888 759565 L2372694 756758 L2374098 753951 L2375501 748338 L2375501 744129 L2374098 738515 L2372694 735709 L2369888 732902 L2365678 731499 L2362871 731499 L2358661 732902 L2357258 734306 "/>
<path d="M2329192 760968 L2346032 760968 "/>
<path d="M2337612 760968 L2337612 731499 L2340419 735709 L2343225 738515 L2346032 739919 "/>
<path d="M2303933 741322 L2303933 760968 "/>
<path d="M2310950 730096 L2317966 751145 L2299724 751145 "/>
</g></g>
<g style="fill:#000084; fill-opacity:0.0;  stroke:#000084; stroke-width:8840.688998; stroke-opacity:1;  stroke-linecap:round; stroke-linejoin:round;">
<g transform="rotate(-90.000000 759013.640856 638354.561835)">
<text x="759013.640856" y="667823.525163" transform="scale(-1 1) translate(-1518027.281711 0)" textLength="153844.844817" font-size="78583.882561" lengthAdjust="spacingAndGlyphs" text-anchor="middle" opacity="0.01" style="font-family:monospace">4k7</text>
</g>
<g class="stroked-text"><desc>4k7</desc>
<path d="M746384 597659 L785675 597659 "/>
<path d="M723931 583626 L766030 569593 L766030 606078 "/>
<path d="M785675 628531 L726738 628531 "/>
<path d="M763223 634144 L785675 650984 "/>
<path d="M746384 650984 L768836 628531 "/>
<path d="M726738 670630 L726738 709922 L785675 684662 "/>
</g></g>
<g style="fill:#000084; fill-opacity:0.0;  stroke:#000084; stroke-width:4715.034132; stroke-opacity:1;  stroke-linecap:round; stroke-linejoin:round;">
<g transform="rotate(-90.000000 856261.219836 638354.561835)">
<text x="856261.219836" y="653089.043499" transform="scale(-1 1) translate(-1712522.439673 0)" textLength="46041.718924" font-size="39291.911811" lengthAdjust="spacingAndGlyphs" text-anchor="middle" opacity="0.01" style="font-family:monospace">R1</text>
</g>
<g class="stroked-text"><desc>R1</desc>
<path d="M869592 633443 L855559 623620 "/>
<path d="M869592 616603 L840123 616603 L840123 627829 L841526 630636 L842929 632039 L845736 633443 L849946 633443 L852752 632039 L854156 630636 L855559 627829 L855559 616603 "/>
<path d="M869592 661508 L869592 644669 "/>
<path d="M869592 653089 L840123 653089 L844333 650282 L847139 647475 L848543 644669 "/>
</g></g>
<g style="fill:#000084; fill-opacity:0.01;  stroke:#000084; stroke-width:8840.688998; stroke-opacity:1;  stroke-linecap:round; stroke-linejoin:round;">
<text x="593533.624186" y="1101901.354977" transform="scale(-1 1) translate(-1187067.248373 0)" textLength="153844.844817" font-size="78583.882561" lengthAdjust="spacingAndGlyphs" text-anchor="middle" opacity="0.01" style="font-family:monospace">4k7</text>
<g class="stroked-text"><desc>4k7</desc>
<path d="M634228 1059802 L634228 1099094 "/>
<path d="M648261 1037350 L662294 1079448 L625809 1079448 "/>
<path d="M603356 1099094 L603356 1040156 "/>
<path d="M597743 1076642 L580904 1099094 "/>
<path d="M580904 1059802 L603356 1082255 "/>
<path d="M561258 1040156 L521966 1040156 L547225 1099094 "/>
</g></g>
<g style="fill:#000084; fill-opacity:0.01;  stroke:#000084; stroke-width:4715.034132; stroke-opacity:1;  stroke-linecap:round; stroke-linejoin:round;">
<text x="593533.624186" y="989919.294332" transform="scale(-1 1) translate(-1187067.248373 0)" textLength="46041.718924" font-size="39291.911811" lengthAdjust="spacingAndGlyphs" text-anchor="middle" opacity="0.01" style="font-family:monospace">R2</text>
<g class="stroked-text"><desc>R2</desc>
<path d="M598445 988515 L608268 974483 "/>
<path d="M615284 988515 L615284 959047 L604058 959047 L601251 960450 L599848 961853 L598445 964660 L598445 968870 L599848 971676 L601251 973079 L604058 974483 L615284 974483 "/>
<path d="M587218 961853 L585815 960450 L583008 959047 L575992 959047 L573185 960450 L571782 961853 L570379 964660 L570379 967466 L571782 971676 L588622 988515 L570379 988515 "/>
</g></g>
<g style="fill:#000084; fill-opacity:0.0;  stroke:#000084; stroke-width:8840.688998; stroke-opacity:1;  stroke-linecap:round; stroke-linejoin:round;">
<g transform="rotate(-90.000000 1717108.576560 1274589.480076)">
<text x="1717108.576560" y="1304058.443404" transform="scale(-1 1) translate(-3434217.153120 0)" textLength="153844.844817" font-size="78583.882561" lengthAdjust="spacingAndGlyphs" text-anchor="middle" opacity="0.01" style="font-family:monospace">3k3</text>
</g>
<g class="stroked-text"><desc>3k3</desc>
<path d="M1684832 1203021 L1684832 1239507 L1707285 1219861 L1707285 1228281 L1710092 1233894 L1712898 1236700 L1718511 1239507 L1732544 1239507 L1738157 1236700 L1740964 1233894 L1743770 1228281 L1743770 1211441 L1740964 1205828 L1738157 1203021 "/>
<path d="M1743770 1264766 L1684832 1264766 "/>
<path d="M1721318 1270379 L1743770 1287218 "/>
<path d="M1704479 1287218 L1726931 1264766 "/>
<path d="M1684832 1306865 L1684832 1343350 L1707285 1323704 L1707285 1332124 L1710092 1337737 L1712898 1340543 L1718511 1343350 L1732544 1343350 L1738157 1340543 L1740964 1337737 L1743770 1332124 L1743770 1315284 L1740964 1309671 L1738157 1306865 "/>
</g></g>
<g style="fill:#000084; fill-opacity:0.0;  stroke:#000084; stroke-width:4715.034132; stroke-opacity:1;  stroke-linecap:round; stroke-linejoin:round;">
<g transform="rotate(-90.000000 1814356.155541 1274589.480076)">
<text x="1814356.155541" y="1289323.961740" transform="scale(-1 1) translate(-3628712.311081 0)" textLength="46041.718924" font-size="39291.911811" lengthAdjust="spacingAndGlyphs" text-anchor="middle" opacity="0.01" style="font-family:monospace">R5</text>
</g>
<g class="stroked-text"><desc>R5</desc>
<path d="M1827687 1269677 L1813654 1259854 "/>
<path d="M1827687 1252838 L1798218 1252838 L1798218 1264064 L1799621 1266871 L1801024 1268274 L1803831 1269677 L1808041 1269677 L1810847 1268274 L1812251 1266871 L1813654 1264064 L1813654 1252838 "/>
<path d="M1798218 1296340 L1798218 1282307 L1812251 1280904 L1810847 1282307 L1809444 1285114 L1809444 1292130 L1810847 1294937 L1812251 1296340 L1815057 1297743 L1822074 1297743 L1824880 1296340 L1826284 1294937 L1827687 1292130 L1827687 1285114 L1826284 1282307 L1824880 1280904 "/>
</g></g>
<g style="fill:#000084; fill-opacity:0.0;  stroke:#000084; stroke-width:8840.688998; stroke-opacity:1;  stroke-linecap:round; stroke-linejoin:round;">
<g transform="rotate(-90.000000 2151245.344301 1267104.363391)">
<text x="2151245.344301" y="1296573.326719" transform="scale(-1 1) translate(-4302490.688601 0)" textLength="153844.844817" font-size="78583.882561" lengthAdjust="spacingAndGlyphs" text-anchor="middle" opacity="0.01" style="font-family:monospace">10k</text>
</g>
<g class="stroked-text"><desc>10k</desc>
<path d="M2177907 1232022 L2177907 1198343 "/>
<path d="M2177907 1215182 L2118969 1215182 L2127389 1209569 L2133002 1203956 L2135809 1198343 "/>
<path d="M2118969 1268507 L2118969 1274120 L2121776 1279733 L2124582 1282540 L2130196 1285347 L2141422 1288153 L2155455 1288153 L2166681 1285347 L2172294 1282540 L2175101 1279733 L2177907 1274120 L2177907 1268507 L2175101 1262894 L2172294 1260087 L2166681 1257281 L2155455 1254474 L2141422 1254474 L2130196 1257281 L2124582 1260087 L2121776 1262894 L2118969 1268507 "/>
<path d="M2177907 1313412 L2118969 1313412 "/>
<path d="M2155455 1319025 L2177907 1335865 "/>
<path d="M2138615 1335865 L2161068 1313412 "/>
</g></g>
<g style="fill:#000084; fill-opacity:0.0;  stroke:#000084; stroke-width:4715.034132; stroke-opacity:1;  stroke-linecap:round; stroke-linejoin:round;">
<g transform="rotate(-90.000000 2248492.923281 1267104.363391)">
<text x="2248492.923281" y="1281838.845055" transform="scale(-1 1) translate(-4496985.846563 0)" textLength="46041.718924" font-size="39291.911811" lengthAdjust="spacingAndGlyphs" text-anchor="middle" opacity="0.01" style="font-family:monospace">R6</text>
</g>
<g class="stroked-text"><desc>R6</desc>
<path d="M2261824 1262192 L2247791 1252369 "/>
<path d="M2261824 1245353 L2232355 1245353 L2232355 1256579 L2233758 1259386 L2235161 1260789 L2237968 1262192 L2242178 1262192 L2244984 1260789 L2246387 1259386 L2247791 1256579 L2247791 1245353 "/>
<path d="M2232355 1287451 L2232355 1281838 L2233758 1279032 L2235161 1277628 L2239371 1274822 L2244984 1273419 L2256210 1273419 L2259017 1274822 L2260420 1276225 L2261824 1279032 L2261824 1284645 L2260420 1287451 L2259017 1288855 L2256210 1290258 L2249194 1290258 L2246387 1288855 L2244984 1287451 L2243581 1284645 L2243581 1279032 L2244984 1276225 L2246387 1274822 L2249194 1273419 "/>
</g></g>
<g style="fill:#000084; fill-opacity:0.0;  stroke:#000084; stroke-width:8840.688998; stroke-opacity:1;  stroke-linecap:round; stroke-linejoin:round;">
<g transform="rotate(-90.000000 1859325.793578 1274589.480076)">
<text x="1859325.793578" y="1304058.443404" transform="scale(-1 1) translate(-3718651.587157 0)" textLength="153844.844817" font-size="78583.882561" lengthAdjust="spacingAndGlyphs" text-anchor="middle" opacity="0.01" style="font-family:monospace">1k5</text>
</g>
<g class="stroked-text"><desc>1k5</desc>
<path d="M1885988 1239507 L1885988 1205828 "/>
<path d="M1885988 1222667 L1827050 1222667 L1835469 1217054 L1841083 1211441 L1843889 1205828 "/>
<path d="M1885988 1264766 L1827050 1264766 "/>
<path d="M1863535 1270379 L1885988 1287218 "/>
<path d="M1846696 1287218 L1869148 1264766 "/>
<path d="M1827050 1340543 L1827050 1312478 L1855115 1309671 L1852309 1312478 L1849502 1318091 L1849502 1332124 L1852309 1337737 L1855115 1340543 L1860729 1343350 L1874761 1343350 L1880375 1340543 L1883181 1337737 L1885988 1332124 L1885988 1318091 L1883181 1312478 L1880375 1309671 "/>
</g></g>
<g style="fill:#000084; fill-opacity:0.0;  stroke:#000084; stroke-width:4715.034132; stroke-opacity:1;  stroke-linecap:round; stroke-linejoin:round;">
<g transform="rotate(-90.000000 1956573.372559 1274589.480076)">
<text x="1956573.372559" y="1289323.961740" transform="scale(-1 1) translate(-3913146.745118 0)" textLength="46041.718924" font-size="39291.911811" lengthAdjust="spacingAndGlyphs" text-anchor="middle" opacity="0.01" style="font-family:monospace">R7</text>
</g>
<g class="stroked-text"><desc>R7</desc>
<path d="M1969904 1269677 L1955871 1259854 "/>
<path d="M1969904 1252838 L1940435 1252838 L1940435 1264064 L1941838 1266871 L1943242 1268274 L1946048 1269677 L1950258 1269677 L1953065 1268274 L1954468 1266871 L1955871 1264064 L1955871 1252838 "/>
<path d="M1940435 1279500 L1940435 1299146 L1969904 1286517 "/>
</g></g>
<g style="fill:#000084; fill-opacity:0.0;  stroke:#000084; stroke-width:8840.688998; stroke-opacity:1;  stroke-linecap:round; stroke-linejoin:round;">
<g transform="rotate(-90.000000 2271007.211264 1139857.379743)">
<text x="2271007.211264" y="1169326.343070" transform="scale(-1 1) translate(-4542014.422527 0)" textLength="97713.483291" font-size="78583.882561" lengthAdjust="spacingAndGlyphs" text-anchor="middle" opacity="0.01" style="font-family:monospace">2k</text>
</g>
<g class="stroked-text"><desc>2k</desc>
<path d="M2244344 1099162 L2241538 1101968 L2238731 1107581 L2238731 1121614 L2241538 1127227 L2244344 1130034 L2249957 1132840 L2255571 1132840 L2263990 1130034 L2297669 1096355 L2297669 1132840 "/>
<path d="M2297669 1158100 L2238731 1158100 "/>
<path d="M2275217 1163713 L2297669 1180552 "/>
<path d="M2258377 1180552 L2280830 1158100 "/>
</g></g>
<g style="fill:#000084; fill-opacity:0.0;  stroke:#000084; stroke-width:4715.034132; stroke-opacity:1;  stroke-linecap:round; stroke-linejoin:round;">
<g transform="rotate(-90.000000 2368254.790244 1139857.379743)">
<text x="2368254.790244" y="1154591.861407" transform="scale(-1 1) translate(-4736509.580489 0)" textLength="46041.718924" font-size="39291.911811" lengthAdjust="spacingAndGlyphs" text-anchor="middle" opacity="0.01" style="font-family:monospace">R8</text>
</g>
<g class="stroked-text"><desc>R8</desc>
<path d="M2381585 1134945 L2367553 1125122 "/>
<path d="M2381585 1118106 L2352116 1118106 L2352116 1129332 L2353520 1132139 L2354923 1133542 L2357730 1134945 L2361940 1134945 L2364746 1133542 L2366149 1132139 L2367553 1129332 L2367553 1118106 "/>
<path d="M2364746 1151785 L2363343 1148978 L2361940 1147575 L2359133 1146172 L2357730 1146172 L2354923 1147575 L2353520 1148978 L2352116 1151785 L2352116 1157398 L2353520 1160204 L2354923 1161608 L2357730 1163011 L2359133 1163011 L2361940 1161608 L2363343 1160204 L2364746 1157398 L2364746 1151785 L2366149 1148978 L2367553 1147575 L2370359 1146172 L2375972 1146172 L2378779 1147575 L2380182 1148978 L2381585 1151785 L2381585 1157398 L2380182 1160204 L2378779 1161608 L2375972 1163011 L2370359 1163011 L2367553 1161608 L2366149 1160204 L2364746 1157398 "/>
</g></g>
<g style="fill:#000084; fill-opacity:0.0;  stroke:#000084; stroke-width:8840.688998; stroke-opacity:1;  stroke-linecap:round; stroke-linejoin:round;">
<g transform="rotate(-90.000000 2079388.224123 1003628.256072)">
<text x="2079388.224123" y="1033097.219400" transform="scale(-1 1) translate(-4158776.448246 0)" textLength="97713.483291" font-size="78583.882561" lengthAdjust="spacingAndGlyphs" text-anchor="middle" opacity="0.01" style="font-family:monospace">2k</text>
</g>
<g class="stroked-text"><desc>2k</desc>
<path d="M2052725 962932 L2049919 965739 L2047112 971352 L2047112 985385 L2049919 990998 L2052725 993805 L2058338 996611 L2063952 996611 L2072371 993805 L2106050 960126 L2106050 996611 "/>
<path d="M2106050 1021870 L2047112 1021870 "/>
<path d="M2083598 1027484 L2106050 1044323 "/>
<path d="M2066758 1044323 L2089211 1021870 "/>
</g></g>
<g style="fill:#000084; fill-opacity:0.0;  stroke:#000084; stroke-width:4715.034132; stroke-opacity:1;  stroke-linecap:round; stroke-linejoin:round;">
<g transform="rotate(-90.000000 2176635.803104 1003628.256072)">
<text x="2176635.803104" y="1018362.737736" transform="scale(-1 1) translate(-4353271.606207 0)" textLength="46041.718924" font-size="39291.911811" lengthAdjust="spacingAndGlyphs" text-anchor="middle" opacity="0.01" style="font-family:monospace">R9</text>
</g>
<g class="stroked-text"><desc>R9</desc>
<path d="M2189966 998716 L2175934 988893 "/>
<path d="M2189966 981877 L2160498 981877 L2160498 993103 L2161901 995910 L2163304 997313 L2166111 998716 L2170321 998716 L2173127 997313 L2174530 995910 L2175934 993103 L2175934 981877 "/>
<path d="M2189966 1012749 L2189966 1018362 L2188563 1021169 L2187160 1022572 L2182950 1025379 L2177337 1026782 L2166111 1026782 L2163304 1025379 L2161901 1023975 L2160498 1021169 L2160498 1015556 L2161901 1012749 L2163304 1011346 L2166111 1009942 L2173127 1009942 L2175934 1011346 L2177337 1012749 L2178740 1015556 L2178740 1021169 L2177337 1023975 L2175934 1025379 L2173127 1026782 "/>
</g></g>
<g style="fill:#000084; fill-opacity:0.0;  stroke:#000084; stroke-width:8840.688998; stroke-opacity:1;  stroke-linecap:round; stroke-linejoin:round;">
<g transform="rotate(-90.000000 2591252.329536 915303.879187)">
<text x="2591252.329536" y="944772.842515" transform="scale(-1 1) translate(-5182504.659073 0)" textLength="153844.844817" font-size="78583.882561" lengthAdjust="spacingAndGlyphs" text-anchor="middle" opacity="0.01" style="font-family:monospace">10k</text>
</g>
<g class="stroked-text"><desc>10k</desc>
<path d="M2617914 880221 L2617914 846542 "/>
<path d="M2617914 863382 L2558976 863382 L2567396 857769 L2573009 852156 L2575816 846542 "/>
<path d="M2558976 916707 L2558976 922320 L2561783 927933 L2564589 930739 L2570203 933546 L2581429 936353 L2595462 936353 L2606688 933546 L2612301 930739 L2615108 927933 L2617914 922320 L2617914 916707 L2615108 911094 L2612301 908287 L2606688 905480 L2595462 902674 L2581429 902674 L2570203 905480 L2564589 908287 L2561783 911094 L2558976 916707 "/>
<path d="M2617914 961612 L2558976 961612 "/>
<path d="M2595462 967225 L2617914 984064 "/>
<path d="M2578622 984064 L2601075 961612 "/>
</g></g>
<g style="fill:#000084; fill-opacity:0.0;  stroke:#000084; stroke-width:4715.034132; stroke-opacity:1;  stroke-linecap:round; stroke-linejoin:round;">
<g transform="rotate(-90.000000 2494004.750556 915303.879187)">
<text x="2494004.750556" y="930038.360851" transform="scale(-1 1) translate(-4988009.501111 0)" textLength="74107.429155" font-size="39291.911811" lengthAdjust="spacingAndGlyphs" text-anchor="middle" opacity="0.01" style="font-family:monospace">R11</text>
</g>
<g class="stroked-text"><desc>R11</desc>
<path d="M2507335 896359 L2493303 886536 "/>
<path d="M2507335 879520 L2477866 879520 L2477866 890746 L2479270 893552 L2480673 894956 L2483480 896359 L2487689 896359 L2490496 894956 L2491899 893552 L2493303 890746 L2493303 879520 "/>
<path d="M2507335 924425 L2507335 907585 "/>
<path d="M2507335 916005 L2477866 916005 L2482076 913198 L2484883 910392 L2486286 907585 "/>
<path d="M2507335 952490 L2507335 935651 "/>
<path d="M2507335 944071 L2477866 944071 L2482076 941264 L2484883 938458 L2486286 935651 "/>
</g></g>
<g style="fill:#000084; fill-opacity:0.0;  stroke:#000084; stroke-width:8840.688998; stroke-opacity:1;  stroke-linecap:round; stroke-linejoin:round;">
<g transform="rotate(-90.000000 2007259.989482 1267104.363391)">
<text x="2007259.989482" y="1296573.326719" transform="scale(-1 1) translate(-4014519.978965 0)" textLength="266107.567868" font-size="78583.882561" lengthAdjust="spacingAndGlyphs" text-anchor="middle" opacity="0.01" style="font-family:monospace">510pF</text>
</g>
<g class="stroked-text"><desc>510pF</desc>
<path d="M1974984 1173084 L1974984 1145018 L2003050 1142212 L2000243 1145018 L1997436 1150631 L1997436 1164664 L2000243 1170277 L2003050 1173084 L2008663 1175890 L2022696 1175890 L2028309 1173084 L2031115 1170277 L2033922 1164664 L2033922 1150631 L2031115 1145018 L2028309 1142212 "/>
<path d="M2033922 1232022 L2033922 1198343 "/>
<path d="M2033922 1215182 L1974984 1215182 L1983404 1209569 L1989017 1203956 L1991823 1198343 "/>
<path d="M1974984 1268507 L1974984 1274120 L1977791 1279733 L1980597 1282540 L1986210 1285347 L1997436 1288153 L2011469 1288153 L2022696 1285347 L2028309 1282540 L2031115 1279733 L2033922 1274120 L2033922 1268507 L2031115 1262894 L2028309 1260087 L2022696 1257281 L2011469 1254474 L1997436 1254474 L1986210 1257281 L1980597 1260087 L1977791 1262894 L1974984 1268507 "/>
<path d="M1994630 1313412 L2053568 1313412 "/>
<path d="M1997436 1313412 L1994630 1319025 L1994630 1330252 L1997436 1335865 L2000243 1338671 L2005856 1341478 L2022696 1341478 L2028309 1338671 L2031115 1335865 L2033922 1330252 L2033922 1319025 L2031115 1313412 "/>
<path d="M2003050 1386383 L2003050 1366737 "/>
<path d="M2033922 1366737 L1974984 1366737 L1974984 1394803 "/>
</g></g>
<g style="fill:#000084; fill-opacity:0.0;  stroke:#000084; stroke-width:4715.034132; stroke-opacity:1;  stroke-linecap:round; stroke-linejoin:round;">
<g transform="rotate(-90.000000 2106275.706263 1267104.363391)">
<text x="2106275.706263" y="1281838.845055" transform="scale(-1 1) translate(-4212551.412526 0)" textLength="74107.429155" font-size="39291.911811" lengthAdjust="spacingAndGlyphs" text-anchor="middle" opacity="0.01" style="font-family:monospace">C11</text>
</g>
<g class="stroked-text"><desc>C11</desc>
<path d="M2116800 1248160 L2118203 1246756 L2119606 1242546 L2119606 1239740 L2118203 1235530 L2115396 1232723 L2112590 1231320 L2106977 1229917 L2102767 1229917 L2097154 1231320 L2094347 1232723 L2091541 1235530 L2090137 1239740 L2090137 1242546 L2091541 1246756 L2092944 1248160 "/>
<path d="M2119606 1276225 L2119606 1259386 "/>
<path d="M2119606 1267805 L2090137 1267805 L2094347 1264999 L2097154 1262192 L2098557 1259386 "/>
<path d="M2119606 1304291 L2119606 1287451 "/>
<path d="M2119606 1295871 L2090137 1295871 L2094347 1293065 L2097154 1290258 L2098557 1287451 "/>
</g></g>
<g style="fill:#000084; fill-opacity:0.0;  stroke:#000084; stroke-width:8840.688998; stroke-opacity:1;  stroke-linecap:round; stroke-linejoin:round;">
<g transform="rotate(-90.000000 917413.385458 1285556.001151)">
<text x="917413.385458" y="1315024.964478" transform="scale(-1 1) translate(-1834826.770916 0)" textLength="1214727.524607" font-size="78583.882561" lengthAdjust="spacingAndGlyphs" text-anchor="middle" opacity="0.01" style="font-family:monospace">1pF/NP0 251R15S1R0AV4E</text>
</g>
<g class="stroked-text"><desc>1pF/NP0 251R15S1R0AV4E</desc>
<path d="M944075 720032 L944075 686353 "/>
<path d="M944075 703193 L885137 703193 L893557 697579 L899170 691966 L901977 686353 "/>
<path d="M904783 745291 L963721 745291 "/>
<path d="M907590 745291 L904783 750904 L904783 762131 L907590 767744 L910396 770550 L916010 773357 L932849 773357 L938462 770550 L941269 767744 L944075 762131 L944075 750904 L941269 745291 "/>
<path d="M913203 818262 L913203 798616 "/>
<path d="M944075 798616 L885137 798616 L885137 826682 "/>
<path d="M882331 891233 L958108 840714 "/>
<path d="M944075 910879 L885137 910879 L944075 944557 L885137 944557 "/>
<path d="M944075 972623 L885137 972623 L885137 995076 L887944 1000689 L890750 1003495 L896364 1006302 L904783 1006302 L910396 1003495 L913203 1000689 L916010 995076 L916010 972623 "/>
<path d="M885137 1042787 L885137 1048400 L887944 1054014 L890750 1056820 L896364 1059627 L907590 1062433 L921623 1062433 L932849 1059627 L938462 1056820 L941269 1054014 L944075 1048400 L944075 1042787 L941269 1037174 L938462 1034368 L932849 1031561 L921623 1028755 L907590 1028755 L896364 1031561 L890750 1034368 L887944 1037174 L885137 1042787 "/>
<path d="M890750 1129791 L887944 1132597 L885137 1138211 L885137 1152244 L887944 1157857 L890750 1160663 L896364 1163470 L901977 1163470 L910396 1160663 L944075 1126984 L944075 1163470 "/>
<path d="M885137 1216795 L885137 1188729 L913203 1185922 L910396 1188729 L907590 1194342 L907590 1208375 L910396 1213988 L913203 1216795 L918816 1219601 L932849 1219601 L938462 1216795 L941269 1213988 L944075 1208375 L944075 1194342 L941269 1188729 L938462 1185922 "/>
<path d="M944075 1275732 L944075 1242054 "/>
<path d="M944075 1258893 L885137 1258893 L893557 1253280 L899170 1247667 L901977 1242054 "/>
<path d="M944075 1334670 L916010 1315024 "/>
<path d="M944075 1300992 L885137 1300992 L885137 1323444 L887944 1329057 L890750 1331864 L896364 1334670 L904783 1334670 L910396 1331864 L913203 1329057 L916010 1323444 L916010 1300992 "/>
<path d="M944075 1390802 L944075 1357123 "/>
<path d="M944075 1373962 L885137 1373962 L893557 1368349 L899170 1362736 L901977 1357123 "/>
<path d="M885137 1444127 L885137 1416061 L913203 1413254 L910396 1416061 L907590 1421674 L907590 1435707 L910396 1441320 L913203 1444127 L918816 1446933 L932849 1446933 L938462 1444127 L941269 1441320 L944075 1435707 L944075 1421674 L941269 1416061 L938462 1413254 "/>
<path d="M941269 1469386 L944075 1477805 L944075 1491838 L941269 1497451 L938462 1500258 L932849 1503065 L927236 1503065 L921623 1500258 L918816 1497451 L916010 1491838 L913203 1480612 L910396 1474999 L907590 1472192 L901977 1469386 L896364 1469386 L890750 1472192 L887944 1474999 L885137 1480612 L885137 1494645 L887944 1503065 "/>
<path d="M944075 1559196 L944075 1525517 "/>
<path d="M944075 1542356 L885137 1542356 L893557 1536743 L899170 1531130 L901977 1525517 "/>
<path d="M944075 1618134 L916010 1598488 "/>
<path d="M944075 1584455 L885137 1584455 L885137 1606907 L887944 1612521 L890750 1615327 L896364 1618134 L904783 1618134 L910396 1615327 L913203 1612521 L916010 1606907 L916010 1584455 "/>
<path d="M885137 1654619 L885137 1660232 L887944 1665845 L890750 1668652 L896364 1671459 L907590 1674265 L921623 1674265 L932849 1671459 L938462 1668652 L941269 1665845 L944075 1660232 L944075 1654619 L941269 1649006 L938462 1646199 L932849 1643393 L921623 1640586 L907590 1640586 L896364 1643393 L890750 1646199 L887944 1649006 L885137 1654619 "/>
<path d="M927236 1696718 L927236 1724783 "/>
<path d="M944075 1691105 L885137 1710751 L944075 1730397 "/>
<path d="M885137 1741623 L944075 1761269 L885137 1780915 "/>
<path d="M904783 1825820 L944075 1825820 "/>
<path d="M882331 1811787 L924429 1797754 L924429 1834239 "/>
<path d="M913203 1856692 L913203 1876338 "/>
<path d="M944075 1884758 L944075 1856692 L885137 1856692 L885137 1884758 "/>
</g></g>
<g style="fill:#000084; fill-opacity:0.0;  stroke:#000084; stroke-width:4715.034132; stroke-opacity:1;  stroke-linecap:round; stroke-linejoin:round;">
<g transform="rotate(-90.000000 1016429.102238 1285556.001151)">
<text x="1016429.102238" y="1300290.482815" transform="scale(-1 1) translate(-2032858.204477 0)" textLength="46041.718924" font-size="39291.911811" lengthAdjust="spacingAndGlyphs" text-anchor="middle" opacity="0.01" style="font-family:monospace">C4</text>
</g>
<g class="stroked-text"><desc>C4</desc>
<path d="M1026953 1280644 L1028356 1279241 L1029760 1275031 L1029760 1272224 L1028356 1268014 L1025550 1265208 L1022743 1263805 L1017130 1262401 L1012920 1262401 L1007307 1263805 L1004501 1265208 L1001694 1268014 L1000291 1272224 L1000291 1275031 L1001694 1279241 L1003097 1280644 "/>
<path d="M1010114 1305903 L1029760 1305903 "/>
<path d="M998887 1298887 L1019937 1291870 L1019937 1310113 "/>
</g></g>
<g style="fill:#000084; fill-opacity:0.0;  stroke:#000084; stroke-width:8840.688998; stroke-opacity:1;  stroke-linecap:round; stroke-linejoin:round;">
<g transform="rotate(-90.000000 1573123.221742 1012610.396095)">
<text x="1573123.221742" y="1042079.359422" transform="scale(-1 1) translate(-3146246.443483 0)" textLength="266107.567868" font-size="78583.882561" lengthAdjust="spacingAndGlyphs" text-anchor="middle" opacity="0.01" style="font-family:monospace">100nF</text>
</g>
<g class="stroked-text"><desc>100nF</desc>
<path d="M1599785 921396 L1599785 887718 "/>
<path d="M1599785 904557 L1540847 904557 L1549267 898944 L1554880 893331 L1557687 887718 "/>
<path d="M1540847 957882 L1540847 963495 L1543654 969108 L1546460 971915 L1552073 974721 L1563300 977528 L1577333 977528 L1588559 974721 L1594172 971915 L1596978 969108 L1599785 963495 L1599785 957882 L1596978 952269 L1594172 949462 L1588559 946656 L1577333 943849 L1563300 943849 L1552073 946656 L1546460 949462 L1543654 952269 L1540847 957882 "/>
<path d="M1540847 1014013 L1540847 1019626 L1543654 1025239 L1546460 1028046 L1552073 1030853 L1563300 1033659 L1577333 1033659 L1588559 1030853 L1594172 1028046 L1596978 1025239 L1599785 1019626 L1599785 1014013 L1596978 1008400 L1594172 1005593 L1588559 1002787 L1577333 999980 L1563300 999980 L1552073 1002787 L1546460 1005593 L1543654 1008400 L1540847 1014013 "/>
<path d="M1560493 1058918 L1599785 1058918 "/>
<path d="M1566106 1058918 L1563300 1061725 L1560493 1067338 L1560493 1075758 L1563300 1081371 L1568913 1084177 L1599785 1084177 "/>
<path d="M1568913 1131889 L1568913 1112243 "/>
<path d="M1599785 1112243 L1540847 1112243 L1540847 1140309 "/>
</g></g>
<g style="fill:#000084; fill-opacity:0.0;  stroke:#000084; stroke-width:4715.034132; stroke-opacity:1;  stroke-linecap:round; stroke-linejoin:round;">
<g transform="rotate(-90.000000 1672138.938522 1012610.396095)">
<text x="1672138.938522" y="1027344.877758" transform="scale(-1 1) translate(-3344277.877044 0)" textLength="46041.718924" font-size="39291.911811" lengthAdjust="spacingAndGlyphs" text-anchor="middle" opacity="0.01" style="font-family:monospace">C9</text>
</g>
<g class="stroked-text"><desc>C9</desc>
<path d="M1682663 1007698 L1684066 1006295 L1685470 1002085 L1685470 999279 L1684066 995069 L1681260 992262 L1678453 990859 L1672840 989456 L1668630 989456 L1663017 990859 L1660211 992262 L1657404 995069 L1656001 999279 L1656001 1002085 L1657404 1006295 L1658807 1007698 "/>
<path d="M1685470 1021731 L1685470 1027344 L1684066 1030151 L1682663 1031554 L1678453 1034361 L1672840 1035764 L1661614 1035764 L1658807 1034361 L1657404 1032958 L1656001 1030151 L1656001 1024538 L1657404 1021731 L1658807 1020328 L1661614 1018925 L1668630 1018925 L1671437 1020328 L1672840 1021731 L1674243 1024538 L1674243 1030151 L1672840 1032958 L1671437 1034361 L1668630 1035764 "/>
</g></g>
<g style="fill:#000084; fill-opacity:0.01;  stroke:#000084; stroke-width:8840.688998; stroke-opacity:1;  stroke-linecap:round; stroke-linejoin:round;">
<text x="1597287.771670" y="1335708.110017" transform="scale(-1 1) translate(-3194575.543340 0)" textLength="266107.567868" font-size="78583.882561" lengthAdjust="spacingAndGlyphs" text-anchor="middle" opacity="0.01" style="font-family:monospace">330nF</text>
<g class="stroked-text"><desc>330nF</desc>
<path d="M1724986 1273963 L1688501 1273963 L1708147 1296416 L1699727 1296416 L1694114 1299222 L1691307 1302029 L1688501 1307642 L1688501 1321675 L1691307 1327288 L1694114 1330094 L1699727 1332901 L1716566 1332901 L1722180 1330094 L1724986 1327288 "/>
<path d="M1668855 1273963 L1632369 1273963 L1652015 1296416 L1643596 1296416 L1637982 1299222 L1635176 1302029 L1632369 1307642 L1632369 1321675 L1635176 1327288 L1637982 1330094 L1643596 1332901 L1660435 1332901 L1666048 1330094 L1668855 1327288 "/>
<path d="M1595884 1273963 L1590271 1273963 L1584658 1276770 L1581851 1279576 L1579045 1285189 L1576238 1296416 L1576238 1310448 L1579045 1321675 L1581851 1327288 L1584658 1330094 L1590271 1332901 L1595884 1332901 L1601497 1330094 L1604304 1327288 L1607110 1321675 L1609917 1310448 L1609917 1296416 L1607110 1285189 L1604304 1279576 L1601497 1276770 L1595884 1273963 "/>
<path d="M1550979 1293609 L1550979 1332901 "/>
<path d="M1550979 1299222 L1548172 1296416 L1542559 1293609 L1534139 1293609 L1528526 1296416 L1525720 1302029 L1525720 1332901 "/>
<path d="M1478008 1302029 L1497654 1302029 "/>
<path d="M1497654 1332901 L1497654 1273963 L1469588 1273963 "/>
</g></g>
<g style="fill:#000084; fill-opacity:0.01;  stroke:#000084; stroke-width:4715.034132; stroke-opacity:1;  stroke-linecap:round; stroke-linejoin:round;">
<text x="1597287.771670" y="1221957.911573" transform="scale(-1 1) translate(-3194575.543340 0)" textLength="46041.718924" font-size="39291.911811" lengthAdjust="spacingAndGlyphs" text-anchor="middle" opacity="0.01" style="font-family:monospace">C8</text>
<g class="stroked-text"><desc>C8</desc>
<path d="M1602199 1217748 L1603602 1219151 L1607812 1220554 L1610618 1220554 L1614828 1219151 L1617635 1216344 L1619038 1213538 L1620441 1207925 L1620441 1203715 L1619038 1198102 L1617635 1195295 L1614828 1192488 L1610618 1191085 L1607812 1191085 L1603602 1192488 L1602199 1193892 "/>
<path d="M1585359 1203715 L1588166 1202311 L1589569 1200908 L1590972 1198102 L1590972 1196698 L1589569 1193892 L1588166 1192488 L1585359 1191085 L1579746 1191085 L1576940 1192488 L1575536 1193892 L1574133 1196698 L1574133 1198102 L1575536 1200908 L1576940 1202311 L1579746 1203715 L1585359 1203715 L1588166 1205118 L1589569 1206521 L1590972 1209328 L1590972 1214941 L1589569 1217748 L1588166 1219151 L1585359 1220554 L1579746 1220554 L1576940 1219151 L1575536 1217748 L1574133 1214941 L1574133 1209328 L1575536 1206521 L1576940 1205118 L1579746 1203715 "/>
</g></g>
<g style="fill:#000084; fill-opacity:0.0;  stroke:#000084; stroke-width:8840.688998; stroke-opacity:1;  stroke-linecap:round; stroke-linejoin:round;">
<g transform="rotate(-90.000000 2077620.086323 806021.175583)">
<text x="2077620.086323" y="835490.138911" transform="scale(-1 1) translate(-4155240.172646 0)" textLength="266107.567868" font-size="78583.882561" lengthAdjust="spacingAndGlyphs" text-anchor="middle" opacity="0.01" style="font-family:monospace">150pF</text>
</g>
<g class="stroked-text"><desc>150pF</desc>
<path d="M2104282 714807 L2104282 681128 "/>
<path d="M2104282 697968 L2045344 697968 L2053764 692355 L2059377 686742 L2062183 681128 "/>
<path d="M2045344 768132 L2045344 740066 L2073410 737260 L2070603 740066 L2067797 745679 L2067797 759712 L2070603 765325 L2073410 768132 L2079023 770939 L2093056 770939 L2098669 768132 L2101475 765325 L2104282 759712 L2104282 745679 L2101475 740066 L2098669 737260 "/>
<path d="M2045344 807424 L2045344 813037 L2048151 818650 L2050957 821457 L2056570 824263 L2067797 827070 L2081829 827070 L2093056 824263 L2098669 821457 L2101475 818650 L2104282 813037 L2104282 807424 L2101475 801811 L2098669 799004 L2093056 796198 L2081829 793391 L2067797 793391 L2056570 796198 L2050957 799004 L2048151 801811 L2045344 807424 "/>
<path d="M2064990 852329 L2123928 852329 "/>
<path d="M2067797 852329 L2064990 857942 L2064990 869168 L2067797 874782 L2070603 877588 L2076216 880395 L2093056 880395 L2098669 877588 L2101475 874782 L2104282 869168 L2104282 857942 L2101475 852329 "/>
<path d="M2073410 925300 L2073410 905654 "/>
<path d="M2104282 905654 L2045344 905654 L2045344 933719 "/>
</g></g>
<g style="fill:#000084; fill-opacity:0.0;  stroke:#000084; stroke-width:4715.034132; stroke-opacity:1;  stroke-linecap:round; stroke-linejoin:round;">
<g transform="rotate(-90.000000 2176635.803104 806021.175583)">
<text x="2176635.803104" y="820755.657247" transform="scale(-1 1) translate(-4353271.606207 0)" textLength="74107.429155" font-size="39291.911811" lengthAdjust="spacingAndGlyphs" text-anchor="middle" opacity="0.01" style="font-family:monospace">C13</text>
</g>
<g class="stroked-text"><desc>C13</desc>
<path d="M2187160 787076 L2188563 785673 L2189966 781463 L2189966 778657 L2188563 774447 L2185757 771640 L2182950 770237 L2177337 768834 L2173127 768834 L2167514 770237 L2164707 771640 L2161901 774447 L2160498 778657 L2160498 781463 L2161901 785673 L2163304 787076 "/>
<path d="M2189966 815142 L2189966 798303 "/>
<path d="M2189966 806722 L2160498 806722 L2164707 803916 L2167514 801109 L2168917 798303 "/>
<path d="M2160498 824965 L2160498 843208 L2171724 833385 L2171724 837595 L2173127 840401 L2174530 841804 L2177337 843208 L2184353 843208 L2187160 841804 L2188563 840401 L2189966 837595 L2189966 829175 L2188563 826368 L2187160 824965 "/>
</g></g>
<g style="fill:#000084; fill-opacity:0.0;  stroke:#000084; stroke-width:8840.688998; stroke-opacity:1;  stroke-linecap:round; stroke-linejoin:round;">
<g transform="rotate(-90.000000 2199150.091086 909315.785839)">
<text x="2199150.091086" y="938784.749167" transform="scale(-1 1) translate(-4398300.182172 0)" textLength="153844.844817" font-size="78583.882561" lengthAdjust="spacingAndGlyphs" text-anchor="middle" opacity="0.01" style="font-family:monospace">3k9</text>
</g>
<g class="stroked-text"><desc>3k9</desc>
<path d="M2166874 837748 L2166874 874233 L2189327 854587 L2189327 863007 L2192133 868620 L2194940 871427 L2200553 874233 L2214586 874233 L2220199 871427 L2223005 868620 L2225812 863007 L2225812 846167 L2223005 840554 L2220199 837748 "/>
<path d="M2225812 899492 L2166874 899492 "/>
<path d="M2203359 905105 L2225812 921945 "/>
<path d="M2186520 921945 L2208973 899492 "/>
<path d="M2225812 950011 L2225812 961237 L2223005 966850 L2220199 969656 L2211779 975270 L2200553 978076 L2178100 978076 L2172487 975270 L2169681 972463 L2166874 966850 L2166874 955624 L2169681 950011 L2172487 947204 L2178100 944397 L2192133 944397 L2197746 947204 L2200553 950011 L2203359 955624 L2203359 966850 L2200553 972463 L2197746 975270 L2192133 978076 "/>
</g></g>
<g style="fill:#000084; fill-opacity:0.0;  stroke:#000084; stroke-width:4715.034132; stroke-opacity:1;  stroke-linecap:round; stroke-linejoin:round;">
<g transform="rotate(-90.000000 2296397.670067 909315.785839)">
<text x="2296397.670067" y="924050.267503" transform="scale(-1 1) translate(-4592795.340133 0)" textLength="74107.429155" font-size="39291.911811" lengthAdjust="spacingAndGlyphs" text-anchor="middle" opacity="0.01" style="font-family:monospace">R10</text>
</g>
<g class="stroked-text"><desc>R10</desc>
<path d="M2309728 890371 L2295696 880548 "/>
<path d="M2309728 873532 L2280259 873532 L2280259 884758 L2281663 887564 L2283066 888968 L2285873 890371 L2290082 890371 L2292889 888968 L2294292 887564 L2295696 884758 L2295696 873532 "/>
<path d="M2309728 918437 L2309728 901597 "/>
<path d="M2309728 910017 L2280259 910017 L2284469 907210 L2287276 904404 L2288679 901597 "/>
<path d="M2280259 936679 L2280259 939486 L2281663 942292 L2283066 943696 L2285873 945099 L2291486 946502 L2298502 946502 L2304115 945099 L2306922 943696 L2308325 942292 L2309728 939486 L2309728 936679 L2308325 933873 L2306922 932469 L2304115 931066 L2298502 929663 L2291486 929663 L2285873 931066 L2283066 932469 L2281663 933873 L2280259 936679 "/>
</g></g>
<g style="fill:#000084; fill-opacity:0.01;  stroke:#000084; stroke-width:8840.688998; stroke-opacity:1;  stroke-linecap:round; stroke-linejoin:round;">
<text x="1634713.355096" y="1317319.476901" transform="scale(-1 1) translate(-3269426.710192 0)" textLength="266107.567868" font-size="78583.882561" lengthAdjust="spacingAndGlyphs" text-anchor="middle" opacity="0.01" style="font-family:monospace">100nF</text>
<g class="stroked-text"><desc>100nF</desc>
<path d="M1725926 1314512 L1759605 1314512 "/>
<path d="M1742766 1314512 L1742766 1255574 L1748379 1263994 L1753992 1269607 L1759605 1272414 "/>
<path d="M1689441 1255574 L1683828 1255574 L1678215 1258381 L1675408 1261188 L1672602 1266801 L1669795 1278027 L1669795 1292060 L1672602 1303286 L1675408 1308899 L1678215 1311706 L1683828 1314512 L1689441 1314512 L1695054 1311706 L1697861 1308899 L1700667 1303286 L1703474 1292060 L1703474 1278027 L1700667 1266801 L1697861 1261188 L1695054 1258381 L1689441 1255574 "/>
<path d="M1633310 1255574 L1627696 1255574 L1622083 1258381 L1619277 1261188 L1616470 1266801 L1613664 1278027 L1613664 1292060 L1616470 1303286 L1619277 1308899 L1622083 1311706 L1627696 1314512 L1633310 1314512 L1638923 1311706 L1641729 1308899 L1644536 1303286 L1647342 1292060 L1647342 1278027 L1644536 1266801 L1641729 1261188 L1638923 1258381 L1633310 1255574 "/>
<path d="M1588404 1275220 L1588404 1314512 "/>
<path d="M1588404 1280834 L1585598 1278027 L1579985 1275220 L1571565 1275220 L1565952 1278027 L1563145 1283640 L1563145 1314512 "/>
<path d="M1515434 1283640 L1535080 1283640 "/>
<path d="M1535080 1314512 L1535080 1255574 L1507014 1255574 "/>
</g></g>
<g style="fill:#000084; fill-opacity:0.01;  stroke:#000084; stroke-width:4715.034132; stroke-opacity:1;  stroke-linecap:round; stroke-linejoin:round;">
<text x="1634713.355096" y="1401600.712018" transform="scale(-1 1) translate(-3269426.710192 0)" textLength="46041.718924" font-size="39291.911811" lengthAdjust="spacingAndGlyphs" text-anchor="middle" opacity="0.01" style="font-family:monospace">C7</text>
<g class="stroked-text"><desc>C7</desc>
<path d="M1639624 1397390 L1641028 1398794 L1645237 1400197 L1648044 1400197 L1652254 1398794 L1655060 1395987 L1656464 1393180 L1657867 1387567 L1657867 1383358 L1656464 1377744 L1655060 1374938 L1652254 1372131 L1648044 1370728 L1645237 1370728 L1641028 1372131 L1639624 1373535 "/>
<path d="M1629801 1370728 L1610155 1370728 L1622785 1400197 "/>
</g></g>
<g style="fill:#000084; fill-opacity:0.0;  stroke:#000084; stroke-width:8840.688998; stroke-opacity:1;  stroke-linecap:round; stroke-linejoin:round;">
<g transform="rotate(-90.000000 1200635.525282 1461717.397206)">
<text x="1200635.525282" y="1491186.360533" transform="scale(-1 1) translate(-2401271.050564 0)" textLength="117359.439197" font-size="78583.882561" lengthAdjust="spacingAndGlyphs" text-anchor="middle" opacity="0.01" style="font-family:monospace">2M</text>
</g>
<g class="stroked-text"><desc>2M</desc>
<path d="M1173973 1411199 L1171166 1414005 L1168359 1419618 L1168359 1433651 L1171166 1439264 L1173973 1442071 L1179586 1444877 L1185199 1444877 L1193619 1442071 L1227297 1408392 L1227297 1444877 "/>
<path d="M1227297 1470137 L1168359 1470137 L1210458 1489783 L1168359 1509429 L1227297 1509429 "/>
</g></g>
<g style="fill:#000084; fill-opacity:0.0;  stroke:#000084; stroke-width:4715.034132; stroke-opacity:1;  stroke-linecap:round; stroke-linejoin:round;">
<g transform="rotate(-90.000000 1297883.104263 1461717.397206)">
<text x="1297883.104263" y="1476451.878870" transform="scale(-1 1) translate(-2595766.208525 0)" textLength="46041.718924" font-size="39291.911811" lengthAdjust="spacingAndGlyphs" text-anchor="middle" opacity="0.01" style="font-family:monospace">R3</text>
</g>
<g class="stroked-text"><desc>R3</desc>
<path d="M1311214 1456805 L1297181 1446982 "/>
<path d="M1311214 1439966 L1281745 1439966 L1281745 1451192 L1283148 1453999 L1284551 1455402 L1287358 1456805 L1291568 1456805 L1294374 1455402 L1295778 1453999 L1297181 1451192 L1297181 1439966 "/>
<path d="M1281745 1466628 L1281745 1484871 L1292971 1475048 L1292971 1479258 L1294374 1482065 L1295778 1483468 L1298584 1484871 L1305601 1484871 L1308407 1483468 L1309810 1482065 L1311214 1479258 L1311214 1470838 L1309810 1468032 L1308407 1466628 "/>
</g></g>
<g style="fill:#000084; fill-opacity:0.0;  stroke:#000084; stroke-width:8840.688998; stroke-opacity:1;  stroke-linecap:round; stroke-linejoin:round;">
<g transform="rotate(-90.000000 1400258.282862 847348.449754)">
<text x="1400258.282862" y="876817.413081" transform="scale(-1 1) translate(-2800516.565725 0)" textLength="518698.665264" font-size="78583.882561" lengthAdjust="spacingAndGlyphs" text-anchor="middle" opacity="0.01" style="font-family:monospace">2SK2394-6</text>
</g>
<g class="stroked-text"><desc>2SK2394-6</desc>
<path d="M1373595 596160 L1370789 598967 L1367982 604580 L1367982 618613 L1370789 624226 L1373595 627032 L1379209 629839 L1384822 629839 L1393241 627032 L1426920 593354 L1426920 629839 "/>
<path d="M1424114 652291 L1426920 660711 L1426920 674744 L1424114 680357 L1421307 683164 L1415694 685970 L1410081 685970 L1404468 683164 L1401661 680357 L1398854 674744 L1396048 663518 L1393241 657905 L1390435 655098 L1384822 652291 L1379209 652291 L1373595 655098 L1370789 657905 L1367982 663518 L1367982 677551 L1370789 685970 "/>
<path d="M1426920 711229 L1367982 711229 "/>
<path d="M1426920 744908 L1393241 719649 "/>
<path d="M1367982 744908 L1401661 711229 "/>
<path d="M1373595 767361 L1370789 770167 L1367982 775780 L1367982 789813 L1370789 795426 L1373595 798233 L1379209 801040 L1384822 801040 L1393241 798233 L1426920 764554 L1426920 801040 "/>
<path d="M1367982 820686 L1367982 857171 L1390435 837525 L1390435 845945 L1393241 851558 L1396048 854364 L1401661 857171 L1415694 857171 L1421307 854364 L1424114 851558 L1426920 845945 L1426920 829105 L1424114 823492 L1421307 820686 "/>
<path d="M1426920 885237 L1426920 896463 L1424114 902076 L1421307 904883 L1412887 910496 L1401661 913302 L1379209 913302 L1373595 910496 L1370789 907689 L1367982 902076 L1367982 890850 L1370789 885237 L1373595 882430 L1379209 879623 L1393241 879623 L1398854 882430 L1401661 885237 L1404468 890850 L1404468 902076 L1401661 907689 L1398854 910496 L1393241 913302 "/>
<path d="M1387628 963820 L1426920 963820 "/>
<path d="M1365176 949788 L1407274 935755 L1407274 972240 "/>
<path d="M1404468 994693 L1404468 1039598 "/>
<path d="M1367982 1092923 L1367982 1081696 L1370789 1076083 L1373595 1073277 L1382015 1067664 L1393241 1064857 L1415694 1064857 L1421307 1067664 L1424114 1070470 L1426920 1076083 L1426920 1087309 L1424114 1092923 L1421307 1095729 L1415694 1098536 L1401661 1098536 L1396048 1095729 L1393241 1092923 L1390435 1087309 L1390435 1076083 L1393241 1070470 L1396048 1067664 L1401661 1064857 "/>
</g></g>
<g style="fill:#000084; fill-opacity:0.0;  stroke:#000084; stroke-width:2946.896333; stroke-opacity:1;  stroke-linecap:round; stroke-linejoin:round;">
<g transform="rotate(-90.000000 1258807.258890 847348.449754)">
<text x="1258807.258890" y="856778.518019" transform="scale(-1 1) translate(-2517614.517781 0)" textLength="26227.377361" font-size="25146.809414" lengthAdjust="spacingAndGlyphs" text-anchor="middle" opacity="0.01" style="font-family:monospace">Q1</text>
</g>
<g class="stroked-text"><desc>Q1</desc>
<path d="M1269135 845552 L1268237 843756 L1266441 841959 L1263746 839265 L1262848 837469 L1262848 835673 "/>
<path d="M1267339 836571 L1266441 834774 L1264644 832978 L1261052 832080 L1254765 832080 L1251173 832978 L1249377 834774 L1248479 836571 L1248479 840163 L1249377 841959 L1251173 843756 L1254765 844654 L1261052 844654 L1264644 843756 L1266441 841959 L1267339 840163 L1267339 836571 "/>
<path d="M1267339 862616 L1267339 851838 "/>
<path d="M1267339 857227 L1248479 857227 L1251173 855431 L1252969 853635 L1253867 851838 "/>
</g></g>
<g style="fill:#000084; fill-opacity:0.0;  stroke:#000084; stroke-width:8840.688998; stroke-opacity:1;  stroke-linecap:round; stroke-linejoin:round;">
<g transform="rotate(-90.000000 1050200.534212 1282314.415185)">
<text x="1050200.534212" y="1311783.378512" transform="scale(-1 1) translate(-2100401.068424 0)" textLength="119658.018336" font-size="78583.882561" lengthAdjust="spacingAndGlyphs" text-anchor="middle" opacity="0.01" style="font-family:monospace">2M</text>
</g>
<g class="stroked-text"><desc>2M</desc>
<path d="M1023538 1231796 L1020731 1234602 L1017924 1240215 L1017924 1254248 L1020731 1259861 L1023538 1262668 L1029151 1265474 L1034764 1265474 L1043184 1262668 L1076862 1228989 L1076862 1265474 "/>
<path d="M1076862 1290734 L1017924 1290734 L1060023 1310380 L1017924 1330026 L1076862 1330026 "/>
</g></g>
<g style="fill:#000084; fill-opacity:0.0;  stroke:#000084; stroke-width:4715.034132; stroke-opacity:1;  stroke-linecap:round; stroke-linejoin:round;">
<g transform="rotate(-90.000000 1147448.113193 1282314.415185)">
<text x="1147448.113193" y="1297048.896849" transform="scale(-1 1) translate(-2294896.226385 0)" textLength="46041.718924" font-size="39291.911811" lengthAdjust="spacingAndGlyphs" text-anchor="middle" opacity="0.01" style="font-family:monospace">R4</text>
</g>
<g class="stroked-text"><desc>R4</desc>
<path d="M1160779 1277402 L1146746 1267579 "/>
<path d="M1160779 1260563 L1131310 1260563 L1131310 1271789 L1132713 1274596 L1134116 1275999 L1136923 1277402 L1141133 1277402 L1143939 1275999 L1145343 1274596 L1146746 1271789 L1146746 1260563 "/>
<path d="M1141133 1302662 L1160779 1302662 "/>
<path d="M1129907 1295645 L1150956 1288629 L1150956 1306871 "/>
</g></g>
<g style="fill:#000084; fill-opacity:0.01;  stroke:#000084; stroke-width:8840.688998; stroke-opacity:1;  stroke-linecap:round; stroke-linejoin:round;">
<text x="635420.808660" y="1232596.207334" transform="scale(-1 1) translate(-1270841.617320 0)" textLength="153844.844817" font-size="78583.882561" lengthAdjust="spacingAndGlyphs" text-anchor="middle" opacity="0.01" style="font-family:monospace">4k7</text>
<g class="stroked-text"><desc>4k7</desc>
<path d="M676116 1190497 L676116 1229789 "/>
<path d="M690148 1168045 L704181 1210143 L667696 1210143 "/>
<path d="M645243 1229789 L645243 1170851 "/>
<path d="M639630 1207337 L622791 1229789 "/>
<path d="M622791 1190497 L645243 1212950 "/>
<path d="M603145 1170851 L563853 1170851 L589112 1229789 "/>
</g></g>
<g style="fill:#000084; fill-opacity:0.01;  stroke:#000084; stroke-width:4715.034132; stroke-opacity:1;  stroke-linecap:round; stroke-linejoin:round;">
<text x="635420.808660" y="1120614.146690" transform="scale(-1 1) translate(-1270841.617320 0)" textLength="74107.429155" font-size="39291.911811" lengthAdjust="spacingAndGlyphs" text-anchor="middle" opacity="0.01" style="font-family:monospace">R12</text>
<g class="stroked-text"><desc>R12</desc>
<path d="M654365 1119210 L664188 1105178 "/>
<path d="M671204 1119210 L671204 1089741 L659978 1089741 L657171 1091145 L655768 1092548 L654365 1095355 L654365 1099564 L655768 1102371 L657171 1103774 L659978 1105178 L671204 1105178 "/>
<path d="M626299 1119210 L643138 1119210 "/>
<path d="M634719 1119210 L634719 1089741 L637525 1093951 L640332 1096758 L643138 1098161 "/>
<path d="M615073 1092548 L613669 1091145 L610863 1089741 L603846 1089741 L601040 1091145 L599637 1092548 L598233 1095355 L598233 1098161 L599637 1102371 L616476 1119210 L598233 1119210 "/>
</g></g>
<g style="fill:#000084; fill-opacity:0.0;  stroke:#000084; stroke-width:8840.688998; stroke-opacity:1;  stroke-linecap:round; stroke-linejoin:round;">
<g transform="rotate(-90.000000 553650.329219 815751.827274)">
<text x="553650.329219" y="845220.790602" transform="scale(-1 1) translate(-1107300.658438 0)" textLength="103326.613550" font-size="78583.882561" lengthAdjust="spacingAndGlyphs" text-anchor="middle" opacity="0.01" style="font-family:monospace">1u</text>
</g>
<g class="stroked-text"><desc>1u</desc>
<path d="M580312 805928 L580312 772249 "/>
<path d="M580312 789089 L521374 789089 L529794 783476 L535407 777863 L538214 772249 "/>
<path d="M541020 856447 L580312 856447 "/>
<path d="M541020 831187 L571892 831187 L577506 833994 L580312 839607 L580312 848027 L577506 853640 L574699 856447 "/>
</g></g>
<g style="fill:#000084; fill-opacity:0.0;  stroke:#000084; stroke-width:4715.034132; stroke-opacity:1;  stroke-linecap:round; stroke-linejoin:round;">
<g transform="rotate(-90.000000 652666.045999 815751.827274)">
<text x="652666.045999" y="830486.308938" transform="scale(-1 1) translate(-1305332.091999 0)" textLength="74107.429155" font-size="39291.911811" lengthAdjust="spacingAndGlyphs" text-anchor="middle" opacity="0.01" style="font-family:monospace">C15</text>
</g>
<g class="stroked-text"><desc>C15</desc>
<path d="M663190 796807 L664593 795404 L665997 791194 L665997 788387 L664593 784177 L661787 781371 L658980 779968 L653367 778564 L649157 778564 L643544 779968 L640738 781371 L637931 784177 L636528 788387 L636528 791194 L637931 795404 L639334 796807 "/>
<path d="M665997 824873 L665997 808033 "/>
<path d="M665997 816453 L636528 816453 L640738 813646 L643544 810840 L644947 808033 "/>
<path d="M636528 851535 L636528 837502 L650561 836099 L649157 837502 L647754 840309 L647754 847325 L649157 850132 L650561 851535 L653367 852938 L660384 852938 L663190 851535 L664593 850132 L665997 847325 L665997 840309 L664593 837502 L663190 836099 "/>
</g></g>
<g style="fill:#000084; fill-opacity:0.0;  stroke:#000084; stroke-width:5893.792666; stroke-opacity:1;  stroke-linecap:round; stroke-linejoin:round;">
<path d="M819425 914360 L893097 914360 "/>
<path d="M893097 914360 L893097 796485 "/>
<path d="M819425 796485 L819425 914360 "/>
<path d="M893097 796485 L819425 796485 "/>
<path d="M1446996 1520655 L1446996 1402779 "/>
<path d="M1373323 1402779 L1373323 1520655 "/>
<path d="M1373323 1520655 L1446996 1520655 "/>
<path d="M1446996 1402779 L1373323 1402779 "/>
<path d="M1485600 953672 L1485600 1071548 "/>
<path d="M1485600 1071548 L1559272 1071548 "/>
<path d="M1559272 953672 L1485600 953672 "/>
<path d="M1559272 1071548 L1559272 953672 "/>
<path d="M2382635 622441 L2382635 504565 "/>
<path d="M2308963 504565 L2308963 622441 "/>
<path d="M2308963 622441 L2382635 622441 "/>
<path d="M2382635 504565 L2308963 504565 "/>
<path d="M2232933 504565 L2159260 504565 "/>
<path d="M2232933 622441 L2232933 504565 "/>
<path d="M2159260 622441 L2232933 622441 "/>
<path d="M2159260 504565 L2159260 622441 "/>
<path d="M1574278 1459312 L1574278 1532985 "/>
<path d="M1574278 1532985 L1692154 1532985 "/>
<path d="M1692154 1532985 L1692154 1459312 "/>
<path d="M1692154 1459312 L1574278 1459312 "/>
<path d="M2539823 1080919 L2466150 1080919 "/>
<path d="M2466150 1080919 L2466150 1198795 "/>
<path d="M2466150 1198795 L2539823 1198795 "/>
<path d="M2539823 1198795 L2539823 1080919 "/>
<path d="M2279376 710801 L2279376 784473 "/>
<path d="M2397252 784473 L2397252 710801 "/>
<path d="M2397252 710801 L2279376 710801 "/>
<path d="M2279376 784473 L2397252 784473 "/>
<path d="M819425 579416 L819425 697292 "/>
<path d="M893097 697292 L893097 579416 "/>
<path d="M893097 579416 L819425 579416 "/>
<path d="M819425 697292 L893097 697292 "/>
<path d="M652471 938348 L534595 938348 "/>
<path d="M534595 938348 L534595 1012021 "/>
<path d="M652471 1012021 L652471 938348 "/>
<path d="M534595 1012021 L652471 1012021 "/>
<path d="M1777519 1215651 L1777519 1333527 "/>
<path d="M1777519 1333527 L1851192 1333527 "/>
<path d="M1851192 1333527 L1851192 1215651 "/>
<path d="M1851192 1215651 L1777519 1215651 "/>
<path d="M2285329 1326042 L2285329 1208166 "/>
<path d="M2211656 1326042 L2285329 1326042 "/>
<path d="M2285329 1208166 L2211656 1208166 "/>
<path d="M2211656 1208166 L2211656 1326042 "/>
<path d="M1919737 1333527 L1993409 1333527 "/>
<path d="M1919737 1215651 L1919737 1333527 "/>
<path d="M1993409 1215651 L1919737 1215651 "/>
<path d="M1993409 1333527 L1993409 1215651 "/>
<path d="M2405090 1080919 L2331418 1080919 "/>
<path d="M2331418 1198795 L2405090 1198795 "/>
<path d="M2331418 1080919 L2331418 1198795 "/>
<path d="M2405090 1198795 L2405090 1080919 "/>
<path d="M2213472 944690 L2139799 944690 "/>
<path d="M2139799 944690 L2139799 1062566 "/>
<path d="M2213472 1062566 L2213472 944690 "/>
<path d="M2139799 1062566 L2213472 1062566 "/>
<path d="M2457168 974241 L2530840 974241 "/>
<path d="M2457168 856365 L2457168 974241 "/>
<path d="M2530840 974241 L2530840 856365 "/>
<path d="M2530840 856365 L2457168 856365 "/>
<path d="M2143111 1326042 L2143111 1208166 "/>
<path d="M2069439 1208166 L2069439 1326042 "/>
<path d="M2069439 1326042 L2143111 1326042 "/>
<path d="M2143111 1208166 L2069439 1208166 "/>
<path d="M1053265 1226618 L979592 1226618 "/>
<path d="M1053265 1344493 L1053265 1226618 "/>
<path d="M979592 1226618 L979592 1344493 "/>
<path d="M979592 1344493 L1053265 1344493 "/>
</g>
<g style="fill:#000084; fill-opacity:0.0;  stroke:#000084; stroke-width:8840.688998; stroke-opacity:1;  stroke-linecap:round; stroke-linejoin:round;">
<path d="M773924 1162312 L1223031 1162312 "/>
<path d="M773924 1012610 L773924 1162312 "/>
<path d="M1223031 1162312 L1223031 1012610 "/>
<path d="M1223031 1012610 L773924 1012610 "/>
</g>
<g style="fill:#000084; fill-opacity:0.0;  stroke:#000084; stroke-width:5893.792666; stroke-opacity:1;  stroke-linecap:round; stroke-linejoin:round;">
<path d="M1635302 1071548 L1708975 1071548 "/>
<path d="M1635302 953672 L1635302 1071548 "/>
<path d="M1708975 1071548 L1708975 953672 "/>
<path d="M1708975 953672 L1635302 953672 "/>
<path d="M1538349 1170387 L1538349 1244059 "/>
<path d="M1538349 1244059 L1656225 1244059 "/>
<path d="M1656225 1244059 L1656225 1170387 "/>
<path d="M1656225 1170387 L1538349 1170387 "/>
<path d="M2139799 864959 L2213472 864959 "/>
<path d="M2213472 747083 L2139799 747083 "/>
<path d="M2213472 864959 L2213472 747083 "/>
<path d="M2139799 747083 L2139799 864959 "/>
<path d="M2259561 850377 L2259561 968253 "/>
<path d="M2333233 850377 L2259561 850377 "/>
<path d="M2333233 968253 L2333233 850377 "/>
<path d="M2259561 968253 L2333233 968253 "/>
<path d="M1575775 1350030 L1575775 1423702 "/>
<path d="M1693651 1423702 L1693651 1350030 "/>
<path d="M1693651 1350030 L1575775 1350030 "/>
<path d="M1575775 1423702 L1693651 1423702 "/>
<path d="M1261046 1402779 L1261046 1520655 "/>
<path d="M1334719 1520655 L1334719 1402779 "/>
<path d="M1261046 1520655 L1334719 1520655 "/>
<path d="M1334719 1402779 L1261046 1402779 "/>
<path d="M1192502 809038 L1173347 828193 "/>
<path d="M1173347 828193 L1173347 885658 "/>
<path d="M1344267 885658 L1344267 809038 "/>
<path d="M1173347 885658 L1344267 885658 "/>
<path d="M1344267 809038 L1192502 809038 "/>
<path d="M1184284 1223376 L1110611 1223376 "/>
<path d="M1110611 1223376 L1110611 1341252 "/>
<path d="M1184284 1341252 L1184284 1223376 "/>
<path d="M1110611 1341252 L1184284 1341252 "/>
<path d="M576482 1142715 L694358 1142715 "/>
<path d="M576482 1069043 L576482 1142715 "/>
<path d="M694358 1069043 L576482 1069043 "/>
<path d="M694358 1142715 L694358 1069043 "/>
<path d="M689502 874689 L689502 756813 "/>
<path d="M615829 756813 L615829 874689 "/>
<path d="M615829 874689 L689502 874689 "/>
<path d="M689502 756813 L615829 756813 "/>
<g>
</g>
<g>
</g>
<g>
</g>
<g>
</g>
<g>
</g>
<g>
</g>
<g>
</g>
<g>
</g>
<g>
</g>
<g>
</g>
<g>
</g>
<g>
</g>
<g>
</g>
<g>
</g>
<g>
</g>
<g>
</g>
<g>
</g>
<g>
</g>
<g>
</g>
<g>
</g>
<g>
</g>
<g>
</g>
<g>
</g>
<g>
</g>
<g>
</g>
<g>
</g>
<g>
</g>
<g>
</g>
<g>
</g>
<g>
</g>
<g>
</g>
<g>
</g>
<g>
</g>
<g>
</g>
<g>
</g>
<g>
</g>
<g>
</g>
<g>
</g>
<g>
</g>
<g>
</g>
<g>
</g>
<g>
</g>
</g> 
<svg:g><svg:g><svg:title>SVG Picture created as PCRD01-Edge_Cuts.svg date 2023/05/26 00:38:13 </svg:title>
  <svg:desc>Picture generated by PCBNEW </svg:desc>
<svg:g style="fill:#C2C200; fill-opacity:1.000000;stroke:#C2C200; stroke-opacity:1.000000; stroke-linecap:round; stroke-linejoin:round;" transform="translate(0 0) scale(1 1)">
</svg:g>
<svg:g style="fill:#C2C200; fill-opacity:0.0;  stroke:#C2C200; stroke-width:0.000000; stroke-opacity:1;  stroke-linecap:round; stroke-linejoin:round;">
</svg:g>
<svg:g style="fill:#C2C200; fill-opacity:0.0;  stroke:#C2C200; stroke-width:5893.792666; stroke-opacity:1;  stroke-linecap:round; stroke-linejoin:round;">
<svg:path d="M2967064 166792 L2967064 1933279 "/>
<svg:path d="M2957 1933279 L2957 166792 "/>
<svg:path d="M2957 1933279 L2967064 1933279 "/>
<svg:path d="M2957 166792 L2967064 166792 "/>
<svg:g>
</svg:g>
<svg:g>
</svg:g>
<svg:g>
</svg:g>
<svg:g>
</svg:g>
<svg:g>
</svg:g>
<svg:g>
</svg:g>
<svg:g>
</svg:g>
<svg:g>
</svg:g>
<svg:g>
</svg:g>
<svg:g>
</svg:g>
<svg:g>
</svg:g>
<svg:g>
</svg:g>
<svg:g>
</svg:g>
<svg:g>
</svg:g>
<svg:g>
</svg:g>
<svg:g>
</svg:g>
<svg:g>
</svg:g>
<svg:g>
</svg:g>
<svg:g>
</svg:g>
<svg:g>
</svg:g>
<svg:g>
</svg:g>
<svg:g>
</svg:g>
<svg:g>
</svg:g>
<svg:g>
</svg:g>
<svg:g>
</svg:g>
<svg:g>
</svg:g>
<svg:g>
</svg:g>
<svg:g>
</svg:g>
<svg:g>
</svg:g>
<svg:g>
</svg:g>
<svg:g>
</svg:g>
<svg:g>
</svg:g>
<svg:g>
</svg:g>
<svg:g>
</svg:g>
<svg:g>
</svg:g>
<svg:g>
</svg:g>
<svg:g>
</svg:g>
<svg:g>
</svg:g>
<svg:g>
</svg:g>
<svg:g>
</svg:g>
<svg:g>
</svg:g>
<svg:g>
</svg:g>
</svg:g> 
</svg:g></svg:g></svg>
