%TF.GenerationSoftware,KiCad,Pcbnew,7.0.5.1-1-g8f565ef7f0-dirty-deb11*%
%TF.CreationDate,2023-07-05T14:53:15+00:00*%
%TF.ProjectId,PCRD01,50435244-3031-42e6-9b69-6361645f7063,01A*%
%TF.SameCoordinates,Original*%
%TF.FileFunction,Copper,L2,Bot*%
%TF.FilePolarity,Positive*%
%FSLAX46Y46*%
G04 Gerber Fmt 4.6, Leading zero omitted, Abs format (unit mm)*
G04 Created by KiCad (PCBNEW 7.0.5.1-1-g8f565ef7f0-dirty-deb11) date 2023-07-05 14:53:15*
%MOMM*%
%LPD*%
G01*
G04 APERTURE LIST*
G04 Aperture macros list*
%AMRoundRect*
0 Rectangle with rounded corners*
0 $1 Rounding radius*
0 $2 $3 $4 $5 $6 $7 $8 $9 X,Y pos of 4 corners*
0 Add a 4 corners polygon primitive as box body*
4,1,4,$2,$3,$4,$5,$6,$7,$8,$9,$2,$3,0*
0 Add four circle primitives for the rounded corners*
1,1,$1+$1,$2,$3*
1,1,$1+$1,$4,$5*
1,1,$1+$1,$6,$7*
1,1,$1+$1,$8,$9*
0 Add four rect primitives between the rounded corners*
20,1,$1+$1,$2,$3,$4,$5,0*
20,1,$1+$1,$4,$5,$6,$7,0*
20,1,$1+$1,$6,$7,$8,$9,0*
20,1,$1+$1,$8,$9,$2,$3,0*%
G04 Aperture macros list end*
%TA.AperFunction,ComponentPad*%
%ADD10R,1.524000X1.524000*%
%TD*%
%TA.AperFunction,ComponentPad*%
%ADD11C,6.000000*%
%TD*%
%TA.AperFunction,SMDPad,CuDef*%
%ADD12RoundRect,0.250000X-0.475000X0.250000X-0.475000X-0.250000X0.475000X-0.250000X0.475000X0.250000X0*%
%TD*%
%TA.AperFunction,SMDPad,CuDef*%
%ADD13RoundRect,0.250000X0.475000X-0.250000X0.475000X0.250000X-0.475000X0.250000X-0.475000X-0.250000X0*%
%TD*%
%TA.AperFunction,SMDPad,CuDef*%
%ADD14RoundRect,0.250000X-0.250000X-0.475000X0.250000X-0.475000X0.250000X0.475000X-0.250000X0.475000X0*%
%TD*%
%TA.AperFunction,SMDPad,CuDef*%
%ADD15RoundRect,0.250000X0.450000X-0.262500X0.450000X0.262500X-0.450000X0.262500X-0.450000X-0.262500X0*%
%TD*%
%TA.AperFunction,SMDPad,CuDef*%
%ADD16RoundRect,0.250000X0.262500X0.450000X-0.262500X0.450000X-0.262500X-0.450000X0.262500X-0.450000X0*%
%TD*%
%TA.AperFunction,SMDPad,CuDef*%
%ADD17RoundRect,0.250000X-0.450000X0.262500X-0.450000X-0.262500X0.450000X-0.262500X0.450000X0.262500X0*%
%TD*%
%TA.AperFunction,SMDPad,CuDef*%
%ADD18RoundRect,0.250000X0.250000X0.475000X-0.250000X0.475000X-0.250000X-0.475000X0.250000X-0.475000X0*%
%TD*%
%TA.AperFunction,SMDPad,CuDef*%
%ADD19R,0.508000X1.143000*%
%TD*%
%TA.AperFunction,SMDPad,CuDef*%
%ADD20R,0.500000X1.000760*%
%TD*%
%TA.AperFunction,SMDPad,CuDef*%
%ADD21R,0.501040X1.000760*%
%TD*%
%TA.AperFunction,SMDPad,CuDef*%
%ADD22RoundRect,0.150000X-0.150000X0.587500X-0.150000X-0.587500X0.150000X-0.587500X0.150000X0.587500X0*%
%TD*%
%TA.AperFunction,ViaPad*%
%ADD23C,0.889000*%
%TD*%
%TA.AperFunction,Conductor*%
%ADD24C,0.500000*%
%TD*%
%TA.AperFunction,Conductor*%
%ADD25C,0.400000*%
%TD*%
G04 APERTURE END LIST*
D10*
%TO.P,J1,1*%
%TO.N,GND*%
X2540000Y8890000D03*
%TO.P,J1,2*%
X0Y8890000D03*
%TO.P,J1,3*%
%TO.N,/+Ubias*%
X2540000Y11430000D03*
%TO.P,J1,4*%
X0Y11430000D03*
%TO.P,J1,5*%
%TO.N,GND*%
X2540000Y13970000D03*
%TO.P,J1,6*%
X0Y13970000D03*
%TD*%
%TO.P,J2,1*%
%TO.N,GND*%
X30276800Y0D03*
%TO.P,J2,2*%
X30276800Y-2540000D03*
%TO.P,J2,3*%
%TO.N,V-*%
X27736800Y0D03*
%TO.P,J2,4*%
X27736800Y-2540000D03*
%TO.P,J2,5*%
%TO.N,V+*%
X25196800Y0D03*
%TO.P,J2,6*%
X25196800Y-2540000D03*
%TO.P,J2,7*%
%TO.N,V-*%
X22656800Y0D03*
%TO.P,J2,8*%
X22656800Y-2540000D03*
%TO.P,J2,9*%
%TO.N,GND*%
X20116800Y0D03*
%TO.P,J2,10*%
X20116800Y-2540000D03*
%TD*%
%TO.P,J5,1*%
%TO.N,GND*%
X42646600Y9245600D03*
%TO.P,J5,2*%
X40106600Y9245600D03*
%TO.P,J5,3*%
%TO.N,Net-(C14-Pad2)*%
X42646600Y11785600D03*
%TO.P,J5,4*%
X40106600Y11785600D03*
%TO.P,J5,5*%
%TO.N,GND*%
X42646600Y14325600D03*
%TO.P,J5,6*%
X40106600Y14325600D03*
%TD*%
D11*
%TO.P,P4,1,P1*%
%TO.N,GND*%
X0Y0D03*
%TD*%
%TO.P,P3,1,P1*%
%TO.N,GND*%
X0Y20320000D03*
%TD*%
%TO.P,P1,1,P1*%
%TO.N,GND*%
X40640000Y0D03*
%TD*%
%TO.P,P2,1,P1*%
%TO.N,GND*%
X40640000Y20320000D03*
%TD*%
D10*
%TO.P,J4,1,P1*%
%TO.N,/#SHDN*%
X20574000Y16510000D03*
%TO.P,J4,2,PM*%
%TO.N,V+*%
X20574000Y19050000D03*
%TD*%
D12*
%TO.P,C1,1*%
%TO.N,Net-(C1-Pad1)*%
X9652000Y14412000D03*
%TO.P,C1,2*%
%TO.N,/K*%
X9652000Y12512000D03*
%TD*%
%TO.P,C2,1*%
%TO.N,Net-(C2-Pad1)*%
X19050000Y4125000D03*
%TO.P,C2,2*%
%TO.N,GND*%
X19050000Y2225000D03*
%TD*%
D13*
%TO.P,C3,1*%
%TO.N,V+*%
X20955000Y9845000D03*
%TO.P,C3,2*%
%TO.N,GND*%
X20955000Y11745000D03*
%TD*%
%TO.P,C5,1*%
%TO.N,V+*%
X34925000Y17465000D03*
%TO.P,C5,2*%
%TO.N,GND*%
X34925000Y19365000D03*
%TD*%
%TO.P,C6,1*%
%TO.N,V+*%
X32385000Y17465000D03*
%TO.P,C6,2*%
%TO.N,GND*%
X32385000Y19365000D03*
%TD*%
D14*
%TO.P,C10,1*%
%TO.N,V-*%
X21884600Y2590800D03*
%TO.P,C10,2*%
%TO.N,GND*%
X23784600Y2590800D03*
%TD*%
D13*
%TO.P,C12,1*%
%TO.N,GND*%
X37592000Y7686000D03*
%TO.P,C12,2*%
%TO.N,Net-(C12-Pad2)*%
X37592000Y9586000D03*
%TD*%
D14*
%TO.P,C14,1*%
%TO.N,Net-(C13-Pad2)*%
X33848000Y15290800D03*
%TO.P,C14,2*%
%TO.N,Net-(C14-Pad2)*%
X35748000Y15290800D03*
%TD*%
D15*
%TO.P,R1,1*%
%TO.N,Net-(C1-Pad1)*%
X9652000Y16232500D03*
%TO.P,R1,2*%
%TO.N,V-*%
X9652000Y18057500D03*
%TD*%
D16*
%TO.P,R2,1*%
%TO.N,Net-(C15-Pad1)*%
X6106800Y11430000D03*
%TO.P,R2,2*%
%TO.N,/+Ubias*%
X4281800Y11430000D03*
%TD*%
D15*
%TO.P,R5,1*%
%TO.N,GND*%
X25908000Y5437500D03*
%TO.P,R5,2*%
%TO.N,Net-(C8-Pad1)*%
X25908000Y7262500D03*
%TD*%
%TO.P,R6,1*%
%TO.N,Net-(C11-Pad1)*%
X33274000Y5564500D03*
%TO.P,R6,2*%
%TO.N,Net-(C11-Pad2)*%
X33274000Y7389500D03*
%TD*%
%TO.P,R7,1*%
%TO.N,GND*%
X28321000Y5437500D03*
%TO.P,R7,2*%
%TO.N,Net-(C11-Pad1)*%
X28321000Y7262500D03*
%TD*%
%TO.P,R8,1*%
%TO.N,Net-(C11-Pad2)*%
X35306000Y7723500D03*
%TO.P,R8,2*%
%TO.N,Net-(C12-Pad2)*%
X35306000Y9548500D03*
%TD*%
%TO.P,R9,1*%
%TO.N,Net-(C12-Pad2)*%
X32054800Y10034900D03*
%TO.P,R9,2*%
%TO.N,Net-(C13-Pad1)*%
X32054800Y11859900D03*
%TD*%
D17*
%TO.P,R11,1*%
%TO.N,Net-(C14-Pad2)*%
X37439600Y13358500D03*
%TO.P,R11,2*%
%TO.N,GND*%
X37439600Y11533500D03*
%TD*%
D13*
%TO.P,C11,1*%
%TO.N,Net-(C11-Pad1)*%
X30861000Y5527000D03*
%TO.P,C11,2*%
%TO.N,Net-(C11-Pad2)*%
X30861000Y7427000D03*
%TD*%
%TO.P,C4,1*%
%TO.N,Net-(C4-Pad1)*%
X12369569Y5213931D03*
%TO.P,C4,2*%
%TO.N,/A*%
X12369569Y7113931D03*
%TD*%
D10*
%TO.P,J3,1*%
%TO.N,/K*%
X9525000Y9525000D03*
%TO.P,J3,2*%
%TO.N,GND*%
X12065000Y9525000D03*
%TO.P,J3,3*%
%TO.N,/A*%
X14605000Y9525000D03*
%TD*%
D13*
%TO.P,C9,1*%
%TO.N,V-*%
X23495000Y9845000D03*
%TO.P,C9,2*%
%TO.N,GND*%
X23495000Y11745000D03*
%TD*%
D18*
%TO.P,C8,1*%
%TO.N,Net-(C8-Pad1)*%
X23175000Y7493000D03*
%TO.P,C8,2*%
%TO.N,Net-(C4-Pad1)*%
X21275000Y7493000D03*
%TD*%
D13*
%TO.P,C13,1*%
%TO.N,Net-(C13-Pad1)*%
X32054800Y13350200D03*
%TO.P,C13,2*%
%TO.N,Net-(C13-Pad2)*%
X32054800Y15250200D03*
%TD*%
D15*
%TO.P,R10,1*%
%TO.N,Net-(C12-Pad2)*%
X34086800Y11635100D03*
%TO.P,R10,2*%
%TO.N,Net-(C13-Pad2)*%
X34086800Y13460100D03*
%TD*%
D14*
%TO.P,C7,1*%
%TO.N,V-*%
X21910000Y4445000D03*
%TO.P,C7,2*%
%TO.N,GND*%
X23810000Y4445000D03*
%TD*%
D19*
%TO.P,U2,1*%
%TO.N,Net-(C11-Pad2)*%
X29845000Y10160000D03*
%TO.P,U2,2,-*%
%TO.N,Net-(C11-Pad1)*%
X28575000Y10160000D03*
%TO.P,U2,3,+*%
%TO.N,Net-(C8-Pad1)*%
X27305000Y10160000D03*
%TO.P,U2,4,V-*%
%TO.N,V-*%
X26035000Y10160000D03*
%TO.P,U2,5,+*%
%TO.N,GND*%
X26035000Y16510000D03*
%TO.P,U2,6,-*%
%TO.N,Net-(C13-Pad1)*%
X27305000Y16510000D03*
%TO.P,U2,7*%
%TO.N,Net-(C13-Pad2)*%
X28575000Y16510000D03*
%TO.P,U2,8,V+*%
%TO.N,V+*%
X29845000Y16510000D03*
%TD*%
D20*
%TO.P,U1,1*%
%TO.N,Net-(C4-Pad1)*%
X19240500Y6223000D03*
%TO.P,U1,2,V-*%
%TO.N,V-*%
X18288000Y6223000D03*
%TO.P,U1,3,+*%
%TO.N,Net-(C2-Pad1)*%
X17335500Y6223000D03*
D21*
%TO.P,U1,4,-*%
%TO.N,/A*%
X17335500Y8763000D03*
D20*
%TO.P,U1,5,#SHDN*%
%TO.N,/#SHDN*%
X18288000Y8763000D03*
%TO.P,U1,6,V+*%
%TO.N,V+*%
X19240500Y8763000D03*
%TD*%
D15*
%TO.P,R3,1*%
%TO.N,GND*%
X17145000Y2262500D03*
%TO.P,R3,2*%
%TO.N,Net-(C2-Pad1)*%
X17145000Y4087500D03*
%TD*%
D22*
%TO.P,Q1,1,S*%
%TO.N,Net-(C1-Pad1)*%
X15532000Y14536500D03*
%TO.P,Q1,2,D*%
%TO.N,V+*%
X17432000Y14536500D03*
%TO.P,Q1,3,G*%
%TO.N,/A*%
X16482000Y12661500D03*
%TD*%
D15*
%TO.P,R4,1*%
%TO.N,Net-(C4-Pad1)*%
X14592569Y5306431D03*
%TO.P,R4,2*%
%TO.N,/A*%
X14592569Y7131431D03*
%TD*%
D16*
%TO.P,R12,1*%
%TO.N,/K*%
X6817500Y9212500D03*
%TO.P,R12,2*%
%TO.N,Net-(C15-Pad1)*%
X4992500Y9212500D03*
%TD*%
D13*
%TO.P,C15,1*%
%TO.N,Net-(C15-Pad1)*%
X6197600Y13185100D03*
%TO.P,C15,2*%
%TO.N,GND*%
X6197600Y15085100D03*
%TD*%
D23*
%TO.N,GND*%
X24739600Y16510000D03*
X17043400Y22402800D03*
X32766000Y21818600D03*
X27762200Y22301200D03*
X24765000Y13970000D03*
X21996400Y13208000D03*
X23266400Y3454400D03*
X-2184400Y15900400D03*
X-2184400Y4826000D03*
X28600400Y12242800D03*
X33375600Y3733800D03*
X1282000Y4999000D03*
X37033200Y5105400D03*
X27495500Y3238500D03*
X23037800Y22199600D03*
X12217400Y22834600D03*
X4292600Y18516600D03*
%TO.N,V+*%
X19690447Y9519689D03*
X17449800Y13538200D03*
X28732000Y18349000D03*
%TO.N,Net-(C4-Pad1)*%
X19939000Y6235700D03*
X15646931Y5584069D03*
%TO.N,V-*%
X21920200Y4432300D03*
X22298002Y9906000D03*
X18521400Y15438400D03*
%TD*%
D24*
%TO.N,Net-(C1-Pad1)*%
X9652000Y14414500D02*
X15557500Y14414500D01*
X9652000Y14414500D02*
X9652000Y16192500D01*
D25*
%TO.N,Net-(C2-Pad1)*%
X17332000Y6219500D02*
X17335500Y6223000D01*
X19050000Y4127500D02*
X17145000Y4127500D01*
X17332000Y4314500D02*
X17332000Y6219500D01*
%TO.N,GND*%
X25908000Y5397500D02*
X26162000Y5397500D01*
D24*
%TO.N,V+*%
X25196800Y4124960D02*
X24707001Y4614759D01*
X34925000Y17462500D02*
X32385000Y17462500D01*
X17449800Y13538200D02*
X17449800Y14518700D01*
X29845000Y16510000D02*
X31432500Y16510000D01*
X25196800Y0D02*
X25196800Y4124960D01*
X22167001Y6575639D02*
X22167001Y8630499D01*
X28732000Y18349000D02*
X29845000Y17236000D01*
D25*
X19240500Y8763000D02*
X19240500Y8826500D01*
D24*
X19240500Y9069742D02*
X19690447Y9519689D01*
X29845000Y17236000D02*
X29845000Y16510000D01*
X19240500Y8763000D02*
X19240500Y9069742D01*
X22398141Y6344499D02*
X22167001Y6575639D01*
X31432500Y16510000D02*
X32385000Y17462500D01*
X20632189Y9519689D02*
X20955000Y9842500D01*
X19690447Y9519689D02*
X20632189Y9519689D01*
X24707001Y5503501D02*
X23866003Y6344499D01*
X17454500Y13538200D02*
X17449800Y13538200D01*
X17449800Y14518700D02*
X17432000Y14536500D01*
X17462500Y13530200D02*
X17454500Y13538200D01*
X24707001Y4614759D02*
X24707001Y5503501D01*
X25196800Y-2540000D02*
X25196800Y0D01*
X23866003Y6344499D02*
X22398141Y6344499D01*
X22167001Y8630499D02*
X20955000Y9842500D01*
%TO.N,Net-(C4-Pad1)*%
X21272500Y7239000D02*
X20269200Y6235700D01*
X19310383Y6235700D02*
X19939000Y6235700D01*
X15646931Y5584069D02*
X15261862Y5199000D01*
X20269200Y6235700D02*
X19939000Y6235700D01*
X15261862Y5199000D02*
X12382000Y5199000D01*
X19240500Y6223000D02*
X19253200Y6235700D01*
X19253200Y6235700D02*
X19310383Y6235700D01*
X21272500Y7493000D02*
X21272500Y7239000D01*
%TO.N,V-*%
X18521400Y15438400D02*
X15862300Y18097500D01*
X18630499Y5272619D02*
X20135381Y5272619D01*
X27736800Y-2746200D02*
X26432000Y-4051000D01*
D25*
X22298002Y9906000D02*
X23431500Y9906000D01*
X21882100Y4419600D02*
X21907500Y4445000D01*
D24*
X26432000Y-4051000D02*
X24032000Y-4051000D01*
D25*
X21882100Y2590800D02*
X21882100Y4419600D01*
D24*
X25717500Y9842500D02*
X26035000Y10160000D01*
X20135381Y5272619D02*
X20963000Y4445000D01*
X22656800Y0D02*
X22656800Y-2540000D01*
X18288000Y5615118D02*
X18630499Y5272619D01*
X27736800Y-2540000D02*
X27736800Y0D01*
X23495000Y9842500D02*
X25717500Y9842500D01*
X21907500Y4445000D02*
X20963000Y4445000D01*
X18288000Y6223000D02*
X18288000Y5615118D01*
X24032000Y-4051000D02*
X22656800Y-2675800D01*
X22656800Y0D02*
X22656800Y1816100D01*
X15862300Y18097500D02*
X9652000Y18097500D01*
D25*
X21907500Y4445000D02*
X21920200Y4432300D01*
D24*
X22656800Y1816100D02*
X21882100Y2590800D01*
D25*
%TO.N,Net-(C8-Pad1)*%
X25908000Y7302500D02*
X27305000Y8699500D01*
D24*
X23177500Y7493000D02*
X25717500Y7493000D01*
D25*
X27305000Y8699500D02*
X27305000Y10381000D01*
D24*
X25717500Y7493000D02*
X25908000Y7302500D01*
D25*
%TO.N,Net-(C11-Pad1)*%
X29083000Y7302500D02*
X30861000Y5524500D01*
X28575000Y10381000D02*
X28575000Y7556500D01*
X28575000Y7556500D02*
X28321000Y7302500D01*
X28321000Y7302500D02*
X29083000Y7302500D01*
X30861000Y5524500D02*
X33274000Y5524500D01*
%TO.N,Net-(C11-Pad2)*%
X35052000Y7429500D02*
X35306000Y7683500D01*
X33274000Y7429500D02*
X35052000Y7429500D01*
X29845000Y8445500D02*
X30861000Y7429500D01*
X29845000Y10381000D02*
X29845000Y8445500D01*
X30861000Y7429500D02*
X33274000Y7429500D01*
%TO.N,Net-(C12-Pad2)*%
X37592000Y9588500D02*
X35306000Y9588500D01*
X35306000Y9588500D02*
X35306000Y10375900D01*
X35306000Y10375900D02*
X34086800Y11595100D01*
X32486600Y9994900D02*
X34086800Y11595100D01*
X32054800Y9994900D02*
X32486600Y9994900D01*
%TO.N,Net-(C13-Pad1)*%
X32054800Y11899900D02*
X32054800Y13347700D01*
X29683300Y13347700D02*
X27305000Y15726000D01*
X27305000Y15726000D02*
X27305000Y16510000D01*
X32054800Y13347700D02*
X29683300Y13347700D01*
%TO.N,Net-(C13-Pad2)*%
X28575000Y15756000D02*
X29078300Y15252700D01*
X33845500Y13741400D02*
X34086800Y13500100D01*
X32054800Y15252700D02*
X33807400Y15252700D01*
X28575000Y16510000D02*
X28575000Y15756000D01*
X33807400Y15252700D02*
X33845500Y15290800D01*
X33845500Y15290800D02*
X33845500Y13741400D01*
X29078300Y15252700D02*
X32054800Y15252700D01*
%TO.N,Net-(C14-Pad2)*%
X40106600Y11785600D02*
X42646600Y11785600D01*
X35750500Y15290800D02*
X35750500Y15087600D01*
X37439600Y13398500D02*
X38493700Y13398500D01*
X38493700Y13398500D02*
X40106600Y11785600D01*
X35750500Y15087600D02*
X37439600Y13398500D01*
%TO.N,/#SHDN*%
X18288000Y8763000D02*
X18288000Y12171498D01*
X18288000Y12171498D02*
X20701000Y14584498D01*
X20701000Y15284500D02*
X20701000Y16510000D01*
X20701000Y14584498D02*
X20701000Y15284500D01*
%TO.N,/+Ubias*%
X4241800Y11430000D02*
X2540000Y11430000D01*
D24*
X0Y11430000D02*
X2540000Y11430000D01*
%TO.N,/K*%
X9525000Y12382500D02*
X9652000Y12509500D01*
X9525000Y9525000D02*
X9525000Y11484490D01*
D25*
X7175500Y9525000D02*
X9525000Y9525000D01*
D24*
X9525000Y11484490D02*
X9525000Y12382500D01*
%TO.N,/A*%
X16573500Y9525000D02*
X14605000Y9525000D01*
X14537569Y7116431D02*
X12369569Y7116431D01*
X14605000Y7556500D02*
X14550000Y7501500D01*
X16573500Y9525000D02*
X16573500Y12570000D01*
X14605000Y7556500D02*
X14605000Y9525000D01*
X17335500Y8763000D02*
X16573500Y9525000D01*
D25*
%TO.N,Net-(C15-Pad1)*%
X4952500Y10235700D02*
X6146800Y11430000D01*
X6197600Y11480800D02*
X6146800Y11430000D01*
X6197600Y13182600D02*
X6197600Y11480800D01*
X4952500Y9212500D02*
X4952500Y10235700D01*
%TD*%
%TA.AperFunction,Conductor*%
%TO.N,GND*%
G36*
X45374691Y25076593D02*
G01*
X45410655Y25027093D01*
X45415500Y24996500D01*
X45415500Y-4676500D01*
X45396593Y-4734691D01*
X45347093Y-4770655D01*
X45316500Y-4775500D01*
X27020771Y-4775500D01*
X26962580Y-4756593D01*
X26926616Y-4707093D01*
X26926616Y-4645907D01*
X26948759Y-4608564D01*
X26975656Y-4580054D01*
X26976660Y-4579020D01*
X27716186Y-3839496D01*
X27770702Y-3811719D01*
X27786189Y-3810500D01*
X28547435Y-3810500D01*
X28547438Y-3810500D01*
X28608001Y-3803989D01*
X28745004Y-3752889D01*
X28862061Y-3665261D01*
X28949689Y-3548204D01*
X29000789Y-3411201D01*
X29007300Y-3350638D01*
X29007300Y-1729362D01*
X29000789Y-1668799D01*
X28949689Y-1531796D01*
X28862061Y-1414739D01*
X28774580Y-1349251D01*
X28739329Y-1299245D01*
X28740203Y-1238066D01*
X28774580Y-1190748D01*
X28862061Y-1125261D01*
X28949689Y-1008204D01*
X29000789Y-871201D01*
X29007300Y-810638D01*
X29007300Y810638D01*
X29000789Y871201D01*
X28949689Y1008204D01*
X28862061Y1125261D01*
X28786014Y1182189D01*
X28745007Y1212887D01*
X28745006Y1212888D01*
X28745004Y1212889D01*
X28608001Y1263989D01*
X28608000Y1263990D01*
X28567127Y1268384D01*
X28547438Y1270500D01*
X26926162Y1270500D01*
X26910088Y1268772D01*
X26865600Y1263990D01*
X26789916Y1235761D01*
X26728596Y1212889D01*
X26728594Y1212888D01*
X26728592Y1212887D01*
X26611543Y1125265D01*
X26611535Y1125257D01*
X26546053Y1037783D01*
X26496045Y1002530D01*
X26434865Y1003404D01*
X26387547Y1037783D01*
X26322064Y1125257D01*
X26322063Y1125258D01*
X26322061Y1125261D01*
X26246014Y1182189D01*
X26205007Y1212887D01*
X26205006Y1212888D01*
X26205004Y1212889D01*
X26068001Y1263989D01*
X26068000Y1263990D01*
X26043717Y1266600D01*
X25987881Y1291620D01*
X25957415Y1344681D01*
X25955300Y1365033D01*
X25955300Y4062488D01*
X25956345Y4076836D01*
X25960141Y4102749D01*
X25955487Y4155942D01*
X25955300Y4160242D01*
X25955300Y4169134D01*
X25955299Y4169150D01*
X25954459Y4176333D01*
X25951530Y4201381D01*
X25951394Y4202714D01*
X25946663Y4256792D01*
X25944688Y4279380D01*
X25944686Y4279390D01*
X25944358Y4280380D01*
X25940000Y4300039D01*
X25939879Y4301070D01*
X25939879Y4301073D01*
X25913564Y4373373D01*
X25913119Y4374650D01*
X25888914Y4447699D01*
X25888367Y4448586D01*
X25879592Y4466711D01*
X25879234Y4467694D01*
X25836961Y4531966D01*
X25836187Y4533181D01*
X25833876Y4536927D01*
X25823275Y4554115D01*
X25795831Y4598609D01*
X25795830Y4598610D01*
X25795829Y4598612D01*
X25795083Y4599358D01*
X25782377Y4614958D01*
X25781801Y4615834D01*
X25781800Y4615835D01*
X25751037Y4644858D01*
X25725823Y4668647D01*
X25724837Y4669604D01*
X25494497Y4899945D01*
X25466720Y4954461D01*
X25465501Y4969948D01*
X25465501Y5441028D01*
X25466546Y5455375D01*
X25466586Y5455651D01*
X25470342Y5481290D01*
X25465688Y5534481D01*
X25465501Y5538783D01*
X25465501Y5547675D01*
X25465500Y5547689D01*
X25463747Y5562681D01*
X25461728Y5579951D01*
X25461597Y5581229D01*
X25454888Y5657927D01*
X25454559Y5658920D01*
X25450202Y5678569D01*
X25450080Y5679614D01*
X25423765Y5751911D01*
X25423318Y5753196D01*
X25399115Y5826239D01*
X25399113Y5826242D01*
X25399111Y5826247D01*
X25398568Y5827127D01*
X25389794Y5845251D01*
X25389438Y5846229D01*
X25389436Y5846231D01*
X25389436Y5846233D01*
X25347142Y5910537D01*
X25346387Y5911723D01*
X25330437Y5937583D01*
X25306031Y5977152D01*
X25305284Y5977899D01*
X25292578Y5993499D01*
X25292002Y5994375D01*
X25292001Y5994376D01*
X25252677Y6031476D01*
X25236041Y6047171D01*
X25235022Y6048161D01*
X25191390Y6091793D01*
X25163613Y6146310D01*
X25173184Y6206742D01*
X25216449Y6250007D01*
X25276881Y6259578D01*
X25292528Y6255774D01*
X25303574Y6252113D01*
X25407455Y6241500D01*
X26408544Y6241501D01*
X26408552Y6241501D01*
X26512417Y6252112D01*
X26512417Y6252113D01*
X26512426Y6252113D01*
X26680738Y6307885D01*
X26831652Y6400970D01*
X26957030Y6526348D01*
X27030238Y6645038D01*
X27076880Y6684640D01*
X27137891Y6689263D01*
X27189967Y6657142D01*
X27198761Y6645038D01*
X27271967Y6526352D01*
X27271968Y6526351D01*
X27271970Y6526348D01*
X27397348Y6400970D01*
X27548262Y6307885D01*
X27716574Y6252113D01*
X27820455Y6241500D01*
X28821544Y6241501D01*
X28821552Y6241501D01*
X28925417Y6252112D01*
X28925417Y6252113D01*
X28925426Y6252113D01*
X29022184Y6284176D01*
X29083366Y6284531D01*
X29123326Y6260204D01*
X29598504Y5785026D01*
X29626281Y5730509D01*
X29627500Y5715022D01*
X29627500Y5226448D01*
X29638111Y5122583D01*
X29638112Y5122576D01*
X29638113Y5122574D01*
X29693885Y4954262D01*
X29786970Y4803348D01*
X29912348Y4677970D01*
X30063262Y4584885D01*
X30231574Y4529113D01*
X30335455Y4518500D01*
X31386544Y4518501D01*
X31386552Y4518501D01*
X31490417Y4529112D01*
X31490417Y4529113D01*
X31490426Y4529113D01*
X31658738Y4584885D01*
X31809652Y4677970D01*
X31918687Y4787006D01*
X31973202Y4814781D01*
X31988689Y4816000D01*
X32196310Y4816000D01*
X32254501Y4797093D01*
X32266313Y4787004D01*
X32349255Y4704063D01*
X32350348Y4702970D01*
X32501262Y4609885D01*
X32669574Y4554113D01*
X32773455Y4543500D01*
X33774544Y4543501D01*
X33774552Y4543501D01*
X33878417Y4554112D01*
X33878417Y4554113D01*
X33878426Y4554113D01*
X34046738Y4609885D01*
X34197652Y4702970D01*
X34323030Y4828348D01*
X34416115Y4979262D01*
X34471887Y5147574D01*
X34482500Y5251455D01*
X34482499Y5877544D01*
X34482499Y5877553D01*
X34471888Y5981418D01*
X34471887Y5981420D01*
X34471887Y5981426D01*
X34416115Y6149738D01*
X34323030Y6300652D01*
X34216683Y6406999D01*
X34188907Y6461513D01*
X34198478Y6521945D01*
X34216682Y6547001D01*
X34323030Y6653348D01*
X34335750Y6673972D01*
X34382392Y6713573D01*
X34420012Y6721000D01*
X34661798Y6721000D01*
X34692934Y6715976D01*
X34701574Y6713113D01*
X34805455Y6702500D01*
X35806544Y6702501D01*
X35806552Y6702501D01*
X35910417Y6713112D01*
X35910417Y6713113D01*
X35910426Y6713113D01*
X36078738Y6768885D01*
X36229652Y6861970D01*
X36355030Y6987348D01*
X36448115Y7138262D01*
X36503887Y7306574D01*
X36514500Y7410455D01*
X36514499Y8036544D01*
X36514499Y8036553D01*
X36503888Y8140418D01*
X36503887Y8140420D01*
X36503887Y8140426D01*
X36448115Y8308738D01*
X36355030Y8459652D01*
X36248683Y8565999D01*
X36220908Y8620513D01*
X36230479Y8680945D01*
X36248682Y8706001D01*
X36355030Y8812348D01*
X36367750Y8832972D01*
X36414392Y8872573D01*
X36452012Y8880000D01*
X36459311Y8880000D01*
X36517502Y8861093D01*
X36529308Y8851010D01*
X36643348Y8736970D01*
X36794262Y8643885D01*
X36962574Y8588113D01*
X37066455Y8577500D01*
X38117544Y8577501D01*
X38117552Y8577501D01*
X38221417Y8588112D01*
X38221417Y8588113D01*
X38221426Y8588113D01*
X38389738Y8643885D01*
X38540652Y8736970D01*
X38666030Y8862348D01*
X38759115Y9013262D01*
X38814887Y9181574D01*
X38825500Y9285455D01*
X38825499Y9886544D01*
X38825499Y9886553D01*
X38814888Y9990418D01*
X38814887Y9990420D01*
X38814887Y9990426D01*
X38759115Y10158738D01*
X38666030Y10309652D01*
X38540652Y10435030D01*
X38389738Y10528115D01*
X38221426Y10583887D01*
X38221423Y10583888D01*
X38117553Y10594500D01*
X37066447Y10594500D01*
X36962582Y10583889D01*
X36962570Y10583886D01*
X36794261Y10528115D01*
X36643349Y10435031D01*
X36643348Y10435031D01*
X36643348Y10435030D01*
X36534312Y10325995D01*
X36479798Y10298219D01*
X36464311Y10297000D01*
X36383690Y10297000D01*
X36325499Y10315907D01*
X36313687Y10325996D01*
X36229652Y10410030D01*
X36078738Y10503115D01*
X36068981Y10506348D01*
X36053753Y10511394D01*
X36004465Y10547644D01*
X35989592Y10582645D01*
X35989169Y10582513D01*
X35987850Y10586745D01*
X35987515Y10587534D01*
X35987388Y10588229D01*
X35961473Y10645808D01*
X35960347Y10648526D01*
X35937954Y10707575D01*
X35930767Y10717986D01*
X35921963Y10733598D01*
X35916775Y10745126D01*
X35877841Y10794822D01*
X35876068Y10797231D01*
X35840216Y10849172D01*
X35792975Y10891024D01*
X35790797Y10893074D01*
X35324295Y11359575D01*
X35296518Y11414092D01*
X35295299Y11429579D01*
X35295299Y11948153D01*
X35284688Y12052018D01*
X35284687Y12052020D01*
X35284687Y12052026D01*
X35228915Y12220338D01*
X35135830Y12371252D01*
X35029483Y12477599D01*
X35001708Y12532113D01*
X35011279Y12592545D01*
X35029482Y12617601D01*
X35135830Y12723948D01*
X35228915Y12874862D01*
X35284687Y13043174D01*
X35295300Y13147055D01*
X35295299Y13773144D01*
X35295299Y13773145D01*
X35295299Y13773153D01*
X35284688Y13877018D01*
X35284687Y13877020D01*
X35284687Y13877026D01*
X35265257Y13935661D01*
X35264902Y13996842D01*
X35300577Y14046551D01*
X35358657Y14065796D01*
X35369296Y14065285D01*
X35399073Y14062243D01*
X35447455Y14057300D01*
X35737821Y14057301D01*
X35796011Y14038394D01*
X35807825Y14028305D01*
X36202104Y13634026D01*
X36229881Y13579509D01*
X36231100Y13564022D01*
X36231100Y13045448D01*
X36241711Y12941583D01*
X36241712Y12941576D01*
X36241713Y12941574D01*
X36297485Y12773262D01*
X36390570Y12622348D01*
X36515948Y12496970D01*
X36666862Y12403885D01*
X36835174Y12348113D01*
X36939055Y12337500D01*
X37940144Y12337501D01*
X37940152Y12337501D01*
X38044017Y12348112D01*
X38044017Y12348113D01*
X38044026Y12348113D01*
X38212338Y12403885D01*
X38315187Y12467324D01*
X38374639Y12481780D01*
X38431235Y12458530D01*
X38437163Y12453067D01*
X38807104Y12083126D01*
X38834881Y12028609D01*
X38836100Y12013122D01*
X38836100Y10974966D01*
X38842610Y10914401D01*
X38854046Y10883739D01*
X38893711Y10777396D01*
X38893712Y10777394D01*
X38893713Y10777393D01*
X38923285Y10737889D01*
X38981339Y10660339D01*
X39098396Y10572711D01*
X39235399Y10521611D01*
X39295962Y10515100D01*
X39295965Y10515100D01*
X40917235Y10515100D01*
X40917238Y10515100D01*
X40977801Y10521611D01*
X41114804Y10572711D01*
X41231861Y10660339D01*
X41297348Y10747820D01*
X41347355Y10783071D01*
X41408534Y10782197D01*
X41455851Y10747820D01*
X41521339Y10660339D01*
X41638396Y10572711D01*
X41775399Y10521611D01*
X41835962Y10515100D01*
X41835965Y10515100D01*
X43457235Y10515100D01*
X43457238Y10515100D01*
X43517801Y10521611D01*
X43654804Y10572711D01*
X43771861Y10660339D01*
X43859489Y10777396D01*
X43910589Y10914399D01*
X43917100Y10974962D01*
X43917100Y12596238D01*
X43910589Y12656801D01*
X43859489Y12793804D01*
X43771861Y12910861D01*
X43730837Y12941571D01*
X43654807Y12998487D01*
X43654806Y12998488D01*
X43654804Y12998489D01*
X43517801Y13049589D01*
X43517800Y13049590D01*
X43476927Y13053984D01*
X43457238Y13056100D01*
X41835962Y13056100D01*
X41819888Y13054372D01*
X41775400Y13049590D01*
X41699716Y13021361D01*
X41638396Y12998489D01*
X41638394Y12998488D01*
X41638392Y12998487D01*
X41521343Y12910865D01*
X41521335Y12910857D01*
X41455853Y12823383D01*
X41405845Y12788130D01*
X41344665Y12789004D01*
X41297347Y12823383D01*
X41231864Y12910857D01*
X41231863Y12910858D01*
X41231861Y12910861D01*
X41190837Y12941571D01*
X41114807Y12998487D01*
X41114806Y12998488D01*
X41114804Y12998489D01*
X40977801Y13049589D01*
X40977800Y13049590D01*
X40936927Y13053984D01*
X40917238Y13056100D01*
X40917234Y13056100D01*
X39879078Y13056100D01*
X39820887Y13075007D01*
X39809074Y13085096D01*
X39010872Y13883299D01*
X39008822Y13885477D01*
X38989311Y13907500D01*
X38966973Y13932715D01*
X38915018Y13968577D01*
X38912632Y13970332D01*
X38886169Y13991065D01*
X38862931Y14009272D01*
X38862920Y14009279D01*
X38851388Y14014469D01*
X38835787Y14023268D01*
X38825375Y14030454D01*
X38825370Y14030456D01*
X38825368Y14030457D01*
X38766365Y14052834D01*
X38763602Y14053978D01*
X38706033Y14079888D01*
X38706030Y14079889D01*
X38693576Y14082172D01*
X38676329Y14086981D01*
X38664510Y14091463D01*
X38664502Y14091465D01*
X38601851Y14099073D01*
X38598897Y14099523D01*
X38536788Y14110903D01*
X38520528Y14109919D01*
X38461302Y14125279D01*
X38444549Y14138734D01*
X38363252Y14220030D01*
X38212338Y14313115D01*
X38044023Y14368888D01*
X37940153Y14379500D01*
X37940145Y14379500D01*
X37501578Y14379500D01*
X37443387Y14398407D01*
X37431574Y14408496D01*
X36785495Y15054575D01*
X36757718Y15109092D01*
X36756499Y15124579D01*
X36756499Y15816353D01*
X36745888Y15920218D01*
X36745887Y15920220D01*
X36745887Y15920226D01*
X36690115Y16088538D01*
X36597030Y16239452D01*
X36471652Y16364830D01*
X36320738Y16457915D01*
X36152426Y16513687D01*
X36152423Y16513688D01*
X36048553Y16524300D01*
X36048545Y16524300D01*
X36020989Y16524300D01*
X35962798Y16543207D01*
X35926834Y16592707D01*
X35926834Y16653893D01*
X35950983Y16693302D01*
X35999030Y16741348D01*
X36092115Y16892262D01*
X36147887Y17060574D01*
X36158500Y17164455D01*
X36158499Y17765544D01*
X36158499Y17765545D01*
X36158499Y17765553D01*
X36147888Y17869418D01*
X36147887Y17869420D01*
X36147887Y17869426D01*
X36092115Y18037738D01*
X35999030Y18188652D01*
X35873652Y18314030D01*
X35722738Y18407115D01*
X35554426Y18462887D01*
X35554423Y18462888D01*
X35450553Y18473500D01*
X34399447Y18473500D01*
X34295582Y18462889D01*
X34295570Y18462886D01*
X34127261Y18407115D01*
X33976347Y18314030D01*
X33912313Y18249996D01*
X33857796Y18222219D01*
X33842310Y18221000D01*
X33467690Y18221000D01*
X33409499Y18239907D01*
X33397687Y18249996D01*
X33333652Y18314030D01*
X33182738Y18407115D01*
X33014423Y18462888D01*
X32910553Y18473500D01*
X31859447Y18473500D01*
X31755582Y18462889D01*
X31755570Y18462886D01*
X31587261Y18407115D01*
X31436349Y18314031D01*
X31310969Y18188651D01*
X31217885Y18037739D01*
X31162112Y17869424D01*
X31151500Y17765554D01*
X31151500Y17367500D01*
X31132593Y17309309D01*
X31083093Y17273345D01*
X31052500Y17268500D01*
X30694271Y17268500D01*
X30636080Y17287407D01*
X30600116Y17336907D01*
X30595648Y17358872D01*
X30592887Y17390422D01*
X30592887Y17390426D01*
X30592558Y17391419D01*
X30588201Y17411068D01*
X30588079Y17412113D01*
X30561764Y17484410D01*
X30561317Y17485695D01*
X30537114Y17558738D01*
X30537112Y17558741D01*
X30537110Y17558746D01*
X30536567Y17559626D01*
X30527793Y17577750D01*
X30527437Y17578728D01*
X30527435Y17578730D01*
X30527435Y17578732D01*
X30485141Y17643036D01*
X30484386Y17644222D01*
X30467331Y17671873D01*
X30444030Y17709651D01*
X30443283Y17710398D01*
X30430577Y17725998D01*
X30430001Y17726874D01*
X30430000Y17726875D01*
X30389012Y17765545D01*
X30374040Y17779670D01*
X30373021Y17780660D01*
X29702086Y18451595D01*
X29674309Y18506112D01*
X29673569Y18511871D01*
X29671211Y18535821D01*
X29616717Y18715462D01*
X29528224Y18881020D01*
X29409133Y19026133D01*
X29264020Y19145224D01*
X29264019Y19145225D01*
X29098466Y19233715D01*
X29098465Y19233716D01*
X29098462Y19233717D01*
X29078716Y19239707D01*
X28918821Y19288212D01*
X28918815Y19288213D01*
X28732003Y19306611D01*
X28731997Y19306611D01*
X28545184Y19288213D01*
X28545178Y19288212D01*
X28365544Y19233719D01*
X28365541Y19233718D01*
X28365538Y19233717D01*
X28365536Y19233717D01*
X28365533Y19233715D01*
X28199980Y19145225D01*
X28054872Y19026138D01*
X28054862Y19026128D01*
X27935775Y18881020D01*
X27847285Y18715467D01*
X27847281Y18715456D01*
X27792788Y18535822D01*
X27792787Y18535816D01*
X27774389Y18349004D01*
X27774389Y18348997D01*
X27792787Y18162185D01*
X27792788Y18162179D01*
X27829307Y18041796D01*
X27847283Y17982538D01*
X27847284Y17982535D01*
X27847285Y17982534D01*
X27935776Y17816980D01*
X27935778Y17816978D01*
X28054860Y17671873D01*
X28054864Y17671870D01*
X28054865Y17671869D01*
X28054867Y17671867D01*
X28055642Y17671231D01*
X28055889Y17670844D01*
X28058301Y17668433D01*
X28057771Y17667904D01*
X28088629Y17619699D01*
X28085027Y17558620D01*
X28052166Y17515450D01*
X27999329Y17475896D01*
X27941415Y17456159D01*
X27882960Y17474233D01*
X27880672Y17475895D01*
X27805206Y17532388D01*
X27805204Y17532389D01*
X27668201Y17583489D01*
X27668200Y17583490D01*
X27627327Y17587884D01*
X27607638Y17590000D01*
X27002362Y17590000D01*
X26986288Y17588272D01*
X26941800Y17583490D01*
X26875123Y17558620D01*
X26804796Y17532389D01*
X26804794Y17532388D01*
X26804792Y17532387D01*
X26687743Y17444765D01*
X26687735Y17444757D01*
X26600113Y17327708D01*
X26600112Y17327706D01*
X26600111Y17327704D01*
X26593250Y17309309D01*
X26549010Y17190700D01*
X26542500Y17130135D01*
X26542500Y15889866D01*
X26549010Y15829300D01*
X26549011Y15829299D01*
X26586807Y15727963D01*
X26592869Y15687395D01*
X26592597Y15682908D01*
X26603977Y15620803D01*
X26604427Y15617849D01*
X26612035Y15555198D01*
X26612037Y15555190D01*
X26616519Y15543371D01*
X26621328Y15526124D01*
X26623611Y15513670D01*
X26623612Y15513667D01*
X26649522Y15456098D01*
X26650666Y15453335D01*
X26671460Y15398505D01*
X26673046Y15394325D01*
X26677684Y15387605D01*
X26680231Y15383916D01*
X26689031Y15368312D01*
X26694221Y15356780D01*
X26694228Y15356769D01*
X26704242Y15343988D01*
X26733168Y15307068D01*
X26734923Y15304682D01*
X26766802Y15258497D01*
X26770784Y15252729D01*
X26770786Y15252726D01*
X26818023Y15210878D01*
X26820201Y15208828D01*
X29166126Y12862903D01*
X29168176Y12860725D01*
X29210028Y12813484D01*
X29211390Y12812544D01*
X29257570Y12780668D01*
X29261969Y12777632D01*
X29264378Y12775859D01*
X29303337Y12745337D01*
X29314074Y12736925D01*
X29325606Y12731735D01*
X29341212Y12722933D01*
X29351621Y12715748D01*
X29351622Y12715748D01*
X29351625Y12715746D01*
X29401533Y12696819D01*
X29410642Y12693364D01*
X29413384Y12692230D01*
X29470971Y12666311D01*
X29483417Y12664031D01*
X29500666Y12659223D01*
X29512499Y12654735D01*
X29575186Y12647124D01*
X29578072Y12646685D01*
X29640207Y12635298D01*
X29703235Y12639111D01*
X29706202Y12639200D01*
X30855002Y12639200D01*
X30913193Y12620293D01*
X30949157Y12570793D01*
X30949157Y12509607D01*
X30939263Y12488227D01*
X30912685Y12445139D01*
X30856912Y12276824D01*
X30846300Y12172954D01*
X30846300Y11546848D01*
X30856911Y11442983D01*
X30856912Y11442976D01*
X30856913Y11442974D01*
X30912685Y11274662D01*
X31005770Y11123748D01*
X31112116Y11017402D01*
X31139892Y10962887D01*
X31130321Y10902455D01*
X31112117Y10877400D01*
X31031949Y10797231D01*
X31005769Y10771051D01*
X30912685Y10620139D01*
X30856912Y10451824D01*
X30846300Y10347954D01*
X30846300Y9721848D01*
X30856911Y9617983D01*
X30856912Y9617976D01*
X30856913Y9617974D01*
X30912685Y9449662D01*
X31005770Y9298748D01*
X31131148Y9173370D01*
X31282062Y9080285D01*
X31450374Y9024513D01*
X31554255Y9013900D01*
X32555344Y9013901D01*
X32555352Y9013901D01*
X32659217Y9024512D01*
X32659217Y9024513D01*
X32659226Y9024513D01*
X32827538Y9080285D01*
X32978452Y9173370D01*
X33103830Y9298748D01*
X33196915Y9449662D01*
X33252687Y9617974D01*
X33263300Y9721855D01*
X33263299Y9728615D01*
X33282200Y9786805D01*
X33292289Y9798621D01*
X34016797Y10523129D01*
X34071312Y10550904D01*
X34131744Y10541333D01*
X34156802Y10523127D01*
X34202630Y10477300D01*
X34256120Y10423810D01*
X34283898Y10369295D01*
X34274327Y10308863D01*
X34260213Y10289435D01*
X34260545Y10289173D01*
X34256971Y10284654D01*
X34163885Y10133739D01*
X34108112Y9965424D01*
X34097500Y9861554D01*
X34097500Y9235448D01*
X34108111Y9131583D01*
X34108112Y9131576D01*
X34108113Y9131574D01*
X34163885Y8963262D01*
X34256970Y8812348D01*
X34363315Y8706003D01*
X34391091Y8651488D01*
X34381520Y8591056D01*
X34363314Y8565998D01*
X34256970Y8459653D01*
X34256966Y8459648D01*
X34199378Y8366283D01*
X34152737Y8326682D01*
X34091727Y8322059D01*
X34063146Y8333995D01*
X34046740Y8344114D01*
X34046739Y8344115D01*
X34046738Y8344115D01*
X33878426Y8399887D01*
X33878423Y8399888D01*
X33774553Y8410500D01*
X32773447Y8410500D01*
X32669582Y8399889D01*
X32669570Y8399886D01*
X32501261Y8344115D01*
X32350347Y8251030D01*
X32266313Y8166996D01*
X32211796Y8139219D01*
X32196310Y8138000D01*
X31988689Y8138000D01*
X31930498Y8156907D01*
X31918691Y8166991D01*
X31809652Y8276030D01*
X31658738Y8369115D01*
X31490426Y8424887D01*
X31490423Y8424888D01*
X31386553Y8435500D01*
X31386545Y8435500D01*
X30897978Y8435500D01*
X30839787Y8454407D01*
X30827974Y8464497D01*
X30582496Y8709976D01*
X30554719Y8764492D01*
X30553500Y8779979D01*
X30553500Y9334117D01*
X30559741Y9368712D01*
X30600989Y9479299D01*
X30607500Y9539862D01*
X30607500Y10780138D01*
X30600989Y10840701D01*
X30549889Y10977704D01*
X30462261Y11094761D01*
X30423536Y11123750D01*
X30345207Y11182387D01*
X30345206Y11182388D01*
X30345204Y11182389D01*
X30208201Y11233489D01*
X30208200Y11233490D01*
X30167327Y11237884D01*
X30147638Y11240000D01*
X29542362Y11240000D01*
X29526288Y11238272D01*
X29481800Y11233490D01*
X29344793Y11182388D01*
X29269328Y11125895D01*
X29211413Y11106159D01*
X29152958Y11124234D01*
X29150672Y11125895D01*
X29075206Y11182388D01*
X29075204Y11182389D01*
X28938201Y11233489D01*
X28938200Y11233490D01*
X28897327Y11237884D01*
X28877638Y11240000D01*
X28272362Y11240000D01*
X28256288Y11238272D01*
X28211800Y11233490D01*
X28074793Y11182388D01*
X27999328Y11125895D01*
X27941413Y11106159D01*
X27882958Y11124234D01*
X27880672Y11125895D01*
X27805206Y11182388D01*
X27805204Y11182389D01*
X27668201Y11233489D01*
X27668200Y11233490D01*
X27627327Y11237884D01*
X27607638Y11240000D01*
X27002362Y11240000D01*
X26986288Y11238272D01*
X26941800Y11233490D01*
X26804793Y11182388D01*
X26729328Y11125895D01*
X26671413Y11106159D01*
X26612958Y11124234D01*
X26610672Y11125895D01*
X26535206Y11182388D01*
X26535204Y11182389D01*
X26398201Y11233489D01*
X26398200Y11233490D01*
X26357327Y11237884D01*
X26337638Y11240000D01*
X25732362Y11240000D01*
X25716288Y11238272D01*
X25671800Y11233490D01*
X25596116Y11205261D01*
X25534796Y11182389D01*
X25534794Y11182388D01*
X25534792Y11182387D01*
X25417743Y11094765D01*
X25417735Y11094757D01*
X25330113Y10977708D01*
X25330112Y10977706D01*
X25330111Y10977704D01*
X25318808Y10947400D01*
X25279010Y10840700D01*
X25274338Y10797231D01*
X25272722Y10782197D01*
X25272500Y10780135D01*
X25272500Y10700000D01*
X25253593Y10641809D01*
X25204093Y10605845D01*
X25173500Y10601000D01*
X24577690Y10601000D01*
X24519499Y10619907D01*
X24507687Y10629996D01*
X24443652Y10694030D01*
X24292738Y10787115D01*
X24124423Y10842888D01*
X24020553Y10853500D01*
X22969447Y10853500D01*
X22865582Y10842889D01*
X22865574Y10842888D01*
X22865574Y10842887D01*
X22865571Y10842887D01*
X22865567Y10842885D01*
X22717078Y10793683D01*
X22657201Y10792921D01*
X22484823Y10845212D01*
X22484817Y10845213D01*
X22298005Y10863611D01*
X22297999Y10863611D01*
X22111186Y10845213D01*
X22111183Y10845212D01*
X21931537Y10790716D01*
X21882815Y10764674D01*
X21822582Y10753919D01*
X21784175Y10767725D01*
X21768500Y10777393D01*
X21764026Y10780153D01*
X21724425Y10826795D01*
X21717000Y10864413D01*
X21717000Y10921999D01*
X21717000Y10922000D01*
X21716999Y10922000D01*
X19997458Y10922000D01*
X19939267Y10940907D01*
X19910768Y10973189D01*
X19843721Y11094757D01*
X19300079Y12080482D01*
X19288534Y12140567D01*
X19314511Y12195965D01*
X19316710Y12198240D01*
X21185788Y14067318D01*
X21187943Y14069348D01*
X21235215Y14111225D01*
X21271078Y14163182D01*
X21272852Y14165592D01*
X21281687Y14176869D01*
X21311775Y14215272D01*
X21316969Y14226814D01*
X21325769Y14242415D01*
X21332954Y14252823D01*
X21355346Y14311870D01*
X21356483Y14314611D01*
X21382387Y14372166D01*
X21382386Y14372166D01*
X21382388Y14372168D01*
X21384668Y14384613D01*
X21389479Y14401872D01*
X21393965Y14413697D01*
X21401575Y14476382D01*
X21402020Y14479306D01*
X21413401Y14541405D01*
X21409588Y14604423D01*
X21409499Y14607392D01*
X21409499Y14918978D01*
X21409499Y15163962D01*
X21428406Y15222150D01*
X21473899Y15256716D01*
X21582204Y15297111D01*
X21699261Y15384739D01*
X21786889Y15501796D01*
X21837989Y15638799D01*
X21844500Y15699362D01*
X21844500Y17320638D01*
X21837989Y17381201D01*
X21786889Y17518204D01*
X21699261Y17635261D01*
X21611780Y17700749D01*
X21576529Y17750755D01*
X21577403Y17811934D01*
X21611780Y17859252D01*
X21699261Y17924739D01*
X21786889Y18041796D01*
X21837989Y18178799D01*
X21844500Y18239362D01*
X21844500Y19860638D01*
X21837989Y19921201D01*
X21786889Y20058204D01*
X21699261Y20175261D01*
X21582204Y20262889D01*
X21445201Y20313989D01*
X21445200Y20313990D01*
X21404327Y20318384D01*
X21384638Y20320500D01*
X19763362Y20320500D01*
X19747288Y20318772D01*
X19702800Y20313990D01*
X19627116Y20285761D01*
X19565796Y20262889D01*
X19565794Y20262888D01*
X19565792Y20262887D01*
X19448743Y20175265D01*
X19448735Y20175257D01*
X19361113Y20058208D01*
X19361112Y20058206D01*
X19361111Y20058204D01*
X19338239Y19996884D01*
X19310010Y19921200D01*
X19303500Y19860635D01*
X19303500Y18239366D01*
X19310010Y18178801D01*
X19310011Y18178799D01*
X19361111Y18041796D01*
X19448739Y17924739D01*
X19448742Y17924737D01*
X19448743Y17924736D01*
X19536217Y17859253D01*
X19571470Y17809245D01*
X19570596Y17748065D01*
X19536217Y17700747D01*
X19448743Y17635265D01*
X19448735Y17635257D01*
X19361113Y17518208D01*
X19361112Y17518206D01*
X19361111Y17518204D01*
X19343975Y17472262D01*
X19310010Y17381200D01*
X19307610Y17358872D01*
X19303577Y17321348D01*
X19303500Y17320635D01*
X19303500Y16238707D01*
X19284593Y16180516D01*
X19235093Y16144552D01*
X19173907Y16144552D01*
X19141696Y16162178D01*
X19114452Y16184536D01*
X19053420Y16234624D01*
X18887862Y16323117D01*
X18820257Y16343625D01*
X18708219Y16377612D01*
X18684291Y16379969D01*
X18628234Y16404490D01*
X18623993Y16408488D01*
X16442808Y18589673D01*
X16433404Y18600557D01*
X16417769Y18621558D01*
X16376877Y18655870D01*
X16373697Y18658784D01*
X16367401Y18665080D01*
X16367396Y18665084D01*
X16341972Y18685188D01*
X16340856Y18686096D01*
X16339087Y18687581D01*
X16281940Y18735532D01*
X16281938Y18735533D01*
X16281937Y18735534D01*
X16280997Y18736006D01*
X16264036Y18746811D01*
X16263209Y18747465D01*
X16263207Y18747466D01*
X16263206Y18747467D01*
X16193468Y18779987D01*
X16192217Y18780593D01*
X16123488Y18815109D01*
X16123490Y18815109D01*
X16122676Y18815302D01*
X16122456Y18815354D01*
X16103465Y18821956D01*
X16102508Y18822403D01*
X16102497Y18822406D01*
X16027127Y18837969D01*
X16025741Y18838276D01*
X15950956Y18856000D01*
X15950954Y18856000D01*
X15949914Y18856000D01*
X15929895Y18858045D01*
X15929450Y18858137D01*
X15928855Y18858260D01*
X15856340Y18856149D01*
X15851939Y18856021D01*
X15850504Y18856000D01*
X10679690Y18856000D01*
X10621499Y18874907D01*
X10609687Y18884996D01*
X10575653Y18919029D01*
X10575652Y18919030D01*
X10424738Y19012115D01*
X10256426Y19067887D01*
X10256423Y19067888D01*
X10152553Y19078500D01*
X9151447Y19078500D01*
X9047582Y19067889D01*
X9047570Y19067886D01*
X8879261Y19012115D01*
X8728349Y18919031D01*
X8602969Y18793651D01*
X8509885Y18642739D01*
X8454112Y18474424D01*
X8443500Y18370554D01*
X8443500Y17744448D01*
X8454111Y17640583D01*
X8454112Y17640576D01*
X8454113Y17640574D01*
X8509885Y17472262D01*
X8602970Y17321348D01*
X8709316Y17215002D01*
X8737092Y17160487D01*
X8727521Y17100055D01*
X8709317Y17075000D01*
X8602968Y16968652D01*
X8602969Y16968651D01*
X8509885Y16817739D01*
X8454112Y16649424D01*
X8443500Y16545554D01*
X8443500Y15919448D01*
X8454111Y15815583D01*
X8454112Y15815576D01*
X8454113Y15815574D01*
X8509885Y15647262D01*
X8602970Y15496348D01*
X8700815Y15398503D01*
X8728591Y15343988D01*
X8719020Y15283556D01*
X8700814Y15258498D01*
X8577973Y15135657D01*
X8577967Y15135649D01*
X8570924Y15124231D01*
X8524281Y15084631D01*
X8487054Y15077208D01*
X7249160Y15072361D01*
X7249159Y15072360D01*
X7256740Y14144168D01*
X7238308Y14085825D01*
X7189104Y14049458D01*
X7127920Y14048959D01*
X7105770Y14059100D01*
X6995342Y14127214D01*
X6827023Y14182988D01*
X6723153Y14193600D01*
X5672047Y14193600D01*
X5568182Y14182989D01*
X5568170Y14182986D01*
X5399861Y14127215D01*
X5248949Y14034131D01*
X5123569Y13908751D01*
X5030485Y13757839D01*
X4974712Y13589524D01*
X4964100Y13485654D01*
X4964100Y12884548D01*
X4974711Y12780683D01*
X4974714Y12780668D01*
X5003939Y12692472D01*
X5004295Y12631288D01*
X4968619Y12581580D01*
X4910539Y12562335D01*
X4872617Y12570624D01*
X4872511Y12570301D01*
X4869440Y12571319D01*
X4868134Y12571604D01*
X4867040Y12572114D01*
X4867039Y12572115D01*
X4867038Y12572115D01*
X4698726Y12627887D01*
X4698723Y12627888D01*
X4594853Y12638500D01*
X3968747Y12638500D01*
X3864882Y12627889D01*
X3864874Y12627888D01*
X3864874Y12627887D01*
X3864871Y12627887D01*
X3864867Y12627885D01*
X3708336Y12576018D01*
X3647152Y12575662D01*
X3617869Y12590739D01*
X3548206Y12642888D01*
X3548204Y12642889D01*
X3411201Y12693989D01*
X3411200Y12693990D01*
X3370327Y12698384D01*
X3350638Y12700500D01*
X1729362Y12700500D01*
X1713288Y12698772D01*
X1668800Y12693990D01*
X1594595Y12666312D01*
X1531796Y12642889D01*
X1531794Y12642888D01*
X1531792Y12642887D01*
X1414743Y12555265D01*
X1414735Y12555257D01*
X1349253Y12467783D01*
X1299245Y12432530D01*
X1238065Y12433404D01*
X1190747Y12467783D01*
X1125264Y12555257D01*
X1125263Y12555258D01*
X1125261Y12555261D01*
X1115811Y12562335D01*
X1008207Y12642887D01*
X1008206Y12642888D01*
X1008204Y12642889D01*
X871201Y12693989D01*
X871200Y12693990D01*
X830327Y12698384D01*
X810638Y12700500D01*
X-810638Y12700500D01*
X-826712Y12698772D01*
X-871200Y12693990D01*
X-945405Y12666312D01*
X-1008204Y12642889D01*
X-1008206Y12642888D01*
X-1008208Y12642887D01*
X-1125257Y12555265D01*
X-1125265Y12555257D01*
X-1212887Y12438208D01*
X-1212888Y12438206D01*
X-1212889Y12438204D01*
X-1225689Y12403886D01*
X-1263990Y12301200D01*
X-1270500Y12240635D01*
X-1270500Y10619366D01*
X-1263990Y10558801D01*
X-1252811Y10528830D01*
X-1212889Y10421796D01*
X-1212888Y10421794D01*
X-1212887Y10421793D01*
X-1133622Y10315907D01*
X-1125261Y10304739D01*
X-1008204Y10217111D01*
X-871201Y10166011D01*
X-810638Y10159500D01*
X-810635Y10159500D01*
X810635Y10159500D01*
X810638Y10159500D01*
X871201Y10166011D01*
X1008204Y10217111D01*
X1034528Y10236818D01*
X1092439Y10256555D01*
X1094009Y10256565D01*
X1447692Y10255605D01*
X1505831Y10236539D01*
X1506751Y10235859D01*
X1514307Y10230203D01*
X1531796Y10217111D01*
X1668799Y10166011D01*
X1729362Y10159500D01*
X1729365Y10159500D01*
X3350635Y10159500D01*
X3350638Y10159500D01*
X3411201Y10166011D01*
X3548204Y10217111D01*
X3565358Y10229953D01*
X3623268Y10249689D01*
X3624770Y10249698D01*
X3783272Y10249268D01*
X3841408Y10230203D01*
X3877237Y10180606D01*
X3882000Y10150269D01*
X3882000Y6899000D01*
X10603000Y6899000D01*
X10661191Y6880093D01*
X10697155Y6830593D01*
X10702000Y6800001D01*
X10702000Y4098000D01*
X15837500Y4098000D01*
X15895691Y4079093D01*
X15931655Y4029593D01*
X15936500Y3999000D01*
X15936500Y3774448D01*
X15947111Y3670583D01*
X15947112Y3670576D01*
X15947113Y3670574D01*
X16002885Y3502262D01*
X16095970Y3351348D01*
X16221348Y3225970D01*
X16372262Y3132885D01*
X16540574Y3077113D01*
X16644455Y3066500D01*
X17645544Y3066501D01*
X17645552Y3066501D01*
X17749417Y3077112D01*
X17749417Y3077113D01*
X17749426Y3077113D01*
X17917738Y3132885D01*
X18068652Y3225970D01*
X18068653Y3225972D01*
X18073557Y3228996D01*
X18133010Y3243453D01*
X18177502Y3228997D01*
X18235965Y3192937D01*
X18252262Y3182885D01*
X18420574Y3127113D01*
X18524455Y3116500D01*
X19575544Y3116501D01*
X19575552Y3116501D01*
X19679417Y3127112D01*
X19679417Y3127113D01*
X19679426Y3127113D01*
X19847738Y3182885D01*
X19998652Y3275970D01*
X19998657Y3275976D01*
X20003173Y3279545D01*
X20004709Y3277603D01*
X20050202Y3300781D01*
X20065689Y3302000D01*
X20785438Y3302000D01*
X20843629Y3283093D01*
X20879593Y3233593D01*
X20883925Y3192937D01*
X20876100Y3116353D01*
X20876100Y2065248D01*
X20886711Y1961383D01*
X20886712Y1961376D01*
X20886713Y1961374D01*
X20942485Y1793062D01*
X21035570Y1642148D01*
X21160948Y1516770D01*
X21311862Y1423685D01*
X21480174Y1367913D01*
X21505749Y1365301D01*
X21558318Y1359929D01*
X21614286Y1335206D01*
X21645032Y1282307D01*
X21638814Y1221438D01*
X21607585Y1182189D01*
X21531543Y1125265D01*
X21531535Y1125257D01*
X21443913Y1008208D01*
X21443912Y1008206D01*
X21443911Y1008204D01*
X21442121Y1003404D01*
X21392810Y871200D01*
X21386300Y810635D01*
X21386300Y-810634D01*
X21392810Y-871199D01*
X21392811Y-871201D01*
X21443911Y-1008204D01*
X21531539Y-1125261D01*
X21531542Y-1125263D01*
X21531543Y-1125264D01*
X21619017Y-1190747D01*
X21654270Y-1240755D01*
X21653396Y-1301935D01*
X21619017Y-1349253D01*
X21531543Y-1414735D01*
X21531535Y-1414743D01*
X21443913Y-1531792D01*
X21443912Y-1531794D01*
X21443911Y-1531796D01*
X21442121Y-1536596D01*
X21392810Y-1668800D01*
X21386300Y-1729365D01*
X21386300Y-3350634D01*
X21392810Y-3411199D01*
X21392811Y-3411201D01*
X21443911Y-3548204D01*
X21531539Y-3665261D01*
X21648596Y-3752889D01*
X21785599Y-3803989D01*
X21846162Y-3810500D01*
X22677811Y-3810500D01*
X22736002Y-3829407D01*
X22747815Y-3839496D01*
X23451487Y-4543168D01*
X23460893Y-4554053D01*
X23476530Y-4575057D01*
X23476532Y-4575059D01*
X23507044Y-4600662D01*
X23539467Y-4652550D01*
X23535199Y-4713586D01*
X23495870Y-4760457D01*
X23443408Y-4775500D01*
X-4676500Y-4775500D01*
X-4734691Y-4756593D01*
X-4770655Y-4707093D01*
X-4775500Y-4676500D01*
X-4775500Y24996500D01*
X-4756593Y25054691D01*
X-4707093Y25090655D01*
X-4676500Y25095500D01*
X45316500Y25095500D01*
X45374691Y25076593D01*
G37*
%TD.AperFunction*%
%TA.AperFunction,Conductor*%
G36*
X23569006Y5567092D02*
G01*
X23580818Y5557003D01*
X23919504Y5218318D01*
X23947282Y5163801D01*
X23948501Y5148314D01*
X23948501Y4677233D01*
X23947456Y4662887D01*
X23943660Y4636970D01*
X23948313Y4583780D01*
X23948501Y4579479D01*
X23948501Y4570572D01*
X23952266Y4538359D01*
X23952409Y4536962D01*
X23954025Y4518501D01*
X23959113Y4460335D01*
X23959447Y4459328D01*
X23963798Y4439704D01*
X23963921Y4438648D01*
X23990232Y4366358D01*
X23990690Y4365041D01*
X23990737Y4364901D01*
X24014886Y4292023D01*
X24014890Y4292014D01*
X24015440Y4291123D01*
X24024202Y4273025D01*
X24024562Y4272034D01*
X24024567Y4272025D01*
X24066839Y4207755D01*
X24067603Y4206555D01*
X24070379Y4202055D01*
X24107969Y4141110D01*
X24107974Y4141104D01*
X24108718Y4140360D01*
X24121415Y4124774D01*
X24122000Y4123885D01*
X24177945Y4071104D01*
X24178977Y4070101D01*
X24409303Y3839776D01*
X24437081Y3785259D01*
X24438300Y3769772D01*
X24438300Y1365033D01*
X24419393Y1306842D01*
X24369893Y1270878D01*
X24349883Y1266600D01*
X24325600Y1263990D01*
X24249916Y1235761D01*
X24188596Y1212889D01*
X24188594Y1212888D01*
X24188592Y1212887D01*
X24071543Y1125265D01*
X24071535Y1125257D01*
X24006053Y1037783D01*
X23956045Y1002530D01*
X23894865Y1003404D01*
X23847547Y1037783D01*
X23782064Y1125257D01*
X23782063Y1125258D01*
X23782061Y1125261D01*
X23706014Y1182189D01*
X23665007Y1212887D01*
X23665006Y1212888D01*
X23665004Y1212889D01*
X23528001Y1263989D01*
X23528000Y1263990D01*
X23503717Y1266600D01*
X23447881Y1291620D01*
X23417415Y1344681D01*
X23415300Y1365033D01*
X23415300Y1753628D01*
X23416345Y1767976D01*
X23420141Y1793889D01*
X23415487Y1847082D01*
X23415300Y1851382D01*
X23415300Y1860274D01*
X23415299Y1860290D01*
X23414459Y1867473D01*
X23411530Y1892521D01*
X23411394Y1893854D01*
X23404687Y1970527D01*
X23404358Y1971520D01*
X23400000Y1991179D01*
X23399879Y1992210D01*
X23399879Y1992213D01*
X23373564Y2064513D01*
X23373119Y2065790D01*
X23348914Y2138839D01*
X23348367Y2139726D01*
X23339592Y2157851D01*
X23339236Y2158829D01*
X23339235Y2158832D01*
X23327330Y2176933D01*
X23296954Y2223119D01*
X23296215Y2224277D01*
X23255830Y2289751D01*
X23255083Y2290498D01*
X23242377Y2306098D01*
X23241801Y2306974D01*
X23241800Y2306975D01*
X23185854Y2359757D01*
X23184821Y2360760D01*
X22922095Y2623488D01*
X22894318Y2678004D01*
X22893099Y2693491D01*
X22893099Y3116353D01*
X22882488Y3220218D01*
X22882487Y3220220D01*
X22882487Y3220226D01*
X22826715Y3388538D01*
X22818814Y3401348D01*
X22791680Y3445340D01*
X22777224Y3504793D01*
X22791679Y3549283D01*
X22852115Y3647262D01*
X22907887Y3815574D01*
X22918500Y3919455D01*
X22918499Y4970544D01*
X22918499Y4970553D01*
X22907888Y5074418D01*
X22907887Y5074420D01*
X22907887Y5074426D01*
X22852115Y5242738D01*
X22759030Y5393652D01*
X22735684Y5416998D01*
X22707909Y5471512D01*
X22717480Y5531944D01*
X22760745Y5575209D01*
X22805690Y5585999D01*
X23510815Y5585999D01*
X23569006Y5567092D01*
G37*
%TD.AperFunction*%
%TD*%
M02*
