%TF.GenerationSoftware,KiCad,Pcbnew,6.0.11+dfsg-1~bpo11+1*%
%TF.CreationDate,2023-06-15T00:44:48+00:00*%
%TF.ProjectId,PCRD01,50435244-3031-42e6-9b69-6361645f7063,01A*%
%TF.SameCoordinates,Original*%
%TF.FileFunction,Copper,L2,Bot*%
%TF.FilePolarity,Positive*%
%FSLAX46Y46*%
G04 Gerber Fmt 4.6, Leading zero omitted, Abs format (unit mm)*
G04 Created by KiCad (PCBNEW 6.0.11+dfsg-1~bpo11+1) date 2023-06-15 00:44:48*
%MOMM*%
%LPD*%
G01*
G04 APERTURE LIST*
G04 Aperture macros list*
%AMRoundRect*
0 Rectangle with rounded corners*
0 $1 Rounding radius*
0 $2 $3 $4 $5 $6 $7 $8 $9 X,Y pos of 4 corners*
0 Add a 4 corners polygon primitive as box body*
4,1,4,$2,$3,$4,$5,$6,$7,$8,$9,$2,$3,0*
0 Add four circle primitives for the rounded corners*
1,1,$1+$1,$2,$3*
1,1,$1+$1,$4,$5*
1,1,$1+$1,$6,$7*
1,1,$1+$1,$8,$9*
0 Add four rect primitives between the rounded corners*
20,1,$1+$1,$2,$3,$4,$5,0*
20,1,$1+$1,$4,$5,$6,$7,0*
20,1,$1+$1,$6,$7,$8,$9,0*
20,1,$1+$1,$8,$9,$2,$3,0*%
G04 Aperture macros list end*
%TA.AperFunction,ComponentPad*%
%ADD10R,1.524000X1.524000*%
%TD*%
%TA.AperFunction,ComponentPad*%
%ADD11C,6.000000*%
%TD*%
%TA.AperFunction,SMDPad,CuDef*%
%ADD12RoundRect,0.250000X-0.475000X0.250000X-0.475000X-0.250000X0.475000X-0.250000X0.475000X0.250000X0*%
%TD*%
%TA.AperFunction,SMDPad,CuDef*%
%ADD13RoundRect,0.250000X0.475000X-0.250000X0.475000X0.250000X-0.475000X0.250000X-0.475000X-0.250000X0*%
%TD*%
%TA.AperFunction,SMDPad,CuDef*%
%ADD14RoundRect,0.250000X-0.250000X-0.475000X0.250000X-0.475000X0.250000X0.475000X-0.250000X0.475000X0*%
%TD*%
%TA.AperFunction,SMDPad,CuDef*%
%ADD15RoundRect,0.250000X0.450000X-0.262500X0.450000X0.262500X-0.450000X0.262500X-0.450000X-0.262500X0*%
%TD*%
%TA.AperFunction,SMDPad,CuDef*%
%ADD16RoundRect,0.250000X0.262500X0.450000X-0.262500X0.450000X-0.262500X-0.450000X0.262500X-0.450000X0*%
%TD*%
%TA.AperFunction,SMDPad,CuDef*%
%ADD17RoundRect,0.250000X-0.450000X0.262500X-0.450000X-0.262500X0.450000X-0.262500X0.450000X0.262500X0*%
%TD*%
%TA.AperFunction,SMDPad,CuDef*%
%ADD18RoundRect,0.250000X0.250000X0.475000X-0.250000X0.475000X-0.250000X-0.475000X0.250000X-0.475000X0*%
%TD*%
%TA.AperFunction,SMDPad,CuDef*%
%ADD19R,0.508000X1.143000*%
%TD*%
%TA.AperFunction,SMDPad,CuDef*%
%ADD20R,0.500000X1.000760*%
%TD*%
%TA.AperFunction,SMDPad,CuDef*%
%ADD21R,0.501040X1.000760*%
%TD*%
%TA.AperFunction,SMDPad,CuDef*%
%ADD22RoundRect,0.150000X-0.150000X0.587500X-0.150000X-0.587500X0.150000X-0.587500X0.150000X0.587500X0*%
%TD*%
%TA.AperFunction,ViaPad*%
%ADD23C,0.889000*%
%TD*%
%TA.AperFunction,Conductor*%
%ADD24C,0.500000*%
%TD*%
%TA.AperFunction,Conductor*%
%ADD25C,0.400000*%
%TD*%
G04 APERTURE END LIST*
D10*
%TO.P,J1,1*%
%TO.N,GND*%
X2540000Y8890000D03*
%TO.P,J1,2*%
X0Y8890000D03*
%TO.P,J1,3*%
%TO.N,/+Ubias*%
X2540000Y11430000D03*
%TO.P,J1,4*%
X0Y11430000D03*
%TO.P,J1,5*%
%TO.N,GND*%
X2540000Y13970000D03*
%TO.P,J1,6*%
X0Y13970000D03*
%TD*%
%TO.P,J2,1*%
%TO.N,GND*%
X30276800Y0D03*
%TO.P,J2,2*%
X30276800Y-2540000D03*
%TO.P,J2,3*%
%TO.N,V-*%
X27736800Y0D03*
%TO.P,J2,4*%
X27736800Y-2540000D03*
%TO.P,J2,5*%
%TO.N,V+*%
X25196800Y0D03*
%TO.P,J2,6*%
X25196800Y-2540000D03*
%TO.P,J2,7*%
%TO.N,V-*%
X22656800Y0D03*
%TO.P,J2,8*%
X22656800Y-2540000D03*
%TO.P,J2,9*%
%TO.N,GND*%
X20116800Y0D03*
%TO.P,J2,10*%
X20116800Y-2540000D03*
%TD*%
%TO.P,J5,1*%
%TO.N,GND*%
X42646600Y9245600D03*
%TO.P,J5,2*%
X40106600Y9245600D03*
%TO.P,J5,3*%
%TO.N,Net-(C14-Pad2)*%
X42646600Y11785600D03*
%TO.P,J5,4*%
X40106600Y11785600D03*
%TO.P,J5,5*%
%TO.N,GND*%
X42646600Y14325600D03*
%TO.P,J5,6*%
X40106600Y14325600D03*
%TD*%
D11*
%TO.P,P4,1,P1*%
%TO.N,GND*%
X0Y0D03*
%TD*%
%TO.P,P3,1,P1*%
%TO.N,GND*%
X0Y20320000D03*
%TD*%
%TO.P,P1,1,P1*%
%TO.N,GND*%
X40640000Y0D03*
%TD*%
%TO.P,P2,1,P1*%
%TO.N,GND*%
X40640000Y20320000D03*
%TD*%
D10*
%TO.P,J4,1,P1*%
%TO.N,/#SHDN*%
X20574000Y16510000D03*
%TO.P,J4,2,PM*%
%TO.N,V+*%
X20574000Y19050000D03*
%TD*%
D12*
%TO.P,C1,1*%
%TO.N,Net-(C1-Pad1)*%
X9652000Y14412000D03*
%TO.P,C1,2*%
%TO.N,/K*%
X9652000Y12512000D03*
%TD*%
%TO.P,C2,1*%
%TO.N,Net-(C2-Pad1)*%
X19050000Y4125000D03*
%TO.P,C2,2*%
%TO.N,GND*%
X19050000Y2225000D03*
%TD*%
D13*
%TO.P,C3,1*%
%TO.N,V+*%
X20955000Y9845000D03*
%TO.P,C3,2*%
%TO.N,GND*%
X20955000Y11745000D03*
%TD*%
%TO.P,C5,1*%
%TO.N,V+*%
X34925000Y17465000D03*
%TO.P,C5,2*%
%TO.N,GND*%
X34925000Y19365000D03*
%TD*%
%TO.P,C6,1*%
%TO.N,V+*%
X32385000Y17465000D03*
%TO.P,C6,2*%
%TO.N,GND*%
X32385000Y19365000D03*
%TD*%
D14*
%TO.P,C10,1*%
%TO.N,V-*%
X21884600Y2590800D03*
%TO.P,C10,2*%
%TO.N,GND*%
X23784600Y2590800D03*
%TD*%
D13*
%TO.P,C12,1*%
%TO.N,GND*%
X37592000Y7686000D03*
%TO.P,C12,2*%
%TO.N,Net-(C12-Pad2)*%
X37592000Y9586000D03*
%TD*%
D14*
%TO.P,C14,1*%
%TO.N,Net-(C13-Pad2)*%
X33848000Y15290800D03*
%TO.P,C14,2*%
%TO.N,Net-(C14-Pad2)*%
X35748000Y15290800D03*
%TD*%
D15*
%TO.P,R1,1*%
%TO.N,Net-(C1-Pad1)*%
X9652000Y16232500D03*
%TO.P,R1,2*%
%TO.N,V-*%
X9652000Y18057500D03*
%TD*%
D16*
%TO.P,R2,1*%
%TO.N,Net-(C15-Pad1)*%
X6106800Y11430000D03*
%TO.P,R2,2*%
%TO.N,/+Ubias*%
X4281800Y11430000D03*
%TD*%
D15*
%TO.P,R5,1*%
%TO.N,GND*%
X25908000Y5437500D03*
%TO.P,R5,2*%
%TO.N,Net-(C8-Pad1)*%
X25908000Y7262500D03*
%TD*%
%TO.P,R6,1*%
%TO.N,Net-(C11-Pad1)*%
X33274000Y5564500D03*
%TO.P,R6,2*%
%TO.N,Net-(C11-Pad2)*%
X33274000Y7389500D03*
%TD*%
%TO.P,R7,1*%
%TO.N,GND*%
X28321000Y5437500D03*
%TO.P,R7,2*%
%TO.N,Net-(C11-Pad1)*%
X28321000Y7262500D03*
%TD*%
%TO.P,R8,1*%
%TO.N,Net-(C11-Pad2)*%
X35306000Y7723500D03*
%TO.P,R8,2*%
%TO.N,Net-(C12-Pad2)*%
X35306000Y9548500D03*
%TD*%
%TO.P,R9,1*%
%TO.N,Net-(C12-Pad2)*%
X32054800Y10034900D03*
%TO.P,R9,2*%
%TO.N,Net-(C13-Pad1)*%
X32054800Y11859900D03*
%TD*%
D17*
%TO.P,R11,1*%
%TO.N,Net-(C14-Pad2)*%
X37439600Y13358500D03*
%TO.P,R11,2*%
%TO.N,GND*%
X37439600Y11533500D03*
%TD*%
D13*
%TO.P,C11,1*%
%TO.N,Net-(C11-Pad1)*%
X30861000Y5527000D03*
%TO.P,C11,2*%
%TO.N,Net-(C11-Pad2)*%
X30861000Y7427000D03*
%TD*%
%TO.P,C4,1*%
%TO.N,Net-(C4-Pad1)*%
X12369569Y5213931D03*
%TO.P,C4,2*%
%TO.N,/A*%
X12369569Y7113931D03*
%TD*%
D10*
%TO.P,J3,1*%
%TO.N,/K*%
X9525000Y9525000D03*
%TO.P,J3,2*%
%TO.N,GND*%
X12065000Y9525000D03*
%TO.P,J3,3*%
%TO.N,/A*%
X14605000Y9525000D03*
%TD*%
D13*
%TO.P,C9,1*%
%TO.N,V-*%
X23495000Y9845000D03*
%TO.P,C9,2*%
%TO.N,GND*%
X23495000Y11745000D03*
%TD*%
D18*
%TO.P,C8,1*%
%TO.N,Net-(C8-Pad1)*%
X23175000Y7493000D03*
%TO.P,C8,2*%
%TO.N,Net-(C4-Pad1)*%
X21275000Y7493000D03*
%TD*%
D13*
%TO.P,C13,1*%
%TO.N,Net-(C13-Pad1)*%
X32054800Y13350200D03*
%TO.P,C13,2*%
%TO.N,Net-(C13-Pad2)*%
X32054800Y15250200D03*
%TD*%
D15*
%TO.P,R10,1*%
%TO.N,Net-(C12-Pad2)*%
X34086800Y11635100D03*
%TO.P,R10,2*%
%TO.N,Net-(C13-Pad2)*%
X34086800Y13460100D03*
%TD*%
D14*
%TO.P,C7,1*%
%TO.N,V-*%
X21910000Y4445000D03*
%TO.P,C7,2*%
%TO.N,GND*%
X23810000Y4445000D03*
%TD*%
D19*
%TO.P,U2,1*%
%TO.N,Net-(C11-Pad2)*%
X29845000Y10160000D03*
%TO.P,U2,2,-*%
%TO.N,Net-(C11-Pad1)*%
X28575000Y10160000D03*
%TO.P,U2,3,+*%
%TO.N,Net-(C8-Pad1)*%
X27305000Y10160000D03*
%TO.P,U2,4,V-*%
%TO.N,V-*%
X26035000Y10160000D03*
%TO.P,U2,5,+*%
%TO.N,GND*%
X26035000Y16510000D03*
%TO.P,U2,6,-*%
%TO.N,Net-(C13-Pad1)*%
X27305000Y16510000D03*
%TO.P,U2,7*%
%TO.N,Net-(C13-Pad2)*%
X28575000Y16510000D03*
%TO.P,U2,8,V+*%
%TO.N,V+*%
X29845000Y16510000D03*
%TD*%
D20*
%TO.P,U1,1*%
%TO.N,Net-(C4-Pad1)*%
X19240500Y6223000D03*
%TO.P,U1,2,V-*%
%TO.N,V-*%
X18288000Y6223000D03*
%TO.P,U1,3,+*%
%TO.N,Net-(C2-Pad1)*%
X17335500Y6223000D03*
D21*
%TO.P,U1,4,-*%
%TO.N,/A*%
X17335500Y8763000D03*
D20*
%TO.P,U1,5,#SHDN*%
%TO.N,/#SHDN*%
X18288000Y8763000D03*
%TO.P,U1,6,V+*%
%TO.N,V+*%
X19240500Y8763000D03*
%TD*%
D15*
%TO.P,R3,1*%
%TO.N,GND*%
X17145000Y2262500D03*
%TO.P,R3,2*%
%TO.N,Net-(C2-Pad1)*%
X17145000Y4087500D03*
%TD*%
D22*
%TO.P,Q1,1,S*%
%TO.N,Net-(C1-Pad1)*%
X15532000Y14536500D03*
%TO.P,Q1,2,D*%
%TO.N,V+*%
X17432000Y14536500D03*
%TO.P,Q1,3,G*%
%TO.N,/A*%
X16482000Y12661500D03*
%TD*%
D15*
%TO.P,R4,1*%
%TO.N,Net-(C4-Pad1)*%
X14592569Y5306431D03*
%TO.P,R4,2*%
%TO.N,/A*%
X14592569Y7131431D03*
%TD*%
D16*
%TO.P,R12,1*%
%TO.N,/K*%
X6817500Y9212500D03*
%TO.P,R12,2*%
%TO.N,Net-(C15-Pad1)*%
X4992500Y9212500D03*
%TD*%
D13*
%TO.P,C15,1*%
%TO.N,Net-(C15-Pad1)*%
X6197600Y13185100D03*
%TO.P,C15,2*%
%TO.N,GND*%
X6197600Y15085100D03*
%TD*%
D23*
%TO.N,GND*%
X24739600Y16510000D03*
X17043400Y22402800D03*
X32766000Y21818600D03*
X27762200Y22301200D03*
X24765000Y13970000D03*
X21996400Y13208000D03*
X23266400Y3454400D03*
X-2184400Y15900400D03*
X-2184400Y4826000D03*
X28600400Y12242800D03*
X33375600Y3733800D03*
X1282000Y4999000D03*
X37033200Y5105400D03*
X27495500Y3238500D03*
X23037800Y22199600D03*
X12217400Y22834600D03*
X4292600Y18516600D03*
%TO.N,V+*%
X19690447Y9519689D03*
X17449800Y13538200D03*
X28732000Y18349000D03*
%TO.N,Net-(C4-Pad1)*%
X19939000Y6235700D03*
X15646931Y5584069D03*
%TO.N,V-*%
X21920200Y4432300D03*
X22298002Y9906000D03*
X18521400Y15438400D03*
%TD*%
D24*
%TO.N,Net-(C1-Pad1)*%
X9652000Y14414500D02*
X15557500Y14414500D01*
X9652000Y14414500D02*
X9652000Y16192500D01*
D25*
%TO.N,Net-(C2-Pad1)*%
X17332000Y6219500D02*
X17335500Y6223000D01*
X19050000Y4127500D02*
X17145000Y4127500D01*
X17332000Y4314500D02*
X17332000Y6219500D01*
%TO.N,GND*%
X25908000Y5397500D02*
X26162000Y5397500D01*
D24*
%TO.N,V+*%
X25196800Y4124960D02*
X24707001Y4614759D01*
X34925000Y17462500D02*
X32385000Y17462500D01*
X17449800Y13538200D02*
X17449800Y14518700D01*
X29845000Y16510000D02*
X31432500Y16510000D01*
X25196800Y0D02*
X25196800Y4124960D01*
X22167001Y6575639D02*
X22167001Y8630499D01*
X28732000Y18349000D02*
X29845000Y17236000D01*
D25*
X19240500Y8763000D02*
X19240500Y8826500D01*
D24*
X19240500Y9069742D02*
X19690447Y9519689D01*
X29845000Y17236000D02*
X29845000Y16510000D01*
X19240500Y8763000D02*
X19240500Y9069742D01*
X22398141Y6344499D02*
X22167001Y6575639D01*
X31432500Y16510000D02*
X32385000Y17462500D01*
X20632189Y9519689D02*
X20955000Y9842500D01*
X19690447Y9519689D02*
X20632189Y9519689D01*
X24707001Y5503501D02*
X23866003Y6344499D01*
X17454500Y13538200D02*
X17449800Y13538200D01*
X17449800Y14518700D02*
X17432000Y14536500D01*
X17462500Y13530200D02*
X17454500Y13538200D01*
X24707001Y4614759D02*
X24707001Y5503501D01*
X25196800Y-2540000D02*
X25196800Y0D01*
X23866003Y6344499D02*
X22398141Y6344499D01*
X22167001Y8630499D02*
X20955000Y9842500D01*
%TO.N,Net-(C4-Pad1)*%
X21272500Y7239000D02*
X20269200Y6235700D01*
X19310383Y6235700D02*
X19939000Y6235700D01*
X15646931Y5584069D02*
X15261862Y5199000D01*
X20269200Y6235700D02*
X19939000Y6235700D01*
X15261862Y5199000D02*
X12382000Y5199000D01*
X19240500Y6223000D02*
X19253200Y6235700D01*
X19253200Y6235700D02*
X19310383Y6235700D01*
X21272500Y7493000D02*
X21272500Y7239000D01*
%TO.N,V-*%
X18521400Y15438400D02*
X15862300Y18097500D01*
X18630499Y5272619D02*
X20135381Y5272619D01*
X27736800Y-2746200D02*
X26432000Y-4051000D01*
D25*
X22298002Y9906000D02*
X23431500Y9906000D01*
X21882100Y4419600D02*
X21907500Y4445000D01*
D24*
X26432000Y-4051000D02*
X24032000Y-4051000D01*
D25*
X21882100Y2590800D02*
X21882100Y4419600D01*
D24*
X25717500Y9842500D02*
X26035000Y10160000D01*
X20135381Y5272619D02*
X20963000Y4445000D01*
X22656800Y0D02*
X22656800Y-2540000D01*
X18288000Y5615118D02*
X18630499Y5272619D01*
X27736800Y-2540000D02*
X27736800Y0D01*
X23495000Y9842500D02*
X25717500Y9842500D01*
X21907500Y4445000D02*
X20963000Y4445000D01*
X18288000Y6223000D02*
X18288000Y5615118D01*
X24032000Y-4051000D02*
X22656800Y-2675800D01*
X22656800Y0D02*
X22656800Y1816100D01*
X15862300Y18097500D02*
X9652000Y18097500D01*
D25*
X21907500Y4445000D02*
X21920200Y4432300D01*
D24*
X22656800Y1816100D02*
X21882100Y2590800D01*
D25*
%TO.N,Net-(C8-Pad1)*%
X25908000Y7302500D02*
X27305000Y8699500D01*
D24*
X23177500Y7493000D02*
X25717500Y7493000D01*
D25*
X27305000Y8699500D02*
X27305000Y10381000D01*
D24*
X25717500Y7493000D02*
X25908000Y7302500D01*
D25*
%TO.N,Net-(C11-Pad1)*%
X29083000Y7302500D02*
X30861000Y5524500D01*
X28575000Y10381000D02*
X28575000Y7556500D01*
X28575000Y7556500D02*
X28321000Y7302500D01*
X28321000Y7302500D02*
X29083000Y7302500D01*
X30861000Y5524500D02*
X33274000Y5524500D01*
%TO.N,Net-(C11-Pad2)*%
X35052000Y7429500D02*
X35306000Y7683500D01*
X33274000Y7429500D02*
X35052000Y7429500D01*
X29845000Y8445500D02*
X30861000Y7429500D01*
X29845000Y10381000D02*
X29845000Y8445500D01*
X30861000Y7429500D02*
X33274000Y7429500D01*
%TO.N,Net-(C12-Pad2)*%
X37592000Y9588500D02*
X35306000Y9588500D01*
X35306000Y9588500D02*
X35306000Y10375900D01*
X35306000Y10375900D02*
X34086800Y11595100D01*
X32486600Y9994900D02*
X34086800Y11595100D01*
X32054800Y9994900D02*
X32486600Y9994900D01*
%TO.N,Net-(C13-Pad1)*%
X32054800Y11899900D02*
X32054800Y13347700D01*
X29683300Y13347700D02*
X27305000Y15726000D01*
X27305000Y15726000D02*
X27305000Y16510000D01*
X32054800Y13347700D02*
X29683300Y13347700D01*
%TO.N,Net-(C13-Pad2)*%
X28575000Y15756000D02*
X29078300Y15252700D01*
X33845500Y13741400D02*
X34086800Y13500100D01*
X32054800Y15252700D02*
X33807400Y15252700D01*
X28575000Y16510000D02*
X28575000Y15756000D01*
X33807400Y15252700D02*
X33845500Y15290800D01*
X33845500Y15290800D02*
X33845500Y13741400D01*
X29078300Y15252700D02*
X32054800Y15252700D01*
%TO.N,Net-(C14-Pad2)*%
X40106600Y11785600D02*
X42646600Y11785600D01*
X35750500Y15290800D02*
X35750500Y15087600D01*
X37439600Y13398500D02*
X38493700Y13398500D01*
X38493700Y13398500D02*
X40106600Y11785600D01*
X35750500Y15087600D02*
X37439600Y13398500D01*
%TO.N,/#SHDN*%
X18288000Y8763000D02*
X18288000Y12171498D01*
X18288000Y12171498D02*
X20701000Y14584498D01*
X20701000Y15284500D02*
X20701000Y16510000D01*
X20701000Y14584498D02*
X20701000Y15284500D01*
%TO.N,/+Ubias*%
X4241800Y11430000D02*
X2540000Y11430000D01*
D24*
X0Y11430000D02*
X2540000Y11430000D01*
%TO.N,/K*%
X9525000Y12382500D02*
X9652000Y12509500D01*
X9525000Y9525000D02*
X9525000Y11484490D01*
D25*
X7175500Y9525000D02*
X9525000Y9525000D01*
D24*
X9525000Y11484490D02*
X9525000Y12382500D01*
%TO.N,/A*%
X16573500Y9525000D02*
X14605000Y9525000D01*
X14537569Y7116431D02*
X12369569Y7116431D01*
X14605000Y7556500D02*
X14550000Y7501500D01*
X16573500Y9525000D02*
X16573500Y12570000D01*
X14605000Y7556500D02*
X14605000Y9525000D01*
X17335500Y8763000D02*
X16573500Y9525000D01*
D25*
%TO.N,Net-(C15-Pad1)*%
X4952500Y10235700D02*
X6146800Y11430000D01*
X6197600Y11480800D02*
X6146800Y11430000D01*
X6197600Y13182600D02*
X6197600Y11480800D01*
X4952500Y9212500D02*
X4952500Y10235700D01*
%TD*%
%TA.AperFunction,Conductor*%
%TO.N,GND*%
G36*
X44916691Y24618593D02*
G01*
X44952655Y24569093D01*
X44957500Y24538500D01*
X44957500Y-4218500D01*
X44938593Y-4276691D01*
X44889093Y-4312655D01*
X44858500Y-4317500D01*
X27477189Y-4317500D01*
X27418998Y-4298593D01*
X27383034Y-4249093D01*
X27383034Y-4187907D01*
X27407185Y-4148496D01*
X27716185Y-3839496D01*
X27770702Y-3811719D01*
X27786189Y-3810500D01*
X28546934Y-3810500D01*
X28566963Y-3808324D01*
X28602942Y-3804416D01*
X28602944Y-3804415D01*
X28609116Y-3803745D01*
X28745505Y-3752615D01*
X28862061Y-3665261D01*
X28949415Y-3548705D01*
X29000545Y-3412316D01*
X29007300Y-3350134D01*
X29007300Y-1729866D01*
X29000545Y-1667684D01*
X28949415Y-1531295D01*
X28862061Y-1414739D01*
X28856417Y-1410509D01*
X28856413Y-1410505D01*
X28774641Y-1349220D01*
X28739416Y-1299192D01*
X28740324Y-1238014D01*
X28774641Y-1190780D01*
X28856413Y-1129495D01*
X28856417Y-1129491D01*
X28862061Y-1125261D01*
X28949415Y-1008705D01*
X29000545Y-872316D01*
X29007300Y-810134D01*
X29007300Y810134D01*
X29000545Y872316D01*
X28949415Y1008705D01*
X28862061Y1125261D01*
X28745505Y1212615D01*
X28721965Y1221440D01*
X28614931Y1261565D01*
X28609116Y1263745D01*
X28602944Y1264415D01*
X28602942Y1264416D01*
X28566963Y1268324D01*
X28546934Y1270500D01*
X26926666Y1270500D01*
X26906637Y1268324D01*
X26870658Y1264416D01*
X26870656Y1264415D01*
X26864484Y1263745D01*
X26858669Y1261565D01*
X26751636Y1221440D01*
X26728095Y1212615D01*
X26611539Y1125261D01*
X26607309Y1119617D01*
X26607305Y1119613D01*
X26546020Y1037841D01*
X26495992Y1002616D01*
X26434814Y1003524D01*
X26387580Y1037841D01*
X26326295Y1119613D01*
X26326291Y1119617D01*
X26322061Y1125261D01*
X26205505Y1212615D01*
X26181965Y1221440D01*
X26074931Y1261565D01*
X26069116Y1263745D01*
X26062944Y1264415D01*
X26062942Y1264416D01*
X26043608Y1266516D01*
X25987800Y1291597D01*
X25957392Y1344692D01*
X25955300Y1364937D01*
X25955300Y4059939D01*
X25956426Y4074828D01*
X25959133Y4092620D01*
X25959133Y4092624D01*
X25959998Y4098309D01*
X25955626Y4152064D01*
X25955300Y4160089D01*
X25955300Y4169253D01*
X25951955Y4197950D01*
X25951615Y4201386D01*
X25946127Y4268861D01*
X25946126Y4268865D01*
X25945660Y4274597D01*
X25943887Y4280070D01*
X25942760Y4285709D01*
X25942870Y4285731D01*
X25942080Y4289356D01*
X25941971Y4289330D01*
X25940648Y4294926D01*
X25939982Y4300641D01*
X25938019Y4306049D01*
X25914915Y4369700D01*
X25913793Y4372968D01*
X25892923Y4437389D01*
X25891151Y4442859D01*
X25888168Y4447774D01*
X25885773Y4453006D01*
X25885874Y4453052D01*
X25884272Y4456398D01*
X25884170Y4456347D01*
X25881598Y4461483D01*
X25879633Y4466897D01*
X25864760Y4489583D01*
X25839367Y4528313D01*
X25837523Y4531235D01*
X25801685Y4590295D01*
X25801682Y4590299D01*
X25799395Y4594068D01*
X25791997Y4602444D01*
X25792133Y4602564D01*
X25789654Y4605722D01*
X25789498Y4605591D01*
X25785808Y4610004D01*
X25782656Y4614812D01*
X25726189Y4668304D01*
X25724270Y4670171D01*
X25494497Y4899944D01*
X25466720Y4954461D01*
X25465501Y4969948D01*
X25465501Y5438474D01*
X25466627Y5453363D01*
X25469335Y5471161D01*
X25469335Y5471165D01*
X25470200Y5476850D01*
X25465827Y5530613D01*
X25465501Y5538639D01*
X25465501Y5547794D01*
X25465169Y5550645D01*
X25462157Y5576482D01*
X25461817Y5579918D01*
X25456327Y5647406D01*
X25455861Y5653137D01*
X25454088Y5658608D01*
X25452961Y5664250D01*
X25453070Y5664272D01*
X25452280Y5667896D01*
X25452172Y5667871D01*
X25450849Y5673468D01*
X25450183Y5679182D01*
X25441510Y5703076D01*
X25425115Y5748245D01*
X25423993Y5751512D01*
X25403124Y5815930D01*
X25401352Y5821400D01*
X25398369Y5826315D01*
X25395974Y5831547D01*
X25396075Y5831593D01*
X25394473Y5834939D01*
X25394371Y5834888D01*
X25391799Y5840023D01*
X25389834Y5845438D01*
X25349552Y5906878D01*
X25347711Y5909796D01*
X25311885Y5968836D01*
X25311884Y5968837D01*
X25309596Y5972608D01*
X25302198Y5980985D01*
X25302346Y5981116D01*
X25299865Y5984271D01*
X25299699Y5984132D01*
X25296009Y5988545D01*
X25292857Y5993353D01*
X25236390Y6046845D01*
X25234471Y6048712D01*
X25191467Y6091716D01*
X25163690Y6146233D01*
X25173261Y6206665D01*
X25216526Y6249930D01*
X25276958Y6259501D01*
X25292638Y6255686D01*
X25298006Y6253905D01*
X25298011Y6253904D01*
X25303139Y6252203D01*
X25407600Y6241500D01*
X26408400Y6241500D01*
X26514166Y6252474D01*
X26681946Y6308450D01*
X26686833Y6311474D01*
X26686837Y6311476D01*
X26791598Y6376305D01*
X26832348Y6401522D01*
X26957305Y6526697D01*
X26960321Y6531590D01*
X26960325Y6531595D01*
X27030173Y6644909D01*
X27076802Y6684523D01*
X27137812Y6689164D01*
X27189897Y6657058D01*
X27198632Y6645056D01*
X27272522Y6525652D01*
X27397697Y6400695D01*
X27402593Y6397677D01*
X27543367Y6310902D01*
X27543369Y6310901D01*
X27548262Y6307885D01*
X27553718Y6306075D01*
X27553721Y6306074D01*
X27711006Y6253905D01*
X27711011Y6253904D01*
X27716139Y6252203D01*
X27820600Y6241500D01*
X28821400Y6241500D01*
X28927166Y6252474D01*
X29021994Y6284111D01*
X29083176Y6284591D01*
X29123327Y6260203D01*
X29598504Y5785026D01*
X29626281Y5730509D01*
X29627500Y5715022D01*
X29627500Y5226600D01*
X29638474Y5120834D01*
X29694450Y4953054D01*
X29697474Y4948167D01*
X29697476Y4948163D01*
X29744348Y4872420D01*
X29787522Y4802652D01*
X29912697Y4677695D01*
X29917593Y4674677D01*
X30058367Y4587902D01*
X30058369Y4587901D01*
X30063262Y4584885D01*
X30068718Y4583075D01*
X30068721Y4583074D01*
X30226006Y4530905D01*
X30226011Y4530904D01*
X30231139Y4529203D01*
X30335600Y4518500D01*
X31386400Y4518500D01*
X31492166Y4529474D01*
X31659946Y4585450D01*
X31664833Y4588474D01*
X31664837Y4588476D01*
X31788330Y4664897D01*
X31810348Y4678522D01*
X31814405Y4682586D01*
X31814410Y4682590D01*
X31918580Y4786942D01*
X31973073Y4814768D01*
X31988645Y4816000D01*
X32196238Y4816000D01*
X32254429Y4797093D01*
X32266178Y4787067D01*
X32350697Y4702695D01*
X32355589Y4699679D01*
X32355591Y4699678D01*
X32496367Y4612902D01*
X32496369Y4612901D01*
X32501262Y4609885D01*
X32506718Y4608075D01*
X32506721Y4608074D01*
X32664006Y4555905D01*
X32664011Y4555904D01*
X32669139Y4554203D01*
X32773600Y4543500D01*
X33774400Y4543500D01*
X33880166Y4554474D01*
X34047946Y4610450D01*
X34052833Y4613474D01*
X34052837Y4613476D01*
X34135931Y4664897D01*
X34198348Y4703522D01*
X34323305Y4828697D01*
X34326323Y4833593D01*
X34413098Y4974367D01*
X34413099Y4974369D01*
X34416115Y4979262D01*
X34445482Y5067800D01*
X34470095Y5142006D01*
X34470096Y5142011D01*
X34471797Y5147139D01*
X34482500Y5251600D01*
X34482500Y5877400D01*
X34471526Y5983166D01*
X34415550Y6150946D01*
X34412526Y6155833D01*
X34412524Y6155837D01*
X34356551Y6246287D01*
X34322478Y6301348D01*
X34230884Y6392783D01*
X34216783Y6406859D01*
X34188958Y6461352D01*
X34198477Y6521792D01*
X34216661Y6546867D01*
X34319243Y6649628D01*
X34323305Y6653697D01*
X34326321Y6658590D01*
X34326325Y6658595D01*
X34335789Y6673949D01*
X34382418Y6713563D01*
X34420064Y6721000D01*
X34661642Y6721000D01*
X34692808Y6715966D01*
X34701139Y6713203D01*
X34805600Y6702500D01*
X35806400Y6702500D01*
X35912166Y6713474D01*
X36079946Y6769450D01*
X36084833Y6772474D01*
X36084837Y6772476D01*
X36160580Y6819348D01*
X36230348Y6862522D01*
X36266763Y6899000D01*
X36351243Y6983628D01*
X36355305Y6987697D01*
X36448115Y7138262D01*
X36459650Y7173039D01*
X36502095Y7301006D01*
X36502096Y7301011D01*
X36503797Y7306139D01*
X36514500Y7410600D01*
X36514500Y8036400D01*
X36503526Y8142166D01*
X36447550Y8309946D01*
X36444526Y8314833D01*
X36444524Y8314837D01*
X36391607Y8400348D01*
X36354478Y8460348D01*
X36251404Y8563243D01*
X36248783Y8565859D01*
X36220958Y8620352D01*
X36230477Y8680792D01*
X36248661Y8705867D01*
X36307183Y8764491D01*
X36355305Y8812697D01*
X36358321Y8817590D01*
X36358325Y8817595D01*
X36367789Y8832949D01*
X36414418Y8872563D01*
X36452064Y8880000D01*
X36459184Y8880000D01*
X36517375Y8861093D01*
X36529126Y8851065D01*
X36639623Y8740760D01*
X36639632Y8740753D01*
X36643697Y8736695D01*
X36648593Y8733677D01*
X36789367Y8646902D01*
X36789369Y8646901D01*
X36794262Y8643885D01*
X36799718Y8642075D01*
X36799721Y8642074D01*
X36957006Y8589905D01*
X36957011Y8589904D01*
X36962139Y8588203D01*
X37066600Y8577500D01*
X38117400Y8577500D01*
X38223166Y8588474D01*
X38390946Y8644450D01*
X38395833Y8647474D01*
X38395837Y8647476D01*
X38498733Y8711151D01*
X38541348Y8737522D01*
X38666305Y8862697D01*
X38693291Y8906476D01*
X38756098Y9008367D01*
X38756099Y9008369D01*
X38759115Y9013262D01*
X38781306Y9080166D01*
X38813095Y9176006D01*
X38813096Y9176011D01*
X38814797Y9181139D01*
X38825500Y9285600D01*
X38825500Y9886400D01*
X38814526Y9992166D01*
X38758550Y10159946D01*
X38755526Y10164833D01*
X38755524Y10164837D01*
X38681595Y10284303D01*
X38665478Y10310348D01*
X38654824Y10320984D01*
X38547727Y10427894D01*
X38540303Y10435305D01*
X38521525Y10446880D01*
X38394633Y10525098D01*
X38394631Y10525099D01*
X38389738Y10528115D01*
X38384282Y10529925D01*
X38384279Y10529926D01*
X38226994Y10582095D01*
X38226989Y10582096D01*
X38221861Y10583797D01*
X38117400Y10594500D01*
X37066600Y10594500D01*
X36960834Y10583526D01*
X36793054Y10527550D01*
X36788167Y10524526D01*
X36788163Y10524524D01*
X36748692Y10500098D01*
X36642652Y10434478D01*
X36638595Y10430414D01*
X36638590Y10430410D01*
X36534420Y10326058D01*
X36479927Y10298232D01*
X36464355Y10297000D01*
X36383762Y10297000D01*
X36325571Y10315907D01*
X36313819Y10325936D01*
X36294455Y10345267D01*
X36229303Y10410305D01*
X36224409Y10413322D01*
X36083633Y10500098D01*
X36083631Y10500099D01*
X36078738Y10503115D01*
X36053738Y10511407D01*
X36004459Y10547673D01*
X35990222Y10576574D01*
X35989243Y10582184D01*
X35963277Y10641336D01*
X35961319Y10646132D01*
X35940597Y10700972D01*
X35938487Y10706556D01*
X35933156Y10714313D01*
X35924098Y10730587D01*
X35920315Y10739205D01*
X35880991Y10790452D01*
X35877943Y10794647D01*
X35856987Y10825139D01*
X35841357Y10847881D01*
X35794261Y10889842D01*
X35790115Y10893755D01*
X35324296Y11359574D01*
X35296519Y11414091D01*
X35295300Y11429578D01*
X35295300Y11948000D01*
X35284326Y12053766D01*
X35228350Y12221546D01*
X35225326Y12226433D01*
X35225324Y12226437D01*
X35156435Y12337759D01*
X35135278Y12371948D01*
X35105100Y12402074D01*
X35029583Y12477459D01*
X35001758Y12531952D01*
X35011277Y12592392D01*
X35029461Y12617467D01*
X35033639Y12621652D01*
X35136105Y12724297D01*
X35175191Y12787706D01*
X35225898Y12869967D01*
X35225899Y12869969D01*
X35228915Y12874862D01*
X35230726Y12880321D01*
X35282895Y13037606D01*
X35282896Y13037611D01*
X35284597Y13042739D01*
X35295300Y13147200D01*
X35295300Y13773000D01*
X35284326Y13878766D01*
X35265399Y13935497D01*
X35264918Y13996680D01*
X35300492Y14046461D01*
X35358532Y14065825D01*
X35369400Y14065312D01*
X35416894Y14060446D01*
X35447600Y14057300D01*
X35737823Y14057300D01*
X35796014Y14038393D01*
X35807827Y14028303D01*
X36202104Y13634025D01*
X36229881Y13579509D01*
X36231100Y13564022D01*
X36231100Y13045600D01*
X36242074Y12939834D01*
X36298050Y12772054D01*
X36301074Y12767167D01*
X36301076Y12767163D01*
X36328936Y12722143D01*
X36391122Y12621652D01*
X36516297Y12496695D01*
X36521193Y12493677D01*
X36661967Y12406902D01*
X36661969Y12406901D01*
X36666862Y12403885D01*
X36672318Y12402075D01*
X36672321Y12402074D01*
X36829606Y12349905D01*
X36829611Y12349904D01*
X36834739Y12348203D01*
X36939200Y12337500D01*
X37940000Y12337500D01*
X38045766Y12348474D01*
X38213546Y12404450D01*
X38218433Y12407474D01*
X38218439Y12407477D01*
X38301112Y12458638D01*
X38315049Y12467262D01*
X38374480Y12481806D01*
X38431110Y12458638D01*
X38437148Y12453082D01*
X38807104Y12083126D01*
X38834881Y12028609D01*
X38836100Y12013122D01*
X38836100Y10975466D01*
X38836389Y10972807D01*
X38841083Y10929600D01*
X38842855Y10913284D01*
X38845035Y10907469D01*
X38889543Y10788745D01*
X38893985Y10776895D01*
X38981339Y10660339D01*
X39097895Y10572985D01*
X39104493Y10570511D01*
X39104494Y10570511D01*
X39182329Y10541332D01*
X39234284Y10521855D01*
X39240456Y10521185D01*
X39240458Y10521184D01*
X39276437Y10517276D01*
X39296466Y10515100D01*
X40916734Y10515100D01*
X40936763Y10517276D01*
X40972742Y10521184D01*
X40972744Y10521185D01*
X40978916Y10521855D01*
X41030871Y10541332D01*
X41108706Y10570511D01*
X41108707Y10570511D01*
X41115305Y10572985D01*
X41231861Y10660339D01*
X41236091Y10665983D01*
X41236095Y10665987D01*
X41297380Y10747759D01*
X41347408Y10782984D01*
X41408586Y10782076D01*
X41455820Y10747759D01*
X41517105Y10665987D01*
X41517109Y10665983D01*
X41521339Y10660339D01*
X41637895Y10572985D01*
X41644493Y10570511D01*
X41644494Y10570511D01*
X41722329Y10541332D01*
X41774284Y10521855D01*
X41780456Y10521185D01*
X41780458Y10521184D01*
X41816437Y10517276D01*
X41836466Y10515100D01*
X43456734Y10515100D01*
X43476763Y10517276D01*
X43512742Y10521184D01*
X43512744Y10521185D01*
X43518916Y10521855D01*
X43570871Y10541332D01*
X43648706Y10570511D01*
X43648707Y10570511D01*
X43655305Y10572985D01*
X43771861Y10660339D01*
X43859215Y10776895D01*
X43863658Y10788745D01*
X43908165Y10907469D01*
X43910345Y10913284D01*
X43912118Y10929600D01*
X43916811Y10972807D01*
X43917100Y10975466D01*
X43917100Y12595734D01*
X43914432Y12620293D01*
X43911016Y12651742D01*
X43911015Y12651744D01*
X43910345Y12657916D01*
X43865669Y12777088D01*
X43861689Y12787706D01*
X43861689Y12787707D01*
X43859215Y12794305D01*
X43771861Y12910861D01*
X43655305Y12998215D01*
X43518916Y13049345D01*
X43512744Y13050015D01*
X43512742Y13050016D01*
X43476763Y13053924D01*
X43456734Y13056100D01*
X41836466Y13056100D01*
X41816437Y13053924D01*
X41780458Y13050016D01*
X41780456Y13050015D01*
X41774284Y13049345D01*
X41637895Y12998215D01*
X41521339Y12910861D01*
X41517109Y12905217D01*
X41517105Y12905213D01*
X41455820Y12823441D01*
X41405792Y12788216D01*
X41344614Y12789124D01*
X41297380Y12823441D01*
X41236095Y12905213D01*
X41236091Y12905217D01*
X41231861Y12910861D01*
X41115305Y12998215D01*
X40978916Y13049345D01*
X40972744Y13050015D01*
X40972742Y13050016D01*
X40936763Y13053924D01*
X40916734Y13056100D01*
X39879078Y13056100D01*
X39820887Y13075007D01*
X39809074Y13085096D01*
X39014483Y13879687D01*
X39009884Y13884611D01*
X38975182Y13924390D01*
X38971261Y13928885D01*
X38966383Y13932313D01*
X38966379Y13932317D01*
X38918404Y13966034D01*
X38914242Y13969125D01*
X38868113Y14005295D01*
X38868111Y14005296D01*
X38863418Y14008976D01*
X38856736Y14011993D01*
X38854845Y14012847D01*
X38838658Y14022080D01*
X38835846Y14024057D01*
X38835843Y14024058D01*
X38830961Y14027490D01*
X38770747Y14050966D01*
X38766007Y14052959D01*
X38758830Y14056200D01*
X38745780Y14062092D01*
X38712567Y14077089D01*
X38712565Y14077090D01*
X38707127Y14079545D01*
X38701262Y14080632D01*
X38701256Y14080634D01*
X38697876Y14081260D01*
X38679962Y14086363D01*
X38671191Y14089782D01*
X38634053Y14094671D01*
X38607145Y14098214D01*
X38602026Y14099025D01*
X38557900Y14107203D01*
X38538514Y14110796D01*
X38520465Y14109755D01*
X38461284Y14125281D01*
X38444823Y14138527D01*
X38439129Y14144212D01*
X38362903Y14220305D01*
X38271287Y14276778D01*
X38217233Y14310098D01*
X38217231Y14310099D01*
X38212338Y14313115D01*
X38206882Y14314925D01*
X38206879Y14314926D01*
X38049594Y14367095D01*
X38049589Y14367096D01*
X38044461Y14368797D01*
X37940000Y14379500D01*
X37501578Y14379500D01*
X37443387Y14398407D01*
X37431574Y14408496D01*
X36785496Y15054574D01*
X36757719Y15109091D01*
X36756500Y15124578D01*
X36756500Y15816200D01*
X36745526Y15921966D01*
X36689550Y16089746D01*
X36686526Y16094633D01*
X36686524Y16094637D01*
X36638180Y16172758D01*
X36596478Y16240148D01*
X36471303Y16365105D01*
X36447804Y16379590D01*
X36325633Y16454898D01*
X36325631Y16454899D01*
X36320738Y16457915D01*
X36315282Y16459725D01*
X36315279Y16459726D01*
X36157994Y16511895D01*
X36157989Y16511896D01*
X36152861Y16513597D01*
X36048400Y16524300D01*
X36021000Y16524300D01*
X35962809Y16543207D01*
X35926845Y16592707D01*
X35926845Y16653893D01*
X35950936Y16693243D01*
X35995240Y16737624D01*
X35995243Y16737628D01*
X35999305Y16741697D01*
X36092115Y16892262D01*
X36117337Y16968303D01*
X36146095Y17055006D01*
X36146096Y17055011D01*
X36147797Y17060139D01*
X36158500Y17164600D01*
X36158500Y17765400D01*
X36147526Y17871166D01*
X36091550Y18038946D01*
X36088526Y18043833D01*
X36088524Y18043837D01*
X36041652Y18119580D01*
X35998478Y18189348D01*
X35873303Y18314305D01*
X35803147Y18357550D01*
X35727633Y18404098D01*
X35727631Y18404099D01*
X35722738Y18407115D01*
X35717282Y18408925D01*
X35717279Y18408926D01*
X35559994Y18461095D01*
X35559989Y18461096D01*
X35554861Y18462797D01*
X35450400Y18473500D01*
X34399600Y18473500D01*
X34293834Y18462526D01*
X34126054Y18406550D01*
X34121167Y18403526D01*
X34121163Y18403524D01*
X34063543Y18367867D01*
X33975652Y18313478D01*
X33971595Y18309414D01*
X33971590Y18309410D01*
X33912340Y18250057D01*
X33857848Y18222232D01*
X33842276Y18221000D01*
X33467727Y18221000D01*
X33409536Y18239907D01*
X33397784Y18249936D01*
X33338207Y18309410D01*
X33333303Y18314305D01*
X33263147Y18357550D01*
X33187633Y18404098D01*
X33187631Y18404099D01*
X33182738Y18407115D01*
X33177282Y18408925D01*
X33177279Y18408926D01*
X33019994Y18461095D01*
X33019989Y18461096D01*
X33014861Y18462797D01*
X32910400Y18473500D01*
X31859600Y18473500D01*
X31753834Y18462526D01*
X31586054Y18406550D01*
X31581167Y18403526D01*
X31581163Y18403524D01*
X31523543Y18367867D01*
X31435652Y18313478D01*
X31310695Y18188303D01*
X31217885Y18037738D01*
X31216075Y18032282D01*
X31216074Y18032279D01*
X31163905Y17874994D01*
X31163904Y17874989D01*
X31162203Y17869861D01*
X31151500Y17765400D01*
X31151500Y17367500D01*
X31132593Y17309309D01*
X31083093Y17273345D01*
X31052500Y17268500D01*
X30694662Y17268500D01*
X30636471Y17287407D01*
X30600507Y17336907D01*
X30595988Y17359474D01*
X30594326Y17379905D01*
X30593860Y17385636D01*
X30592087Y17391107D01*
X30590960Y17396749D01*
X30591069Y17396771D01*
X30590279Y17400395D01*
X30590171Y17400370D01*
X30588848Y17405967D01*
X30588182Y17411681D01*
X30566631Y17471054D01*
X30563114Y17480744D01*
X30561992Y17484011D01*
X30541123Y17548429D01*
X30539351Y17553899D01*
X30536368Y17558814D01*
X30533973Y17564046D01*
X30534074Y17564092D01*
X30532472Y17567438D01*
X30532370Y17567387D01*
X30529798Y17572522D01*
X30527833Y17577937D01*
X30487551Y17639377D01*
X30485710Y17642295D01*
X30449884Y17701335D01*
X30449883Y17701336D01*
X30447595Y17705107D01*
X30440197Y17713484D01*
X30440345Y17713615D01*
X30437864Y17716770D01*
X30437698Y17716631D01*
X30434008Y17721044D01*
X30430856Y17725852D01*
X30374389Y17779344D01*
X30372470Y17781211D01*
X29702166Y18451515D01*
X29673642Y18511859D01*
X29671846Y18530182D01*
X29671845Y18530187D01*
X29671373Y18535001D01*
X29617355Y18713917D01*
X29529615Y18878934D01*
X29411493Y19023765D01*
X29400104Y19033187D01*
X29271216Y19139812D01*
X29271214Y19139813D01*
X29267489Y19142895D01*
X29103089Y19231786D01*
X28924554Y19287052D01*
X28919744Y19287558D01*
X28919742Y19287558D01*
X28743501Y19306082D01*
X28743499Y19306082D01*
X28738685Y19306588D01*
X28678781Y19301136D01*
X28557382Y19290088D01*
X28557379Y19290087D01*
X28552562Y19289649D01*
X28547920Y19288283D01*
X28547916Y19288282D01*
X28377920Y19238249D01*
X28377917Y19238248D01*
X28373273Y19236881D01*
X28207647Y19150295D01*
X28203871Y19147259D01*
X28203868Y19147257D01*
X28065767Y19036220D01*
X28061995Y19033187D01*
X28058886Y19029482D01*
X28058883Y19029479D01*
X28041300Y19008524D01*
X27941862Y18890019D01*
X27939530Y18885776D01*
X27939528Y18885774D01*
X27863366Y18747234D01*
X27851826Y18726243D01*
X27850363Y18721630D01*
X27850361Y18721626D01*
X27796779Y18552716D01*
X27796778Y18552710D01*
X27795315Y18548099D01*
X27794775Y18543285D01*
X27775099Y18367867D01*
X27774482Y18362370D01*
X27774887Y18357550D01*
X27789422Y18184462D01*
X27790121Y18176133D01*
X27841636Y17996480D01*
X27843852Y17992169D01*
X27912178Y17859220D01*
X27927064Y17830254D01*
X28043152Y17683788D01*
X28046832Y17680656D01*
X28046835Y17680653D01*
X28058142Y17671030D01*
X28090201Y17618917D01*
X28085507Y17557912D01*
X28053350Y17516419D01*
X27999373Y17475965D01*
X27941469Y17456196D01*
X27880627Y17475964D01*
X27869890Y17484011D01*
X27805705Y17532115D01*
X27762188Y17548429D01*
X27675131Y17581065D01*
X27669316Y17583245D01*
X27663144Y17583915D01*
X27663142Y17583916D01*
X27627163Y17587824D01*
X27607134Y17590000D01*
X27002866Y17590000D01*
X26982837Y17587824D01*
X26946858Y17583916D01*
X26946856Y17583915D01*
X26940684Y17583245D01*
X26934869Y17581065D01*
X26847813Y17548429D01*
X26804295Y17532115D01*
X26687739Y17444761D01*
X26600385Y17328205D01*
X26597911Y17321607D01*
X26597911Y17321606D01*
X26579819Y17273345D01*
X26549255Y17191816D01*
X26548585Y17185644D01*
X26548584Y17185642D01*
X26546298Y17164600D01*
X26542500Y17129634D01*
X26542500Y15890366D01*
X26549255Y15828184D01*
X26584884Y15733145D01*
X26586235Y15729540D01*
X26592399Y15699970D01*
X26592680Y15694598D01*
X26592275Y15688648D01*
X26593300Y15682776D01*
X26593300Y15682773D01*
X26603381Y15625013D01*
X26604138Y15619886D01*
X26611898Y15555758D01*
X26614006Y15550180D01*
X26614007Y15550175D01*
X26615222Y15546960D01*
X26620139Y15528987D01*
X26621757Y15519716D01*
X26633650Y15492624D01*
X26647722Y15460567D01*
X26649680Y15455771D01*
X26672513Y15395344D01*
X26677844Y15387587D01*
X26686900Y15371317D01*
X26690685Y15362695D01*
X26694321Y15357957D01*
X26730009Y15311448D01*
X26733057Y15307253D01*
X26769643Y15254019D01*
X26785939Y15239500D01*
X26816739Y15212058D01*
X26820885Y15208145D01*
X29162524Y12866505D01*
X29167123Y12861581D01*
X29205739Y12817315D01*
X29210621Y12813884D01*
X29210623Y12813882D01*
X29258580Y12780177D01*
X29262739Y12777088D01*
X29308883Y12740907D01*
X29308891Y12740902D01*
X29313582Y12737224D01*
X29319020Y12734769D01*
X29322155Y12733353D01*
X29338342Y12724120D01*
X29341154Y12722143D01*
X29341157Y12722142D01*
X29346039Y12718710D01*
X29406253Y12695234D01*
X29410987Y12693243D01*
X29469873Y12666655D01*
X29475739Y12665568D01*
X29475742Y12665567D01*
X29479115Y12664942D01*
X29497048Y12659834D01*
X29505809Y12656418D01*
X29569872Y12647984D01*
X29574974Y12647176D01*
X29586237Y12645089D01*
X29632613Y12636493D01*
X29632617Y12636493D01*
X29638486Y12635405D01*
X29701460Y12639036D01*
X29707160Y12639200D01*
X30854985Y12639200D01*
X30913176Y12620293D01*
X30949140Y12570793D01*
X30949140Y12509607D01*
X30939260Y12488252D01*
X30915705Y12450039D01*
X30915702Y12450032D01*
X30912685Y12445138D01*
X30910875Y12439682D01*
X30910874Y12439679D01*
X30858705Y12282394D01*
X30858704Y12282389D01*
X30857003Y12277261D01*
X30846300Y12172800D01*
X30846300Y11547000D01*
X30857274Y11441234D01*
X30913250Y11273454D01*
X30916274Y11268567D01*
X30916276Y11268563D01*
X30937717Y11233916D01*
X31006322Y11123052D01*
X31010386Y11118995D01*
X31112017Y11017541D01*
X31139842Y10963048D01*
X31130323Y10902608D01*
X31112139Y10877533D01*
X31005495Y10770703D01*
X31002477Y10765807D01*
X30918725Y10629936D01*
X30912685Y10620138D01*
X30910875Y10614682D01*
X30910874Y10614679D01*
X30858705Y10457394D01*
X30858704Y10457389D01*
X30857003Y10452261D01*
X30846300Y10347800D01*
X30846300Y9722000D01*
X30857274Y9616234D01*
X30913250Y9448454D01*
X30916274Y9443567D01*
X30916276Y9443563D01*
X30962441Y9368963D01*
X31006322Y9298052D01*
X31131497Y9173095D01*
X31136393Y9170077D01*
X31277167Y9083302D01*
X31277169Y9083301D01*
X31282062Y9080285D01*
X31287518Y9078475D01*
X31287521Y9078474D01*
X31444806Y9026305D01*
X31444811Y9026304D01*
X31449939Y9024603D01*
X31554400Y9013900D01*
X32555200Y9013900D01*
X32660966Y9024874D01*
X32828746Y9080850D01*
X32833633Y9083874D01*
X32833637Y9083876D01*
X32920913Y9137885D01*
X32979148Y9173922D01*
X32986353Y9181139D01*
X33088112Y9283076D01*
X33104105Y9299097D01*
X33125750Y9334211D01*
X33193898Y9444767D01*
X33193899Y9444769D01*
X33196915Y9449662D01*
X33204447Y9472369D01*
X33250895Y9612406D01*
X33250896Y9612411D01*
X33252597Y9617539D01*
X33263300Y9722000D01*
X33263300Y9728622D01*
X33282207Y9786813D01*
X33292296Y9798626D01*
X34016796Y10523126D01*
X34071313Y10550903D01*
X34131745Y10541332D01*
X34156803Y10523127D01*
X34256214Y10423716D01*
X34283990Y10369200D01*
X34274419Y10308768D01*
X34263903Y10292357D01*
X34260752Y10288367D01*
X34256695Y10284303D01*
X34253681Y10279413D01*
X34253680Y10279412D01*
X34176676Y10154488D01*
X34163885Y10133738D01*
X34162075Y10128282D01*
X34162074Y10128279D01*
X34109905Y9970994D01*
X34109904Y9970989D01*
X34108203Y9965861D01*
X34097500Y9861400D01*
X34097500Y9235600D01*
X34108474Y9129834D01*
X34164450Y8962054D01*
X34167474Y8957167D01*
X34167476Y8957163D01*
X34198843Y8906476D01*
X34257522Y8811652D01*
X34261586Y8807595D01*
X34363217Y8706141D01*
X34391042Y8651648D01*
X34381523Y8591208D01*
X34363339Y8566133D01*
X34256695Y8459303D01*
X34199380Y8366321D01*
X34152751Y8326707D01*
X34091742Y8322066D01*
X34063156Y8333995D01*
X34051635Y8341097D01*
X34051631Y8341099D01*
X34046738Y8344115D01*
X34041282Y8345925D01*
X34041279Y8345926D01*
X33883994Y8398095D01*
X33883989Y8398096D01*
X33878861Y8399797D01*
X33774400Y8410500D01*
X32773600Y8410500D01*
X32667834Y8399526D01*
X32500054Y8343550D01*
X32495167Y8340526D01*
X32495163Y8340524D01*
X32354541Y8253504D01*
X32354538Y8253501D01*
X32349652Y8250478D01*
X32313723Y8214486D01*
X32266376Y8167057D01*
X32211884Y8139232D01*
X32196312Y8138000D01*
X31988807Y8138000D01*
X31930616Y8156907D01*
X31918865Y8166935D01*
X31813376Y8272240D01*
X31813372Y8272243D01*
X31809303Y8276305D01*
X31790084Y8288152D01*
X31663633Y8366098D01*
X31663631Y8366099D01*
X31658738Y8369115D01*
X31653282Y8370925D01*
X31653279Y8370926D01*
X31495994Y8423095D01*
X31495989Y8423096D01*
X31490861Y8424797D01*
X31386400Y8435500D01*
X30897978Y8435500D01*
X30839787Y8454407D01*
X30827974Y8464496D01*
X30582496Y8709974D01*
X30554719Y8764491D01*
X30553500Y8779978D01*
X30553500Y9334211D01*
X30559800Y9368963D01*
X30598565Y9472369D01*
X30600745Y9478184D01*
X30607500Y9540366D01*
X30607500Y10779634D01*
X30600745Y10841816D01*
X30567836Y10929600D01*
X30552089Y10971606D01*
X30552089Y10971607D01*
X30549615Y10978205D01*
X30462261Y11094761D01*
X30345705Y11182115D01*
X30209316Y11233245D01*
X30203144Y11233915D01*
X30203142Y11233916D01*
X30167163Y11237824D01*
X30147134Y11240000D01*
X29542866Y11240000D01*
X29522837Y11237824D01*
X29486858Y11233916D01*
X29486856Y11233915D01*
X29480684Y11233245D01*
X29344295Y11182115D01*
X29272007Y11127938D01*
X29269373Y11125964D01*
X29211469Y11106196D01*
X29150627Y11125964D01*
X29147993Y11127938D01*
X29075705Y11182115D01*
X28939316Y11233245D01*
X28933144Y11233915D01*
X28933142Y11233916D01*
X28897163Y11237824D01*
X28877134Y11240000D01*
X28272866Y11240000D01*
X28252837Y11237824D01*
X28216858Y11233916D01*
X28216856Y11233915D01*
X28210684Y11233245D01*
X28074295Y11182115D01*
X28002007Y11127938D01*
X27999373Y11125964D01*
X27941469Y11106196D01*
X27880627Y11125964D01*
X27877993Y11127938D01*
X27805705Y11182115D01*
X27669316Y11233245D01*
X27663144Y11233915D01*
X27663142Y11233916D01*
X27627163Y11237824D01*
X27607134Y11240000D01*
X27002866Y11240000D01*
X26982837Y11237824D01*
X26946858Y11233916D01*
X26946856Y11233915D01*
X26940684Y11233245D01*
X26804295Y11182115D01*
X26732007Y11127938D01*
X26729373Y11125964D01*
X26671469Y11106196D01*
X26610627Y11125964D01*
X26607993Y11127938D01*
X26535705Y11182115D01*
X26399316Y11233245D01*
X26393144Y11233915D01*
X26393142Y11233916D01*
X26357163Y11237824D01*
X26337134Y11240000D01*
X25732866Y11240000D01*
X25712837Y11237824D01*
X25676858Y11233916D01*
X25676856Y11233915D01*
X25670684Y11233245D01*
X25534295Y11182115D01*
X25417739Y11094761D01*
X25330385Y10978205D01*
X25327911Y10971607D01*
X25327911Y10971606D01*
X25312164Y10929600D01*
X25279255Y10841816D01*
X25272500Y10779634D01*
X25272500Y10700000D01*
X25253593Y10641809D01*
X25204093Y10605845D01*
X25173500Y10601000D01*
X24577727Y10601000D01*
X24519536Y10619907D01*
X24507784Y10629936D01*
X24496368Y10641333D01*
X24443303Y10694305D01*
X24438409Y10697322D01*
X24297633Y10784098D01*
X24297631Y10784099D01*
X24292738Y10787115D01*
X24287282Y10788925D01*
X24287279Y10788926D01*
X24129994Y10841095D01*
X24129989Y10841096D01*
X24124861Y10842797D01*
X24020400Y10853500D01*
X22969600Y10853500D01*
X22863834Y10842526D01*
X22716751Y10793455D01*
X22656147Y10792793D01*
X22490556Y10844052D01*
X22485746Y10844558D01*
X22485744Y10844558D01*
X22309503Y10863082D01*
X22309501Y10863082D01*
X22304687Y10863588D01*
X22244783Y10858136D01*
X22123384Y10847088D01*
X22123381Y10847087D01*
X22118564Y10846649D01*
X22113922Y10845283D01*
X22113918Y10845282D01*
X21944776Y10795500D01*
X21939275Y10793881D01*
X21917109Y10782293D01*
X21882292Y10764092D01*
X21821963Y10753888D01*
X21784477Y10767551D01*
X21764051Y10780142D01*
X21724437Y10826772D01*
X21717000Y10864417D01*
X21717000Y10922000D01*
X19997459Y10922000D01*
X19939268Y10940907D01*
X19910769Y10973189D01*
X19300081Y12080480D01*
X19288535Y12140566D01*
X19316767Y12198295D01*
X20112462Y12993989D01*
X21182195Y14063722D01*
X21187119Y14068321D01*
X21226888Y14103014D01*
X21231385Y14106937D01*
X21268523Y14159778D01*
X21271612Y14163937D01*
X21307793Y14210081D01*
X21307798Y14210089D01*
X21311476Y14214780D01*
X21315347Y14223353D01*
X21324580Y14239540D01*
X21326557Y14242352D01*
X21326558Y14242355D01*
X21329990Y14247237D01*
X21353466Y14307451D01*
X21355459Y14312191D01*
X21368671Y14341452D01*
X21382045Y14371071D01*
X21383758Y14380313D01*
X21388866Y14398246D01*
X21390114Y14401447D01*
X21392282Y14407007D01*
X21400716Y14471070D01*
X21401525Y14476181D01*
X21412207Y14533811D01*
X21412207Y14533815D01*
X21413295Y14539684D01*
X21409664Y14602659D01*
X21409500Y14608358D01*
X21409500Y15163839D01*
X21428407Y15222030D01*
X21473748Y15256539D01*
X21582705Y15297385D01*
X21699261Y15384739D01*
X21786615Y15501295D01*
X21837745Y15637684D01*
X21838437Y15644049D01*
X21844211Y15697207D01*
X21844500Y15699866D01*
X21844500Y17320134D01*
X21842324Y17340163D01*
X21838416Y17376142D01*
X21838415Y17376144D01*
X21837745Y17382316D01*
X21802638Y17475965D01*
X21789089Y17512106D01*
X21789089Y17512107D01*
X21786615Y17518705D01*
X21699261Y17635261D01*
X21693617Y17639491D01*
X21693613Y17639495D01*
X21611841Y17700780D01*
X21576616Y17750808D01*
X21577524Y17811986D01*
X21611841Y17859220D01*
X21693613Y17920505D01*
X21693617Y17920509D01*
X21699261Y17924739D01*
X21786615Y18041295D01*
X21837745Y18177684D01*
X21838482Y18184462D01*
X21844211Y18237207D01*
X21844500Y18239866D01*
X21844500Y19860134D01*
X21837745Y19922316D01*
X21786615Y20058705D01*
X21699261Y20175261D01*
X21582705Y20262615D01*
X21446316Y20313745D01*
X21440144Y20314415D01*
X21440142Y20314416D01*
X21404163Y20318324D01*
X21384134Y20320500D01*
X19763866Y20320500D01*
X19743837Y20318324D01*
X19707858Y20314416D01*
X19707856Y20314415D01*
X19701684Y20313745D01*
X19565295Y20262615D01*
X19448739Y20175261D01*
X19361385Y20058705D01*
X19310255Y19922316D01*
X19303500Y19860134D01*
X19303500Y18239866D01*
X19303789Y18237207D01*
X19309519Y18184462D01*
X19310255Y18177684D01*
X19361385Y18041295D01*
X19448739Y17924739D01*
X19454383Y17920509D01*
X19454387Y17920505D01*
X19536159Y17859220D01*
X19571384Y17809192D01*
X19570476Y17748014D01*
X19536159Y17700780D01*
X19454387Y17639495D01*
X19454383Y17639491D01*
X19448739Y17635261D01*
X19361385Y17518705D01*
X19358911Y17512107D01*
X19358911Y17512106D01*
X19345362Y17475965D01*
X19310255Y17382316D01*
X19309585Y17376144D01*
X19309584Y17376142D01*
X19305676Y17340163D01*
X19303500Y17320134D01*
X19303500Y16238667D01*
X19284593Y16180476D01*
X19235093Y16144512D01*
X19173907Y16144512D01*
X19141395Y16162386D01*
X19060616Y16229212D01*
X19060614Y16229213D01*
X19056889Y16232295D01*
X18892489Y16321186D01*
X18819099Y16343904D01*
X18718575Y16375022D01*
X18718571Y16375023D01*
X18713954Y16376452D01*
X18709145Y16376957D01*
X18709142Y16376958D01*
X18698218Y16378106D01*
X18684093Y16379590D01*
X18624437Y16408044D01*
X16444619Y18587862D01*
X16434888Y18599187D01*
X16424222Y18613681D01*
X16424215Y18613689D01*
X16420808Y18618318D01*
X16416426Y18622040D01*
X16416424Y18622043D01*
X16379708Y18653235D01*
X16373802Y18658679D01*
X16367321Y18665160D01*
X16344664Y18683085D01*
X16342028Y18685246D01*
X16286015Y18732833D01*
X16280896Y18735447D01*
X16276106Y18738642D01*
X16276167Y18738734D01*
X16273047Y18740737D01*
X16272989Y18740643D01*
X16268092Y18743668D01*
X16263584Y18747234D01*
X16258378Y18749667D01*
X16258375Y18749669D01*
X16197026Y18778341D01*
X16193921Y18779859D01*
X16177181Y18788407D01*
X16128492Y18813269D01*
X16122902Y18814637D01*
X16117513Y18816641D01*
X16117552Y18816745D01*
X16114052Y18817977D01*
X16114017Y18817871D01*
X16108562Y18819686D01*
X16103350Y18822122D01*
X16097722Y18823293D01*
X16097712Y18823296D01*
X16031427Y18837083D01*
X16028058Y18837845D01*
X15960973Y18854260D01*
X15956690Y18855308D01*
X15945536Y18856000D01*
X15945550Y18856231D01*
X15941565Y18856698D01*
X15941544Y18856458D01*
X15935811Y18856970D01*
X15930185Y18858140D01*
X15924443Y18857985D01*
X15924439Y18857985D01*
X15852410Y18856036D01*
X15849733Y18856000D01*
X10679675Y18856000D01*
X10621484Y18874907D01*
X10609733Y18884935D01*
X10579373Y18915242D01*
X10575303Y18919305D01*
X10430564Y19008524D01*
X10429633Y19009098D01*
X10429631Y19009099D01*
X10424738Y19012115D01*
X10419282Y19013925D01*
X10419279Y19013926D01*
X10261994Y19066095D01*
X10261989Y19066096D01*
X10256861Y19067797D01*
X10152400Y19078500D01*
X9151600Y19078500D01*
X9045834Y19067526D01*
X8878054Y19011550D01*
X8873167Y19008526D01*
X8873163Y19008524D01*
X8797420Y18961652D01*
X8727652Y18918478D01*
X8602695Y18793303D01*
X8599677Y18788407D01*
X8517964Y18655844D01*
X8509885Y18642738D01*
X8508075Y18637282D01*
X8508074Y18637279D01*
X8455905Y18479994D01*
X8455904Y18479989D01*
X8454203Y18474861D01*
X8443500Y18370400D01*
X8443500Y17744600D01*
X8454474Y17638834D01*
X8510450Y17471054D01*
X8513474Y17466167D01*
X8513476Y17466163D01*
X8560348Y17390420D01*
X8603522Y17320652D01*
X8607586Y17316595D01*
X8709217Y17215141D01*
X8737042Y17160648D01*
X8727523Y17100208D01*
X8709339Y17075133D01*
X8602695Y16968303D01*
X8509885Y16817738D01*
X8508075Y16812282D01*
X8508074Y16812279D01*
X8455905Y16654994D01*
X8455904Y16654989D01*
X8454203Y16649861D01*
X8443500Y16545400D01*
X8443500Y15919600D01*
X8454474Y15813834D01*
X8510450Y15646054D01*
X8513474Y15641167D01*
X8513476Y15641163D01*
X8560348Y15565420D01*
X8603522Y15495652D01*
X8607586Y15491595D01*
X8607590Y15491590D01*
X8700695Y15398647D01*
X8728520Y15344155D01*
X8719001Y15283715D01*
X8700817Y15258641D01*
X8581762Y15139378D01*
X8581759Y15139374D01*
X8577695Y15135303D01*
X8574674Y15130402D01*
X8570884Y15124255D01*
X8524252Y15084642D01*
X8486999Y15077208D01*
X7653514Y15073943D01*
X7249160Y15072360D01*
X7249227Y15064166D01*
X7256741Y14144212D01*
X7238309Y14085868D01*
X7189105Y14049501D01*
X7127921Y14049002D01*
X7105795Y14059128D01*
X7000235Y14124197D01*
X7000231Y14124199D01*
X6995338Y14127215D01*
X6989882Y14129025D01*
X6989879Y14129026D01*
X6832594Y14181195D01*
X6832589Y14181196D01*
X6827461Y14182897D01*
X6723000Y14193600D01*
X5672200Y14193600D01*
X5566434Y14182626D01*
X5398654Y14126650D01*
X5393767Y14123626D01*
X5393763Y14123624D01*
X5318565Y14077089D01*
X5248252Y14033578D01*
X5123295Y13908403D01*
X5030485Y13757838D01*
X5028675Y13752382D01*
X5028674Y13752379D01*
X4976505Y13595094D01*
X4976504Y13595089D01*
X4974803Y13589961D01*
X4964100Y13485500D01*
X4964100Y12884700D01*
X4975074Y12778934D01*
X4995889Y12716544D01*
X5004143Y12691804D01*
X5004624Y12630621D01*
X4969050Y12580840D01*
X4911010Y12561476D01*
X4869725Y12570459D01*
X4867038Y12572115D01*
X4795829Y12595734D01*
X4704294Y12626095D01*
X4704289Y12626096D01*
X4699161Y12627797D01*
X4594700Y12638500D01*
X3968900Y12638500D01*
X3863134Y12627526D01*
X3729299Y12582875D01*
X3708692Y12576000D01*
X3647509Y12575519D01*
X3617988Y12590691D01*
X3554348Y12638387D01*
X3554342Y12638390D01*
X3548705Y12642615D01*
X3536542Y12647175D01*
X3418131Y12691565D01*
X3412316Y12693745D01*
X3406144Y12694415D01*
X3406142Y12694416D01*
X3370163Y12698324D01*
X3350134Y12700500D01*
X1729866Y12700500D01*
X1709837Y12698324D01*
X1673858Y12694416D01*
X1673856Y12694415D01*
X1667684Y12693745D01*
X1661869Y12691565D01*
X1543459Y12647175D01*
X1531295Y12642615D01*
X1414739Y12555261D01*
X1410509Y12549617D01*
X1410505Y12549613D01*
X1349220Y12467841D01*
X1299192Y12432616D01*
X1238014Y12433524D01*
X1190780Y12467841D01*
X1129495Y12549613D01*
X1129491Y12549617D01*
X1125261Y12555261D01*
X1008705Y12642615D01*
X996542Y12647175D01*
X878131Y12691565D01*
X872316Y12693745D01*
X866144Y12694415D01*
X866142Y12694416D01*
X830163Y12698324D01*
X810134Y12700500D01*
X-810134Y12700500D01*
X-830163Y12698324D01*
X-866142Y12694416D01*
X-866144Y12694415D01*
X-872316Y12693745D01*
X-878131Y12691565D01*
X-996541Y12647175D01*
X-1008705Y12642615D01*
X-1125261Y12555261D01*
X-1212615Y12438705D01*
X-1215089Y12432107D01*
X-1215089Y12432106D01*
X-1226139Y12402629D01*
X-1263745Y12302316D01*
X-1264415Y12296144D01*
X-1264416Y12296142D01*
X-1266467Y12277261D01*
X-1270500Y12240134D01*
X-1270500Y10619866D01*
X-1268977Y10605845D01*
X-1265138Y10570511D01*
X-1263745Y10557684D01*
X-1261565Y10551869D01*
X-1222206Y10446880D01*
X-1212615Y10421295D01*
X-1125261Y10304739D01*
X-1008705Y10217385D01*
X-1002107Y10214911D01*
X-1002106Y10214911D01*
X-1002098Y10214908D01*
X-872316Y10166255D01*
X-866144Y10165585D01*
X-866142Y10165584D01*
X-830163Y10161676D01*
X-810134Y10159500D01*
X810134Y10159500D01*
X830163Y10161676D01*
X866142Y10165584D01*
X866144Y10165585D01*
X872316Y10166255D01*
X1008705Y10217385D01*
X1034591Y10236786D01*
X1094230Y10256564D01*
X1445204Y10255611D01*
X1447585Y10255605D01*
X1506688Y10235826D01*
X1525653Y10221613D01*
X1525655Y10221612D01*
X1531295Y10217385D01*
X1537893Y10214911D01*
X1537894Y10214911D01*
X1537902Y10214908D01*
X1667684Y10166255D01*
X1673856Y10165585D01*
X1673858Y10165584D01*
X1709837Y10161676D01*
X1729866Y10159500D01*
X3350134Y10159500D01*
X3370163Y10161676D01*
X3406142Y10165584D01*
X3406144Y10165585D01*
X3412316Y10166255D01*
X3548705Y10217385D01*
X3554349Y10221615D01*
X3554351Y10221616D01*
X3565428Y10229918D01*
X3625068Y10249697D01*
X3697076Y10249502D01*
X3783268Y10249268D01*
X3841408Y10230203D01*
X3877237Y10180605D01*
X3882000Y10150268D01*
X3882000Y6899000D01*
X10603000Y6899000D01*
X10661191Y6880093D01*
X10697155Y6830593D01*
X10702000Y6800000D01*
X10702000Y4098000D01*
X15837500Y4098000D01*
X15895691Y4079093D01*
X15931655Y4029593D01*
X15936500Y3999000D01*
X15936500Y3774600D01*
X15947474Y3668834D01*
X16003450Y3501054D01*
X16006474Y3496167D01*
X16006476Y3496163D01*
X16037990Y3445238D01*
X16096522Y3350652D01*
X16221697Y3225695D01*
X16226593Y3222677D01*
X16367367Y3135902D01*
X16367369Y3135901D01*
X16372262Y3132885D01*
X16377718Y3131075D01*
X16377721Y3131074D01*
X16535006Y3078905D01*
X16535011Y3078904D01*
X16540139Y3077203D01*
X16644600Y3066500D01*
X17645400Y3066500D01*
X17751166Y3077474D01*
X17918946Y3133450D01*
X17923833Y3136474D01*
X17923837Y3136476D01*
X18069348Y3226522D01*
X18070174Y3225186D01*
X18120772Y3244000D01*
X18176861Y3229363D01*
X18247367Y3185902D01*
X18247369Y3185901D01*
X18252262Y3182885D01*
X18257718Y3181075D01*
X18257721Y3181074D01*
X18415006Y3128905D01*
X18415011Y3128904D01*
X18420139Y3127203D01*
X18524600Y3116500D01*
X19575400Y3116500D01*
X19681166Y3127474D01*
X19848946Y3183450D01*
X19853833Y3186474D01*
X19853837Y3186476D01*
X19994454Y3273493D01*
X19994457Y3273495D01*
X19999348Y3276522D01*
X20003405Y3280587D01*
X20064896Y3302000D01*
X20785476Y3302000D01*
X20843667Y3283093D01*
X20879631Y3233593D01*
X20883960Y3192911D01*
X20876100Y3116200D01*
X20876100Y2065400D01*
X20887074Y1959634D01*
X20943050Y1791854D01*
X20946074Y1786967D01*
X20946076Y1786963D01*
X20963652Y1758561D01*
X21036122Y1641452D01*
X21161297Y1516495D01*
X21166193Y1513477D01*
X21306967Y1426702D01*
X21306969Y1426701D01*
X21311862Y1423685D01*
X21317318Y1421875D01*
X21317321Y1421874D01*
X21474606Y1369705D01*
X21474611Y1369704D01*
X21479739Y1368003D01*
X21540711Y1361756D01*
X21558296Y1359954D01*
X21614256Y1335214D01*
X21644987Y1282306D01*
X21638751Y1221440D01*
X21607577Y1182249D01*
X21537186Y1129494D01*
X21537183Y1129491D01*
X21531539Y1125261D01*
X21444185Y1008705D01*
X21393055Y872316D01*
X21386300Y810134D01*
X21386300Y-810134D01*
X21393055Y-872316D01*
X21444185Y-1008705D01*
X21531539Y-1125261D01*
X21537183Y-1129491D01*
X21537187Y-1129495D01*
X21618959Y-1190780D01*
X21654184Y-1240808D01*
X21653276Y-1301986D01*
X21618959Y-1349220D01*
X21537187Y-1410505D01*
X21537183Y-1410509D01*
X21531539Y-1414739D01*
X21444185Y-1531295D01*
X21393055Y-1667684D01*
X21386300Y-1729866D01*
X21386300Y-3350134D01*
X21393055Y-3412316D01*
X21444185Y-3548705D01*
X21531539Y-3665261D01*
X21648095Y-3752615D01*
X21784484Y-3803745D01*
X21790656Y-3804415D01*
X21790658Y-3804416D01*
X21826637Y-3808324D01*
X21846666Y-3810500D01*
X22677811Y-3810500D01*
X22736002Y-3829407D01*
X22747815Y-3839496D01*
X23056815Y-4148496D01*
X23084592Y-4203013D01*
X23075021Y-4263445D01*
X23031756Y-4306710D01*
X22986811Y-4317500D01*
X-4218500Y-4317500D01*
X-4276691Y-4298593D01*
X-4312655Y-4249093D01*
X-4317500Y-4218500D01*
X-4317500Y24538500D01*
X-4298593Y24596691D01*
X-4249093Y24632655D01*
X-4218500Y24637500D01*
X44858500Y24637500D01*
X44916691Y24618593D01*
G37*
%TD.AperFunction*%
%TA.AperFunction,Conductor*%
G36*
X23569005Y5567092D02*
G01*
X23580818Y5557003D01*
X23919505Y5218316D01*
X23947282Y5163799D01*
X23948501Y5148312D01*
X23948501Y4679786D01*
X23947375Y4664897D01*
X23943802Y4641410D01*
X23947463Y4596405D01*
X23948175Y4587647D01*
X23948501Y4579621D01*
X23948501Y4570466D01*
X23948833Y4567621D01*
X23948833Y4567615D01*
X23951845Y4541779D01*
X23952185Y4538343D01*
X23952929Y4529203D01*
X23958141Y4465122D01*
X23959915Y4459647D01*
X23961041Y4454010D01*
X23960931Y4453988D01*
X23961721Y4450363D01*
X23961830Y4450389D01*
X23963153Y4444793D01*
X23963819Y4439078D01*
X23965782Y4433670D01*
X23988886Y4370019D01*
X23990008Y4366751D01*
X24007128Y4313905D01*
X24012650Y4296860D01*
X24015633Y4291945D01*
X24018028Y4286713D01*
X24017927Y4286667D01*
X24019529Y4283321D01*
X24019631Y4283372D01*
X24022203Y4278237D01*
X24024168Y4272822D01*
X24027326Y4268006D01*
X24064447Y4211387D01*
X24066288Y4208468D01*
X24104406Y4145652D01*
X24107326Y4142346D01*
X24111804Y4137275D01*
X24111656Y4137144D01*
X24114137Y4133989D01*
X24114303Y4134128D01*
X24117993Y4129715D01*
X24121145Y4124907D01*
X24155228Y4092620D01*
X24177612Y4071415D01*
X24179531Y4069548D01*
X24409304Y3839775D01*
X24437081Y3785258D01*
X24438300Y3769771D01*
X24438300Y1364937D01*
X24419393Y1306746D01*
X24369893Y1270782D01*
X24349992Y1266516D01*
X24330658Y1264416D01*
X24330656Y1264415D01*
X24324484Y1263745D01*
X24318669Y1261565D01*
X24211636Y1221440D01*
X24188095Y1212615D01*
X24071539Y1125261D01*
X24067309Y1119617D01*
X24067305Y1119613D01*
X24006020Y1037841D01*
X23955992Y1002616D01*
X23894814Y1003524D01*
X23847580Y1037841D01*
X23786295Y1119613D01*
X23786291Y1119617D01*
X23782061Y1125261D01*
X23665505Y1212615D01*
X23641965Y1221440D01*
X23534931Y1261565D01*
X23529116Y1263745D01*
X23522944Y1264415D01*
X23522942Y1264416D01*
X23503608Y1266516D01*
X23447800Y1291597D01*
X23417392Y1344692D01*
X23415300Y1364937D01*
X23415300Y1751073D01*
X23416426Y1765963D01*
X23419134Y1783761D01*
X23419134Y1783764D01*
X23419999Y1789449D01*
X23415626Y1843212D01*
X23415300Y1851238D01*
X23415300Y1860393D01*
X23411956Y1889080D01*
X23411616Y1892516D01*
X23409847Y1914261D01*
X23405660Y1965737D01*
X23403886Y1971212D01*
X23402760Y1976849D01*
X23402870Y1976871D01*
X23402080Y1980496D01*
X23401971Y1980470D01*
X23400648Y1986066D01*
X23399982Y1991781D01*
X23374915Y2060840D01*
X23373793Y2064108D01*
X23352923Y2128529D01*
X23351151Y2133999D01*
X23348168Y2138914D01*
X23345773Y2144146D01*
X23345874Y2144192D01*
X23344272Y2147538D01*
X23344170Y2147487D01*
X23341598Y2152623D01*
X23339633Y2158037D01*
X23299367Y2219453D01*
X23297523Y2222375D01*
X23261685Y2281435D01*
X23261682Y2281439D01*
X23259395Y2285208D01*
X23251997Y2293584D01*
X23252133Y2293704D01*
X23249654Y2296862D01*
X23249498Y2296731D01*
X23245808Y2301144D01*
X23242656Y2305952D01*
X23186189Y2359444D01*
X23184270Y2361311D01*
X22922096Y2623485D01*
X22894319Y2678002D01*
X22893100Y2693489D01*
X22893100Y3116200D01*
X22882126Y3221966D01*
X22826150Y3389746D01*
X22818755Y3401697D01*
X22791810Y3445238D01*
X22777267Y3504670D01*
X22791719Y3549282D01*
X22849098Y3642367D01*
X22849099Y3642369D01*
X22852115Y3647262D01*
X22859270Y3668834D01*
X22906095Y3810006D01*
X22906096Y3810011D01*
X22907797Y3815139D01*
X22918500Y3919600D01*
X22918500Y4970400D01*
X22907526Y5076166D01*
X22851550Y5243946D01*
X22848526Y5248833D01*
X22848524Y5248837D01*
X22801652Y5324580D01*
X22758478Y5394348D01*
X22754414Y5398405D01*
X22754410Y5398410D01*
X22735853Y5416935D01*
X22708028Y5471428D01*
X22717548Y5531868D01*
X22760775Y5575170D01*
X22805796Y5585999D01*
X23510814Y5585999D01*
X23569005Y5567092D01*
G37*
%TD.AperFunction*%
%TD*%
M02*
