M48
; DRILL file {KiCad 6.0.11+dfsg-1~bpo11+1} date Mon May 29 00:37:40 2023
; FORMAT={3:3/ absolute / metric / suppress leading zeros}
; #@! TF.CreationDate,2023-05-29T00:37:40+00:00
; #@! TF.GenerationSoftware,Kicad,Pcbnew,6.0.11+dfsg-1~bpo11+1
; #@! TF.FileFunction,Plated,1,2,PTH
FMAT,2
METRIC,TZ
; #@! TA.AperFunction,Plated,PTH,ViaDrill
T1C0.635
; #@! TA.AperFunction,Plated,PTH,ComponentDrill
T2C0.889
; #@! TA.AperFunction,Plated,PTH,ComponentDrill
T3C3.000
%
G90
G05
T1
X-2184Y15900
X-2184Y4826
X1282Y4999
X4293Y18517
X12217Y22835
X15647Y5584
X17043Y22403
X17450Y13538
X18521Y15438
X19690Y9520
X19939Y6236
X21920Y4432
X21996Y13208
X22298Y9906
X23038Y22200
X23266Y3454
X24740Y16510
X24765Y13970
X27495Y3238
X27762Y22301
X28600Y12243
X28732Y18349
X32766Y21819
X33376Y3734
X37033Y5105
T2
X0Y13970
X0Y11430
X0Y8890
X2540Y13970
X2540Y11430
X2540Y8890
X9525Y9525
X12065Y9525
X14605Y9525
X20117Y0
X20117Y-2540
X20574Y19050
X20574Y16510
X22657Y0
X22657Y-2540
X25197Y0
X25197Y-2540
X27737Y0
X27737Y-2540
X30277Y0
X30277Y-2540
X40107Y14326
X40107Y11786
X40107Y9246
X42647Y14326
X42647Y11786
X42647Y9246
T3
X0Y20320
X0Y0
X40640Y20320
X40640Y0
T0
M30
